<?xml version='1.0' encoding='utf-8'?>
<svg xmlns="http://www.w3.org/2000/svg" width="1920" height="1080">
    <defs>
        <filter id="shadow" x="-50%" y="-50%" width="200%" height="200%">
            <feDropShadow dx="0" dy="0" stdDeviation="10" flood-color="black" flood-opacity="0.7"/>
        </filter>
    </defs>
    <rect x="1050" y="50" width="800" height="900" fill="#111111" fill-opacity="0.85" rx="10" ry="10" filter="url(#shadow)"/>
    <g fill="#55555530" transform="translate(1104 97)">
        <rect x="0" y="54" width="695" height="2"/>
        <rect x="0" y="108" width="695" height="2"/>
        <rect x="0" y="162" width="695" height="2"/>
        <rect x="0" y="216" width="695" height="2"/>
        <rect x="0" y="270" width="695" height="2"/>
        <rect x="0" y="324" width="695" height="2"/>
        <rect x="0" y="378" width="695" height="2"/>
        <rect x="0" y="432" width="695" height="2"/>
        <rect x="0" y="486" width="695" height="2"/>
        <rect x="0" y="540" width="695" height="2"/>
        <rect x="0" y="594" width="695" height="2"/>
        <rect x="0" y="648" width="695" height="2"/>
        <rect x="0" y="702" width="695" height="2"/>
        <rect x="0" y="756" width="695" height="2"/>
    </g>
</svg>
