<?xml version='1.0' encoding='utf-8'?>
<svg xmlns="http://www.w3.org/2000/svg" fill="#000000" height="24" width="24" version="1.1" id="Layer_1" viewBox="0 0 15.36 15.36" xml:space="preserve">
    <defs id="defs11"/>
    <g id="g6" style="fill:#ffffff">
        <g id="g4" style="fill:#ffffff">
            <path d="M13.111 2.249C11.66 0.799 9.731 0 7.68 0S3.7 0.799 2.249 2.249C0.799 3.7 0 5.629 0 7.68s0.799 3.98 2.249 5.431S5.629 15.36 7.68 15.36s3.98 -0.799 5.431 -2.249C14.561 11.66 15.36 9.731 15.36 7.68s-0.799 -3.98 -2.249 -5.431M7.68 1.718c3.023 0 5.528 2.262 5.911 5.183L9.895 6.541c-0.414 -0.803 -1.252 -1.353 -2.215 -1.353s-1.801 0.55 -2.215 1.353L1.769 6.901C2.152 3.98 4.657 1.718 7.68 1.718M1.767 8.441l3.652 0.285c0.231 0.496 0.62 0.905 1.103 1.16l0.239 3.686c-2.605 -0.405 -4.658 -2.503 -4.994 -5.13m5.913 0.013c-0.427 0 -0.774 -0.347 -0.774 -0.774S7.253 6.906 7.68 6.906 8.454 7.253 8.454 7.68 8.107 8.454 7.68 8.454m0.919 5.117 0.239 -3.686a2.51 2.51 0 0 0 1.103 -1.16l3.652 -0.285c-0.336 2.627 -2.389 4.725 -4.994 5.13" id="path2" style="fill:#ffffff"/>
        </g>
    </g>
</svg>
