<?xml version='1.0' encoding='utf-8'?>
<svg xmlns="http://www.w3.org/2000/svg" width="600" height="81.66531304115469" version="1.1" id="svg4" viewBox="0 0 208.67416 28.402401">
    <defs id="defs4"/>
    <path style="baseline-shift:baseline;display:inline;overflow:visible;vector-effect:none;fill:#ffffff;stroke-linecap:round;stroke-linejoin:round;paint-order:markers stroke fill;enable-background:accumulate;stop-color:#000000;stop-opacity:1" d="m 205.52734,0.6171875 c -4.10085,0 -7.57208,0.5690676 -10.24804,1.8398438 -2.04558,0.9714165 -3.68707,2.5660471 -4.35547,4.5351562 -1.35854,-1.6790758 -3.11279,-3.229671 -5.62891,-4.3789062 l -0.004,-0.00195 C 182.38702,1.2642028 178.0183,0.69921875 174.00586,0.69921875 H 159.55859 A 2.0524303,2.0524303 0 0 0 157.50586,2.7519531 V 26.804687 a 2.0524303,2.0524303 0 0 0 2.05273,2.050782 h 14.44727 c 3.87249,0 7.96203,-0.569283 10.8418,-1.810547 a 2.0522251,2.0522251 0 0 0 0.43554,-0.01563 c 2.2838,-1.041142 3.89941,-2.43159 5.22266,-3.925781 v 2.960937 a 2.0524303,2.0524303 0 0 0 1.72266,2.025391 c 3.12668,0.50703 6.07187,0.765625 10.09765,0.765625 5.074,0 8.8539,-0.66232 11.60938,-2.058594 2.75548,-1.396274 4.48047,-3.874603 4.48047,-6.560547 0,-2.485476 -1.38659,-4.631613 -3.34961,-6.039062 -1.96303,-1.40745 -4.48832,-2.401107 -7.61133,-3.525391 a 2.0524303,2.0524303 0 0 0 -0.0156,-0.0059 c -2.21542,-0.7794999 -3.92001,-1.4022748 -4.85156,-1.9082035 -0.2698,-0.1465297 -0.31764,-0.2132151 -0.44727,-0.3144531 0.48551,-0.2333331 1.48949,-0.5195313 3.14063,-0.5195313 3.30099,0 5.34048,0.748654 8.16016,1.2773438 a 2.0524303,2.0524303 0 0 0 2.42968,-2.0175782 V 3.4082031 A 2.0524303,2.0524303 0 0 0 214.18555,1.3886719 C 211.47303,0.89548466 209.79436,0.6171875 205.52734,0.6171875 Z M 17.378906,0.69921875 A 2.0524303,2.0524303 0 0 0 15.328125,2.7519531 V 14.080078 a 2.0524303,2.0524303 0 0 0 2.050781,2.052734 h 2.134766 a 2.0524303,2.0524303 0 0 0 2.052734,-2.052734 V 10.5625 l 5.136719,4.990234 a 2.0524303,2.0524303 0 0 0 1.429687,0.580078 h 1.642579 a 2.0524303,2.0524303 0 0 0 1.642578,-1.640624 2.0524303,2.0524303 0 0 0 1.640625,1.640624 h 2.134765 a 2.0524303,2.0524303 0 0 0 1.642578,-1.640624 2.0524303,2.0524303 0 0 0 1.640625,1.640624 h 2.134766 a 2.0524303,2.0524303 0 0 0 2.052734,-2.052734 V 10.5625 l 5.136719,4.990234 a 2.0524303,2.0524303 0 0 0 1.429688,0.580078 h 1.640625 a 2.0524303,2.0524303 0 0 0 2.052734,-2.052734 V 6.5273437 a 2.0524303,2.0524303 0 0 0 0.246094,0.2460938 h 3.037109 v 7.3066405 a 2.0524303,2.0524303 0 0 0 2.052735,2.052734 h 2.216796 a 2.0524303,2.0524303 0 0 0 2.052735,-2.052734 V 6.7734375 h 3.037109 A 2.0524303,2.0524303 0 0 0 65.8125,6.5273437 v 7.6347653 a 2.0524303,2.0524303 0 0 0 2.052734,2.052735 h 11.082032 a 2.0524303,2.0524303 0 0 0 1.599609,-1.601563 2.0524303,2.0524303 0 0 0 1.519531,1.519531 h 2.134766 a 2.0524303,2.0524303 0 0 0 2.050781,-2.052734 V 10.5625 l 5.136719,4.990234 a 2.0524303,2.0524303 0 0 0 1.43164,0.580078 h 1.640625 a 2.0524303,2.0524303 0 0 0 1.642579,-1.642578 2.0524303,2.0524303 0 0 0 1.640625,1.642578 h 8.373049 c 2.00966,0 3.94968,-0.872281 5.1582,-2.443359 a 2.0524303,2.0524303 0 0 0 0.0137,-0.01953 c 0.0218,-0.0291 0.0275,-0.06823 0.0488,-0.09766 0.71732,1.494394 2.2239,2.560546 3.97461,2.560546 h 9.11133 c 2.42505,0 4.43359,-2.008544 4.43359,-4.433593 V 5.1328125 c 0,-2.4250492 -2.00854,-4.43359375 -4.43359,-4.43359375 h -9.11133 c -1.75168,0 -3.25975,1.06483375 -3.97656,2.56054685 -0.0212,-0.029189 -0.0252,-0.068784 -0.0469,-0.097656 a 2.0522251,2.0522251 0 0 0 -0.008,-0.00195 2.0522251,2.0522251 0 0 0 -0.006,-0.017578 C 110.06652,1.571504 108.1265,0.69922225 106.11684,0.69922225 H 97.744141 A 2.0524303,2.0524303 0 0 0 96.103516,2.3417969 2.0524303,2.0524303 0 0 0 94.460937,0.69921875 H 92.408203 A 2.0524303,2.0524303 0 0 0 90.357422,2.7519531 v 3.4375 L 85.300781,1.2792969 A 2.0524303,2.0524303 0 0 0 83.871094,0.69921875 H 82.066406 A 2.0524303,2.0524303 0 0 0 80.505859,2.2597656 2.0524303,2.0524303 0 0 0 78.947266,0.69921875 h -0.41211 A 2.0524303,2.0524303 0 0 0 78.453125,0.78125 H 67.865234 A 2.0524303,2.0524303 0 0 0 66.757812,1.890625 2.0524303,2.0524303 0 0 0 65.566406,0.69921875 H 65.15625 65.074219 53.169922 A 2.0524303,2.0524303 0 0 0 52.021484,1.8496094 2.0524303,2.0524303 0 0 0 50.871094,0.69921875 H 48.820312 A 2.0524303,2.0524303 0 0 0 46.767578,2.7519531 V 6.1875 L 41.712891,1.2792969 A 2.0524303,2.0524303 0 0 0 40.283203,0.69921875 H 38.476562 A 2.0524303,2.0524303 0 0 0 36.835937,2.3398438 2.0524303,2.0524303 0 0 0 35.193359,0.69921875 H 34.783203 33.058594 A 2.0524303,2.0524303 0 0 0 31.417969,2.3398438 2.0524303,2.0524303 0 0 0 29.775391,0.69921875 H 27.722656 A 2.0524303,2.0524303 0 0 0 25.669922,2.7519531 V 6.1875 L 20.615234,1.2792969 A 2.0524303,2.0524303 0 0 0 19.185547,0.69921875 Z M 161.60937,4.8046875 h 4.84375 A 2.0524303,2.0524303 0 0 0 165.30469,5.953125 V 23.4375 a 2.0524303,2.0524303 0 0 0 1.31445,1.314453 h -5.00977 z m 17.13086,0.40625 c 2.03243,0.2915372 3.86546,0.6789539 4.82618,1.125 a 2.0524303,2.0524303 0 0 0 0.0137,0.00781 c 5.00652,2.282389 6.1875,5.2568355 6.1875,8.4746095 0,3.110897 -1.19685,6.17805 -6.14453,8.451171 a 2.0522251,2.0522251 0 0 0 -0.13868,-0.05078 c -1.02946,0.477966 -3.00445,0.871235 -5.16015,1.160156 1.16425,-0.408694 2.32867,-0.820471 3.27344,-1.509765 2.49601,-1.821074 3.98242,-4.755463 3.98242,-8.132813 0,-3.367436 -1.45187,-6.313821 -3.9375,-8.1621088 -0.8343,-0.6203728 -1.88862,-0.9660035 -2.90235,-1.3632812 z m 20.61914,0.2695312 c -0.90229,0.7305607 -1.63085,1.6766275 -1.63085,2.8535157 0,0.9334516 0.3977,1.8798716 0.95507,2.5371096 0.55738,0.657237 1.2208,1.0987 1.94532,1.492187 1.44903,0.786974 3.23183,1.395589 5.44921,2.175782 3.02436,1.089407 5.29835,2.063961 6.59571,2.99414 1.30002,0.932089 1.63672,1.494593 1.63672,2.703125 0,1.172243 -0.40948,1.977648 -2.23047,2.900391 -0.86175,0.436671 -2.09493,0.805313 -3.59571,1.089843 1.215,-0.87301 2.05079,-2.264392 2.05079,-3.662109 0,-1.422875 -0.97867,-2.835444 -2.1875,-3.650391 -1.20884,-0.814946 -2.74892,-1.453341 -4.96875,-2.291015 a 2.0524303,2.0524303 0 0 0 -0.0176,-0.0078 c -2.89562,-1.060369 -5.30186,-2.021143 -6.76953,-2.988281 -1.46768,-0.967138 -1.90039,-1.589132 -1.90039,-2.7187499 0,-1.0865427 0.52924,-1.8786479 2.34765,-2.7421875 0.59575,-0.2829102 1.49198,-0.4739526 2.32031,-0.6855469 z M 80.013672,5.7070312 V 11.207031 A 2.0524303,2.0524303 0 0 0 78.947266,10.138672 H 78.126953 A 2.0524303,2.0524303 0 0 0 79.029297,9.2363281 V 7.265625 A 2.0524303,2.0524303 0 0 0 78.537109,6.7734375 h 0.410157 a 2.0524303,2.0524303 0 0 0 1.066406,-1.0664063 z m 21.753908,1.0664063 h 4.43164 c 0.36939,0 0.22117,-0.038604 0.36133,0.1972656 0.14015,0.2358695 0.29687,0.8439804 0.29687,1.4453125 0,0.5687608 -0.16213,1.1723364 -0.3164,1.4257813 -0.15428,0.2534451 -0.0408,0.2148441 -0.3418,0.2148441 a 2.0522251,2.0522251 0 0 0 -0.041,0.04101 2.0522251,2.0522251 0 0 0 -0.041,-0.04101 h -4.34961 z m 15.18555,0 h 5.82812 v 3.3652345 h -5.82812 z m 52.45507,1.2324219 h 2.54492 c 3.27208,0 5.72403,0.7338872 7.24024,1.8613281 1.51621,1.1274405 2.2832,2.5724305 2.2832,4.8691405 0,2.286795 -0.77248,3.702796 -2.29883,4.816406 -1.52634,1.113611 -3.98909,1.833985 -7.22461,1.833985 h -2.54492 z m 24.42774,6.5644536 c 0.1862,0.141187 0.30154,0.356173 0.49609,0.484375 2.08268,1.3724 4.68449,2.340115 7.61719,3.414062 l -0.0195,-0.0059 c 2.13088,0.804106 3.5054,1.437126 4.12304,1.853515 0.61765,0.416389 0.37891,0.193319 0.37891,0.248047 0,0.21044 0.0949,0.158135 -0.32031,0.408203 -0.41521,0.250068 -1.46882,0.578125 -3.21094,0.578125 -3.33207,0 -8.00761,-0.809268 -9.60547,-1.423828 a 2.0524303,2.0524303 0 0 0 -0.81445,0.0957 c 0.86772,-1.779295 1.39062,-3.623552 1.39062,-5.404297 0,-0.08183 -0.0335,-0.165966 -0.0352,-0.248046 z" id="path7" transform="translate(-15.328125,-0.53515625)"/>
    <path style="baseline-shift:baseline;display:inline;overflow:visible;vector-effect:none;fill:#ffffff;stroke-linecap:round;stroke-linejoin:round;paint-order:markers stroke fill;enable-background:accumulate;stop-color:#000000;stop-opacity:1" d="m 115.3125,13.341797 c -2.42505,0 -4.43359,2.008544 -4.43359,4.433594 v 6.484375 c 0,2.425049 2.00854,4.433593 4.43359,4.433593 h 9.11133 c 2.42505,0 4.43359,-2.008544 4.43359,-4.433593 v -6.484375 c 0,-2.42505 -2.00854,-4.433594 -4.43359,-4.433594 z m 1.64063,6.074219 h 5.82812 v 3.365234 h -5.82812 z" id="path5" transform="translate(-15.328125,-0.53515625)"/>
    <path style="baseline-shift:baseline;display:inline;overflow:visible;vector-effect:none;fill:#231f20;stroke-linecap:round;stroke-linejoin:round;paint-order:markers stroke fill;enable-background:accumulate;stop-color:#000000;stop-opacity:1" d="M 19.514036,5.7068225 V 14.079907 H 17.37972 V 2.7516161 h 1.805959 l 8.537263,8.2909959 V 2.7516161 h 2.052227 V 14.079907 h -1.641781 z m 21.09689,0 V 14.079907 H 38.47661 V 2.7516161 h 1.805959 l 8.537264,8.2909959 V 2.7516161 h 2.052226 V 14.079907 h -1.641781 z m 43.589293,0 V 14.079907 H 82.065904 V 2.7516161 h 1.805959 l 8.537261,8.2909959 V 2.7516161 h 2.052227 V 14.079907 H 92.819575 Z M 34.782602,2.7516161 h 0.410445 V 14.079907 H 33.058732 V 2.7516161 Z m 30.372955,0 h 0.410445 V 4.7217537 H 60.476479 V 14.079907 H 58.260075 V 4.7217537 H 53.170553 V 2.7516161 h 11.902914 z m 13.380517,0 h 0.410445 v 1.9701376 h -8.947708 v 2.544761 h 6.977571 v 1.9701375 h -6.977571 v 2.9552068 h 8.947708 v 1.970137 H 67.864495 V 2.8337052 H 78.536074 Z M 106.118,12.10977 H 99.715052 V 4.7217537 h 6.485038 c 2.05222,0 2.70894,1.9701376 2.70894,3.6940079 0,1.7238704 -0.7388,3.6940084 -2.70894,3.6940084 m 3.44774,-7.7163726 C 108.82694,3.3262396 107.5956,2.7516161 106.118,2.7516161 H 97.744912 V 14.079907 H 106.118 c 1.4776,0 2.70894,-0.574623 3.52983,-1.641781 0.73881,-0.985069 1.14925,-2.380583 1.14925,-4.0223644 0,-1.6417813 -0.41044,-3.0372954 -1.14925,-4.0223642 m 15.18648,7.3059266 c 0,0.246267 -0.24627,0.492535 -0.49254,0.492535 h -8.9477 c -0.24627,0 -0.49254,-0.246268 -0.49254,-0.492535 V 5.2142881 c 0,-0.2462672 0.24627,-0.4925344 0.49254,-0.4925344 h 8.9477 c 0.24627,0 0.49254,0.2462672 0.49254,0.4925344 z m -0.41045,-8.9477079 h -9.11189 c -1.31342,0 -2.38058,1.0671579 -2.38058,2.3805829 v 6.567125 c 0,1.313425 1.06716,2.380583 2.38058,2.380583 h 9.11189 c 1.31343,0 2.38059,-1.067158 2.38059,-2.380583 V 5.132199 c 0,-1.313425 -1.06716,-2.3805829 -2.38059,-2.3805829 m 68.13393,19.2909309 c 2.13431,0.82089 6.7313,1.559692 10.34322,1.559692 3.94028,0 5.58205,-1.313425 5.58205,-3.037296 0,-1.477603 -1.4776,-2.380583 -5.82832,-4.022364 -5.82832,-2.134316 -10.01486,-3.858186 -10.01486,-7.634283 0,-3.9402751 5.08951,-6.238769 12.88798,-6.238769 4.18654,0 5.58206,0.2462672 8.29099,0.7388016 v 3.7760971 c -2.62685,-0.4925344 -4.92533,-1.3134251 -8.53726,-1.3134251 -3.85818,0 -5.49997,1.231336 -5.49997,2.4626719 0,1.8059595 2.54476,2.7089395 6.97757,4.2686315 6.15668,2.216404 9.60443,3.940275 9.60443,7.634283 0,3.858186 -4.26864,6.567125 -14.03724,6.567125 -3.94027,0 -6.7313,-0.246267 -9.76859,-0.738801 z M 171.95344,5.9530897 h -4.59699 V 23.43806 h 4.59699 c 7.05965,0 11.57455,-3.037295 11.57455,-8.70144 0,-5.6641462 -4.43281,-8.7835303 -11.57455,-8.7835303 m 12.39544,19.1267523 c -2.29849,1.067158 -6.56713,1.72387 -10.34322,1.72387 H 159.55798 V 2.7516161 h 14.44768 c 3.77609,0 8.12681,0.6567125 10.42531,1.7238704 5.58205,2.544761 7.38801,6.4850365 7.38801,10.3432215 0,3.776098 -1.80596,7.798462 -7.38801,10.343223" id="path8" transform="translate(-15.328125,-0.53515625)"/>
    <path style="baseline-shift:baseline;display:inline;overflow:visible;vector-effect:none;fill:#a09d9e;stroke-linecap:round;stroke-linejoin:round;paint-order:markers stroke fill;enable-background:accumulate;stop-color:#000000;stop-opacity:1" d="m 124.83431,24.34104 c 0,0.246268 -0.24627,0.492535 -0.49254,0.492535 h -8.9477 c -0.24627,0 -0.49254,-0.246267 -0.49254,-0.492535 v -6.485036 c 0,-0.246267 0.24627,-0.492534 0.49254,-0.492534 h 8.9477 c 0.24627,0 0.49254,0.246267 0.49254,0.492534 z m -0.41045,-8.947708 -9.11189,8.21e-4 c -1.31342,0 -2.38058,1.067158 -2.38058,2.380583 v 6.485036 c 0,1.313425 1.06716,2.380583 2.38058,2.380583 h 9.11189 c 1.31343,0 2.38059,-1.067158 2.38059,-2.380583 v -6.485036 c 0,-1.313425 -1.06716,-2.380583 -2.38059,-2.380583" id="path6" transform="translate(-15.328125,-0.53515625)"/>
    <g id="path1" transform="translate(-15.328125,-0.53515625)"/>
    <g id="path2" transform="translate(-15.328125,-0.53515625)"/>
    <g id="path3" transform="translate(-15.328125,-0.53515625)">
        <path style="baseline-shift:baseline;display:inline;overflow:visible;vector-effect:none;fill:#ffffff;stroke-linecap:round;stroke-linejoin:round;paint-order:markers stroke fill;enable-background:accumulate;stop-color:#000000;stop-opacity:1" d="m 141.33398,0.53515625 c -7.05835,0 -11.77734,0.85351565 -11.77734,0.85351565 a 2.0524303,2.0524303 0 0 0 -1.68555,2.0195312 v 3.6933594 a 2.0524303,2.0524303 0 0 0 2.52539,1.9980469 c 3.10194,-0.7346667 5.82149,-1.3398438 9.70704,-1.3398438 1.96885,0 3.69173,0.3204449 4.72656,0.734375 0.42462,0.1698478 0.63226,0.3292681 0.78515,0.4492188 -0.139,0.1244211 -0.41515,0.331517 -1.01367,0.5429687 -1.3171,0.4653249 -3.76197,0.8183599 -7.20703,0.8183599 h -3.2832 a 2.0524303,2.0524303 0 0 0 -2.05274,2.050781 v 3.367187 a 2.0524303,2.0524303 0 0 0 2.05274,2.050781 h 3.03711 c 3.62981,0 6.43062,0.311661 8.05664,0.820313 0.81301,0.254326 1.30401,0.558214 1.48828,0.732422 0.18427,0.174208 0.14062,0.11564 0.14062,0.253906 0,0.18242 -0.10697,0.509256 -1.25781,1.015625 -1.15084,0.506369 -3.05827,0.873047 -5.22656,0.873047 -3.80346,0 -7.39512,-0.84483 -10.47852,-1.65625 a 2.0524303,2.0524303 0 0 0 -2.57421,1.984375 v 4.021484 a 2.0524303,2.0524303 0 0 0 1.71484,2.025391 c 1.33171,0.221951 5.59921,1.09375 12.97851,1.09375 4.24574,0 8.24474,-0.661676 11.39649,-2.050781 1.57587,-0.694553 2.95643,-1.575334 4.00976,-2.753907 1.05334,-1.178572 1.75196,-2.725124 1.75196,-4.388671 0,-2.787827 -1.76879,-4.92035 -3.70313,-6.197266 -0.12061,-0.07962 -0.25463,-0.104925 -0.37695,-0.179687 0.51173,-0.343562 1.04911,-0.56415 1.50391,-1.060547 0.89338,-0.975097 1.58984,-2.3760786 1.58984,-3.9726566 0,-1.6212587 -0.79002,-3.1128786 -1.89258,-4.1347657 -1.10256,-1.021887 -2.48208,-1.7011239 -4.0293,-2.2226562 -3.09442,-1.04306462 -6.94199,-1.44140625 -10.90625,-1.44140625 z m 5.54493,4.47265625 c 1.52186,0.2050213 2.93167,0.4801962 4.05078,0.8574219 1.19251,0.4019696 2.07569,0.9034255 2.55078,1.34375 0.47509,0.4403244 0.57812,0.6940321 0.57812,1.125 0,0.4966932 -0.14493,0.7987115 -0.51367,1.2011719 -0.36873,0.4024603 -0.98824,0.8157457 -1.67187,1.1367187 -1.36727,0.641947 -2.81641,0.888672 -2.81641,0.888672 a 2.0522251,2.0522251 0 0 0 -1.00586,1.384766 2.0522251,2.0522251 0 0 0 -0.72461,0.724609 2.0522251,2.0522251 0 0 0 0.11524,0.115234 2.0522251,2.0522251 0 0 0 -0.0898,0.123047 2.0522251,2.0522251 0 0 0 0.7793,0.566406 2.0522251,2.0522251 0 0 0 1.24805,1.248047 c 0.90883,0 2.59911,0.454167 3.80468,1.25 1.20557,0.795833 1.85938,1.701126 1.85938,2.771485 0,0.593902 -0.18529,1.068566 -0.70703,1.652343 -0.52175,0.583777 -1.40889,1.207853 -2.60352,1.734375 -1.27196,0.560606 -2.89826,0.980387 -4.6914,1.275391 0.0579,-0.02433 0.13227,-0.02953 0.18945,-0.05469 1.9275,-0.8481 3.70898,-2.491232 3.70898,-4.771484 0,-1.216204 -0.57819,-2.433163 -1.42773,-3.236328 -0.84954,-0.803165 -1.89217,-1.296365 -3.08008,-1.667969 -1.00765,-0.315214 -2.21003,-0.502956 -3.47266,-0.662109 1.09652,-0.166756 2.14996,-0.352486 3.00977,-0.65625 1.05505,-0.372744 1.97271,-0.861924 2.70312,-1.619141 0.73042,-0.757216 1.19922,-1.8512861 1.19922,-2.9121091 0,-1.0889212 -0.54692,-2.0638158 -1.20703,-2.7128907 -0.51043,-0.5018997 -1.14576,-0.8016113 -1.78515,-1.1054687 z" id="path9"/>
        <path style="baseline-shift:baseline;display:inline;overflow:visible;vector-effect:none;fill:#cf181f;stroke-linecap:round;stroke-linejoin:round;paint-order:markers stroke fill;enable-background:accumulate;stop-color:#000000;stop-opacity:1" d="m 149.37894,13.587372 c 0,0 6.7313,-1.067157 6.7313,-5.2536995 0,-4.1044532 -7.14175,-5.7462345 -14.77603,-5.7462345 -6.89548,0 -11.41038,0.8208906 -11.41038,0.8208906 v 3.694008 c 3.11939,-0.7388016 6.07459,-1.3955141 10.17904,-1.3955141 4.35073,0 7.71637,1.313425 7.71637,3.1193844 0,2.2164051 -3.28356,3.5298291 -10.4253,3.5298291 h -3.28357 v 3.365652 h 3.0373 c 7.4701,0 11.73874,1.149247 11.73874,3.858187 0,2.462672 -3.7761,3.940275 -8.53727,3.940275 -4.10445,0 -7.88055,-0.90298 -10.99994,-1.723871 v 4.022365 c 1.47761,0.246267 5.41789,1.067158 12.64172,1.067158 8.04473,0 15.10439,-2.626851 15.10439,-7.14175 0,-3.858185 -4.84326,-6.07459 -7.71637,-6.07459" id="path10"/>
    </g>
    <g id="path4" style="opacity:1" transform="translate(-4.00063,5.664e-5)">
        <path style="baseline-shift:baseline;display:inline;overflow:visible;vector-effect:none;fill:#ffffff;stroke-linecap:round;stroke-linejoin:round;paint-order:markers stroke fill;enable-background:accumulate;stop-color:#000000;stop-opacity:1" d="m 205.17383,22.103516 a 1.50015,1.50015 0 0 0 -1.5,1.5 v 0.5 a 1.50015,1.50015 0 0 0 0.90039,0.90039 v 1.898438 a 1.50015,1.50015 0 0 0 1.5,1.5 h 0.59961 A 1.50015,1.50015 0 0 0 207.07617,28 a 1.50015,1.50015 0 0 0 0.69727,0.302734 h 0.59961 a 1.50015,1.50015 0 0 0 0.40429,-0.375 1.50015,1.50015 0 0 0 0.4961,0.375 h 0.5 a 1.50015,1.50015 0 0 0 0.45508,-0.320312 1.50015,1.50015 0 0 0 0.3457,0.320312 h 0.59961 a 1.50015,1.50015 0 0 0 1.49804,-1.59375 l -0.20117,-3.199218 a 1.50015,1.50015 0 0 0 -1.49609,-1.40625 h -0.80078 a 1.50015,1.50015 0 0 0 -0.70117,0.517578 1.50015,1.50015 0 0 0 -0.69922,-0.517578 h -0.79883 a 1.50015,1.50015 0 0 0 -0.20703,0.193359 1.50015,1.50015 0 0 0 -0.19336,-0.193359 z" id="path11"/>
        <path style="baseline-shift:baseline;display:inline;overflow:visible;vector-effect:none;fill:#231f20;stroke-linecap:round;stroke-linejoin:round;paint-order:markers stroke fill;enable-background:accumulate;stop-color:#000000;stop-opacity:1" d="m 206.07392,24.102814 h -0.9 v -0.5 h 2.4 v 0.5 h -0.9 v 2.8 h -0.6 z m 4.6,1.5 v -1.4 c -0.1,0.4 -0.2,0.8 -0.4,1.2 l -0.5,1.4 h -0.5 l -0.4,-1.4 c -0.1,-0.4 -0.2,-0.9 -0.3,-1.3 0,0.4 0,0.9 -0.1,1.4 l -0.1,1.3 h -0.6 l 0.2,-3.2 h 0.8 l 0.4,1.3 c 0.1,0.4 0.2,0.8 0.3,1.1 0.1,-0.4 0.2,-0.8 0.3,-1.1 l 0.4,-1.3 h 0.8 l 0.2,3.2 h -0.6 l -0.1,-1.3 z" id="path12"/>
    </g>
</svg>
