<?xml version='1.0' encoding='utf-8'?>
<svg xmlns="http://www.w3.org/2000/svg" height="72.54139011798365" viewBox="0 0 1191.7001 144.07973" width="600" version="1.1" id="svg3">
    <defs id="defs3"/>
    <path d="m 858.20334,3.0724343 c -0.4,0.4 -16.6,0.7 -36.1,0.6 l -35.3,-0.2 -3.3,9.7999997 c -5.5,16.2 -6.3,18.3 -7.6,18.3 -0.6,0 -3.6,-6.2 -6.6,-13.8 l -5.4,-13.6999997 -65.9,-0.3 c -48.2,-0.1 -66.2,0.1 -66.7,0.9 -0.5,0.9 -2.3,0.9 -7.1,0 -4.5,-0.8 -38.2,-1.1 -111.1,-1.1 h -104.7 v 9.4999997 c 0,5.2 -0.3,9.5 -0.7,9.5 -0.5,-0.1 -3.7,-4.3 -7.2,-9.5 l -6.4,-9.4999997 h -98.7 l -7.2,10.6999997 -7.3,10.8 -0.3,-10.8 -0.3,-10.6999997 h -56.9 v 6.7999997 l -5.2,-1.9999997 c -10.8,-4.1 -18.3,-4.7 -57.8,-4.7 h -37.5 l -11.3,15.8999997 -11.3,16 H 58.603336 l -26.7,37.3 -26.7000002,37.199996 20.6000002,0.3 c 11.3,0.1 20.6,0.5 20.6,0.7 0,0.3 -4,6.2 -9,13.1 -4.9,6.9 -9,12.7 -9,13 0,0.2 15.5,0.4 34.4,0.4 h 34.4 l 7.300004,-10.2 c 4.1,-5.6 8,-10.3 8.7,-10.6 0.9,-0.3 1.2,2.2 1.2,10.2 v 10.6 h 37.5 c 41,0 53.2,-0.9 64.3,-4.6 4,-1.3 7.5,-2.4 7.7,-2.4 0.3,0 0.5,1.6 0.5,3.5 v 3.5 h 24.8 l 24.7,-0.1 7.4,-11.7 c 8,-12.6 9.9,-15.2 11.3,-15.2 0.4,0 0.8,6.1 0.8,13.5 v 13.5 h 109 v -11.3 c 0.1,-13 -0.5,-13.1 9.3,2.2 l 5.8,9.1 h 86.8 l 0.3,-5.9 0.3,-6 5.7,3.9 c 9.2,6.1 15.8,8.2 27.9,8.8 8.1,0.3 11.9,0 16.4,-1.2 4.1,-1.2 6.1,-1.4 6.8,-0.7 0.8,0.8 25.6,1.1 80.4,1.1 h 79.3 v -25 h 5.4 c 2.9,0 8.1,-0.3 11.4,-0.6 l 6.1,-0.7 1.5,3.4 c 0.8,1.9 3.3,8.3 5.4,14.4 l 4,11 49.8,0.4 c 63.1,0.5 70.8,0.5 104.9,0 l 28,-0.4 0.3,-2.8 c 0.4,-3 1.6,-3 7.2,-0.2 6.1,3.1 18.1,4.8 29.4,4.2 10.6,-0.5 15.7,-1.6 23.8,-5.1 4.79996,-2 4.59996,-2.1 4.99996,1.2 l 0.3,2.7 27.3,0.3 27.2,0.2 v -12.2 c 0,-14.3 -0.5,-14.4 9.5,1.4 l 6.7,10.8 h 45.8 v -31 h 9.5 l 8.1,-10.799996 c 4.5,-5.9 17.2,-22.6 28.2,-37.2 l 20.1,-26.5 -32.9,-0.3 -33,-0.2 V 3.5724343 l -27.2,0.2 -27.3,0.3 -0.5,10.4999997 -0.5,10.5 -7.5,-10.5 -7.5,-10.4999997 h -46 l -0.3,2.8 c -0.3,2.3 -0.7,2.7 -2,2.1 -11.39996,-5 -15.59996,-5.8 -30.69996,-5.8 -15.3,0 -17.9,0.5 -30.7,5.9 -1.3,0.5 -1.7,0 -2,-2.2 l -0.3,-2.8 -28,-0.3 c -15.4,-0.2 -33.2,-0.6 -39.5,-0.9 -6.3,-0.3 -11.8,-0.2 -12.2,0.2 z" fill="#ffffff" id="path1" style="stroke-width:13.0147;stroke-dasharray:none"/>
    <path id="path2" style="fill:#293789;fill-opacity:1;stroke:none;stroke-width:0;stroke-dasharray:none;stroke-opacity:1;paint-order:markers stroke fill" d="m 862.06857,0.01093426 c -1.71533,0.018486 -3.44427,0.1050768 -5.11178,0.5152605 -7.81621,0.4436052 -15.64963,0.3881837 -23.47532,0.4536734 -16.20566,0.025941 -32.41066,-0.1514958 -48.61602,-0.2189339 C 781.94765,9.3462532 779.15676,17.977616 776.01779,26.485543 773.39776,21.120296 771.35535,15.52019 769.12175,9.9506666 767.99221,7.0950605 766.86996,4.2364969 765.7424,1.3800749 729.59809,1.2422367 693.45356,0.94850956 657.30885,1.0978237 c -7.51435,0.07263 -15.03391,0.064922 -22.54198,0.4002817 -1.44807,0.1502734 -2.95974,0.1062642 -4.34597,0.5834948 -0.48887,0.162023 -0.81495,0.7143489 -1.38782,0.5392559 C 626.43936,2.4945333 623.9197,1.6918382 621.30994,1.7172491 610.98978,1.2158982 600.65348,1.2102665 590.32374,1.0951957 547.45088,0.78314156 504.57655,0.90079676 461.70295,0.87226236 c -18.66458,0 -37.32917,0 -55.99375,0 -0.0562,4.95693734 0.0651,9.91479364 -0.0469,14.87109364 -3.26338,-4.54978 -6.31932,-9.2509417 -9.43359,-13.8984374 -0.46588,-0.94390244 -1.60506,-1.06985944 -2.53711,-0.97070314 -33.2421,-0.00456 -66.48439,-6.51e-4 -99.72656,-0.00195 C 290.4358,6.1166687 286.9111,11.363126 283.36934,16.598828 283.22212,11.356643 283.07563,6.114437 282.92793,0.87226546 c -20.74154,0 -41.48307,0 -62.22461,0 0,1.85221354 0,3.70442714 0,5.55664074 -4.76877,-1.8647101 -9.69942,-3.39846 -14.79869,-4.0132296 -8.17634,-1.1301592 -16.44988,-1.1688641 -24.68822,-1.3278819 -18.30372,-0.21015474 -36.60903,-0.074252 -54.91348,-0.11396674 -1.59831,0 -3.19662,0 -4.79492,0 -7.553,10.62063304 -15.08722,21.25321604 -22.605475,31.89843704 -13.895183,0 -27.790365,0 -41.685547,0 -19.053435,26.621836 -38.127384,53.227599 -57.21875034,79.822255 13.01296734,0.2302 26.02945734,0.29311 39.03975634,0.65196 0.874474,0.0225 1.748266,0.0644 2.622353,0.098 -4.939676,7.23955 -10.225418,14.23756 -15.095703,21.52344 -0.517206,1.02829 -1.404305,2.12429 -1.106224,3.33925 0.310614,1.10012 1.567174,1.22933 2.492972,1.51226 1.856159,0.28212 3.748959,0.15722 5.621193,0.24029 20.608339,0.33902 41.220268,0.16745 61.83034,0.21094 1.061719,0 2.123438,0 3.185157,0 4.330178,-5.93606 8.419998,-12.05495 13.056648,-17.76172 0.12753,5.35741 0.0178,10.71758 0.0586,16.07617 0.0664,0.52875 -0.13617,1.32653 0.1,1.68555 19.40351,-0.0346 38.80774,0.0804 58.21072,-0.092 10.89382,-0.14595 21.81701,-0.26919 32.65151,-1.51235 5.51417,-0.6442 10.95523,-1.88241 16.19875,-3.70764 0.94713,-0.29737 1.88464,-0.62523 2.83511,-0.91263 0.0173,2.07484 -0.008,4.14971 0.006,6.22461 17.59309,0.0105 35.19198,-10e-4 52.78125,-0.10938 0.55516,-0.0969 1.21473,-0.16405 1.40898,-0.78761 4.86132,-7.62626 9.5876,-15.34068 14.64571,-22.8413 0.28626,6.4191 0.10951,12.97866 0.16211,19.45352 0,1.42826 0,2.85651 0,4.28477 38.13281,0 76.26563,0 114.39844,0 0.0178,-5.67643 -0.0321,-11.35306 0.0254,-17.0293 3.68417,5.64397 7.25624,11.36206 10.89648,17.0293 30.2819,0 60.5638,0 90.84571,0 0.16159,-3.21032 0.32427,-6.42057 0.48632,-9.63086 5.41073,3.7225 11.21876,7.08145 17.65759,8.63319 6.9453,1.74321 14.16234,1.97667 21.28887,1.86216 3.82531,-0.11205 7.61652,-0.79068 11.27812,-1.88701 0.94267,-0.18521 1.92722,-0.58589 2.88535,-0.39761 1.5116,0.76269 3.26898,0.57913 4.90638,0.74891 10.36327,0.46535 20.74005,0.45929 31.11136,0.55243 36.07323,0.20115 72.14719,0.088 108.22077,0.11879 6.46589,0 12.93177,0 19.39766,0 0,-8.33073 0,-16.66146 0,-24.99219 6.19175,0.0277 12.38513,-0.32642 18.52929,-1.0957 3.44904,7.94969 6.09433,16.2116 9.12746,24.322 0.51617,1.41673 1.02979,2.83439 1.54833,4.25026 37.10677,0.274 74.21296,0.66405 111.32069,0.7826 24.77023,0.0552 49.54353,-0.46917 74.30626,-0.77088 0.9875,-0.026 1.72014,-0.98074 1.60886,-1.93702 0.13908,-0.98314 0.15851,-1.93167 0.29544,-2.86572 2.41494,0.93985 4.65613,2.30004 7.14387,3.06821 5.10949,1.68391 10.4827,2.41848 15.83005,2.83062 7.25854,0.48312 14.56863,0.14542 21.76762,-0.87608 5.26016,-0.82616 10.33033,-2.64781 15.16471,-4.78231 0.4951,-0.16759 0.2174,0.98284 0.3876,1.36185 0.1161,1.05895 0.2326,2.11786 0.3468,3.17701 19.8737,0.23913 39.7481,0.42084 59.6229,0.54688 0.02,-6.37759 -0.034,-12.75536 0.018,-19.13282 4.1028,6.30187 8.0033,12.73206 11.9805,19.11329 16.6673,0 33.3346,0 50.0019,0 0,-10.33334 0,-20.66667 0,-31 2.7175,0 5.4349,0 8.1524,0 12.2909,-16.435229 24.7853,-32.703273 37.1313,-49.097201 7.7628,-10.257555 15.5477,-20.500173 23.3159,-30.754359 -22.8663,-0.205967 -45.7326,-0.417657 -68.5996,-0.53125 0,-10.345052 0,-20.690104 0,-31.03515574 -19.9249,0.1314712 -39.8495,0.30954834 -59.7734,0.54687504 -0.2502,5.2578035 -0.5,10.5156267 -0.75,15.7734367 -3.7615,-5.267054 -7.5245,-10.5330751 -11.2852,-15.8007805 -16.6048,0 -33.2096,0 -49.8143,0 -0.1678,1.4652069 -0.3086,2.9329769 -0.4727,4.3984375 C 995.37477,3.3241307 989.45602,1.3078865 983.28797,0.89228406 976.5601,0.30719726 969.79549,0.46854486 963.05093,0.56408616 957.862,0.70679146 952.63851,1.3772572 947.74967,3.1927166 945.40408,4.0037777 943.10529,4.941776 940.81326,5.8917468 940.64516,4.393763 940.50448,2.8929758 940.32888,1.395653 915.81014,1.12965 891.28479,0.98406546 866.78015,0.04599236 c -1.57016,-0.036505 -3.14048,-0.06131 -4.71104,-0.035105 z M 970.71506,10.442575 c 4.77214,0.0047 9.48572,0.537272 14.16759,1.581854 5.47225,1.222358 10.95181,3.204346 16.02115,5.847114 1.3578,0.788363 2.866,1.435668 3.9812,2.559313 0.979,1.573271 3.2232,2.499169 4.8769,1.398437 1.9009,-1.228503 2.1625,-3.681227 2.2961,-5.743432 0.064,-1.270423 0.044,-2.5435 0.042,-3.815161 11.2357,0 22.4713,0 33.707,0 4.9626,6.940512 9.7729,13.990479 14.8653,20.836856 2.1263,2.780093 4.2039,5.649767 6.8066,8.006894 1.4639,1.101919 3.7625,0.753592 4.7471,-0.81996 1.1896,-1.71733 1.1235,-3.915128 1.3038,-5.911176 0.4312,-7.362611 0.4255,-14.741637 0.619,-22.112614 12.8516,0 25.7031,0 38.5547,0 0,10 0,20 0,30 19.0814,0.04755 38.1651,-0.136392 57.2445,0.208141 0.8885,-0.12013 -0.3032,0.769898 -0.4218,1.138841 -12.6505,17.049962 -25.5946,33.878139 -38.4345,50.783953 -1.7307,2.22002 -3.3943,4.499485 -5.1655,6.683515 -1.1482,0.98333 -2.767,0.62863 -4.1539,0.7688 -3.0226,0.0551 -6.0459,-0.005 -9.0688,0.0203 0,9.99023 0,19.98046 0,29.97069 -11.4029,-0.10365 -22.8053,-0.25761 -34.207,-0.44921 -4.7021,-7.25226 -9.2505,-14.61457 -14.115,-21.77044 -1.752,-2.47451 -3.4764,-5.11886 -6.0432,-6.82527 -1.8229,-1.00065 -3.978,-0.81126 -5.9649,-1.17968 -1.1062,-0.0949 -1.9935,1.0477 -1.6699,2.0957 0,9.38541 0,18.77083 0,28.15625 -12.8704,0 -25.7409,0 -38.6113,0 -0.029,-2.73696 0.191,-5.55071 -0.5625,-8.21289 -0.57,-1.46902 -2.4375,-2.31184 -3.856,-1.49171 -2.2386,0.9336 -4.3549,2.49491 -6.3901,3.55616 -4.83813,2.55 -9.94305,4.59444 -15.17355,6.18272 -2.97847,0.87634 -6.09139,1.2566 -9.14861,1.28312 -4.97505,0.12945 -9.96057,0.14393 -14.93009,-0.13335 -3.48112,-0.24423 -6.8956,-1.18629 -10.10873,-2.39047 -5.27034,-1.85046 -10.39678,-4.15891 -15.14207,-7.11677 -1.32162,-0.75437 -2.68924,-1.69816 -4.24967,-1.74381 -1.4861,0.31829 -2.52487,1.72718 -2.56624,3.21928 -0.333,2.2668 -0.25093,4.56411 -0.25524,6.84772 -12.16648,-0.0552 -24.34027,0.18205 -36.50016,-0.31756 -1.20128,-0.10191 -2.45774,-0.10005 -3.61295,-0.40004 -1.72875,-1.21088 -3.96603,-0.58821 -5.79707,0.0266 -2.07361,0.75101 -4.19215,1.39522 -6.3932,1.63407 -4.17258,0.57841 -8.5244,0.59992 -12.64779,0.40846 -3.61623,-0.23824 -7.26721,-0.63797 -10.73282,-1.74075 -2.05699,-0.70842 -4.01684,-1.69719 -6.11679,-2.27292 -1.33327,-0.35722 -2.94294,-0.0259 -3.67774,1.24023 -0.33807,0.26147 -0.1983,1.01547 -0.6557,1.03082 -3.4692,0.38262 -6.97016,0.29582 -10.45518,0.35396 -9.3483,0.0693 -18.69691,0.0249 -28.04537,0.0371 -0.0729,-5.39126 -0.0739,-10.78867 -0.21679,-16.17578 -0.50365,-2.53313 -1.00691,-5.06633 -1.50977,-7.59961 -1.15961,2.33994 -2.44186,4.61773 -3.59368,6.95946 -0.7995,2.02932 -1.30251,4.16541 -2.0026,6.23205 -1.11431,3.53465 -2.24705,7.06349 -3.40567,10.58388 -11.18034,0 -22.36068,0 -33.54102,0 -3.33337,-9.33332 -6.66641,-18.66676 -10,-28 -12.36718,0 -24.73437,0 -37.10156,0 0,8.33333 0,16.66666 0,25 -31.22331,0 -62.44661,0 -93.66992,0 -3.78668,-5.58026 -7.60023,-11.13915 -11.40625,-16.70703 -0.29524,5.56896 -0.58856,11.13802 -0.88281,16.70703 -12.54883,0 -25.09766,0 -37.64649,0 0.0784,-1.78846 -0.59614,-3.88087 -2.40625,-4.56836 -1.80591,-0.674 -3.49884,0.59668 -5.12583,1.1953 -5.52142,2.36255 -11.36871,4.55229 -17.34292,4.9629 -1.23715,0.0951 -2.27644,0.15816 -3.53864,0.18278 -12.03796,0.26591 -24.31866,-4.26245 -32.72017,-13.008 -3.50699,-3.64336 -5.99784,-8.08582 -8.89152,-12.19866 -1.12367,-1.66612 -2.24617,-3.33301 -3.3692,-4.99955 0,9.47786 0,18.95572 0,28.43359 -25.10616,0.005 -50.21232,-0.0116 -75.31836,-0.0957 -4.25396,-6.59035 -8.34478,-13.28896 -12.75385,-19.77712 -1.59036,-2.26182 -3.35418,-4.78544 -6.14654,-5.59983 -1.9343,-0.53437 -3.99349,-0.42751 -5.92969,-0.73632 -1.11136,-0.13774 -2.13678,0.90652 -1.88476,2.01953 0.0774,5.01853 0.0111,10.05163 0.0332,15.07578 0,3.03789 0,6.07578 0,9.11367 -31.20052,0 -62.40104,0 -93.60156,0 0,-8.66667 0,-17.33334 0,-26 -4.92643,0 -9.85287,0 -14.7793,0 -5.53415,8.66606 -11.06625,17.33343 -16.59961,26 -12.54036,0 -25.08073,0 -37.62109,0 0,-4.10612 0,-8.21224 0,-12.31836 -5.76954,2.76024 -11.45846,5.69258 -17.28318,8.33512 -5.82703,2.47709 -12.20166,3.15262 -18.46699,3.46901 -10.49526,0.56197 -21.01115,0.4424 -31.51736,0.50444 -14.24414,0.0264 -28.48832,0.001 -42.73247,0.01 0,-8.67578 0,-17.35156 0,-26.02735 -2.46939,0.16126 -4.9758,-0.21526 -7.41813,0.25307 -2.80045,0.77636 -4.61375,3.23691 -6.36427,5.38024 -4.88842,6.29484 -9.364983,12.8951 -14.049609,19.34012 -0.39934,0.45236 -0.605921,1.27977 -1.353935,1.05371 -16.234195,-0.0384 -32.47074,0.12296 -48.702734,-0.21268 5.866919,-8.46021 12.022226,-16.76551 18.011809,-25.16743 0.8115,-0.72178 -0.06252,-0.58924 -0.687937,-0.5827 -13.610488,-0.11765 -27.220758,-0.24982 -40.829932,-0.46295 13.603916,-18.992602 27.244674,-37.968188 40.893444,-56.922102 0.446124,-0.907717 1.600421,-0.87678 2.453088,-1.11116 3.941466,-0.662897 7.891408,-0.735327 11.850128,-0.902111 9.800032,-0.291441 19.605695,-0.259971 29.408818,-0.347829 7.34825,-10.480577 14.68995,-20.965647 22.09765,-31.404297 16.36317,-0.114678 32.72625,-0.405742 49.0901,-0.311319 5.64674,0.04639 11.36402,0.159578 16.89047,0.521592 3.32177,0.218393 6.62424,0.487479 9.86447,0.978718 6.10711,0.891744 12.14846,2.635066 17.51726,5.734604 2.95136,1.641381 5.88806,3.322495 8.79981,5.025624 0.7964,0.725793 2.21166,0.360915 2.4668,-0.710938 0.16539,-1.320523 0.007,-2.671496 0.0625,-4.004297 0,-2.566276 0,-5.132552 0,-7.698828 13.3852,0.103728 26.77001,0.253802 40.15429,0.441407 0.21772,8.184289 0.15789,16.382508 0.7299,24.552886 0.18816,1.606917 0.33164,3.337652 1.23768,4.723364 1.04344,1.474796 3.46148,1.725525 4.64702,0.289895 2.38199,-2.434607 4.23533,-5.312838 6.23743,-8.052956 5.0702,-7.22012 9.82014,-14.659588 14.74368,-21.978033 29.91276,0 59.82552,0 89.73828,0 5.7603,8.207775 11.29216,16.58276 17.34961,24.576172 1.25546,1.576582 2.49586,3.203603 4.01953,4.529296 1.31154,0.993529 3.44706,0.732265 4.25,-0.783203 1.05473,-1.772266 0.98052,-3.919891 1.2168,-5.904297 0.52598,-7.297435 0.35237,-14.619545 0.45703,-21.929687 39.60725,-0.200225 79.21465,-0.370271 118.82226,-0.480469 0.0391,7.486435 -0.10532,14.977097 0.12977,22.460465 0.0754,1.934979 0.29215,4.216378 1.99523,5.447738 1.48321,0.987066 3.45542,0.836055 5.05664,0.246094 1.97742,-0.946362 2.48345,-3.306196 2.63314,-5.292954 0.53595,-6.006643 0.56474,-12.043347 0.83439,-18.065176 0.0512,-1.43466 0.10238,-2.86932 0.15357,-4.303979 19.57576,0.02942 39.15235,-0.0794 58.72747,0.108323 6.14271,0.104301 12.20277,0.170142 18.30954,0.937887 3.55292,0.485809 7.01582,1.503838 10.32432,2.871758 1.57315,0.587515 3.5597,0.177031 4.47027,-1.320988 0.53435,-0.771088 0.78536,-1.696561 0.93012,-2.612605 21.26298,-0.118199 42.52705,-0.39487 63.78992,-0.106471 18.59124,0.190864 37.17752,0.67393 55.76476,1.083033 3.3508,8.84077 6.68591,17.687392 10.00782,26.539063 4.77408,0 9.54817,0 14.32226,0 2.91371,-8.856027 5.86017,-17.701213 8.88672,-26.519532 15.83778,-0.131959 31.67603,-0.447606 47.51459,-0.312107 1.3956,0.03569 2.79723,0.02811 4.18268,0.222264 0.0633,1.570221 1.25972,3.128504 2.9162,3.15282 1.9472,0.113034 3.50113,-1.279714 5.23451,-1.935858 5.87916,-2.509132 12.3588,-3.316858 18.71061,-3.224775 4.13989,0.0973 8.28915,0.67544 12.20825,2.050092 1.97852,0.59863 4.18352,1.48198 6.21949,0.623736 0.48433,-0.234683 0.89069,-0.621558 1.47461,-0.515625 8.3507,-0.666558 16.74089,-0.490568 25.11172,-0.541015 4.69974,0 9.39948,0 14.09922,0 0.0191,2.784589 -0.18227,5.672559 0.72574,8.346542 0.62165,1.411461 2.46106,2.147487 3.83786,1.359306 2.68387,-1.163872 4.81794,-3.274912 7.49232,-4.464374 4.57245,-2.329499 9.47886,-4.006941 14.40022,-5.223898 4.75123,-1.223975 9.64018,-1.830309 14.54581,-1.845701 z"/>
    <path d="m 716.40334,27.372434 v 8.2 h 7 l -2.7,-7.3 c -1.4,-3.9 -3,-7.6 -3.5,-8.2 -0.4,-0.5 -0.8,2.7 -0.8,7.3 z m -120,26.8 v 17.7 l 9.8,-0.5 c 15.6,-0.8 22.8,-5.4 23.9,-15.3 0.7,-5.8 -1.1,-10.8 -5.2,-14.4 -4.5,-3.9 -9.1,-5.1 -19.7,-5.1 h -8.8 z m -422,16.3 v 34.099996 h 7.8 c 22.2,-0.1 32.7,-5.099996 38.8,-18.499996 7.9,-17.5 0.4,-39.3 -16.1,-46.6 -4.1,-1.9 -7.3,-2.4 -17.7,-2.7 l -12.8,-0.4 z m -50.1,-8.9 -9.5,14.5 9.4,0.3 c 5.2,0.1 9.6,0.1 9.9,-0.1 0.2,-0.2 0.2,-6.9 0.1,-14.8 l -0.3,-14.4 z m 835.4,-24.1 c -10.2,3.5 -16.1,9.1 -21.1,19.9 -2.2,4.8 -2.6,7.2 -2.6,14.7 -0.1,8.1 0.2,9.7 3.1,15.7 3.8,8.1 9.7,14.199996 17.2,17.699996 4.8,2.2 7,2.6 14.6,2.6 8.2,0 9.7,-0.3 15.7,-3.3 7.8,-3.8 12,-8.199996 16.09996,-16.999996 9.5,-20.3 -0.8,-44.5 -21.69996,-50.7 -6.6,-2 -14.9,-1.8 -21.3,0.4 z m -99,-22.9 c -5.8,1.2 -12.2,4.6 -16.5,8.8 l -3.8,3.6 v -11.4 h -45.6 l -4.5,13.7 -4.5,13.8 -9.5,0.3 -9.5,0.3 -5.4,-14.1 -5.3,-14 h -16.3 c -9.3,0 -16.4,0.4 -16.4,0.9 0,0.5 1.8,6 4,12.1 2.2,6.1 4,11.6 4,12.1 0,0.5 -4.7,0.9 -10.5,0.9 h -10.5 v -26 h -67 v 5 c 0,2.7 -0.3,5 -0.6,5 -0.3,0 -2.1,-1.2 -3.9,-2.6 -1.9,-1.4 -5.8,-3.5 -8.7,-4.7 -5.1,-2.1 -7,-2.2 -43,-2.5 l -37.8,-0.3 v 28.1 h -17 v -28 h -111.9 l -0.3,14.2 -0.3,14.3 h -11.8 l -10,-14.3 -10,-14.2 h -86.7 l -10,15 -10,15 h -13.1 l 0.3,-15 0.3,-15 h -33.5 v 19.2 l -6,-5.5 c -3.2,-3 -8.4,-6.7 -11.4,-8.1 -10.8,-5.1 -15.2,-5.6 -53.6,-5.6 h -35.5 l -11,15.5 c -6,8.5 -11.6,15.6 -12.4,15.6 -0.9,0.1 -10.600004,0.4 -21.500004,0.8 l -20,0.6 -18.3,25.5 -18.2,25.5 20.4,0.3 c 11.3,0.1 20.5,0.5 20.5,0.799996 0,0.3 -3.8,5.9 -8.5,12.5 -4.7,6.6 -8.5,12.2 -8.5,12.5 0,0.2 9.1,0.3 20.2,0.2 l 20.2,-0.3 9.000004,-12.7 9.1,-12.699996 7.8,-0.1 h 7.7 v 26.099996 l 39.3,-0.3 c 34.4,-0.4 39.9,-0.6 44.7,-2.2 8.8,-2.9 14.9,-6.4 20.7,-11.8 l 5.3,-5.1 v 19.3 h 32 l 8.5,-13 8.5,-12.999996 h 20 v 25.999996 h 86 V 99.572434 h 16.5 l 8.4,12.999996 8.3,13 h 27.8 V 99.572434 h 11 v 25.999996 h 30 V 99.572434 h 9.7 l 3.2,6.399996 c 11.3,23 44.1,28.5 63.5,10.6 l 4.6,-4.3 v 13.3 h 30.9 l 0.3,-12.1 0.3,-12 8.5,12 8.5,12 44.3,0.1 h 44.2 v -25 h 42.8 l 1.6,4.2 c 0.9,2.4 3.2,8.6 5,13.8 l 3.4,9.5 h 28.6 l 4.5,-13.8 4.5,-13.7 h 8.6 v 28 h 31 v -9 l 5,3.4 c 7.3,5 14.1,7 23.5,7 8.8,-0.1 16.5,-2.5 22.6,-6.9 l 3.4,-2.6 0.3,4.1 0.3,4 h 30.9 v -18.2 l 4,3.6 c 11.5,10.4 25,15.8 39.5,16 5,0 11.5,-0.5 14.5,-1.3 8.3,-2 18.99996,-7.6 25.39996,-13.2 l 5.6,-5.1 v 18.2 h 31 V 98.572434 h 7.8 l 7.7,0.1 9.4,14.899996 9.5,15 h 27.5 l 0.3,-15.3 0.3,-15.199996 7.7,-0.3 7.8,-0.3 19.1,-25.2 19.1,-25.2 -10.3,-0.6 c -5.7,-0.4 -17.9,-0.7 -27.1,-0.8 l -16.8,-0.1 v -30 h -31 v 30 h -12.5 l -10.5,-15 -10.5,-15 h -28.5 v 18.4 l -4.2,-4.1 c -10.6,-10.3 -24.39996,-15.7 -40.29996,-15.7 -15.9,0.1 -27.9,4.6 -39.3,14.9 l -5.2,4.7 v -18.2 h -31 v 4 c 0,2.2 -0.3,4 -0.6,4 -0.3,0 -2.1,-1.2 -3.9,-2.6 -7.2,-5.5 -20.8,-8.4 -30.2,-6.4 z m 16.9,9 c 8.8,2.5 17.2,12.8 18,22 l 0.3,3.5 -7.1,0.3 -7.1,0.3 -0.6,-3.9 c -2,-12.1 -19.5,-13.8 -24.1,-2.2 -2,5 -2,5.4 0,9.6 1.7,3.5 7.6,6.9 18.5,10.8 8.4,3 15.1,7.8 18.4,13 2.7,4.4 3,6 3.3,14 0.4,8.7 0.2,9.399996 -3,15.599996 -5.6,10.8 -14.9,15.6 -28.3,14.8 -7.9,-0.5 -13.5,-2.9 -18.6,-8 -3.7,-3.8 -7.4,-11.4 -8.4,-17.599996 l -0.7,-4.2 h 14.9 l 0.6,4.2 c 1.1,8.199996 7.6,13.199996 16,12.499996 8.9,-0.8 14.1,-7.1 13.4,-16.499996 -0.5,-7.4 -3.3,-10 -16.5,-15.1 -19.5,-7.7 -24.7,-13.5 -24.7,-27.6 0,-9 1.9,-13.6 7.7,-19.2 6.8,-6.6 18,-9 28,-6.3 z m 106.9,0.6 c 14.1,4.2 25.39996,13.8 31.69996,27.1 3.7,7.7 3.7,7.9 3.7,20.8 v 13 l -3.9,8 c -8.7,17.899996 -25.59996,28.499996 -45.09996,28.499996 -16.9,0 -32.1,-8.1 -41.4,-22.099996 -18.6,-27.8 -4.1,-66.7 28,-75.3 7.3,-2 20.3,-2 27,0 z m -834.1,46.4 v 46.999996 h -15.9 l -0.3,-13.3 -0.3,-13.199996 -13.7,-0.3 -13.8,-0.3 -7.500004,10.299996 c -13.6,18.6 -11.3,16.8 -21.4,16.8 -4.8,0 -9,-0.3 -9.3,-0.6 -0.3,-0.3 6.7,-10.7 15.6,-23.199996 8.9,-12.5 23.700004,-33.4 33.000004,-46.5 l 16.9,-23.7 h 16.7 z m 54.3,-45 c 13.9,3.5 22.1,10.3 28.3,23.3 11,23.3 2.9,52.199996 -17.4,62.599996 -8,4.1 -14.9,5.2 -35.4,5.8 l -19.8,0.6 V 23.572434 h 18.3 c 15,0 19.8,0.4 26,2 z m 55.9,32.2 0.3,34.2 22.5,-34 22.5,-33.9 h 55 l 0.3,6.2 0.3,6.3 h -35.1 v 27 h 35.1 l -0.3,6.2 -0.3,6.3 -17.3,0.3 -17.3,0.2 0.3,13.8 0.3,13.699996 17.3,0.3 17.3,0.2 -0.3,6.3 -0.3,6.2 h -47 l -0.5,-38.899996 -0.5,-38.8 -25,38.8 -25,38.899996 -9.1,0.3 -9.1,0.3 -0.8,-45.999996 c -0.4,-25.3 -0.4,-46.4 0,-47 0.3,-0.6 3.9,-1.1 8.5,-1.1 h 8 z m 145.2,-2.1 22.1,31.6 0.3,-31.8 0.2,-31.9 h 14 v 93.999996 h -13.7 l -22.9,-35.599996 -22.9,-35.7 -0.5,35.4 -0.5,35.399996 h -13 l -0.3,-46.799996 -0.2,-46.8 7.6,0.3 7.7,0.3 z m 96.6,-25.6 v 6.5 h -18 l -0.2,40.2 -0.3,40.299996 h -13 l -0.3,-40.299996 -0.2,-40.2 h -18 v -13 h 50 z m 21.2,28.2 c 0.3,31.6 0.5,35.1 2.2,38.6 2.8,5.599996 6.9,8.099996 14.2,8.499996 7.5,0.5 11.3,-1.2 15.2,-6.999996 l 2.7,-4.1 0.3,-35.4 0.3,-35.3 h 14 l -0.3,36.2 c -0.3,35.5 -0.4,36.4 -2.6,41.299996 -5,10.8 -13.9,16.6 -26.7,17.3 -6.6,0.3 -9.1,0 -13.9,-1.8 -7.5,-2.8 -13.7,-8.5 -16.7,-15.3 -2.4,-5.099996 -2.4,-5.799996 -2.7,-41.499996 l -0.3,-36.2 h 14 z m 102,-32.8 c 6.2,2 12,7.1 15.3,13.6 2.7,5.2 3,6.8 3,14.9 0,8.2 -0.3,9.6 -3,14.5 -3.6,6.6 -7.9,9.9 -16.1,12.6 l -6.3,2 12.4,16.5 c 6.9,9.099996 12.5,16.799996 12.5,17.199996 0,1.4 -15.8,0.9 -17.2,-0.5 -0.7,-0.8 -7.6,-10.2 -15.3,-21.099996 l -14,-19.7 -0.5,20.8 -0.5,20.799996 h -14 l -0.3,-45.499996 c -0.1,-25 0,-46.1 0.3,-46.8 0.4,-1.1 4.4,-1.3 20.3,-0.9 11.2,0.2 21.3,0.9 23.4,1.6 z m 76.8,4.6 v 6.5 h -37 v 27 h 37 v 13 h -37.1 l 0.3,13.7 0.3,13.799996 18.3,0.3 18.3,0.2 -0.3,6.3 -0.3,6.2 h -50 l -0.3,-46.799996 -0.2,-46.7 h 51 z m 359.79996,26.6 23.2,33.1 0.2,-32.9 0.3,-32.8 h 14 v 95.699996 h -7.3 c -4.1,0 -7.5,-0.2 -7.6,-0.4 -0.2,-0.1 -10.6,-16.4 -23.2,-36.199996 l -22.9,-35.9 -0.5,36.3 -0.5,36.199996 h -14 l -0.3,-46.799996 c -0.1,-25.8 0,-47.5 0.3,-48.2 0.3,-0.8 2.8,-1.2 7.8,-1.2 h 7.4 z m -298.39996,3.1 c 7.2,19.1 13.4,34.4 13.7,34 0.4,-0.4 5.8,-16.1 12,-35 l 11.4,-34.2 h 7.7 c 4.3,0 7.8,0.3 7.8,0.7 0,0.5 -6.9,21.7 -15.3,47.3 l -15.3,46.499996 h -16.9 l -2.7,-7.5 c -1.4,-4.1 -8.8,-24.599996 -16.3,-45.499996 -7.5,-20.9 -13.9,-38.8 -14.2,-39.8 -0.5,-1.6 0.1,-1.8 7.2,-1.5 l 7.7,0.3 z m 67.6,12.3 v 47.499996 h -14 V 24.572434 h 14 z m 87,0 v 47.499996 h -15 V 24.572434 h 15 z" fill="#e4150e" id="path3"/>
</svg>
