<?xml version='1.0' encoding='utf-8'?>
<svg xmlns="http://www.w3.org/2000/svg" viewBox="-64 344.8 616.13112 146.20027" xml:space="preserve" width="600" height="142.37255999575416" version="1.1" id="svg17">
    <defs id="defs17"/>
    <g id="g19" style="stroke:#ffffff;stroke-width:15;stroke-linecap:round;stroke-linejoin:round;stroke-dasharray:none;stroke-opacity:1;paint-order:markers stroke fill" transform="translate(7.5002512,7.4982679)">
        <g id="g18" style="stroke:#ffffff;stroke-width:15;stroke-linecap:round;stroke-linejoin:round;stroke-dasharray:none;stroke-opacity:1;paint-order:markers stroke fill">
            <g id="path2" style="opacity:1" transform="matrix(1.24716,0,0,1.24716,15.818,-85.22)">
                <path style="baseline-shift:baseline;display:inline;overflow:visible;opacity:1;vector-effect:none;fill:#ffffff;stroke:none;stroke-width:15;stroke-linecap:round;stroke-linejoin:round;stroke-dasharray:none;stroke-opacity:1;paint-order:markers stroke fill;enable-background:accumulate;stop-color:#000000;stop-opacity:1" d="m -11.400391,338.78711 c -32.351373,0 -58.613281,26.36452 -58.613281,58.61328 0,32.35137 26.364521,58.61328 58.613281,58.61328 6.2443214,0 12.2603977,-1.00161 17.8339847,-2.78515 A 6.0142642,6.0142642 0 0 0 10.613281,447.5 V 421.19922 A 6.0142642,6.0142642 0 0 0 1.6289062,415.9707 c -3.562931,2.0244 -7.6433287,3.21485 -11.9296872,3.21485 -12.867884,0 -22.884766,-9.86539 -22.884766,-21.78516 0,-11.89357 10.136581,-21.78711 22.884766,-21.78711 3.4204172,0 6.5241537,0.88635 9.3867185,2.13867 v 17.94727 a 6.0142642,6.0142642 0 0 0 6.0136719,6.01367 H 26.699219 a 6.0142642,6.0142642 0 0 0 4.335937,-1.84375 l 17.59961,-18.30078 a 6.0142642,6.0142642 0 0 0 -4.333985,-10.18164 h -33.6875 v -24.08594 a 6.0142642,6.0142642 0 0 0 -4.1796873,-5.72851 c -5.573587,-1.78355 -11.5896633,-2.78516 -17.8339847,-2.78516 z m 0,12.02734 c 3.4506342,0 6.7646051,0.50379 9.9863285,1.2168 v 12.70898 c -2.8340799,-0.72712 -5.8045361,-1.15429 -8.8867185,-1.15429 -19.051815,0 -34.91211,15.10802 -34.91211,33.81445 0,18.68023 15.779994,33.8125 34.91211,33.8125 3.0705855,0 6.0423225,-0.43115 8.8867185,-1.16797 v 12.72266 c -3.2217234,0.71301 -6.5356943,1.21875 -9.9863285,1.21875 -25.751239,0 -46.585937,-20.73731 -46.585937,-46.58594 0,-25.75124 20.737311,-46.58594 46.585937,-46.58594 z m 22.513672,32.59961 h 19.058594 l -6.03125,6.27149 H 11.113281 Z" id="path20"/>
                <path style="baseline-shift:baseline;display:inline;overflow:visible;vector-effect:none;fill:#ffffff;stroke:none;enable-background:accumulate;stop-color:#000000;stop-opacity:1" d="m 5.0996094,393.38672 a 6.0142642,6.0142642 0 0 0 -6.0136719,6.01367 v 18.29883 a 6.0142642,6.0142642 0 0 0 6.0136719,6.01367 H 44.300781 a 6.0142642,6.0142642 0 0 0 4.333985,-10.18164 l -17.59961,-18.30078 a 6.0142642,6.0142642 0 0 0 -4.335937,-1.84375 z m 6.0136716,12.02734 h 13.027344 l 6.03125,6.27149 H 11.113281 Z" id="path22"/>
                <path style="baseline-shift:baseline;display:inline;overflow:visible;opacity:1;vector-effect:none;fill:#002255;stroke:none;stroke-width:15;stroke-linecap:round;stroke-linejoin:round;stroke-dasharray:none;stroke-opacity:1;paint-order:markers stroke fill;enable-background:accumulate;stop-color:#000000;stop-opacity:1" d="m -11.4,344.8 c -29.1,0 -52.6,23.6 -52.6,52.6 0,29.1 23.6,52.6 52.6,52.6 5.6,0 11,-0.9 16,-2.5 v -26.3 c -4.4,2.5 -9.5,4 -14.9,4 -16,0 -28.9,-12.5 -28.9,-27.8 0,-15.3 13,-27.8 28.9,-27.8 5.5,0 10.6,1.5 14.9,4 v -26.3 c -5,-1.6 -10.4,-2.5 -16,-2.5 z m 38.1,50.9 H 5.1 v -18.3 h 39.2 z" id="path21"/>
                <path style="baseline-shift:baseline;display:inline;overflow:visible;vector-effect:none;fill:#ff0000;stroke:none;enable-background:accumulate;stop-color:#000000;stop-opacity:1" d="M 26.7,399.4 H 5.1 v 18.3 h 39.2 z" id="path23"/>
            </g>
        </g>
    </g>
    <g id="path3" style="opacity:1">
        <path style="baseline-shift:baseline;display:inline;overflow:visible;vector-effect:none;fill:#ffffff;stroke-linecap:round;stroke-linejoin:round;paint-order:markers stroke fill;enable-background:accumulate;stop-color:#000000;stop-opacity:1" d="m 125.83398,348.54102 c -7.75805,0 -15.4942,1.27663 -22.09179,4.48828 -13.247189,6.38294 -19.914024,21.22956 -17.623049,36.19726 a 7.50075,7.50075 0 0 0 0.0078,0.0508 c 1.128976,7.0561 3.727375,12.75921 7.951172,17.43555 0.553078,0.61234 1.187411,1.12754 1.78125,1.69141 H 84.429687 a 7.50075,7.50075 0 0 0 -7.5,7.5 v 3.74218 a 7.50075,7.50075 0 0 0 7.5,7.5 H 544.63086 a 7.50075,7.50075 0 0 0 7.5,-7.5 v -3.74218 a 7.50075,7.50075 0 0 0 -7.5,-7.5 h -9.31641 a 7.50075,7.50075 0 0 0 0.22852,-0.73047 v -7.35547 a 7.50075,7.50075 0 0 0 3.24414,-5.74024 v -2.36914 l -0.002,0.16602 c 0.15646,-7.0408 -1.78104,-13.61201 -5.49805,-18.84961 a 7.50075,7.50075 0 0 0 -0.0254,-0.0371 c -4.46191,-6.20788 -12.07319,-9.05414 -20.15625,-9.35351 a 7.50075,7.50075 0 0 0 -0.27735,-0.004 c -5.57617,0 -10.80593,1.41612 -15.18554,4.04297 a 7.50075,7.50075 0 0 0 -4.66992,-3.39844 c -0.69825,-0.13965 -1.81906,-0.29079 -3.08594,-0.3418 -1.10015,-0.1193 -2.15844,-0.17968 -2.75,-0.17968 -2.90467,0 -5.81278,0.63218 -8.4082,1.9375 a 7.50075,7.50075 0 0 0 -2.56641,-1.06446 H 464.5625 a 7.50075,7.50075 0 0 0 -6.73242,5.64844 c -5.39395,-4.40415 -12.32026,-6.52148 -19.70703,-6.52148 -7.00903,0 -13.39058,2.04566 -18.53321,5.72461 l -0.0312,-13.58204 a 7.50075,7.50075 0 0 0 -7.5,-7.48242 h -12.7207 a 7.50075,7.50075 0 0 0 -7.5,7.5 v 8.20703 c -1.74987,-0.3255 -3.5013,-0.49023 -5.22266,-0.49023 a 7.50075,7.50075 0 0 0 -0.36523,0.008 c -6.75236,0.32938 -13.44293,3.43271 -17.37695,9.05274 -0.10501,0.15 -0.17716,0.31891 -0.2793,0.4707 -0.78435,-0.91307 -1.5254,-1.86268 -2.45898,-2.65039 -5.4384,-4.58865 -12.51498,-6.75781 -20.05079,-6.75781 -7.6358,0 -14.60305,2.32739 -19.94531,6.66796 -0.78085,0.63445 -1.36867,1.42447 -2.04297,2.14649 -0.1517,-0.27589 -0.252,-0.5782 -0.41601,-0.84766 a 7.50075,7.50075 0 0 0 -0.0781,-0.12695 c -3.51455,-5.52288 -10.13804,-7.71484 -16.80469,-7.71484 -3.57141,0 -7.27346,0.69531 -10.71093,2.41406 -0.63597,0.31798 -1.15296,0.84952 -1.75391,1.23828 -0.36212,-0.26686 -0.64091,-0.65399 -1.01953,-0.89063 a 7.50075,7.50075 0 0 0 -0.29883,-0.17578 c -3.17221,-1.78437 -6.85064,-2.71093 -10.66015,-2.71093 -3.4584,0 -6.87836,0.78407 -10.08985,2.27343 a 7.50075,7.50075 0 0 0 -3.3789,-1.40039 h -11.59961 a 7.50075,7.50075 0 0 0 -5.97461,3.82032 c -3.68988,-3.18468 -8.7975,-4.56836 -13.98047,-4.56836 -3.57141,0 -7.27347,0.69532 -10.71094,2.41406 -0.63597,0.31798 -1.15296,0.84952 -1.75391,1.23828 -0.36212,-0.26686 -0.64091,-0.65399 -1.01953,-0.89063 a 7.50075,7.50075 0 0 0 -0.29883,-0.17578 c -3.17221,-1.78437 -6.85064,-2.71093 -10.66015,-2.71093 -3.4584,0 -6.87836,0.78408 -10.08985,2.27343 a 7.50075,7.50075 0 0 0 -3.3789,-1.40039 h -11.59961 a 7.50075,7.50075 0 0 0 -6.76367,5.71289 c -5.40638,-4.45392 -12.37349,-6.58593 -19.80078,-6.58593 -6.68934,0 -12.79445,1.88306 -17.81446,5.24414 a 7.50075,7.50075 0 0 0 0.20703,-0.34766 l 1.12305,-10.97461 a 7.50075,7.50075 0 0 0 -6.14258,-8.14648 c -3.38254,-0.60403 -7.67027,-1.48828 -12.79297,-1.48828 z m -17.05273,15.77929 c -0.01,0.008 -0.0155,0.0178 -0.0254,0.0254 -0.0156,0.0122 -0.0333,0.019 -0.0488,0.0312 z m 92.75586,2.66797 c -0.0305,0.0161 -0.0555,0.0404 -0.0859,0.0566 -0.0205,0.0113 -0.044,0.0121 -0.0644,0.0234 z m 69.4668,0 c -0.0305,0.0161 -0.0555,0.0404 -0.0859,0.0566 -0.0205,0.0113 -0.044,0.0121 -0.0645,0.0234 z m 204.88867,0.98828 c -0.0341,0.0268 -0.054,0.0629 -0.0879,0.0899 -0.0387,0.032 -0.0847,0.0515 -0.12305,0.084 z m -350.18164,6.16406 c 1.84329,0 3.54366,0.19128 5.19922,0.62696 a 7.50075,7.50075 0 0 0 0.0898,0.0234 c 2.43726,0.60931 3.125,0.80859 3.125,0.80859 a 7.50075,7.50075 0 0 0 3.27344,-0.52344 c -3.24093,4.45405 -4.85234,10.0283 -4.96875,15.73242 a 7.50075,7.50075 0 0 0 0,0.30469 c 0.004,0.19516 0.0569,0.38144 0.0644,0.57617 l -0.93359,0.24219 c -5.13552,1.32663 -11.43826,-0.19562 -13.14649,-1.61914 a 7.50075,7.50075 0 0 0 -0.0684,-0.0566 c -1.40462,-1.14274 -2.76321,-4.10515 -2.7832,-7.32422 -0.02,-3.21907 1.33028,-5.92384 2.38281,-6.73633 a 7.50075,7.50075 0 0 0 0.0723,-0.0566 c 1.05609,-0.83607 4.26994,-1.99805 7.69336,-1.99805 z m 376.07422,3.0918 c -0.044,0.0538 -0.0703,0.11385 -0.11329,0.16797 -0.0238,0.0311 -0.0585,0.0507 -0.082,0.082 z m 22.28125,0.24805 0.24023,0.33984 c -0.0442,-0.0663 -0.10907,-0.10309 -0.1543,-0.16797 -0.0382,-0.0524 -0.047,-0.11993 -0.0859,-0.17187 z m -305.08204,5.89258 a 7.50075,7.50075 0 0 0 0.46094,0.47851 c -0.0491,0.1183 -0.0905,0.23863 -0.13672,0.35742 -0.0864,-0.29505 -0.22444,-0.55003 -0.32422,-0.83593 z m 69.4668,0 a 7.50075,7.50075 0 0 0 0.46094,0.47851 c -0.0491,0.1183 -0.0905,0.23863 -0.13672,0.35742 -0.0864,-0.29505 -0.22444,-0.55003 -0.32422,-0.83593 z m -127.35156,4.56445 c 0.0446,0.0102 0.11152,0.0207 0.23437,0.0215 0.0373,-0.004 0.13422,-0.002 0.14844,-0.008 0.004,0.006 0.006,0.015 0.01,0.0215 0.0595,-0.002 0.004,0.009 0.0742,0.006 h -0.0723 c 0.35309,0.53698 0.56319,1.03309 0.49805,2.53125 a 7.50075,7.50075 0 0 0 -0.006,0.32617 c 0,1.34806 -0.27798,2.24404 -0.57227,2.85937 h 0.16602 c -0.14648,-0.006 -0.0705,0.009 -0.16797,0.008 -0.002,0.005 -0.004,0.0111 -0.006,0.0156 -0.026,-0.005 -0.0989,-0.005 -0.15234,-0.008 -0.0795,0.004 -0.20445,9.2e-4 -0.22657,0.01 -0.004,-0.007 -0.007,-0.0148 -0.0117,-0.0215 -0.0627,0.002 -0.0113,-0.007 -0.0879,-0.004 h 0.0859 c -0.35369,-0.53753 -0.56324,-1.03369 -0.49805,-2.5332 a 7.50075,7.50075 0 0 0 0.008,-0.32617 c 0,-1.48907 0.2391,-2.2355 0.55859,-2.85742 h -0.1543 c 0.13627,0.006 0.0626,-0.009 0.15625,-0.008 0.005,-0.0103 0.0103,-0.023 0.0156,-0.0332 z m 184.82812,0 c 0.0447,0.0103 0.11163,0.0208 0.23633,0.0215 0.0368,-0.004 0.13219,-0.002 0.14649,-0.008 0.004,0.007 0.007,0.0148 0.0117,0.0215 0.0584,-0.002 0.004,0.009 0.0723,0.006 h -0.0703 c 0.35305,0.53696 0.56318,1.03316 0.49805,2.53125 a 7.50075,7.50075 0 0 0 -0.008,0.32617 c 0,1.34806 -0.27602,2.24404 -0.57031,2.85937 h 0.16406 c -0.14477,-0.006 -0.0691,0.009 -0.16601,0.008 -0.007,0.0151 -0.0142,0.0362 -0.0215,0.0508 -0.051,-0.0182 -0.10595,-0.0332 -0.27343,-0.0371 -0.0174,0.003 -0.0828,3.2e-4 -0.0918,0.004 -0.004,-0.006 -0.006,-0.0121 -0.01,-0.0176 -0.0602,0.001 -0.002,-0.0128 -0.0742,-0.01 h 0.0703 c -0.35305,-0.53696 -0.56123,-1.03317 -0.4961,-2.53125 a 7.50075,7.50075 0 0 0 0.006,-0.32617 c 0,-1.48907 0.2391,-2.2355 0.5586,-2.85742 h -0.15235 c 0.13457,0.006 0.0613,-0.009 0.1543,-0.008 0.005,-0.0103 0.0103,-0.023 0.0156,-0.0332 z m 92.04102,0 c 0.0446,0.0102 0.11152,0.0207 0.23437,0.0215 0.0246,-0.002 0.0834,-0.002 0.0977,-0.006 0.002,0.004 0.003,0.009 0.006,0.0137 0.0904,-0.002 0.007,0.0168 0.12891,0.0117 h -0.12305 c 0.38243,0.70246 0.59972,1.36088 0.54883,2.53125 a 7.50075,7.50075 0 0 0 -0.006,0.32617 c 0,1.34806 -0.27603,2.24404 -0.57031,2.85937 h 0.16406 c -0.14478,-0.006 -0.0691,0.009 -0.16602,0.008 -0.004,0.009 -0.009,0.0221 -0.0137,0.0312 -0.0441,-0.009 -0.10719,-0.0186 -0.2207,-0.0195 -0.0262,0.003 -0.0867,3.7e-4 -0.10156,0.004 -0.003,-0.005 -0.005,-0.009 -0.008,-0.0137 -0.0904,0.002 -0.007,-0.0168 -0.1289,-0.0117 h 0.125 c -0.38211,-0.70214 -0.60165,-1.36133 -0.55078,-2.53125 a 7.50075,7.50075 0 0 0 0.008,-0.32617 c 0,-1.48907 0.2391,-2.2355 0.55859,-2.85742 h -0.1543 c 0.13591,0.006 0.0627,-0.009 0.15625,-0.008 0.005,-0.0103 0.0103,-0.023 0.0156,-0.0332 z m -46.2207,0.87109 c 0.052,0.0184 -0.0209,0.0516 0.23047,0.0391 l -0.24024,0.006 c 0.006,-0.007 0.004,-0.0375 0.01,-0.0449 z m -0.11328,0.50196 c 0.11604,0.31888 0.20312,0.77725 0.20312,1.65039 0,0.645 -0.0933,1.05293 -0.23047,1.38867 -0.12552,-0.37228 -0.23437,-0.92232 -0.23437,-1.88672 0,-0.82955 0.14532,-0.9172 0.26172,-1.15234 z m 94.17578,0.69531 c -0.005,0.23919 -0.0625,0.4648 -0.0625,0.70508 a 7.50075,7.50075 0 0 0 0.002,0.15429 c 0.13472,6.60115 2.4436,12.87532 6.76172,17.53907 h -7.72656 v -14.57422 c 0,-2.58227 0.57415,-3.61005 0.68945,-3.75196 0.0829,-0.10198 0.33016,-0.0387 0.33594,-0.0723 z m -340.28125,0.50391 c -0.002,0.0509 0.0175,0.10137 0.0156,0.15234 -4.2e-4,0.0588 -0.0215,0.11505 -0.0215,0.17383 z m 184.83007,0 c -0.002,0.0477 0.0174,0.0948 0.0156,0.14257 -4.7e-4,0.0621 -0.0234,0.12148 -0.0234,0.1836 z m 92.04102,0 c -0.003,0.0697 0.0101,0.13553 0.008,0.20507 -2e-4,0.041 -0.0156,0.0801 -0.0156,0.1211 z m -245.41406,0.32617 -0.008,0.32617 c 0.002,-0.0471 -0.0174,-0.0935 -0.0156,-0.14063 4.5e-4,-0.0624 0.0234,-0.12318 0.0234,-0.18554 z m 184.82812,0 -0.008,0.32617 c 0.002,-0.0471 -0.0174,-0.0935 -0.0156,-0.14063 4.5e-4,-0.0624 0.0234,-0.12318 0.0234,-0.18554 z m 92.04102,0 -0.008,0.32617 c 0.003,-0.069 -0.0101,-0.13424 -0.008,-0.20313 2e-4,-0.0414 0.0156,-0.0817 0.0156,-0.12304 z m -345.04492,11 c 0.0149,0.0124 0.0319,0.0208 0.0469,0.0332 0.009,0.007 0.0129,0.0165 0.0215,0.0234 z m 260.0332,6.04101 c 0.11711,0.1689 0.20143,0.36126 0.32227,0.52735 h -0.8125 c 0.1594,-0.17954 0.33663,-0.34312 0.49023,-0.52735 z m 155.39648,0.1836 -0.46289,0.10742 c 0.0783,-0.0157 0.15046,-0.0481 0.22852,-0.0645 0.0816,-0.0208 0.15234,-0.0211 0.23437,-0.043 z m -29.71679,2.47656 c 0.0195,0.0165 0.0429,0.0266 0.0625,0.043 0.0163,0.0133 0.0266,0.0316 0.043,0.0449 z" id="path46"/>
        <path style="baseline-shift:baseline;display:inline;overflow:visible;vector-effect:none;fill:#002255;stroke-linecap:round;stroke-linejoin:round;paint-order:markers stroke fill;enable-background:accumulate;stop-color:#000000;stop-opacity:1" d="m 161.25412,410.04254 c 6.2358,0 11.22444,-1.74602 15.21535,-4.98864 3.99091,-3.36733 5.98637,-7.98182 6.11108,-14.0929 -0.12471,-6.11109 -2.12017,-10.8503 -6.11108,-14.21763 -3.99091,-3.36733 -8.97955,-4.98864 -15.21535,-4.98864 -6.2358,0 -11.22444,1.74603 -15.21535,4.98864 -3.99092,3.24262 -5.98637,8.10654 -6.11109,14.21763 0.12472,6.11108 2.12017,10.85029 6.11109,14.0929 3.99091,3.24262 8.97955,4.98864 15.21535,4.98864 z m 0,-8.85483 c -2.86847,-0.12472 -4.98864,-1.12245 -6.36052,-3.1179 -1.37187,-1.99546 -1.99545,-4.36506 -1.87074,-7.23353 0,-2.86847 0.62358,-5.23807 1.87074,-7.23353 1.24716,-1.99545 3.36733,-2.99318 6.36052,-3.1179 2.86847,0.12472 4.98864,1.12245 6.36051,3.1179 1.37188,1.99546 1.99546,4.36506 1.87074,7.23353 0,2.74375 -0.62358,5.23807 -1.87074,7.23353 -1.37187,1.99545 -3.49204,2.99318 -6.36051,3.1179 z m 26.43979,7.98182 h 12.72103 v -15.46478 c 0,-3.8662 0.62358,-6.85938 1.87074,-8.73012 1.24716,-1.87074 2.99319,-2.74375 5.23807,-2.74375 1.74603,0 3.1179,0.74829 3.8662,2.12017 0.7483,1.37187 1.24716,3.1179 1.24716,5.23807 v 19.70513 h 12.72103 v -15.46479 c 0,-3.86619 0.62358,-6.85938 1.87074,-8.73012 1.24716,-1.87074 2.99319,-2.74375 5.23807,-2.74375 1.74603,0 3.1179,0.7483 3.8662,2.12017 0.7483,1.37188 1.24716,3.1179 1.24716,5.23808 v 19.70512 h 12.72103 V 387.8431 c 0.12472,-4.98864 -0.74829,-8.85484 -2.49432,-11.72331 -1.74602,-2.74375 -5.23807,-4.24034 -10.47614,-4.24034 -2.61904,0 -5.11336,0.49886 -7.35825,1.62131 -2.24488,1.12244 -4.11562,2.86846 -5.61222,5.36278 -0.99772,-2.3696 -2.49432,-4.11562 -4.48977,-5.36278 -1.99546,-1.12245 -4.36506,-1.74603 -6.9841,-1.74603 -2.86847,0 -5.61222,0.62358 -7.85711,1.87074 -2.3696,1.24716 -4.11562,3.1179 -5.4875,5.73694 h -0.12472 v -6.73467 h -11.59858 z m 69.46681,0 h 12.72103 v -15.46478 c 0,-3.8662 0.62358,-6.85938 1.87074,-8.73012 1.24716,-1.87074 2.99319,-2.74375 5.23808,-2.74375 1.74602,0 3.1179,0.74829 3.86619,2.12017 0.7483,1.37187 1.24716,3.1179 1.24716,5.23807 v 19.70513 h 12.72103 v -15.46479 c 0,-3.86619 0.62358,-6.85938 1.87074,-8.73012 1.24716,-1.87074 2.99319,-2.74375 5.23808,-2.74375 1.74602,0 3.1179,0.7483 3.86619,2.12017 0.7483,1.37188 1.24716,3.1179 1.24716,5.23808 v 19.70512 h 12.72103 V 387.8431 c 0.12472,-4.98864 -0.74829,-8.85484 -2.49432,-11.72331 -1.74602,-2.74375 -5.23807,-4.24034 -10.47614,-4.24034 -2.61904,0 -5.11336,0.49886 -7.35824,1.62131 -2.24489,1.12244 -4.11563,2.86846 -5.61222,5.36278 -0.99773,-2.3696 -2.49432,-4.11562 -4.48978,-5.36278 -1.99546,-1.12245 -4.36506,-1.74603 -6.9841,-1.74603 -2.86846,0 -5.61222,0.62358 -7.8571,1.87074 -2.36961,1.24716 -4.11563,3.1179 -5.48751,5.73694 h -0.12471 v -6.73467 h -11.59859 z m 88.92251,0.87301 c 6.2358,0 11.22444,-1.74602 15.21535,-4.98864 3.99091,-3.36733 5.98637,-7.98182 6.11109,-14.0929 -0.12472,-6.11109 -2.12018,-10.8503 -6.11109,-14.21763 -3.99091,-3.36733 -8.97955,-4.98864 -15.21535,-4.98864 -6.2358,0 -11.22444,1.74603 -15.21535,4.98864 -3.99091,3.24262 -5.98637,8.10654 -6.11109,14.21763 0.12472,6.11108 2.12018,10.85029 6.11109,14.0929 3.99091,3.24262 9.10427,4.98864 15.21535,4.98864 z m 0,-8.85483 c -2.86847,-0.12472 -4.98864,-1.12245 -6.36052,-3.1179 -1.37187,-1.99546 -1.99545,-4.36506 -1.87074,-7.23353 0,-2.86847 0.62358,-5.23807 1.87074,-7.23353 1.24716,-1.99545 3.36734,-2.99318 6.36052,-3.1179 2.86847,0.12472 4.98864,1.12245 6.36052,3.1179 1.37187,1.99546 1.99545,4.36506 1.87074,7.23353 0,2.74375 -0.62358,5.23807 -1.87074,7.23353 -1.37188,1.99545 -3.36734,2.99318 -6.36052,3.1179 z m 65.97476,-44.77305 h -12.72103 v 20.82758 h -0.12471 c -1.62131,-2.12018 -3.49205,-3.49205 -5.61222,-4.36506 -2.12018,-0.87302 -4.48978,-1.24716 -6.9841,-1.24716 -5.11336,0.24943 -8.97955,2.12017 -11.59859,5.86165 -2.61903,3.74148 -3.99091,7.98182 -3.99091,12.59631 0,5.61222 1.49659,10.22672 4.24034,13.9682 2.86847,3.74148 6.9841,5.73693 12.4716,5.86165 2.99319,0 5.61222,-0.7483 7.85711,-2.12017 2.24489,-1.37188 3.8662,-3.1179 4.73921,-5.23808 h 0.12472 v 6.60995 h 11.7233 z m -28.18581,34.04747 c 0,-2.49432 0.62358,-4.61449 1.99545,-6.36051 1.37188,-1.74603 3.24262,-2.61904 5.73694,-2.74376 2.3696,0 4.24034,0.99773 5.61222,2.74376 1.37188,1.74602 2.12017,3.99091 2.12017,6.85938 0,2.74375 -0.87301,4.98864 -2.24489,6.73466 -1.37187,1.74602 -3.24261,2.61904 -5.4875,2.61904 -2.3696,0 -4.24034,-0.99773 -5.61222,-2.74376 -1.37188,-1.74602 -2.12017,-4.11562 -2.12017,-7.10881 z m 54.25146,19.58041 c 6.2358,0 11.22444,-1.74602 15.21535,-4.98864 3.99091,-3.36733 5.98637,-7.98182 6.11108,-14.0929 -0.12471,-6.11109 -2.12017,-10.8503 -6.11108,-14.21763 -3.99091,-3.36733 -8.97955,-4.98864 -15.21535,-4.98864 -6.2358,0 -11.22444,1.74603 -15.21535,4.98864 -3.99092,3.36733 -5.98637,8.10654 -6.11109,14.21763 0.12472,6.11108 2.12017,10.85029 6.11109,14.0929 3.99091,3.24262 9.10426,4.98864 15.21535,4.98864 z m 0,-8.85483 c -2.86847,-0.12472 -4.98864,-1.12245 -6.36052,-3.1179 -1.24716,-1.99546 -1.99545,-4.36506 -1.87074,-7.23353 0,-2.86847 0.62358,-5.23807 1.87074,-7.23353 1.24716,-1.99545 3.36733,-2.99318 6.36052,-3.1179 2.86847,0.12472 4.98864,1.12245 6.36051,3.1179 1.24716,1.99546 1.99546,4.36506 1.87074,7.23353 0,2.74375 -0.62358,5.23807 -1.87074,7.23353 -1.24716,1.99545 -3.36733,2.99318 -6.36051,3.1179 z m 53.37845,-29.05883 c -0.62358,-0.12472 -1.37188,-0.24943 -2.12018,-0.24943 -0.74829,-0.12472 -1.49659,-0.12472 -2.24488,-0.12472 -2.74376,0 -4.98864,0.7483 -6.60995,2.12017 -1.74603,1.37188 -3.1179,3.24262 -4.24035,5.48751 h -0.12471 v -6.73467 h -11.59859 v 36.66651 h 12.72103 v -15.46479 c 0,-3.61676 0.7483,-6.48523 2.36961,-8.48068 1.6213,-1.99546 3.86619,-2.99319 6.85938,-2.99319 h 2.12017 c 0.74829,0 1.37187,0.12472 2.12017,0.37415 z m 39.7844,22.44888 v -2.3696 c 0.12472,-5.61222 -1.37188,-10.47615 -4.11563,-14.34234 -2.86847,-3.99092 -7.60767,-5.98637 -14.34234,-6.2358 -5.86165,0 -10.47614,1.74602 -14.09291,4.98864 -3.61676,3.36733 -5.4875,7.98182 -5.4875,14.0929 0.12472,6.11109 2.12017,10.8503 6.11108,14.09291 3.99092,3.36733 8.97956,4.98864 15.21536,5.11336 2.3696,0 4.7392,-0.12472 6.98409,-0.49887 2.24489,-0.37414 4.48978,-0.99772 6.48523,-1.74602 v -8.97955 c -1.87074,0.99773 -3.86619,1.74602 -5.73693,2.12017 -1.87074,0.49886 -3.74148,0.62358 -5.48751,0.62358 -3.1179,0 -5.61222,-0.49886 -7.48296,-1.62131 -1.87074,-1.12244 -2.99318,-2.86847 -3.36733,-5.36279 z m -25.56678,-7.23353 c 0.12472,-2.12017 0.7483,-3.99091 1.87074,-5.36279 1.12244,-1.49659 2.86847,-2.24488 5.11336,-2.24488 2.49432,0 4.36506,0.74829 5.36278,2.24488 1.12245,1.4966 1.62131,3.24262 1.62131,5.36279 z m -392.8554,22.19945 c -5.4875,-1.49659 -9.72785,-3.99091 -13.219893,-7.85711 -3.492048,-3.86619 -5.113356,-7.35824 -6.111084,-13.59404 -1.87074,-12.22217 3.367332,-23.44661 13.469327,-28.31053 5.11335,-2.49432 11.97273,-3.74148 18.83211,-3.74148 4.24035,0 7.98183,0.74829 11.47388,1.37187 l -1.12245,10.97501 c 0,0 -0.87301,-0.24943 -3.36733,-0.87301 -2.3696,-0.62358 -4.73921,-0.87301 -7.10881,-0.87301 -4.73921,0 -9.3537,1.24716 -12.34689,3.61676 -7.10881,5.4875 -7.10881,19.82984 0.24944,25.81621 4.48977,3.74148 12.59631,4.98864 19.82984,3.1179 l 3.36733,-0.87301 0.99773,11.09972 c -2.12017,0.49887 -6.60995,1.37188 -12.09745,1.37188 -7.23353,0 -9.47842,-0.24943 -12.84575,-1.24716 z M 84.429065,415.9042 H 544.6311 v 3.74148 H 84.429065 Z" id="path47"/>
    </g>
    <g id="g45" transform="translate(-9.168843)">
        <g id="g43" transform="translate(-18,-286.16019)">
            <g id="path27" style="opacity:1">
                <path style="baseline-shift:baseline;display:inline;overflow:visible;vector-effect:none;fill:#ffffff;stroke-linecap:round;stroke-linejoin:round;paint-order:markers stroke fill;enable-background:accumulate;stop-color:#000000;stop-opacity:1" d="m 455.50977,712.60352 c -3.93726,-0.26449 -7.99012,0.30227 -11.79883,1.96093 -4.63097,1.93188 -8.33765,5.3458 -10.81446,9.52539 -2.57463,4.3447 -3.63554,9.43912 -3.17187,14.45703 0.47226,5.61053 2.87125,10.70084 6.54101,14.67774 9.7e-4,10e-4 9.9e-4,0.003 0.002,0.004 l 2.33594,2.58203 a 5.0005,5.0005 0 0 0 0.16601,0.0684 L 427.44141,768.875 a 5.0005,5.0005 0 0 0 3.76953,8.28516 h 40.2832 a 5.0005,5.0005 0 0 0 5,-5 v -12.47071 a 5.0005,5.0005 0 0 0 -5,-5 h -1.73437 c 2.36835,-2.89455 4.67802,-6.11404 6.16601,-10.08203 a 5.0005,5.0005 0 0 0 0.0117,-0.0273 c 2.01443,-5.46776 2.19738,-10.91726 0.44922,-16.45313 a 5.0005,5.0005 0 0 0 -0.0137,-0.0449 c -2.51921,-7.72557 -9.23773,-13.30203 -16.9336,-14.93945 a 5.0005,5.0005 0 0 0 -0.0312,-0.006 c -1.27684,-0.26288 -2.58186,-0.44476 -3.89843,-0.5332 z m 3.66406,1.9082 0.0449,0.01 c -0.01,-0.002 -0.0197,-0.002 -0.0293,-0.004 -0.005,-0.001 -0.0102,-0.005 -0.0156,-0.006 z m -10.98438,12.08008 c -0.0115,0.006 -0.0198,0.0153 -0.0312,0.0215 -0.008,0.004 -0.0173,0.005 -0.0254,0.01 z m 15.06446,1.4414 c 1.05073,1.10217 1.93984,2.29619 2.35546,3.51953 1.09448,3.50326 1.03518,5.31976 -0.28906,8.89844 -0.50863,1.3071 -1.25049,2.57269 -2.07031,3.83985 0.79546,-1.28564 1.50904,-2.70096 2.02539,-4.29493 1.03946,-3.20876 0.94324,-7.41976 -1.23437,-10.95898 -0.22651,-0.37773 -0.52361,-0.66924 -0.78711,-1.00391 z m -0.24024,1.69336 0.0645,0.10547 c -0.0111,-0.0187 -0.0279,-0.0302 -0.0391,-0.0488 -0.0112,-0.0182 -0.014,-0.0385 -0.0254,-0.0566 z m -20.61719,5.16016 c -0.008,0.0422 0.006,0.085 -0.002,0.12695 -0.0115,0.0791 -0.0467,0.15515 -0.0566,0.23438 z m 12.03711,0.22851 c 0.13061,0.0145 0.11322,0.004 0.13868,0.002 0.30038,0.48752 0.29275,0.54855 -0.0508,1.47461 -0.15554,0.4193 -0.73422,1.14541 -1.08398,1.71679 l -1.22852,-1.14843 c 0.004,-0.14645 0.005,-0.36232 -0.006,-0.31055 a 5.0005,5.0005 0 0 0 0.0586,-0.36133 c 0.0682,-0.5452 0.31916,-0.90499 0.63281,-1.07226 a 5.0005,5.0005 0 0 0 0.0566,-0.0312 c 0.22967,-0.12632 1.05562,-0.31696 1.48242,-0.26954 z m -23.33789,3.32618 c 9.2e-4,0.01 0.005,0.0192 0.006,0.0293 0.001,0.0104 -10e-4,0.0208 0,0.0312 z m 32.11914,5.91406 c -0.52047,0.79996 -1.14403,1.6222 -1.76172,2.42773 0.5979,-0.77704 1.20573,-1.53506 1.76172,-2.42773 z m -3.02539,4.0664 c -0.22331,0.2721 -0.392,0.53152 -0.62304,0.80665 -0.003,0.004 -0.005,0.008 -0.008,0.0117 -1.09265,1.2557 -2.25003,2.6021 -3.37109,3.875 a 5.0005,5.0005 0 0 0 0.0215,-0.0254 c 1.25606,-1.46541 2.62256,-2.99549 3.98047,-4.66797 z m -8.125,9.4375 a 5.0005,5.0005 0 0 0 3.375,7.92969 h -10.26562 z" id="path48"/>
                <path style="baseline-shift:baseline;display:inline;overflow:visible;vector-effect:none;fill:#002255;stroke-linecap:round;stroke-linejoin:round;paint-order:markers stroke fill;enable-background:accumulate;stop-color:#000000;stop-opacity:1" d="m 459.02269,759.68886 h 12.4716 v 12.4716 h -40.28327 l 20.32871,-23.32189 c 1.49659,-1.62131 2.99318,-3.36733 4.36506,-5.11336 2.49432,-3.24261 5.36279,-7.35824 2.86847,-11.34915 -1.62131,-2.74376 -5.73694,-2.74376 -8.23126,-1.37188 -1.87074,0.99773 -2.99318,2.86847 -3.24261,4.86392 -0.24944,1.24716 -0.12472,3.49205 0.87301,4.36506 l 1.87074,1.74603 -7.73239,10.47614 -2.36961,-2.61903 c -2.99318,-3.24262 -4.86392,-7.23353 -5.23807,-11.72331 -0.37415,-3.99091 0.49886,-8.10654 2.49432,-11.47387 1.99546,-3.36733 4.86392,-5.98637 8.48069,-7.48296 3.99091,-1.74602 8.48069,-1.99546 12.72103,-1.12244 5.86165,1.24716 11.34916,5.86165 13.2199,11.59858 1.49659,4.73921 1.37187,8.48069 -0.37415,13.2199 -1.49659,3.99091 -4.11563,7.48296 -6.85938,10.60086 -1.62131,1.99546 -3.49205,4.11563 -5.36279,6.2358 z m -3.1179,1.37188 c 2.49432,-2.99319 4.98864,-5.73694 7.48296,-8.60541 2.61904,-3.1179 5.11336,-6.36051 6.60995,-10.22671 1.62131,-4.36506 1.74602,-7.85711 0.37415,-12.22217 -1.74603,-5.23807 -6.85938,-9.47841 -12.22217,-10.60086 -3.99091,-0.87301 -8.10654,-0.62358 -11.84802,0.99773 -3.24262,1.49659 -5.98637,3.8662 -7.85711,6.9841 -1.87074,3.24261 -2.74375,6.98409 -2.3696,10.60086 0.37414,4.11562 2.12017,7.8571 4.86392,10.85029 l 1.12244,1.24716 5.98637,-7.98183 -0.99773,-0.87301 c -1.37187,-1.24716 -1.6213,-3.86619 -1.37187,-5.61222 0.37415,-2.49432 1.74602,-4.73921 3.99091,-5.98637 3.24262,-1.6213 8.10654,-1.37187 10.102,1.99546 2.86846,4.61449 0.12471,9.22898 -2.99319,13.09518 -1.37187,1.74602 -2.86847,3.36733 -4.36506,5.11336 l -18.20853,20.95228 h 35.66877 v -9.60313 z" id="path49"/>
            </g>
            <path style="baseline-shift:baseline;display:inline;overflow:visible;vector-effect:none;fill:#002255;stroke:none;stroke-width:10;stroke-linecap:round;stroke-linejoin:round;stroke-dasharray:none;stroke-opacity:1;paint-order:markers stroke fill;enable-background:accumulate;stop-color:#000000" d="m 468.62582,769.16728 h -31.05428 l 16.08836,-18.58269 c 4.73921,-5.36279 11.97274,-12.4716 7.48296,-19.82984 -2.3696,-3.8662 -7.85711,-4.61449 -11.97273,-2.49432 -5.73694,2.86847 -6.11109,11.09972 -2.99319,13.96819 l -4.11563,5.4875 c -10.85029,-11.97273 -1.37187,-30.68013 15.71422,-27.06337 4.73921,0.99773 9.47842,4.86393 11.09972,9.72785 1.37188,4.11563 1.24716,7.23353 -0.24943,11.34916 -2.49432,6.73466 -9.10427,12.4716 -15.71421,20.82757 h 15.71421 z" id="path29"/>
        </g>
        <g id="g41" transform="translate(-22,-126.0358)">
            <path style="baseline-shift:baseline;display:inline;overflow:visible;vector-effect:none;fill:#ffffff;stroke:none;stroke-width:10;stroke-linecap:round;stroke-linejoin:round;stroke-dasharray:none;stroke-opacity:1;paint-order:markers stroke fill;enable-background:accumulate;stop-color:#000000" d="m 500.83319,561.76659 c -4.80804,-0.14142 -9.093,2.61279 -11.32031,6.07812 -2.22731,3.46533 -3.0857,7.44558 -3.44141,11.44727 -0.71077,7.99627 0.3214,15.73863 3.08008,20.9707 2.06458,3.94903 6.61806,7.04492 11.53516,7.04492 4.79226,0 9.57235,-2.58574 11.94336,-6.75781 1.53818,-2.66263 2.23798,-5.67206 2.74219,-9.25391 0.50569,-3.59237 0.65096,-7.62484 0.21484,-11.62109 -0.43612,-3.99625 -1.39776,-7.98448 -3.63672,-11.45117 -2.23896,-3.46669 -6.3185,-6.3159 -11.11719,-6.45703 z m -0.13086,11.51172 c 1.28279,0.0622 1.57294,0.42204 2.40821,2.35742 0.84273,1.95268 1.30307,5.04939 1.42187,7.44922 -0.006,2.41446 -0.22753,5.10988 -0.6582,7.47851 a 5.0005,5.0005 0 0 0 -0.0312,0.1875 c -0.17821,1.24751 -0.86294,3.56598 -1.19336,4.18555 -0.5577,1.02576 -0.28077,0.875 -1.96289,0.875 h -0.49805 l 0.25,0.006 c -1.09954,-0.055 -0.28202,0.53543 -1.06445,-0.95117 a 5.0005,5.0005 0 0 0 -0.0215,-0.043 c -0.28,-0.52001 -0.856,-2.58459 -1.23437,-4.32422 -0.43411,-2.4107 -0.66211,-4.97685 -0.66211,-7.39649 0,-1.82605 0.18919,-4.30239 0.69922,-6.2832 0.50544,-1.96299 1.35064,-3.15114 1.70508,-3.40234 0.10881,-0.0731 0.30343,-0.12496 0.84179,-0.13867 z m 13.04102,18.88671 -0.0312,0.1875 c 0.004,-0.0199 0.002,-0.0406 0.006,-0.0605 0.006,-0.0396 0.0198,-0.0876 0.0254,-0.12696 z m -23.21875,7.35743 c 0.004,0.008 0.0116,0.0139 0.0156,0.0215 0.004,0.007 0.004,0.0141 0.008,0.0215 z" id="path8"/>
            <path style="baseline-shift:baseline;display:inline;overflow:visible;vector-effect:none;fill:#ffffff;stroke:none;stroke-width:10;stroke-linecap:round;stroke-linejoin:round;stroke-dasharray:none;stroke-opacity:1;paint-order:markers stroke fill;enable-background:accumulate;stop-color:#000000" d="m 500.81171,553.40721 c -7.19423,0 -13.77272,3.38196 -17.92578,9.35547 -4.80499,6.69369 -5.78125,14.7381 -5.78125,21.83594 0,7.06216 1.14077,15.03901 5.73242,21.77344 a 5.0005,5.0005 0 0 0 0.0547,0.0781 c 4.17052,5.86963 10.73371,9.33789 17.91992,9.33789 7.20257,0 13.74494,-3.35326 17.90625,-9.19922 4.80128,-6.6694 5.80078,-14.61382 5.80078,-21.49218 0,-7.2285 -0.94691,-15.43607 -5.60742,-22.27149 a 5.0005,5.0005 0 0 0 -0.0215,-0.0293 c -4.18446,-6.04422 -10.86895,-9.38867 -18.07812,-9.38867 z m 0,11.37305 c 4.12386,0 6.39787,1.22948 8.59766,4.4375 2.17676,3.17445 3.61328,8.40867 3.61328,15.63086 a 5.0005,5.0005 0 0 0 0,0.0801 c 0.11226,6.84823 -1.36657,11.73499 -3.56836,14.85937 -2.3134,3.23296 -4.60333,4.37891 -8.64258,4.37891 -3.96744,0 -6.30943,-1.23554 -8.65234,-4.51563 -2.27485,-3.18478 -3.6836,-8.2258 -3.6836,-15.17773 0,-6.95194 1.40875,-11.99295 3.6836,-15.17774 2.34291,-3.28008 4.6849,-4.51562 8.65234,-4.51562 z m 22.21094,19.98633 v 0.082 c 0,-0.0129 -0.002,-0.0243 -0.002,-0.0371 -2.4e-4,-0.0156 0.002,-0.0293 0.002,-0.0449 z" id="path9"/>
            <g id="path10" style="stroke:#ffffff;stroke-width:10;stroke-linecap:round;stroke-linejoin:round;stroke-dasharray:none;stroke-opacity:1;paint-order:markers stroke fill" transform="translate(38.368354,133.3994)">
                <path style="baseline-shift:baseline;display:inline;overflow:visible;vector-effect:none;fill:#ffffff;stroke:none;enable-background:accumulate;stop-color:#000000;stop-opacity:1" d="m 462.31836,429.86133 c -1.97793,0 -4.39756,0.42585 -6.51563,1.83789 a 5.0005,5.0005 0 0 0 -0.0293,0.0195 c -3.51768,2.38294 -4.96426,5.98095 -5.79492,9.20703 -0.83067,3.22609 -1.01563,6.36306 -1.01563,8.77734 0,3.04678 0.27201,6.19141 0.82813,9.25 a 5.0005,5.0005 0 0 0 0.0312,0.15235 c 0.36942,1.72402 0.77318,4.33172 2.2207,7.0332 1.71589,3.24599 5.51952,6.07345 9.40234,6.26758 a 5.0005,5.0005 0 0 0 0.25,0.006 h 0.49805 c 4.02787,0 8.59332,-2.17499 10.74219,-6.08203 a 5.0005,5.0005 0 0 0 0.0215,-0.0391 c 1.351,-2.50901 1.9597,-5.10716 2.2832,-7.49024 0.54551,-3.19219 0.67963,-6.33762 0.55469,-9.41016 -0.004,-3.13885 -0.34638,-7.18813 -2.00976,-11.13867 -1.67327,-3.97399 -5.7197,-8.2896 -11.37696,-8.39062 a 5.0005,5.0005 0 0 0 -0.0898,0 z m -8.74024,6.73242 c -0.007,0.0113 -0.009,0.0239 -0.0156,0.0352 -0.006,0.0101 -0.0154,0.0153 -0.0215,0.0254 z m 8.66797,5.12891 c 0.11854,0.0745 0.29931,0.17966 0.45313,0.45312 a 5.0005,5.0005 0 0 0 0.0176,0.0293 c 0.64001,1.12003 1.46093,4.8301 1.46093,8.99414 a 5.0005,5.0005 0 0 0 0.002,0.15625 c 0.11131,3.56186 -0.49802,7.78196 -1.05078,8.99805 l 0.0391,-0.0801 c -0.51604,1.08367 -0.0622,0.51758 -0.59961,0.51758 -0.68522,0 -0.67513,-0.0935 -0.41016,0.0488 0.26498,0.14231 0.32094,0.43953 0.006,-0.28515 l 0.0117,0.0234 c -0.55647,-1.29844 -1.4668,-6.15787 -1.4668,-9.3789 0,-4.38832 0.89167,-8.56734 1.3711,-9.3418 a 5.0005,5.0005 0 0 0 0.0371,-0.0586 c 0.0317,-0.0528 0.0489,-0.0459 0.1289,-0.0762 z m 11.92969,9.32031 0.002,0.15625 c 0,-0.0229 -0.004,-0.0435 -0.004,-0.0664 -8.9e-4,-0.0293 0.003,-0.0606 0.002,-0.0898 z" id="path30"/>
                <path style="baseline-shift:baseline;display:inline;overflow:visible;vector-effect:none;fill:#002255;stroke:none;enable-background:accumulate;stop-color:#000000;stop-opacity:1" d="m 462.31857,434.86103 c -1.37187,0 -2.61903,0.24943 -3.74148,0.99773 -3.86619,2.61903 -4.61449,9.60313 -4.61449,13.84347 0,2.74375 0.24943,5.61222 0.7483,8.35597 0.37414,1.74603 0.87301,4.11563 1.74602,5.73694 1.24716,2.3696 2.74375,3.49205 5.23807,3.61676 h 0.49887 c 2.86846,0 4.98864,-0.99772 6.36051,-3.49204 0.87301,-1.62131 1.49659,-3.99092 1.74603,-5.86166 0.49886,-2.86846 0.62358,-5.73693 0.49886,-8.6054 0,-5.36279 -1.49659,-14.46706 -8.48069,-14.59177 z m 5.36279,27.56223 c -1.24716,2.61904 -3.24262,3.36734 -5.11336,3.36734 -1.99545,0 -3.74148,-0.37415 -4.98864,-3.24262 -1.12244,-2.61904 -1.87074,-7.48296 -1.87074,-11.34916 0,-4.7392 0.49887,-9.3537 2.12018,-11.97273 1.12244,-1.87074 3.1179,-2.61904 4.61449,-2.61904 1.62131,0 3.49205,1.12245 4.61449,3.1179 1.49659,2.61904 2.12017,6.85938 2.12017,11.47387 0.12472,3.99092 -0.24943,8.48069 -1.49659,11.22444 z" id="path31"/>
            </g>
            <g id="path11" style="stroke:#ffffff;stroke-width:10;stroke-linecap:round;stroke-linejoin:round;stroke-dasharray:none;stroke-opacity:1;paint-order:markers stroke fill" transform="translate(38.368354,133.3994)">
                <path style="baseline-shift:baseline;display:inline;overflow:visible;vector-effect:none;fill:#ffffff;stroke:none;enable-background:accumulate;stop-color:#000000;stop-opacity:1" d="m 462.44336,418.51172 c -7.73307,0 -14.73692,3.57561 -19.17188,9.8457 -4.92387,6.93138 -6.03125,15.30542 -6.03125,22.5918 0,7.40483 1.14273,15.69198 6.00782,22.68555 a 5.0005,5.0005 0 0 0 0.0234,0.0312 c 4.41283,6.2388 11.37345,9.9707 19.17188,9.9707 7.63157,0 14.6057,-3.57229 19.04101,-9.83594 l 0.002,-0.002 c 4.87497,-6.85685 6.02875,-15.01305 6.03515,-22.28711 0.13284,-7.35193 -1.00214,-15.82874 -5.85546,-22.95703 a 5.0005,5.0005 0 0 0 -0.0176,-0.0274 c -4.42597,-6.41003 -11.47202,-10.01562 -19.20508,-10.01562 z m 18.05469,10.72656 0.0234,0.0332 c -0.004,-0.006 -0.01,-0.01 -0.0137,-0.0156 -0.004,-0.006 -0.006,-0.0119 -0.01,-0.0176 z m -18.05469,0.64453 c 4.51413,0 7.30722,1.39646 9.85742,5.08008 a 5.0005,5.0005 0 0 0 0.0234,0.0332 c 2.89704,4.11193 3.93947,10.30003 3.94726,16.38477 -0.11897,6.02938 -1.1239,11.80524 -4.04101,15.85156 a 5.0005,5.0005 0 0 0 -0.0195,0.0274 c -2.54015,3.57501 -5.40747,5.0039 -9.76758,5.0039 -4.51413,0 -7.14934,-1.347 -9.73242,-5.07812 a 5.0005,5.0005 0 0 0 -0.0234,-0.0352 c -2.94901,-4.1857 -3.95117,-10.10376 -3.95117,-16.07617 0,-5.88996 1.09944,-11.85942 3.9707,-16.09766 2.55679,-3.5781 5.4656,-5.09375 9.73633,-5.09375 z m -17.95508,42.99414 c 0.004,0.006 0.01,0.01 0.0137,0.0156 0.004,0.006 0.006,0.0119 0.01,0.0176 z m 35.875,0.17383 -0.0215,0.0293 c 0.004,-0.005 0.004,-0.0108 0.008,-0.0156 0.004,-0.005 0.01,-0.008 0.0137,-0.0137 z" id="path32"/>
                <path style="baseline-shift:baseline;display:inline;overflow:visible;vector-effect:none;fill:#002255;stroke:none;enable-background:accumulate;stop-color:#000000;stop-opacity:1" d="m 477.53392,431.36898 c -3.61676,-5.23807 -8.73012,-7.85711 -15.09063,-7.85711 -6.36052,0 -11.47387,2.61904 -15.09064,7.73239 -3.99091,5.61222 -5.11335,12.97047 -5.11335,19.70513 0,6.85938 1.12244,14.09291 5.11335,19.82985 3.61677,5.11335 8.73012,7.8571 15.09064,7.8571 6.2358,0 11.34915,-2.61903 14.96592,-7.73239 3.99091,-5.61222 5.11335,-12.72103 5.11335,-19.45569 0.12472,-6.73467 -0.99772,-14.21763 -4.98864,-20.07928 z m -1.24716,38.78668 c -3.36733,4.7392 -8.10654,7.10881 -13.84347,7.10881 -5.86165,0 -10.47615,-2.36961 -13.84348,-7.23353 -3.86619,-5.4875 -4.86392,-12.4716 -4.86392,-18.95683 0,-6.48523 1.12244,-13.46933 4.86392,-18.95683 3.36733,-4.73921 8.10654,-7.23353 13.84348,-7.23353 5.86165,0 10.60086,2.3696 13.96819,7.23353 3.8662,5.4875 4.86392,12.72103 4.86392,19.33098 -0.12471,6.48523 -1.12244,13.34461 -4.98864,18.7074 z" id="path33"/>
            </g>
            <path style="baseline-shift:baseline;display:inline;overflow:visible;fill:#002255;stroke:none;stroke-width:0;stroke-linecap:round;stroke-linejoin:round;stroke-dasharray:none;stroke-opacity:1;paint-order:markers stroke fill;enable-background:accumulate;stop-color:#000000" d="m 513.44845,566.91627 c -2.99318,-4.36506 -7.23353,-6.60995 -12.72103,-6.60995 -5.36279,0 -9.60313,2.24489 -12.72103,6.60995 -3.1179,4.36506 -4.6145,10.35143 -4.6145,18.08382 0,7.73239 1.4966,13.71876 4.6145,18.08382 3.1179,4.36506 7.35824,6.60995 12.72103,6.60995 5.36279,0 9.60313,-2.12018 12.72103,-6.48524 3.1179,-4.36506 4.61449,-10.22671 4.61449,-17.83438 0,-7.85711 -1.49659,-13.9682 -4.61449,-18.45797 z m -5.23807,31.55315 c -1.62131,2.86846 -4.11563,4.24034 -7.60768,4.24034 -3.49205,0 -5.61222,-1.49659 -7.10881,-4.36506 -3.49205,-6.48523 -5.61222,-31.42843 7.10881,-31.179 12.72103,0.49886 11.22444,25.19263 7.60768,31.30372 z" id="path35"/>
        </g>
        <g id="g42" transform="translate(-36,-126.53393)">
            <path style="baseline-shift:baseline;display:inline;overflow:visible;vector-effect:none;fill:#ffffff;stroke:none;stroke-width:10;stroke-linecap:round;stroke-linejoin:round;stroke-dasharray:none;stroke-opacity:1;paint-order:markers stroke fill;enable-background:accumulate;stop-color:#000000" d="m 560.23358,562.26463 c -4.80723,-0.14059 -9.09331,2.61328 -11.32031,6.07813 -2.22731,3.46533 -3.08375,7.44558 -3.43945,11.44726 -0.71095,7.99813 0.31995,15.74249 3.08008,20.97461 2.06516,3.94791 6.61904,7.04297 11.53515,7.04297 4.80014,0 9.59008,-2.59319 11.95703,-6.77734 1.50565,-2.65118 2.2266,-5.68375 2.74219,-9.27539 0.51608,-3.59503 0.67593,-7.6236 0.24805,-11.61719 -0.42789,-3.99359 -1.3861,-7.98299 -3.64063,-11.44726 -2.25422,-3.46381 -6.35469,-6.28508 -11.16015,-6.42579 z m -0.01,11.51368 c 1.28697,0.0615 1.57774,0.41765 2.41406,2.35546 0.83386,1.93211 1.28921,4.97814 1.41406,7.36719 -0.12108,2.51369 -0.34573,5.14074 -0.6875,7.76953 -0.18247,1.25206 -0.86072,3.54962 -1.18945,4.16602 -0.55763,1.02567 -0.28084,0.87305 -1.96289,0.87305 h -0.49805 l 0.25,0.008 c -1.09956,-0.055 -0.28203,0.53348 -1.06445,-0.95313 a 5.0005,5.0005 0 0 0 -0.0215,-0.041 c -0.28001,-0.52001 -0.85603,-2.58463 -1.23438,-4.32422 -0.43434,-2.41123 -0.66211,-4.97817 -0.66211,-7.39844 0,-1.82605 0.18919,-4.30239 0.69922,-6.2832 0.50574,-1.96414 1.351,-3.1521 1.70508,-3.40235 0.10865,-0.0729 0.3058,-0.12252 0.83789,-0.13671 z m -10.17188,26.24414 c 0.003,0.006 0.009,0.0115 0.0117,0.0176 0.004,0.008 0.005,0.0152 0.01,0.0234 z" id="path13"/>
            <path style="baseline-shift:baseline;display:inline;overflow:visible;vector-effect:none;fill:#ffffff;stroke:none;stroke-width:10;stroke-linecap:round;stroke-linejoin:round;stroke-dasharray:none;stroke-opacity:1;paint-order:markers stroke fill;enable-background:accumulate;stop-color:#000000" d="m 560.2121,553.78221 c -7.19424,0 -13.77076,3.38002 -17.92383,9.35352 -4.805,6.69369 -5.7832,14.7381 -5.7832,21.83594 0,7.06215 1.14077,15.03901 5.73242,21.77343 a 5.0005,5.0005 0 0 0 0.0566,0.0801 c 4.17053,5.86964 10.73176,9.33789 17.91797,9.33789 7.20351,0 13.74697,-3.3538 17.9082,-9.20117 4.78719,-6.64984 5.79298,-14.56333 5.79883,-21.42773 0.13217,-7.17457 -0.85094,-15.43105 -5.62109,-22.35547 a 5.0005,5.0005 0 0 0 -0.006,-0.01 C 574.10754,557.1245 567.42109,553.782 560.21192,553.782 Z m 0,11.4961 c 4.12386,0 6.39786,1.22946 8.59766,4.4375 2.17676,3.17444 3.61328,8.40867 3.61328,15.63086 a 5.0005,5.0005 0 0 0 0.002,0.082 c 0.11327,6.90922 -1.27973,11.74489 -3.51953,14.79101 a 5.0005,5.0005 0 0 0 -0.041,0.0547 c -2.31673,3.24342 -4.60739,4.39258 -8.65234,4.39258 -3.96744,0 -6.30943,-1.2375 -8.65234,-4.51758 -2.27485,-3.18478 -3.68164,-8.22579 -3.68164,-15.17773 0,-6.95194 1.4068,-11.99296 3.68164,-15.17774 2.34291,-3.28008 4.6849,-4.51562 8.65234,-4.51562 z m 22.21094,19.98632 v 0.082 c 0,-0.0129 -0.002,-0.0243 -0.002,-0.0371 -2.4e-4,-0.0155 0.002,-0.0294 0.002,-0.0449 z m -5.41992,20.82227 -0.041,0.0566 c 0.008,-0.0103 0.012,-0.0229 0.0195,-0.0332 0.006,-0.009 0.0152,-0.0146 0.0215,-0.0234 z" id="path14"/>
            <g id="path15" style="stroke:#ffffff;stroke-width:10;stroke-linecap:round;stroke-linejoin:round;stroke-dasharray:none;stroke-opacity:1;paint-order:markers stroke fill" transform="translate(54.368354,133.3994)">
                <path style="baseline-shift:baseline;display:inline;overflow:visible;vector-effect:none;fill:#ffffff;stroke:none;enable-background:accumulate;stop-color:#000000;stop-opacity:1" d="m 505.7207,430.23437 c -1.97793,10e-6 -4.39756,0.42586 -6.51562,1.8379 a 5.0005,5.0005 0 0 0 -0.0312,0.0215 c -3.51768,2.38295 -4.96426,5.98094 -5.79492,9.20703 -0.83067,3.22609 -1.01563,6.36111 -1.01563,8.77539 0,3.04678 0.27398,6.19141 0.83008,9.25 a 5.0005,5.0005 0 0 0 0.0293,0.1543 c 0.36962,1.72489 0.77329,4.33217 2.22265,7.03515 1.71648,3.24502 5.5185,6.06959 9.40039,6.26368 a 5.0005,5.0005 0 0 0 0.25,0.006 h 0.5 c 4.02789,0 8.59137,-2.17501 10.74024,-6.08204 a 5.0005,5.0005 0 0 0 0.0215,-0.0391 c 1.34737,-2.50225 1.95511,-5.0909 2.2793,-7.46875 0.54986,-3.20774 0.68554,-6.37016 0.55859,-9.45703 -0.006,-3.13531 -0.35083,-7.15037 -2.01172,-11.07422 -1.67483,-3.95678 -5.66707,-8.22513 -11.28515,-8.42578 a 5.0005,5.0005 0 0 0 -0.17774,-0.004 z m -8.74218,6.73438 c -0.007,0.0115 -0.0105,0.0236 -0.0176,0.0352 -0.005,0.009 -0.0122,0.0145 -0.0176,0.0234 z m 17.82226,0.77344 0.0762,0.14258 c -0.0103,-0.0194 -0.0267,-0.0334 -0.0371,-0.0527 -0.0162,-0.0288 -0.0226,-0.0611 -0.0391,-0.0898 z m -9.16601,4.36133 c 0.10641,0.0756 0.24683,0.16155 0.40429,0.45898 a 5.0005,5.0005 0 0 0 0.0781,0.14258 c 0.64,1.12 1.46289,4.82815 1.46289,8.99219 a 5.0005,5.0005 0 0 0 0.002,0.15625 c 0.11131,3.56184 -0.55327,7.82808 -1.01367,8.79492 -0.51603,1.08367 -0.0622,0.51562 -0.59961,0.51562 -0.68523,0 -0.67318,-0.0915 -0.4082,0.0508 0.26498,0.14231 0.32093,0.43757 0.006,-0.28711 l 0.01,0.0254 c -0.55647,-1.29844 -1.4668,-6.15982 -1.4668,-9.38085 0,-4.38833 0.89167,-8.56538 1.3711,-9.33985 a 5.0005,5.0005 0 0 0 0.0371,-0.0605 c 0.0287,-0.0478 0.0444,-0.0391 0.11719,-0.0684 z m 11.9414,9.4375 0.004,0.15625 c 0,-0.029 -0.006,-0.055 -0.006,-0.084 -7.3e-4,-0.0236 0.003,-0.0486 0.002,-0.0723 z" id="path36"/>
                <path style="baseline-shift:baseline;display:inline;overflow:visible;vector-effect:none;fill:#002255;stroke:none;enable-background:accumulate;stop-color:#000000;stop-opacity:1" d="m 505.71974,435.23518 c -1.37188,0 -2.61904,0.24943 -3.74148,0.99772 -3.8662,2.61904 -4.61449,9.60314 -4.61449,13.84348 0,2.74375 0.24943,5.61222 0.74829,8.35597 0.37415,1.74603 0.87302,4.11563 1.74603,5.73694 1.24716,2.3696 2.74375,3.49205 5.23807,3.61676 h 0.49886 c 2.86847,0 4.98864,-0.99773 6.36052,-3.49205 0.87301,-1.6213 1.49659,-3.99091 1.74602,-5.86165 0.49887,-2.86847 0.62358,-5.73693 0.49887,-8.6054 0,-5.36279 -1.49659,-14.34234 -8.48069,-14.59177 z m 5.36279,27.56223 c -1.24716,2.61904 -3.24262,3.36733 -5.11336,3.36733 -1.99545,0 -3.74148,-0.37414 -4.98864,-3.24261 -1.12244,-2.61904 -1.87074,-7.48296 -1.87074,-11.34916 0,-4.73921 0.49887,-9.3537 2.12017,-11.97273 1.12245,-1.87074 3.1179,-2.61904 4.6145,-2.61904 1.6213,0 3.49204,1.12244 4.61449,3.24262 1.49659,2.61903 2.12017,6.85938 2.12017,11.47387 0.12472,3.99091 -0.24943,8.48069 -1.49659,11.09972 z" id="path37"/>
            </g>
            <g id="path16" style="stroke:#ffffff;stroke-width:10;stroke-linecap:round;stroke-linejoin:round;stroke-dasharray:none;stroke-opacity:1;paint-order:markers stroke fill" transform="translate(54.368354,133.3994)">
                <path style="baseline-shift:baseline;display:inline;overflow:visible;vector-effect:none;fill:#ffffff;stroke:none;enable-background:accumulate;stop-color:#000000;stop-opacity:1" d="m 505.84375,419.00977 c -7.72878,0 -14.72872,3.57227 -19.16406,9.83593 -5.3e-4,7.4e-4 -10e-4,10e-4 -0.002,0.002 -4.92914,6.93307 -6.0371,15.31211 -6.03711,22.60156 10e-6,7.40484 1.14273,15.69003 6.00782,22.68359 a 5.0005,5.0005 0 0 0 0.0234,0.0332 c 4.41282,6.23882 11.37345,9.96875 19.17188,9.96875 7.63157,0 14.6057,-3.57035 19.04102,-9.83399 l 0.002,-0.002 c 4.88093,-6.86523 6.03155,-15.03562 6.03515,-22.31641 0.12948,-7.45233 -0.98991,-15.92551 -5.87304,-22.95508 -10e-4,-0.002 -0.003,-0.002 -0.004,-0.004 -4.42617,-6.40713 -11.46998,-10.01367 -19.20117,-10.01367 z m 18.05664,10.72656 0.0234,0.0332 c -0.004,-0.006 -0.01,-0.01 -0.0137,-0.0156 -0.004,-0.006 -0.006,-0.012 -0.01,-0.0176 z m -18.05664,0.64648 c 4.51413,0 7.30722,1.39646 9.85742,5.08008 a 5.0005,5.0005 0 0 0 0.0234,0.0332 c 2.90792,4.12738 3.95117,10.34437 3.95117,16.45118 0,5.9083 -1.09108,11.68865 -4.04297,15.7832 a 5.0005,5.0005 0 0 0 -0.0215,0.0273 c -2.54015,3.57502 -5.40746,5.00586 -9.76758,5.00586 -4.51415,0 -7.14934,-1.34895 -9.73242,-5.08008 a 5.0005,5.0005 0 0 0 -0.0234,-0.0332 c -2.94902,-4.18569 -3.95117,-10.10571 -3.95117,-16.07812 0,-5.89422 1.10261,-11.86669 3.97851,-16.10547 2.55512,-3.57116 5.46164,-5.08399 9.72852,-5.08399 z M 487.89062,473.375 c 0.003,0.004 0.007,0.007 0.01,0.0117 0.005,0.008 0.008,0.0158 0.0137,0.0234 z" id="path38"/>
                <path style="baseline-shift:baseline;display:inline;overflow:visible;vector-effect:none;fill:#002255;stroke:none;enable-background:accumulate;stop-color:#000000;stop-opacity:1" d="m 520.93509,431.86784 c -3.61676,-5.23807 -8.73012,-7.8571 -15.09063,-7.8571 -6.36052,0 -11.47388,2.61903 -15.09064,7.73239 -3.99091,5.61222 -5.11336,12.97046 -5.11336,19.70513 0,6.85938 1.12245,14.0929 5.11336,19.82984 3.61676,5.11336 8.73012,7.85711 15.09064,7.85711 6.2358,0 11.34915,-2.61904 14.96592,-7.73239 3.99091,-5.61222 5.11335,-12.72104 5.11335,-19.4557 0.12472,-6.85938 -0.99773,-14.34234 -4.98864,-20.07928 z m -1.24716,38.78668 c -3.36733,4.73921 -8.10654,7.10881 -13.84347,7.10881 -5.86166,0 -10.47615,-2.3696 -13.84348,-7.23353 -3.8662,-5.4875 -4.86392,-12.4716 -4.86392,-18.95683 0,-6.48523 1.12244,-13.46933 4.86392,-18.95683 3.36733,-4.73921 8.10654,-7.23353 13.84348,-7.23353 5.86165,0 10.60086,2.36961 13.96819,7.23353 3.86619,5.4875 4.86392,12.72103 4.86392,19.33098 0,6.48523 -1.12244,13.34461 -4.98864,18.7074 z" id="path39"/>
            </g>
            <path style="baseline-shift:baseline;display:inline;overflow:visible;fill:#002255;stroke:none;stroke-width:0;stroke-linecap:round;stroke-linejoin:round;stroke-dasharray:none;stroke-opacity:1;paint-order:markers stroke fill;enable-background:accumulate;stop-color:#000000" d="m 573.05855,566.88855 c -2.99318,-4.36506 -7.23352,-6.60995 -12.72103,-6.60995 -5.36279,0 -9.60313,2.24489 -12.72103,6.60995 -3.1179,4.36506 -4.61449,10.35143 -4.61449,18.08382 0,7.73239 1.49659,13.71876 4.61449,18.08382 3.1179,4.36506 7.35824,6.60995 12.72103,6.60995 5.36279,0 9.60313,-2.12017 12.72103,-6.48523 3.1179,-4.36506 4.6145,-10.22671 4.6145,-17.83439 -0.12472,-7.85711 -1.62131,-14.09291 -4.6145,-18.45797 z m -5.36278,31.55315 c -1.62131,2.86847 -4.11563,4.24034 -7.60768,4.24034 -3.49205,0 -5.61222,-1.49659 -7.10881,-4.36506 -3.49205,-6.48523 -5.61222,-31.42843 7.10881,-31.179 12.84575,0.49887 11.22444,25.06792 7.60768,31.30372 z" id="path41"/>
        </g>
        <g id="g44" transform="translate(0,-126.03606)">
            <path style="baseline-shift:baseline;display:inline;overflow:visible;vector-effect:none;fill:#ffffff;stroke:none;stroke-width:10;stroke-linecap:round;stroke-linejoin:round;stroke-dasharray:none;stroke-opacity:1;paint-order:markers stroke fill;enable-background:accumulate;stop-color:#000000" d="m 400.1203,552.53417 a 5.0005,5.0005 0 0 0 -2.71289,0.80078 l -5.98633,3.86523 a 5.0005,5.0005 0 0 0 -2.28711,4.11328 l -0.24804,14.2168 a 5.0005,5.0005 0 0 0 4.83984,4.38476 l -0.10156,32.10547 a 5.0005,5.0005 0 0 0 5.04687,5.01563 l 13.22071,-0.125 a 5.0005,5.0005 0 0 0 4.95117,-5 v -54.37695 a 5.0005,5.0005 0 0 0 -5,-5 z m 1.98047,11.62109 h 3.3711 v 41.50781 h -0.22657 v -35.78125 a 5.0005,5.0005 0 0 0 -4.65234,-4.3125 l 0.006,-0.43555 z" id="path24"/>
            <path style="baseline-shift:baseline;display:inline;overflow:visible;vector-effect:none;fill:#002255;stroke:none;stroke-width:10;stroke-linecap:round;stroke-linejoin:round;stroke-dasharray:none;stroke-opacity:1;paint-order:markers stroke fill;enable-background:accumulate;stop-color:#000000" d="m 398.74851,572.50077 -4.86392,3.1179 0.24943,-14.21762 5.98637,-3.8662 h 11.7233 v 54.37618 l -13.2199,0.12471 z m 1.49659,-2.61903 v 40.78213 h 10.22671 v -51.50771 h -9.85256 l -4.98864,3.24262 -0.12472,10.60086 z" id="path25"/>
            <path d="m 397.00249,563.18918 3.99091,-2.61903 7.98182,0.12471 v 48.51453 h -7.35824 l 0.12471,-42.0293 -4.86392,3.1179 z" style="baseline-shift:baseline;display:inline;overflow:visible;vector-effect:none;fill:#002255;stroke:none;stroke-width:10;stroke-linecap:round;stroke-linejoin:round;stroke-dasharray:none;stroke-opacity:1;paint-order:markers stroke fill;enable-background:accumulate;stop-color:#000000" id="path1"/>
        </g>
    </g>
    <g id="path4" style="opacity:1">
        <path style="baseline-shift:baseline;display:inline;overflow:visible;vector-effect:none;fill:#ffffff;stroke-linecap:round;stroke-linejoin:round;paint-order:markers stroke fill;enable-background:accumulate;stop-color:#000000;stop-opacity:1" d="m 142.92187,420.50977 c -3.19004,0 -6.66299,1.43581 -8.75585,3.94726 -1.14835,1.378 -1.72608,2.36718 -2.23438,3.04492 a 7.50075,7.50075 0 0 0 -0.10742,0.14844 l -24.69531,34.67188 a 7.50075,7.50075 0 0 0 -0.0293,0.041 l -4.11523,5.86133 a 7.50075,7.50075 0 0 0 -0.006,0.008 c -0.57792,0.82559 -1.22042,1.64958 -1.875,2.4961 -0.88799,0.13402 -1.859244,0.27012 -3.082036,0.67773 -1.797178,0.59905 -3.720281,2.0584 -4.77539,3.68164 -1.055109,1.62324 -1.389971,3.14906 -1.542969,4.37305 a 7.50075,7.50075 0 0 0 -0.05664,0.92968 c 0,2.62358 2.055614,7.00678 5.75,8.23829 0.848585,0.28286 1.995346,0.63476 3.744146,0.63476 1.82639,0 3.49165,-0.15067 4.98828,-0.27539 1.53092,-0.12758 2.66223,-0.22461 3.74218,-0.22461 0.91735,0 1.87202,0.0882 3.11914,0.21289 1.78903,0.17891 3.16186,0.17947 3.86719,0.25 a 7.50075,7.50075 0 0 0 0.7461,0.0371 c 1.62353,0 3.58126,-0.46933 4.97461,-1.16601 0.54795,-0.27398 0.99163,-0.68722 1.45117,-1.07813 0.2583,0.2428 0.47069,0.53905 0.76367,0.73438 2.29426,1.52949 4.90739,1.50976 5.40625,1.50976 2.41428,0 4.68059,-0.13895 6.80078,-0.26367 2.12015,-0.12472 4.0958,-0.23633 5.92187,-0.23633 0.91735,0 2.41384,0.125 4.24024,0.125 l -0.67969,-0.0312 c 1.86168,0.16925 3.54805,0.15625 4.91992,0.15625 1.49968,0 2.50014,-0.21333 3.6875,-0.58594 0.48225,0.0635 0.755,0.2129 1.30078,0.21289 1.37189,0 2.9741,0.009 4.79493,-0.15625 0.9229,-0.0839 2.06366,-0.0937 3.43554,-0.0937 0.74715,0 1.7489,0.0862 2.9961,0.21094 1.73977,0.17398 2.98564,0.17455 3.74023,0.25 a 7.50075,7.50075 0 0 0 0.7461,0.0371 c 1.62353,0 3.58327,-0.46938 4.97656,-1.16601 0.24645,-0.12324 0.41196,-0.30936 0.63672,-0.45118 0.0813,0.0409 0.16172,0.135 0.24218,0.17188 1.73058,0.79319 3.24751,0.94726 4.6211,0.94726 2.76361,0 5.63047,-1.25741 7.65625,-3.04101 0.59438,0.8356 1.23342,1.58529 1.90234,2.03125 1.97423,1.31613 3.78429,1.63281 5.5332,1.63281 2.10318,0 4.12517,-0.14106 5.89649,-0.26758 1.72067,-0.12291 3.43922,-0.23046 4.82812,-0.23047 1.53743,0 3.23246,0.10756 4.95313,0.23047 a 7.50075,7.50075 0 0 0 0.0352,0.002 c 1.87071,0.12471 3.88315,0.26562 5.98632,0.26562 1.26127,0 2.59372,-0.38184 3.71289,-0.72656 1.62534,0.86235 3.16822,1.22656 4.64454,1.22656 1.9911,0 3.87923,-0.14324 5.52148,-0.26953 l 0.041,-0.002 c 1.74927,-0.12498 3.16263,-0.22852 4.53906,-0.22852 1.53739,0 3.09544,0.10624 4.98828,0.23242 2.1798,0.14533 3.92657,0.14589 5.48828,0.25 a 7.50075,7.50075 0 0 0 0.49805,0.0176 c 0.7483,0 2.01682,0.008 3.54883,-0.18359 1.56745,-0.19594 3.79089,-0.90027 5.51171,-2.6211 1.66965,-1.66965 2.35624,-3.79385 2.57618,-5.35156 2.82689,2.52297 5.98728,4.74117 9.75195,6.16016 4.69439,1.81367 9.66563,2.74414 14.7793,2.74414 2.68929,0 5.51402,-0.14741 8.49414,-0.5625 2.80598,-0.28967 5.47916,-0.83484 8.05078,-1.4668 0.35566,-0.055 0.72767,-0.14645 1.09375,-0.22656 0.36166,0.20145 0.66568,0.48947 1.0664,0.62305 0.84863,0.28288 1.99534,0.63476 3.74414,0.63476 1.82641,0 3.49166,-0.15067 4.98829,-0.27539 1.53092,-0.12758 2.66224,-0.22461 3.74218,-0.22461 0.91736,0 1.87202,0.0882 3.11914,0.21289 a 7.50075,7.50075 0 0 0 0.0664,0.006 c 1.78004,0.16183 3.04424,0.16869 3.79883,0.24414 a 7.50075,7.50075 0 0 0 0.74805,0.0371 c 1.62353,0 3.5812,-0.46928 4.9746,-1.16601 0.57424,-0.28712 1.04442,-0.71433 1.52149,-1.12891 0.2736,0.26261 0.50318,0.57634 0.81641,0.78516 2.29426,1.52949 4.90934,1.50976 5.4082,1.50976 2.41428,0 4.68059,-0.13895 6.80078,-0.26367 2.12015,-0.12472 4.09384,-0.23633 5.91992,-0.23633 0.91735,0 2.41383,0.125 4.24024,0.125 l -0.67969,-0.0312 c 1.86167,0.16925 3.54805,0.15625 4.91992,0.15625 1.62361,0 2.66952,-0.1939 3.99219,-0.63476 a 7.50075,7.50075 0 0 0 0.98242,-0.40625 c 1.14388,-0.57193 2.75441,-1.79873 3.71875,-3.48633 0.96434,-1.6876 1.17578,-3.38628 1.17578,-4.59375 0,-0.81181 0.005,-1.79473 -0.54492,-3.33399 -0.45291,-1.26811 -1.75371,-3.1775 -3.74609,-4.34961 -0.44903,-0.25258 -0.98537,-0.47217 -1.56055,-0.67578 -7e-4,-0.0722 -0.01,-0.0454 -0.01,-0.12109 a 7.50075,7.50075 0 0 0 -0.01,-0.38867 l -1.9961,-38.41407 0.01,0.39063 c 0,-1.82644 -0.1699,-3.60147 -0.59766,-5.3125 a 7.50075,7.50075 0 0 0 -0.0645,-0.24023 c -0.65601,-2.29606 -2.59644,-4.51509 -4.44531,-5.53516 -1.84888,-1.02007 -3.46506,-1.2658 -4.93555,-1.37891 a 7.50075,7.50075 0 0 0 -0.57422,-0.0234 c -3.19004,0 -6.66106,1.43584 -8.7539,3.94726 -1.14835,1.378 -1.72609,2.3672 -2.23438,3.04492 a 7.50075,7.50075 0 0 0 -0.10937,0.14844 l -17.92774,25.17188 c -0.38708,-0.39766 -0.70845,-0.97557 -1.11133,-1.24415 -1.97417,-1.31609 -3.36734,-1.63476 -5.4082,-1.63476 -0.47781,0 -0.88172,0.0451 -1.35156,0.0566 2.43709,-0.58482 5.73063,-2.59112 6.99218,-4.79883 0.98753,-1.72818 1.34652,-3.10111 1.5293,-3.67383 0.50758,-1.30772 0.78228,-2.31697 1.36133,-4.16992 a 7.50075,7.50075 0 0 0 0.11719,-0.41797 c 0.46319,-1.85278 0.73064,-2.67251 0.99804,-3.74218 a 7.50075,7.50075 0 0 0 0.14844,-2.87891 c -0.38054,-2.6639 -2.36621,-5.15364 -3.99609,-6.24024 -1.62988,-1.08659 -2.92721,-1.42857 -4.10352,-1.72265 a 7.50075,7.50075 0 0 0 -0.13281,-0.0312 c -2.33291,-0.53836 -4.36928,-0.67035 -6.14063,-0.79688 -1.97385,-0.14098 -3.40376,-0.14453 -4.02734,-0.14453 -7.54293,0 -15.12457,1.5897 -22.72656,4.30469 a 7.50075,7.50075 0 0 0 -0.10938,0.0391 c -3.30725,1.24023 -6.41894,2.78418 -9.39062,4.51953 -0.0593,-0.87176 -0.21662,-1.95473 -0.83399,-3.18945 -0.52596,-1.05192 -1.2466,-1.82153 -1.9375,-2.44336 -1.99985,-1.91097 -4.57056,-2.48047 -6.28125,-2.48047 -0.62012,0 -1.69238,0.0544 -2.87304,0.22266 -1.00673,0.0734 -1.98318,0.17555 -2.58985,0.29687 l 0.9375,-0.12695 c -1.6881,0.12058 -3.24153,0.23817 -4.87304,0.35547 h -4.94532 c -0.74714,0 -2.03879,-0.125 -3.86523,-0.125 l 0.74609,0.0371 c -1.73973,-0.17397 -3.24141,-0.16211 -4.61328,-0.16211 -1.34399,0 -3.35624,0.56867 -5.04687,1.48242 l 0.87304,0.71484 c -0.14491,-0.14491 -0.32559,-0.16282 -0.47656,-0.29296 -0.14576,-0.13186 -0.26739,-0.29062 -0.42383,-0.40821 -0.044,0.024 -0.0914,0.0399 -0.13476,0.0645 -1.83968,-1.33555 -3.91467,-1.93555 -5.39063,-1.93555 -1.62131,0 -3.4369,-0.006 -5.43945,0.14844 -1.24009,0.0954 -2.66775,0.10156 -4.28906,0.10156 -0.15876,0 -1.76208,-0.125 -3.86524,-0.125 -2.10314,0 -4.60208,-0.59298 -8.17773,2.26758 a 7.50075,7.50075 0 0 0 -0.61914,0.55273 c -0.94635,0.94628 -1.23123,1.50937 -1.57617,2.19922 -0.10787,0.21573 -0.23201,0.45999 -0.35352,0.6875 l -7.62695,11.53125 -0.21289,-7.6543 c 0.006,-0.5738 0.12309,-1.548 -0.42383,-3.42187 -0.50688,-1.8013 -2.21733,-4.10985 -3.79688,-5.03125 -1.61926,-0.94457 -2.55631,-1.00931 -3.05664,-1.10938 a 7.50075,7.50075 0 0 0 -1.4707,-0.14648 c -1.74602,0 -3.7707,-0.007 -5.89648,0.14453 l 0.53515,-0.0195 h -5.36328 c -0.37269,0 -1.37139,-0.125 -2.99414,-0.125 l 0.93164,0.0586 c -1.60838,-0.20105 -2.92611,-0.18164 -3.92383,-0.18164 -1.62361,0 -2.71821,0.26981 -3.34179,0.39453 a 7.50075,7.50075 0 0 0 -1.31446,0.39063 c -1.19224,0.47689 -2.90545,1.56569 -4.0039,3.10351 -1.09846,1.53782 -1.4451,3.02403 -1.60743,3.99805 a 7.50075,7.50075 0 0 0 0.0449,2.70508 c 0.43648,2.18246 2.00869,4.66093 4.12695,6.08398 -1.68475,4.69797 -3.37844,9.34165 -5.08399,14.11719 -1.85805,5.20256 -3.70909,10.26347 -5.68164,15.44141 a 7.50075,7.50075 0 0 0 -0.10742,0.29883 c -0.3729,1.11871 -0.38547,1.0606 -0.52148,1.33007 -0.1719,0.053 -0.11844,0.0759 -0.39258,0.11914 a 7.50075,7.50075 0 0 0 -0.11719,0.0195 l -1.94726,-37.5254 0.01,0.39063 c 0,-1.82644 -0.1699,-3.60147 -0.59765,-5.3125 a 7.50075,7.50075 0 0 0 -0.0645,-0.24023 c -0.65602,-2.29609 -2.59839,-4.51509 -4.44726,-5.53516 -1.84887,-1.02007 -3.46311,-1.2658 -4.9336,-1.37891 a 7.50075,7.50075 0 0 0 -0.57422,-0.0234 z m 88.69532,4.66796 c 0.82162,-0.0572 1.69574,0.0314 2.59765,0.33204 a 7.50075,7.50075 0 0 0 -3.98242,0 c 0.4539,-0.12877 0.88561,-0.29729 1.38477,-0.33204 z m 9.70508,1.09571 c 0.20653,-0.0172 0.62623,-0.0113 1.15625,0.10156 -0.37869,-0.01 -0.80804,-0.13058 -1.15625,-0.10156 z m -20.6543,7.23828 c -0.0433,0.14752 -0.0449,0.41527 -0.0918,0.53906 -0.009,0.017 -0.0224,0.0409 -0.0312,0.0586 -0.005,0.0104 -0.0203,0.0249 -0.0254,0.0352 a 7.50075,7.50075 0 0 0 0.14844,-0.63281 z m 95.625,3.47851 -0.0195,0.53516 c 0.007,-0.10294 -0.012,-0.19289 -0.006,-0.29492 2.5e-4,-0.0467 0.0254,-0.2027 0.0254,-0.24024 z m -80.75781,2.13868 c 0.13527,0.10793 0.21944,0.26394 0.36132,0.36328 l -8.76367,30.33789 a 7.50075,7.50075 0 0 0 -0.10351,0.39453 c -0.12655,0.54839 -0.18659,0.63402 -0.29883,1.03711 -0.4441,0.0858 -0.66354,0.0995 -1.19531,0.23242 -0.19016,0.0475 -0.39524,0.16673 -0.58985,0.22656 -0.0116,-0.007 -0.0235,-0.007 -0.0352,-0.0137 0.008,-0.0321 0.0445,-0.20856 0.0508,-0.23047 a 7.50075,7.50075 0 0 0 0.0664,-0.24804 l 7.72657,-31.02344 c 0.61115,-0.1699 1.13623,-0.35661 1.46093,-0.46485 h -0.33789 c 0.59216,-0.16545 1.14263,-0.34356 1.65821,-0.61132 z m 80.47461,0.46679 c -1.1e-4,0.003 0.004,0.0184 0.004,0.0215 l -0.0684,0.56445 c 0.0622,-0.24879 0.0224,-0.34342 0.0645,-0.58594 z m -14.92969,0.58789 c 0.0384,1.43406 0.24291,2.87486 0.875,4.45508 1.25197,3.12995 4.48566,4.98943 7.29101,5.49219 -0.58132,0.0348 -1.2479,0.0398 -1.79297,0.0762 -2.01486,0.12593 -3.71158,0.23633 -5.39453,0.23633 -1.53739,0 -3.23242,-0.10756 -4.95312,-0.23047 a 7.50075,7.50075 0 0 0 -0.0352,-0.004 c -1.87071,-0.1247 -3.88314,-0.26562 -5.98633,-0.26562 -1.50199,0 -3.03174,0.26729 -4.70703,1.02734 -0.70696,0.31334 -1.38145,0.75493 -1.98828,1.32032 1.00657,-1.68844 2.12607,-3.28698 3.45703,-4.6875 2.00819,-1.99311 4.79201,-3.93143 8.17383,-5.62696 1.78622,-0.86251 3.44659,-1.41661 5.06055,-1.79297 z m -70.1543,0.28321 c 0.006,0.002 -0.12221,0.0594 -0.0937,0.0547 l -1.23437,0.10352 c 0.54665,0 0.87704,-0.10502 1.32812,-0.1582 z m 59.96484,12.77734 0.13086,0.0176 c 0.037,0.005 0.1065,0.0378 0.14649,0.0449 -0.0694,-0.009 -0.21223,-0.0544 -0.27735,-0.0625 z m 3.75782,0.78906 0.81445,0.25391 c -0.22222,-0.0833 -0.3381,-0.0566 -0.55469,-0.12695 -0.0883,-0.0257 -0.17183,-0.10497 -0.25976,-0.12696 z m -13.42969,6.82227 c 0.31946,1.51878 1.0145,3.27037 2.41016,4.66601 0.68873,0.68874 1.48937,1.16655 2.28906,1.57227 -0.0505,0.15834 -0.0217,0.15481 -0.0781,0.32422 a 7.50075,7.50075 0 0 0 -0.0684,0.2168 c -0.39855,1.32851 -0.78455,2.4433 -1.17968,3.60937 -0.87733,-0.26757 -1.45673,-0.62331 -1.82032,-1.08789 a 7.50075,7.50075 0 0 0 -0.12304,-0.1543 c -1.20676,-1.46082 -1.77539,-2.86988 -1.77539,-5.94922 0,-1.05625 0.17796,-2.12781 0.3457,-3.19726 z m -179.51758,9.74219 c -0.0526,0.008 -0.14503,0.0351 -0.19922,0.043 -0.004,7e-5 0.0344,-0.0187 0.0274,-0.0176 z m 50.32422,0.17382 0.94141,0.0879 c -0.0305,0.0117 -0.0706,0.0405 -0.10157,0.0527 -0.27086,-0.0299 -0.60271,-0.14063 -0.83984,-0.14063 z m 206.2793,0 1.38281,0.12891 c -0.0906,-0.017 0.15187,0.11611 0.14648,0.12695 -0.52506,-0.094 -1.0975,-0.25586 -1.52929,-0.25586 z m -206.64063,0.66602 c -0.16655,0.0833 -0.28294,0.24096 -0.4414,0.33789 -0.25378,0.15908 -0.43974,0.17209 -0.70508,0.37109 z m 4.10547,0.0937 1.78711,0.87305 c -0.1133,-0.0755 -0.32133,-0.12224 -0.45117,-0.19532 -0.4263,-0.25088 -0.84303,-0.51342 -1.33594,-0.67773 z m -32.23633,0.14648 h 3.50391 c -0.97127,0.34863 -1.80877,0.94076 -2.64063,1.60547 -0.43365,-0.38288 -0.89347,-0.58104 -1.3496,-0.85156 0.22256,-0.34561 0.2922,-0.45161 0.48632,-0.75391 z m 206.2793,0 h 3.62891 c -0.99356,0.35665 -1.85403,0.95906 -2.69922,1.64649 -0.4531,-0.40781 -0.9375,-0.61086 -1.41602,-0.89453 0.22211,-0.34491 0.29256,-0.45021 0.48633,-0.75196 z m -29.67383,0.26758 -0.0684,0.2168 c 0.003,-0.009 0.003,-0.0142 0.006,-0.0234 0.0259,-0.0852 0.0366,-0.1069 0.0625,-0.19336 z m -29.17969,7.45703 c 0.0177,0.0227 0.0427,0.036 0.0605,0.0586 0.0245,0.03 0.0398,0.0659 0.0645,0.0957 z m 35.33204,7.16993 -1.07227,0.5332 c 0.16592,-0.0664 0.27808,-0.17292 0.43555,-0.2461 0.22213,-0.11692 0.40395,-0.14744 0.63672,-0.2871 z" id="path50"/>
        <path style="baseline-shift:baseline;display:inline;overflow:visible;vector-effect:none;fill:#ff0000;stroke-linecap:round;stroke-linejoin:round;paint-order:markers stroke fill;enable-background:accumulate;stop-color:#000000;stop-opacity:1" d="m 153.8959,479.89259 c 0,-0.62358 -0.12471,-1.12244 -0.49886,-1.24716 -0.37415,-0.24943 -0.7483,-0.37415 -1.37188,-0.37415 -1.99545,-0.37414 -3.1179,-1.12244 -3.49204,-2.24488 -0.37415,-1.24716 -0.49887,-2.74376 -0.49887,-4.6145 l -1.99545,-38.41252 c 0,-1.37188 -0.12472,-2.49432 -0.37415,-3.49205 -0.24943,-0.87301 -1.12245,-1.37188 -2.74375,-1.49659 -1.37188,0 -2.36961,0.49886 -2.99319,1.24716 -0.62358,0.74829 -1.24716,1.74602 -1.99545,2.74375 l -24.69377,34.67105 -4.11563,5.86165 c -0.87301,1.24716 -1.74602,2.3696 -2.61904,3.49205 -0.99772,1.12244 -2.24488,1.74602 -3.74148,1.99545 -0.87301,0.12472 -1.6213,0.24943 -2.3696,0.49887 -0.748297,0.24943 -1.122445,0.87301 -1.247161,1.87074 0,0.62358 0.249432,0.99772 0.62358,1.12244 0.374151,0.12472 0.873011,0.24943 1.371881,0.24943 1.37187,0 2.86846,-0.12471 4.36506,-0.24943 1.49659,-0.12472 2.86846,-0.24943 4.36506,-0.24943 1.37187,0 2.61903,0.12471 3.86619,0.24943 1.24716,0.12472 2.61904,0.12472 3.8662,0.24943 0.62358,0 1.12244,-0.12471 1.62131,-0.37415 0.49886,-0.24943 0.74829,-0.74829 0.74829,-1.37187 -0.12471,-0.99773 -0.62358,-1.49659 -1.74602,-1.62131 -1.12245,-0.12472 -2.12017,-0.37415 -3.24262,-0.62358 -1.12244,-0.24943 -1.62131,-0.99773 -1.74602,-2.3696 0.24943,-1.37188 1.12244,-3.36734 2.74375,-5.86166 1.62131,-2.49432 2.74375,-4.36506 3.49205,-5.36278 h 15.34007 c 0.12471,1.6213 0.12471,3.24261 0.24943,4.86392 0.12471,1.62131 0.12471,3.24262 0.12471,4.86392 -0.12471,2.24489 -0.62358,3.61677 -1.74602,3.99092 -1.12244,0.37414 -2.24489,0.62358 -3.24262,0.62358 -1.12244,0 -1.74602,0.74829 -1.74602,1.87074 0,0.49886 0.12472,0.87301 0.49886,1.12244 0.37415,0.24943 0.7483,0.24943 1.24716,0.24943 2.12018,0 4.24035,-0.12471 6.36052,-0.24943 2.12017,-0.12472 4.24034,-0.24943 6.36052,-0.24943 1.37187,0 2.86846,0.12471 4.24034,0.12471 1.37188,0.12472 2.86847,0.12472 4.24034,0.12472 0.62358,0 1.24716,-0.12472 1.62131,-0.24943 0.62358,-0.24943 0.87301,-0.62358 0.87301,-1.37188 z m -18.95683,-19.58041 h -12.84575 l 12.22217,-17.83439 z m 130.45294,-29.30826 c 0,-0.49886 -0.12472,-0.7483 -0.49887,-0.99773 -0.24943,-0.24943 -0.62358,-0.37415 -1.12244,-0.37415 -0.7483,0 -1.37188,0 -1.99546,0.12472 -0.62358,0 -1.37187,0.12472 -1.99545,0.24943 -1.74603,0.12472 -3.36733,0.24943 -5.11336,0.37415 h -5.23807 c -1.24716,0 -2.49432,-0.12472 -3.8662,-0.12472 -1.24716,-0.12471 -2.49432,-0.12471 -3.86619,-0.12471 -0.62358,0 -1.12245,0.12471 -1.62131,0.49886 -0.49886,0.37415 -0.7483,0.87301 -0.7483,1.49659 0.24944,1.12245 1.12245,1.74603 2.61904,1.62131 1.49659,-0.12471 2.3696,0.62358 2.61904,1.99546 0,0.37415 0,0.74829 -0.12472,1.24716 -0.12472,0.37415 -0.24943,0.74829 -0.37415,1.24716 l -9.72785,33.67332 c -0.37414,1.62131 -0.74829,2.99318 -1.24716,4.11563 -0.49886,1.12244 -1.49659,1.87074 -3.1179,2.24488 -0.74829,0.12472 -1.6213,0.24944 -2.61903,0.49887 -0.99773,0.24943 -1.62131,0.87301 -1.62131,1.74602 0,0.49887 0.24943,0.87301 0.62358,1.12245 0.37415,0.24943 0.87301,0.37414 1.37188,0.37414 1.6213,0 3.36733,-0.12471 4.98864,-0.24943 1.74602,-0.12471 3.36733,-0.24943 5.11335,-0.24943 1.87074,0 3.61677,0.12472 5.48751,0.24943 1.87074,0.12472 3.61676,0.12472 5.4875,0.24943 0.7483,0 1.62131,0 2.61904,-0.12471 0.99772,-0.12472 1.49659,-0.62358 1.6213,-1.62131 -0.12471,-0.99773 -0.62358,-1.49659 -1.49659,-1.62131 -0.87301,-0.12471 -1.87074,-0.24943 -2.74375,-0.49886 -0.87301,-0.24943 -1.37188,-1.12245 -1.49659,-2.61904 0,-0.62358 0.12471,-1.24716 0.24943,-1.87074 0.12472,-0.62358 0.37415,-1.24716 0.49886,-1.87074 l 9.72785,-33.79803 c 0.37415,-1.37188 0.7483,-2.36961 1.24716,-2.99319 0.49887,-0.62358 1.49659,-1.12244 2.86847,-1.37187 0.7483,-0.12472 1.49659,-0.24944 2.3696,-0.62358 0.62358,-0.62358 0.99773,-1.12245 1.12245,-1.99546 z m 50.63469,0.37415 c -0.12471,-0.87301 -0.99772,-1.37188 -2.49432,-1.74603 -1.6213,-0.37414 -3.24261,-0.49886 -4.98864,-0.62358 -1.74602,-0.12471 -2.86846,-0.12471 -3.49204,-0.12471 -6.48524,0 -13.2199,1.37187 -20.204,3.86619 -6.98409,2.61904 -12.97046,6.36052 -17.9591,11.34916 -4.98864,4.98864 -7.60768,11.09972 -7.73239,18.33325 0.12471,4.61449 1.37187,8.35597 3.99091,11.34916 2.61904,2.99318 5.73694,5.23807 9.72785,6.73466 3.86619,1.49659 7.85711,2.24489 12.09745,2.24489 2.49432,0 4.98864,-0.12472 7.60768,-0.49886 2.49432,-0.24944 4.98864,-0.7483 7.48296,-1.37188 0.87301,-0.12472 1.74602,-0.37415 2.3696,-0.7483 0.62358,-0.24943 1.12244,-0.87301 1.49659,-1.87074 0.62358,-1.87074 1.24716,-3.86619 1.87074,-5.86165 0.62358,-1.99545 1.12245,-3.99091 1.62131,-5.86165 0.87301,-2.74375 1.99546,-4.48978 3.24262,-4.98864 1.24716,-0.49886 2.3696,-0.7483 3.36733,-0.7483 0.99773,0 1.49659,-0.62358 1.49659,-1.87074 0,-0.49886 -0.24943,-0.87301 -0.62358,-1.12244 -0.37415,-0.24943 -0.87301,-0.37415 -1.24716,-0.37415 -1.87074,0 -3.8662,0.12472 -5.73694,0.24943 -1.99545,0.12472 -3.86619,0.24944 -5.86165,0.24944 -1.87074,0 -3.74148,-0.12472 -5.4875,-0.24944 -1.87074,-0.12471 -3.74148,-0.24943 -5.48751,-0.24943 -0.62358,0 -1.24716,0.12472 -1.74602,0.37415 -0.62358,0.24943 -0.87301,0.7483 -0.87301,1.37188 0.12471,0.87301 0.62358,1.37187 1.49659,1.49659 0.99773,0.12471 1.87074,0.24943 2.86847,0.62358 0.99773,0.24943 1.49659,1.12244 1.49659,2.49432 -0.12472,1.49659 -0.49886,3.36733 -1.37188,5.98637 -0.74829,2.49432 -1.49659,4.48977 -1.99545,6.11108 -0.24943,1.12244 -0.7483,1.99546 -1.24716,2.49432 -0.49887,0.49886 -1.37188,0.7483 -2.61904,0.7483 -4.48977,-0.12472 -7.98182,-1.4966 -10.22671,-4.36506 -2.3696,-2.86847 -3.49205,-6.36052 -3.49205,-10.72558 0,-3.99091 0.87301,-7.98182 2.49432,-11.7233 1.62131,-3.74148 3.8662,-7.10882 6.60995,-9.97728 2.74375,-2.74376 6.2358,-5.11336 10.22671,-7.10882 4.11563,-1.99545 8.10654,-2.99318 12.09745,-3.1179 1.87074,0 2.99319,0.37415 3.49205,1.12245 0.37415,0.74829 0.62358,1.99545 0.49887,3.74148 0,0.49886 0,0.87301 -0.12472,1.37187 0,0.49887 -0.12472,0.87302 -0.12472,1.37188 0,0.7483 0.12472,1.49659 0.37415,2.12017 0.24943,0.62358 0.87301,0.99773 1.74603,0.99773 0.99772,-0.12472 1.6213,-0.49886 2.12017,-1.37188 0.49886,-0.87301 0.74829,-1.74602 0.99773,-2.49432 0.24943,-0.62358 0.62358,-1.87074 1.24716,-3.86619 0.49886,-1.99546 0.87301,-3.24262 0.99772,-3.74148 z m 44.14947,48.51452 c 0,-0.62358 -0.12472,-1.12244 -0.49887,-1.24716 -0.37414,-0.24943 -0.74829,-0.37415 -1.37187,-0.37415 -1.99546,-0.37414 -3.1179,-1.12244 -3.49205,-2.24488 -0.37415,-1.24716 -0.49886,-2.74376 -0.49886,-4.6145 l -1.99546,-38.41252 c 0,-1.37188 -0.12472,-2.49432 -0.37415,-3.49205 -0.24943,-0.87301 -1.12244,-1.37188 -2.74375,-1.49659 -1.37188,0 -2.3696,0.49886 -2.99318,1.24716 -0.62358,0.74829 -1.24716,1.74602 -1.99546,2.74375 l -24.69377,34.67105 -4.11563,5.86165 c -0.87301,1.24716 -1.74602,2.3696 -2.61903,3.49205 -0.99773,1.12244 -2.24489,1.74602 -3.74148,1.99545 -0.87301,0.12472 -1.62131,0.24943 -2.36961,0.49887 -0.74829,0.24943 -1.12244,0.87301 -1.24716,1.87074 0,0.62358 0.24944,0.99772 0.62358,1.12244 0.37415,0.12472 0.87302,0.24943 1.37188,0.24943 1.37188,0 2.86847,-0.12471 4.36506,-0.24943 1.49659,-0.12472 2.86847,-0.24943 4.36506,-0.24943 1.37188,0 2.61904,0.12471 3.8662,0.24943 1.37187,0.12472 2.61903,0.12472 3.86619,0.24943 0.62358,0 1.12245,-0.12471 1.62131,-0.37415 0.49886,-0.24943 0.7483,-0.74829 0.7483,-1.37187 -0.12472,-0.99773 -0.62358,-1.49659 -1.74603,-1.62131 -1.12244,-0.12472 -2.12017,-0.37415 -3.24261,-0.62358 -1.12245,-0.24943 -1.62131,-0.99773 -1.74603,-2.3696 0.24943,-1.37188 1.12245,-3.36734 2.74375,-5.86166 1.62131,-2.49432 2.74376,-4.36506 3.49205,-5.36278 h 15.46479 c 0.12471,1.6213 0.12471,3.24261 0.24943,4.86392 0.12471,1.62131 0.12471,3.24262 0.12471,4.86392 -0.12471,2.24489 -0.62358,3.61677 -1.74602,3.99092 -1.12244,0.37414 -2.24489,0.62358 -3.24262,0.62358 -1.12244,0 -1.74602,0.74829 -1.74602,1.87074 0,0.49886 0.12472,0.87301 0.49886,1.12244 0.37415,0.24943 0.7483,0.24943 1.24716,0.24943 2.12018,0 4.24035,-0.12471 6.36052,-0.24943 2.12017,-0.12472 4.24034,-0.24943 6.36052,-0.24943 1.37187,0 2.86846,0.12471 4.24034,0.12471 1.37188,0.12472 2.86847,0.12472 4.24034,0.12472 0.62358,0 1.24716,-0.12472 1.62131,-0.24943 0.49887,-0.24943 0.7483,-0.62358 0.7483,-1.37188 z m -19.08155,-19.58041 h -12.84575 l 12.22217,-17.83439 z m -108.3782,-29.05883 c 0,-0.49886 -0.12472,-0.87301 -0.49887,-1.12244 -0.24943,-0.24943 -0.62358,-0.37415 -1.12244,-0.37415 -1.62131,0 -3.24262,0 -4.86393,0.12472 -1.6213,0.12471 -3.24261,0.12471 -4.86392,0.12471 -0.87301,0 -2.12017,-0.12471 -3.8662,-0.12471 -1.74602,0 -2.86846,0.12471 -3.49204,0.62358 -0.12472,0.12471 -0.24944,0.37414 -0.24944,0.49886 -0.12471,0.24943 -0.24943,0.37415 -0.24943,0.49886 l -21.20172,32.05202 -0.87301,-31.55315 c 0,-0.62358 0,-1.12245 -0.12472,-1.49659 -0.12471,-0.49887 -0.49886,-0.62358 -1.12244,-0.7483 -1.74602,0 -3.61676,0 -5.36279,0.12472 h -5.36279 c -0.99772,0 -1.99545,-0.12472 -2.99318,-0.12472 -0.99773,-0.12472 -1.99546,-0.12472 -2.99318,-0.12472 -0.62358,0 -1.24716,0.12472 -1.87074,0.24944 -0.62358,0.24943 -0.87302,0.62358 -0.99773,1.37187 0.24943,1.24716 1.24716,1.87074 2.86847,1.74603 1.74602,0 2.61903,0.62358 2.86846,1.74602 0,0.87301 -0.24943,1.74602 -0.49886,2.61904 -0.37415,0.87301 -0.62358,1.74602 -0.87301,2.49432 -1.87074,5.23807 -3.74148,10.35142 -5.61222,15.5895 -1.87074,5.23807 -3.74148,10.35142 -5.73694,15.5895 -0.74829,2.24488 -1.49659,3.74148 -2.24489,4.61449 -0.74829,0.87301 -2.24488,1.49659 -4.61449,1.87074 -0.62358,0.12471 -1.24716,0.24943 -1.74602,0.62358 -0.49887,0.24943 -0.7483,0.74829 -0.7483,1.49659 0,0.62358 0.24943,0.99773 0.62358,1.24716 0.37415,0.12472 0.87301,0.24943 1.49659,0.24943 1.37188,0 2.74376,0 4.11563,-0.12471 1.37188,-0.12472 2.74375,-0.12472 4.11563,-0.12472 1.24716,0 2.49432,0.12472 3.74148,0.24943 1.24716,0.12472 2.49432,0.12472 3.74148,0.24943 0.62358,0 1.12244,-0.12471 1.62131,-0.37414 0.49886,-0.24944 0.74829,-0.7483 0.87301,-1.37188 -0.12472,-1.12244 -0.62358,-1.62131 -1.74602,-1.74602 -1.12245,-0.12472 -2.24489,-0.24944 -3.36734,-0.49887 -1.12244,-0.24943 -1.74602,-1.24716 -1.74602,-2.99318 0.12472,-2.36961 0.99773,-5.98637 2.61904,-10.85029 1.6213,-4.73921 3.24261,-9.47842 5.11335,-13.9682 1.74603,-4.48977 2.99319,-7.48296 3.61677,-9.10426 l 0.87301,36.6665 c 0,1.12244 0.12471,1.99546 0.37415,2.74375 0.24943,0.62358 0.99772,0.99773 2.24488,0.99773 1.24716,0 2.24489,-0.49886 2.99319,-1.37188 0.74829,-0.87301 1.37187,-1.74602 1.99545,-2.74375 l 24.69377,-36.29235 -8.10654,30.68013 c -0.24943,1.37188 -0.62358,2.61904 -1.12244,3.99091 -0.49887,1.37188 -1.49659,2.12018 -2.86847,2.49432 -0.87301,0 -1.74602,0.24944 -2.74375,0.37415 -0.99773,0.24943 -1.62131,0.87301 -1.74603,1.87074 0,0.62358 0.24944,0.99773 0.62358,1.24716 0.37415,0.24943 0.87302,0.37415 1.37188,0.37415 1.74602,0 3.61676,-0.12472 5.36279,-0.24943 1.74602,-0.12472 3.61676,-0.24943 5.36279,-0.24943 1.87074,0 3.74148,0.12471 5.4875,0.24943 1.87074,0.12471 3.74148,0.24943 5.4875,0.24943 0.7483,0 1.24716,-0.12472 1.87074,-0.37415 0.49887,-0.24943 0.87302,-0.74829 0.87302,-1.49659 -0.12472,-0.87301 -0.49887,-1.49659 -1.37188,-1.62131 -0.87301,-0.12471 -1.74602,-0.37415 -2.61904,-0.62358 -0.87301,-0.24943 -1.37187,-0.99773 -1.37187,-2.3696 0,-0.87301 0.12471,-1.87074 0.37415,-2.86847 0.24943,-0.99773 0.37414,-1.87074 0.62358,-2.74375 l 7.8571,-31.55315 c 0.24944,-1.37188 0.62358,-2.49432 1.12245,-3.24262 0.49886,-0.74829 1.37187,-1.24716 2.86847,-1.49659 0.74829,0 1.49659,-0.24943 2.24488,-0.49886 0.37415,0.12471 0.87302,-0.37415 0.87302,-1.37188 z" id="path51"/>
    </g>
</svg>
