<?xml version='1.0' encoding='utf-8'?>
<svg xmlns="http://www.w3.org/2000/svg" version="1.1" id="Layer_1" x="0px" y="0px" viewBox="0 0 4089.9058 2479.6116" xml:space="preserve" width="494.8241652039375" height="300">
    <defs id="defs16">
		
	
				
				
				
				
				
			
			
			
		
	
	
</defs>
    <style type="text/css" id="style1">
	.st0{fill:#001E68;}
	.st1{fill:#FF001F;}
	.st2{fill:#FFFFFF;}
</style>
    <path style="baseline-shift:baseline;display:inline;overflow:visible;vector-effect:none;fill:#ffffff;stroke:none;stroke-width:50;stroke-linecap:round;stroke-linejoin:round;stroke-dasharray:none;stroke-opacity:1;paint-order:markers stroke fill;enable-background:accumulate;stop-color:#000000" d="M 746.06518,32.69141 C 563.05873,33.35625 394.27688,86.88495 260.5769,199.80078 a 25.0025,25.0025 0 0 0 -0.01,0.006 C 56.886138,371.97238 -24.388642,647.47532 6.2722077,949.6855 36.933068,1251.8958 178.72519,1582.5505 423.70971,1872.5332 a 25.0025,25.0025 0 0 0 0.002,0 c 245.03549,289.9325 547.39249,484.8921 840.23239,565.541 292.8399,80.6489 578.011,46.4846 781.6953,-125.5801 203.7323,-172.1652 285.0329,-447.6926 254.3848,-749.916 -30.6482,-302.2234 -172.4398,-632.8806 -417.4258,-922.81443 a 25.0025,25.0025 0 0 0 0,-0.002 C 1637.5649,349.82921 1335.2086,154.87149 1042.3562,74.22266 941.68818,46.49962 841.92571,32.34315 746.06518,32.69141 Z m 10.07227,79.74609 c 91.48028,-1.11159 188.38933,13.28764 287.66795,42.47266 264.7431,77.82671 544.2355,261.23276 773.0078,531.92773 228.7211,270.69351 362.9071,576.83991 395.4551,850.84761 32.5481,274.0085 -35.7679,513.8797 -208.7988,660.1211 -173.0282,146.2392 -420.9176,173.5596 -685.6602,95.7207 C 1053.0667,2215.6885 773.57431,2032.258 544.80151,1761.5625 316.03103,1490.8697 181.84316,1184.6981 149.30737,910.67773 116.77158,636.65733 185.11359,396.7867 358.14136,250.5957 466.28379,159.22626 603.67032,114.29015 756.13745,112.4375 Z m -425.41797,96.02734 c -1.60658,1.32903 -3.2523,2.59154 -4.84766,3.93946 -188.67223,159.409 -260.131003,418.53837 -226.216796,704.168 33.914216,285.6296 172.427516,599.7584 406.957036,877.2656 234.52721,277.5044 521.13444,466.524 797.09184,547.6601 275.9574,81.1362 543.3692,53.957 732.041,-105.5039 55.7396,-47.1097 101.1635,-102.9759 136.7441,-165.5976 -39.1826,78.3307 -92.1155,147.2864 -159.1191,203.9082 -188.6156,159.333 -454.742,193.069 -736.1504,115.5683 -281.40902,-77.5008 -576.2524,-266.7417 -815.31643,-549.6074 h -0.002 C 222.88735,1557.3452 85.480383,1235.0523 56.016353,944.6387 26.552648,654.22823 104.22379,397.43479 292.83667,238 l 0.008,-0.008 c 12.29594,-10.38412 24.93805,-20.20621 37.875,-29.52735 z" id="path17"/>
    <path style="baseline-shift:baseline;display:inline;overflow:visible;vector-effect:none;fill:#001e68;stroke:none;stroke-width:50;stroke-linecap:round;stroke-linejoin:round;stroke-dasharray:none;stroke-opacity:1;paint-order:markers stroke fill;enable-background:accumulate;stop-color:#000000" d="m 1861.5066,651.9 c -484.1,-572.8 -1194.40001,-768.4 -1586.80001,-437 -392.3,331.6 -317.900002,1064.6 166.1,1637.5 484.1,572.8 1194.40001,768.4 1586.70001,437 392.4,-331.6 318,-1064.7 -166,-1637.5 z m 156.1,1561 c -361.7,305.7 -1030.60001,109 -1493.90001,-439.2 -463.300003,-548.2 -545.400002,-1240.6 -183.7,-1546.2 361.7,-305.6 1030.60001,-109 1493.90001,439.2 463.2,548.2 545.4,1240.5 183.7,1546.2 z" id="path18"/>
    <path style="baseline-shift:baseline;display:inline;overflow:visible;fill:#ff001f;stroke:#ffffff;stroke-width:100;stroke-linecap:round;stroke-linejoin:round;stroke-dasharray:none;stroke-opacity:1;paint-order:markers stroke fill;enable-background:accumulate;stop-color:#000000" d="m 2325.0066,559.30078 v 317 h 220.0996 V 1815.5 h 317 V 876.30078 h 220.0996 v -317 h -220.0996 -317 z" id="path20"/>
    <path style="baseline-shift:baseline;display:inline;overflow:visible;fill:#ff001f;stroke:#ffffff;stroke-width:100;stroke-linecap:round;stroke-linejoin:round;stroke-dasharray:none;stroke-opacity:1;paint-order:markers stroke fill;enable-background:accumulate;stop-color:#000000" d="m 1456.6066,559.3 v 1256.2 h 480.3 c 153,0 276.9,-124 276.9,-276.9 V 836.3 c 0,-153 -124,-276.9 -276.9,-276.9 h -480.3 z m 440.2,939.2 h -123.2 V 876.3 h 123.2 z" id="path22"/>
    <path style="baseline-shift:baseline;display:inline;overflow:visible;fill:#ff001f;stroke:#ffffff;stroke-width:100;stroke-linecap:round;stroke-linejoin:round;stroke-dasharray:none;stroke-opacity:1;paint-order:markers stroke fill;enable-background:accumulate;stop-color:#000000" d="m 3718.1066,559.3 -102.2,872.6 -102.3,-872.6 h -321.8 l 221.5,1256.2 h 405.2 l 221.4,-1256.2 z" id="path26"/>
    <path style="baseline-shift:baseline;display:inline;overflow:visible;fill:#ff001f;stroke:#ffffff;stroke-width:100;stroke-linecap:round;stroke-linejoin:round;stroke-dasharray:none;stroke-opacity:1;paint-order:markers stroke fill;enable-background:accumulate;stop-color:#000000" d="m 582.20659,767.5 v 839.9 c 0,114.9 93.2,208.1 208.1,208.1 h 341.00001 c 114.9,0 208.1,-93.2 208.1,-208.1 v -261.5 h -316.9 v 152.7 H 899.30659 V 876.3 H 1022.5066 V 1029 h 317 V 767.5 c 0,-114.9 -93.2,-208.1 -208.1,-208.1 H 790.40659 c -115,-0.1 -208.2,93.2 -208.2,208.1 z" id="path24"/>
    <g id="g15" style="stroke:#ffffff;stroke-width:50;stroke-linecap:round;stroke-linejoin:round;stroke-dasharray:none;stroke-opacity:1;paint-order:markers stroke fill" transform="translate(225.90133,25)">
        <g id="g13" style="stroke:#ffffff;stroke-width:50;stroke-linecap:round;stroke-linejoin:round;stroke-dasharray:none;stroke-opacity:1;paint-order:markers stroke fill">
            <g id="path5" class="st0" style="opacity:1">
                <path style="baseline-shift:baseline;display:inline;overflow:visible;vector-effect:none;fill:#ffffff;stroke:none;enable-background:accumulate;stop-color:#000000;stop-opacity:1" d="m 1887.4004,53.300781 c -10.2717,0 -25.633,-0.368679 -41.7168,1.429688 -16.0712,1.796961 -33.7419,4.935703 -49.1699,17.9375 -26.7326,22.421596 -24.6133,55.504461 -24.6133,74.232421 0,9.30458 -0.4397,22.20154 2.2891,36.34766 2.7287,14.14612 9.6316,31.18138 25.4199,42.29492 a 25.0025,25.0025 0 0 0 0.018,0.0117 c 29.4759,20.7128 64.1389,16.94531 85.1738,16.94531 12.4166,0 24.6456,-0.31158 37.0469,-0.93164 17.7498,-0.88749 42.7311,-3.17643 61.7851,-22.96484 17.9255,-18.34084 18.8385,-41.67401 19.4473,-56.69141 a 25.0025,25.0025 0 0 0 -3.5996,-13.54688 25.0025,25.0025 0 0 0 3.916,-13.4375 c -0.2036,-10.78976 -0.3842,-24.4948 -6.7188,-39.275386 a 25.0025,25.0025 0 0 0 -0.1,-0.234375 c -3.9177,-8.890118 -10.4687,-17.176952 -17.3144,-22.857422 a 25.0025,25.0025 0 0 0 -0.1856,-0.154297 c -15.645,-12.728152 -33.3567,-15.786764 -49.6035,-17.601563 -16.2468,-1.814798 -31.7763,-1.503906 -42.0742,-1.503906 z m 54.1777,55.203129 c 1.9546,0.69935 3.4381,1.32481 4.4883,1.89648 h -2.957 c -0.5106,-0.63352 -0.9957,-1.29081 -1.5313,-1.89648 z m -111.3808,1.57617 c -5.3165,7.44213 -6.5223,14.96657 -7.4571,20.91015 -0.3656,2.32496 -0.4355,4.25668 -0.6054,6.3418 0.5134,-13.64976 2.2428,-22.78511 6.5175,-26.36523 a 25.0025,25.0025 0 0 0 0.072,-0.0606 c 0.2574,-0.21722 0.9544,-0.54262 1.4727,-0.82617 z M 1887.1992,140.5 c 7.6637,0 14.4825,0.46277 17.3301,1.08789 a 25.0025,25.0025 0 0 0 2.2637,6.17383 25.0025,25.0025 0 0 0 -2.5996,6.47656 c -0.5523,0.11541 -0.5873,0.18311 -1.3887,0.29297 a 25.0025,25.0025 0 0 0 -0.1953,0.0273 c -4.0065,0.58158 -8.4094,0.64063 -14.6094,0.64063 -3.8882,0 -9.9817,-0.19112 -14.7266,-0.87891 -0.4678,-0.0678 -0.8085,-0.21659 -1.2363,-0.32226 -0.2304,-1.1478 -0.4375,-2.59746 -0.4375,-4.29883 0,-2.97114 0.1911,-5.77694 0.4082,-8.33399 0.2647,-0.0484 0.4662,-0.13542 0.7422,-0.16992 4.5898,-0.57372 10.3866,-0.69531 14.4492,-0.69531 z m -17.3515,14.11328 c 0.031,0.0286 0.028,0.0247 0.059,0.0527 0.091,0.0869 0.082,0.0801 0.1796,0.17382 a 25.0025,25.0025 0 0 0 -0.2382,-0.22656 z m -46.9688,14.97852 c 1.2607,5.22761 3.6373,10.81261 8.0879,16.35937 -0.9427,-0.42168 -1.9231,-0.83739 -2.584,-1.30078 -2.108,-1.48691 -3.753,-3.90259 -5.0976,-10.87305 -0.229,-1.18675 -0.2467,-2.84361 -0.4063,-4.18554 z m 120.877,16.30859 h 1.0214 c -0.5642,0.34049 -1.0215,0.6997 -1.6855,1.01563 0.2434,-0.32312 0.4296,-0.68543 0.6641,-1.01563 z m -108.2422,5.06055 c 0.052,0.05 0.1021,0.0833 0.1543,0.13281 0.033,0.0309 0.053,0.0628 0.086,0.0937 z m 74.2773,13.08008 -0.1953,0.0273 c 0.044,-0.006 0.093,-0.0155 0.1367,-0.0215 0.021,-0.003 0.038,-0.003 0.059,-0.006 z" id="path27"/>
                <path style="baseline-shift:baseline;display:inline;overflow:visible;vector-effect:none;fill:#001e68;stroke:none;enable-background:accumulate;stop-color:#000000;stop-opacity:1" d="m 1928.1,135.4 c -2.2,-20.4 -24.9,-19.9 -40.9,-19.9 -8.7,0 -26.8,0.3 -33.9,6.2 -6.7,5.6 -6.7,20.2 -6.7,28 0,7.5 0.3,17.7 6.2,23.2 7,6.7 26.3,7.3 35.2,7.3 6.2,0 12,0 18.2,-0.9 12.4,-1.7 19.6,-5.3 21.5,-18.4 h 50.4 c -0.6,14.8 -1.4,29.1 -12.4,40.3 -11.5,12 -29.1,14.6 -45.1,15.4 -12,0.6 -23.8,0.9 -35.8,0.9 -21.5,0 -52.3,0.6 -70.8,-12.4 -17.9,-12.6 -17.1,-38.9 -17.1,-58.2 0,-19 -0.3,-41.7 15.7,-55.1 17.3,-14.6 53.4,-13.5 74.8,-13.5 21.3,0 58.2,-0.9 75.9,13.5 4.7,3.9 7.8,7.8 10.4,13.7 4.2,9.8 4.5,19.3 4.7,29.9 z" id="path28"/>
            </g>
            <g id="path6" class="st0" style="opacity:1">
                <path style="baseline-shift:baseline;display:inline;overflow:visible;vector-effect:none;fill:#ffffff;stroke:none;enable-background:accumulate;stop-color:#000000;stop-opacity:1" d="m 2094.9004,53.300781 c -9.5212,0 -25.3836,-0.290468 -41.8399,1.273438 -16.4321,1.561614 -33.7905,3.424245 -50.0136,15.847656 -16.3161,12.390225 -24.2596,31.394045 -25.8906,48.845705 -1.0981,9.18723 -1.0567,17.5488 -1.0567,24.73242 0,13.5726 -2.1854,33.66699 6.5586,55.05859 a 25.0025,25.0025 0 0 0 0.1231,0.29493 c 3.5075,8.27788 9.5347,17.35393 17.6367,24.05859 16.1034,13.51258 34.5669,16.29925 51.3203,17.88867 16.8006,1.59391 32.8735,1 43.0625,1 9.8254,0 26.1117,0.5116 43.0508,-1.11523 16.9103,-1.62408 35.3886,-4.0112 51.625,-18.01758 16.3099,-13.93369 21.8708,-33.87592 23.2324,-49.84375 a 25.0025,25.0025 0 0 0 0.023,-0.27735 c 0.6487,-8.75758 0.9755,-17.82538 0.8653,-26.75585 v 0.30859 c 0,-13.18931 2.5438,-34.19729 -9.4961,-55.710938 -4.1187,-7.670505 -10.3509,-15.112269 -17.3008,-20.435547 a 25.0025,25.0025 0 0 0 -0.1464,-0.111328 c -16.1427,-12.177777 -33.4841,-14.199462 -49.8653,-15.765625 -16.3812,-1.566163 -32.1619,-1.275391 -41.8906,-1.275391 z m -31.1856,39.642578 c -0.017,0.0033 -0.034,0.01039 -0.051,0.01367 -0.038,0.0074 -0.074,0.01013 -0.1114,0.01758 z m 86.4961,11.724611 0.092,0.0879 c -0.019,-0.0184 -0.037,-0.0305 -0.057,-0.0488 -0.014,-0.0129 -0.022,-0.0262 -0.035,-0.0391 z M 2036.7344,109 c -2.9817,3.40672 -5.4152,7.05693 -6.8946,10.76758 -2.167,5.43548 -3.1286,10.31201 -3.6347,14.8164 0.091,-3.51318 0.2571,-6.78341 0.6074,-9.625 a 25.0025,25.0025 0 0 0 0.092,-0.88476 c 0.6636,-7.60141 2.2907,-10.74043 6.3887,-13.84375 a 25.0025,25.0025 0 0 0 0.1328,-0.10156 c 0.1209,-0.0929 2.2854,-0.75343 3.3086,-1.12891 z m 117.8847,0.58008 c 0.3945,0.17237 1.781,0.57954 1.9004,0.66797 2.1518,1.64557 2.1327,1.59776 3.5762,4.33008 a 25.0025,25.0025 0 0 0 0.3457,0.63476 c 1.1637,2.05639 1.9404,6.00496 2.4356,11.27734 -1.2508,-5.38151 -3.6851,-11.18709 -8.2579,-16.91015 z M 2095.1992,140.5 c 4.3283,0 11.0297,0.12664 16.4238,0.82031 0.816,0.10494 1.4746,0.33967 2.1875,0.53906 0.1821,1.08555 0.3509,2.41241 0.3809,4.05469 -0.01,3.28047 -0.1362,6.04348 -0.2715,8.0625 -4.7852,0.7584 -10.9638,1.12305 -18.6191,1.12305 -5.05,0 -12.0153,-0.079 -17.457,-0.79688 -0.6826,-0.09 -1.169,-0.28602 -1.7579,-0.43945 -0.1972,-1.21939 -0.3867,-2.65428 -0.3867,-4.46289 0,-3.28294 0.1976,-5.76602 0.3692,-7.71094 5.4391,-0.80486 11.9662,-1.18945 19.1308,-1.18945 z m -21.5605,13.98437 c 0.1389,0.14148 0.1401,0.14274 0.2676,0.27344 0.1165,0.12532 0.1099,0.11925 0.2382,0.25781 a 25.0025,25.0025 0 0 0 -0.5058,-0.53125 z m 89.3476,11.30079 c -0.07,1.15038 -0.029,2.29585 -0.1133,3.43554 -0.836,9.67219 -2.0705,12.70089 -5.8808,15.94532 a 25.0025,25.0025 0 0 0 -0.1524,0.13085 c -0.2789,0.24147 -1.8628,0.90409 -3.9394,1.66602 3.8759,-4.50812 6.8196,-9.42994 8.3184,-14.07812 0.8067,-2.50217 1.3273,-4.8332 1.7675,-7.09961 z m -135.7461,6.20898 c 1.4564,4.69237 4.123,9.6819 8.3477,14.68359 -1.4973,-0.62636 -2.5991,-1.19004 -3.0684,-1.58593 a 25.0025,25.0025 0 0 0 -0.2265,-0.18946 c -1.9795,-1.63017 -2.0399,-1.69944 -3.3711,-4.83789 -0.7587,-1.88281 -1.2709,-4.7739 -1.6817,-8.07031 z m 10.2149,16.99023 c 0.1035,0.11179 0.207,0.18692 0.3105,0.29688 0.076,0.0779 0.1188,0.15647 0.1953,0.23437 z" id="path29"/>
                <path style="baseline-shift:baseline;display:inline;overflow:visible;vector-effect:none;fill:#001e68;stroke:none;enable-background:accumulate;stop-color:#000000;stop-opacity:1" d="m 2187.8,171.2 c -1.1,12.9 -4.5,24.4 -14.6,33 -17.1,14.8 -57.4,13.1 -78.4,13.1 -21.9,0 -60.5,2 -78.4,-13.1 -5.1,-4.2 -8.1,-8.7 -10.6,-14.6 -5.6,-13.7 -4.7,-31 -4.7,-45.6 0,-7.3 0,-14.8 0.9,-22.1 1.1,-12.6 5.9,-23.8 16.2,-31.6 16.8,-12.9 56.9,-12 76.7,-12 20.2,0 59.6,-0.9 76.7,12 4.7,3.6 7.8,7.3 10.6,12.6 7.3,12.9 6.4,29.4 6.4,43.7 0.1,8.1 -0.2,16.5 -0.8,24.6 z M 2133,122.8 c -7.3,-7 -28.6,-7.3 -37.8,-7.3 -8.9,0 -18.2,0.3 -26.8,2 -17.3,3.3 -17.7,16.8 -17.7,31.9 0,7.3 -0.3,17.1 5.1,22.6 7.5,8.1 29.4,8.1 39.5,8.1 9.5,0 19.6,0 28.8,-2.5 15.4,-4.2 15.1,-18.2 15.1,-31.9 -0.1,-7.5 -0.3,-17.3 -6.2,-22.9 z" id="path30"/>
            </g>
            <g id="path7" class="st0" style="opacity:1">
                <path style="baseline-shift:baseline;display:inline;overflow:visible;vector-effect:none;fill:#ffffff;stroke:none;enable-background:accumulate;stop-color:#000000;stop-opacity:1" d="m 2318.0996,53.300781 c -11.1225,0 -24.5967,0.528943 -38.7441,5.220703 -1.4785,0.490315 -2.98,1.081994 -4.4825,1.701172 a 25.0025,25.0025 0 0 0 -12.7734,-3.623047 h -46.6992 a 25.0025,25.0025 0 0 0 -25,25 V 213.90039 a 25.0025,25.0025 0 0 0 25,25 H 2265 a 25.0025,25.0025 0 0 0 25,-25 v -54.5 c 0,-9.73832 0.9799,-15.47189 1.3086,-17.99023 2.0603,-0.42156 5.4517,-0.91016 11.1914,-0.91016 3.5629,0 5.976,0.26539 7.8555,0.52148 0.01,0.80129 -0.055,0.33336 -0.055,1.87891 V 152.19922 214 a 25.0025,25.0025 0 0 0 25,25 h 49.5996 a 25.0025,25.0025 0 0 0 25,-25 v -54.5 c 0,-9.76044 1.036,-15.58021 1.3769,-18.00586 1.8305,-0.40264 4.9254,-0.89453 10.3223,-0.89453 3.2294,0 5.8496,0.14736 7.8262,0.33008 0.3325,2.35111 0.7734,5.82921 0.7734,11.37109 v 61.79883 a 25.0025,25.0025 0 0 0 25,25 h 49.4004 a 25.0025,25.0025 0 0 0 25,-25 v -61.79883 c 0,-12.81071 0.747,-29.07634 -4.6601,-46.99219 -3.3872,-11.314682 -9.8446,-20.221017 -15.9551,-26.851559 A 25.0025,25.0025 0 0 0 2508.82,78.28125 c -21.946,-23.356832 -51.9213,-24.980469 -73.1211,-24.980469 -12.9854,0 -27.6061,0.500915 -42.7324,6.259766 -5.361,2.041025 -10.7117,5.025425 -15.7402,8.785156 -4.9238,-3.461765 -10.1106,-6.276317 -15.3789,-8.318359 -14.9279,-5.786148 -29.7592,-6.726563 -43.7481,-6.726563 z m -77.6992,60.517579 a 25.0025,25.0025 0 0 0 5.1973,5.33008 c -3.4681,7.245 -4.7105,14.39729 -5.1973,21.56836 z m 113.5566,0.37305 c 0.7978,1.11499 1.5932,2.31758 2.4278,3.83789 a 25.0025,25.0025 0 0 0 6.9414,6.96875 c -1.9842,5.78252 -2.704,11.51937 -3.0508,17.25781 -0.078,-9.39005 -1.8875,-19.43843 -6.3184,-28.06445 z m 119.9649,0.25781 c 1.6753,2.07273 2.6607,3.65251 3.123,5.20117 a 25.0025,25.0025 0 0 0 0.025,0.084 c 0.3973,1.31403 0.6509,2.84994 0.9336,4.34179 -0.9123,-3.21206 -2.2871,-6.42007 -4.082,-9.62695 z" id="path31"/>
                <path style="baseline-shift:baseline;display:inline;overflow:visible;vector-effect:none;fill:#001e68;stroke:none;enable-background:accumulate;stop-color:#000000;stop-opacity:1" d="m 2455.2,214.1 v -61.8 c 0,-28.6 -3.1,-36.7 -33.6,-36.7 -34.1,0 -36.7,13.5 -36.7,43.9 V 214 h -49.6 v -61.8 -9.3 c 0,-24.1 -10.4,-27.4 -32.8,-27.4 -35.2,0 -37.5,12.6 -37.5,43.9 v 54.5 h -49.6 V 81.6 h 46.7 v 19.9 h 2.2 c 9.3,-20.4 33.9,-23.2 53.8,-23.2 25.2,0 47.3,4.2 60.2,27.7 10.1,-24.6 33.6,-27.7 57.4,-27.7 19.3,0 40.9,2.2 54.9,17.1 4.7,5.1 8.4,10.4 10.4,17.1 3.9,12.9 3.6,26.6 3.6,39.8 v 61.8 z" id="path32"/>
            </g>
            <g id="path8" class="st0" style="opacity:1">
                <path style="baseline-shift:baseline;display:inline;overflow:visible;vector-effect:none;fill:#ffffff;stroke:none;enable-background:accumulate;stop-color:#000000;stop-opacity:1" d="m 2635.9004,53.300781 c -11.1225,0 -24.5967,0.528943 -38.7441,5.220703 -1.4785,0.490315 -2.9801,1.081994 -4.4825,1.701172 a 25.0025,25.0025 0 0 0 -12.7734,-3.623047 h -46.7012 a 25.0025,25.0025 0 0 0 -25,25 V 213.90039 a 25.0025,25.0025 0 0 0 25,25 h 49.6016 a 25.0025,25.0025 0 0 0 25,-25 v -54.5 c 0,-9.73844 0.9799,-15.47195 1.3086,-17.99023 2.0604,-0.42153 5.4524,-0.91016 11.1914,-0.91016 3.5629,0 5.974,0.26539 7.8535,0.52148 0.01,0.80129 -0.055,0.33336 -0.055,1.87891 V 152.19922 214 a 25.0025,25.0025 0 0 0 25,25 h 49.5 a 25.0025,25.0025 0 0 0 25,-25 v -54.5 c 0,-9.76044 1.036,-15.58021 1.377,-18.00586 1.8302,-0.40267 4.9265,-0.89453 10.3242,-0.89453 3.2286,0 5.8478,0.14742 7.8242,0.33008 0.3325,2.35111 0.7754,5.82921 0.7754,11.37109 v 61.79883 a 25.0025,25.0025 0 0 0 25,25 h 49.5 a 25.0025,25.0025 0 0 0 25,-25 v -61.79883 c 0,-12.81071 0.747,-29.07634 -4.6602,-46.99219 -3.3872,-11.314682 -9.8465,-20.221017 -15.957,-26.851559 a 25.0025,25.0025 0 0 0 -0.1641,-0.175781 c -21.946,-23.356832 -51.9193,-24.980469 -73.1191,-24.980469 -12.9854,0 -27.6061,0.500915 -42.7324,6.259766 -5.361,2.041025 -10.7117,5.025425 -15.7403,8.785156 -4.9238,-3.461842 -10.1104,-6.276284 -15.3789,-8.318359 -14.9279,-5.786148 -29.7591,-6.726563 -43.748,-6.726563 z m -77.7012,60.509769 a 25.0025,25.0025 0 0 0 5.1992,5.33789 c -3.4709,7.25098 -4.7133,14.4089 -5.1992,21.58593 z m 233.2442,0.29297 c 1.8886,2.27376 2.9128,3.91374 3.4004,5.54687 a 25.0025,25.0025 0 0 0 0.025,0.084 c 0.6446,2.13206 1.1041,4.54649 1.4629,7.14062 -0.9425,-4.26369 -2.4592,-8.51886 -4.8886,-12.77148 z m -119.6914,0.0781 c 0.7997,1.1169 1.5969,2.32354 2.4335,3.84766 a 25.0025,25.0025 0 0 0 6.8633,6.89062 c -1.8991,5.50674 -2.6285,10.97176 -3.0097,16.43555 -0.1817,-9.13597 -1.9931,-18.81881 -6.2871,-27.17383 z" id="path33"/>
                <path style="baseline-shift:baseline;display:inline;overflow:visible;vector-effect:none;fill:#001e68;stroke:none;enable-background:accumulate;stop-color:#000000;stop-opacity:1" d="m 2772.9,214.1 v -61.8 c 0,-28.6 -3.1,-36.7 -33.6,-36.7 -34.1,0 -36.7,13.5 -36.7,43.9 V 214 h -49.5 v -61.8 -9.3 c 0,-24.1 -10.4,-27.4 -32.8,-27.4 -35.2,0 -37.5,12.6 -37.5,43.9 v 54.5 h -49.6 V 81.6 h 46.7 v 19.9 h 2.2 c 9.3,-20.4 33.9,-23.2 53.8,-23.2 25.2,0 47.3,4.2 60.2,27.7 10.1,-24.6 33.6,-27.7 57.4,-27.7 19.3,0 40.9,2.2 54.9,17.1 4.7,5.1 8.4,10.4 10.4,17.1 3.9,12.9 3.6,26.6 3.6,39.8 v 61.8 z" id="path34"/>
            </g>
            <g id="path9" class="st0" style="opacity:1">
                <path style="baseline-shift:baseline;display:inline;overflow:visible;vector-effect:none;fill:#ffffff;stroke:none;enable-background:accumulate;stop-color:#000000;stop-opacity:1" d="m 2942,53.300781 c -9.5212,0 -25.3836,-0.290468 -41.8398,1.273438 -16.4322,1.561614 -33.7906,3.424245 -50.0137,15.847656 -16.3161,12.390225 -24.2596,31.394045 -25.8906,48.845705 -1.0981,9.18723 -1.0567,17.5488 -1.0567,24.73242 0,13.5726 -2.1854,33.66699 6.5586,55.05859 a 25.0025,25.0025 0 0 0 0.1231,0.29493 c 3.5065,8.27532 9.5307,17.34868 17.6289,24.05273 16.1055,13.51902 34.5716,16.30482 51.3281,17.89453 16.8006,1.59391 32.8735,1 43.0625,1 9.8254,0 26.1137,0.5116 43.0527,-1.11523 16.9103,-1.62408 35.3867,-4.0112 51.6231,-18.01758 16.3099,-13.93369 21.8727,-33.87592 23.2343,-49.84375 a 25.0025,25.0025 0 0 0 0.021,-0.27735 c 0.6487,-8.75758 0.9755,-17.82538 0.8653,-26.75585 v 0.30859 c 0,-13.18608 2.5434,-34.18718 -9.4863,-55.695313 -4.1186,-7.676146 -10.3559,-15.124203 -17.3106,-20.451172 a 25.0025,25.0025 0 0 0 -0.1464,-0.111328 C 3017.6132,58.16402 3000.2738,56.142335 2983.8926,54.576172 2967.5114,53.010009 2951.7287,53.300781 2942,53.300781 Z m -31.2852,39.642578 c -0.017,0.0033 -0.034,0.01039 -0.051,0.01367 -0.038,0.0074 -0.074,0.01013 -0.1114,0.01758 z m 86.3438,11.580081 0.2441,0.23242 c -0.051,-0.0488 -0.1,-0.0805 -0.1504,-0.12891 -0.036,-0.0339 -0.057,-0.0697 -0.094,-0.10351 z m -113.3672,4.52539 c -2.9614,3.39304 -5.3793,7.02585 -6.8516,10.71875 -2.0583,5.16302 -2.9928,9.79625 -3.5273,14.11719 0.096,-3.25811 0.2712,-6.26202 0.5996,-8.92579 a 25.0025,25.0025 0 0 0 0.094,-0.88476 c 0.6636,-7.60141 2.2887,-10.74043 6.3867,-13.84375 a 25.0025,25.0025 0 0 0 0.1328,-0.10156 c 0.1157,-0.0889 2.2206,-0.72975 3.166,-1.08008 z m 117.9453,0.50195 c 0.4232,0.18311 1.8578,0.60501 1.9824,0.69727 2.1519,1.64557 2.1327,1.59776 3.5762,4.33008 a 25.0025,25.0025 0 0 0 0.3477,0.63476 c 1.191,2.10469 1.9757,6.17935 2.4687,11.64063 -1.2375,-5.52155 -3.6958,-11.48013 -8.375,-17.30274 z M 2942.1992,140.5 c 4.3283,0 11.0297,0.12664 16.4238,0.82031 0.8445,0.1086 1.5305,0.35029 2.2637,0.5586 0.159,1.03625 0.3125,2.2456 0.3125,3.82031 0,3.3945 -0.1404,6.20452 -0.2793,8.27734 -4.7852,0.7584 -10.9638,1.12305 -18.6191,1.12305 -5.05,0 -12.0153,-0.079 -17.457,-0.79688 -0.6826,-0.09 -1.169,-0.28602 -1.7579,-0.43945 -0.1972,-1.21939 -0.3867,-2.65428 -0.3867,-4.46289 0,-3.28294 0.1976,-5.76602 0.3692,-7.71094 5.4391,-0.80486 11.9662,-1.18945 19.1308,-1.18945 z m 20.4981,0.34375 a 25.0025,25.0025 0 0 0 0.2441,0.23242 c -0.094,-0.0875 -0.094,-0.0877 -0.1816,-0.16992 -0.034,-0.033 -0.027,-0.0287 -0.062,-0.0625 z m -42.0586,13.64062 c 0.1389,0.14148 0.1401,0.14274 0.2676,0.27344 0.1165,0.12532 0.1099,0.11925 0.2382,0.25781 a 25.0025,25.0025 0 0 0 -0.5058,-0.53125 z m 89.4609,10.83985 c -0.078,1.30587 -0.032,2.6039 -0.1269,3.89648 -0.8361,9.67218 -2.0706,12.70089 -5.8809,15.94532 a 25.0025,25.0025 0 0 0 -0.1523,0.13085 c -0.285,0.24667 -1.9307,0.9322 -4.086,1.7168 3.8984,-4.52206 6.8607,-9.46283 8.3653,-14.1289 0.8591,-2.6645 1.4335,-5.16324 1.8808,-7.56055 z m -135.7226,7.02539 c 1.4664,4.575 4.0754,9.41652 8.1699,14.27734 -1.4364,-0.60702 -2.4703,-1.14928 -2.9278,-1.53515 a 25.0025,25.0025 0 0 0 -0.2265,-0.18946 c -1.9795,-1.63017 -2.0399,-1.69944 -3.3711,-4.83789 -0.7331,-1.81925 -1.2379,-4.56887 -1.6445,-7.71484 z m 10.0781,16.63476 c 0.1035,0.11179 0.207,0.18692 0.3105,0.29688 0.076,0.0779 0.1188,0.15647 0.1953,0.23437 z" id="path35"/>
                <path style="baseline-shift:baseline;display:inline;overflow:visible;vector-effect:none;fill:#001e68;stroke:none;enable-background:accumulate;stop-color:#000000;stop-opacity:1" d="m 3034.9,171.2 c -1.1,12.9 -4.5,24.4 -14.6,33 -17.1,14.8 -57.4,13.1 -78.4,13.1 -21.9,0 -60.5,2 -78.4,-13.1 -5.1,-4.2 -8.1,-8.7 -10.6,-14.6 -5.6,-13.7 -4.7,-31 -4.7,-45.6 0,-7.3 0,-14.8 0.9,-22.1 1.1,-12.6 5.9,-23.8 16.2,-31.6 16.8,-12.9 56.9,-12 76.7,-12 20.2,0 59.6,-0.9 76.7,12 4.7,3.6 7.8,7.3 10.6,12.6 7.3,12.9 6.4,29.4 6.4,43.7 0.1,8.1 -0.2,16.5 -0.8,24.6 z M 2980,122.8 c -7.3,-7 -28.6,-7.3 -37.8,-7.3 -8.9,0 -18.2,0.3 -26.8,2 -17.3,3.3 -17.7,16.8 -17.7,31.9 0,7.3 -0.3,17.1 5.1,22.6 7.5,8.1 29.4,8.1 39.5,8.1 9.5,0 19.6,0 28.8,-2.5 15.4,-4.2 15.1,-18.2 15.1,-31.9 0,-7.5 -0.2,-17.3 -6.2,-22.9 z" id="path36"/>
            </g>
            <g id="path10" class="st0" style="opacity:1">
                <path style="baseline-shift:baseline;display:inline;overflow:visible;vector-effect:none;fill:#ffffff;stroke:none;enable-background:accumulate;stop-color:#000000;stop-opacity:1" d="m 3196.9004,2.4003906 a 25.0025,25.0025 0 0 0 -25,25.0000004 V 55.427734 C 3159.4598,52.905717 3147.9808,53.5 3139.0996,53.5 c -18.2637,0 -47.0281,-3.426566 -73.4668,14.199219 a 25.0025,25.0025 0 0 0 -0.1015,0.06641 c -15.6789,10.562602 -23.813,26.927301 -27.2598,41.226561 -3.4469,14.29926 -3.3711,27.56664 -3.3711,38.20703 0,17.62963 -4.3259,51.20344 22.6465,75.03515 a 25.0025,25.0025 0 0 0 0.066,0.0586 c 26.9852,23.67417 60.7318,20.20703 80.8867,20.20703 12.3987,0 30.5926,1.25531 49.4336,-6.5 a 25.0025,25.0025 0 0 0 11.5664,3.09961 h 47 a 25.0025,25.0025 0 0 0 25,-25 V 27.400391 a 25.0025,25.0025 0 0 0 -25,-25.0000004 z m -2.1445,61.6093754 0.4336,0.25 c -0.096,-0.05645 -0.1913,-0.09062 -0.2872,-0.146485 -0.053,-0.02996 -0.094,-0.07378 -0.1464,-0.103515 z M 3221.5,100.99414 v 31.77539 c -0.6243,-4.49169 -1.7078,-9.35906 -3.9805,-14.72265 a 25.0025,25.0025 0 0 0 -0.1113,-0.25782 c -0.4747,-1.08623 -1.0848,-2.01256 -1.6309,-3.01562 a 25.0025,25.0025 0 0 0 5.7227,-13.7793 z m -126.5195,7.48633 c -2.2491,2.71762 -4.3201,5.73992 -5.9395,9.39648 a 25.0025,25.0025 0 0 0 -0.4101,0.98243 c -1.6394,4.17291 -2.5097,7.93929 -3.1289,11.50976 0.3033,-3.58571 0.7171,-6.92309 1.3769,-9.66016 1.5944,-6.61422 3.2562,-9.20651 6.541,-11.43554 0.4411,-0.29124 1.0387,-0.52914 1.5606,-0.79297 z m 60.3203,31.91992 c 6.4218,0 12.7067,0.0525 16.5371,0.65039 0.193,1.74077 0.4012,3.81904 0.3652,6.04688 a 25.0025,25.0025 0 0 0 0,0.40234 c 0,3.70058 -0.1204,4.25969 -0.2461,6.03516 -5.3612,0.94556 -12.6557,1.66406 -19.7539,1.66406 -4.45,0 -11.0916,-0.0687 -16.3437,-0.7207 -0.1887,-0.0234 -0.3061,-0.0993 -0.4883,-0.13086 -0.4526,-2.01573 -0.9668,-4.50672 -0.9668,-7.54688 0,-2.0304 0.1981,-3.88582 0.375,-5.57422 0.3588,-0.0755 0.086,-0.0242 0.582,-0.10547 5.02,-0.82318 12.8449,-0.7207 19.9434,-0.7207 z m -22.1895,15.26563 c 0.049,0.0516 0.042,0.0304 0.09,0.0801 0.19,0.20486 0,0.017 0.2168,0.25 a 25.0025,25.0025 0 0 0 -0.3067,-0.33007 z m 88.3887,8.17773 v 21.76172 a 25.0025,25.0025 0 0 0 -5.1309,-6.08594 c 1.4114,-2.47301 2.5604,-4.95053 3.2735,-7.30859 0.9081,-3.00311 1.4635,-5.75947 1.8574,-8.36719 z m -133.3477,13.79102 c 1.4411,2.96725 3.4815,6.01206 5.9688,9.08789 -1.4343,-0.6207 -2.6601,-1.27364 -3.4805,-1.98243 -0.7519,-0.67908 -1.6279,-3.50707 -2.4883,-7.10546 z m 8.4297,12.16992 c 0.061,0.066 0.1192,0.10845 0.1797,0.17383 0.05,0.0524 0.077,0.10385 0.127,0.15625 z m 95.0469,10.63476 -0.1016,0.0312 c 0.013,-0.004 0.026,-0.0114 0.039,-0.0156 0.021,-0.007 0.041,-0.009 0.062,-0.0156 z m 6.8867,30.30469 -0.3242,0.19336 c 0.042,-0.0248 0.075,-0.059 0.1172,-0.084 0.069,-0.0418 0.138,-0.0673 0.207,-0.10938 z" id="path37"/>
                <path style="baseline-shift:baseline;display:inline;overflow:visible;vector-effect:none;fill:#001e68;stroke:none;enable-background:accumulate;stop-color:#000000;stop-opacity:1" d="m 3199.5,214.1 v -17.3 h -2.5 c -3.3,5.6 -5.9,9.3 -11.5,12.6 -12.3,7.5 -33,8.1 -47,8.1 -20.4,0 -48.1,0.3 -64.4,-14 -14.6,-12.9 -14.2,-38.3 -14.2,-56.3 0,-20.8 0.6,-45.9 19.6,-58.7 16.8,-11.2 40.3,-10 59.6,-10 14.6,0 30.5,-0.3 43.4,7.3 6.4,3.6 8.7,7.3 12.4,13.7 h 2 V 27.4 h 49.6 v 186.7 z m -5,-86.3 c -5.9,-13.5 -27.2,-12.4 -39.2,-12.4 -12.3,0 -37.2,-1.4 -43.4,12.6 -2.2,5.6 -2.5,12.9 -2.5,18.8 0,7.8 -0.3,19.9 5.6,26.1 6.7,7.3 28.3,7.3 37.2,7.3 10.1,0 22.4,-0.6 31.9,-3.6 13.5,-4.2 13.1,-17.1 13.1,-29.1 0.1,-6.2 -0.2,-13.8 -2.7,-19.7 z" id="path38"/>
            </g>
            <g id="path11" class="st0" style="opacity:1">
                <path style="baseline-shift:baseline;display:inline;overflow:visible;vector-effect:none;fill:#ffffff;stroke:none;enable-background:accumulate;stop-color:#000000;stop-opacity:1" d="m 3367,53.300781 c -9.5212,0 -25.3836,-0.290468 -41.8398,1.273438 -16.4322,1.561614 -33.7906,3.424245 -50.0137,15.847656 -16.3161,12.390225 -24.2596,31.394045 -25.8906,48.845705 -1.0981,9.18723 -1.0567,17.5488 -1.0567,24.73242 0,13.5726 -2.1854,33.66699 6.5586,55.05859 a 25.0025,25.0025 0 0 0 0.1231,0.29493 c 3.5065,8.27532 9.5307,17.34868 17.6289,24.05273 16.1055,13.51902 34.5716,16.30482 51.3281,17.89453 16.8006,1.59391 32.8735,1 43.0625,1 9.8254,0 26.1137,0.5116 43.0527,-1.11523 16.9103,-1.62408 35.3867,-4.0112 51.6231,-18.01758 16.3099,-13.93369 21.8727,-33.87592 23.2343,-49.84375 a 25.0025,25.0025 0 0 0 0.041,-0.58399 c 0.5276,-8.54706 0.8476,-17.42334 0.8476,-26.14062 0,-13.18608 2.5434,-34.18718 -9.4863,-55.695313 -4.1186,-7.676146 -10.3559,-15.124203 -17.3106,-20.451172 a 25.0025,25.0025 0 0 0 -0.1464,-0.111328 C 3442.6132,58.16402 3425.2738,56.142335 3408.8926,54.576172 3392.5114,53.010009 3376.7287,53.300781 3367,53.300781 Z m -31.2852,39.642578 c -0.017,0.0033 -0.034,0.01039 -0.051,0.01367 -0.038,0.0074 -0.074,0.01013 -0.1114,0.01758 z m -27.0234,16.105471 c -2.9614,3.39304 -5.3793,7.02585 -6.8516,10.71875 -2.0583,5.16302 -2.9928,9.79625 -3.5273,14.11719 0.096,-3.25811 0.2712,-6.26202 0.5996,-8.92579 a 25.0025,25.0025 0 0 0 0.094,-0.88476 c 0.6636,-7.60141 2.2887,-10.74043 6.3867,-13.84375 a 25.0025,25.0025 0 0 0 0.1328,-0.10156 c 0.1157,-0.0889 2.2206,-0.72975 3.166,-1.08008 z m 117.8379,0.46484 c 0.4621,0.19747 1.9585,0.63714 2.0898,0.73438 2.1519,1.64557 2.1327,1.59776 3.5762,4.33008 a 25.0025,25.0025 0 0 0 0.3477,0.63476 c 1.2038,2.12728 1.9847,6.30501 2.4765,11.85547 -1.2339,-5.57935 -3.7412,-11.61094 -8.4902,-17.55469 z M 3367.1992,140.5 c 4.3283,0 11.0297,0.12664 16.4238,0.82031 0.8313,0.1069 1.5047,0.34466 2.2286,0.54883 0.1806,1.05266 0.3476,2.2998 0.3476,3.83008 0,3.3945 -0.1404,6.20452 -0.2793,8.27734 -4.7852,0.7584 -10.9638,1.12305 -18.6191,1.12305 -5.05,0 -12.0153,-0.079 -17.457,-0.79688 -0.6826,-0.09 -1.169,-0.28602 -1.7579,-0.43945 -0.1972,-1.21939 -0.3867,-2.65428 -0.3867,-4.46289 0,-3.28294 0.1976,-5.76602 0.3692,-7.71094 5.4391,-0.80486 11.9662,-1.18945 19.1308,-1.18945 z m -21.5605,13.98437 c 0.1389,0.14148 0.1401,0.14274 0.2676,0.27344 0.1165,0.12532 0.1099,0.11925 0.2382,0.25781 a 25.0025,25.0025 0 0 0 -0.5058,-0.53125 z m 89.4472,10.89454 c -0.069,1.33279 -0.048,2.65568 -0.1289,3.97656 -0.8359,9.5469 -2.0757,12.58387 -5.8652,15.81055 a 25.0025,25.0025 0 0 0 -0.1523,0.13085 c -0.285,0.24667 -1.9307,0.9322 -4.086,1.7168 3.8984,-4.52206 6.8607,-9.46283 8.3653,-14.1289 0.8529,-2.64522 1.4205,-5.124 1.8671,-7.50586 z m -135.7089,6.9707 c 1.4664,4.575 4.0754,9.41652 8.1699,14.27734 -1.4364,-0.60702 -2.4703,-1.14928 -2.9278,-1.53515 a 25.0025,25.0025 0 0 0 -0.2265,-0.18946 c -1.9795,-1.63017 -2.0399,-1.69944 -3.3711,-4.83789 -0.7331,-1.81925 -1.2379,-4.56887 -1.6445,-7.71484 z m 10.0781,16.63476 c 0.1035,0.11179 0.207,0.18692 0.3105,0.29688 0.076,0.0779 0.1188,0.15647 0.1953,0.23437 z" id="path39"/>
                <path style="baseline-shift:baseline;display:inline;overflow:visible;vector-effect:none;fill:#001e68;stroke:none;enable-background:accumulate;stop-color:#000000;stop-opacity:1" d="m 3459.9,171.2 c -1.1,12.9 -4.5,24.4 -14.6,33 -17.1,14.8 -57.4,13.1 -78.4,13.1 -21.9,0 -60.5,2 -78.4,-13.1 -5.1,-4.2 -8.1,-8.7 -10.6,-14.6 -5.6,-13.7 -4.7,-31 -4.7,-45.6 0,-7.3 0,-14.8 0.9,-22.1 1.1,-12.6 5.9,-23.8 16.2,-31.6 16.8,-12.9 56.9,-12 76.7,-12 20.2,0 59.6,-0.9 76.7,12 4.7,3.6 7.8,7.3 10.6,12.6 7.3,12.9 6.4,29.4 6.4,43.7 0,8.1 -0.3,16.5 -0.8,24.6 z M 3405,122.8 c -7.3,-7 -28.6,-7.3 -37.8,-7.3 -8.9,0 -18.2,0.3 -26.8,2 -17.3,3.3 -17.7,16.8 -17.7,31.9 0,7.3 -0.3,17.1 5.1,22.6 7.5,8.1 29.4,8.1 39.5,8.1 9.5,0 19.6,0 28.8,-2.5 15.4,-4.2 15.1,-18.2 15.1,-31.9 0,-7.5 -0.4,-17.3 -6.2,-22.9 z" id="path40"/>
            </g>
            <g id="path12" class="st0" style="opacity:1">
                <path style="baseline-shift:baseline;display:inline;overflow:visible;vector-effect:none;fill:#ffffff;stroke:none;enable-background:accumulate;stop-color:#000000;stop-opacity:1" d="m 3587.9004,53.300781 c -11.8803,0 -24.7741,0.503609 -38.2539,5.517578 -0.9297,0.345788 -1.8301,0.923388 -2.7559,1.322266 a 25.0025,25.0025 0 0 0 -12.6914,-3.541016 H 3487.5 a 25.0025,25.0025 0 0 0 -25,25 V 214 a 25.0025,25.0025 0 0 0 25,25 h 49.4004 a 25.0025,25.0025 0 0 0 25,-25 v -54.90039 c 0,-11.24185 1.3348,-18.3353 1.4277,-19.01563 0.4693,0.15348 0.9813,0.31641 4.9727,0.31641 0.7272,0 0.5432,0.0603 1.123,0.0859 a 25.0025,25.0025 0 0 0 24.9766,24.91406 h 46.5 a 25.0025,25.0025 0 0 0 25,-25 c 0,2.56667 0.9471,-0.41944 0.029,-8.2207 l 0.1699,2.91992 c 0,-13.52381 2.4115,-36.856976 -14.4609,-57.720704 a 25.0025,25.0025 0 0 0 -0.035,-0.04297 c -18.746,-23.072056 -46.1385,-24.035115 -63.703,-24.035115 z m 22.1973,53.759769 c 1.2392,0.5945 2.194,1.20439 2.6757,1.78906 0.6304,0.79324 1.2145,2.87892 1.7403,5.54492 -1.1843,-2.52799 -2.6152,-4.99103 -4.416,-7.33398 z m -97.5977,6.75 a 25.0025,25.0025 0 0 0 5.2773,5.41601 c -3.0275,6.61809 -4.5708,12.91316 -5.2773,18.89649 z" id="path41"/>
                <path style="baseline-shift:baseline;display:inline;overflow:visible;vector-effect:none;fill:#001e68;stroke:none;enable-background:accumulate;stop-color:#000000;stop-opacity:1" d="m 3640.9,140.4 h -46.5 c 0,-19.6 -6.4,-25 -26.1,-25 -30.5,0 -31.4,19.3 -31.4,43.7 V 214 h -49.4 V 81.6 h 46.7 v 19.9 h 2.2 c 11.5,-20.4 29.9,-23.2 51.5,-23.2 15.4,0 33.9,2 44.3,14.8 9.3,11.5 8.9,28 8.9,42 0.2,1.7 -0.2,3.7 -0.2,5.3 z" id="path42"/>
            </g>
            <g id="path13" class="st0" style="opacity:1">
                <path style="baseline-shift:baseline;display:inline;overflow:visible;vector-effect:none;fill:#ffffff;stroke:none;enable-background:accumulate;stop-color:#000000;stop-opacity:1" d="m 3764.6621,53.126953 c -5.0568,5.7e-4 -9.8959,0.07227 -14.4629,0.07227 -9.8323,0 -24.528,-0.296886 -39.916,1.251953 -15.3758,1.547613 -31.9465,4.076061 -47.2637,15.216797 -18.0661,13.08379 -25.4466,33.728257 -27.2734,51.152337 -1.0965,10.02182 -1.0469,19.2933 -1.0469,27.67969 0,12.97007 -1.8788,32.63358 8.0684,53.33008 a 25.0025,25.0025 0 0 0 0.1719,0.34961 c 3.9061,7.81235 10.0057,16.24811 18.3046,22.61718 14.5901,11.3206 30.6183,14.22821 45.3536,15.98829 14.7715,1.76442 28.8295,1.61523 38.5019,1.61523 10.4399,0 27.0391,0.28495 44.2481,-1.6875 17.2089,-1.97245 35.9074,-4.85905 51.9824,-19.33594 a 25.0025,25.0025 0 0 0 0.049,-0.043 c 14.8875,-13.47709 19.9388,-32.60881 21.2266,-47.35937 a 25.0025,25.0025 0 0 0 -1.3008,-6.79102 25.0025,25.0025 0 0 0 2.2422,-6.85742 c 0.3674,-5.6331 0.3548,-10.42991 0.4472,-14.68359 a 25.0025,25.0025 0 0 0 0.01,-0.54297 c 0,-13.92657 -0.012,-29.90485 -6.2656,-46.587887 -6.2538,-16.683044 -21.7663,-33.288403 -43.041,-39.583985 a 25.0025,25.0025 0 0 0 -0.1036,-0.03125 c -17.6258,-5.132813 -34.7572,-5.77124 -49.9277,-5.769531 z m -39.498,32.324219 c -0.033,0.0047 -0.069,0.01482 -0.1016,0.01953 -0.031,0.0046 -0.057,0.0031 -0.088,0.0078 z m -40.1524,47.943358 a 25.0025,25.0025 0 0 0 3.8418,11.60352 25.0025,25.0025 0 0 0 -3.8945,11.24804 c -0.063,-2.66876 -0.2598,-4.85514 -0.2598,-7.74609 0,-5.49719 0.1013,-10.44274 0.3125,-15.10547 z m 128.4824,0.19727 c 0,0.0345 0,0.0729 0,0.10742 h -0.031 a 25.0025,25.0025 0 0 0 0.027,-0.10742 z m -9.6953,63.31445 -0.9218,0.9707 c 0.2141,-0.21411 0.3674,-0.43167 0.5722,-0.64648 0.12,-0.13044 0.2291,-0.19009 0.3496,-0.32422 z" id="path43"/>
                <path style="baseline-shift:baseline;display:inline;overflow:visible;vector-effect:none;fill:#001e68;stroke:none;enable-background:accumulate;stop-color:#000000;stop-opacity:1" d="m 3838.6,158.7 h -129.3 c 0,7.5 -0.3,16.2 6.2,21.5 6.7,5.3 25.5,5.6 33.6,5.6 8.1,0 30.8,0.3 36.1,-5.6 2.2,-2.2 2.8,-5.3 3.3,-8.4 h 49.2 c -1.1,12.6 -3.6,22.4 -13.1,31 -17.1,15.4 -58,14.6 -79.5,14.6 -19.6,0 -52.3,0.3 -68.6,-12.4 -5.1,-3.9 -8.4,-8.4 -11.2,-14 -6.2,-12.9 -5.6,-28.8 -5.6,-42.5 0,-8.4 0,-16.8 0.9,-25 1.4,-13.5 5.9,-25.5 17.1,-33.6 17.3,-12.6 52.1,-11.7 72.5,-11.7 18.8,0 39.2,-0.6 57.4,4.7 29.4,8.7 31.4,35.6 31.4,62.2 -0.1,4.6 -0.1,9 -0.4,13.6 z m -49.5,-30.3 c 0,-5.1 -0.3,-8.9 -3.9,-12.9 -5.9,-6.4 -26.1,-6.4 -34.1,-6.4 -7.5,0 -15.1,0 -22.4,1.1 -14,2 -19,7.3 -19.3,21.3 h 79.8 z" id="path44"/>
            </g>
        </g>
        <g id="polygon14" class="st0" style="opacity:1" transform="translate(28)">
            <path style="baseline-shift:baseline;display:inline;overflow:visible;vector-effect:none;fill:#ffffff;stroke:none;enable-background:accumulate;stop-color:#000000;stop-opacity:1" d="m 1574.4004,57.800781 a 25.0025,25.0025 0 0 0 -25,25 V 141.5 a 25.0025,25.0025 0 0 0 25,25 h 69.2988 a 25.0025,25.0025 0 0 0 17.6778,-7.32227 l 58.7011,-58.69921 a 25.0025,25.0025 0 0 0 -17.6777,-42.677739 z m 25,49.999999 h 42.6426 l -8.6992,8.69922 h -33.9434 z" id="path45"/>
            <path style="baseline-shift:baseline;display:inline;overflow:visible;vector-effect:none;fill:#001e68;stroke:none;enable-background:accumulate;stop-color:#000000;stop-opacity:1" d="m 1574.4,141.5 h 69.3 l 58.7,-58.7 h -128 z" id="path46"/>
        </g>
        <g id="path14" class="st0" style="opacity:1">
            <path style="baseline-shift:baseline;display:inline;overflow:visible;vector-effect:none;fill:#ffffff;stroke:none;enable-background:accumulate;stop-color:#000000;stop-opacity:1" d="m 1536.5,-25 c -94.6224,0 -171.8008,77.282263 -171.8008,171.80078 0,94.5391 77.2617,171.79883 171.8008,171.79883 15.2628,0 30.195,-1.99042 44.5273,-5.86719 A 25.0025,25.0025 0 0 0 1599.5,288.59961 v -73.90039 a 25.0025,25.0025 0 0 0 -37.2559,-21.78906 c -7.5422,4.24252 -16.2919,6.68945 -25.7441,6.68945 a 25.0025,25.0025 0 0 0 -0.059,0 c -29.3098,0.0683 -52.7422,-23.32596 -52.7422,-52.79883 0,-29.34134 23.4663,-52.900389 52.9004,-52.900389 9.4522,0 18.2019,2.446929 25.7442,6.689449 a 25.0025,25.0025 0 0 0 37.2558,-21.789059 V 5 A 25.0025,25.0025 0 0 0 1581.127,-19.132812 C 1566.7614,-23.018575 1551.7628,-25 1536.5,-25 Z m 0,50 c 4.433,0 8.7924,0.294055 13.0996,0.751953 v 18.994141 c -4.2685,-0.541224 -8.605,-0.845703 -13,-0.845703 -56.5659,0 -102.9004,46.441727 -102.9004,102.900389 0,56.51592 46.3513,102.91007 102.8262,102.79688 4.3862,-10e-4 8.7144,-0.30359 12.9746,-0.84375 v 19.10351 c -4.2664,0.45303 -8.5851,0.74219 -13,0.74219 -67.4609,0 -121.8008,-54.33792 -121.8008,-121.79883 C 1414.6992,79.3193 1468.9224,25 1536.5,25 Z" id="path47"/>
            <path style="baseline-shift:baseline;display:inline;overflow:visible;vector-effect:none;fill:#001e68;stroke:none;enable-background:accumulate;stop-color:#000000;stop-opacity:1" d="m 1458.7,146.8 c 0,-42.9 34.9,-77.9 77.9,-77.9 13.8,0 26.8,3.6 38,9.9 V 5 c -12.2,-3.3 -25,-5 -38.1,-5 -81.1,0 -146.8,65.8 -146.8,146.8 0,81 65.8,146.8 146.8,146.8 13.1,0 25.8,-1.7 38,-5 v -73.9 c -11.2,6.3 -24.2,9.9 -38,9.9 -42.9,0.1 -77.8,-34.8 -77.8,-77.8 z" id="path48"/>
        </g>
        <g id="polygon15" class="st1" style="opacity:1" transform="translate(28)">
            <path style="baseline-shift:baseline;display:inline;overflow:visible;vector-effect:none;fill:#ffffff;stroke:none;enable-background:accumulate;stop-color:#000000;stop-opacity:1" d="m 1574.4004,127.09961 a 25.0025,25.0025 0 0 0 -25,25 v 58.80078 a 25.0025,25.0025 0 0 0 25,25 h 128 a 25.0025,25.0025 0 0 0 17.6914,-42.66211 l -58.6992,-58.80078 a 25.0025,25.0025 0 0 0 -17.6934,-7.33789 z m 25,50 h 33.9316 l 8.7852,8.80078 h -42.7168 z" id="path49"/>
            <path style="baseline-shift:baseline;display:inline;overflow:visible;vector-effect:none;fill:#ff001f;stroke:none;enable-background:accumulate;stop-color:#000000;stop-opacity:1" d="m 1574.4,152.1 v 58.8 h 128 l -58.7,-58.8 z" id="path50"/>
        </g>
    </g>
</svg>
