<?xml version='1.0' encoding='utf-8'?>
<svg xmlns="http://www.w3.org/2000/svg" width="600" height="166.66666666666666" version="1.1" id="svg12" viewBox="0 0 720.0 200.0">
    <defs id="defs12"/>
    <g id="text1" style="opacity:1" transform="scale(1.05109 .9514)">
        <path style="font-size:1.60876px;font-family:ArialMT;baseline-shift:baseline;display:inline;overflow:visible;vector-effect:none;fill:#ffffff;stroke-linecap:round;stroke-linejoin:round;paint-order:markers stroke fill;enable-background:accumulate;stop-color:#000000;stop-opacity:1" d="m 435.14453,122.26953 a 7.5006999,7.5006999 0 0 0 -0.75976,0.31445 7.5006999,7.5006999 0 0 0 -0.64063,-0.26562 h -0.1582 a 7.5006999,7.5006999 0 0 0 -7.5,7.5 v 1.17187 a 7.5006999,7.5006999 0 0 0 5.36328,6.61524 c 0.0296,0.0146 0.0542,0.0209 0.084,0.0352 a 7.5006999,7.5006999 0 0 0 2.05274,0.84961 h 0.1582 a 7.5006999,7.5006999 0 0 0 0.39844,-0.16601 c 0.23622,0.0298 0.4972,0.18945 0.7207,0.18945 0.0779,0 0.18397,-0.0267 0.26563,-0.0293 a 7.5006999,7.5006999 0 0 0 0.0156,0.006 h 0.14453 a 7.5006999,7.5006999 0 0 0 0.084,-0.0351 c 0.063,-0.004 0.13249,-0.0159 0.19726,-0.0215 0.10797,0.006 0.25542,0.0801 0.35742,0.0801 0.12801,0 0.31018,-0.0914 0.44727,-0.10156 a 7.5006999,7.5006999 0 0 0 0.18945,0.0781 h 0.14649 a 7.5006999,7.5006999 0 0 0 0.22265,-0.0918 7.5006999,7.5006999 0 0 0 0.22461,0.0918 h 0.14453 a 7.5006999,7.5006999 0 0 0 0.21094,-0.0879 c 0.27866,0.009 0.67525,0.0879 0.88086,0.0879 h 0.14844 a 7.5006999,7.5006999 0 0 0 0.35156,-0.14453 7.5006999,7.5006999 0 0 0 0.34961,0.14453 h 0.14453 a 7.5006999,7.5006999 0 0 0 0.15039,-0.0625 7.5006999,7.5006999 0 0 0 0.15235,0.0625 h 0.14453 a 7.5006999,7.5006999 0 0 0 0.14843,-0.0605 7.5006999,7.5006999 0 0 0 0.14844,0.0605 h 0.14453 a 7.5006999,7.5006999 0 0 0 0.22071,-0.0918 7.5006999,7.5006999 0 0 0 0.22656,0.0918 h 0.18945 a 7.5006999,7.5006999 0 0 0 0.1211,-0.0508 c 0.11216,0.006 0.26572,0.0742 0.37109,0.0742 0.26522,0 0.53104,-0.058 0.79883,-0.084 0.0722,0.007 0.14858,0.021 0.21875,0.0254 a 7.5006999,7.5006999 0 0 0 0.084,0.0351 h 0.14453 a 7.5006999,7.5006999 0 0 0 0.006,-0.002 c 0.27421,0.0759 0.54427,0.17026 0.82032,0.2168 0.49921,0.0844 0.96911,0.12109 1.39453,0.12109 0.45406,0 1.12155,-0.19974 1.73242,-0.33594 h 0.0586 a 7.5006999,7.5006999 0 0 0 0.0508,-0.0215 c 0.35462,-0.0841 0.62335,-0.0651 0.99805,-0.20703 0.88656,-0.2075 1.84374,-0.56592 2.81641,-1.28125 0.0411,-0.0303 0.0666,-0.10258 0.10742,-0.13477 a 7.5006999,7.5006999 0 0 0 3.52734,-5.85547 v -0.19921 a 7.5006999,7.5006999 0 0 0 -0.0117,-0.0293 v -0.01 a 7.5006999,7.5006999 0 0 0 0.0117,-0.41992 v -0.51367 a 7.5006999,7.5006999 0 0 0 -0.20703,-0.49805 l 0.0312,0.51367 -0.15625,0.15625 a 7.5006999,7.5006999 0 0 0 -0.54101,-1.30664 7.5006999,7.5006999 0 0 0 0.0566,-0.60742 7.5006999,7.5006999 0 0 0 -0.51368,-0.54492 c -0.0135,-0.0297 -0.0408,-0.0524 -0.0547,-0.082 a 7.5006999,7.5006999 0 0 0 -1.49024,-2.24219 c -0.0362,-0.0353 -0.045,-0.0906 -0.082,-0.125 -0.73079,-0.67738 -1.34671,-1.03059 -1.9082,-1.29883 a 7.5006999,7.5006999 0 0 0 -0.0176,-0.0176 l 0.27344,-0.16797 c -0.20478,-0.1049 -0.44226,-0.15552 -0.66016,-0.24414 a 7.5006999,7.5006999 0 0 0 -0.0977,-0.10352 l 0.0352,-0.0332 a 7.5006999,7.5006999 0 0 0 -0.11133,-0.0449 7.5006999,7.5006999 0 0 0 -0.0527,-0.0586 h 0.0488 c -0.0232,-0.008 -0.0433,-0.009 -0.0664,-0.0176 a 7.5006999,7.5006999 0 0 0 -0.0781,-0.0215 c -0.0895,-0.0309 -0.1698,-0.0453 -0.25782,-0.0723 a 7.5006999,7.5006999 0 0 0 -1.65039,-0.68359 h -0.16015 a 7.5006999,7.5006999 0 0 0 -0.65821,0.27344 c -0.12332,1.1e-4 -0.32269,0.0542 -0.46093,0.0605 -0.002,-1.6e-4 -0.005,1.6e-4 -0.008,0 -0.001,-8e-5 -0.003,-0.002 -0.004,-0.002 a 7.5006999,7.5006999 0 0 0 -0.0957,-0.0391 h -0.14453 a 7.5006999,7.5006999 0 0 0 -0.0215,0.01 c -0.0801,-0.003 -0.18312,-0.0312 -0.25977,-0.0312 -0.12146,0 -0.27382,0.0924 -0.40039,0.10157 a 7.5006999,7.5006999 0 0 0 -0.19531,-0.0801 h -0.14453 a 7.5006999,7.5006999 0 0 0 -0.22461,0.0918 7.5006999,7.5006999 0 0 0 -0.22266,-0.0918 h -0.14453 a 7.5006999,7.5006999 0 0 0 -0.0215,0.008 7.5006999,7.5006999 0 0 0 -0.84571,-0.34961 h -0.14453 a 7.5006999,7.5006999 0 0 0 -0.89844,0.3711 c -0.0681,-0.003 -0.16291,-0.0508 -0.22851,-0.0508 -0.0621,0 -0.15064,0.0446 -0.21484,0.0469 a 7.5006999,7.5006999 0 0 0 -0.88868,-0.36719 h -0.14453 a 7.5006999,7.5006999 0 0 0 -0.14844,0.0605 7.5006999,7.5006999 0 0 0 -0.14843,-0.0605 h -0.14453 a 7.5006999,7.5006999 0 0 0 -0.15235,0.0625 7.5006999,7.5006999 0 0 0 -0.15039,-0.0625 h -0.14453 a 7.5006999,7.5006999 0 0 0 -0.60937,0.25195 7.5006999,7.5006999 0 0 0 -0.38672,-0.16015 h -0.14453 a 7.5006999,7.5006999 0 0 0 -0.0957,0.0391 7.5006999,7.5006999 0 0 0 -0.19922,-0.082 h -0.16601 a 7.5006999,7.5006999 0 0 0 -0.65821,0.27344 c -0.0756,10e-5 -0.16998,0.0266 -0.24804,0.0293 a 7.5006999,7.5006999 0 0 0 -0.0254,-0.01 h -0.14649 a 7.5006999,7.5006999 0 0 0 -0.10937,0.0449 c -0.0489,0.003 -0.10079,0.015 -0.15039,0.0195 -0.0237,-0.002 -0.0547,-0.0164 -0.0781,-0.0176 a 7.5006999,7.5006999 0 0 0 -0.9375,-0.38867 z m -2.04101,0.41797 h 1.03125 a 7.5006999,7.5006999 0 0 0 -0.61719,0.25586 c -0.21265,0.0468 -0.41578,0.0983 -0.63086,0.16406 z m 3.2539,0 h 0.0234 a 7.5006999,7.5006999 0 0 0 -0.008,0.004 c -0.005,-3.6e-4 -0.0108,-0.004 -0.0156,-0.004 z m 13.16992,1.33789 c 0.23688,0.1503 0.29841,0.12493 0.60938,0.35352 l 0.0723,0.0527 c 0.0517,0.0389 0.0798,0.12989 0.13086,0.17188 -0.28835,-0.21587 -0.41392,-0.25021 -0.63867,-0.39258 a 7.5006999,7.5006999 0 0 0 -0.17383,-0.18555 z m 1.0918,0.73828 0.0566,0.0449 c -0.0217,-0.0173 -0.0216,-0.008 -0.043,-0.0254 -0.006,-0.005 -0.008,-0.0148 -0.0137,-0.0195 z m -0.61133,2.55469 c 0.33512,0.62511 0.66257,1.19486 0.78321,1.73633 a 7.5006999,7.5006999 0 0 0 -0.34961,-0.76953 c -0.0669,-0.23111 -0.21813,-0.4469 -0.3086,-0.68164 a 7.5006999,7.5006999 0 0 0 -0.0801,-0.17579 7.5006999,7.5006999 0 0 0 -0.0449,-0.10937 z m -20.82422,2.51172 a 7.5006999,7.5006999 0 0 0 -0.11718,0.28125 v 0.8789 a 7.5006999,7.5006999 0 0 0 0.0391,0.0957 l -0.2207,-0.22071 c -0.004,-0.0892 -0.0527,-0.23197 -0.0527,-0.3125 0,-0.1704 0.0907,-0.45227 0.11133,-0.6582 z m 13.60547,0 0.0274,0.002 0.0898,0.0273 c 0.0229,0.21866 0.11719,0.51415 0.11719,0.69336 0,0.1854 -0.0964,0.49217 -0.1211,0.72071 l -0.0469,0.0469 -0.19531,-0.0176 a 7.5006999,7.5006999 0 0 0 0.1289,-0.3125 z m 2.48633,0.24609 0.0801,0.008 0.01,0.01 -0.125,0.12695 a 7.5006999,7.5006999 0 0 0 0.0352,-0.14453 z m 5.46094,0.0391 0.13867,0.13868 -0.041,0.043 a 7.5006999,7.5006999 0 0 0 -0.0976,-0.18164 z m -23.67578,0.0586 c -0.005,0.11492 -0.0586,0.27165 -0.0586,0.3789 0,0.008 0.004,0.0196 0.004,0.0274 l -0.17578,-0.17578 z m 4.68359,0.11523 v 0.52344 l -0.26172,-0.26172 z m 17.51367,0.18164 0.0449,0.004 -0.0371,0.0371 c 0,-0.0115 -0.008,-0.0294 -0.008,-0.041 z m -18.59961,0.76563 c 0.001,0.0977 0.0346,0.2356 0.0391,0.34375 -7.4e-4,0.005 -0.001,0.0104 -0.002,0.0156 l -0.16015,-0.16015 z" id="path13"/>
        <path style="font-size:1.60876px;font-family:ArialMT;baseline-shift:baseline;display:inline;overflow:visible;vector-effect:none;fill:#ff0000;stroke-linecap:round;stroke-linejoin:round;paint-order:markers stroke fill;enable-background:accumulate;stop-color:#000000;stop-opacity:1" d="m 433.5859,129.8182 h 0.15868 v 1.1728 h -0.15868 z m 1.55849,0.42655 v -0.47603 h 0.14454 v 1.22228 h -0.14454 v -0.13197 q -0.0456,0.0786 -0.11547,0.11704 -0.0691,0.0377 -0.16654,0.0377 -0.15946,0 -0.26001,-0.12726 -0.0998,-0.12725 -0.0998,-0.33463 0,-0.20738 0.0998,-0.33464 0.10055,-0.12725 0.26001,-0.12725 0.0974,0 0.16654,0.0385 0.0699,0.0377 0.11547,0.11626 z m -0.49253,0.30714 q 0,0.15946 0.0652,0.25058 0.066,0.0903 0.18067,0.0903 0.11469,0 0.18067,-0.0903 0.066,-0.0911 0.066,-0.25058 0,-0.15947 -0.066,-0.2498 -0.066,-0.0911 -0.18067,-0.0911 -0.11468,0 -0.18067,0.0911 -0.0652,0.0903 -0.0652,0.2498 z m 1.2757,-0.33935 q -0.11626,0 -0.18381,0.0911 -0.0676,0.0903 -0.0676,0.24823 0,0.15789 0.0668,0.24901 0.0676,0.0903 0.1846,0.0903 0.11547,0 0.18303,-0.0911 0.0675,-0.0911 0.0675,-0.24822 0,-0.15632 -0.0675,-0.24744 -0.0676,-0.0919 -0.18303,-0.0919 z m 0,-0.12254 q 0.18853,0 0.29614,0.12254 0.10762,0.12254 0.10762,0.33935 0,0.21602 -0.10762,0.33935 -0.10761,0.12254 -0.29614,0.12254 -0.18931,0 -0.29693,-0.12254 -0.10683,-0.12333 -0.10683,-0.33935 0,-0.21681 0.10683,-0.33935 0.10762,-0.12254 0.29693,-0.12254 z m 1.37467,0.36998 v 0.53102 h -0.14453 v -0.52631 q 0,-0.1249 -0.0487,-0.18695 -0.0487,-0.0621 -0.1461,-0.0621 -0.11705,0 -0.1846,0.0746 -0.0676,0.0746 -0.0676,0.20345 v 0.49724 h -0.14532 v -0.87979 h 0.14532 v 0.13668 q 0.0519,-0.0793 0.12176,-0.11862 0.0707,-0.0393 0.1626,-0.0393 0.15161,0 0.22938,0.0943 0.0778,0.0935 0.0778,0.27572 z m 0.34092,-0.64178 h 0.16575 v 0.1194 l -0.12883,0.25059 h -0.10133 l 0.0644,-0.25059 z m 0.60172,0.0432 v 0.2498 h 0.29771 v 0.11233 h -0.29771 v 0.4776 q 0,0.10761 0.0291,0.13825 0.0299,0.0306 0.12019,0.0306 h 0.14846 v 0.12097 h -0.14846 q -0.16732,0 -0.23095,-0.0621 -0.0636,-0.0628 -0.0636,-0.2278 v -0.4776 h -0.10605 v -0.11233 h 0.10605 v -0.2498 z m 0.99919,-0.0927 h 0.14454 v 1.22228 h -0.14454 z m 0.44697,0.34249 h 0.14453 v 0.87979 h -0.14453 z m 0,-0.34249 h 0.14453 v 0.18302 h -0.14453 z m 0.44146,0 h 0.14533 v 0.7219 l 0.43125,-0.37941 h 0.1846 l -0.4666,0.41161 0.48624,0.46818 h -0.18853 l -0.44696,-0.42969 v 0.42969 h -0.14533 z m 1.63233,0.74625 v 0.0707 h -0.66456 q 0.009,0.14926 0.0896,0.22781 0.0809,0.0778 0.22467,0.0778 0.0833,0 0.16103,-0.0204 0.0786,-0.0204 0.15553,-0.0613 v 0.13668 q -0.0778,0.033 -0.15946,0.0503 -0.0817,0.0173 -0.16575,0.0173 -0.21052,0 -0.33384,-0.12254 -0.12255,-0.12255 -0.12255,-0.3315 0,-0.21602 0.11626,-0.34249 0.11704,-0.12725 0.315,-0.12725 0.17753,0 0.28043,0.11468 0.10369,0.11391 0.10369,0.31029 z m -0.14454,-0.0424 q -0.002,-0.11862 -0.0668,-0.18931 -0.0644,-0.0707 -0.17124,-0.0707 -0.12097,0 -0.19403,0.0683 -0.0723,0.0683 -0.0833,0.19245 z m 1.52471,0.0793 q 0,-0.15947 -0.066,-0.2498 -0.0652,-0.0911 -0.17989,-0.0911 -0.11468,0 -0.18067,0.0911 -0.0652,0.0903 -0.0652,0.2498 0,0.15946 0.0652,0.25058 0.066,0.0903 0.18067,0.0903 0.11469,0 0.17989,-0.0903 0.066,-0.0911 0.066,-0.25058 z m -0.49174,-0.30714 q 0.0456,-0.0786 0.11469,-0.11626 0.0699,-0.0385 0.16653,-0.0385 0.16025,0 0.26001,0.12725 0.10055,0.12726 0.10055,0.33464 0,0.20738 -0.10055,0.33463 -0.0998,0.12726 -0.26001,0.12726 -0.0966,0 -0.16653,-0.0377 -0.0691,-0.0385 -0.11469,-0.11704 v 0.13197 h -0.14532 v -1.22228 h 0.14532 z m 0.86644,0.39904 v -0.53258 h 0.14454 v 0.52709 q 0,0.12489 0.0487,0.18774 0.0487,0.062 0.14611,0.062 0.11704,0 0.1846,-0.0746 0.0683,-0.0746 0.0683,-0.20345 v -0.49881 h 0.14454 v 0.87979 h -0.14454 v -0.13511 q -0.0526,0.0801 -0.12254,0.1194 -0.0691,0.0385 -0.16104,0.0385 -0.1516,0 -0.23016,-0.0943 -0.0785,-0.0943 -0.0785,-0.27572 z m 0.3637,-0.55379 z m 1.24978,0.45089 q 0,-0.15711 -0.0652,-0.24351 -0.0644,-0.0864 -0.18146,-0.0864 -0.11626,0 -0.18146,0.0864 -0.0644,0.0864 -0.0644,0.24351 0,0.15632 0.0644,0.24273 0.0652,0.0864 0.18146,0.0864 0.11704,0 0.18146,-0.0864 0.0652,-0.0864 0.0652,-0.24273 z m 0.14453,0.34092 q 0,0.22466 -0.0998,0.33385 -0.0998,0.10997 -0.30557,0.10997 -0.0762,0 -0.14375,-0.0118 -0.0676,-0.011 -0.13118,-0.0346 v -0.14061 q 0.0636,0.0346 0.12568,0.0511 0.0621,0.0165 0.12647,0.0165 0.14218,0 0.21288,-0.0746 0.0707,-0.0738 0.0707,-0.22388 v -0.0715 q -0.0448,0.0778 -0.11469,0.11626 -0.0699,0.0385 -0.16732,0.0385 -0.16182,0 -0.26079,-0.12333 -0.099,-0.12333 -0.099,-0.32678 0,-0.20424 0.099,-0.32757 0.099,-0.12332 0.26079,-0.12332 0.0974,0 0.16732,0.0385 0.0699,0.0385 0.11469,0.11626 v -0.13354 h 0.14453 z m 0.85859,-0.74468 v 0.13668 q -0.0613,-0.0314 -0.12726,-0.0471 -0.066,-0.0157 -0.13668,-0.0157 -0.10762,0 -0.16182,0.033 -0.0534,0.033 -0.0534,0.099 0,0.0503 0.0385,0.0793 0.0385,0.0283 0.15475,0.0542 l 0.0495,0.011 q 0.15397,0.033 0.21838,0.0935 0.0652,0.0597 0.0652,0.16732 0,0.12254 -0.0974,0.19402 -0.0966,0.0715 -0.26629,0.0715 -0.0707,0 -0.14768,-0.0141 -0.0762,-0.0134 -0.16103,-0.0409 v -0.14925 q 0.0801,0.0416 0.15789,0.0628 0.0778,0.0204 0.15396,0.0204 0.10212,0 0.15711,-0.0346 0.055,-0.0353 0.055,-0.099 0,-0.0589 -0.0401,-0.0903 -0.0393,-0.0314 -0.1736,-0.0605 l -0.0503,-0.0118 q -0.13433,-0.0283 -0.19403,-0.0864 -0.0597,-0.0589 -0.0597,-0.16103 0,-0.12411 0.088,-0.19167 0.088,-0.0675 0.2498,-0.0675 0.0801,0 0.15082,0.0118 0.0707,0.0118 0.1304,0.0354 z m 0.36841,0.65434 h 0.15946 v 0.19953 h -0.15946 z m 0,-0.97327 h 0.15946 v 0.51452 l -0.0157,0.28044 h -0.12726 l -0.0165,-0.28044 z" id="path14"/>
    </g>
    <g id="g38">
        <g id="path1" style="fill:#040404;stroke:#ffffff;stroke-width:15;stroke-linecap:round;stroke-linejoin:round;stroke-dasharray:none;stroke-opacity:1;paint-order:markers stroke fill">
            <path style="baseline-shift:baseline;display:inline;overflow:visible;vector-effect:none;fill:#ffffff;stroke:none;enable-background:accumulate;stop-color:#000000;stop-opacity:1" d="m 238.60352,31.996094 c -2.63698,0 -7.08648,2.203922 -8.4629,5.441406 -6.3e-4,0.0015 -0.001,0.0044 -0.002,0.0059 -3.4e-4,8.17e-4 -0.002,0.0011 -0.002,0.002 -0.27567,0.64931 -0.61235,1.46807 -1.01953,2.482422 a 7.50075,7.50075 0 0 0 -0.13867,0.376953 l -23.61133,69.361335 a 7.50075,7.50075 0 0 0 -0.0254,0.0762 c -0.75187,2.29064 -1.44031,4.17009 -2.02344,5.5664 -0.13055,0.31225 -0.14479,0.26632 -0.18164,0.28711 -0.5755,0.0642 -1.15092,0.12691 -1.72656,0.19532 a 7.50075,7.50075 0 0 0 -0.0176,0.002 c -1.28542,0.1557 -2.6142,0.4419 -4.02344,1.07422 a 7.50075,7.50075 0 0 0 -0.0391,0.0156 c -3.20662,1.46051 -5.13477,5.7863 -5.13477,8.23828 0,2.49566 1.70301,6.04408 4.06446,7.58789 2.36144,1.54382 4.40047,1.65821 6.10937,1.65821 1.61346,0 3.24945,-0.15373 5.09375,-0.4043 a 7.50075,7.50075 0 0 0 0.004,0 c 1.19691,-0.16335 2.78342,-0.26758 4.70312,-0.26758 2.95702,0 5.36167,0.13265 7.09766,0.34766 a 7.50075,7.50075 0 0 0 0.002,0 c 2.32873,0.28788 4.11563,0.45898 5.82031,0.45898 1.64065,0 3.6002,-0.0941 5.93164,-1.58398 2.33145,-1.48988 4.0918,-5.03366 4.0918,-7.5293 0,-3.50784 -3.36738,-7.95166 -6.41601,-9.0625 a 7.50075,7.50075 0 0 0 -0.0391,-0.0156 c -0.83756,-0.30004 -1.77961,-0.38634 -2.62695,-0.57617 0.27312,-1.4063 0.32585,-2.02848 1.2207,-5.22266 l 2.30274,-7.73047 h 10.57422 l 4.3125,12.8125 c -1.31444,0.22838 -2.69628,0.65139 -4.1543,1.70898 -2.4182,1.75408 -3.83789,5.24344 -3.83789,7.6836 0,2.49099 1.75809,6.03847 4.0918,7.52929 2.3337,1.49083 4.29243,1.58399 5.93164,1.58399 1.55017,0 3.32467,-0.13418 5.9375,-0.36719 l -0.006,0.002 c 2.16515,-0.19129 5.33996,-0.30664 9.36328,-0.30664 2.74195,0 4.95442,0.13233 6.51367,0.33789 2.23229,0.2961 4.14946,0.46875 5.96094,0.46875 1.79226,0 3.79788,-0.0918 6.21289,-1.54882 2.41501,-1.45702 4.4043,-5.13791 4.40429,-7.83399 10e-6,-2.1693 -1.24428,-5.16548 -3.15039,-6.74023 -1.9061,-1.57475 -3.73919,-1.94895 -5.17382,-2.11914 0.42761,0.0507 0.14407,0.0842 -0.59571,-0.39453 a 7.50075,7.50075 0 0 0 -0.27539,-0.16993 c -0.87917,-0.51632 -1.09879,-0.82809 -1.32812,-1.3125 -0.70864,-1.4968 -1.63069,-3.80058 -2.66211,-6.77539 a 7.50075,7.50075 0 0 0 -0.008,-0.0234 L 249.24609,43.333984 a 7.50075,7.50075 0 0 0 -0.041,-0.115234 c -0.63789,-1.728919 -1.06085,-3.071618 -1.25586,-3.833984 -0.4207,-1.643257 -1.35717,-3.656535 -3.18164,-5.191407 -1.82447,-1.534871 -4.27815,-2.197265 -6.16406,-2.197265 z m 8.68164,63.816406 -0.0488,0.03711 c 0.006,-0.0042 0.012,-0.01534 0.0176,-0.01953 0.008,-0.0063 0.0229,-0.01122 0.0312,-0.01758 z m 20.50586,32.37695 c 0.0564,0.0365 0.12293,0.0596 0.17968,0.0957 0.0349,0.0208 0.0607,0.0556 0.0957,0.0762 z m -56.46485,0.0488 -0.13672,0.0918 c 0.0202,-0.013 0.0326,-0.0357 0.0527,-0.0488 0.0254,-0.0169 0.0588,-0.0259 0.084,-0.043 z m 62.42188,2.38477 c 0.35191,0.07 0.65103,0.22189 1.01953,0.26562 -0.15733,-0.0187 -0.52663,-0.0776 -1.01953,-0.26562 z" id="path15"/>
        </g>
        <g id="path2" style="fill:#040404;stroke:#ffffff;stroke-width:15;stroke-linecap:round;stroke-linejoin:round;stroke-dasharray:none;stroke-opacity:1;paint-order:markers stroke fill">
            <path style="baseline-shift:baseline;display:inline;overflow:visible;vector-effect:none;fill:#ffffff;stroke:none;enable-background:accumulate;stop-color:#000000;stop-opacity:1" d="m 426.46484,25.8125 c -2.88253,0 -3.51995,0.692938 -4.45703,1.152344 -0.93708,0.459406 -1.77981,0.964014 -2.73047,1.570312 a 7.50075,7.50075 0 0 0 -0.006,0.0039 c -0.66955,0.427849 -2.80723,1.449876 -5.93164,2.511719 a 7.50075,7.50075 0 0 0 -0.084,0.0293 c -1.59134,0.561754 -2.91195,0.951945 -3.88477,1.179688 a 7.50075,7.50075 0 0 0 -0.0137,0.0039 c -1.51546,0.35758 -3.31654,1.000716 -5.00781,2.644531 -1.69127,1.643815 -2.77344,4.413046 -2.77344,6.603516 0,3.511977 3.29243,7.17619 5.56836,8.128906 a 7.50075,7.50075 0 0 0 0.043,0.01758 c 0.2544,0.10469 0.51867,0.182616 0.77539,0.28125 V 76.84375 c -1.36452,-3.062488 -2.9464,-5.95412 -5.01172,-8.421875 a 7.50075,7.50075 0 0 0 -0.006,-0.0078 c -2.81928,-3.360113 -6.28665,-6.086276 -10.20703,-7.980468 a 7.50075,7.50075 0 0 0 -0.002,-0.002 c -3.93881,-1.901081 -8.25219,-2.896485 -12.61719,-2.896485 -4.12356,0 -8.16523,0.814023 -11.84961,2.480469 a 7.50075,7.50075 0 0 0 -0.002,0.002 c -0.73129,0.330912 -1.38325,0.842231 -2.08594,1.238281 -1.46909,-2.097212 -4.67074,-4.123046 -7.29492,-4.123047 -4.34507,1e-6 -6.10959,1.830892 -7.70703,3.550782 -4.65199,2.758809 -7.17981,4.682082 -11.21875,7.121093 -1.41045,0.645966 -2.5057,1.352253 -3.51758,2.183594 -0.37424,-0.50434 -0.65901,-1.086631 -1.06055,-1.566406 a 7.50075,7.50075 0 0 0 -0.006,-0.0078 c -2.81928,-3.360113 -6.28664,-6.086276 -10.20703,-7.980468 a 7.50075,7.50075 0 0 0 -0.002,-0.002 c -3.93881,-1.901081 -8.2509,-2.896485 -12.61524,-2.896485 -4.12356,0 -8.16654,0.813733 -11.85156,2.480469 a 7.50075,7.50075 0 0 0 -0.002,0.002 c -0.73141,0.330969 -1.38326,0.842196 -2.08594,1.238281 -1.46853,-2.096529 -4.66684,-4.123047 -7.29297,-4.123047 -4.33105,10e-7 -6.0994,1.822795 -7.69531,3.539063 -4.19987,2.792445 -5.92844,3.879218 -11.30273,7.177734 l 1.62695,-0.748047 c -3.98605,1.281973 -4.59914,2.670946 -6.03711,4.175782 -0.71898,0.752418 -1.37916,1.518927 -2.0293,2.476562 -0.65014,0.957636 -1.80859,1.443323 -1.80859,5.357422 0,2.003848 2.15936,6.111083 4.85547,7.179688 2.1765,0.86266 3.34053,0.646486 4.19726,0.429687 v 57.992191 c -1.97279,0.0889 -4.72116,0.90897 -6.51758,2.97852 -1.89779,2.18633 -2.24414,4.61931 -2.24414,6.32812 0,2.27035 1.11765,5.56494 3.46485,7.45508 2.3472,1.89014 4.80873,2.19727 6.70703,2.19726 a 7.50075,7.50075 0 0 0 0.0898,-0.002 c 7.46705,-0.0876 15.47448,-0.13677 25.04883,0 a 7.50075,7.50075 0 0 0 0.10547,0.002 c 1.79587,0 3.80474,-0.0957 6.2168,-1.55273 2.41206,-1.45698 4.40234,-5.13055 4.40234,-7.83008 0,-2.03429 -0.59845,-5.57632 -3.86133,-7.80664 a 7.50075,7.50075 0 0 0 -0.0469,-0.0312 c -1.59852,-1.07507 -3.24072,-1.53783 -4.72461,-1.74023 -0.43487,-0.0615 -0.9671,-0.11161 -1.45508,-0.16602 l 0.0645,-8.46484 c 2.0154,0.34074 4.05713,0.57226 6.13477,0.57226 5.39318,0 10.58022,-1.02228 15.29101,-3.14453 4.59953,-2.06143 8.70868,-5.07771 12.0586,-8.84375 2.90438,-3.25185 5.10897,-7.09307 6.83398,-11.23828 v 31.28711 c -1.97257,0.0888 -4.71868,0.90635 -6.51562,2.97461 -1.89836,2.18498 -2.24805,4.62123 -2.24805,6.33203 0,2.27209 1.11969,5.56607 3.4668,7.45508 2.34711,1.88901 4.80873,2.19727 6.70703,2.19726 a 7.50075,7.50075 0 0 0 0.0293,0 c 8.41564,-0.0313 16.18003,-0.18628 25.06054,-0.002 a 7.50075,7.50075 0 0 0 0.1543,0.002 c 1.79587,0 3.80473,-0.0957 6.2168,-1.55273 2.41206,-1.45698 4.40234,-5.13055 4.40234,-7.83008 0,-2.04049 -0.59865,-5.57029 -3.85352,-7.80078 a 7.50075,7.50075 0 0 0 -0.0625,-0.041 c -1.5882,-1.06546 -3.23187,-1.53376 -4.71679,-1.73633 -0.43545,-0.0616 -0.96833,-0.11154 -1.45703,-0.16602 l 0.0664,-8.46289 c 2.01457,0.34052 4.05594,0.57031 6.13281,0.57031 5.39183,0 10.57587,-1.02205 15.28516,-3.14257 l 0.004,-0.002 c 3.92147,-1.75726 7.37757,-4.33002 10.41992,-7.34765 0.31732,2.11849 1.22897,4.57965 3.17969,6.14843 2.34731,1.88773 4.80812,2.19336 6.70507,2.19336 1.86521,0 3.85148,-0.16861 6.09961,-0.46875 1.60855,-0.21431 3.57594,-0.33789 5.85547,-0.33789 a 7.50075,7.50075 0 0 0 0.0254,0 c 2.00364,-0.007 4.00684,0.10991 5.9961,0.34961 l -0.0274,-0.004 c 2.40462,0.29835 4.61931,0.46093 6.70118,0.46093 1.7804,0 3.83432,-0.11102 6.24023,-1.63476 1.39241,-0.88186 2.5371,-2.47479 3.29883,-4.15821 2.37373,2.07722 4.93664,3.92489 7.83594,5.21094 4.35364,1.93914 9.14206,2.86524 14.10937,2.86524 4.61518,0 9.0117,-0.70147 13.05469,-2.23438 3.54686,-1.34496 6.75909,-2.97747 9.59765,-4.97656 l 0.006,-0.004 c 2.70656,-1.90302 5.01892,-3.97742 6.84375,-6.45508 1.62062,-2.20038 3.24219,-4.35465 3.24219,-8.3457 0,-0.96458 -0.0344,-2.02559 -0.32226,-3.54883 -0.14394,-0.76162 -0.27992,-1.59537 -0.95899,-2.95507 -0.33953,-0.67986 -0.81501,-1.54781 -1.91406,-2.53516 -1.09906,-0.98735 -3.1427,-2.0332 -5.2832,-2.0332 -3.52249,0 -3.75061,0.9289 -4.34375,1.30468 -0.59314,0.37578 -0.95345,0.66952 -1.30274,0.96289 -0.69858,0.58675 -1.27254,1.15339 -1.85156,1.78321 -2.11387,2.29904 -1.97729,3.011 -2.3125,3.63281 -0.0112,0.0208 -0.0121,0.0117 -0.0234,0.0312 -0.67727,0.44881 -1.5218,0.95595 -2.87305,1.49414 -10e-4,4.4e-4 -8.5e-4,0.002 -0.002,0.002 -0.94534,0.3742 -2.39257,0.67969 -4.42969,0.67969 -4.29696,0 -6.70437,-1.15126 -9.38867,-4.47266 -2.30977,-2.85769 -3.76947,-7.00079 -4.07226,-12.925781 h 26.97656 c 2.27758,0 4.22792,0.02709 6.94531,-1.201172 3.58547,-1.61822 5.60352,-6.252692 5.60352,-9.121094 0,-3.862161 -0.79894,-7.674636 -2.37696,-11.158203 a 7.50075,7.50075 0 0 0 -0.002,-0.0059 c -1.56287,-3.443522 -3.8231,-6.526019 -6.63477,-9.054688 -2.84592,-2.573602 -6.22473,-4.546359 -9.94335,-5.951171 a 7.50075,7.50075 0 0 0 -0.008,-0.0039 c -3.89388,-1.466594 -8.09349,-2.160156 -12.44531,-2.160156 -5.07551,0 -9.9883,0.951888 -14.49023,2.902344 a 7.50075,7.50075 0 0 0 -0.004,0.002 c -4.42586,1.920892 -8.38279,4.711761 -11.64844,8.236328 -2.58621,2.789472 -4.54045,6.126407 -6.16015,9.693359 V 45.007812 a 7.50075,7.50075 0 0 0 0,-0.03516 c -0.007,-1.463625 0.057,-2.927306 0.1914,-4.384765 l -0.004,0.04102 c 0.16688,-1.705818 0.25976,-3.276059 0.25976,-4.763672 0,-1.432774 -0.0853,-2.964312 -0.92773,-4.888672 a 7.50075,7.50075 0 0 0 -0.006,-0.01172 c -0.83354,-1.895566 -2.63805,-3.563466 -4.25781,-4.304688 -1.61977,-0.741222 -2.96948,-0.847656 -4.07618,-0.847656 z m 2.14649,14.621094 c 0.0625,-0.03063 0.0225,0.07603 -0.31836,0.1875 0.0728,-0.03996 0.28964,-0.173419 0.31836,-0.1875 z m -15.80078,6.425781 c -6.9e-4,1.62e-4 -0.007,0.0037 -0.008,0.0039 l -0.0137,0.002 c 0.007,-0.0016 0.0148,-0.0043 0.0215,-0.0059 z M 285.30469,66.542969 h 6.28711 c -0.34169,0.333665 -0.71782,0.588356 -1.05274,0.9375 a 7.50075,7.50075 0 0 0 -3.54101,2.46875 c -0.42491,-0.386039 -1.0189,-0.767247 -1.20313,-1.117188 -0.71115,-1.350866 -0.49023,-1.658602 -0.49023,-1.376953 z m -6.08203,4.621093 0.0527,0.01367 c -0.0121,-0.0033 -0.025,-0.0025 -0.0371,-0.0059 -0.006,-0.0016 -0.01,-0.0063 -0.0156,-0.0078 z m 67.57031,0 0.0508,0.01367 c -0.0109,-0.003 -0.0223,-0.0029 -0.0332,-0.0059 -0.006,-0.0017 -0.0112,-0.0061 -0.0176,-0.0078 z m 121.82031,4.316407 c 0.002,0.0075 -0.0611,0.177081 0.63477,0.822265 0.19493,0.181145 0.3212,0.402496 0.49414,0.603516 -1.57247,0.02724 -3.24696,0.121094 -5.27344,0.121094 h -0.52539 c 1.18381,-1.043269 2.0522,-1.400391 3.64453,-1.400391 0.95751,0 1.02325,-0.153939 1.02539,-0.146484 z m -189.83789,5.792968 c -0.003,0.0078 -0.001,0.03151 -0.004,0.03906 -0.16073,0.0521 10e-4,-0.0055 -0.22851,0.06836 a 7.50075,7.50075 0 0 0 0.23242,-0.107422 z m 25.96289,0.402344 c 3.72157,0 5.84827,0.97823 8.37109,3.962891 2.28626,2.704779 3.82618,6.951464 3.82618,13.804687 0,3.158691 -0.39401,5.919671 -1.11133,8.351561 -0.73097,2.4654 -1.6928,4.35523 -2.81445,5.83594 a 7.50075,7.50075 0 0 0 -0.002,0.002 c -1.14163,1.5084 -2.32646,2.50089 -3.71289,3.23242 -1.28586,0.67847 -2.61643,1.02344 -4.4082,1.02344 -2.41095,0 -3.03685,-0.45265 -3.51953,-0.93164 -0.23353,-0.23173 -0.91376,-1.15553 -0.91602,-4.26953 v -0.004 -25.130856 c 0,-3.481458 0.78565,-4.980674 1.02149,-5.263672 0.0534,-0.06458 0.41568,-0.613281 3.26562,-0.613281 z m 67.56836,0 c 3.72022,0 5.84803,0.979466 8.36914,3.962891 a 7.50075,7.50075 0 0 0 0.002,0 c 2.28626,2.704779 3.82422,6.951464 3.82422,13.804687 0,3.160011 -0.39404,5.920411 -1.11133,8.349611 -0.73144,2.46771 -1.69139,4.3579 -2.8125,5.83789 a 7.50075,7.50075 0 0 0 -0.002,0.002 c -1.14079,1.50729 -2.32813,2.50239 -3.71484,3.23438 -1.28516,0.67768 -2.61553,1.02148 -4.40625,1.02148 -2.4083,0 -3.0372,-0.44972 -3.52149,-0.92969 -2e-4,-2e-4 2.1e-4,-0.002 0,-0.002 -0.23373,-0.23183 -0.91293,-1.15414 -0.91406,-4.26953 v -0.002 -25.132816 c 0,-3.477678 0.78139,-4.974775 1.01758,-5.259765 0.054,-0.06472 0.41393,-0.617188 3.26953,-0.617188 z m -93.58789,0.0098 c -0.20696,0.44231 -0.41611,0.482769 -0.42383,0.49414 -0.0131,0.01934 0.19542,-0.246652 0.42383,-0.49414 z m -1.27539,3.341797 c 0.0476,-0.02321 -0.0285,0.186249 -0.65625,0.34375 0.27317,-0.143425 0.60457,-0.31856 0.65625,-0.34375 z m 176.19531,11.162109 h 1.33203 c -0.81778,0.228311 -1.31235,0.0039 -1.34179,0.0039 a 7.50075,7.50075 0 0 0 0.01,-0.0039 z m -45.67578,17.880853 v 1.51758 c -0.2432,0.0174 -0.53128,0.13785 -0.79297,0.18164 0.2743,-0.56026 0.54203,-1.12333 0.79297,-1.69922 z m 19.54883,14.78906 c 0.0347,0.0157 0.0745,0.0236 0.10937,0.0391 0.0139,0.006 0.0251,0.0194 0.0391,0.0254 z m -12.61719,0.40821 -0.0918,0.0312 c 0.008,-0.003 0.0189,-0.0109 0.0274,-0.0137 0.0214,-0.007 0.043,-0.0103 0.0644,-0.0176 z m -60.79883,23.79687 -0.006,0.0117 c 0.002,-0.003 4.4e-4,-0.005 0.002,-0.008 9.2e-4,-0.002 0.003,-0.002 0.004,-0.004 z m 5.84961,4.82813 c 0.0755,0.0342 0.16801,0.0331 0.24414,0.0664 0.0651,0.0259 0.13693,0.0949 0.20117,0.11914 z m -67.56445,0.002 c 0.0762,0.0345 0.16929,0.0348 0.24609,0.0684 0.0635,0.0252 0.13455,0.0915 0.19727,0.11523 z m -12.4707,0.48828 -0.0742,0.0273 c 0.008,-0.003 0.0171,-0.0108 0.0254,-0.0137 0.016,-0.006 0.0328,-0.008 0.0488,-0.0137 z m 67.56836,0 -0.0742,0.0273 c 0.008,-0.003 0.0171,-0.0108 0.0254,-0.0137 0.016,-0.006 0.0328,-0.008 0.0488,-0.0137 z" id="path17"/>
            <path style="baseline-shift:baseline;display:inline;overflow:visible;vector-effect:none;stroke:none;enable-background:accumulate;stop-color:#000000;stop-opacity:1" d="m 292.803,74.042 c 0,0.628 0.149,0.94 0.446,0.94 0.296,0 0.69,-0.222 1.187,-0.672 l 1.485,-1.612 c 2.574,-2.689 5.197,-4.638 7.871,-5.848 2.673,-1.209 5.592,-1.814 8.761,-1.814 3.267,0 6.386,0.717 9.355,2.15 2.97,1.435 5.544,3.452 7.723,6.049 2.176,2.6 3.91,5.78 5.197,9.544 1.286,3.763 1.93,7.93 1.93,12.5 0,5.021 -0.747,9.59 -2.237,13.712 -1.49,4.122 -3.575,7.684 -6.257,10.685 a 28.16,28.16 0 0 1 -9.535,6.99 c -3.675,1.657 -7.75,2.487 -12.218,2.487 -4.668,0 -8.992,-1.032 -12.964,-3.091 l -0.596,0.402 -0.146,19.087 c 0,1.613 0.146,2.823 0.443,3.63 0.296,0.806 1.039,1.432 2.227,1.881 0.989,0.448 1.954,0.717 2.896,0.807 0.94,0.088 1.73,0.178 2.376,0.27 0.643,0.087 1.163,0.269 1.56,0.536 0.395,0.27 0.593,0.808 0.593,1.614 0,1.253 -1.039,1.882 -3.118,1.882 -9.66,-0.138 -17.747,-0.088 -25.244,0 -1.782,0 -2.673,-0.718 -2.673,-2.152 0,-1.256 0.543,-1.882 1.634,-1.882 1.088,0 2.376,-0.269 3.86,-0.806 1.286,-0.45 2.154,-1.075 2.599,-1.882 0.445,-0.807 0.668,-2.107 0.668,-3.898 V 84.794 c 0,-2.42 -0.348,-4.033 -1.039,-4.84 -0.694,-0.806 -1.461,-1.32 -2.302,-1.545 a 12.266,12.266 0 0 0 -2.302,-0.403 c -0.693,-0.045 -3.408,2.002 -3.408,1.105 0,-1.075 3.135,-4.375 4.671,-4.869 5.582,-3.426 7.348,-4.526 11.954,-7.594 1.286,-1.344 2.325,-2.016 3.12,-2.016 0.987,0 1.484,0.94 1.484,2.823 v 6.587 z m 3.281,48.239 c 2.089,2.073 5.023,3.108 8.803,3.108 2.884,0 5.52,-0.63 7.908,-1.89 2.388,-1.26 4.453,-3.041 6.193,-5.34 1.74,-2.297 3.082,-5.044 4.029,-8.242 0.943,-3.197 1.418,-6.687 1.418,-10.473 0,-8.017 -1.866,-14.232 -5.597,-18.646 -3.731,-4.414 -8.43,-6.622 -14.099,-6.622 -4.178,0 -7.188,1.105 -9.028,3.312 -1.84,2.208 -2.76,5.562 -2.76,10.065 v 25.134 c 0.002,4.324 1.046,7.523 3.133,9.594 z m 64.287,-48.239 c 0,0.628 0.148,0.94 0.445,0.94 0.297,0 0.69,-0.222 1.188,-0.672 l 1.485,-1.612 c 2.573,-2.689 5.197,-4.638 7.871,-5.848 2.673,-1.209 5.591,-1.814 8.76,-1.814 3.268,0 6.387,0.717 9.356,2.15 2.97,1.435 5.544,3.452 7.723,6.049 2.176,2.6 3.909,5.78 5.197,9.544 1.286,3.763 1.93,7.93 1.93,12.5 0,5.021 -0.748,9.59 -2.237,13.712 -1.49,4.122 -3.576,7.684 -6.258,10.685 a 28.16,28.16 0 0 1 -9.534,6.99 c -3.675,1.657 -7.75,2.487 -12.219,2.487 -4.668,0 -8.991,-1.032 -12.963,-3.091 l -0.596,0.402 -0.147,19.087 c 0,1.613 0.147,2.823 0.443,3.63 0.297,0.806 1.04,1.432 2.228,1.881 0.988,0.448 1.954,0.717 2.896,0.807 0.94,0.088 1.73,0.178 2.376,0.27 0.643,0.087 1.162,0.269 1.56,0.536 0.394,0.27 0.593,0.808 0.593,1.614 0,1.253 -1.039,1.882 -3.118,1.882 -9.057,-0.188 -16.905,-0.031 -25.244,0 -1.782,0 -2.674,-0.718 -2.674,-2.152 0,-1.256 0.544,-1.882 1.635,-1.882 1.088,0 2.376,-0.269 3.86,-0.806 1.286,-0.45 2.154,-1.075 2.598,-1.882 0.446,-0.807 0.67,-2.107 0.67,-3.898 V 84.794 c 0,-2.42 -0.35,-4.033 -1.04,-4.84 -0.694,-0.806 -1.462,-1.32 -2.302,-1.545 a 12.266,12.266 0 0 0 -2.302,-0.403 c -0.694,-0.045 -3.408,1.114 -3.408,0.217 0,-1.075 3.134,-3.487 4.67,-3.981 4.695,-2.833 6.905,-4.674 11.955,-7.594 1.286,-1.344 2.325,-2.016 3.119,-2.016 0.988,0 1.484,0.94 1.484,2.823 z m 3.28,48.239 c 2.09,2.073 5.024,3.108 8.804,3.108 2.884,0 5.52,-0.63 7.908,-1.89 2.387,-1.26 4.453,-3.041 6.193,-5.34 1.74,-2.297 3.081,-5.044 4.028,-8.242 0.944,-3.197 1.418,-6.687 1.418,-10.473 0,-8.017 -1.866,-14.232 -5.597,-18.646 -3.73,-4.414 -8.43,-6.622 -14.098,-6.622 -4.178,0 -7.188,1.105 -9.029,3.312 -1.84,2.208 -2.759,5.562 -2.759,10.065 v 25.134 c 10e-4,4.324 1.045,7.523 3.133,9.594 z m 64.138,-5.898 c 0,2.957 0.939,4.84 2.822,5.646 0.791,0.359 1.582,0.56 2.376,0.604 0.792,0.047 1.508,0.114 2.153,0.202 0.643,0.09 1.163,0.293 1.56,0.605 0.394,0.315 0.593,0.874 0.593,1.68 0,1.256 -0.99,1.882 -2.97,1.882 -1.684,0 -3.61,-0.134 -5.778,-0.403 a 56.164,56.164 0 0 0 -6.919,-0.403 c -2.543,0 -4.826,0.134 -6.845,0.403 -2.022,0.27 -3.724,0.403 -5.11,0.403 -1.781,0 -2.673,-0.717 -2.673,-2.15 0,-1.255 0.495,-1.883 1.486,-1.883 1.088,0 2.424,-0.27 4.01,-0.806 1.385,-0.448 2.227,-1.053 2.523,-1.815 0.298,-0.76 0.445,-1.814 0.445,-3.159 V 47.292 c 0,-1.164 -0.323,-2.016 -0.965,-2.553 a 6.58,6.58 0 0 0 -2.228,-1.21 c -0.756,-0.238 -1.499,-0.507 -2.228,-0.807 -0.645,-0.27 -0.965,-0.672 -0.965,-1.21 0,-0.985 0.669,-1.634 2.004,-1.949 1.337,-0.313 2.894,-0.783 4.673,-1.411 3.425,-1.164 5.942,-2.262 7.557,-3.294 1.615,-1.03 2.666,-1.546 3.155,-1.546 0.783,0 1.272,0.224 1.469,0.672 0.197,0.45 0.298,1.075 0.298,1.882 0,1.166 -0.075,2.51 -0.224,4.033 a 52.928,52.928 0 0 0 -0.223,5.108 v 71.376 z m 25.84,-27.69 c -0.793,0 -1.287,0.135 -1.485,0.403 -0.2,0.269 -0.297,0.853 -0.297,1.747 v 3.226 c 0,8.335 1.953,14.92 5.865,19.76 3.91,4.838 8.985,7.258 15.222,7.258 2.77,0 5.172,-0.404 7.203,-1.21 2.027,-0.807 3.712,-1.701 5.05,-2.689 1.336,-0.985 2.166,-3.556 2.908,-4.363 0.741,-0.806 1.68,-1.628 1.978,-1.628 0.792,0 0.978,2.587 0.978,3.572 0,0.987 -0.593,2.285 -1.781,3.898 -1.188,1.613 -2.896,3.205 -5.124,4.771 -2.228,1.57 -4.877,2.937 -7.944,4.1 -3.07,1.164 -6.535,1.747 -10.395,1.747 -4.06,0 -7.748,-0.739 -11.064,-2.217 a 23.925,23.925 0 0 1 -8.54,-6.385 c -2.375,-2.777 -4.208,-6.137 -5.493,-10.081 -1.288,-3.942 -1.93,-8.378 -1.93,-13.308 0,-4.927 0.717,-9.386 2.153,-13.375 1.433,-3.986 3.438,-7.37 6.014,-10.148 2.573,-2.777 5.617,-4.927 9.133,-6.453 3.513,-1.522 7.35,-2.285 11.508,-2.285 3.565,0 6.831,0.561 9.802,1.68 2.97,1.122 5.494,2.622 7.573,4.504 a 19.92,19.92 0 0 1 4.827,6.586 c 1.137,2.51 1.708,5.198 1.708,8.064 0,1.166 -0.397,1.929 -1.188,2.286 -0.793,0.359 -2.08,0.537 -3.86,0.537 h -32.821 z m 23.678,-4.461 c 3.264,-0.097 3.934,1.927 1.121,-7.1 -0.666,-2.137 -2.052,-4.448 -4.08,-6.33 -2.03,-1.882 -3.594,-2.675 -6.761,-2.675 -3.468,0 -6.486,1.21 -9.059,3.63 -2.576,2.418 -4.257,5.467 -5.05,9.14 l -0.444,2.15 v 0.27 c 0,0.806 0.593,1.21 1.781,1.21 h 9.653 c 4.85,0 7.503,-0.048 12.84,-0.295 z" id="path18"/>
            <path style="fill:#040404;stroke:none;stroke-width:15;stroke-linecap:round;stroke-linejoin:round;stroke-dasharray:none;stroke-opacity:1;paint-order:markers stroke fill;baseline-shift:baseline;display:inline;overflow:visible;vector-effect:none;enable-background:accumulate;stop-color:#000000;stop-opacity:1" d="m 264.588,109.796 c 1.088,3.138 2.079,5.646 2.97,7.528 0.891,1.882 2.325,3.406 4.307,4.57 1.386,0.897 2.648,1.411 3.787,1.546 1.138,0.135 1.708,0.605 1.708,1.412 0,1.256 -1.039,1.882 -3.118,1.882 -1.287,0 -2.946,-0.135 -4.974,-0.404 -2.03,-0.268 -4.53,-0.402 -7.5,-0.402 -4.158,0 -7.5,0.112 -10.024,0.335 -2.523,0.225 -4.282,0.336 -5.271,0.336 -1.684,0 -2.524,-0.537 -2.524,-1.612 0,-1.433 0.988,-2.152 2.97,-2.152 2.474,0 4.107,-0.222 4.9,-0.672 0.793,-0.447 1.188,-1.297 1.188,-2.554 0,-1.163 -0.444,-3.179 -1.336,-6.048 l -5.792,-17.205 c -0.2,-0.717 -0.942,-1.075 -2.228,-1.075 h -18.413 c -0.298,0 -0.62,0.113 -0.966,0.335 a 1.49,1.49 0 0 0 -0.668,0.874 l -3.564,11.963 c -1.486,5.289 -2.228,8.738 -2.228,10.35 0,1.345 0.298,2.242 0.891,2.689 0.594,0.45 1.583,0.763 2.97,0.94 1.98,0.27 3.465,0.585 4.456,0.94 0.988,0.36 1.485,1.032 1.485,2.017 0,1.075 -0.842,1.613 -2.524,1.613 -1.09,0 -2.724,-0.134 -4.9,-0.403 -2.18,-0.27 -4.853,-0.403 -8.02,-0.403 -2.179,0 -4.083,0.113 -5.717,0.336 -1.634,0.222 -2.993,0.336 -4.084,0.336 -1.782,0 -2.673,-0.583 -2.673,-1.747 0,-0.718 0.249,-1.187 0.743,-1.412 0.497,-0.223 1.113,-0.38 1.856,-0.47 0.791,-0.094 1.584,-0.184 2.376,-0.27 0.84,-0.088 1.657,-0.403 2.45,-0.94 1.386,-0.895 2.425,-2.172 3.118,-3.831 0.692,-1.657 1.434,-3.697 2.228,-6.116 l 23.611,-69.36 c 0.395,-0.984 0.718,-1.768 0.966,-2.352 0.246,-0.581 0.766,-0.874 1.56,-0.874 1.088,0 1.781,0.584 2.079,1.748 0.298,1.165 0.791,2.689 1.485,4.57 z M 233.996,63.154 c -0.396,0 -0.693,0.36 -0.891,1.075 l -6.98,23.792 a 4.36,3.947 0 0 0 -0.148,0.94 v 0.403 c 0,0.538 0.346,0.807 1.039,0.807 h 14.85 c 0.297,0 0.593,-0.111 0.89,-0.336 0.298,-0.222 0.446,-0.47 0.446,-0.739 0,-0.178 -0.1,-0.626 -0.297,-1.344 l -8.019,-23.39 c -0.296,-0.804 -0.592,-1.208 -0.89,-1.208 z" id="path16"/>
        </g>
    </g>
    <g id="path3" style="opacity:1">
        <path style="baseline-shift:baseline;display:inline;overflow:visible;vector-effect:none;fill:#ffffff;stroke-linecap:round;stroke-linejoin:round;paint-order:markers stroke fill;enable-background:accumulate;stop-color:#000000;stop-opacity:1" d="m 613.45703,56.960937 c -5.67486,0 -11.13835,1.014578 -16.17578,3.09375 a 7.50075,7.50075 0 0 0 -0.004,0 c -4.934,2.038906 -9.34214,4.952766 -13,8.667969 -3.64361,3.699462 -6.50399,8.124979 -8.52343,13.066406 -2.07498,5.073405 -3.08204,10.576584 -3.08204,16.300782 0,5.364926 0.90277,10.517916 2.77344,15.279296 a 7.50075,7.50075 0 0 0 0.002,0.006 c 1.8361,4.66406 4.48279,8.85808 7.89062,12.35352 3.41363,3.50135 7.5471,6.24477 12.16602,8.15625 4.72046,1.95377 9.84793,2.90234 15.16406,2.90234 3.28738,0 6.46326,-0.27798 9.51562,-0.86133 a 7.50075,7.50075 0 0 0 0.004,-0.002 c 3.00334,-0.57629 5.8034,-1.40308 8.39062,-2.57422 2.67804,-1.21225 5.1389,-2.85043 7.10547,-5.08984 a 7.50075,7.50075 0 0 0 0,-0.002 c 0.1035,-0.11786 0.1536,-0.29326 0.25391,-0.41601 1.62559,2.69365 3.96408,4.98455 6.60742,6.20898 4.32829,2.0063 9.1983,2.73633 14.64063,2.73633 3.84172,0 7.59293,-0.65624 11.06836,-2.02344 a 7.50075,7.50075 0 0 0 0.004,-0.002 c 3.35148,-1.3208 6.41584,-3.22053 8.98047,-5.66992 a 7.50075,7.50075 0 0 0 0.002,-0.002 c 2.54921,-2.43606 4.57775,-5.38368 5.99024,-8.63281 a 7.50075,7.50075 0 0 0 0.004,-0.008 c 1.46513,-3.3814 2.17383,-7.07451 2.17383,-10.83203 0,-3.43472 -0.49199,-6.74852 -1.66992,-9.839846 a 7.50075,7.50075 0 0 0 -0.002,-0.0039 c -1.13616,-2.975847 -2.8445,-5.69992 -5.02539,-8.021484 -1.44739,-1.547943 -3.12494,-2.903478 -4.89844,-4.173828 2.22695,-0.283454 5.01349,-1.532616 6.39453,-3.550781 1.5483,-2.262579 1.6582,-4.229137 1.6582,-5.765625 0,-3.196476 0.01,-6.254857 -0.0605,-8.767578 -0.0351,-1.256361 -0.0822,-2.356543 -0.19922,-3.451172 -0.0585,-0.547315 -0.12411,-1.081261 -0.29297,-1.804688 -0.1662,-0.712007 -0.0206,-1.579133 -1.8125,-3.648437 -2.65114,-3.116029 -4.81633,-2.817878 -6.25977,-2.830078 -0.98308,-0.0083 -1.88255,0.158325 -2.82031,0.451171 -2.89981,-0.815158 -5.94271,-1.25 -9.1543,-1.25 -3.62988,0 -7.11237,0.501476 -10.36132,1.634766 -3.16131,1.102 -6.07991,2.764623 -8.52344,4.976563 -2.09979,1.900311 -3.73014,4.226728 -4.99414,6.751953 -0.0676,-0.595632 -0.0913,-1.377348 -0.15039,-2.056641 a 7.50075,7.50075 0 0 0 0,-0.0039 c -0.0146,-0.166878 -0.0846,-1.073618 -0.18946,-1.990235 -0.0524,-0.458308 -0.10794,-0.921637 -0.2207,-1.521484 -0.0564,-0.299923 -0.11369,-0.619394 -0.28125,-1.164062 -0.15975,-0.519293 0.15128,-1.230917 -2.03125,-3.304688 -3.21635,-3.273279 -5.37371,-2.336385 -6.13672,-2.3125 -0.78669,0.02463 -1.09077,-0.01796 -0.14453,0.04297 a 7.50075,7.50075 0 0 0 -0.0312,-0.002 c -1.07167,-0.0647 -1.9947,0.132822 -2.83398,0.427734 -1.70902,-0.445419 -3.50194,-0.794868 -5.41407,-1.056641 h -0.002 c -2.09332,-0.287293 -4.25658,-0.421875 -6.49414,-0.421875 z m 65.10938,12.777344 c -0.0683,0.126757 -0.0821,0.188779 -0.18164,0.328125 0.0453,-0.09924 0.15152,-0.246422 0.18164,-0.328125 z m -65.75391,4.94336 c 4.03243,0 4.76635,0.489639 6.3418,4.072265 a 7.50075,7.50075 0 0 0 0.0215,0.04687 c 0.418,0.932526 0.8075,1.877748 1.16797,2.833985 l -0.0176,-0.04687 c 1.00514,2.722898 5.13838,6.214843 8.69922,6.214843 2.02369,0 4.37232,-1.235906 6.02734,-2.736328 0.17204,1.512848 0.51773,2.979881 0.97071,4.41211 -0.92341,0.0774 -1.75865,0.130662 -3.01953,0.3125 a 7.50075,7.50075 0 0 0 -0.008,0.002 c -1.11406,0.161728 -3.51343,0.310547 -6.76172,0.310547 -2.86844,0 -5.05525,-0.137843 -6.29492,-0.314454 a 7.50075,7.50075 0 0 0 -0.01,0 c -1.9578,-0.276622 -3.23751,-0.46289 -4.86133,-0.46289 -1.53701,0 -3.62196,0.167106 -5.84961,1.826172 -2.22765,1.659065 -3.47656,4.907147 -3.47656,7.035156 0,1.83017 0.8337,5.30969 3.82226,7.23047 1.61998,1.04192 2.97143,1.30674 4.11328,1.46289 a 7.50075,7.50075 0 0 0 0.0137,0.002 c 0.10624,0.0143 0.21391,0.0163 0.32031,0.0293 v 9.02148 c 0,1.16153 -0.0765,2.13391 -0.18164,2.99024 -0.16422,0.0315 -0.42592,0.14062 -1.55274,0.14062 a 7.50075,7.50075 0 0 0 -0.0234,0 c -1.57701,0.005 -3.12865,-0.38622 -4.51563,-1.13672 a 7.50075,7.50075 0 0 0 -0.0254,-0.0137 c -1.54801,-0.82975 -2.91332,-1.98024 -4.22852,-3.71093 a 7.50075,7.50075 0 0 0 -0.004,-0.004 c -1.2999,-1.70898 -2.43689,-3.90123 -3.33008,-6.7168 -0.83901,-2.64403 -1.3125,-5.78814 -1.3125,-9.492186 0,-4.087875 0.47338,-7.623091 1.32617,-10.636718 0.88024,-3.103341 2.04181,-5.519616 3.38281,-7.386719 l 0.002,-0.0039 c 1.37485,-1.910182 2.79779,-3.16194 4.38086,-4.044922 a 7.50075,7.50075 0 0 0 0,-0.002 c 1.51855,-0.847319 2.98463,-1.234375 4.88281,-1.234375 z m 47.48828,0 c 0.44153,0 0.51655,0.01068 0.59766,0.01563 0.44195,0.472476 1.24414,1.554145 2.09961,3.488281 a 7.50075,7.50075 0 0 0 0.0605,0.134765 c 0.70696,1.516441 1.11556,2.635203 1.14453,2.736329 v -0.0039 c 0.1156,0.404129 0.36624,0.868138 0.56055,1.3125 -0.55723,-0.275836 -0.9944,-0.565852 -1.57226,-0.839843 a 7.50075,7.50075 0 0 0 -0.0234,-0.01172 c -2.97267,-1.39636 -4.83927,-2.741677 -5.44727,-3.351563 a 7.50075,7.50075 0 0 0 -0.004,-0.002 c -0.19668,-0.197048 -0.22461,0.02794 -0.22461,-1 0,-1.61971 0.2054,-1.684321 0.46679,-1.9375 l 0.002,-0.002 c 6.3e-4,-6.15e-4 0.001,-0.0013 0.002,-0.002 0.24656,-0.240214 0.50423,-0.537109 2.33789,-0.537109 z M 645.6582,101.9668 c 0.81713,0.55029 1.63003,1.10649 2.50586,1.58593 a 7.50075,7.50075 0 0 0 0.004,0.002 c 2.06677,1.12962 4.1478,2.23095 6.24414,3.30469 a 7.50075,7.50075 0 0 0 0.0176,0.008 c 3.50386,1.7837 5.76553,3.56273 6.89843,4.8789 1.02432,1.18951 1.24415,1.86027 1.24415,3.13672 0,0.7861 -0.1206,1.28202 -0.3125,1.73242 -0.26108,0.61167 -0.53162,0.98837 -0.86915,1.32813 -0.34105,0.33626 -0.74463,0.60341 -1.18945,0.78125 a 7.50075,7.50075 0 0 0 -0.0449,0.0176 c -0.55014,0.22404 -1.03803,0.32226 -1.67969,0.32226 -1.05411,0 -1.84254,-0.21083 -3.15429,-1.20312 a 7.50075,7.50075 0 0 0 -0.004,-0.002 c -1.07331,-0.8108 -1.89732,-1.87997 -2.58789,-4 -0.18595,-0.59036 -0.31322,-1.116 -0.38867,-1.56446 a 7.50075,7.50075 0 0 0 -0.004,-0.0254 l -0.37695,-2.1875 a 7.50075,7.50075 0 0 0 -0.002,-0.0137 c -0.2104,-1.20931 -0.53399,-2.52456 -1.44726,-4.04102 a 7.50075,7.50075 0 0 0 -0.002,-0.004 c -1.10362,-1.83076 -3.17326,-2.89621 -5.14844,-3.51367 0.10062,-0.18168 0.21048,-0.35906 0.29687,-0.54297 z m -29.1289,5.19336 c 0.0866,0.0103 0.17338,0.0191 0.25976,0.0312 0.25984,0.10781 0.14424,0.18167 -0.25976,-0.0312 z m 49.28515,25.47461 -0.0449,0.0176 c 0.007,-0.003 0.0127,-0.007 0.0195,-0.01 0.008,-0.003 0.0172,-0.004 0.0254,-0.008 z" id="path19"/>
        <path style="baseline-shift:baseline;display:inline;overflow:visible;vector-effect:none;fill:#040404;stroke-linecap:round;stroke-linejoin:round;paint-order:markers stroke fill;enable-background:accumulate;stop-color:#000000;stop-opacity:1" d="m 621.511,104.423 c 0,-1.69 -0.16,-2.796 -0.483,-3.317 -0.322,-0.52 -1.2,-0.943 -2.63,-1.268 a 20.188,20.188 0 0 0 -2.094,-0.243 18.293,18.293 0 0 1 -1.61,-0.145 c -0.468,-0.064 -0.825,-0.178 -1.076,-0.34 -0.25,-0.16 -0.375,-0.47 -0.375,-0.923 0,-0.908 0.608,-1.36 1.825,-1.36 0.716,0 1.987,0.13 3.813,0.388 1.825,0.26 4.276,0.389 7.354,0.389 3.436,0 6.048,-0.129 7.839,-0.389 1.789,-0.258 2.934,-0.389 3.436,-0.389 1.074,0 1.61,0.423 1.61,1.264 0,0.454 -0.125,0.777 -0.375,0.972 -0.252,0.194 -0.574,0.325 -0.967,0.389 -0.462,0.072 -0.928,0.121 -1.395,0.145 a 13.39,13.39 0 0 0 -1.772,0.243 c -1.289,0.26 -2.095,0.665 -2.416,1.215 -0.322,0.552 -0.483,1.669 -0.483,3.353 v 14.773 c 0,1.491 -0.555,2.867 -1.664,4.13 -1.11,1.264 -2.63,2.333 -4.563,3.208 -1.933,0.875 -4.172,1.554 -6.71,2.041 -2.543,0.486 -5.245,0.729 -8.108,0.729 -4.44,0 -8.537,-0.778 -12.294,-2.333 -3.758,-1.555 -6.98,-3.709 -9.665,-6.463 -2.684,-2.753 -4.777,-6.042 -6.282,-9.865 -1.502,-3.823 -2.254,-8.002 -2.254,-12.538 0,-4.86 0.84,-9.346 2.523,-13.461 1.681,-4.114 3.99,-7.662 6.926,-10.643 2.934,-2.98 6.441,-5.312 10.521,-6.998 4.08,-1.684 8.519,-2.527 13.315,-2.527 1.933,0 3.758,0.118 5.477,0.354 1.717,0.235 3.274,0.537 4.67,0.907 1.395,0.37 2.577,0.771 3.543,1.203 0.29,0.129 0.338,-1.441 0.603,-1.425 0.497,0.032 1.289,-0.156 1.54,0.115 0.234,0.212 0.424,2.72 0.475,3.303 0.299,3.439 0.657,4.652 0.657,8.663 0,1.815 -0.466,2.722 -1.396,2.722 -0.788,0 -1.341,-0.437 -1.664,-1.312 a 57.84,57.84 0 0 0 -1.342,-3.256 c -2.507,-5.701 -6.91,-8.553 -13.207,-8.553 -3.08,0 -5.924,0.728 -8.537,2.186 -2.614,1.458 -4.885,3.533 -6.818,6.22 -1.933,2.69 -3.435,5.93 -4.51,9.72 -1.073,3.79 -1.61,8.018 -1.61,12.683 0,4.342 0.554,8.262 1.664,11.76 1.11,3.499 2.613,6.496 4.51,8.99 1.896,2.495 4.116,4.422 6.657,5.784 a 16.93,16.93 0 0 0 8.108,2.04 c 2.075,0 3.72,-0.26 4.939,-0.78 1.216,-0.52 2.147,-1.252 2.792,-2.195 0.644,-0.943 1.055,-2.065 1.235,-3.365 0.178,-1.3 0.268,-2.73 0.268,-4.29 z m 22.091,-29.935 a 15.294,15.294 0 0 1 3.812,-5.355 c 1.646,-1.49 3.633,-2.644 5.96,-3.455 2.325,-0.811 4.955,-1.218 7.892,-1.218 3.006,0 5.672,0.384 7.999,1.151 a 26.5,26.5 0 0 1 2.546,0.97 c 0.16,0.073 0.228,-0.995 0.517,-1.137 0.505,-0.248 1.26,-0.254 1.493,0.025 0.572,0.65 0.545,6.378 0.545,12.792 0,1.361 -0.466,2.041 -1.396,2.041 -0.788,0 -1.307,-0.437 -1.557,-1.311 -0.251,-0.876 -0.77,-2.154 -1.556,-3.84 -1.146,-2.591 -2.4,-4.568 -3.759,-5.928 -1.36,-1.361 -3.293,-2.042 -5.798,-2.042 -3.221,0 -5.744,0.889 -7.57,2.665 -1.825,1.777 -2.737,4.215 -2.737,7.314 0,2.585 0.805,4.684 2.416,6.298 1.61,1.615 4.134,3.23 7.57,4.844 2.862,1.357 5.403,2.714 7.624,4.07 2.217,1.357 4.097,2.859 5.636,4.506 a 16.96,16.96 0 0 1 3.49,5.57 c 0.788,2.068 1.18,4.458 1.18,7.17 0,2.843 -0.52,5.458 -1.556,7.849 -1.039,2.39 -2.47,4.457 -4.295,6.201 -1.825,1.743 -4.01,3.116 -6.55,4.117 -2.542,1 -5.315,1.502 -8.322,1.502 -4.724,0 -8.554,-0.68 -11.489,-2.041 -2.936,-1.36 -4.402,-3.433 -4.402,-6.22 0,-1.101 0.035,-2.17 0.107,-3.208 0.07,-1.036 0.108,-2.007 0.108,-2.916 0,-0.712 -0.018,-1.278 -0.054,-1.7 -0.037,-0.422 -0.053,-0.696 -0.053,-0.827 0,-2.008 0.537,-3.013 1.61,-3.013 0.5,0 0.86,0.179 1.074,0.534 0.215,0.357 0.376,0.843 0.483,1.458 l 0.376,2.186 c 0.142,0.844 0.357,1.718 0.645,2.624 1.073,3.305 2.807,5.866 5.207,7.679 2.398,1.814 4.956,2.722 7.678,2.722 1.573,0 3.076,-0.293 4.51,-0.877 a 11.098,11.098 0 0 0 3.703,-2.433 c 1.038,-1.039 1.861,-2.272 2.47,-3.7 0.608,-1.427 0.913,-2.983 0.913,-4.672 0,-2.985 -1.02,-5.661 -3.06,-8.03 -2.04,-2.37 -5.1,-4.592 -9.18,-6.669 a 255.707,255.707 0 0 1 -6.067,-3.211 c -1.898,-1.039 -3.543,-2.239 -4.94,-3.603 -1.395,-1.362 -2.506,-2.984 -3.329,-4.867 -0.824,-1.88 -1.235,-4.25 -1.235,-7.106 -0.002,-2.53 0.445,-4.832 1.341,-6.91 z" id="path20"/>
    </g>
    <g style="fill:#040404;stroke-width:15;stroke-dasharray:none;stroke:#ffffff;stroke-opacity:1;paint-order:markers stroke fill;stroke-linejoin:round;stroke-linecap:round" id="g12">
        <g id="path4" style="opacity:1" transform="translate(-4.737 4.562)">
            <path style="baseline-shift:baseline;display:inline;overflow:visible;vector-effect:none;fill:#ffffff;stroke:none;enable-background:accumulate;stop-color:#000000;stop-opacity:1" d="m 521.3418,32.542969 c -1.79806,0 -4.25527,0.336317 -6.50977,2.240234 -2.2545,1.903917 -3.21875,5.034999 -3.21875,7.142578 0,1.91033 0.53095,5.503078 3.96289,7.710938 1.72341,1.11283 3.19941,1.417908 4.51172,1.597656 0.59337,0.08275 1.18238,0.08348 1.77148,0.115234 v 60.740231 c 0,0.43401 -0.0147,0.64515 -0.0195,1.02149 -0.77061,0.0245 -1.54217,0.0489 -2.30468,0.16601 a 7.50075,7.50075 0 0 0 -0.084,0.0137 c -1.45844,0.24084 -3.16623,0.81234 -4.7168,2.01953 -2.58967,2.01401 -3.41796,5.26539 -3.41796,7.26172 0,2.5276 1.57691,6.10309 4.02148,7.78906 2.44457,1.68597 4.69717,1.86328 6.59766,1.86328 a 7.50075,7.50075 0 0 0 0.041,0 c 9.27398,-0.0514 18.6549,0.0664 29.54688,0.0195 0.90755,0 1.86908,0.003 3.34961,-0.45117 1.48053,-0.45418 3.76213,-1.90927 4.86132,-3.89063 2.1984,-3.9627 1.03516,-5.09433 1.03516,-5.06054 0,-1.93109 -0.54117,-4.87994 -2.9707,-7.0918 a 7.50075,7.50075 0 0 0 -0.0273,-0.0234 c -1.65638,-1.49408 -3.64888,-2.19957 -5.30664,-2.45117 a 7.50075,7.50075 0 0 0 -0.0273,-0.004 c -0.72325,-0.10714 -1.45748,-0.12022 -2.19141,-0.14843 -0.005,-0.3849 -0.0195,-0.57735 -0.0195,-1.03321 V 51.294922 c 0.70644,-0.05286 1.40842,-0.104241 2.07617,-0.205078 1.34196,-0.19933 2.92663,-0.535202 4.73243,-1.892578 a 7.50075,7.50075 0 0 0 0.006,-0.0059 c 3.01139,-2.268722 3.43164,-5.458401 3.43164,-7.265625 0,-2.105587 -0.96223,-5.235368 -3.2168,-7.140625 -2.25457,-1.905257 -4.71366,-2.242187 -6.51172,-2.242187 -1.9338,0 -3.37083,0.246141 -5.86133,0.61914 a 7.50075,7.50075 0 0 0 -0.0137,0.002 c -1.71752,0.260122 -4.77929,0.453125 -8.82617,0.453125 -4.04898,0 -7.10804,-0.19291 -8.82617,-0.453125 a 7.50075,7.50075 0 0 0 -0.01,0 c -2.49403,-0.374734 -3.93687,-0.621093 -5.86523,-0.621093 z m 23.83789,4.298828 c -0.0187,0.0036 -0.0418,0.01006 -0.0606,0.01367 -0.009,0.0018 -0.0183,0.0021 -0.0273,0.0039 z m -8.875,6.341797 c -0.003,0.0067 -0.001,0.01093 -0.004,0.01758 -10e-4,0.0025 -0.003,0.0034 -0.004,0.0059 z m 0.0215,77.509766 c 0.003,0.008 0.0103,0.0136 0.0137,0.0215 0.007,0.0156 0.007,0.0293 0.0137,0.0449 z m 3.96289,4.77148 c 0.0271,0.018 0.0511,0.0234 0.0781,0.041 0.0125,0.008 0.0206,0.0213 0.0332,0.0293 z m 4.27344,1.86719 c 0.0173,0.005 0.0374,0.003 0.0547,0.008 0.0534,0.0147 0.10669,0.0383 0.16015,0.0527 z m -18.05469,0.21094 -0.23437,0.0586 c 0.0417,-0.01 0.0815,-0.0353 0.12304,-0.0449 0.0364,-0.009 0.075,-0.004 0.11133,-0.0137 z" id="path21"/>
            <path style="baseline-shift:baseline;display:inline;overflow:visible;vector-effect:none;stroke:none;enable-background:accumulate;stop-color:#000000;stop-opacity:1" d="m 542.726,112.09 c 0,1.434 0.023,2.599 0.074,3.494 0.05,0.897 0.197,1.637 0.446,2.217 a 3.088,3.088 0 0 0 1.188,1.412 c 0.543,0.36 1.31,0.672 2.301,0.94 0.892,0.27 1.732,0.403 2.525,0.403 0.791,0 1.485,0.047 2.079,0.135 0.593,0.09 1.063,0.292 1.41,0.605 0.346,0.315 0.52,0.83 0.52,1.546 0,1.257 0.333,1.902 -1.746,1.902 -10.833,0.047 -20.213,-0.072 -29.588,-0.02 -2.079,0 -3.118,-0.716 -3.118,-2.151 0,-0.625 0.172,-1.075 0.52,-1.344 0.345,-0.27 0.791,-0.448 1.336,-0.538 a 11.67,11.67 0 0 1 1.856,-0.135 8.23,8.23 0 0 0 2.08,-0.268 c 1.186,-0.27 2.101,-0.583 2.746,-0.94 0.643,-0.358 1.114,-0.829 1.411,-1.413 0.297,-0.581 0.469,-1.344 0.52,-2.284 0.049,-0.94 0.074,-2.128 0.074,-3.562 V 50.527 c 0,-2.15 -0.174,-3.606 -0.52,-4.369 -0.348,-0.76 -1.261,-1.364 -2.747,-1.814 -0.99,-0.269 -1.93,-0.403 -2.821,-0.403 -0.793,0 -1.511,-0.044 -2.154,-0.134 -0.645,-0.088 -1.14,-0.246 -1.485,-0.471 -0.348,-0.222 -0.52,-0.693 -0.52,-1.411 0,-1.255 0.743,-1.882 2.228,-1.882 0.792,0 2.376,0.18 4.752,0.537 2.377,0.36 5.692,0.538 9.95,0.538 4.256,0 7.573,-0.178 9.95,-0.538 2.377,-0.356 3.958,-0.537 4.752,-0.537 1.485,0 2.227,0.627 2.227,1.882 0,0.627 -0.148,1.054 -0.444,1.277 -0.298,0.224 -0.743,0.382 -1.337,0.47 -0.594,0.09 -1.288,0.158 -2.08,0.202 a 18.48,18.48 0 0 0 -2.523,0.335 c -1.883,0.36 -2.996,0.964 -3.341,1.815 -0.349,0.853 -0.52,2.352 -0.52,4.503 z" id="path22"/>
        </g>
        <g id="path5" style="opacity:1" transform="translate(-4.737 4.562)">
            <path style="baseline-shift:baseline;display:inline;overflow:visible;vector-effect:none;fill:#ffffff;stroke:none;enable-background:accumulate;stop-color:#000000;stop-opacity:1" d="m 552.82227,32.542969 c -1.79785,0 -4.25656,0.335112 -6.51172,2.240234 -2.25517,1.905123 -3.2168,5.036991 -3.2168,7.142578 0,1.910799 0.52343,5.496631 3.95508,7.708985 1.71878,1.110852 3.2046,1.419293 4.52344,1.599609 0.59147,0.08236 1.17986,0.08353 1.76757,0.115234 v 60.738281 c 0,0.43492 -0.0167,0.64654 -0.0215,1.02344 -0.77054,0.0245 -1.54225,0.0489 -2.30469,0.16601 a 7.50075,7.50075 0 0 0 -0.084,0.0137 c 1.15536,-0.19115 1.14495,-0.0754 0.47656,-0.0879 -0.66565,-0.0124 -2.56476,-0.53243 -5.46484,1.7207 -2.44485,1.89516 -2.96437,4.71161 -2.97461,6.0332 -0.0103,1.32645 0.20662,1.95607 0.35351,2.45508 0.2802,0.95186 0.49242,1.34036 0.6543,1.6875 0.0211,0.1944 -0.0192,0.12678 0.0234,0.39648 0.21105,1.33527 2.03403,4.8201 4.40234,5.94532 2.36831,1.12521 3.29288,0.79985 3.83398,0.79882 0.54111,-0.001 0.80725,-0.0156 1.17969,-0.0156 a 7.50075,7.50075 0 0 0 0.0918,-0.002 c 8.1705,-0.0982 18.09614,-0.24216 27.94141,0 a 7.50075,7.50075 0 0 0 0.18359,0.002 c 1.79106,0 3.79533,-0.0908 6.21094,-1.54688 2.4156,-1.45609 4.4082,-5.13902 4.4082,-7.83593 0,-1.93807 -0.54455,-4.87594 -2.96289,-7.08399 a 7.50075,7.50075 0 0 0 -0.041,-0.0391 c -1.64617,-1.48061 -3.64179,-2.19157 -5.30078,-2.44336 a 7.50075,7.50075 0 0 0 -0.0254,-0.004 c -0.72345,-0.10717 -1.4589,-0.12023 -2.19336,-0.14843 -0.005,-0.38545 -0.0215,-0.57588 -0.0215,-1.03321 l 0.002,-60.794918 c 0.70066,-0.05241 1.39746,-0.103325 2.06055,-0.203125 l 0.008,-0.002 c 1.344,-0.199145 2.93645,-0.538479 4.73633,-1.890625 l 0.002,-0.002 c 3.01421,-2.264734 3.43946,-5.464745 3.43945,-7.271485 10e-6,-2.107579 -0.96289,-5.238526 -3.21679,-7.142578 -2.2539,-1.904051 -4.7115,-2.240234 -6.50977,-2.240234 -1.9338,0 -3.37443,0.246096 -5.86523,0.61914 a 7.50075,7.50075 0 0 0 -0.0117,0.002 c -1.71553,0.259929 -4.77929,0.453125 -8.82617,0.453125 -4.04898,0 -7.10999,-0.19291 -8.82813,-0.453125 a 7.50075,7.50075 0 0 0 -0.008,0 c -2.49359,-0.374826 -3.93643,-0.621093 -5.86523,-0.621093 z m 14.96679,10.634765 c -0.003,0.0082 -0.002,0.01326 -0.006,0.02148 -0.002,0.0055 -0.006,0.0081 -0.008,0.01367 z m -15.07617,74.011716 c 0.0241,0.002 0.10278,0.0397 0.12891,0.043 -0.23469,0.004 -0.6182,0.008 -0.63672,0.008 -0.0176,4e-5 0.11061,-0.0881 0.50781,-0.0508 z m 28.91797,0.0352 0.18359,0.002 c -0.0681,-0.002 -0.12138,0.002 -0.18945,0 -0.001,10e-6 0.007,-0.002 0.006,-0.002 z m -13.82422,3.46875 c 0.003,0.007 0.009,0.0125 0.0117,0.0195 0.005,0.0129 0.006,0.0242 0.0117,0.0371 z m -0.875,0.64062 -0.0117,0.0234 c 0.003,-0.005 0.003,-0.0102 0.006,-0.0156 0.001,-0.003 0.004,-0.005 0.006,-0.008 z m -22.88477,3.93946 c 0.12032,0.26333 0.22846,0.49706 0.2168,0.46875 -0.008,-0.0186 -0.11491,-0.11027 -0.2168,-0.46875 z m 27.72266,0.1914 c 0.0271,0.018 0.0511,0.0234 0.0781,0.041 0.0125,0.008 0.0206,0.0213 0.0332,0.0293 z m 4.27344,1.86719 c 0.0186,0.006 0.04,0.004 0.0586,0.01 0.0526,0.0145 0.10551,0.0365 0.15821,0.0508 z m -18.05469,0.21094 -0.23633,0.0586 c 0.0415,-0.009 0.0817,-0.0334 0.12305,-0.043 0.0371,-0.009 0.0763,-0.006 0.11328,-0.0156 z m -5.59375,0.5957 c -0.76136,0.15344 -1.22544,0.0633 -1.26758,0.0625 -0.0446,-8.3e-4 0.79761,-0.0597 1.26758,-0.0625 z" id="path23"/>
            <path style="baseline-shift:baseline;display:inline;overflow:visible;vector-effect:none;stroke:none;enable-background:accumulate;stop-color:#000000;stop-opacity:1" d="m 574.206,112.09 c 0,1.434 0.023,2.599 0.075,3.494 0.049,0.897 0.197,1.637 0.445,2.217 a 3.088,3.088 0 0 0 1.188,1.412 c 0.543,0.36 1.31,0.672 2.302,0.94 0.892,0.27 1.731,0.403 2.524,0.403 0.792,0 1.486,0.047 2.08,0.135 0.593,0.09 1.062,0.292 1.41,0.605 0.345,0.315 0.52,0.83 0.52,1.546 0,1.257 -1.04,1.882 -3.119,1.882 -10.042,-0.247 -20.063,-0.098 -28.216,0 -2.079,0 -2.034,0.245 -2.034,-1.19 0,-0.625 -1.2,-2.417 -0.851,-2.685 0.345,-0.27 1.079,-0.068 1.623,-0.158 a 11.67,11.67 0 0 1 1.857,-0.135 8.23,8.23 0 0 0 2.079,-0.268 c 1.187,-0.27 2.102,-0.583 2.747,-0.94 0.642,-0.358 1.113,-0.829 1.41,-1.413 0.298,-0.581 0.47,-1.344 0.52,-2.284 0.049,-0.94 0.074,-2.128 0.074,-3.563 v -61.56 c 0,-2.152 -0.174,-3.607 -0.519,-4.37 -0.348,-0.76 -1.262,-1.364 -2.748,-1.814 -0.99,-0.269 -1.93,-0.403 -2.821,-0.403 -0.793,0 -1.51,-0.044 -2.153,-0.134 -0.646,-0.088 -1.14,-0.246 -1.486,-0.471 -0.347,-0.222 -0.519,-0.693 -0.519,-1.411 0,-1.255 0.742,-1.882 2.228,-1.882 0.791,0 2.376,0.18 4.751,0.537 2.377,0.36 5.692,0.538 9.95,0.538 4.256,0 7.574,-0.178 9.95,-0.538 2.377,-0.356 3.959,-0.537 4.753,-0.537 1.484,0 2.227,0.627 2.227,1.882 0,0.627 -0.148,1.054 -0.445,1.277 -0.298,0.224 -0.742,0.382 -1.337,0.47 -0.593,0.09 -1.287,0.158 -2.079,0.202 -0.793,0.047 -1.633,0.158 -2.524,0.335 -1.882,0.36 -2.996,0.964 -3.34,1.815 -0.35,0.853 -0.52,2.352 -0.52,4.503 z" id="path24"/>
        </g>
        <g id="path6" style="opacity:1" transform="translate(-4.737 4.562)">
            <path style="baseline-shift:baseline;display:inline;overflow:visible;vector-effect:none;fill:#ffffff;stroke:none;enable-background:accumulate;stop-color:#000000;stop-opacity:1" d="m 148.01172,7.4550781 -0.44531,0.083984 c -11.76433,2.2442281 -21.54358,7.0318185 -28.31836,14.6972655 -6.77516,7.665864 -10.13649,17.87281 -10.35938,29.392578 a 7.50075,7.50075 0 0 0 0,0.01367 l -0.006,0.396484 a 7.50075,7.50075 0 0 0 8.55469,7.556641 l 0.42188,-0.05859 a 7.50075,7.50075 0 0 0 0.0273,-0.0039 c 11.20398,-1.636499 20.52731,-5.625155 27.25,-12.5 7.58854,-7.761781 11.28175,-18.62359 11.76172,-31.509765 a 7.50075,7.50075 0 0 0 0,-0.01367 l 0.0156,-0.423828 a 7.50075,7.50075 0 0 0 -8.90234,-7.6308599 z m -7.64258,17.9003909 c -1.26183,4.70568 -3.20585,8.377417 -5.95703,11.191406 -2.31513,2.367527 -5.33336,4.236282 -9.14258,5.693359 1.10718,-4.00752 2.8151,-7.350657 5.21875,-10.070312 2.42378,-2.742425 5.73195,-5.001333 9.88086,-6.814453 z" id="path25"/>
            <path style="baseline-shift:baseline;display:inline;overflow:visible;vector-effect:none;fill:#008000;stroke:none;enable-background:accumulate;stop-color:#000000;stop-opacity:1" d="m 139.774,41.79 c 6.045,-6.183 9.194,-14.866 9.629,-26.545 l 0.015,-0.424 -0.445,0.085 c -21.228,4.049 -32.19,16.453 -32.585,36.868 l -0.007,0.397 0.422,-0.06 c 10.112,-1.477 17.626,-4.854 22.972,-10.321 z" id="path26"/>
        </g>
        <path style="fill:#ffffff;stroke-width:15;stroke-dasharray:none;stroke:none;stroke-opacity:1;paint-order:markers stroke fill;stroke-linejoin:round;stroke-linecap:round;opacity:1;baseline-shift:baseline;display:inline;overflow:visible;vector-effect:none;enable-background:accumulate;stop-color:#000000;stop-opacity:1" d="m 66.720703,139.29492 a 7.50075,7.50075 0 0 0 -6.013672,11.98438 l 0.390625,0.52148 c 3.756033,5.05032 8.031321,9.92428 12.720703,14.52149 a 7.50075,7.50075 0 0 0 0,0.002 c 5.231937,5.12792 12.565929,7.26367 20.369141,7.26367 5.769584,0 11.32351,-0.99742 16.14453,-3.53906 l 0.002,-0.002 c 5.49847,-2.89715 6.41518,-2.55251 8.90625,-2.55468 0.53283,0 1.12901,-3e-4 1.82227,-0.0371 a 7.50075,7.50075 0 0 0 0.0606,-0.004 l 0.39062,-0.0234 c 0.55978,-0.0331 0.9388,-0.0547 1.29102,-0.0547 1.30784,0 2.81005,-0.0522 8.0664,2.71679 a 7.50075,7.50075 0 0 0 0.75977,0.34766 c 4.9401,1.93446 9.93481,2.99609 14.85742,2.99609 h 0.002 c 13.36651,0 25.06264,-8.25974 34.23829,-21.94726 l 0.002,-0.004 0.33984,-0.50781 a 7.50075,7.50075 0 0 0 -6.22656,-11.67969 z m 16.353516,15 h 26.101561 c -1.81352,0.61085 -3.74335,1.3797 -5.83594,2.48242 a 7.50075,7.50075 0 0 0 -0.002,0.002 c -1.43645,0.75747 -5.572881,1.80859 -9.15039,1.80859 -4.951778,0 -8.358657,-1.49877 -9.867188,-2.97656 -0.436795,-0.42821 -0.818036,-0.88337 -1.246093,-1.31641 z m 49.042971,0 h 26.08203 c -3.83619,2.84179 -7.64405,4.13867 -11.70899,4.13867 h -0.002 c -2.75046,0 -5.90456,-0.60262 -9.36914,-1.95703 -1.79822,-0.90964 -3.45489,-1.62048 -5.00195,-2.18164 z" id="path27" transform="translate(-4.737,4.562)"/>
        <path style="fill:#ffffff;stroke-width:15;stroke-dasharray:none;stroke:none;stroke-opacity:1;paint-order:markers stroke fill;stroke-linejoin:round;stroke-linecap:round;opacity:1;baseline-shift:baseline;display:inline;overflow:visible;vector-effect:none;enable-background:accumulate;stop-color:#000000;stop-opacity:1" d="m 92.021484,42.664062 -0.365234,0.002 a 7.50075,7.50075 0 0 0 -0.03711,0 C 74.780412,42.841191 59.883257,50.871865 50.996094,64.523437 a 7.50075,7.50075 0 0 0 6.285156,11.591797 l 118.80469,-0.002 a 7.50075,7.50075 0 0 0 5.09961,-2 c 1.28473,-1.191128 2.62033,-2.32567 4.0039,-3.40039 l 0.0156,-0.01172 0.25586,-0.197266 a 7.50075,7.50075 0 0 0 1.07226,-10.863281 l -0.21875,-0.25 -0.004,-0.0059 C 177.08536,48.778315 163.98453,42.895251 149.57227,42.683594 a 7.50075,7.50075 0 0 0 -0.084,0 l -0.57226,-0.002 a 7.50075,7.50075 0 0 0 -0.0274,0 c -7.22401,0 -13.87491,1.191959 -19.54101,3.974609 -2.3074,1.132671 -4.30384,1.81461 -5.66211,2.201172 -0.67914,0.193281 -1.19679,0.312709 -1.51367,0.378906 -0.006,0.0012 -6.3e-4,8.47e-4 -0.006,0.002 -0.22438,0.0033 -0.49468,0.0059 -0.98438,0.0059 -0.71692,0 -1.39025,-0.0061 -1.875,-0.01367 -0.182,-0.0029 -0.29923,-0.0069 -0.41211,-0.0098 -1.43524,-0.183249 -5.30863,-0.932418 -7.42187,-1.982422 -6.03378,-2.999352 -12.697949,-4.574219 -19.41016,-4.574219 a 7.50075,7.50075 0 0 0 -0.04102,0 z m 0.04102,15 c 6.42e-4,0 0.0013,0 0.002,0 4.339181,3.1e-4 8.788787,1.047455 12.732427,3.007813 0.36079,0.179268 0.70409,0.282487 1.0625,0.443359 H 76.472656 c 4.473832,-2.186044 9.567076,-3.38955 15.302735,-3.449218 z m 56.82617,0.01758 0.48047,0.002 c 5.62165,0.08461 10.59811,1.279203 15.04102,3.429687 h -31.01563 c 0.9258,-0.385387 1.54768,-0.494024 2.5625,-0.992187 a 7.50075,7.50075 0 0 0 0.002,0 c 2.8779,-1.41335 7.45371,-2.439453 12.92969,-2.439453 z" id="path29" transform="translate(-4.737,4.562)"/>
        <path style="fill:#ffffff;stroke-width:15;stroke-dasharray:none;stroke:none;stroke-opacity:1;paint-order:markers stroke fill;stroke-linejoin:round;stroke-linecap:round;opacity:1;baseline-shift:baseline;display:inline;overflow:visible;vector-effect:none;enable-background:accumulate;stop-color:#000000;stop-opacity:1" d="m 57.28125,61.113281 a 7.50075,7.50075 0 0 0 -6.283203,3.404297 l -0.103516,0.160156 a 7.50075,7.50075 0 0 0 -0.01758,0.02734 c -4.251017,6.578566 -7.005951,14.092948 -8.300781,22.072266 a 7.50075,7.50075 0 0 0 7.402344,8.701172 l 113.855464,0.002 a 7.50075,7.50075 0 0 0 7.32227,-5.876953 c 1.04233,-4.69848 3.94975,-9.708241 9.49805,-14.988282 a 7.50075,7.50075 0 0 0 0.004,-0.0039 l 0.59571,-0.568359 a 7.50075,7.50075 0 0 0 -5.17579,-12.929688 z m 4.560547,15 H 160.5957 c -0.80645,1.437764 -1.60172,2.877831 -2.21289,4.367188 l -98.718748,-0.002 c 0.583657,-1.563305 1.43019,-2.925167 2.177735,-4.365235 z" id="path31" transform="translate(-4.737,4.562)"/>
        <g id="path11" style="opacity:1" transform="translate(-4.737 4.562)">
            <path style="fill:#ffffff;stroke-width:15;stroke-dasharray:none;stroke:none;stroke-opacity:1;paint-order:markers stroke fill;stroke-linejoin:round;stroke-linecap:round;opacity:1;baseline-shift:baseline;display:inline;overflow:visible;vector-effect:none;enable-background:accumulate;stop-color:#000000;stop-opacity:1" d="m 49.990234,80.484375 a 7.50075,7.50075 0 0 0 -7.40625,6.318359 l -0.04492,0.283203 a 7.50075,7.50075 0 0 0 -0.002,0.01563 c -1.086552,6.904067 -1.076356,13.982838 -0.0918,21.044918 a 7.50075,7.50075 0 0 0 7.427735,6.4629 H 166.61719 l -0.42188,-0.42188 a 7.50075,7.50075 0 0 0 7.92188,-7.07617 v -0.002 a 7.50075,7.50075 0 0 0 -1.38282,-3.33985 l 0.53125,-0.13086 c -2.24205,-4.293685 -3.19922,-8.726749 -2.1582,-13.726561 a 7.50075,7.50075 0 0 0 0.002,-0.01563 l 0.082,-0.398437 a 7.50075,7.50075 0 0 0 -7.34571,-9.013672 z m 6.888672,15 h 99.007814 c 0.0734,1.388952 0.11431,2.787888 0.3457,4.125 H 56.851562 c -0.04398,-1.389586 -0.02944,-2.759258 0.02734,-4.125 z" id="path33"/>
            <path style="fill:#ffffff;stroke-width:15;stroke-dasharray:none;stroke:none;stroke-opacity:1;paint-order:markers stroke fill;stroke-linejoin:round;stroke-linecap:round;opacity:1;baseline-shift:baseline;display:inline;overflow:visible;vector-effect:none;enable-background:accumulate;stop-color:#000000;stop-opacity:1" d="m 55.486328,119.68164 a 7.50075,7.50075 0 0 0 -6.894531,10.45117 l 0.195312,0.45703 a 7.50075,7.50075 0 0 0 0.0039,0.01 c 3.081011,7.17638 7.068014,14.07103 11.884765,20.63281 a 7.50075,7.50075 0 0 0 6.046875,3.0625 H 174.83203 a 7.50075,7.50075 0 0 0 6.25391,-3.36133 c 4.47936,-6.76786 7.99676,-13.91306 10.98633,-19.94922 v 0.004 l 0.23437,-0.47461 a 7.50075,7.50075 0 0 0 -6.71875,-10.83203 z m 12.261719,15 H 173.27344 c -0.86308,1.5832 -1.79783,3.08631 -2.7168,4.61328 H 70.765625 c -1.036697,-1.53066 -2.091837,-3.05611 -3.017578,-4.61328 z" id="path37"/>
            <path style="baseline-shift:baseline;display:inline;overflow:visible;vector-effect:none;fill:#ffffff;stroke:none;enable-background:accumulate;stop-color:#000000;stop-opacity:1" d="m 49.869141,99.609375 a 7.50075,7.50075 0 0 0 -7.423829,8.560545 l 0.05273,0.37891 a 7.50075,7.50075 0 0 0 0,0.004 c 0.876713,6.1127 2.661251,13.47037 6.054687,21.53711 a 7.50075,7.50075 0 0 0 6.914063,4.5918 H 185.58008 a 7.50075,7.50075 0 0 0 6.71875,-4.16797 l 0.76172,-1.53515 a 7.50075,7.50075 0 0 0 -3.58399,-10.14649 l -0.30469,-0.14062 -0.002,-0.002 -0.006,-0.002 c -4.76231,-2.20086 -12.08953,-7.78 -15.82422,-14.88086 l -0.0937,-0.17773 a 7.50075,7.50075 0 0 0 -6.64257,-4.019535 z M 160.06836,110.79883 c 1.77546,3.37362 3.94834,6.24512 6.25,8.88281 H 60.792969 c -0.588864,-1.70069 -1.316843,-3.49193 -1.744141,-5.07226 H 162.06641 Z" id="path35"/>
            <path style="baseline-shift:baseline;display:inline;overflow:visible;vector-effect:none;fill:#ff0000;stroke:none;enable-background:accumulate;stop-color:#000000;stop-opacity:1" d="M 55.466,127.181 H 185.58 l 0.762,-1.536 -0.313,-0.144 c -6.227,-2.875 -14.575,-9.167 -19.328,-18.204 l -0.098,-0.187 H 49.869 l 0.054,0.378 c 0.794,5.536 2.417,12.262 5.543,19.693 z" id="path36"/>
            <path style="fill:#ffff00;stroke-width:15;stroke-dasharray:none;stroke:none;stroke-opacity:1;paint-order:markers stroke fill;stroke-linejoin:round;stroke-linecap:round;opacity:1;baseline-shift:baseline;display:inline;overflow:visible;vector-effect:none;enable-background:accumulate;stop-color:#000000;stop-opacity:1" d="m 163.835,87.98 c 1.438,-6.482 5.319,-12.775 11.648,-18.798 l 0.596,-0.568 H 57.281 l -0.105,0.161 c -3.64,5.633 -6.052,12.148 -7.197,19.204 z" id="path32"/>
            <path style="fill:#ff6600;stroke-width:15;stroke-dasharray:none;stroke:none;stroke-opacity:1;paint-order:markers stroke fill;stroke-linejoin:round;stroke-linecap:round;opacity:1;baseline-shift:baseline;display:inline;overflow:visible;vector-effect:none;enable-background:accumulate;stop-color:#000000;stop-opacity:1" d="m 166.618,107.111 c -2.873,-5.502 -4.284,-11.86 -2.854,-18.728 l 0.082,-0.398 H 49.99 l -0.045,0.282 c -0.963,6.119 -0.963,12.452 -0.072,18.843 h 116.745 z" id="path34"/>
            <path style="fill:#008000;stroke-width:15;stroke-dasharray:none;stroke:none;stroke-opacity:1;paint-order:markers stroke fill;stroke-linejoin:round;stroke-linecap:round;opacity:1;baseline-shift:baseline;display:inline;overflow:visible;vector-effect:none;enable-background:accumulate;stop-color:#000000;stop-opacity:1" d="m 176.086,68.614 a 67.768,67.768 0 0 1 4.52,-3.837 l 0.272,-0.21 -0.223,-0.256 C 172.778,55.252 161.992,50.367 149.463,50.183 l -0.574,-0.002 c -6.35,0 -11.964,1.11 -16.236,3.208 -5.541,2.72 -9.662,3.324 -9.702,3.33 -0.072,0.008 -0.526,0.025 -1.77,0.025 -1.51,0 -2.813,-0.023 -2.97,-0.044 l -0.1,-0.011 c -1.776,-0.215 -6.305,-0.91 -9.976,-2.734 -4.989,-2.48 -10.547,-3.791 -16.073,-3.791 l -0.364,0.002 c -14.611,0.152 -26.826,6.79 -34.416,18.449 z" id="path30"/>
            <path style="fill:#0000ff;stroke-width:15;stroke-dasharray:none;stroke:none;stroke-opacity:1;paint-order:markers stroke fill;stroke-linejoin:round;stroke-linecap:round;opacity:1;baseline-shift:baseline;display:inline;overflow:visible;vector-effect:none;enable-background:accumulate;stop-color:#000000;stop-opacity:1" d="m 66.72,146.795 0.39,0.523 c 3.509,4.719 7.533,9.31 11.959,13.649 3.37,3.303 8.74,5.121 15.118,5.121 4.674,0 9.52,-1.025 12.649,-2.675 6.471,-3.41 9.9,-3.417 12.404,-3.42 0.503,0 0.972,-0.003 1.424,-0.027 l 0.408,-0.025 c 0.542,-0.032 1.102,-0.067 1.732,-0.067 2.22,0 5.535,0.405 11.562,3.58 4.206,1.647 8.284,2.479 12.123,2.479 h 0.002 c 10.45,0 19.612,-6.098 28.01,-18.627 l 0.343,-0.511 z" id="path28"/>
            <path style="fill:#800080;stroke-width:15;stroke-dasharray:none;stroke:none;stroke-opacity:1;paint-order:markers stroke fill;stroke-linejoin:round;stroke-linecap:round;opacity:1;baseline-shift:baseline;display:inline;overflow:visible;vector-effect:none;enable-background:accumulate;stop-color:#000000;stop-opacity:1" d="m 66.722,146.795 h 108.11 c 4.128,-6.237 7.531,-13.104 10.52,-19.139 l 0.235,-0.474 h -130.1 l 0.196,0.458 c 2.843,6.622 6.537,13.022 11.039,19.155 z" id="path38"/>
        </g>
        <g id="path12" style="opacity:1" transform="translate(-4.737 4.562)"/>
    </g>
</svg>
