<?xml version='1.0' encoding='utf-8'?>
<svg xmlns="http://www.w3.org/2000/svg" version="1.1" id="Layer_1" x="0px" y="0px" viewBox="0 0 3876.199 755.97439" xml:space="preserve" width="600" height="117.01788840046655">
    <defs id="defs28">
	
	
	

		
		
	
			
			
			
			
			
			
			
			
			
		</defs>
    <style type="text/css" id="style1">
	.st0{fill:#FFFFFF;}
	.st1{fill:#C70A11;}
	.st2{fill:#2FBB37;}
	.st3{fill:#1E35A0;}
</style>
    <g id="g26" style="stroke:#ffffff;stroke-width:20.0707;stroke-dasharray:none;stroke-opacity:1" transform="matrix(1.5367532,0,0,1.4066448,1732.8315,-698.13695)">
        <g id="polygon24" class="st1" style="opacity:1">
            <path style="baseline-shift:baseline;display:inline;overflow:visible;vector-effect:none;fill:#c70a11;stroke:none;enable-background:accumulate;stop-color:#000000;stop-opacity:1" d="M 172.3,513.8 0,1016.6 H 253.6 L 425.9,513.8 Z" id="path101"/>
            <path style="baseline-shift:baseline;display:inline;overflow:visible;vector-effect:none;fill:#ffffff;stroke:none;enable-background:accumulate;stop-color:#000000;stop-opacity:1" d="M 165.13086,503.76562 -14.046875,1026.6348 H 260.76953 L 439.94727,503.76562 Z m 14.33789,20.07032 H 411.85156 L 246.43164,1006.5645 H 14.048828 Z" id="path102"/>
        </g>
        <g id="polygon25" class="st2" style="opacity:1">
            <path style="baseline-shift:baseline;display:inline;overflow:visible;vector-effect:none;fill:#2fbb37;stroke:none;enable-background:accumulate;stop-color:#000000;stop-opacity:1" d="M 519,513.8 346.6,1016.6 H 600.1 L 772.4,513.8 Z" id="path103"/>
            <path style="baseline-shift:baseline;display:inline;overflow:visible;vector-effect:none;fill:#ffffff;stroke:none;enable-background:accumulate;stop-color:#000000;stop-opacity:1" d="M 511.83203,503.76562 332.55078,1026.6348 H 607.26953 L 786.44727,503.76562 Z m 14.33594,20.07032 H 758.35156 L 592.93164,1006.5645 H 360.65039 Z" id="path104"/>
        </g>
        <g id="polygon26" class="st3" style="opacity:1">
            <path style="baseline-shift:baseline;display:inline;overflow:visible;vector-effect:none;fill:#1e35a0;stroke:none;enable-background:accumulate;stop-color:#000000;stop-opacity:1" d="M 865.6,513.8 693.3,1016.6 H 946.8 L 1119.1,513.8 Z" id="path105"/>
            <path style="baseline-shift:baseline;display:inline;overflow:visible;vector-effect:none;fill:#ffffff;stroke:none;enable-background:accumulate;stop-color:#000000;stop-opacity:1" d="M 858.43164,503.76562 679.25195,1026.6348 h 274.7168 L 1133.1465,503.76562 Z m 14.33789,20.07032 H 1105.0527 L 939.63086,1006.5645 h -232.2832 z" id="path106"/>
        </g>
    </g>
    <g id="g13" transform="translate(12.199001,325.57437)" style="stroke:#ffffff;stroke-width:50;stroke-linecap:round;stroke-linejoin:round;stroke-dasharray:none;stroke-opacity:1;paint-order:markers stroke fill">
        <g id="g1" style="stroke:#ffffff;stroke-width:50;stroke-linecap:round;stroke-linejoin:round;stroke-dasharray:none;stroke-opacity:1;paint-order:markers stroke fill">
            <g id="path1" style="opacity:1">
                <path style="baseline-shift:baseline;display:inline;overflow:visible;vector-effect:none;fill:#ffffff;stroke:none;enable-background:accumulate;stop-color:#000000;stop-opacity:1" d="m 464.30078,-1.8007812 c -43.99727,0 -80.20117,36.2039042 -80.20117,80.2011722 V 394.40039 a 25.0025,25.0025 0 0 0 25,25 h 120 a 25.0025,25.0025 0 0 0 25,-25 v -43.11523 l 34.72851,56.24804 a 25.0025,25.0025 0 0 0 21.27149,11.86719 h 125.5 a 25.0025,25.0025 0 0 0 21.28125,-38.11914 L 686.72852,267.47852 c 32.23323,-31.30501 57.57226,-70.34383 57.57226,-129.2793 0,-34.57507 -9.78618,-71.834293 -39.43555,-98.708986 C 675.21587,12.615542 629.45596,-1.8007812 563.69922,-1.8007812 h -34.59961 z m 0,50.0000002 h 64.79883 34.59961 c 58.44326,0 90.4853,12.83563 107.58594,28.335937 17.10063,15.500307 23.01562,35.739134 23.01562,61.664064 0,53.65027 -19.78074,74.80035 -55.9707,105.82031 a 25.0025,25.0025 0 0 0 -5.01172,32.09961 l 57.50195,93.28125 h -66.77539 l -48.66797,-78.82812 -0.004,-0.006 c -8.00577,-12.98055 -11.32065,-33.62371 -8.33399,-50.41211 2.98711,-16.7909 10.75008,-26.73353 18.24805,-29.33203 a 25.0025,25.0025 0 0 0 0.0293,-0.01 c 27.76635,-9.66117 42.73407,-39.71009 36.24218,-63.54492 C 615.06671,123.43275 591.91589,105 563.69922,105 h -34.59961 a 25.0025,25.0025 0 0 0 -25,25 v 239.40039 h -70 V 78.400391 c 0,-17.002733 13.19844,-30.201172 30.20117,-30.201172 z M 554.09961,155 h 9.59961 c 7.38333,0 9.18407,3.81803 9.61719,5.4082 0.432,1.58611 4.2449,0.16166 -4.40235,3.16992 -5.45566,1.89072 -10.28033,4.54825 -14.81445,7.51954 z" id="path77"/>
                <path style="baseline-shift:baseline;display:inline;overflow:visible;vector-effect:none;stroke:none;enable-background:accumulate;stop-color:#000000;stop-opacity:1" d="m 654.6,263 c 37.8,-32.4 64.7,-63.8 64.7,-124.8 0,-60.5 -31.4,-115 -155.6,-115 v 0 h -34.6 v 0 h -64.8 c -30.5,0 -55.2,24.7 -55.2,55.2 v 316 h 120 V 130 h 34.6 v 0 c 35.6,0 49.9,44.5 13.4,57.2 -37.8,13.1 -47,77.6 -23,116.5 l 56,90.7 h 125.5 z" id="path78"/>
            </g>
        </g>
        <g id="g2" style="stroke:#ffffff;stroke-width:50;stroke-linecap:round;stroke-linejoin:round;stroke-dasharray:none;stroke-opacity:1;paint-order:markers stroke fill">
            <g id="rect1" style="opacity:1">
                <path style="baseline-shift:baseline;display:inline;overflow:visible;vector-effect:none;fill:#ffffff;stroke:none;enable-background:accumulate;stop-color:#000000;stop-opacity:1" d="m 1759.6992,-1.8007812 a 25.0025,25.0025 0 0 0 -25,25.0000002 V 394.40039 a 25.0025,25.0025 0 0 0 25,25 h 120 a 25.0025,25.0025 0 0 0 25,-25 V 23.199219 a 25.0025,25.0025 0 0 0 -25,-25.0000002 z m 25,50.0000002 h 70 V 369.40039 h -70 z" id="path79"/>
                <path style="baseline-shift:baseline;display:inline;overflow:visible;vector-effect:none;stroke:none;enable-background:accumulate;stop-color:#000000;stop-opacity:1" d="m 1759.7,23.200001 h 120 V 394.40001 h -120 z" id="path80"/>
            </g>
        </g>
        <g id="g3" style="stroke:#ffffff;stroke-width:50;stroke-linecap:round;stroke-linejoin:round;stroke-dasharray:none;stroke-opacity:1;paint-order:markers stroke fill">
            <g id="path2" style="opacity:1">
                <path style="baseline-shift:baseline;display:inline;overflow:visible;vector-effect:none;fill:#ffffff;stroke:none;enable-background:accumulate;stop-color:#000000;stop-opacity:1" d="m 2757.75,-17.435547 c -73.3025,0.04324 -146.5897,39.783667 -172.0566,119.201177 a 25.0025,25.0025 0 0 0 -0.012,0.0391 c -5.0921,15.97069 -8.2713,33.51531 -9.0605,52.45508 a 25.0025,25.0025 0 0 0 -0.021,1.04101 c 0,14.48889 8.833,26.19922 26.0996,26.19922 h 110.4727 l -115.1875,90.21875 a 25.0025,25.0025 0 0 0 -0.012,0.01 c -29.8348,23.39712 -37.647,61.53162 -27.1153,92.01171 10.5318,30.4801 40.2195,55.66016 78.1426,55.66016 h 5.9004 c 0.1509,0 0.2353,-0.0296 0.3828,-0.0312 a 25.0025,25.0025 0 0 0 0.1172,0.0312 H 2909 a 25.0025,25.0025 0 0 0 25,-25 V 287.59961 a 25.0025,25.0025 0 0 0 -25,-25 h -44.873 l 11.8789,-9.31055 c 42.3048,-33.10291 64.5725,-86.45776 56.623,-140.05664 a 25.0025,25.0025 0 0 0 -0.2734,-1.51953 c -0.7487,-3.52923 -1.3868,-6.39083 -2.168,-9.20312 a 25.0025,25.0025 0 0 0 -0.2891,-0.96485 C 2904.3702,22.175274 2831.0525,-17.47879 2757.75,-17.435547 Z m 0.023,48.195313 c 52.8712,-0.03167 105.7361,28.516266 124.3516,85.619144 0.2057,0.77874 0.6192,2.56818 1.0859,4.69922 5.0343,35.23299 -9.6593,70.64406 -38.0175,92.83398 a 25.0025,25.0025 0 0 0 -0.016,0.0117 l -68.8984,54 a 25.0025,25.0025 0 0 0 15.4199,44.67578 H 2884 v 56.80078 h -226.9844 a 25.0025,25.0025 0 0 0 -1.4551,0 h -0.1601 l 0.019,0.0312 a 25.0025,25.0025 0 0 0 -11.0996,2.4082 c -0.2,0.1 2.4468,-2.43945 10.5801,-2.43945 H 2649 c -16.8769,0 -26.5396,-9.42033 -30.8828,-21.99023 -4.3433,-12.56991 -2.5543,-25.93501 10.7109,-36.33789 l 158.6875,-124.29102 a 25.0025,25.0025 0 0 0 0.01,-0.004 c 23.8081,-18.6581 25.6844,-51.62525 13.0156,-72.7832 -6.3344,-10.57897 -16.0553,-19.501521 -28.8203,-24.076171 -12.7541,-4.570755 -28.4968,-3.769982 -42.002,3.076172 -14.2923,7.219889 -26.8416,20.996669 -31.5566,38.505859 h -68.5273 c 1.0272,-5.02782 2.2184,-9.89145 3.6757,-14.4668 9e-4,-0.003 0,-0.005 0,-0.008 18.4355,-57.476891 71.443,-86.233869 124.4629,-86.265624 z m -3.4492,106.001954 c 0.2697,-0.0171 0.2938,0.14162 0.5254,0.22461 0.4631,0.16597 1.811,1.05983 2.7891,2.69336 1.9562,3.26705 3.4329,4.30029 -0.959,7.74218 l -10.6543,8.34571 a 25.0025,25.0025 0 0 0 0.1973,-2.97656 c -0.3673,-2.44849 -0.3826,-4.2069 -0.2598,-5.37305 a 25.0025,25.0025 0 0 0 0.1133,-1.52344 c 0.1777,-4.05755 1.8809,-6.10332 6.1855,-8.27539 a 25.0025,25.0025 0 0 0 0.059,-0.0293 c 1.2186,-0.61884 1.7343,-0.81097 2.0039,-0.82812 z m -58.0859,5.42187 c -0.028,0.26359 8e-4,0.50337 -0.023,0.76563 -0.015,0.25838 -0.08,0.49823 -0.092,0.75781 z" id="path81"/>
                <path style="baseline-shift:baseline;display:inline;overflow:visible;vector-effect:none;stroke:none;enable-background:accumulate;stop-color:#000000;stop-opacity:1" d="m 2860.6,233.6 c 35.4,-27.7 53.9,-72.2 47.3,-116.7 -0.7,-3.3 -1.3,-5.9 -1.8,-7.7 -44,-136.8 -252.7,-136.7 -296.6,0.2 -4.4,13.8 -7.2,29.1 -7.9,45.9 0,0.6 0.5,1.2 1.1,1.2 h 118.8 c -0.6,-4 -0.8,-7.9 -0.4,-11.7 0.6,-13.7 9,-24 19.9,-29.5 31.9,-16.2 59.3,29.7 31.1,51.8 l -158.7,124.3 c -43.1,33.8 -19.2,103 35.6,103 h 5.9 c 0.2,0 0.4,-0.1 0.6,-0.2 l -0.1,0.2 H 2909 V 287.6 h -117.3 z" id="path82"/>
            </g>
        </g>
        <g id="g4" style="stroke:#ffffff;stroke-width:50;stroke-linecap:round;stroke-linejoin:round;stroke-dasharray:none;stroke-opacity:1;paint-order:markers stroke fill">
            <g id="rect3" style="opacity:1">
                <path style="baseline-shift:baseline;display:inline;overflow:visible;vector-effect:none;fill:#ffffff;stroke:none;enable-background:accumulate;stop-color:#000000;stop-opacity:1" d="m 2335.4004,147.5 a 25.0025,25.0025 0 0 0 -25,25 v 106.80078 a 25.0025,25.0025 0 0 0 25,25 h 170.5 a 25.0025,25.0025 0 0 0 25,-25 V 172.5 a 25.0025,25.0025 0 0 0 -25,-25 z m 25,50 h 120.5 v 56.80078 h -120.5 z" id="path83"/>
                <path style="baseline-shift:baseline;display:inline;overflow:visible;vector-effect:none;stroke:none;enable-background:accumulate;stop-color:#000000;stop-opacity:1" d="m 2335.3999,172.5 h 170.5 v 106.8 h -170.5 z" id="path84"/>
            </g>
        </g>
        <g id="g5" style="stroke:#ffffff;stroke-width:50;stroke-linecap:round;stroke-linejoin:round;stroke-dasharray:none;stroke-opacity:1;paint-order:markers stroke fill">
            <g id="path4" style="opacity:1">
                <path style="baseline-shift:baseline;display:inline;overflow:visible;vector-effect:none;fill:#ffffff;stroke:none;enable-background:accumulate;stop-color:#000000;stop-opacity:1" d="m 3662.9004,-21.800781 24.9004,24.9003904 h -49.9004 V 3.1992188 110 a 25.0025,25.0025 0 0 0 25,25 H 3694 v 259.40039 a 25.0025,25.0025 0 0 0 25,25 h 120 a 25.0025,25.0025 0 0 0 25,-25 V 67.699219 c 0,-49.129963 -40.37,-89.5 -89.5,-89.5 z m 25,50 H 3774.5 c 22.07,0 39.5,17.429962 39.5,39.5 V 369.40039 h -70 V 125.09961 C 3744,103.34579 3725.7925,85 3703.9004,85 h -16 z" id="path85"/>
                <path style="baseline-shift:baseline;display:inline;overflow:visible;vector-effect:none;stroke:none;enable-background:accumulate;stop-color:#000000;stop-opacity:1" d="M 3662.9,3.1 V 110 h 41 c 8.4,0 15.1,6.8 15.1,15.1 v 269.3 h 120 V 67.7 c 0,-35.6 -28.9,-64.5 -64.5,-64.5 h -111.6 z" id="path86"/>
            </g>
        </g>
        <g id="g6" style="stroke:#ffffff;stroke-width:50;stroke-linecap:round;stroke-linejoin:round;stroke-dasharray:none;stroke-opacity:1;paint-order:markers stroke fill">
            <g id="path5" style="opacity:1">
                <path style="baseline-shift:baseline;display:inline;overflow:visible;vector-effect:none;fill:#ffffff;stroke:none;enable-background:accumulate;stop-color:#000000;stop-opacity:1" d="m 1448.8008,-1.8007812 c -43.9973,0 -80.2012,36.2039042 -80.2012,80.2011722 V 339.30078 c 0,43.99727 36.2586,80.09961 80.2012,80.09961 h 92.8984 a 25.0025,25.0025 0 0 0 1.6231,-0.0527 c 137.1913,-8.92125 212.5298,-109.82964 212.5156,-210.23829 -0.014,-100.40864 -75.3891,-201.2918599 -212.627,-210.1581981 a 25.0025,25.0025 0 0 0 -0.6953,-0.035156 l -19.0996,-0.6992187 a 25.0025,25.0025 0 0 0 -0.916,-0.017578 h -0.1 -8.8008 z m 0,50.0000002 h 64.7988 8.4434 l 18.0879,0.664062 c 114.9578,7.489296 165.6962,83.618419 165.707,160.251949 0.011,76.55125 -50.6164,152.61177 -165.2598,160.28516 h -91.7773 c -17.0574,0 -30.2012,-13.09688 -30.2012,-30.09961 V 78.400391 c 0,-17.002733 13.1984,-30.201172 30.2012,-30.201172 z M 1513.5,105 a 25.0025,25.0025 0 0 0 -25,25 v 157.59961 a 25.0025,25.0025 0 0 0 25,25 h 8.8008 c 70.1229,0 113.5,-51.89141 113.5,-103.76172 0,-51.87031 -43.3576,-103.77846 -113.4805,-103.83789 a 25.0025,25.0025 0 0 0 -0.02,0 z m 25,51.19141 c 35.2558,5.47194 47.3008,29.05063 47.3008,52.64648 0,23.60042 -12.0332,47.15385 -47.3008,52.58594 z" id="path87"/>
                <path style="baseline-shift:baseline;display:inline;overflow:visible;vector-effect:none;stroke:none;enable-background:accumulate;stop-color:#000000;stop-opacity:1" d="m 1541.6,23.9 -19.1,-0.7 h -0.1 v 0 h -8.8 v 0 h -64.8 c -30.5,0 -55.2,24.7 -55.2,55.2 v 260.9 c 0,30.5 24.7,55.1 55.2,55.1 h 92.9 C 1793.9,378 1793.9,40.2 1541.6,23.9 Z m -19.3,263.7 v 0 h -8.8 V 130 h 8.8 c 118,0.1 118,157.6 0,157.6 z" id="path88"/>
            </g>
        </g>
        <g id="g7" style="stroke:#ffffff;stroke-width:50;stroke-linecap:round;stroke-linejoin:round;stroke-dasharray:none;stroke-opacity:1;paint-order:markers stroke fill">
            <g id="path6" style="opacity:1">
                <path style="baseline-shift:baseline;display:inline;overflow:visible;vector-effect:none;fill:#ffffff;stroke:none;enable-background:accumulate;stop-color:#000000;stop-opacity:1" d="m 944.19922,-1.8007812 c -150.1271,0 -233.5,105.3166712 -233.5,210.5878912 0,105.17307 83.23293,210.36169 233.0957,210.50391 a 25.0025,25.0025 0 0 0 0.4043,0.10937 h 45.5 a 25.0025,25.0025 0 0 0 24.99998,-25 V 287.59961 a 25.0025,25.0025 0 0 0 -24.99998,-25 H 944.57031 A 25.0025,25.0025 0 0 0 944.19922,262.5 c -47.87712,0 -63.5,-26.86177 -63.5,-53.75 0,-26.88823 15.62288,-53.75 63.5,-53.75 h 45.5 a 25.0025,25.0025 0 0 0 24.99998,-25 V 23.199219 A 25.0025,25.0025 0 0 0 989.69922,-1.8007812 Z m 0,50.0000002 h 20.5 V 105 h -20.5 c -70.12288,0 -113.5,51.88823 -113.5,103.75 0,51.74828 43.19825,103.50215 113.05078,103.72852 a 25.0025,25.0025 0 0 0 0.44922,0.12109 h 20.5 v 56.80078 h -20.13477 a 25.0025,25.0025 0 0 0 -0.37304,-0.0996 c -127.87291,0.046 -183.49219,-80.20989 -183.49219,-160.51367 0,-80.30378 55.6271,-160.587891 183.5,-160.587891 z" id="path89"/>
                <path style="baseline-shift:baseline;display:inline;overflow:visible;vector-effect:none;stroke:none;enable-background:accumulate;stop-color:#000000;stop-opacity:1" d="m 944.2,130 h 45.5 V 23.2 h -45.5 c -278,0 -278,371.2 0,371.1 v 0.1 h 45.5 V 287.6 h -45.5 c 0,0 0,-0.1 0,-0.1 -118,0 -118,-157.5 0,-157.5 z" id="path90"/>
            </g>
        </g>
        <g id="g8" style="stroke:#ffffff;stroke-width:50;stroke-linecap:round;stroke-linejoin:round;stroke-dasharray:none;stroke-opacity:1;paint-order:markers stroke fill">
            <g id="path7" style="opacity:1">
                <path style="baseline-shift:baseline;display:inline;overflow:visible;vector-effect:none;fill:#ffffff;stroke:none;enable-background:accumulate;stop-color:#000000;stop-opacity:1" d="m 201.01172,-7.4746094 c -42.21949,0 -85.69768,25.5446704 -101.865236,72.7792964 L -10.849609,386.29492 a 25.0025,25.0025 0 0 0 23.65039,33.10547 H 132.69922 a 25.0025,25.0025 0 0 0 24.28515,-19.0625 l 7.63868,-31.23828 h 72.7539 l 7.63867,31.23828 a 25.0025,25.0025 0 0 0 24.28516,19.0625 h 120 a 25.0025,25.0025 0 0 0 23.64844,-33.10547 l -110,-320.999998 a 25.0025,25.0025 0 0 0 -0.006,-0.01953 C 286.71664,18.053094 243.23121,-7.4746094 201.01172,-7.4746094 Z m 0,50.0000004 c 23.25551,0 45.27125,11.720343 54.64453,38.998046 l 98.65039,287.876953 h -65.38281 l -7.63867,-31.23828 A 25.0025,25.0025 0 0 0 257,319.09961 H 145 a 25.0025,25.0025 0 0 0 -24.28516,19.0625 l -7.63867,31.23828 H 47.792969 L 146.44922,81.503906 a 25.0025,25.0025 0 0 0 0.004,-0.0078 c 9.33245,-27.265373 31.30309,-38.970703 54.5586,-38.970703 z M 200.90039,113.625 c -13.63461,0 -29.16234,11.34773 -31.83594,26.81641 l 0.35157,-1.67969 -27.9004,114.09961 a 25.0025,25.0025 0 0 0 24.28516,30.93945 H 236 a 25.0025,25.0025 0 0 0 24.28516,-30.93945 l -27.90039,-114.09961 0.3496,1.67969 C 230.06078,124.97273 214.53501,113.625 200.90039,113.625 Z m 0,106.88086 3.25,13.29492 h -6.50195 z" id="path91"/>
                <path style="baseline-shift:baseline;display:inline;overflow:visible;vector-effect:none;stroke:none;enable-background:accumulate;stop-color:#000000;stop-opacity:1" d="m 269.3,394.4 h 120 l -110,-321 c -25.6,-74.5 -131,-74.5 -156.5,0 l -110,321 H 132.7 L 145,344.1 H 257 Z M 165.8,258.8 193.7,144.7 c 1.4,-8.1 13,-8.1 14.4,0 L 236,258.8 Z" id="path92"/>
            </g>
        </g>
        <g id="g9" style="stroke:#ffffff;stroke-width:50;stroke-linecap:round;stroke-linejoin:round;stroke-dasharray:none;stroke-opacity:1;paint-order:markers stroke fill">
            <g id="path8" style="opacity:1">
                <path style="baseline-shift:baseline;display:inline;overflow:visible;vector-effect:none;fill:#ffffff;stroke:none;enable-background:accumulate;stop-color:#000000;stop-opacity:1" d="m 1191.6133,-7.4746094 c -42.2195,0 -85.6977,25.5446704 -101.8653,72.7792964 l 0,-0.0098 -110,320.999998 a 25.0025,25.0025 0 0 0 23.6504,33.10547 h 119.9004 a 25.0025,25.0025 0 0 0 24.2832,-19.0625 l 7.6387,-31.23828 h 72.7539 l 7.6386,31.23828 a 25.0025,25.0025 0 0 0 24.2852,19.0625 h 120 a 25.0025,25.0025 0 0 0 23.6504,-33.10547 l -110,-320.999998 a 25.0025,25.0025 0 0 0 -0.01,-0.01953 C 1277.3162,18.053094 1233.8328,-7.4746094 1191.6133,-7.4746094 Z m 0,50.0000004 c 23.2555,0 45.2712,11.720343 54.6445,38.998046 l 98.6485,287.876953 h -65.3829 l -7.6386,-31.23828 a 25.0025,25.0025 0 0 0 -24.2852,-19.0625 h -112 a 25.0025,25.0025 0 0 0 -24.2832,19.0625 l -7.6406,31.23828 h -65.2813 l 98.6563,-287.896484 a 25.0025,25.0025 0 0 0 0,-0.0078 c 9.3325,-27.265373 31.3051,-38.970703 54.5606,-38.970703 z m -0.014,71.099609 c -13.6346,0 -29.1604,11.34773 -31.834,26.81641 l 0.3496,-1.67969 -27.9004,114.09961 a 25.0025,25.0025 0 0 0 24.2852,30.93945 h 70.1992 a 25.0025,25.0025 0 0 0 24.2852,-30.93945 l -27.9004,-114.09961 0.3515,1.67969 c -2.6736,-15.46868 -18.2013,-26.81641 -31.8359,-26.81641 z m 0,106.88086 3.252,13.29492 h -6.502 z" id="path93"/>
                <path style="baseline-shift:baseline;display:inline;overflow:visible;vector-effect:none;stroke:none;enable-background:accumulate;stop-color:#000000;stop-opacity:1" d="m 1259.9,394.4 h 120 l -110,-321 c -25.6,-74.5 -131,-74.5 -156.5,0 l -110,321 h 119.9 l 12.3,-50.3 h 112 z m -103.4,-135.6 27.9,-114.1 c 1.4,-8.1 13,-8.1 14.4,0 l 27.9,114.1 z" id="path94"/>
            </g>
        </g>
        <g id="g10" style="stroke:#ffffff;stroke-width:50;stroke-linecap:round;stroke-linejoin:round;stroke-dasharray:none;stroke-opacity:1;paint-order:markers stroke fill">
            <g id="path9" style="opacity:1">
                <path style="baseline-shift:baseline;display:inline;overflow:visible;vector-effect:none;fill:#ffffff;stroke:none;enable-background:accumulate;stop-color:#000000;stop-opacity:1" d="m 2087.0117,-7.4746094 c -42.2195,0 -85.6977,25.5446704 -101.8652,72.7792964 L 1875.1504,386.29492 a 25.0025,25.0025 0 0 0 23.6504,33.10547 h 119.8984 a 25.0025,25.0025 0 0 0 24.2852,-19.0625 l 7.6386,-31.23828 h 72.754 l 7.6386,31.23828 a 25.0025,25.0025 0 0 0 24.2852,19.0625 h 120 a 25.0025,25.0025 0 0 0 23.6484,-33.10547 l -110,-320.999998 a 25.0025,25.0025 0 0 0 -0.01,-0.01953 C 2172.7166,18.053094 2129.2312,-7.4746094 2087.0117,-7.4746094 Z m 0,50.0000004 c 23.2555,0 45.2713,11.720343 54.6446,38.998046 l 98.6503,287.876953 h -65.3828 l -7.6386,-31.23828 A 25.0025,25.0025 0 0 0 2143,319.09961 h -112 a 25.0025,25.0025 0 0 0 -24.2852,19.0625 l -7.6386,31.23828 h -65.2832 l 98.6562,-287.896484 a 25.0025,25.0025 0 0 0 0,-0.0078 c 9.3325,-27.265373 31.3031,-38.970703 54.5586,-38.970703 z M 2087,113.625 c -13.6346,0 -29.1604,11.34773 -31.834,26.81641 l 0.3496,-1.67969 -27.9004,114.09961 a 25.0025,25.0025 0 0 0 24.2852,30.93945 h 70.1992 a 25.0025,25.0025 0 0 0 24.2852,-30.93945 l -27.9004,-114.09961 0.3496,1.67969 C 2116.1604,124.97273 2100.6346,113.625 2087,113.625 Z m 0,106.87891 3.252,13.29687 h -6.504 z" id="path95"/>
                <path style="baseline-shift:baseline;display:inline;overflow:visible;vector-effect:none;stroke:none;enable-background:accumulate;stop-color:#000000;stop-opacity:1" d="m 2155.3,394.4 h 120 l -110,-321 c -25.6,-74.5 -131,-74.5 -156.5,0 l -110,321 h 119.9 l 12.3,-50.3 h 112 z m -103.4,-135.6 27.9,-114.1 c 1.4,-8.1 13,-8.1 14.4,0 l 27.9,114.1 z" id="path96"/>
            </g>
        </g>
        <g id="g11" style="stroke:#ffffff;stroke-width:50;stroke-linecap:round;stroke-linejoin:round;stroke-dasharray:none;stroke-opacity:1;paint-order:markers stroke fill">
            <g id="path10" style="opacity:1">
                <path style="baseline-shift:baseline;display:inline;overflow:visible;vector-effect:none;fill:#ffffff;stroke:none;enable-background:accumulate;stop-color:#000000;stop-opacity:1" d="m 3111.0996,-25 c -68.2758,0 -120.3815,26.7115945 -151.9258,69.519531 -31.5442,42.807937 -43.373,98.764509 -43.373,158.179689 0,59.41518 11.8288,115.3737 43.373,158.18164 31.5443,42.80794 83.65,69.51953 151.9258,69.51953 68.2758,0 120.3816,-26.71159 151.9258,-69.51953 31.5442,-42.80794 43.375,-98.76646 43.375,-158.18164 0,-59.41518 -11.8308,-115.371752 -43.375,-158.179689 C 3231.4812,1.7115945 3179.3754,-25 3111.0996,-25 Z m 0,50 c 56.1242,0 89.1681,18.637624 111.6738,49.179687 22.5058,30.542063 33.627,75.934713 33.627,128.519533 0,52.58482 -11.1212,97.97747 -33.627,128.51953 -22.5057,30.54206 -55.5496,49.18164 -111.6738,49.18164 -56.1242,0 -89.168,-18.63958 -111.6738,-49.18164 -22.5058,-30.54206 -33.625,-75.93471 -33.625,-128.51953 0,-52.58482 11.1192,-97.97747 33.625,-128.519533 C 3021.9316,43.637624 3054.9754,25 3111.0996,25 Z m 0,56.900391 c -20.8795,0 -44.0178,11.45528 -56.9805,32.615239 -12.9627,21.15995 -18.4199,49.30094 -18.4199,88.18359 0,38.89412 5.4927,67.04775 18.4668,88.19726 12.9741,21.14952 36.0792,32.60352 56.9336,32.60352 20.8544,0 43.9615,-11.454 56.9356,-32.60352 12.974,-21.14951 18.4648,-49.30314 18.4648,-88.19726 0,-38.89412 -5.4908,-67.04775 -18.4648,-88.19727 -12.9741,-21.149513 -36.0812,-32.601559 -56.9356,-32.601559 z m 0,49.999999 c 6.9456,0 9.0405,0.14561 14.3164,8.74609 5.2759,8.60049 11.084,28.34686 11.084,62.05274 0,33.70588 -5.8081,53.45225 -11.084,62.05273 -5.2759,8.60049 -7.3708,8.74805 -14.3164,8.74805 -6.9456,0 -9.0385,-0.14756 -14.3144,-8.74805 -5.276,-8.60048 -11.086,-28.34685 -11.086,-62.05273 0,-33.71736 5.7944,-53.47441 11.0567,-62.06445 5.2623,-8.59005 7.3232,-8.73438 14.3437,-8.73438 z" id="path97"/>
                <path style="baseline-shift:baseline;display:inline;overflow:visible;vector-effect:none;stroke:none;enable-background:accumulate;stop-color:#000000;stop-opacity:1" d="m 3111.1,0 c -124.4,0 -170.3,90.7 -170.3,202.7 0,112 45.9,202.7 170.3,202.7 124.4,0 170.3,-90.7 170.3,-202.7 C 3281.4,90.7 3235.5,0 3111.1,0 Z m 0,298.5 c -27.8,0 -50.4,-23.2 -50.4,-95.8 0,-72.6 22.5,-95.8 50.4,-95.8 27.8,0 50.4,23.2 50.4,95.8 0,72.6 -22.6,95.8 -50.4,95.8 z" id="path98"/>
            </g>
        </g>
        <g id="g12" style="stroke:#ffffff;stroke-width:50;stroke-linecap:round;stroke-linejoin:round;stroke-dasharray:none;stroke-opacity:1;paint-order:markers stroke fill">
            <g id="path11" style="opacity:1">
                <path style="baseline-shift:baseline;display:inline;overflow:visible;vector-effect:none;fill:#ffffff;stroke:none;enable-background:accumulate;stop-color:#000000;stop-opacity:1" d="M 3479.3008,-25 C 3411.025,-25 3358.9173,1.7115945 3327.373,44.519531 3295.8288,87.327468 3284,143.28404 3284,202.69922 c 0,59.41518 11.8288,115.3737 43.373,158.18164 31.5443,42.80794 83.652,69.51953 151.9278,69.51953 68.2758,0 120.3815,-26.71159 151.9258,-69.51953 31.5442,-42.80794 43.373,-98.76646 43.373,-158.18164 0,-59.41518 -11.8288,-115.371752 -43.373,-158.179689 C 3599.6823,1.7115945 3547.5766,-25 3479.3008,-25 Z m 0,50 c 56.1242,0 89.168,18.637624 111.6738,49.179687 22.5058,30.542063 33.625,75.934713 33.625,128.519533 0,52.58482 -11.1192,97.97747 -33.625,128.51953 -22.5058,30.54206 -55.5496,49.18164 -111.6738,49.18164 -56.1242,0 -89.1681,-18.63958 -111.6738,-49.18164 C 3345.1212,300.67669 3334,255.28404 3334,202.69922 3334,150.1144 3345.1212,104.72175 3367.627,74.179687 3390.1327,43.637624 3423.1766,25 3479.3008,25 Z m 0,56.900391 c -20.8795,0 -44.0178,11.45528 -56.9805,32.615239 -12.9627,21.15995 -18.4199,49.30094 -18.4199,88.18359 0,38.89412 5.4908,67.04775 18.4648,88.19726 12.9741,21.14952 36.0811,32.60352 56.9356,32.60352 20.8544,0 43.9595,-11.454 56.9336,-32.60352 12.974,-21.14951 18.4648,-49.30314 18.4648,-88.19726 0,-38.89412 -5.4908,-67.04775 -18.4648,-88.19727 -12.9741,-21.149513 -36.0792,-32.601559 -56.9336,-32.601559 z m 0,49.999999 c 6.9455,0 9.0385,0.14561 14.3144,8.74609 5.276,8.60049 11.084,28.34686 11.084,62.05274 0,33.70588 -5.808,53.45225 -11.084,62.05273 -5.2759,8.60049 -7.3689,8.74805 -14.3144,8.74805 -6.9456,0 -9.0405,-0.14756 -14.3164,-8.74805 -5.276,-8.60048 -11.084,-28.34685 -11.084,-62.05273 0,-33.71736 5.7924,-53.47441 11.0547,-62.06445 5.2623,-8.59005 7.3252,-8.73438 14.3457,-8.73438 z" id="path99"/>
                <path style="baseline-shift:baseline;display:inline;overflow:visible;vector-effect:none;stroke:none;enable-background:accumulate;stop-color:#000000;stop-opacity:1" d="M 3479.3,0 C 3354.9,0 3309,90.7 3309,202.7 c 0,112 45.9,202.7 170.3,202.7 124.4,0 170.3,-90.7 170.3,-202.7 C 3649.6,90.7 3603.7,0 3479.3,0 Z m 0,298.5 c -27.8,0 -50.4,-23.2 -50.4,-95.8 0,-72.6 22.5,-95.8 50.4,-95.8 27.8,0 50.4,23.2 50.4,95.8 0,72.6 -22.6,95.8 -50.4,95.8 z" id="path100"/>
            </g>
        </g>
    </g>
    <g id="path13" style="opacity:1">
        <path style="baseline-shift:baseline;display:inline;overflow:visible;vector-effect:none;fill:#ffffff;stroke-linecap:round;stroke-linejoin:round;paint-order:markers stroke fill;enable-background:accumulate;stop-color:#000000;stop-opacity:1" d="M 413.71875,7.8183594 A 20.002,20.002 0 0 0 394.875,21.119141 l -4.67969,13.166015 a 20.002,20.002 0 0 0 17.83594,26.673828 c 8.99848,0.45447 18.06988,0.18512 24.38867,0.728516 -0.70671,2.526986 -1.45915,5.232566 -2.43164,8.037109 -2.47995,7.151912 -5.35063,14.521991 -7.20312,19.5625 a 20.002,20.002 0 0 0 -0.0234,0.0625 l -49.8086,136.974611 a 20.002,20.002 0 0 0 -0.0801,0.22461 c -4.23774,12.10201 -24.82923,23.64844 -45.12891,23.64844 a 20.002,20.002 0 0 0 -18.88086,13.40429 l -4.59961,13.16602 a 20.002,20.002 0 0 0 18.88086,26.5957 H 538.7168 a 20.002,20.002 0 0 0 18.79882,-13.17578 l 25.61915,-70.58984 a 20.002,20.002 0 0 0 -18.80079,-26.82227 h -12.29687 l 24.72461,-72.5293 A 20.002,20.002 0 0 0 557.83008,93.792969 h -10.78516 a 20.002,20.002 0 0 0 -18.8789,13.392581 l -0.55469,1.58593 a 20.002,20.002 0 0 0 -0.041,0.11915 c -1.95172,5.68976 -7.02808,9.33007 -12.96484,9.33007 h -0.87891 l 16.14649,-44.443356 v -0.002 c 1.59796,-4.320362 2.48604,-6.414738 3.34961,-8.44336 1.93,-0.151224 4.67904,-0.46289 9.93554,-0.46289 22.74937,0 34.94468,3.616776 38.26172,5.052734 -0.0618,0.548711 0.0716,0.562779 -0.68945,2.677734 a 20.002,20.002 0 0 0 18.81836,26.771485 h 13.08594 a 20.002,20.002 0 0 0 18.81445,-13.216797 l 18.56055,-51.472656 a 20.002,20.002 0 0 0 -9.8711,-24.673828 c -6.2e-4,-3.1e-4 -7.83834,-2.0823803 -8.10547,-2.0937505 -0.26713,-0.01137 -0.35463,-0.011793 -0.43945,-0.013672 -0.16964,-0.00376 -0.24923,-0.00484 -0.33984,-0.00586 -0.18123,-0.00204 -0.359,-0.00264 -0.58594,-0.00391 -0.45389,-0.00254 -1.0769,-0.00561 -1.88672,-0.00781 -1.61964,-0.00441 -3.96761,-0.00792 -6.95117,-0.011719 -5.96713,-0.0076 -14.47156,-0.013954 -24.67188,-0.019531 -20.40063,-0.011154 -47.58205,-0.018481 -74.75781,-0.023437 -54.35151,-0.00991 -108.68164,-0.00977 -108.68164,-0.00977 z m 59.22852,40.0058596 c 9.59729,6.56e-4 12.75602,6.51e-4 24.20703,0.002 -1.65174,3.718776 -3.10556,7.503343 -4.79688,12.076172 a 20.002,20.002 0 0 0 -0.0391,0.107422 l -25.93555,71.380854 a 20.002,20.002 0 0 0 -0.79687,10.04688 20.002,20.002 0 0 0 -5.30274,6.9043 l -21.81054,59.80078 a 20.002,20.002 0 0 0 -0.20899,0.60156 c -0.73428,2.23108 -2.83121,7.87016 -4.77734,13.57031 -1.94614,5.70015 -3.9826,10.32225 -4.70899,18.3125 a 20.002,20.002 0 0 0 -0.008,0.0918 c -0.67114,7.77404 0.70812,15.78173 4.18555,22.64453 h -36.65235 c 6.13276,-6.5726 11.09868,-14.38986 14.32227,-23.5957 l -0.0801,0.22656 49.8086,-136.97461 c 1.56261,-4.248774 4.62249,-12.099444 7.42773,-20.189452 2.80883,-8.100355 5.57908,-15.351513 6.38672,-24.705078 0.29573,-3.344376 -0.29213,-6.846752 -1.2207,-10.300781 z m 92.45898,74.044921 -0.041,0.11719 -4.13086,11.80664 h -1.84375 c 2.42509,-3.69388 4.54136,-7.62596 6.01563,-11.92383 z m -72.33984,53.32422 h 4.00976 c 4.51434,0 6.84103,3.17281 5.3418,7.56641 l -4.19922,12.28125 a 20.002,20.002 0 0 0 18.92383,26.47265 h 6.54492 c -5.63051,10.44641 -9.83,18.35525 -11.77148,20.41602 -1.49033,1.58188 -1.67215,1.85501 -5.14258,2.77539 -3.47043,0.92038 -10.23039,1.68555 -20.80078,1.68554 -7.66899,0 -14.95609,-1.03694 -17.36524,-1.93359 0.008,-0.12285 -0.002,-0.0685 0.01,-0.2207 -0.16241,1.83075 1.04722,-4.08504 2.72461,-8.99805 1.68242,-4.92776 3.59011,-9.9556 4.91797,-13.99023 l -0.20899,0.60156 z" id="path107"/>
        <path style="baseline-shift:baseline;display:inline;overflow:visible;vector-effect:none;stroke-linecap:round;stroke-linejoin:round;paint-order:markers stroke fill;enable-background:accumulate;stop-color:#000000;stop-opacity:1" d="m 413.71921,27.81776 -4.67945,13.16592 c 15.70393,0.79313 46.87385,-3.0932 45.20829,15.38668 -0.79313,9.2796 -9.2796,30.53542 -12.69005,39.81502 l -49.80843,136.97317 c -8.24852,23.55589 -37.03906,37.03907 -64.00541,37.03907 l -4.60014,13.16592 c 0.87244,0 215.49282,0 215.57214,0 l 25.61802,-70.58838 h -13.00729 c -24.58696,42.82891 -19.90751,53.61544 -65.35373,53.61544 -17.3695,0 -39.18052,-1.9035 -37.27701,-23.95246 0.55519,-6.10708 6.50365,-21.17651 8.56578,-27.44222 l 21.81102,-59.80183 h 18.004 c 17.60743,0 29.98023,17.29018 24.26971,34.02518 l -4.20358,12.29348 h 10.78654 l 29.90092,-87.71993 H 547.044 l -0.55519,1.58625 c -4.67946,13.6418 -17.44881,22.84208 -31.88374,22.84208 h -29.42504 l 25.93528,-71.3815 c 8.56578,-23.15933 8.48647,-21.96964 32.04236,-21.96964 54.17063,0 63.9261,13.56248 56.39139,34.50106 h 13.08661 l 18.55919,-51.474 c -0.15863,-0.0793 -217.47565,-0.0793 -217.47565,-0.0793 z" id="path108"/>
    </g>
    <g id="path14" style="opacity:1">
        <path style="baseline-shift:baseline;display:inline;overflow:visible;vector-effect:none;fill:#ffffff;stroke-linecap:round;stroke-linejoin:round;paint-order:markers stroke fill;enable-background:accumulate;stop-color:#000000;stop-opacity:1" d="m 796.94727,72.060547 c -17.53032,0 -32.35806,7.348041 -44.11915,16.613281 -1.11859,-1.563479 -2.31547,-3.069951 -3.68359,-4.441406 -8.61833,-8.63935 -20.42091,-12.091797 -31.66797,-12.091797 -17.4637,0 -32.15019,7.580886 -44.13086,16.958984 -0.59183,-0.874441 -1.17823,-1.751958 -1.85351,-2.589843 -7.4423,-9.234355 -19.76282,-14.369141 -31.74219,-14.369141 -20.32152,0 -36.45554,11.109998 -47.77734,23.054687 C 580.65085,107.14 572.7127,120.75072 566.73437,131.54492 a 20.002,20.002 0 0 0 8.47071,27.53711 l 6.90039,3.49024 a 20.002,20.002 0 0 0 7.54297,1.65039 c -3.60746,10.38164 -7.19705,20.26057 -9.50196,26.33007 -0.005,0.0133 -0.0145,0.0395 -0.0195,0.0527 l -16.50781,42.25586 a 20.002,20.002 0 0 0 18.62891,27.27734 h 37.43554 a 20.002,20.002 0 0 0 18.45118,-12.2832 l 3.2246,-7.71094 a 20.002,20.002 0 0 0 19.56641,19.99414 h 37.11914 a 20.002,20.002 0 0 0 18.54297,-12.50781 l 11.42969,-28.2832 c -0.7796,11.64439 2.77148,23.60238 10.70508,32.10546 8.14643,8.73121 20.01823,13.12696 31.81445,13.12696 27.58713,0 46.85286,-18.78025 59.90039,-35.92188 l 0.004,-0.006 c 5.67633,-7.41658 10.28766,-14.85616 14.07226,-21.33203 a 20.002,20.002 0 0 0 -7.25586,-27.40429 l -6.58203,-3.80665 a 20.002,20.002 0 0 0 -5.23437,-1.48632 l 3.83789,-9.17188 a 20.002,20.002 0 0 0 0.14453,-0.36133 c 4.43246,-11.20203 11.55618,-27.43641 12.99219,-44.54882 a 20.002,20.002 0 0 0 0.002,-0.0195 c 1.03928,-12.52913 -2.11474,-25.942398 -11.16992,-35.367183 -9.05519,-9.424785 -21.88665,-13.09375 -34.30078,-13.09375 z M 640.33984,112.11523 c 0.029,0.14553 0.006,0.56247 0.0293,0.77344 -0.0847,-0.24305 -0.23243,-0.51278 -0.32617,-0.75976 0.18114,-2.6e-4 0.18679,-0.0117 0.29687,-0.0137 z m -17.26757,21.41797 c -0.046,0.10995 -0.25819,0.32102 -0.67579,0.55274 0.0884,-0.0874 0.34767,-0.4341 0.41797,-0.49805 0.19394,-0.17642 0.30489,-0.16725 0.25782,-0.0547 z m 14.69531,11.92774 a 20.002,20.002 0 0 0 0.81836,1.66015 c -1.06295,2.02548 -2.23358,4.05279 -3.23242,6.05469 0.7885,-2.54363 1.72965,-5.24349 2.41406,-7.71484 z m 150.5332,57.56445 c -0.0418,0.0355 -0.17138,0.196 -0.20898,0.22656 -0.43398,0.35271 -0.50018,0.10528 0.20898,-0.22656 z m -19.99023,17.33398 c 0.23944,1.39332 0.59767,2.76127 1.07422,4.08985 -1.13448,-0.15057 -1.51819,-0.39466 -1.41602,-0.28516 0.13455,0.14421 -0.32151,0.27132 -0.11133,-2.23047 0.0126,-0.13267 0.40008,-1.32274 0.45313,-1.57422 z" id="path109"/>
        <path style="baseline-shift:baseline;display:inline;overflow:visible;vector-effect:none;stroke-linecap:round;stroke-linejoin:round;paint-order:markers stroke fill;enable-background:accumulate;stop-color:#000000;stop-opacity:1" d="m 598.82465,197.70574 c 6.26571,-16.49706 21.65239,-58.45352 23.00071,-74.31608 0.23794,-3.48976 -1.03107,-8.24853 -5.47258,-8.24853 -8.56578,0 -21.25583,22.68346 -25.22147,29.58367 l -6.90021,-3.48976 c 11.42104,-20.62133 29.42504,-49.09461 55.51895,-49.09461 14.43492,0 21.81101,10.31066 20.62132,24.42833 -0.71382,7.53472 -2.30007,15.14874 -4.67945,21.65239 l 0.6345,0.71382 c 12.4521,-20.62133 35.05625,-46.79454 61.15015,-46.79454 14.75218,0 24.26971,8.56578 23.00071,24.03177 -0.71382,7.53471 -3.01389,15.14874 -4.99671,21.96964 l 0.6345,0.71381 c 13.56249,-21.25582 32.99412,-46.79454 60.83291,-46.79454 17.52812,0 26.96634,9.59685 25.53871,26.80772 -0.95175,11.34173 -7.29677,27.83879 -11.65898,38.86327 l -8.32784,19.9075 c -3.01388,7.21747 -14.03836,30.29749 -14.59355,37.11838 -0.23794,3.0932 1.74488,7.53472 5.15533,7.53472 4.75877,0 10.46929,-5.47258 15.46599,-11.73829 5.15533,-6.50365 9.75547,-13.72111 12.13486,-17.13156 l 6.58296,3.80701 c -3.56908,6.10708 -7.77265,12.84867 -12.69005,19.27301 -11.34172,14.9108 -26.33184,28.07672 -44.01859,28.07672 -14.43492,0 -23.87315,-9.9141 -22.60414,-24.42834 0.87244,-9.59684 7.93128,-28.5526 11.89692,-38.14944 l 8.64509,-20.70064 c 3.56907,-8.56578 14.19699,-32.35961 14.9108,-40.21158 0.39657,-4.52083 -2.30007,-8.56578 -6.8209,-8.56578 -23.71452,0 -55.36032,70.50906 -62.81572,88.751 l -15.70393,38.86326 h -37.11838 l 31.6458,-82.48529 c 3.48976,-8.24853 10.78654,-25.77665 11.57966,-34.10449 0.39657,-5.15533 -0.39656,-11.02448 -6.26571,-11.02448 -26.0939,0 -52.1878,65.27442 -60.35702,84.94399 l -17.84538,42.67027 h -37.43563 z" id="path110"/>
    </g>
    <g id="path15" style="opacity:1">
        <path style="baseline-shift:baseline;display:inline;overflow:visible;vector-effect:none;fill:#ffffff;stroke-linecap:round;stroke-linejoin:round;paint-order:markers stroke fill;enable-background:accumulate;stop-color:#000000;stop-opacity:1" d="m 936.37891,72.140625 c -65.85771,0 -114.55761,58.733605 -119.93555,119.683595 a 20.002,20.002 0 0 0 0,0.006 c -1.7226,19.58842 2.53767,38.47206 14.55469,52.3164 12.01701,13.84435 30.56804,20.67188 50.41797,20.67188 39.18177,0 67.60999,-27.11495 87.1582,-52.54492 a 20.002,20.002 0 0 0 -3.25,-27.71485 l -8.00977,-6.5039 a 20.002,20.002 0 0 0 -3.0039,-1.375 c 19.94168,-10.72389 39.10771,-27.66248 41.41211,-53.92188 l -0.002,0.004 c 1.59477,-18.14051 -9.8079,-34.51062 -22.23242,-41.648439 -12.42451,-7.137819 -25.46266,-8.972656 -37.10937,-8.972656 z m 27.06836,46.117185 -0.0117,0.1211 c 0.001,-0.0165 -0.001,-0.0343 0,-0.0508 0.002,-0.0242 0.01,-0.0461 0.0117,-0.0703 z m -98.58399,46.08594 a 20.002,20.002 0 0 0 -0.2168,3.99609 20.002,20.002 0 0 0 -4.12695,7.25 c -1.70893,6.75439 -3.46138,14.14605 -4.2793,22.36328 0.0388,-0.90549 -0.0367,-1.63976 0.0488,-2.61328 v -0.006 c 0.93178,-10.5516 3.94915,-21.10537 8.57422,-30.99023 z m 54.5918,26.27539 c -9.30309,8.58547 -18.37632,14.91918 -23.18164,15.24023 -0.20299,-0.82915 -0.40134,-2.06266 -0.24805,-3.8789 0.15787,-1.60642 0.49988,-3.40421 0.81055,-5.16992 7.08566,-1.74297 14.07958,-3.55692 22.61914,-6.19141 z" id="path111"/>
        <path style="baseline-shift:baseline;display:inline;overflow:visible;vector-effect:none;stroke-linecap:round;stroke-linejoin:round;paint-order:markers stroke fill;enable-background:accumulate;stop-color:#000000;stop-opacity:1" d="m 952.71828,200.08512 c -17.92469,23.31796 -41.79784,44.73241 -71.30219,44.73241 -31.32855,0 -47.82561,-19.66957 -45.04966,-51.23606 4.52083,-51.23605 46.71523,-101.44104 100.01341,-101.44104 17.92469,0 41.32196,7.21746 39.41846,28.86985 -3.41045,38.86326 -65.35373,51.87056 -95.88916,59.48458 -1.66556,6.58296 -3.17251,13.08661 -3.80701,19.66957 -1.18969,13.40386 4.91739,25.77666 19.74888,25.77666 19.27301,0 36.32526,-18.55919 48.85668,-32.35962 z m -9.20029,-83.51636 c 0.71382,-7.85196 -3.17251,-14.11767 -11.50035,-14.11767 -24.74559,0 -41.71852,48.06354 -48.14286,67.0193 23.63521,-6.8209 57.34314,-25.77666 59.64321,-52.90163 z" id="path112"/>
    </g>
    <g id="path16" style="opacity:1">
        <path style="baseline-shift:baseline;display:inline;overflow:visible;vector-effect:none;fill:#ffffff;stroke-linecap:round;stroke-linejoin:round;paint-order:markers stroke fill;enable-background:accumulate;stop-color:#000000;stop-opacity:1" d="m 1045.9238,72.140625 c -20.4928,0 -36.7955,11.151847 -48.35153,23.21875 -11.55603,12.066905 -19.71953,25.878195 -25.80665,36.960935 a 20.002,20.002 0 0 0 8.9004,27.67188 l 7.29687,3.48828 a 20.002,20.002 0 0 0 7.48047,1.4707 c -3.05637,9.40762 -6.19374,18.5097 -8.79297,25.04883 l 0.008,-0.0156 -17.13281,42.98829 a 20.002,20.002 0 0 0 18.58008,27.40429 h 38.46683 a 20.002,20.002 0 0 0 18.4433,-12.26562 l 15.4668,-36.88086 c 3.4873,-8.19632 11.609,-27.88695 20.8457,-45.20703 4.08,-7.65045 8.3144,-14.41058 11.9239,-19.25196 5.6652,4.43093 13.4558,8.67383 22.1503,8.67383 20.8057,0 40.3551,-17.01927 42.2852,-38.51367 v -0.002 c 1.0831,-12.05625 -3.0888,-24.577928 -11.4258,-32.812503 -8.3374,-8.235018 -19.6828,-11.976562 -30.8594,-11.976562 -16.6818,0 -29.7356,6.872772 -39.6289,13.708984 -6.8941,-8.243415 -18.3911,-13.708984 -29.8496,-13.708984 z m 13.2657,26.392578 c -0.4047,0.321962 -1.9186,1.532317 -2.0469,1.621097 -0.2091,0.1447 -0.5271,-0.928196 2.0469,-1.621097 z m 56.2421,13.611327 c 1.6297,0.005 2.2348,0.2173 2.4981,0.34961 -0.015,0.13864 -0.019,0.15613 -0.082,0.85742 a 20.002,20.002 0 0 0 0,0.002 c -0.1156,1.28723 -0.071,1.5429 -0.1211,1.79296 -0.4825,-0.77053 -1.3762,-1.83852 -2.295,-3.00195 z m -69.0468,12.74414 c 0.1521,0.36782 0.2121,0.66107 0.3925,1.05078 1.2394,2.6768 3.9899,5.34883 7.1133,7.5293 -2.741,4.4421 -5.356,9.04198 -7.8574,13.73242 -2.5375,4.75809 -4.9491,9.59086 -7.2187,14.30274 3.5449,-12.19881 6.5427,-24.62153 7.5195,-35.63282 a 20.002,20.002 0 0 0 0.01,-0.10742 c 0.02,-0.23655 0.017,-0.62357 0.041,-0.875 z" id="path113"/>
        <path style="baseline-shift:baseline;display:inline;overflow:visible;vector-effect:none;stroke-linecap:round;stroke-linejoin:round;paint-order:markers stroke fill;enable-background:accumulate;stop-color:#000000;stop-opacity:1" d="m 1026.5717,240.37601 h -38.46674 l 17.13164,-42.98752 c 7.5347,-18.95576 19.4316,-53.61544 21.1765,-73.28501 0.3172,-3.80702 0.079,-8.56578 -4.4415,-8.56578 -9.5969,0 -21.1766,22.28689 -25.38014,29.90091 l -7.29681,-3.48976 c 11.50035,-20.93857 30.21825,-49.80842 56.62935,-49.80842 14.1177,0 19.9868,11.34172 18.8765,24.03177 -0.8725,9.9141 23.4765,-24.03177 50.6015,-24.03177 13.7211,0 23.6352,8.88303 22.3662,23.0007 -1.1104,12.3728 -10.39,20.30407 -22.3662,20.30407 -14.7522,0 -12.8487,-14.11767 -21.0972,-14.11767 -18.5592,0 -45.6842,66.70205 -52.2671,82.16804 z" id="path114"/>
    </g>
    <g id="path17" style="opacity:1">
        <path style="baseline-shift:baseline;display:inline;overflow:visible;vector-effect:none;fill:#ffffff;stroke-linecap:round;stroke-linejoin:round;paint-order:markers stroke fill;enable-background:accumulate;stop-color:#000000;stop-opacity:1" d="m 1212.3125,72.220703 c -16.8779,0 -34.3869,4.297269 -49.4609,14.279297 -15.0741,9.982028 -27.5329,27.06727 -29.3926,48.3125 -1.4666,16.67192 4.2386,30.12661 11.2148,41.02539 -1.6179,-0.21036 -3.2391,-0.43164 -4.8535,-0.43164 -9.5918,0 -19.3228,3.96105 -25.8398,10.61523 -6.5141,6.65115 -9.8503,15.2929 -10.584,23.84961 -1.6767,19.41016 10.2157,36.32832 23.3301,44.27735 13.1171,7.95066 27.2923,10.50976 40.1386,10.50976 17.663,0 35.6047,-5.38358 50.8653,-16.00586 15.2605,-10.62227 28.0653,-27.74955 29.9687,-49.26367 a 20.002,20.002 0 0 0 0.012,-0.12109 c 1.4919,-18.11494 -4.4719,-33.13909 -12.4043,-45.5 0.055,3.3e-4 0.1095,0.0117 0.1641,0.0117 18.2411,0 34.0418,-14.53078 35.625,-32.68946 1.6076,-18.17318 -10.5725,-34.447714 -22.9941,-40.980465 -12.4307,-6.537504 -25.0261,-7.888672 -35.7891,-7.888672 z m -38.6641,64.316407 c 4.5348,13.03824 14.1104,21.76268 18.6426,26.72656 11.3321,12.73586 16.5859,19.81525 15.5567,32.63672 -0.098,1.09224 -0.4283,2.08261 -0.6602,3.11523 -0.9423,-4.09886 -2.3282,-7.9012 -4.0059,-11.0957 -3.4845,-6.6349 -7.3774,-11.0546 -10.3769,-14.8418 l -0.021,-0.0293 c -11.3325,-14.76782 -20.1469,-27.1614 -19.4785,-34.73633 a 20.002,20.002 0 0 0 0,-0.0137 c 0.057,-0.64937 0.2511,-1.15122 0.3418,-1.76172 z m 34.6407,76.87891 -0.01,0.0898 c 0,-0.0158 -0,-0.0311 0,-0.0469 0,-0.0147 0.01,-0.0282 0.01,-0.043 z" id="path115"/>
        <path style="baseline-shift:baseline;display:inline;overflow:visible;vector-effect:none;stroke-linecap:round;stroke-linejoin:round;paint-order:markers stroke fill;enable-background:accumulate;stop-color:#000000;stop-opacity:1" d="m 1153.3822,136.55558 c 2.6174,-29.90091 32.439,-44.33584 58.9294,-44.33584 16.8937,0 40.7668,5.86914 38.8633,27.12497 -0.7138,8.24853 -7.4554,14.43493 -15.7039,14.43493 -10.3107,0 -13.6418,-9.2796 -13.2453,-17.92469 0.3173,-8.24853 -1.7448,-12.05555 -11.0244,-12.05555 -11.0245,0 -19.0351,5.5519 -19.9869,16.17981 -1.1103,12.69005 8.7244,21.96964 15.9419,29.90092 12.2142,13.72111 22.2869,27.52153 20.6213,47.74629 -2.6173,29.58367 -34.3424,47.03248 -60.9122,47.03248 -19.273,0 -45.6048,-9.27959 -43.5427,-33.07343 0.7931,-9.27959 6.9002,-16.1798 16.4971,-16.1798 8.5657,0 15.3073,5.86914 14.5142,15.14874 l -0.8724,5.86914 -0.7932,5.5519 c -0.7138,7.53471 6.9002,11.02447 13.1659,11.02447 11.659,0 21.5731,-9.91409 22.5249,-21.25582 1.031,-11.65898 -4.9174,-18.24194 -11.4211,-26.49047 -10.4693,-13.6418 -25.2214,-29.82161 -23.5559,-48.69805 z" id="path116"/>
    </g>
    <g id="path18" style="opacity:1">
        <path style="baseline-shift:baseline;display:inline;overflow:visible;vector-effect:none;fill:#ffffff;stroke-linecap:round;stroke-linejoin:round;paint-order:markers stroke fill;enable-background:accumulate;stop-color:#000000;stop-opacity:1" d="m 1341.8906,72.140625 c -61.7133,0 -108.6054,53.744165 -113.6718,111.769535 l 0,-0.004 c -1.8744,21.40705 3.3574,42.00783 16.3398,57.21875 12.9825,15.21092 33.1901,23.69336 55.4532,23.69336 61.0807,0 108.7032,-54.34648 113.6738,-111.45899 1.8417,-21.15469 -3.4381,-41.6678 -16.3008,-56.980464 -12.8626,-15.312667 -33.066,-24.238281 -55.4961,-24.238281 z m -4.5566,54.970705 c -1.5362,9.92608 -7.4126,33.64986 -16,53.30859 -4.7371,10.84443 -10.3339,20.63694 -15.1992,26.48242 -0.6,0.72086 -1.0629,1.13052 -1.5977,1.69336 1.8869,-13.95614 9.9985,-37.82983 16.75,-52.93359 a 20.002,20.002 0 0 0 0.2324,-0.54102 c 3.1169,-7.56414 7.5147,-17.20338 12.1719,-23.65625 1.3816,-1.91426 2.5645,-3.25667 3.6426,-4.35351 z m -52.5645,12.22851 c -0.05,0.11223 -0.1059,0.25441 -0.1562,0.36719 -0.02,0.0487 -0.056,0.12537 -0.076,0.17383 z m 89.0743,9.72461 c -0.021,0.2912 0.02,0.53131 -0.01,0.82617 -0.8092,9.29795 -3.8329,18.80145 -8.4297,27.79688 3.6399,-10.14622 6.3358,-19.71233 8.4356,-28.62305 z m -95.502,5.49414 c -3.7804,9.54451 -7.2938,20.11174 -9.9941,30.77149 1.2314,-10.672 4.7356,-21.17692 9.9941,-30.77149 z" id="path117"/>
        <path style="baseline-shift:baseline;display:inline;overflow:visible;vector-effect:none;stroke-linecap:round;stroke-linejoin:round;paint-order:markers stroke fill;enable-background:accumulate;stop-color:#000000;stop-opacity:1" d="m 1248.1438,185.65019 c 4.2036,-48.14285 44.2566,-93.50976 93.7477,-93.50976 35.0563,0 54.8052,25.77665 51.8706,59.48458 -4.045,46.47729 -45.6049,93.19252 -93.7477,93.19252 -35.1356,0 -54.8845,-24.74559 -51.8706,-59.16734 z m 54.8845,-38.14944 c -7.6934,17.21087 -17.2109,43.30477 -18.8765,61.86397 -0.9517,10.62791 2.0622,23.71452 15.1488,23.71452 31.6458,0 56.4707,-83.19911 58.5328,-107.62745 0.9518,-11.02447 -3.2518,-21.65239 -15.6246,-21.65239 -20.2248,0.0793 -32.6769,27.9181 -39.1805,43.70135 z" id="path118"/>
    </g>
    <g id="path19" style="opacity:1">
        <path style="baseline-shift:baseline;display:inline;overflow:visible;vector-effect:none;fill:#ffffff;stroke-linecap:round;stroke-linejoin:round;paint-order:markers stroke fill;enable-background:accumulate;stop-color:#000000;stop-opacity:1" d="m 1468.4805,72.140625 c -20.0905,0 -36.5879,10.342244 -48.1367,22.189453 -11.5489,11.847212 -19.504,25.619632 -25.5762,37.464842 a 20.002,20.002 0 0 0 10.1054,27.58399 l 6.6622,2.77734 a 20.002,20.002 0 0 0 6.5156,1.01758 c -2.0044,5.31911 -4.1965,11.35153 -5.7363,15.46484 a 20.002,20.002 0 0 0 -0.1075,0.29492 l -19.5117,54.72657 a 20.002,20.002 0 0 0 18.8399,26.71679 h 35.9277 a 20.002,20.002 0 0 0 18.3496,-12.04297 l 16.6836,-38.46484 c -0.5765,2.87588 -1.0695,5.7776 -1.3359,8.70898 a 20.002,20.002 0 0 0 -0.014,0.17774 c -0.9769,11.91847 2.6628,24.24415 10.8086,32.95312 8.1458,8.70897 20.0104,13.10938 31.8066,13.10938 19.8151,0 35.7594,-10.37626 47.4473,-21.79688 11.6879,-11.42061 20.2256,-24.63827 26.5762,-35.62304 a 20.002,20.002 0 0 0 -7.3008,-27.32422 l -6.584,-3.80664 a 20.002,20.002 0 0 0 -5.2305,-1.49414 l 3.834,-9.16407 a 20.002,20.002 0 0 0 0.1465,-0.35937 c 4.4324,-11.20204 11.5561,-27.43848 12.9922,-44.55078 a 20.002,20.002 0 0 0 0,-0.0176 c 1.0393,-12.52912 -2.1167,-25.944358 -11.1718,-35.36914 -9.0552,-9.424782 -21.8847,-13.091797 -34.2989,-13.091797 -18.7614,0 -34.5811,6.867859 -47.7246,16.919922 -0.6782,-1.068666 -1.389,-2.128114 -2.207,-3.15625 -7.6424,-9.605615 -20.2781,-13.84375 -31.7617,-13.84375 z m 1.9297,53.597655 -0,0.0254 c 4e-4,-0.005 -4e-4,-0.0105 0,-0.0156 3e-4,-0.003 0,-0.007 0,-0.01 z m -5.2129,23.67774 a 20.002,20.002 0 0 0 0.4863,0.92968 c -0.735,1.41358 -1.4098,2.74445 -2.1094,4.14063 0.5622,-1.69252 1.0997,-3.38724 1.6231,-5.07031 z m 76.3027,53.77734 c -0.039,0.033 -0.1601,0.18203 -0.1953,0.21094 -0.4583,0.376 -0.5276,0.12723 0.1953,-0.21094 z m -19.9805,17.20898 c 0.2443,1.46352 0.6143,2.89694 1.1192,4.28907 -1.1685,-0.14913 -1.5583,-0.40028 -1.4707,-0.30664 0.1123,0.12012 -0.3268,0.14535 -0.1543,-2.2461 0.014,-0.14304 0.4416,-1.44721 0.5058,-1.73633 z" id="path119"/>
        <path style="baseline-shift:baseline;display:inline;overflow:visible;vector-effect:none;stroke-linecap:round;stroke-linejoin:round;paint-order:markers stroke fill;enable-background:accumulate;stop-color:#000000;stop-opacity:1" d="m 1431.0457,185.65019 c 5.7898,-15.46599 18.1626,-46.08072 19.4316,-61.54671 0.3173,-3.80702 -0.9517,-9.2796 -5.7105,-9.2796 -9.2796,0 -21.0972,21.25583 -25.5387,28.86985 l -6.6623,-2.77594 c 11.2624,-21.96964 29.0285,-48.77736 55.9155,-48.77736 15.1488,0 21.1765,8.88303 19.9075,23.71452 l -3.4897,19.66957 -1.6656,6.50364 0.6345,0.71382 c 13.4832,-24.42834 36.7218,-50.52224 66.3055,-50.52224 17.5281,0 26.9663,9.59685 25.5387,26.80772 -0.9518,11.34173 -7.2968,27.83878 -11.659,38.86326 l -8.3278,19.90751 c -3.0139,7.21746 -14.0384,30.29748 -14.5936,37.11838 -0.2379,3.0932 1.7449,7.53471 5.1554,7.53471 9.5968,0 22.9214,-22.28689 27.6008,-28.86985 l 6.583,3.80702 c -11.7383,20.30407 -31.3286,47.42904 -56.7087,47.42904 -14.4349,0 -23.8731,-9.9141 -22.6834,-24.42834 0.8724,-9.59684 8.0106,-28.5526 11.9762,-38.14945 l 8.6451,-20.70063 c 3.5691,-8.56578 14.197,-32.35962 14.9108,-40.21158 0.3966,-4.52083 -2.3001,-8.56578 -6.8209,-8.56578 -29.9009,0.71381 -54.012,62.49847 -63.3709,83.91292 l -18.9558,43.70134 h -35.9287 z" id="path120"/>
    </g>
    <g id="ellipse19" style="opacity:1">
        <path style="baseline-shift:baseline;display:inline;overflow:visible;vector-effect:none;fill:#ffffff;stroke-linecap:round;stroke-linejoin:round;paint-order:markers stroke fill;enable-background:accumulate;stop-color:#000000;stop-opacity:1" d="m 386.42578,35.814453 c -21.23831,0 -39.75,17.143414 -39.75,38.876953 0,21.73354 18.51169,38.876954 39.75,38.876954 21.23831,0 39.74805,-17.143414 39.74805,-38.876954 0,-21.733539 -18.50974,-38.876953 -39.74805,-38.876953 z m 0,38.220703 c 0.11265,0.1709 0.25,0.331788 0.25,0.65625 0,0.324462 -0.13735,0.48535 -0.25,0.65625 -0.11276,-0.170937 -0.25195,-0.331465 -0.25195,-0.65625 0,-0.324784 0.13919,-0.485313 0.25195,-0.65625 z" id="path121"/>
        <path style="baseline-shift:baseline;display:inline;overflow:visible;vector-effect:none;stroke-linecap:round;stroke-linejoin:round;paint-order:markers stroke fill;enable-background:accumulate;stop-color:#000000;stop-opacity:1" d="M 406.17384,74.691643 A 19.748882,18.876442 0 0 1 386.42496,93.568085 19.748882,18.876442 0 0 1 366.67607,74.691643 19.748882,18.876442 0 0 1 386.42496,55.815201 19.748882,18.876442 0 0 1 406.17384,74.691643 Z" id="path122"/>
    </g>
    <g id="path20" style="opacity:1">
        <path style="baseline-shift:baseline;display:inline;overflow:visible;vector-effect:none;fill:#ffffff;stroke-linecap:round;stroke-linejoin:round;paint-order:markers stroke fill;enable-background:accumulate;stop-color:#000000;stop-opacity:1" d="m 421.56055,7.8964844 c -21.49031,0 -37.97213,3.6112236 -50.77344,11.0175776 -12.80131,7.406355 -20.92715,19.158623 -24.08594,30.072266 -6.31757,21.827286 2.71289,40.111328 2.71289,40.111328 a 20.002,20.002 0 0 0 25.42383,10.8125 l 15.20313,-5.726562 12.96289,-2.138672 a 20.002,20.002 0 0 0 12.02929,-6.832031 c 0,0 3.28945,-3.576819 5.49414,-9.427735 1.31624,-3.493083 2.04731,-9.683491 0.67969,-15.917969 a 20,20 0 0 0 15.83203,-18.882812 20,20 0 0 0 -0.26367,-0.982422 20,20 0 0 0 4.78516,-12.105469 20,20 0 0 0 -20,-19.9999996 z" id="path123"/>
        <path style="baseline-shift:baseline;display:inline;overflow:visible;vector-effect:none;stroke-linecap:round;stroke-linejoin:round;paint-order:markers stroke fill;enable-background:accumulate;stop-color:#000000;stop-opacity:1" d="m 417.03976,40.98368 c -9.27959,0 -36.6425,0.31725 -16.25912,21.01789 4.12427,4.20358 -1.03107,10.31066 -1.03107,10.31066 l -14.9108,2.4587 -17.05225,6.42433 c 0,0 -22.92139,-53.29819 53.77407,-53.29819" id="path124"/>
    </g>
    <g id="g23" style="stroke:#ffffff;stroke-width:50.4332;stroke-linecap:round;stroke-linejoin:round;stroke-dasharray:none;stroke-opacity:1;paint-order:markers stroke fill" transform="matrix(0.7931278,0,0,0.7931278,-1498.7604,-508.01938)">
        <g id="g22" style="stroke:#ffffff;stroke-width:50.4332;stroke-linecap:round;stroke-linejoin:round;stroke-dasharray:none;stroke-opacity:1;paint-order:markers stroke fill">
            <g id="path21" style="opacity:1">
                <path style="baseline-shift:baseline;display:inline;overflow:visible;vector-effect:none;fill:#ffffff;stroke:none;enable-background:accumulate;stop-color:#000000;stop-opacity:1" d="m 2098.4004,793.68359 c -27.937,0 -50.916,23.22409 -50.916,50.91602 0,27.69193 22.979,50.91602 50.916,50.91601 27.9369,0 50.916,-23.22408 50.916,-50.91601 0,-27.93695 -23.2241,-50.91602 -50.916,-50.91602 z m 0.4316,50.42578 c 0.057,0.038 0.051,0.15871 0.051,0.49024 0,0.50807 0.1806,0.48437 -0.4824,0.48437 -0.6631,0 -0.4844,0.0237 -0.4844,-0.48437 0,-0.50807 -0.1787,-0.48242 0.4844,-0.48242 0.254,0 0.3743,-0.0458 0.4316,-0.008 z" id="path125"/>
                <path style="baseline-shift:baseline;display:inline;overflow:visible;vector-effect:none;stroke:none;enable-background:accumulate;stop-color:#000000;stop-opacity:1" d="m 2098.4,870.3 c 14.3,0 25.7,-11.6 25.7,-25.7 0,-14.3 -11.6,-25.7 -25.7,-25.7 -14.3,0 -25.7,11.6 -25.7,25.7 0,14.1 11.4,25.7 25.7,25.7" id="path126"/>
            </g>
            <g id="path22" style="opacity:1">
                <path style="baseline-shift:baseline;display:inline;overflow:visible;vector-effect:none;fill:#ffffff;stroke:none;enable-background:accumulate;stop-color:#000000;stop-opacity:1" d="m 2085.8008,681.98437 c -14.8987,0 -27.2638,8.36993 -34.9258,18.95313 -7.662,10.5832 -11.4922,23.86884 -11.4922,38.46289 0,6.66266 0.629,13.019 1.5938,19.05664 l -2.4825,1.47852 a 25.219122,25.219122 0 0 0 -0.5449,0.33593 c -12.192,7.68866 -26.8166,18.04332 -39.5371,31.48243 -12.7205,13.4391 -24.9277,30.89768 -24.9277,53.74609 a 25.219122,25.219122 0 0 0 0,0.15234 c 0.2294,37.97505 26.2856,65.68448 57.5176,77.32227 -5.6976,6.89285 -9.3184,16.42337 -9.3184,25.42578 0,22.02774 18.0854,38.26331 36.0117,41.96875 17.9162,3.70335 38.8861,-2.82588 52.5137,-19.49805 13.9486,-17.00887 20.8354,-35.79325 20.7441,-53.67382 27.7669,-12.57648 47.2637,-40.545 47.2637,-72.79688 0,-37.16444 -25.9652,-68.66183 -60.5703,-77.41797 5.3803,-10.26647 8.9707,-22.32435 8.9707,-35.88281 0,-10.13882 -1.498,-20.64785 -8.002,-30.67969 -6.7347,-10.64541 -19.6953,-18.43554 -32.8144,-18.43555 z m 25.0195,23.55079 0.062,0.0996 c -0.011,-0.0179 -0.028,-0.0348 -0.039,-0.0527 -0.01,-0.0142 -0.015,-0.0327 -0.024,-0.0469 z m -12.4199,126.68164 c 7.0562,0 12.2832,5.22696 12.2832,12.2832 0,7.05624 -5.227,12.2832 -12.2832,12.2832 -7.0562,0 -12.2832,-5.22696 -12.2832,-12.2832 0,-7.21866 4.8964,-12.2832 12.2832,-12.2832 z m -34.4473,125.33593 a 25.219122,25.219122 0 0 0 0.1485,0.11719 c 0.3622,0.27934 0.8649,0.53338 1.2578,0.81055 -0.1087,0.04 -0.1421,0.0494 -0.2266,0.0742 -0.3581,-0.31039 -0.5012,-0.47064 -1.1797,-1.00196 z" id="path127"/>
                <path style="baseline-shift:baseline;display:inline;overflow:visible;vector-effect:none;stroke:none;enable-background:accumulate;stop-color:#000000;stop-opacity:1" d="m 2056.6,789.6 4.6,-2.8 c 3.7,-2.3 7.6,-4.7 11.5,-7.3 2,5.5 4,10.3 5.8,14.1 -20.4,8 -34.9,27.8 -34.9,51 0,19.8 10.6,37.2 26.4,46.8 -4.7,2.7 -12.3,3.4 -19.5,1.5 -23.7,-6.3 -30.8,-29 -30.8,-47.4 0,-22.1 17.7,-43.9 36.9,-55.9 m 29.3,-73 c 0.5,0 2.1,0 3.6,2.4 1.2,1.9 2.5,5.3 2.5,12 0,14.7 -6,21.8 -14.4,29.7 -2,-7.6 -3.4,-13.2 -3.4,-21.4 0.1,-15.1 7.5,-22.7 11.7,-22.7 m 12.5,90.4 c 20.7,0 37.5,16.8 37.5,37.5 0,20.7 -16.8,37.5 -37.5,37.5 -20.7,0 -37.5,-16.8 -37.5,-37.5 0,-20.7 16.6,-37.5 37.5,-37.5 m -41.9,96.4 c 10,1.2 17.1,0.5 23,-0.9 7.2,2.9 13.6,7.6 13.6,15 0,16.6 -5.3,26.6 -13.6,20.2 -8.3,-6.5 -32.6,-7.1 -32.6,10.7 0,17.8 27.8,26.1 43.8,6.5 16,-19.5 17.1,-43.3 10.7,-55.7 0,-0.1 -0.1,-0.1 -0.1,-0.2 28.8,-1.6 51.7,-25.4 51.7,-54.6 0,-30.2 -24.5,-54.7 -54.7,-54.7 -3.6,0 -7.2,0.3 -10.6,1.1 -2.1,-4.4 -4.7,-10.4 -7.1,-17.3 11.5,-9.5 20.8,-22.4 20.8,-42.4 0,-7.2 -1.3,-13 -4,-17.1 -2.7,-4.4 -6.9,-6.8 -11.6,-6.8 -10.4,0 -21.2,12 -21.2,32.2 0,10.7 2.1,21.3 4.8,30.8 -4.3,3.1 -8.8,5.9 -13.3,8.6 l -4.7,2.8 c -22.2,14 -52.7,38 -52.7,63.9 0.2,33.1 27.5,54.4 57.8,57.9" id="path128"/>
            </g>
        </g>
        <g id="path23" style="opacity:1">
            <path style="baseline-shift:baseline;display:inline;overflow:visible;vector-effect:none;fill:#ffffff;stroke:none;enable-background:accumulate;stop-color:#000000;stop-opacity:1" d="m 1914.9004,650.38281 a 25.219122,25.219122 0 0 0 -25.2168,25.2168 v 322.20117 a 25.219122,25.219122 0 0 0 25.2168,25.21482 h 322 a 25.219122,25.219122 0 0 0 25.2168,-25.21482 V 675.59961 a 25.219122,25.219122 0 0 0 -25.2168,-25.2168 z m 25.2168,50.4336 h 28.4238 c -10.537,8.35655 -20.0671,17.88697 -28.4238,28.42382 z m 243.3418,0 h 28.2246 v 28.15625 c -8.3072,-10.43358 -17.7747,-19.86878 -28.2246,-28.15625 z M 2076,713.61719 c 68.2653,0 123.0755,54.80323 123.084,123.0664 -0.091,68.30129 -54.8181,123.09961 -123.084,123.09961 -68.2705,0 -123.084,-54.81347 -123.084,-123.08398 0,-68.27052 54.8135,-123.08203 123.084,-123.08203 z m -135.8828,230.54297 c 8.3567,10.53685 17.8868,20.06727 28.4238,28.42382 h -28.4238 z m 271.5664,0.20507 v 28.21875 h -28.2578 c 10.4652,-8.30366 19.9417,-17.76169 28.2578,-28.21875 z" id="path129"/>
            <path style="baseline-shift:baseline;display:inline;overflow:visible;vector-effect:none;stroke:none;enable-background:accumulate;stop-color:#000000;stop-opacity:1" d="m 1914.9,675.6 v 322.2 h 322 V 675.6 Z M 2076,985 c -81.9,0 -148.3,-66.4 -148.3,-148.3 0,-81.9 66.4,-148.3 148.3,-148.3 81.9,0 148.3,66.4 148.3,148.3 -0.1,81.9 -66.4,148.3 -148.3,148.3 z" id="path130"/>
        </g>
    </g>
    <g id="g27" transform="matrix(1.5623167,0,0,1.430044,2037.3194,-720.40562)" style="stroke:#ffffff;stroke-width:20.0707;stroke-dasharray:none;stroke-opacity:1">
		
	</g>
</svg>
