<?xml version='1.0' encoding='utf-8'?>
<svg xmlns="http://www.w3.org/2000/svg" height="136.47138002751154" viewBox="0 0 408.55935 92.927765" width="600" version="1.1" id="svg168010">
    <defs id="defs168014"/>
    <g id="path167994" style="opacity:0.98">
        <path style="baseline-shift:baseline;display:inline;overflow:visible;vector-effect:none;fill:#ffffff;stroke-linejoin:round;paint-order:markers stroke fill;enable-background:accumulate;stop-color:#000000;stop-opacity:1" d="m 369.56445,52.625 a 3.750375,3.750375 0 0 0 -3.71093,3.212891 c 0.006,-0.04106 -0.0194,0.07278 -0.0527,0.345703 a 3.750375,3.750375 0 0 0 -0.0273,0.447265 c -0.0228,10.35322 8.45438,18.834134 18.80664,18.816407 h 1.85351 c 10.35227,0.01773 18.82941,-8.463185 18.80664,-18.816407 a 3.750375,3.750375 0 0 0 0,-0.03516 c -0.003,-0.230054 -0.0116,-0.347655 -0.0117,-0.349609 l -0.54297,0.5625 A 3.750375,3.750375 0 0 0 401.48242,52.625 h -0.002 z m 4.39649,7.5 h 23.09179 c -1.46294,4.53593 -5.55741,7.833042 -10.61132,7.822266 a 3.750375,3.750375 0 0 0 -0.008,0 h -1.85351 a 3.750375,3.750375 0 0 0 -0.008,0 c -5.05392,0.01078 -9.14839,-3.286336 -10.61133,-7.822266 z" id="path1"/>
        <path style="baseline-shift:baseline;display:inline;overflow:visible;vector-effect:none;fill:#db0404;stroke-linejoin:round;paint-order:markers stroke fill;enable-background:accumulate;stop-color:#000000;stop-opacity:1" d="m 401.48176,56.374766 h -31.917 c -0.013,0.09 -0.03,0.174 -0.041,0.264 a 15.025,15.025 0 0 0 15.057,15.058 h 1.853 a 15.025,15.025 0 0 0 15.057,-15.058 c -0.001,-0.089 -0.007,-0.176 -0.01,-0.264 z" id="path2"/>
    </g>
    <g id="path167996" style="opacity:0.98">
        <path style="baseline-shift:baseline;display:inline;overflow:visible;vector-effect:none;fill:#ffffff;stroke-linejoin:round;paint-order:markers stroke fill;enable-background:accumulate;stop-color:#000000;stop-opacity:1" d="m 385.92969,22.976562 c -5.40054,-0.162505 -10.50923,3.135204 -14.00977,8.660157 -3.50054,5.524952 -5.72832,13.367031 -6.16406,23.628906 l 7.49414,0.318359 c 0.39576,-9.320125 2.47946,-15.944187 5.00586,-19.93164 2.5264,-3.987454 5.1605,-5.248557 7.44922,-5.179688 2.28872,0.06887 5.01564,1.565889 7.47265,5.640625 2.45702,4.074736 4.38174,10.598827 4.57813,19.478516 l 7.49805,-0.164063 c -0.21811,-9.861811 -2.29093,-17.612892 -5.65235,-23.1875 -3.36142,-5.574608 -8.27134,-9.101166 -13.67187,-9.263672 z" id="path3"/>
        <path style="baseline-shift:baseline;display:inline;overflow:visible;vector-effect:none;fill:#fca404;stroke-linejoin:round;paint-order:markers stroke fill;enable-background:accumulate;stop-color:#000000;stop-opacity:1" d="m 369.50276,55.424766 c 1.663,-39.164 31.174,-37.398 32.003,0.085" id="path4"/>
    </g>
    <g id="path167998" style="opacity:0.98">
        <path style="baseline-shift:baseline;display:inline;overflow:visible;vector-effect:none;fill:#ffffff;stroke-linejoin:round;paint-order:markers stroke fill;enable-background:accumulate;stop-color:#000000;stop-opacity:1" d="m 369.80859,65.701172 a 3.750375,3.750375 0 0 0 -4.09961,3.734375 v 1.664062 a 3.750375,3.750375 0 0 0 3.10547,3.69336 c 10.79658,1.888791 19.54446,4.531424 28.92774,11.125 a 3.750375,3.750375 0 0 0 0.69336,0.384765 c 1.29703,0.548977 2.11254,0.542796 3.37304,0.232422 a 3.750375,3.750375 0 0 0 0.002,0 c 1.70375,-0.420061 3.22898,-1.128303 4.28125,-1.644531 a 3.750375,3.750375 0 0 0 0.01,-0.0059 c 0.82453,-0.407569 1.91101,-1.29585 2.3086,-2.697266 0.13051,-0.460032 0.0599,-0.878346 0.0332,-1.306641 a 3.750375,3.750375 0 0 0 0.0391,-0.06055 l -0.0371,0.01172 c -0.0632,-0.856668 -0.28094,-1.643557 -0.63476,-2.152344 a 3.750375,3.750375 0 0 0 -1.16016,-0.396484 l 0.58008,-0.259766 c -3.66666,-3.274231 -9.79603,-5.995725 -16.86328,-7.832031 a 3.750375,3.750375 0 0 0 -3.25782,-2.347656 l -3.29492,0.08984 v 0.0039 c -0.005,1.26e-4 -0.009,-0.0041 -0.0137,-0.0039 a 3.750375,3.750375 0 0 0 -0.69531,0.4375 c -4.87235,-1.274161 -9.42219,-2.307688 -13.29688,-2.669922 z m 12.33008,3.279297 a 3.750375,3.750375 0 0 0 -0.35156,0.220703 c 0.0802,-0.05565 0.076,-0.141434 0.16406,-0.191406 0.0652,-0.03699 0.12046,0.0022 0.1875,-0.0293 z" id="path5"/>
        <path style="baseline-shift:baseline;display:inline;overflow:visible;vector-effect:none;fill:#db0404;stroke-linejoin:round;paint-order:markers stroke fill;enable-background:accumulate;stop-color:#000000;stop-opacity:1" d="m 404.73176,80.819766 c 0.137,0.197 0.147,0.487 -0.292,0.704 -0.85,0.417 -2.44,1.102 -3.527,1.37 -0.398,0.098 -0.8,0.047 -1.015,-0.044 -9.909,-6.963 -19.383,-9.816 -30.438,-11.75 v -1.665 c 3.808,0.356 8.66,1.455 13.961,2.874 0.658,0.145 0.689,-0.633 0.495,-0.627 l 3.294,-0.089 v 1.628 c 7.582,1.691 14.448,4.855 17.522,7.6 z" id="path6"/>
    </g>
    <g fill="#ffffff" id="g168002" style="stroke:#ffffff;stroke-width:7.5;stroke-linecap:round;stroke-linejoin:round;stroke-dasharray:none;stroke-opacity:1;paint-order:markers stroke fill" transform="translate(3.8017578,4.5097656)">
        <g id="path168000" style="opacity:1">
            <path style="baseline-shift:baseline;display:inline;overflow:visible;vector-effect:none;stroke:none;enable-background:accumulate;stop-color:#000000;stop-opacity:1" d="m 139.06445,17.029297 a 3.750375,3.750375 0 0 0 -3.71875,3.267578 l -2.32812,17.896484 a 3.750375,3.750375 0 0 0 -2.01172,-2.90625 c -1.34789,-0.313462 -3.21387,-0.736328 -6.06445,-0.736328 -7.67042,0 -13.58344,2.896975 -17.68555,6.970703 v -2.101562 a 3.750375,3.750375 0 0 0 -2.45313,-3.517578 c -0.56797,-0.20939 -2.09568,-0.792969 -3.97656,-0.792969 -2.032801,0 -3.760754,0.750531 -5.310545,1.724609 a 3.750375,3.750375 0 0 0 -2.582031,-1.164062 h -6.083985 a 3.750375,3.750375 0 0 0 -3.71875,3.269531 l -4.634765,35.919922 a 3.750375,3.750375 0 0 0 3.71875,4.230469 h 6.15625 a 3.750375,3.750375 0 0 0 3.71875,-3.271485 l 2.527343,-19.615234 c 0.647978,-1.505282 1.253301,-2.485217 1.675782,-3.136719 l 0.002,-0.002 c 5.18e-4,-7.99e-4 0.0014,-0.0031 0.002,-0.0039 1.314024,-2.016193 2.267551,-2.887424 2.710937,-3.179688 0.444129,-0.292752 0.33845,-0.230468 0.804688,-0.230468 0.70233,0 0.92019,0.155054 1.75781,0.660156 a 3.750375,3.750375 0 0 0 0.0215,0 c -1.21858,3.248826 -1.833988,6.580641 -1.833988,9.669922 0,4.124226 0.920608,8.904193 3.722658,12.998047 2.80205,4.093853 7.81863,7.232422 14.36523,7.232421 5.43962,0 9.25148,-2.052948 10.98828,-3.099609 a 3.750375,3.750375 0 0 0 0.0703,-0.105469 3.750375,3.750375 0 0 0 3.0625,2.083985 h 6.15625 a 3.750375,3.750375 0 0 0 3.71679,-3.253907 l 2.97657,-22.326171 c 1.32076,-1.763717 2.68802,-3.347557 3.10937,-3.8125 0.92532,-1.021517 2.65522,-2.116739 2.99219,-2.242188 0.17329,0.268707 0.18359,0.257626 0.18359,1.244141 0,1.401579 -0.0234,1.388634 -0.23828,2.65039 a 3.750375,3.750375 0 0 0 -0.0215,0.158203 l -2.96875,23.359375 a 3.750375,3.750375 0 0 0 3.7207,4.222657 h 6.22656 a 3.750375,3.750375 0 0 0 3.72071,-3.277344 l 2.89648,-22.800781 -0.0156,0.111328 c 0.29076,-1.844783 0.40625,-2.822221 0.40625,-5.142578 0,-4.239993 -1.28348,-7.705284 -3.44531,-10.033203 -2.16183,-2.32792 -5.03326,-3.396485 -7.68945,-3.396485 -2.53062,0 -4.70896,0.777273 -6.71484,1.816406 l 1.96093,-15.105468 a 3.750375,3.750375 0 0 0 -3.71875,-4.232422 z m 152.15235,0 a 3.750375,3.750375 0 0 0 -3.72071,3.27539 l -1.83593,14.402344 c -2.64653,0.06993 -5.44731,0.332532 -8.76172,1.617188 a 3.750375,3.750375 0 0 0 -0.0195,0.0059 c -5.90572,2.32598 -10.25664,6.871869 -12.87305,12.191406 -0.61143,-3.25392 -1.8307,-6.170406 -3.71094,-8.498047 -2.7422,-3.394697 -6.88014,-5.472656 -11.37109,-5.472656 -5.83744,0 -10.84207,3.266566 -14.05078,7.876953 -1.23103,1.768788 -2.16534,3.785691 -2.94141,5.904297 -0.0805,-4.622389 -1.57325,-8.189657 -3.92578,-10.365234 -2.41797,-2.236096 -5.29732,-2.857422 -7.4707,-2.857422 -4.69303,0 -8.23116,2.262299 -10.91407,4.767578 -0.50802,-0.737489 -0.94529,-1.568849 -1.57812,-2.130859 -2.15413,-1.913054 -4.78347,-2.636719 -7.06055,-2.636719 -2.65185,0 -5.19158,0.818839 -7.61719,2.300781 a 3.750375,3.750375 0 0 0 -2.95703,-1.740234 h -6.08203 a 3.750375,3.750375 0 0 0 -3.71875,3.269531 l -0.0937,0.724609 a 3.750375,3.750375 0 0 0 -3.64648,-3.99414 h -6.15625 a 3.750375,3.750375 0 0 0 -3.71875,3.269531 l -4.63477,35.919922 a 3.750375,3.750375 0 0 0 3.71875,4.230469 h 6.15625 a 3.750375,3.750375 0 0 0 3.71875,-3.269532 l 0.0937,-0.724609 a 3.750375,3.750375 0 0 0 3.64649,3.994141 h 6.08203 a 3.750375,3.750375 0 0 0 3.71875,-3.265625 l 2.83789,-21.779297 c 0.60004,-0.848555 1.53116,-2.184517 2.86914,-3.582031 1.44765,-1.512075 3.04296,-2.268815 3.16211,-2.392579 0.003,-0.02268 0.17383,-0.04796 0.17383,1.189454 0,0.691442 -0.13197,3.11047 -0.48047,6.037109 l -2.5293,19.5625 a 3.750375,3.750375 0 0 0 3.71875,4.230469 h 6.15625 a 3.750375,3.750375 0 0 0 3.7168,-3.253907 l 2.90234,-21.767578 c 0.97827,-1.393376 2.21842,-3.019985 3.5332,-4.246093 1.12447,-1.048629 2.04162,-1.50039 2.54883,-1.714844 0.0576,0.09496 0.20508,0.104864 0.20508,1.392578 0,0.456025 -0.11804,1.68303 -0.19922,2.664062 l -2.95703,22.691407 a 3.750375,3.750375 0 0 0 3.71875,4.234375 h 6.15625 a 3.750375,3.750375 0 0 0 3.71875,-3.269532 l 1.55859,-12.052734 c 0.57815,3.832705 1.9279,7.315839 4.11719,10.132813 2.99415,3.852579 7.67192,6.310546 12.98242,6.310546 3.83096,0 8.61116,-1.240884 13.11914,-4.8125 a 3.750375,3.750375 0 0 0 1.38868,-2.447265 l 0.64843,-4.910156 c 0.94059,2.533027 2.30645,4.763234 4.00977,6.537109 a 3.750375,3.750375 0 0 0 0.004,0.0039 c 2.92516,3.035319 7.77515,5.628906 15.44726,5.628906 5.00041,0 8.32213,-0.978642 9.32617,-1.255859 a 3.750375,3.750375 0 0 0 2.72071,-3.130859 l 1.86718,-14.353516 c 0.32338,4.73365 1.70032,9.063555 4.31641,12.429688 2.99414,3.852579 7.66997,6.310546 12.98047,6.310546 3.83095,0 8.61062,-1.239446 13.11914,-4.810546 a 3.750375,3.750375 0 0 0 0.54883,-0.966797 3.750375,3.750375 0 0 0 0.10547,0.265625 c 4.67341,3.638869 8.72782,5.511718 13.45703,5.511718 4.3471,0 8.08314,-1.8439 10.46093,-4.582031 2.3778,-2.73813 3.50001,-6.21286 3.5,-9.648437 0,-3.494866 -1.14294,-6.572145 -2.94726,-8.904297 -1.80432,-2.332152 -4.03749,-4.013676 -6.47266,-5.900391 a 3.750375,3.750375 0 0 0 -0.01,-0.0078 c -1.19664,-0.921261 -2.32443,-1.814726 -2.97657,-2.494141 -0.11329,-0.11803 -0.10903,-0.143546 -0.18164,-0.236328 0.0804,0.0016 0.0296,0.01172 0.14649,0.01172 2.17803,0 4.73214,1.522941 7.51758,3.849609 a 3.750375,3.750375 0 0 0 6.15429,-2.878906 v -7.119141 a 3.750375,3.750375 0 0 0 -1.58398,-3.0625 c -1.83293,-1.296213 -6.18822,-4.449219 -12.16016,-4.449219 -4.25837,0 -7.95035,1.64758 -10.33789,4.285157 -1.47675,1.631402 -2.30102,3.593935 -2.83398,5.636718 -0.67321,-1.715356 -1.50625,-3.31955 -2.61133,-4.6875 -2.74229,-3.394609 -6.88243,-5.472656 -11.37305,-5.472656 -5.83744,0 -10.84012,3.266566 -14.04883,7.876953 -1.32596,1.905194 -2.32783,4.086339 -3.125,6.392578 l 3.58399,-27.55664 a 3.750375,3.750375 0 0 0 -3.71875,-4.234375 z m -0.0801,23.164062 -0.16602,1.271485 a 3.750375,3.750375 0 0 0 -0.85937,-0.390625 3.750375,3.750375 0 0 0 1.02539,-0.88086 z m -11.78125,1.410157 c -0.0183,0.0071 -0.0326,0.01824 -0.0508,0.02539 -0.009,0.0037 -0.0164,0.0021 -0.0254,0.0059 z m -139.90235,5.259765 a 3.750375,3.750375 0 0 0 0.46094,0.816406 c -0.27888,0.334571 -0.36958,0.442406 -0.67578,0.830079 z m 47.6211,0.554688 a 3.750375,3.750375 0 0 0 0.41211,0.714843 c -0.19324,0.255905 -0.44325,0.532371 -0.59961,0.748047 z m 61.84961,0.152343 c 0.58557,0 0.78072,0.07853 1.17969,0.607422 0.008,0.0106 0.0154,0.0416 0.0234,0.05273 h -2.91211 c 0.44212,-0.402576 0.92614,-0.660157 1.70899,-0.660157 z m 65.82617,0 c 0.58557,0 0.78072,0.07859 1.17969,0.607422 0.008,0.0106 0.0154,0.0416 0.0234,0.05273 h -2.91015 c 0.44198,-0.402642 0.92404,-0.660157 1.70703,-0.660157 z m -182.95508,0.01563 -2.07617,15.966797 a 3.750375,3.750375 0 0 0 -4.27148,0.259766 c -1.67246,1.385696 -3.41738,2.818359 -6.66016,2.818359 -2.74022,0 -3.36886,-0.870044 -4.13477,-2.300781 -0.76591,-1.430737 -1.02343,-3.609648 -1.02343,-4.429687 0,-2.488299 0.91181,-5.656717 2.70117,-7.931641 1.78936,-2.274924 4.21611,-3.837891 8.32226,-3.837891 1.30464,0 2.29143,0.17807 4.0293,0.498047 a 3.750375,3.750375 0 0 0 3.11328,-1.042969 z m 152.12695,0.566407 -2.46484,18.945312 c -2.56184,-0.12331 -3.9185,-0.852506 -4.80273,-1.923828 -0.962,-1.165539 -1.53321,-3.023716 -1.53321,-5.193359 0,-4.468733 2.07286,-9.489698 6.95118,-11.384766 a 3.750375,3.750375 0 0 0 0.0762,-0.03125 c 0.568,-0.235278 1.17598,-0.290791 1.77343,-0.412109 z M 89.464844,48.451172 a 3.750375,3.750375 0 0 0 0.455078,0.6875 c -0.09362,0.142868 -0.500834,1.001745 -0.71875,1.353515 z m 116.472656,0.25 a 3.750375,3.750375 0 0 0 0.37305,0.419922 c -0.0966,0.132945 -0.20245,0.267817 -0.29493,0.398437 4.5e-4,-0.05487 0.0195,-0.207677 0.0195,-0.259765 0,-0.203484 -0.088,-0.359207 -0.0977,-0.558594 z m 124.16016,6.984375 c 1.32396,2.275772 3.10786,4.129537 4.88281,5.501953 l -0.0488,-0.03906 c 2.76141,2.207523 4.54392,3.657492 5.32422,4.492188 0.7803,0.834696 0.58203,0.515523 0.58203,0.978516 0,0.369569 0.15858,0.169921 -0.30469,0.169921 -1.44412,0 -4.05999,-1.345174 -7.80078,-4.482421 a 3.750375,3.750375 0 0 0 -5.22656,1.203125 3.750375,3.750375 0 0 0 -4.94727,-1.048829 c -2.79219,2.33153 -6.63954,4.648438 -8.82031,4.648438 -1.49606,0 -4.09463,-1.635047 -4.18555,-6.660156 h 16.71485 a 3.750375,3.750375 0 0 0 3.68945,-3.083985 c 0.0667,-0.370306 0.0814,-1.161239 0.14063,-1.679687 z m -68.88477,4.115234 c -0.003,0.166394 -0.0352,0.333869 -0.0352,0.5 0,0.935931 0.14043,1.813946 0.2461,2.707031 a 3.750375,3.750375 0 0 0 -4.69336,-0.544921 c -2.79044,2.330849 -6.6415,4.646484 -8.82227,4.646484 -1.49606,0 -4.09267,-1.635063 -4.18359,-6.660156 h 16.71289 a 3.750375,3.750375 0 0 0 0.77539,-0.648438 z" id="path7"/>
            <path style="baseline-shift:baseline;display:inline;overflow:visible;vector-effect:none;fill:#000000;stroke:none;enable-background:accumulate;stop-color:#000000;stop-opacity:1" d="M 92.933,39.42 H 86.85 l -4.635,35.92 h 6.156 L 90.978,55.1 c 0.87,-2.16 1.81,-3.52 2.173,-4.08 2.969,-4.56 4.924,-5.12 6.662,-5.12 1.738,0 2.897,0.72 3.693,1.2 v -7.68 c -0.651,-0.24 -1.448,-0.56 -2.679,-0.56 -4.128,0 -6.88,4.08 -8.835,8.24 z m 37.224,-0.48 c -1.376,-0.32 -2.68,-0.64 -5.215,-0.64 -15.642,0 -21.435,12.48 -21.435,21.68 0,7.04 3.403,16.48 14.338,16.48 4.563,0 7.46,-1.6 9.053,-2.56 l 0.941,-7.2 c -1.738,1.44 -4.562,3.68 -9.052,3.68 -7.966,0 -8.908,-7.92 -8.908,-10.48 0,-6.64 4.418,-15.52 14.774,-15.52 1.665,0 2.969,0.24 4.707,0.56 z M 145.22,20.78 h -6.156 l -7.097,54.56 h 6.156 l 3.114,-23.36 c 1.738,-2.48 3.62,-4.48 3.91,-4.8 1.087,-1.2 3.404,-3.6 5.939,-3.6 1.014,0 2.245,0.64 2.969,1.76 0.724,1.12 0.796,2.16 0.796,3.36 0,1.52 -0.072,2 -0.29,3.28 l -2.968,23.36 h 6.228 l 2.896,-22.8 c 0.29,-1.84 0.362,-2.32 0.362,-4.56 0,-7.04 -4.055,-9.68 -7.386,-9.68 -4.78,0 -8.618,3.36 -11.66,7.04 z m 31.647,18.64 h -6.156 l -4.635,35.92 h 6.156 z m 13.542,0 h -6.083 l -4.635,35.92 h 6.083 l 2.97,-22.8 c 0.94,-1.36 5.793,-8.32 9.776,-8.32 1.231,0 3.766,0.72 3.766,5.04 0,1.04 -0.145,3.44 -0.507,6.48 l -2.535,19.6 h 6.156 l 3.041,-22.8 c 2.245,-3.36 6.518,-8.4 10.139,-8.4 1.159,0 3.476,0.72 3.476,5.36 0,0.88 -0.145,2.16 -0.217,3.04 l -2.97,22.8 h 6.156 l 2.752,-21.28 c 0.217,-1.76 0.435,-3.52 0.435,-5.36 0,-8.16 -4.78,-9.84 -7.677,-9.84 -5.576,0 -10.066,5.12 -12.094,8 -0.796,-6.16 -4.417,-8 -7.459,-8 -3.766,0 -7.459,2.16 -11.37,6.96 z m 68.725,25.92 c -2.969,2.48 -7.17,5.52 -11.225,5.52 -3.983,0 -7.966,-3.92 -7.966,-10.64 0,-1.2 0.073,-2.24 0.145,-3.52 h 20.35 c 0.145,-0.8 0.29,-1.84 0.29,-3.52 0,-8.96 -4.997,-14.88 -11.805,-14.88 -8.98,0 -15.208,9.68 -15.208,21.12 0,9.76 5.214,17.04 13.687,17.04 3.042,0 6.953,-0.96 10.79,-4 z M 241.102,51.98 c 0.724,-2.32 2.535,-8.16 7.821,-8.16 3.332,0 5.866,2.88 5.794,8.16 z m 56.342,-31.2 h -6.228 l -2.245,17.6 c -3.549,-0.08 -6.59,-0.16 -10.718,1.44 -8.328,3.28 -13.325,12.24 -13.325,20.48 0,4.88 1.81,9.04 4.345,11.68 2.39,2.48 5.793,4.48 12.746,4.48 4.562,0 7.169,-0.8 8.328,-1.12 z M 284.77,70.7 c -0.725,0.16 -1.376,0.24 -2.752,0.24 -7.822,0 -10.646,-5.36 -10.646,-10.96 0,-5.68 2.752,-12.32 9.342,-14.88 2.897,-1.2 5.866,-1.12 7.532,-1.12 z m 40.193,-5.36 c -2.97,2.48 -7.17,5.52 -11.225,5.52 -3.983,0 -7.966,-3.92 -7.966,-10.64 0,-1.2 0.072,-2.24 0.145,-3.52 h 20.35 c 0.144,-0.8 0.29,-1.84 0.29,-3.52 0,-8.96 -4.998,-14.88 -11.805,-14.88 -8.98,0 -15.208,9.68 -15.208,21.12 0,9.76 5.214,17.04 13.687,17.04 3.042,0 6.952,-0.96 10.79,-4 z M 306.93,51.98 c 0.724,-2.32 2.534,-8.16 7.82,-8.16 3.332,0 5.867,2.88 5.794,8.16 z m 44.973,-9.68 c -1.81,-1.28 -5.36,-3.76 -9.994,-3.76 -6.735,0 -10.066,4.8 -10.066,10 0,4.4 2.534,7.44 5.431,9.68 5.504,4.4 7.314,5.76 7.314,8.4 0,2.32 -1.81,3.92 -4.055,3.92 -3.114,0 -6.3,-2.08 -10.211,-5.36 l -1.014,6.56 c 4.418,3.44 7.242,4.72 11.153,4.72 6.734,0 10.21,-5.28 10.21,-10.48 0,-5.6 -3.113,-8.08 -7.966,-11.84 -2.39,-1.84 -4.996,-3.84 -4.996,-5.92 0,-2 1.738,-3.52 4.272,-3.52 3.694,0 6.953,2.24 9.922,4.72 z" id="path8"/>
        </g>
    </g>
    <g id="path168004" style="opacity:0.98">
        <path style="baseline-shift:baseline;display:inline;overflow:visible;vector-effect:none;fill:#ffffff;stroke-linecap:round;stroke-linejoin:round;paint-order:markers stroke fill;enable-background:accumulate;stop-color:#000000;stop-opacity:1" d="m 56.972656,42.423828 c -5.158902,-0.335486 -10.942875,0.578637 -16.265625,3.998047 a 3.750375,3.750375 0 0 0 -0.927734,0.845703 L 8.828125,86.867187 a 3.750375,3.750375 0 0 0 4.4375,5.753907 C 31.056432,84.952013 49.3026,83.603329 69.78125,92.609375 a 3.75,3.75 0 0 0 0.785156,0.01758 3.75,3.75 0 0 0 0.726563,0.300781 3.75,3.75 0 0 0 0.654297,-0.271484 3.75,3.75 0 0 0 1.271484,-0.527344 3.75,3.75 0 0 0 0.998047,-0.957031 3.75,3.75 0 0 0 0.507812,-0.486328 3.75,3.75 0 0 0 0.01758,-0.78125 3.75,3.75 0 0 0 0.300782,-0.728516 l -0.0098,-37.162109 a 3.750375,3.750375 0 0 0 -0.3125,-1.498047 c -1.182307,-2.714271 -2.813453,-3.344056 -4.943359,-4.5 -2.129907,-1.155944 -4.813228,-2.200959 -7.894532,-2.886719 -1.540651,-0.34288 -3.190522,-0.593249 -4.910156,-0.705078 z m -0.449219,7.484375 c 1.285589,0.08672 2.537808,0.277536 3.730469,0.542969 2.385322,0.530865 4.493438,1.368288 5.945313,2.15625 0.615797,0.334206 1.017903,0.735699 1.333984,1.035156 l 0.0078,30.101563 C 51.787452,78.007001 36.723086,77.799155 22.482422,81.576172 L 45.189453,52.525391 c 3.638023,-2.196735 7.619856,-2.867732 11.333984,-2.617188 z" id="path9"/>
        <path style="baseline-shift:baseline;display:inline;overflow:visible;vector-effect:none;fill:#fca404;stroke-linecap:round;stroke-linejoin:round;paint-order:markers stroke fill;enable-background:accumulate;stop-color:#000000;stop-opacity:1" d="m 71.291758,89.176766 c -21.379,-9.402 -40.984,-7.986 -59.51,0 l 30.953,-39.6 c 12.095,-7.77 27.28,-0.474 28.548,2.437 l 0.01,37.163" id="path10"/>
    </g>
    <g id="path168006" style="opacity:0.98">
        <path style="baseline-shift:baseline;display:inline;overflow:visible;vector-effect:none;fill:#ffffff;stroke-linecap:round;stroke-linejoin:round;paint-order:markers stroke fill;enable-background:accumulate;stop-color:#000000;stop-opacity:1" d="m 71.283203,10.939453 c -2.306775,-0.344536 -3.333539,0.901978 -3.931641,1.666016 -11.907997,15.213119 -15.608634,18.89888 -20.433593,26.134765 a 3.750375,3.750375 0 0 0 -0.179688,0.300782 c -0.248079,0.459901 -0.527568,1.073871 -0.548828,2.011718 -0.02126,0.937848 0.433417,2.210372 1.179688,2.958985 1.492541,1.497225 2.704887,1.294148 3.517578,1.263672 a 3.750375,3.750375 0 0 0 0.162109,-0.0098 c 1.468004,-0.118803 3.097179,-0.05783 4.892578,-0.06641 a 3.750375,3.750375 0 0 0 0.002,0 c 6.675557,-0.03537 9.895463,1.590417 12.214844,2.730468 a 3.750375,3.750375 0 0 0 0.189453,0.08594 c 0.953525,0.404848 2.490368,0.917985 4.25586,-0.134766 1.765491,-1.05275 2.046697,-2.915073 2.021484,-3.777343 V 14.923828 l -0.03516,0.523438 c 0.09576,-0.679207 0.07211,-1.552517 -0.44336,-2.501953 -0.51547,-0.949437 -1.709893,-1.833592 -2.863281,-2.00586 z M 67.125,24.884766 V 39.505859 C 64.570015,38.623341 61.402861,37.882268 57.017578,37.773437 59.33223,34.745054 62.904023,30.125379 67.125,24.884766 Z M 51.208984,37.775391 c 5.41e-4,1.19e-4 0.0014,0.0018 0.002,0.002 -0.281353,0.01451 -0.477191,-0.01178 -0.767578,0.01172 l 0.16211,-0.0078 c 0.04635,-0.0017 0.253088,-0.08342 0.603515,-0.0059 z m 19.990235,3.320312 c 0.0084,0.0038 0.07501,0.01626 0.07813,0.01758 l 0.189453,0.08594 c -0.05672,-0.02788 -0.207838,-0.07437 -0.267578,-0.103516 z" id="path11"/>
        <path style="baseline-shift:baseline;display:inline;overflow:visible;vector-effect:none;fill:#db0404;stroke-linecap:round;stroke-linejoin:round;paint-order:markers stroke fill;enable-background:accumulate;stop-color:#000000;stop-opacity:1" d="m 70.875758,44.213766 v -29.29 c 0.043,-0.305 -0.243,-0.426 -0.571,-0.007 -11.958,15.277 -15.609,18.92 -20.266,25.904 -0.26,0.482 -0.012,0.734 0.708,0.707 1.767,-0.143 3.502,-0.07 5.176,-0.078 7.36,-0.039 11.528,1.954 13.89,3.115 0.895,0.38 1.073,-0.009 1.063,-0.351 z" id="path12"/>
    </g>
    <g id="path168008" style="opacity:0.98">
        <path style="baseline-shift:baseline;display:inline;overflow:visible;vector-effect:none;fill:#ffffff;stroke-linecap:round;stroke-linejoin:round;paint-order:markers stroke fill;enable-background:accumulate;stop-color:#000000;stop-opacity:1" d="M 69.496094,0.75976562 A 3.750375,3.750375 0 0 0 66.533203,2.2109375 L 0.83984375,86.857422 A 3.750375,3.750375 0 0 0 3.8007813,92.90625 l 7.9492187,0.002 a 3.750375,3.750375 0 0 0 0.03125,0.01953 h 59.511719 a 3.750375,3.750375 0 0 0 0.0098,-0.0039 l 6.322266,0.0039 a 3.750375,3.750375 0 0 0 3.75,-3.75 V 4.5097656 A 3.750375,3.750375 0 0 0 77.625,0.75976562 Z M 71.332031,8.2597656 H 73.875 v 4.3886724 c -0.587168,-0.822291 -1.571417,-1.556697 -2.589844,-1.708985 -0.966695,-0.144552 -1.672754,0.02217 -2.253906,0.285156 z M 67.125,24.884766 V 39.505859 C 64.569733,38.623174 61.403484,37.882583 57.017578,37.773437 59.33223,34.745054 62.904023,30.125379 67.125,24.884766 Z M 51.210937,37.777344 c -0.282551,0.01462 -0.477708,-0.01011 -0.769531,0.01367 l 0.164063,-0.0098 c 0.04721,-0.0018 0.254646,-0.08183 0.605468,-0.0039 z m -4.853515,2.664062 c -0.04602,0.230068 -0.161512,0.326644 -0.167969,0.611328 -0.01764,0.777701 0.348147,1.728708 0.878906,2.476563 -1.559286,0.468973 -3.103838,1.14334 -4.628906,1.958984 z m 24.83789,0.652344 c 0.0087,0.004 0.07693,0.01624 0.08008,0.01758 l 0.193359,0.08789 c -0.05796,-0.02852 -0.212328,-0.07564 -0.273438,-0.105469 z M 73.875,46.398437 v 2.861329 c -0.392982,-0.518878 -0.820506,-1.022665 -1.285156,-1.375 0.005,-0.003 0.0087,-9.24e-4 0.01367,-0.0039 0.66738,-0.397954 0.964959,-0.950716 1.271484,-1.482422 z m -19.337891,3.464844 c 3.6293,-0.07471 7.168553,0.784662 9.769532,1.853516 1.300489,0.534427 2.369913,1.125042 3.041015,1.589844 0.09708,0.06724 0.108356,0.105554 0.185547,0.173828 l 0.0078,31.941406 -48.054688,-0.01172 25.685547,-32.863281 c 3.009219,-1.822711 6.205729,-2.618997 9.365234,-2.683594 z" id="path13"/>
        <path style="baseline-shift:baseline;display:inline;overflow:visible;vector-effect:none;stroke-linecap:round;stroke-linejoin:round;paint-order:markers stroke fill;enable-background:accumulate;stop-color:#000000;stop-opacity:1" d="M 69.495758,4.5097656 3.8017578,89.156766 l 7.9940002,0.002 30.939,-39.583 c 3.78,-2.427 7.862,-3.383 11.726,-3.462 8.501,-0.175 15.95,3.899 16.822,5.9 l 0.01,37.161 6.333,0.002 V 4.5097656 Z m 1.797,84.6650004 -59.497,-0.016 -0.015,0.019 h 59.512 z m -0.563,-74.526 c 0.107,0.016 0.168,0.122 0.146,0.274 v 29.29 c 0.01,0.343 -0.168,0.731 -1.063,0.352 -2.362,-1.162 -6.529,-3.154 -13.89,-3.116 -1.674,0.01 -3.409,-0.065 -5.176,0.079 -0.72,0.027 -0.968,-0.226 -0.708,-0.707 4.657,-6.984 8.308,-10.627 20.266,-25.904 0.164,-0.21 0.318,-0.284 0.425,-0.268 z" id="path14"/>
    </g>
</svg>
