<?xml version='1.0' encoding='utf-8'?>
<svg xmlns="http://www.w3.org/2000/svg" version="1.2" width="600" height="143.41146001169307" xml:space="preserve" id="svg2" viewBox="0 0 585.42401 139.92752">
    <defs id="defs2">
        
        
    </defs>
    <g id="g2" transform="translate(7.4999995,7.6512494)">
        <g id="path1" style="opacity:1">
            <path style="baseline-shift:baseline;display:inline;overflow:visible;vector-effect:none;fill:#ffffff;stroke-linecap:round;stroke-linejoin:round;paint-order:markers stroke fill;enable-background:accumulate;stop-color:#000000;stop-opacity:1" d="m 220.29102,-7.5488281 c -6.94856,-0.680481 -14.07931,2.0681023 -18.8125,7.82031248 a 7.5,7.5 0 0 0 -0.0879,0.0429687 c -0.0504,0.0570852 -0.0698,0.11471823 -0.11914,0.171875 -0.0507,0.0634208 -0.11587,0.10773627 -0.16601,0.17187499 a 7.5,7.5 0 0 0 -0.0312,0.109375 C 196.82621,5.8638252 196.40643,11.172127 195.56055,13.728516 a 7.50075,7.50075 0 0 0 -0.082,0.261718 C 185.23408,49.204178 175.02651,84.423829 164.83203,119.64648 a 7.50075,7.50075 0 0 0 7.19727,9.58594 c 6.31646,0.006 12.60832,-0.0111 18.87695,0.01 a 7.50075,7.50075 0 0 0 7.23242,-5.42383 c 2.41775,-8.39244 4.8667,-16.77481 7.32227,-25.156251 8.49555,1.38e-4 16.98372,9.8e-4 25.46679,0.0098 2.4185,8.381185 4.8247,16.772265 7.29102,25.177735 a 7.50075,7.50075 0 0 0 7.2168,5.38867 c 6.30356,-0.0179 12.63537,1.6e-4 18.98632,-0.006 a 7.50075,7.50075 0 0 0 5.56446,-2.78711 7.50075,7.50075 0 0 0 5.54687,2.78711 h 18.1211 a 7.50075,7.50075 0 0 0 6.1875,-4.32812 7.50075,7.50075 0 0 0 6.25195,4.33398 c 6.27394,-0.012 12.55989,1.6e-4 18.86719,-0.006 a 7.50075,7.50075 0 0 0 7.20312,-5.43359 c 2.39079,-8.3481 4.84839,-16.73092 7.2793,-25.130861 8.45619,-0.01062 16.92196,-0.0072 25.39648,-0.0059 2.42724,8.375071 4.83901,16.758551 7.26953,25.158201 a 7.50075,7.50075 0 0 0 7.23243,5.41406 c 6.28446,-0.0238 12.63155,0.0262 19.05078,-0.0234 a 7.50075,7.50075 0 0 0 4.38476,-2.22266 7.50075,7.50075 0 0 0 5.31641,2.24805 c 6.10278,0.006 12.1817,-0.006 18.25,0.006 a 7.50075,7.50075 0 0 0 7.51367,-7.4961 c 0.007,-10.26953 0.005,-20.5342 0.004,-30.802731 7.68886,11.642911 15.35838,23.310911 23.11328,34.958981 a 7.50075,7.50075 0 0 0 6.27344,3.34375 c 7.1195,-0.0288 14.27039,3.3e-4 21.45703,-0.0117 a 7.50075,7.50075 0 0 0 4.96094,-1.91015 7.50075,7.50075 0 0 0 4.58984,1.90625 c 6.42074,0.006 12.81574,-0.0121 19.18359,0.006 a 7.50075,7.50075 0 0 0 7.52149,-7.49414 c 0.025,-40.500435 0.006,-80.991464 0.0117,-121.4843775 a 7.50075,7.50075 0 0 0 -7.5,-7.5019531 h -19.21094 a 7.50075,7.50075 0 0 0 -7.5,7.49999998 V 111.3125 c -7.93763,-11.832648 -15.90151,-23.604869 -23.60938,-35.439453 2.56941,-1.551099 5.7124,-3.273101 9.17383,-6.345703 8.02275,-6.94523 12.07419,-16.897656 12.85547,-26.707032 0.9882,-8.574929 0.69383,-18.264238 -3.86523,-27.199218 C 474.74796,2.0650357 460.85265,-6.9622166 445.7168,-7.2421875 a 7.50075,7.50075 0 0 0 -0.13282,-0.00195 c -7.23692,-0.00401 -14.45394,0.015129 -21.64648,-0.00977 l 0.15039,0.00195 c -2.49033,-0.058261 -5.21234,0.2083212 -7.98828,1.15625 -9.11227,2.9593436 -15.45048,11.3268318 -15.50977,21.0566411 a 7.50075,7.50075 0 0 0 0,0.05078 c 0.0197,29.206442 0.008,58.41988 0.01,87.634761 C 391.51648,71.411001 382.41843,40.183731 373.34375,8.953125 l 0.0332,0.1210938 c -2.02172,-7.4219155 -7.64588,-13.9807227 -15.92187,-15.9160157 -8.67879,-2.2156316 -17.77916,1.0630061 -23.00391,8.390625 a 7.5,7.5 0 0 0 -0.0391,0.023437 c -0.026,0.034708 -0.0368,0.066879 -0.0625,0.1015625 -0.035,0.049909 -0.0786,0.090346 -0.11328,0.140625 a 7.5,7.5 0 0 0 -0.0156,0.072266 c -3.39819,4.7071796 -3.76826,9.1509123 -4.48242,11.2714843 a 7.50075,7.50075 0 0 0 -0.0937,0.302735 c -9.50751,32.759304 -19.03848,65.528514 -28.49023,98.324222 0.007,-28.497312 0.006,-56.995882 0.006,-85.492191 5.92778,-0.0012 11.8524,3.24e-4 17.80078,-0.0039 a 7.50075,7.50075 0 0 0 7.49414,-7.5 V 0.25585938 a 7.50075,7.50075 0 0 0 -7.5,-7.49999998 h -68.71875 a 7.50075,7.50075 0 0 0 -7.5,7.4941406 c -0.005,6.1900821 0,12.365109 0,18.539062 a 7.50075,7.50075 0 0 0 7.49609,7.5 c 5.94736,0.0042 11.87431,0.0027 17.80469,0.0039 -0.006,27.012498 -0.005,54.023089 -0.004,81.033201 -9.53352,-32.810015 -19.10054,-65.605542 -28.63281,-98.404295 -1.21658,-4.2487043 -3.58767,-8.2649385 -7.20312,-11.3320313 -3.4861,-3.0316379 -7.65464,-4.7223056 -11.90625,-5.1386718 z M 63.382812,-7.5 c -3.046737,0.00792 -6.12586,-0.00229 -9.234375,0.00781 a 7.50075,7.50075 0 0 0 -7.474609,7.4765625 c -0.01107,3.611283 0.01701,7.1517468 -0.01563,10.621094 -0.24037,10.395754 -0.887457,20.679681 -2.404297,30.722656 -1.21044,7.897873 -2.96033,15.44592 -6.007812,22.134766 a 7.50075,7.50075 0 0 0 -0.02734,0.06055 c -2.666442,5.993619 -6.150478,11.56162 -10.425781,16.291016 -4.154177,4.595811 -9.084983,8.483062 -14.501953,11.347656 -0.0021,0.0011 -0.0038,0.0028 -0.0059,0.0039 -4.6649931,2.447058 -9.5408543,4.214267 -14.3984372,4.943359 A 7.50075,7.50075 0 0 0 -7.5,103.53125 c 0.005,6.06187 0.005,12.13053 0,18.19141 a 7.50075,7.50075 0 0 0 8.5449219,7.43359 c 5.4476878,-0.76693 10.7080701,-2.13523 15.7441401,-3.86719 a 7.50075,7.50075 0 0 0 0.0098,-0.004 c 9.000628,-3.11048 17.699047,-7.74201 25.126953,-14.27149 6.806947,-5.79023 13.046441,-12.744201 17.705078,-20.957029 -0.0023,10.557019 -0.03562,21.125179 0.02344,31.738279 a 7.50075,7.50075 0 0 0 7.564453,7.45703 c 5.572995,-0.0473 11.209159,-0.007 16.904297,-0.0195 a 7.50075,7.50075 0 0 0 7.484375,-7.5 c 5.17e-4,-10.49493 -2.5e-4,-20.98797 0,-31.48242 3.92777,6.90654 9.036608,12.85101 14.603518,17.98438 a 7.50075,7.50075 0 0 0 0.01,0.008 c 3.26653,3.00198 6.82694,6.03859 10.9375,8.6875 0.002,0.002 0.005,0.002 0.008,0.004 5.48923,3.57072 11.3722,6.29887 17.36328,8.38282 a 7.50075,7.50075 0 0 0 0.0488,0.0156 c 4.96684,1.68851 10.1881,3.07422 15.64649,3.81445 a 7.50075,7.50075 0 0 0 8.50781,-7.43945 c -0.006,-6.05457 -0.003,-12.11569 0,-18.17969 a 7.50075,7.50075 0 0 0 -6.41797,-7.425778 c -1.99536,-0.290939 -4.02493,-0.782492 -6.0664,-1.435546 l -0.004,-0.002 C 138.86272,92.297085 131.9844,88.147389 126.32031,82.746094 a 7.50075,7.50075 0 0 0 -0.004,-0.0039 C 120.40112,77.109955 115.74155,69.987528 112.49023,62.224609 a 7.50075,7.50075 0 0 0 -0.0215,-0.05078 c -3.35183,-7.841812 -4.99047,-16.751157 -6.16602,-26.048828 -8e-5,-6.51e-4 9e-5,-0.0013 0,-0.002 C 104.88318,24.271645 104.46726,12.21129 104.56445,0.06640625 A 7.50075,7.50075 0 0 0 97.087891,-7.4941406 c -3.084161,-0.010086 -6.151617,-0.00395 -9.205079,-0.00195 a 7.50075,7.50075 0 0 0 -1.888671,0.7832031 7.50075,7.50075 0 0 0 -1.898438,-0.7832031 c -5.627803,0.00994 -11.307228,-0.021768 -17.029297,0.015625 A 7.50075,7.50075 0 0 0 65.267578,-6.7246094 7.50075,7.50075 0 0 0 63.382812,-7.5 Z M 74.615234,7.5117187 c 0.663388,2.04e-4 1.327443,-5.758e-4 1.992188,0 0.0015,35.5748203 0.0015,71.1518043 0,106.7304713 -0.652239,-7.2e-4 -1.305124,0.002 -1.958985,0.002 -0.02282,-10.41582 -0.0073,-20.840676 -0.02344,-31.308593 v -0.0098 c -0.0064,-25.136068 0.0026,-50.273226 -0.0098,-75.4140623 z m 277.240236,0.046875 c 0.68046,-0.061165 1.34522,-0.022678 1.94336,0.1347657 A 7.50075,7.50075 0 0 0 354.02344,7.75 c 1.96959,0.4535185 4.19029,2.730507 4.88086,5.265625 a 7.50075,7.50075 0 0 0 0.0352,0.123047 c 9.79329,33.703697 19.6124,67.390102 29.40625,101.083988 -1.13187,-0.001 -2.25828,0.005 -3.39453,0.004 -2.41624,-8.37755 -4.82211,-16.763935 -7.27148,-25.166013 a 7.50075,7.50075 0 0 0 -7.20313,-5.400391 c -12.2125,0.006 -24.43878,-0.02129 -36.6875,0.0098 a 7.50075,7.50075 0 0 0 -7.1914,5.433594 c -2.39253,8.347631 -4.8513,16.730034 -7.28125,25.130864 -1.08342,-1.8e-4 -2.16957,2.8e-4 -3.25391,0 9.26805,-32.146604 18.60949,-64.280598 27.93945,-96.427739 1.36148,-4.076413 1.89406,-6.549018 2.40821,-7.234375 a 7.5,7.5 0 0 0 0.0391,-0.154297 7.5,7.5 0 0 0 0.13672,-0.08789 c 1.03544,-1.5015709 3.22813,-2.5879898 5.26953,-2.7714843 z m 71.88086,0.1855469 a 7.50075,7.50075 0 0 0 0.15039,0.00195 c 7.21492,0.024972 14.40521,0.00604 21.57226,0.00977 9.1457,0.177497 18.42012,6.1946926 22.39844,14.4687496 a 7.50075,7.50075 0 0 0 0.0859,0.173828 c 2.6637,5.193713 3.14533,11.923316 2.32617,18.875 a 7.50075,7.50075 0 0 0 -0.0293,0.296875 c -0.50249,6.470621 -3.28056,12.78436 -7.7539,16.642579 a 7.50075,7.50075 0 0 0 -0.0918,0.08008 c -2.12652,1.894801 -5.99313,3.628576 -10.4707,6.949218 a 7.50075,7.50075 0 0 0 -0.0723,0.05469 c -2.79068,2.122752 -4.19445,5.30149 -4.53125,8.054687 -0.33679,2.753198 0.14179,5.277579 1.29297,7.634766 a 7.50075,7.50075 0 0 0 0.44531,0.785156 c 7.10458,10.968144 14.3913,21.703136 21.63086,32.470706 -1.14892,9e-5 -2.29063,2.4e-4 -3.4414,0.002 -8.59978,-12.9466 -17.14747,-25.954365 -25.75391,-38.951171 a 7.50075,7.50075 0 0 0 -0.0606,-0.0918 c -1.35685,-1.985068 -1.74748,-4.954006 -0.98047,-7.115235 0.36969,-0.991796 1.64688,-2.279389 3.42383,-2.96875 l -0.0391,0.01563 c 7.42628,-2.834371 15.47107,-7.45089 20.35156,-15.751953 4.16022,-7.014371 3.71168,-14.716821 2.22071,-20.890625 C 464.1143,18.220387 454.94963,10.792557 444.23047,11.150391 l 0.20117,-0.0039 c -4.5934,0.03041 -9.27621,-0.02142 -14.05078,0.02149 l 0.24023,0.002 c -6.56918,-0.152122 -11.83814,4.684063 -11.75195,11.52539 l -0.002,-0.09961 c -0.0203,30.555985 0.003,61.10396 -0.01,91.644527 -1.0856,1.2e-4 -2.17135,-0.002 -3.25586,-0.002 -0.007,-33.056835 0.0105,-66.120708 -0.0117,-99.187499 0.0165,-2.708901 2.51036,-6.0466793 5.17188,-6.8984372 a 7.50075,7.50075 0 0 0 0.16601,-0.054687 c 0.6773,-0.2343291 1.64603,-0.380714 2.8086,-0.3535157 z m -206.23242,0.011719 c 1.84291,-0.1914941 3.73408,0.1672768 4.86914,1.1601562 a 7.50075,7.50075 0 0 0 0.10742,0.091797 c 1.09069,0.918577 2.0253,2.3851455 2.5,4.0429685 a 7.50075,7.50075 0 0 0 0.008,0.0293 c 9.8029,33.730019 19.63876,67.438053 29.43359,101.156252 -1.12408,-4.7e-4 -2.24556,-3.4e-4 -3.37109,0 -2.43591,-8.36727 -4.85104,-16.745982 -7.2832,-25.148439 a 7.50075,7.50075 0 0 0 -7.18946,-5.414063 c -12.26314,-0.02403 -24.50698,-0.0077 -36.74218,-0.01367 a 7.50075,7.50075 0 0 0 -7.19922,5.384766 c -2.46738,8.391737 -4.90248,16.792548 -7.33203,25.195308 -1.09669,-7.2e-4 -2.18986,-0.002 -3.28516,-0.002 9.26404,-31.999749 18.53429,-63.995589 27.83984,-95.982421 1.50693,-4.58409 2.09351,-7.240638 2.77735,-8.015625 a 7.5,7.5 0 0 0 0.0781,-0.226562 7.5,7.5 0 0 0 0.20703,-0.1171876 c 0.94351,-1.2069488 2.73912,-1.949131 4.58204,-2.140625 z m 40.23242,0 h 53.71875 v 3.5351566 c -5.93217,-0.0016 -11.86179,-0.0074 -17.8086,0.0039 a 7.50075,7.50075 0 0 0 -7.48632,7.5 c 0,31.814378 0.002,63.627472 -0.006,95.437498 h -3.1211 c -5.7e-4,-31.812596 -0.005,-63.624655 0.004,-95.435545 a 7.50075,7.50075 0 0 0 -7.48438,-7.501953 c -5.95155,-0.01129 -11.88281,-0.0055 -17.8164,-0.0039 -3.1e-4,-1.178309 1.2e-4,-2.357144 0,-3.5351566 z m 244.02539,0 h 4.21094 c -0.003,35.4978126 0.006,70.9880166 -0.0117,106.4785206 -1.40083,2.1e-4 -2.80035,-0.003 -4.19922,-0.002 z M 349.04687,21.013672 a 7.50075,7.50075 0 0 0 -4.08398,4.738281 c -4.42216,15.324689 -8.89106,30.651813 -13.30273,46.017578 a 7.50075,7.50075 0 0 0 7.19726,9.570313 c 8.87372,0.01301 17.73514,0.0078 26.59375,0.0078 a 7.50075,7.50075 0 0 0 7.20899,-9.572265 c -4.41554,-15.369738 -8.89494,-30.69066 -13.28125,-46.007813 a 7.50075,7.50075 0 0 0 -10.33204,-4.753906 z m -133.96289,0.06445 a 7.50075,7.50075 0 0 0 -4.08789,4.710937 c -4.49843,15.323738 -8.8985,30.651442 -13.35742,45.933594 a 7.50075,7.50075 0 0 0 7.16406,9.601563 c 8.93932,0.04319 17.8477,0.01563 26.72852,0.01563 a 7.50075,7.50075 0 0 0 7.20117,-9.59375 C 234.28125,56.43937 229.85044,41.126205 225.39453,25.806641 a 7.50075,7.50075 0 0 0 -10.31055,-4.728516 z m 229.64649,5.064453 c 2.79893,-0.09343 6.42315,2.793137 7.05078,5.638672 a 7.50075,7.50075 0 0 0 0.0391,0.162109 c 0.95937,3.933791 0.7753,7.591888 -0.53125,9.791016 a 7.50075,7.50075 0 0 0 -0.0215,0.03516 c -2.34882,4.002872 -7.16229,7.20457 -12.77735,9.347656 a 7.50075,7.50075 0 0 0 -0.0391,0.01563 c -1.58664,0.615532 -3.11643,1.4862 -4.58789,2.482422 -4.8e-4,-9.150384 -0.001,-18.304151 0.004,-27.453125 3.51544,-0.0051 7.03426,0.0084 10.66406,-0.01563 a 7.50075,7.50075 0 0 0 0.19922,-0.0039 z M 218.1875,54.779297 c 1.11741,3.851706 2.23694,7.702127 3.35547,11.554687 -2.23977,0.0017 -4.47828,-0.0028 -6.71485,-0.0039 1.11895,-3.85452 2.24305,-7.698861 3.35938,-11.550781 z m 133.97461,0.07617 c 1.10879,3.828164 2.21284,7.662123 3.31836,11.488281 -2.21324,2.45e-4 -4.42625,-0.0014 -6.63867,-0.002 1.10462,-3.82698 2.21168,-7.658535 3.32031,-11.486328 z M 98.939453,68.623047 c 3.945677,9.216155 9.569757,17.874748 17.029297,24.978515 6.6e-4,6.34e-4 0.001,0.0013 0.002,0.002 6.7e-4,6.38e-4 0.001,0.0013 0.002,0.002 7.26608,6.927841 16.05601,12.253071 25.69726,15.343751 a 7.50075,7.50075 0 0 0 0.004,0.002 c 0.65745,0.21039 1.38688,0.29527 2.05859,0.48438 -3.3e-4,0.99212 1.4e-4,1.98428 0,2.97656 -1.43178,-0.4027 -2.86358,-0.7867 -4.29687,-1.27344 -5.02599,-1.74996 -9.79941,-3.98449 -14.09766,-6.78125 a 7.50075,7.50075 0 0 0 -0.0312,-0.0215 c -3.02408,-1.94586 -5.95652,-4.400676 -8.92578,-7.128909 l -0.008,-0.0078 c -7e-4,-6.39e-4 -0.001,-0.0013 -0.002,-0.002 -4.70177,-4.337143 -8.78245,-9.159787 -11.76757,-14.429688 a 7.50075,7.50075 0 0 0 -0.008,-0.01367 c -2.31829,-4.07327 -4.09324,-8.636723 -5.521481,-13.458984 -0.05695,-0.213121 -0.08052,-0.45657 -0.134766,-0.671875 z m -46.9375,0.792969 c -0.960093,3.46194 -2.158481,6.923285 -3.761719,10.345703 -3.554948,7.483514 -9.324059,14.133234 -16.095703,19.882812 a 7.50075,7.50075 0 0 0 -0.09961,0.08789 c -5.700332,5.016328 -12.667784,8.791148 -20.144531,11.374998 -1.460802,0.5022 -2.9311729,0.89813 -4.400391,1.31055 -1.82e-5,-0.96309 2.699e-4,-1.92562 0,-2.88867 4.504611,-1.25207 8.788615,-2.99758 12.777344,-5.0918 a 7.50075,7.50075 0 0 0 0.01953,-0.01 c 7.046588,-3.72509 13.33481,-8.704249 18.623047,-14.554683 5.472715,-6.053988 9.759854,-12.968821 12.992187,-20.228516 0.03428,-0.07536 0.05586,-0.153101 0.08984,-0.228515 z" id="path3"/>
            <path style="baseline-shift:baseline;display:inline;overflow:visible;vector-effect:none;fill:#c60000;stroke-linecap:round;stroke-linejoin:round;paint-order:markers stroke fill;enable-background:accumulate;stop-color:#000000;stop-opacity:1" d="m 207.014,5.277 c 4.724,-6.043 14.501,-7.076 20.297,-2.006 2.37,1.996 4.031,4.75 4.88,7.715 10.73,36.92 21.508,73.822 32.223,110.746 -6.332,0.006 -12.667,-0.012 -18.999,0.006 -2.987,-10.18 -5.903,-20.377 -8.852,-30.565 -12.246,-0.024 -24.485,-0.006 -36.73,-0.012 a 5818.517,5818.517 0 0 0 -8.901,30.582 c -6.298,-0.021 -12.596,-0.005 -18.895,-0.011 10.194,-35.221 20.4,-70.438 30.643,-105.647 1.218,-3.681 1.678,-7.798 4.334,-10.808 m 11.179,22.625 c -4.49,15.295 -8.889,30.619 -13.354,45.922 8.9,0.043 17.796,0.016 26.692,0.016 -4.453,-15.313 -8.884,-30.625 -13.338,-45.938 z M 340.411,6.072 c 3.301,-4.787 9.681,-7.109 15.296,-5.631 5.142,1.184 9.075,5.615 10.434,10.604 10.72,36.893 21.477,73.772 32.194,110.666 -6.342,0.049 -12.679,0 -19.021,0.024 -2.948,-10.188 -5.864,-20.387 -8.834,-30.575 -12.226,0.006 -24.447,-0.021 -36.672,0.01 -2.922,10.195 -5.935,20.367 -8.855,30.563 -6.293,0.006 -12.581,-0.006 -18.874,0.006 10.188,-35.414 20.497,-70.797 30.768,-106.187 1.076,-3.195 1.492,-6.718 3.564,-9.48 m -1.543,67.768 c 8.863,0.013 17.722,0.007 26.584,0.007 -4.409,-15.347 -8.89,-30.671 -13.284,-46.015 -4.426,15.338 -8.894,30.662 -13.3,46.008 z M 250.237,0.256 h 68.719 v 18.533 c -8.437,0.006 -16.865,-0.01 -25.296,0.006 0,34.313 0.006,68.627 -0.005,102.938 h -18.122 c 0,-34.312 -0.005,-68.625 0.005,-102.938 -8.436,-0.016 -16.866,0 -25.301,-0.006 0,-6.178 -0.005,-12.351 0,-18.533 z M 418.475,1.01 c 1.74,-0.602 3.599,-0.807 5.437,-0.764 7.223,0.025 14.446,0.006 21.667,0.01 12.164,0.225 23.773,7.771 29.037,18.719 3.646,7.109 4.021,15.377 3.102,23.176 -0.634,8.164 -4.058,16.328 -10.334,21.741 -3.313,2.952 -7.443,4.743 -10.992,7.375 -1.947,1.481 -2.047,4.364 -1.039,6.428 9.586,14.799 19.552,29.367 29.34,44.039 -7.158,0.012 -14.316,-0.017 -21.476,0.012 -9.37,-14.074 -18.643,-28.219 -27.976,-42.313 -2.743,-4.013 -3.489,-9.324 -1.846,-13.902 1.281,-3.512 4.351,-6.08 7.769,-7.406 6.524,-2.49 12.958,-6.4 16.572,-12.559 2.749,-4.627 2.605,-10.336 1.37,-15.4 -1.45,-6.574 -7.855,-11.746 -14.625,-11.52 -4.682,0.031 -9.359,-0.021 -14.033,0.021 -2.116,-0.049 -4.107,1.791 -4.08,3.934 -0.022,33.047 0.011,66.096 -0.01,99.141 -6.088,-0.012 -12.168,0 -18.256,-0.006 C 408.09,86.16 408.114,50.582 408.09,15.006 408.128,8.77 412.563,2.902 418.475,1.01 Z m 75.787,-0.754 h 19.21 c -0.006,40.496 0.013,80.986 -0.012,121.481 -6.396,-0.018 -12.796,0 -19.198,-0.006 z M 54.173,0.008 c 3.076,-0.01 6.153,0 9.229,-0.008 0.013,7.234 0,14.469 0.005,21.701 0.032,6.039 -0.139,12.076 -0.389,18.107 -0.412,8.711 -0.957,17.439 -2.4,26.05 -0.991,5.937 -3.044,11.662 -5.592,17.099 -4.156,8.76 -10.686,16.172 -18.027,22.405 -6.567,5.779 -14.405,9.986 -22.649,12.835 -4.664,1.604 -9.463,2.844 -14.35,3.532 0.005,-6.065 0.005,-12.137 0,-18.203 5.883,-0.883 11.538,-2.971 16.791,-5.729 6.233,-3.295 11.844,-7.729 16.566,-12.953 4.877,-5.395 8.764,-11.641 11.714,-18.272 3.474,-7.625 5.333,-15.861 6.597,-24.109 1.584,-10.482 2.244,-21.088 2.489,-31.684 0.035,-3.591 0.005,-7.183 0.016,-10.771 z M 67.116,0.02 c 5.662,-0.037 11.328,-0.006 16.992,-0.016 0.002,40.574 0.002,81.149 0,121.728 -5.65,0.012 -11.303,-0.027 -16.953,0.021 C 67.083,108.815 67.145,95.874 67.125,82.938 67.118,55.295 67.136,27.658 67.116,0.02 Z M 87.888,0.004 c 3.06,-0.002 6.118,-0.008 9.176,0.002 -0.099,12.371 0.322,24.766 1.797,37.057 1.207,9.547 2.909,19.164 6.711,28.059 3.604,8.605 8.801,16.604 15.572,23.051 6.466,6.166 14.302,10.906 22.815,13.635 2.375,0.76 4.805,1.355 7.274,1.715 -0.003,6.064 -0.006,12.129 0,18.191 -4.852,-0.658 -9.61,-1.908 -14.24,-3.482 -5.514,-1.918 -10.847,-4.401 -15.745,-7.588 -3.576,-2.301 -6.828,-5.053 -9.952,-7.924 -5.149,-4.748 -9.758,-10.146 -13.219,-16.256 -2.708,-4.758 -4.683,-9.9 -6.23,-15.145 C 90.429,66.048 89.824,60.602 89.274,55.184 88.21,43.475 87.812,31.707 87.888,19.954 c 0,-6.649 -0.002,-13.302 0,-19.95 z" id="path4"/>
        </g>
        <path d="m 54.173,0.008 c -0.01,3.588 0.02,7.18 -0.016,10.77 -0.245,10.596 -0.904,21.201 -2.489,31.684 -1.264,8.248 -3.124,16.484 -6.597,24.109 -2.95,6.635 -6.837,12.879 -11.714,18.272 -4.722,5.228 -10.333,9.658 -16.566,12.953 -5.253,2.764 -10.908,4.85 -16.791,5.73 0.005,6.066 0.005,12.138 0,18.203 4.887,-0.688 9.686,-1.928 14.35,-3.532 8.244,-2.849 16.082,-7.056 22.649,-12.834 7.341,-6.234 13.871,-13.646 18.027,-22.406 2.547,-5.437 4.601,-11.162 5.592,-17.099 1.443,-8.61 1.989,-17.339 2.4,-26.05 0.25,-6.031 0.421,-12.068 0.389,-18.107 C 63.402,14.469 63.415,7.234 63.402,0 60.325,0.008 57.249,-0.002 54.173,0.008 M 67.116,0.02 c 0.02,27.641 0.002,55.275 0.01,82.917 0.02,12.938 -0.042,25.879 0.03,38.815 5.65,-0.051 11.302,-0.012 16.953,-0.021 0.002,-40.574 0.002,-81.15 0,-121.728 C 78.444,0.014 72.778,-0.018 67.116,0.02 M 87.888,0.004 c -0.002,6.648 0,13.301 0,19.949 -0.076,11.754 0.322,23.521 1.386,35.23 0.55,5.418 1.155,10.863 2.573,16.134 1.547,5.244 3.522,10.388 6.23,15.146 3.46,6.109 8.07,11.509 13.219,16.256 3.124,2.871 6.376,5.623 9.952,7.923 4.898,3.188 10.231,5.672 15.745,7.59 4.63,1.574 9.388,2.824 14.24,3.481 -0.006,-6.063 -0.003,-12.127 0,-18.19 -2.47,-0.359 -4.899,-0.955 -7.274,-1.715 -8.513,-2.729 -16.35,-7.47 -22.815,-13.636 C 114.373,81.726 109.177,73.728 105.572,65.121 101.77,56.226 100.068,46.609 98.861,37.06 97.386,24.771 96.965,12.376 97.064,0.005 94.007,-0.004 90.948,0.002 87.888,0.004" id="path2" style="fill:#c60000;stroke-width:5;stroke-dasharray:none"/>
    </g>
    <g id="path1-3" style="opacity:1">
        <path style="baseline-shift:baseline;display:inline;overflow:visible;vector-effect:none;fill:#ffffff;paint-order:markers stroke fill;enable-background:accumulate;stop-color:#000000;stop-opacity:1" d="m 562.30273,2.6796875 c -12.79468,0 -23.12304,10.4370245 -23.12304,23.2714845 0,7.788554 3.96937,14.674305 9.96093,18.851562 -6.01469,4.204741 -9.96093,11.189396 -9.96093,19.105469 0,10.143128 6.73483,18.70205 15.91992,21.767578 -0.22997,0.395649 -0.49696,0.764484 -0.68945,1.183594 l -9.33594,-6.898438 -7.70703,11.421875 14.60156,10.849608 c -7.47466,1.33518 -12.79102,8.17603 -12.79102,15.68946 0,4.25296 1.5099,8.24726 4.24414,11.08789 2.73425,2.84062 6.49676,4.45232 10.5254,4.90234 l 5.55468,0.61914 v -14.60352 l -4.66992,-0.30859 c -0.93582,-0.062 -1.6875,-0.82545 -1.6875,-1.69726 0,-0.81175 0.95006,-1.82227 1.63672,-1.82227 -0.0921,0 1.41118,0.61336 3.0625,1.96289 l 0.002,0.002 26.83008,21.86328 v -37.97265 h -1.20703 c 1.20833,-2.340014 1.94922,-4.946163 1.94922,-7.679689 0,-5.638069 -2.89839,-10.678169 -7.29297,-13.658204 4.46397,-4.212948 7.29883,-10.13311 7.29883,-16.708984 0,-7.9004 -3.93348,-14.870625 -9.92774,-19.078125 5.97685,-4.178507 9.92774,-11.085106 9.92774,-18.878906 0,-12.834134 -10.32715,-23.2714845 -23.1211,-23.2714845 z m 0.0742,14.2695315 c 5.20312,0 9.00196,3.815127 9.00196,9.222656 0,4.679606 -3.90622,8.5625 -9.00196,8.5625 -5.20133,0 -9.14843,-3.911864 -9.14843,-8.5625 0,-5.607589 3.61081,-9.222656 9.14843,-9.222656 z m 0,37.958984 c 5.20228,0 9.00196,3.817771 9.00196,9.222656 0,4.679607 -3.90622,8.5625 -9.00196,8.5625 -5.20133,0 -9.14843,-3.911863 -9.14843,-8.5625 0,-5.610205 3.60999,-9.222656 9.14843,-9.222656 z m 7.06641,37.035156 c 0.85541,0 2.0985,1.280356 2.09766,2.371094 v 0.002 0.002 c 0,1.178159 -1.1515,2.376954 -2.33204,2.376953 -0.60524,0 -2.23632,-1.644529 -2.23632,-2.376953 0,-0.851813 0.97319,-2.375 2.4707,-2.375 z" id="path5"/>
        <path style="baseline-shift:baseline;display:inline;overflow:visible;vector-effect:none;fill:#c60000;paint-order:markers stroke fill;enable-background:accumulate;stop-color:#000000;stop-opacity:1" d="m 575.713,106.95425 h 3.963 v 22.449 l -18.669,-15.213 c -1.751,-1.431 -3.919,-3.09 -6.225,-3.09 -3.642,0 -6.638,3.229 -6.638,6.821 0,3.552 2.856,6.455 6.358,6.687 v 4.334 c -6.177,-0.69 -10.324,-4.703 -10.324,-11.021 0,-5.897 4.38,-10.971 10.418,-10.971 2.582,0 5.164,0.969 7.146,2.58 l 13.969,11.434 z M 546.3,87.084249 l 12.538,9.266 0.095,-0.092 c -0.53923,-1.056902 -0.82316,-2.225504 -0.829,-3.412 0,-5.715 5.302,-10.049 10.879,-10.049 6.36,0 11.434,5.164 11.434,11.479 0,5.992001 -4.979,11.572001 -11.108,11.572001 -3.506,0 -6.454,-1.752 -9.176,-3.779 L 544.184,90.219249 Z m 23.143,-0.14 c -4.334,0 -7.47,3.688 -7.47,7.375 0,3.781 3.458,7.377001 7.236,7.377001 4.013,0 7.332,-3.410001 7.332,-7.377001 0.003,-3.873 -3.227,-7.375 -7.098,-7.375 z m -25.263,-23.037 c 0,9.955 8.162,18.054 18.195,18.054 9.953,0 18.049,-8.099 18.049,-18.054 0,-10.242 -7.96,-18.268 -18.121,-18.268 -10.162,0 -18.123,8.026 -18.123,18.268 z m 18.196,-14 c 7.854,0 14.003,6.248 14.003,14.223 0,7.479 -6.281,13.563 -14.003,13.563 -7.801,0 -14.147,-6.084 -14.147,-13.563 0,-8.11 6.082,-14.223 14.147,-14.223 z m -18.196,-23.957 c 0,9.953 8.162,18.051 18.195,18.051 9.953,0 18.049,-8.098 18.049,-18.051 0,-10.244 -7.96,-18.2699996 -18.121,-18.2699996 -10.162,0 -18.123,8.0259996 -18.123,18.2699996 z m 18.196,-14.002 c 7.854,0 14.003,6.246 14.003,14.223 0,7.479 -6.281,13.563 -14.003,13.563 -7.801,0 -14.147,-6.084 -14.147,-13.563 0,-8.108 6.082,-14.223 14.147,-14.223 z" id="path6"/>
    </g>
</svg>
