<?xml version='1.0' encoding='utf-8'?>
<svg xmlns:xlink="http://www.w3.org/1999/xlink" xmlns="http://www.w3.org/2000/svg" id="Livello_2" data-name="Livello 2" viewBox="0 0 725.12649 170.9877" version="1.1" xml:space="preserve" width="600" height="141.48238363829668">
    <defs id="defs1">
        <style id="style1">
      .cls-1 {
        fill: #bd0000;
      }
    </style>
        <style id="style1-5">
      .cls-1 {
        fill: url(#Sfumatura_senza_nome_73-3);
      }

      .cls-2 {
        fill: url(#Sfumatura_senza_nome_73-2);
      }

      .cls-3 {
        fill: url(#Sfumatura_senza_nome_73);
      }
    </style>
        <linearGradient id="Sfumatura_senza_nome_73" data-name="Sfumatura senza nome 73" x1="78.610001" y1="57.470001" x2="78.610001" y2="115.07" gradientUnits="userSpaceOnUse">
            <stop offset="0" stop-color="red" id="stop1"/>
            <stop offset=".09" stop-color="#ff5716" id="stop2"/>
            <stop offset=".2" stop-color="#ff9300" id="stop3"/>
            <stop offset=".3" stop-color="#ffc900" id="stop4"/>
            <stop offset=".41" stop-color="#fffb00" id="stop5"/>
            <stop offset=".53" stop-color="#bffd44" id="stop6"/>
            <stop offset=".64" stop-color="#00fe00" id="stop7"/>
            <stop offset=".75" stop-color="#00ffc9" id="stop8"/>
            <stop offset=".85" stop-color="aqua" id="stop9"/>
            <stop offset=".93" stop-color="#00d0ff" id="stop10"/>
            <stop offset="1" stop-color="#009cff" id="stop11"/>
        </linearGradient>
        <linearGradient id="Sfumatura_senza_nome_73-2" data-name="Sfumatura senza nome 73" x1="121.4" y1="57.470001" x2="121.4" y2="115.07" xlink:href="#Sfumatura_senza_nome_73"/>
        <linearGradient id="Sfumatura_senza_nome_73-3" data-name="Sfumatura senza nome 73" x1="100.01" y1="57.470001" x2="100.01" y2="115.07" xlink:href="#Sfumatura_senza_nome_73"/>
        <linearGradient xlink:href="#Sfumatura_senza_nome_73" id="linearGradient7" gradientUnits="userSpaceOnUse" x1="78.610001" y1="57.470001" x2="78.610001" y2="115.07"/>
        <linearGradient xlink:href="#Sfumatura_senza_nome_73" id="linearGradient35" x1="100.01" y1="57.470001" x2="100.01" y2="115.07"/>
        <linearGradient xlink:href="#Sfumatura_senza_nome_73" id="linearGradient36" x1="100.01" y1="57.470001" x2="100.01" y2="115.07"/>
    </defs>
    <g id="g3" transform="translate(-713.04329,-140.90235)"/>
    <style type="text/css" id="style1-3">
	.st0{fill:#AD0E0E;}
	.st1{fill:#FFFFFF;}
	.st2{fill:url(#SVGID_1_);}
	.st3{fill:#606060;}
	.st4{fill:url(#SVGID_2_);}
	.st5{fill:url(#SVGID_3_);}
	.st6{fill:url(#SVGID_4_);}
</style>
    <g transform="matrix(0.31784515,0,0,0.31784515,5.058519,5.0626426)" id="g8">
        <g id="g5">
            <g id="g4" transform="matrix(0.90305469,0,0,0.90305469,-12.34528,16.23239)">
                <g id="path1" class="st0" style="opacity:1">
                    <path style="baseline-shift:baseline;display:inline;overflow:visible;vector-effect:none;fill:#ffffff;stroke-linecap:round;stroke-linejoin:round;paint-order:markers stroke fill;enable-background:accumulate;stop-color:#000000;stop-opacity:1" d="m 2430.6953,111.96875 c -22.3794,0.0344 -43.678,6.01949 -60.4199,18.08594 -19.8976,14.28098 -31.1758,36.95877 -31.1758,61.84961 0,24.89947 11.2744,47.6153 31.2109,61.87695 16.7531,12.00905 38.0413,18 60.4083,18 21.6352,0 43.7202,-5.47224 61.4355,-18.52539 17.7153,-13.05315 30.1836,-34.70088 30.1836,-61.38086 0,-26.67994 -12.4683,-48.32773 -30.1836,-61.38086 -17.7153,-13.05313 -39.8003,-18.52539 -61.4355,-18.52539 a 15.732523,15.732523 0 0 0 -0.024,0 z m 0.035,31.46094 c 16.1234,0.002 31.9764,4.44569 42.7617,12.39258 10.7879,7.94882 17.3828,18.38947 17.3828,36.05273 0,17.66332 -6.5949,28.10195 -17.3828,36.05078 -10.7879,7.94883 -26.646,12.39258 -42.7734,12.39258 -16.6268,0 -31.7363,-4.69144 -42.0879,-12.11524 a 15.732523,15.732523 0 0 0 -0.016,-0.01 c -12.3021,-8.80035 -18.0527,-20.07514 -18.0527,-36.28906 0,-16.21381 5.7401,-27.45674 18.0684,-36.29883 a 15.732523,15.732523 0 0 0 0.031,-0.0234 c 10.3007,-7.42666 25.3968,-12.12449 42.0684,-12.15234 z m -0.1934,15.59765 c -5.8954,0 -14.8784,0.20009 -24.541,3.73438 -4.8313,1.76715 -10.0646,4.48205 -14.5078,9.41406 -4.4432,4.93201 -7.4414,12.34675 -7.4414,19.72852 0,7.38177 2.9982,14.79649 7.4414,19.72851 4.4432,4.93203 9.6765,7.64692 14.5078,9.41406 9.6626,3.53429 18.6457,3.73438 24.541,3.73438 5.9452,0 14.9989,-0.20296 24.7129,-3.71484 4.857,-1.75595 10.1141,-4.44376 14.5996,-9.36524 4.4855,-4.92147 7.541,-12.37414 7.541,-19.79687 0,-7.42216 -3.0615,-14.8689 -7.5449,-19.78516 -4.4834,-4.91626 -9.7338,-7.60558 -14.5879,-9.36328 -9.7081,-3.5154 -18.7599,-3.72852 -24.7207,-3.72852 z m 0,31.46289 c 3.5284,0 8.395,0.55241 11.9219,1.41797 -3.523,0.86071 -8.3834,1.41211 -11.9219,1.41211 -3.5071,0 -8.3377,-0.55492 -11.7754,-1.41601 3.4377,-0.86107 8.2684,-1.41407 11.7754,-1.41407 z" id="path28"/>
                    <path style="baseline-shift:baseline;display:inline;overflow:visible;vector-effect:none;fill:#ad0e0e;stroke-linecap:round;stroke-linejoin:round;paint-order:markers stroke fill;enable-background:accumulate;stop-color:#000000;stop-opacity:1" d="m 2379.463,142.82233 c -16.1193,11.5611 -24.6318,28.5258 -24.6318,49.0824 0,20.5567 8.5125,37.5515 24.6318,49.0825 13.5535,9.72 31.7557,15.0629 51.2559,15.0629 37.7627,0 75.8877,-19.8323 75.8877,-64.1756 0,-44.3432 -38.125,-64.1755 -75.8877,-64.1755 -19.5304,0.03 -37.7325,5.3731 -51.2559,15.1233 z m 82.1966,49.0824 c 0,15.4553 -20.9793,17.1457 -31.1218,17.1457 -10.0218,0 -30.7596,-1.6904 -30.7596,-17.1457 0,-15.4552 20.7378,-17.1457 30.7596,-17.1457 10.1425,0 31.1218,1.7206 31.1218,17.1457 z" id="path29"/>
                </g>
                <g id="path2" class="st0" style="opacity:1">
                    <path style="baseline-shift:baseline;display:inline;overflow:visible;vector-effect:none;fill:#ffffff;stroke-linecap:round;stroke-linejoin:round;paint-order:markers stroke fill;enable-background:accumulate;stop-color:#000000;stop-opacity:1" d="m 2430.7188,-35.199219 c -22.3861,0 -43.6847,5.985455 -60.4239,18.042969 -19.9258,14.262491 -31.1953,36.970903 -31.1953,61.863281 0,24.89272 11.2689,47.60281 31.1953,61.865239 0,10e-4 0,0.003 0.01,0.004 0,0.002 0.01,0.005 0.01,0.008 16.7529,12.00861 38.0416,18 60.4083,18 21.6352,0 43.7202,-5.4742 61.4355,-18.52734 17.7153,-13.053141 30.1836,-34.700958 30.1836,-61.380859 0,-26.680018 -12.4705,-48.3222064 -30.1875,-61.367187 -17.717,-13.044981 -39.8006,-18.507813 -61.4316,-18.507813 z m 0,31.4609377 c 16.1316,1e-7 31.9911,4.4389899 42.7773,12.3808594 10.7862,7.9418699 17.3789,18.3698209 17.3789,36.0332029 0,17.663204 -6.5949,28.103898 -17.3828,36.052735 -10.7879,7.948836 -26.646,12.392578 -42.7734,12.392578 -16.6268,0 -31.7362,-4.691408 -42.0879,-12.115235 a 15.732523,15.732523 0 0 0 -0.016,-0.01172 c -12.3021,-8.800491 -18.0527,-20.073307 -18.0527,-36.28711 0,-16.213924 5.7506,-27.4886 18.0527,-36.2890622 a 15.732523,15.732523 0 0 0 0.047,-0.033203 c 10.3031,-7.42829166 25.3952,-12.1230469 42.0567,-12.1230469 z m -0.1817,15.5683593 c -5.8954,0 -14.8784,0.200058 -24.541,3.734375 -4.8313,1.767158 -10.0646,4.482034 -14.5078,9.414063 -4.4432,4.932029 -7.4414,12.346746 -7.4414,19.728515 0,7.381765 2.9982,14.796528 7.4414,19.728516 4.4432,4.931988 9.6765,7.646928 14.5078,9.414062 9.6626,3.534269 18.6456,3.734375 24.541,3.734375 5.9452,0 14.999,-0.202969 24.7129,-3.714843 4.857,-1.755937 10.1141,-4.445751 14.5996,-9.367188 4.4855,-4.921437 7.541,-12.372189 7.541,-19.794922 0,-7.422737 -3.0555,-14.875396 -7.541,-19.796875 -4.4854,-4.921478 -9.7426,-7.609273 -14.5996,-9.365234 -9.714,-3.511922 -18.7677,-3.714844 -24.7129,-3.714844 z m 0,31.460938 c 3.545,0 8.418,0.552214 11.9414,1.416015 -3.5234,0.863608 -8.3968,1.414063 -11.9414,1.414063 -3.507,0 -8.3377,-0.553001 -11.7754,-1.414063 3.4377,-0.861104 8.2684,-1.416015 11.7754,-1.416015 z" id="path30"/>
                    <path style="baseline-shift:baseline;display:inline;overflow:visible;vector-effect:none;fill:#ad0e0e;stroke-linecap:round;stroke-linejoin:round;paint-order:markers stroke fill;enable-background:accumulate;stop-color:#000000;stop-opacity:1" d="m 2379.463,-4.3757888 c -16.1193,11.5311005 -24.6318,28.5259008 -24.6318,49.0826008 0,20.5566 8.5125,37.551302 24.6318,49.082406 13.5535,9.720002 31.7557,15.063002 51.2559,15.063002 37.7627,0 75.8877,-19.832404 75.8877,-64.175508 0,-44.34340056 -38.125,-64.145401 -75.8877,-64.145401 -19.5304,0 -37.7325,5.3428 -51.2559,15.0929002 z m 82.1966,49.0826008 c 0,15.4551 -20.9793,17.1456 -31.1218,17.1456 -10.0218,0 -30.7596,-1.6905 -30.7596,-17.1456 0,-15.4553 20.7378,-17.1458 30.7596,-17.1458 10.1425,0 31.1218,1.6905 31.1218,17.1458 z" id="path31"/>
                </g>
                <g id="polygon2" class="st0" style="opacity:1" transform="matrix(0,-0.30186042,0.30186042,0,2354.8312,1208.8915)">
                    <path style="baseline-shift:baseline;display:inline;overflow:visible;vector-effect:none;fill:#ffffff;stroke-linecap:round;stroke-linejoin:round;paint-order:markers stroke fill;enable-background:accumulate;stop-color:#000000;stop-opacity:1" d="M 2212.0996,-43.013672 A 52.11871,52.11871 0 0 0 2159.9863,9.0996094 V 163.5 a 52.11871,52.11871 0 0 0 52.1133,52.11328 h 115.7774 l -122.9844,254.08203 a 52.11871,52.11871 0 0 0 46.9082,74.81836 H 2430.5 a 52.11871,52.11871 0 0 0 47.7852,-31.32031 L 2688.5859,29.892578 a 52.11871,52.11871 0 0 0 -47.7851,-72.90625 z m 52.1133,104.226563 h 297.0762 L 2396.3438,440.28711 h -61.4219 L 2457.9082,186.20508 A 52.11871,52.11871 0 0 0 2411,111.38672 h -146.7871 z" id="path32"/>
                    <path style="baseline-shift:baseline;display:inline;overflow:visible;vector-effect:none;fill:#ad0e0e;stroke-linecap:round;stroke-linejoin:round;paint-order:markers stroke fill;enable-background:accumulate;stop-color:#000000;stop-opacity:1" d="m 2251.8,492.4 h 178.7 L 2640.8,9.1 H 2212.1 V 163.5 H 2411 Z" id="path33"/>
                </g>
                <g id="path3" class="st0" style="opacity:1">
                    <path style="baseline-shift:baseline;display:inline;overflow:visible;vector-effect:none;fill:#ffffff;stroke-linecap:round;stroke-linejoin:round;paint-order:markers stroke fill;enable-background:accumulate;stop-color:#000000;stop-opacity:1" d="m 2464.2109,260.29883 c -15.2258,-0.0238 -27.9958,7.48766 -37.6328,18.75781 -8.6556,-9.34932 -19.7518,-15.58984 -33.0488,-15.58984 -17.4182,0 -31.7345,11.13707 -40.666,25.28515 -8.9316,14.14809 -13.7637,32.13693 -13.7637,51.75391 0,19.61693 4.8323,37.60748 13.7617,51.76172 8.9294,14.15424 23.2424,25.30664 40.668,25.30664 13.296,0 24.3823,-6.24296 33.0332,-15.58789 9.6348,11.2704 22.4089,18.78711 37.6328,18.78711 18.1789,0 33.4426,-11.2431 43.1348,-25.98633 9.6922,-14.74324 15.0078,-33.64703 15.0078,-54.25195 0,-20.60489 -5.3156,-39.50872 -15.0078,-54.25196 -9.6894,-14.73891 -24.9473,-25.97777 -43.1192,-25.98437 z m -0.045,31.45898 a 15.732523,15.732523 0 0 0 0.029,0 c 5.2455,0 11.1883,3.20291 16.8457,11.8086 5.6574,8.60568 9.834,21.95413 9.834,36.96875 0,15.01467 -4.1766,28.36308 -9.834,36.96875 -5.6574,8.60566 -11.6002,11.80859 -16.8457,11.80859 -7.0482,0 -16.2196,-6.89601 -22.0117,-22.19531 4.4445,2.52393 9.4837,4.09179 14.8887,4.09179 16.7679,0 30.7031,-13.93514 30.7031,-30.70312 0,-16.80627 -13.9343,-30.70313 -30.7031,-30.70313 -5.3972,0 -10.4291,1.56279 -14.8692,4.08008 5.8214,-15.2685 14.9864,-22.13803 21.9629,-22.125 z m -70.6367,3.16992 c 5.2761,0 13.3422,5.73317 18.6543,20.16211 a 15.732523,15.732523 0 0 0 1.084,1.40235 c -4.2852,-2.63564 -9.2505,-4.2461 -14.5762,-4.2461 -14.2593,0 -26.1591,10.99234 -27.9043,24.83203 0.5658,-12.81136 4.0272,-24.15838 8.6817,-31.53125 5.0747,-8.03871 10.107,-10.61914 14.0605,-10.61914 z m 27.5098,28.59961 a 15.732523,15.732523 0 0 0 10.3086,0.46875 c -2.6171,4.03019 -4.2134,8.70235 -4.6895,13.6836 -0.5477,-5.2703 -2.5259,-10.11365 -5.6191,-14.15235 z m -22.3477,13.77344 c 1.6055,0 3.2031,1.59939 3.2031,3.20508 0,1.60524 -1.5976,3.20312 -3.2031,3.20312 -1.6055,0 -3.2031,-1.59788 -3.2031,-3.20312 0,-1.60569 1.5976,-3.20508 3.2031,-3.20508 z m 58.3809,2.44531 c 0.2259,0 0.7578,0.53358 0.7578,0.75977 0,0.22578 -0.532,0.75781 -0.7578,0.75781 -0.2872,0 -0.7598,-0.49374 -0.7598,-0.75781 0,-0.22619 0.5338,-0.75977 0.7598,-0.75977 z m -30.4141,3.58594 c 0.4776,4.99538 2.0791,9.68079 4.709,13.71875 a 15.732523,15.732523 0 0 0 -10.3613,0.4707 c 3.1107,-4.0466 5.1027,-8.90142 5.6523,-14.18945 z m -55.8711,0.60156 c 1.7452,13.83971 13.645,24.83008 27.9043,24.83008 5.3389,0 10.3172,-1.61599 14.6094,-4.26367 a 15.732523,15.732523 0 0 0 -1.1094,1.42969 c -5.3472,14.45901 -13.3858,20.18164 -18.6621,20.18164 -3.9462,0 -8.9817,-2.58332 -14.0586,-10.63086 -4.6564,-7.38096 -8.1177,-18.73408 -8.6836,-31.54688 z" id="path34"/>
                    <path style="baseline-shift:baseline;display:inline;overflow:visible;vector-effect:none;fill:#ad0e0e;stroke-linecap:round;stroke-linejoin:round;paint-order:markers stroke fill;enable-background:accumulate;stop-color:#000000;stop-opacity:1" d="m 2426.9457,309.65491 c -6.7013,-18.2022 -19.138,-30.4579 -33.416,-30.4579 -21.3717,0 -38.6985,27.4392 -38.6985,61.308 0,33.8687 17.3268,61.3379 38.6985,61.3379 14.278,0 26.6845,-12.2554 33.416,-30.4576 7.1842,20.0435 21.1604,33.6574 37.2495,33.6574 23.4244,0 42.4114,-28.888 42.4114,-64.5076 0,-35.6195 -18.987,-64.5076 -42.4114,-64.5076 -16.059,-0.03 -30.0351,13.5838 -37.2495,33.6274 z m -40.7814,30.8501 c 0,-6.9127 5.6146,-12.5273 12.5272,-12.5273 6.9126,0 12.5272,5.6146 12.5272,12.5273 0,6.9125 -5.6146,12.5271 -12.5272,12.5271 -6.9126,0 -12.5272,-5.6146 -12.5272,-12.5271 z m 85.8793,0 c 0,8.2709 -6.7013,14.9722 -14.9723,14.9722 -8.271,0 -14.9723,-6.7013 -14.9723,-14.9722 0,-8.2711 6.7013,-14.9723 14.9723,-14.9723 8.2408,0 14.9723,6.7012 14.9723,14.9723 z" id="path35"/>
                </g>
            </g>
        </g>
        <g id="g6">
            <g id="path4-6" class="st0" style="opacity:1">
                <path style="baseline-shift:baseline;display:inline;overflow:visible;vector-effect:none;fill:#ffffff;stroke-linecap:round;stroke-linejoin:round;paint-order:markers stroke fill;enable-background:accumulate;stop-color:#000000;stop-opacity:1" d="m 866.2207,-15.927734 c -23.20913,0.0613 -46.23978,10.1675699 -61.83984,29.265625 a 23.596395,23.596395 0 0 0 -0.10156,0.06641 c -0.14695,0.16497 -0.24797,0.334736 -0.39258,0.5 -0.17977,0.22442 -0.38479,0.417665 -0.5625,0.644531 a 23.596395,23.596395 0 0 0 -0.0664,0.15625 c -15.82136,18.602631 -17.35377,38.841365 -21.02734,49.787109 a 23.598755,23.598755 0 0 0 -0.29102,0.925782 c -40.7,140.099997 -81.40244,280.210167 -121.9082,420.330077 a 23.598755,23.598755 0 0 0 22.66797,30.14843 c 25.16267,0 50.23156,-0.0995 75.10547,0 a 23.598755,23.598755 0 0 0 22.76562,-17.04687 c 10.0621,-34.83034 20.22974,-69.71643 30.43555,-104.55274 36.91472,-0.015 73.80106,-0.0423 110.66016,0 10.03806,34.82807 20.03339,69.73062 30.29492,104.6543 a 23.598755,23.598755 0 0 0 22.63867,16.94531 h 75.59958 a 23.598755,23.598755 0 0 0 22.6621,-30.17187 C 1030.2583,338.91434 987.36227,192.12763 944.67383,45.267578 940.1284,29.492257 931.35856,14.538945 917.98242,3.21875 903.07753,-9.7449779 884.60928,-15.976306 866.2207,-15.927734 Z m 3.48828,48.429687 c 6.62963,0.403997 12.90969,2.47318 17.36329,6.365234 a 23.598755,23.598755 0 0 0 0.3457,0.296875 c 5.30562,4.458977 9.67736,11.427575 11.9082,19.169922 a 23.598755,23.598755 0 0 0 0.0156,0.05273 c 39.78091,136.857526 79.7048,273.595136 119.41603,410.316396 h -26.42186 c -10.15208,-34.7938 -20.18637,-69.66297 -30.26563,-104.55272 a 23.598755,23.598755 0 0 0 -22.62109,-17.04687 c -48.7646,-0.10014 -97.48074,0 -146.14844,0 a 23.598755,23.598755 0 0 0 -22.64062,16.94531 c -10.24421,34.86473 -20.37492,69.78359 -30.4668,104.65429 -8.70188,-0.008 -17.38672,-0.0108 -26.08008,0 37.61525,-130.03206 75.36631,-260.07187 113.14649,-390.121089 l -0.28907,0.925781 c 6.0413,-18.00059 8.22838,-29.862575 12.54883,-34.71289 a 23.596395,23.596395 0 0 0 0.34375,-0.683594 23.596395,23.596395 0 0 0 0.61328,-0.460937 c 6.16276,-7.867347 18.18305,-11.821765 29.23242,-11.148438 z m -9.38476,63.777344 a 23.598755,23.598755 0 0 0 -16.66016,16.156253 c -17.93085,60.90481 -35.43827,121.93169 -53.12304,182.77929 a 23.598755,23.598755 0 0 0 22.52539,30.18164 c 35.5333,0.20076 70.97842,0.0996 106.33398,0.0996 A 23.598755,23.598755 0 0 0 942.0625,295.32422 C 924.36721,234.34043 906.76257,173.42615 888.94922,112.48047 a 23.598755,23.598755 0 0 0 -28.625,-16.201173 z m 5.96875,107.390623 c 7.21657,24.85984 14.4559,49.71234 21.67187,74.60352 -14.46209,0.01 -28.90938,-0.0175 -43.34179,-0.041 7.2096,-24.88579 14.46077,-49.7065 21.66992,-74.5625 z" id="path18"/>
                <path style="baseline-shift:baseline;display:inline;overflow:visible;vector-effect:none;fill:#ad0e0e;stroke-linecap:round;stroke-linejoin:round;paint-order:markers stroke fill;enable-background:accumulate;stop-color:#000000;stop-opacity:1" d="m 821.9,29.1 c 18.8,-24 57.7,-28.1 80.7,-8 9.4,7.9 16,18.9 19.4,30.7 42.7,146.9 85.6,293.7 128.2,440.5 h -75.6 c -11.9,-40.5 -23.5,-81.1 -35.2,-121.6 -48.7,-0.1 -97.4,0 -146.1,0 -11.9,40.5 -23.7,81.1 -35.4,121.6 -25,-0.1 -50.1,0 -75.2,0 40.5,-140.1 81.2,-280.2 121.9,-420.3 4.9,-14.6 6.7,-31 17.3,-42.9 m 44.4,90 c -17.9,60.8 -35.4,121.8 -53.1,182.7 35.4,0.2 70.8,0.1 106.2,0.1 -17.7,-61 -35.3,-121.9 -53.1,-182.8 z" id="path19"/>
            </g>
            <g id="path5" class="st0" style="opacity:1">
                <path style="baseline-shift:baseline;display:inline;overflow:visible;vector-effect:none;fill:#ffffff;stroke-linecap:round;stroke-linejoin:round;paint-order:markers stroke fill;enable-background:accumulate;stop-color:#000000;stop-opacity:1" d="m 1394.834,-15.574219 c -23.9863,1.211777 -46.6639,13.2485457 -61.0645,33.523438 a 23.596395,23.596395 0 0 0 -0.1875,0.148437 c -0.1185,0.158943 -0.2018,0.315707 -0.3183,0.47461 -0.058,0.08351 -0.1317,0.150589 -0.1895,0.234375 a 23.596395,23.596395 0 0 0 -0.037,0.105468 c -12.4435,17.158017 -13.9243,34.002777 -17.1328,43.263672 a 23.598755,23.598755 0 0 0 -0.3633,1.142578 C 1274.6447,204.10559 1233.637,344.826 1193.1211,485.78125 a 23.598755,23.598755 0 0 0 22.6797,30.11523 h 75.0996 a 23.598755,23.598755 0 0 0 22.6875,-17.11328 c 9.9286,-34.75026 20.1679,-69.54512 30.2461,-104.48633 36.816,-0.0423 73.6174,-0.015 110.4316,0 10.1521,34.79382 20.1864,69.66299 30.2657,104.55274 a 23.598755,23.598755 0 0 0 22.7617,17.04687 c 25.1137,-0.0993 50.3452,0.10042 75.7949,-0.10156 a 23.598755,23.598755 0 0 0 22.4687,-30.18945 c -42.7,-146.7 -85.4004,-293.39807 -128.0996,-440.195314 l 0.1153,0.410156 c -7.4552,-27.473579 -28.3703,-51.7992077 -58.625,-58.902343 -8.0028,-2.074857 -16.1269,-2.895656 -24.1133,-2.492188 z m 7.7305,47.40625 c 1.6136,0.123345 3.1899,0.379472 4.7011,0.779297 a 23.598755,23.598755 0 0 0 0.7617,0.1875 c 10.5349,2.415319 20.6872,13.172328 24,25.380859 a 23.598755,23.598755 0 0 0 0.1153,0.410157 c 39.7761,136.748026 79.5526,273.401766 119.3281,410.054686 -8.8288,-0.004 -17.646,0.0359 -26.543,0.0352 -10.0358,-34.8204 -20.0298,-69.71492 -30.289,-104.63086 A 23.598755,23.598755 0 0 0 1472,347.10352 c -48.5676,0 -97.1847,-0.10014 -145.9492,0 a 23.598755,23.598755 0 0 0 -22.6387,17.11328 c -9.9286,34.75026 -20.1679,69.54512 -30.2461,104.48632 h -25.9609 c 37.662,-130.78105 75.6673,-261.44878 113.6543,-392.220698 l -0.3633,1.142578 c 5.5406,-15.992075 7.5217,-26.761031 10.9219,-31.322266 a 23.596395,23.596395 0 0 0 0.166,-0.417968 23.596395,23.596395 0 0 0 0.3418,-0.291016 c 6.1701,-8.949044 19.3429,-14.625131 30.6387,-13.761719 z m -9.1368,64.046875 a 23.598755,23.598755 0 0 0 -16.6914,16.255864 c -17.6914,61.07057 -35.4978,122.08949 -53.0175,183.1582 a 23.598755,23.598755 0 0 0 22.6816,30.10351 h 105.7988 a 23.598755,23.598755 0 0 0 22.6856,-30.09375 c -17.53,-61.2046 -35.4274,-122.09397 -52.791,-183.0664 a 23.598755,23.598755 0 0 0 -28.6661,-16.357424 z m 5.9297,107.835934 c 7.1877,24.82337 14.3267,49.68581 21.4805,74.48828 h -43.043 c 7.1513,-24.80371 14.356,-49.6561 21.5625,-74.48828 z" id="path20"/>
                <path style="baseline-shift:baseline;display:inline;overflow:visible;vector-effect:none;fill:#ad0e0e;stroke-linecap:round;stroke-linejoin:round;paint-order:markers stroke fill;enable-background:accumulate;stop-color:#000000;stop-opacity:1" d="m 1352.5,32.2 c 13.1,-19 38.5,-28.3 60.8,-22.4 20.5,4.7 36.1,22.3 41.5,42.2 42.7,146.8 85.4,293.5 128.1,440.2 -25.2,0.2 -50.4,0 -75.7,0.1 -11.7,-40.5 -23.3,-81.1 -35.2,-121.6 -48.6,0 -97.2,-0.1 -145.9,0 -11.6,40.6 -23.6,81 -35.2,121.6 h -75.1 c 40.5,-140.9 81.5,-281.6 122.4,-422.4 4.4,-12.7 6.1,-26.7 14.3,-37.7 m -6.1,269.6 h 105.8 c -17.5,-61.1 -35.4,-122 -52.8,-183.1 -17.7,61.1 -35.5,122.1 -53,183.1 z" id="path21"/>
            </g>
            <g id="path6" class="st0" style="opacity:1">
                <path style="baseline-shift:baseline;display:inline;overflow:visible;vector-effect:none;fill:#ffffff;stroke-linecap:round;stroke-linejoin:round;paint-order:markers stroke fill;enable-background:accumulate;stop-color:#000000;stop-opacity:1" d="M 993.80078,-14.496094 A 23.598755,23.598755 0 0 0 970.20312,9.0996094 V 82.800781 a 23.598755,23.598755 0 0 0 23.59766,23.595699 c 25.78072,0 51.43262,-0.0174 77.10352,0 v 385.9043 a 23.598755,23.598755 0 0 0 23.5957,23.5957 h 72.0996 a 23.598755,23.598755 0 0 0 23.5977,-23.5957 v -385.9043 h 77.0019 a 23.598755,23.598755 0 0 0 23.5977,-23.595699 V 9.0996094 a 23.598755,23.598755 0 0 0 -23.5977,-23.5957034 z m 23.59572,47.19336 h 226.207 v 26.505859 h -77.0039 a 23.598755,23.598755 0 0 0 -23.5957,23.597656 V 468.70312 h -24.9082 V 82.800781 a 23.598755,23.598755 0 0 0 -23.5254,-23.597656 c -25.804,-0.0768 -51.4795,-0.0233 -77.1738,0 z" id="path22"/>
                <path style="baseline-shift:baseline;display:inline;overflow:visible;vector-effect:none;fill:#ad0e0e;stroke-linecap:round;stroke-linejoin:round;paint-order:markers stroke fill;enable-background:accumulate;stop-color:#000000;stop-opacity:1" d="m 993.8,9.1 h 273.4 v 73.7 h -100.6 v 409.5 h -72.1 V 82.8 c -33.6,-0.1 -67.1,0 -100.7,0 z" id="path23"/>
            </g>
            <g id="path7" class="st0" style="opacity:1">
                <path style="baseline-shift:baseline;display:inline;overflow:visible;vector-effect:none;fill:#ffffff;stroke-linecap:round;stroke-linejoin:round;paint-order:markers stroke fill;enable-background:accumulate;stop-color:#000000;stop-opacity:1" d="m 1684.7813,-14.496094 0.5644,0.0078 c -9.3829,-0.257067 -19.5279,0.715092 -29.7519,4.230468 -33.679,10.87460886 -57.2464,42.188668 -57.3907,77.962891 a 23.598755,23.598755 0 0 0 0,0.128906 c 0.2,141.555579 -4e-4,283.048679 0.1,424.582039 a 23.598755,23.598755 0 0 0 23.5977,23.58007 H 1694.5 a 23.598755,23.598755 0 0 0 23.5957,-23.5957 c 0,-47.75876 0.012,-95.48347 0,-143.2207 34.3886,51.98024 68.6743,104.21791 103.3652,156.30078 a 23.598755,23.598755 0 0 0 19.7227,10.51562 c 28.3898,-0.0996 56.7612,0 85.3164,0 a 23.598755,23.598755 0 0 0 19.6387,-36.67773 c -38.2238,-57.38477 -77.0218,-114.04537 -114.1914,-171.37109 11.1024,-7.30934 26.1751,-14.61542 41.207,-27.91211 30.422,-26.4426 46.1614,-64.588 49.0723,-102.42383 3.8751,-33.37777 2.5808,-70.62275 -14.7286,-104.552739 -25.0071,-51.824621 -78.4232,-86.477162 -136.1601,-87.550782 a 23.598755,23.598755 0 0 0 -0.4375,-0.0039 c -28.7548,0 -57.529,0.09962 -86.1191,0 z m -0.7266,47.183594 a 23.598755,23.598755 0 0 0 0.5625,0.0078 c 28.697,0.09999 57.4109,0.0027 85.9453,0.002 38.8995,0.765891 77.7086,25.950291 94.5586,61.101562 a 23.598755,23.598755 0 0 0 0.2793,0.560547 c 11.4168,22.282531 13.2474,50.340531 9.8691,78.644531 a 23.598755,23.598755 0 0 0 -0.096,0.98632 c -2.0864,27.12296 -13.7218,53.73064 -33.0351,70.48438 a 23.598755,23.598755 0 0 0 -0.1895,0.16797 c -9.5359,8.45225 -25.1093,15.46863 -42.0566,27.96875 a 23.598755,23.598755 0 0 0 -0.3438,0.25781 c -9.5685,7.33176 -14.3465,18.21948 -15.5117,27.82617 -1.1652,9.6067 0.5132,18.56446 4.5547,26.84961 a 23.598755,23.598755 0 0 0 1.3965,2.4707 c 30.2825,46.81474 61.3825,92.81552 92.2637,138.78907 -9.4845,-0.008 -18.9559,-0.0157 -28.4668,0 -34.8702,-52.45196 -69.4925,-105.17487 -104.3145,-157.73633 a 23.598755,23.598755 0 0 0 -0.1699,-0.25391 c -6.5948,-9.68042 -8.4402,-23.39948 -4.625,-33.94726 2.2225,-6.089 8.7924,-12.26931 17.293,-15.58203 l -0.1446,0.0566 c 28.7356,-10.98387 59.4949,-28.75687 77.8067,-60.07227 15.2827,-25.84363 13.8795,-54.79562 8.0586,-78.55469 -8.4526,-37.761921 -42.6237,-65.409349 -81.9747,-64.097649 l 0.6582,-0.01367 c -18.3462,0.09864 -36.9875,-0.102075 -55.9257,0.101562 l 0.8144,0.0059 c -22.4112,-0.533601 -40.6272,16.359689 -40.3574,39.5625 -0.094,123.557767 -0.01,247.013637 0,370.529297 h -25.4141 c -0.065,-133.57268 0.095,-267.17212 -0.094,-400.908203 0.055,-13.696235 11.5238,-29.071761 24.8496,-33.30664 a 23.598755,23.598755 0 0 0 0.6055,-0.201172 c 3.4924,-1.214774 8.0615,-1.840085 13.2031,-1.699219 z m 83.2305,73.0957 c 14.5835,-0.48612 31.1578,12.77479 34.3769,27.31641 a 23.598755,23.598755 0 0 0 0.1328,0.57031 c 4.0975,16.55385 3.6044,32.79765 -2.7969,43.60352 a 23.598755,23.598755 0 0 0 -0.076,0.13281 c -10.2937,17.63608 -30.9067,31.0465 -53.9473,39.85352 a 23.598755,23.598755 0 0 0 -0.1426,0.0547 c -9.5431,3.71901 -18.8397,9.26926 -26.7363,16.70117 -7e-4,-42.70519 -0.03,-85.41799 0,-128.13281 15.9851,-0.0928 32.0963,0.002 48.5313,-0.0859 a 23.598755,23.598755 0 0 0 0.6582,-0.0137 z" id="path24"/>
                <path style="baseline-shift:baseline;display:inline;overflow:visible;vector-effect:none;fill:#ad0e0e;stroke-linecap:round;stroke-linejoin:round;paint-order:markers stroke fill;enable-background:accumulate;stop-color:#000000;stop-opacity:1" d="m 1663.1,12.1 c 6.9,-2.4 14.3,-3.2 21.6,-3 28.7,0.1 57.5,0 86.2,0 48.4,0.9 94.6,30.9 115.5,74.5 14.5,28.3 16,61.2 12.3,92.2 -2.5,32.5 -16.2,64.9 -41.1,86.5 -13.2,11.7 -29.6,18.9 -43.7,29.3 -7.7,5.9 -8.1,17.4 -4.1,25.6 38.1,58.9 77.8,116.8 116.7,175.2 -28.5,0 -56.9,-0.1 -85.4,0 -37.3,-56 -74.2,-112.3 -111.3,-168.3 -10.9,-16 -13.9,-37.1 -7.3,-55.3 5.1,-14 17.3,-24.2 30.9,-29.5 25.9,-9.9 51.6,-25.5 65.9,-50 10.9,-18.4 10.4,-41.1 5.4,-61.3 -5.8,-26.2 -31.2,-46.7 -58.2,-45.8 -18.6,0.1 -37.2,-0.1 -55.8,0.1 -8.4,-0.2 -16.3,7.1 -16.2,15.7 -0.1,131.5 0,262.9 0,394.4 h -72.6 c -0.1,-141.5 0.1,-283 -0.1,-424.6 0.1,-24.8 17.7,-48.2 41.3,-55.7 z" id="path25"/>
            </g>
            <g id="path8" class="st0" style="opacity:1">
                <path style="baseline-shift:baseline;display:inline;overflow:visible;vector-effect:none;fill:#ffffff;stroke-linecap:round;stroke-linejoin:round;paint-order:markers stroke fill;enable-background:accumulate;stop-color:#000000;stop-opacity:1" d="m 1964.5,-14.496094 a 23.598755,23.598755 0 0 0 -23.5957,23.5957034 c 0,161.1000006 0,322.0953006 -0.1016,483.1855506 a 23.598755,23.598755 0 0 0 23.5977,23.61132 c 25.5617,0 51.0307,-0.0995 76.3066,0 a 23.598755,23.598755 0 0 0 23.6895,-23.5664 c 0.2,-161.02933 0.1,-322.14024 0.1,-483.2304706 a 23.598755,23.598755 0 0 0 -23.5957,-23.5957034 z m 23.5918,47.19336 h 29.207 c 0.01,145.380704 0.063,290.738424 -0.092,436.005854 -9.7437,-0.002 -19.4757,-0.0127 -29.207,0 0.082,-145.36088 0.092,-290.65291 0.092,-436.005854 z" id="path26"/>
                <path style="baseline-shift:baseline;display:inline;overflow:visible;vector-effect:none;fill:#ad0e0e;stroke-linecap:round;stroke-linejoin:round;paint-order:markers stroke fill;enable-background:accumulate;stop-color:#000000;stop-opacity:1" d="m 1964.5,9.1 h 76.4 c 0,161.1 0.1,322.2 -0.1,483.2 -25.4,-0.1 -50.9,0 -76.4,0 0.1,-161.1 0.1,-322.1 0.1,-483.2 z" id="path27"/>
            </g>
        </g>
        <g id="g13" transform="matrix(7.98994,0,0,7.98994,-486.55326,-434.0086)" style="stroke:#ffffff;stroke-width:6.97007;stroke-linecap:round;stroke-linejoin:round;stroke-dasharray:none;stroke-opacity:1;paint-order:markers stroke fill">
            <g id="path13" class="cls-1" style="opacity:1;fill:url(#Sfumatura_senza_nome_73-3)">
                <g id="g17" style="fill:url(#linearGradient36)">
                    <path style="baseline-shift:baseline;display:inline;overflow:visible;opacity:1;vector-effect:none;fill:#ffffff;stroke:none;stroke-width:6.97007;stroke-linecap:round;stroke-linejoin:round;stroke-dasharray:none;stroke-opacity:1;paint-order:markers stroke fill;enable-background:accumulate;stop-color:#000000;stop-opacity:1" d="m 97.029297,53.775391 c -0.309761,0 -0.592072,-0.01773 -1.117188,0.04492 -0.525115,0.06265 -1.588847,0.277636 -2.46289,1.1875 -0.874044,0.909865 -1.031544,1.909806 -1.085938,2.414063 -0.05439,0.504257 -0.03906,0.785156 -0.03906,1.097656 v 28.13086 a 3.4853834,3.4853834 0 0 0 0.01172,0.02734 c 1.3e-5,9.416845 0.0084,18.83741 -0.02148,28.25196 -0.0084,0.73561 -0.05519,1.98916 1.09375,3.28906 1.148945,1.2999 2.7418,1.46265 3.652344,1.43359 l -0.0078,0.002 c 1.961082,-0.058 3.932545,-0.058 5.904295,0 l -0.008,-0.002 c 0.91094,0.0291 2.4917,-0.12459 3.64844,-1.42382 1.15673,-1.29924 1.11283,-2.58402 1.0957,-3.33789 l 0.002,0.0117 c -0.0486,-2.50817 -0.0195,-5.05509 -0.0195,-7.66211 V 58.519531 c 0,-0.31961 0.0148,-0.606907 -0.043,-1.11914 -0.0578,-0.512234 -0.23153,-1.527792 -1.11718,-2.427735 -0.88566,-0.899943 -1.93482,-1.097094 -2.45313,-1.15625 -0.51831,-0.05916 -0.79656,-0.04102 -1.10156,-0.04102 z m 2.265625,6.96875 h 1.410158 v 46.496089 c 0,1.783 0.007,3.61696 0.0156,5.44532 -0.47832,-0.003 -0.955744,-0.003 -1.433591,0 0.02194,-8.68311 0.01758,-17.361813 0.01758,-26.025394 a 3.4853834,3.4853834 0 0 0 -0.0098,-0.02344 z" id="path16"/>
                    <path style="baseline-shift:baseline;display:inline;overflow:visible;opacity:1;vector-effect:none;fill:#ffffff;stroke:none;stroke-width:6.97007;stroke-linecap:round;stroke-linejoin:round;stroke-dasharray:none;stroke-opacity:1;paint-order:markers stroke fill;enable-background:accumulate;stop-color:#000000;stop-opacity:1" d="m 108.91406,53.759766 c -0.83511,0.04692 -1.57999,0.06385 -2.18164,0.0098 a 3.4853834,3.4853834 0 0 0 -0.0195,-0.002 c -1.02074,-0.08596 -2.72266,0.143729 -3.8457,1.398438 -1.12304,1.254708 -1.13282,2.497934 -1.13281,3.263671 a 3.4853834,3.4853834 0 0 0 0,0.01563 c 0.01,2.229395 0,4.464284 0,6.72461 a 3.4853834,3.4853834 0 0 0 0.0137,0.05664 c -0.10828,7.132392 0.15033,14.359457 1.4414,21.595704 2.28876,12.840676 9.47297,22.911621 20.85157,29.261711 a 3.4853834,3.4853834 0 0 0 0.004,0.002 c 3.86196,2.14936 8.11701,3.24964 12.48828,3.39648 0.61313,0.0204 1.67165,0.0807 2.89844,-0.83008 1.22679,-0.91079 1.66406,-2.53498 1.66406,-3.48242 a 3.4853834,3.4853834 0 0 0 0,-0.0293 c -0.0197,-2.34068 -0.01,-4.6866 0,-7.05665 a 3.4853834,3.4853834 0 0 0 0,-0.0137 c 0,-0.77786 -0.23581,-2.07884 -1.1875,-3.04883 -0.95168,-0.96998 -2.05037,-1.18341 -2.72656,-1.25585 h 0.0137 c -0.51639,-0.0574 -1.15277,-0.24379 -1.93554,-0.5586 -4.41032,-1.77303 -8.20791,-4.580456 -11.75782,-8.064449 -3.39619,-3.342031 -5.84645,-6.977767 -7.11328,-11.376953 -1.55539,-5.406396 -2.21902,-11.046597 -2.60156,-16.882813 a 3.4853834,3.4853834 0 0 0 0,-0.0078 c -0.19154,-2.834742 -0.23251,-5.710304 -0.19336,-8.607422 a 3.4853834,3.4853834 0 0 0 0,-0.002 c 0.0109,-0.814152 -0.10602,-2.18802 -1.27148,-3.326172 -1.16547,-1.138151 -2.58531,-1.224457 -3.40235,-1.179687 a 3.4853834,3.4853834 0 0 0 -0.006,0 z m -2.80664,6.951171 c 0.0108,9.71e-4 0.0185,-9.45e-4 0.0293,0 -5.9e-4,-3.5e-5 -0.009,0.002 -0.01,0.002 z m 3.17774,0.0078 c 0.006,-3.24e-4 0.0138,3.24e-4 0.0195,0 l -0.004,0.002 c -10e-4,5.8e-5 -0.0143,-0.002 -0.0156,-0.002 z m 1.97461,29.171875 c 1.79811,3.900556 4.35978,7.277375 7.35546,10.224608 a 3.4853834,3.4853834 0 0 0 0.004,0.002 c 3.99009,3.916 8.55133,7.34967 14.04102,9.55664 0.41125,0.1654 0.995,0.24518 1.46484,0.39648 -0.002,0.68541 6e-5,1.37489 0,2.0625 -2.34811,-0.36514 -4.60755,-0.97947 -6.6875,-2.13672 l -0.002,-0.002 c -8.43537,-4.70825 -13.5969,-11.336232 -16.17578,-20.103518 z" id="path14"/>
                    <path style="baseline-shift:baseline;display:inline;overflow:visible;opacity:1;vector-effect:none;fill:#ffffff;stroke:none;stroke-width:6.97007;stroke-linecap:round;stroke-linejoin:round;stroke-dasharray:none;stroke-opacity:1;paint-order:markers stroke fill;enable-background:accumulate;stop-color:#000000;stop-opacity:1" d="m 91.146484,53.751953 c -0.911586,-0.05697 -2.510334,0.142632 -3.613281,1.359375 -1.092231,1.204922 -1.116798,2.4068 -1.117187,3.140625 -2.7e-5,0.0033 2.6e-5,0.0064 0,0.0098 -0.02007,2.495222 -0.02223,4.92509 -0.136719,7.300781 -0.234886,4.773569 -0.684373,9.440755 -1.623047,13.982422 a 3.4853834,3.4853834 0 0 0 0,0.002 c -0.857939,4.16577 -2.0248,7.870577 -4.234375,10.970703 -3.118323,4.370451 -7.02636,7.868826 -11.667969,10.681641 a 3.4853834,3.4853834 0 0 0 -0.0078,0.006 c -2.093207,1.27657 -4.015537,2.21855 -5.910157,2.52344 a 3.4853834,3.4853834 0 0 0 -0.01953,0.004 c -0.846937,0.14116 -2.167162,0.56856 -3.044922,1.75391 -0.87776,1.18535 -0.87394,2.31671 -0.865234,2.96094 a 3.4853834,3.4853834 0 0 0 0,0.002 c 0.02963,2.13338 0.03867,4.23855 0,6.33984 -0.01932,0.83083 0.04947,2.24546 1.263672,3.45117 1.214204,1.20572 2.667472,1.26965 3.519531,1.23047 a 3.4853834,3.4853834 0 0 0 0.0098,0 c 4.626668,-0.22459 9.100468,-1.47159 13.136718,-3.86132 a 3.4853834,3.4853834 0 0 0 0.0039,-0.002 c 11.23711,-6.67136 18.143404,-16.94602 20.171875,-29.835935 a 3.4853834,3.4853834 0 0 0 0.002,-0.002 c 1.077355,-6.878499 1.382285,-13.768158 1.261719,-20.609375 0,-2.197783 0.02032,-4.417342 0,-6.677734 v -0.0039 c -0.0025,-0.327491 0.0089,-0.626646 -0.05859,-1.146485 -0.06772,-0.521605 -0.267375,-1.525188 -1.136719,-2.394531 -0.869343,-0.869343 -1.900843,-1.074414 -2.423828,-1.136719 -0.522985,-0.06231 -0.809887,-0.04492 -1.117188,-0.04492 -1.003526,0 -1.790814,0.03793 -2.36914,-0.002 a 3.4853834,3.4853834 0 0 0 -0.02344,-0.002 z m -0.457031,6.955078 c 0.01354,9.34e-4 0.01972,-8.95e-4 0.0332,0 -8.26e-4,-4e-5 -0.009,0.002 -0.0098,0.002 z M 88.90625,89.414062 c -2.440278,8.661477 -7.412177,15.323348 -15.625,20.199218 -2.289175,1.3547 -4.788132,2.07109 -7.40625,2.48633 8.06e-4,-0.69174 0.0057,-1.38535 0,-2.07422 2.431961,-0.70047 4.625132,-1.72814 6.490234,-2.86523 5.357584,-3.2467 10.031013,-7.407222 13.732422,-12.595707 a 3.4853834,3.4853834 0 0 0 0,-0.002 c 1.179099,-1.654325 2.0551,-3.389898 2.808594,-5.148438 z m -24.9375,21.189458 c -5.6e-5,1e-5 -0.0058,0.004 -0.0059,0.004 l -0.01953,0.004 c 0.0092,-0.001 0.01616,-0.006 0.02539,-0.008 z" id="path9"/>
                    <path style="baseline-shift:baseline;display:inline;overflow:visible;opacity:1;vector-effect:none;fill:url(#linearGradient7);stroke:none;stroke-width:6.97007;stroke-linecap:round;stroke-linejoin:round;stroke-dasharray:none;stroke-opacity:1;paint-order:markers stroke fill;enable-background:accumulate;stop-color:#000000;stop-opacity:1" d="m 94.79,65.18 c 0.12,6.71 -0.18,13.41 -1.22,20.05 -1.89,12.01 -8.05,21.17 -18.51,27.38 -3.53,2.09 -7.41,3.18 -11.53,3.38 -0.87,0.04 -1.16,-0.26 -1.14,-1.12 0.04,-2.16 0.03,-4.31 0,-6.47 -0.01,-0.74 0.16,-1.09 1,-1.23 2.61,-0.42 4.94,-1.63 7.17,-2.99 5,-3.03 9.29,-6.86 12.7,-11.64 2.63,-3.69 3.91,-7.92 4.81,-12.29 0.99,-4.79 1.45,-9.64 1.69,-14.52 0.12,-2.49 0.12,-4.97 0.14,-7.45 0,-0.76 0.23,-1.1 1.03,-1.05 0.87,0.06 1.74,0.01 2.61,0.01 1.21,0 1.24,0.01 1.25,1.27 0.02,2.22 0,4.43 0,6.65 z" id="path10"/>
                    <path style="baseline-shift:baseline;display:inline;overflow:visible;opacity:1;vector-effect:none;fill:url(#Sfumatura_senza_nome_73-2);stroke:none;stroke-width:6.97007;stroke-linecap:round;stroke-linejoin:round;stroke-dasharray:none;stroke-opacity:1;paint-order:markers stroke fill;enable-background:accumulate;stop-color:#000000;stop-opacity:1" d="m 105.22,65.17 c 0,-2.25 0.01,-4.49 0,-6.74 0,-0.84 0.25,-1.27 1.2,-1.19 0.89,0.08 1.8,0.05 2.69,0 0.73,-0.04 1.01,0.23 1,0.98 -0.04,2.96 0,5.93 0.2,8.89 0.39,5.95 1.07,11.85 2.73,17.62 1.46,5.07 4.31,9.25 8.02,12.9 3.77,3.7 7.95,6.82 12.9,8.81 0.92,0.37 1.86,0.68 2.85,0.79 0.56,0.06 0.8,0.28 0.8,0.84 -0.01,2.37 -0.02,4.73 0,7.1 0,0.7 -0.36,0.85 -0.96,0.83 -3.87,-0.13 -7.55,-1.09 -10.91,-2.96 -10.59,-5.91 -16.99,-14.88 -19.12,-26.83 -1.24,-6.95 -1.5,-13.98 -1.39,-21.02 z" id="path15"/>
                    <path style="baseline-shift:baseline;display:inline;overflow:visible;vector-effect:none;fill:url(#linearGradient35);stroke:none;enable-background:accumulate;stop-color:#000000;stop-opacity:1" d="m 95.81,86.65 c 0,-9.38 0,-18.76 0,-28.13 0,-1.25 0,-1.26 1.22,-1.26 1.98,0 3.95,0 5.93,0 1.22,0 1.23,0 1.23,1.26 0,16.24 0,32.48 0,48.72 0,2.58 -0.03,5.15 0.02,7.73 0.02,0.88 -0.21,1.23 -1.15,1.2 -2.04,-0.06 -4.08,-0.06 -6.11,0 -0.94,0.03 -1.16,-0.32 -1.15,-1.2 0.03,-9.44 0.02,-18.88 0.02,-28.31 z" id="path17"/>
                </g>
            </g>
        </g>
    </g>
</svg>
