<?xml version='1.0' encoding='utf-8'?>
<svg xmlns:xlink="http://www.w3.org/1999/xlink" xmlns="http://www.w3.org/2000/svg" height="120.04332997393091" viewBox="0 0 505.11274 101.05961" width="600" version="1.1" id="svg11">
    <defs id="defs11"/>
    <linearGradient id="a">
        <stop offset="0" stop-color="#f36917" id="stop1"/>
        <stop offset=".5" stop-color="#c24a13" id="stop2"/>
        <stop offset="1" stop-color="#682c19" id="stop3"/>
    </linearGradient>
    <linearGradient id="c" gradientTransform="matrix(0,-177.22168,177.22168,0,220.334,-349.89)" gradientUnits="userSpaceOnUse" spreadMethod="pad" x1="0" x2="1" xlink:href="#a" y1="0" y2="0"/>
    <linearGradient id="b">
        <stop offset="0" stop-color="#f0f9e8" id="stop4"/>
        <stop offset=".511" stop-color="#599b77" id="stop5"/>
        <stop offset="1" stop-color="#458055" id="stop6"/>
    </linearGradient>
    <linearGradient id="d" gradientTransform="matrix(-0.1483316,106.23462,-106.23462,-0.1483316,270.95731,-507.15212)" gradientUnits="userSpaceOnUse" spreadMethod="pad" x1="0" x2="1" xlink:href="#b" y1="0" y2="0"/>
    <linearGradient id="e" gradientTransform="matrix(0,-91.23962,91.23962,0,305.833,-398.549)" gradientUnits="userSpaceOnUse" spreadMethod="pad" x1="0" x2="1" xlink:href="#a" y1="0" y2="0"/>
    <linearGradient id="f" gradientTransform="matrix(0,104.76566,-104.76566,0,336.416,-506.85)" gradientUnits="userSpaceOnUse" spreadMethod="pad" x1="0" x2="1" xlink:href="#b" y1="0" y2="0"/>
    <linearGradient id="g" gradientTransform="matrix(0,-77.85007,77.85007,0,373.666,-412.034)" gradientUnits="userSpaceOnUse" spreadMethod="pad" x1="0" x2="1" xlink:href="#a" y1="0" y2="0"/>
    <g id="g23">
        <g stroke-width=".683" id="g10" style="stroke:#ffffff;stroke-width:9.52505;stroke-linecap:round;stroke-linejoin:round;stroke-dasharray:none;stroke-opacity:1;paint-order:markers stroke fill" transform="translate(4.761039,4.7614935)">
            <g id="path10" style="opacity:1" transform="matrix(0.5165,0,0,0.5165,-96.93,272.254)">
                <path style="baseline-shift:baseline;display:inline;overflow:visible;opacity:1;vector-effect:none;fill:#ffffff;stroke:none;stroke-width:9.52505;stroke-linecap:round;stroke-linejoin:round;stroke-dasharray:none;stroke-opacity:1;paint-order:markers stroke fill;enable-background:accumulate;stop-color:#000000;stop-opacity:1" d="m 230.5,-536.33203 a 9.2216824,9.2216824 0 0 0 -8.94336,11.46289 l 36.83398,146.89062 a 9.2216824,9.2216824 0 0 0 8.94336,6.97657 h 44 a 9.2216824,9.2216824 0 0 0 8.9375,-11.49219 L 282.9375,-529.38281 A 9.2216824,9.2216824 0 0 0 274,-536.33203 Z m 11.81836,18.44141 h 24.51172 l 32.64648,128.44726 h -24.94922 z" id="path14" transform="translate(-1.4830783e-6)"/>
                <path style="baseline-shift:baseline;display:inline;overflow:visible;opacity:1;vector-effect:none;fill:#ffffff;stroke:none;stroke-width:9.52505;stroke-linecap:round;stroke-linejoin:round;stroke-dasharray:none;stroke-opacity:1;paint-order:markers stroke fill;enable-background:accumulate;stop-color:#000000;stop-opacity:1" d="m 353.66797,-501.44336 a 9.2216824,9.2216824 0 0 0 -8.71875,6.21484 l -3.33203,9.66797 a 9.2216824,9.2216824 0 0 0 -0.20313,5.3418 l 22.16602,84.55664 a 9.2216824,9.2216824 0 0 0 17.84375,-0.0176 l 24.5,-94.22265 A 9.2216824,9.2216824 0 0 0 397,-501.44336 Z m 6.57422,18.44141 h 24.83203 l -12.61133,48.5 -12.50195,-47.68946 z" id="path20" transform="translate(-1.4830783e-6)"/>
                <path style="baseline-shift:baseline;display:inline;overflow:visible;opacity:1;vector-effect:none;fill:#ffffff;stroke:none;stroke-width:9.52505;stroke-linecap:round;stroke-linejoin:round;stroke-dasharray:none;stroke-opacity:1;paint-order:markers stroke fill;enable-background:accumulate;stop-color:#000000;stop-opacity:1" d="m 300.33203,-518.88867 a 9.2216824,9.2216824 0 0 0 -8.92969,11.51953 l 28.73438,111.66602 a 9.2216824,9.2216824 0 0 0 8.92969,6.92382 H 372.5 a 9.2216824,9.2216824 0 0 0 8.91992,-11.55664 l -29.23047,-111.66601 a 9.2216824,9.2216824 0 0 0 -8.91992,-6.88672 z m 11.89453,18.44336 h 23.92578 l 24.40235,93.22265 h -24.33985 z" id="path18" transform="translate(-1.4830783e-6)"/>
                <path style="baseline-shift:baseline;display:inline;overflow:visible;opacity:1;vector-effect:none;fill:#ffffff;stroke:none;stroke-width:9.52505;stroke-linecap:round;stroke-linejoin:round;stroke-dasharray:none;stroke-opacity:1;paint-order:markers stroke fill;enable-background:accumulate;stop-color:#000000;stop-opacity:1" d="m 234.42969,-535.45117 a 9.2216824,9.2216824 0 0 0 -12.89063,6.16992 l -42.83398,176.88672 a 9.2216824,9.2216824 0 0 0 8.89258,11.39062 l 44,0.33399 a 9.2216824,9.2216824 0 0 0 9.02343,-7.01563 l 21.33203,-86.66797 a 9.2216824,9.2216824 0 0 0 -0.004,-4.42773 l -22.5,-90.55469 a 9.2216824,9.2216824 0 0 0 -5.01953,-6.11523 z m -3.81446,47.04101 12.88672,51.86329 -19.04687,77.38085 -25.08985,-0.1914 z" id="path12" transform="translate(-1.4830783e-6)"/>
                <path style="baseline-shift:baseline;display:inline;overflow:visible;opacity:1;vector-effect:none;fill:url(#c);stroke:none;stroke-width:9.52505;stroke-linecap:round;stroke-linejoin:round;stroke-dasharray:none;stroke-opacity:1;paint-order:markers stroke fill;enable-background:accumulate;stop-color:#000000;stop-opacity:1" d="m 187.667,-350.224 42.833,-176.888 22.5,90.555 -21.333,86.667 z" id="path13" transform="translate(-1.4830783e-6)"/>
                <path style="baseline-shift:baseline;display:inline;overflow:visible;opacity:1;vector-effect:none;fill:#ffffff;stroke:none;stroke-width:9.52505;stroke-linecap:round;stroke-linejoin:round;stroke-dasharray:none;stroke-opacity:1;paint-order:markers stroke fill;enable-background:accumulate;stop-color:#000000;stop-opacity:1" d="m 296.41797,-518.01367 a 9.2216824,9.2216824 0 0 0 -5.01172,6.0332 l -11,42.44727 a 9.2216824,9.2216824 0 0 0 -0.0117,4.57226 l 22,87 a 9.2216824,9.2216824 0 0 0 17.88477,-0.0234 l 11,-44 a 9.2216824,9.2216824 0 0 0 -0.0156,-4.53516 l -22.00195,-85.44727 a 9.2216824,9.2216824 0 0 0 -12.84375,-6.04687 z m 3.88476,45.2168 12.51758,48.60937 -1.53711,6.15234 -12.43164,-49.1582 z" id="path16" transform="translate(-1.4830783e-6)"/>
                <path style="baseline-shift:baseline;display:inline;overflow:visible;opacity:1;vector-effect:none;fill:url(#e);stroke:none;stroke-width:9.52505;stroke-linecap:round;stroke-linejoin:round;stroke-dasharray:none;stroke-opacity:1;paint-order:markers stroke fill;enable-background:accumulate;stop-color:#000000;stop-opacity:1" d="m 300.332,-509.667 22.002,85.446 -11,44 -22.001,-87 z" id="path17" transform="translate(-1.4830783e-6)"/>
                <path style="baseline-shift:baseline;display:inline;overflow:visible;opacity:1;vector-effect:none;fill:url(#d);stroke:none;stroke-width:9.52505;stroke-linecap:round;stroke-linejoin:round;stroke-dasharray:none;stroke-opacity:1;paint-order:markers stroke fill;enable-background:accumulate;stop-color:#000000;stop-opacity:1" d="M 230.5,-527.112 H 274 l 37.334,146.89 h -44 z" id="path15" transform="translate(-1.4830783e-6)"/>
                <path style="baseline-shift:baseline;display:inline;overflow:visible;opacity:1;vector-effect:none;fill:url(#f);stroke:none;stroke-width:9.52505;stroke-linecap:round;stroke-linejoin:round;stroke-dasharray:none;stroke-opacity:1;paint-order:markers stroke fill;enable-background:accumulate;stop-color:#000000;stop-opacity:1" d="m 300.332,-509.667 28.735,111.666 H 372.5 l -29.23,-111.666 z" id="path19" transform="translate(-1.4830783e-6)"/>
                <path style="baseline-shift:baseline;display:inline;overflow:visible;vector-effect:none;fill:url(#g);stroke:none;enable-background:accumulate;stop-color:#000000;stop-opacity:1" d="m 397,-492.223 -24.5,94.222 -22.166,-84.555 3.333,-9.667 z" id="path21"/>
            </g>
        </g>
    </g>
    <g id="g24">
        <g fill="#242021" stroke-width=".296" id="g11" style="stroke:#ffffff;stroke-width:9.52505;stroke-linecap:round;stroke-linejoin:round;stroke-dasharray:none;stroke-opacity:1;paint-order:markers stroke fill" transform="translate(4.761039,4.7614935)">
            <g id="path11" style="opacity:1">
                <path style="baseline-shift:baseline;display:inline;overflow:visible;vector-effect:none;fill:#ffffff;stroke:none;enable-background:accumulate;stop-color:#000000;stop-opacity:1" d="m 295.79297,20.267578 c -1.59781,-0.04114 -4.60509,-0.03848 -10.84766,0.109375 a 4.7630013,4.7630013 0 0 0 -3.63867,2.875 c -0.071,-0.0948 -0.0298,-0.06252 -0.12305,-0.177734 -0.56091,-0.69326 -1.6443,-1.528603 -2.61914,-1.921875 -1.94968,-0.786545 -3.37887,-0.761859 -6.05664,-0.841797 -5.35553,-0.159877 -15.6098,-0.006 -37.51562,0.06641 a 4.7630013,4.7630013 0 0 0 -4.5918,3.550781 c -0.0827,0.314524 -0.0768,0.259547 -0.1582,0.56836 -0.0714,-0.136874 -0.14625,-0.390591 -0.21094,-0.488282 a 4.7630013,4.7630013 0 0 0 -0.002,0 c -0.21847,-0.329632 -1.48671,-2.056937 -3.14258,-2.75 -1.65587,-0.693062 -2.882,-0.711832 -4.76172,-0.794921 -3.75945,-0.16618 -10.34831,-0.08394 -24.06055,-0.08594 a 4.7630013,4.7630013 0 0 0 -1.74414,1.324219 4.7630013,4.7630013 0 0 0 -2.62695,-1.324219 h -34.95508 a 4.7630013,4.7630013 0 0 0 -4.46875,3.115234 l -0.004,0.01172 c -0.58357,-0.727245 -1.36619,-1.554418 -2.41406,-2.050781 -1.5092,-0.714891 -2.79525,-0.843819 -4.43164,-0.964844 -3.27277,-0.242049 -8.35526,-0.184837 -18.3125,-0.111328 a 4.7630013,4.7630013 0 0 0 -4.54492,3.460938 c -4.86898,17.144263 -7.30648,25.987543 -8.53516,30.578125 -0.61433,2.29529 -0.92613,3.522117 -1.0957,4.228515 -0.0848,0.353199 -0.13454,0.572198 -0.17383,0.769531 -0.0196,0.09867 -0.0371,0.190793 -0.0566,0.322266 -0.0195,0.131474 -0.0527,0.710938 -0.0527,0.710938 a 4.7630013,4.7630013 0 0 0 4.76172,4.771484 h 12.11718 a 4.7630013,4.7630013 0 0 0 4.57032,-3.419922 l 1.57617,-5.371094 h 1.85937 l 0.57422,4.617188 a 4.7630013,4.7630013 0 0 0 4.72656,4.173828 h 12.31446 a 4.7630013,4.7630013 0 0 0 3.77734,-2.197266 c 0.48472,0.484408 1.0469,0.952669 1.71875,1.296875 1.18629,0.607766 2.31091,0.771689 3.26367,0.845703 1.90554,0.14803 3.73063,0.01519 7.11328,0.02734 a 4.7630013,4.7630013 0 0 0 4.60743,-3.49414 c 3.97781,-14.388636 5.96391,-21.59584 6.95703,-25.208985 0.0187,-0.06785 0.0153,-0.0538 0.0332,-0.11914 h 5.34375 c -1.48067,5.193307 -3.64175,12.73916 -4.28711,15.257812 -0.58719,2.291661 -0.94514,3.727124 -0.95312,5.458984 -0.008,1.731861 1.07701,4.033884 1.80273,4.863282 0.20437,0.233627 1.34292,1.550803 2.85156,2.193359 1.50864,0.642556 2.81071,0.763999 4.71289,0.890625 3.80436,0.253252 10.34383,0.242823 23.86524,0.15625 a 4.7630013,4.7630013 0 0 0 3.42187,-2.607422 c 0.31795,0.597336 0.67273,1.194979 1.06055,1.515625 a 4.7630013,4.7630013 0 0 0 3.03516,1.09375 h 11.51953 a 4.7630013,4.7630013 0 0 0 1.56445,-1.193359 4.7630013,4.7630013 0 0 0 2.4082,1.193359 h 12.31446 a 4.7630013,4.7630013 0 0 0 1.64843,-1.273437 c 0.31863,0.281812 0.63649,0.564314 0.63672,0.564453 4.5e-4,2.75e-4 0.51871,0.279194 0.6875,0.347656 0.33758,0.136924 0.51109,0.174909 0.64844,0.208984 0.54939,0.136303 0.57926,0.108652 0.67773,0.119141 0.19695,0.02098 0.28907,0.02344 0.28907,0.02344 a 4.7630013,4.7630013 0 0 0 2.74609,-0.822266 c -0.17894,0.130039 -0.40058,0.291115 -0.40039,0.291016 5.7e-4,-2.94e-4 -0.4791,0.214529 -0.63477,0.267578 -1.24534,0.424389 -1.01286,0.225719 -1.0957,0.232422 -0.0828,0.0067 -0.0843,0.0049 -0.0586,0.0039 0.0515,-0.002 0.22992,-0.0062 0.52344,-0.0098 1.17405,-0.01414 4.23461,-0.01598 11.37304,0.04492 a 4.7630013,4.7630013 0 0 0 3.56055,-1.923828 c 0.32812,0.307535 0.61389,0.694613 0.97656,0.888672 1.41119,0.75511 2.47054,0.819823 3.5,0.90039 2.05892,0.161135 4.4427,0.07479 8.61719,0.134766 a 4.7630013,4.7630013 0 0 0 2.85351,-2.117187 c 0.0797,0.0923 0.81042,0.939336 0.81055,0.939453 9e-5,7.6e-5 0.21559,0.159082 0.4082,0.300781 0.11887,0.08744 0.25188,0.185499 0.25196,0.185547 4.1e-4,2.53e-4 0.61545,0.320583 0.80664,0.392578 0.19118,0.072 0.32773,0.110453 0.43945,0.140625 0.89375,0.241374 0.81498,0.149924 0.95117,0.160156 0.13619,0.01023 0.23796,0.01475 0.36133,0.01953 0.49347,0.01913 1.31879,0.03374 3.21289,0.04492 3.78822,0.02236 11.73837,0.02214 28.5293,-0.06641 a 4.7630013,4.7630013 0 0 0 3.00781,-2.308594 c 0.43618,0.460742 0.9383,1.006151 1.64063,1.357422 0.9101,0.455189 1.71015,0.615596 2.46679,0.72461 1.51328,0.218027 3.15768,0.244628 6.09571,0.265625 5.87605,0.04199 16.68788,-0.0707 37.5957,-0.0098 a 4.7630013,4.7630013 0 0 0 3.06641,-1.205078 4.7630013,4.7630013 0 0 0 2.90625,1.205078 h 12.11523 a 4.7630013,4.7630013 0 0 0 4.57031,-3.419922 l 1.57617,-5.371094 h 1.86133 l 0.57422,4.617188 a 4.7630013,4.7630013 0 0 0 4.72656,4.173828 h 12.3125 a 4.7630013,4.7630013 0 0 0 3.58204,-1.666016 c 0.65021,0.456621 1.50299,0.988274 2.31445,1.189453 1.21565,0.301388 2.17578,0.333452 3.7793,0.386719 3.20704,0.106535 8.89869,0.08789 20.36523,0.08789 a 4.7630013,4.7630013 0 0 0 3.73828,-2.248047 c 0.34484,0.397674 0.98817,1.036308 1.74414,1.421875 0.81705,0.416719 1.52618,0.565038 2.13672,0.658203 1.22109,0.18633 2.35596,0.197179 4.36719,0.212891 4.02245,0.03142 11.32492,-0.05683 25.50781,-0.07031 a 4.7630013,4.7630013 0 0 0 4.70117,-4.03125 c 0.66521,-4.273853 0.83789,-6.623047 0.83789,-6.623047 a 4.7630013,4.7630013 0 0 0 -4.75,-5.101562 h -12.30078 l 0.1875,-0.789063 12.30664,-0.113281 a 4.7630013,4.7630013 0 0 0 4.59571,-3.6875 l 1.43945,-6.203125 a 4.7630013,4.7630013 0 0 0 -0.69141,-3.068359 h 0.42383 a 4.7630013,4.7630013 0 0 0 4.66016,-3.785157 l 1.1914,-5.671875 a 4.7630013,4.7630013 0 0 0 -8.02929,-4.345703 l 3.35742,-1.394531 c 0,0 -1.32908,0.003 -30.17774,0 a 4.7630013,4.7630013 0 0 0 -3.25781,1.513672 4.7630013,4.7630013 0 0 0 -3.09961,-1.513672 h -12.31445 a 4.7630013,4.7630013 0 0 0 -4.63086,3.648438 l -2.82617,11.751953 -1.32032,-11.195313 a 4.7630013,4.7630013 0 0 0 -4.5,-4.199219 c 0,0 -3.32447,-0.14642 -12.93359,-0.0039 a 4.7630013,4.7630013 0 0 0 -0.006,-0.002 v 0.002 c -0.0537,7.98e-4 -0.0181,-8.16e-4 -0.0723,0 a 4.7630013,4.7630013 0 0 0 -3.91797,2.359375 c -0.49799,-0.483688 -1.05348,-0.976499 -1.70508,-1.285156 -1.5092,-0.714891 -2.7933,-0.843819 -4.42969,-0.964844 -3.27277,-0.242049 -8.35526,-0.184837 -18.3125,-0.111328 a 4.7630013,4.7630013 0 0 0 -2.53711,1.931641 4.7630013,4.7630013 0 0 0 -3.7832,-1.931641 H 373.44141 A 4.7630013,4.7630013 0 0 0 371.7168,21.6875 4.7630013,4.7630013 0 0 0 369.07031,20.376953 H 357.1543 a 4.7630013,4.7630013 0 0 0 -1.72657,1.310547 4.7630013,4.7630013 0 0 0 -2.64257,-1.310547 h -12.41407 a 4.7630013,4.7630013 0 0 0 -2.73242,1.826172 4.7630013,4.7630013 0 0 0 -3.82226,-1.826172 c 0,0 -4.67175,0.09995 -31.26368,0 a 4.7630013,4.7630013 0 0 0 -2.05468,1.578125 c -0.0353,-0.04305 -0.0604,-0.09436 -0.0898,-0.125 -0.25993,-0.270463 -0.49841,-0.458716 -0.70508,-0.603516 -1.65333,-1.158392 -1.79637,-0.784893 -2.11132,-0.833984 -0.6299,-0.09818 -0.99992,-0.104431 -1.79883,-0.125 z m -1.24414,0.771484 a 4.7630013,4.7630013 0 0 0 -2.17188,3.083985 c 0.009,-0.09575 0.0293,-0.326265 0.0293,-0.326172 -1.5e-4,5.2e-4 0.6116,-1.307041 0.61133,-1.306641 -2.7e-4,4.01e-4 0.63309,-0.761992 0.63281,-0.761718 -5.6e-4,5.47e-4 0.89844,-0.689454 0.89844,-0.689454 z m -139.74219,3.109375 0.15039,0.240235 c -0.0181,-0.03094 -0.0838,-0.101963 -0.10547,-0.136719 -0.017,-0.0265 -0.0279,-0.07799 -0.0449,-0.103516 z m 262.9668,0 0.15039,0.240235 c -0.0181,-0.03094 -0.0838,-0.101963 -0.10547,-0.136719 -0.017,-0.02648 -0.0279,-0.078 -0.0449,-0.103516 z m -122.1211,5.642579 c 0.40644,0.01957 0.74763,0.05458 0.47266,0.01172 -0.0882,-0.01375 -0.19232,0.05476 -0.47266,-0.01172 z m -23.42968,0.04102 c 0.83743,0.025 0.4867,7.13e-4 0.97265,0.05273 -0.0903,0.511183 -0.0519,0.468588 -0.24023,1.308593 -0.80152,3.574164 -3.09196,12.318315 -6.28516,24.457032 -1.03201,-0.0058 -1.76426,-0.0079 -2.50781,-0.0098 l 5.76953,-24.533203 a 4.7630013,4.7630013 0 0 0 -0.2832,-1.271485 c 0.3876,0.0073 2.24302,-0.01379 2.57422,-0.0039 z m 18.49609,0.0098 c -0.2443,0.973735 -1.52997,5.703148 -7.26563,25.77539 -0.57453,-0.0038 -1.19631,-0.016 -1.63281,-0.02148 0.0803,-0.308444 0.0536,-0.247192 0.15235,-0.615234 0.97666,-3.640473 3.39837,-12.493012 6.74804,-25.119141 0.79809,-0.01116 1.38903,-0.01553 1.99805,-0.01953 z m -34.37695,0.01953 -6.74024,25.804688 h -2.39062 l 6.68945,-24.388672 a 4.7630013,4.7630013 0 0 0 -0.27344,-1.410157 c 0.86973,-0.0038 1.93423,-0.0033 2.71485,-0.0059 z m -15.91211,0.03125 -7.06836,25.773438 h -1.89453 c 1.24378,-4.164003 3.77997,-13.107261 7.16211,-25.769532 0.95707,-0.004 0.89415,1.92e-4 1.80078,-0.0039 z m 188.55859,0.0059 3.03125,25.716797 c -0.32243,-0.0071 -1.64907,9.91e-4 -1.91406,-0.0078 -0.21955,-0.0073 -0.10298,-0.0074 -0.28516,-0.01758 -0.12431,-0.547693 -0.19566,-0.747318 -0.4082,-2 -0.57824,-3.407994 -1.85808,-12.588247 -3.40234,-23.689453 1.06085,0.0055 2.44514,-0.01302 2.97851,-0.002 z m -255.51172,0.0039 h 3.49414 a 4.7630013,4.7630013 0 0 0 -0.29883,1.246093 c -0.0697,-0.0074 -0.42578,-0.04492 -0.42578,-0.04492 0,0 0.0606,-0.400457 0.0605,-0.400391 -2e-5,1.32e-4 0.0301,-0.139455 0.0371,-0.169922 0.0141,-0.06093 0.0182,-0.07673 0.0215,-0.08984 -0.0107,0.04045 -0.0414,0.149643 -0.10156,0.371094 -0.12093,0.445072 -0.36601,1.348338 -0.86133,3.150391 -0.8534,3.104824 -3.02477,10.964713 -5.99218,21.703125 -0.41296,0.0028 -1.08056,0.0019 -1.35938,0 0.0336,-0.351787 -0.0115,-0.240431 0.11328,-0.904297 0.5884,-3.131221 2.31169,-9.567105 5.87305,-21.830078 a 4.7630013,4.7630013 0 0 0 -0.56055,-3.03125 z m 132.6875,0 c 2.41686,0.0064 1.53633,-0.0027 3.49024,0 -0.44035,1.067576 -1.0359,2.739378 -2.13086,6.240234 a 4.7630013,4.7630013 0 0 0 0.45117,2.683594 c -1.19399,0.01842 -3.54946,0.03339 -4.27539,0.03125 0.46435,-1.634951 1.42346,-5.124343 2.46484,-8.955078 z m 37.80078,0 h 2.55274 l -6.86133,24.658203 a 4.7630013,4.7630013 0 0 0 0.21875,1.142578 c -0.15783,-8.68e-4 -0.84576,0.0011 -0.99609,0 -1.32948,-0.0095 -1.47006,-0.04828 -2.25391,-0.07813 0.0247,-0.106573 0.004,-0.03712 0.0312,-0.150391 0.85168,-3.510352 3.48248,-12.5343 7.30859,-25.572265 z m 16.8086,0 h 2.03906 l -6.87305,24.865234 a 4.7630013,4.7630013 0 0 0 0.17969,0.931641 c -0.77303,0.002 -1.81621,-0.0019 -2.52344,0 z m 16.29297,0 h 2.51171 c -0.4112,1.411723 -1.78988,6.413783 -6.82421,25.792968 -1.42832,-0.0023 -1.4956,0.0028 -2.81836,0.002 z m 73.41601,0 h 2.45313 c -2.80193,11.167189 -2.50367,10.046886 -6.48633,25.77539 -1.02172,-8.1e-5 -1.25977,-0.0093 -2.16406,-0.0098 z m 18.62891,0 c 1.58508,1.17e-4 0.77601,-7.2e-5 2.1289,0 l -1.70507,6.443359 a 4.7630013,4.7630013 0 0 0 0.72656,3.611328 4.7630013,4.7630013 0 0 0 -2.3457,2.865235 l -2.43165,10.279296 a 4.7630013,4.7630013 0 0 0 0.58204,2.625 c -0.67848,1.95e-4 -2.94594,0.0114 -3.47852,0.0078 0.85048,-3.685435 3.18017,-12.764995 6.52344,-25.832031 z m -267.44141,0.01172 c 0.88386,-8.45e-4 0.97338,0.0069 1.78516,0.0059 a 4.7630013,4.7630013 0 0 0 -0.0566,0.04297 l -6.35547,23.435546 a 4.7630013,4.7630013 0 0 0 0.42187,2.146485 c -0.46317,-0.01879 -2.38708,0.008 -2.74218,-0.01563 -0.12723,-0.0085 -0.0238,-0.0039 -0.13672,-0.01367 0.0986,-0.53135 0.0614,-0.520568 0.31836,-1.523438 0.9246,-3.608482 3.43361,-12.22415 6.76562,-24.078125 z m -68.91601,0.0059 c 0.49217,-0.0026 0.60386,0.0078 1.06445,0.0059 l -3.47461,13.150391 a 4.7630013,4.7630013 0 0 0 2.36328,4.876953 4.7630013,4.7630013 0 0 0 -3.16797,2.371094 l -1.57617,5.371093 h -2.4043 c 1.1026,-4.101732 3.53591,-12.842357 7.19532,-25.77539 z m 262.96679,0 c 0.49223,-0.0026 0.60381,0.0078 1.06446,0.0059 l -3.47461,13.152344 a 4.7630013,4.7630013 0 0 0 2.36328,4.875 4.7630013,4.7630013 0 0 0 -3.16797,2.371094 l -1.57617,5.371093 h -2.4043 c 1.10247,-4.101608 3.53559,-12.842394 7.19531,-25.77539 z m -177.26172,0.04883 c 0.51579,0.01075 2.534,-0.0084 2.92774,0.0078 -0.10298,0.532841 -0.065,0.525037 -0.29492,1.441407 -0.90611,3.61154 -3.39258,12.254811 -6.77539,24.226562 -0.8205,0.0037 -0.90147,-0.01218 -1.65821,-0.0098 l 6.28907,-23.179688 a 4.7630013,4.7630013 0 0 0 -0.48829,-2.486328 z m -71.86914,0.01953 c 0.0172,0.0012 0.11003,-0.0013 0.12696,0 0.25717,0.01902 0.055,-0.0088 0.23242,0.01563 0.15808,0.656174 0.3715,1.646875 0.72461,3.595703 0.63409,3.499574 2.10475,12.141916 3.81836,22.095703 h -2.45117 l -0.57422,-4.617187 a 4.7630013,4.7630013 0 0 0 -2.38868,-3.289063 4.7630013,4.7630013 0 0 0 1.85547,-3.876953 l -1.07422,-13.36914 a 4.7630013,4.7630013 0 0 0 -0.26953,-0.554688 z m 262.96875,0 c 0.0172,0.0012 0.11003,-0.0013 0.12696,0 0.25501,0.01886 0.0539,-0.0086 0.23047,0.01563 0.15806,0.656468 0.3717,1.647711 0.7246,3.595703 0.63402,3.499706 2.10644,12.141812 3.82032,22.095703 h -2.45117 l -0.57422,-4.617187 a 4.7630013,4.7630013 0 0 0 -2.38868,-3.289063 4.7630013,4.7630013 0 0 0 1.85352,-3.876953 l -1.07227,-13.36914 a 4.7630013,4.7630013 0 0 0 -0.26953,-0.554688 z m -99.19531,3.414063 a 4.7630013,4.7630013 0 0 0 3.64649,2.048828 l 0.17382,0.236328 c -0.26265,-0.02258 -0.5961,-0.045 -0.5957,-0.04492 6.8e-4,1.25e-4 -0.98294,-0.293185 -0.98242,-0.292969 0.001,4.33e-4 -1.47703,-0.978965 -1.47656,-0.978515 4.6e-4,4.5e-4 -0.76563,-0.96875 -0.76563,-0.96875 z m -152.54687,2.949218 c 0.24098,0.01062 3.72877,-0.0042 5.44336,0.0078 -1.44617,5.108182 -2.67664,9.613276 -3.3086,12.355469 -0.77331,-4.507723 -1.68489,-9.798879 -2.13476,-12.363282 z m 163.55078,6.056641 c 1.10358,0.01604 3.46199,0.0079 4.10937,0.03516 -0.47938,2.07015 -1.87882,7.124602 -3.55664,13.228516 -1.66074,0.0076 -1.78047,0.0022 -3.23437,0.0078 a 4.7630013,4.7630013 0 0 0 0.59765,-1.017578 c 0,0 0.17682,-1.008013 2.55078,-9.912109 a 4.7630013,4.7630013 0 0 0 -0.46679,-2.341797 z m -25.44922,4.037109 c 0.4657,0.424321 0.94454,0.861788 1.5625,1.146485 1.59315,0.733977 2.85983,0.758943 4.2793,0.798828 1.71376,0.04815 5.99999,-0.01708 9.33203,-0.06445 -0.0397,0.163572 -0.14881,0.569617 -0.17969,0.699219 h -15.22852 a 4.7630013,4.7630013 0 0 0 -0.62109,0.470703 c 0.37062,-1.320478 0.56866,-2.019901 0.85547,-3.050782 z m 2.41211,15.337891 c -3.8e-4,0.0054 -0.006,0.07813 -0.006,0.07813 3e-5,-1.11e-4 -0.80087,1.513779 -0.80078,1.513672 8e-5,-1.07e-4 -0.76966,0.775494 -0.76953,0.775391 2.6e-4,-2.07e-4 -0.97503,0.603706 -0.97461,0.603515 3.7e-4,-1.72e-4 -0.20705,0.07113 -0.36914,0.13086 a 4.7630013,4.7630013 0 0 0 2.91992,-3.101563 z m -35.92774,0.3125 c -0.0781,0.258002 -0.17971,0.591843 -0.17968,0.591797 7e-5,-1.44e-4 -0.82241,1.099754 -0.82227,1.099609 5e-5,-5e-5 -0.14664,0.105986 -0.20508,0.148438 a 4.7630013,4.7630013 0 0 0 1.20703,-1.839844 z m 31.33399,2.591797 a 4.7630013,4.7630013 0 0 0 1.60156,0.222656 c -0.1715,0.06248 -0.30172,0.114102 -0.375,0.132813 -0.63814,0.162932 -0.69727,0.123047 -0.69727,0.123047 z" id="path22"/>
                <path style="baseline-shift:baseline;display:inline;overflow:visible;vector-effect:none;stroke:none;enable-background:accumulate;stop-color:#000000;stop-opacity:1" d="m 163.892,59.212 c -1.38,-1.984 -1.568,-3.024 5.571,-27.606 -12.016,0.099 -13.108,0 -13.108,0 l 2.383,-6.467 h 34.956 l -1.986,6.467 h -10.725 c 0,0 0.01,0.047 -7.945,28.822 -6.96,-0.025 -8.022,0.398 -9.146,-1.216 z m 44.102,-28.002 -6.355,23.435 h 6.355 l 6.356,-23.436 z m 18.066,-4.572 c 1.186,1.791 0.595,2.781 -8.135,33.79 -27.02,0.173 -26.425,-0.025 -27.815,-1.614 -1.575,-1.8 -0.596,-2.988 7.954,-33.675 27.458,0.004 26.813,-0.286 27.996,1.499 z m -0.587,33.79 c -0.687,-0.568 0.894,-2.443 9.534,-35.289 43.844,-0.145 41.46,-0.584 42.95,1.65 0.852,1.278 0.736,2.033 -7.597,33.639 -14.3,-0.122 -12.215,0 -12.215,0 l 7.15,-30.41 h -4.071 l -7.945,30.41 h -12.314 l 8.342,-30.41 h -3.973 l -8.341,30.41 z m 50.994,-1.314 c -0.446,-1.639 0,-1.349 8.591,-33.975 12.413,-0.294 11.916,0 11.916,0 0,0 -0.406,2.095 -9.93,35.289 -8.491,-0.122 -10.155,0.234 -10.577,-1.314 z m 17.33,1.314 1.887,-6.64 h 18.918 c 0,0 0.248,-1.327 2.631,-10.265 -17.08,-0.05 -17.537,0.797 -18.868,-1.39 -0.605,-0.997 0.19,-1.799 4.17,-16.994 26.606,0.1 31.382,0 31.382,0 l -1.589,5.672 -17.875,0.15 c 0,0 -0.209,-0.35 -2.384,6.604 17.876,-0.05 17.125,0.093 18.025,0.992 1.34,1.34 0.894,2.086 -4.52,21.87 -33.566,0.177 -31.777,0 -31.777,0 z M 340.372,25.14 c -9.831,33.418 -9.592,33.006 -8.49,34.42 1.042,1.342 2.68,0.775 44.539,0.897 8.342,-32.298 9.334,-35.318 9.334,-35.318 H 373.442 L 364.9,56.036 h -4.37 l 8.54,-30.897 h -11.916 l -8.54,30.698 h -4.37 l 8.541,-30.698 h -12.414 z m 80.142,0 c 4.569,33.072 4.718,33.428 5.76,34.47 0.894,0.895 0.943,0.845 23.883,0.845 8.49,-33.517 0.447,-1.796 8.888,-35.316 H 446.73 l -7.3,30.351 h -2.63 l -3.576,-30.35 c 0,0 -3.029,-0.146 -12.711,0 z m 75.076,0 c 0,0 -1.34,0.003 -30.189,0 -8.69,33.966 -8.69,33.798 -7.945,34.719 0.745,0.921 1.788,0.596 30.19,0.569 0.645,-4.144 0.794,-6.23 0.794,-6.23 h -18.322 l 2.433,-10.278 16.038,-0.15 1.44,-6.205 h -15.89 l 1.788,-6.754 H 494.4 l 1.191,-5.672 z m -94.144,5.783 -3.53,13.37 h 8.238 l -1.073,-13.37 z m 18.67,29.534 h -12.314 l -1.093,-8.791 h -9.634 l -2.58,8.791 h -12.117 c 0,0 0.001,-1.054 9.733,-35.318 19.912,-0.147 20.657,-0.137 21.7,1.65 0.893,1.34 1.049,3.336 6.305,33.668 z m -281.637,-29.534 -3.531,13.37 h 8.238 l -1.073,-13.37 z m 18.669,29.534 h -12.314 l -1.093,-8.791 h -9.633 l -2.58,8.791 H 119.41 c 0,0 0.002,-1.054 9.733,-35.318 19.912,-0.147 20.657,-0.137 21.7,1.65 0.893,1.34 1.05,3.336 6.305,33.668 z" id="path23"/>
            </g>
        </g>
    </g>
</svg>
