<?xml version='1.0' encoding='utf-8'?>
<svg xmlns="http://www.w3.org/2000/svg" height="70.55116422714586" viewBox="0 0 316.54305 37.221038" width="600" version="1.1" id="svg11">
    <defs id="defs11"/>
    <g id="rect1" style="opacity:1">
        <path style="baseline-shift:baseline;display:inline;overflow:visible;vector-effect:none;fill:#ffffff;stroke-linecap:round;stroke-linejoin:round;paint-order:markers stroke fill;enable-background:accumulate;stop-color:#000000;stop-opacity:1" d="M 18.609375,0 C 8.3513161,0 -0.00195313,8.3513161 -0.00195313,18.609375 v 0.002 c 0,10.258059 8.35326923,18.609375 18.61132813,18.609375 H 297.93359 c 10.25806,0 18.61133,-8.351316 18.61133,-18.609375 v -0.002 C 316.54492,8.3513161 308.19165,0 297.93359,0 Z m 0,6 H 297.93359 c 7.03782,0 12.61133,5.571554 12.61133,12.609375 v 0.002 c 0,7.037821 -5.57351,12.609375 -12.61133,12.609375 H 18.609375 C 11.571554,31.220703 6,25.649149 6,18.611328 v -0.002 C 6,11.571554 11.571554,6 18.609375,6 Z" id="path12"/>
        <path style="baseline-shift:baseline;display:inline;overflow:visible;vector-effect:none;fill:#5d594f;stroke-linecap:round;stroke-linejoin:round;paint-order:markers stroke fill;enable-background:accumulate;stop-color:#000000;stop-opacity:1" d="M 18.609023,3.0000191 H 297.93404 c 8.64794,0 15.61,6.9620598 15.61,15.6099999 v 0.001 c 0,8.64794 -6.96206,15.61 -15.61,15.61 H 18.609023 c -8.6479397,0 -15.6099996,-6.96206 -15.6099996,-15.61 v -0.001 c 0,-8.6479401 6.9620599,-15.6099999 15.6099996,-15.6099999 z" id="path13"/>
    </g>
    <path d="m 174.42802,26.45502 h 84.513 v 2.39 h -84.512 z" fill="#009eda" id="path1"/>
    <path d="m 174.42802,21.84702 h 84.513 v 2.39 h -84.512 z" fill="#4bb249" id="path2"/>
    <path d="m 174.42802,17.35202 h 84.513 v 2.39 h -84.512 z" fill="#f1cb29" id="path3"/>
    <path d="m 174.42802,12.98402 h 84.513 v 2.39 h -84.512 z" fill="#da6241" id="path4"/>
    <path d="m 174.42802,8.407019 h 84.513 v 2.39 h -84.512 z" fill="#d12625" id="path5"/>
    <g fill="#ffffff" id="g11" transform="translate(2.9990234,3.000019)">
        <g stroke-width="1.368" id="g8">
            <path d="m 17.584,5.289 c -5.618,0 -10.176,4.557 -10.176,10.175 0,5.618 4.558,10.17 10.176,10.17 1.08,0 2.123,-0.172 3.1,-0.484 v -5.075 c -0.844,0.49 -1.83,0.773 -2.889,0.773 -3.09,0 -5.595,-2.41 -5.595,-5.384 0,-2.973 2.504,-5.384 5.595,-5.384 1.058,0 2.045,0.283 2.889,0.774 V 5.772 a 10.17,10.17 0 0 0 -3.1,-0.483 z" id="path6"/>
            <g stroke-width="1.194" id="g7">
                <path d="m 20.795,10.951 h 8.683 l -3.883,4.045 h -4.8 z m 0,8.909 h 8.683 l -3.883,-4.045 h -4.8 z" id="path7"/>
            </g>
        </g>
        <g stroke-linecap="round" stroke-width="0.265" id="g9">
            <path d="m 269.822,19.594 c -1.838,0 -2.357,-0.411 -2.357,-1.752 0,-1.32 0.497,-1.709 2.443,-1.709 h 4.196 c 1.946,0 2.443,0.39 2.443,1.709 0,1.34 -0.519,1.752 -2.357,1.752 z m -6.899,-2.12 c 0,4.066 1.86,5.493 5.601,5.493 h 6.834 c 3.72,0 5.6,-0.497 5.6,-4.347 v -1.362 c 0,-2.833 -0.82,-4.368 -5.449,-4.368 h -4.476 c -1.882,0 -2.79,0.41 -3.568,1.19 v -1.86 c 0,-1.233 0.692,-1.882 2.335,-1.882 h 4.217 c 1.687,0 2.379,0.368 2.379,1.427 h 4.152 v -1.232 c 0,-1.99 -1.211,-3.569 -5.774,-3.569 h -4.995 c -5.126,0 -6.856,1.384 -6.856,6.142 z m 20.669,2.184 h 12.175 v 3.136 h 4.542 v -3.136 h 2.314 v -3.503 h -2.314 V 7.137 h -5.536 l -11.18,6.79 z M 295.767,10.9 v 5.255 h -8.412 v -0.043 z" id="path8"/>
        </g>
        <g stroke-linecap="round" stroke-width="0.265" id="g10">
            <path d="m 34.288,15.75 c 0,3.594 2.235,3.99 4.354,3.99 h 3.269 c 1.835,0 3.736,-0.643 3.736,-2.901 v -0.742 h -3.102 v 0.198 c 0,0.774 -0.818,0.972 -1.718,0.972 h -1.635 c -1,0 -1.701,-0.33 -1.701,-1.417 v -1.121 c 0,-0.923 0.634,-1.286 1.968,-1.286 h 1.234 c 1.401,0 1.852,0.313 1.852,1.17 h 3.102 v -0.758 c 0,-1.928 -1.45,-2.785 -3.82,-2.785 h -3.602 c -2.335,0 -3.937,0.692 -3.937,3.873 z m 13.019,0.574 c 0,2.77 1.885,3.33 3.52,3.33 h 4.787 c 1.635,0 3.52,-0.56 3.52,-3.33 v -2.01 c 0,-2.77 -1.885,-3.33 -3.52,-3.33 h -4.787 c -1.635,0 -3.52,0.56 -3.52,3.33 z m 3.203,-1.4 c 0,-1.204 0.717,-1.567 2.185,-1.567 h 0.767 c 2.069,0 2.469,0.264 2.469,1.385 v 1.154 c 0,1.12 -0.4,1.384 -2.469,1.384 h -0.767 c -1.468,0 -2.185,-0.363 -2.185,-1.566 z m 10.25,4.461 h 3.203 v -4.433 c 0,-1.302 0.65,-1.632 2.018,-1.632 1.935,0 2.319,0.264 2.319,1.302 v 4.763 h 3.202 v -4.631 c 0,-1.104 0.634,-1.434 2.169,-1.434 1.868,0 2.168,0.395 2.168,1.55 v 4.515 h 3.202 v -4.73 c 0,-2.406 -1.05,-3.807 -3.97,-3.807 h -0.983 c -1.819,0 -2.502,0.445 -3.036,1.961 -0.6,-1.319 -1.635,-1.961 -3.153,-1.961 h -1.217 c -1.568,0 -2.67,0.576 -2.836,1.78 H 63.813 V 10.979 H 60.76 Z m 20.37,0 h 3.202 v -4.433 c 0,-1.302 0.65,-1.632 2.018,-1.632 1.935,0 2.319,0.264 2.319,1.302 v 4.763 h 3.202 v -4.631 c 0,-1.104 0.634,-1.434 2.169,-1.434 1.868,0 2.168,0.395 2.168,1.55 v 4.515 h 3.202 v -4.73 c 0,-2.406 -1.05,-3.807 -3.97,-3.807 h -0.983 c -1.818,0 -2.502,0.445 -3.036,1.961 -0.6,-1.319 -1.635,-1.961 -3.153,-1.961 h -1.217 c -1.568,0 -2.669,0.576 -2.836,1.78 h -0.033 v -1.649 h -3.053 z m 37.084,-4.697 c 0,-0.94 0.15,-1.467 1.685,-1.467 h 1.885 c 1.268,0 1.935,0.28 1.935,1.55 v 0.823 c 0,1.27 -0.667,1.55 -1.935,1.55 h -1.885 c -1.534,0 -1.685,-0.528 -1.685,-1.467 z m -3.102,1.253 c 0,2.142 0.5,3.576 4.554,3.576 h 0.934 c 1.934,0 2.735,-0.643 3.085,-1.681 h 0.034 v 1.55 h 3.002 V 7.451 h -3.202 v 5.077 h -0.034 c -0.2,-1.319 -1.551,-1.681 -2.869,-1.681 h -0.95 c -4.054,0 -4.554,1.434 -4.554,3.576 z m -13.869,0.383 c 0,2.77 1.885,3.33 3.52,3.33 h 4.786 c 1.635,0 3.52,-0.56 3.52,-3.33 v -2.01 c 0,-2.77 -1.885,-3.33 -3.52,-3.33 h -4.787 c -1.634,0 -3.52,0.56 -3.52,3.33 z m 3.202,-1.4 c 0,-1.204 0.717,-1.567 2.185,-1.567 h 0.768 c 2.068,0 2.468,0.264 2.468,1.385 v 1.154 c 0,1.12 -0.4,1.384 -2.468,1.384 h -0.768 c -1.468,0 -2.185,-0.363 -2.185,-1.566 z m 24.099,1.4 c 0,2.77 1.885,3.33 3.52,3.33 h 4.786 c 1.635,0 3.52,-0.56 3.52,-3.33 v -2.01 c 0,-2.77 -1.885,-3.33 -3.52,-3.33 h -4.787 c -1.634,0 -3.52,0.56 -3.52,3.33 z m 3.202,-1.4 c 0,-1.204 0.718,-1.567 2.185,-1.567 h 0.768 c 2.068,0 2.468,0.264 2.468,1.385 v 1.154 c 0,1.12 -0.4,1.384 -2.468,1.384 h -0.768 c -1.467,0 -2.185,-0.363 -2.185,-1.566 z m 10.376,4.598 h 3.203 v -4.648 c 0,-1.006 0.767,-1.418 1.868,-1.418 1.284,0 1.535,0.511 1.535,1.582 h 2.768 c 0.017,-0.296 0.034,-0.527 0.034,-0.741 0,-2.324 -0.918,-3.313 -3.253,-3.313 -1.45,0 -2.752,0.395 -3.119,1.73 h -0.033 v -1.598 h -3.003 z M 152.7,15.665 c 0,3.593 2.234,3.988 4.353,3.988 h 2.401 c 2.319,0 4.22,-0.461 4.22,-2.57 V 16.72 h -3.002 c 0,0.494 -0.083,0.956 -1.818,0.956 h -0.984 c -1.335,0 -1.968,-0.248 -1.968,-1.138 v -0.51 h 7.772 V 14.61 c 0,-2.917 -1.4,-3.626 -4.803,-3.626 h -2.235 c -2.336,0 -3.937,0.692 -3.937,3.873 z m 3.202,-1.517 c 0,-1.005 0.25,-1.186 2.335,-1.186 1.868,0 2.335,0.181 2.335,1.186 z" id="path9"/>
        </g>
    </g>
</svg>
