<?xml version='1.0' encoding='utf-8'?>
<svg xmlns="http://www.w3.org/2000/svg" height="135.33061014552214" viewBox="0 0 563.59649 127.11978" width="600" version="1.1" id="svg91">
    <defs id="defs91"/>
    <linearGradient id="a" gradientUnits="userSpaceOnUse" x1="59.971001" x2="59.971001" y1="8.0670004" y2="124.676">
        <stop offset="0" stop-color="#009bcf" id="stop1"/>
        <stop offset=".381" stop-color="#009ace" id="stop2"/>
        <stop offset=".401" stop-color="#fff" id="stop3"/>
        <stop offset=".524" stop-color="#fff" id="stop4"/>
        <stop offset=".532" stop-color="red" id="stop5"/>
        <stop offset=".664" stop-color="red" id="stop6"/>
        <stop offset=".684" stop-color="#fffc00" id="stop7"/>
        <stop offset="1" stop-color="#fffc00" id="stop8"/>
    </linearGradient>
    <linearGradient id="b" gradientUnits="userSpaceOnUse" x1="125.038" x2="125.038" y1="8.0670004" y2="124.676">
        <stop offset="0" stop-color="#009bcf" id="stop9"/>
        <stop offset=".394" stop-color="#009ace" id="stop10"/>
        <stop offset=".41" stop-color="#fff" id="stop11"/>
        <stop offset=".532" stop-color="#fff" id="stop12"/>
        <stop offset=".543" stop-color="red" id="stop13"/>
        <stop offset=".668" stop-color="red" id="stop14"/>
        <stop offset=".681" stop-color="#fffc00" id="stop15"/>
        <stop offset="1" stop-color="#fffc00" id="stop16"/>
    </linearGradient>
    <linearGradient id="c" gradientUnits="userSpaceOnUse" x1="177.739" x2="177.739" y1="8.0670004" y2="124.676">
        <stop offset="0" stop-color="#009bcf" id="stop17"/>
        <stop offset=".405" stop-color="#009ace" id="stop18"/>
        <stop offset=".42" stop-color="#fff" id="stop19"/>
        <stop offset=".539" stop-color="#fff" id="stop20"/>
        <stop offset=".551" stop-color="red" id="stop21"/>
        <stop offset=".671" stop-color="red" id="stop22"/>
        <stop offset=".684" stop-color="#fffc00" id="stop23"/>
        <stop offset="1" stop-color="#fffc00" id="stop24"/>
    </linearGradient>
    <linearGradient id="d" gradientUnits="userSpaceOnUse" x1="234.382" x2="234.382" y1="8.0670004" y2="124.676">
        <stop offset="0" stop-color="#009bcf" id="stop25"/>
        <stop offset=".417" stop-color="#009ace" id="stop26"/>
        <stop offset=".434" stop-color="#fff" id="stop27"/>
        <stop offset=".547" stop-color="#fff" id="stop28"/>
        <stop offset=".56" stop-color="red" id="stop29"/>
        <stop offset=".674" stop-color="red" id="stop30"/>
        <stop offset=".688" stop-color="#fffc00" id="stop31"/>
        <stop offset="1" stop-color="#fffc00" id="stop32"/>
    </linearGradient>
    <linearGradient id="e" gradientUnits="userSpaceOnUse" x1="291.37799" x2="291.37799" y1="8.0670004" y2="124.676">
        <stop offset="0" stop-color="#009bcf" id="stop33"/>
        <stop offset=".429" stop-color="#009ace" id="stop34"/>
        <stop offset=".446" stop-color="#fff" id="stop35"/>
        <stop offset=".557" stop-color="#fff" id="stop36"/>
        <stop offset=".569" stop-color="red" id="stop37"/>
        <stop offset=".677" stop-color="red" id="stop38"/>
        <stop offset=".69" stop-color="#fffc00" id="stop39"/>
        <stop offset="1" stop-color="#fffc00" id="stop40"/>
    </linearGradient>
    <linearGradient id="f" gradientUnits="userSpaceOnUse" x1="347.121" x2="347.121" y1="8.0670004" y2="124.676">
        <stop offset="0" stop-color="#009bcf" id="stop41"/>
        <stop offset=".441" stop-color="#009ace" id="stop42"/>
        <stop offset=".456" stop-color="#fff" id="stop43"/>
        <stop offset=".566" stop-color="#fff" id="stop44"/>
        <stop offset=".578" stop-color="red" id="stop45"/>
        <stop offset=".679" stop-color="red" id="stop46"/>
        <stop offset=".692" stop-color="#fffc00" id="stop47"/>
        <stop offset="1" stop-color="#fffc00" id="stop48"/>
    </linearGradient>
    <linearGradient id="g" gradientUnits="userSpaceOnUse" x1="411.51599" x2="411.51599" y1="8.0670004" y2="124.676">
        <stop offset="0" stop-color="#009bcf" id="stop49"/>
        <stop offset=".454" stop-color="#009ace" id="stop50"/>
        <stop offset=".472" stop-color="#fff" id="stop51"/>
        <stop offset=".577" stop-color="#fff" id="stop52"/>
        <stop offset=".588" stop-color="red" id="stop53"/>
        <stop offset=".683" stop-color="red" id="stop54"/>
        <stop offset=".697" stop-color="#fffc00" id="stop55"/>
        <stop offset="1" stop-color="#fffc00" id="stop56"/>
    </linearGradient>
    <linearGradient id="h" gradientUnits="userSpaceOnUse" x1="474.51401" x2="474.51401" y1="8.0670004" y2="124.676">
        <stop offset="0" stop-color="#009bcf" id="stop57"/>
        <stop offset=".468" stop-color="#009ace" id="stop58"/>
        <stop offset=".483" stop-color="#fff" id="stop59"/>
        <stop offset=".583" stop-color="#fff" id="stop60"/>
        <stop offset=".598" stop-color="red" id="stop61"/>
        <stop offset=".686" stop-color="red" id="stop62"/>
        <stop offset=".699" stop-color="#fffc00" id="stop63"/>
        <stop offset="1" stop-color="#fffc00" id="stop64"/>
    </linearGradient>
    <linearGradient id="i" gradientUnits="userSpaceOnUse" x1="516.617" x2="516.617" y1="8.0670004" y2="124.676">
        <stop offset="0" stop-color="#009bcf" id="stop65"/>
        <stop offset=".476" stop-color="#009ace" id="stop66"/>
        <stop offset=".492" stop-color="#fff" id="stop67"/>
        <stop offset=".594" stop-color="#fff" id="stop68"/>
        <stop offset=".604" stop-color="red" id="stop69"/>
        <stop offset=".688" stop-color="red" id="stop70"/>
        <stop offset=".702" stop-color="#fffc00" id="stop71"/>
        <stop offset="1" stop-color="#fffc00" id="stop72"/>
    </linearGradient>
    <linearGradient id="j" gradientUnits="userSpaceOnUse" x1="545.72302" x2="545.72302" y1="8.0670004" y2="124.676">
        <stop offset="0" stop-color="#009bcf" id="stop73"/>
        <stop offset=".482" stop-color="#009ace" id="stop74"/>
        <stop offset=".499" stop-color="#fff" id="stop75"/>
        <stop offset=".598" stop-color="#fff" id="stop76"/>
        <stop offset=".609" stop-color="red" id="stop77"/>
        <stop offset=".69" stop-color="red" id="stop78"/>
        <stop offset=".702" stop-color="#fffc00" id="stop79"/>
        <stop offset="1" stop-color="#fffc00" id="stop80"/>
    </linearGradient>
    <path style="baseline-shift:baseline;display:inline;overflow:visible;opacity:1;vector-effect:none;fill:#ffffff;stroke-linecap:round;stroke-linejoin:round;paint-order:markers stroke fill;enable-background:accumulate;stop-color:#000000;stop-opacity:1" d="M 72.178942,0.04692406 C 67.083935,-0.24437684 61.624516,0.83354576 56.301988,2.9199709 45.656934,7.0928212 34.798021,15.330341 25.649645,26.683643 a 5.2505293,5.2505293 0 0 0 -0.002,0 C 14.436746,40.597082 8.1086358,51.871155 3.3547233,66.55083 c -3.89896084,12.039269 -4.5408877,27.539741 -1.1777344,38.53125 2.8827545,9.41764 9.9040091,16.95389 18.9941401,20.0918 a 5.2505293,5.2505293 0 0 0 0.002,0 c 7.599828,2.62244 13.580261,2.59464 21.539063,-0.0859 13.260411,-4.46731 27.78753,-16.16516 37.58789,-29.177735 0.669637,3.461516 2.089079,6.559055 4.625,8.906245 5.590943,5.17486 14.082621,5.56976 23.447278,2.78907 l 1.82031,-0.53906 -0.28711,-0.39258 c 0.70216,0.96286 1.4542,1.91617 2.61523,2.81836 1.16397,0.90447 2.8795,1.64684 4.5293,1.76562 3.2996,0.23758 5.42449,-0.99539 8.14844,-2.38476 3.11839,-1.59024 5.69913,-3.81227 7.5957,-6.40821 0.75417,1.60026 1.7747,2.92119 2.82227,3.96876 a 5.2505293,5.2505293 0 0 0 0,0.002 c 1.2892,1.28861 2.68097,2.55241 4.75585,3.27539 2.07489,0.72297 4.1594,0.53248 5.83204,0.20117 7.65989,-1.51685 14.59473,-6.45787 17.9375,-13.380861 0.26965,3.891351 2.41109,7.564471 5.15234,9.720701 2.51326,1.97684 5.96283,3.3533 9.38672,2.95313 3.42389,-0.40017 6.27628,-2.04133 9.38281,-4.27344 0.78571,-0.56457 1.41916,-0.97051 2.10547,-1.42774 0.41567,0.3772 0.75713,0.65443 1.20312,1.08985 1.84444,1.80127 3.00234,3.31051 5.7754,4.23047 2.77305,0.91996 5.08368,0.11779 6.98046,-0.4668 a 5.2505293,5.2505293 0 0 0 0.002,-0.002 c 5.07372,-1.56438 9.10482,-3.30489 12.31054,-6.41016 1.76059,-1.70541 3.08697,-3.741327 4.24414,-6.003905 0.0516,1.742661 0.2553,3.64653 1.37891,5.486325 1.31704,2.15652 2.99896,3.23864 4.88477,4.48633 1.21262,0.80297 2.39896,1.52025 3.44922,2.0918 0.52547,0.28596 1.00842,0.53518 1.52929,0.76367 0.52088,0.22849 0.44294,0.64844 2.75586,0.64844 1.71201,0 1.89343,-0.31623 2.27149,-0.4707 0.37805,-0.15448 0.65448,-0.29385 0.93945,-0.44336 0.56993,-0.29902 1.14267,-0.6371 1.79101,-1.03906 1.2967,-0.80393 2.84978,-1.84653 4.46094,-3.00001 a 5.2505293,5.2505293 0 0 0 0.002,0 c 2.2683,-1.6249 4.18414,-3.10159 5.66992,-4.853513 0.13609,0.430673 0.14534,0.913923 0.31836,1.337893 1.3976,3.42473 4.35224,5.84814 7.33203,7.38867 6.42229,3.32113 14.05601,2.09615 22.07031,-1.01953 7.17852,-2.79076 14.86034,-7.492822 22.42383,-13.609376 -0.11369,0.656217 -0.34375,1.242912 -0.34375,2.064453 0,4.17594 1.7679,6.411343 3.56055,8.898433 0.89632,1.24355 1.86576,2.38527 3.02734,3.40235 1.16158,1.01708 2.32317,2.34375 5.43359,2.34375 3.07282,0 3.78131,-0.81538 5.45313,-1.5957 1.67181,-0.78032 3.50725,-1.77219 5.32812,-2.84571 1.82088,-1.07351 3.60873,-2.21731 5.15039,-3.32812 1.54094,-1.11029 2.69232,-1.76786 4.0586,-3.718753 l 0.002,-0.002 c 0.47412,-0.676781 0.75503,-1.31894 1.10156,-1.962891 0.10787,1.225599 0.31981,2.44289 0.85547,3.705074 0.92603,2.182 2.49506,3.68146 4.03906,4.98047 1.22681,1.03217 2.4896,1.84587 3.85352,2.46485 0.51351,0.23304 1.07264,0.50729 1.66211,0.74218 -0.13867,0.7211 -0.3639,1.43531 -0.44336,2.16016 -0.30968,2.82486 -0.36082,5.68836 1.59961,8.7832 a 5.2505293,5.2505293 0 0 0 0.002,0.002 c 1.73938,2.74306 3.79526,3.25222 5.76563,3.85546 1.97036,0.60325 4.14829,0.9715 6.63086,1.24415 4.96513,0.54529 11.10682,0.64961 17.74609,0.40625 13.27854,-0.48674 28.29975,-2.31068 38.74414,-5.61524 9.83052,-3.11063 17.89785,-7.3692 22.63281,-13.35156 0.58467,0.40399 1.18254,0.74427 1.80078,1.04883 2.63598,1.29853 5.69805,2.02734 9.03711,2.02734 3.22108,0 6.99829,-0.70257 10.28907,-1.69336 l -0.002,0.002 c 0.99347,-0.29891 1.57293,-0.41141 2.02539,-0.50781 0.1377,0.12638 0.11207,0.0943 0.29493,0.26953 1.05874,1.0147 2.17671,1.83689 3.36132,2.51367 1.18462,0.67679 2.08849,1.41602 4.59375,1.41602 3.98366,0 7.13683,-1.8319 10.06641,-4.17773 1.20741,-0.96682 2.33206,-2.13086 3.42969,-3.33204 0.54837,0.95733 1.19642,1.84638 2.1875,2.75196 1.92334,1.75742 5.01028,2.16275 6.69531,2.04297 2.24797,-0.16006 3.5423,-0.77501 5.32617,-1.51953 1.78387,-0.74453 3.68601,-1.68675 5.47852,-2.75 2.12792,-1.26221 3.86717,-2.65373 5.43945,-4.15625 0.0323,0.53632 -0.0466,1.34154 0.0215,1.8496 0.28118,2.09665 1.39606,4.62822 3.0625,6.01172 2.87197,2.38406 6.28997,2.37294 9.40234,1.82813 3.11237,-0.54481 6.42401,-1.77127 10.25586,-3.58399 3.5768,-1.69214 6.78335,-3.74361 9.18945,-7.113277 2.40587,-3.369329 4.06992,-7.489882 6.6543,-14.216796 v -0.002 c 1.9304,-5.022941 6.70564,-16.483918 10.48047,-25.134765 3.10425,-7.113144 4.84558,-11.188258 5.83984,-14.386719 0.99426,-3.198461 1.03353,-6.226555 0.51953,-8.414062 -0.4205,-1.789847 -0.78215,-3.712144 -2.68359,-5.589844 -1.90144,-1.8777 -4.24854,-2.227067 -5.91992,-2.390625 -3.9163,-0.383395 -7.37706,0.801344 -10.93555,2.40625 -2.32341,1.047874 -4.505,2.424897 -6.55469,3.96289 -0.008,-0.04131 5.8e-4,-0.08159 -0.008,-0.123046 -0.33475,-1.65395 -1.1585,-3.629486 -2.78125,-5.044922 -3.24551,-2.830872 -6.69754,-2.365988 -10.25195,-1.992188 -5.7899,0.609187 -11.10836,2.690725 -15.53125,6.496094 -4.4229,3.805369 -7.95649,9.067977 -11.45313,16.023437 -0.17018,0.338483 -0.2943,0.526628 -0.46289,0.853516 -4.79101,-6.967614 -12.21699,-10.980398 -20.36328,-10.552734 -8.7978,0.461866 -18.01665,5.026023 -27.78711,12.867187 -3.9184,3.144217 -8.45788,7.662115 -11.14453,11.248047 -0.2813,0.375453 -0.48126,0.634561 -0.75195,0.994141 -0.99118,-1.127127 -2.01498,-2.188682 -3.11329,-3.148438 5.46529,-2.67566 10.92133,-6.895373 16.63477,-12.638672 9.41146,-9.459191 13.95508,-17.001651 13.95508,-25.554687 0,-8.531842 -5.99964,-15.8400997 -14.67188,-20.7324222 -5.2603,-2.9666877 -8.72469,-3.77281714 -17.13672,-3.67968754 -12.24413,0.1342193 -22.81518,1.98012194 -36.05273,6.24414064 -6.26888,2.0194904 -10.58832,3.6163661 -14.05469,5.5585941 -3.46637,1.942228 -6.07373,4.485252 -7.82226,7.353516 -0.73346,1.202787 -1.34363,2.258577 -1.81836,3.585937 -0.47474,1.32736 -0.97831,3.392477 0.12695,5.671875 1.10526,2.279398 3.27711,3.259837 4.6875,3.625 0.57443,0.148725 1.08523,0.117354 1.61328,0.181641 -0.15803,0.425719 -0.25186,0.725389 -0.43945,1.205078 -0.96993,2.480254 -2.2976,5.585377 -3.66016,8.591797 -0.83653,1.845758 -1.58852,3.321482 -2.3789,4.935546 -1.10926,-1.58893 -2.39538,-3.06059 -4.29688,-4.30664 a 5.2505293,5.2505293 0 0 0 -0.002,-0.002 c -3.07223,-2.011883 -6.32634,-2.376746 -9.73242,-2.357422 -3.40609,0.01932 -6.94276,0.620256 -10.22657,1.992187 -2.53234,1.057976 -1.16446,0.996815 -3.07421,0.306641 -3.72563,-1.347147 -7.53673,-1.199232 -11.45899,-0.654297 -3.92225,0.544935 -7.71312,1.514029 -10.96875,3.689453 -2.20578,1.474168 -3.87238,3.41914 -5.35156,5.519531 -1.16153,-2.255294 -2.5668,-4.348392 -4.65235,-5.861328 -3.1068,-2.253796 -6.76638,-3.240331 -11.27929,-3.988281 h -0.002 c -14.47565,-2.399268 -27.82805,2.730755 -40.48242,14.738281 0.062,-1.690628 0.0219,-3.339802 -0.41992,-5.103515 a 5.2505293,5.2505293 0 0 0 -0.002,-0.002 c -1.36408,-5.431986 -6.1802,-8.487411 -11.04102,-9.707032 -4.86082,-1.219621 -10.38142,-0.914983 -15.63086,1.185547 -0.33453,0.133832 -0.43642,0.143623 -0.70703,0.232422 -1.10822,-0.904755 -2.41809,-1.737518 -3.79687,-1.96875 -2.10001,-0.352186 -3.6841,-0.07675 -5.84766,0.248047 l 0.002,-0.002 c -5.09789,0.764216 -9.00084,1.577597 -12.44726,4.027344 -2.64363,1.879108 -4.47207,4.539723 -6.30078,7.660156 -0.26896,-0.795313 -0.36512,-1.592041 -0.7793,-2.392578 -4.35734,-8.429208 -14.97399,-10.867448 -24.69727,-7.980469 -1.94937,0.578904 -3.02563,0.767693 -3.45117,0.785156 -0.42414,0.01741 -0.36915,0.04291 -1.1289,-0.271484 h -0.004 c -3.20411,-1.32685 -6.39033,-1.31312 -9.76172,-0.945313 -3.37269,0.367949 -6.83556,1.246187 -9.98828,2.742188 -2.63302,1.249083 -4.64521,3.445295 -6.39453,5.964844 -3.74177,-5.774468 -10.55194,-9.331563 -18.20117,-9.884766 -14.80226,-1.069959 -28.71959,6.759794 -40.275401,21.341797 -1.264328,1.59529 -2.347209,2.815437 -3.425781,4.046875 -1.124496,-0.882407 -2.41938,-1.422311 -3.558594,-1.679688 -2.520883,-0.569529 -5.058007,-0.576188 -9.845703,-0.708984 -6.365404,-0.177442 -10.686487,-0.198981 -14.826172,1.529297 -4.139684,1.728278 -6.804084,5.030495 -9.492187,9.080078 -2.59734,3.913162 -4.725043,6.268391 -6.171875,7.326172 -1.016205,0.742949 -1.596301,0.909375 -2.246094,0.927734 -0.111391,-0.386839 -0.29849,-0.929774 -0.259766,-2.25 0.09701,-3.307546 1.420238,-8.848554 4.160157,-15.125 4.770986,-10.928655 10.613311,-19.161486 14.849609,-22.808594 1.976096,-1.701258 3.39142,-2.108205 3.591797,-2.162109 -0.0016,0.08975 -0.04991,0.08921 0.144531,0.558594 a 5.2505293,5.2505293 0 0 0 0.002,0.002 c 0.406721,0.981539 0.818517,2.319594 2.388672,3.789062 1.570155,1.469469 4.096055,2.070513 5.873047,1.984375 3.553984,-0.172274 6.667109,-1.400306 13.193359,-3.517578 4.387871,-1.422953 7.588615,-2.633935 10.128907,-4.058593 1.270145,-0.71233 2.407487,-1.46718 3.458984,-2.626954 1.051497,-1.159773 2.04297,-3.000214 2.04297,-5.037109 0,-1.712879 -0.352116,-2.444486 -0.691408,-3.425781 -0.339165,-0.981238 -0.762951,-2.00115 -1.263545,-3.107365 -1.00119,-2.212429 -2.305142,-4.742848 -3.714844,-7.277344 -1.409702,-2.534496 -2.9176,-5.054485 -4.339844,-7.207031 C 88.686385,8.5779716 87.643601,6.9495779 85.866442,5.3887209 82.005411,1.9988326 77.273949,0.33822486 72.178942,0.04692406 Z M 69.932848,12.951221 c 3.425624,-0.377445 5.53035,0.432112 8.210937,2.541016 a 5.2505293,5.2505293 0 0 0 0.002,0.002 c -0.435727,-0.342661 0.81628,0.949681 1.839844,2.605469 1.023565,1.655788 2.18139,3.802305 3.207031,5.93164 1.025642,2.129336 1.928488,4.267771 2.470704,5.839844 0.06592,0.191127 0.06852,0.253256 0.123046,0.425781 -1.372491,0.639201 -4.091066,1.572339 -8.43164,2.775391 l -2.689453,0.746094 -0.332032,-0.685547 c -0.73872,-1.52481 -1.579059,-2.966242 -2.443359,-4.226563 -0.863889,-1.259721 -1.107996,-2.182129 -3.400391,-3.5625 l -0.002,-0.002 c -3.486456,-2.09956 -7.689623,-1.667961 -11.1875,-0.205078 -3.498632,1.463199 -6.868628,3.931766 -10.457031,7.289062 -8.002721,7.485096 -12.526081,14.259638 -18.087891,26.923829 -3.639087,8.285984 -4.494439,11.967068 -4.5625,19.3125 -0.0508,5.421408 0.120157,9.406557 2.09375,13.095703 1.973594,3.689146 6.562518,5.661609 10.359375,5.658203 8.728575,-0.0072 16.337871,-6.125889 23.550782,-15.8125 1.902699,-2.554513 3.032981,-3.514104 4.482422,-4.148438 0.998815,-0.437122 2.695843,-0.696291 4.853515,-0.855468 -1.695103,2.033928 -3.402407,4.275436 -5.001953,6.642578 -8.991317,13.303902 -19.481359,21.177903 -31.689453,24.357423 -1.487305,0.38744 -2.966685,0.73173 -4.074219,0.95899 -0.47624,0.0977 -0.83412,0.16088 -1.115234,0.20703 -5.363949,-0.67263 -11.735644,-5.52441 -13.443359,-9.9961 -0.997184,-2.61045 -1.274006,-10.266166 0.15625,-18.404296 1.430256,-8.138131 4.253658,-17.052469 7.726562,-23.617188 13.548894,-25.613458 27.71137,-38.877724 43.90625,-43.027344 1.505185,-0.385569 2.793672,-0.643716 3.935547,-0.769531 z m 357.291022,0.472656 c 5.11371,0.0034 8.45398,0.372534 10.70508,1.050781 2.2511,0.678248 3.58771,1.533032 5.45312,3.398438 1.62821,1.628648 1.97936,2.22497 2.18164,2.865235 0.20229,0.640264 0.33074,2.026093 0.0918,5.011718 -0.14461,1.805833 -3.75079,8.398361 -9.91406,14.429688 -0.0807,0.07896 -0.1803,0.155418 -0.26172,0.234375 2.35906,-3.737153 3.63867,-7.789878 3.63867,-12.238282 0,-3.806232 -1.55482,-7.810855 -4.63867,-10.18164 -3.08385,-2.370785 -6.87808,-3.069865 -11.02149,-3.050782 -7.17911,0.03367 -13.26592,1.143944 -18.13086,5.167969 -4.86493,4.024026 -7.92042,9.937553 -11.59765,18.650391 a 5.2505293,5.2505293 0 0 0 -0.002,0 c -2.26368,5.364441 -3.73488,9.284153 -4.51757,12.525391 -0.39135,1.620619 -0.63824,3.078358 -0.5586,4.697265 0.0797,1.618908 0.61605,3.67558 2.16797,5.228516 a 5.2505293,5.2505293 0 0 0 0.002,0.002 c 1.93684,1.93624 4.05298,2.125851 5.67578,2.140625 1.62281,0.01477 3.11261,-0.25573 4.69532,-0.652344 1.88406,-0.472132 3.91203,-1.204447 5.99804,-2.048828 -0.30383,0.51844 -0.57421,1.221297 -0.57421,2.5 0,2.599945 0.96249,3.127961 1.35546,3.585938 0.39298,0.457976 0.66631,0.680622 0.92383,0.890625 0.51504,0.420005 0.96355,0.715239 1.47461,1.035156 1.02213,0.639834 2.23877,1.301528 3.5918,1.958984 6.00076,2.915642 9.84639,7.056176 11.53906,11.09961 1.69267,4.043433 1.51608,7.897922 -0.94531,11.779296 a 5.2505293,5.2505293 0 0 0 -0.002,0.002 c -1.08421,1.710209 -4.16494,4.713995 -4.60547,4.986328 -1.52258,0.941079 -6.53793,3.03942 -12.01368,4.78711 -5.47574,1.74769 -11.67263,3.35499 -16.4746,4.19336 -7.87982,1.37598 -16.83783,2.03654 -23.98047,1.97461 -1.33367,-0.0116 -2.13679,-0.16032 -3.32227,-0.22071 0.56342,-0.4815 1.08853,-1.03153 1.55274,-1.67578 1.88002,-2.6092 2.24637,-5.24146 2.75195,-8.599606 v -0.002 c 0.60898,-4.038144 4.03695,-14.96775 8.55078,-26.75 4.51422,-11.783275 10.13719,-24.868149 15.17187,-34.900391 0.96753,-1.927753 1.84106,-3.7877 2.50391,-5.310547 0.33143,-0.761423 0.60808,-1.431611 0.83594,-2.048828 0.11393,-0.308608 0.21739,-0.599092 0.31836,-0.949218 0.10097,-0.350127 0.27344,-0.546881 0.27344,-1.796875 0,-1.797064 -0.93145,-3.208005 -1.625,-3.90625 -0.69355,-0.698246 -1.24833,-0.983041 -1.71094,-1.208985 -0.21883,-0.106875 -0.34915,-0.100647 -0.54297,-0.177734 1.71283,-0.75631 3.54719,-1.527509 5.58789,-2.263672 9.48422,-3.421346 21.86863,-6.218075 29.39844,-6.212891 z m -4.66211,15.888672 c 1.41055,0.06681 2.4663,0.500916 2.82422,0.763672 0.35791,0.262756 0.22898,-0.02639 0.22851,0.392578 -10e-4,1.192828 -1.03458,3.831299 -4.125,6.9375 -3.01362,3.029019 -7.76598,6.36221 -13.75195,9.423828 0.34779,-0.893932 0.57096,-1.591783 0.95898,-2.529297 1.06902,-2.582855 2.25426,-5.239381 3.31446,-7.40625 1.05981,-2.166088 2.18907,-4.014995 2.29687,-4.152343 1.73997,-2.212015 5.43281,-3.563306 8.25391,-3.429688 z m 123.73242,15.580078 c -2.46055,4.128975 -5.46798,9.941388 -7.77344,15.152344 -2.5525,5.769354 -5.45867,12.31048 -6.42969,14.472656 -1.12716,2.507545 -2.66393,6.497143 -3.6582,9.455078 -1.03883,3.091772 -1.56084,4.087143 -1.91601,4.482422 -0.29119,0.324067 -1.68329,1.094016 -3.60938,2.060547 0.38539,-1.102425 0.14397,-0.696862 0.8418,-2.324219 2.18293,-5.090682 5.87176,-12.964275 11.66015,-24.988281 3.76789,-7.826704 6.49457,-12.804382 8.61524,-15.720703 0.91001,-1.251435 1.59487,-1.969287 2.26953,-2.589844 z m -29.07813,0.1875 c -2.38555,4.047574 -5.15192,9.358545 -7.17578,13.984375 -2.27562,5.201282 -5.20959,11.801881 -6.46093,14.541016 -1.44604,3.164437 -3.00936,7.34399 -3.80664,10.324219 -0.72347,2.704813 -1.00654,3.240568 -1.35547,3.621093 -0.27903,0.304287 -1.97847,1.289866 -4.06055,2.410157 0.51082,-1.246613 0.68733,-1.940362 1.44922,-3.580078 1.70862,-3.677506 3.88867,-8.664612 4.99805,-11.458985 l 0.002,-0.002 c 1.79664,-4.522135 5.22756,-11.588459 8.47851,-17.664062 1.62571,-3.038236 3.21556,-5.850831 4.51954,-7.990235 1.30397,-2.139404 2.77006,-3.902764 2.32617,-3.482422 0.19168,-0.181511 0.7855,-0.474284 1.08593,-0.703125 z m 10.91602,2.056641 c 0.0294,0.05143 0.0174,0.08243 0.0488,0.134766 0.46117,0.767344 1.37341,1.557684 2.43164,2.160156 -1.42691,2.655065 -2.91864,5.591182 -4.66406,9.216797 -5.39724,11.21148 -8.6643,18.234139 -11.00977,23.605468 -0.0157,-0.0098 -0.0172,-0.02144 -0.0332,-0.03125 -0.90583,-0.557089 -2.01981,-0.75688 -3.07617,-0.748046 0.50456,-1.325778 0.84379,-2.510173 1.29882,-3.50586 1.32066,-2.890865 4.23488,-9.446594 6.53125,-14.695312 2.15256,-4.919985 5.92256,-12.097957 7.79493,-14.990235 v -0.002 c 0.27183,-0.419685 0.42802,-0.749483 0.67773,-1.144531 z m -48.65234,6.642578 a 5.2505293,5.2505293 0 0 0 0.002,0 c 0.7564,0.141762 2.79612,1.131405 4.32031,2.466797 1.52419,1.335392 2.45914,3.14914 2.44141,3.068359 a 5.2505293,5.2505293 0 0 0 0,0.002 c -0.13718,-0.624042 -0.12223,1.364142 -1.23633,3.683594 -1.1141,2.319452 -2.97772,5.141818 -5.23633,7.685547 -4.61443,5.1962 -7.58369,11.841694 -8.63476,19.013672 -0.29046,1.980751 -0.56063,2.414576 -0.38282,2.150391 0.17782,-0.264185 0.18507,-0.100438 -1.35156,0.683593 -0.63406,0.323388 -0.93298,0.393592 -1.38672,0.564453 l -0.52539,-1.388671 a 5.2505293,5.2505293 0 0 0 -4.21289,-2.976563 c 2.0579,-1.395305 4.05529,-3.076579 6.13477,-5.283203 3.12481,-3.316917 6.31956,-7.600533 8.08789,-11.271484 1.11786,-2.32174 1.88069,-4.337032 2.13867,-6.548829 0.25798,-2.211796 -0.25692,-5.592254 -3.00391,-7.453125 -2.74698,-1.86087 -5.43042,-1.31586 -7.50195,-0.65039 -2.07153,0.66547 -4.05511,1.747485 -6.29687,3.232422 -5.60164,3.710548 -10.20245,9.141542 -13.14258,14.302734 -1.47007,2.580596 -2.58017,5.005254 -2.88477,7.855469 -0.1523,1.425107 -0.12471,3.098671 0.79688,4.898437 0.92158,1.799767 3.00042,3.30663 4.88867,3.720703 0.58053,0.127313 1.16123,-0.02205 1.74609,0.0078 -2.44894,0.937191 -4.71875,1.546195 -6.41992,1.591797 -2.26276,0.06065 -3.49938,-0.480741 -4.23828,-1.160156 l -0.004,-0.002 c -0.71059,-0.654424 -0.36082,-0.27464 -0.33203,-0.164062 0.0291,0.111807 -0.0837,-0.814468 0.0879,-2.923828 v -0.002 c 0.36657,-4.482119 6.00353,-16.337198 10.84961,-21.277344 4.40604,-4.490906 9.76878,-8.36375 14.62305,-10.839844 4.85426,-2.476094 9.34093,-3.236413 10.67383,-2.986328 z m -350.9668,0.0078 c 2.41045,0.02589 3.78759,0.639154 5.83594,2.777343 a 5.2505293,5.2505293 0 0 0 0.002,0.002 c 1.94664,2.031458 1.94428,2.429588 1.92578,2.861329 -0.0185,0.43174 -0.65856,2.351621 -3.07617,5.769531 a 5.2505293,5.2505293 0 0 0 -0.002,0 c -7.97963,11.282 -10.50963,16.172661 -11.82422,23.111328 a 5.2505293,5.2505293 0 0 0 0,0.002 c -0.54454,2.876354 -0.97855,3.870635 -0.83008,3.646484 0.14847,-0.22415 0.19851,-0.109021 -1.76172,0.84375 -0.37904,0.184217 -0.50323,0.176412 -0.79297,0.277344 -0.17558,-0.929005 -0.54791,-1.953458 -2.05859,-3.251953 -0.67475,-0.579971 -1.66183,-0.941198 -2.67188,-1.152344 2.56876,-1.748941 5.11682,-3.922502 7.79297,-6.884765 4.28831,-4.746612 7.05071,-9.436182 8.30469,-14.666016 v -0.002 c 0.37242,-1.553036 0.61957,-3.234204 -0.0781,-5.275391 -0.69797,-2.041981 -2.94827,-4.003336 -4.94727,-4.486328 -3.99799,-0.965983 -6.47864,0.500529 -9.65039,2.183594 -5.48731,2.910911 -10.09775,7.805259 -13.40821,12.794922 -1.655373,2.495051 -2.965165,4.991979 -3.714842,7.613281 -0.749006,2.618958 -1.252418,6.022186 1.27539,9.074219 a 5.2505293,5.2505293 0 0 0 0.002,0.0078 c 1.212642,1.461727 3.090422,2.236146 4.896482,2.56836 -5.298167,1.774719 -8.733386,1.754126 -9.537107,1.441406 -0.414319,-0.161207 -0.368834,-0.122322 -0.572266,-0.513672 -0.203432,-0.39135 -0.503906,-1.382446 -0.503906,-3.072266 0,-3.838441 2.739868,-10.774832 7.361329,-17.074218 4.62146,-6.299387 10.96569,-12.094734 16.73634,-15.015625 5.14997,-2.606375 8.88642,-3.605972 11.29687,-3.580078 z m 114.1543,0.296875 c 1.51951,-0.05894 1.98048,0.06364 2.04687,0.08789 0.0664,0.02425 0.26173,0.07734 1.16602,0.982422 a 5.2505293,5.2505293 0 0 0 0.002,0.002 c 0.86696,0.867192 1.22667,1.59311 1.16992,3.609375 -0.0567,2.016265 -0.85786,5.184233 -2.74609,9.25 -1.87624,4.040356 -3.97517,9.809739 -5.0293,13.900391 -0.91994,3.565063 -1.5962,5.125277 -2.25781,5.980469 -0.45147,0.583561 -1.36405,1.240796 -2.68164,2.02539 0.92239,-2.809904 2.33099,-6.416826 4.8164,-11.767578 2.39629,-5.160113 3.81328,-8.319107 4.64844,-10.957031 0.83517,-2.637925 0.92398,-5.729193 -0.0566,-7.882813 a 5.2505293,5.2505293 0 0 0 0,-0.002 c -0.40512,-0.888937 -0.81038,-1.891218 -1.95508,-3.085937 -0.48285,-0.503958 -1.22879,-0.92344 -1.98828,-1.291016 0.98355,-0.287161 2.25009,-0.827495 2.86524,-0.851562 z m -56.29102,0.333997 c 3.29849,0 3.45952,0.397014 3.95117,1.953125 0.49166,1.556111 0.28385,5.615134 -2.24218,11.130859 -1.84701,4.03216 -4.05645,10.099523 -5.25196,14.416016 h 0.002 c -1.14462,4.129177 -1.85937,5.870554 -2.30274,6.470703 -0.28822,0.390136 -1.64355,1.108678 -2.72461,1.738281 1.02724,-3.321098 2.79475,-7.710442 5.23633,-12.572265 2.40042,-4.78023 3.93204,-8.19977 4.63672,-11.455078 0.35234,-1.627654 0.51155,-3.295929 0.11328,-5.09375 -0.39827,-1.797822 -1.53157,-3.597519 -2.87305,-4.710938 -0.6855,-0.568627 -1.35152,-0.952025 -1.99414,-1.212891 1.31343,-0.387156 2.54439,-0.664062 3.44922,-0.664062 z m 171.46875,0.103516 c 0.92778,0.185704 1.55309,0.51207 1.85547,0.814453 0.63892,0.638923 1.0199,1.335494 0.95312,3.359375 -0.0668,2.02388 -0.84615,5.159263 -2.625,9.072265 -1.85815,4.088599 -4.07245,10.135501 -5.24414,14.351563 -1.11691,4.01245 -1.81227,5.685552 -2.25,6.271484 -0.28471,0.381105 -1.64281,1.106241 -2.72656,1.738281 1.02712,-3.320814 2.79403,-7.71037 5.23633,-12.572265 2.35084,-4.681728 3.9241,-8.527298 4.6543,-11.939453 0.36509,-1.706078 0.59224,-3.314024 0.20117,-5.259766 -0.39108,-1.945742 -2.158,-4.595912 -4.61524,-5.416016 a 5.2505293,5.2505293 0 0 0 -0.002,-0.002 c -0.0579,-0.01932 -0.10652,-0.01306 -0.16406,-0.03125 0.34156,-0.08414 0.72719,-0.298586 1.05469,-0.355468 1.51388,-0.262948 2.74409,-0.216955 3.67187,-0.03125 z m -60.80469,0.173828 c 1.02309,0.0723 1.72595,0.213005 2.18946,0.380859 0.92701,0.335708 1.46765,0.716312 2.76757,2.466797 1.09353,1.473135 1.47394,7.069443 -1.19335,11.621094 -0.56576,0.96544 -1.5404,2.1037 -2.37696,3.1875 0.83794,-1.870302 1.54036,-3.751036 1.90039,-5.66211 0.48182,-2.557508 0.59868,-5.326556 -0.88867,-8.105468 a 5.2505293,5.2505293 0 0 0 0,-0.002 c -0.64463,-1.203888 -2.26896,-3.033306 -4.33008,-3.871093 0.63041,-7.99e-4 1.45073,-0.04961 1.93164,-0.01563 z m -133.16601,0.779297 c -0.1153,0.36811 -0.36076,0.715733 -0.17383,2.193359 0.0985,0.778299 0.44102,2.141926 1.70703,3.291016 0.23885,0.216786 0.53391,0.272498 0.80078,0.43164 -1.30457,1.078925 -2.60466,2.180528 -3.71094,3.462891 -2.41865,2.802623 -4.85123,6.612046 -6.89257,10.285156 -1.02068,1.836555 -1.91955,3.610888 -2.61524,5.232422 -0.69568,1.621534 -1.37109,2.593696 -1.37109,5.191406 0,-1.743872 -0.0526,-0.169008 -1.49219,1.144531 -0.9737,0.888476 -2.3287,1.768208 -3.74414,2.554688 1.59556,-4.02762 4.00003,-9.649803 8.17773,-18.359375 4.13499,-8.62048 6.59936,-13.053605 7.90821,-14.482422 0.65442,-0.714408 0.80283,-0.76675 1.33594,-0.9375 0.0107,-0.0034 0.0591,-0.0044 0.0703,-0.0078 z m 169.99023,0.128906 c -0.12059,0.356284 -0.34242,0.679484 -0.1582,2.083984 0.10282,0.783891 0.4609,2.157309 1.73828,3.296875 0.27595,0.246176 0.60875,0.315765 0.91797,0.486328 -0.57499,0.517903 -1.17597,0.95509 -1.73242,1.519532 -2.93803,2.97979 -5.87552,7.07442 -8.3086,11.041015 -1.21654,1.983298 -2.28162,3.909903 -3.10547,5.69336 -0.82384,1.783456 -1.59765,3.006015 -1.59765,5.699218 0,-1.317055 -0.003,-0.122896 -1.25781,1.082032 -0.96341,0.924822 -2.43463,1.903891 -4.01758,2.765625 0.84823,-2.093264 1.8682,-4.526778 3.09765,-7.316407 2.73003,-6.19445 6.14879,-13.521385 9.16993,-19.53125 1.92413,-3.827465 3.26987,-5.598561 4.11523,-6.257812 0.3181,-0.248071 0.71486,-0.405047 1.13867,-0.5625 z m -113.93164,0.0098 a 5.2505293,5.2505293 0 0 0 2.07227,5.984375 c -5.55903,4.988255 -10.08837,12.070603 -13.06836,20.035157 -0.43253,1.156547 -1.08988,2.540096 -1.72071,3.648437 -0.63082,1.108342 -1.44905,2.057912 -1.19726,1.822266 a 5.2505293,5.2505293 0 0 0 -0.002,0.002 c -0.13895,0.130137 -1.78039,0.991046 -2.92969,1.662109 0.91164,-2.542722 1.66166,-4.800958 3.67187,-9.302734 4.88494,-10.938984 7.78589,-17.103607 9.69532,-20.271484 1.90486,-3.160311 1.90291,-2.950503 3.47851,-3.580079 z m -39.79492,9.648438 c 0.24672,-0.05661 0.19592,0.08301 -0.13477,0.05469 0.0263,-0.0067 0.11133,-0.04931 0.13477,-0.05469 z m 214.17383,0.197266 c -4.5714,0.349682 -8.90173,3.37931 -10.8711,7.486328 -1.62283,3.385461 -2.91082,8.489436 -4.22851,13.882812 -0.65885,2.696688 -1.23761,5.306052 -1.63086,7.447266 -0.19662,1.070607 -0.34855,2.01328 -0.44141,2.890625 -0.0464,0.438672 -0.0804,0.854608 -0.082,1.355469 -0.002,0.50086 -0.14465,0.950079 0.40039,2.371091 1.11411,2.90481 3.53718,3.80036 5.09766,4.19727 1.56048,0.39691 2.9729,0.44515 4.50195,0.41016 3.05811,-0.07 6.52331,-0.6101 10.14258,-1.42774 3.61927,-0.81764 7.33947,-1.91997 10.67383,-3.23047 3.33435,-1.310498 6.22641,-2.639388 8.64648,-4.90039 4.23041,-3.952 5.52675,-10.074285 3.77344,-15.109375 -1.75331,-5.035089 -5.901,-9.131014 -11.48633,-11.771484 -5.31268,-2.511775 -9.9247,-3.951244 -14.49609,-3.601562 z M 145.14379,65.81649 c 0.0565,0.02987 0.11472,0.05767 0.17578,0.08594 -0.0898,0.187272 -0.13494,0.267968 -0.22656,0.458984 -1.18283,2.465935 -1.74745,3.738821 -2.73828,5.800782 -0.39678,-0.08054 -0.75559,-0.10546 -1.10938,-0.09961 0.25669,-0.364447 0.25481,-0.417417 0.52735,-0.802734 1.35251,-1.912122 2.50069,-3.666025 3.37109,-5.44336 z m 167.87695,0.03903 c 0.35688,0.329926 0.84752,0.681241 1.84961,1.011719 a 5.2505293,5.2505293 0 0 0 0.008,0.0039 c 0.0185,0.0061 0.0285,-0.0019 0.0469,0.0039 -1.5999,3.396382 -3.24,6.72374 -4.6582,9.921875 -0.10954,-0.0167 -0.24109,-0.130802 -0.34571,-0.136719 -0.66774,-0.03776 -1.16683,0.0246 -1.67383,0.08203 0.50741,-0.759131 1.17306,-1.514973 1.61524,-2.269532 1.59783,-2.72665 2.56269,-5.665482 3.1582,-8.617187 z m 183.84766,0.521484 c 0.01,4.41e-4 0.01,0.0035 0.0195,0.0039 l -0.0391,-0.002 c 0.009,4.33e-4 0.0108,-0.0024 0.0195,-0.002 z m -228.98828,2.732422 c -0.41477,0.658631 -0.86927,1.303107 -1.24219,1.972656 -1.45962,2.620635 -2.57545,5.298718 -3.15234,8.033204 -0.57689,2.734485 -0.75804,5.705945 0.82812,8.669921 a 5.2505293,5.2505293 0 0 0 0,0.002 c 1.21233,2.263704 3.41481,3.579088 5.35156,4.121093 0.0967,0.02707 0.18882,0.01861 0.28516,0.04297 -3.11325,0.544855 -5.54872,0.557024 -6.40039,0.228516 h -0.002 c -1.41909,-0.550104 -3.53437,-3.883986 -3.12891,-6.839844 0.75912,-5.539116 3.4953,-11.263845 7.46094,-16.230469 z M 84.216051,69.261768 c -0.09448,0.09171 -0.283645,0.297461 -0.349609,0.357422 -0.137485,0.124971 -0.223753,0.178846 -0.08008,0.07813 0.07338,-0.05144 0.09624,-0.250077 0.429688,-0.435547 z M 198.14379,70.58794 c 0.0333,0.02902 0.0319,0.05288 0.0664,0.08203 0.22694,0.191871 0.53779,0.300531 0.8164,0.443359 -0.66314,1.473037 -1.10171,2.382392 -1.85547,4.070313 -2.95548,6.618663 -4.82417,11.217073 -5.80273,14.855469 -0.18046,0.670963 -0.3012,1.296037 -0.42188,1.927734 -0.15875,-0.008 -0.18053,-0.04883 -0.36914,-0.04883 -0.10012,0 -0.0955,0.01955 -0.18554,0.02148 0.97465,-2.04041 1.73911,-4.253502 2.56054,-7.216797 a 5.2505293,5.2505293 0 0 0 0,-0.002 c 0.9565,-3.453506 3.21669,-9.653816 4.67969,-12.847656 0.20102,-0.438932 0.32581,-0.851586 0.51172,-1.285156 z m 290.70508,5.492187 c -0.92374,2.126383 -1.6956,4.006901 -2.56446,5.876953 -1.43265,3.083326 -2.25222,5.315898 -3.00976,7.527344 -0.48793,0.02285 -0.95828,0.02034 -1.4043,0.146485 0.95111,-4.626985 2.94086,-8.81161 5.75,-11.97461 a 5.2505293,5.2505293 0 0 0 0.002,0 c 0.45386,-0.511145 0.80012,-1.054602 1.22657,-1.576172 z m -90.13477,3.623047 c 0.58822,0.179621 1.7868,0.698597 3.51563,1.794922 3.89881,2.472403 4.85203,4.15798 5.10742,4.816406 -0.25163,0.377663 -0.72634,1.142624 -1.61914,1.837891 -1.77804,1.384646 -4.48601,2.804658 -7.01758,3.511719 -2.29095,0.64003 -2.83462,0.747059 -4.01367,1.048828 0.23441,-1.492948 0.38389,-2.808738 1.09179,-5.361328 1.47617,-5.32406 2.94721,-7.420771 2.93555,-7.648438 z m -40.12695,15.3125 c -0.16059,0.777293 -0.40388,1.681563 -0.50781,2.371094 -0.25116,1.668185 -0.31312,1.600373 -0.49024,2.220703 -0.60693,-0.746942 -1.35893,-1.271353 -2.11523,-1.662109 1.17331,-0.80425 2.18469,-1.782139 3.11328,-2.929688 z m -250.74024,1.013672 c 0.0197,0.133073 0.0906,0.276738 0.11719,0.412109 -0.18929,-0.403633 -0.14575,-0.584138 -0.11719,-0.412109 z" id="path92"/>
    <g fill="#ffffff" fill-opacity="0.5" stroke-width="1.75" id="g80" transform="translate(5.3566764,5.2305178)">
        <path d="m 62.296,63.49 q 0,0.167 -0.04,0.282 -0.061,0.17 -0.194,0.17 -0.088,0 -0.185,-0.04 -0.116,-0.049 -0.127,-0.12 0.039,0 0.092,0.014 0.123,0.032 0.154,0.032 0.12,0 0.18,-0.119 0.047,-0.095 0.047,-0.228 0,-0.094 -0.062,-0.267 -0.06,-0.175 -0.06,-0.244 0,-0.021 0.011,-0.034 0.013,-0.014 0.034,-0.014 0.055,0 0.106,0.252 0.044,0.213 0.044,0.315 z m 0.539,0.142 q 0,0.143 -0.083,0.224 -0.082,0.081 -0.228,0.081 -0.08,0 -0.123,-0.037 -0.044,-0.038 -0.044,-0.117 0,-0.11 0.145,-0.222 0.137,-0.107 0.253,-0.107 0.053,0 0.07,0.066 0.01,0.038 0.01,0.112 z m -0.086,0.04 q 0,-0.017 -0.004,-0.033 -0.003,-0.017 -0.011,-0.038 -0.022,0.016 -0.074,0.076 -0.027,0.03 -0.046,0.045 0,-0.027 0.005,-0.044 l 0.018,-0.04 q -0.061,0 -0.128,0.052 -0.066,0.051 -0.066,0.112 0,0.04 0.045,0.04 0.085,0 0.165,-0.042 0.096,-0.05 0.096,-0.129 z m 0.663,0.018 q 0,0.068 -0.052,0.154 -0.06,0.096 -0.122,0.096 -0.018,0 -0.03,-0.02 -0.012,-0.02 -0.012,-0.04 0,-0.025 0.053,-0.078 0.055,-0.055 0.055,-0.075 0,-0.012 -0.004,-0.025 l -0.006,-0.017 q -0.105,0.024 -0.214,0.12 -0.108,0.097 -0.164,0.11 -0.011,-0.03 -0.011,-0.063 0,-0.04 0.018,-0.083 0.013,-0.03 0.042,-0.074 0.049,-0.074 0.104,-0.168 l 0.096,-0.17 q 0.07,-0.12 0.102,-0.17 0.017,-0.025 0.03,-0.038 0.018,-0.017 0.043,-0.022 0.017,0.005 0.024,0.02 0.008,0.016 0.008,0.037 0,0.048 -0.061,0.129 l -0.115,0.151 q -0.063,0.095 -0.063,0.172 l 0.003,0.014 0.09,-0.043 q 0.058,-0.024 0.099,-0.024 0.045,0 0.066,0.03 0.02,0.03 0.02,0.077 z m 0.649,-0.083 q 0,0.095 -0.046,0.203 -0.05,0.119 -0.125,0.164 -0.015,-0.018 -0.026,-0.04 -0.01,-0.023 -0.01,-0.046 0,-0.023 0.07,-0.141 0.03,-0.052 0.028,-0.091 l -10e-4,-0.018 q -0.052,0.015 -0.18,0.094 l -0.254,0.156 q -0.02,0 -0.037,-0.014 -0.015,-0.015 -0.015,-0.033 0,-0.03 0.094,-0.198 l 0.1,-0.175 q 0.023,0.03 0.03,0.066 0.007,0.035 0.007,0.084 v 0.032 q 0.129,-0.077 0.201,-0.116 0.08,-0.043 0.11,-0.043 0.02,0 0.036,0.045 0.018,0.044 0.018,0.07 z m 1.217,0.272 q 0,0.025 -0.023,0.039 -0.02,0.012 -0.047,0.012 -0.024,0 -0.06,-0.005 -0.083,-0.013 -0.107,-0.013 -0.042,0 -0.165,0.01 -0.07,0.006 -0.1,0.006 -0.086,0 -0.086,-0.086 0,-0.081 0.053,-0.232 0.03,-0.086 0.11,-0.28 0.073,-0.175 0.093,-0.247 0.007,-0.022 0.011,-0.03 0.011,-0.016 0.028,-0.016 0.027,0 0.045,0.04 0.018,0.037 0.018,0.068 0,0.049 -0.057,0.165 l -0.112,0.226 q -0.06,0.131 -0.06,0.2 0,0.035 0.029,0.049 0.02,0.01 0.062,0.01 0.03,0 0.106,-0.007 0.076,-0.009 0.1,-0.009 0.064,0 0.104,0.018 0.058,0.026 0.058,0.082 z m 0.521,-0.247 q 0,0.143 -0.083,0.224 -0.083,0.081 -0.228,0.081 -0.08,0 -0.123,-0.037 -0.044,-0.038 -0.044,-0.117 0,-0.11 0.144,-0.222 0.138,-0.107 0.254,-0.107 0.053,0 0.07,0.066 0.01,0.038 0.01,0.112 z m -0.086,0.04 q 0,-0.017 -0.004,-0.033 -0.003,-0.017 -0.011,-0.038 -0.023,0.016 -0.074,0.076 -0.027,0.03 -0.047,0.045 0,-0.027 0.006,-0.044 l 0.018,-0.04 q -0.061,0 -0.129,0.052 -0.065,0.051 -0.065,0.112 0,0.04 0.044,0.04 0.086,0 0.166,-0.042 0.096,-0.05 0.096,-0.129 z m 0.675,-0.069 q 0,0.045 -0.024,0.095 -0.022,0.05 -0.057,0.084 l -0.002,-0.02 q 0,-0.016 0.005,-0.051 0.004,-0.035 0.004,-0.052 0,-0.024 -0.007,-0.035 -0.007,-0.013 -0.03,-0.013 -0.065,0 -0.163,0.102 l -0.212,0.223 -0.017,-10e-4 -0.028,-0.007 q 0.005,-0.05 0.035,-0.112 0.083,-0.167 0.086,-0.178 0.01,-0.045 0.017,-0.066 0.005,-0.021 0.015,-0.043 0.011,-0.024 0.025,-0.042 0.016,-0.02 0.04,-0.03 l 0.013,0.168 0.093,-0.075 q 0.061,-0.05 0.106,-0.05 0.045,0 0.073,0.03 0.028,0.03 0.028,0.073 z m 0.687,-0.163 q 0,0.06 -0.156,0.156 -0.152,0.092 -0.22,0.092 -0.032,0 -0.044,-0.022 -0.01,-0.023 -0.01,-0.063 v -0.038 q 0.094,0 0.171,-0.028 0.077,-0.028 0.135,-0.092 -0.042,-0.016 -0.086,-0.016 -0.102,0 -0.217,0.079 -0.126,0.085 -0.126,0.182 0,0.092 0.126,0.128 0.02,0.006 0.237,0.04 0.127,0.02 0.127,0.068 0,0.021 -0.046,0.034 -0.046,0.014 -0.117,0.014 -0.18,0 -0.283,-0.055 -0.137,-0.073 -0.137,-0.234 0,-0.168 0.168,-0.267 0.142,-0.084 0.324,-0.084 0.055,0 0.1,0.025 0.054,0.03 0.054,0.081 z m 0.558,-0.25 q 0,0.03 -0.075,0.129 -0.074,0.098 -0.074,0.15 0,0.026 0.031,0.053 0.07,0.061 0.07,0.075 0,0.018 -0.013,0.035 -0.01,0.017 -0.029,0.017 -0.015,0 -0.043,-0.017 -0.02,-0.011 -0.076,-0.054 l -0.032,0.061 q -0.04,0.074 -0.053,0.108 l -0.042,0.129 q -0.037,0.087 -0.091,0.087 L 67.204,63.93 q 0,-0.1 0.065,-0.235 0.012,-0.025 0.07,-0.13 -0.111,-0.06 -0.244,-0.06 0,-0.052 0.021,-0.076 0.022,-0.025 0.074,-0.025 0.048,0 0.12,0.017 l 0.07,0.017 q 0.026,-0.009 0.072,-0.091 0.113,-0.2 0.154,-0.229 0.011,0.019 0.018,0.037 0.009,0.018 0.009,0.035 z m 0.517,0.5 q 0,0.068 -0.053,0.154 -0.058,0.096 -0.121,0.096 -0.019,0 -0.031,-0.02 -0.011,-0.02 -0.011,-0.04 0,-0.025 0.053,-0.078 0.054,-0.055 0.054,-0.075 0,-0.012 -0.004,-0.025 l -0.005,-0.017 q -0.105,0.024 -0.215,0.12 -0.107,0.097 -0.163,0.11 -0.012,-0.03 -0.012,-0.063 0,-0.04 0.019,-0.083 0.012,-0.03 0.042,-0.074 0.049,-0.074 0.103,-0.168 l 0.097,-0.17 q 0.07,-0.12 0.102,-0.17 0.017,-0.025 0.03,-0.038 0.018,-0.017 0.043,-0.022 0.017,0.005 0.024,0.02 0.008,0.016 0.008,0.037 0,0.048 -0.062,0.129 -0.112,0.146 -0.114,0.151 -0.063,0.095 -0.063,0.172 l 0.002,0.014 0.091,-0.043 q 0.058,-0.024 0.098,-0.024 0.045,0 0.066,0.03 0.021,0.03 0.021,0.077 z m 1.149,-0.457 q 0,0.066 -0.07,0.177 -0.045,0.07 -0.147,0.201 -0.103,0.13 -0.128,0.17 l 0.105,0.035 q 0.102,0.03 0.102,0.112 l -0.082,0.012 -0.016,-10e-4 v -0.011 q -0.022,-0.006 -0.036,-0.006 -0.027,0 -0.084,0.008 -0.057,0.009 -0.087,0.009 -0.038,0 -0.061,-0.014 -0.024,-0.014 -0.024,-0.05 0,-0.03 0.108,-0.167 l 0.203,-0.26 q 0.109,-0.148 0.109,-0.198 0,-0.02 -0.014,-0.03 -0.013,-0.01 -0.052,-0.01 -0.027,0 -0.11,0.053 -0.041,0.025 -0.066,0.025 l -0.024,-0.004 q -0.009,-0.006 -0.018,-0.021 -0.01,-0.017 -0.01,-0.027 0,-0.059 0.113,-0.108 0.097,-0.042 0.168,-0.042 0.06,0 0.093,0.045 0.028,0.04 0.028,0.102 z m 0.841,0.252 q 0,0.17 -0.183,0.3 -0.168,0.119 -0.346,0.119 -0.088,0 -0.14,-0.045 -0.052,-0.045 -0.052,-0.13 0,-0.19 0.167,-0.33 0.158,-0.134 0.354,-0.134 0.1,0 0.15,0.06 0.05,0.058 0.05,0.16 z m -0.085,0.032 q 0,-0.064 -0.073,-0.096 -0.055,-0.024 -0.13,-0.024 -0.111,0 -0.231,0.108 -0.12,0.108 -0.12,0.217 0,0.045 0.022,0.064 0.023,0.018 0.071,0.018 0.137,0 0.286,-0.075 0.175,-0.09 0.175,-0.212 z m 0.726,-0.284 q 0,0.066 -0.07,0.177 -0.045,0.07 -0.147,0.201 -0.102,0.13 -0.127,0.17 l 0.105,0.035 q 0.102,0.03 0.102,0.112 l -0.083,0.012 -0.015,-10e-4 v -0.011 q -0.022,-0.006 -0.036,-0.006 -0.027,0 -0.084,0.008 -0.058,0.009 -0.087,0.009 -0.038,0 -0.062,-0.014 -0.024,-0.014 -0.024,-0.05 0,-0.03 0.108,-0.167 0.202,-0.256 0.203,-0.26 0.11,-0.148 0.11,-0.198 0,-0.02 -0.015,-0.03 -0.012,-0.01 -0.051,-0.01 -0.027,0 -0.111,0.053 -0.04,0.025 -0.066,0.025 l -0.024,-0.004 q -0.008,-0.006 -0.018,-0.021 -0.01,-0.017 -0.01,-0.027 0,-0.059 0.114,-0.108 0.096,-0.042 0.168,-0.042 0.06,0 0.092,0.045 0.028,0.04 0.028,0.102 z m 0.644,0 q 0,0.066 -0.07,0.177 -0.045,0.07 -0.147,0.201 -0.102,0.13 -0.127,0.17 l 0.105,0.035 q 0.102,0.03 0.102,0.112 L 71.205,63.94 71.19,63.939 v -0.011 q -0.022,-0.006 -0.036,-0.006 -0.027,0 -0.084,0.008 -0.058,0.009 -0.087,0.009 -0.038,0 -0.062,-0.014 -0.024,-0.014 -0.024,-0.05 0,-0.03 0.108,-0.167 0.202,-0.256 0.203,-0.26 0.11,-0.148 0.11,-0.198 0,-0.02 -0.015,-0.03 -0.012,-0.01 -0.051,-0.01 -0.027,0 -0.111,0.053 -0.04,0.025 -0.066,0.025 l -0.024,-0.004 q -0.008,-0.006 -0.018,-0.021 -0.01,-0.017 -0.01,-0.027 0,-0.059 0.114,-0.108 0.096,-0.042 0.168,-0.042 0.06,0 0.092,0.045 0.028,0.04 0.028,0.102 z" id="path80"/>
    </g>
    <g fill="none" stroke-linecap="round" stroke-linejoin="round" id="g91" transform="translate(5.3566764,5.2305178)">
        <path d="M 81.029,10.33 C 73.367,10.754 66.067,13.893 59.627,17.921 45.923,26.83 36.392,40.658 28.592,54.737 22.227,66.317 18.589,79.421 18.032,92.62 c -0.186,5.477 0.226,11.535 4.078,15.818 3.735,4.46 9.03,7.932 14.894,8.573 5.375,-0.247 10.568,-2.096 15.483,-4.186 9.005,-3.95 16.654,-10.51 22.625,-18.261 4.18,-5.25 7.852,-10.906 12.512,-15.764 0.902,-0.999 2.308,-2.894 0.721,-3.943 -2.441,-1.564 -5.534,-0.714 -8.26,-0.915 -4.545,-0.165 -9.322,1.341 -12.26,4.967 -4.843,5.667 -9.445,12.306 -16.683,14.96 -2.924,1.03 -6.964,1.701 -9.165,-1.092 -2.34,-3.297 -2.085,-7.592 -2.178,-11.43 -0.177,-6.077 1.76,-11.929 4.324,-17.37 3.607,-8.184 7.864,-16.3 14.473,-22.486 3.96,-3.902 8.243,-8.22 13.972,-9.175 2.101,-0.395 4.072,0.922 4.962,2.725 1.751,2.415 2.665,5.332 4.336,7.788 1.05,0.658 2.314,-0.525 3.435,-0.591 4.937,-1.573 10.2,-2.489 14.729,-5.107 1.77,-0.971 2.029,-3.225 1.32,-4.95 C 99.497,26.554 96.88,21.133 93.535,16.238 90.751,12.261 85.801,10.203 81.029,10.33 Z" fill="url(#a)" opacity="0.98" transform="translate(-15.49,-8.062)" id="path81" style="fill:url(#a)"/>
        <path d="m 138.356,51.257 c -6.344,0.1 -12.22,3.123 -17.47,6.436 -9.58,6.54 -17.36,15.919 -21.552,26.768 -1.466,4.386 -2.573,9.648 -0.123,13.892 1.51,2.587 4.664,3.313 7.453,3.116 5.485,-0.019 10.553,-2.45 15.537,-4.434 0.971,-0.074 0.562,1.45 0.925,2.027 0.495,2.332 3.188,3.57 5.315,2.582 2.402,-0.788 4.986,-1.774 6.7,-3.704 2.047,-4.28 2.006,-9.285 4.31,-13.428 3.21,-6.545 8.096,-12.09 11.495,-18.515 1.536,-2.977 0.889,-6.697 -1.376,-9.12 -2.614,-3.262 -6.478,-5.823 -10.804,-5.62 h -0.259 z m -5.91,14.262 c 1.195,-0.15 2.077,0.966 1.725,2.127 -0.515,5.056 -3.808,9.291 -6.968,13.064 -3.235,3.38 -6.656,7.324 -11.423,8.431 -1.918,0.567 -3.453,-1.366 -3.077,-3.16 0.705,-4.739 3.78,-8.656 6.76,-12.229 3.41,-3.68 7.59,-7.122 12.593,-8.214 0.13,-0.012 0.26,-0.02 0.39,-0.02 z" fill="url(#b)" opacity="0.98" transform="translate(-15.49,-8.062)" id="path82" style="fill:url(#b)"/>
        <g stroke-width="5" id="g90">
            <path d="m 196.17,51.915 c -6.288,0.119 -11.907,3.523 -16.644,7.384 0.303,-2.022 2.22,-5.018 -0.048,-6.496 -2.886,-0.716 -6.202,-0.3 -8.847,1.092 -4.431,3.233 -6.278,8.756 -8.846,13.391 -4.228,9.075 -9.086,17.944 -12.118,27.515 -0.33,1.521 -0.777,3.48 0.134,4.77 5.232,0.08 10.187,-2.696 14.012,-6.078 1.941,-1.67 3.483,-3.795 3.807,-6.388 2.44,-6.725 6.334,-13.02 11.405,-18.079 3.216,-2.738 7.001,-5.303 11.277,-5.898 2.524,-0.098 2.386,3.107 1.996,4.803 -2.332,8.129 -7.181,15.356 -9.55,23.516 -0.617,2.733 -2.222,6.196 -0.332,8.748 1.839,1.613 4.283,-0.471 6.079,-1.154 3.263,-1.716 6.96,-3.726 7.97,-7.58 2.38,-7.15 4.679,-14.323 7.637,-21.26 1.68,-4.763 3.611,-10.938 -0.024,-15.292 -1.892,-2.341 -5.018,-3.103 -7.908,-2.994 z" fill="url(#c)" opacity="0.98" transform="translate(-15.49,-8.062)" id="path83" style="fill:url(#c)"/>
            <path d="m 253.42,51.403 c -6.709,0.464 -13.06,3.705 -17.981,8.195 0.673,-2.091 2.468,-4.516 1.45,-6.748 -2.313,-2.263 -5.815,-0.358 -8.384,0.364 -5.677,2.224 -7.845,8.555 -10.491,13.51 -4.175,9.297 -8.892,18.447 -11.739,28.265 -0.312,1.453 -1.071,4.386 1.094,4.683 3.965,-0.516 7.61,-2.598 10.995,-4.636 4.98,-3.68 5.85,-10.343 8.967,-15.351 4.103,-7.78 10.714,-14.885 19.384,-17.254 1.94,0.048 2.702,2.77 2.331,4.408 -2.821,9.575 -8.594,18.12 -10.83,27.908 -0.176,1.97 -0.839,5.001 1.233,6.195 2.68,-0.292 4.986,-2.168 7.41,-3.272 3.803,-1.815 6.33,-5.471 7.211,-9.532 1.962,-7.392 5.335,-14.263 7.678,-21.517 1.466,-4.371 1.26,-9.858 -2.522,-13.022 -1.553,-1.5 -3.635,-2.347 -5.806,-2.196 z" fill="url(#d)" opacity="0.98" transform="translate(-15.49,-8.062)" id="path84" style="fill:url(#d)"/>
            <path d="m 304.476,52.08 c -13.799,0.293 -26.3,9.178 -33.595,20.514 -3.491,5.567 -6.235,12.015 -5.527,18.726 0.455,5.056 5.075,9.676 10.301,9.46 9.612,-0.035 18.736,-4.62 26.031,-10.629 6.225,-5.476 12.609,-11.462 15.724,-19.326 1.519,-4.728 1.942,-10.635 -1.669,-14.555 -2.36,-3.086 -6.25,-4.453 -10.056,-4.19 -0.403,-0.012 -0.806,-10e-4 -1.209,0 z m -2.167,10.274 c 2.893,0.127 3.165,3.797 2.688,5.93 -1.705,7.826 -7.068,14.659 -13.726,18.963 -3.365,1.764 -7.672,3.44 -11.276,1.594 -2.372,-2.613 -0.925,-6.49 0.179,-9.35 3.47,-7.803 9.914,-14.839 18.604,-16.595 1.155,-0.28 2.335,-0.553 3.531,-0.542 z" fill="url(#e)" opacity="0.98" transform="translate(-15.49,-8.062)" id="path85" style="fill:url(#e)"/>
            <path d="m 366.211,51.772 c -6.282,0.164 -11.918,3.507 -16.627,7.411 0.399,-1.988 2.19,-5.015 -0.177,-6.39 -3.96,-0.934 -8.613,0.211 -11.284,3.436 -3.798,4.487 -5.688,10.23 -8.435,15.364 -3.667,8.106 -7.828,16.083 -10.378,24.63 -0.608,1.47 0.082,3.74 1.99,3.464 5.335,-0.896 10.428,-3.732 14.081,-7.724 2.264,-2.672 2.067,-6.536 4.09,-9.368 4.383,-7.615 9.793,-15.527 18.142,-19.116 1.55,-0.74 4.593,-1.378 5.029,0.864 0.122,4.846 -2.57,9.245 -4.358,13.588 -2.86,6.444 -6.352,12.976 -6.849,20.119 0.203,1.575 1.587,3.57 3.379,2.549 4.05,-1.89 8.939,-3.581 11.136,-7.791 2.49,-6.215 3.966,-12.81 6.763,-18.922 2.22,-5.522 5.22,-12.086 2.184,-17.895 -1.7,-3.033 -5.361,-4.335 -8.686,-4.22 z" fill="url(#f)" opacity="0.98" transform="translate(-15.49,-8.062)" id="path86" style="fill:url(#f)"/>
            <path d="m 437.366,10.956 c -11.484,0.115 -22.715,3.324 -33.415,7.266 -4.638,2.085 -9.84,3.79 -13.353,7.633 -1.216,1.34 0.17,3.02 1.725,2.95 2.735,0.597 5.779,0.235 8.361,1.223 -1.7,5.235 -4.67,10.083 -6.835,15.189 -7.627,16.938 -14.93,34.135 -19.868,52.075 -1.253,3.765 -0.513,8.915 -4.356,11.303 -2.451,1.361 -5.918,1.655 -7.515,4.246 -0.84,2.638 2.506,3.6 4.46,3.953 7.7,1.584 15.62,0.528 23.405,0.374 13.674,-0.936 27.163,-4.376 39.807,-9.618 6.705,-2.96 11.823,-9.762 12.33,-17.127 0.325,-6.563 -3.275,-12.642 -8.176,-16.761 -3.26,-3.39 -7.865,-4.822 -11.45,-7.715 5.3,-3.476 11.237,-6.157 16.313,-10.076 8.278,-6.155 16.528,-13.183 21.175,-22.589 1.648,-3.943 1.798,-8.639 0.308,-12.646 -3.254,-5.331 -9.108,-9.101 -15.414,-9.41 -2.492,-0.25 -5,-0.284 -7.502,-0.27 z m -4.26,12.41 c 3.606,-0.056 8.37,0.314 9.959,4.21 1.079,2.674 0.518,5.721 0.104,8.434 -2.87,8.245 -10.767,13.108 -17.83,17.427 -5.865,3.212 -12.109,6.574 -18.777,7.238 -2.616,0.155 -2.576,-3.02 -1.987,-4.803 2.158,-7.732 5.432,-15.27 9.27,-22.308 2.61,-4.809 7.02,-8.978 12.637,-9.707 2.187,-0.392 4.415,-0.49 6.624,-0.491 z m -26.937,50.363 c 5.706,0.68 11.283,2.996 15.66,6.75 3.524,3.089 5.34,8.75 2.323,12.79 -2.32,3.44 -6.75,4.497 -10.323,6.018 -6.002,1.977 -12.334,3.654 -18.676,3.457 -1.136,-0.046 -2.853,-0.364 -2.357,-1.918 0.974,-7.52 2.996,-14.948 5.507,-22.104 a 7.662,7.662 0 0 1 7.866,-4.993 z" fill="url(#g)" opacity="0.98" transform="translate(-15.49,-8.062)" id="path87" style="fill:url(#g)"/>
            <path d="m 488.46,51.082 c -9.523,0.95 -17.889,6.563 -24.95,12.679 -8.304,7.624 -14.616,18.092 -15.593,29.478 -0.577,4.368 3.611,7.484 7.56,7.912 6.066,0.984 11.794,-2.09 17.157,-4.22 0.937,1.91 1.516,5.296 4.339,4.957 3.09,-0.491 6.427,-1.806 8.376,-4.353 1.688,-3.792 1.758,-8.097 3.485,-11.899 2.957,-7.936 10.9,-13.193 12.614,-21.697 1.053,-3.614 -1.394,-6.85 -4.053,-8.984 -2.537,-2.02 -5.57,-3.955 -8.935,-3.873 z m -5.696,14.227 c 2.237,0.238 1.533,3.114 1.019,4.542 -2.735,6.95 -7.724,12.97 -13.694,17.396 -2.073,1.21 -5.267,2.963 -7.333,0.97 -1.051,-3.188 1.173,-6.376 2.72,-9.038 3.934,-5.667 8.994,-11.108 15.579,-13.62 0.553,-0.16 1.13,-0.285 1.709,-0.25 z" fill="url(#h)" opacity="0.98" transform="translate(-15.49,-8.062)" id="path88" style="fill:url(#h)"/>
            <path d="m 534.798,38.88 c -4.375,0.397 -8.396,2.789 -11.761,5.5 -5.292,6.182 -8.706,13.715 -12.411,20.9 -4.348,9.205 -8.332,18.586 -12.297,27.96 -0.722,2.336 -2.51,5.718 -0.163,7.665 2.388,0.563 4.552,-1.518 6.713,-2.247 3.854,-1.825 8.434,-3.842 9.615,-8.391 4.213,-12.864 10.06,-25.13 16.195,-37.178 1.911,-4.028 5.078,-7.586 6.029,-12.005 0.062,-1.112 -0.638,-2.39 -1.92,-2.203 z" fill="url(#i)" opacity="0.98" transform="translate(-15.49,-8.062)" id="path89" style="fill:url(#i)"/>
            <path d="m 562.913,39.971 c -5.119,-0.216 -10.022,2.46 -12.804,6.723 -6.637,9.764 -11.11,20.786 -16.3,31.344 -2.819,6.504 -6.418,12.813 -7.943,19.785 -0.512,1.73 1.01,4.12 2.963,3.14 4.31,-1.514 8.96,-3.157 12.151,-6.57 2.91,-4.622 3.991,-10.129 6.399,-15.006 5.201,-12.277 10.686,-24.417 17.721,-35.762 0.863,-1.029 1.721,-3.525 -0.424,-3.56 -0.584,-0.084 -1.175,-0.097 -1.764,-0.094 z" fill="url(#j)" opacity="0.98" transform="translate(-15.49,-8.062)" id="path90" style="fill:url(#j)"/>
        </g>
    </g>
    <g id="path91" style="opacity:1" transform="translate(5.3566764,5.2305178)">
        <path style="baseline-shift:baseline;display:inline;overflow:visible;vector-effect:none;fill:#010000;stroke-linecap:round;stroke-linejoin:round;paint-order:markers stroke fill;enable-background:accumulate;stop-color:#000000;stop-opacity:1" d="M 17.528,114.98 C 10.112,112.42 4.254,106.198 1.841,98.315 -1,89.03 -0.503,73.733 2.993,62.938 7.577,48.783 13.42,38.35 24.38,24.748 41.665,3.297 65.49,-6.042 77.045,4.103 c 3.27,2.872 12.466,19.404 12.466,22.414 0,2.006 -3.52,3.98 -12,6.73 -13.02,4.224 -13.527,4.248 -14.986,0.727 -4.36,-10.525 -18.26,1.441 -28.248,24.32 -5.854,13.41 -6.162,23.888 -0.723,24.672 4.898,0.705 8.899,-2.22 14.426,-10.547 5.09,-7.668 7.35,-8.612 19.798,-8.265 9.518,0.264 10.302,0.442 11.22,2.534 0.543,1.238 1.483,2.25 2.088,2.25 0.605,0 4.108,-3.793 7.783,-8.43 10.883,-13.733 22.999,-20.29 35.782,-19.366 7.84,0.567 13.787,4.575 15.705,10.583 0.74,2.317 1.744,4.213 2.233,4.213 0.488,0 1.996,-2.187 3.351,-4.86 1.69,-3.335 3.553,-5.378 5.935,-6.508 4.963,-2.355 12.028,-3.126 15.493,-1.69 2.356,0.975 3.896,0.912 8.085,-0.332 7.972,-2.367 15.701,-0.134 18.54,5.358 0.835,1.613 1.518,5.468 1.518,8.566 0,7.55 1.405,6.877 6.857,-3.283 4.773,-8.894 6.787,-10.325 16.593,-11.795 4.05,-0.608 5.093,-0.433 6.166,1.034 1.21,1.656 1.54,1.665 5.357,0.138 8.357,-3.344 18.172,-0.881 19.63,4.925 0.65,2.595 0.038,9.88 -1.194,14.197 -1.087,3.806 0.971,2.563 9.236,-5.58 C 270.443,44 281.94,39.553 295.252,41.76 c 8.364,1.386 11.316,3.527 13.405,9.725 0.906,2.687 2.03,5.011 2.5,5.166 0.47,0.154 1.979,-1.846 3.354,-4.445 1.375,-2.599 3.985,-5.718 5.8,-6.931 4.117,-2.751 13.374,-4.037 17.727,-2.463 2.554,0.923 3.902,0.845 6.882,-0.4 4.981,-2.081 11.954,-2.12 15.06,-0.086 1.378,0.903 3.435,3.464 4.572,5.692 1.136,2.228 2.604,3.873 3.262,3.656 1.525,-0.504 11.803,-23.183 12.028,-26.538 0.153,-2.28 -0.205,-2.53 -3.743,-2.61 -4.723,-0.106 -5.195,-1.08 -2.593,-5.347 2.714,-4.452 6.7,-6.685 19.005,-10.649 12.896,-4.154 22.732,-5.863 34.5,-5.992 8.31,-0.092 9.42,0.138 14.5,3.003 7.64,4.31 12,10.18 12,16.16 0,6.833 -3.358,12.737 -12.427,21.852 -7.653,7.693 -14.55,12.251 -20.823,13.761 -3.67,0.884 -3.47,2.297 0.56,3.98 1.821,0.762 4.968,3.32 6.994,5.687 2.026,2.367 3.866,4.113 4.09,3.88 0.223,-0.232 2.173,-2.782 4.333,-5.665 2.16,-2.883 6.763,-7.519 10.23,-10.301 18.52,-14.863 33.703,-15.66 41.543,-2.181 1.65,2.836 3.332,5.173 3.739,5.19 0.406,0.02 2.537,-3.542 4.735,-7.914 6.658,-13.244 12.893,-18.608 22.844,-19.655 6.447,-0.678 7.715,0.428 7.53,6.568 -0.181,6.065 0.947,6.389 5.587,1.602 4.045,-4.173 12.073,-7.794 16.353,-7.375 2.708,0.265 3.268,0.818 4.005,3.955 0.766,3.26 0.125,5.323 -6.062,19.5 -3.805,8.72 -8.561,20.128 -10.569,25.353 -5.115,13.314 -6.555,15.331 -13.188,18.469 -7.147,3.381 -11.94,4.22 -14.059,2.461 -1.284,-1.066 -1.533,-2.923 -1.258,-9.38 0.414,-9.731 -1.052,-10.633 -5.038,-3.098 -1.984,3.75 -3.987,5.763 -8.259,8.297 -3.102,1.84 -6.927,3.436 -8.5,3.548 -2.518,0.179 -3.146,-0.394 -5.249,-4.797 -2.137,-4.474 -2.505,-4.801 -3.5,-3.116 -3.588,6.082 -9.251,10.616 -13.257,10.616 -0.96,0 -2.905,-1.111 -4.323,-2.47 -2.52,-2.415 -2.688,-2.437 -7.464,-1 -2.687,0.809 -6.636,1.47 -8.776,1.47 -4.926,0 -9.933,-2.466 -9.15,-4.508 1.181,-3.077 -2.376,-1.384 -4.728,2.25 -3.05,4.715 -11.16,9.608 -21.175,12.777 -19.09,6.04 -59.56,7.524 -62.87,2.304 -1.602,-2.529 -0.955,-8.434 1.132,-10.323 2.858,-2.587 2.632,-4.875 -0.407,-4.112 -1.324,0.332 -3.061,0.855 -3.86,1.161 -0.8,0.307 -2.866,-0.631 -4.593,-2.084 -2.71,-2.28 -3.14,-3.295 -3.14,-7.397 0,-4.757 2.161,-12.261 5.567,-19.328 1.248,-2.588 1.49,-4.082 0.779,-4.793 -1.92,-1.92 -15.346,16.91 -15.346,21.522 0,1.147 -0.692,3.074 -1.537,4.28 -1.701,2.43 -13.272,9.251 -15.69,9.251 -2.175,0 -6.773,-6.38 -6.773,-9.396 0,-1.391 0.92,-4.866 2.046,-7.72 3.183,-8.075 1.292,-8.182 -7.729,-0.437 -16.045,13.777 -32.985,20.362 -41.306,16.059 -5.002,-2.586 -6.011,-5.06 -6.011,-14.728 0,-13.18 -2.91,-11.19 -6.581,4.5 -0.43,1.834 -2.534,4.126 -6.197,6.75 -3.052,2.185 -5.934,3.972 -6.407,3.972 -0.472,0 -2.649,-1.184 -4.837,-2.633 -3.502,-2.317 -3.978,-3.097 -3.978,-6.513 0,-2.134 1.743,-8.607 3.874,-14.385 2.289,-6.204 3.476,-10.752 2.9,-11.108 -2.76,-1.706 -11.009,8.985 -14.333,18.576 -3.284,9.477 -6.194,12.295 -15.726,15.234 -3.66,1.128 -3.91,1.045 -7.542,-2.502 -2.067,-2.018 -4.075,-3.669 -4.463,-3.669 -0.388,0 -2.898,1.575 -5.577,3.5 -5.567,4 -8.755,4.372 -12.461,1.457 -4.414,-3.472 -4.365,-7.337 0.243,-19.121 5.509,-14.09 5.311,-15.608 -1.279,-9.821 -3.09,2.713 -4.77,5.643 -12.018,20.961 -2.292,4.843 -8.53,9.474 -14.302,10.617 -2.6,0.515 -3.673,0.141 -5.855,-2.04 -2.377,-2.377 -2.597,-3.164 -1.999,-7.15 0.37,-2.464 1.542,-7.007 2.605,-10.097 3.492,-10.152 2.344,-10.734 -4.562,-2.313 -3.723,4.54 -4.505,6.209 -4.505,9.615 0,4.969 -2.58,8.628 -8.055,11.42 -5.07,2.586 -6.4,2.49 -8.67,-0.624 l -1.89,-2.595 -5.374,1.595 C 84.716,102.333 76.134,94.39 81,78.347 c 0.819,-2.7 1.494,-5.021 1.5,-5.159 0.006,-0.137 -0.638,-0.25 -1.43,-0.25 -0.793,0 -2.827,2.588 -4.52,5.75 -8.007,14.957 -26.534,31.364 -40.871,36.194 -7.485,2.521 -11.076,2.54 -18.15,0.099 z m 369.478,-7.567 c 10.31,-1.8 25.359,-6.603 30.347,-9.686 1.87,-1.156 4.696,-4.144 6.279,-6.641 6.677,-10.529 1.183,-23.653 -12.732,-30.414 -2.414,-1.173 -4.39,-2.41 -4.39,-2.748 0,-0.338 1.628,-1.391 3.618,-2.34 17.364,-8.28 34.647,-25.193 35.404,-34.646 0.511,-6.385 -0.097,-8.31 -3.794,-12.008 -4.595,-4.595 -9.188,-5.979 -19.868,-5.986 -17.43,-0.012 -50.089,11.77 -46.905,16.92 0.365,0.591 2.887,1.074 5.605,1.074 2.718,0 4.94,0.462 4.94,1.025 0,0.563 -1.518,4.052 -3.374,7.75 -10.303,20.53 -22.641,52.736 -24.222,63.225 -0.961,6.383 -1.76,7.49 -6.397,8.88 -4.224,1.266 -6.036,3.49 -4.276,5.25 3.053,3.053 23.255,3.228 39.765,0.345 z M 377.004,93.782 c -0.588,-1.533 3.852,-19.705 5.814,-23.798 2.668,-5.564 8.633,-6.02 18.39,-1.407 9.138,4.32 12.131,12.917 6.372,18.297 -5.705,5.33 -29.15,10.626 -30.576,6.908 z m 17.752,-2.292 c 6.545,-1.828 12.755,-6.664 12.755,-9.933 0,-3.16 -2.63,-6.428 -7.826,-9.723 -8.189,-5.193 -10.883,-3.523 -14.323,8.884 -2.159,7.785 -2.354,11.855 -0.601,12.548 1.414,0.56 2.02,0.452 9.995,-1.776 z m -5.579,-39.218 c -1.529,-1.53 -0.403,-6.19 4.032,-16.7 7.163,-16.972 11.485,-20.547 24.917,-20.61 6.948,-0.032 10.385,2.61 10.385,7.984 0,5.39 -1.525,8.88 -5.802,13.283 -8.665,8.918 -30.304,19.27 -33.532,16.043 z m 15.155,-5.744 c 13.17,-6.632 21.167,-14.67 21.175,-21.283 0.009,-8.035 -14.589,-8.726 -20.682,-0.98 -2.926,3.72 -10.645,22.37 -9.978,24.108 0.845,2.202 1.831,2.01 9.485,-1.845 z M 28.807,107.45 c 13.573,-3.535 25.189,-12.401 34.717,-26.499 2.411,-3.568 5.707,-7.695 7.323,-9.171 4.27,-3.9 3.087,-5.842 -3.555,-5.835 -8.976,0.01 -12.334,1.48 -16.663,7.292 C 43.873,82.31 37.35,86.93 31.284,86.935 25.71,86.94 23.99,83.725 24.086,73.48 c 0.066,-7.123 0.537,-9.094 4.119,-17.25 5.437,-12.38 9.246,-18.071 16.868,-25.2 6.599,-6.174 12.006,-8.435 15.35,-6.42 0.874,0.526 2.596,3.038 3.828,5.581 l 2.241,4.625 6.909,-1.914 c 9.056,-2.51 11.952,-3.89 12.627,-6.018 C 86.838,24.334 79.316,8.717 76.034,6.136 71.331,2.436 66.317,1.616 59.337,3.404 41.24,8.041 26.005,22.764 12.094,49.062 4.439,63.532 0.447,86.247 3.948,95.412 c 2.624,6.871 10.432,12.66 18.103,13.423 0.572,0.057 3.612,-0.567 6.756,-1.386 z m 71.704,-16.22 c 2.475,-0.865 5.027,-1.985 5.672,-2.49 0.81,-0.633 1.275,-0.233 1.5,1.289 0.573,3.863 3.214,4.607 8.037,2.263 4.086,-1.986 4.346,-2.378 5.455,-8.236 1.197,-6.318 3.055,-9.89 10.954,-21.058 5.206,-7.36 5.337,-10.409 0.655,-15.295 -5.54,-5.783 -12.22,-5.855 -23.295,-0.25 -13.628,6.898 -26.978,25.095 -26.978,36.773 0,9.01 5.794,11.265 18,7.003 z m -2.99,-10.78 c -3.08,-3.71 5.713,-16.964 14.265,-21.5 5.45,-2.892 8.063,-2.26 7.109,1.717 -1.03,4.297 -3.172,8.031 -7.095,12.373 -6.51,7.206 -12.06,10.086 -14.28,7.41 z m 13.474,-12.26 c 4.85,-6.179 5.884,-9.054 2.63,-7.312 -1.698,0.91 -9.114,11.064 -9.114,12.48 0,1.882 2.538,-0.142 6.484,-5.169 z m 342.62,21.904 3.606,-1.76 1.058,2.802 c 1.25,3.313 2.964,3.49 8.152,0.844 3.422,-1.746 3.917,-2.481 4.543,-6.75 0.912,-6.223 3.491,-11.928 7.365,-16.29 5.141,-5.79 8.417,-12.61 7.676,-15.981 -0.83,-3.781 -6.489,-8.739 -10.923,-9.57 -7.046,-1.322 -20.358,5.468 -30.014,15.31 -5.976,6.092 -11.77,17.614 -12.334,24.528 -0.366,4.493 -0.101,5.51 1.92,7.375 3.885,3.58 10.972,3.39 18.952,-0.508 z m -5.354,-8.918 c -5.153,-1.13 2.81,-15.107 12.117,-21.272 7.962,-5.274 10.907,-3.279 7.034,4.765 -1.264,2.624 -4.494,7.101 -7.178,9.95 -4.89,5.189 -8.699,7.275 -11.973,6.557 z m 12.734,-12.987 c 4.625,-5.891 5.707,-8.644 2.986,-7.6 -1.582,0.607 -9.47,11.03 -9.47,12.513 0,2.135 2.349,0.356 6.484,-4.913 z M 173.357,90.516 c 6.202,-3.143 6.849,-4.018 9.18,-12.427 1.076,-3.885 3.31,-10.019 4.965,-13.632 5.666,-12.372 3.092,-20.519 -6.483,-20.519 -4.82,0 -11.223,2.643 -15.418,6.363 -2.312,2.05 -2.378,2.055 -1.615,0.137 1.806,-4.542 1.232,-6.01 -2.287,-5.846 -7.891,0.368 -8.925,1.496 -17.23,18.81 -13.4,27.936 -13.768,30.72 -3.505,26.555 5.522,-2.241 10.547,-6.826 10.547,-9.624 0,-2.52 5.667,-12.718 9.604,-17.28 4.388,-5.087 13.05,-9.646 15.097,-7.948 2.247,1.865 1.44,5.59 -3.217,14.864 -5.378,10.709 -8,19.643 -6.35,21.632 1.416,1.705 1.107,1.755 6.712,-1.085 z m 55.937,0.03 c 6.385,-3.237 7.769,-5.027 9.71,-12.55 0.913,-3.543 3.031,-9.393 4.706,-13 4.138,-8.91 4.31,-15 0.528,-18.783 -2.263,-2.265 -3.572,-2.743 -7.13,-2.605 -4.635,0.18 -11.547,3.167 -15.483,6.693 l -2.386,2.137 1.136,-2.184 c 0.625,-1.201 1.136,-3.114 1.136,-4.25 0,-2.57 -3.246,-2.751 -8.877,-0.499 -4.515,1.807 -6.232,4.656 -16.026,26.588 -5.83,13.056 -7.176,18.06 -5.188,19.29 1.265,0.781 10.116,-3.135 12.83,-5.677 1.232,-1.153 3.144,-4.512 4.248,-7.464 3.718,-9.937 10.396,-18.45 17.162,-21.88 5.914,-2.996 6.628,-3.006 7.951,-0.103 0.892,1.959 0.177,4.218 -4.576,14.453 -5.613,12.084 -7.305,17.749 -6.18,20.683 0.765,1.99 0.866,1.978 6.439,-0.849 z m 46.868,-2.02 c 8.234,-3.91 19.133,-13.95 23.814,-21.938 3.526,-6.017 3.896,-13.342 0.88,-17.405 -3.24,-4.363 -6.08,-5.391 -13.604,-4.927 -17.366,1.07 -34.991,17.635 -37.39,35.14 -0.724,5.278 2.121,10.781 6.437,12.45 4.361,1.686 12.018,0.407 19.863,-3.32 z m -12.577,-8.448 c -2.756,-5.15 4.586,-18.332 12.773,-22.933 2.076,-1.168 5.618,-2.417 7.869,-2.777 3.517,-0.563 4.252,-0.357 5.226,1.462 2.507,4.684 -3.68,16.59 -11.601,22.323 -5.53,4.004 -12.64,4.963 -14.267,1.925 z m 14.763,-6.683 c 2.78,-2.5 6.037,-6.136 7.24,-8.082 1.95,-3.154 2.023,-3.703 0.68,-5.047 -1.345,-1.344 -1.832,-1.34 -4.485,0.031 -5.786,2.992 -12.278,12.58 -10.918,16.123 0.898,2.338 2.024,1.883 7.483,-3.025 z m 65.009,17.121 c 6.18,-3.132 6.85,-4.029 9.13,-12.221 1.048,-3.771 3.283,-9.884 4.965,-13.585 3.92,-8.623 4.124,-14.797 0.604,-18.317 -4.548,-4.548 -15.002,-2.732 -22.455,3.9 -2.306,2.053 -2.376,2.059 -1.615,0.145 1.806,-4.542 1.232,-6.01 -2.287,-5.846 -6.713,0.313 -9.066,2.148 -13.136,10.244 -6.152,12.238 -13.763,29.507 -14.515,32.935 -0.961,4.375 0.91,4.829 7.64,1.852 5.438,-2.405 9.823,-6.614 9.823,-9.43 0,-2.988 6.646,-13.824 11.5,-18.747 4.71,-4.778 10.435,-7.696 13.255,-6.756 2.397,0.8 1.206,6.366 -3.27,15.28 -5.379,10.708 -8.001,19.642 -6.35,21.63 1.415,1.706 1.106,1.756 6.71,-1.084 z M 490.349,90.02 c 6.89,-3.478 7.615,-4.27 9.138,-9.964 0.645,-2.411 2.224,-6.686 3.51,-9.5 1.286,-2.815 4.21,-9.393 6.496,-14.618 2.286,-5.225 5.976,-12.308 8.198,-15.74 3.99,-6.16 4.431,-9.26 1.319,-9.26 -2.745,0 -8.906,3.018 -11.847,5.803 -2.733,2.588 -12.708,21.23 -16.594,31.012 -1.023,2.577 -3.22,7.61 -4.881,11.185 -3.509,7.552 -4.63,11.46 -3.712,12.943 0.972,1.575 2.035,1.339 8.373,-1.861 z m 28.654,0.465 c 6.242,-2.952 6.907,-3.693 9.05,-10.071 0.92,-2.737 2.481,-6.776 3.47,-8.976 0.988,-2.2 3.887,-8.725 6.442,-14.5 2.555,-5.775 6.423,-13.231 8.596,-16.57 2.172,-3.338 3.95,-6.6 3.95,-7.25 0,-1.468 -4.927,-1.535 -8.685,-0.118 -5.366,2.022 -8.876,6.85 -16.504,22.695 -11.597,24.09 -14.811,31.587 -14.811,34.538 0,3.426 1.678,3.476 8.492,0.252 z" id="path93"/>
    </g>
</svg>
