<?xml version="1.0" encoding="UTF-8" standalone="no"?>
<!-- Created with Inkscape (http://www.inkscape.org/) -->

<svg
   version="1.1"
   id="svg1"
   width="2618.7349"
   height="519.7041"
   viewBox="0 0 2618.7348 519.7041"
   sodipodi:docname="cassettevision.svg"
   inkscape:version="1.4.3 (0d15f75042, 2025-12-25)"
   xmlns:inkscape="http://www.inkscape.org/namespaces/inkscape"
   xmlns:sodipodi="http://sodipodi.sourceforge.net/DTD/sodipodi-0.dtd"
   xmlns="http://www.w3.org/2000/svg"
   xmlns:svg="http://www.w3.org/2000/svg">
  <defs
     id="defs1" />
  <sodipodi:namedview
     id="namedview1"
     pagecolor="#959595"
     bordercolor="#000000"
     borderopacity="0.25"
     inkscape:showpageshadow="2"
     inkscape:pageopacity="0.0"
     inkscape:pagecheckerboard="0"
     inkscape:deskcolor="#d1d1d1"
     inkscape:zoom="0.17558594"
     inkscape:cx="603.69298"
     inkscape:cy="-74.037819"
     inkscape:window-width="1920"
     inkscape:window-height="1080"
     inkscape:window-x="0"
     inkscape:window-y="0"
     inkscape:window-maximized="0"
     inkscape:current-layer="g1" />
  <g
     inkscape:groupmode="layer"
     inkscape:label="Image"
     id="g1"
     transform="translate(30.246052,0.77020035)">
    <g
       id="g24"
       transform="translate(-620,14)">
      <g
         id="g22">
        <g
           id="path13"
           style="opacity:1">
          <path
             style="baseline-shift:baseline;display:inline;overflow:visible;vector-effect:none;fill:#ffffff;stroke-linecap:round;paint-order:markers stroke fill;enable-background:accumulate;stop-color:#000000;stop-opacity:1"
             d="m 882.50195,-14.759766 c -17.38759,-0.288166 -34.9362,5.721726 -48.45312,18.0371098 -3.98822,3.6337084 -7.4733,7.7705912 -10.47852,12.2675782 -0.10482,-0.219694 -0.17475,-0.460101 -0.2832,-0.677734 C 820.26267,8.7979395 817.70168,4.3546556 811.20117,-0.60351562 805.94476,-4.6127798 798.6881,-8.4082998 790.20703,-9.8867188 781.72596,-11.365138 771.736,-11.64585 754.64648,-12.001953 l -46.98046,-0.978516 v 0.646485 H 662 605 V 61.333984 135 h 57.66602 45 12.66796 12.30079 24.7246 l 0.60547,-37.087891 0.13086,-7.99414 9,-0.257813 c 10.58449,-0.302414 16.73014,-0.499135 22.06055,-1.18164 5.33041,-0.682505 10.29765,-2.413965 13.83984,-4.158204 3.39578,-1.672135 6.40126,-3.864396 9.1543,-6.328125 5.31709,27.276783 23.16447,49.773513 49.17578,57.068363 7.14532,2.00389 14.814,2.4682 23.54102,2.09765 22.41855,-0.95188 42.51927,-11.83826 54.30273,-30.20117 1.52525,-2.37689 2.87277,-4.83972 4.13281,-7.339843 8.55856,16.981393 23.01749,30.126583 42.03907,35.439453 14.8383,4.14446 31.3291,3.23139 45.7246,-2.30469 11.2591,-4.32993 20.5695,-12.11794 27.2676,-21.82422 V 135 h 25 25 V 93.304687 81.818359 l 11.1269,0.152344 11.7403,0.160156 0.1621,11.742188 L 1131.9277,135 h 24.7676 24.9707 V 61.333984 -12.333984 h -25 -25 V 26 34.333984 H 1120 1108.334 V 26 -12.333984 h -25 -25 V 9.8789063 C 1048.4945,-2.9183991 1033.0771,-11.252924 1015.7344,-13.65625 985.24049,-17.882046 956.82653,-2.6181679 943.25586,23.283203 939.79779,16.614138 935.41266,10.410702 929.99414,4.9921875 917.11667,-7.8852885 899.88955,-14.4716 882.50195,-14.759766 Z m 647.15825,0.376953 c -11.7177,-0.132183 -23.611,2.356689 -34.3711,8.0917974 -23.7416,12.6541147 -36.8987,38.4786206 -36.9395,67.6562496 -0.03,21.636095 6.3622,40.177956 19.7734,54.515626 8.734,9.33734 19.1638,15.80414 31.1915,19.17773 l 19.0507,5.3418 v -3.30469 c 1.2612,-0.0143 2.4376,0.11108 3.7305,0.0508 7.9704,-0.37172 15.4297,-2.26795 22.2383,-5.36718 l 0.7715,3.2207 h 11.4453 v 0.002 L 1595,135 h 4.1855 l 21.4961,-0.002 8.8106,-25.45508 1.7656,-5.10156 12.4942,0.19336 12.873,0.20117 1.7832,5.10937 8.7481,25.05469 h 21.748 c 2.5919,0 4.7546,-0.0402 6.7617,-0.0859 V 135 h 24.9824 24.8614 l 0.1425,-17.71094 5.9473,16.57617 18.6973,0.84375 19.6953,0.88672 7.0117,-19.48632 0.1504,18.89062 h 24.8633 18.9824 6 51.666 57.668 V 111.35742 87.878906 l -47.168,-0.521484 -17.5,-0.19336 v -1.830078 -1.851562 l 14.1875,-0.175781 43.8125,-0.542969 V 60 37.236328 l -43.8125,-0.542969 -14.5547,-0.179687 -0,-0.179688 H 1907.957 1955 V 12 -12.333984 h -57 -51 -6 -23.4141 -25.1445 l -18.5918,54.490234 c -0.8635,2.530579 -1.4314,4.122799 -2.2637,6.548828 -0.7736,-2.171074 -1.2891,-3.484278 -2.0879,-5.75 l -19.4902,-55.289062 h -24.9785 -29.3633 v 73.667968 5.150391 c -1.4881,-3.866189 -2.4766,-6.449446 -4.0547,-10.544922 l -26.0488,-67.605469 h -21.3789 -21.3965 L 1596.7285,56.296875 1595,60.804687 V 43.666016 h -2.2129 c 0.4977,-1.445608 0.8789,-3.012641 0.8789,-4.757813 0,-7.758291 -2.0834,-11.279962 -4.2656,-16.294922 -2.1822,-5.01496 -4.6905,-9.857408 -8.2676,-14.3828122 -9.8704,-12.4869969 -24.5889,-19.2185188 -39.8613,-21.6308598 -3.8181,-0.603085 -7.7055,-0.93836 -11.6113,-0.982422 z m -319.3262,2.048829 V 12 36.333984 h 33.666 3.666 V 70.666016 135 h 25 25 V 70.666016 36.333984 h 3.668 13.4336 c 2.7977,8.038681 4.5577,12.866327 10.5781,30.81836 l 22.9082,68.310546 22.7051,-0.75391 21.8828,-0.72851 22.9707,-67.123048 c 5.4017,-15.784592 10.3172,-30.246513 13.8926,-40.851563 1.7877,-5.302525 3.2387,-9.6357 4.2578,-12.71875 0.5096,-1.541525 0.9078,-2.764042 1.2031,-3.6894527 0.1477,-0.4627052 0.2675,-0.8384542 0.3848,-1.2304688 0.059,-0.1960073 0.114,-0.3840551 0.1992,-0.703125 0.085,-0.3190699 0.315,1.0367932 0.5195,-3.2890625 v -0.00586 l 0,-0.00586 c 0.2404,-5.16614984 -2.4662,-9.4143564 -4.3418,-11.3203124 -1.8757,-1.9059561 -3.2129,-2.5399797 -4.2051,-3.0292969 -1.9843,-0.9786349 -2.9115,-1.1325659 -3.7637,-1.3339849 -1.7043,-0.402837 -2.8265,-0.516522 -4.1093,-0.644531 -2.5657,-0.256018 -5.4109,-0.36914 -8.586,-0.36914 h -20.1797 l -5.5468,13.7070309 c -1.535,3.792927 -2.7296,7.7866548 -5.4434,16.0507811 -2.5703,7.827252 -5.8896,18.081294 -9.3047,28.730469 -2.647,-8.339379 -5.0866,-16.049684 -7.3144,-23.041016 l -11.295,-35.447265 h -68.9062 z m 196.2578,12.23437463 c 0.082,-0.19311096 0.1434,0.0863574 0.1699,0.02148437 -0.037,0.11958693 -0.082,0.26654148 -0.1738,0.5546875 -0.015,0.0471363 -0.054,0.16620493 -0.07,0.21679687 0.024,-0.13676596 0.052,-0.74120723 0.074,-0.79296874 z M 1725.666,17.666016 h 3.1074 l 4.3457,12.328125 -7.4531,1.265625 z m 88.2383,0 H 1817 v 12.242187 l -6.8789,-1.15625 z m -769.0664,9.236328 0.584,1.421875 c -0.1978,-0.480995 -0.486,-0.88339 -0.6992,-1.351563 0.041,-0.03255 0.074,-0.03879 0.1152,-0.07031 z m -40.1953,5.414062 c 6.2645,-0.444151 10.5338,1.340036 13.0332,7.417969 l 6.2715,15.25 20.3789,0.0098 c 2.9505,0.0014 5.2953,0.07723 8.3574,-0.246094 1.3857,-0.146319 3.4334,-0.420087 5.6504,-1.212891 V 61 h -13.3828 -21.8457 l -4.3516,18.142578 c -2.1253,8.859505 -5.1095,11.195482 -14.1191,11.162109 -5.81301,-0.02151 -8.68818,-1.373791 -11.6055,-4.33789 -2.91732,-2.964099 -5.92567,-8.540582 -7.57813,-17.748047 -1.02727,-5.723958 0.61341,-19.215047 2.76367,-24.052734 3.42748,-7.711172 10.16324,-11.405458 16.42776,-11.84961 z m 521.1679,0.105469 c 1.4059,-0.04844 3.07,0.04448 5.1426,0.232422 7.5145,0.681393 9.3074,2.179193 11.5059,6.792969 l 2.0098,4.21875 H 1515.666 V 66 85.404297 c -4.5437,-3.91838 -6.4925,-9.921152 -6.5801,-22.839844 -0.098,-14.505047 1.285,-18.192178 6.9844,-24.53125 3.6292,-4.0365 5.5226,-5.466004 9.7402,-5.611328 z m -647.68159,0.179687 c 1.25361,-0.104796 2.65059,-0.09408 4.23632,0.0332 6.3356,0.508561 9.80901,2.589456 12.95704,6.835937 C 898.47029,43.717184 901,50.970421 901,61.435547 c 0,15.429238 -6.73842,25.42983 -11.79492,27.726562 -0.39646,0.180077 -4.23736,1.127372 -7.875,1.125 -3.63764,-0.0024 -7.43788,-0.979742 -7.6836,-1.09375 -6.79346,-3.152044 -14.68691,-17.84203 -12.1875,-33.951172 1.4984,-9.657394 4.76085,-15.55772 8.00391,-18.654296 2.4323,-2.322432 4.90516,-3.671938 8.66602,-3.986329 z m -120.46289,2.400391 h 3.33203 c 14.47755,0.0016 15.90963,0.557527 16.29882,0.751953 0.51865,0.259091 1.157,4.914096 -0.99609,7.013672 -1.64316,0.230258 -6.01147,0.495931 -13.76562,0.6875 -1.84083,0.04548 -3.06942,-0.0016 -4.75977,0.0098 -0.0318,-1.772776 -0.10937,-3.079669 -0.10937,-5.019532 z m -102.3711,1.332031 h 16.66211 35.70899 v 0.828125 l -37.81446,-0.46875 -14.55273,-0.179687 z m 52.3711,46.503907 v 4.90039 l -34.5,-0.380859 -17.5,-0.19336 v -1.830078 -1.851562 l 14.18554,-0.175781 z m 812.56248,5.496093 h 19.4375 c -3.9285,2.730843 0.115,1.427931 -8.4824,1.81836 -8.7971,0.399498 -4.9817,1.175561 -10.4863,-1.517578 -0.183,-0.08953 -0.2907,-0.210101 -0.4688,-0.300782 z"
             id="path2" />
          <path
             style="baseline-shift:baseline;display:inline;overflow:visible;vector-effect:none;stroke-linecap:round;paint-order:markers stroke fill;enable-background:accumulate;stop-color:#000000;stop-opacity:1"
             d="m 865.37721,120.61749 c -24.19958,-6.78675 -40.04388,-30.34366 -40.04388,-59.536268 0,-17.931744 7.40689,-36.31896 18.81863,-46.71631 20.6901,-18.8509347 55.72586,-18.2765665 75.23582,1.233399 20.17141,20.171409 23.41667,57.919796 7.1577,83.257216 -9.27158,14.448493 -23.94819,22.535443 -42.31368,23.315233 -7.71344,0.32751 -13.99284,-0.1898 -18.85459,-1.55327 z M 895.40774,102.8185 C 907.96947,97.112791 916,80.974086 916,61.434889 916,35.75603 903.80612,19.307275 883.56527,17.682534 863.85574,16.100442 850.35248,28.993773 846.6366,52.943162 c -3.34204,21.539973 5.48261,42.797968 20.69673,49.857038 7.12923,3.30783 20.81252,3.31675 28.07441,0.0183 z m 93.96947,17.79067 c -29.53533,-8.24945 -45.96561,-41.380193 -37.9653,-76.554888 6.68335,-29.384453 32.28773,-47.0061399 62.26419,-42.8520481 18.7318,2.5958267 32.685,12.6990591 38.3132,27.7419871 4.1527,11.098968 4.1821,11.056508 -7.656,11.050782 L 1034,39.990005 1031.549,34.0298 c -9.9408,-24.1733858 -45.62318,-21.643517 -57.04089,4.044183 -3.93055,8.843012 -5.57926,22.99548 -3.82051,32.795197 4.03364,22.475341 15.73831,34.36769 33.8914,34.43487 14.7135,0.0545 25.3146,-8.298772 28.7602,-22.662002 l 1.5934,-6.642046 h 10.0184 10.0185 l -0.9439,6.333333 c -2.3348,15.667863 -14.2728,31.006635 -28.3435,36.417855 -9.9379,3.82181 -26.27958,4.65813 -36.30489,1.85798 z m 523.98849,0.006 c -9.8879,-2.77343 -16.9363,-7.12068 -24.2879,-14.98013 -11.0275,-11.789287 -15.7553,-25.089707 -15.7286,-44.248434 0.035,-25.041582 10.4196,-44.539815 28.9951,-54.4404587 21.8219,-11.6309495 53.4019,-6.64276425 67.0206,10.5861527 4.3491,5.502061 9.3018,16.883738 9.3018,21.376439 0,0.600233 -4.35,1.089198 -9.6667,1.086589 l -9.6667,-0.0047 -3.3333,-6.99537 c -4.3331,-9.093396 -12.3264,-14.248353 -23.6914,-15.278895 -11.6236,-1.053991 -20.0357,2.105267 -27.3922,10.287462 -7.9971,8.894696 -10.9413,18.317619 -10.8306,34.662843 0.1364,20.134593 6.6053,32.880291 20.0187,39.442882 6.2981,3.08135 8.4613,3.45018 17.7592,3.02794 9.1642,-0.41617 11.3637,-1.01905 16.3619,-4.48468 6.4227,-4.453423 11.5846,-13.346055 12.7379,-21.944216 l 0.721,-5.375259 h -15.5089 -15.5089 V 66.000001 58.666668 H 1555.3333 1580 V 89.333335 120 h -6.5337 -6.5337 l -1.6266,-6.78069 -1.6267,-6.78069 -4.8396,4.63932 c -7.8573,7.53201 -15.2438,10.51563 -27.442,11.08453 -7.021,0.32745 -13.2552,-0.20752 -18.032,-1.54737 z M 620,61.333335 V 2.6666667 h 42 42 V 12 21.333334 h -32.04367 -32.04367 l 0.37701,15 0.377,15 29,0.359337 29,0.359336 v 7.947994 7.947994 l -29,0.359337 -29,0.359336 V 85.333335 102 L 673,102.35704 l 32.33333,0.35704 V 111.35704 120 H 662.66667 620 Z M 722.66667,61.167497 V 2.3349909 l 31.66666,0.6598555 c 33.95503,0.7075392 38.9138,1.5719509 47.7706,8.3273626 2.35788,1.798441 5.84908,6.404477 7.75823,10.235635 2.85137,5.721961 3.47117,8.831249 3.47117,17.413441 0,16.03798 -5.40572,26.200859 -16.96375,31.892226 -5.74095,2.826942 -8.67241,3.202286 -29.70291,3.803157 L 743.33333,75.333335 742.96776,97.666669 742.60219,120 h -9.96776 -9.96776 z m 62.23814,-5.928942 C 796.27488,46.892187 795.76115,28.210759 784,22.335406 780.23708,20.455618 775.78289,20.003743 761,20.002072 L 742.66667,20 v 18.444445 c 0,10.144445 0.45,18.897207 1,19.450582 0.55,0.553375 9.20716,0.803375 19.23814,0.555555 15.91932,-0.393293 18.71643,-0.801676 22,-3.212027 z m 288.42849,6.09478 V 2.6666667 h 10 10 V 26.000001 49.333334 H 1120 1146.6667 V 26.000001 2.6666667 h 10 10 V 61.333335 120 h -9.9718 -9.9719 L 1146.3615,93.666669 1146,67.333335 l -26.3333,-0.36152 -26.3334,-0.36152 V 93.305149 120 h -10 -10 z m 189.3334,9.333333 V 21.333334 H 1244 1225.3333 V 12 2.6666667 h 57.9429 57.9429 l 7.9664,25.0000003 c 4.3816,13.750001 10.8572,34.150001 14.3903,45.333335 3.5332,11.183333 6.7445,20.333333 7.1363,20.333333 0.3918,0 6.6221,-18.45 13.8451,-41.000001 7.223,-22.55 13.9219,-42.9500005 14.8864,-45.3333339 l 1.7537,-4.3333334 h 10.068 c 5.5374,0 10.0471,0.45 10.0215,1 -0.026,0.5500001 -8.8756,26.8000003 -19.6667,58.3333343 L 1382,119.33334 l -11.5389,0.38338 -11.5388,0.38338 -19.3559,-57.716719 C 1320.8354,6.5300517 1320.2071,4.9357085 1320.1053,13 L 1320,21.333334 h -18.6667 -18.6666 V 70.666668 120 h -10 -10 z m 348.0673,-9 22.367,-58.3333346 h 11.0826 11.0827 l 22.3481,58.0000016 c 12.2914,31.9 22.3565,58.150005 22.3668,58.333335 0.01,0.18333 -4.9745,0.33333 -11.0775,0.33333 h -11.0963 l -5.237,-15 -5.2371,-14.999998 -23.349,-0.362806 -23.3489,-0.362806 -5.3177,15.36194 -5.3177,15.36194 -10.8165,8.7e-4 L 1588.367,120 Z m 49.9832,9.333333 c -0.4958,-1.283333 -4.2846,-12.083333 -8.4196,-24 -4.1349,-11.916667 -7.8587,-21.666667 -8.275,-21.666667 -0.4163,0 -4.2741,10.05 -8.5729,22.333334 -4.2988,12.283333 -8.0978,23.083333 -8.4422,24 -0.4812,1.280838 3.4525,1.666667 16.9925,1.666667 16.2342,0 17.5478,-0.183353 16.7172,-2.333334 z m 49.9495,-9.666666 V 2.6666667 h 14.3618 14.3619 l 15.962,45.2761503 c 8.7791,24.901882 16.3227,44.851883 16.7635,44.333334 0.4409,-0.518549 7.609,-20.892816 15.9292,-45.27615 L 1803.1727,2.6666667 H 1817.5863 1832 V 61.333335 120 h -9.982 -9.9821 l -0.3513,-44.201883 -0.3513,-44.201886 -5.1595,14.535219 c -2.8378,7.99437 -9.9729,27.910693 -15.8558,44.258495 l -10.6961,29.723275 -8.6503,-0.38994 -8.6502,-0.38994 -15.494,-43.18369 -15.4941,-43.183686 -0.3515,43.517019 L 1730.6302,120 h -9.9818 -9.9817 z m 145.3333,0 V 2.6666667 h 42 42 V 12 21.333334 h -32.0437 -32.0436 l 0.377,15 0.377,15 29,0.359337 29,0.359336 v 7.947994 7.947994 l -29,0.359337 -29,0.359336 V 85.333335 102 l 32.3333,0.35704 32.3333,0.35704 V 111.35704 120 H 1898.6667 1856 Z"
             id="path3" />
        </g>
      </g>
    </g>
    <g
       id="g23"
       transform="translate(-1.5110939)"
       style="stroke:#ffffff;stroke-width:60;stroke-linecap:round;stroke-linejoin:round;stroke-dasharray:none;stroke-opacity:1">
      <g
         id="path1"
         style="opacity:1">
        <path
           style="baseline-shift:baseline;display:inline;overflow:visible;vector-effect:none;fill:#ffffff;stroke:none;paint-order:markers stroke fill;enable-background:accumulate;stop-color:#000000;stop-opacity:1"
           d="m 471.26562,155.33398 c -32.61353,0 -62.88437,12.65524 -84.14453,34.26368 -0.57428,-16.07904 -13.72931,-28.84288 -29.81836,-28.93164 l -22.33398,0.0234 -22.33398,0.0234 c -9.6116,0.0108 -18.63619,4.62588 -24.27149,12.41218 l -14.66211,20.25977 c -0.76345,-0.56129 -1.37355,-1.0932 -2.16601,-1.66407 -7.82641,-5.63793 -16.0611,-11.24328 -24.41797,-15.5664 -14.89576,-7.70579 -30.57423,-13.29293 -47.3711,-16.96875 -11.59345,-2.53712 -22.86885,-3.16503 -45.80273,-3.1211 -26.19113,0.0502 -35.92636,1.13545 -48.75,4.61914 -62.912707,17.09097 -112.1235537,66.89833 -128.367188,129.98438 -6.025825,23.40274 -7.21401,50.37685 -3.273438,74.22265 13.51037,81.75602 80.447394,144.94211 162.521486,152.87305 16.09015,1.55512 21.96483,1.5637 38.5957,0.006 21.18829,-1.98473 41.66087,-6.83488 59.73633,-14.66797 C 248.5029,496.99271 261.84453,488.93058 274,479.39453 v 3.27149 c 0.002,16.56786 13.43214,29.99834 30,30 h 26.66602 26.66796 c 13.75111,-0.26463 25.56137,-9.84517 28.65625,-23.2461 6.84285,5.6748 14.27076,10.73471 22.41602,14.82031 14.0094,7.02701 27.84687,11.46729 42.54883,13.42969 16.81255,2.24413 34.01076,0.85359 50.56836,-3.32617 9.47148,-2.39096 17.6194,-5.16677 25.8164,-9.32813 21.78088,11.42289 47.05573,15.62293 72.375,12.75586 22.1568,-2.50896 42.6549,-10.55979 59.73438,-22.8789 4.799,10.75158 15.44302,17.70247 27.2168,17.77344 H 765.33398 844 c 16.56786,-0.002 29.99834,-13.43214 30,-30 0.002,16.56786 13.43214,29.99834 30,30 h 27.33398 27.33204 c 16.56786,-0.002 29.99834,-13.43214 30,-30 V 362 271.33398 H 1000 c 2.9586,-0.14383 5.8796,-0.72501 8.668,-1.72461 2.7877,0.99941 5.708,1.58058 8.666,1.72461 H 1030 V 362 482.66602 c 0,16.56786 13.4321,29.99834 30,30 h 26.666 26.668 c 16.5679,-0.002 29.9983,-13.43214 30,-30 0,16.56786 13.4321,29.99834 30,30 h 78.666 78.666 c 16.5679,-0.002 29.9983,-13.43214 30,-30 V 457.33398 432 c 0,-16.56786 -13.4321,-29.99834 -30,-30 H 1279.334 1258 v -4.66602 -4.66796 h 19.334 49.332 c 16.5679,-0.002 29.9983,-13.43214 30,-30 V 338 313.33398 c 0,-16.56786 -13.4321,-29.99834 -30,-30 H 1277.334 1258 v -6 -6 h 21.334 51.332 c 16.5679,-0.002 29.9983,-13.43214 30,-30 V 216 190.66602 c 0,-16.56786 -13.4321,-29.99834 -30,-30 H 1252 1173.334 c -3.1903,0.11859 -6.3413,0.74562 -9.334,1.85742 -2.9927,-1.1118 -6.1437,-1.73883 -9.334,-1.85742 H 1086 1017.334 c -2.9579,0.14403 -5.8783,0.72519 -8.666,1.7246 -2.7884,-0.9996 -5.7094,-1.58077 -8.668,-1.7246 h -68.66602 -68.66796 c -3.18968,0.1188 -6.33997,0.74582 -9.33204,1.85742 -2.99269,-1.1118 -6.14365,-1.73882 -9.33398,-1.85742 h -78.66602 -78.66796 c -11.87108,0.054 -22.594,7.10235 -27.35157,17.97851 -20.37708,-15.11172 -45.18879,-23.31055 -71.24804,-23.31055 -20.20437,0 -39.88833,5.04448 -57.28516,14.60352 l 10.56836,8.11523 c -3.66674,-2.81488 -7.55364,-5.2804 -11.53711,-7.57226 -4.0017,2.24951 -7.9203,4.66121 -11.64648,7.39648 l 10.76367,-7.90234 c -17.24506,-9.70269 -37.10982,-14.64063 -57.66407,-14.64063 z m 1370.66798,0 c -27.5332,0 -53.5288,9.09328 -73.9316,25.29102 -4.2173,-11.87259 -15.4031,-19.84548 -28.002,-19.95898 h -27.334 -27.332 c -2.9579,0.14403 -5.8783,0.72519 -8.666,1.7246 -2.7884,-0.9996 -5.7094,-1.58077 -8.668,-1.7246 h -27.3242 -27.3242 c -16.5268,0.002 -29.9403,13.36788 -30,29.89453 l -0.3399,95.32226 -10.875,-15.98437 -65.334,-96.02735 c -5.5791,-8.19963 -14.8498,-13.11243 -24.7675,-13.125 l -33.7813,-0.0391 -33.7793,-0.041 c -24.4981,-0.0236 -38.6966,27.73557 -24.3398,47.58593 l 4.582,6.33399 c -0.13,-0.17972 13.1055,18.5439 31.5215,44.69726 18.4159,26.15337 43.1911,61.36277 69.8769,99.3086 26.692,37.9545 51.1038,72.64407 68.9375,97.96679 8.9169,12.66137 16.1888,22.98085 21.2832,30.20118 2.5472,3.61016 4.5486,6.44323 5.9493,8.42187 0.7003,0.98932 1.249,1.76213 1.6562,2.33398 0.4069,0.5715 -1.2373,-1.44349 1.4941,2.0293 v 0.002 l 0.01,0.004 c 10.1665,12.92323 15.9441,10.89758 19.4004,11.60938 3.4569,0.71192 5.8549,0.88656 8.5684,1.0664 5.4269,0.35968 11.759,0.43946 20.7539,0.43946 H 1668 c 2.9586,-0.14383 5.8796,-0.72501 8.668,-1.72461 2.7877,0.99941 5.708,1.58058 8.666,1.72461 h 27.332 27.334 c 11.6141,-0.098 22.1284,-6.89046 26.9922,-17.4375 16.5075,12.03756 36.0825,20.02587 57.4785,22.53125 12.8129,1.5002 20.139,1.48641 32.5156,-0.0176 21.3753,-2.59749 41.0603,-9.95291 57.8457,-21.7793 4.9953,10.10368 15.2319,16.55535 26.502,16.70313 h 27.332 27.334 c 16.5679,-0.002 29.9983,-13.43214 30,-30 v -21.30469 c 29.7024,31.35654 70.2588,52.12935 115.0996,56.48633 14.5687,1.41579 21.0355,1.41577 35.6758,-0.008 45.3346,-4.40822 86.127,-25.23086 115.8906,-56.68359 v 21.50977 c 0,16.56786 13.4321,29.99834 30,30 h 27.3262 27.3242 c 16.5298,-0.002 29.9445,-13.37264 30,-29.90235 l 0.3223,-99.22461 4.914,8.56055 60.5684,105.50391 c 5.3501,9.31705 15.2737,15.06218 26.0176,15.0625 H 2529.5684 2560 c 16.5679,-0.002 29.9983,-13.43214 30,-30 v -146 -146 c 0,-16.56786 -13.4321,-29.99834 -30,-30 h -27.3262 -27.3242 c -16.5306,0.002 -29.9456,13.37382 -30,29.90429 l -0.3183,98.68946 -4.2715,-7.5293 -60,-105.76758 c -5.3205,-9.37746 -15.2634,-15.17915 -26.045,-15.19727 l -31,-0.0488 -31,-0.0508 c -16.5869,-0.0253 -30.0472,13.41307 -30.0488,30 v 22.54492 c -23.1974,-24.8057 -53.3524,-43.41927 -88.2246,-53.06836 -10.9624,-3.03328 -21.5401,-3.97461 -45.1074,-3.97461 -23.5791,0 -34.1531,0.94496 -45.125,3.98047 -32.3553,8.95148 -59.2195,24.17816 -82.6192,47.07812 -1.9568,1.91504 -3.7315,3.94299 -5.5898,5.91992 v -22.48046 c 0,-16.56786 -13.4321,-29.99834 -30,-30 h -27.334 -27.332 c -12.0973,0.009 -23.0059,7.28163 -27.666,18.44531 -20.5019,-15.59391 -45.5595,-23.77735 -71.7344,-23.77735 z M 146.36328,266.05663 c 3.13029,-0.0522 6.87903,0.0503 11.69531,0.22656 14.67741,0.53719 11.68438,-0.0184 22.39258,3.57422 7.65349,2.56777 24.33558,13.43763 26.76172,15.39844 l -5.91992,8.17969 c -23.94269,33.08323 -45.92536,63.44875 -62.05274,85.71875 -6.3369,8.75052 -10.88406,15.02613 -15.17578,20.94922 -12.71918,-7.36733 -24.899222,-19.60651 -31.080075,-32.45704 -17.241598,-35.84676 -3.058334,-78.23911 29.873045,-94.72461 10.30094,-5.15666 14.11499,-6.70868 23.50586,-6.86523 z m 2012.97072,0.27148 c 6.4264,0 12.8529,0.45355 16.4023,1.36133 23.6985,6.06105 43.0597,25.53544 50.0039,52.9961 2.0731,8.19769 1.8181,5.72949 1.2305,19.30078 -0.9793,22.61983 -4.6655,31.24764 -19.7598,46.96679 -10.9528,11.40626 -24.8025,18.46688 -39.8554,20.56055 -2.3381,0.32519 -4.9673,0.62405 -6.961,0.80664 -0.8207,0.0752 -1.6431,0.0838 -2.2578,0.0957 -10.1892,-0.69292 -27.312,-6.24964 -34.5762,-10.98243 -3.005,-1.95787 -21.3304,-21.12144 -22.8964,-23.76757 -2.8972,-4.89528 -8.4705,-21.08281 -9.4434,-28.9336 -4.1426,-33.43037 20.0009,-68.9329 51.7109,-77.04297 3.5494,-0.90776 9.976,-1.36132 16.4024,-1.36133 z m -1306.00002,3.14844 c 2.99207,1.1116 6.14236,1.73862 9.33204,1.85742 H 874 V 362 432 c -0.002,-16.56786 -13.43214,-29.99834 -30,-30 h -51.33398 -21.33204 v -4.66602 -4.66796 H 790.66602 840 c 16.56786,-0.002 29.99834,-13.43214 30,-30 V 338 313.33398 c -0.002,-16.56786 -13.43214,-29.99834 -30,-30 h -49.33398 -19.33204 v -6 -6 H 792.66602 844 c 3.19033,-0.1186 6.34129,-0.74562 9.33398,-1.85742 z M 113.21484,415.06836 c 0.0379,-0.0493 -0.77949,1.07082 -0.6582,0.9082 -0.15618,0.2094 -0.008,-0.13591 0.6582,-0.9082 z m 429.42383,80.50195 c -0.10997,0.0826 -0.72342,0.57196 -1.83398,1.23047 0.6233,-0.45003 1.20187,-0.75584 1.83398,-1.23047 z m -28.20898,2.11524 c -0.44474,-0.31207 0.43938,-0.18289 1.5625,0.58984 0.11192,0.077 0.23352,0.13633 0.3457,0.21289 -1.06883,-0.36347 -1.68066,-0.64307 -1.9082,-0.80273 z"
           id="path4"
           sodipodi:nodetypes="sccccccssssssscccccccccssscscccccccccccccccccccccccccccccccccccccccccccccccccccccccccccccccscccccsscccccccccccccccccsssssscccsssccccccssccccccsccccccccccccccccccccccccccccssssccccccsssssccscsssssssssscssssssscccccccccccccccccccccssccccccsscs" />
        <path
           style="baseline-shift:baseline;display:inline;overflow:visible;vector-effect:none;stroke:none;paint-order:markers stroke fill;enable-background:accumulate;stop-color:#000000;stop-opacity:1"
           d="M 138.96033,487.90319 C 70.553258,481.29291 14.466084,428.47081 3.1511267,360.00001 0.18036009,342.02285 1.3372758,315.78595 5.8784337,298.14927 19.412665,245.58584 60.600463,203.8852 113.05892,189.63425 c 12.01637,-3.26439 14.94182,-3.51943 40.94108,-3.56929 22.49677,-0.0431 30.2275,0.43377 39.33333,2.42649 14.49223,3.17148 27.39336,7.78612 40,14.30771 10.6678,5.5186 33.33334,21.84625 33.33334,24.01245 0,1.81702 -30.37293,42.52173 -31.72875,42.52173 -0.60812,0 -2.86793,-1.85277 -5.0218,-4.11727 -7.92019,-8.32699 -26.09174,-19.1601 -39.92352,-23.80071 -11.66277,-3.9129 -15.51134,-4.55088 -30.83623,-5.11176 -21.70108,-0.79423 -33.0428,1.43911 -49.72923,9.79236 -48.021915,24.03984 -67.556191,84.4936 -43.478108,134.554 11.965362,24.87701 35.547168,45.52257 61.057708,53.45521 7.49221,2.32974 7.71883,2.32518 9.59691,-0.19287 1.05792,-1.41843 41.10489,-56.71855 88.99326,-122.88915 l 87.06976,-120.3102 22.33333,-0.0231 22.33333,-0.0231 v 146 146.00001 H 330.66667 304 v -48.66667 -48.66667 h -33.84876 -33.84875 l -16.57068,21.66667 c -20.11434,26.3001 -19.51228,25.35746 -15.13229,23.6922 10.35517,-3.93704 24.40493,-15.53054 30.21655,-24.93394 l 2.73476,-4.42493 h 30.63062 30.63062 l -4.74863,9 c -14.27854,27.06189 -42.19562,52.5048 -71.58518,65.24091 -14.45501,6.26415 -32.30273,10.61117 -50.60585,12.32564 -16.60326,1.55525 -16.8514,1.55527 -32.91208,0.003 z M 304,313.04763 c 0,-21.76146 -0.27525,-25.32507 -1.82798,-23.66667 -1.00538,1.07381 -9.07077,12.60238 -17.92308,25.61905 l -16.09511,23.66666 H 286.07692 304 Z M 454.92382,487.9341 c -12.00476,-1.60238 -21.02188,-4.46839 -33.06636,-10.50981 -28.0621,-14.07576 -45.17879,-38.85154 -49.2273,-71.25474 l -0.93742,-7.50288 h 28.6689 28.66891 l 0.85114,5.67581 c 3.76194,25.08644 28.01195,39.51279 52.41196,31.17993 27.88633,-9.52346 34.614,-46.45638 11.62883,-63.83872 -3.70107,-2.7989 -17.67217,-9.71314 -31.87509,-15.77485 -31.39594,-13.39958 -41.64619,-19.31078 -52.86803,-30.48838 -9.3361,-9.2993 -15.26264,-19.3445 -19.36546,-32.82349 -3.68976,-12.12201 -3.43112,-39.49346 0.49071,-51.9303 10.90189,-34.57191 41.2793,-55.33333 80.96188,-55.33333 20.3457,0 37.36989,5.42635 51.81523,16.51576 l 6.41505,4.92471 6.42146,-4.71378 c 15.06511,-11.05881 32.73581,-16.72669 52.14862,-16.72669 25.22254,0 45.47347,8.15627 62.7535,25.27464 14.3196,14.18564 21.5424,29.24563 24.48785,51.05869 l 0.85519,6.33334 H 648.0817 c -27.01389,0 -28.0817,-0.0995 -28.0817,-2.61665 0,-5.15419 -5.40583,-16.9304 -9.66343,-21.05109 C 604.29382,238.48384 597.51187,236 587.58587,236 c -15.37691,0 -25.94808,8.71084 -29.12558,24.00001 -1.27081,6.11476 -1.15683,8.59255 0.68596,14.91133 4.17786,14.32554 10.47885,18.94413 40.47066,29.66472 41.58311,14.86391 58.83077,27.62954 70.65026,52.2909 8.42744,17.58385 10.50543,44.1283 5.09885,65.13305 -9.431,36.63969 -39.15142,61.44677 -79.02673,65.96212 -23.28309,2.6365 -46.1274,-2.55736 -63.34211,-14.40138 -5.22495,-3.59487 -5.98314,-3.7743 -8.37124,-1.98117 -5.84119,4.3859 -21.48987,11.4153 -30.44507,13.67593 -11.95905,3.01891 -28.33589,4.13634 -39.25705,2.67859 z M 604.97279,433.86277 C 617.23025,427.94638 624,416.37264 624,401.33334 c 0,-15.2476 -6.66074,-25.89043 -21.52627,-34.39562 -4.01131,-2.29505 -15.87727,-7.51945 -26.3688,-11.6098 -10.49152,-4.09034 -22.06777,-8.95329 -25.725,-10.80655 -3.65722,-1.85325 -6.16393,-2.57871 -5.57047,-1.61212 0.59347,0.96658 2.83126,4.35875 4.97288,7.53814 4.37221,6.49087 8.16939,15.78062 10.30781,25.21792 1.93115,8.52256 1.84415,31.29546 -0.15844,41.47443 -1.48369,7.54144 -1.40697,8.49364 0.88889,11.03226 9.18711,10.15857 29.47767,12.77382 44.15219,5.69077 z m -86.22688,-114.1961 c -9.53666,-14.50376 -12.93683,-24.59788 -14.709,-43.66666 -0.71561,-7.7 -1.92206,-16.16745 -2.68102,-18.81654 -2.03814,-7.11401 -8.34388,-15.05948 -14.20094,-17.89371 -6.33594,-3.06597 -21.22909,-4.13215 -27.73374,-1.98542 -11.3406,3.74273 -18.00878,13.81398 -18.05859,27.2747 -0.0693,18.73415 13.38572,30.87364 50.75904,45.79606 5.56691,2.22276 14.26691,6.16816 19.33333,8.76756 5.06642,2.59941 9.4206,4.7557 9.67595,4.79177 0.25534,0.0361 -0.81792,-1.88442 -2.38503,-4.26776 z M 1827.959,487.96324 c -43.6543,-5.11174 -75.937,-37.74598 -82.0695,-82.96323 l -0.859,-6.33334 h 28.5228 28.5227 l 2.3845,9.25641 c 4.0785,15.8322 12.9002,25.09785 27.4422,28.82335 17.4214,4.46316 37.7531,-4.36393 45.6343,-19.81228 8.3676,-16.40193 2.2925,-37.25955 -14.0028,-48.07578 -4.1349,-2.74455 -16.9716,-8.55806 -28.5261,-12.91891 -44.6909,-16.86708 -59.9517,-27.32102 -70.2234,-48.10436 -11.3088,-22.88191 -11.3887,-53.90577 -0.197,-76.50176 14.6223,-29.52215 42.3285,-46 77.3455,-46 21.0492,0 37.9824,5.6233 53.9638,17.92074 17.3744,13.3693 31.9945,40.8989 32.0833,60.41259 l 0.02,4.33334 h -27.3079 -27.308 l -0.7845,-3.66667 C 1868.4699,245.03272 1858.5669,236 1841.5362,236 c -18.5881,0 -30.811,11.63669 -30.811,29.33334 0,9.37681 3.2917,16.58773 10.5663,23.14706 6.6276,5.97587 13.6538,9.25603 34.3572,16.03947 28.9109,9.47265 44.3763,18.19546 58.153,32.79944 15.3251,16.2454 21.3873,33.1434 21.2911,59.34736 -0.098,26.74362 -8.213,47.19717 -25.7008,64.78002 -15.643,15.72806 -32.3561,23.63766 -56.0237,26.5137 -12.309,1.49577 -12.6595,1.49581 -25.4093,0.003 z M 2144,487.9887 c -63.4646,-6.16656 -116.9884,-51.67678 -132.8411,-112.95223 -4.1471,-16.02959 -5.5564,-41.00102 -3.2776,-58.07751 4.5988,-34.46288 19.2363,-63.38035 44.6919,-88.29229 20.3527,-19.91806 41.0744,-31.70357 69.6352,-39.60526 9.1228,-2.52394 13.8635,-2.89341 37.1249,-2.89341 23.2488,0 28.0048,0.37026 37.1069,2.88879 62.792,17.37445 105.9213,66.17259 114.3691,129.40163 1.8133,13.57171 0.8964,36.86484 -1.979,50.27712 -13.8409,64.56029 -68.4073,112.77369 -134.9575,119.24487 -14.5227,1.41215 -15.4221,1.4124 -29.8728,0.008 z m 27.489,-50.76138 c 21.7772,-3.02894 41.8654,-13.35824 57.3603,-29.49456 18.848,-19.62831 26.8902,-38.64997 28.0937,-66.44876 0.6173,-14.25635 0.3057,-18.36941 -2.1177,-27.95253 -9.4306,-37.29305 -36.7549,-65.78055 -71.6563,-74.70683 -13.8296,-3.53701 -33.8418,-3.53701 -47.6713,0 -47.2401,12.08198 -80.1165,60.82977 -74.0487,109.79631 1.6241,13.10617 7.2602,30.15425 13.3973,40.52393 6.0912,10.29214 22.1423,26.9819 32.3378,33.62458 13.4135,8.7392 33.735,15.1651 50.3861,15.93265 1.9636,0.0905 8.227,-0.48315 13.9188,-1.27479 z M 686.66667,336.66667 v -146 H 765.33333 844 V 216 241.33334 h -51.33333 -51.33334 v 36 36 H 790.66667 840 v 24.66667 24.66666 h -49.33333 -49.33334 v 34.66667 34.66667 H 792.66667 844 v 25.33333 25.33334 H 765.33333 686.66667 Z M 904,362.00001 V 241.33334 H 883.33333 862.66667 V 216 190.66667 H 931.33333 1000 V 216 241.33334 H 979.33333 958.66667 V 362.00001 482.66668 H 931.33333 904 Z m 156,0 V 241.33334 h -21.3333 -21.3334 V 216 190.66667 H 1086 1154.6667 V 216 241.33334 H 1134 1113.3333 V 362.00001 482.66668 H 1086.6667 1060 Z m 113.3333,-25.33334 v -146 H 1252 1330.6667 V 216 241.33334 H 1279.3333 1228 v 36 36 h 49.3333 49.3334 v 24.66667 24.66666 H 1277.3333 1228 v 34.66667 34.66667 h 51.3333 51.3334 v 25.33333 25.33334 H 1252 1173.3333 Z m 445.6824,144.33334 c -0.721,-0.91667 -44.9835,-63.76667 -98.3612,-139.66667 -53.3776,-75.9 -99.1123,-140.85 -101.6326,-144.33334 l -4.5823,-6.33333 33.7802,0.0394 33.7802,0.0394 65.3333,96.0282 65.3334,96.0282 0.3421,-96.06763 0.3421,-96.06762 H 1640.6754 1668 v 146 146.00001 h -23.8367 c -17.4814,0 -24.1863,-0.44437 -25.1476,-1.66667 z m 66.3176,-144.33334 v -146 H 1712.6667 1740 v 146 146.00001 h -27.3333 -27.3334 z m 256,0 v -146 H 1968.6667 1996 v 146 146.00001 h -27.3333 -27.3334 z m 381.3334,0 v -146 l 31,0.0492 31,0.0492 60,105.76713 60,105.76713 0.3413,-105.81629 0.3413,-105.81629 H 2532.6746 2560 v 146 146.00001 h -30.4307 -30.4308 L 2438.5693,377.16338 2378,271.66009 l -0.3414,105.50329 -0.3413,105.5033 h -27.3253 -27.3253 z"
           id="path5" />
      </g>
    </g>
  </g>
</svg>
