<?xml version='1.0' encoding='utf-8'?>
<svg xmlns="http://www.w3.org/2000/svg" width="600" height="119.5196382175409" viewBox="-1 -1 579.106 115.35757" xml:space="preserve" version="1.1" id="svg3">
    <defs id="defs3"/>
    <g id="path2" style="opacity:1" transform="translate(2.7858095,-0.97265598)">
        <path style="baseline-shift:baseline;display:inline;overflow:visible;opacity:1;vector-effect:none;fill:#ffffff;stroke-linecap:round;stroke-linejoin:round;paint-order:markers stroke fill;enable-background:accumulate;stop-color:#000000;stop-opacity:1" d="m 523.0918,10.574219 -44.78516,0.125 c -4.13357,0.01225 -7.47812,3.366409 -7.47852,7.5 v 79.03125 c 4.1e-4,4.141961 3.35804,7.499591 7.5,7.500001 h 18.69141 c 4.14196,-4.1e-4 7.49959,-3.35804 7.5,-7.500001 V 74.748047 h 18.84375 c 4.14196,-4.14e-4 7.49959,-3.358036 7.5,-7.5 V 50.564453 c -4.1e-4,-4.141964 -3.35804,-7.499586 -7.5,-7.5 l 7.25,-24.990234 c -4e-4,-4.150366 -3.37113,-7.51147 -7.52148,-7.5 z m -7.47852,15.021484 v 1.789063 h -18.59375 c -4.14196,4.14e-4 -7.49959,3.358036 -7.5,7.5 v 15.679687 c 4.1e-4,4.141964 3.35804,7.499586 7.5,7.5 h 18.84375 v 1.683594 h -18.84375 c -4.14196,4.14e-4 -7.49959,3.358036 -7.5,7.5 v 22.482422 h -3.69141 V 25.677734 Z" id="path8"/>
        <path style="baseline-shift:baseline;display:inline;overflow:visible;opacity:1;vector-effect:none;fill:#ffffff;stroke-linecap:round;stroke-linejoin:round;paint-order:markers stroke fill;enable-background:accumulate;stop-color:#000000;stop-opacity:1" d="m 487.83984,-0.02734375 c -19.25048,0.0091611 -31.83793,1.16668285 -41.33007,4.56445315 a 7.50075,7.50075 0 0 0 -0.008,0.00391 c -4.77358,1.7157335 -8.88196,4.1624454 -12.00781,7.5390626 -6.4e-4,6.93e-4 -0.001,0.0013 -0.002,0.002 -6.2e-4,6.68e-4 -0.001,0.0013 -0.002,0.002 -3.1436,3.392977 -4.96525,7.431271 -5.92968,11.3125 a 7.50075,7.50075 0 0 0 -0.004,0.01172 c -1.86226,7.545762 -2.17714,18.56463 -2.19141,30.443359 a 7.50075,7.50075 0 0 0 0,0.01172 c 0.004,12.518291 0.55539,24.939864 1.78711,32.515625 a 7.50075,7.50075 0 0 0 0,0.0059 c 1.1902,7.288928 3.60736,13.267029 7.8418,17.611324 4.2539,4.36617 9.57016,6.19861 14.08203,7.125 7.78857,1.61091 23.41531,4.20584 40.02344,4.20899 a 7.50075,7.50075 0 0 0 0.002,0 h 21.48633 c 16.61223,-0.003 32.24119,-2.5997 40.02734,-4.20899 l 0.008,-0.002 c 4.50759,-0.9275 9.8177,-2.7594 14.06836,-7.12109 4.23501,-4.343834 6.65235,-10.323874 7.84179,-17.615238 a 7.50075,7.50075 0 0 0 0.002,-0.0059 c 1.22769,-7.570016 1.78107,-19.994973 1.78515,-32.513672 a 7.50075,7.50075 0 0 0 0,-0.0098 c -0.0132,-11.878285 -0.32843,-22.899293 -2.18945,-30.445313 a 7.50075,7.50075 0 0 0 -0.002,-0.01172 c -0.96521,-3.884351 -2.79057,-7.925066 -5.9375,-11.318359 a 7.50075,7.50075 0 0 0 -0.002,-0.002 C 562.50986,7.0329355 555.83767,4.1350389 547.41211,2.4121094 a 7.50075,7.50075 0 0 0 -0.002,0 c -8.43412,-1.72149853 -19.12092,-2.43843485 -33.5625,-2.43945315 H 487.8437 a 7.50075,7.50075 0 0 0 -0.004,0 z m 0.002,18.76367175 h 26.0039 a 7.50075,7.50075 0 0 0 0.004,0 c 18.36108,-0.0098 29.5867,1.505671 34.97266,3.455078 a 7.50075,7.50075 0 0 0 0.01,0.0039 c 2.73645,0.986169 3.90592,1.897149 4.58984,2.634766 7.5e-4,8.06e-4 0.003,0.0011 0.004,0.002 0.69577,0.756871 1.07261,1.419624 1.5,3.117188 a 7.50075,7.50075 0 0 0 0.002,0.0098 c 0.7366,2.909511 1.6377,14.694295 1.62696,25.894532 a 7.50075,7.50075 0 0 0 0,0.01172 c 0.006,11.834582 -0.72437,24.521138 -1.53907,29.490235 a 7.50075,7.50075 0 0 0 0,0.002 c -0.81989,5.008886 -2.03002,6.791411 -2.75781,7.537109 a 7.50075,7.50075 0 0 0 0,0.002 c -0.74773,0.766492 -1.64576,1.267469 -4.43945,1.84961 -6.74994,1.39816 -21.624,3.823155 -36.23047,3.820312 h -21.48633 a 7.50075,7.50075 0 0 0 -0.002,0 c -14.60614,0.0028 -29.47829,-2.422404 -36.23438,-3.820312 -2.78325,-0.580674 -3.685,-1.080609 -4.4375,-1.84961 l -0.002,-0.002 c -5.8e-4,-5.92e-4 -0.001,-0.0014 -0.002,-0.002 -0.72968,-0.74913 -1.9349,-2.530559 -2.75196,-7.533203 a 7.50075,7.50075 0 0 0 -0.002,-0.0078 c -0.81636,-4.965126 -1.54395,-17.653881 -1.53906,-29.488281 a 7.50075,7.50075 0 0 0 0,-0.01172 c -0.0137,-11.197642 0.88863,-22.977737 1.62695,-25.890625 a 7.50075,7.50075 0 0 0 0.002,-0.0098 c 0.43159,-1.71157 0.80716,-2.369799 1.50781,-3.128906 a 7.50075,7.50075 0 0 0 0.002,-0.002 c 0.97394,-1.05579 3.44109,-2.733635 9.76172,-4.02539 a 7.50075,7.50075 0 0 0 0.002,0 c 6.2967,-1.289219 16.02805,-2.059575 29.8086,-2.058594 z" id="path6"/>
        <path style="baseline-shift:baseline;display:inline;overflow:visible;opacity:1;vector-effect:none;fill:#363639;stroke-linecap:round;stroke-linejoin:round;paint-order:markers stroke fill;enable-background:accumulate;stop-color:#000000;stop-opacity:1" d="m 490.102,107.83 c -15.816,-0.003 -31.142,-2.53 -38.518,-4.056 -3.794,-0.779 -7.376,-2.094 -10.218,-5.011 -2.841,-2.914 -4.772,-7.224 -5.811,-13.587 -1.063,-6.538 -1.686,-19.049 -1.69,-31.315 0.014,-11.655 0.549,-22.882 1.974,-28.656 0.739,-2.974 2.011,-5.713 4.156,-8.027 2.143,-2.316 5.095,-4.161 9.043,-5.58 7.906,-2.83 19.894,-4.116 38.806,-4.125 h 26.003 c 14.182,0.001 24.474,0.738 32.063,2.287 7.575,1.549 12.552,3.937 15.782,7.418 2.146,2.314 3.419,5.053 4.158,8.027 1.424,5.774 1.957,17.001 1.97,28.656 -0.004,12.266 -0.628,24.779 -1.688,31.315 -1.038,6.363 -2.97,10.673 -5.811,13.587 -2.842,2.917 -6.422,4.231 -10.216,5.011 -7.377,1.525 -22.701,4.053 -38.519,4.056 v -3.764 c 15.416,0.003 30.58,-2.49 37.754,-3.976 3.483,-0.725 6.174,-1.792 8.286,-3.957 2.113,-2.165 3.82,-5.632 4.791,-11.564 0.997,-6.081 1.643,-18.604 1.637,-30.708 0.011,-11.47 -0.597,-22.77 -1.856,-27.743 -0.641,-2.546 -1.628,-4.604 -3.269,-6.383 -1.645,-1.776 -4.006,-3.317 -7.555,-4.596 -7.084,-2.564 -18.806,-3.913 -37.529,-3.903 h -26.003 c -14.046,-0.001 -24.148,0.744 -31.313,2.211 -7.183,1.468 -11.321,3.631 -13.772,6.288 -1.642,1.779 -2.627,3.837 -3.269,6.383 -1.261,4.975 -1.872,16.273 -1.858,27.743 -0.005,12.103 0.64,24.626 1.64,30.708 0.969,5.933 2.677,9.399 4.789,11.564 2.115,2.165 4.805,3.232 8.286,3.957 7.177,1.485 22.34,3.979 37.756,3.976 h 21.486 v 3.764 z" id="path7"/>
        <path style="baseline-shift:baseline;display:inline;overflow:visible;vector-effect:none;fill:#ba2025;stroke-linecap:round;stroke-linejoin:round;paint-order:markers stroke fill;enable-background:accumulate;stop-color:#000000;stop-opacity:1" d="m 478.328,18.199 v 79.032 h 18.691 V 67.249 h 26.344 V 50.565 H 497.019 V 34.884 h 26.094 v -16.81 z" id="path9"/>
        <path style="fill:#ffffff;fill-opacity:1;stroke:#ffffff;stroke-width:13.4247;stroke-linecap:round;stroke-linejoin:round;paint-order:markers stroke fill" d="m 463.62822,93.420131 c -13.47286,-2.431722 -13.45324,-2.376163 -13.45324,-38.089482 0,-25.585856 0.0689,-26.652359 1.87947,-29.077372 2.08999,-2.799317 8.21754,-5.024885 16.69137,-6.062421 l 5.14613,-0.630093 v 37.653563 c 0,35.294478 -0.0981,37.648531 -1.56621,37.57325 -0.86142,-0.04417 -4.7753,-0.659522 -8.69752,-1.367445 z" id="path1" transform="translate(-3.7858095,-0.02734402)"/>
        <path style="fill:#ffffff;fill-opacity:1;stroke:#ffffff;stroke-width:13.4247;stroke-linecap:round;stroke-linejoin:round;paint-order:markers stroke fill" d="M 508.79618,85.597544 V 75.178327 h 10.78044 c 10.25259,0 10.888,-0.107561 12.97721,-2.196769 2.10981,-2.109812 2.19677,-2.663009 2.19677,-13.97527 0,-11.726519 -0.0109,-11.788523 -2.47906,-14.049907 l -2.47906,-2.271409 2.47906,-2.479059 c 2.3844,-2.384397 2.47906,-2.82732 2.47906,-11.599325 v -9.120265 l 4.25116,0.585329 c 15.12095,2.08196 18.56421,3.850823 19.62705,10.082755 0.40356,2.366279 0.71749,14.370852 0.69763,26.676828 -0.0398,24.63973 -0.94222,31.800502 -4.28368,33.989912 -3.23377,2.118846 -17.23027,4.162147 -32.15065,4.693562 l -14.09593,0.502051 z" id="path10" transform="translate(-3.7858095,-0.02734402)"/>
    </g>
    <g id="path3" style="opacity:1" transform="translate(2.7858095,-0.97265598)">
        <path style="baseline-shift:baseline;display:inline;overflow:visible;opacity:1;vector-effect:none;fill:#ffffff;stroke-linecap:round;stroke-linejoin:round;paint-order:markers stroke fill;enable-background:accumulate;stop-color:#000000;stop-opacity:1" d="M 43.695312,13.658203 C 20.07149,12.488091 -0.76377153,29.845951 -3.5449219,52.919922 a 7.50075,7.50075 0 0 0 -0.046875,0.578125 l -0.1875,4.394531 a 7.50075,7.50075 0 0 0 0,0.625 l 0.1875,4.636719 a 7.50075,7.50075 0 0 0 0.064453,0.726562 C 0.37051471,91.955608 29.24701,110.64234 59.792969,100.04297 a 7.50075,7.50075 0 0 0 0.154297,-0.115236 7.50075,7.50075 0 0 0 4.914062,2.035156 h 18.818359 a 7.50075,7.50075 0 0 0 7.5,-7.499999 v -20.34961 h 7.572266 v 20.34961 a 7.50075,7.50075 0 0 0 7.499997,7.499999 h 32.36524 a 7.50075,7.50075 0 0 0 6.64843,-4.027343 c 6.70373,-12.835873 8.32415,-15.931503 12.80079,-23.822266 0.8294,-0.0024 1.5997,0.0049 2.39843,0 v 20.34961 a 7.50075,7.50075 0 0 0 7.5,7.499999 h 18.81641 a 7.50075,7.50075 0 0 0 3.01172,-1.24805 7.50075,7.50075 0 0 0 3.00976,1.24805 h 18.81641 a 7.50075,7.50075 0 0 0 7.5,-7.499999 V 79.660156 c 4.51624,6.720705 9.37851,13.841145 15.85352,20.166016 a 7.50075,7.50075 0 0 0 5.24218,2.136718 h 15.80664 a 7.50075,7.50075 0 0 0 2.63477,-1.0918 7.50075,7.50075 0 0 0 2.63281,1.0918 h 18.81055 a 7.50075,7.50075 0 0 0 7.5,-7.499999 v -15.09961 c 4.64401,6.291738 9.33742,12.718856 15.34766,19.908203 a 7.50075,7.50075 0 0 0 5.7539,2.691406 h 15.80664 a 7.50075,7.50075 0 0 0 3.00977,-1.24805 7.50075,7.50075 0 0 0 3.00976,1.24805 h 41.39258 a 7.50075,7.50075 0 0 0 2.63477,-1.0918 7.50075,7.50075 0 0 0 2.63281,1.0918 h 39.88477 a 7.50075,7.50075 0 0 0 7.5,-7.499999 V 78.65625 a 7.50075,7.50075 0 0 0 -7.5,-7.5 H 403.49609 V 21.460937 a 7.50075,7.50075 0 0 0 -7.5,-7.499999 H 377.1875 a 7.50075,7.50075 0 0 0 -2.63477,1.089843 7.50075,7.50075 0 0 0 -2.63476,-1.089843 h -41.39063 a 7.50075,7.50075 0 0 0 -3.00976,1.246093 7.50075,7.50075 0 0 0 -3.00977,-1.246093 h -18.81836 a 7.50075,7.50075 0 0 0 -7.5,7.499999 v 15.50586 c -4.61601,-6.190894 -9.21407,-12.40985 -15.17187,-20.09961 a 7.50075,7.50075 0 0 0 -5.92969,-2.906249 h -15.79883 a 7.50075,7.50075 0 0 0 -2.63281,1.089843 7.50075,7.50075 0 0 0 -2.63477,-1.089843 h -18.81836 a 7.50075,7.50075 0 0 0 -7.5,7.499999 V 36.46875 c -4.75492,-6.408493 -9.5657,-12.771966 -15.29296,-19.761719 a 7.50075,7.50075 0 0 0 -5.80079,-2.746093 h -15.80664 a 7.50075,7.50075 0 0 0 -3.00976,1.246093 7.50075,7.50075 0 0 0 -3.01172,-1.246093 h -28.60156 a 7.50075,7.50075 0 0 0 -6.42578,3.628906 C 144.24354,30.056892 137.68045,43.085151 131.0625,55.757812 V 21.460937 a 7.50075,7.50075 0 0 0 -7.5,-7.499999 h -18.06445 a 7.50075,7.50075 0 0 0 -7.500003,7.499999 v 20.339844 h -6.81836 V 21.460937 a 7.50075,7.50075 0 0 0 -7.5,-7.499999 H 64.861328 a 7.50075,7.50075 0 0 0 -5.71875,3.201171 C 53.965274,15.076512 48.766469,13.909383 43.695312,13.658203 Z m -4.71289,14.824219 c 3.456871,-0.205479 7.124298,0.424365 10.853515,1.490234 v 3.535156 C 47.031579,32.594331 44.028092,31.983439 40.6875,32.025391 h -0.0078 c -7.8113,0.09497 -14.58187,3.68589 -18.957031,8.753906 -4.376653,5.069744 -6.650135,11.434286 -6.90039,17.865234 -0.250256,6.430949 1.584039,13.154218 6.203125,18.394531 4.619085,5.240314 11.998379,8.464732 20.591796,8.363282 a 7.50075,7.50075 0 0 0 0.002,0 c 3.112447,-0.0382 5.783373,-0.70206 8.216796,-1.580078 v 3.289062 C 29.355088,91.703118 13.949825,79.854637 11.375,61.998047 L 11.220703,58.222656 11.375,54.601562 C 13.12569,40.537909 24.464262,29.34539 38.982422,28.482422 Z m 33.378906,0.478515 h 3.818359 v 20.339844 a 7.50075,7.50075 0 0 0 7.5,7.5 h 21.818363 a 7.50075,7.50075 0 0 0 7.5,-7.5 V 28.960937 h 3.06445 v 55.716797 a 7.50075,7.50075 0 0 0 1.05273,2.285157 h -3.36328 v -20.34961 a 7.50075,7.50075 0 0 0 -7.5,-7.5 H 83.679687 a 7.50075,7.50075 0 0 0 -7.5,7.5 v 20.34961 h -3.818359 z m 90.193362,0 h 16.72656 v 58.001954 h -3.81641 v -20.34961 a 7.50075,7.50075 0 0 0 -7.41211,-7.498047 c -4.68746,-0.05529 -9.304,0.06473 -14.28515,0 a 7.50075,7.50075 0 0 0 -6.60547,3.771485 c -6.09,10.63577 -7.80617,13.953394 -13.08203,24.076172 h -3.18164 c 11.5973,-19.110262 20.96144,-39.612332 31.65625,-58.001954 z m 37.74804,0 h 4.63477 c 9.28627,11.562798 16.47755,21.77827 26.30078,34.669922 a 7.50075,7.50075 0 0 0 5.96484,2.955078 7.50075,7.50075 0 0 0 7.5,-7.5 v -30.125 h 3.81836 v 58.001954 h -4.86914 C 235.07178,77.542023 228.53189,63.639789 216.86523,52.220703 a 7.50075,7.50075 0 0 0 -12.74609,5.359375 v 29.382813 h -3.81641 z m 68.48633,0 h 4.5625 c 9.48518,12.386852 15.84366,21.450739 26.47071,34.796875 a 7.50075,7.50075 0 0 0 13.36718,-4.671875 v -30.125 h 3.81836 v 58.001954 h -4.68945 C 302.93391,75.36804 296.32351,65.008535 285.79883,52.705078 a 7.50075,7.50075 0 0 0 -13.19922,4.875 v 29.382813 h -3.81055 z m 69.23828,0 h 26.39063 v 2.310547 h -14.32813 a 7.50075,7.50075 0 0 0 -7.5,7.5 v 10.53125 a 7.50075,7.50075 0 0 0 7.5,7.5 h 14.32813 v 3.0625 h -14.32813 a 7.50075,7.50075 0 0 0 -7.5,7.5 v 10.539063 a 7.50075,7.50075 0 0 0 7.5,7.5 h 14.33008 v 1.558594 h -26.39258 z m 46.66016,0 h 3.80859 V 78.65625 a 7.50075,7.50075 0 0 0 7.5,7.5 h 13.57618 v 0.806641 H 384.6875 Z m -218.79297,2.625 a 7.50075,7.50075 0 0 0 -7.16992,5.298829 c -1.09917,3.581212 -2.11191,5.765217 -3.50391,9.064453 a 7.50075,7.50075 0 0 0 6.91016,10.414062 h 6.02148 a 7.50075,7.50075 0 0 0 7.5,-7.5 v -9.777344 a 7.50075,7.50075 0 0 0 -7.5,-7.5 z m -125.029296,15.4375 a 7.50075,7.50075 0 0 0 0.0059,0 c 3.211476,-0.04107 4.363201,0.360668 5.607422,1.066407 1.24422,0.705738 2.877639,2.201893 5.423828,4.876953 a 7.50075,7.50075 0 0 0 5.458984,2.265625 v 7.867187 a 7.50075,7.50075 0 0 0 -4.544922,1.291016 c -4.761295,3.594596 -6.338568,5.950459 -11.376953,6.013672 -5.086582,0.06005 -7.500273,-1.400079 -9.160156,-3.283203 -1.659884,-1.883124 -2.59212,-4.722277 -2.46875,-7.892578 0.12337,-3.170302 1.364497,-6.444292 3.265625,-8.646485 1.901128,-2.202193 4.170236,-3.515706 7.789062,-3.558594 z" id="path4"/>
        <path style="baseline-shift:baseline;display:inline;overflow:visible;vector-effect:none;fill:#5a5a5a;stroke-linecap:round;stroke-linejoin:round;paint-order:markers stroke fill;enable-background:accumulate;stop-color:#000000;stop-opacity:1" d="M 123.563,84.678 V 21.46 H 105.499 V 49.301 H 83.679 V 21.46 H 64.862 V 94.462 H 83.679 V 66.614 h 22.573 v 27.849 h 32.365 c 7.858,-15.046 8.046,-15.61 15.054,-27.849 5.156,0.067 9.8,-0.053 14.293,0 v 27.849 h 18.817 V 21.46 h -28.602 c -12.261,20.353 -22.174,43.046 -34.616,63.218 z m 42.332,-45.592 h 2.258 v 9.778 h -6.022 c 1.34,-3.176 2.532,-5.764 3.764,-9.778 z M 3.902,53.818 3.714,58.214 3.902,62.85 c 3.297,23.747 26.623,39.41 53.433,30.107 v -22.58 c -3.779,2.853 -7.903,7.429 -15.807,7.526 -27.36,0.323 -23.619,-38.108 -0.752,-38.379 8.211,-0.105 11.343,2.792 16.559,8.272 V 24.471 C 31.864,13.474 6.748,30.206 3.902,53.818 Z m 233.301,5.268 C 226.696,45.297 219.297,34.504 208.609,21.46 H 192.803 V 94.462 H 211.62 V 57.581 c 11.027,10.793 17.553,26.096 28.594,36.881 h 15.807 V 21.46 h -18.817 v 37.626 z m 158.794,19.57 V 21.46 h -18.81 v 73.002 h 39.885 V 78.656 Z m -65.469,15.806 h 41.391 V 77.904 H 350.09 V 67.366 h 21.828 V 49.302 H 350.09 v -10.53 h 21.828 V 21.46 H 330.527 V 94.462 Z M 305.69,59.086 C 294.309,44.793 288.168,35.761 277.088,21.46 h -15.799 v 73.002 h 18.81 V 57.581 c 10.952,12.803 17.597,23.717 28.602,36.881 h 15.806 V 21.46 H 305.69 Z" id="path5"/>
    </g>
</svg>
