<?xml version="1.0" encoding="UTF-8" standalone="no"?>
<svg
   height="176.17593"
   viewBox="0 0 2593.7261 599"
   width="762.86108"
   version="1.1"
   id="svg1"
   sodipodi:docname="chihiro.svg"
   inkscape:version="1.4.3 (0d15f75042, 2025-12-25)"
   xmlns:inkscape="http://www.inkscape.org/namespaces/inkscape"
   xmlns:sodipodi="http://sodipodi.sourceforge.net/DTD/sodipodi-0.dtd"
   xmlns="http://www.w3.org/2000/svg"
   xmlns:svg="http://www.w3.org/2000/svg">
  <defs
     id="defs1" />
  <sodipodi:namedview
     id="namedview1"
     pagecolor="#b6b6b6"
     bordercolor="#000000"
     borderopacity="0.25"
     inkscape:showpageshadow="2"
     inkscape:pageopacity="0.0"
     inkscape:pagecheckerboard="0"
     inkscape:deskcolor="#d1d1d1"
     inkscape:zoom="0.85597504"
     inkscape:cx="382.02048"
     inkscape:cy="88.787636"
     inkscape:window-width="1920"
     inkscape:window-height="1080"
     inkscape:window-x="0"
     inkscape:window-y="0"
     inkscape:window-maximized="0"
     inkscape:current-layer="svg1" />
  <path
     style="baseline-shift:baseline;display:inline;overflow:visible;opacity:1;vector-effect:none;fill:#ffffff;stroke-linecap:round;stroke-linejoin:round;paint-order:markers stroke fill;enable-background:accumulate;stop-color:#000000;stop-opacity:1"
     d="m 1270.6946,1.46501e-7 a 34.000103,34.000103 0 0 0 -2.5762,0.511719003499 34.000103,34.000103 0 0 0 -2.623,-0.111328 C 1242.2637,3.9957711 1221.1022,13.986986 1203.5052,28.011719 a 34.003503,34.003503 0 0 0 -0.1328,0.105469 c -9.506,7.654166 -19.6736,17.300118 -27.7637,30.515624 -5.5987,9.110717 -11.0533,21.639192 -10.0449,37.521485 a 34.003503,34.003503 0 0 0 0.049,0.669922 c 1.8517,22.220841 16.8832,37.699361 36.6523,42.615231 20.5039,5.36311 38.1219,0.65695 50.9629,-3.88281 a 34.003503,34.003503 0 0 0 0.3184,-0.11523 c 20.393,-7.43896 40.0329,-19.41808 55.7519,-36.929691 a 34.003503,34.003503 0 0 0 0.1797,-0.203125 c 6.8547,-7.760042 15.2616,-18.353105 19.6406,-33.878907 a 34.003503,34.003503 0 0 0 0.1836,-0.673828 c 3.2597,-12.53712 3.7658,-29.085953 -8.4726,-44.662109 a 34.003503,34.003503 0 0 0 -0.3887,-0.486328 C 1308.8333,4.3787701 1294.6803,1.9349571 1288.0249,0.63281315 A 34.003503,34.003503 0 0 0 1281.4954,1.46501e-7 Z m 544.3008,0 a 34.000103,34.000103 0 0 0 -2.9531,0.587891003499 34.000103,34.000103 0 0 0 -3.0156,-0.06055 C 1774.8862,6.6143961 1742.4001,25.217843 1721.8255,56.009763 a 34.003503,34.003503 0 0 0 -0.1563,0.236328 c -6.6236,10.093079 -15.9794,27.216778 -9.875,49.599609 5.9868,21.9515 23.4364,31.43999 38.3145,34.47071 a 34.003503,34.003503 0 0 0 0.4258,0.084 c 15.9155,3.03153 29.9405,0.41178 41.1191,-2.90039 a 34.003503,34.003503 0 0 0 0.5078,-0.15625 c 28.0601,-8.79303 55.3898,-26.10083 72.9903,-54.003909 a 34.003503,34.003503 0 0 0 0.3984,-0.646485 c 6.301,-10.501645 15.6665,-29.701354 6.168,-52.68164 a 34.003503,34.003503 0 0 0 -0.055,-0.128906 C 1862.331,7.5662301 1843.0733,2.6983031 1833.1829,0.68359415 A 34.003503,34.003503 0 0 0 1826.3958,1.46501e-7 Z M 1486.1751,2.0449221 a 34.003503,34.003503 0 0 0 -14.4063,0.267578 c -19.7404,4.669773 -39.0382,10.3435099 -57.916,16.5644529 a 34.000103,34.000103 0 0 0 -0.01,0.002 c -0.015,0.0048 -0.026,0.0089 -0.041,0.01367 -0.018,0.006 -0.037,0.01162 -0.055,0.01758 a 34.000103,34.000103 0 0 0 -0.01,0.0059 c -21.1309,6.903644 -39.1464,14.45512 -55.4121,18.480469 a 34.003503,34.003503 0 0 0 -4.9101,64.308598 c -4.926,11.78045 -10.7088,24.13215 -16.4668,37.45703 -0.01,0.0208 -0.016,0.0417 -0.025,0.0625 -13.7427,31.38696 -26.0126,62.67925 -38.6406,93.16406 l 0.4589,-1.05859 c -3.4704,7.63497 -4.7948,11.30273 -5.2363,12.2832 0.014,-0.19099 -4.8721,3.41428 -16.5625,12.14844 l 0.7363,-0.5332 c -16.3265,11.53173 -30.9767,24.11759 -44.7656,36.87695 10.5298,-25.75808 20.8454,-51.69967 30.5723,-78.01953 a 34.003503,34.003503 0 0 0 -39.0742,-45.01953 c -39.3209,8.49875 -72.2787,23.40011 -102.9473,31.44726 a 34.000103,34.000103 0 0 0 -5.6836,2.76563 34.000103,34.000103 0 0 0 -5.7129,2.64453 34.000103,34.000103 0 0 0 -0.2265,0.24609 34.000103,34.000103 0 0 0 -4.4766,4.85742 34.000103,34.000103 0 0 0 -4.4043,4.96875 34.000103,34.000103 0 0 0 -2.2695,6.17969 34.000103,34.000103 0 0 0 -2.1739,6.29492 34.000103,34.000103 0 0 0 0.2696,6.59375 34.000103,34.000103 0 0 0 0.4004,6.62891 34.000103,34.000103 0 0 0 0.019,0.33594 34.000103,34.000103 0 0 0 2.748,5.64453 34.000103,34.000103 0 0 0 2.6621,5.75195 c 0.1299,0.17811 0.2414,0.30341 0.3711,0.48047 a 34.000103,34.000103 0 0 0 0.072,0.0918 c 1.3915,1.89774 2.6191,3.36983 3.9863,5.15234 -4.2771,16.04767 -11.9258,33.4036 -20.4277,52.55273 l 0.1621,-0.35742 c -9.4955,20.73732 -16.5124,40.47687 -24.2676,57.93164 -5.5286,12.04901 -11.563,21.3902 -17.8925,26.92188 a 34.003503,34.003503 0 0 0 -4.8067,6.84765 c -10.0333,0.1111 -20.0827,0.19604 -30.1055,0.31641 10.0629,-26.32964 23.2821,-53.85473 33.9551,-85.06055 a 34.003503,34.003503 0 0 0 0.1153,-0.34179 c 3.5604,-10.7831 7.5409,-22.88907 10.0664,-36.7793 a 34.003503,34.003503 0 0 0 0.1152,-0.67383 c 4.2801,-26.56619 -1.3111,-54.59858 -18.1387,-77.49219 -13.4163,-18.38846 -33.6446,-31.89253 -58.04296,-35.09179 -19.85609,-3.24692 -39.4483,-2.44227 -58.11329,0.73047 2.48647,-6.02895 4.95931,-12.06361 7.32032,-18.14063 a 34.003503,34.003503 0 0 0 0.084,-0.21875 c 5.57548,-14.64743 11.8026,-29.22622 18.42578,-43.93359 a 34.003503,34.003503 0 0 0 0.082,-0.1836 c 8.263,-18.635202 17.14813,-38.76393 23.39765,-61.447351 A 34.003503,34.003503 0 0 0 929.39382,2.3867191 C 907.85861,6.7839601 887.92345,13.25273 869.24929,19.410156 a 34.000103,34.000103 0 0 0 -0.19532,0.111328 34.000103,34.000103 0 0 0 -0.2207,0.0293 C 851.23149,25.607309 832.89565,30.98362 813.98952,36.615235 A 34.003503,34.003503 0 0 0 792.57155,56.714844 34.003503,34.003503 0 0 0 746.25124,14.267578 c -16.30239,7.714525 -26.09023,15.901787 -32.375,19.070313 -1.71816,0.834891 -2.74269,1.067639 -3.14258,1.173828 -13.18065,-3.71413 -29.8305,-12.382922 -52.96289,-18.41211 a 34.003503,34.003503 0 0 0 -0.95312,-0.234375 C 631.73737,10.095593 607.03623,8.8741431 583.57155,9.3046881 a 34.003503,34.003503 0 0 0 -0.30859,0.0078 C 527.08335,10.854673 473.10666,25.563248 423.55397,46.724597 a 34.000103,34.000103 0 0 0 -0.0312,0.0059 c -0.0901,0.03687 -0.17749,0.07829 -0.26757,0.115234 -0.0806,0.03445 -0.16361,0.06512 -0.24415,0.09961 a 34.000103,34.000103 0 0 0 -0.0234,0.01563 c -33.89062,13.929848 -64.8569,32.810241 -93.125,54.064449 a 34.003503,34.003503 0 0 0 -0.084,0.0625 c -32.17365,24.34764 -61.25889,53.65551 -84.48633,87.73633 -23.30568,33.51181 -39.01728,73.37169 -41.5371,115.96875 a 34.003503,34.003503 0 0 0 -0.004,0.043 c -1.65113,28.54093 1.84038,59.9006 17.01562,88.91992 a 34.003503,34.003503 0 0 0 0.0137,0.0293 c 6.6128,12.61592 14.81668,23.90743 24.10546,33.97265 -5.2082,0.3664 -10.42341,0.65469 -15.63085,1.0293 a 34.003503,34.003503 0 0 0 -1.29688,0.11914 c -59.90378,6.62351 -124.56737,8.91267 -189.796878,28.1875 a 34.003503,34.003503 0 0 0 -0.136718,0.041 c -3.765074,1.12952 -20.117058,3.0984 -32.2246092,21.06445 a 34.003503,34.003503 0 0 0 -5.804688,19 v 4.70117 a 34.003503,34.003503 0 0 0 7.265625,21.00586 c 12.4887432,15.89476 27.6870642,17.51447 31.6152342,18.55664 l -0.496094,-0.13481 C 97.748698,558.04562 158.58506,563.58625 217.95827,564 a 34.003503,34.003503 0 0 0 33.44336,-32.33203 c 17.69351,-2.9886 36.28938,-5.26968 55.77148,-7.82422 94.69887,-11.46502 191.18705,-15.67305 288.58594,-21.88672 66.98336,-1.27812 131.95138,-7.2453 195.08203,-6.95703 a 34.003503,34.003503 0 0 0 2.28516,-0.0664 c 107.56792,-6.75358 217.28346,-3.51569 328.65626,-8.13867 21.8768,-0.38343 44.4458,0.0131 67.9121,-0.40039 l -0.3398,0.004 c 62.1527,-0.47325 123.7735,-1.43774 184.7676,-0.0645 -3.7978,9.35229 -7.4979,18.31605 -11.5118,26.31055 a 34.003503,34.003503 0 0 0 -0.07,0.14063 c -5.4143,10.90951 -12.0138,20.70004 -19.7636,28.97656 A 34.003503,34.003503 0 0 0 1367.595,599 h 20.0996 a 34.003503,34.003503 0 0 0 2.2031,-0.0723 c 21.5916,-1.40205 44.261,-1.42578 67.9024,-1.93359 l 0.1269,-0.002 c 106.4246,-1.89423 212.9182,-2.69337 319.6817,-3.99414 a 34.003503,34.003503 0 0 0 0.5625,-0.0117 c 25.4232,-0.72936 49.5893,-2.51211 72.584,-2.89063 a 34.003503,34.003503 0 0 0 0.4453,-0.01 c 50.0632,-1.48116 100.7062,-1.68475 151.9277,-3.19727 24.5572,-0.543 47.1398,-2.83705 68.0156,-3.29687 a 34.003503,34.003503 0 0 0 0.4727,-0.0137 c 30.0326,-1.0796 60.7235,-1.48237 91.8672,-2.70117 17.4442,-0.53675 34.0428,-1.86633 49.875,-2.83789 0.01,-3.9e-4 0.013,-0.002 0.019,-0.002 94.4878,-4.98153 190.5024,-9.07634 286.8047,-22.77539 a 34.003503,34.003503 0 0 0 0.1602,-0.0234 c 12.928,-1.90118 27.9068,-3.55007 44.3339,-7.83984 l 0.01,-0.002 c 3.9598,-1.0296 18.4546,-1.52036 33.7422,-14.98632 19.1124,-16.5985 19.7597,-41.22426 5.0742,-59.49414 -9.6173,-11.99139 -19.6376,-13.73378 -20.5176,-14.07813 -34.4421,-13.50793 -68.4381,-16.72335 -98.2539,-20.64648 a 34.003503,34.003503 0 0 0 -0.2187,-0.0293 c -38.4168,-4.8021 -76.6408,-8.14107 -114.5645,-11.05859 l -0.045,-0.004 c -3.942,-0.30843 -7.8566,-0.47702 -11.7949,-0.76563 23.2323,-18.03372 43.7499,-40.21355 59.1719,-66.35937 a 34.003503,34.003503 0 0 0 0.1269,-0.2168 c 6.4947,-11.19776 13.2189,-24.20815 17.4004,-39.76953 5.9976,-21.75743 7.2216,-45.962 0.043,-69.79492 a 34.003503,34.003503 0 0 0 -0.1153,-0.375 c -6.6292,-21.12092 -19.3998,-37.28416 -32.6367,-49.77539 -18.7234,-17.86802 -41.4305,-28.72682 -64.1582,-34.61719 -24.4991,-6.65285 -47.1459,-6.02318 -66.2793,-5.72265 a 34.003503,34.003503 0 0 0 -0.5742,0.0156 c -43.3427,1.41335 -83.5751,15.0902 -119.2461,33.14453 a 34.000103,34.000103 0 0 0 -0.07,0.0547 34.000103,34.000103 0 0 0 -0.08,0.0234 c -9.683,4.96153 -19.4858,10.58601 -29.2402,16.68359 -0.089,-8.6788 -2.6316,-18.45813 -10.8164,-27.85547 a 34.003503,34.003503 0 0 0 -0.2266,-0.25781 c -14.5202,-16.33521 -32.3381,-15.58618 -40.5742,-15.03711 a 34.003503,34.003503 0 0 0 -0.666,0.0508 c -10.0611,0.86947 -19.8815,2.59987 -29.416,5.01367 a 34.000103,34.000103 0 0 0 -0.029,0.0137 34.000103,34.000103 0 0 0 -0.029,0.002 c -14.4414,3.6836 -27.8386,8.71478 -40.5039,14.375 a 34.003503,34.003503 0 0 0 -36.5762,-16.78321 c -39.2657,8.36429 -70.719,23.80784 -99.1895,30.04102 a 34.003503,34.003503 0 0 0 -26.6699,31.2168 c -0.1587,2.69776 -0.5586,6.69569 -0.5586,12.0957 a 34.003503,34.003503 0 0 0 8.5449,22.21289 c -12.2487,34.88932 -31.2532,70.91741 -46.1445,112.40039 a 34.003503,34.003503 0 0 0 -0.7324,2.28711 c -1.1647,4.14398 -6.9853,11.72704 -17.7109,21.69336 a 34.003503,34.003503 0 0 0 -2.1836,3.2832 c -10.4965,-0.1835 -21.0178,-0.38278 -31.5293,-0.59961 24.8267,-61.59566 55.0665,-123.32318 78.7031,-190.01953 a 34.003503,34.003503 0 0 0 -39.2149,-44.59375 c -40.4165,8.7173 -74.1833,24.03425 -105.4511,31.32422 a 34.000103,34.000103 0 0 0 -0.4883,0.2207 34.000103,34.000103 0 0 0 -6.0274,2.73047 34.000103,34.000103 0 0 0 -5.9355,2.91602 34.000103,34.000103 0 0 0 -0.4824,0.23633 34.000103,34.000103 0 0 0 -4.0449,4.59765 34.000103,34.000103 0 0 0 -4.3633,4.95703 34.000103,34.000103 0 0 0 -2.336,6.20704 34.000103,34.000103 0 0 0 -2.1308,6.24218 34.000103,34.000103 0 0 0 0.2168,6.61719 34.000103,34.000103 0 0 0 0.1992,6.10742 34.000103,34.000103 0 0 0 0.2207,0.48828 34.000103,34.000103 0 0 0 2.7305,6.02735 34.000103,34.000103 0 0 0 2.916,5.93554 34.000103,34.000103 0 0 0 0.2363,0.48243 c 1.9345,2.52974 4.0351,4.79347 6.0762,7.15625 -2.6489,7.24079 -5.6714,14.62903 -9.0078,22.24023 a 34.003503,34.003503 0 0 0 -0.076,0.17383 c -8.0599,18.67032 -15.8443,37.61521 -23.1484,56.75 -7.3164,19.11859 -14.573,36.38335 -23.7461,50.50195 a 34.003503,34.003503 0 0 0 -0.5899,0.94141 c -0.3445,0.57016 -2.9598,3.85737 -6.291,8.73242 -12.4931,-0.22862 -25.0288,-0.30083 -37.543,-0.4668 7.5625,-18.96014 14.8048,-37.39881 22.7422,-54.71679 a 34.003503,34.003503 0 0 0 0.3692,-0.83008 c 8.4814,-19.89094 19.0495,-43.7492 20.6718,-72.95117 a 34.003503,34.003503 0 0 0 0.022,-0.46875 c 0.8047,-19.31276 -2.2071,-40.7961 -14.0117,-60.73633 a 34.003503,34.003503 0 0 0 -0.5664,-0.92188 c -15.0034,-23.59912 -39.6992,-40.34973 -69.1699,-43.14843 -15.1859,-1.85715 -30.0543,-1.58531 -44.4864,0.20117 16.9178,-38.95579 33.9446,-78.598195 48.3047,-120.222659 A 34.003503,34.003503 0 0 0 1486.1764,2.0445021 Z M 792.23561,57.978516 a 34.003503,34.003503 0 0 0 16.75391,41.523437 c -1.86713,4.876657 -3.98112,9.951057 -6.48242,15.388677 a 34.003503,34.003503 0 0 0 -0.19141,0.42382 c -5.87515,13.2458 -10.91526,26.12431 -15.86133,38.58985 -10.08854,25.03696 -20.62887,49.81344 -31.43164,74.46289 a 34.003503,34.003503 0 0 0 -29.05078,-3.17383 34.003503,34.003503 0 0 0 -27.6875,8.95117 c -10.58089,10.0465 -20.08167,19.84611 -29.30078,28.59961 a 34.003503,34.003503 0 0 0 -1.48828,1.50391 c -25.23373,27.13816 -52.51229,51.98751 -82.09766,72.69726 -24.97046,17.46946 -51.94066,31.68349 -80.11523,41.55664 -18.80881,6.51864 -36.99174,11.68689 -54.20703,13.73633 a 34.003503,34.003503 0 0 0 -0.11328,0.0137 c -15.57249,1.90684 -30.83387,0.90829 -44.33594,-3.30664 a 34.003503,34.003503 0 0 0 -0.11328,-0.0351 C 387.80068,383.14062 371.94381,372.92194 363.886,360.40047 A 34.003503,34.003503 0 0 0 363.62429,360 c -3.15907,-4.76024 -5.71446,-12.5488 -7.14063,-22.80859 -1.2121,-9.03321 -1.04083,-18.68099 0.36524,-28.44532 a 34.003503,34.003503 0 0 0 0.0234,-0.16211 c 3.30014,-23.72958 13.90225,-48.13629 27.92188,-72.30468 15.95391,-27.42241 36.35722,-52.24455 60.25,-72.59766 a 34.003503,34.003503 0 0 0 0.10351,-0.0898 c 35.90677,-30.84072 79.6145,-52.80705 125.39453,-61.70703 12.55551,-1.75346 24.88658,-2.477769 36.94141,-1.921879 13.02197,0.832479 24.19449,3.447169 32.33008,7.884769 a 34.003503,34.003503 0 0 0 0.0254,0.0137 c 10.33533,5.62633 18.61302,14.85049 22.04883,24.18359 a 34.003503,34.003503 0 0 0 0.16406,0.4375 c 4.69866,12.24298 6.32813,28.70706 7.73047,48.33985 a 34.003503,34.003503 0 0 0 63.4668,14.38671 c 25.99875,-45.71447 41.94561,-93.24853 58.98632,-137.230466 z m -66.69726,50.138674 0.16406,0.4375 c -0.0203,-0.0551 -0.048,-0.10514 -0.0684,-0.16016 -0.0355,-0.093 -0.06,-0.1843 -0.0957,-0.27734 z m 647.30275,1.42187 c 0.028,0.0112 0.06,0.0239 0.088,0.0352 -0.027,0.0104 0.2162,0.12464 -0.088,-0.0352 z m -463.41994,60.94922 c -0.0121,0.003 -0.0231,0.007 -0.0352,0.01 -0.0153,0.003 -0.0316,0.004 -0.0469,0.008 z m -573,14.91016 c -3.60677,5.48909 -7.11887,11.03695 -10.41601,16.70508 a 34.003503,34.003503 0 0 0 -0.0195,0.0351 c -16.36257,28.20391 -31.34072,60.36494 -36.45117,96.99414 -2.18109,15.1902 -2.60875,31.09111 -0.43359,47.21289 a 34.003503,34.003503 0 0 0 0.0156,0.11719 c 1.7795,12.85195 5.013,27.36193 12.36328,41.65039 -8.46952,-7.68228 -15.50282,-16.42903 -20.46093,-25.88281 -7.61615,-14.57221 -10.52508,-33.59629 -9.38086,-53.43945 1.67974,-28.33153 12.52517,-56.80671 29.55664,-81.25782 a 34.003503,34.003503 0 0 0 0.20703,-0.29883 c 10.16145,-14.92614 22.03173,-28.84976 35.01953,-41.83593 z m 1981.40044,19.72265 0.8808,0.61524 c -0.13,-0.0939 -0.2662,-0.15701 -0.3965,-0.25 -0.168,-0.1152 -0.3153,-0.25108 -0.4843,-0.36524 z m -818.3242,4.46094 0.5957,0.49219 c -0.1059,-0.0898 -0.2125,-0.15151 -0.3184,-0.24024 -0.099,-0.0808 -0.1781,-0.17152 -0.2773,-0.25195 z m 601.0722,14.30469 -0.3144,1.16797 c 0.041,-0.14142 0.059,-0.33313 0.1,-0.47657 0.061,-0.23621 0.1553,-0.45436 0.2148,-0.6914 z m 160.461,32.60156 c 8.0337,0.13048 14.4653,1.92519 17.8574,4.375 a 34.003503,34.003503 0 0 0 0.8808,0.61524 c 3.6156,2.44128 6.9845,7.55311 7.8633,12.43945 a 34.003503,34.003503 0 0 0 0.08,0.42383 c 0.9788,5.07202 0.6194,11.3183 -1.2148,17.54687 -16.0854,46.09961 -59.1588,84.06282 -106.8555,94.0293 a 34.003503,34.003503 0 0 0 -0.5645,0.12305 c -10.7001,2.42619 -21.7693,1.41041 -29.6933,-2.35352 a 34.003503,34.003503 0 0 0 -0.4453,-0.20703 c -3.5915,-1.64291 -6.5201,-4.4355 -7.6875,-6.4336 a 34.003503,34.003503 0 0 0 -0.1,-0.16992 c -0.299,-0.50487 -1.5493,-4.08661 -1.9981,-10.04687 -0.5034,-10.27572 2.8045,-22.57761 9.2324,-34.61133 a 34.003503,34.003503 0 0 0 0.039,-0.0742 c 12.7245,-23.96586 33.9812,-44.38169 59.0527,-58.5957 16.2841,-8.80155 31.4335,-15.06377 44.7266,-16.5625 a 34.000103,34.000103 0 0 0 0.1543,-0.0488 34.000103,34.000103 0 0 0 0.1582,0.0117 c 2.9804,-0.36388 5.8357,-0.50443 8.5137,-0.46094 z m -819.3887,4.83203 c 3.0219,-0.17233 5.8552,-0.0964 8.5449,0.16797 3.991,0.64288 6.1737,1.29214 6.6895,1.37305 0.2435,0.45243 0.7973,1.50105 1.1386,3.77539 0.6135,4.70947 -0.2471,12.45686 -2.5254,22.85351 -10e-4,0.005 0,0.007 0,0.0117 -2.4367,11.06094 -8.088,23.80638 -14.8418,38.95117 a 34.003503,34.003503 0 0 0 -0.1035,0.23047 c -10.2921,23.54703 -20.0394,47.21438 -29.5781,70.89649 -14.9147,0.009 -29.9466,0.003 -44.9199,-0.041 19.3346,-45.58961 37.3942,-90.91966 56.664,-135.02734 6.7806,-1.68704 13.1787,-2.8631 18.9356,-3.19141 z m 912.8379,0.13672 0.078,0.42383 c -0.015,-0.0812 -0.04,-0.15909 -0.055,-0.24024 -0.012,-0.0615 -0.012,-0.12207 -0.023,-0.18359 z m -898.3809,0.46875 a 34.003503,34.003503 0 0 0 0.5938,0.49219 c -0.01,-0.008 0.022,0.0396 0.014,0.0332 -0.1899,-0.16155 -0.2655,-0.23535 -0.6074,-0.52539 z m -548.11719,0.16406 c 3.43246,0.0127 7.0462,0.11189 10.82812,0.27735 a 34.003503,34.003503 0 0 0 0.17969,0.008 c -1.38578,-0.0533 2.61244,4.8382 2.55664,5.84766 a 34.003503,34.003503 0 0 0 -0.0332,0.81054 c -0.45349,14.4467 -6.62245,31.67367 -15.02344,51.50391 l 0.11719,-0.27539 c -14.52524,33.46185 -24.44911,63.50058 -40.60547,83.98047 a 34.003503,34.003503 0 0 0 -0.22266,0.46289 c -4.87938,0.0192 -9.77107,0.0863 -14.64843,0.0957 a 34.003503,34.003503 0 0 0 -0.17188,0 c -10.38855,0.0724 -20.92001,0.22274 -31.34375,0.29297 0.46575,-1.12547 0.70921,-1.72289 1.4043,-3.36914 a 34.003503,34.003503 0 0 0 0.0625,-0.15234 c 18.57407,-44.59664 37.79471,-89.33578 56.20898,-134.80079 1.46147,-0.68883 3.09223,-1.35474 5.00586,-1.9414 6.74428,-2.03904 15.40452,-2.7782 25.68555,-2.74024 z m 81.49609,9.07618 -0.0332,0.81054 c 0.007,-0.13069 -0.003,-0.25996 0.004,-0.39062 0.005,-0.14278 0.0248,-0.27691 0.0293,-0.41992 z m 963.3223,20.15234 c 1.4796,1.16454 2.9642,2.29147 4.2402,3.02344 6.4681,3.71037 10.5383,4.53577 11.6895,4.9082 l -0.6231,-0.20898 c 16.2342,5.60128 32.6564,6.12169 48.1153,3.18359 -1.6299,3.31922 -3.2981,6.61328 -4.75,10.05273 a 34.003503,34.003503 0 0 0 -0.1114,0.26758 c -7.8186,18.97158 -15.8948,43.57878 -10.5898,71.84961 1.6963,9.27533 4.5302,17.96513 8.166,26.12305 -4.4065,-0.0911 -8.8931,-0.25134 -13.248,-0.31446 a 34.003503,34.003503 0 0 0 -0.016,0 c -30.3039,-0.42581 -60.4285,-1.17622 -90.4531,-2.2207 13.1202,-37.16676 31.8792,-74.91005 47.5801,-116.66406 z m 135.6055,8.86133 c -0.01,0.0149 -0.014,0.032 -0.021,0.0469 -0.01,0.0101 -0.012,0.0192 -0.018,0.0293 z m -14.6856,39.66797 c -2.0523,9.83533 -3.0588,20.14768 -2.4746,30.89648 a 34.003503,34.003503 0 0 0 0.031,0.49609 c 0.3334,4.83548 0.9998,10.32596 2.2011,16.09766 -2.9006,-5.03315 -4.9173,-10.20081 -5.8301,-15.2207 a 34.003503,34.003503 0 0 0 -0.043,-0.22852 c -1.4004,-7.4139 0.7766,-18.67652 6.1152,-32.04101 z M 677.04421,383.6582 a 34.003503,34.003503 0 0 0 11.65429,0.75196 c -4.25751,8.48706 -8.7741,16.56041 -13.81445,24.03125 -8.417,0.13911 -16.82713,0.38647 -25.24219,0.55664 9.54251,-7.97794 18.62128,-16.50136 27.40235,-25.33985 z m 266.67773,1.73828 c -0.0139,0.0365 -0.0194,0.0691 -0.0332,0.10547 -0.0421,0.11508 -0.0888,0.22077 -0.13086,0.33594 z m -637.01758,11.80274 c 0.0344,0.0535 0.0749,0.0989 0.10938,0.15234 0.0543,0.0824 0.0977,0.16568 0.15234,0.24805 z m 1775.83404,14.15234 c 0.018,0.0304 0.039,0.0575 0.057,0.0879 0.017,0.0281 0.028,0.0559 0.045,0.084 z M 198.45632,473.65039 c -0.0255,0.007 -0.0526,0.0202 -0.0781,0.0273 -0.0457,0.0131 -0.091,0.0221 -0.13672,0.0352 z m 1994.20508,1.50781 c 0.01,7.2e-4 0.02,10e-4 0.029,0.002 l 1.2539,1.40039 c -0.4222,-0.52782 -0.8571,-0.90772 -1.2832,-1.40235 z m 6.8555,11.5625 c 2.1564,0.17722 4.3821,0.23394 6.5273,0.4336 a 34.003503,34.003503 0 0 0 1.752,0.11718 c 45.9508,1.89386 91.5293,4.0785 136.8457,7.625 a 34.003503,34.003503 0 0 0 0.045,0.004 c 15.8019,1.21553 31.5191,2.56431 47.207,3.98633 -60.2055,5.13378 -121.0973,8.0271 -182.3886,11.25976 a 34.003503,34.003503 0 0 0 -0.291,0.0176 c -2.8935,0.17752 -5.6383,0.36258 -8.4864,0.54883 0.9813,-3.22992 1.6566,-6.95025 1.5996,-11.28906 -0.054,-4.14133 -1.1629,-8.54175 -2.8105,-12.70313 z m -689.0078,2.11328 c 135.5117,0.10968 271.1251,4.2636 406.4785,11.63282 -34.945,1.87905 -69.983,3.4445 -105.1582,4.75586 a 34.003503,34.003503 0 0 0 -1.1817,0.0664 c -73.1901,5.28275 -149.2294,1.86654 -227.6191,6.82227 -27.5395,0.49871 -55.0303,0.83024 -82.4785,1.02344 3.2393,-7.93677 6.5905,-16.04221 9.959,-24.30079 z m 1026.9726,33.07032 c 0.2268,0.0875 0.4696,0.15751 0.6953,0.24609 a 34.003503,34.003503 0 0 0 0.029,0.0117 c 2.0461,0.80065 1.3075,0.95726 -0.7246,-0.25781 z M 55.532486,523.0625 c -0.873142,0.50404 -0.811332,0.39647 0,0 z"
     id="path2" />
  <path
     style="baseline-shift:baseline;display:inline;overflow:visible;opacity:1;vector-effect:none;stroke-linecap:round;stroke-linejoin:round;paint-order:markers stroke fill;enable-background:accumulate;stop-color:#000000;stop-opacity:1"
     d="m 1270.6954,34 h 10.8 c 4.6,0.9 9.5,2.3 12.6,6.1 3.3,4.2 3.6,10.1 2.3,15.1 -2.2,7.8 -7.1,14.6 -12.4,20.6 -11.4,12.7 -26.2,21.9 -42.1,27.7 -9.9,3.5 -20.9,5.8 -31.3,3 -5.8,-1.4 -10.6,-6.5 -11.1,-12.5 -0.4,-6.3 1.9,-12.4 5.1,-17.6 5.2,-8.5 12.4,-15.6 20.1,-21.8 13.3,-10.6 29.2,-18 46,-20.6 m 544.3,0 h 11.4 c 5.4,1.1 11.6,3.5 13.9,9 3.1,7.5 0,15.7 -3.9,22.2 -12.3,19.5 -32.7,32.9 -54.4,39.7 -8.1,2.4 -16.7,3.7 -25.1,2.1 -5.4,-1.1 -10.8,-4.6 -12.3,-10.1 -2.1,-7.7 1.3,-15.6 5.5,-22 14.7,-22 39.1,-36.3 64.9,-40.9 M 879.89538,51.7 c 18.5,-6.1 37.2,-12.1 56.3,-16 -5.4,19.6 -13.5,38.2 -21.7,56.7 -6.8,15.1 -13.3,30.3 -19.2,45.8 -11.5,29.6 -24.6,58.7 -39,87 19.4,-8.9 39.4,-16.9 60.4,-21.5 18.5,-4.1 37.8,-5.3 56.5,-2.1 14.1,1.8 26.90002,10.1 35.20002,21.5 10.9,14.8 14.9,34 12,52 -2,11 -5.4,21.6 -8.9,32.2 -10.5,30.7 -24.90002,59.8 -36.00002,90.2 -3.2,8.4 -0.8,17.5 -0.1,26.1 -27.5,0.9 -55.1,2.5 -82.7,1.7 21.3,-27 31.6,-60.4 45.1,-91.5 8.6,-20.3 17,-41.4 17.7,-63.7 1.1,-19.9 -14.4,-40.9 -35.2,-41.7 -16,-0.7 -32.4,-0.8 -47.9,3.9 -7.2,2.2 -14.1,5.4 -20.1,10 -1.5,1.1 -2.8,2.7 -3.5,4.4 -19.1,47.5 -39.4,94.5 -59.1,141.8 -1.9,4.5 -4.3,8.9 -5.3,13.8 -1.7,8.2 -0.7,16.7 0.2,25 -27.5,0.1 -55,1.2 -82.5,1.7 28.9,-42 41.4,-92 65.1,-136.5 -28.9,17.7 -51,45.2 -82.5,58.8 15.2,-25.3 34.7,-47.9 46.9,-74.9 3,-6.2 3.6,-13.1 6,-19.5 1.6,5.1 1.9,10.5 3.1,15.8 1.1,4.5 4.4,8.8 9.3,9.6 10.4,2 20.9,-5.1 24.9,-14.6 15.1,-33.4 29.4,-67.1 43.1,-101.1 5,-12.6 9.9,-25.1 15.4,-37.5 6.9,-15 13.4,-30.6 15.3,-47.1 0.5,-2.2 -1.7,-3.4 -3.4,-4.1 -7.2,-3.1 -14.5,-5.7 -21.6,-8.7 18.8,-5.6 37.6,-11.1 56.2,-17.5 m 544.50002,-0.5 c 18.2,-6 36.6,-11.4 55.2,-15.8 -21.7,62.9 -50.5,123 -75.9,184.5 31.2,-14.7 66,-24 100.7,-19.6 17.9,1.6 34.4,12.5 44,27.6 7.4,12.5 9.9,27.6 9.3,42 -1.2,21.6 -9.6,41.8 -18,61.5 -15.4,33.6 -27.4,68.7 -42.7,102.3 112.4,0.4 224.8,5.1 337.2,5.6 11,-0.1 22,0.8 33,1.3 42.6,2.1 85.3,3 128,3.6 20.7,0.3 41.4,0.8 62,2.6 50.6,3.2 101.5,1.8 152,6.5 46.1,1.9 92.1,4.1 138.1,7.7 37.7,2.9 75.4,6.2 113,10.9 30.4,4 61.5,7.3 90.3,18.6 2.3,0.9 4.8,1.7 6.4,3.7 2.9,3.6 2.7,9.5 -0.9,12.6 -5.5,4.9 -13.1,5.9 -20,7.7 -13.4,3.5 -27.1,5.1 -40.7,7.1 -94.2,13.4 -189.3,17.5 -284.1,22.5 -16.3,1 -32.6,2.3 -49,2.8 -30.6,1.2 -61.3,1.6 -91.9,2.7 -22.7,0.5 -45.3,2.8 -68.1,3.3 -50.7,1.5 -101.4,1.7 -152.1,3.2 -24.3,0.4 -48.6,2.2 -73,2.9 -106.7,1.3 -213.3,2.1 -320,4 -23.2,0.5 -46.4,0.5 -69.5,2 h -20.1 c 10.3,-11 18.7,-23.6 25.4,-37.1 12.1,-24.1 20.1,-50 32.5,-73.9 -78.7,-3.8 -157.6,-2.2 -236.4,-1.6 -22.7,0.4 -45.3,0 -68,0.4 -110,4.6 -220.20002,1.3 -330.10002,8.2 -65.7,-0.3 -131.3,5.8 -197,7 -97.1,6.2 -194.4,10.4 -291,22.1 -32,4.2 -64.3,7.4 -95.4,16.3 -4.3,1.2 -8.4,3.3 -11.5,6.6 5.8,7.4 14.4,11.8 22.1,17 -57.4,-0.4 -115.2,-5.8 -170.600003,-21.4 -4.9,-1.3 -10.3,-2.5 -13.6,-6.7 v -4.7 c 3.1,-4.6 8.8,-6 13.8,-7.5 59.900003,-17.7 122.400003,-20.2 183.900003,-27 154.3,-11.1 308.8,-18.6 463.5,-20.7 23.4,0.2 46.7,-2.2 70,-2.4 28.7,-0.5 57.3,-0.6 86,-0.8 103.7,-0.2 207.30002,-2.7 311.00002,-2.5 90.5,-4.3 181.1,-2.3 271.7,-2.7 12.1,-30.6 24.6,-61.1 37.8,-91.3 6.6,-14.8 13.5,-29.6 17,-45.5 2.5,-11.4 4.6,-23.2 3,-34.9 -1.4,-9.8 -5.7,-19.5 -13.6,-25.9 -6.6,-5.6 -15.4,-7.1 -23.7,-8.3 -19.2,-2.1 -38.4,2.6 -56.5,8.6 -22.8,51 -43.1,103 -65,154.4 -4,9.8 -1.3,20.5 0,30.6 -29,-0.7 -58,-0.2 -87,-0.8 8.6,-10.9 17.3,-21.8 23.6,-34.3 3.3,-6.3 5.4,-13.2 8.1,-19.7 10.9,-27.7 23.1,-54.9 35.8,-81.9 -39.1,30.2 -79.2,61.1 -106.7,102.9 -4.3,7.2 -9.9,14.1 -11.2,22.6 3.6,1.9 7.7,0.9 11.5,0.2 16,-3.2 30.4,-11.1 45.4,-17 -16.2,25.6 -47.5,39.2 -77.3,37.7 -3.3,0.1 -7.1,-2.4 -6.4,-6.1 2.5,-14.8 11.3,-27.5 20.3,-39.2 10.8,-13.2 22.6,-25.4 34.6,-37.4 23.4,-23 46.8,-46.3 73.7,-65.3 8.7,-6.5 18.9,-11.7 25,-21 3.1,-5.2 4.9,-11.1 7.4,-16.6 12.8,-30.9 25,-62 38.4,-92.6 5.7,-13.2 11.9,-26.3 17.4,-39.6 3.8,-9.6 6.8,-19.9 6,-30.4 -0.1,-2.3 -2.5,-3.3 -4.2,-4.1 -6.9,-2.8 -13.9,-5.5 -20.8,-8.3 19.8,-4.9 38.6,-12.9 57.9,-19.2 m 63.1,403.5 c -11.8,30.9 -26,60.9 -35.8,92.6 44.1,0.2 88.3,-0.4 132.4,-1.2 76.3,-4.9 152.8,-1.4 229,-6.9 91.2,-3.4 182.5,-7.6 273.2,-18.5 17,-2 34,-4.2 50.7,-7.4 9.3,-1.9 18.6,-4.1 27.2,-8.1 2.4,-1.3 5.8,-4.8 3.2,-7.4 -2.8,-3.5 -7.4,-4.3 -11.5,-5.5 -40.9,-11.6 -83.5,-15.1 -125.8,-18.1 -24.4,-1.5 -48.7,-4.1 -73.1,-5.7 -156.2,-9.2 -312.9,-14.2 -469.5,-13.8 M 436.39538,78.2 c 46.7,-20 96.8,-33.5 147.8,-34.9 21.8,-0.4 43.7,0.8 65,5.7 18.8,4.9 36,14.2 54.8,19 8.5,2.1 17.3,-0.4 25,-4.2 11,-5.5 20.6,-13.5 31.8,-18.8 -17.5,45.1 -33.1,91.2 -57.1,133.4 -1.4,-19.6 -2.8,-39.6 -9.9,-58.1 -6.7,-18.2 -20.8,-33.1 -37.7,-42.3 -14.3,-7.8 -30.6,-11 -46.8,-12 -14.8,-0.7 -29.6,0.2 -44.3,2.3 -52.4,10 -101.6,34.8 -142,69.5 -27,23 -49.8,50.8 -67.6,81.4 -15.2,26.2 -28,54.5 -32.2,84.7 -1.8,12.5 -2.1,25.3 -0.4,37.9 1.8,13 5.2,26 12.5,37 13.9,21.6 37.2,35.2 61.2,42.6 18.9,5.9 39,7 58.6,4.6 21,-2.5 41.5,-8.5 61.4,-15.4 31.4,-11 61.1,-26.7 88.4,-45.8 32,-22.4 61,-48.9 87.5,-77.4 9.9,-9.4 19.4,-19.2 29.3,-28.6 -3.4,11.8 -9.8,22.4 -15.8,33 -33.4,56.5 -83.4,102.6 -140.9,133.9 -22.1,11.4 -47.7,11.1 -71.9,11 -23.7,0.6 -47.5,1.1 -71.1,2.9 -30.3,2.1 -60.6,5 -91,4.1 -5.3,-0.1 -9.9,-3.1 -14.6,-5.2 -27.2,-13 -51.4,-33.6 -65.5,-60.5 -11.4,-21.8 -14.6,-47 -13.2,-71.2 2.1,-35.5 15.4,-69.7 35.6,-98.7 20.9,-30.7 47.4,-57.5 77,-79.9 26.6,-20 55.3,-37.4 86.1,-50 m 1710.80002,145 c 32.6,-16.5 68.2,-28.3 105,-29.5 19.1,-0.3 38.5,-0.5 57.1,4.6 18.2,4.7 35.7,13.3 49.4,26.4 10.4,9.8 19.3,21.6 23.6,35.3 5,16.6 4.3,34.5 -0.3,51.1 -3,11.2 -8.2,21.6 -14,31.6 -15.1,25.6 -36.4,47.3 -60.8,64.2 -20,13.7 -41.7,24.9 -64.2,33.8 -9.8,3.6 -20.5,2.5 -30.7,1.8 -45.9,-3.8 -92,-5.9 -138.1,-5.1 -19.6,-14.2 -35.6,-35 -40,-59.2 -3.4,-18 1.8,-36.2 8.6,-52.7 14.1,-33.4 39.5,-61.2 69.1,-81.7 11.3,-7.7 23.2,-14.4 35.3,-20.6 m 101.2,0 c -20.4,2.3 -39.5,10.9 -57.4,20.6 -30.1,17 -56.3,41.7 -72.6,72.4 -8.6,16.1 -14.2,34.3 -13.2,52.7 0.6,8.7 2.2,17.7 6.7,25.3 5.2,8.9 13.5,15.9 22.9,20.2 16,7.6 34.6,8.7 51.8,4.8 60.3,-12.6 112.3,-58.6 132.3,-116.9 3.4,-11.1 4.4,-23 2.2,-34.4 -2.5,-13.9 -10.6,-26.7 -22.3,-34.6 -14.4,-10.4 -33.2,-12.2 -50.4,-10.1 m -219.3,-18.7 c 7.9,-2 15.9,-3.4 24,-4.1 4.5,-0.3 9.7,0.1 12.9,3.7 2.7,3.1 2.7,7.7 1.6,11.5 -4.9,19.5 -18.9,36 -36.4,45.6 -15.7,8.6 -34.9,11.6 -52,5.7 -3.4,-1.1 -7.7,-2.3 -8.6,-6.2 -1.4,-8.6 3.4,-16.6 8.1,-23.4 -17,9.4 -34.5,17.9 -51,28.2 -2.8,1.6 -3.1,5.1 -4.3,7.7 -15.7,43.2 -36.9,84.2 -51.8,127.8 -3.1,9 0.3,18.3 1,27.4 -29.4,-1.1 -58.9,-1.1 -88.3,-2.4 11.3,-10.5 23,-22.1 27.3,-37.4 16.8,-46.8 42.2,-90.4 54.3,-138.9 -4.9,-2.4 -9.8,-4.9 -14.7,-7.2 0,-3.4 0.3,-6.7 0.5,-10.1 33.8,-7.4 65.2,-22.8 99,-30 -4.7,16.2 -10.7,32 -17.5,47.4 30.8,-17.5 61.4,-36.5 95.9,-45.3 m -899,28.9 c 34.3,-9 66.8,-23.6 101.5,-31.1 -22.1,59.8 -47.2,118.4 -72.2,177 -2.2,5.4 -5.1,10.7 -6,16.5 -1.6,8.6 -0.4,17.4 0.5,26 -29,0 -58,0.6 -86.9,0 11.9,-10.4 20,-24.3 26.5,-38.5 8.5,-19.1 15.5,-38.8 24.2,-57.8 10.7,-24.1 22.1,-48.5 25.8,-74.8 -4.5,-5.7 -9.1,-11.4 -13.4,-17.3 m 539.1,0.2 c 35.6,-8.3 69.2,-23.5 104.9,-31.2 -23,64.9 -53.4,126.8 -79,190.6 -1.7,4.5 -4.2,9 -4.1,14 0.2,6.3 2.1,12.3 3.2,18.5 -27.7,0.1 -55.5,0.6 -83.1,-2.1 2.9,-4.8 6.8,-9 9.7,-13.8 11.5,-17.7 19.5,-37.3 27,-56.9 7.1,-18.6 14.7,-37.1 22.6,-55.4 6.4,-14.6 12.3,-29.4 16.4,-44.8 -6.4,-5.8 -12.4,-12.1 -17.6,-18.9"
     id="path3" />
</svg>
