<?xml version='1.0' encoding='utf-8'?>
<svg xmlns="http://www.w3.org/2000/svg" width="600" height="182.0631250938493" xml:space="preserve" version="1.1" id="svg6" viewBox="0 0 520.7818 158.02527">
    <defs id="defs6">
        <linearGradient id="linearGradient6" gradientUnits="userSpaceOnUse" x1="7.4770002" y1="846.32397" x2="561.11798" y2="846.32397" gradientTransform="translate(-0.095,-757.002)">
            <stop offset="0" style="stop-color:#f090a7" id="stop1-3"/>
            <stop offset=".149" style="stop-color:#ef7b75" id="stop2-6"/>
            <stop offset=".256" style="stop-color:#ee6e5e" id="stop3-7"/>
            <stop offset=".589" style="stop-color:#fce72c" id="stop4-5"/>
            <stop offset=".813" style="stop-color:#acdee4" id="stop5-3"/>
            <stop offset="1" style="stop-color:#a3ddf2" id="stop6-5"/>
        </linearGradient>
        <linearGradient id="a" gradientUnits="userSpaceOnUse" x1="7.4770002" y1="846.32397" x2="561.11798" y2="846.32397" gradientTransform="matrix(0.89076,0,0,0.80444,8.044468,-601.87898)">
            <stop offset="0" style="stop-color:#f090a7" id="stop1"/>
            <stop offset=".149" style="stop-color:#ef7b75" id="stop2"/>
            <stop offset=".256" style="stop-color:#ee6e5e" id="stop3"/>
            <stop offset=".589" style="stop-color:#fce72c" id="stop4"/>
            <stop offset=".813" style="stop-color:#acdee4" id="stop5"/>
            <stop offset="1" style="stop-color:#a3ddf2" id="stop6"/>
        </linearGradient>
    </defs>
    <path style="baseline-shift:baseline;display:inline;overflow:visible;vector-effect:none;fill:#ffffff;stroke:none;stroke-width:15;stroke-linecap:round;stroke-linejoin:round;stroke-dasharray:none;stroke-opacity:1;paint-order:markers stroke fill;enable-background:accumulate;stop-color:#000000" d="M 37.424099,0 C 24.747386,0 14.806338,4.359472 8.651855,10.614838 2.497371,16.870203 0,24.51714 0,31.33231 v 22.854266 c 0,16.451848 9.411935,29.497372 23.718225,33.75191 l 44.485807,66.576844 a 7.8929293,7.128057 0 0 0 6.75725,3.44558 h 28.932298 a 7.8929293,7.128057 0 0 0 6.67897,-3.33088 l 22.2516,-31.93721 v 22.20223 a 7.8929293,7.128057 0 0 0 0,0.0534 c 0.0224,2.68706 0.62024,5.79707 3.07764,8.59117 2.45741,2.79411 6.80631,4.42128 10.73261,4.42128 h 96.63355 c 4.43077,0.01 8.23315,-1.16974 11.67035,-2.65528 0.0505,-0.0218 0.0906,-0.0504 0.14091,-0.0722 2.18301,1.54219 4.97421,2.72755 7.93682,2.72755 h 24.98825 c 1.35625,0 2.55944,0.082 4.38769,-0.099 1.82825,-0.181 5.05904,-1.03157 7.14696,-3.26018 0.0281,-0.03 0.0403,-0.0595 0.0679,-0.0896 4.20321,1.88637 9.61286,3.44872 16.46166,3.44872 h 46.14207 a 7.8929293,7.128057 0 0 0 0.36535,-0.008 c 6.66366,-0.27913 12.18901,-1.6936 16.60433,-3.50058 0.41445,0.40993 0.73882,0.86902 1.24219,1.23023 4.10223,2.94369 8.42976,2.2782 8.84496,2.2782 h 24.98652 c 3.60885,0 5.62581,-0.8126 8.42395,-2.54373 2.79813,-1.73112 6.04394,-5.30424 6.04394,-9.92981 v -33.25227 h 12.4776 c 0.0567,8e-5 0.47811,0.1335 0.66981,0.22467 v 33.0276 a 7.8929293,7.128057 0 0 0 0.002,0.0644 c 0.0355,3.57636 1.28941,5.46788 3.35253,7.75216 2.06312,2.28428 5.7404,4.65695 10.45774,4.65695 h 25.64414 c 4.4336,0 7.20193,-1.75217 9.47128,-3.76295 2.26935,-2.01079 4.33898,-4.65627 4.33898,-8.71058 V 99.762956 a 7.8929293,7.128057 0 0 0 -0.0626,-0.89242 c -0.32412,-2.31898 -0.91996,-5.9636 -2.8393,-10.22991 C 508.82727,85.202188 520.7818,72.818277 520.7818,58.70352 V 30.191639 C 520.7818,14.234236 505.09524,0 483.51081,0 H 438.9815 C 430.58343,0 423.94895,1.908268 418.73585,4.353718 416.95425,2.234465 414.0103,0 409.65418,0 h -51.49706 c -6.40296,0 -11.61618,1.014839 -15.71704,2.504448 A 7.8929293,7.128057 0 0 0 336.66753,0 h -90.08506 a 7.8929293,7.128057 0 0 0 -7.89157,7.126836 v 38.595837 h -9.20337 V 11.876489 C 229.48753,4.521642 222.64842,0 215.67728,0 h -24.98679 c -2.83509,0 -5.84951,0.723513 -8.1856,2.270344 -0.51217,0.339131 -0.81511,0.770416 -1.23871,1.154811 -0.73886,-0.296531 -1.47048,-0.614959 -2.21994,-0.872 C 174.05879,0.842619 168.60238,0 163.23699,0 H 119.207 C 109.76603,0 102.93091,1.640199 97.89313,4.006489 96.0274,2.041952 92.90643,0 88.7698,0 Z M 119.207,14.253672 h 44.02999 c 3.40058,0 7.31373,0.634986 10.20372,1.626162 2.88999,0.991176 4.37554,2.468258 4.31637,2.364615 a 7.8929293,7.128057 0 0 0 14.88369,-2.724413 c 0.0755,-0.89349 0.0567,-0.773408 0.10612,-1.266364 h 20.95722 v 34.345816 c 0,1.829521 0.20547,3.665595 1.19348,5.634223 0.98801,1.968628 3.09154,3.882893 5.1584,4.757508 4.13373,1.749231 6.49434,0.998627 7.66367,0.985126 h 18.86254 a 7.8929293,7.128057 0 0 0 7.89158,-7.126836 V 14.253672 h 74.30191 v 0.545196 a 7.8929293,7.128057 0 0 0 13.38053,5.122021 c 1.9447,-1.699817 2.33415,-2.352527 4.41205,-3.428298 2.0779,-1.075769 5.40695,-2.238919 11.58858,-2.238919 h 48.20716 v 1.733002 a 7.8929293,7.128057 0 0 0 13.59975,4.922481 c 3.03853,-2.872911 7.86956,-6.655483 19.01738,-6.655483 h 44.52931 c 14.24727,0 21.4861,8.330105 21.4861,15.937967 v 28.512056 c 0,7.83417 -8.52545,16.712555 -21.94019,16.712555 h -4.35985 a 7.8929293,7.128057 0 0 0 -5.80038,11.961336 c 6.70858,6.56216 5.86343,7.73396 6.45453,12.677784 v 43.6503 h -21.69662 v -31.47215 c 0,-4.43734 -2.50782,-8.4143 -5.67337,-10.76095 -3.16554,-2.346654 -6.85799,-3.487184 -10.75523,-3.492724 a 7.8929293,7.128057 0 0 0 -0.0122,0 h -20.38309 a 7.8929293,7.128057 0 0 0 -7.89158,7.128414 v 38.59741 h -21.69139 c 5.1e-4,-0.16774 -0.0173,-0.0774 -0.0104,-0.27653 a 7.8929293,7.128057 0 0 0 -14.3635,-4.29716 c 0.36297,-0.47013 -1.16717,1.1049 -3.77007,2.22164 -2.59068,1.11151 -6.34079,2.14042 -11.19713,2.35205 h -45.8376 c -11.10444,0 -11.25064,-2.596 -16.38511,-6.52822 a 7.8929293,7.128057 0 0 0 -12.9978,5.43626 c 0,0.55512 -0.0285,0.63152 -0.0365,1.09196 h -21.57309 a 7.8929293,7.128057 0 0 0 -13.39097,-3.36703 c 0.0369,-0.0401 -1.67581,1.29594 -3.55957,2.11009 -1.88375,0.81415 -4.07728,1.25856 -4.81914,1.25694 a 7.8929293,7.128057 0 0 0 -0.0192,0 H 148.60732 V 97.982996 a 7.8929293,7.128057 0 0 0 -14.57228,-3.79595 L 99.53375,143.70567 H 79.41682 L 35.691292,78.266356 A 7.8929293,7.128057 0 0 0 30.466776,74.957468 C 21.336219,73.325005 15.783154,67.470512 15.783154,54.186576 V 31.33231 c 0,-3.533951 1.460609,-7.989839 4.667791,-11.249591 3.207181,-3.259752 8.030231,-5.827476 16.973154,-5.827476 H 85.4799 v 2.097514 a 7.8929293,7.128057 0 0 0 13.39272,5.112594 c 2.4473,-2.147184 3.32154,-3.359906 5.77603,-4.620817 2.45448,-1.260911 6.52801,-2.590862 14.55835,-2.590862 z M 94.28486,63.731445 A 7.8929293,7.128057 0 0 0 85.4799,70.809574 V 75.41625 H 71.673125 A 7.8929293,7.128057 0 0 0 64.72972,85.928961 l 17.75257,29.692009 a 7.8929293,7.128057 0 0 0 13.49536,0.58919 L 118.5859,85.836262 a 7.8929293,7.128057 0 0 0 -5.52723,-11.043767 c -8.04026,-0.94761 -9.78526,-3.646847 -13.2257,-8.075823 a 7.8929293,7.128057 0 0 0 -5.54811,-2.985227 z m 4.68519,21.51877 c 0.243,0.127302 0.52072,0.232023 0.77071,0.355085 l -9.57567,12.863186 -5.26105,-8.79856 h 3.86576 c 2.70747,-1e-5 6.31071,-0.60874 9.03113,-3.06222 0.47353,-0.427073 0.81205,-0.895525 1.16912,-1.357491 z m 314.78797,58.406745 c -0.0394,0.0244 -1.31012,0.0487 0.49584,0.0487 h -0.53064 c 0.002,-0.002 0.0365,-0.0498 0.0348,-0.0487 z" id="path7"/>
    <path d="m 93.60998,16.309828 c 3.31452,-2.90805 7.73893,-9.226122 25.83382,-9.226122 h 44.03027 c 8.76597,0 18.7407,2.956317 21.53501,7.85053 0.20132,-2.382751 -0.29573,-7.85053 5.91821,-7.85053 h 24.9876 c 2.98583,0 5.91821,2.042473 5.91821,4.750218 v 36.721882 c 0,4.796875 2.81837,4.287665 6.02332,4.250661 h 18.96339 V 7.083706 h 90.08523 v 7.672749 c 1.9962,-1.744831 6.7778,-7.672749 21.4887,-7.672749 h 51.4984 c 2.92792,0 4.47161,3.974738 4.60166,5.890914 v 2.969188 c 3.94607,-3.730993 11.34383,-8.860102 24.72483,-8.860102 h 44.52909 c 17.91586,0 29.37905,11.281467 29.37905,23.064099 v 28.513376 c 0,12.225879 -12.51251,23.838775 -29.83334,23.838775 h -4.36027 c 8.06762,7.89156 7.87076,12.37631 8.54773,17.21984 v 45.724374 c 0,2.53318 -3.29135,5.34631 -5.91731,5.34631 h -25.64409 c -3.70378,0 -5.90307,-3.64331 -5.91999,-5.34631 v -33.25394 c 0,-4.50728 -4.58742,-7.1201 -8.54952,-7.12573 h -20.38237 v 40.37967 c 0,3.67066 -4.77358,5.34631 -6.57648,5.34631 h -24.98671 c -2.31954,0 -6.20058,0.59287 -5.9191,-7.62529 -1.97125,2.5533 -9.26925,7.12815 -21.13773,7.62529 h -46.14226 c -13.43979,0 -17.79115,-5.38733 -21.48959,-8.21977 0,8.73059 -0.64758,8.21977 -6.5747,8.21977 h -24.98671 c -4.30326,0 -5.2635,-3.84603 -5.2635,-5.93838 -2.47542,2.68925 -9.2933,5.94964 -14.46594,5.93838 H 146.8712 c -4.27743,0 -5.8906,-2.62489 -5.91821,-5.93838 V 97.939576 L 104.13075,150.79048 H 75.198864 L 29.171513,81.906279 C 16.406923,79.624083 8.12909,69.70936 8.12909,54.143446 V 31.289306 C 8.12909,20.940185 16.042602,7.08451 37.662238,7.08451 H 89.00743 c 3.01076,0 4.60255,3.237871 4.60255,4.4751 z m 18.6641,65.507158 C 101.75598,80.577344 97.25497,75.458693 93.60998,70.766394 v 7.575412 c -0.0811,2.934597 -1.4457,4.15815 -4.60255,4.15815 H 71.911069 L 89.66481,112.19104 Z" id="path1" style="stroke-width:15;stroke-dasharray:none;paint-order:markers stroke fill"/>
    <path d="m 257.33969,80.718926 v 18.40961 h -57.86377 c -6.61479,0 -6.24423,5.937574 0,5.937574 h 38.137 c 29.71397,0 29.70506,39.78599 0,39.78599 H 177.777 v -17.81432 h 57.2055 c 6.84727,0 6.38319,-5.93838 0,-5.93838 h -35.50658 c -30.53347,0 -30.42569,-40.380474 0,-40.380474 z m 132.82567,0 h 67.72716 c 12.15531,0 22.98606,8.52385 23.01368,20.191444 v 43.94254 h -24.32933 v -38.00336 c 0,-6.34381 -4.17678,-7.629304 -9.2069,-7.720214 H 414.4938 V 144.85291 H 390.16358 V 80.718926 Z m -63.78108,17.88592 c -6.46514,0.0346 -9.2069,3.700424 -9.2069,8.242294 v 11.87675 c 0,4.93363 4.69698,8.31309 9.2069,8.31309 h 26.95974 c 3.19783,0 8.54951,-1.95479 8.54951,-8.31309 v -11.87675 c 0,-3.99646 -2.69098,-8.416854 -8.54951,-8.387894 z m -9.2069,-17.88592 h 45.37175 c 14.40359,0 23.67106,8.85849 23.67106,19.595354 v 23.75109 c 0,16.84337 -16.11385,20.78513 -23.67106,20.78513 h -45.37175 c -17.04291,0 -24.32933,-12.38516 -24.32933,-20.78513 v -23.75109 c 0,-13.677094 13.55292,-19.595354 24.32933,-19.595354 z m -53.26121,0 H 288.2455 V 144.8521 h -24.32933 z m -117.04497,0 h 24.32932 V 144.8521 H 146.8712 Z m -110.468497,0 H 63.362445 L 89.66392,122.28676 120.56883,80.718926 h 22.35719 L 100.84295,144.85371 H 78.73874 Z M 253.3954,13.022082 h 76.93227 V 29.05618 h -53.26121 v 5.938376 h 53.26121 v 16.034098 h -53.26121 c 0,5.894132 4.79585,8.313083 9.86249,8.313083 h 43.39872 v 17.220647 h -55.89163 c -12.52319,0 -21.13239,-9.387814 -21.10299,-19.595354 z m -61.81072,0 h 23.67194 v 38.004963 c 0,5.45893 4.55624,8.369394 9.86339,8.313083 h 25.64498 v 17.220647 h -36.82313 c -10.45485,0 -22.35629,-4.243421 -22.35629,-19.595353 z m 218.30835,-8.04e-4 h -53.263 c -15.32374,0 -21.66328,12.729458 -21.69802,19.595354 v 23.752699 c 0,15.404222 14.03303,20.87361 21.69802,20.784317 h 53.263 V 59.339324 h -40.77009 c -2.90209,0 -9.86249,-1.939505 -9.86249,-7.720211 V 39.149489 c 0,-5.939985 4.95173,-8.313888 9.86249,-8.313888 h 40.77009 z m 38.137,17.886723 c -6.46514,0.03379 -9.2069,3.700424 -9.2069,8.241488 v 11.877556 c 0,4.933631 4.69698,8.313083 9.2069,8.313083 h 26.95974 c 3.19783,0 8.54951,-1.955593 8.54951,-8.313083 V 39.151098 c 0,-3.994045 -2.69455,-8.416856 -8.54951,-8.385483 z m -9.2069,-17.885919 h 45.37353 c 14.40003,0 23.66928,8.858493 23.66928,19.595354 v 23.7527 c 0,16.843365 -16.11385,20.784316 -23.66928,20.784316 h -45.37353 c -17.04113,0 -24.32933,-12.384354 -24.32933,-20.784316 v -23.7527 c 8.9e-4,-13.676284 13.55381,-19.595354 24.32933,-19.595354 z M 127.14442,30.908001 c -6.46424,0.03459 -9.20511,3.700424 -9.20511,8.242292 V 51.02785 c 0,4.93363 4.69698,8.313083 9.20511,8.313083 h 26.95975 c 3.19604,0 8.54773,-1.955594 8.54773,-8.313083 V 39.151098 c 0,-3.994045 -2.69455,-8.416856 -8.54773,-8.385483 z m -9.20511,-17.885919 h 45.37086 c 14.40092,0 23.67284,8.858493 23.67284,19.595354 v 23.7527 c 0,16.843365 -16.11474,20.784316 -23.67284,20.784316 h -45.37086 c -17.04202,0 -23.67195,-12.384354 -23.67195,-20.784316 v -23.7527 c 0,-13.676284 12.89554,-19.595354 23.67195,-19.595354 z m -28.2745,0 H 36.403594 c -15.324635,0 -21.664174,12.729459 -21.698914,19.595354 v 23.7527 c 0,15.404221 14.032143,20.873609 21.698914,20.784316 H 89.66481 V 59.340933 H 48.239122 c -2.900315,0 -9.863385,-1.940309 -9.863385,-7.720211 V 39.151098 c 0,-5.939985 4.951734,-8.313888 9.863385,-8.313888 H 89.66481 Z" style="fill:url(#a);stroke-width:15;stroke-dasharray:none;paint-order:markers stroke fill" id="path6"/>
</svg>
