<?xml version='1.0' encoding='utf-8'?>
<svg xmlns:xlink="http://www.w3.org/1999/xlink" xmlns="http://www.w3.org/2000/svg" width="600" height="130.65811135733225" viewBox="0 0 2564.2712 558.40472" version="1.1" id="svg23">
    <defs id="defs27">
        <linearGradient id="linearGradient110405">
            <stop style="stop-color:#e4d47f;stop-opacity:1" offset="0" id="stop110403"/>
        </linearGradient>
        <linearGradient id="linearGradient47203">
            <stop style="stop-color:#87622e;stop-opacity:1" offset="0" id="stop47199"/>
            <stop style="stop-color:#deca77;stop-opacity:1" offset="1" id="stop47201"/>
        </linearGradient>
        <linearGradient id="linearGradient47151">
            <stop style="stop-color:#87622e;stop-opacity:1" offset="0" id="stop47149"/>
        </linearGradient>
        <linearGradient xlink:href="#linearGradient47203" id="linearGradient110449" x1="1919.818" y1="159.45549" x2="1919.818" y2="293.48044" gradientUnits="userSpaceOnUse"/>
        <linearGradient xlink:href="#linearGradient47203" id="linearGradient180882" x1="1101.189" y1="509.72894" x2="1101.189" y2="395.27228" gradientUnits="userSpaceOnUse"/>
        <linearGradient xlink:href="#linearGradient47203" id="linearGradient6" gradientUnits="userSpaceOnUse" x1="1101.189" y1="509.72894" x2="1101.189" y2="395.27228"/>
    </defs>
    <g id="g6" transform="translate(-467.5746,-964.83374)">
        <path style="baseline-shift:baseline;display:inline;overflow:visible;vector-effect:none;fill:#ffffff;fill-opacity:1;stroke:none;stroke-width:37.5;stroke-linecap:round;stroke-linejoin:round;stroke-miterlimit:4;stroke-dasharray:none;stroke-opacity:1;paint-order:markers stroke fill;enable-background:accumulate;stop-color:#000000" d="m 2114.8479,1068.0812 c -3.3835,0.028 -6.3402,0.113 -8.8638,0.062 a 25.002499,25.002499 0 0 0 -1.1484,0 c -0.4538,0.012 -2.0976,-0.062 -4.8676,-0.041 0,0 -7e-4,0 0,0 -2.7695,0.021 -6.7855,0.1552 -11.6675,1.4971 a 25.002499,25.002499 0 0 0 -0.5523,0.1582 c -15.1668,4.5458 -24.5316,17.6852 -23.7187,33.602 l -0.034,-1.2715 c 0.01,92.6902 0.02,185.3769 0,278.0713 l 0.032,-1.2422 c -0.6776,13.5537 5.9204,25.1427 18.1992,31.333 11.2784,5.878 19.2517,3.8875 19.5893,3.8965 a 25.002499,25.002499 0 0 0 1.0592,0.01 c 6.0403,-0.094 13.0524,0.1083 20.83,-0.095 19.3806,-0.01 34.275,-14.6011 33.772,-34.5132 l 0.01,0.6475 c 0.06,-92.3736 -0.011,-184.7261 0.029,-277.0562 l -0.1186,2.42 c 1.8328,-18.7676 -10.685,-35.4893 -30.687,-37.1631 a 25.002499,25.002499 0 0 0 -0.4395,-0.034 c -4.2275,-0.2787 -8.0378,-0.3076 -11.4214,-0.2798 z m 283.0225,0.018 c -3.3376,0.023 -6.3277,0.088 -8.9634,0.042 a 25.002499,25.002499 0 0 0 -0.9331,0 c -0.5636,0.011 -2.3036,-0.073 -5.1562,-0.031 v 0 c -2.855,0.043 -6.9668,0.2294 -11.915,1.6933 a 25.002499,25.002499 0 0 0 -1.9614,0.6695 c -12.8397,4.989 -22.5799,16.6032 -21.6343,33.038 l -0.043,-1.4414 c -0.02,92.6756 -0.01,185.359 0,278.0288 l 0.046,-1.5366 c -1.3046,21.2218 14.7673,36.0873 34.7344,35.5049 l -1.0854,0.01 c 8.7265,0.1242 17.3738,0.093 25.913,0.012 l -1.2201,-0.017 c 19.9443,0.7845 36.2718,-14.2101 35.0712,-35.3496 l 0.041,1.415 c -0.01,-92.6582 -0.01,-185.3166 0,-277.9849 l -0.038,1.3784 c 1.0874,-19.6618 -12.7509,-34.3188 -31.9043,-35.2294 -3.9829,-0.2031 -7.6423,-0.2239 -10.9511,-0.2007 z m -727.7373,0.032 c -0.5403,0.01 -2.0548,-0.054 -4.5103,0 -2.4405,0.055 -5.9081,0.2387 -10.1074,1.3565 a 25.002499,25.002499 0 0 0 -0.8086,0.2299 c -14.6237,4.424 -24.6646,16.7844 -23.9165,33.46 l -0.025,-1.1265 c -0.02,92.7037 -0.02,185.4175 0,278.1211 l 0.032,-1.2539 c -0.8345,16.684 9.182,29.1701 23.8754,33.6314 a 25.002499,25.002499 0 0 0 0.6929,0.1992 c 7.8374,2.1346 12.6698,1.3877 13.7549,1.4048 a 25.002499,25.002499 0 0 0 0.8218,0 c 5.9586,-0.1019 13.0236,0.1385 21.0029,-0.1187 19.1695,-0.2238 34.1392,-14.6424 33.2769,-34.8618 l 0.023,1.0708 c 0.02,-92.7336 0.02,-185.468 0,-278.2017 l -0.025,1.1177 c 0.9038,-20.3138 -14.2318,-34.7862 -33.4394,-34.9292 -7.5584,-0.2313 -14.2602,-0.015 -19.9219,-0.1 a 25.002499,25.002499 0 0 0 -0.7251,0 z m -976.1924,0.1128 c -3.16101,0.015 -4.98051,0.4321 -5.2749,0.419 a 25.002499,25.002499 0 0 0 -1.51758,-0.021 c -9.54064,0.1548 -19.47618,-0.051 -29.80371,-0.1699 -10.32603,-0.1194 -21.04494,-0.1537 -32.14453,0.4526 a 25.002499,25.002499 0 0 0 -0.12451,0.01 c -36.69049,2.1871 -71.16176,17.3305 -98.30566,40.7182 -29.55136,25.3001 -50.91588,60.5788 -57.14209,100.1631 a 25.002499,25.002499 0 0 0 -0.0366,0.2417 c -7.32845,49.7503 5.28452,102.59 38.38623,142.3389 22.57282,27.4995 54.26254,47.0153 89.58106,53.9634 a 25.002499,25.002499 0 0 0 0.085,0.016 c 38.46768,7.4292 75.51996,5.5884 109.77246,5.7642 h -0.104 c 12.30451,0.1147 28.05831,0.2551 44.73193,-6.7178 15.67456,-6.2881 27.02844,-18.8004 32.56055,-33.8745 8.11089,-21.5369 6.03131,-41.0335 6.1582,-55.1821 l -0.0234,0.8876 c 0.1414,-3.1764 0.13059,-6.1203 0.16846,-9.1479 5.09579,2.2539 10.4723,3.9398 16.03564,5.0024 a 25.002499,25.002499 0 0 0 0.31201,0.057 c 17.44936,3.1044 32.34687,1.9386 44.06836,2.4976 a 25.002499,25.002499 0 0 0 0.009,0 c 3.12382,0.1478 4.8607,1.0661 4.75781,0.9887 a 25.002499,25.002499 0 0 0 0.1626,0.1216 c -0.68244,-0.5045 0.19707,0.2544 0.70165,2.1328 1.81982,8.4359 -1.66696,25.9683 6.60792,48.9111 6.26303,18.3319 19.83995,33.5826 38.48583,41.1768 16.17162,6.8262 31.14378,6.1471 42.21827,5.8272 a 25.002499,25.002499 0 0 0 0.18017,-0.01 c 18.85492,-0.6811 33.65214,-14.9329 32.25879,-35.3833 l 0.0586,1.6098 c -0.0293,-8.1485 0.031,-16.5197 -0.0308,-25.0913 l -0.006,0.7354 c 0.33216,-14.9529 -8.2236,-25.0055 -18.50098,-30.2198 a 25.002499,25.002499 0 0 0 -0.30469,-0.1508 c -2.28184,-1.119 -4.39034,-1.7869 -6.38818,-2.294 -0.092,-1.5188 -0.1187,-2.4287 -0.27393,-4.5161 -1.27151,-20.5218 -7.1598,-42.5559 -21.88183,-61.0342 -4.51888,-5.7702 -9.68011,-10.7546 -15.23731,-15.0981 8.48507,-6.7533 15.93386,-14.9696 21.66797,-24.7427 13.39242,-22.444 15.42045,-48.0581 11.20899,-70.9277 -3.65657,-20.9107 -13.99428,-41.3081 -31.90723,-55.7549 -18.05382,-14.8114 -39.91883,-20.7629 -60.3999,-21.6533 a 25.002499,25.002499 0 0 0 -0.20801,-0.01 c -11.52111,-0.4046 -23.25302,-0.7286 -35.21338,-0.6445 h 0.22998 c -13.62474,-0.03 -29.53754,-0.3697 -46.83692,3.7207 -14.88341,3.4119 -29.90429,10.0545 -42.53613,21.0161 -2.44902,-10.6754 -9.90521,-19.2657 -20.80957,-23.4478 a 25.002499,25.002499 0 0 0 -2.07568,-0.6929 c -5.65646,-1.618 -10.15882,-2.0047 -13.31983,-1.9892 z m 27.83204,34.3638 c -0.0179,0.02 -0.0319,0.043 -0.0498,0.063 -0.0216,0.025 -0.0458,0.045 -0.0674,0.07 z m 164.59863,22.3345 0.29004,0.227 c -0.0508,-0.041 -0.10299,-0.07 -0.15381,-0.1099 -0.0479,-0.037 -0.0881,-0.08 -0.13623,-0.1171 z m -155.38623,2.225 -10e-4,0.2183 c 6.1e-4,-0.07 -6e-4,-0.1346 0,-0.2051 0,0 10e-4,-0.01 10e-4,-0.013 z m -174.72656,14.6807 c -0.0204,0.017 -0.0382,0.037 -0.0586,0.054 -0.0194,0.016 -0.0407,0.03 -0.0601,0.047 z m 347.79785,12.1655 0.0659,0.3311 c -0.005,-0.027 -0.0167,-0.054 -0.022,-0.081 -0.0167,-0.081 -0.027,-0.1693 -0.0439,-0.2505 z m -205.88379,5.8741 c -0.008,0.064 -0.008,0.1178 -0.0161,0.1816 -0.0104,0.094 -0.028,0.1903 -0.0381,0.2842 z m -0.0586,0.6811 c -1.6445,13.6058 -0.58602,24.3969 -1.04443,32.0567 a 25.002499,25.002499 0 0 0 -0.0454,1.4179 c -0.11971,39.9146 10e-4,79.8635 0.47754,119.8184 -0.1362,3.4062 -0.16385,5.0862 -0.22119,7.1748 -3.16147,-0.1031 -6.78347,-0.2238 -11.2207,-0.145 h 1.04883 c -17.69265,-0.4281 -34.87841,-0.3773 -51.56836,-0.8599 -10.53226,-0.5465 -20.97567,-3.1173 -30.3003,-7.5366 a 25.002499,25.002499 0 0 0 -0.0381,-0.018 c -14.58896,-6.8842 -27.17367,-18.8717 -34.73144,-33.0937 a 25.002499,25.002499 0 0 0 -0.0762,-0.1421 c -8.47571,-15.7028 -11.64235,-34.9106 -8.7085,-52.582 a 25.002499,25.002499 0 0 0 0.006,-0.034 c 2.90669,-17.662 12.83918,-34.8097 26.7583,-46.522 a 25.002499,25.002499 0 0 0 0.11866,-0.1011 c 12.54856,-10.6928 28.95138,-17.4328 45.41162,-18.6899 20.63515,-0.8316 41.79315,-0.658 63.45263,-0.687 0.23594,7e-4 0.44684,-0.057 0.68115,-0.06 z m 110.78614,2.1094 c 13.61497,0.087 27.71347,0.6858 42.29883,1.0239 1.97221,0.1084 3.25443,0.4291 3.92284,0.6182 0.63992,3.1523 0.089,5.0414 0.13185,5.1899 -0.27897,0.1159 -1.27481,0.7782 -3.19776,1.2261 -9.58404,2.0797 -29.85062,-3.9795 -56.89014,5.1182 -1.20863,0.3849 -2.37177,0.8777 -3.55371,1.3271 0.0131,-0.7933 0.0113,-1.5901 0.0249,-2.3833 0.21289,-6.2735 1.42953,-9.4098 1.53662,-10.1323 0.82261,-0.4069 5.59844,-1.6885 15.72656,-1.9878 z m 46.33008,7.0767 c 0.002,0 -0.005,0.027 -0.003,0.023 a 25.002499,25.002499 0 0 0 -0.0615,0.094 c 0.0503,-0.077 0.0299,-0.062 0.0644,-0.1172 z m 41.75097,27.5302 -0.0615,0.094 c 0.0109,-0.016 0.0184,-0.033 0.0293,-0.05 0.0103,-0.016 0.022,-0.028 0.0322,-0.044 z m -143.34228,17.023 c -0.0133,0.034 -0.0219,0.069 -0.0352,0.1025 -0.009,0.022 -0.0207,0.042 -0.0293,0.064 z m 122.66748,11.0654 0.43213,0.1055 c -0.0817,-0.021 -0.16009,-0.032 -0.24171,-0.053 -0.0639,-0.015 -0.12649,-0.038 -0.19042,-0.053 z m -75.66065,6.3691 a 25.002499,25.002499 0 0 0 -1.64208,8.3951 v 6.4907 a 25.002499,25.002499 0 0 0 0.68115,3.4424 c -1.77893,-4.906 -1.83033,-11.6124 0.44531,-17.3614 a 25.002499,25.002499 0 0 0 0.0644,-0.1655 c 0.10303,-0.2658 0.31952,-0.5333 0.45117,-0.8013 z m 76.68604,29.8389 -0.54785,0.1406 c 0.0771,-0.019 0.15148,-0.048 0.22851,-0.067 0.10836,-0.029 0.21082,-0.044 0.31934,-0.073 z m -122.10351,11.9136 c 0.0211,0.044 0.0491,0.083 0.0703,0.1274 0.0245,0.05 0.0398,0.1022 0.0644,0.1524 z m 130.74609,3.0688 0.1626,0.1216 c -0.0285,-0.021 -0.0579,-0.037 -0.0864,-0.059 -0.0271,-0.02 -0.0491,-0.043 -0.0762,-0.063 z m -359.65725,26.2867 c 0.013,0.025 0.0294,0.047 0.0425,0.072 0.0124,0.023 0.0213,0.047 0.0337,0.07 z m 377.66162,43.3432 c 0.0112,0.036 0.0283,0.067 0.0395,0.1026 0.01,0.031 0.0105,0.055 0.0205,0.086 z m -160.76074,2.1973 -0.1377,0.2974 c 0.0269,-0.058 0.0407,-0.1096 0.0674,-0.167 0.0212,-0.046 0.0492,-0.084 0.0703,-0.1304 z" id="path3"/>
        <path style="baseline-shift:baseline;display:inline;overflow:visible;vector-effect:none;fill:#ffffff;stroke:none;stroke-width:37.5;stroke-linecap:round;stroke-linejoin:round;stroke-dasharray:none;stroke-opacity:1;paint-order:markers stroke fill;enable-background:accumulate;stop-color:#000000" d="m 1694.6502,964.84782 c -3.0708,0.0534 -7.4834,0.30423 -12.6783,2.01563 a 25.002499,25.002499 0 0 0 -1.7241,0.64013 c -13.3495,5.51574 -21.528,17.70253 -20.9545,32.57662 l -0.018,-1.10738 c -0.051,8.76718 -0.041,17.51318 0,26.22948 l 0.022,-1.144 c -0.6107,14.8198 7.322,27.4842 21.6328,32.9399 a 25.002499,25.002499 0 0 0 2.2134,0.728 c 4.0566,1.1269 6.7576,1.6995 8.2969,1.9292 1.9515,4.4522 3.5955,11.7615 6.6621,21.4424 l -0.1612,-0.5303 c 12.5716,42.9711 26.0637,85.314 38.7876,127.5513 25.8462,86.0182 50.6651,172.6652 77.5679,258.9873 a 25.002499,25.002499 0 0 0 0.072,0.2241 c 3.5111,10.903 9.1948,21.0143 16.7915,29.6983 14.1961,16.2349 35.1649,27.0362 58.6348,26.083 15.7263,0.9653 30.43,-3.6481 42.5742,-11.3482 17.6088,-11.0238 29.2693,-28.1083 34.7695,-46.705 l -0.101,0.3354 c 26.5855,-85.4793 51.2051,-171.25 76.7739,-256.437 14.1306,-46.8566 29.1553,-93.8518 42.8818,-141.6372 a 25.002499,25.002499 0 0 0 0.01,-0.035 c 1.2907,-4.5175 2.4725,-6.874 2.9692,-7.9409 0.5213,-0.123 0.6608,-0.2037 1.8692,-0.3516 l -1.5425,0.1407 c 19.3162,-1.1564 32.3492,-16.2832 31.4693,-35.1402 l 0.028,1.2246 c 0.02,-8.7288 0.02,-17.4683 0,-26.19722 l -0.034,1.34032 c 1.0558,-20.57071 -14.2374,-35.91703 -34.5558,-35.41405 v 0 c -7.0989,-0.12517 -14.3226,0.0265 -21.6357,0.63867 a 25.002499,25.002499 0 0 0 -1.9263,0.23731 c -24.5685,3.99451 -46.8651,19.91462 -55.9453,45.27977 -3.917,10.778 -7.7199,21.7194 -11.2471,32.8609 a 25.002499,25.002499 0 0 0 -0.01,0.022 c -12.5638,39.8107 -24.1382,79.6142 -36.1186,118.9981 a 25.002499,25.002499 0 0 0 -0.025,0.085 c -23.1333,77.0225 -46.2793,153.9993 -69.6079,230.9019 -25.7126,-84.6632 -51.1055,-169.4771 -76.6611,-254.313 a 25.002499,25.002499 0 0 0 -0.034,-0.1099 c -12.1115,-39.5406 -23.3744,-80.1434 -37.4883,-120.6284 a 25.002499,25.002499 0 0 0 -0.044,-0.1289 c -2.1731,-6.1258 -4.8372,-16.7891 -14.0742,-27.46288 -10.2201,-12.19505 -24.0111,-20.79725 -39.5816,-24.51123 -10.3768,-2.5555 -17.5243,-1.69183 -20.5488,-1.87207 a 25.002499,25.002499 0 0 0 -1.768,-0.0439 c -0.6023,0.007 -2.4763,-0.10462 -5.5431,-0.0513 z m 14.6235,47.48588 0.1,0.035 c -0.038,-0.014 -0.062,-0.017 -0.1,-0.031 0,0 0,0 0,0 z m 351.0117,5.9194 c -0.074,0.054 -0.1296,0.1142 -0.2036,0.1685 -0.1002,0.075 -0.1986,0.1285 -0.2988,0.205 z m 531.0059,46.585 c -10.1888,-0.4322 -20.425,0.011 -30.5757,1.3579 a 25.002499,25.002499 0 0 0 -0.019,0 c -30.2695,4.0406 -58.9512,16.2294 -82.9599,34.7226 -30.3355,23.1547 -52.9691,55.9698 -62.9795,93.2432 -7.7878,28.444 -7.2652,57.7907 -1.5556,85.1601 a 25.002499,25.002499 0 0 0 0.01,0.032 c 7.9905,38.0512 28.5432,73.4372 59.477,98.2969 31.756,25.9065 71.8993,38.5687 111.687,38.5005 41.731,0.3644 82.8433,-14.2058 114.9595,-40.9761 2.1354,-1.7625 4.1327,-3.6777 6.1787,-5.5401 0,3.2148 -0.01,6.4087 0.01,9.6343 l 0.019,-1.0635 c -0.5261,13.4163 6.2682,24.2197 17.2237,30.2066 11.6336,6.7414 19.8096,4.2995 18.4834,4.2319 a 25.002499,25.002499 0 0 0 0.3427,0.015 c 14.2791,0.532 31.5436,-0.7169 47.9942,-10.3256 21.3015,-12.1797 31.9259,-34.225 33.0425,-55.9761 a 25.002499,25.002499 0 0 0 0.019,-0.4424 c 0.6912,-20.5821 0.2364,-40.4862 0.3632,-59.6631 a 25.002499,25.002499 0 0 0 0,-0.1963 c -0.012,-9.7567 0,-19.5847 0.01,-29.4258 14.281,38.4789 28.5369,76.937 42.542,115.4253 a 25.002499,25.002499 0 0 0 0.3457,0.8936 c 8.2417,20.2037 25.0485,35.3097 45.8701,41.4976 22.3622,6.7264 46.761,2.596 65.5167,-12.3326 17.7792,-13.8056 27.8084,-34.8422 27.7309,-57.1142 a 25.002499,25.002499 0 0 0 0,-0.01 c -0.1094,-28.8447 0.049,-57.7576 0.2387,-86.7305 a 25.002499,25.002499 0 0 0 0,-0.164 c 0,-31.3985 0,-62.8098 -0.01,-94.229 15.3085,-3.0301 26.689,-15.8543 26.4756,-33.0718 v 0.6694 c 0.1184,-8.2568 -0.043,-15.9382 0.05,-23.0434 l -0.01,0.2959 c 0.046,-1.8442 0.3402,-5.4378 -0.6768,-10.8501 -1.0021,-5.3332 -4.1549,-13.2804 -10.7695,-19.024 -7.7782,-6.8367 -17.5853,-8.3767 -22.5689,-8.5136 -5.1079,-0.1404 -7.2135,-0.069 -5.4169,0.1303 a 25.002499,25.002499 0 0 0 -1.4459,-0.1186 c -19.401,-1.0218 -44.6792,2.5799 -61.9438,23.4682 a 25.002499,25.002499 0 0 0 -0.089,0.1084 c -17.499,21.416 -17.7933,46.5399 -17.5986,64.5293 v -0.4438 c -0.1597,23.1677 -0.1724,46.3015 -0.1978,69.435 -13.4244,-36.7828 -26.8109,-73.5702 -40.3975,-110.3613 -6.539,-17.8029 -18.82,-35.6231 -39.0952,-45.5141 -4e-4,-2e-4 0,2e-4 0,0 -10.1115,-4.9385 -20.9993,-6.9522 -31.7037,-6.6021 a 25.002499,25.002499 0 0 0 -0.2036,-0.047 v 0.045 c -0.4581,0.016 -0.9196,-0.033 -1.377,-0.01 -3.6447,0.2008 -7.2727,0.6981 -10.8574,1.4736 -13.6179,2.7919 -27.9531,9.1035 -39.0439,21.5391 -9.7357,10.851 -14.6597,23.6673 -16.8003,35.8725 -1.2639,6.9236 -1.6234,13.1952 -1.689,18.8218 -13.4943,-20.1917 -31.034,-37.6677 -51.8159,-50.792 -26.0889,-16.6364 -56.244,-25.7354 -86.7832,-27.0307 z m -1313.4404,2.8637 c -13.7595,0.1403 -28.3521,3.4278 -41.4522,12.0279 -18.8253,12.2805 -28.48,30.6994 -34.3286,46.8984 a 25.002499,25.002499 0 0 0 -0.02,0.057 c -13.6548,38.1072 -27.2999,76.1657 -41.0068,114.1758 -1.0296,-15.3494 -6.2967,-31.9414 -19.6905,-44.8842 -14.8014,-14.7626 -33.7034,-19.333 -49.8735,-20.0157 a 25.002499,25.002499 0 0 0 -0.7178,-0.021 c -22.4782,-0.3027 -43.881,0.3689 -64.2129,-0.5947 -0.027,-1.8942 0.1931,-3.3365 0.4981,-4.1368 a 25.002499,25.002499 0 0 0 0.091,-0.2431 c 0.1963,-0.5317 1.3775,-1.9765 2.8301,-2.6221 a 25.002499,25.002499 0 0 0 0.4643,-0.2124 c 3.1708,-1.4873 10.8636,-1.8971 23.2603,-1.9849 a 25.002499,25.002499 0 0 0 0.3574,0 c 23.7924,-0.5083 47.8817,-0.2358 72.249,0 l -2.5034,-0.1508 c 20.948,2.3183 38.5148,-13.3787 37.418,-35.0611 l 0.032,1.3565 c 0.03,-8.1229 0.02,-16.2161 0,-24.2769 l -0.016,0.9331 c 0.5552,-15.9285 -8.6488,-28.3746 -23.3115,-33.1098 a 25.002499,25.002499 0 0 0 -0.5259,-0.1626 c -8.8483,-2.644 -14.0496,-1.5441 -14.4229,-1.5513 a 25.002499,25.002499 0 0 0 -0.517,-0.01 c -30.9567,0.04 -61.9514,-8e-4 -92.9839,0.019 a 25.002499,25.002499 0 0 0 -1.2744,0.034 c -25.3188,1.3092 -53.03347,10.6845 -71.54594,34.0313 -19.00039,23.7541 -22.78988,52.4999 -22.396,76.8984 -0.12662,16.4325 0.90847,39.4328 17.90039,58.4268 a 25.002499,25.002499 0 0 0 0.0879,0.097 c 0.96961,1.0726 2.01915,1.9284 3.02343,2.9092 -7.38861,7.7195 -12.19115,16.808 -15.04101,25.9336 -4.19974,13.2838 -6.49802,27.418 -6.22559,41.8784 -0.11042,24.4917 6.97446,50.6155 25.33154,70.9849 13.8262,15.4794 32.24121,24.6864 51.24318,28.3008 15.1135,3.1131 27.6675,2.1181 36.9228,2.4961 a 25.002499,25.002499 0 0 0 1.1587,0.02 c 22.9551,-0.1279 46.4363,0.259 70.3902,-0.2753 l -0.5581,0.01 c 10.3641,0 21.4685,0.196 33.2768,-0.46 a 25.002499,25.002499 0 0 0 0.5903,-0.04 c 17.1723,-1.3631 34.7801,-8.4657 47.4947,-23.2515 12.2946,-13.5731 15.5631,-27.8616 18.7499,-36.1157 a 25.002499,25.002499 0 0 0 0.067,-0.1743 c 3.6081,-9.5563 7.0468,-19.1275 10.5425,-28.6949 9.3797,8.832 21.102,15.0587 34.1953,17.7378 10.1356,2.273 17.6942,1.4681 21.9609,1.5059 a 25.002499,25.002499 0 0 0 0.1817,0 c 17.452,0.028 34.7665,-0.028 51.9991,0.035 3.1317,8.7539 6.6977,21.8367 16.4472,36.4013 10.9527,16.4495 28.6608,29.8647 51.3032,31.9292 a 25.002499,25.002499 0 0 0 1.9292,0.1011 c 7.7762,0.1062 15.1643,0 22.1645,0.041 l -1.1454,-0.032 c 11.1447,0.5724 23.3094,-3.8432 30.7324,-15.5903 0.01,0 0.011,0.01 0.016,0.013 0.06,-0.09 0.101,-0.1751 0.1596,-0.2652 0.1318,-0.2126 0.2889,-0.3846 0.4176,-0.602 l -0.5611,0.8789 c 6.2439,4.925 13.2672,8.9512 21.0367,11.6294 21.4656,7.5237 45.2134,4.711 64.2875,-8.3863 18.9334,-12.7552 30.6766,-33.5771 31.5542,-56.5385 a 25.002499,25.002499 0 0 0 0.014,-0.5069 c 0.4441,-24.7453 -0.2637,-48.8136 -0.1465,-72.2036 a 25.002499,25.002499 0 0 0 0,-0.1245 v -109.0108 a 25.002499,25.002499 0 0 0 0,-0.1025 c -0.01,-1.7048 0.089,-2.0064 0.1552,-3.1597 17.1579,-0.022 34.3842,0.029 51.7251,-0.026 l -0.8422,-0.012 c 20.6326,0.6293 35.0976,-14.8163 34.1762,-34.8662 l 0.026,1.147 c 0,-8.1205 0.056,-16.4597 -0.022,-24.9683 0.036,-19.769 -14.5741,-33.2016 -33.211,-33.4585 -8.8284,-0.1425 -17.9406,-0.1921 -27.3105,0.1875 l 0.8379,-0.019 c -15.1154,0.106 -31.2908,-0.366 -48.4467,0.7076 a 25.002499,25.002499 0 0 0 -0.3897,0.026 c -15.2264,1.1921 -33.98,5.6198 -48.4659,20.1342 -5.0747,-5.0458 -11.0167,-9.2937 -17.789,-12.3896 -21.3472,-10.0556 -41.368,-8.1912 -55.2129,-8.4741 a 25.002499,25.002499 0 0 0 -0.8716,0 c -15.3861,0.2219 -31.7652,-0.4752 -49.122,-0.1773 -19.0236,-0.3234 -34.4468,13.4056 -34.2276,33.6944 -0.01,1.5315 0.01,3.0485 0,4.5776 -1.2735,-2.1802 -2.5151,-4.3582 -4.0518,-6.5669 -9.8672,-14.7829 -25.0002,-26.4869 -43.9291,-30.5683 a 25.002499,25.002499 0 0 0 -0.058,-0.013 c -4.8653,-1.0366 -9.8867,-1.7268 -15.0263,-1.9996 -1.9272,-0.1022 -3.8781,-0.146 -5.8462,-0.1259 z m 1056.457,0.3443 c -1.3197,0.031 -1.9396,0.1086 -1.7783,0.1157 l 0.2988,0.312 a 25.002499,25.002499 0 0 0 -1.8047,-0.3325 c -32.3736,0.5313 -65.2276,0.034 -98.5224,0.3179 a 25.002499,25.002499 0 0 0 -0.7325,0.017 c -22.2154,0.8398 -44.4628,7.9534 -62.9473,22.0605 -37.6863,28.465 -52.5458,79.2469 -36.2958,123.5362 8.471,23.6782 24.8682,43.8199 46.3564,56.9048 16.3496,10.0951 34.5512,14.6407 52.147,15.5127 15.1193,1.11 26.9977,-0.054 35.5576,0.9111 6.6922,0.884 11.9981,3.5998 14.313,6.2197 a 25.002499,25.002499 0 0 0 0.037,0.041 c 3.0325,3.4166 4.1888,12.1617 1.6245,17.7876 -0.9175,1.9877 -4.3317,5.0114 -8.707,6.1934 a 25.002499,25.002499 0 0 0 -0.8541,0.2476 c -4.059,1.253 -11.8865,1.134 -23.6322,1.2465 -28.6139,0.02 -57.2981,-0.041 -86.0244,0.029 l 1.1923,0.026 c -20.3281,-0.9203 -35.4769,14.3391 -35.2295,34.2143 -0.075,7.9314 -0.1242,16.0714 0.032,24.3794 -0.2265,20.3776 15.8076,35.4442 36.2154,33.7896 l -1.9893,0.082 c 32.2641,-0.04 64.5673,-0.01 96.8877,-0.02 a 25.002499,25.002499 0 0 0 0.8394,-0.015 c 10.6716,-0.3614 24.4435,-0.087 39.917,-4.9072 34.7902,-10.3297 61.9566,-38.0046 71.9794,-72.6944 6.4263,-21.8168 4.4636,-43.7962 -1.2744,-63.1508 a 25.002499,25.002499 0 0 0 -0.015,-0.05 c -6.1135,-20.4654 -18.2376,-39.0957 -35.5503,-52.6377 -18.7303,-14.7629 -41.3465,-21.8495 -63.5478,-22.9717 -13.2524,-0.6916 -24.6419,-0.1966 -34.1163,-0.9566 -7.5741,-0.7077 -13.7769,-3.7564 -16.3784,-6.8496 a 25.002499,25.002499 0 0 0 -0.1582,-0.1875 c -2.7192,-3.1693 -3.7327,-11.3484 -1.1191,-17.1665 a 25.002499,25.002499 0 0 0 0.037,-0.08 c 1.522,-3.4204 5.5833,-7.0632 9.8307,-8.4053 a 25.002499,25.002499 0 0 0 0.4028,-0.1318 c 2.8634,-0.9586 7.445,-1.4684 13.5249,-1.3052 a 25.002499,25.002499 0 0 0 0.6635,0.01 c 31.026,0.01 62.0319,-0.01 93.0206,0.01 l -2.0289,-0.084 c 18.9275,1.5535 36.1469,-11.716 36.4146,-32.6191 0.2826,-8.0173 0.018,-14.9847 0.1347,-20.7949 a 25.002499,25.002499 0 0 0 0.01,-0.2974 c 0.03,-3.7004 1.6131,-17.795 -11.184,-29.2632 -7.2807,-6.6265 -16.3867,-8.5316 -21.5655,-8.8813 -2.6365,-0.1781 -4.6554,-0.1937 -5.9751,-0.1626 z m -954.2139,0.6562 a 25.002499,25.002499 0 0 0 -2.0068,0.1201 l 2.8872,-0.1186 c -0.3017,0.01 -0.5781,-0.01 -0.8804,0 z m 942.9449,36.9434 c -6e-4,0.025 4e-4,0.038 0,0.063 -2e-4,-8e-4 0,0 0,0 z m 245.1825,2.4521 c -0.061,0.01 -0.1196,0.019 -0.1801,0.026 -0.062,0.01 -0.125,0.01 -0.1875,0.018 z m -1049.6147,4.2115 0.1406,0.372 c -0.025,-0.07 -0.061,-0.1353 -0.086,-0.2051 -0.022,-0.056 -0.032,-0.111 -0.054,-0.1669 z m 697.2246,1.579 c -0.078,0.025 -0.1508,0.06 -0.2285,0.085 -0.059,0.02 -0.1151,0.027 -0.1743,0.047 z m -1206.1699,8.7642 c -0.085,0.038 -0.1643,0.086 -0.249,0.1245 -0.073,0.034 -0.1426,0.054 -0.2153,0.088 z m 524.7495,5.2368 c -0.02,0.027 -0.031,0.055 -0.05,0.082 -0.016,0.022 -0.034,0.036 -0.05,0.059 z m -225.3369,5.3965 0.1509,0.1904 c -0.031,-0.039 -0.058,-0.063 -0.088,-0.101 -0.025,-0.031 -0.038,-0.058 -0.063,-0.089 z m 866.3452,16.2788 c -0.01,0.011 -0.01,0.023 -0.014,0.034 -0.01,0.016 -0.016,0.031 -0.023,0.047 z m -1195.09568,3.8408 c -0.0168,0.044 -0.0258,0.088 -0.0425,0.1319 -0.0142,0.038 -0.0341,0.073 -0.0483,0.1113 z m 1707.31348,3.0747 0.2622,0.3238 c -0.043,-0.054 -0.089,-0.1033 -0.1318,-0.1568 -0.045,-0.055 -0.085,-0.1123 -0.1304,-0.167 z m -103.0722,0.6314 c 24.2793,0.1612 49.2378,12.0238 64.2231,30.8408 a 25.002499,25.002499 0 0 0 0.2622,0.3237 c 15.2903,18.5561 21.8544,45.2889 17.1255,69.0396 a 25.002499,25.002499 0 0 0 -0.055,0.2871 c -4.2721,22.8451 -19.3061,44.3928 -39.2535,56.1665 a 25.002499,25.002499 0 0 0 -0.1743,0.1026 c -15.9957,9.6169 -36.0287,13.4975 -54.6328,10.6787 a 25.002499,25.002499 0 0 0 -0.1846,-0.028 c -23.5918,-3.3948 -46.2671,-18.8381 -58.3374,-39.5654 a 25.002499,25.002499 0 0 0 -0.1757,-0.2988 c -14.7568,-24.5519 -15.3509,-58.7301 -1.5396,-83.9063 a 25.002499,25.002499 0 0 0 0.1612,-0.3003 c 12.0747,-22.7401 36.5813,-39.7995 61.8837,-42.6753 a 25.002499,25.002499 0 0 0 0.3677,-0.044 c 3.4074,-0.4385 6.8593,-0.6441 10.3301,-0.6211 z m -1216.1368,1.916 c 4.0269,1.3461 8.4239,2.0597 13.1543,1.8443 l -1.1777,0.026 c 17.2335,0.027 34.2987,-0.036 51.2695,0.034 0.052,2.5149 0.1218,5.282 0.081,9.9668 a 25.002499,25.002499 0 0 0 0,0.2197 v 151.8384 c -1.2425,-0.083 -2.025,-0.066 -2.9912,-0.081 -0.4772,-1.1828 -1.0731,-2.7577 -1.8018,-5.2763 l 0.1539,0.5581 c -3.668,-13.8756 -9.8055,-29.5796 -22.7286,-42.6607 -7.5357,-7.6744 -16.4916,-13.1853 -26.0493,-16.7343 0.9504,-1.7564 1.8687,-3.5442 2.6646,-5.4449 8.72,-20.4949 5.7069,-40.9432 0.4863,-57.1259 a 25.002499,25.002499 0 0 0 -0.053,-0.1612 c -4.1077,-12.4427 -8.4974,-24.7534 -13.0064,-37.0034 z m 1099.5571,17.6748 c -0.028,0.052 -0.051,0.1052 -0.079,0.1568 -0.026,0.049 -0.056,0.095 -0.082,0.1435 z m -1188.791,10.4238 c 2.0218,5.2156 4.1495,10.5313 6.2036,15.9244 -3.7419,-0.011 -7.7531,0.073 -12.0791,0.3046 1.9375,-5.4279 3.9206,-10.8173 5.8755,-16.229 z m -300.46873,5.7891 c 0.0374,0.1924 0.10215,0.3497 0.14209,0.5391 0.0731,0.2953 0.11226,0.6309 0.1875,0.9228 z m 1205.31593,26.6733 c 0.019,0.022 0.04,0.039 0.059,0.062 0.035,0.041 0.064,0.085 0.1,0.126 z m -1161.7676,5.6368 c 0.2776,0.014 0.5459,0.014 0.8233,0.028 0.01,10e-5 0.01,0 0.016,0 z m -27.32958,1.5937 c -0.0268,0 -0.0538,0.012 -0.0806,0.016 -0.0538,0.01 -0.0969,0.01 -0.15088,0.016 z m -35.39355,15.6123 c -0.0268,0.023 -0.0494,0.049 -0.0762,0.072 -0.0271,0.024 -0.0564,0.042 -0.0835,0.066 z m 254.47703,0.4395 c -0.031,0.062 -0.051,0.128 -0.082,0.1904 -0.031,0.063 -0.072,0.1195 -0.1025,0.1831 z m -52.7666,2.4873 0.012,0.5976 c -7e-4,-0.093 -0.012,-0.1897 -0.013,-0.2827 0,-0.1039 0,-0.2111 0,-0.3149 z m 146.3364,7.3593 -0.1362,0.01 c 0.01,-7e-4 0.024,-0.01 0.034,-0.01 0.036,0 0.067,0 0.1025,0 z m 57.1875,2.3526 0.6534,0.1201 c -0.081,-0.016 -0.1468,-0.015 -0.2271,-0.031 -0.1428,-0.025 -0.2834,-0.065 -0.4263,-0.089 z m -100.5951,3.4936 a 25.002499,25.002499 0 0 0 -3.1656,10.8912 c -0.096,3.4984 -0.098,7.4631 0.3237,11.8593 a 25.002499,25.002499 0 0 0 3.9844,10.7242 c -2.6575,-2.0023 -4.9507,-4.5414 -6.3252,-7.2554 a 25.002499,25.002499 0 0 0 -0.1377,-0.2681 c -2.8412,-5.446 -2.9056,-13.7337 -0.1494,-19.229 a 25.002499,25.002499 0 0 0 0.1846,-0.3735 c 1.1225,-2.3343 3.0693,-4.4705 5.2852,-6.3487 z m 1054.141,1.9087 0.037,0.041 c -0.01,-0.01 -0.012,-0.011 -0.017,-0.018 -0.01,-0.01 -0.012,-0.016 -0.019,-0.023 z m 396.9375,6.3208 -0.056,0.2871 c 0.01,-0.045 0.014,-0.091 0.023,-0.1362 0.01,-0.051 0.023,-0.1002 0.032,-0.1509 z m -1373.4463,22.3433 -0.353,0.1274 c 0.061,-0.022 0.1207,-0.052 0.1817,-0.073 0.058,-0.021 0.1135,-0.033 0.1713,-0.054 z m -195.6328,3.2607 -0.1831,0.2212 c 0.034,-0.041 0.06,-0.085 0.094,-0.1259 0.028,-0.035 0.061,-0.061 0.089,-0.095 z m -167.22506,3.8423 c -0.006,0.028 -0.007,0.054 -0.0132,0.082 -0.005,0.024 -0.0165,0.046 -0.022,0.07 z m 160.97166,2.7759 c -2.1147,5.7855 -4.1835,11.5986 -6.3076,17.3789 a 25.002499,25.002499 0 0 0 -0.1567,0.438 c -0.8034,2.3184 -1.5703,3.8825 -2.3072,5.3804 -34.3058,0.9213 -68.4085,1.0922 -102.2109,-0.4556 -0.2574,-0.5234 -0.4778,-0.8943 -0.769,-1.8354 -0.1263,-0.4966 -0.2081,-0.9868 -0.3091,-1.481 20.3017,-0.012 41.1094,0.2528 62.7275,-0.7778 16.1374,-0.6455 34.7658,-5.2225 49.333,-18.6475 z m 74.4668,8.3584 c 0.023,0.047 0.054,0.088 0.078,0.1348 0.023,0.044 0.038,0.09 0.06,0.1333 z m 1255.9278,2.7437 c 0.029,0.05 0.063,0.098 0.092,0.1479 0.029,0.05 0.054,0.1014 0.084,0.1509 z m -1092.3472,4.6362 0.1201,0.2109 c -0.012,-0.022 -0.027,-0.041 -0.04,-0.063 -0.029,-0.051 -0.051,-0.097 -0.081,-0.1479 z m 51.2842,8.1709 2.4858,0.039 v 0.072 c -0.8372,-0.014 -1.6316,-0.1516 -2.4858,-0.1113 z m 1519.9921,6.23 c 1.1726,1.5238 1.0193,1.7653 0,0 z m -296.8037,27.5698 -0.1743,0.1025 c 0.032,-0.019 0.062,-0.04 0.094,-0.059 0.026,-0.016 0.054,-0.028 0.081,-0.044 z m -1219.3051,0.1362 c 0.013,0.069 0.04,0.132 0.053,0.2007 0.02,0.094 0.021,0.1733 0.041,0.2681 z m 1307.4668,5.2822 c 0.1879,0.022 0.7436,0.2249 1.0766,0.3091 -1.1389,-0.1921 -1.6808,-0.3811 -1.0766,-0.3091 z m -1577.458,0.5757 -0.8672,0.8321 c 0.2013,-0.1841 0.364,-0.3774 0.561,-0.5625 0.1009,-0.099 0.2055,-0.1683 0.3062,-0.2696 z m 337.686,1.9102 c 1.9648,0 3.9349,0 5.9077,0 -1.978,0.2541 -3.9692,0.2207 -5.9077,0 z m -499.0591,0.2856 c 0.061,0.041 0.1202,0.058 0.1816,0.098 0.093,0.06 0.1681,0.1282 0.2623,0.1875 z m 1285.9614,0.7515 -0.854,0.2476 c 0.1235,-0.033 0.2443,-0.085 0.3677,-0.1187 0.165,-0.05 0.3207,-0.078 0.4863,-0.1289 z m -886.2568,1.021 c 0.2876,0.1963 0.5797,0.2888 0.8686,0.4731 0.458,0.2689 0.8118,0.5859 1.2891,0.8452 z m -377.2588,4.9321 c 0.2015,0.01 0.4021,0.011 0.6035,0.021 0.01,10e-5 0.011,0 0.016,0 z m 1540.336,2.3672 c 0.021,0 0.043,0 0.064,0.01 0.041,0.01 0.08,0.015 0.1201,0.02 z m -1150.3638,4.3887 c -0.1588,1.8346 -0.387,1.6922 0,0 z m 498.3003,88.6772 -0.4351,0.4043 c 0.098,-0.089 0.1796,-0.1857 0.2768,-0.2754 0.045,-0.043 0.1137,-0.086 0.1583,-0.1289 z m -39.1319,3.9375 c 0.123,0.088 0.2622,0.1474 0.3867,0.2329 0.2631,0.1745 0.4865,0.3677 0.7559,0.5391 z" id="path5"/>
    </g>
    <g id="#000000ff" transform="translate(-18.660546,9.0815025)">
        <g id="g1" style="stroke:#000000;stroke-width:5;stroke-dasharray:none;stroke-opacity:1;paint-order:markers stroke fill">
            <g id="g37369" style="fill:url(#linearGradient180882);fill-opacity:1;stroke:#000000;stroke-width:5;stroke-miterlimit:4;stroke-dasharray:none;stroke-opacity:1;paint-order:markers stroke fill">
                <path id="path18" style="fill:url(#linearGradient6);fill-opacity:1;stroke:#000000;stroke-width:6.66667;stroke-miterlimit:4;stroke-dasharray:none;stroke-opacity:1;paint-order:markers stroke fill" d="m 2199.543,158.62109 c -2.36,0.0183 -4.7025,0.17802 -6.9825,0.80469 -4.76,1.42667 -8.1595,6.21383 -7.9062,11.17383 0.013,123.58667 0.027,247.17344 0,370.77344 -0.2133,4.26666 2.2658,8.55979 6.1191,10.45312 3.6267,1.94667 7.8806,1.42654 11.8672,1.53321 9.4,-0.14667 18.8269,0.16085 28.2403,-0.11915 6.28,0.0133 11.9197,-5.52018 11.7597,-11.85351 0.08,-123.13333 -0.014,-246.26706 0.039,-369.40039 0.6133,-6.28 -4.1462,-12.56042 -10.5195,-13.09375 -8.4934,-0.56 -17.0266,-0.0532 -25.5332,-0.22656 -2.3467,0.06 -4.724,-0.0633 -7.084,-0.0449 z m 377.3711,0.008 c -2.3467,0.035 -4.6744,0.22395 -6.9278,0.89062 -4.4266,1.72 -7.9206,6.19974 -7.6406,11.06641 -0.027,123.56 -0.013,247.13336 0,370.69336 -0.4,6.50666 5.6684,12.16127 12.0684,11.97461 11.24,0.16 22.5064,0.12033 33.7597,0.0137 6.44,0.25333 12.5452,-5.36026 12.1719,-11.9336 -0.013,-123.54666 -0.013,-247.09429 0,-370.65429 0.3333,-6.02667 -4.8649,-11.55985 -10.8516,-11.83985 -8.5066,-0.44 -17.0398,-0.0272 -25.5332,-0.17382 -2.3333,0.0467 -4.7002,-0.0721 -7.0468,-0.0371 z m -956.002,0.0215 c -1.9083,0.0433 -3.8049,0.20198 -5.6582,0.69531 -4.76,1.44 -8.4669,6.16151 -8.2402,11.21485 -0.027,123.6 -0.027,247.2125 0,370.8125 -0.2534,5.06666 3.4399,9.82791 8.2265,11.28125 3.28,0.89333 6.7188,0.65174 10.1055,0.70508 9.36,-0.16001 18.7481,0.18684 28.1348,-0.14649 6.1466,-0.0533 11.7725,-5.49276 11.5058,-11.74609 0.027,-123.64 0.027,-247.27993 0,-370.91992 0.28,-6.29334 -5.3992,-11.74678 -11.5859,-11.77344 -8.92,-0.30667 -17.8398,0.0142 -26.7598,-0.11914 -1.9,0.0267 -3.8202,-0.0472 -5.7285,-0.004 z m -1345.50976,0.45899 c -13.555,-0.15667 -27.10958,-0.18336 -40.65625,0.55664 -40.93333,2.44 -80.39903,19.62664 -111.3457,46.30664 -33.733333,28.86666 -58.041275,69.3614 -64.974609,113.4414 -8.453333,57.38667 6.481198,118.8267 43.894529,163.69336 25.22667,30.77334 61.07888,52.78518 100.18555,60.47852 46.18667,8.92 93.44151,6.84008 140.21484,7.08008 15.73334,0.14666 32.0531,-0.25185 46.75977,-6.47852 11.50667,-4.56 20.53276,-14.33487 24.74609,-25.9082 7.52,-19.85334 5.93248,-41.46597 6.11914,-62.2793 0.57334,-12.88 0.22698,-25.77268 0.32032,-38.66602 -0.08,-50.26666 -0.0132,-100.53377 0.85351,-150.7871 0.44,-13.53334 2.62662,-28.84076 13.61328,-38.10743 11.73334,-9.65333 27.80091,-10.01372 42.26758,-10.40039 19.50667,0.10667 39.0132,0.97406 58.5332,1.41406 8.70667,0.45334 17.8255,2.38761 24.79883,7.96094 6.05334,4.69334 9.92167,11.7869 11.375,19.24024 2.28,10.90666 1.61169,23.09294 -4.68164,32.59961 -5.53333,8.44 -15.13242,13.23877 -24.73242,15.41211 -23.97333,5.30666 -49.2525,-2.0524 -72.8125,5.96093 -15.49333,4.86667 -28.80037,16.62719 -34.70703,31.86719 -6.58667,16.64 -6.73344,36.1187 1.22656,52.33203 8.45333,17.77334 25.8388,30.70672 45.10547,34.38672 17.98667,3.2 36.33448,1.98685 54.50781,2.85352 8.73334,0.41333 17.7055,2.63932 24.79883,7.97265 7.10667,5.25334 11.50755,13.45521 13.57422,21.92188 4.66667,20.37333 0.54745,42.0383 7.80078,61.93164 5.26667,15.62666 17.23961,28.92109 32.59961,35.12109 13.42667,5.73334 28.29294,5.65357 42.59961,5.24024 5.90667,-0.21334 11.37232,-5.53295 10.95898,-11.59961 -0.04,-11.10667 0.0409,-22.22732 -0.0391,-33.33399 0.0933,-4.2 -2.79911,-7.98617 -6.42578,-9.82617 -4.16,-2.04 -8.92125,-0.56081 -13.28125,-1.49414 -5.53333,-1.88 -10.37281,-6.14583 -12.13281,-11.8125 -2.42667,-7.6 -1.46607,-15.70654 -2.05274,-23.5332 -1.37333,-22.41334 -7.88169,-45.14787 -22.06836,-62.89453 -12.89333,-16.52 -31.98528,-27.56066 -52.25195,-32.33399 -20.28,-5.16 -41.37375,-3.93213 -62.09375,-4.10547 v -8.65429 c 20.81333,-0.54667 42.04039,1.92072 62.40039,-3.58594 23.76,-5.85334 45.54633,-20.78607 57.98633,-42.05274 12.8,-21.37333 15.30617,-47.57437 10.82617,-71.73437 -3.62667,-20.90667 -14.09344,-40.97305 -30.77344,-54.37305 -17.02666,-14.01333 -39.17198,-20.46739 -60.94531,-21.41406 -15.18667,-0.53333 -30.36021,-0.94651 -45.54687,-0.83984 -18.30667,-0.04 -36.85378,-0.17326 -54.78711,4.08007 -19.06667,4.34667 -37.49279,13.62722 -50.43946,28.56055 -14.21333,16.16 -21.14773,37.45388 -23.42773,58.56055 -1.74667,13.74666 -0.43896,27.62612 -1.26563,41.43945 -0.16,53.34667 -0.001,106.70573 0.63868,160.03906 -0.42667,10.62667 1.94724,21.89487 -2.7461,31.90821 -2.81333,6.21333 -9.38599,9.78552 -15.97265,10.49218 -9.73334,0.96 -19.52125,-0.25341 -29.28125,-0.0801 -23.14667,-0.56 -46.29245,-0.48016 -69.42579,-1.16016 -18.36,-0.92 -36.5745,-5.35828 -53.20117,-13.23828 -26.08,-12.30667 -47.9862,-33.16029 -61.51953,-58.62696 -14.93333,-27.66666 -20.30682,-60.40039 -15.16015,-91.40039 5.23999,-31.84 22.46742,-61.38776 47.10742,-82.12109 22.36,-19.05333 50.85349,-30.71984 80.16015,-32.83984 28.89334,-1.18667 57.82644,-0.91899 86.75977,-0.95899 5.96,0.0267 11.2539,-5.33458 11.2539,-11.28125 0.0933,-10.69333 -9.3e-4,-21.38479 0.0391,-32.07812 0.37333,-5.02667 -2.81253,-9.98711 -7.50586,-11.78711 -5.54667,-1.58667 -11.41409,-0.58651 -17.10742,-0.83985 -13.55334,0.22 -27.10907,-0.0679 -40.66407,-0.2246 z" transform="scale(0.75)"/>
            </g>
            <path id="path20" style="fill:url(#linearGradient110449);fill-opacity:1;stroke:#000000;stroke-width:6.66667;stroke-miterlimit:4;stroke-dasharray:none;stroke-opacity:1;paint-order:markers stroke fill" d="m 1659.4414,20.941406 c -2.395,0.04167 -4.768,0.266198 -7.0547,1.019532 -4.4533,1.839999 -7.546,6.505703 -7.3594,11.345703 -0.067,11.533333 -0.053,23.080286 0,34.626953 -0.2,4.853333 2.8655,9.667057 7.4122,11.40039 4.8,1.333334 9.9206,1.238985 14.6406,2.958985 8.4133,2.826666 14.3862,10.160677 17.9062,18.027341 4.5867,10.33334 6.8539,21.49323 10.2539,32.22657 16.6134,56.78666 34.574,113.15916 51.6407,169.8125 34.5466,114.97333 67.612,230.40033 103.332,345.01367 3.2933,10.22666 8.668,19.77385 15.748,27.86718 13.3467,15.26667 33.5992,25.09279 54.1192,23.43946 13.3733,1.06666 26.733,-2.89274 37.9863,-10.05274 15.6933,-9.8 26.9332,-25.89286 32.1465,-43.51953 35.3067,-113.52 68.1079,-227.78729 102.2812,-341.64062 18.9467,-62.82667 38.9328,-125.34774 57.0528,-188.42774 3.0666,-10.73333 6.9467,-22.38656 16.3867,-29.22656 5.1867,-3.96 11.7464,-4.986432 18.0664,-5.759766 6.0133,-0.36 10.9343,-6.02539 10.6543,-12.02539 0.027,-11.586667 0.027,-23.186771 0,-34.773438 0.3333,-6.493333 -5.5076,-12.3475 -11.9609,-12.1875 -8.9734,-0.2 -17.9726,-5.73e-4 -26.8926,0.746094 -21.24,3.453333 -41.2006,18.147031 -48.5606,38.707031 -5.1333,14.12 -10.0662,28.320625 -14.5996,42.640629 -16.6,52.6 -32.0013,105.56065 -48.0547,158.33398 -34.8,115.86667 -69.5331,231.75919 -104.7597,347.50586 -2.2534,9.02667 -6.5205,17.76008 -13.4805,24.08008 -2.52,2.4 -6.4781,4.65297 -9.7715,2.29297 -7.1466,-4.54667 -11.7877,-12.25401 -14.7344,-20.02735 -39.1333,-128.21333 -77.4524,-256.67906 -116.1191,-385.03906 -16.32,-53.28 -31.2412,-107.00029 -49.5879,-159.626952 -3.24,-9.133334 -6.1867,-18.692813 -12.6933,-26.132813 -9.0134,-10.853333 -21.587,-18.693594 -35.3204,-21.933594 -7.04,-1.746666 -14.3321,-1.172942 -21.4921,-1.599609 -2.3734,0.02667 -4.7906,-0.113932 -7.1856,-0.07227 z M 2852.9707,154.23633 c -11.675,-0.49521 -23.3907,0.0141 -34.9707,1.55078 -34.36,4.58667 -67.3331,18.57208 -94.7598,39.71875 -34.6933,26.46667 -60.7464,64.36088 -72.0664,106.57422 -8.7466,31.88 -8.3333,65.81401 -1.6133,98.02734 9.1334,43.49334 32.8791,84.10505 67.6524,112.01172 35.76,29.21333 82.1334,44.0282 128.0801,43.9082 47.6533,0.45334 95.2672,-16.4276 131.8672,-46.96093 33.2266,-27.4 57.2796,-66.05237 65.9863,-108.34571 7.88,-39.01333 3.44,-80.16057 -10.6934,-117.2539 -15.44,-40.16 -43.7862,-75.36099 -80.2129,-98.34766 -29.58,-18.88 -64.2445,-29.39719 -99.2695,-30.88281 z m 279.2324,0.13476 c -3.1906,0.17584 -6.3657,0.60826 -9.4824,1.29493 -12.7867,2.6 -25.2677,8.46697 -34.041,18.32031 -7.8533,8.73333 -12.4395,19.98679 -14.4395,31.46679 -2.5066,13.61334 -1.3075,27.49357 -1.5742,41.24024 -0.2667,56.89333 0.5073,113.77268 0.334,170.66602 -0.1467,21.84 0.4126,43.6538 -0.1074,65.48046 -0.2267,4.77334 -4.3584,8.76032 -9.0117,9.32032 -4.4134,0.48 -8.8536,-0.10737 -13.2403,0.27929 -5.76,0.30667 -10.9339,5.60141 -10.6406,11.44141 -0.013,12.06667 -0.026,24.11888 0.014,36.18555 -0.16,4.08 2.2929,8.03992 5.9062,9.91992 3.0134,1.84 6.6938,1.22706 10.0938,1.40039 15.7466,0.58667 32.2788,-1.18698 46.1054,-9.32031 16.8134,-9.56 26.4408,-28.52047 27.4141,-47.48047 0.88,-26.2 0.2935,-52.43901 0.4668,-78.65235 -0.04,-31.96 0.1727,-63.92052 -0.334,-95.86718 -0.08,-33.72 0.1479,-67.43982 -0.1055,-101.14649 2.9467,0.04 5.932,0.04 8.9454,0 12.0533,30.62667 24.6016,61.06761 35.9882,91.96094 25.7334,69.38667 51.586,138.73263 76.8926,208.2793 7,17.16 22.0665,30.71966 39.8399,35.98632 19.3066,5.82667 41.3995,1.97331 57.2129,-10.69336 15.2,-11.72 24.3069,-30.68018 24.2402,-49.85351 -0.1467,-38.66667 0.067,-77.333 0.3203,-115.98633 0,-47.97333 0.013,-95.94693 -0.014,-143.93359 -0.053,-4.25334 0.6935,-9.17378 4.4668,-11.78711 5.4534,-3.72 12.3596,-1.73255 18.5196,-2.19922 6.3466,0.44 12.4003,-4.94706 12.3203,-11.40039 0.1466,-10.22667 -0.067,-20.45302 0.066,-30.67969 0.12,-4.82667 0.2411,-10.49292 -3.7989,-13.90625 -5.24,-4.85333 -12.7747,-2.43982 -19.1347,-3.14648 -19.7467,-1.04 -41.9332,3.25356 -55.1465,19.24023 -14.6533,17.93333 -16.1853,42.39927 -15.9453,64.58594 -0.5733,83.21333 -0.2543,166.43901 -0.3477,249.65234 -2.7733,-0.17333 -5.6535,0.34672 -8.2402,-0.61328 -2.5467,-1.8 -3.4254,-4.95995 -4.7188,-7.61328 -10.9466,-24.17333 -19.0537,-49.46562 -28.4003,-74.26562 -25.6667,-70.16 -51.1611,-140.3868 -77.0411,-210.4668 -6.44,-17.53334 -18.3734,-33.89323 -35.4668,-42.22656 -8.64,-4.22 -18.3441,-6.00993 -27.916,-5.48243 z m -2023.0449,3.83594 c -15.0519,-0.79875 -30.3708,2.13266 -43.0508,10.47266 -16.2133,10.56 -26.2413,28.16094 -32.6679,45.96093 -30.2667,84.46667 -60.37369,168.98589 -91.32036,253.19922 -3.38667,9.77334 -7.79859,19.68011 -15.55859,26.77344 -2.05334,2.06667 -5.01378,2.53388 -7.78711,2.56055 -50.72,1.52 -101.50589,1.94586 -152.19922,-0.49414 -4.57333,-0.10667 -9.29383,-0.9068 -13.17383,-3.4668 -8.10667,-5.10667 -12.66758,-14.16042 -15.26758,-23.09375 -2.86666,-10.74667 -3.54573,-22.29154 -1.03906,-33.1582 1.44,-6.42667 7.22659,-11.34784 13.91992,-11.20117 33.66667,-0.42667 67.38573,0.58599 101.03906,-1.02735 18.34667,-0.72 37.73336,-6.78646 49.69336,-21.45312 9.36,-11.21334 13.07995,-26.1856 12.61329,-40.57227 -0.13334,-15.68 -4.98527,-32.07982 -16.5586,-43.14648 -11.62667,-11.72 -28.46755,-16.48016 -44.57422,-17.16016 -29.70666,-0.4 -59.43948,0.64042 -89.13281,-0.90625 -7.21333,-0.13333 -14.21435,-2.86768 -20.04102,-7.04102 -3.12,-2.30666 -6.26572,-5.1458 -7.03906,-9.11914 -2.89333,-11.22666 -3.62612,-23.45474 0.56055,-34.4414 3.70667,-10.04 11.78586,-18.09211 21.50586,-22.41211 14.01333,-6.57333 29.86693,-5.69412 44.93359,-5.80078 32.45334,-0.69334 64.91972,-0.32 97.37305,0 6.74667,0.74666 13.28026,-5.08026 12.93359,-11.9336 0.04,-10.72 0.0267,-21.44015 0,-32.16015 0.17334,-4.97334 -3.307,-9.74563 -8.01367,-11.26563 -3.34667,-1 -6.89398,-0.61302 -10.33398,-0.67969 -41.33334,0.0533 -82.66667,-0.001 -124,0.0254 -26.56,1.37333 -54.11907,11.46651 -71.03907,32.83984 -18.29333,22.82667 -23.13328,53.29344 -22.61328,81.77344 -0.16,19.33333 1.92005,40.6283 15.38672,55.68164 14.32,15.84 36.50693,20.75833 56.93359,22.625 32.56,0.2 65.13175,0.0417 97.70508,0.0684 -0.0267,3 -0.0254,6 -0.0254,9 -28.57333,0.0533 -57.14737,-0.0409 -85.7207,0.0391 -10.69333,0.70667 -21.43974,-0.3601 -32.06641,1.22656 -10.97333,1.53334 -21.71914,5.79914 -30.11914,13.11914 -7.53333,6.45334 -12.72096,15.2937 -15.65429,24.70703 -4.65334,14.69334 -7.12045,30.14789 -6.78711,45.58789 -0.2,26.04 7.56091,53.05269 25.26757,72.66602 12.93334,14.50667 31.07974,23.77365 50.06641,27.32031 14.49333,3.01334 29.34573,2.09336 44.03906,2.69336 31.09334,-0.17333 62.21493,0.33396 93.29492,-0.35937 14.17334,0 28.35954,0.22612 42.51954,-0.56055 15.45333,-1.22667 30.81231,-7.8001 40.95898,-19.77344 9.84,-10.68 13.80154,-24.93349 18.9082,-38.16015 32.29337,-85.53334 60.95877,-172.39948 92.71877,-258.13282 3.72,-8.73333 12.0001,-14.08026 18.1601,-20.93359 4.8401,5.16 10.534,9.52008 14.9473,15.08008 3.12,3.85333 4.8932,8.54607 6.8399,13.05273 9.36,21.77334 17.2676,44.13383 25.9609,66.17383 2.0667,5.8 4.3192,12.41279 1.8125,18.43945 -2.3333,5.04 -8.1877,6.98638 -13.3477,7.37305 -14.76,1.18667 -29.599,-0.23888 -44.3457,0.81445 -20.3866,2.4 -39.0539,15.73323 -47.9472,34.22657 -8.6934,17.33333 -8.532,38.8 0.4414,56 8.3466,16.48 24.4396,28.89252 42.5996,32.50586 7.4,1.70666 15.0389,1.17356 22.5723,1.24023 25.2933,0.04 50.5995,-0.0806 75.9062,0.0527 6.7867,0.04 14.7611,1.28011 18.4277,7.77344 10.1734,17.61334 13.1996,38.57456 24.5996,55.58789 9.8267,14.77334 25.7204,26.23891 43.7071,27.87891 9.76,0.13333 19.5193,-6e-4 29.2793,0.0527 4.4133,0.22667 9.053,-1.69328 11.373,-5.61328 2.04,-2.96 1.574,-6.70513 1.6406,-10.0918 -0.1333,-9.8 0.054,-19.60005 -0.066,-29.38671 0.013,-6.02667 -5.774,-11.18821 -11.7207,-10.90821 -6.6133,-0.52 -13.9325,1.53482 -19.8125,-2.47851 -10.4533,-5.68 -13.7868,-18.0543 -16.8535,-28.6543 -4.0533,-15.33333 -10.5195,-30.587 -21.8261,-42.01367 -9.28,-9.46667 -21.6937,-15.53344 -34.7071,-17.77344 -13.2266,-2.64 -26.706,-0.79846 -40.0527,-1.0918 -19.68,0.04 -39.3474,-0.0806 -59.0274,0.0527 -0.3733,-3.89333 -0.3996,-7.81404 -0.2929,-11.7207 21,-0.24 42.7602,1.49307 62.8535,-5.9336 14.2533,-5.02666 27.1871,-15.26646 33.0937,-29.45312 7.1867,-16.81334 5.105,-35.98599 -0.375,-52.97266 -8.7066,-26.37333 -18.1989,-52.47937 -28.2656,-78.35937 -5.56,-13.96 -10.5195,-28.37378 -19.2129,-40.78711 -8.7733,-13.29334 -22.3871,-23.58599 -38.0937,-26.97266 -4.85,-1.03333 -9.8382,-1.71422 -14.8555,-1.98047 z m 1398.748,0.45899 c -43.8666,0.72 -87.7602,0.0544 -131.6269,0.42773 -23.28,0.88 -46.4657,8.45234 -65.0391,22.65234 -37.7466,28.46667 -53.5462,82.46779 -37.2129,126.81446 8.6534,24.28 25.866,45.42583 47.8926,58.8125 16.24,10.05333 35.2259,14.95984 54.1992,15.83984 16.44,1.24 32.9734,-0.53362 49.3868,1.37305 14.8933,1.90666 29.88,7.86698 40,19.32031 14.2133,16.01333 16.2935,40.58737 7.5468,59.7207 -6.1733,13.46667 -19.1599,22.76055 -33.2265,26.56055 -13.3467,4.12 -27.4135,3.01315 -41.1602,3.14648 -38.2667,0.0267 -76.5455,-0.0543 -114.7988,0.0391 -6.48,-0.29334 -12.2148,5.47958 -12.1348,11.90625 -0.1066,11.08 -0.1856,22.18757 0.041,33.26758 -0.08,6.41333 5.8523,12.00046 12.2657,11.48046 43.0666,-0.0533 86.1481,-0.014 129.2148,-0.0273 14.96,-0.50667 30.212,-0.57409 44.6387,-5.10742 35,-10.30667 63.6133,-39.38511 73.6933,-74.39844 6.2934,-21.30667 4.5874,-44.28167 -1.666,-65.375 -6.2533,-20.93333 -18.7857,-40.02586 -36.039,-53.50586 -18.6667,-14.73333 -42.2806,-22.37388 -65.8672,-23.56055 -15.56,-0.81333 -31.1597,-0.079 -46.6797,-1.3457 -16.5733,-1.50667 -33.5081,-7.89453 -44.4414,-20.89453 -13.6134,-15.86667 -14.973,-39.61195 -6.5996,-58.25195 6.2533,-14.05334 18.9195,-24.82808 33.5195,-29.44141 9.48,-3.17333 19.5745,-3.71979 29.5078,-3.45312 41.3467,0.0133 82.6924,-0.013 124.0391,0.0137 6.1733,0.50666 12.4545,-4.34677 12.5078,-10.77344 0.36,-9.29333 -0.015,-18.59924 0.1719,-27.89258 0.04,-4.88 0.067,-10.54768 -3.9063,-14.04101 -4.9067,-4.62667 -12.1466,-3.03998 -18.2266,-3.30664 z m -1267.8124,0.74804 c -6.0667,-0.10666 -11.8148,5.0669 -11.7481,11.24024 -0.053,11.17333 -0.04,22.33252 0,33.50586 -0.2667,6.16 5.4276,11.79953 11.5742,11.51953 25.3334,0.04 50.6804,-0.10727 76.0137,0.0527 8.2933,0.0667 17.6803,2.65474 21.9336,10.44141 5.88,11.21333 3.9055,24.32013 3.7988,36.46679 v 216.10547 c 0.053,8.45334 -0.4654,17.00099 1.2813,25.34766 4.04,21.33333 20.2003,39.7725 40.707,46.8125 18.44,6.49333 39.9057,3.88138 56.0391,-7.25195 16.2133,-10.86667 26.7592,-29.57409 27.5058,-49.10742 C 1467.7726,462.60018 1466.84,430.65367 1467,398.707 V 253.35938 c -0.04,-9.78667 -0.6276,-20.62667 5.3457,-29 4.9867,-7.09334 14.254,-8.61303 22.334,-8.67969 24.9067,-0.0533 49.814,0.0409 74.7207,-0.0391 6.12,0.18667 11.5339,-5.54729 11.2539,-11.64062 0,-11.10667 0.079,-22.23904 -0.027,-33.3457 0.013,-6.02667 -5.4941,-11.14852 -11.4141,-11.22852 -11.5333,-0.18667 -23.0796,-0.23815 -34.5996,0.22852 -20.92,0.14666 -41.8661,-0.42776 -62.7461,0.8789 -17.2,1.34667 -35.4665,6.67979 -46.8399,20.45313 -12.5466,15.24 -14.7213,36.01435 -14.3613,55.04101 -0.6533,44 -0.1987,88.01206 -0.332,132.02539 -0.2667,39.76 0.4387,79.50758 0.332,119.26758 -4.0133,0.0133 -8.0133,0.0133 -12,0 0.4267,-43.78666 0.3473,-87.60039 0.334,-131.40039 -0.1467,-41.72 0.333,-83.45383 -0.3203,-125.17383 0.027,-11.66666 -1.387,-23.53185 -5.627,-34.47851 -4.5866,-12.42667 -14.0398,-22.93406 -26.1465,-28.41406 -18.7733,-8.90667 -40.0526,-7.78589 -60.2792,-8.19922 -22.1867,0.32 -44.3466,-0.6669 -66.5332,-0.24024 z m 1605.541,51.21875 c 42.6239,0.28292 84.8377,20.2275 111.4843,53.6875 27.0934,32.88 38.1075,78.03977 29.8008,119.75977 -7.52,40.21333 -32.9201,76.66679 -68.1601,97.4668 -28.2534,16.98666 -62.4537,23.56028 -95.0137,18.62695 -42.0667,-6.05334 -80.4798,-32.29461 -101.8399,-68.97461 -26.1333,-43.48 -27.0936,-100.62675 -2.707,-145.08008 21.36,-40.22667 62.7875,-69.22672 108.1875,-74.38672 6.0617,-0.78 12.1589,-1.14002 18.2481,-1.09961 z" transform="scale(0.75)"/>
        </g>
    </g>
</svg>
