<?xml version='1.0' encoding='utf-8'?>
<svg xmlns:xlink="http://www.w3.org/1999/xlink" xmlns="http://www.w3.org/2000/svg" width="600" height="171.94364330857837" version="1.1" id="svg7" viewBox="0 0 921.47638 264.07001">
    <defs id="defs6">
        <linearGradient id="a">
            <stop style="stop-color:#7c1315;stop-opacity:1" offset="0" id="stop1"/>
            <stop style="stop-color:#e81c24;stop-opacity:1" offset="1" id="stop2"/>
        </linearGradient>
        <linearGradient xlink:href="#a" id="d" x1="1877.583" y1="914.461" x2="1734.319" y2="323.32001" gradientUnits="userSpaceOnUse" gradientTransform="matrix(0.24257,0,0,0.249,-301.171,-28.05)"/>
        <linearGradient id="b">
            <stop style="stop-color:#e5e5e5;stop-opacity:1" offset="0" id="stop3"/>
            <stop style="stop-color:#fff;stop-opacity:1" offset="1" id="stop4"/>
        </linearGradient>
        <linearGradient id="c">
            <stop style="stop-color:#e5e5e5;stop-opacity:1" offset="0" id="stop5"/>
            <stop style="stop-color:#fff;stop-opacity:1" offset="1" id="stop6"/>
        </linearGradient>
    </defs>
    <g id="rect6" style="opacity:1">
        <path style="baseline-shift:baseline;display:inline;overflow:visible;vector-effect:none;fill:#ffffff;stroke-linecap:round;stroke-linejoin:round;paint-order:markers stroke fill;enable-background:accumulate;stop-color:#000000;stop-opacity:1" d="M 15,0 A 15.0015,15.0015 0 0 0 0,15 v 234.07031 a 15.0015,15.0015 0 0 0 15,15 h 228.02344 a 15.0015,15.0015 0 0 0 15,-15 V 15 a 15.0015,15.0015 0 0 0 -15,-15 z M 30,30 H 228.02344 V 234.07031 H 30 Z" id="path1"/>
        <path style="baseline-shift:baseline;display:inline;overflow:visible;vector-effect:none;fill:url(#d);stroke-linecap:round;stroke-linejoin:round;paint-order:markers stroke fill;enable-background:accumulate;stop-color:#000000;stop-opacity:1" d="M 15,15 H 243.02299 V 249.07001 H 15 Z" id="path2"/>
    </g>
    <path style="fill:#ffffff;fill-opacity:1;stroke:none;stroke-width:0.245761" d="m 64.497,192.811 v -14.514 l 2.423,-0.25 c 11.647,-1.198 17.217,-3.78 24.684,-11.445 8.708,-8.94 14.54,-20.144 24.197,-46.49 6.39,-17.432 11.687,-28.016 19.985,-39.933 7.243,-10.4 18.722,-18.829 31.575,-23.184 6.332,-2.146 14.947,-3.72 20.361,-3.72 h 2.078 v 29.058 l -2.423,0.217 c -6.423,0.576 -11.629,2.211 -16.655,5.232 -6.685,4.019 -14.897,14.335 -19.515,24.517 -1.602,3.534 -2.486,3.261 10.588,3.261 h 11.49 v 29.477 l -17.625,0.095 -17.624,0.096 -1.938,4.398 c -4.97,11.274 -10.766,21.89 -16.445,30.12 -10.913,15.813 -25.482,24.41 -45.822,27.041 -2.27,0.294 -5.3,0.535 -6.732,0.537 l -2.603,0.003 v -14.514 z" id="path6"/>
    <g aria-label="ADOBE FLASH PLAYER" style="font-style:normal;font-weight:400;font-size:40px;line-height:1.25;font-family:sans-serif;letter-spacing:0;word-spacing:0;fill:#333333;fill-opacity:1;stroke:#ffffff;stroke-width:20;stroke-linecap:round;stroke-linejoin:round;stroke-dasharray:none;stroke-opacity:1;paint-order:markers stroke fill" id="g7" transform="translate(-41.013,-44.93)">
        <g id="path7" style="opacity:1" transform="translate(-42,66)">
            <path style="font-size:85.3333px;baseline-shift:baseline;display:inline;overflow:visible;vector-effect:none;fill:#ffffff;stroke:none;enable-background:accumulate;stop-color:#000000;stop-opacity:1" d="m 532.7207,18.480469 c -9.89228,0.05576 -20.04687,3.730656 -27.25,11.705078 -2.27206,2.4204 -4.05589,5.059414 -5.53906,7.802734 -1.17731,-2.065801 -2.5508,-4.080736 -4.27734,-5.970703 -8.05332,-8.815668 -19.05242,-11.286121 -28.08399,-12.099609 a 10.001,10.001 0 0 0 -0.15234,-0.01367 c -8.31559,-0.620666 -16.02208,-0.20151 -23.0625,-0.310547 a 10.001,10.001 0 0 0 -2.70508,0.328125 c 1.05917,-0.279317 1.11599,-0.212395 1.59766,-0.283203 -0.55745,-0.05031 -1.13237,-0.176783 -2.79297,0.216797 -2.03684,0.482751 -6.41641,3.182997 -7.56055,7.1875 a 10.001,10.001 0 0 0 -0.38476,2.748047 v 30.53125 L 419.44141,26.03125 a 10.001,10.001 0 0 0 -9.34375,-6.439453 h -9.82032 a 10.001,10.001 0 0 0 -9.35547,6.464844 l -0.0469,0.126953 -23.8418,62.449218 a 10.001,10.001 0 0 0 9.3418,13.566408 h 9.30664 a 10.001,10.001 0 0 0 9.42383,-6.656251 c 1.10038,-3.100638 2.20314,-6.201708 3.30469,-9.302735 h 13.63867 l 3.30273,9.304688 a 10.001,10.001 0 0 0 9.42383,6.654298 h 9.18164 a 10.001,10.001 0 0 0 4.75,-1.58594 10.001,10.001 0 0 0 3.92969,1.58399 c 7.34289,-0.0925 15.19073,0.23718 23.51172,-0.21289 a 10.001,10.001 0 0 0 0.21093,-0.0137 c 9.03542,-0.68034 20.01763,-2.870955 28.40235,-11.294919 a 10.001,10.001 0 0 0 0.0234,-0.02344 c 2.10739,-2.13164 3.80461,-4.433873 5.16992,-6.832032 1.6158,3.009489 3.53012,5.909187 6.08789,8.509766 7.53046,7.948162 17.94314,11.232962 27.83594,11.062502 9.77813,0.068 19.97365,-3.30751 27.33398,-11.146486 1.58371,-1.629037 2.91921,-3.378189 4.12891,-5.179688 v 5.132813 a 10.001,10.001 0 0 0 10.07617,10.000001 c 8.29015,-0.0634 16.85749,0.1366 25.68359,-0.10352 a 10.001,10.001 0 0 0 0.28711,-0.0117 c 7.35073,-0.41174 16.32771,-2.766741 22.45313,-10.107418 v 0.222657 a 10.001,10.001 0 0 0 10,10.000001 h 40.48242 a 10.001,10.001 0 0 0 10,-10.000001 v -7.482422 a 10.001,10.001 0 0 0 -10,-10 H 652.6582 v -2.142578 h 19.625 a 10.001,10.001 0 0 0 10,-10 v -7.482422 a 10.001,10.001 0 0 0 -6.96289,-8.742188 10.001,10.001 0 0 0 8.25391,-9.27539 v -7.482422 a 10.001,10.001 0 0 0 -10,-10 H 633.8418 a 10.001,10.001 0 0 0 -10,10 v 0.199219 2.347656 c -1.06234,-1.739804 -2.33447,-3.413858 -3.98633,-4.931641 -7.90025,-7.30962 -17.73962,-7.760598 -24.82227,-7.613281 l 0.20703,-0.002 H 575.3418 a 10.001,10.001 0 0 0 -10,10.050781 v 0.199219 4.984375 c -1.04293,-1.547056 -2.1757,-3.058067 -3.49805,-4.484375 -7.10926,-7.989943 -17.19738,-11.756897 -27.08789,-11.855469 -0.67794,-0.01696 -1.35713,-0.01903 -2.03516,-0.0059 z m 0.81055,7.21875 c -0.0267,2.49e-4 -0.0611,0.0075 -0.0879,0.0078 -0.0204,4.5e-4 -0.0402,-0.0064 -0.0606,-0.0059 z m -4.76172,0.373047 c -0.0586,0.0079 -0.11147,0.02686 -0.16992,0.03516 -0.0562,0.0091 -0.0998,0.0041 -0.15625,0.01367 z m 27.28125,10.496093 0.14844,0.203125 c -0.0141,-0.01958 -0.0347,-0.03125 -0.0488,-0.05078 -0.0373,-0.04964 -0.0619,-0.102795 -0.0996,-0.152344 z m -63.48633,6.910157 0.0371,0.08398 c -0.006,-0.01267 -0.014,-0.0225 -0.0195,-0.03516 -0.007,-0.01632 -0.0102,-0.03251 -0.0176,-0.04883 z m 41.30274,2.216796 c 2.44018,-0.05904 4.9558,1.170885 6.11328,2.775391 a 10.001,10.001 0 0 0 0.14844,0.203125 c 2.65449,3.491319 3.58435,9.529925 2.96093,16.154297 -1.9e-4,0.002 1.9e-4,0.0039 0,0.0059 -0.44628,4.62002 -2.48549,8.597026 -4.92968,10.214844 -2.13416,1.256741 -5.84323,1.456937 -8.52539,0.322266 -2.25957,-1.108662 -4.52408,-4.461924 -5.23243,-8.425782 -0.9611,-5.795007 -0.64765,-11.503014 1.20508,-15.896484 a 10.001,10.001 0 0 0 0.004,-0.0098 c 1.1397,-2.711915 3.81176,-4.872594 5.83789,-5.146484 a 10.001,10.001 0 0 0 0.32617,-0.05078 c 0.48117,-0.0813 1.13563,-0.135023 1.94336,-0.142578 a 10.001,10.001 0 0 0 0.14844,-0.0039 z m -72.34571,1.210938 c 3.14686,-0.07297 6.54923,0.432282 8.83985,1.365234 2.29062,0.932953 3.27236,1.839472 3.92773,3.332032 a 10.001,10.001 0 0 0 0.0371,0.08398 c 1.62943,3.620894 1.93855,8.72369 1.21875,14.263672 -0.45542,3.366552 -2.12905,6.021688 -3.61719,6.83789 a 10.001,10.001 0 0 0 -0.14648,0.08203 c -2.3139,1.319917 -6.06951,1.671181 -10.45703,1.824218 V 46.908203 a 10.001,10.001 0 0 0 0.19726,-0.002 z m 164.6875,6.220703 -0.0352,0.123047 c 0.006,-0.02214 0.006,-0.04813 0.0117,-0.07031 0.005,-0.01931 0.0182,-0.03339 0.0234,-0.05273 z m -53.63671,8.107422 -0.002,0.181641 c 4e-4,-0.02799 -0.004,-0.05792 -0.004,-0.08594 -7e-5,-0.03129 0.006,-0.06444 0.006,-0.0957 z m 21.58593,11.255859 h 3.29883 a 10.001,10.001 0 0 0 0.0352,0 c 1.7039,-0.0061 2.56895,0.238578 2.9414,0.291016 0.0788,0.524936 0.0571,1.110948 -0.043,1.845703 -0.13319,0.02587 -0.33553,0.09648 -0.82812,0.138672 -1.61149,0.08905 -3.65902,0.0372 -5.4043,0.04297 z m -112.46679,17.751953 -0.14649,0.08203 c 0.0238,-0.01304 0.0427,-0.02987 0.0664,-0.04297 0.0267,-0.01516 0.0533,-0.02381 0.0801,-0.03906 z m 77.30468,34.912113 c -0.01,2e-4 -0.0212,0.004 -0.0312,0.004 -0.0151,4.1e-4 -0.0298,-0.002 -0.0449,-0.002 l 0.006,0.004 c -8.41731,0.18063 -18.67907,2.6871 -25.32812,11.56836 a 10.001,10.001 0 0 0 -0.0195,0.0254 c -5.91075,7.94813 -6.38028,17.71492 -3.54687,25.99023 a 10.001,10.001 0 0 0 0.0293,0.082 c 3.24445,9.21409 11.23783,13.44692 17.62109,15.48438 7.37876,2.60626 12.60727,2.94523 15.33398,3.91015 -3.91505,1.14208 -9.15073,0.56666 -14.18554,-1.46679 a 10.001,10.001 0 0 0 -0.0117,-0.004 c -1.71338,-0.6897 -3.46005,-1.55205 -5.24414,-2.55469 a 10.001,10.001 0 0 0 -8.2168,-0.23633 c -5.7503,-15.0866 -11.50031,-30.17307 -17.25,-45.25976 a 10.001,10.001 0 0 0 -9.34375,-6.43945 h -9.81836 a 10.001,10.001 0 0 0 -9.33008,6.40039 l -0.0488,0.12695 a 10.001,10.001 0 0 0 -0.0137,0.0332 l -18.53906,48.56446 H 452.1582 v -45.125 a 10.001,10.001 0 0 0 -10,-10 h -8.8164 a 10.001,10.001 0 0 0 -6.50977,2.69726 10.001,10.001 0 0 0 -6.50781,-2.69726 h -36.14844 a 10.001,10.001 0 0 0 -10,10 v 0.19921 62.40625 a 10.001,10.001 0 0 0 10,10 h 8.81445 a 10.001,10.001 0 0 0 10,-10 V 179.1582 h 14.66797 a 10.001,10.001 0 0 0 5.6836,-2.35547 v 22.0625 a 10.001,10.001 0 0 0 10,10 h 39.10742 a 10.001,10.001 0 0 0 1.1582,-0.48046 10.001,10.001 0 0 0 1.43555,0.48046 h 9.30664 a 10.001,10.001 0 0 0 9.42383,-6.65429 l 3.30273,-9.30274 h 13.63867 l 3.30469,9.30274 a 10.001,10.001 0 0 0 9.42383,6.65429 h 9.18164 a 10.001,10.001 0 0 0 6.20703,-2.29296 c 10.10723,3.27974 21.47163,4.92091 32.98242,1.89453 5.14655,-1.30922 10.14594,-4.19941 14.00391,-8.44922 a 10.001,10.001 0 0 0 9.52344,8.84765 h 8.8164 a 10.001,10.001 0 0 0 10,-10 v -19.625 h 10.1836 v 19.625 a 10.001,10.001 0 0 0 10,10 h 8.8164 a 10.001,10.001 0 0 0 10,-10 v -62.60546 a 10.001,10.001 0 0 0 -10,-10 h -8.8164 a 10.001,10.001 0 0 0 -10,10 v 15.5 h -10.1836 v -15.5 a 10.001,10.001 0 0 0 -10,-10 h -8.8164 a 10.001,10.001 0 0 0 -8.42578,6.20117 10.001,10.001 0 0 0 -4.87891,-3.5918 c -7.158,-2.39505 -14.92368,-3.9239 -23.03125,-3.71094 a 10.001,10.001 0 0 0 -0.01,-0.004 z m 145.46485,1.00976 c -3.28545,-0.008 -6.19847,0.17413 -8.68555,0.0996 a 10.001,10.001 0 0 0 -0.30078,-0.004 h -8.79883 a 10.001,10.001 0 0 0 -10,10.05078 v 0.19922 62.35546 a 10.001,10.001 0 0 0 10,10 h 8.81445 a 10.001,10.001 0 0 0 10,-10 v -14.91015 c 3.36408,-0.0439 7.07945,-0.32447 11.10938,-1.32813 4.19341,-0.97477 8.22645,-2.91602 11.57617,-5.77734 v 22.01562 a 10.001,10.001 0 0 0 10,10 h 39.10742 a 10.001,10.001 0 0 0 1.15821,-0.48046 10.001,10.001 0 0 0 1.43359,0.48046 h 9.30664 a 10.001,10.001 0 0 0 9.42383,-6.65429 c 1.10038,-3.10006 2.20309,-6.20197 3.30469,-9.30274 h 13.63867 l 3.30273,9.30274 a 10.001,10.001 0 0 0 9.42383,6.65429 h 9.18164 a 10.001,10.001 0 0 0 7.66211,-4.40429 10.001,10.001 0 0 0 7.68164,4.40429 h 8.85742 a 10.001,10.001 0 0 0 10,-10 v -26.70117 c 3.28419,-4.86367 6.5679,-9.72661 9.85157,-14.58984 v 41.29101 a 10.001,10.001 0 0 0 10,10 h 40.48046 a 10.001,10.001 0 0 0 6.75977,-2.80078 10.001,10.001 0 0 0 6.75977,2.80078 h 8.81445 a 10.001,10.001 0 0 0 10,-10 V 182.75 c 0.31733,0.0279 0.81666,-0.002 1.0918,0.0449 a 10.001,10.001 0 0 0 0.15234,0.0234 c -0.71876,-0.11153 -0.0704,-0.0123 0.50391,0.95312 a 10.001,10.001 0 0 0 0.0234,0.0391 c 2.64543,4.40282 4.97296,9.7916 8.00782,15.60742 a 10.001,10.001 0 0 0 0.18164,0.33203 c -0.007,-0.0117 0.40318,1.96574 2.92968,5.23242 a 10.001,10.001 0 0 0 7.91016,3.88281 h 9.36523 a 10.001,10.001 0 0 0 8.89257,-14.57421 c -3.49026,-6.78707 -6.86333,-14.02763 -10.85546,-21.32227 a 10.001,10.001 0 0 0 -0.24023,-0.41797 c -0.35178,-0.57505 -1.00175,-1.35738 -1.41992,-2.01367 1.98244,-2.61024 3.59481,-5.53047 4.36328,-8.89649 a 10.001,10.001 0 0 0 0.008,-0.0332 c 1.53923,-6.84817 1.22462,-14.55141 -2.48047,-21.62305 a 10.001,10.001 0 0 0 -0.0156,-0.0293 c -4.82676,-9.14057 -14.02869,-12.4571 -21.53907,-13.30469 a 10.001,10.001 0 0 0 -0.0273,-0.002 c -7.06236,-0.77744 -13.24661,-0.2679 -18.4375,-0.38672 a 10.001,10.001 0 0 0 -0.22851,-0.002 h -7 a 10.001,10.001 0 0 0 -7.14063,3.07031 10.001,10.001 0 0 0 -7.12891,-3.07031 h -39.73046 a 10.001,10.001 0 0 0 -3.65821,1.51562 10.001,10.001 0 0 0 -4.01562,-1.51562 h -9.52735 A 10.001,10.001 0 0 0 866,130.69727 l -8.74023,13.05468 c -2.94141,-4.36209 -5.88071,-8.72395 -8.82422,-13.08593 a 10.001,10.001 0 0 0 -8.28907,-4.40625 h -9.52343 a 10.001,10.001 0 0 0 -8.28907,5.66601 10.001,10.001 0 0 0 -8.73632,-5.66601 h -9.82032 a 10.001,10.001 0 0 0 -9.35547,6.46484 l -0.0469,0.12695 -18.5293,48.53321 h -18.85547 v -45.125 a 10.001,10.001 0 0 0 -10,-10 h -8.81445 a 10.001,10.001 0 0 0 -9.19531,8.05664 c -3.89873,-3.68438 -8.71405,-6.1545 -13.72852,-7.125 -3.92292,-0.81568 -7.54092,-1.01963 -10.79101,-1.02735 z m -145.65235,6.28516 c -0.0271,0.002 -0.0587,0.0101 -0.0859,0.0117 -0.0302,0.002 -0.0577,-0.004 -0.0879,-0.002 z m 376.70118,19.52148 v 2.09375 a 10.001,10.001 0 0 0 -2.5254,-1.04687 10.001,10.001 0 0 0 2.5254,-1.04688 z m -372.13868,0.51563 c 1.47148,0.16308 3.04334,0.60188 4.62696,1.07031 -0.82481,-0.18305 -1.70954,-0.43621 -2.48438,-0.58008 l 0.52149,0.11133 c -1.10509,-0.26676 -1.72296,-0.39065 -2.66407,-0.60156 z m -140.02929,0.004 v 1.54102 a 10.001,10.001 0 0 0 -1.85938,-0.77148 10.001,10.001 0 0 0 1.85938,-0.76954 z m 284.32812,1.04297 c 0.32076,0.93689 0.30384,2.25194 -0.002,3.06446 0.13145,-0.37324 -0.31476,0.006 -1.64453,-0.041 a 10.001,10.001 0 0 0 -0.35157,-0.006 h -0.18164 v -2.97656 h 0.38086 a 10.001,10.001 0 0 0 0.30664,-0.006 c 1.16006,-0.0356 1.58992,0.31696 1.49219,-0.0352 z m 257.18945,0.0391 c 0.99319,-0.0153 1.53704,0.12179 1.81641,0.16992 0.0547,0.43443 0.0313,0.8411 -0.0371,1.37695 -0.11899,0.0238 -0.2303,0.0591 -0.59765,0.0801 -0.51731,0.0197 -1.18336,-3.8e-4 -1.7168,0.01 v -1.63476 h 0.38086 a 10.001,10.001 0 0 0 0.15429,-0.002 z m -379.51757,0.52734 v 8.36133 c -2.74169,-2.86321 -5.88923,-4.80788 -9.10938,-6.23828 a 10.001,10.001 0 0 0 9.10938,-2.12305 z m 246.39453,1.67773 11.06445,16.38672 v 12.64258 z m 136.89844,7.27735 0.15039,0.0254 c -0.0322,-0.006 -0.0538,-4.5e-4 -0.0859,-0.006 -0.0236,-0.004 -0.0408,-0.0159 -0.0644,-0.0195 z m -394.79297,2.07812 0.21093,0.11719 c -0.0365,-0.021 -0.069,-0.026 -0.10546,-0.0469 -0.0381,-0.0211 -0.0671,-0.0494 -0.10547,-0.0703 z m 161.78515,0.49024 -0.0137,0.043 c 0.002,-0.007 0.002,-0.0145 0.004,-0.0215 0.002,-0.008 0.007,-0.0138 0.01,-0.0215 z m 199.88282,11.3125 v 5.9082 a 10.001,10.001 0 0 0 -3.51954,-1.45898 h -21.66601 v -2.14454 h 19.625 a 10.001,10.001 0 0 0 5.56055,-2.30468 z m -352.13477,6.56836 -0.0606,0.80664 c 0.01,-0.0857 -0.0127,-0.17579 -0.004,-0.26172 0.0116,-0.18609 0.0581,-0.35662 0.0644,-0.54492 z m -13.79297,17.66211 -0.082,0.0254 c 0.0111,-0.004 0.0201,-0.0121 0.0312,-0.0156 0.0169,-0.005 0.0338,-0.004 0.0508,-0.01 z" id="path3"/>
            <path style="font-size:85.3333px;baseline-shift:baseline;display:inline;overflow:visible;vector-effect:none;stroke:none;enable-background:accumulate;stop-color:#000000;stop-opacity:1" d="m 400.229,29.719 -23.854,62.48 h 9.307 c 1.888,-5.32 3.778,-10.64 5.668,-15.959 h 27.76 l 5.665,15.96 h 9.182 l -23.86,-62.608 h -9.82 z m 16.109,39.123 h -22.3 L 405.166,38.66 Z M 442.51,29.791 v 62.408 c 7.698,-0.097 15.407,0.216 23.098,-0.2 7.902,-0.595 16.297,-2.582 22.066,-8.378 5.736,-5.802 7.47,-14.295 7.52,-22.189 0.09,-7.973 -1.365,-16.587 -6.922,-22.67 -5.472,-5.99 -13.782,-8.181 -21.598,-8.885 -7.476,-0.558 -14.984,-0.169 -22.474,-0.285 -0.474,0.125 -1.56,-0.256 -1.69,0.199 z m 18.78,7.117 c 8.41,-0.195 18.453,2.244 22.155,10.675 2.759,6.131 2.87,13.125 2.013,19.69 -0.762,5.668 -3.544,11.444 -8.722,14.284 -7.156,4.082 -15.697,3.242 -23.649,3.328 -1.693,0.439 -2.032,-0.477 -1.763,-2 V 36.908 h 9.965 z m 71.519,-8.431 c -7.423,0.034 -14.95,2.866 -19.968,8.453 -6.148,6.486 -8.385,15.697 -8.246,24.43 -0.02,8.672 2.415,17.772 8.665,24.061 5.25,5.566 13.025,8.143 20.567,7.985 7.414,0.08 15.008,-2.548 20.138,-8.037 6.209,-6.328 8.64,-15.418 8.607,-24.096 0.124,-8.662 -2.096,-17.783 -8.152,-24.244 -4.945,-5.587 -12.396,-8.475 -19.774,-8.546 a 35.78,35.78 0 0 0 -1.837,-0.006 z m 0.816,7.222 c 5.58,-0.135 11.174,2.36 14.465,6.922 4.958,6.521 5.703,15.225 4.956,23.151 -0.656,6.85 -3.603,13.947 -9.564,17.763 -5.332,3.27 -12.333,3.453 -18.003,0.95 -6.146,-2.873 -9.792,-9.356 -10.934,-15.841 -1.192,-7.132 -0.993,-14.743 1.848,-21.48 2.369,-5.637 7.503,-10.342 13.717,-11.182 1.16,-0.196 2.339,-0.272 3.515,-0.283 z m 41.717,-5.908 v 62.408 c 8.495,-0.065 16.996,0.131 25.487,-0.1 6.177,-0.346 12.883,-2.499 16.435,-7.91 2.974,-4.639 3.284,-10.694 1.595,-15.851 -1.712,-4.993 -6.238,-8.688 -11.324,-9.858 4.177,-0.732 7.9,-3.8 9.017,-7.951 1.53,-5.409 0.866,-11.993 -3.47,-15.969 -4.757,-4.413 -11.639,-5.097 -17.841,-4.968 h -19.9 z m 21.072,7.117 c 3.914,0.002 8.645,0.655 10.856,4.324 1.626,3.088 1.61,7.148 -0.252,10.133 -2.608,3.685 -7.646,3.933 -11.804,3.895 H 584.158 V 36.908 Z m 1.043,25.582 c 4.219,-0.015 9.218,0.813 11.611,4.723 1.933,3.477 1.95,7.974 0.635,11.624 -1.41,3.877 -5.642,5.645 -9.488,5.913 -5.343,0.302 -10.706,0.054 -16.057,0.135 V 62.49 Z m 36.385,-32.699 v 62.408 h 40.482 V 84.717 H 642.658 V 62.574 h 29.625 V 55.092 H 642.658 V 37.074 h 30.916 V 29.592 H 633.842 Z M 384.176,136.459 v 62.406 h 8.814 v -29.707 h 24.668 v -7.482 H 392.99 V 143.74 h 27.334 v -7.48 h -36.148 z m 49.166,0 v 62.406 h 39.107 v -7.48 h -30.29 V 136.26 h -8.817 z m 65.554,-0.072 -23.853,62.478 h 9.307 l 5.666,-15.957 h 27.76 l 5.667,15.957 h 9.182 C 524.67,177.997 516.717,157.128 508.764,136.26 h -9.819 z m 16.108,39.123 h -22.3 l 11.13,-30.184 z m 44.193,-40.358 c -6.498,0.13 -13.54,2.155 -17.594,7.57 -3.522,4.736 -3.987,11.3 -2.11,16.782 1.737,4.933 6.582,7.823 11.329,9.322 5.966,2.137 12.688,1.893 18.24,5.09 3.266,1.777 4.73,5.68 4.319,9.25 -0.135,3.987 -3.193,7.321 -6.895,8.491 -6.988,2.275 -14.696,1.078 -21.401,-1.63 -2.206,-0.888 -4.337,-1.95 -6.41,-3.115 v 9.145 c 9.688,3.626 20.48,5.418 30.64,2.734 5.464,-1.38 10.628,-5.161 12.32,-10.72 1.608,-5.327 1.408,-11.508 -1.584,-16.325 -3.565,-5.516 -10.207,-7.795 -16.363,-8.938 -4.619,-1.115 -9.628,-1.403 -13.694,-4.042 -3.088,-2.365 -3.28,-7.004 -1.932,-10.333 1.928,-4.298 6.964,-5.757 11.306,-6 6.808,-0.5 13.45,1.67 19.497,4.59 v -8.67 c -6.324,-2.116 -12.977,-3.386 -19.668,-3.2 z m 36.145,1.307 v 62.406 h 8.816 V 169.24 h 30.184 v 29.625 h 8.816 V 136.26 h -8.816 v 25.5 h -30.184 v -25.5 h -8.816 z m 91.334,0 v 62.406 h 8.814 v -25 c 6.262,-0.197 12.657,0.595 18.8,-0.959 5.3,-1.217 10.134,-4.989 11.796,-10.28 1.61,-5.046 1.594,-10.687 -0.205,-15.683 -1.944,-5.349 -7.117,-8.907 -12.57,-9.95 -5.862,-1.237 -11.895,-0.555 -17.836,-0.733 h -8.8 z m 19.195,7.115 c 4.234,-0.13 8.962,1.557 10.867,5.576 1.688,3.746 1.689,8.294 -0.1,12.007 -2.006,3.997 -6.751,5.543 -10.967,5.394 h -10.18 v -22.977 z m 32.305,-7.115 v 62.406 h 39.107 v -7.48 H 746.99 V 136.26 h -8.814 z m 65.553,-0.072 -23.854,62.478 h 9.307 c 1.888,-5.319 3.778,-10.638 5.668,-15.957 h 27.76 l 5.665,15.957 h 9.182 l -23.86,-62.605 h -9.82 z m 16.109,39.123 h -22.3 l 11.128,-30.184 z m 10.996,-38.94 21.967,32.534 v 29.761 h 8.857 v -29.761 c 7.393,-10.948 14.784,-21.897 22.178,-32.844 h -9.527 l -17.018,25.422 c -5.715,-8.474 -11.428,-16.95 -17.145,-25.422 h -9.523 l 0.112,0.165 z m 60.676,-0.111 v 62.406 h 40.48 v -7.48 H 900.324 V 169.24 h 29.625 v -7.48 h -29.625 v -18.02 h 30.916 v -7.48 h -39.73 z m 54,0 v 62.406 h 8.814 v -26.29 c 4.254,0.153 8.563,-0.358 12.777,0.362 3.261,0.506 5.907,2.934 7.566,5.723 3.116,5.186 5.505,10.772 8.302,16.132 0.748,1.31 1.289,2.952 2.156,4.073 h 9.365 c -3.608,-7.016 -6.948,-14.177 -10.734,-21.095 -1.99,-3.253 -4.33,-6.653 -7.932,-8.25 4.725,-1.352 8.561,-5.301 9.658,-10.106 1.1,-4.894 0.77,-10.298 -1.583,-14.789 -2.663,-5.043 -8.404,-7.426 -13.818,-8.037 -5.832,-0.642 -11.718,-0.194 -17.572,-0.328 h -7 z m 19.195,7.115 c 4.035,-0.062 8.637,1.065 10.748,4.858 1.77,3.417 1.749,7.699 0.373,11.177 -1.539,3.721 -5.604,5.413 -9.361,5.583 -4.044,0.156 -8.095,0.025 -12.14,0.068 v -21.686 z" id="path4"/>
        </g>
    </g>
</svg>
