<?xml version='1.0' encoding='utf-8'?>
<svg xmlns="http://www.w3.org/2000/svg" version="1.1" x="0px" y="0px" width="600" height="239.0685238791624" viewBox="-15 -11.333 1795.666 715.4787" enable-background="new -15 -11.333 1782 306" xml:space="preserve" id="svg10">
    <defs id="defs1">
</defs>
    <path style="baseline-shift:baseline;display:inline;overflow:visible;vector-effect:none;fill:#ffffff;stroke:none;stroke-width:37.2256;stroke-linecap:round;stroke-linejoin:round;stroke-dasharray:none;stroke-opacity:1;paint-order:markers stroke fill;enable-background:accumulate;stop-color:#000000" d="m 940.52075,132.77088 a 18.614674,18.614674 0 0 0 -17.83487,13.29072 l -10.10616,33.88113 a 18.614674,18.614674 0 0 0 17.83484,23.93492 h 0.35624 a 18.614674,18.614674 0 0 0 16.24259,-9.51726 c 2.12398,-3.79045 3.76533,-4.51849 4.86405,-5.00946 1.09867,-0.49098 0.007,-0.29085 0.007,-0.29085 h 13.97417 l 0.0149,132.50724 c -0.007,-0.47478 -0.17012,0.20232 -0.16007,0.18903 0.0112,-0.0134 1.10701,-1.20266 3.46809,-1.34507 a 18.614674,18.614674 0 0 0 -17.49315,18.57646 v 0.34899 a 18.614674,18.614674 0 0 0 18.61282,18.61281 h 60.7098 a 18.614674,18.614674 0 0 0 18.6128,-18.61281 v -0.34899 a 18.614674,18.614674 0 0 0 -17.5004,-18.57646 c 2.3265,0.13923 3.3915,1.30589 3.3881,1.30144 0,-0.005 -0.1601,-0.77232 -0.1601,-0.1454 l 0.037,-132.55813 6.7907,-0.0145 a 18.614674,18.614674 0 0 0 17.2023,14.88298 h 0.3343 a 18.614674,18.614674 0 0 0 17.8422,-13.31253 l 10.077,-33.87387 a 18.614674,18.614674 0 0 0 -17.8421,-23.92037 z m 245.58735,0.007 a 18.614674,18.614674 0 0 0 -18.6128,18.61281 v 0.41443 a 18.614674,18.614674 0 0 0 17.5804,18.58356 c -2.3917,-0.13301 -3.5261,-1.35513 -3.5408,-1.37416 -0.015,-0.019 0.1671,0.75032 0.1671,0.23992 l -0.043,115.97383 a 18.614674,18.614674 0 0 0 0,0.007 c 0,23.7376 10.4706,44.5715 26.7413,57.9251 16.2707,13.35361 37.5071,19.76885 59.8301,19.76885 22.3484,0 43.5564,-6.41833 59.7645,-19.79792 16.2081,-13.3796 26.5524,-34.21101 26.5524,-57.89603 v -115.9806 c 0,0.52727 0.1868,-0.25399 0.1816,-0.24722 0,0.007 -1.1186,1.24329 -3.5844,1.38142 a 18.614674,18.614674 0 0 0 17.5731,-18.58373 v -0.41442 A 18.614674,18.614674 0 0 0 1350.083,132.7783 l -60.6298,0.0654 a 18.614674,18.614674 0 0 0 -18.5983,18.61281 v 0.34899 a 18.614674,18.614674 0 0 0 17.5731,18.58373 c -2.42,-0.13494 -3.5559,-1.37067 -3.5698,-1.38869 -0.015,-0.0179 0.1746,0.75924 0.1746,0.25448 v 119.36193 c 0,9.41521 -8.2158,18.06025 -16.9333,18.06025 -8.9397,0 -16.9115,-8.38605 -16.9115,-17.83486 l -0.043,-119.59459 c 0.01,0.50112 0.1768,-0.19198 0.1745,-0.18904 0,0.003 -1.0867,1.18077 -3.4244,1.32326 a 18.614674,18.614674 0 0 0 17.4786,-18.57646 v -0.41443 a 18.614674,18.614674 0 0 0 -18.6128,-18.61281 z" id="path7"/>
    <path style="baseline-shift:baseline;display:inline;overflow:visible;vector-effect:none;fill:#ffffff;stroke:none;stroke-width:37.2256;stroke-linecap:round;stroke-linejoin:round;stroke-dasharray:none;stroke-opacity:1;paint-order:markers stroke fill;enable-background:accumulate;stop-color:#000000" d="m 900.91034,-11.333 c -23.72664,0 -43.7802,12.51531 -56.39827,28.97346 a 18.614674,18.614674 0 0 0 -3.83889,11.29129 l -0.0149,7.62689 c -4.63348,-1.11882 -9.38745,-1.87583 -14.3159,-1.87583 -33.55641,0 -61.27688,27.49174 -61.27688,61.05148 0,13.96504 4.97658,26.72696 12.98538,37.0584 l -46.77199,0.0509 a 18.614674,18.614674 0 0 0 -18.59826,18.61282 v 0.34899 a 18.614674,18.614674 0 0 0 17.5804,18.58373 c -2.37366,-0.13174 -3.5221,-1.35722 -3.54083,-1.38142 -0.0186,-0.0242 0.16714,0.74633 0.16714,0.24721 v 119.36194 c 0,9.42466 -8.18833,18.06024 -16.9406,18.06024 -8.92819,0 -16.89693,-8.38368 -16.89693,-17.83485 l -0.0298,-119.5946 c 0.007,0.49914 0.17347,-0.20932 0.17459,-0.21084 10e-4,-0.002 -1.07448,1.19836 -3.46809,1.34506 a 18.614674,18.614674 0 0 0 17.47132,-18.57646 v -0.41442 A 18.614674,18.614674 0 0 0 688.58502,132.77817 H 627.9916 a 18.614674,18.614674 0 0 0 -1.94853,0.80704 18.614674,18.614674 0 0 0 -1.9558,-0.80704 l -120.18351,0.0582 a 18.614674,18.614674 0 0 0 -18.60554,18.61281 v 0.36354 a 18.614674,18.614674 0 0 0 17.58038,18.58374 c -2.39978,-0.13357 -3.57026,-1.37545 -3.59169,-1.40323 -0.0216,-0.0279 0.17448,0.74399 0.17448,0.26173 v 152.30516 c 0,-0.51384 -0.18945,0.28623 -0.18178,0.27629 0.008,-0.01 1.14496,-1.24969 3.56261,-1.38869 a 18.614674,18.614674 0 0 0 -17.54403,18.58373 v 0.35624 a 18.614674,18.614674 0 0 0 18.61282,18.61282 h 60.63705 a 18.614674,18.614674 0 0 0 18.61282,-18.61282 v -0.35624 a 18.614674,18.614674 0 0 0 -17.5429,-18.58379 c 2.40601,0.13822 3.50514,1.35324 3.50444,1.35234 -6.9e-4,-8.9e-4 -0.17511,-0.7255 -0.18177,-0.23266 v -0.007 l 0.022,-55.38767 h 23.39688 a 18.614674,18.614674 0 0 0 16.96967,14.14138 h 0.38532 a 18.614674,18.614674 0 0 0 13.77058,-6.92164 l -0.007,11.83659 a 18.614674,18.614674 0 0 0 0,0.007 c 0,23.73637 10.4681,44.57829 26.74866,57.93238 16.28051,13.35409 37.52942,19.76157 59.88088,19.76157 22.32443,0 43.51877,-6.42426 59.7137,-19.80519 14.10888,-11.65735 23.31545,-29.12378 25.5708,-49.04768 l 0.0149,65.61744 c 0,0 -1.23764,25.03218 -19.54345,38.4398 a 18.614674,18.614674 0 0 0 -7.31428,18.35108 l 0.0655,0.3637 a 18.614674,18.614674 0 0 0 21.39018,15.02839 c 3.94945,-0.66153 21.07302,-3.68262 38.83243,-15.41375 16.46847,-10.87833 32.78301,-31.74296 35.1608,-61.03693 a 18.614674,18.614674 0 0 0 6.10005,2.52291 h 60.54253 a 18.614674,18.614674 0 0 0 18.61281,-18.61282 v -0.34899 a 18.614674,18.614674 0 0 0 -17.48588,-18.57646 c 2.46642,0.14965 3.52449,1.36886 3.51172,1.35234 -0.0112,-0.0164 -0.18911,-0.81612 -0.18911,-0.26903 V 168.85502 c 0,1.14193 0.97449,1.28515 -3.39539,1.53411 a 18.614674,18.614674 0 0 0 17.55859,-18.58374 v -0.35625 a 18.614674,18.614674 0 0 0 -18.61282,-18.61281 h -56.3619 a 18.614674,18.614674 0 0 0 2.35567,-6.55811 c 7.63505,2.77699 15.75381,4.5296 24.27662,4.5296 39.14029,0 71.26671,-32.05571 71.26671,-71.09222 0,-39.06318 -32.1629,-71.04859 -71.26671,-71.04859 z m 0,15.26105 1.75225,0.08 c 0,0 -0.69932,0.0257 -0.75616,0.0218 -0.33909,-0.006 -0.65562,-0.10179 -0.99609,-0.10179 z m -1.75221,37.14565 a 18.614674,18.614674 0 0 0 1.75221,0.08 c 10.59866,0 18.71463,8.1642 18.71463,18.56191 0,10.48656 -8.09803,18.59101 -18.71463,18.59101 a 18.614674,18.614674 0 0 0 -0.0298,0 c -4.8964,0.009 -9.56925,-1.92775 -13.05078,-5.36573 l -10.3243,-11.5603 c 4.84387,-12.61056 10.53969,-16.63364 14.97024,-18.59827 4.63794,-2.0566 6.68171,-1.7086 6.68171,-1.7086 z M 826.3355,87.18403 a 18.614674,18.614674 0 0 0 0.0298,0 c 2.27136,-0.004 4.42159,0.90549 6.04191,2.49383 l 6.72533,7.53964 c -2.91633,3.73184 -5.6019,5.81353 -7.5469,6.52903 -2.7251,1.00246 -2.78466,0.78523 -2.78466,0.78523 a 18.614674,18.614674 0 0 0 -2.46475,-0.15996 c -5.0577,0 -8.68842,-3.63519 -8.68842,-8.63751 0,-4.89973 3.61241,-8.55026 8.68842,-8.55026 z m 309.0308,41.77705 c -38.6885,0 -63.302,16.96526 -74.5966,34.94991 -10.3875,16.54018 -10.6517,32.00508 -10.6587,34.62274 -0.1947,1.86813 -1.175,12.59489 3.7007,25.35269 5.3156,13.9086 17.65,30.43883 40.7083,43.03486 l 37.6982,20.58315 c 4.925,2.73731 5.1255,4.2755 5.3003,4.74773 0.1753,0.47422 0.1891,-1.62136 0.1891,-1.62136 a 18.614674,18.614674 0 0 0 -0.2107,2.58108 c 0,0 0.115,1.47563 -2.1158,4.63139 -2.1662,3.06444 -6.2248,7.66742 -22.219,8.64478 -0.8077,-0.0695 -6.3342,-0.49834 -13.7997,-2.58108 -7.9887,-2.2287 -15.3989,-6.79729 -16.7661,-8.812 a 18.614674,18.614674 0 0 0 -15.3992,-8.16492 h -0.378 a 18.614674,18.614674 0 0 0 -17.7622,24.16031 l 10.7751,34.54276 a 18.614674,18.614674 0 0 0 11.1095,11.83659 c 9.9986,3.83105 19.675,4.5925 27.6939,5.07489 7.7841,0.46828 13.6225,0.28705 13.9814,0.27629 42.5159,-0.0452 68.8091,-16.42638 81.3801,-34.72453 11.8154,-17.19815 11.8693,-34.1388 11.8512,-36.30952 0.2367,-2.47714 0.9678,-12.0866 -3.3518,-24.02216 -4.912,-13.5725 -16.5804,-29.85987 -38.4253,-41.84248 a 18.614674,18.614674 0 0 0 -0.065,-0.0365 l -37.9454,-20.60496 a 18.614674,18.614674 0 0 0 -0.1526,-0.08 c -5.8949,-3.13158 -6.2171,-5.07189 -6.5291,-5.96919 -0.3119,-0.8973 -0.3272,0.64709 -0.3272,0.64709 a 18.614674,18.614674 0 0 0 0.2472,-4.34784 c 0,0 0.059,-2.07362 1.3669,-4.32602 1.3076,-2.25241 2.0758,-5.53295 16.2134,-5.53295 a 18.614674,18.614674 0 0 0 1.6142,-0.0654 c 0,0 12.5055,0.36984 15.8281,5.86013 a 18.614674,18.614674 0 0 0 16.0972,8.97923 l 0.3926,-0.007 a 18.614674,18.614674 0 0 0 18.4383,-18.61281 v -28.59539 a 18.614674,18.614674 0 0 0 -5.4384,-13.15257 c -7.9096,-7.92174 -12.1166,-6.97375 -16.8243,-7.98315 -4.7076,-1.0094 -9.4683,-1.59229 -13.9814,-2.03578 -9.0262,-0.88697 -17.1441,-1.09059 -17.1441,-1.09059 a 18.614674,18.614674 0 0 0 -0.4944,-0.007 z m -270.08203,39.66128 a 18.614674,18.614674 0 0 0 3.84615,1.77404 c -4.29443,-0.22343 -3.46809,-0.54038 -3.46809,-1.53411 v 152.63234 c 0,-0.52454 -0.18613,0.26508 -0.18911,0.26903 -0.003,0.004 1.09756,-1.20717 3.50446,-1.35234 a 18.614674,18.614674 0 0 0 -4.07155,1.90491 l -0.0372,-153.06131 c 0,0.49351 0.19246,-0.27766 0.17459,-0.25447 -0.0186,0.0231 -1.17518,1.26227 -3.57716,1.39596 a 18.614674,18.614674 0 0 0 3.81708,-1.77404 z m -69.40543,0.43624 a 18.614674,18.614674 0 0 0 0.26914,0.12359 c -0.0186,0.0171 -0.21852,0.0688 -0.24718,0.0945 -0.0372,-0.032 -0.24532,-0.0865 -0.26914,-0.10907 a 18.614674,18.614674 0 0 0 0.24718,-0.10907 z m 0.47257,0.2181 a 18.614674,18.614674 0 0 0 2.41386,1.11968 c -1.59947,-0.0888 -1.88622,-0.55837 -2.41386,-0.94518 z m -0.99608,0.022 v 0.18903 c -0.50932,0.37192 -0.75333,0.81286 -2.34841,0.90156 a 18.614674,18.614674 0 0 0 2.34841,-1.09059 z m -190.16331,16.22804 a 18.614674,18.614674 0 0 0 1.4614,3.17 c -0.71097,-0.31928 -1.34559,-0.99548 -1.4614,-3.17 z m -36.2441,3.52626 h 37.87272 a 18.614674,18.614674 0 0 0 16.7079,13.99596 l -0.007,13.9378 A 18.614674,18.614674 0 0 0 609.71459,209.9706 H 568.9629 Z m 21.79009,73.59318 a 18.614674,18.614674 0 0 0 1.44685,3.14818 c -0.72262,-0.33756 -1.33908,-1.02705 -1.44685,-3.14818 z m 583.98429,30.93653 -0.2036,2.58107 c 0,0 0.01,-1.1071 0.03,-1.37414 0.01,-0.13778 0.1746,-1.20693 0.1746,-1.20693 z" id="path5"/>
    <path style="baseline-shift:baseline;display:inline;overflow:visible;vector-effect:none;fill:#e60012;stroke:none;stroke-width:37.2256;stroke-linecap:round;stroke-linejoin:round;stroke-dasharray:none;stroke-opacity:1;paint-order:markers stroke fill;enable-background:accumulate;stop-color:#000000" d="m 930.41515,185.26152 h 0.35737 c 8.20825,-14.64829 20.86868,-14.8158 20.86868,-14.8158 h 32.82556 l 0.0223,151.11743 c 0,8.17847 -6.10501,16.93766 -14.19041,17.42531 v 0.34992 h 60.71505 v -0.34992 c -8.1487,-0.48765 -14.276,-9.3064 -14.276,-17.42159 l 0.045,-151.12487 27.4353,-0.067 c 8.3311,0 14.9275,6.62616 15.1657,14.88653 h 0.3351 l 10.0769,-33.87532 H 940.52191 Z m 302.16045,103.58403 c 0,19.54345 15.899,36.44388 35.5244,36.44388 19.5732,0 35.543,-17.12378 35.543,-36.67468 V 169.2545 c 0,-8.20825 -6.0976,-16.99722 -14.1755,-17.44765 v -0.35364 l 60.6368,-0.0596 v 0.41321 c -8.0407,0.45043 -14.1681,9.2394 -14.1681,17.44765 v 115.98388 c 0,37.32986 -30.2048,59.07707 -67.7059,59.07707 -37.4379,0 -67.9591,-21.74721 -67.9591,-59.07707 l 0.045,-115.98388 c 0,-8.20825 -6.105,-16.99722 -14.2053,-17.44765 v -0.41321 h 60.6517 v 0.41321 c -8.1226,0.4951 -14.2276,9.29151 -14.2276,17.44765 z" id="path8-6"/>
    <g id="g44" transform="translate(0,381.47867)">
        <g id="g43">
            <path style="baseline-shift:baseline;display:inline;overflow:visible;vector-effect:none;fill:#ffffff;stroke-linecap:round;stroke-linejoin:round;paint-order:markers stroke fill;enable-background:accumulate;stop-color:#000000" d="m 779.55664,134.95802 a 25.0025,25.0025 0 0 0 -24.96875,23.72265 c -1.56539,30.60818 -26.4569,54.6543 -57.58789,54.6543 -31.13099,0 -56.02253,-24.04545 -57.58789,-54.65235 A 25.0025,25.0025 0 0 0 614.44336,134.95997 H 555.07031 A 25.0025,25.0025 0 0 0 530.08008,160.7002 C 532.74359,250.38904 606.74803,322.667 697,322.667 c 90.25219,0 164.25641,-72.27797 166.91992,-161.9668 a 25.0025,25.0025 0 0 0 -24.99023,-25.74218 z m 20.93359,50 h 9.73047 C 797.28375,235.50277 751.76364,272.667 697,272.667 c -54.76383,0 -100.28379,-37.16249 -113.2207,-87.70703 h 9.73047 c 12.84622,45.11389 54.46629,78.375 103.49023,78.375 49.02415,0 90.64421,-33.26226 103.49023,-78.37695 z" id="path16"/>
            <path style="baseline-shift:baseline;display:inline;overflow:visible;vector-effect:none;fill:#ffffff;stroke-linecap:round;stroke-linejoin:round;paint-order:markers stroke fill;enable-background:accumulate;stop-color:#000000" d="m 407,134.95997 a 25.0025,25.0025 0 0 0 -25,25 v 128.04101 a 25.0025,25.0025 0 0 0 25,25 h 65.33203 a 25.0025,25.0025 0 0 0 25,-25 V 159.95997 a 25.0025,25.0025 0 0 0 -25,-25 z m 25,50 h 15.33203 v 78.04101 H 432 Z" id="path12"/>
            <g id="polygon1" style="opacity:1" transform="translate(10,13.667)">
                <path style="baseline-shift:baseline;display:inline;overflow:visible;vector-effect:none;fill:#ffffff;stroke-linecap:round;stroke-linejoin:round;paint-order:markers stroke fill;enable-background:accumulate;stop-color:#000000;stop-opacity:1" d="m 306.33203,-15.332031 a 25.0025,25.0025 0 0 0 -25,24.9999998 V 64.667969 a 25.0025,25.0025 0 0 0 25,25 H 372 v 49.625001 a 25.0025,25.0025 0 0 0 25,25 h 65.33203 a 25.0025,25.0025 0 0 0 25,-25 V 89.667969 H 554 a 25.0025,25.0025 0 0 0 25,-25 V 9.6679688 A 25.0025,25.0025 0 0 0 554,-15.332031 Z m 25,50 H 529 v 5 h -66.66797 a 25.0025,25.0025 0 0 0 -25,25 V 114.29297 H 422 V 64.667969 a 25.0025,25.0025 0 0 0 -25,-25 h -65.66797 z" id="path10"/>
                <path style="baseline-shift:baseline;display:inline;overflow:visible;vector-effect:none;fill:#33cc66;stroke-linecap:round;stroke-linejoin:round;paint-order:markers stroke fill;enable-background:accumulate;stop-color:#000000;stop-opacity:1" d="M 462.333,64.667 H 554 v -55 H 306.333 v 55 H 397 v 74.625 h 65.333 z" id="path11"/>
            </g>
            <path style="baseline-shift:baseline;display:inline;overflow:visible;vector-effect:none;fill:#33cc66;stroke-linecap:round;stroke-linejoin:round;paint-order:markers stroke fill;enable-background:accumulate;stop-color:#000000" d="m 407,159.95901 h 65.333 v 128.042 H 407 Z" id="path13"/>
            <g id="path1" style="opacity:1" transform="translate(10,13.667)">
                <path style="baseline-shift:baseline;display:inline;overflow:visible;vector-effect:none;fill:#ffffff;stroke-linecap:round;stroke-linejoin:round;paint-order:markers stroke fill;enable-background:accumulate;stop-color:#000000;stop-opacity:1" d="m 687,-25 c -90.87444,0 -165.26601,73.302372 -166.96094,163.82422 a 25.0025,25.0025 0 0 0 24.99414,25.46875 h 59.36914 a 25.0025,25.0025 0 0 0 24.98633,-24.19531 C 630.39429,108.91859 655.49784,84.332031 687,84.332031 c 31.50254,0 56.60571,24.586569 57.61133,55.765629 a 25.0025,25.0025 0 0 0 24.98633,24.19336 h 59.36914 a 25.0025,25.0025 0 0 0 24.99414,-25.46875 C 852.26601,48.30125 777.87444,-25 687,-25 Z m 0,50 c 55.33898,0 101.25728,37.922852 113.63086,89.29102 h -9.73633 C 778.57813,68.401933 736.59041,34.332031 687,34.332031 c -49.59073,0 -91.57821,34.071649 -103.89453,79.960939 h -9.73633 C 585.74207,62.923155 631.66036,25 687,25 Z" id="path14"/>
                <path style="baseline-shift:baseline;display:inline;overflow:visible;vector-effect:none;fill:#33cc66;stroke-linecap:round;stroke-linejoin:round;paint-order:markers stroke fill;enable-background:accumulate;stop-color:#000000;stop-opacity:1" d="m 687,59.333 c 44.747,0 81.166,35.559 82.598,79.958 h 59.368 C 827.521,62.118 764.519,0 687,0 609.481,0 546.479,62.118 545.034,139.292 h 59.368 C 605.834,94.893 642.253,59.333 687,59.333 Z" id="path15"/>
            </g>
            <path style="baseline-shift:baseline;display:inline;overflow:visible;vector-effect:none;fill:#ffffff;stroke-linecap:round;stroke-linejoin:round;paint-order:markers stroke fill;enable-background:accumulate;stop-color:#000000" d="m 869.69531,134.95997 a 25.0025,25.0025 0 0 0 -24.30859,30.83008 l 30.63672,127.70898 a 25.0025,25.0025 0 0 0 24.30859,19.16797 h 71.33594 A 25.0025,25.0025 0 0 0 995.9707,293.52442 L 1026.75,165.81739 a 25.0025,25.0025 0 0 0 -24.3047,-30.85742 h -57.33397 a 25.0025,25.0025 0 0 0 -8.62891,1.95117 25.0025,25.0025 0 0 0 -8.57617,-1.95117 z m 31.70703,50 h 6.63282 l 3.94336,17.01562 a 25.0025,25.0025 0 0 0 48.65625,0.22266 l 4.16015,-17.23828 h 5.91016 L 951.97656,262.667 h -31.93164 z" id="path22"/>
            <path style="baseline-shift:baseline;display:inline;overflow:visible;vector-effect:none;fill:#33cc66;stroke-linecap:round;stroke-linejoin:round;paint-order:markers stroke fill;enable-background:accumulate;stop-color:#000000" d="m 697,238.334 c -44.216,0 -80.323,-34.714 -82.556,-78.375 H 555.07 c 2.27,76.438 64.942,137.708 141.93,137.708 76.988,0 139.66,-61.271 141.93,-137.709 h -59.374 c -2.233,43.662 -38.34,78.376 -82.556,78.376 z" id="path17"/>
            <path style="baseline-shift:baseline;display:inline;overflow:visible;vector-effect:none;fill:#ffffff;stroke-linecap:round;stroke-linejoin:round;paint-order:markers stroke fill;enable-background:accumulate;stop-color:#000000" d="m 1017.1406,134.95997 a 25.0025,25.0025 0 0 0 -24.25779,31.05078 l 31.86129,127.70703 A 25.0025,25.0025 0 0 0 1049,312.667 h 69.332 a 25.0025,25.0025 0 0 0 24.2969,-19.10938 l 30.9609,-127.70898 a 25.0025,25.0025 0 0 0 -24.2968,-30.88867 h -58.252 a 25.0025,25.0025 0 0 0 -8.7656,1.98437 25.0025,25.0025 0 0 0 -8.791,-1.98437 z m 32.002,50 h 4.6953 l 4.2031,17.2832 a 25.0025,25.0025 0 0 0 48.6055,-0.0879 l 4.1152,-17.19531 h 6.7461 l -18.8379,77.70704 h -30.1406 z" id="path26"/>
            <path style="baseline-shift:baseline;display:inline;overflow:visible;vector-effect:none;fill:#ffffff;stroke-linecap:round;stroke-linejoin:round;paint-order:markers stroke fill;enable-background:accumulate;stop-color:#000000" d="M 978,-1.333 A 25.0025,25.0025 0 0 0 953.69727,17.801766 L 922.49805,147.09473 a 25.0025,25.0025 0 0 0 24.30273,30.86524 h 57.33202 a 25.0025,25.0025 0 0 0 5.6133,-1.26953 25.0025,25.0025 0 0 0 5.6484,1.26953 h 56.3868 a 25.0025,25.0025 0 0 0 24.2929,-30.91016 L 1064.625,17.758797 A 25.0025,25.0025 0 0 0 1040.332,-1.333 Z m 19.68555,50 h 22.99995 l 19.2872,79.29297 h -5.0489 l -1.0019,-4.01172 a 25.0025,25.0025 0 0 0 -48.56057,0.19531 l -0.91992,3.81641 h -5.89258 z" id="path18"/>
            <path style="baseline-shift:baseline;display:inline;overflow:visible;vector-effect:none;fill:#33cc66;stroke-linecap:round;stroke-linejoin:round;paint-order:markers stroke fill;enable-background:accumulate;stop-color:#000000" d="m 1009.666,130 5.728,22.959 h 56.388 L 1040.333,23.667 H 978 l -31.2,129.292 h 57.333 z" id="path19"/>
            <path style="baseline-shift:baseline;display:inline;overflow:visible;vector-effect:none;fill:#ffffff;stroke-linecap:round;stroke-linejoin:round;paint-order:markers stroke fill;enable-background:accumulate;stop-color:#000000" d="m 837,-1.333 a 25.0025,25.0025 0 0 0 -24.31055,30.832031 l 31.01758,129.291019 a 25.0025,25.0025 0 0 0 24.31055,19.16992 h 58.26758 a 25.0025,25.0025 0 0 0 24.35546,-30.64258 L 920.6875,18.024422 A 25.0025,25.0025 0 0 0 896.33203,-1.333 Z m 31.70703,50 h 7.75586 l 18.36914,79.29297 h -7.10351 z" id="path20"/>
            <path style="baseline-shift:baseline;display:inline;overflow:visible;vector-effect:none;fill:#33cc66;stroke-linecap:round;stroke-linejoin:round;paint-order:markers stroke fill;enable-background:accumulate;stop-color:#000000" d="M 896.333,23.667 H 837 l 31.017,129.292 h 58.268 z" id="path21"/>
            <path style="baseline-shift:baseline;display:inline;overflow:visible;vector-effect:none;fill:#ffffff;stroke-linecap:round;stroke-linejoin:round;paint-order:markers stroke fill;enable-background:accumulate;stop-color:#000000" d="m 1123.668,-1.333 a 25.0025,25.0025 0 0 0 -24.3145,19.179688 l -30.9492,129.292972 a 25.0025,25.0025 0 0 0 24.3125,30.82031 h 58.2715 a 25.0025,25.0025 0 0 0 24.2969,-19.11133 L 1206.6289,29.557625 A 25.0025,25.0025 0 0 0 1182.332,-1.333 Z m 19.7207,50 h 7.1601 l -19.2226,79.29297 h -6.9199 z" id="path24"/>
            <path style="baseline-shift:baseline;display:inline;overflow:visible;vector-effect:none;fill:#33cc66;stroke-linecap:round;stroke-linejoin:round;paint-order:markers stroke fill;enable-background:accumulate;stop-color:#000000" d="m 1182.333,23.667 h -58.666 l -30.95,129.292 h 58.272 z" id="path25"/>
            <path style="baseline-shift:baseline;display:inline;overflow:visible;vector-effect:none;fill:#33cc66;stroke-linecap:round;stroke-linejoin:round;paint-order:markers stroke fill;enable-background:accumulate;stop-color:#000000" d="m 936.333,196.334 -8.426,-36.375 h -58.211 l 30.637,127.708 h 71.334 l 30.779,-127.708 h -57.335 z" id="path23"/>
            <path style="baseline-shift:baseline;display:inline;overflow:visible;vector-effect:none;fill:#33cc66;stroke-linecap:round;stroke-linejoin:round;paint-order:markers stroke fill;enable-background:accumulate;stop-color:#000000" d="m 1082.333,196.334 -8.848,-36.375 H 1017.14 L 1049,287.667 h 69.333 l 30.96,-127.708 h -58.252 z" id="path27"/>
            <path style="baseline-shift:baseline;display:inline;overflow:visible;vector-effect:none;fill:#ffffff;stroke-linecap:round;stroke-linejoin:round;paint-order:markers stroke fill;enable-background:accumulate;stop-color:#000000" d="m 1323.5039,134.95802 a 25.0025,25.0025 0 0 0 -23.248,34.19335 c 17.971,45.44093 37.5678,94.93239 43.1386,107.78907 6.06,13.98407 17.25,26.01083 29.9864,31.10547 12.7363,5.09464 23.6651,4.62109 33.6191,4.62109 h 64.668 a 25.0025,25.0025 0 0 0 25,-25 V 159.95997 a 25.0025,25.0025 0 0 0 -25,-25 h -57.336 a 25.0025,25.0025 0 0 0 -14.8359,5.6875 25.0025,25.0025 0 0 0 -15.1895,-5.68945 z m 36.9238,50 h 6.9942 c 7.0969,17.73427 14.7976,37.02107 16.5996,41.2246 3.2449,7.57083 7.432,14.90953 16.9609,19.67579 4.7648,2.3833 10.7042,3.35665 15.5235,2.82226 4.8193,-0.53438 10.6855,-3.57422 10.6855,-3.57422 A 25.0025,25.0025 0 0 0 1439.332,223.667 v -38.70703 h 7.336 V 262.667 H 1407 c -9.379,0 -14.4517,-0.80606 -15.0488,-1.04492 -0.5972,-0.23886 -0.073,1.45343 -2.6797,-4.5625 -2.474,-5.70963 -16.7915,-41.80639 -28.8438,-72.10156 z" id="path32"/>
            <path style="baseline-shift:baseline;display:inline;overflow:visible;vector-effect:none;fill:#ffffff;stroke-linecap:round;stroke-linejoin:round;paint-order:markers stroke fill;enable-background:accumulate;stop-color:#000000" d="m 1209.666,-1.331047 a 25.0025,25.0025 0 0 0 -25,25 V 152.95997 a 25.0025,25.0025 0 0 0 25,25 H 1269 a 25.0025,25.0025 0 0 0 24.9434,-24.78906 c 1.8169,4.60111 1.6254,4.13211 3.541,8.97851 a 25.0025,25.0025 0 0 0 23.25,15.81055 h 60.7773 a 25.0025,25.0025 0 0 0 23.2207,-34.26367 c -9.2317,-23.14267 -19.3966,-48.744828 -27.6269,-69.693363 -8.2304,-20.948534 -15.022,-38.806548 -15.7227,-40.908203 -5.0718,-15.213403 -17.4737,-25.4990493 -27.8281,-29.826172 -10.3544,-4.327122 -19.0373,-4.599609 -23.8887,-4.599609 z m 25,50 h 75 c 1.1107,0 3.5579,0.377804 4.457,0.708984 2.5107,7.454778 8.28,22.12516 16.4454,42.908204 4.2251,10.754269 9.3019,23.473589 14.1406,35.673829 h -6.959 c -10.058,-25.4864 -20.8184,-52.779298 -20.8184,-52.779298 A 25.0025,25.0025 0 0 0 1293.668,59.334969 H 1269 a 25.0025,25.0025 0 0 0 -25,25 v 43.625001 h -9.334 z" id="path28"/>
            <path style="baseline-shift:baseline;display:inline;overflow:visible;vector-effect:none;fill:#ffffff;stroke-linecap:round;stroke-linejoin:round;paint-order:markers stroke fill;enable-background:accumulate;stop-color:#000000" d="m 1209.668,134.95997 a 25.0025,25.0025 0 0 0 -25,25 v 127.70898 a 25.0025,25.0025 0 0 0 25,25 H 1269 a 25.0025,25.0025 0 0 0 25,-25 V 159.95997 a 25.0025,25.0025 0 0 0 -25,-25 z m 25,50 H 1244 v 77.70898 h -9.332 z" id="path30"/>
            <path style="baseline-shift:baseline;display:inline;overflow:visible;vector-effect:none;fill:#33cc66;stroke-linecap:round;stroke-linejoin:round;paint-order:markers stroke fill;enable-background:accumulate;stop-color:#000000" d="m 1269,84.334 h 24.667 c 0,0 12.426,31.583 27.067,68.625 h 60.777 c -18.486,-46.342 -40.695,-102.51 -43.845,-111.958 -5.334,-16 -22,-17.333 -28,-17.333 -6,0 -100,0 -100,0 V 152.96 H 1269 Z" id="path29"/>
            <path style="baseline-shift:baseline;display:inline;overflow:visible;vector-effect:none;fill:#33cc66;stroke-linecap:round;stroke-linejoin:round;paint-order:markers stroke fill;enable-background:accumulate;stop-color:#000000" d="M 1209.667,159.95901 H 1269 v 127.709 h -59.333 z" id="path31"/>
            <path style="baseline-shift:baseline;display:inline;overflow:visible;vector-effect:none;fill:#ffffff;stroke-linecap:round;stroke-linejoin:round;paint-order:markers stroke fill;enable-background:accumulate;stop-color:#000000" d="m 1414.332,-1.333 a 25.0025,25.0025 0 0 0 -25,25 v 129.29297 a 25.0025,25.0025 0 0 0 25,25 h 57.336 a 25.0025,25.0025 0 0 0 25,-25 V 23.667 a 25.0025,25.0025 0 0 0 -25,-25 z m 25,50 h 7.336 v 79.29297 h -7.336 z" id="path34"/>
            <path style="baseline-shift:baseline;display:inline;overflow:visible;vector-effect:none;fill:#33cc66;stroke-linecap:round;stroke-linejoin:round;paint-order:markers stroke fill;enable-background:accumulate;stop-color:#000000" d="m 1414.333,223.667 c 0,0 -3.333,1.999 -7.333,-7.334 -1.518,-3.541 -11.099,-27.337 -22.694,-56.375 h -60.803 c 17.96,45.413 38.221,96.405 42.83,107.042 8.667,20 21.334,20.667 40.667,20.667 19.333,0 64.667,0 64.667,0 V 159.959 h -57.334 z" id="path33"/>
            <path style="baseline-shift:baseline;display:inline;overflow:visible;vector-effect:none;fill:#33cc66;stroke-linecap:round;stroke-linejoin:round;paint-order:markers stroke fill;enable-background:accumulate;stop-color:#000000" d="m 1414.333,23.667 h 57.334 v 129.29201 h -57.334 z" id="path35"/>
            <path style="baseline-shift:baseline;display:inline;overflow:visible;vector-effect:none;fill:#ffffff;stroke-linecap:round;stroke-linejoin:round;paint-order:markers stroke fill;enable-background:accumulate;stop-color:#000000" d="m 1678.0762,134.95802 a 25.0025,25.0025 0 0 0 -14.2617,45.5332 c 3.9507,2.74439 6.2617,6.47569 6.2617,10.50781 0,6.19091 -9.5251,13 -15.3907,13 H 1498.498 a 25.0025,25.0025 0 0 0 -25,25 V 287.667 a 25.0025,25.0025 0 0 0 25,25 h 159.5528 c 39.1874,0 71.1798,-17.73993 91.6758,-41.36719 20.4959,-23.62726 30.9394,-52.40162 30.9394,-79.63281 0,-13.31402 -2.5031,-26.87496 -7.2168,-40.10156 a 25.0025,25.0025 0 0 0 -23.5488,-16.60742 z m 41.5879,50 h 10.5547 c 0.2672,2.32968 0.4472,4.5994 0.4472,6.70898 0,13.43581 -6.3857,32.66315 -18.709,46.86914 -12.3233,14.20599 -29.1386,24.13086 -53.9062,24.13086 H 1523.498 v -8.66797 h 131.1875 c 33.1825,0 65.3907,-25.19091 65.3907,-63 0,-2.06237 -0.2113,-4.04998 -0.4121,-6.04101 z" id="path38"/>
            <g id="path8" style="opacity:1" transform="translate(10,13.667)">
                <path style="baseline-shift:baseline;display:inline;overflow:visible;vector-effect:none;fill:#ffffff;stroke-linecap:round;stroke-linejoin:round;paint-order:markers stroke fill;enable-background:accumulate;stop-color:#000000;stop-opacity:1" d="m 1553.8008,-15 c -30.518,0 -55.361,14.10685054 -69.916,32.472656 C 1469.3298,35.838462 1463.5,56.986571 1463.5,76 c 0,15.770248 2.1714,36.89014 16.1445,55.8125 13.9732,18.92236 39.5875,31.68568 73.0039,32.47266 a 25.0025,25.0025 0 0 0 0.5899,0.008 h 183.8828 a 25.0025,25.0025 0 0 0 22.8984,-35.03516 c -6.0482,-13.80297 -15.0229,-27.26793 -26.5918,-38.697263 a 25.0025,25.0025 0 0 0 18.3887,-23.228516 V 10 a 25.0025,25.0025 0 0 0 -25,-25 z m 0,50 h 148.0156 v 7.332031 h -148.0156 c -10.6098,0 -20.4237,6.173247 -25.3985,12.742188 -4.9747,6.568941 -7.0058,13.315364 -7.0058,20.925781 0,10.414583 6.3566,20.651606 13.7637,25.75391 7.407,5.1023 15.2283,6.57812 22.6816,6.57812 h 98.2891 c 10.0841,0 18.7972,2.25444 26.4218,5.96094 h -128.832 c -22.7951,-0.55573 -29.5429,-6.34157 -33.8555,-12.18164 C 1515.5454,96.261439 1513.5,86.398752 1513.5,76 c 0,-7.653571 3.258,-19.505212 9.5723,-27.472656 C 1529.3865,40.559899 1537.1937,35 1553.8008,35 Z" id="path36"/>
                <path style="baseline-shift:baseline;display:inline;overflow:visible;vector-effect:none;fill:#33cc66;stroke-linecap:round;stroke-linejoin:round;paint-order:markers stroke fill;enable-background:accumulate;stop-color:#000000;stop-opacity:1" d="m 1656.13,83.333 c -57.896,0 -90.883,0 -98.289,0 -7.406,0 -11.445,-3.333 -11.445,-7.333 0,-4 2.693,-8.667 7.405,-8.667 4.712,0 173.015,0 173.015,0 V 10 c 0,0 -125.89,0 -173.015,0 -47.125,0 -65.301,39.333 -65.301,66 0,26.169 8.434,61.966 64.738,63.292 h 183.883 c -13.01,-29.691 -40.613,-55.959 -80.991,-55.959 z" id="path37"/>
            </g>
            <path style="baseline-shift:baseline;display:inline;overflow:visible;vector-effect:none;fill:#33cc66;stroke-linecap:round;stroke-linejoin:round;paint-order:markers stroke fill;enable-background:accumulate;stop-color:#000000" d="m 1695.077,191 c 0,22 -20.868,38 -40.392,38 -19.524,0 -156.186,0 -156.186,0 v 58.667 c 0,0 95.597,0 159.551,0 63.955,0 97.616,-55.333 97.616,-96 0,-10.092 -1.951,-21.004 -5.766,-31.709 h -71.823 c 9.661,6.711 17,17.784 17,31.042 z" id="path39"/>
            <g id="polygon9" style="opacity:1" transform="translate(10,13.667)">
                <path style="baseline-shift:baseline;display:inline;overflow:visible;vector-effect:none;fill:#ffffff;stroke-linecap:round;stroke-linejoin:round;paint-order:markers stroke fill;enable-background:accumulate;stop-color:#000000;stop-opacity:1" d="m 167.46484,119.89258 a 25.0025,25.0025 0 0 0 -25,25 v 25.18554 a 25.0025,25.0025 0 0 0 14.89258,22.29102 v 32.06641 a 25.0025,25.0025 0 0 0 -14.89258,22.29101 v 27.60547 a 25.0025,25.0025 0 0 0 25,25 h 58.48438 a 25.0025,25.0025 0 0 0 8.49219,-2.27539 25.0025,25.0025 0 0 0 10.03515,2.27539 h 20.3418 a 25.0025,25.0025 0 0 0 9.81836,-2.04101 25.0025,25.0025 0 0 0 7.61914,2.04101 h 69.74609 a 25.0025,25.0025 0 0 0 25,-25 v -27.60547 a 25.0025,25.0025 0 0 0 -25,-25 h 9.07813 l -0.0332,-29.07226 a 25.0025,25.0025 0 0 0 15.95508,-22.57618 v -25.15625 a 25.0025,25.0025 0 0 0 -25,-24.99999 H 289.0332 a 25.0025,25.0025 0 0 0 -23.00195,15.20898 l -5.92383,13.91406 -6.72656,-14.60937 a 25.0025,25.0025 0 0 0 -22.70899,-14.54297 z m 39.84375,50 h 7.35157 l 4.00586,8.70117 a 25.0025,25.0025 0 0 0 -11.3086,-1.19531 v -7.32032 a 25.0025,25.0025 0 0 0 -0.0488,-0.18554 z m 98.25391,0.0293 h 5.50586 a 25.0025,25.0025 0 0 0 -0.0488,0.18555 l 0.0215,17.6836 a 25.0025,25.0025 0 0 0 -10.09375,-7.0293 z m -52.15039,64.1875 a 25.0025,25.0025 0 0 0 0.37305,0.17774 l -0.13477,0.33789 z" id="path40"/>
                <path style="baseline-shift:baseline;display:inline;overflow:visible;vector-effect:none;fill:#33cc66;stroke-linecap:round;stroke-linejoin:round;paint-order:markers stroke fill;enable-background:accumulate;stop-color:#000000;stop-opacity:1" d="m 167.465,274.333 h 58.485 v -27.607 h -15.257 v -45.407 l 33.784,73.014 h 20.342 l 27.972,-70.653 v 43.046 h -10.535 v 27.607 h 69.746 v -27.607 h -15.893 l -0.09,-76.647 h 15.983 v -25.157 h -62.969 l -28.028,65.841 -30.333,-65.871 h -63.207 v 25.187 h 14.893 v 76.647 h -14.893 z" id="path41"/>
            </g>
            <g id="polygon10" style="opacity:1" transform="translate(10,13.667)">
                <path style="baseline-shift:baseline;display:inline;overflow:visible;vector-effect:none;fill:#ffffff;stroke-linecap:round;stroke-linejoin:round;paint-order:markers stroke fill;enable-background:accumulate;stop-color:#000000;stop-opacity:1" d="m 0,119.89258 a 25.0025,25.0025 0 0 0 -25,25 v 27.24414 a 25.0025,25.0025 0 0 0 14.464844,22.17578 v 31.22852 A 25.0025,25.0025 0 0 0 -25,247.71875 v 26.39844 a 25.0025,25.0025 0 0 0 25,25 h 75.582031 a 25.0025,25.0025 0 0 0 24.999999,-25 v -20.88282 h 3.57031 a 25.0025,25.0025 0 0 0 25,-25 v -5.78515 h 22.01172 a 25.0025,25.0025 0 0 0 25,-25 v -52.55664 a 25.0025,25.0025 0 0 0 -25,-25 z m 39.464844,94.43945 a 25.0025,25.0025 0 0 0 0.183593,0.18359 25.0025,25.0025 0 0 0 -0.183593,0.18165 z" id="path42"/>
                <path style="baseline-shift:baseline;display:inline;overflow:visible;vector-effect:none;fill:#33cc66;stroke-linecap:round;stroke-linejoin:round;paint-order:markers stroke fill;enable-background:accumulate;stop-color:#000000;stop-opacity:1" d="m 0,144.892 v 27.244 h 14.465 v 75.582 H 0 v 26.399 H 75.582 V 247.762 H 60.077 v -19.528 h 44.075 V 201.473 H 60.755 V 172.18 h 54.246 v 25.27 h 36.164 v -52.558 z" id="path43"/>
            </g>
        </g>
    </g>
    <path style="baseline-shift:baseline;display:inline;overflow:visible;vector-effect:none;fill:#e60012;stroke:none;stroke-width:37.2256;stroke-linecap:round;stroke-linejoin:round;stroke-dasharray:none;stroke-opacity:1;paint-order:markers stroke fill;enable-background:accumulate;stop-color:#000000" d="m 550.36012,247.56233 h 42.8467 c 8.12263,0 15.70921,6.08266 16.11869,14.14201 h 0.39087 v -33.12336 h -59.35626 l -0.0298,-58.13898 h 57.27163 c 8.15613,0 15.75016,6.06033 16.17825,14.09734 h 0.37226 l -0.0558,-33.1457 -120.18293,0.0521 v 0.36481 c 8.09285,0.45043 14.16063,9.23568 14.16063,17.44393 v 152.30865 c 0,8.17847 -6.06778,17.00094 -14.16063,17.46626 v 0.35737 h 60.63682 v -0.35737 c -8.1003,-0.46532 -14.22019,-9.28779 -14.22019,-17.46626 z m 124.07674,41.28322 c 0,19.54345 15.89534,36.44388 35.51324,36.44388 19.59557,0 35.55048,-17.12378 35.55048,-36.67468 V 169.2545 c 0,-8.20825 -6.09012,-16.99722 -14.2053,-17.44765 v -0.35364 l 60.68149,-0.0596 v 0.41321 c -8.1003,0.45043 -14.23508,9.2394 -14.23508,17.44765 v 115.98388 c 0,37.32986 -30.18998,59.07707 -67.63152,59.07707 -37.50854,0 -68.02238,-21.74721 -68.02238,-59.07707 l 0.0782,-115.98388 c 0,-8.20825 -6.11989,-16.99722 -14.17552,-17.44765 v -0.41321 h 60.59588 v 0.41321 c -8.07796,0.4951 -14.17924,9.29151 -14.17924,17.44765 z M 1170.2412,181.83304 c -10.1625,-16.79248 -33.3653,-14.77113 -33.3653,-14.77113 -37.9515,0 -36.1572,29.59437 -36.1572,29.59437 0,0 -2.6095,14.84931 16.4574,24.9784 l 37.9441,20.6081 c 36.6263,20.09067 32.2821,48.64273 32.2821,48.64273 0,0 1.6565,53.33688 -74.9427,53.33688 0,0 -22.2572,0.69612 -34.858,-4.13205 l -10.7806,-34.54538 h 0.376 c 11.6702,17.19824 45.5716,19.68491 45.5716,19.68491 43.044,-1.93573 43.3418,-31.83535 43.3418,-31.83535 0,0 1.9357,-12.87635 -14.9163,-22.20137 l -37.7542,-20.6081 c -39.422,-21.53503 -34.9102,-50.53751 -34.9102,-50.53751 0,0 -0.9307,-52.47325 66.8386,-52.47325 0,0 30.4208,0.80036 35.2675,5.65458 v 28.60045 z M 874.57671,86.03661 a 37.151175,37.151175 0 0 0 26.33713,10.88105 c 20.62672,0 37.32614,-16.63985 37.32614,-37.20329 0,-20.50387 -16.69942,-37.17351 -37.32614,-37.17351 0,0 -28.73818,-2.71747 -41.67036,33.93861 l 0.0409,-27.51719 c 9.62655,-12.5562 24.52425,-21.68392 41.62942,-21.68392 29.103,0 52.65193,23.45586 52.65193,52.43601 0,28.9392 -23.54893,52.48069 -52.65193,52.48069 -14.54033,0 -27.68842,-5.84442 -37.1884,-15.37791 L 845.61514,76.52547 a 27.241713,27.241713 0 0 0 -19.27916,-7.9514 c -15.07638,0 -27.30499,12.15045 -27.30499,27.15982 0,15.06893 12.22489,27.24916 27.30499,27.24916 0,0 20.16885,2.69513 32.90746,-22.21998 l 0.0409,22.03385 a 42.720128,42.720128 0 0 1 -32.94467,15.4598 c -23.54521,0 -42.66057,-19.03718 -42.66057,-42.52283 0,-23.44098 19.11536,-42.43722 42.66057,-42.43722 11.72607,0 22.3726,4.7016 30.10808,12.44825 z m 9.701,82.8233 c 0,-8.2157 -6.09756,-16.63241 -14.18296,-17.05306 v -0.35737 h 60.54375 v 0.35737 c -8.03701,0.45787 -14.16435,8.88203 -14.16435,17.04934 v 152.63623 c 0,8.18964 6.12734,17.00839 14.16435,17.49604 v 0.34992 h -60.54375 v -0.34992 c 8.0854,-0.48765 14.18296,-9.3064 14.18296,-17.49604 z m -38.01853,0.39831 c 0,-8.20825 6.08267,-16.99722 14.17552,-17.44765 v -0.36481 h -60.64055 v 0.36481 c 8.11519,0.45043 14.1718,9.2394 14.1718,17.44765 l 0.0521,190.81112 c 0,0 -0.68123,33.69291 -27.15609,53.08374 l 0.067,0.36853 c 5.22275,-0.8748 59.37487,-11.11929 59.37487,-64.74653 z" id="path6"/>
</svg>
