<?xml version='1.0' encoding='utf-8'?>
<svg xmlns="http://www.w3.org/2000/svg" height="67.54944969996812" width="600" version="1.1" id="svg8" viewBox="0 0 608.51532 68.508125">
    <defs id="defs8"/>
    <g id="path9" style="opacity:1">
        <path style="baseline-shift:baseline;display:inline;overflow:visible;vector-effect:none;fill:#ffffff;stroke-linecap:round;stroke-linejoin:round;paint-order:markers stroke fill;enable-background:accumulate;stop-color:#000000;stop-opacity:1" d="m 142.47461,1.1953125 a 6.50065,6.50065 0 0 0 -5.03711,2.390625 L 104.82031,43.564453 a 6.50065,6.50065 0 0 0 -0.0723,0.08789 c -1.59429,2.025264 -2.92426,3.027078 -3.01953,3.078125 -0.0856,0.04547 -0.99991,0.38319 -2.818364,0.33789 a 6.50065,6.50065 0 0 0 -0.162109,-0.002 h -4.039063 a 6.50065,6.50065 0 0 0 -6.259765,4.751953 l -2.023438,7.246094 a 6.50065,6.50065 0 0 0 6.259766,8.248047 h 38.355473 a 6.50065,6.50065 0 0 0 5.77148,-4.033203 6.50065,6.50065 0 0 0 5.45703,4.033203 h 47.94531 a 6.50065,6.50065 0 0 0 6.25977,-4.75 L 198.5,55.314453 a 6.50065,6.50065 0 0 0 -6.25977,-8.248047 h -4.16406 a 6.50065,6.50065 0 0 0 -0.0293,0 c -0.45018,0.0019 -0.89706,-0.05593 -1.3457,-0.08984 -0.0707,-0.228162 -0.14456,-0.336341 -0.20703,-0.634765 a 6.50065,6.50065 0 0 0 0,-0.0039 L 178.10742,6.3613281 a 6.50065,6.50065 0 0 0 -6.36133,-5.1660156 z m 9.36133,13.0000005 h 14.63086 l 7.30468,34.812499 c 0.35362,1.687797 0.8869,3.320088 1.67383,4.859375 a 6.50065,6.50065 0 0 0 0,0.0039 c 0.0751,0.146696 0.18188,0.294472 0.25781,0.441406 h -14.07031 c 0.12594,-0.285684 0.26771,-0.564644 0.35156,-0.861328 0.40234,-1.359725 0.45703,-2.585602 0.3379,-3.554688 a 6.50065,6.50065 0 0 0 -0.002,-0.01172 c -0.14333,-1.146678 -0.33733,-1.945063 -0.68945,-3.580079 a 6.50065,6.50065 0 0 0 -0.0312,-0.140625 l -0.98828,-4.140625 A 6.50065,6.50065 0 0 0 158.38086,38.53125 6.50065,6.50065 0 0 0 159.125,35.199219 L 154.91992,17.28125 a 6.50065,6.50065 0 0 0 -3.08398,-3.085937 z m -24.32813,22.124999 a 6.50065,6.50065 0 0 0 -0.0566,1.181641 6.50065,6.50065 0 0 0 -1.49414,0.71875 z m -11.45117,13.333985 c -0.0392,0.126693 -0.0124,0.330004 -0.0449,0.46875 -0.0306,0.164114 -0.0798,0.228543 -0.10547,0.416015 l 0.0762,-0.09375 c -0.21799,1.157904 -0.10584,2.489894 0.31641,3.867188 h -3.6582 c 0.77816,-0.829951 1.55177,-1.640364 2.32226,-2.619141 l 0.91016,-1.113281 z m 22.26172,0.378906 h 0.92969 a 6.50065,6.50065 0 0 0 -0.72657,1.068359 6.50065,6.50065 0 0 0 -0.20312,-1.068359 z" id="path10"/>
        <path style="baseline-shift:baseline;display:inline;overflow:visible;vector-effect:none;fill:#cdc112;stroke-linecap:round;stroke-linejoin:round;paint-order:markers stroke fill;enable-background:accumulate;stop-color:#000000;stop-opacity:1" d="M 142.4744,7.6950394 109.8564,47.67304 c -1.894,2.406 -3.587,4.005 -5.078,4.798 -1.492,0.793 -3.502,1.158 -6.030998,1.095 H 94.7094 l -2.024,7.247 h 38.355 l 2.025,-7.247 h -5.425 c -2.126,0.007 -3.608,-0.146 -4.446,-0.458 -0.838,-0.311 -1.148,-0.822 -0.928,-1.533 0.018,-0.197 0.176,-0.499 0.474,-0.905 0.297,-0.407 1.092,-1.406 2.382,-2.997 l 3.302,-4.14 h 25.865 l 0.988,4.14 c 0.342,1.588 0.54,2.593 0.593,3.017 0.052,0.423 0.023,0.771 -0.087,1.045 -0.152,0.738 -0.684,1.232 -1.598,1.483 -0.913,0.25 -2.57,0.367 -4.97,0.348 h -4.92 l -2.026,7.247 h 47.945 l 2.025,-7.247 h -4.164 a 23.432,23.432 0 0 1 -3.298,-0.219 c -0.978,-0.142 -1.697,-0.335 -2.157,-0.577 -0.448,-0.307 -0.91,-0.927 -1.388,-1.861 -0.478,-0.935 -0.844,-2.013 -1.1,-3.236 l -8.387,-39.9780006 z m 10.322,28.9880006 h -19.052 l 14.848,-17.918 z" id="path11"/>
    </g>
    <g id="path1" style="opacity:1">
        <path style="baseline-shift:baseline;display:inline;overflow:visible;vector-effect:none;fill:#ffffff;stroke-linecap:round;stroke-linejoin:round;paint-order:markers stroke fill;enable-background:accumulate;stop-color:#000000;stop-opacity:1" d="M 57.822266,0.00195313 C 43.9331,0.12517631 31.745134,2.8522857 21.558594,8.4765625 11.378888,14.098308 4.1460593,22.334358 1.0957031,32.507812 a 6.50065,6.50065 0 0 0 -0.046875,0.160157 c -1.59122998,5.847677 -1.42669389,11.851874 0.8671875,17.142578 2.2775153,5.25504 6.4532429,9.503506 11.7285154,12.509765 a 6.50065,6.50065 0 0 0 0.05469,0.0293 c 7.907892,4.408366 18.101745,6.172965 30.699218,6.158203 5.9498,0.0066 11.296495,-0.466588 16.091797,-1.5 a 6.50065,6.50065 0 0 0 0.002,0 c 2.190759,-0.472638 4.252333,-1.1129 6.236329,-1.851562 a 6.50065,6.50065 0 0 0 4.492187,2.158203 H 82.324219 A 6.50065,6.50065 0 0 0 88.583984,62.5625 l 3.646485,-13.054688 c 0.501342,-1.705688 0.628272,-2.032869 0.865234,-2.736328 0.457218,-0.0374 0.734498,-0.08398 1.550781,-0.08398 h 3.785157 a 6.50065,6.50065 0 0 0 6.261719,-4.751953 l 2.02344,-7.246094 a 6.50065,6.50065 0 0 0 -6.25977,-8.25 h -3.80078 l 4.75,-16.9960936 A 6.50065,6.50065 0 0 0 95.144531,1.1953125 H 82.023437 A 6.50065,6.50065 0 0 0 77.775391,3.3066406 C 76.245298,2.5517961 74.675256,1.850704 72.976562,1.4179687 68.812986,0.35525175 63.900065,-0.02232162 57.853516,0.00195313 a 6.50065,6.50065 0 0 0 -0.03125,0 z M 85.253906,14.195313 h 1.326172 l -2.019531,7.228515 h -1.648438 c -0.0038,-0.02348 -4.1e-5,-0.04681 -0.0039,-0.07031 -0.241554,-1.468911 -0.791114,-2.86053 -1.472656,-4.181641 a 6.50065,6.50065 0 0 0 2.570312,-1.330078 z m -5.40625,0.40625 0.126953,0.162109 c -0.01817,-0.02402 -0.04615,-0.03667 -0.06445,-0.06055 -0.02454,-0.0309 -0.03774,-0.07089 -0.0625,-0.101562 z m -40.394531,0.769531 c -5.103093,4.443753 -8.725133,10.5102 -10.761719,17.71289 -1.279107,4.510439 -1.751024,8.787878 -0.798828,12.914063 a 6.50065,6.50065 0 0 0 0,0.002 c 0.76742,3.321272 2.606455,6.319803 5.046875,8.708984 -5.462004,-0.765575 -9.860787,-2.023851 -12.882812,-3.703125 -3.361375,-1.922057 -5.17359,-3.966703 -6.212891,-6.365234 a 6.50065,6.50065 0 0 0 0,-0.002 c -1.020711,-2.35421 -1.222348,-4.905235 -0.259766,-8.490235 2.045991,-6.735609 6.389163,-11.947504 14.257813,-16.292968 3.450222,-1.904965 7.363041,-3.358761 11.611328,-4.484375 z m 22.121094,5.197265 c 2.623876,0.0096 4.627378,0.355048 5.988281,0.833985 1.384908,0.487384 1.855305,0.954974 2.042969,1.203125 a 6.50065,6.50065 0 0 0 0.126953,0.162109 c 0.282189,0.349494 0.310216,0.467634 0.347656,0.695313 0.03965,0.241136 0.002,1.551101 -0.125,2.976562 H 54.53125 a 6.50065,6.50065 0 0 0 -6.259766,4.751953 l -2.02539,7.246094 a 6.50065,6.50065 0 0 0 6.259765,8.25 h 3.21875 c -0.04833,0.214398 -0.0015,0.29737 -0.376953,0.492187 a 6.50065,6.50065 0 0 0 -0.0039,0.002 c -0.498,0.258774 -2.268597,0.767994 -5.160156,0.759765 a 6.50065,6.50065 0 0 0 -0.01563,0 c -1.835451,-7.83e-4 -3.377087,-0.217348 -4.658203,-0.580078 -1.265214,-0.358227 -2.160973,-0.822676 -2.857422,-1.353516 a 6.50065,6.50065 0 0 0 -0.02344,-0.01758 c -1.380642,-1.042868 -1.808078,-1.789356 -2.068359,-2.914062 -0.25937,-1.123936 -0.254903,-3.299924 0.638672,-6.449219 a 6.50065,6.50065 0 0 0 0.002,-0.0059 c 1.624746,-5.746156 4.107586,-9.508902 7.40625,-12.085938 a 6.50065,6.50065 0 0 0 0.002,-0.002 c 3.289733,-2.570626 7.321352,-3.939515 12.964844,-3.964844 z m 24.601562,14.699219 c -0.104367,0.04936 -0.167905,0.14755 -0.269531,0.201172 -0.243232,0.143724 -0.46329,0.196279 -0.714844,0.375 z M 69.316406,39.439453 H 82.03125 c -0.07569,0.145196 -0.221855,0.284023 -0.287109,0.427734 -5.42e-4,0.0012 -0.0014,0.0027 -0.002,0.0039 -0.788115,1.735203 -1.159766,3.165186 -1.984375,5.970703 a 6.50065,6.50065 0 0 0 -0.02344,0.08398 l -2.34375,8.388672 h -1.318359 l 0.08008,0.269531 a 6.50065,6.50065 0 0 0 -8.09375,-3.802734 c 0.09938,-0.285053 0.25338,-0.554552 0.332031,-0.84375 l 0.144531,-0.513672 a 6.50065,6.50065 0 0 0 0.02344,-0.08789 c 0.743256,-2.807513 1.156744,-4.05089 1.373047,-6.09375 a 6.50065,6.50065 0 0 0 0.002,-0.01172 c 0.103687,-0.994524 -0.09754,-2.409224 -0.617188,-3.791016 z" id="path12"/>
        <path style="baseline-shift:baseline;display:inline;overflow:visible;vector-effect:none;fill:#cdc112;stroke-linecap:round;stroke-linejoin:round;paint-order:markers stroke fill;enable-background:accumulate;stop-color:#000000;stop-opacity:1" d="m 95.1454,7.6950394 h -13.122 l -3.198,4.2210006 c -1.703,-1.9680001 -4.187,-3.3680005 -7.453,-4.2000006 -3.266,-0.8339999 -7.763,-1.2379999 -13.492,-1.215 -13.075,0.116 -24.135,2.6710005 -33.18,7.6650006 -9.043,4.994 -14.8370003,11.73 -17.3790003,20.208 -1.289,4.737 -1.103,9.02 0.558,12.851 1.66,3.831 4.6550003,6.98 8.9840003,9.447 6.404,3.57 15.58,5.35 27.528,5.336 5.602,0.007 10.512,-0.445 14.73,-1.354 4.218,-0.91 7.818,-2.316 10.8,-4.22 l 1.3,4.38 h 11.103 l 3.67,-13.14 c 0.803,-2.732 1.358,-4.437 1.667,-5.117 0.308,-0.68 0.74,-1.152 1.294,-1.414 0.449,-0.319 1.12,-0.557 2.014,-0.717 0.893,-0.159 2.12,-0.239 3.678,-0.239 h 3.785002 l 2.024998,-7.247 h -45.926 l -2.025,7.247 h 5.3 c 1.56,-0.005 2.744,0.065 3.553,0.21 0.808,0.144 1.343,0.393 1.605,0.746 0.407,0.262 0.575,0.733 0.504,1.414 -0.072,0.68 -0.47,2.385 -1.193,5.116 l -0.156,0.558 c -0.582,2.14 -1.842,3.713 -3.779,4.718 -1.936,1.006 -4.662,1.503 -8.176,1.493 -2.344,-10e-4 -4.486,-0.277 -6.425,-0.826 -1.939,-0.549 -3.615,-1.362 -5.028,-2.439 -2.383,-1.8 -3.878,-4.013 -4.485,-6.64 -0.606,-2.626 -0.367,-5.854 0.72,-9.685 1.91,-6.755 5.13,-11.901 9.66,-15.44 4.529,-3.539 10.184,-5.32 16.964,-5.346 3.173,0.009 5.89,0.41 8.149,1.205 2.259,0.795 3.95,1.933 5.07,3.414 0.914,1.132 1.482,2.373 1.704,3.723 0.222,1.35 0.182,3.19 -0.12,5.515 h 13.12 z" id="path13"/>
    </g>
    <g id="path2" style="opacity:1">
        <path style="baseline-shift:baseline;display:inline;overflow:visible;vector-effect:none;fill:#ffffff;stroke-linecap:round;stroke-linejoin:round;paint-order:markers stroke fill;enable-background:accumulate;stop-color:#000000;stop-opacity:1" d="m 206.74414,1.1953125 a 6.50065,6.50065 0 0 0 -6.26172,4.75 l -2.02344,7.2480465 a 6.50065,6.50065 0 0 0 6.25977,8.248047 h 5.06055 l -6.38477,22.857422 -0.01,0.0332 c -0.48373,1.632185 -0.61809,1.987463 -0.8418,2.650391 -0.4556,0.03743 -0.73166,0.08398 -1.54883,0.08398 h -7.06641 a 6.50065,6.50065 0 0 0 -6.25976,4.751953 l -2.02539,7.246094 a 6.50065,6.50065 0 0 0 6.26172,8.248047 h 38.73242 a 6.50065,6.50065 0 0 0 4.30664,-1.876953 6.50065,6.50065 0 0 0 4.40039,1.876953 h 19.80859 a 6.50065,6.50065 0 0 0 4.14844,-2.136719 6.50065,6.50065 0 0 0 4.30469,2.136719 h 49.08008 a 6.50065,6.50065 0 0 0 6.25976,-4.751953 l 2.02539,-7.246094 a 6.50065,6.50065 0 0 0 -6.26172,-8.248047 h -5.06054 l 6.38476,-22.855469 0.01,-0.0332 c 0.4852,-1.636864 0.61212,-1.970378 0.8418,-2.652343 0.45737,-0.03737 0.73505,-0.08398 1.55078,-0.08398 H 329.5 a 6.50065,6.50065 0 0 0 6.25977,-4.75 l 2.02539,-7.2480466 a 6.50065,6.50065 0 0 0 -6.25977,-8.2480469 h -49.08008 a 6.50065,6.50065 0 0 0 -5.33984,2.7929688 L 264.31445,22.419922 262.26758,6.8476562 a 6.50065,6.50065 0 0 0 -6.44336,-5.6523437 z m 107.21875,8.8261715 c -0.10523,0.04977 -0.16905,0.149026 -0.27148,0.203125 -0.24084,0.142224 -0.46034,0.194833 -0.70899,0.371094 z m -93.50781,0.40625 1.4414,1.261719 c -0.21951,-0.258397 -0.41314,-0.277917 -0.6289,-0.488281 -0.27311,-0.257644 -0.4913,-0.567176 -0.8125,-0.773438 z m 2.83789,3.767579 h 2.98047 a 6.50065,6.50065 0 0 0 -0.31055,0.351562 l -8.32031,29.785156 a 6.50065,6.50065 0 0 0 -0.0234,0.08398 c -0.74343,2.807153 -1.15681,4.053507 -1.37305,6.095703 a 6.50065,6.50065 0 0 0 -0.002,0.0098 c -0.10394,0.995515 0.0944,2.409747 0.61328,3.791016 h -3.26562 c 0.0877,-0.165823 0.24537,-0.321287 0.32031,-0.486328 l 0.002,-0.0039 c 0.78019,-1.717744 1.15368,-3.142985 1.9668,-5.908204 a 6.50065,6.50065 0 0 0 0.0254,-0.08398 l 6.60742,-23.652344 a 6.50065,6.50065 0 0 0 0.0234,-0.08594 c 0.74326,-2.807514 1.15674,-4.052844 1.37305,-6.095703 0.10534,-0.996393 -0.0961,-2.415709 -0.61719,-3.800781 z m 14.59765,0 h 12.23047 l 3.49414,26.599609 a 6.50065,6.50065 0 0 0 8.15039,5.154297 l -5.96289,8.363281 h -10.91601 l -6.24414,-39.042969 a 6.50065,6.50065 0 0 0 -0.75196,-1.074218 z m 58.50586,0 h 13.42383 c -0.0769,0.147526 -0.22494,0.289682 -0.29101,0.435546 -0.78815,1.735992 -1.15855,3.161911 -1.98243,5.962891 a 6.50065,6.50065 0 0 0 -0.0254,0.08594 l -6.60742,23.652344 a 6.50065,6.50065 0 0 0 -0.0234,0.08594 c -0.73272,2.769312 -1.14174,4.016627 -1.35546,6.035156 -0.11046,1.044712 0.0668,2.46932 0.58203,3.859375 h -13.58008 c 0.0765,-0.14687 0.22323,-0.288256 0.28906,-0.433594 0.78081,-1.723861 1.15708,-3.156929 1.98242,-5.96289 a 6.50065,6.50065 0 0 0 0.0234,-0.08594 l 8.32031,-29.785156 a 6.50065,6.50065 0 0 0 -0.75586,-3.849609 z m -65.90234,32.445312 0.0684,0.425781 h -0.1875 z m -12.22852,10.185547 c 0.21811,0.255931 0.41066,0.275709 0.625,0.484375 0.27084,0.2547 0.48633,0.560687 0.80469,0.765625 z m 83.27344,0 c 0.15038,0.176459 0.28293,0.180395 0.43164,0.333984 0.20187,0.202337 0.34955,0.449633 0.58008,0.625 z m -91.09765,1.089844 -0.69532,0.429687 c 0.0928,-0.04953 0.15153,-0.140406 0.24219,-0.193359 0.15565,-0.09832 0.29421,-0.12378 0.45313,-0.236328 z m 72.92773,0 -0.97852,0.570312 c 0.10304,-0.04873 0.16527,-0.146334 0.26563,-0.199219 0.24185,-0.14261 0.46314,-0.194209 0.71289,-0.371093 z" id="path14"/>
        <path style="baseline-shift:baseline;display:inline;overflow:visible;vector-effect:none;fill:#cdc112;stroke-linecap:round;stroke-linejoin:round;paint-order:markers stroke fill;enable-background:accumulate;stop-color:#000000;stop-opacity:1" d="m 290.8924,16.29704 -8.32,29.784 c -0.803,2.73 -1.359,4.436 -1.667,5.116 -0.308,0.68 -0.74,1.152 -1.294,1.414 -0.449,0.318 -1.12,0.557 -2.014,0.716 -0.893,0.16 -2.12,0.24 -3.678,0.24 h -4.29 l -2.024,7.246 h 49.08 l 2.024,-7.247 h -7.065 c -1.559,0 -2.74,-0.08 -3.545,-0.239 -0.805,-0.159 -1.342,-0.398 -1.613,-0.716 -0.397,-0.302 -0.56,-0.793 -0.488,-1.474 0.072,-0.68 0.464,-2.365 1.176,-5.056 l 6.608,-23.653 c 0.803,-2.73 1.358,-4.436 1.667,-5.116 0.308,-0.68 0.739,-1.152 1.293,-1.414 0.45,-0.319 1.12,-0.557 2.014,-0.717 0.894,-0.159 2.12,-0.239 3.679,-0.239 h 7.065 l 2.025,-7.2470005 h -49.08 L 260.0604,39.94804 255.8234,7.6950394 h -49.08 l -2.025,7.2470006 h 7.066 c 1.558,0 2.74,0.08 3.545,0.24 0.804,0.159 1.342,0.397 1.613,0.716 0.408,0.262 0.576,0.733 0.504,1.414 -0.072,0.68 -0.47,2.385 -1.193,5.116 l -6.608,23.653 c -0.791,2.69 -1.341,4.376 -1.65,5.056 -0.308,0.68 -0.744,1.172 -1.31,1.474 -0.449,0.318 -1.12,0.557 -2.014,0.716 -0.893,0.16 -2.12,0.24 -3.678,0.24 h -7.066 l -2.024,7.246 h 38.734 l 2.024,-7.247 h -4.29 c -1.558,0 -2.74,-0.08 -3.544,-0.239 -0.805,-0.159 -1.343,-0.398 -1.614,-0.716 -0.407,-0.262 -0.575,-0.734 -0.504,-1.414 0.072,-0.68 0.47,-2.386 1.193,-5.116 l 8.321,-29.785 7.12,44.517 h 19.808 z" id="path15"/>
    </g>
    <g id="path8" style="opacity:1">
        <path style="baseline-shift:baseline;display:inline;overflow:visible;vector-effect:none;fill:#ffffff;stroke-linecap:round;stroke-linejoin:round;paint-order:markers stroke fill;enable-background:accumulate;stop-color:#000000;stop-opacity:1" d="M 503.31836,0.93554688 432.78125,1.1953125 a 6.50065,6.50065 0 0 0 -5.57422,3.1972656 L 417.12305,21.482422 a 6.50065,6.50065 0 0 0 3.74609,9.533203 l 12.16797,3.615234 a 6.50065,6.50065 0 0 0 8.13476,-4.566406 c 0.92103,-3.479673 2.25692,-5.258292 4.16797,-6.515625 a 6.50065,6.50065 0 0 0 0,-0.002 c 0.1957,-0.128789 0.55383,-0.193789 0.77344,-0.314453 l -5.88281,21.050781 c -0.49322,1.67113 -0.6187,2.001745 -0.85352,2.699219 -0.45576,0.03751 -0.73261,0.08398 -1.55078,0.08398 h -7.0664 A 6.50065,6.50065 0 0 0 424.5,51.818359 l -2.02539,7.246094 a 6.50065,6.50065 0 0 0 6.25976,8.248047 h 52.35938 a 6.50065,6.50065 0 0 0 6.25977,-4.75 l 2.02734,-7.246094 a 6.50065,6.50065 0 0 0 -6.25977,-8.25 h -5.0625 l 7.08594,-25.365234 c 1.79309,0.270717 2.87074,0.666462 2.82227,0.615234 -0.0697,-0.07453 0.33883,-0.19069 -0.39063,2.431641 l -0.53125,1.904297 a 6.50065,6.50065 0 0 0 7.3125,8.162109 l 13.80469,-2.267578 a 6.50065,6.50065 0 0 0 5.31836,-7.697266 L 509.71484,6.1523437 A 6.50065,6.50065 0 0 0 503.31836,0.93554688 Z M 497.79297,13.955078 h 0.23242 l 0.0996,0.498047 c -0.12111,-0.160997 -0.2015,-0.342119 -0.33203,-0.498047 z m -24.00781,0.08984 -8.46094,30.287109 a 6.50065,6.50065 0 0 0 -0.0215,0.08203 c -0.74424,2.806319 -1.15995,4.047213 -1.375,6.103516 -0.1046,0.997133 0.0957,2.412448 0.61524,3.794922 h -14.09961 c 0.0751,-0.144149 0.2204,-0.283279 0.28516,-0.425781 a 6.50065,6.50065 0 0 0 0.004,-0.0078 c 0.78299,-1.728678 1.15554,-3.158331 1.98047,-5.96289 a 6.50065,6.50065 0 0 0 0.0254,-0.08594 l 8.69922,-31.138672 a 6.50065,6.50065 0 0 0 -0.48438,-2.599609 z m -7.83594,42.78125 c 0.21978,0.257902 0.41298,0.278364 0.6289,0.488281 0.27133,0.25494 0.48784,0.560902 0.80665,0.765625 z m -18.67969,1.09375 -0.97266,0.566406 c 0.10147,-0.04799 0.16287,-0.143302 0.26172,-0.195312 0.24129,-0.141982 0.46215,-0.195278 0.71094,-0.371094 z" id="path16"/>
        <path style="baseline-shift:baseline;display:inline;overflow:visible;vector-effect:none;fill:#cdc112;stroke-linecap:round;stroke-linejoin:round;paint-order:markers stroke fill;enable-background:accumulate;stop-color:#000000;stop-opacity:1" d="m 432.8044,7.6950395 -10.083,17.0900005 12.167,3.616 c 1.23,-4.647 3.523,-8.075 6.879,-10.283 3.355,-2.208 7.825,-3.267 13.41,-3.176 l -8.7,31.139 c -0.803,2.73 -1.358,4.436 -1.666,5.116 -0.309,0.68 -0.74,1.152 -1.294,1.414 -0.45,0.318 -1.12,0.557 -2.014,0.716 -0.894,0.16 -2.12,0.24 -3.678,0.24 h -7.066 l -2.025,7.246 h 52.36 l 2.026,-7.247 h -7.066 c -1.559,0 -2.74,-0.08 -3.545,-0.239 -0.804,-0.159 -1.342,-0.398 -1.613,-0.716 -0.408,-0.262 -0.576,-0.734 -0.504,-1.414 0.071,-0.68 0.469,-2.386 1.193,-5.116 l 8.699,-31.139 h 2.65 c 4.672,0.004 7.924,0.973 9.754,2.907 1.83,1.935 2.214,4.815 1.15,8.64 l -0.534,1.912 13.804,-2.268 -3.766,-18.6970005 z" id="path17"/>
    </g>
    <g id="path3" style="opacity:1">
        <path style="baseline-shift:baseline;display:inline;overflow:visible;vector-effect:none;fill:#ffffff;stroke-linecap:round;stroke-linejoin:round;paint-order:markers stroke fill;enable-background:accumulate;stop-color:#000000;stop-opacity:1" d="m 368.20312,1.1953125 a 6.50065,6.50065 0 0 0 -5.0371,2.390625 L 330.54883,43.564453 a 6.50065,6.50065 0 0 0 -0.0703,0.08594 c -1.59748,2.028245 -2.93065,3.030758 -3.02344,3.080078 a 6.50065,6.50065 0 0 0 -0.002,0.002 c -0.079,0.04204 -0.99604,0.381236 -2.81445,0.335937 a 6.50065,6.50065 0 0 0 -0.16211,-0.002 h -4.03906 a 6.50065,6.50065 0 0 0 -6.25977,4.75 l -2.02539,7.248047 a 6.50065,6.50065 0 0 0 6.26172,8.248047 h 38.35547 a 6.50065,6.50065 0 0 0 5.77149,-4.033203 6.50065,6.50065 0 0 0 5.45703,4.033203 h 47.94531 a 6.50065,6.50065 0 0 0 6.25976,-4.751953 l 2.0254,-7.246094 a 6.50065,6.50065 0 0 0 -6.26172,-8.248047 h -4.16211 a 6.50065,6.50065 0 0 0 -0.0274,0 c -0.44981,0.0019 -0.89743,-0.05599 -1.3457,-0.08984 -0.0701,-0.226734 -0.14568,-0.336637 -0.20703,-0.630859 a 6.50065,6.50065 0 0 0 -0.002,-0.0078 L 403.83594,6.3613281 a 6.50065,6.50065 0 0 0 -6.36133,-5.1660156 z m 9.35938,13.0000005 h 14.63477 L 399.49805,49 c 1.2e-4,6.09e-4 -1.3e-4,0.0013 0,0.002 l 0.002,0.0059 c 0.3536,1.692955 0.88839,3.323544 1.66992,4.855469 a 6.50065,6.50065 0 0 0 0.004,0.0078 c 0.0752,0.146878 0.18177,0.294375 0.25781,0.441406 h -14.07227 c 0.12982,-0.294621 0.27618,-0.582136 0.36133,-0.888672 0.38785,-1.330258 0.45142,-2.547647 0.32813,-3.535156 -0.1435,-1.165735 -0.33633,-1.953418 -0.6875,-3.583985 a 6.50065,6.50065 0 0 0 -0.0332,-0.140625 l -0.98632,-4.140625 a 6.50065,6.50065 0 0 0 -2.23243,-3.492187 6.50065,6.50065 0 0 0 0.74415,-3.333984 l -4.20704,-17.917969 a 6.50065,6.50065 0 0 0 -3.08398,-3.083984 z m -24.32617,22.124999 a 6.50065,6.50065 0 0 0 -0.0547,1.181641 6.50065,6.50065 0 0 0 -1.49805,0.720703 z m -11.45117,13.333985 c -0.0382,0.123513 -0.0111,0.322044 -0.043,0.457031 -0.0324,0.170438 -0.0843,0.235985 -0.11133,0.431641 l 0.0801,-0.09766 c -0.218,1.157978 -0.10397,2.489829 0.31836,3.867188 h -3.66016 c 0.77736,-0.829097 1.55061,-1.638056 2.32031,-2.615234 l 0.91016,-1.115235 z m 22.26367,0.378906 h 0.92773 a 6.50065,6.50065 0 0 0 -0.72461,1.066406 6.50065,6.50065 0 0 0 -0.20312,-1.066406 z" id="path18"/>
        <path style="baseline-shift:baseline;display:inline;overflow:visible;vector-effect:none;fill:#cdc112;stroke-linecap:round;stroke-linejoin:round;paint-order:markers stroke fill;enable-background:accumulate;stop-color:#000000;stop-opacity:1" d="M 368.2024,7.6950394 335.5854,47.67304 c -1.895,2.406 -3.587,4.005 -5.079,4.798 -1.49,0.793 -3.501,1.158 -6.03,1.095 h -4.038 l -2.025,7.247 h 38.356 l 2.025,-7.247 h -5.426 c -2.125,0.007 -3.607,-0.146 -4.445,-0.458 -0.838,-0.311 -1.148,-0.822 -0.928,-1.533 0.019,-0.197 0.176,-0.499 0.474,-0.905 0.297,-0.407 1.091,-1.406 2.382,-2.997 l 3.302,-4.14 h 25.865 l 0.988,4.14 c 0.342,1.588 0.54,2.593 0.592,3.017 0.053,0.423 0.022,0.771 -0.087,1.045 -0.15,0.738 -0.683,1.232 -1.597,1.483 -0.914,0.25 -2.57,0.367 -4.97,0.348 h -4.921 l -2.025,7.247 h 47.945 l 2.024,-7.247 h -4.163 a 23.432,23.432 0 0 1 -3.298,-0.219 c -0.978,-0.142 -1.697,-0.335 -2.157,-0.577 -0.448,-0.307 -0.911,-0.927 -1.389,-1.861 -0.477,-0.935 -0.844,-2.013 -1.099,-3.236 l -8.387,-39.9780006 z m 10.323,28.9880006 h -19.053 l 14.847,-17.918 z" id="path19"/>
    </g>
    <g id="path4" style="opacity:1">
        <path style="baseline-shift:baseline;display:inline;overflow:visible;vector-effect:none;fill:#ffffff;stroke-linecap:round;stroke-linejoin:round;paint-order:markers stroke fill;enable-background:accumulate;stop-color:#000000;stop-opacity:1" d="M 516.00977,1.1953125 A 6.50065,6.50065 0 0 0 509.75,5.9472656 l -2.02344,7.2460934 a 6.50065,6.50065 0 0 0 6.25977,8.248047 h 5.0625 l -6.38672,22.857422 -0.01,0.0332 c -0.48282,1.630963 -0.60892,1.965071 -0.83984,2.650391 -0.45562,0.03748 -0.73258,0.08398 -1.55078,0.08398 h -7.06641 a 6.50065,6.50065 0 0 0 -6.25976,4.751953 l -2.02539,7.246094 a 6.50065,6.50065 0 0 0 6.26171,8.248047 h 83.63868 a 6.50065,6.50065 0 0 0 5.33398,-2.785156 L 603.31055,45.628906 A 6.50065,6.50065 0 0 0 599.0293,35.498047 l -9.04688,-1.484375 12.83399,-1.59375 a 6.50065,6.50065 0 0 0 5.64453,-7.285156 L 606.0957,6.8613281 a 6.50065,6.50065 0 0 0 -6.44531,-5.6660156 z m 61.11914,7.6484375 0.10351,0.017578 c -0.0219,-0.00388 -0.0464,-0.00206 -0.0684,-0.00586 -0.0124,-0.00201 -0.0227,-0.00972 -0.0351,-0.011719 z m -47.40625,1.583984 1.4414,1.261719 c -0.21951,-0.258397 -0.41314,-0.277917 -0.6289,-0.488281 -0.27311,-0.257644 -0.4913,-0.567176 -0.8125,-0.773438 z m 2.83984,3.767579 h 13.11523 L 541.75,28.244141 a 6.50065,6.50065 0 0 0 0.67578,3.550781 6.50065,6.50065 0 0 0 -2.65625,3.537109 l -4.60547,16.486328 a 6.50065,6.50065 0 0 0 0.47461,2.494141 h -12.75976 c 0.0765,-0.14687 0.22323,-0.288256 0.28906,-0.433594 0.78081,-1.723861 1.15784,-3.157984 1.98242,-5.964844 a 6.50065,6.50065 0 0 0 0.0234,-0.08398 l 6.60742,-23.652344 a 6.50065,6.50065 0 0 0 0.0234,-0.08594 c 0.74325,-2.807514 1.15674,-4.052844 1.37304,-6.095703 0.10535,-0.996391 -0.0941,-2.415712 -0.61523,-3.800781 z m 55.08203,0 h 6.29297 l 0.79297,6.126953 -4.1875,0.519531 c -0.4223,-2.286256 -1.27328,-4.531871 -2.6836,-6.396484 a 6.50065,6.50065 0 0 0 -0.14062,-0.179688 c -0.0222,-0.02725 -0.0519,-0.04332 -0.0742,-0.07031 z m -30.49609,7.246093 h 0.3164 c -0.064,0.17619 -0.24071,0.735643 -0.23632,0.726563 a 6.50065,6.50065 0 0 0 -0.006,0.01172 c -0.0855,0.17772 -0.11338,0.175086 -0.0195,0.07617 a 6.50065,6.50065 0 0 0 -0.24414,0.271485 c -0.0146,0.01721 -0.11702,0.055 -0.13476,0.07422 z m 9.73047,9.488281 -0.24414,0.273438 c 0.0428,-0.04516 0.0576,-0.102819 0.0996,-0.148438 0.0423,-0.04851 0.10288,-0.07582 0.14454,-0.125 z m -1.18555,1.035157 -1.6543,5.923828 c -0.48014,-1.255021 -1.16292,-2.394441 -2.08984,-3.38086 1.36886,-0.649941 2.61715,-1.494126 3.74414,-2.542968 z m 13.32617,0.611328 a 6.50065,6.50065 0 0 0 1.04492,0.402344 6.50065,6.50065 0 0 0 -1.22265,0.236328 z m -28.08789,11.113281 c 0.14394,0.01375 0.24227,0.02598 0.37109,0.04297 l -0.0332,0.11914 a 6.50065,6.50065 0 0 0 0.61133,3.214844 h -1.89063 z m 33.94336,2.660156 1.875,0.306641 -5.33203,7.65625 h -2.58789 c 1.30752,-1.063049 2.51652,-2.225653 3.50781,-3.582031 0.95335,-1.284299 1.77165,-2.662865 2.4375,-4.117188 0.0327,-0.07131 0.0671,-0.191161 0.0996,-0.263672 z m -65.16406,11.566407 -0.97852,0.570312 c 0.10304,-0.04873 0.16526,-0.146334 0.26563,-0.199219 0.24185,-0.14261 0.46314,-0.194209 0.71289,-0.371093 z" id="path20"/>
        <path style="baseline-shift:baseline;display:inline;overflow:visible;vector-effect:none;fill:#cdc112;stroke-linecap:round;stroke-linejoin:round;paint-order:markers stroke fill;enable-background:accumulate;stop-color:#000000;stop-opacity:1" d="m 599.6504,7.6950394 h -83.64 l -2.024,7.2470006 h 7.066 c 1.558,0 2.74,0.08 3.545,0.24 0.804,0.159 1.342,0.397 1.613,0.716 0.408,0.262 0.576,0.733 0.504,1.414 -0.072,0.68 -0.47,2.385 -1.193,5.116 l -6.608,23.653 c -0.802,2.73 -1.358,4.436 -1.666,5.116 -0.308,0.68 -0.74,1.152 -1.294,1.414 -0.449,0.318 -1.12,0.557 -2.014,0.716 -0.893,0.16 -2.12,0.24 -3.678,0.24 h -7.066 l -2.024,7.246 h 83.64 l 13.165,-18.9 -17.3,-2.84 c -0.715,2.151 -1.317,3.76 -1.807,4.827 a 16.416,16.416 0 0 1 -1.762,2.977 c -1.092,1.501 -2.606,2.819 -4.542,3.952 a 19.579,19.579 0 0 1 -6.173,2.34 c -1.024,0.19 -2.113,0.306 -3.268,0.348 -1.155,0.041 -3.762,0.058 -7.82,0.05 h -13.88 l 4.606,-16.486 h 3.912 c 3.512,-0.02 5.906,0.518 7.182,1.613 1.277,1.095 1.56,2.867 0.85,5.316 l -0.446,1.593 h 11.103 l 6.675,-23.891 h -11.103 c -0.417,1.503 -0.791,2.598 -1.123,3.285 -0.33,0.686 -0.718,1.264 -1.162,1.732 -0.941,1.111 -2.212,1.934 -3.812,2.468 -1.6,0.535 -3.536,0.8 -5.806,0.797 h -4.29 l 4.206,-15.052 h 16.654 c 2.088,-0.001 3.648,0.022 4.68,0.07 1.033,0.048 1.883,0.131 2.549,0.249 1.52,0.244 2.84,0.632 3.964,1.165 1.124,0.532 1.994,1.18 2.612,1.94 0.922,1.219 1.475,2.625 1.66,4.222 0.185,1.596 -0.025,3.48 -0.633,5.654 l 18.313,-2.273 z" id="path21"/>
    </g>
</svg>
