<?xml version='1.0' encoding='utf-8'?>
<svg xmlns="http://www.w3.org/2000/svg" version="1.1" width="307.3047914329093" height="300" viewBox="0 0 367.09268 358.3667" id="Layer_1" xml:space="preserve">
    <defs id="defs77">
	
	
	
	
	
	
	
	
</defs>
    <path style="baseline-shift:baseline;display:inline;overflow:visible;vector-effect:none;fill:#ffffff;stroke:none;stroke-width:20;stroke-linecap:round;stroke-linejoin:round;stroke-dasharray:none;stroke-opacity:1;paint-order:markers stroke fill;enable-background:accumulate;stop-color:#000000" d="m 131.5373,243.42523 c -15.46661,0 -29.42783,7.32236 -38.65234,20.0332 -9.02665,12.43909 -13.42188,27.68741 -13.42188,44.55078 0,14.38476 3.49524,26.97887 11.49024,36.28321 l 0.002,0.002 c 7.98735,9.29095 19.9284,14.07227 32.92578,14.07227 5.53242,0 11.01412,-1.45199 15.82813,-4.13672 0.0124,-0.007 0.0248,-0.0143 0.0371,-0.0215 0.91893,-0.51761 11.53565,-4.44712 19.68554,-15.5664 4.20971,-5.73738 6.74264,-11.655 8.33985,-16.2168 0.7986,-2.2809 1.35276,-4.22629 1.71875,-5.64648 0.18299,-0.7101 0.32002,-1.2886 0.41406,-1.71094 0.047,-0.21117 0.0827,-0.38504 0.10937,-0.51367 0.0134,-0.0643 0.0253,-0.11669 0.0332,-0.15625 0.008,-0.0396 0.0215,-0.11329 0.0215,-0.11329 0.0102,-0.0533 0.02,-0.10669 0.0293,-0.16015 l 2.87109,-16.36719 c -0.0619,-1.47469 -0.4494,-2.9174 -1.13476,-4.22461 1.63476,-1.75832 2.58243,-4.04605 2.66992,-6.44531 0,-13.36865 -3.86008,-25.23592 -12.60352,-32.99219 -0.006,-0.006 -0.013,-0.0117 -0.0195,-0.0176 -8.10741,-7.15096 -18.80842,-10.65234 -30.34375,-10.65234 z m 17.33594,24.59766 0.10547,0.0976 c -0.0192,-0.0179 -0.0432,-0.0271 -0.0625,-0.0449 -0.0175,-0.016 -0.0254,-0.0368 -0.043,-0.0527 z m 1.67773,38.00586 h 0.66211 l -0.12695,0.7207 c -0.16751,-0.24812 -0.34608,-0.4886 -0.53516,-0.7207 z" id="path3"/>
    <path style="baseline-shift:baseline;display:inline;overflow:visible;vector-effect:none;fill:#ffffff;stroke:none;stroke-width:20;stroke-linecap:round;stroke-linejoin:round;stroke-dasharray:none;stroke-opacity:1;paint-order:markers stroke fill;enable-background:accumulate;stop-color:#000000" d="m 52.10761,146.30609 c -15.47425,0 -29.45405,7.28102 -38.68359,19.99805 l -0.008,0.0117 C 4.40359,178.77197 0,193.99331 0,210.85491 c 0,14.41405 3.5136,27.00257 11.52344,36.31836 0.0052,0.006 0.01039,0.0117 0.0156,0.0176 7.9895,9.24852 19.91277,14.02344 32.91015,14.02344 5.51112,0 10.99678,-1.43211 15.83399,-4.1582 l -0.0391,0.0215 c 1.0337,-0.57648 11.57343,-4.47823 19.7461,-15.57422 0.0052,-0.006 0.01041,-0.013 0.0156,-0.0195 4.19439,-5.7236 6.7142,-11.63135 8.30664,-16.1875 0.79623,-2.27807 1.35144,-4.22148 1.7168,-5.64062 0.18268,-0.70957 0.31812,-1.28855 0.41211,-1.71094 0.047,-0.21119 0.0826,-0.38237 0.10937,-0.51172 0.0134,-0.0647 0.0249,-0.1189 0.0332,-0.16015 0.004,-0.0206 0.008,-0.0398 0.01,-0.0508 10e-4,-0.006 0.003,-0.01 0.002,-0.006 -7.9e-4,0.004 0.01,-0.0508 0.01,-0.0508 0.01021,-0.054 0.01998,-0.10799 0.0293,-0.16211 l 2.86914,-16.36914 c -0.06213,-1.47254 -0.44896,-2.91315 -1.13281,-4.21875 1.636334,-1.75904 2.584776,-4.04833 2.67187,-6.44921 0,-13.34173 -3.80238,-25.25671 -12.63476,-33.01368 -8.10674,-7.14809 -18.79533,-10.64648 -30.30079,-10.64648 z m 18.98051,62.60156 h 0.66211 l -0.12695,0.7168 c -0.167606,-0.2468 -0.346172,-0.48597 -0.53516,-0.7168 z" id="path1"/>
    <path style="baseline-shift:baseline;display:inline;overflow:visible;vector-effect:none;fill:#ffffff;stroke:none;stroke-width:20;stroke-linecap:round;stroke-linejoin:round;stroke-dasharray:none;stroke-opacity:1;paint-order:markers stroke fill;enable-background:accumulate;stop-color:#000000" d="m 209.68769,148.48382 c -4.09103,-0.0292 -7.78732,2.43631 -9.33203,6.22461 l -10.17969,24.97266 -1.77929,-21.8418 c -0.42263,-5.19108 -4.75854,-9.18882 -9.9668,-9.18945 h -23.13281 c -4.88793,-4.3e-4 -9.06004,3.53236 -9.86524,8.35351 l -15.08007,90.35547 c -1.01694,6.09654 3.68446,11.64682 9.86523,11.64649 h 16.5 c 3.3278,-0.2458 6.87775,0.49669 8.5249,-2.4053 1.64375,2.89706 4.058,2.15383 7.3794,2.4053 h 13.36523 c 3.05743,-0.16673 5.87001,-1.72488 7.63281,-4.22852 1.8079,2.56133 4.71226,4.12666 7.84571,4.22852 h 16.30273 c 4.88458,-0.001 9.05382,-3.53029 9.86133,-8.34766 l 15.14648,-90.35351 c 1.0176,-6.06989 -3.63657,-11.60978 -9.79101,-11.6543 z m 6.63086,20.04883 4.79297,0.0332 -0.57617,3.43555 c -1.28265,-1.23536 -2.87189,-2.10584 -4.60352,-2.52148 z m -52.55273,0.11719 h 5.44531 l 0.11719,1.45117 c -1.89922,-0.56083 -3.92218,-0.5452 -5.8125,0.0449 z m 17.30859,62.35937 c 0.43508,0.0971 0.87617,0.16492 1.32031,0.20313 l -1.06836,2.64453 z" id="path6"/>
    <path style="baseline-shift:baseline;display:inline;overflow:visible;vector-effect:none;fill:#ffffff;stroke:none;stroke-width:20;stroke-linecap:round;stroke-linejoin:round;stroke-dasharray:none;stroke-opacity:1;paint-order:markers stroke fill;enable-background:accumulate;stop-color:#000000" d="m 108.23847,148.48382 a 10.001,10.001 0 0 0 -9.27539,6.26758 l -36.43359,90.51953 a 10.001,10.001 0 0 0 9.27734,13.73438 h 17.75391 a 10.001,10.001 0 0 0 9.38281,-6.54492 l 4.0918,-11.11133 h 7.08203 l 0.73242,8.51172 a 10.001,10.001 0 0 0 9.96289,9.14453 h 17.19336 a 10.001,10.001 0 0 0 9.93555,-11.13086 l -10.29688,-90.51953 a 10.001,10.001 0 0 0 -9.93554,-8.8711 z m 6.75586,20 h 3.78711 l 0.33008,2.9043 a 10.001,10.001 0 0 0 -5.01562,-0.67187 z m -21.19922,52.66993 a 10.001,10.001 0 0 0 0.51954,0.74414 10.001,10.001 0 0 0 -0.9375,0.29492 z m 31.16797,1.67968 0.0859,0.75586 a 10.001,10.001 0 0 0 -0.95898,-0.37304 10.001,10.001 0 0 0 0.87304,-0.38282 z" id="path11"/>
    <path style="baseline-shift:baseline;display:inline;overflow:visible;vector-effect:none;stroke:none;stroke-width:20;stroke-linecap:round;stroke-linejoin:round;stroke-dasharray:none;stroke-opacity:1;paint-order:markers stroke fill;enable-background:accumulate;stop-color:#000000" d="m 71.93924,235.57248 c -6.732,9.14 -13.134,10.857 -16.566,12.771 -3.398,1.915 -7.063,2.871 -10.923,2.871 -10.823,0 -19.271,-3.53 -25.344,-10.56 -6.072,-7.062 -9.107,-16.961 -9.107,-29.799 0,-15.18 3.829,-28.05 11.518,-38.677 7.688,-10.593 17.886,-15.872 30.59,-15.872 9.637,0 17.523,2.706 23.694,8.15 6.171,5.413 9.241,13.927 9.241,25.509 h -18.646 c 0,-5.545 -1.22,-9.438 -3.663,-11.682 -2.441,-2.211 -5.939,-3.333 -10.527,-3.333 -7.491,0 -13.266,3.663 -17.391,10.956 -4.093,7.327 -6.171,15.643 -6.171,24.98 0,6.37 1.354,11.584 3.993,15.609 2.673,4.061 6.666,6.073 11.98,6.073 5.543,0 9.834,-1.584 12.936,-4.72 3.068,-3.102 5.345,-7.128 6.798,-12.045 h -17.359 l 2.806,-16.896 h 33.857 l -2.87,16.368 c -0.001,0.002 -2.148,11.157 -8.846,20.297 z" id="path2"/>
    <path style="baseline-shift:baseline;display:inline;overflow:visible;vector-effect:none;stroke:none;stroke-width:20;stroke-linecap:round;stroke-linejoin:round;stroke-dasharray:none;stroke-opacity:1;paint-order:markers stroke fill;enable-background:accumulate;stop-color:#000000" d="m 108.23924,158.48448 -36.432,90.52 h 17.753 l 6.502,-17.656 h 23.232 l 1.518,17.656 h 17.193 l -10.296,-90.52 z m -6.534,57.42 13.2,-36.002 3.069,36.002 z" id="path12"/>
    <path style="baseline-shift:baseline;display:inline;overflow:visible;vector-effect:none;fill:#ffffff;stroke:none;stroke-width:20;stroke-linecap:round;stroke-linejoin:round;stroke-dasharray:none;stroke-opacity:1;paint-order:markers stroke fill;enable-background:accumulate;stop-color:#000000" d="m 174.66816,245.67132 c -24.92628,13.18015 -20.58287,73.09445 -24.84765,98.85157 -1.00742,6.0915 3.69099,11.63173 9.86523,11.63281 h 47.38867 c 4.91624,2.3e-4 9.10358,-3.57271 9.87695,-8.42774 l 2.96875,-18.64257 c 0.67267,-5.57364 -3.3732,-10.60895 -8.96093,-11.15235 4.47046,-0.3876 8.13551,-3.70531 8.96484,-8.11523 l 2.73828,-17.48828 c 0.37641,-3.07899 -0.69718,-6.15835 -2.90625,-8.33594 4.37526,-0.47068 7.92878,-3.74591 8.75391,-8.06836 L 231.3791,257.185 c 0.92653,-6.05523 -3.75906,-11.51296 -9.88477,-11.51368 z m 8.48047,20 h 2.5332 c -0.94067,0.1944 -1.84843,0.5233 -2.69531,0.97657 z m -4.99609,30.16797 c 1.00592,1.28242 2.31003,2.29956 3.79882,2.96289 -1.63376,0.16905 -3.20075,0.73789 -4.5625,1.65625 z m -6.14063,37.08985 c 1.31001,1.5639 3.06697,2.68977 5.03516,3.22656 h -5.57031 z" id="path14"/>
    <path style="baseline-shift:baseline;display:inline;overflow:visible;vector-effect:none;stroke:none;stroke-width:20;stroke-linecap:round;stroke-linejoin:round;stroke-dasharray:none;stroke-opacity:1;paint-order:markers stroke fill;enable-background:accumulate;stop-color:#000000" d="m 151.37024,332.72548 c -6.698,9.142 -13.134,10.857 -16.532,12.771 -3.432,1.914 -7.063,2.871 -10.957,2.871 -10.823,0 -19.271,-3.53 -25.343,-10.593 -6.039,-7.028 -9.075,-16.962 -9.075,-29.766 0,-15.182 3.829,-28.083 11.516,-38.676 7.689,-10.595 17.887,-15.907 30.559,-15.907 9.668,0 17.556,2.708 23.727,8.151 6.138,5.445 9.239,13.926 9.239,25.51 h -18.677 c 0,-5.545 -1.222,-9.439 -3.664,-11.649 -2.409,-2.244 -5.939,-3.366 -10.527,-3.366 -7.458,0 -13.232,3.663 -17.357,10.988 -4.125,7.294 -6.171,15.609 -6.171,24.949 0,6.401 1.32,11.615 3.993,15.642 2.673,4.025 6.666,6.038 11.979,6.038 5.512,0 9.834,-1.55 12.903,-4.686 3.07,-3.135 5.347,-7.16 6.831,-12.077 h -17.391 l 2.839,-16.896 h 33.857 l -2.871,16.367 c -0.001,0 -2.146,11.154 -8.878,20.329 z" id="path4"/>
    <path style="baseline-shift:baseline;display:inline;overflow:visible;vector-effect:none;fill:#ffffff;stroke:none;stroke-width:20;stroke-linecap:round;stroke-linejoin:round;stroke-dasharray:none;stroke-opacity:1;paint-order:markers stroke fill;enable-background:accumulate;stop-color:#000000" d="m 238.65449,148.55023 a 10.001,10.001 0 0 0 -9.86523,8.36523 l -14.98243,90.45508 a 10.001,10.001 0 0 0 9.86719,11.63477 h 47.38672 a 10.001,10.001 0 0 0 9.875,-8.42578 l 2.96875,-18.61328 a 10.001,10.001 0 0 0 -8.95898,-11.15235 10.001,10.001 0 0 0 8.96093,-8.09765 l 2.77539,-17.52344 a 10.001,10.001 0 0 0 -2.88086,-8.33789 10.001,10.001 0 0 0 8.69532,-8.04688 l 2.87109,-18.74414 a 10.001,10.001 0 0 0 -9.88477,-11.51367 z m 8.48047,20 h 2.54297 a 10.001,10.001 0 0 0 -2.70508,0.98047 z m -4.99414,30.14844 a 10.001,10.001 0 0 0 3.83984,2.96875 10.001,10.001 0 0 0 -4.60742,1.67578 z m -6.13086,37.02148 a 10.001,10.001 0 0 0 4.98828,3.28516 h -5.5332 z" id="path9"/>
    <path style="baseline-shift:baseline;display:inline;overflow:visible;vector-effect:none;stroke:none;stroke-width:20;stroke-linecap:round;stroke-linejoin:round;stroke-dasharray:none;stroke-opacity:1;paint-order:markers stroke fill;enable-background:accumulate;stop-color:#000000" d="m 232.91324,158.65048 -15.146,90.354 h -16.303 l 12.838,-70.027 -28.315,70.027 h -13.365 l -6.17,-69.993 -9.736,69.993 h -16.5 l 15.08,-90.354 h 23.134 l 5.181,63.623 26.005,-63.789 z" id="path8"/>
    <path style="baseline-shift:baseline;display:inline;overflow:visible;vector-effect:none;fill:#ffffff;stroke:none;stroke-width:20;stroke-linecap:round;stroke-linejoin:round;stroke-dasharray:none;stroke-opacity:1;paint-order:markers stroke fill;enable-background:accumulate;stop-color:#000000" d="m 245.05879,245.63617 c -4.08121,-5e-5 -13.3926,6.61546 -14.91693,10.40131 l -30.79401,86.3858 c -2.64256,6.57117 2.19473,13.73137 9.27734,13.73242 h 17.78711 c 4.19543,-5.1e-4 7.94458,-2.61953 9.38867,-6.5586 l 4.06641,-11.0957 h 7.10156 l 0.73242,8.51172 c 0.44549,5.17105 4.77269,9.14196 9.9629,9.14258 h 17.16015 c 5.96951,-9.8e-4 10.60879,-5.19749 9.93555,-11.12891 l -10.29688,-90.52148 c -0.57549,-5.05233 -4.85054,-8.86853 -9.93554,-8.86914 z m 6.7539,20 h 3.78711 l 0.32617,2.86523 c -1.58179,-0.64523 -3.30249,-0.87452 -4.99804,-0.66601 z m -21.17968,52.62109 c 0.16982,0.2683 0.35231,0.52836 0.54687,0.7793 -0.33325,0.0865 -0.66181,0.19015 -0.98437,0.31054 z m 31.14843,1.70899 0.0859,0.76367 c -0.31553,-0.1423 -0.63823,-0.26812 -0.9668,-0.37696 0.29965,-0.1147 0.59361,-0.24375 0.88086,-0.38671 z" id="path16"/>
    <path style="baseline-shift:baseline;display:inline;overflow:visible;vector-effect:none;stroke:none;stroke-width:20;stroke-linecap:round;stroke-linejoin:round;stroke-dasharray:none;stroke-opacity:1;paint-order:markers stroke fill;enable-background:accumulate;stop-color:#000000" d="m 250.17124,193.62948 h 26.633 l -2.774,17.523 h -26.63 l -3.432,19.239 h 30.062 l -2.969,18.613 h -47.388 l 14.982,-90.454 h 46.827 l -2.871,18.744 h -29.468 z" id="path10"/>
    <path style="baseline-shift:baseline;display:inline;overflow:visible;vector-effect:none;stroke:none;stroke-width:20;stroke-linecap:round;stroke-linejoin:round;stroke-dasharray:none;stroke-opacity:1;paint-order:markers stroke fill;enable-background:accumulate;stop-color:#000000" d="m 186.18624,290.78248 h 26.597 l -2.738,17.489 h -26.632 l -3.465,19.24 h 30.097 l -2.97,18.644 h -47.389 l 14.982,-90.485 h 46.827 l -2.87,18.742 h -29.47 z" id="path15"/>
    <g id="path19" style="stroke:#ffffff;stroke-width:20;stroke-linecap:round;stroke-linejoin:round;stroke-dasharray:none;stroke-opacity:1;paint-order:markers stroke fill" transform="translate(-213.25176,-66.418514)">
        <path style="baseline-shift:baseline;display:inline;overflow:visible;vector-effect:none;fill:#ffffff;stroke:none;enable-background:accumulate;stop-color:#000000;stop-opacity:1" d="m 504.87109,312.08984 c -4.89169,5.3e-4 -9.06515,3.53943 -9.86523,8.36524 l -14.98242,90.48633 c -1.00755,6.09228 3.69215,11.63294 9.86718,11.63281 h 17.32422 c 4.88208,-3.7e-4 9.05042,-3.52558 9.86133,-8.33985 l 2.20313,-13.07421 5.83984,15.03515 c 1.49396,3.84495 5.19532,6.3782 9.32031,6.37891 h 19.86719 c 7.0327,-0.002 11.86676,-7.07027 9.31836,-13.625 l -11.98828,-30.82617 c 3.48254,-2.91817 6.46004,-6.22937 8.82226,-9.71875 4.39491,-6.42593 6.58594,-14.15639 6.58594,-22.16016 0,-10.03077 -2.23678,-19.17865 -8.75,-25.59375 -6.02186,-5.96273 -14.51401,-8.56055 -23.29297,-8.56055 z m 2.70899,54.86524 c 0.65947,0.87882 1.45924,1.64296 2.36719,2.26172 -1.02227,0.2013 -2.0068,0.56111 -2.91797,1.0664 z m 22.53515,4.35156 c -0.13345,0.94804 -0.13009,1.91034 0.01,2.85742 -0.53103,-0.95592 -1.21524,-1.81827 -2.02539,-2.55273 0.6788,-0.0744 1.34454,-0.18622 2.01562,-0.30469 z" id="path20"/>
        <path style="baseline-shift:baseline;display:inline;overflow:visible;vector-effect:none;stroke:none;enable-background:accumulate;stop-color:#000000;stop-opacity:1" d="m 515.597,361.853 3.96,-22.274 h 9.504 c 3.499,0 6.105,0.627 7.854,1.882 1.749,1.285 2.606,3.827 2.606,7.655 0,4.29 -1.418,7.458 -4.224,9.57 -2.838,2.112 -6.435,3.167 -10.791,3.167 z m -10.725,-39.764 -14.982,90.485 h 17.325 l 5.809,-34.485 h 8.02 l 13.396,34.485 h 19.866 l -14.85,-38.181 c 5.182,-2.641 9.637,-7.029 12.738,-11.616 3.234,-4.72 4.851,-10.229 4.851,-16.533 0,-8.546 -1.914,-14.684 -5.775,-18.48 -3.826,-3.795 -9.273,-5.675 -16.268,-5.675 z" id="path22"/>
    </g>
    <path style="baseline-shift:baseline;display:inline;overflow:visible;vector-effect:none;stroke:none;stroke-width:20;stroke-linecap:round;stroke-linejoin:round;stroke-dasharray:none;stroke-opacity:1;paint-order:markers stroke fill;enable-background:accumulate;stop-color:#000000" d="m 245.05824,255.63648 -36.433,90.52 h 17.787 l 6.468,-17.655 h 23.265 l 1.519,17.655 h 17.16 l -10.297,-90.52 z m -6.503,57.387 13.168,-36.004 3.103,36.004 z" id="path18"/>
    <g id="path21" style="opacity:1" transform="translate(9.99924,9.9924838)">
        <path style="baseline-shift:baseline;display:inline;overflow:visible;vector-effect:none;fill:#ffffff;stroke-linecap:round;stroke-linejoin:round;paint-order:markers stroke fill;enable-background:accumulate;stop-color:#000000;stop-opacity:1" d="m 113.00586,-9.9628906 c -1.81533,-0.07551 -3.63662,-0.00444 -5.43359,0.1894531 -7.1879,0.7755841 -14.475891,3.3530308 -21.994145,7.1914062 C 70.541617,5.0947196 54.535294,18.012482 39.949219,34.734375 25.366811,51.43622 14.904614,68.806302 9.6464844,84.46875 c -2.6292878,7.831888 -4.0166205,15.268032 -3.5,22.4043 0.5166205,7.13626 3.3509127,14.44878 9.3124996,19.18554 a 10.001,10.001 0 0 0 0.002,0.002 c 5.954771,4.72923 13.544042,5.9124 20.728515,5.13672 7.184473,-0.77569 14.466524,-3.35314 21.982422,-7.19141 15.029243,-7.67525 31.033108,-20.59084 45.617189,-37.308594 l 0.008,-0.0078 c 14.59997,-16.702399 25.06079,-34.073045 30.31835,-49.734375 2.62923,-7.831993 4.0176,-15.267025 3.50391,-22.40039 -0.51369,-7.1333656 -3.33725,-14.44256983 -9.28906,-19.1835942 a 10.001,10.001 0 0 0 -0.0215,-0.017578 c -4.47022,-3.541207 -9.85675,-5.0898736 -15.30273,-5.3164062 z M 109.7168,10.111328 c 3.72479,-0.4019104 5.36913,0.291126 6.16015,0.914063 0.77754,0.622084 1.55364,1.641335 1.79297,4.964843 0.24015,3.334854 -0.46927,8.509728 -2.51367,14.59961 -4.08879,12.179764 -13.27664,27.904316 -26.425781,42.945312 a 10.001,10.001 0 0 0 -0.0059,0.0078 C 75.590684,88.600075 61.038376,100.08441 49.076172,106.19336 c -5.981102,3.05447 -11.304879,4.71639 -15.035156,5.11914 -3.72804,0.40251 -5.362834,-0.29511 -6.140625,-0.91211 l -0.002,-0.002 c -0.786315,-0.62536 -1.563674,-1.63956 -1.804687,-4.96875 -0.241192,-3.33167 0.46921,-8.505844 2.513672,-14.595706 C 32.6963,78.654211 41.884828,62.927568 55.019485,47.884716 a 10.001,10.001 0 0 0 0.002,-0.0039 C 68.155409,32.823753 82.708087,21.339468 94.673828,15.230469 100.6567,12.175969 105.98066,10.514463 109.7168,10.111328 Z" id="path24"/>
        <path style="baseline-shift:baseline;display:inline;overflow:visible;vector-effect:none;fill:#ff0000;stroke-linecap:round;stroke-linejoin:round;paint-order:markers stroke fill;enable-background:accumulate;stop-color:#000000;stop-opacity:1" d="m 47.486,41.308002 c 27.72,-31.779 61.116,-48.807 74.613,-38.115 13.464,10.725 1.914,45.177 -25.839,76.923 C 68.54,111.895 35.144,128.923 21.68,118.23 8.183,107.506 19.767,73.054002 47.486,41.308002 Z" id="path26"/>
    </g>
    <g id="path23" style="opacity:1" transform="translate(9.99924,9.9924838)">
        <path style="baseline-shift:baseline;display:inline;overflow:visible;vector-effect:none;fill:#ffffff;stroke-linecap:round;stroke-linejoin:round;paint-order:markers stroke fill;enable-background:accumulate;stop-color:#000000;stop-opacity:1" d="m 224.93945,-9.5976563 c -1.83177,-0.07263 -3.67126,-2.557e-4 -5.49218,0.1894532 -7.28369,0.7588353 -14.72067,3.2973532 -22.41016,7.0976562 C 181.65814,5.2900592 165.23012,18.113182 150.25,34.707031 a 10.001,10.001 0 0 0 -0.004,0.0039 c -14.98024,16.611981 -25.72632,33.883421 -31.13671,49.5 -2.7052,7.80829 -4.1407,15.238638 -3.60547,22.400389 0.53522,7.16175 3.51163,14.50987 9.56445,19.17578 6.05518,4.66784 13.65877,5.8046 20.93945,5.04492 7.28068,-0.75967 14.71271,-3.30092 22.40039,-7.10351 15.37408,-7.60454 31.80239,-20.43348 46.78125,-37.042969 l 0.004,-0.0039 c 14.97865,-16.594293 25.73134,-33.854419 31.15039,-49.464844 2.70975,-7.805871 4.15038,-15.236165 3.61914,-22.398438 -0.53124,-7.1622725 -3.5043,-14.51449076 -9.55859,-19.1816402 a 10.001,10.001 0 0 0 -0.01,-0.00781 c -4.54527,-3.4955265 -9.95974,-5.0086731 -15.45508,-5.2265626 z m -3.41992,20.0800783 c 3.92946,-0.409382 5.80703,0.329732 6.67774,0.998047 0.85753,0.66214 1.5805,1.585294 1.82031,4.818359 0.24016,3.237883 -0.47674,8.332168 -2.56836,14.357422 -4.18325,12.050508 -13.6081,27.674533 -27.10547,42.626953 a 10.001,10.001 0 0 0 -0.004,0.0039 c -13.49912,14.969474 -28.45369,26.409305 -40.79882,32.515617 -6.17257,3.05316 -11.68225,4.72891 -15.60938,5.13868 -3.92713,0.40976 -5.79403,-0.33248 -6.65234,-0.99414 a 10.001,10.001 0 0 0 -0.002,0 c -0.86018,-0.66309 -1.58799,-1.58687 -1.83007,-4.82618 -0.24209,-3.23931 0.47249,-8.336314 2.56054,-14.363274 4.1758,-12.053044 13.59171,-27.681408 27.08789,-42.648437 13.49988,-14.954151 28.45371,-26.38709 40.80274,-32.490234 6.17451,-3.051572 11.68802,-4.726961 15.62109,-5.136719 z" id="path27"/>
        <path style="baseline-shift:baseline;display:inline;overflow:visible;vector-effect:none;fill:#00cc99;stroke-linecap:round;stroke-linejoin:round;paint-order:markers stroke fill;enable-background:accumulate;stop-color:#000000;stop-opacity:1" d="m 157.672,41.408002 c 28.48,-31.548 62.766,-48.511 76.626,-37.852 13.827,10.659 1.947,44.88 -26.531,76.428 C 179.288,111.565 145,128.527 131.173,117.868 117.347,107.21 129.194,72.988002 157.672,41.408002 Z" id="path28"/>
    </g>
    <g id="path25" style="opacity:1" transform="translate(9.99924,9.9924838)">
        <path style="baseline-shift:baseline;display:inline;overflow:visible;vector-effect:none;fill:#ffffff;stroke-linecap:round;stroke-linejoin:round;paint-order:markers stroke fill;enable-background:accumulate;stop-color:#000000;stop-opacity:1" d="m 331.97266,-9.5976563 c -1.83158,-0.072634 -3.67163,-2.696e-4 -5.49219,0.1894532 -7.28225,0.7588912 -14.71889,3.2976699 -22.41016,7.0976562 -15.38254,7.5999727 -31.81976,20.4221549 -46.80078,37.0175779 a 10.001,10.001 0 0 0 -0.008,0.0078 c -14.96193,16.610337 -25.70507,33.878019 -31.11914,49.492187 -2.70704,7.807085 -4.14703,15.236489 -3.61524,22.398442 0.5318,7.16195 3.50626,14.51459 9.56055,19.18164 6.05662,4.66894 13.66068,5.80441 20.94336,5.04492 7.28268,-0.75949 14.72064,-3.29922 22.41211,-7.10156 15.38295,-7.60468 31.81969,-20.43597 46.80078,-37.048832 a 10.001,10.001 0 0 0 0,-0.002 C 337.20748,70.08435 347.95204,52.823684 353.367,37.212832 c 2.70748,-7.805427 4.14895,-15.232783 3.61718,-22.394532 -0.53176,-7.1617481 -3.50621,-14.51445518 -9.56054,-19.1816402 -4.54246,-3.5019571 -9.95644,-5.0164739 -15.45117,-5.2343751 z m -3.41993,20.0800783 c 3.93147,-0.409703 5.80377,0.333917 6.66016,0.994141 0.85916,0.662314 1.58572,1.583857 1.82617,4.822265 0.24046,3.238408 -0.47626,8.33563 -2.5664,14.361328 -4.18029,12.051398 -13.59956,27.674232 -27.08204,42.626953 h 0.002 c -13.49791,14.968134 -28.45945,26.406848 -40.8125,32.513671 -6.17653,3.05341 -11.69211,4.72873 -15.62305,5.13867 -3.93094,0.40995 -5.80132,-0.33163 -6.6582,-0.99218 -0.85871,-0.66195 -1.58566,-1.58316 -1.82617,-4.82227 -0.24052,-3.23911 0.47619,-8.337069 2.5664,-14.365234 4.17964,-12.054067 13.59616,-27.68329 27.07617,-42.650391 13.49799,-14.952577 28.46025,-26.386457 40.81446,-32.490234 6.1771,-3.051889 11.69158,-4.727017 15.62304,-5.136719 z" id="path29"/>
        <path style="baseline-shift:baseline;display:inline;overflow:visible;vector-effect:none;fill:#0099ff;stroke-linecap:round;stroke-linejoin:round;paint-order:markers stroke fill;enable-background:accumulate;stop-color:#000000;stop-opacity:1" d="m 264.692,41.408002 c 28.479,-31.548 62.8,-48.511 76.626,-37.852 13.827,10.659 1.946,44.88 -26.5,76.428 C 286.339,111.565 252.02,128.527 238.193,117.868 224.367,107.21 236.246,72.988002 264.692,41.408002 Z" id="path30"/>
    </g>
</svg>
