<?xml version='1.0' encoding='utf-8'?>
<svg xmlns="http://www.w3.org/2000/svg" version="1.2" width="600" height="117.08972575035676" xml:space="preserve" id="svg14" viewBox="0 0 581.90887 113.55925">
    <defs id="defs14"/>
    <linearGradient id="a" gradientUnits="userSpaceOnUse" x1="527.771" y1="-0.713" x2="527.771" y2="98.787003" gradientTransform="translate(7.4826462,7.4959625)">
        <stop offset=".005" style="stop-color:#2e5c92" id="stop1"/>
        <stop offset="1" style="stop-color:#2e3192" id="stop2"/>
    </linearGradient>
    <linearGradient id="b" gradientUnits="userSpaceOnUse" x1="290.73801" y1="-0.713" x2="290.73801" y2="98.787003" gradientTransform="translate(7.4826462,7.4959625)">
        <stop offset=".005" style="stop-color:#2e5c92" id="stop3"/>
        <stop offset="1" style="stop-color:#2e3192" id="stop4"/>
    </linearGradient>
    <linearGradient id="c" gradientUnits="userSpaceOnUse" x1="127.571" y1="-0.713" x2="127.571" y2="98.787003" gradientTransform="translate(7.4826462,7.4959625)">
        <stop offset=".005" style="stop-color:#2e5c92" id="stop5"/>
        <stop offset="1" style="stop-color:#2e3192" id="stop6"/>
    </linearGradient>
    <linearGradient id="d" gradientUnits="userSpaceOnUse" x1="458.99399" y1="-0.713" x2="458.99399" y2="98.787003" gradientTransform="translate(7.4826462,7.4959625)">
        <stop offset=".005" style="stop-color:#2e5c92" id="stop7"/>
        <stop offset="1" style="stop-color:#2e3192" id="stop8"/>
    </linearGradient>
    <linearGradient id="e" gradientUnits="userSpaceOnUse" x1="378.92099" y1="-0.713" x2="378.92099" y2="98.787003" gradientTransform="translate(7.4826462,7.4959625)">
        <stop offset=".005" style="stop-color:#2e5c92" id="stop9"/>
        <stop offset="1" style="stop-color:#2e3192" id="stop10"/>
    </linearGradient>
    <linearGradient id="f" gradientUnits="userSpaceOnUse" x1="538.59802" y1="-0.713" x2="538.59802" y2="98.787003">
        <stop offset=".005" style="stop-color:#2e5c92" id="stop11"/>
        <stop offset="1" style="stop-color:#2e3192" id="stop12"/>
    </linearGradient>
    <linearGradient id="g" gradientUnits="userSpaceOnUse" x1="539.14398" y1="-0.713" x2="539.14398" y2="98.787003">
        <stop offset=".005" style="stop-color:#2e5c92" id="stop13"/>
        <stop offset="1" style="stop-color:#2e3192" id="stop14"/>
    </linearGradient>
    <path style="baseline-shift:baseline;display:inline;overflow:visible;vector-effect:none;fill:#ffffff;stroke-linecap:round;stroke-linejoin:round;paint-order:markers stroke fill;enable-background:accumulate;stop-color:#000000" d="m 496.09788,0.9139313 a 7.50075,7.50075 0 0 0 -6.80664,10.6503907 l 21.32813,46.066406 -6.23242,45.896482 a 7.50075,7.50075 0 0 0 7.43359,8.50977 h 22.24805 a 7.50075,7.50075 0 0 0 7.43359,-6.50586 l 5.41211,-40.472657 33.80469,-52.589844 a 7.50075,7.50075 0 0 0 -6.3086,-11.5546877 h -24.61523 a 7.50075,7.50075 0 0 0 -6.2832,3.4023437 L 533.32054,19.949087 527.00413,5.4217437 a 7.50075,7.50075 0 0 0 -6.87695,-4.5078124 z m 11.73829,14.9999997 h 7.37304 l 9.90821,22.787109 a 7.50075,7.50075 0 0 0 13.16015,1.105469 l 15.58008,-23.892578 h 6.81445 l -27.27929,42.439453 a 7.50075,7.50075 0 0 0 -1.12305,3.060547 l -4.76563,35.623048 h -7.09765 l 5.37109,-39.558595 a 7.50075,7.50075 0 0 0 -0.625,-4.160156 z" id="path15"/>
    <path style="baseline-shift:baseline;display:inline;overflow:visible;vector-effect:none;fill:#ffffff;stroke-linecap:round;stroke-linejoin:round;paint-order:markers stroke fill;enable-background:accumulate;stop-color:#000000" d="m 276.86156,0.9139313 a 7.50075,7.50075 0 0 0 -7.42774,6.4667968 L 256.08226,103.50573 a 7.50075,7.50075 0 0 0 7.42969,8.53125 h 55.76953 a 7.50075,7.50075 0 0 0 7.42773,-6.46875 l 2.9668,-21.369142 a 7.50075,7.50075 0 0 0 -7.42774,-8.53125 h -25.31835 l 0.20117,-1.605469 h 22.74414 a 7.50075,7.50075 0 0 0 7.42773,-6.466797 l 2.97071,-21.361329 a 7.50075,7.50075 0 0 0 -7.42774,-8.533203 h -20.49609 l 0.0586,-0.429687 h 27.25586 a 7.50075,7.50075 0 0 0 7.41406,-6.365234 l 3.26563,-21.3593752 a 7.50075,7.50075 0 0 0 -7.41406,-8.6328125 z m 6.53125,14.9999997 h 40.80273 l -0.97266,6.357422 h -27.37109 a 7.50075,7.50075 0 0 0 -7.43359,6.5 l -2.07813,15.429687 a 7.50075,7.50075 0 0 0 7.4336,8.5 h 20.45703 l -0.88477,6.361328 h -22.83594 a 7.50075,7.50075 0 0 0 -7.44336,6.568361 l -2.07421,16.605468 a 7.50075,7.50075 0 0 0 7.4414,8.431641 h 25.19922 l -0.88281,6.369141 h -40.625 z" id="path17"/>
    <path style="baseline-shift:baseline;display:inline;overflow:visible;vector-effect:none;fill:#ffffff;stroke-linecap:round;stroke-linejoin:round;paint-order:markers stroke fill;enable-background:accumulate;stop-color:#000000" d="M 72.982646,0.2010406 C 63.437128,0.3746724 53.056347,2.0553404 42.927958,5.7654938 22.671182,13.1858 3.6714351,30.283232 0.3361618,59.472524 -1.7147347,77.42176 5.8600123,91.836065 16.476787,100.71276 c 10.545574,8.81716 23.645059,12.90117 35.09375,12.78125 8.53806,0.41689 16.514637,-1.21984 22.902343,-3.32227 a 7.50075,7.50075 0 0 0 3.625,1.85547 h 22.54688 a 7.50075,7.50075 0 0 0 7,-4.80273 l 9.12109,-23.675783 h 8.40625 l 2.74024,21.910153 a 7.50075,7.50075 0 0 0 7.4414,6.56836 h 36.48828 a 7.50075,7.50075 0 0 0 7.13672,-5.1875 l 7.2793,-22.478513 3.39648,21.345703 a 7.50075,7.50075 0 0 0 7.40625,6.32031 h 19.28321 a 7.50075,7.50075 0 0 0 6.99414,-4.79101 l 9.07226,-23.437503 1.36914,21.212893 a 7.50075,7.50075 0 0 0 7.48438,7.01562 h 21.35937 a 7.50075,7.50075 0 0 0 7.48633,-7.96094 L 264.17601,7.9471344 a 7.50075,7.50075 0 0 0 -7.48633,-7.0390625 h -25.51367 a 7.50075,7.50075 0 0 0 -6.98438,4.765625 L 214.51195,30.376822 211.00023,7.2811187 a 7.50075,7.50075 0 0 0 -7.41406,-6.3730468 h -22.8418 a 7.50075,7.50075 0 0 0 -7.1211,5.1445312 L 157.9807,53.337759 152.29124,7.4861969 a 7.50075,7.50075 0 0 0 -7.44336,-6.578125 h -28.48046 a 7.50075,7.50075 0 0 0 -6.96875,4.7285156 l -8.98438,22.5878905 2.59375,-16.263672 A 7.50075,7.50075 0 0 0 98.029521,3.6834625 C 91.238773,1.361152 82.528164,0.0274088 72.982646,0.2010406 Z m 0.474609,15.2460934 c 5.192741,-0.07784 9.666106,0.419221 13.626953,1.115235 l -0.863281,5.417968 C 52.140368,15.277548 22.724737,35.484255 21.654521,61.197134 21.113106,74.206327 27.8084,83.334653 34.783427,87.5194 c 6.975028,4.184748 13.021691,4.628907 16.021485,4.628907 1.61309,0 4.181539,-0.07691 7.033203,-0.427735 2.851664,-0.350819 5.781658,-0.617684 9.28125,-2.714843 a 7.50075,7.50075 0 0 0 3.523437,-5.089844 l 1.1875,-6.525391 a 7.50075,7.50075 0 0 0 -7.378906,-8.84375 h -8.28125 l 0.560547,-3.986328 h 23.480469 l -3.021485,22.65625 a 7.50075,7.50075 0 0 0 2.169922,5.935547 7.50075,7.50075 0 0 0 -3.310547,0.308594 c -2.524026,1.346828 -15.162329,5.537986 -23.949219,5.0625 a 7.50075,7.50075 0 0 0 -0.521484,-0.0098 C 44.096587,98.629402 33.577606,95.458753 26.09788,89.204947 18.618155,82.951142 13.730402,74.374415 15.238506,61.175649 17.952232,37.425942 31.586641,25.896125 48.088115,19.851431 c 8.250737,-3.022346 17.280627,-4.283053 25.36914,-4.404297 z m 47.998055,0.460938 h 16.76562 l 8.97461,72.335938 a 7.50075,7.50075 0 0 0 14.56445,1.43164 l 24.40235,-73.767578 h 10.97851 l 6.74414,44.357421 a 7.50075,7.50075 0 0 0 14.39844,1.607422 L 236.2932,15.908072 h 13.3457 l 5.00586,81.119141 h -6.34766 l -3.10937,-48.16211 a 7.50075,7.50075 0 0 0 -14.47852,-2.222657 l -19.5039,50.384767 h -7.74219 L 196.16038,51.136587 A 7.50075,7.50075 0 0 0 181.61742,50.003774 L 166.3889,97.027213 H 141.97484 L 139.2346,75.117057 a 7.50075,7.50075 0 0 0 -7.44336,-6.56836 h -20.17187 a 7.50075,7.50075 0 0 0 -6.99805,4.802735 L 95.498271,97.027213 H 86.28538 a 7.50075,7.50075 0 0 0 -2.027343,-2.052734 7.50075,7.50075 0 0 0 7.333984,-3.994141 z m 3.19336,14.173828 a 7.50075,7.50075 0 0 0 -4.63086,4.482421 l -7.41602,19.875 a 7.50075,7.50075 0 0 0 7.02734,10.121095 h 9.79102 a 7.50075,7.50075 0 0 0 7.44727,-8.388673 l -2.375,-19.875 A 7.50075,7.50075 0 0 0 124.64867,30.0819 Z m -50.683602,5.558593 c 5.025283,0.0656 10.410203,0.911582 16.05664,2.744141 a 7.50075,7.50075 0 0 0 7.25,-2.259766 L 91.445537,50.769399 A 7.50075,7.50075 0 0 0 88.777568,49.560415 H 50.211162 A 7.50075,7.50075 0 0 0 42.78538,56.015493 L 40.373271,73.158072 C 38.026837,71.219232 36.372165,68.323077 36.642802,61.820181 37.14677,49.711927 52.188841,35.356212 73.965068,35.640493 Z" id="path19"/>
    <path style="baseline-shift:baseline;display:inline;overflow:visible;vector-effect:none;fill:url(#b);stroke-linecap:round;stroke-linejoin:round;paint-order:markers stroke fill;enable-background:accumulate;stop-color:#000000" d="m 319.28065,104.53696 2.967,-21.369998 h -33.814 l 2.076,-16.605 h 29.365 l 2.971,-21.36 h -29.072 l 2.078,-15.43 h 33.812 l 3.266,-21.3589995 h -56.068 l -13.35,96.1239975 z" id="path18"/>
    <path style="baseline-shift:baseline;display:inline;overflow:visible;vector-effect:none;fill:url(#c);stroke-linecap:round;stroke-linejoin:round;paint-order:markers stroke fill;enable-background:accumulate;stop-color:#000000" d="m 119.62865,57.060962 7.416,-19.874 2.375,19.874 z m -8.009,18.987 h 20.172 l 3.563,28.479998 h 36.488 l 16.91,-52.212998 8.309,52.212998 h 19.283 l 21.359,-55.178998 3.561,55.178998 h 21.359 l -5.934,-96.1189975 h -25.514 l -19.875,50.7279995 -7.715,-50.7279995 h -22.842 l -26.105,78.9120005 -9.791,-78.9120005 h -28.48 l -31.744004,79.7999995 4.154,-31.149 h -38.566 l -2.672,18.987 h 16.912 l -1.188,6.526 c -2.967,1.778 -9.789,2.075 -12.459,2.075 -2.67,0 -22.545,-1.778 -21.656,-23.139 0.889,-21.359 29.369,-41.235 63.188,-30.258999 l 3.266,-20.47 c -22.548,-7.7110005 -81.766,-3.3950005 -87.8149998,49.543999 -3.559,31.148001 24.9209998,45.981998 43.9059998,45.687998 10.977,0.594 23.438,-3.561 27.887,-5.935 l -1.482,4.451 h 22.547004 z" id="path20"/>
    <path style="baseline-shift:baseline;display:inline;overflow:visible;vector-effect:none;fill:#ffffff;stroke-linecap:round;stroke-linejoin:round;paint-order:markers stroke fill;enable-background:accumulate;stop-color:#000000" d="m 472.35374,0.0291656 c -18.58298,-0.7154712 -44.76088,11.6134184 -52.72851,50.1816404 -4.01722,19.44363 -0.69459,34.652431 7.10156,45.001954 7.79615,10.34952 19.35266,15.36649 30.13672,16.75781 22.34631,2.88257 52.12218,-12.1904 57.33984,-50.023436 C 516.76647,43.369393 513.5733,28.117451 505.7346,17.261587 497.8959,6.4057235 485.56101,0.5508669 472.36156,0.0291656 a 7.50075,7.50075 0 0 0 -0.008,0 z m -0.58593,14.9882814 h 0.008 c 9.33972,0.371081 16.73129,4.010033 21.79687,11.02539 5.06705,7.017386 7.95637,18.019209 5.77149,33.855469 -4.27433,30.992965 -26.11681,39.058742 -40.5625,37.195313 -7.60895,-0.981679 -15.18666,-4.420523 -20.07227,-10.90625 -4.88579,-6.485726 -7.7935,-16.491036 -4.39472,-32.941407 6.86299,-33.221095 25.18014,-38.698558 37.45313,-38.228515 z m -1.8711,5.49414 c -11.90686,-0.456984 -25.99665,10.359508 -29.58594,35.492187 -1.81581,12.709071 0.41535,21.895169 5.25586,27.804689 4.83984,5.908694 11.35578,7.589507 15.32422,8.007812 4.82285,0.509065 11.68266,-0.470064 18.38282,-5.570312 6.70015,-5.100248 12.34336,-14.276567 14.16796,-28.207032 1.81,-13.817319 -0.96149,-23.711891 -6.43945,-29.847657 -5.40624,-6.055438 -12.32835,-7.638841 -17.10547,-7.679687 z m -0.54687,14.974609 a 7.50075,7.50075 0 0 0 0.33984,0.0078 c 1.4473,0 4.18526,0.515062 6.12305,2.685546 1.93779,2.170484 4.20986,6.812427 2.75586,17.91211 -1.4394,10.989536 -5.14131,15.754248 -8.37891,18.21875 -3.23759,2.464502 -6.91046,2.673826 -7.72461,2.587891 -1.67071,-0.17599 -3.75768,-0.718973 -5.29492,-2.595703 -1.53724,-1.87673 -3.45795,-6.041805 -2.00977,-16.177735 2.9214,-20.456067 13.06205,-22.689941 14.18946,-22.638672 z" id="path21"/>
    <path style="baseline-shift:baseline;display:inline;overflow:visible;vector-effect:none;fill:url(#a);stroke-linecap:round;stroke-linejoin:round;paint-order:markers stroke fill;enable-background:accumulate;stop-color:#000000" d="m 496.09765,8.4129625 h 24.029 l 11.869,27.2979995 17.799,-27.2979995 h 24.615 l -34.707,53.9959995 -5.635,42.127998 h -22.248 l 6.526,-48.067998 z" id="path16"/>
    <path style="baseline-shift:baseline;display:inline;overflow:visible;vector-effect:none;fill:#ffffff;stroke-linecap:round;stroke-linejoin:round;paint-order:markers stroke fill;enable-background:accumulate;stop-color:#000000" d="m 361.40843,0.9158844 a 7.50075,7.50075 0 0 0 -7.42773,6.46875 L 340.62913,103.50182 a 7.50075,7.50075 0 0 0 7.42969,8.53125 h 42.42188 c 22.66681,0 37.16907,-16.165238 39.75,-32.749998 1.66436,-10.702897 -1.01767,-19.040781 -4.8418,-25.009766 0.28722,-0.330923 0.57991,-0.588329 0.85937,-0.958985 2.92246,-3.876041 4.82096,-9.302538 5.79883,-17.61914 1.18576,-10.083897 -3.03709,-18.969172 -8.84765,-24.96875 -5.81057,-5.9995771 -13.07894,-9.8105466 -20.85352,-9.8105466 z m 6.53125,14.9999996 h 34.40625 c 2.01843,0 6.76619,1.826421 10.07813,5.246094 3.31193,3.419672 5.31981,7.736147 4.72656,12.78125 -0.80113,6.813397 -2.16662,9.397088 -2.87891,10.341796 -0.71229,0.94471 -1.20469,0.919953 -3.875,2.861329 a 7.50075,7.50075 0 0 0 -0.54883,11.691406 c 3.92549,3.460181 7.29095,7.013031 5.56055,18.140626 -1.5757,10.120594 -9.02952,20.054687 -24.92773,20.054687 h -33.8086 z m 12.45313,6.359375 a 7.50075,7.50075 0 0 0 -7.43164,6.498047 l -2.07813,15.427734 a 7.50075,7.50075 0 0 0 7.43164,8.5 h 12.46289 c 6.21153,0 11.4424,-2.357249 14.50195,-5.695312 3.05956,-3.338064 3.93051,-6.923955 4.21094,-9.185547 0.56495,-4.536719 -0.98367,-7.309823 -3.32226,-10.146484 -2.34007,-2.838447 -6.36476,-5.398438 -11.23828,-5.398438 z m 6.55859,15 h 6.71875 c -0.40852,0.220965 -1.11974,0.425781 -2.89258,0.425781 h -3.88281 z m -11.59961,21.787109 a 7.50075,7.50075 0 0 0 -7.42383,6.439454 l -2.375,16.609375 a 7.50075,7.50075 0 0 0 7.42383,8.5625 h 16.91211 c 6.53221,0 11.97114,-3.013982 14.91406,-6.597656 2.94025,-3.580416 3.79176,-7.049161 4.0918,-9.466797 0.57011,-4.54366 -0.9845,-7.314858 -3.32422,-10.15039 -2.34119,-2.837317 -6.36243,-5.396486 -11.23437,-5.396486 z m 6.50391,15.000001 h 11.57422 c -0.10414,0.220523 -0.0904,0.337896 -0.21875,0.494141 -0.46733,0.569075 -0.66148,1.117187 -3.32227,1.117187 h -8.26367 z" id="path23"/>
    <path style="baseline-shift:baseline;display:inline;overflow:visible;vector-effect:none;fill:url(#d);stroke-linecap:round;stroke-linejoin:round;paint-order:markers stroke fill;enable-background:accumulate;stop-color:#000000" d="m 472.06465,7.5239625 c -15.428,-0.594 -37.678,8.3060005 -45.094,44.2039995 -7.416,35.894001 12.459,50.430998 30.852,52.803998 18.396,2.373 44.205,-9.195997 48.951,-43.608998 4.748,-34.413999 -12.166,-52.5079995 -34.709,-53.3989995 z m -2.374,20.4699995 c 6.229,0 19.578,4.154 16.314,29.071 -3.264,24.920001 -18.689,27.887001 -24.326,27.292001 -5.639,-0.594 -17.207,-4.447 -13.943,-27.292001 3.262,-22.841 15.424,-29.367999 21.955,-29.071 z" id="path22"/>
    <path style="baseline-shift:baseline;display:inline;overflow:visible;vector-effect:none;fill:url(#e);stroke-linecap:round;stroke-linejoin:round;paint-order:markers stroke fill;enable-background:accumulate;stop-color:#000000" d="m 378.31565,45.201962 h 12.461 c 9.197,0 10.977,-5.933999 11.271,-8.305 0.297,-2.375 -2.371,-7.121999 -7.117,-7.121999 h -14.537 z m -5.339,37.971 h 16.912 c 9.193,0 11.27,-7.117999 11.564,-9.492999 0.299,-2.373001 -2.371,-7.117001 -7.117,-7.117001 h -18.984 z m -24.918,21.360998 13.35,-96.1179975 h 40.938 c 9.793,0 24.031,11.2739995 22.252,26.4029995 -1.779,15.13 -6.527,16.02 -9.791,18.393 5.045,4.447 10.088,11.568 8.012,24.918001 -2.078,13.352999 -13.055,26.402997 -32.338,26.402997 z" id="path24"/>
</svg>
