<?xml version='1.0' encoding='utf-8'?>
<svg xmlns="http://www.w3.org/2000/svg" width="600" height="82.29084701618191" xml:space="preserve" version="1.1" id="svg8" viewBox="0 0 585.85693 80.351105">
    <defs id="defs8"/>
    <path style="baseline-shift:baseline;display:inline;overflow:visible;vector-effect:none;fill:#ffffff;stroke-linecap:round;stroke-linejoin:round;paint-order:markers stroke fill;enable-background:accumulate;stop-color:#000000" d="m 424.10301,10.658851 c -6.97826,0.42666 -11.82813,3.185547 -11.82813,3.185547 l 0.88086,-0.421875 c 0,0 -6.91088,2.61439 -12.56836,8.771484 -8.25343,8.101527 -10.38316,18.290929 -10.58789,19.359375 -0.32773,0.936227 -3.67436,11.051132 2.41993,20.775391 a 7.50075,7.50075 0 0 0 0.57421,0.796875 l 4.48243,5.421875 a 7.50075,7.50075 0 0 0 0.97656,0.978515 c 7.92333,6.611958 16.49326,7.424778 16.98242,7.46875 1.00863,0.211573 6.93982,1.358062 14.45117,-0.55664 6.93499,-1.455904 11.80195,-4.754431 11.98047,-4.876953 1.27008,-0.712862 11.77193,-6.910086 14.95313,-20.017578 a 7.50075,7.50075 0 0 0 0.19531,-2.244141 L 456.0034,33.356117 a 7.50075,7.50075 0 0 0 -0.36133,-1.876954 c -1.98019,-6.000366 -5.93359,-9.763671 -5.93359,-9.763671 l 0.41211,0.490234 c 0,0 -6.48674,-8.314287 -18.31641,-10.982422 a 7.50075,7.50075 0 0 0 -0.11523,-0.02539 c -2.69869,-0.564431 -5.25986,-0.681283 -7.58594,-0.539063 z m 5.0293,13.646484 0.19921,0.02148 c 0,0 -0.11804,-0.0033 -0.125,-0.0039 -0.002,-3.6e-4 -0.0742,-0.01758 -0.0742,-0.01758 z m -2.45313,14.957032 c 0.22471,0.331263 0.5346,0.928773 0.86914,2.003906 a 7.50075,7.50075 0 0 0 0.006,0.01758 c 1.03346,3.294327 0.75236,4.801558 0.63281,5.283203 -0.0598,0.240823 -0.0943,0.2457 -0.0176,0.115234 0.0767,-0.130465 0.63476,-0.78125 0.63476,-0.78125 a 7.5,7.5 0 0 0 -0.36719,0.914063 7.5,7.5 0 0 0 -0.7832,0.605469 c 0,0 -0.61273,2.28661 -4.53711,1.933593 -2.58099,-0.272298 -2.86829,-0.954343 -3.37109,-1.710937 -0.50577,-0.761059 -0.56055,-1.140625 -0.56055,-1.140625 a 7.50075,7.50075 0 0 0 -0.0957,-0.5625 c 0,0 -0.98855,-1.331748 2.16992,-4.285156 2.77373,-2.279452 4.55277,-2.422081 5.41992,-2.392578 z m -22.23633,6.308593 c -0.0857,1.811138 -0.063,3.098492 -0.0391,3.283203 0.0792,0.516294 0.60538,3.714746 2.84961,7.091797 1.01639,1.529431 2.58498,3.069228 4.45898,4.447266 -1.03566,-0.525307 -2.13342,-1.224014 -3.26953,-2.125 l -3.37304,-4.080078 c -1.73192,-3.008492 -0.65821,-8.496094 -0.65821,-8.496094 a 7.50075,7.50075 0 0 0 0.0312,-0.121094 z" id="path9"/>
    <path style="baseline-shift:baseline;display:inline;overflow:visible;vector-effect:none;fill:#ffffff;stroke-linecap:round;stroke-linejoin:round;paint-order:markers stroke fill;enable-background:accumulate;stop-color:#000000" d="m 451.24559,1.3580698 c -3.93653,0.1389257 -6.63248,1.9630453 -7.54297,2.5117187 a 7.50075,7.50075 0 0 0 -1.14063,0.84375 c -3.85243,3.458886 -5.36098,8.1705125 -5.4375,11.5273435 -0.0765,3.356832 1.08789,6.13086 1.08789,6.13086 l -0.16796,-0.433594 2.38867,6.761719 a 7.50075,7.50075 0 0 0 0.10547,0.28125 c 0,0 0.58583,1.197529 0.48242,4.621093 a 7.50075,7.50075 0 0 0 0.0117,0.703125 l 1.01172,15.94336 -0.0156,-0.47461 c 0,1.551183 0.13988,2.508262 0.30859,4.212891 0.16871,1.704629 0.38815,3.721663 0.60743,5.667969 0.43855,3.892612 0.875,7.503906 0.875,7.503906 l -0.0488,-0.619141 c 0,0 0.0613,2.625556 1.37109,5.376953 1.30977,2.751398 4.7208,6.340625 9.41797,7.210938 a 7.50075,7.50075 0 0 0 0.14453,0.02539 c 7.75017,1.280727 13.8071,-2.265729 15.4375,-3.035157 l 0.008,-0.0039 c 1.05692,-0.495419 2.83648,-1.089752 3.18946,-1.208984 0.28399,-0.05836 1.61623,-0.340218 2.89258,-0.449219 a 7.50075,7.50075 0 0 0 0.0781,-0.0059 c 2.80704,-0.269513 4.8707,-0.666349 6.36133,-1.054688 1.49063,-0.388339 2.90234,-1.011719 2.90234,-1.011719 l -2.17773,0.677735 c 0,0 5.10533,-0.82073 8.1914,-5.181641 a 7.50075,7.50075 0 0 0 0.004,-0.0078 c 1.50185,-2.127028 1.78207,-3.556729 2.10742,-5.47461 0.32536,-1.917881 0.39605,-4.126389 -0.15429,-6.574219 -1.09979,-4.891597 -5.88734,-10.387023 -12.67579,-11.884765 a 7.5,7.5 0 0 0 -0.006,-0.0039 c -0.002,-4.84e-4 -0.004,4.83e-4 -0.006,0 -0.002,-3.38e-4 -0.002,-0.0016 -0.004,-0.002 a 7.5,7.5 0 0 0 -0.004,0 c -3.29042,-0.723523 -5.74674,-0.349542 -7.76172,-0.0625 -1.64669,0.23458 -2.5051,0.459644 -2.95312,0.56836 -0.0987,-2.2907 -0.22919,-4.901639 -0.17578,-5.847656 a 7.50075,7.50075 0 0 0 0.0117,-0.283204 c 0.14808,-7.958071 -0.45754,-14.157198 -0.51563,-14.740234 0.005,-0.108943 0.38943,-9.306801 -6.30078,-16.7089842 A 7.50075,7.50075 0 0 0 462.91532,6.6060527 C 459.53809,3.2003796 455.18211,1.219144 451.24559,1.3580698 Z m 1.22461,16.3847652 c 0.63994,1.178202 1.09388,2.615031 1.44922,4.097657 z m 18.16406,34.023438 c 0.07,0.230696 0.0646,0.317397 0.0508,0.388672 -0.0132,-0.09056 -0.0321,-0.243447 -0.0508,-0.388672 z m 10.53125,6.46289 a 7.50075,7.50075 0 0 0 -0.73242,0.228516 c 0.39809,-0.159366 0.73242,-0.228516 0.73242,-0.228516 z m -3.53711,0.353516 a 7.5,7.5 0 0 0 0.004,0 7.5,7.5 0 0 0 0.004,0.002 c 1.05654,0.231956 1.30753,0.283768 1.36719,0.31836 a 7.50075,7.50075 0 0 0 -0.0156,0.0039 c 0,0 0.52672,-0.190005 -0.0976,-0.02734 -0.62437,0.162661 -1.90471,0.436184 -4.01367,0.638672 l 0.0781,-0.0078 c -2.76048,0.235748 -5.11297,0.787199 -5.1543,0.796875 0.13317,-0.04457 0.26857,-0.08237 0.4004,-0.126953 1.66104,-0.561697 2.762,-0.967699 3.17187,-1.117187 0.136,-0.03353 0.75932,-0.191215 1.83008,-0.34375 1.17935,-0.168005 2.68003,-0.08059 2.42578,-0.136719 z m -19.66992,0.314453 a 7.50075,7.50075 0 0 0 5.27539,2.890625 c 1.74886,0.05835 2.01713,-0.157819 2.54492,-0.277344 0.52779,-0.119524 0.99024,-0.248003 1.47266,-0.388671 0.43063,-0.12557 0.87429,-0.278968 1.3164,-0.419922 -0.49238,0.151154 -2.41793,0.71909 -4.80664,1.841797 a 7.50075,7.50075 0 0 0 -0.006,0.002 c -1.68598,0.794593 -3.63434,1.391914 -5.18359,1.607422 -0.092,-0.764826 -0.31168,-2.619986 -0.61328,-5.25586 z" id="path11"/>
    <path style="baseline-shift:baseline;display:inline;overflow:visible;vector-effect:none;fill:#ffffff;stroke-linecap:round;stroke-linejoin:round;paint-order:markers stroke fill;enable-background:accumulate;stop-color:#000000" d="m 388.14402,0.00260104 c -8.38524,-0.1101633 -14.32762,3.30790996 -16.50781,4.76171866 -0.0452,0.025972 -2.70707,1.555831 -5.80078,4.4277344 -3.09084,2.8692439 -7.10325,7.3658599 -11.34961,14.0214849 -5.19581,7.502217 -6.47131,13.391775 -6.85156,15.474609 -0.12994,0.353568 -0.26356,0.688238 -0.35938,1.085937 -0.14496,0.601702 -0.26341,1.281841 -0.35742,2.121094 -0.1787,1.5953 -0.24577,3.906043 -0.13672,7.115234 -0.15836,6.924337 2.55664,12.1875 2.55664,12.1875 l -0.45507,-1.083984 c 0,0 3.86858,11.90782 16.20898,16.785156 7.88846,3.244536 16.36133,2.791016 16.36133,2.791016 a 7.50075,7.50075 0 0 0 0.0723,0 c 0,0 7.81139,-0.103741 14.03907,-0.445313 l -0.99024,-0.01172 c 3.01253,0.233228 5.67891,-0.469768 7.52735,-1.382813 0.83738,-0.413631 1.56867,-0.957168 2.16601,-1.43164 l -0.19726,0.167968 c 0,0 0.27993,-0.220876 0.36718,-0.28125 0.0414,-0.0336 0.0583,-0.04164 0.0977,-0.07422 1.2071,-0.854719 6.86955,-5.256982 6.19141,-13.111329 a 7.50075,7.50075 0 0 0 -0.0723,-0.574218 c 0,0 -1.20283,-8.832246 -9.72656,-11.384766 -6.6e-4,-1.98e-4 -10e-4,1.98e-4 -0.002,0 -0.003,-8.92e-4 -0.005,-0.003 -0.008,-0.0039 a 7.5,7.5 0 0 0 -0.006,0 c -5.60965,-1.678327 -10.35742,-0.53125 -10.35742,-0.53125 l 0.56055,-0.07422 c 0,0 -2.3997,0.23021 -5.45117,0.330078 -3.05147,0.09987 -6.8746,-0.06282 -8.21875,-0.347656 a 7.50075,7.50075 0 0 0 -0.26368,-0.05078 c -1.64005,-0.287014 -1.24088,-0.385472 -1.58789,-1.251953 -0.347,-0.866482 -0.38086,-1.720704 -0.38086,-1.720704 a 7.50075,7.50075 0 0 0 -0.006,-0.583984 c 0,0 -0.0762,-0.269991 0.32227,-2.050781 0.39843,-1.78079 1.28755,-4.508495 3.36328,-7.835938 a 7.50075,7.50075 0 0 0 0,-0.002 c 2.43322,-3.90306 4.74768,-5.957548 6.43945,-7.166015 1.37263,1.542314 2.91335,2.753553 4.33399,3.417968 2.91507,1.363336 5.46825,1.39601 5.88867,1.396485 0.36684,0.0296 3.9962,0.290234 7.91602,-1.876953 4.12126,-2.27856 7.88443,-8.255794 7.60156,-15.259766 a 7.50075,7.50075 0 0 0 -0.043,-0.556641 C 410.29148,10.600188 406.0238,5.733376 402.08299,3.5298997 398.14217,1.3264235 394.35073,0.79376864 393.19236,0.52599354 a 7.50075,7.50075 0 0 0 -0.36523,-0.074219 c -1.62142,-0.2911124 -3.18535,-0.4295353 -4.6836,-0.4492188 z M 383.86863,13.916664 c 0,0 -0.36943,0.141319 -0.4414,0.164062 -0.0237,0.0098 -0.29883,0.07031 -0.29883,0.07031 z m 9.89649,2.40625 c 0.26636,0.105157 0.78857,0.181701 0.99805,0.298828 1.03868,0.580773 1.1621,0.342493 1.36328,2.08789 l -0.043,-0.554687 c 0.11712,2.900028 -0.007,1.60045 0.1289,1.52539 0.13577,-0.07506 0.0937,0.04687 0.0937,0.04687 a 7.50075,7.50075 0 0 0 -0.0781,-0.002 7.50075,7.50075 0 0 0 -2.46289,-3.402343 z m 2.2539,3.380859 c 10e-4,5.22e-4 0.008,0.0127 0.01,0.01367 a 7.50075,7.50075 0 0 0 -0.26953,-0.0078 c 0,0 0.18786,-0.03949 0.25976,-0.0059 z m -7.63085,8.496094 c 0,0 -0.27713,0.171985 -0.75196,0.240234 2e-5,3e-6 0.0117,-0.0059 0.0117,-0.0059 a 7.50075,7.50075 0 0 0 0.74024,-0.234375 z M 360.21824,47.04557 c 0,0 0.0166,0.276281 0.0156,0.30664 3.9e-4,0.03213 -0.01,0.277344 -0.01,0.277344 z m 14.11524,18.162109 c 0.0571,0.01211 0.11278,0.0078 0.16992,0.01953 0.0341,0.0062 0.0596,0.02526 0.0937,0.03125 z" id="path13"/>
    <path style="baseline-shift:baseline;display:inline;overflow:visible;vector-effect:none;fill:#2d288b;stroke-linecap:round;stroke-linejoin:round;paint-order:markers stroke fill;enable-background:accumulate;stop-color:#000000" d="m 448.51915,33.830351 c -1.192,-3.612 -4.341,-7.049 -4.341,-7.049 0,0 -4.731,-6.146 -14.024,-8.242 -7.956,-1.664 -14.208,1.845 -14.208,1.845 0,0 -5.677,2.275 -9.943,6.978 -6.796,6.542 -8.749,16.088 -8.749,16.088 0,0 -2.604,8.314 1.521,14.896 l 4.482,5.422 c 6.326,5.279 13.087,5.819 13.087,5.819 0,0 5.46,1.229 11.824,-0.434 5.563,-1.122 9.614,-3.869 9.614,-3.869 0,0 9.222,-5.097 11.749,-15.509 z m -14.357,17.317 c 0,0 -3.686,6.437 -11.782,5.675 -9.51,-0.975 -10.628,-9.325 -10.628,-9.325 0,0 -1.305,-6.146 4.553,-11.498 5.931,-4.987 12.113,-4.229 12.113,-4.229 0,0 4.154,0.397 6.292,7.268 2.744,8.747 -0.548,12.109 -0.548,12.109" id="path10"/>
    <path style="baseline-shift:baseline;display:inline;overflow:visible;vector-effect:none;fill:#94012c;stroke-linecap:round;stroke-linejoin:round;paint-order:markers stroke fill;enable-background:accumulate;stop-color:#000000" d="m 398.77215,58.343351 c -3.229,-0.969 -6.938,-0.327 -6.938,-0.327 0,0 -10.485,1.011 -15.945,-0.146 -8.457,-1.48 -8.174,-10.592 -8.174,-10.592 0,0 -0.283,-6.039 4.813,-14.208 6.289,-10.088 13.23,-11.895 13.23,-11.895 0,0 1.733,-0.649 3.36,0.217 1.013,5.854 6.688,5.818 6.688,5.818 0,0 8.171,0.545 7.771,-9.359 -0.938,-8.138 -8.782,-9.257 -12.074,-10.018 -9.864,-1.771 -16.269,3.508 -16.269,3.508 0,0 -6.614,3.578 -14.531,16.051 -5.391,7.735 -6.04,13.811 -6.04,13.811 0,0 -0.649,1.446 -0.396,7.883 -0.145,5.023 1.737,8.676 1.737,8.676 0,0 2.854,8.645 11.891,12.187 5.497,2.276 13.525,2.241 13.525,2.241 0,0 7.771,-0.108 13.733,-0.435 3.255,0.252 4.812,-1.447 4.812,-1.447 0,0 3.648,-2.385 3.289,-6.543 0,0 -0.708,-4.295 -4.482,-5.422" id="path14"/>
    <path style="baseline-shift:baseline;display:inline;overflow:visible;vector-effect:none;fill:#ffffff;stroke-linecap:round;stroke-linejoin:round;paint-order:markers stroke fill;enable-background:accumulate;stop-color:#000000" d="M 74.284647,4.2584604 A 7.50075,7.50075 0 0 0 67.421366,8.7350229 L 41.769022,66.934242 a 7.50075,7.50075 0 0 0 6.863281,10.52539 h 12.494141 a 7.50075,7.50075 0 0 0 6.83789,-4.419922 l 5.84961,-12.982422 h 2.677734 l 1.966797,11.199219 a 7.50075,7.50075 0 0 0 7.386719,6.203125 h 20.332036 a 7.50075,7.50075 0 0 0 7.14648,-5.224609 l 1.62891,-5.115235 0.88476,4.337891 a 7.50075,7.50075 0 0 0 7.34961,6.001953 h 7.97461 a 7.50075,7.50075 0 0 0 6.88477,-4.527344 l 2.61328,-6.05664 0.15234,3.416015 a 7.50075,7.50075 0 0 0 7.49219,7.167969 h 11.95508 a 7.50075,7.50075 0 0 0 0.48242,-0.207031 7.50075,7.50075 0 0 0 0.44727,0.207031 h 33.35547 a 7.5,7.5 0 0 0 2.14257,-0.886719 7.5,7.5 0 0 0 2.58399,-1.072265 7.5,7.5 0 0 0 1.46289,-2.376953 7.5,7.5 0 0 0 1.2168,-1.978516 l 1.99804,-12.488281 a 7.50075,7.50075 0 0 0 -3.12109,-6.707031 7.50075,7.50075 0 0 0 2.05664,-3.66211 l 1.99414,-12.49414 a 7.50075,7.50075 0 0 0 -1.3418,-4.767579 7.50075,7.50075 0 0 0 5.45508,-5.597656 l 1.99609,-12.486328 a 7.50075,7.50075 0 0 0 -7.40625,-8.6835936 h -33.08789 a 7.50075,7.50075 0 0 0 -6.43359,4.5878906 7.50075,7.50075 0 0 0 -6.32031,-4.5878906 h -14.35156 a 7.50075,7.50075 0 0 0 -6.90235,4.5644531 l -3.78711,8.9042965 -1.34179,-7.322265 A 7.50075,7.50075 0 0 0 123.97996,4.2584604 H 112.1577 A 7.50075,7.50075 0 0 0 105.02488,9.440101 L 99.2241,27.28971 96.431131,10.526039 A 7.50075,7.50075 0 0 0 89.032694,4.2584604 Z m 228.699223,0 a 7.50075,7.50075 0 0 0 -6.81641,10.6269536 l 13.13867,28.634765 -3.98632,25.269531 a 7.50075,7.50075 0 0 0 7.41015,8.667969 h 11.96289 a 7.50075,7.50075 0 0 0 7.41602,-6.378906 l 3.43359,-22.75 20.67969,-32.548828 a 7.5,7.5 0 0 0 0.36133,-2.072266 7.5,7.5 0 0 0 0.80859,-1.949219 7.5,7.5 0 0 0 -0.32812,-0.792968 7.5,7.5 0 0 0 -1.0625,-2.5605472 7.5,7.5 0 0 0 -1.59571,-2.2773438 7.5,7.5 0 0 0 -0.49218,-0.6992188 7.5,7.5 0 0 0 -2.07422,-0.3632812 7.5,7.5 0 0 0 -1.94727,-0.8066406 h -13.95508 a 7.50075,7.50075 0 0 0 -6.36718,3.5371094 l -3.92579,6.3066402 -1.98828,-5.0781246 a 7.50075,7.50075 0 0 0 -6.98437,-4.765625 z M 79.175272,19.25846 h 3.503906 l 0.945313,5.671875 a 7.50075,7.50075 0 0 0 -6.06836,-1.998046 z m 38.431648,0 h 0.12304 l 2.11328,11.521485 a 7.50075,7.50075 0 0 0 -5.8789,-0.3125 z m 30.74218,0 h 2.20703 l 0.37305,8.595703 a 7.50075,7.50075 0 0 0 -5.7832,-1.0625 z m 174.78711,18.435547 a 7.50075,7.50075 0 0 0 1.31446,0.121094 l -0.73047,1.150391 z m -149.49609,1.892578 a 7.50075,7.50075 0 0 0 1.66406,0.765625 7.50075,7.50075 0 0 0 -1.89844,0.701172 z m -106.000004,5.84375 a 7.50075,7.50075 0 0 0 0.02148,0.01172 7.50075,7.50075 0 0 0 -0.03125,0.0098 z m 19.419922,0.113282 0.189453,1.138671 a 7.50075,7.50075 0 0 0 -0.878907,-0.320312 7.5,7.5 0 0 0 0.207032,-0.498047 7.5,7.5 0 0 0 0.482422,-0.320312 z m 39.746092,4.640625 a 7.50075,7.50075 0 0 0 4.50586,0.5 l -2.99023,6.929687 z m 43.19532,12.167968 a 7.50075,7.50075 0 0 0 0.23047,0.107422 h -0.24805 z" id="path15"/>
    <path style="baseline-shift:baseline;display:inline;overflow:visible;vector-effect:none;fill:#ffffff;stroke-linecap:round;stroke-linejoin:round;paint-order:markers stroke fill;enable-background:accumulate;stop-color:#000000" d="M 286.47996,4.2193979 C 271.03737,4.3758951 257.37685,17.238895 253.4702,34.166663 c -4.46149,19.340335 4.84508,39.500783 22.89257,43.671875 18.04866,4.171045 35.25387,-9.869111 39.71875,-29.210937 a 7.50075,7.50075 0 0 0 0,-0.002 C 320.54226,29.281363 311.23207,9.1269933 293.18504,4.955726 h -0.002 c -2.2549,-0.5211816 -4.49768,-0.7586784 -6.70313,-0.7363281 z m 0.24414,26.3320311 c 0.34342,-0.07593 0.55005,0.01156 0.77735,0.113281 0.45346,0.202871 1.54483,1.184687 2.17187,3.716797 0.62705,2.532111 0.56837,6.183561 -0.61133,9.728516 -1.17836,3.53507 -3.18625,6.048218 -4.73828,7.160156 -1.55053,1.110867 -1.93049,0.962034 -2.38281,0.759766 -2.2e-4,-1.01e-4 -0.002,1.01e-4 -0.002,0 -0.45415,-0.204856 -1.54197,-1.188088 -2.16797,-3.714844 -0.62681,-2.530013 -0.56863,-6.176913 0.61133,-9.71875 v -0.002 c 1.18167,-3.541975 3.19164,-6.059824 4.74218,-7.171875 0.77541,-0.556122 1.25619,-0.795163 1.59961,-0.871094 z" id="path17"/>
    <path style="baseline-shift:baseline;display:inline;overflow:visible;vector-effect:none;fill:#ffffff;stroke-linecap:round;stroke-linejoin:round;paint-order:markers stroke fill;enable-background:accumulate;stop-color:#000000" d="M 43.208475,2.8072885 C 33.360256,3.3672381 25.117021,6.8865354 19.179178,10.561195 a 7.5,7.5 0 0 0 -0.0059,0 C 5.7923648,18.842686 -1.4396507,33.278973 0.23972557,50.106117 a 7.50075,7.50075 0 0 0 0,0.002 C 2.5437572,73.130735 31.032079,85.848774 53.710428,72.736976 l 0.0078,-0.0039 c 1.030742,-0.594259 2.010611,-1.05259 3.253906,-2.587891 1.246283,-1.538991 0.0065,-0.02223 -0.416016,0.355469 a 7.50075,7.50075 0 0 0 2.410157,-4.425781 l 3.722656,-23.65625 a 7.50075,7.50075 0 0 0 -7.40819,-8.666022 H 33.915506 c 2.681927,-1.721991 6.017754,-3.112765 9.664063,-3.599609 4.525714,-0.60426 9.091536,0.07015 11.490234,1.173828 a 7.50075,7.50075 0 0 0 10.523438,-5.529297 c 0,0 1.076397,-6.181642 1.896484,-12.080078 A 7.50075,7.50075 0 0 0 62.520975,5.6002573 C 55.607867,3.2010072 49.11898,2.4712293 43.208475,2.8072885 Z M 221.60692,4.5787729 a 7.50075,7.50075 0 0 0 -1.17383,0.6972656 7.5,7.5 0 0 0 -4.10352,2.4394532 7.50075,7.50075 0 0 0 -1.11133,1.8105468 7.5,7.5 0 0 0 -0.84179,1.3691405 l -9.22852,57.767578 a 7.50075,7.50075 0 0 0 7.40625,8.681641 h 26.90234 c 9.223,0 17.30425,-5.342387 22.31055,-13.357422 2.50315,-4.007518 4.09487,-9.020285 3.49414,-14.382813 -0.37138,-3.315207 -1.7091,-6.584422 -3.72851,-9.638671 5.10201,-8.207279 5.26941,-17.13554 1.71875,-23.378907 C 258.89929,8.9338982 251.95273,4.7136914 244.20262,4.5787729 a 7.50075,7.50075 0 0 0 -0.01,0 c -6.68766,-0.1076485 -22.16693,-0.00164 -22.41015,0 -10e-4,9.3e-6 -0.12657,-2.6e-6 -0.12696,0 -1.4e-4,1e-6 -0.0488,0 -0.0488,0 z m 3.28125,35.6015621 a 7.50075,7.50075 0 0 0 0.76171,0.353516 7.50075,7.50075 0 0 0 -0.86914,0.320312 z" id="path19"/>
    <path style="baseline-shift:baseline;display:inline;overflow:visible;vector-effect:none;fill:#2e3192;stroke-linecap:round;stroke-linejoin:round;paint-order:markers stroke fill;enable-background:accumulate;stop-color:#000000" d="m 232.06715,24.348351 h 7.786 c 8.439,0 6.727,10.812 -1.316,10.812 h -8.313 z m -3.689,22.679 h 10.021 c 9.499,0 9.233,11.605 -1.317,11.605 h -10.55 z m -6.595,-34.949 -9.229,57.767 h 26.903 c 11.076,0 27.276,-16.326 12.531,-29.672 15.162,-15.692 0.126,-27.955 -7.916,-28.095 -6.461,-0.104 -22.416,0 -22.416,0 h 0.127 m -198.663003,4.861 c -11.396,7.053 -16.8759995,17.803 -15.4169995,32.422 1.697,16.957 23.6559995,27.64 42.2589995,16.879 1.629,-0.94 0.992,-0.792 1.595,-1.331 l 3.723,-23.656 h -22.194 l -1.702,10.897 h 9.276 l -1.065,5.85 c -5.314,2.125 -14.352,1.327 -18.204,-5.582 -2.44,-4.376 -4.703,-14.142 5.583,-23.124 8.369,-7.309 22.856,-8.633 31.23,-4.78 0,0 1.062,-6.111 1.857,-11.829 -16.078,-5.58 -28.571,-0.927 -36.941,4.254" id="path20"/>
    <path style="baseline-shift:baseline;display:inline;overflow:visible;vector-effect:none;fill:#2e3192;stroke-linecap:round;stroke-linejoin:round;paint-order:markers stroke fill;enable-background:accumulate;stop-color:#000000" d="m 160.26015,69.959351 h -11.956 l -1.598,-36.012 -15.545,36.012 h -7.975 l -6.642,-32.557 -10.367,32.557 H 85.846147 l -3.057,-17.403 h -13.822 l -7.84,17.403 h -12.495 l 25.652,-58.2 h 14.749 l 7.839,47.04 15.285003,-47.041 h 11.823 l 5.848,31.893 13.56,-31.893 h 14.351 z m -79.273003,-28.707 -2.189,-11.29 -5.049,11.29 h 7.238 m 113.557003,28.707 1.998,-12.488 h -20.866 l 1.654,-10.365 h 18.148 l 1.994,-12.495 h -18.341 l 1.594,-10.366 h 20.861 l 1.995,-12.486 h -33.087 l -9.305,58.2 h 33.355 m 155.347,-58.201 h -13.954 l -11.827,19 -7.438,-19 h -13.688 l 14.084,30.692 -4.339,27.508 h 11.963 l 3.671,-24.315 21.528,-33.885" id="path16"/>
    <path style="baseline-shift:baseline;display:inline;overflow:visible;vector-effect:none;fill:#2e3192;stroke-linecap:round;stroke-linejoin:round;paint-order:markers stroke fill;enable-background:accumulate;stop-color:#000000" d="m 260.77815,35.853351 c 3.714,-16.093 17.469,-26.654 30.717,-23.591 13.256,3.063 20.989,18.586 17.278,34.679 -3.714,16.089 -17.467,26.652 -30.721,23.589 -13.253,-3.063 -20.985,-18.59 -17.274,-34.677 z m 18.099,23.023 c 6.327,2.83 14.078,-2.721 17.302,-12.398 3.223,-9.685 0.714,-19.828 -5.614,-22.659 -6.328,-2.832 -14.069,2.722 -17.298,12.404 -3.227,9.683 -0.713,19.821 5.61,22.653" id="path18"/>
    <path style="baseline-shift:baseline;display:inline;overflow:visible;vector-effect:none;fill:#ffffff;stroke-linecap:round;stroke-linejoin:round;paint-order:markers stroke fill;enable-background:accumulate;stop-color:#000000" d="m 506.30027,11.942054 c -1.68299,0.03635 -3.60481,0.172594 -5.76953,0.460938 a 7.50075,7.50075 0 0 0 -0.41211,0.06641 C 482.54199,15.816683 475.48778,30.41471 475.48777,30.41471 l 0.50391,-0.933593 c 0,0 -6.79279,10.311183 -4.08789,23.302734 a 7.50075,7.50075 0 0 0 0.65234,1.859375 l 6.22461,12.291016 a 7.50075,7.50075 0 0 0 1.5625,2.083984 c 2.66758,2.500198 4.82863,4.012012 6.61914,4.957031 0.64183,0.33875 1.11165,0.512498 1.58204,0.699219 -0.35484,-0.235588 -0.44575,-0.206551 -1.29883,-0.964844 a 7.50075,7.50075 0 0 0 1.88281,1.222656 c 0.006,0.002 0.0199,0.0078 0.0254,0.0098 9.04508,4.081841 17.85156,1.634766 17.85156,1.634766 l -0.92383,0.148437 c 0,0 10.87141,-0.996974 20.8086,-8.677734 8.4373,-6.229232 11.77734,-14.970703 11.77734,-14.970703 a 7.50075,7.50075 0 0 0 0.50977,-2.111328 l 0.86328,-9.410157 a 7.50075,7.50075 0 0 0 -0.23633,-2.669922 l -2.45704,-8.955112 a 7.50075,7.50075 0 0 0 -0.83594,-1.929687 C 528.31605,14.60463 513.6909,12.592445 513.6909,12.592445 l 1.35937,0.320312 c 0,0 -2.00212,-0.60359 -4.41601,-0.830078 -1.20695,-0.113244 -2.65099,-0.176972 -4.33399,-0.140625 z m -10.96289,16.212891 c 0,0 -0.2754,0.172553 -0.32226,0.197265 -0.004,0.0026 -0.13672,0.06445 -0.13672,0.06445 z m 16.14063,11.953125 a 7.50075,7.50075 0 0 0 0.0449,1.443359 c -0.0132,-0.07095 -0.0308,-0.08992 -0.041,-0.171875 -0.0422,-0.338626 -0.004,-1.271484 -0.004,-1.271484 z m -5.42383,0.36914 a 7.50075,7.50075 0 0 0 0.004,0 c 2.39304,0.178692 3.61098,0.253221 3.85156,0.306641 0.19225,0.04269 0.52123,0.248316 1.16406,0.701172 0.23427,0.271765 0.49003,0.541603 0.46094,0.486328 a 7.50075,7.50075 0 0 0 0.002,0.06055 c 0,0 1.14403,2.058049 -2.70508,4.607422 -3.38582,2.000137 -4.82982,1.603966 -5.94335,1.251953 -1.12847,-0.356733 -1.33985,-0.628906 -1.33985,-0.628906 a 7.50075,7.50075 0 0 0 -1.29297,-1.078125 c 0,0 0.74946,0.658035 0.60742,0.445312 -0.13116,-0.196445 -0.48849,-0.94197 -0.68945,-2.378906 0.0146,-1.457002 2.10156,-2.794922 2.10156,-2.794922 a 7.50075,7.50075 0 0 0 0.45899,-0.261719 c 0,0 1.71771,-0.837204 3.32031,-0.716797 z m -15.05273,17.388672 c 0.30047,0.261266 0.4553,0.39397 0.60156,0.507813 0.89184,0.80632 2.79398,2.320563 6.04297,3.515625 -0.73287,-0.118093 -1.44022,-0.293344 -2.07422,-0.550782 -0.95112,-0.566177 -1.28237,-0.486395 -1.34766,-0.509765 -0.095,-0.03401 -0.0755,-0.0219 -0.25976,-0.119141 -0.27636,-0.145856 -1.39349,-1.027557 -2.52344,-1.976562 l -0.43359,-0.853516 v -0.002 z" id="path21"/>
    <path style="baseline-shift:baseline;display:inline;overflow:visible;vector-effect:none;fill:#639d01;stroke-linecap:round;stroke-linejoin:round;paint-order:markers stroke fill;enable-background:accumulate;stop-color:#000000" d="m 479.24515,51.258351 c -3.044,-0.672 -7.917,0.575 -7.917,0.575 0,0 -6.796,2.493 -7.845,2.458 -0.396,-0.577 -1.263,-11.677 -1.012,-16.123 0.146,-7.846 -0.509,-14.243 -0.509,-14.243 0,0 -0.323,-7.558 -4.373,-12.039 -4.771,-4.811 -8.101,-2.747 -10.016,-1.593 -4.591,4.122 -2.457,9.146 -2.457,9.146 l 2.389,6.762 c 0,0 1.155,2.894 1.012,7.628 l 1.012,15.944 c 0,2.133 1.737,16.484 1.737,16.484 0,0 0.176,4.665 4.661,5.496 4.593,0.759 9.109,-1.52 11.025,-2.423 1.917,-0.901 4.447,-1.697 4.447,-1.697 0,0 2.098,-0.471 4.194,-0.65 4.916,-0.472 6.688,-1.338 6.688,-1.338 0,0 1.901,-0.286 3.184,-2.099 1.278,-1.81 2.826,-10.302 -6.22,-12.288" id="path12"/>
    <path style="baseline-shift:baseline;display:inline;overflow:visible;vector-effect:none;fill:#ffffff;stroke-linecap:round;stroke-linejoin:round;paint-order:markers stroke fill;enable-background:accumulate;stop-color:#000000" d="m 547.87645,2.3736948 c 0,0 -14.32727,-1.0415753 -23.65625,10.4609372 a 7.50075,7.50075 0 0 0 -0.11719,0.148438 c -5.99377,7.783893 -2.29297,16.583984 -2.29297,16.583984 a 7.50075,7.50075 0 0 0 0.21289,0.521484 c 0,0 -0.21963,-0.597316 -0.0762,-0.0957 0.14345,0.501613 0.42755,1.58549 0.83984,3.498047 1.46255,6.819323 1.41992,16.667969 1.41992,16.667969 a 7.50075,7.50075 0 0 0 0.006,0.404297 c 0,0 0.041,1.220289 -0.006,2.513672 -0.0234,0.646691 -0.0764,1.295791 -0.12109,1.605468 -6.9e-4,0.0048 0.0106,-0.02426 0.01,-0.01953 -1.62227,3.70222 -1.62768,6.608764 -1.58399,7.660156 -0.0571,0.604463 -0.30587,3.745164 1.29688,7.421875 1.76323,4.044871 6.65891,8.512712 13.30664,9.466797 a 7.50075,7.50075 0 0 0 1.10742,0.07617 c 5.18557,-0.02921 10.04591,-3.041284 12.1543,-6.425781 0.76158,-1.222532 1.06076,-2.308945 1.40625,-3.396484 1.98538,1.664706 3.92987,3.298844 6.26367,5.236328 a 7.50075,7.50075 0 0 0 0.15234,0.123047 c 3.112,2.448928 4.07383,3.01698 4.54688,3.318359 0.20541,0.180834 0.26363,0.277262 0.45508,0.410156 0.0976,0.06777 0.24063,0.108295 0.34375,0.173828 8.1e-4,4.96e-4 0.084,0.06055 0.084,0.06055 l -0.0586,-0.04883 c 0.60648,0.382952 1.25808,0.753352 2.01562,1.015625 1.58435,0.548528 3.41085,0.688085 5.36524,0.542969 6.57289,-0.0094 9.36328,-4.070313 9.36328,-4.070313 l -0.83008,0.707032 c 0,0 4.85802,-3.325634 6.13672,-9.748047 1.61549,-8.018312 -5.58789,-13.634766 -5.58789,-13.634766 l 0.70507,0.503906 c 0,0 -6.14624,-4.994647 -10.65429,-8.648437 2.40722,-1.67087 8.61,-6.702693 10.57812,-15.59375 1.49675,-5.838209 -0.0139,-11.309803 -2.25976,-14.537109 -2.26531,-3.25524 -5.41407,-4.91211 -5.41407,-4.91211 l 0.91211,0.560547 c 0,0 -3.75526,-2.8162047 -8.05273,-4.7695312 C 555.9508,1.359709 546.5583,2.3990884 546.5583,2.3990884 Z m 1.83398,14.9824222 c 0.67215,-0.01117 1.03477,-0.02235 2.37695,0.154297 -0.79279,-0.04115 -1.62322,-0.144533 -2.37695,-0.154297 z m 5.54492,0.345703 0.12696,0.02148 c -0.0162,-0.0028 -0.0287,-0.0012 -0.0449,-0.0039 -0.031,-0.0048 -0.0509,-0.01281 -0.082,-0.01758 z m -11.61133,0.02344 a 7.50075,7.50075 0 0 0 -6.36718,7.613281 l 0.52539,7.208985 c -0.13123,-0.742507 -0.1937,-1.475453 -0.35156,-2.210938 a 7.50075,7.50075 0 0 0 0,-0.0059 c -0.46271,-2.146443 -0.81274,-3.5193 -1.08204,-4.460938 -0.26929,-0.941637 -0.68164,-1.966796 -0.68164,-1.966796 l 0.21289,0.521484 c 0,0 -0.18035,-1.800173 0.0859,-2.238281 2.52533,-3.034042 5.36743,-4.043215 7.6582,-4.460938 z m 21.90625,5.628907 a 7.50075,7.50075 0 0 0 0.50977,0.314453 c 0,0 -0.16365,-0.103433 0.0293,0.173828 0.12751,0.183237 0.24152,0.462878 0.21875,1.060547 -0.0312,-0.09539 -0.0236,-0.186355 -0.0586,-0.28125 -0.16868,-0.457151 -0.45364,-0.850122 -0.69922,-1.267578 z m 1.16993,4.820312 -0.10157,0.707031 c 0,0 0.0148,-0.307576 0.0254,-0.392578 0.008,-0.04741 0.0762,-0.314453 0.0762,-0.314453 z m -28.38868,7.705078 a 7.5,7.5 0 0 0 1.04883,1.712891 7.5,7.5 0 0 0 1.47852,2.416015 7.5,7.5 0 0 0 2.67187,0.884766 7.5,7.5 0 0 0 2.45899,0.814453 7.5,7.5 0 0 0 0.29883,-0.150391 7.5,7.5 0 0 0 0.32421,0.07813 c 0,0 2.39371,-0.390906 5.54102,-1.328125 a 7.50075,7.50075 0 0 0 0.32422,10.13086 c 7.27126,5.955483 16.95797,13.769368 17.94336,14.564453 a 7.50075,7.50075 0 0 0 -0.17383,0.148437 c -0.14274,-0.08941 -0.14924,-0.05164 -2.71484,-2.068359 -3.41625,-2.837203 -9.16797,-7.667969 -9.16797,-7.667969 a 7.50075,7.50075 0 0 0 -0.082,-0.06641 l -8.0625,-6.580078 a 7.50075,7.50075 0 0 0 -11.02149,2.716797 c -0.007,-0.414711 0.004,-1.265513 0.002,-1.320313 0.008,-0.300903 0.10576,-6.815173 -0.86915,-14.285156 z m 19.88868,2.134766 -0.15625,0.07227 c 0.0179,-0.0082 0.029,-0.01913 0.0469,-0.02734 0.0373,-0.01788 0.0721,-0.02688 0.10938,-0.04492 z m -20.23828,22.11914 c -0.009,0.587685 -0.0113,1.220345 -0.0293,1.703125 -0.0321,0.861478 -0.20133,1.813124 -0.0352,1.013672 a 7.50075,7.50075 0 0 0 -0.14648,1.152344 c -10e-4,0.02495 -0.004,0.01773 -0.006,0.04297 -0.22597,-0.106105 -0.15954,-0.190463 -0.20508,-0.294922 -0.0803,-0.18413 -0.13086,-0.273438 -0.13086,-0.273438 a 7.50075,7.50075 0 0 0 0.0234,-1.328125 c 0,0 0.0417,-0.813005 0.36523,-1.507812 l -0.48828,0.884765 c 0.38481,-0.599293 0.44313,-0.934036 0.65235,-1.392578 z m 31.97656,5.257813 c -0.003,3.49e-4 0.007,0.0016 0.004,0.002 a 7.50075,7.50075 0 0 0 -0.16601,0.140625 c 0,0 -0.16333,-0.083 0.16211,-0.142578 z m 1.42383,0.648437 c 0.12995,0.07511 0.23923,0.09988 0.37109,0.191407 0.44799,0.310978 1.28516,1.177734 1.28516,1.177734 a 7.50075,7.50075 0 0 0 -1.65625,-1.369141 z" id="path23"/>
    <path style="baseline-shift:baseline;display:inline;overflow:visible;vector-effect:none;fill:#c8a601;stroke-linecap:round;stroke-linejoin:round;paint-order:markers stroke fill;enable-background:accumulate;stop-color:#000000" d="m 530.11415,31.914351 c -6.325,-10.339 -17.46,-11.894 -17.46,-11.894 0,0 -3.543,-1.194 -11.133,-0.183 -14.246,2.713 -19.2,13.667 -19.2,13.667 0,0 -5.099,8.024 -3.074,17.75 l 6.224,12.292 c 4.59,4.302 6.469,4.302 6.757,4.558 6.076,2.747 13.125,1.156 13.125,1.156 0,0 8.895,-0.867 17.029,-7.194 6.506,-4.771 9.326,-11.786 9.326,-11.786 l 0.863,-9.41 z m -17.316,21.113 c -10.231,6.146 -16.668,-0.579 -16.668,-0.579 0,0 -2.855,-1.88 -3.47,-7.593 -0.438,-6.615 6.146,-10.05 6.146,-10.05 0,0 3.471,-2.134 7.81,-1.808 4.339,0.324 5.708,0.035 9.219,2.64 3.324,3.002 3.107,5.206 3.107,5.206 0,0 1.195,7.449 -6.144,12.184" id="path22"/>
    <path style="baseline-shift:baseline;display:inline;overflow:visible;vector-effect:none;fill:#00766a;stroke-linecap:round;stroke-linejoin:round;paint-order:markers stroke fill;enable-background:accumulate;stop-color:#000000" d="m 531.70615,50.280351 c 0,0 0.218,5.783 -0.688,7.194 -1.229,2.639 -1.047,5.206 -1.047,5.206 0,0 -0.835,7.809 8.209,9.107 6.214,-0.035 6.971,-5.206 7.081,-7.411 0.36,-1.732 0.217,-9.798 0.217,-9.798 l 8.063,6.581 c 0,0 5.856,4.917 9.295,7.772 3.581,2.818 4.479,3.325 4.479,3.325 0,0 0.763,0.901 3.506,0.577 2.211,0.038 4.234,-1.952 4.234,-1.952 0,0 2.563,-1.875 3.214,-5.167 0.795,-3.905 -2.24,-5.821 -2.24,-5.821 0,0 -11.205,-9.039 -18.798,-15.258 5.097,-2.783 7.556,-4.699 7.556,-4.699 0,0 7.088,-4.698 8.604,-11.896 2.099,-7.918 -3.867,-11.024 -3.867,-11.024 0,0 -3.726,-2.676 -6.87,-4.087 -7.92,-3.868 -15.293,-3.073 -15.293,-3.073 0,0 -10.483,-0.722 -17.316,7.703 -3.144,4.083 -1.19,9.436 -1.19,9.436 0,0 0.388,0.857 1.263,4.916 1.753,8.167 1.588,18.369 1.588,18.369 z m 13.738,-16.053 -0.688,-9.435 c 0,0 6.614,-0.146 9.363,0.324 5.426,0.831 5.134,2.352 5.134,2.352 0,0 -0.181,1.915 -4.303,3.796 -4.48,2.17 -9.506,2.963 -9.506,2.963" id="path24"/>
</svg>
