<?xml version='1.0' encoding='utf-8'?>
<svg xmlns="http://www.w3.org/2000/svg" height="163.72409704780264" viewBox="0 0 1001.607 273.31223" width="600" version="1.1" id="svg1">
    <defs id="defs1"/>
    <g id="path10" style="stroke:#ffffff;stroke-width:24;stroke-linecap:round;stroke-linejoin:round;stroke-dasharray:none;stroke-opacity:1;paint-order:markers stroke fill" transform="translate(-5.2363281,-7.834841)">
        <path style="baseline-shift:baseline;display:inline;overflow:visible;vector-effect:none;fill:#ffffff;stroke:none;enable-background:accumulate;stop-color:#000000;stop-opacity:1" d="m 949.68164,135.30664 c -17.63721,0 -33.16072,5.24108 -43.02148,16.98633 a 12.001195,12.001195 0 0 0 -0.0586,0.0703 c -9.10701,11.01794 -13.24804,25.51516 -13.24804,41.74024 v 68.35937 a 12.001195,12.001195 0 0 0 12,12 h 29.1621 a 12.001195,12.001195 0 0 0 12,-12 v -3.24609 l 15.22266,17.74414 a 12.001195,12.001195 0 0 0 17.16406,1.08008 l 20.66407,-18.71875 a 12.001195,12.001195 0 0 0 1.04489,-16.7168 l -11.6445,-13.54688 c 3.40611,-2.91663 6.48351,-6.257 9.02343,-10.07422 5.74627,-8.58089 8.85357,-18.51561 8.85347,-28.72265 10e-5,-15.34358 -5.6681,-29.54105 -16.42573,-39.64063 -10.70864,-10.16144 -25.10017,-15.31445 -40.73633,-15.31445 z m 0,24 c 10.79336,0 18.05558,2.86574 24.23242,8.73438 a 12.001195,12.001195 0 0 0 0.0606,0.0566 c 6.10468,5.71955 8.86914,12.12015 8.86914,22.16406 0,5.60762 -1.44492,10.37164 -4.80078,15.3789 a 12.001195,12.001195 0 0 0 -0.0254,0.0371 c -3.20197,4.81737 -6.67701,7.52216 -11.40625,9.22657 a 12.001195,12.001195 0 0 0 -5.03125,19.11132 l 13.20898,15.36915 -2.86133,2.59179 -21.84765,-25.46484 -1.77539,-8.01563 c 0.51506,0.0272 1.03006,0.14258 1.54297,0.14258 7.11155,0 14.57317,-2.66814 19.74023,-7.79883 5.43388,-5.29853 8.0918,-13.04103 8.0918,-20.41211 0,-7.37072 -2.65824,-15.11389 -8.0918,-20.41211 -5.16681,-5.13159 -12.62812,-7.80078 -19.74023,-7.80078 -7.1501,0 -14.59945,2.65756 -19.83594,7.71485 a 12.001195,12.001195 0 0 0 -0.11328,0.26367 l -0.0449,-0.10547 c -5.33321,5.34798 -7.8379,13.02136 -7.8379,20.33984 0,6.11913 1.86824,12.40247 5.5586,17.45118 a 12.001195,12.001195 0 0 0 -5.0586,9.12304 v 33.46094 h -5.1621 v -56.35937 c 0,-12.27181 2.84685,-20.49105 7.71875,-26.40625 4.3598,-5.17315 11.38418,-8.39063 24.60937,-8.39063 z m 0.16602,26.9082 c 2.18221,0 2.22623,0.20879 2.83398,0.81836 a 12.001195,12.001195 0 0 0 0.16211,0.16016 c 0.51223,0.4947 0.83594,0.61466 0.83594,3.23437 0,2.62071 -0.32404,2.73999 -0.83594,3.23438 a 12.001195,12.001195 0 0 0 -0.16016,0.1582 c -0.60749,0.60917 -0.65314,0.81836 -2.83593,0.81836 -2.07345,0 -2.3773,-0.24671 -3.05664,-0.90039 -0.41682,-0.41109 -0.7754,-0.73428 -0.7754,-3.31055 0,-2.57803 0.35698,-2.89998 0.77344,-3.31054 0.68016,-0.65473 0.9834,-0.90235 3.0586,-0.90235 z" id="path27"/>
        <path style="baseline-shift:baseline;display:inline;overflow:visible;vector-effect:none;fill:#ff0000;stroke:none;enable-background:accumulate;stop-color:#000000;stop-opacity:1" d="m 939.01558,232.04328 -3.333,-15.041 h -1.166 v 45.46 h -29.164 v -68.358 q 0,-21.393 10.499,-34.095 10.664,-12.702 33.83,-12.702 19.831,0 32.497,12.034 12.665,11.866 12.665,30.92 0,11.866 -6.832,22.06 -6.666,10.029 -17.332,13.873 l 20.831,24.234 -20.664,18.719 z m -0.666,-53.482 q -4.333,4.345 -4.333,11.866 0,7.521 4.333,11.867 4.5,4.345 11.499,4.345 6.999,0 11.332,-4.345 4.5,-4.346 4.5,-11.867 0,-7.52 -4.5,-11.866 -4.333,-4.346 -11.332,-4.346 -7,0 -11.5,4.346 z" id="path28"/>
    </g>
    <path style="baseline-shift:baseline;display:inline;overflow:visible;vector-effect:none;fill:#ffffff;stroke:none;stroke-width:24;stroke-linecap:round;stroke-linejoin:round;stroke-dasharray:none;stroke-opacity:1;paint-order:markers stroke fill;enable-background:accumulate;stop-color:#000000" d="m 827.75781,129.1925 a 12.001195,12.001195 0 0 0 -12,11.99999 v 76.60939 c 0,14.78381 1.73158,26.61523 8.65234,35.95508 6.77449,9.14136 18.29819,13.34765 30.17969,13.34765 h 34.45313 a 12.001195,12.001195 0 0 0 12,-11.99805 v -25.31641 a 12.001195,12.001195 0 0 0 -7.91016,-10.30664 12.001195,12.001195 0 0 0 5.58984,-9.34375 v -25.3125 a 12.001195,12.001195 0 0 0 -4.31445,-8.81836 12.001195,12.001195 0 0 0 5.97266,-9.50195 v -25.31446 a 12.001195,12.001195 0 0 0 -12,-11.99999 z m 12,23.99999 h 36.62305 v 1.31446 h -19.63672 a 12.001195,12.001195 0 0 0 -12,12 v 18.32031 a 12.001195,12.001195 0 0 0 12,12 h 17.97851 v 1.3125 h -17.97851 a 12.001195,12.001195 0 0 0 -12,12 v 6.32813 c 0,5.96852 0.0471,10.93377 3.5664,16.72461 a 12.001195,12.001195 0 0 0 0.4336,0.66407 c 4.8384,6.8901 12.20992,7.93359 18.26953,7.93359 h 10.0293 v 1.31445 h -22.45313 c -7.11183,0 -9.28092,-1.45408 -10.89844,-3.63672 h 0.002 c -1.47124,-1.98549 -3.93555,-9.3605 -3.93555,-21.66601 z" id="path29"/>
    <g id="path8" style="stroke:#ffffff;stroke-width:24;stroke-linecap:round;stroke-linejoin:round;stroke-dasharray:none;stroke-opacity:1;paint-order:markers stroke fill" transform="translate(-5.2363281,-7.834841)">
        <path style="baseline-shift:baseline;display:inline;overflow:visible;vector-effect:none;fill:#ffffff;stroke:none;enable-background:accumulate;stop-color:#000000;stop-opacity:1" d="m 761.75391,136.99414 a 12.001195,12.001195 0 0 0 -12,12 v 25.22461 a 12.001195,12.001195 0 0 0 12,12 h 4.65039 v 76.2832 a 12.001195,12.001195 0 0 0 12,12 h 29.13476 a 12.001195,12.001195 0 0 0 12,-12 v -76.2832 h 4.64844 a 12.001195,12.001195 0 0 0 12,-12 v -25.22461 a 12.001195,12.001195 0 0 0 -12,-12 z m 12,24 h 38.43359 v 1.22461 h -4.64844 a 12.001195,12.001195 0 0 0 -12,12 v 76.2832 h -5.13476 v -76.2832 a 12.001195,12.001195 0 0 0 -12,-12 h -4.65039 z" id="path31"/>
        <path style="baseline-shift:baseline;display:inline;overflow:visible;vector-effect:none;fill:#ff0000;stroke:none;enable-background:accumulate;stop-color:#000000;stop-opacity:1" d="m 778.40358,174.21828 h -16.649 v -25.224 h 62.432 v 25.224 h -16.648 v 88.283 h -29.135 z" id="path34"/>
    </g>
    <path style="baseline-shift:baseline;display:inline;overflow:visible;vector-effect:none;fill:#ff0000;stroke:none;stroke-width:24;stroke-linecap:round;stroke-linejoin:round;stroke-dasharray:none;stroke-opacity:1;paint-order:markers stroke fill;enable-background:accumulate;stop-color:#000000" d="m 889.04225,255.10543 h -34.452 q -14.245,0 -20.539,-8.493 -6.294,-8.494 -6.294,-28.811 v -76.609 h 60.623 v 25.314 h -31.637 v 18.32 h 29.98 v 25.313 h -29.98 v 6.328 q 0,7.494 1.822,10.492 1.988,2.831 8.448,2.831 h 22.03 z" id="path30"/>
    <g id="path7" style="stroke:#ffffff;stroke-width:24;stroke-linecap:round;stroke-linejoin:round;stroke-dasharray:none;stroke-opacity:1;paint-order:markers stroke fill" transform="translate(-5.2363281,-7.834841)">
        <path style="baseline-shift:baseline;display:inline;overflow:visible;vector-effect:none;fill:#ffffff;stroke:none;enable-background:accumulate;stop-color:#000000;stop-opacity:1" d="m 751.00586,135.35547 c -12.22378,0 -23.12814,2.09274 -32.33984,7.13672 -12.39423,6.65962 -20.46423,19.20825 -23.20118,33.90429 l 0.12891,-0.60351 -11.19141,46.60547 a 12.001195,12.001195 0 0 0 -0.0273,0.12109 c -0.22131,0.96592 0.0994,0.25972 -0.002,0.32422 -0.10136,0.0645 -1.43369,0.71289 -4.57813,0.71289 a 12.001195,12.001195 0 0 0 -12,12 v 27.73047 a 12.001195,12.001195 0 0 0 3.56641,8.53516 c 3.40305,3.36278 5.0845,3.04423 6.10547,3.2539 1.02097,0.20967 1.54847,0.22619 1.99218,0.24805 0.88744,0.0437 1.35556,0.0128 1.83985,-0.0137 0.96858,-0.053 1.84181,-0.1435 2.92969,-0.26953 l -0.68165,0.0586 c 2.16841,-0.1264 4.52325,-0.37832 7.04297,-0.70703 2.85281,-0.24645 5.10393,-0.49724 7.64844,-1.17188 19.19032,-4.6715 33.8028,-17.92423 37.85742,-36.04492 a 12.001195,12.001195 0 0 0 0.004,-0.0215 l 10.34375,-46.60547 a 12.001195,12.001195 0 0 0 0.0449,-0.21289 c 0.29493,-1.45277 0.2359,-1.08135 0.59766,-1.32813 a 12.001195,12.001195 0 0 0 0.25,-0.17383 c 0.7478,-0.53846 1.51084,-0.91211 3.66992,-0.91211 a 12.001195,12.001195 0 0 0 12,-12 v -28.5664 a 12.001195,12.001195 0 0 0 -12,-12 z m -12,25.12109 v 5.83985 c -1.94508,0.79608 -3.82857,1.73384 -5.55274,2.95898 -5.45184,3.77115 -9.2058,9.98905 -10.48437,16.28711 l 0.0449,-0.21289 -10.3418,46.59961 -0.002,0.006 c -2.26067,10.07934 -6.99883,14.81967 -20.24023,17.99023 a 12.001195,12.001195 0 0 0 -0.31836,0.082 c 0.0114,-0.003 -0.30347,0.0392 -0.31641,0.041 v -4.41992 c 1.8751,-0.65768 3.71598,-1.44502 5.46289,-2.55664 5.32398,-3.38784 9.14908,-9.27219 10.50977,-15.21094 l -0.0273,0.12109 11.18946,-46.60547 a 12.001195,12.001195 0 0 0 0.1289,-0.60546 c 1.78003,-9.55789 5.10732,-14.02525 10.99024,-17.17383 a 12.001195,12.001195 0 0 0 0.11328,-0.0625 c 2.3348,-1.28231 5.27913,-2.34 8.84375,-3.07813 z" id="path35"/>
        <path style="baseline-shift:baseline;display:inline;overflow:visible;vector-effect:none;fill:#ff0000;stroke:none;enable-background:accumulate;stop-color:#000000;stop-opacity:1" d="m 679.79558,263.28728 v -27.73 q 13.903,0 16.276,-10.357 l 11.19,-46.606 q 3.391,-18.208 17.124,-25.558 10.342,-5.68 26.62,-5.68 v 28.565 q -6.274,0 -10.682,3.174 -4.408,3.007 -5.595,8.854 l -10.343,46.606 q -4.747,21.215 -29.162,27.061 -1.865,0.501 -5.764,0.836 -3.73,0.5 -6.612,0.668 -2.883,0.334 -3.052,0.167 z" id="path36"/>
    </g>
    <g id="path6" style="stroke:#ffffff;stroke-width:24;stroke-linecap:round;stroke-linejoin:round;stroke-dasharray:none;stroke-opacity:1;paint-order:markers stroke fill" transform="translate(-5.2363281,-7.834841)">
        <path style="baseline-shift:baseline;display:inline;overflow:visible;vector-effect:none;fill:#ffffff;stroke:none;enable-background:accumulate;stop-color:#000000;stop-opacity:1" d="m 626.58398,136.00586 c -14.19869,0 -27.40445,4.92332 -36.74023,14.61523 -9.29376,9.64833 -13.89453,22.87698 -13.89453,37.16602 v 74.41992 a 12.001195,12.001195 0 0 0 12,12 h 28.59961 a 12.001195,12.001195 0 0 0 9.95117,-7.05469 12.001195,12.001195 0 0 0 9.95117,7.05274 h 28.59766 a 12.001195,12.001195 0 0 0 12,-12 v -74.41992 c 0,-14.27291 -4.59223,-27.4867 -13.86524,-37.13282 -9.23807,-9.72169 -22.42002,-14.64648 -36.59961,-14.64648 z m 0,24 c 9.21464,0 14.63391,2.35639 19.22071,7.19531 a 12.001195,12.001195 0 0 0 0.0664,0.0684 c 4.75561,4.93796 7.17774,10.93671 7.17774,20.51563 v 62.41992 h -4.59766 v -19.49024 a 12.001195,12.001195 0 0 0 -12,-12 h -19.90234 a 12.001195,12.001195 0 0 0 -12,12 v 19.49219 h -4.59961 v -62.41992 c 0,-9.58029 2.42411,-15.57862 7.17969,-20.51563 a 12.001195,12.001195 0 0 0 0,-0.002 c 6.6e-4,-6.8e-4 10e-4,-0.001 0.002,-0.002 4.71446,-4.89336 10.23977,-7.26172 19.45312,-7.26172 z m 0,4.83984 c -5.90642,0 -12.56923,2.96938 -16.4375,7.68946 -3.4494,4.12775 -5.39351,9.59418 -5.58789,14.80273 a 12.001195,12.001195 0 0 0 -0.01,0.44727 v 17.73437 a 12.001195,12.001195 0 0 0 12,12 h 19.90234 a 12.001195,12.001195 0 0 0 12,-12 v -17.73437 a 12.001195,12.001195 0 0 0 -0.008,-0.44922 c -0.19555,-5.20873 -2.14179,-10.67532 -5.5918,-14.80274 -3.79262,-4.62683 -10.36211,-7.6875 -16.26758,-7.6875 z" id="path37"/>
        <path style="baseline-shift:baseline;display:inline;overflow:visible;vector-effect:none;fill:#ff0000;stroke:none;enable-background:accumulate;stop-color:#000000;stop-opacity:1" d="m 598.48558,158.94528 q 10.538,-10.94 28.098,-10.94 17.56,0 27.93,10.94 10.536,10.94 10.536,28.84 v 74.42 h -28.598 v -31.49 h -19.902 v 31.492 h -28.6 v -74.42 q 0,-17.902 10.537,-28.841 z m 18.064,46.575 h 19.902 v -17.735 q -0.168,-4.475 -2.844,-7.624 -2.675,-3.315 -7.024,-3.315 -4.515,0 -7.191,3.315 -2.676,3.149 -2.843,7.624 z" id="path38"/>
    </g>
    <path style="baseline-shift:baseline;display:inline;overflow:visible;vector-effect:none;fill:#ffffff;stroke:none;stroke-width:24;stroke-linecap:round;stroke-linejoin:round;stroke-dasharray:none;stroke-opacity:1;paint-order:markers stroke fill;enable-background:accumulate;stop-color:#000000" d="m 173.14062,130.61828 c -14.19869,0 -27.40446,4.92332 -36.74023,14.61523 a 12.001195,12.001195 0 0 0 0,0.002 12.001195,12.001195 0 0 0 -0.002,0.002 c -9.29247,9.64814 -13.89258,22.876 -13.89258,37.16406 v 74.41992 a 12.001195,12.001195 0 0 0 12,12 h 28.59961 a 12.001195,12.001195 0 0 0 9.95117,-7.05469 12.001195,12.001195 0 0 0 9.95117,7.05274 h 28.59766 a 12.001195,12.001195 0 0 0 12,-12 v -74.41993 c 0,-14.2729 -4.59223,-27.4867 -13.86524,-37.13281 -9.23807,-9.72169 -22.42002,-14.64844 -36.59961,-14.64844 z m 0,23.99999 c 9.21464,0 14.63391,2.3564 19.22071,7.19533 a 12.001195,12.001195 0 0 0 0.0664,0.0703 c 4.75561,4.93796 7.17774,10.9367 7.17774,20.51562 v 62.41993 h -4.59766 v -19.49024 a 12.001195,12.001195 0 0 0 -12,-12 h -19.90234 a 12.001195,12.001195 0 0 0 -12,12 v 19.49219 h -4.59961 v -62.41992 c 0,-9.5803 2.42411,-15.58057 7.17968,-20.51758 4.7149,-4.89475 10.24044,-7.26563 19.45508,-7.26563 z m 0,4.8418 c -5.90642,0 -12.56923,2.96938 -16.4375,7.68945 -3.44937,4.12775 -5.39351,9.59422 -5.58789,14.80274 a 12.001195,12.001195 0 0 0 -0.01,0.44726 v 17.73438 a 12.001195,12.001195 0 0 0 12,12 h 19.90234 a 12.001195,12.001195 0 0 0 12,-12 v -17.73438 a 12.001195,12.001195 0 0 0 -0.008,-0.45116 c -0.19555,-5.20872 -2.14179,-10.67338 -5.5918,-14.80079 -3.79262,-4.62682 -10.36213,-7.6875 -16.26758,-7.6875 z" id="path39"/>
    <g id="path5" style="stroke:#ffffff;stroke-width:24;stroke-linecap:round;stroke-linejoin:round;stroke-dasharray:none;stroke-opacity:1;paint-order:markers stroke fill" transform="translate(-5.2363281,-7.834841)">
        <path style="baseline-shift:baseline;display:inline;overflow:visible;vector-effect:none;fill:#ffffff;stroke:none;enable-background:accumulate;stop-color:#000000;stop-opacity:1" d="m 487.79492,135.72852 c -13.055,0 -25.407,4.58101 -32.83984,14.33007 -6.59486,8.65114 -9.7793,19.49181 -9.7793,30.95703 v 80.81446 a 12.001195,12.001195 0 0 0 12,12 h 28.62305 a 12.001195,12.001195 0 0 0 8.23828,-3.41211 12.001195,12.001195 0 0 0 8.23633,3.41211 h 28.62109 a 12.001195,12.001195 0 0 0 8.23828,-3.41406 12.001195,12.001195 0 0 0 8.23633,3.41406 h 28.62305 a 12.001195,12.001195 0 0 0 12,-12 v -80.81446 c 0,-11.46522 -3.18444,-22.30589 -9.7793,-30.95703 -7.43221,-9.74957 -19.78484,-14.33007 -32.83984,-14.33007 -10.33833,0 -20.37586,3.46302 -27.67969,10.37695 -0.41477,0.38671 -0.71537,0.86843 -1.10938,1.27344 -0.39207,-0.40303 -0.69087,-0.88267 -1.10351,-1.26758 -7.30397,-6.91781 -17.34433,-10.38281 -27.68555,-10.38281 z m 0,24 c 5.61077,0 8.52533,1.27171 11.20117,3.8164 a 12.001195,12.001195 0 0 0 0.10352,0.0977 c 0.51142,0.47501 0.93665,0.98246 1.35937,1.49609 -2.0919,-0.74302 -4.24837,-1.25781 -6.33984,-1.25781 -5.44064,0 -12.14969,2.65283 -15.83984,7.57422 -3.69016,4.92139 -4.48047,10.32318 -4.48047,15.52148 v 62.85352 h -4.62305 v -68.81446 c 0,-7.30333 1.69807,-12.25099 4.86524,-16.40625 v -0.002 c 2.33108,-3.05692 5.50993,-4.8789 13.7539,-4.8789 z m 57.57813,0 c 8.24499,0 11.42344,1.82181 13.7539,4.8789 3.16781,4.15553 4.86524,9.10409 4.86524,16.4082 v 68.81446 h -4.62305 v -62.85352 c 0,-5.1981 -0.78817,-10.60028 -4.47852,-15.52148 -3.69034,-4.9212 -10.40139,-7.57422 -15.84179,-7.57422 -2.09172,0 -4.24752,0.51466 -6.33985,1.25781 0.42273,-0.51363 0.84796,-1.02108 1.35938,-1.49609 a 12.001195,12.001195 0 0 0 0.10351,-0.0977 c 2.67688,-2.54534 5.59127,-3.8164 11.20118,-3.8164 z m -31.19922,25.27734 a 12.001195,12.001195 0 0 0 1.41211,0.55664 h 1.99609 a 12.001195,12.001195 0 0 0 1.41211,-0.55664 c -0.0296,0.65718 -0.0996,1.3227 -0.0996,1.9707 v 62.85352 h -4.62109 v -62.85352 c 0,-0.64804 -0.07,-1.31348 -0.0996,-1.9707 z" id="path41"/>
        <path style="baseline-shift:baseline;display:inline;overflow:visible;vector-effect:none;fill:#ff0000;stroke:none;enable-background:accumulate;stop-color:#000000;stop-opacity:1" d="m 515.58558,173.56228 h 1.997 q 0.832,-11.758 8.32,-18.713 7.489,-7.121 19.47,-7.121 15.975,0 23.297,9.605 7.322,9.605 7.322,23.682 v 80.815 h -28.622 v -74.854 q 0,-11.095 -8.32,-11.095 -3.495,0 -5.825,2.65 -2.33,2.65 -2.33,8.445 v 74.854 h -28.621 v -74.854 q 0,-5.796 -2.33,-8.446 -2.33,-2.65 -5.824,-2.65 -8.32,0 -8.32,11.096 v 74.854 h -28.624 v -80.815 q 0,-14.077 7.322,-23.682 7.323,-9.605 23.298,-9.605 11.982,0 19.47,7.121 7.488,6.955 8.32,18.713 z" id="path42"/>
    </g>
    <g id="path4" style="stroke:#ffffff;stroke-width:24;stroke-linecap:round;stroke-linejoin:round;stroke-dasharray:none;stroke-opacity:1;paint-order:markers stroke fill" transform="translate(-5.2363281,-7.834841)">
        <path style="baseline-shift:baseline;display:inline;overflow:visible;vector-effect:none;fill:#ffffff;stroke:none;enable-background:accumulate;stop-color:#000000;stop-opacity:1" d="m 357.67773,136.62305 a 12.001195,12.001195 0 0 0 -12,12 v 76.72461 c 0,14.82227 1.77571,26.71973 8.79688,36.06445 6.872,9.14628 18.45447,13.29883 30.44922,13.29883 h 34.98437 a 12.001195,12.001195 0 0 0 12,-12 v -25.35352 a 12.001195,12.001195 0 0 0 -7.96679,-10.32812 12.001195,12.001195 0 0 0 5.61132,-9.35352 v -25.35156 a 12.001195,12.001195 0 0 0 -4.33593,-8.82617 12.001195,12.001195 0 0 0 6.01757,-9.52149 v -25.35351 a 12.001195,12.001195 0 0 0 -12,-12 z m 12,24 h 37.55664 v 1.35351 h -20.12304 a 12.001195,12.001195 0 0 0 -12,12 v 18.34766 a 12.001195,12.001195 0 0 0 12,12 h 18.4414 v 1.35156 h -18.4414 a 12.001195,12.001195 0 0 0 -12,12 v 6.33789 c 0,5.98934 0.058,10.99989 3.63281,16.80274 a 12.001195,12.001195 0 0 0 0.43945,0.66406 c 4.90776,6.8947 12.25348,7.87695 18.35547,7.87695 h 10.36914 v 1.35352 h -22.98437 c -7.29007,0 -9.61228,-1.51929 -11.26172,-3.71485 a 12.001195,12.001195 0 0 0 0,-0.002 c -1.50016,-1.99661 -3.98438,-9.33676 -3.98438,-21.64648 z" id="path43"/>
        <path style="baseline-shift:baseline;display:inline;overflow:visible;vector-effect:none;fill:#ff0000;stroke:none;enable-background:accumulate;stop-color:#000000;stop-opacity:1" d="m 419.90758,262.71028 h -34.984 q -14.464,0 -20.855,-8.507 -6.391,-8.506 -6.391,-28.855 v -76.725 h 61.557 v 25.353 h -32.124 v 18.347 h 30.442 v 25.352 h -30.442 v 6.339 q 0,7.505 1.85,10.508 2.018,2.835 8.578,2.835 h 22.369 z" id="path44"/>
    </g>
    <g id="path3" style="stroke:#ffffff;stroke-width:24;stroke-linecap:round;stroke-linejoin:round;stroke-dasharray:none;stroke-opacity:1;paint-order:markers stroke fill" transform="translate(-5.2363281,-7.834841)">
        <path style="baseline-shift:baseline;display:inline;overflow:visible;vector-effect:none;fill:#ffffff;stroke:none;enable-background:accumulate;stop-color:#000000;stop-opacity:1" d="m 257.96289,136.21289 c -13.05436,0 -25.41214,4.59726 -32.83594,14.35938 -6.58808,8.66408 -9.76562,19.51264 -9.76562,30.99023 v 80.9707 a 12.001195,12.001195 0 0 0 12,12 h 28.60547 a 12.001195,12.001195 0 0 0 8.23632,-3.41211 12.001195,12.001195 0 0 0 8.22852,3.41016 h 28.60547 a 12.001195,12.001195 0 0 0 8.23047,-3.41016 12.001195,12.001195 0 0 0 8.23437,3.41211 h 28.60547 a 12.001195,12.001195 0 0 0 12,-12 v -80.9707 c 0,-11.4773 -3.17841,-22.32417 -9.76562,-30.98828 a 12.001195,12.001195 0 0 0 0,-0.002 c -7.42396,-9.76233 -19.78107,-14.35938 -32.83594,-14.35938 -10.34183,0 -20.38488,3.4771 -27.68359,10.40625 -0.40683,0.38045 -0.70111,0.8539 -1.0879,1.25195 -0.38678,-0.39803 -0.68107,-0.87151 -1.08789,-1.25195 -7.29842,-6.9298 -17.3413,-10.40625 -27.68359,-10.40625 z m 0,24 c 5.60037,0 8.50296,1.27029 11.17773,3.82031 a 12.001195,12.001195 0 0 0 0.10157,0.0957 c 0.53254,0.49596 0.97918,1.02507 1.41601,1.56445 -2.10289,-0.75223 -4.27105,-1.27344 -6.375,-1.27344 -5.44563,0 -12.16166,2.66631 -15.8457,7.5918 -3.68404,4.92549 -4.4707,10.32382 -4.4707,15.52539 v 62.99609 h -4.60547 v -68.9707 c 0,-7.32641 1.70184,-12.29497 4.87109,-16.46289 h -0.002 c 2.33354,-3.06855 5.50011,-4.88672 13.73242,-4.88672 z m 57.54297,0 c 8.23313,0 11.39904,1.81838 13.73242,4.88672 h -0.002 c 3.16879,4.16789 4.87109,9.13619 4.87109,16.46289 v 68.9707 h -4.60547 v -62.99804 c 0,-5.20158 -0.78471,-10.59991 -4.46875,-15.52539 -3.68403,-4.92549 -10.40007,-7.5918 -15.8457,-7.5918 -2.10317,0 -4.27282,0.51978 -6.375,1.27148 0.43609,-0.53812 0.88262,-1.0656 1.41406,-1.56054 a 12.001195,12.001195 0 0 0 0.10156,-0.0957 c 2.67582,-2.55067 5.57824,-3.82031 11.17774,-3.82031 z m -31.17578,25.28516 a 12.001195,12.001195 0 0 0 1.40625,0.59961 h 1.99609 a 12.001195,12.001195 0 0 0 1.4043,-0.55274 c -0.0301,0.66372 -0.0996,1.33566 -0.0996,1.99024 v 62.99609 h -4.60547 v -62.99414 c 0,-0.67086 -0.0699,-1.35868 -0.10156,-2.03906 z" id="path45"/>
        <path style="baseline-shift:baseline;display:inline;overflow:visible;vector-effect:none;fill:#ff0000;stroke:none;enable-background:accumulate;stop-color:#000000;stop-opacity:1" d="m 285.73558,174.09728 h 1.997 q 0.831,-11.78 8.315,-18.75 7.484,-7.134 19.458,-7.134 15.966,0 23.284,9.623 7.317,9.624 7.317,23.727 v 80.97 h -28.605 v -74.998 q 0,-11.117 -8.315,-11.117 -3.493,0 -5.821,2.655 -2.329,2.655 -2.329,8.462 v 74.996 h -28.605 v -74.994 q 0,-5.807 -2.328,-8.462 -2.328,-2.655 -5.821,-2.655 -8.315,0 -8.315,11.117 v 74.996 h -28.606 v -80.97 q 0,-14.103 7.318,-23.727 7.318,-9.623 23.283,-9.623 11.975,0 19.458,7.134 7.484,6.97 8.316,18.75 z" id="path46"/>
    </g>
    <g id="path1" style="stroke:#ffffff;stroke-width:24;stroke-linecap:round;stroke-linejoin:round;stroke-dasharray:none;stroke-opacity:1;paint-order:markers stroke fill" transform="translate(-5.2363281,-7.834841)">
        <path style="baseline-shift:baseline;display:inline;overflow:visible;vector-effect:none;fill:#ffffff;stroke:none;enable-background:accumulate;stop-color:#000000;stop-opacity:1" d="m 74.0625,136.03711 c -18.81469,7.8e-4 -36.043425,7.22173 -49.023438,20.63867 -12.873205,13.30655 -19.8027339,30.34874 -19.8027339,48.79688 v 0.002 c 0,8.60709 1.3946056,17.07129 4.1621094,25.18359 a 12.001195,12.001195 0 0 0 0.078125,0.22071 c 2.9153185,8.03037 7.1491245,15.44078 12.5859375,22.02539 5.844672,7.07857 13.448479,12.64069 22.253906,16.61523 v -0.002 c 9.074655,4.09688 19.130534,6.05859 29.748047,6.05859 18.703675,0 35.878727,-6.84426 49.103517,-19.71484 a 12.001195,12.001195 0 0 0 0.002,-0.002 c 13.37028,-13.01647 20.56055,-30.24589 20.56055,-49.05273 0,-4.55465 -0.31841,-8.95136 -0.98438,-13.18555 a 12.001195,12.001195 0 0 0 -11.85547,-10.13672 h -13.26953 l 8.16602,-8.4746 a 12.001195,12.001195 0 0 0 0.64648,-15.92579 C 113.99923,143.88561 95.296062,136.03711 74.064453,136.03711 a 12.001195,12.001195 0 0 0 -0.002,0 z m 0.002,24 c 11.157274,0 19.385066,2.31937 26.05664,7.02148 l -2.740234,2.84375 c -0.118487,-0.0615 -0.228553,-0.14107 -0.347656,-0.20117 -3.056586,-1.61336 -5.948736,-2.3836 -9.197266,-3.04297 -3.68594,-0.8982 -7.509105,-1.32031 -11.425781,-1.32031 -11.751937,0 -23.00642,3.97908 -30.4375,12.36523 a 12.001195,12.001195 0 0 0 -0.08984,0.10352 c -6.594328,7.61426 -10.138671,17.4977 -10.138671,27.66602 0,10.42966 2.578496,20.28924 8.191406,28.33984 a 12.001195,12.001195 0 0 0 0.08984,0.125 c 6.638984,9.26654 18.192245,13.66992 30.039062,13.66992 8.536509,0 16.89717,-2.38191 23.595703,-7.37109 a 12.001195,12.001195 0 0 0 0.03711,-0.0274 C 104.01331,235.46621 109.36523,228.2277 109.36523,219.625 a 12.001195,12.001195 0 0 0 -11.999996,-12 H 77.011719 v -0.14063 h 42.662111 c -0.14741,12.79485 -4.20932,22.382 -13.24414,31.17774 -9.127219,8.88275 -19.106245,12.91406 -32.365237,12.91406 -7.710487,0 -14.195701,-1.36852 -19.873047,-3.93164 -5.946572,-2.68413 -10.301765,-6.00139 -13.621094,-10.02148 -3.703992,-4.48597 -6.490086,-9.36866 -8.488281,-14.83789 -1.8994,-5.60979 -2.845703,-11.31039 -2.845703,-17.31055 v -0.002 c 0,-12.8492 4.02194,-22.77459 13.052734,-32.10938 8.923988,-9.22439 18.627415,-13.32562 31.775391,-13.32617 z" id="path47"/>
        <path style="baseline-shift:baseline;display:inline;overflow:visible;vector-effect:none;fill:#ff0000;stroke:none;enable-background:accumulate;stop-color:#000000;stop-opacity:1" d="m 17.235576,205.47328 q 0,-23.473 16.428,-40.454 16.428,-16.981 40.4,-16.982 27.827004,0 43.082004,18.646 l -18.607004,19.312 q -0.168,-0.333 -0.67,-0.832 -0.504,-0.666 -2.348,-2.164 -1.676,-1.499 -4.023,-2.664 -2.18,-1.165 -6.37,-1.998 -4.023,-0.999 -8.717,-0.999 -14.081,0 -21.457,8.324 -7.209,8.324 -7.209,19.811 0,12.82 6.035,21.476 6.203,8.658 20.284,8.658 9.723,0 16.428,-4.994 6.873,-5.161 6.873,-10.988 h -32.353 v -24.14 h 65.880004 q 0.838,5.328 0.838,11.321 0,23.973 -16.93,40.455 -16.764004,16.315 -40.736004,16.315 -13.746,0 -24.81,-4.995 -11.064,-4.994 -17.937,-13.318 -6.873,-8.324 -10.56,-18.48 -3.521,-10.321 -3.521,-21.309 z" id="path48"/>
    </g>
    <path style="baseline-shift:baseline;display:inline;overflow:visible;vector-effect:none;fill:#ff0000;stroke:none;stroke-width:24;stroke-linecap:round;stroke-linejoin:round;stroke-dasharray:none;stroke-opacity:1;paint-order:markers stroke fill;enable-background:accumulate;stop-color:#000000" d="m 145.04236,153.55884 q 10.538,-10.94 28.098,-10.94 17.56,0 27.93,10.94 10.536,10.94 10.536,28.84 v 74.42 h -28.598 v -31.49 h -19.902 v 31.492 h -28.6 v -74.42 q 0,-17.902 10.537,-28.841 z m 18.064,46.575 h 19.902 v -17.735 q -0.168,-4.475 -2.844,-7.624 -2.675,-3.315 -7.024,-3.315 -4.515,0 -7.191,3.315 -2.676,3.149 -2.843,7.624 z" id="path40"/>
    <g id="path2" style="stroke:#ffffff;stroke-width:12;stroke-linecap:round;stroke-linejoin:round;stroke-dasharray:none;stroke-opacity:1;paint-order:markers stroke fill" transform="translate(-5.2363281,-7.834841)">
        <path style="baseline-shift:baseline;display:inline;overflow:visible;vector-effect:none;fill:#ffffff;stroke:none;enable-background:accumulate;stop-color:#000000;stop-opacity:1" d="m 326.70898,28.347656 c -10.47045,0 -19.77062,3.51554 -26.45898,10.466797 -6.66833,6.929138 -9.97852,16.315968 -9.97852,26.902344 v 58.685543 a 6.0005976,6.0005976 0 0 0 6,6 h 22.53125 a 6.0005976,6.0005976 0 0 0 6,-6 v -18.83398 h 3.68164 v 18.83398 a 6.0005976,6.0005976 0 0 0 6,6 h 22.53125 a 6.0005976,6.0005976 0 0 0 6,-6 V 65.716797 c 0,-10.576416 -3.30759,-19.953552 -9.96289,-26.88086 -6.60844,-6.967846 -15.88148,-10.488281 -26.34375,-10.488281 z m 0,12 c 7.97635,0 13.36443,2.228594 17.64844,6.751953 a 6.0005976,6.0005976 0 0 0 0.0332,0.03516 c 4.40034,4.57288 6.625,10.348157 6.625,18.582031 v 52.68554 H 340.48437 V 99.568359 a 6.0005976,6.0005976 0 0 0 -6,-6 h -15.68164 a 6.0005976,6.0005976 0 0 0 -6,6 V 118.40234 H 302.27148 V 65.716797 c 0,-8.233762 2.2242,-14.009101 6.625,-18.582031 4.3787,-4.550811 9.83615,-6.78711 17.8125,-6.78711 z m 0,10.742188 c -3.80913,0 -7.8186,1.798247 -10.26562,4.779297 -2.25085,2.671908 -3.50502,6.14876 -3.63477,9.623046 a 6.0005976,6.0005976 0 0 0 -0.004,0.22461 v 13.984375 a 6.0005976,6.0005976 0 0 0 6,6 h 15.67968 a 6.0005976,6.0005976 0 0 0 6,-6 V 65.716797 a 6.0005976,6.0005976 0 0 0 -0.004,-0.22461 c -0.12969,-3.473578 -1.38423,-6.949721 -3.63477,-9.621093 -2.40851,-2.936154 -6.35814,-4.78125 -10.13672,-4.78125 z m 0,12 c 0.7578,0 0.45675,-0.125656 0.86524,0.380859 a 6.0005976,6.0005976 0 0 0 0.0976,0.119141 c 0.53291,0.627238 0.76444,1.135437 0.8125,2.326172 v 7.785156 h -3.67968 v -7.798828 c 0.0497,-1.17785 0.28181,-1.68939 0.8125,-2.314453 a 6.0005976,6.0005976 0 0 0 0.0976,-0.117188 c 0.37016,-0.458977 0.092,-0.380859 0.99414,-0.380859 z" id="path16"/>
        <path style="baseline-shift:baseline;display:inline;overflow:visible;vector-effect:none;fill:#ff0000;stroke:none;enable-background:accumulate;stop-color:#000000;stop-opacity:1" d="m 304.57348,42.974762 q 8.30029,-8.626551 22.1354,-8.626551 13.8351,0 22.00519,8.626551 8.30106,8.626551 8.30106,22.741654 V 124.40189 H 334.48366 V 99.56851 H 318.8031 v 24.83338 H 296.27085 V 65.716416 q 0,-14.115103 8.30185,-22.741654 z m 14.2304,36.727349 h 15.68058 V 65.716416 q -0.13177,-3.529364 -2.24076,-6.011683 -2.1082,-2.614083 -5.53404,-2.614083 -3.5576,0 -5.66581,2.614083 -2.1082,2.483103 -2.23997,6.011683 z" id="path17"/>
    </g>
    <path style="baseline-shift:baseline;display:inline;overflow:visible;vector-effect:none;fill:#ffffff;stroke:none;stroke-width:12;stroke-linecap:round;stroke-linejoin:round;stroke-dasharray:none;stroke-opacity:1;paint-order:markers stroke fill;enable-background:accumulate;stop-color:#000000" d="m 430.43711,21.370237 a 6.0005976,6.0005976 0 0 0 -6,6 v 19.822266 a 6.0005976,6.0005976 0 0 0 6,6 h 7.08398 V 116.5675 a 6.0005976,6.0005976 0 0 0 6,6 h 22.89453 a 6.0005976,6.0005976 0 0 0 6,-6 V 53.192503 h 7.08203 a 6.0005976,6.0005976 0 0 0 6,-6 V 27.370237 a 6.0005976,6.0005976 0 0 0 -6,-6 z m 6,12 h 37.06054 v 7.822266 h -7.08203 a 6.0005976,6.0005976 0 0 0 -6,6 V 110.5675 H 449.52109 V 47.192503 a 6.0005976,6.0005976 0 0 0 -6,-6 h -7.08398 z" id="path14"/>
    <g id="path10-7" style="stroke:#ffffff;stroke-width:12;stroke-linecap:round;stroke-linejoin:round;stroke-dasharray:none;stroke-opacity:1;paint-order:markers stroke fill" transform="matrix(1.0429829,0,0,1.0429829,-20.542673,-9.061615)">
        <path style="baseline-shift:baseline;display:inline;overflow:visible;vector-effect:none;fill:#ffffff;stroke:none;enable-background:accumulate;stop-color:#000000;stop-opacity:1" d="m 394.79687,28.541016 c -12.48702,0 -22.92585,3.625729 -29.54492,11.509765 a 6.0005976,6.0005976 0 0 0 -0.0293,0.03516 c -6.21608,7.520379 -9.11914,17.468548 -9.11914,28.96875 V 119.4707 a 6.0005976,6.0005976 0 0 0 6,6 h 21.50976 a 6.0005976,6.0005976 0 0 0 6,-6 v -10.09179 l 16.24024,18.92968 a 6.0005976,6.0005976 0 0 0 8.58203,0.53907 l 15.24023,-13.80469 a 6.0005976,6.0005976 0 0 0 0.52149,-8.35938 L 419.6582,94.421875 c 3.2362,-2.298587 6.10081,-5.148576 8.39258,-8.591797 3.9586,-5.906626 6.05469,-12.623492 6.05469,-19.609375 0,-10.69056 -3.83814,-20.239222 -11.22461,-27.167969 -7.35941,-6.983681 -17.1278,-10.511718 -28.08399,-10.511718 z m 0,12 c 8.537,0 14.74181,2.38466 19.83594,7.224609 a 6.0005976,6.0005976 0 0 0 0.0293,0.0293 c 5.05789,4.738805 7.44336,10.386551 7.44336,18.425781 0,4.682838 -1.26364,8.811795 -4.02344,12.929688 a 6.0005976,6.0005976 0 0 0 -0.0117,0.01953 c -2.65659,3.996821 -5.76669,6.447288 -9.82031,7.908203 a 6.0005976,6.0005976 0 0 0 -2.51563,9.554687 l 11.55274,13.441406 -6.33984,5.74219 -18.48438,-21.546877 -2.13281,-9.625 a 6.0005976,6.0005976 0 0 0 -0.72266,-1.162109 c 1.72373,0.492595 3.50179,0.818359 5.3125,0.818359 4.66172,0 9.28992,-1.678772 12.5586,-4.929687 3.4309,-3.337014 5.11914,-8.150791 5.11914,-13.027344 0,-4.876215 -1.68841,-9.69049 -5.11914,-13.027344 -3.26855,-3.251533 -7.8966,-4.929687 -12.5586,-4.929687 -4.68352,0 -9.3176,1.671819 -12.64844,4.888672 a 6.0005976,6.0005976 0 0 0 -0.0586,0.134765 l -0.0215,-0.05469 c -3.35276,3.362036 -4.94727,8.138058 -4.94727,12.988281 0,4.850222 1.59493,9.625896 4.94727,12.988281 a 6.0005976,6.0005976 0 0 0 0.0801,0.08008 c 0.27882,0.269216 0.61576,0.461481 0.91211,0.708985 a 6.0005976,6.0005976 0 0 0 -5.57031,5.822265 v 27.52734 h -9.50976 V 69.054687 c 0,-9.52136 2.25411,-16.328554 6.3496,-21.296875 3.8683,-4.599615 10.05855,-7.216796 20.34375,-7.216796 z m 0.12305,19.845703 c 2.19944,0 3.11936,0.44842 4.10938,1.441406 a 6.0005976,6.0005976 0 0 0 0.0801,0.08008 c 0.96872,0.935559 1.48829,1.934867 1.48829,4.435547 0,2.501329 -0.51974,3.500147 -1.48829,4.435547 a 6.0005976,6.0005976 0 0 0 -0.0801,0.08008 c -0.98988,0.992625 -1.90965,1.441406 -4.10938,1.441406 -2.16637,0 -3.18392,-0.463301 -4.25976,-1.486328 -0.88611,-0.903117 -1.41602,-1.959815 -1.41602,-4.470703 0,-2.509114 0.52755,-3.566665 1.41211,-4.46875 1.07705,-1.025512 2.09462,-1.488281 4.26367,-1.488281 z" id="path12"/>
        <path style="baseline-shift:baseline;display:inline;overflow:visible;vector-effect:none;fill:#ff0000;stroke:none;enable-background:accumulate;stop-color:#000000;stop-opacity:1" d="m 386.93074,97.036099 -2.45818,-11.093202 h -0.85997 V 119.47105 H 362.10324 V 69.054917 q 0,-15.777997 7.74335,-25.146113 7.86503,-9.368117 24.95066,-9.368117 14.62597,0 23.96754,8.875446 9.34082,8.751541 9.34082,22.804453 0,8.751541 -5.0388,16.26993 -4.9164,7.396696 -12.78289,10.231763 l 15.36351,17.873331 -15.24034,13.80583 z m -0.49119,-39.444625 q -3.19573,3.204573 -3.19573,8.751542 0,5.546968 3.19573,8.752278 3.31889,3.204572 8.48086,3.204572 5.16199,0 8.3577,-3.204572 3.31889,-3.20531 3.31889,-8.752278 0,-5.546232 -3.31889,-8.751542 -3.19571,-3.205308 -8.3577,-3.205308 -5.16272,0 -8.4816,3.205308 z" id="path13"/>
    </g>
    <path style="baseline-shift:baseline;display:inline;overflow:visible;vector-effect:none;fill:#ff0000;stroke:none;stroke-width:12;stroke-linecap:round;stroke-linejoin:round;stroke-dasharray:none;stroke-opacity:1;paint-order:markers stroke fill;enable-background:accumulate;stop-color:#000000" d="M 443.5203,47.192239 H 430.43714 V 27.370638 h 49.0605 V 47.192239 H 466.41526 V 116.56705 H 443.5203 Z" id="path15"/>
    <g id="path1-2" style="stroke:#ffffff;stroke-width:12;stroke-linecap:round;stroke-linejoin:round;stroke-dasharray:none;stroke-opacity:1;paint-order:markers stroke fill" transform="translate(1.1636679,-7.834841)">
        <path style="baseline-shift:baseline;display:inline;overflow:visible;vector-effect:none;fill:#ffffff;stroke:none;enable-background:accumulate;stop-color:#000000;stop-opacity:1" d="m 690.18555,32.929687 c -13.41477,5.6e-4 -25.40629,5.030922 -34.64258,14.578125 -9.18289,9.492003 -14.02149,21.394896 -14.02149,34.542969 0,6.140421 0.99249,12.154026 2.96485,17.935547 a 6.0005976,6.0005976 0 0 0 0.0391,0.111332 c 2.07402,5.71297 5.07403,10.96264 8.94141,15.64648 4.07095,4.93039 9.37145,8.82442 15.62304,11.64649 6.38691,2.88346 13.48902,4.28125 21.09571,4.28124 13.35925,0 25.35273,-4.78653 34.76757,-13.94921 9.51536,-9.26356 14.5254,-21.260869 14.5254,-34.671879 0,-3.279184 -0.2281,-6.423859 -0.70118,-9.43164 a 6.0005976,6.0005976 0 0 0 -5.92773,-5.066407 h -17.04297 l 11.04297,-11.460937 a 6.0005976,6.0005976 0 0 0 0.32422,-7.962891 C 718.40645,38.412653 705.45322,32.929688 690.18555,32.929687 Z m 0,12 c 10.34433,10e-7 17.9118,2.75571 23.92187,8.09375 l -5.99805,6.22461 c -0.70407,-0.465702 -1.34144,-1.019994 -2.10546,-1.402344 -1.88884,-0.993087 -3.84889,-1.538909 -6.14454,-2.003906 -2.5204,-0.618597 -5.1648,-0.914063 -7.9121,-0.914063 -8.22991,0 -15.65103,2.686871 -20.59961,8.271485 a 6.0005976,6.0005976 0 0 0 -0.0449,0.05078 c -4.5023,5.19866 -6.87695,11.796329 -6.87695,18.800781 0,7.357962 1.79405,14.082358 5.60938,19.55469 a 6.0005976,6.0005976 0 0 0 0.0449,0.0625 c 4.35645,6.08064 11.82812,9.00586 20.10547,9.00586 5.89366,0 11.44782,-1.60806 15.91797,-4.9375 a 6.0005976,6.0005976 0 0 0 0.0176,-0.0137 c 4.30699,-3.23417 7.5586,-7.771423 7.5586,-13.04688 a 6.0005976,6.0005976 0 0 0 -6,-6 h -18.28907 v -6.123047 h 37.9043 c 0.041,0.854821 0.1836,1.600091 0.1836,2.498047 0,10.586163 -3.46475,18.83914 -10.89649,26.07422 -7.36557,7.1674 -15.76055,10.54687 -26.39648,10.54688 -6.15318,0 -11.46995,-1.10218 -16.15821,-3.21875 -4.82286,-2.17692 -8.49996,-4.94804 -11.30859,-8.34961 -2.99958,-3.63284 -5.2732,-7.61669 -6.88867,-12.04688 -1.5399,-4.532712 -2.3086,-9.166403 -2.3086,-14.00586 0,-10.348602 3.38481,-18.693093 10.64649,-26.199219 7.20828,-7.450924 15.43617,-10.921434 26.01758,-10.921875 z m 19.89257,15.591797 0.2168,0.183594 c -0.0252,-0.02252 -0.0587,-0.03428 -0.084,-0.05664 -0.0486,-0.039 -0.0824,-0.08598 -0.13282,-0.126953 z m 2.20899,2.025391 0.55469,0.634766 c -0.1099,-0.145223 -0.18147,-0.148186 -0.28321,-0.273438 -0.083,-0.08263 -0.19055,-0.280882 -0.27148,-0.361328 z m -20.33984,4.380859 c 1.92372,0 3.61581,0.205761 5.0996,0.574219 a 6.0005976,6.0005976 0 0 0 0.2754,0.06055 c 1.76763,0.351416 2.91891,0.798071 3.125,0.908203 a 6.0005976,6.0005976 0 0 0 0.16015,0.08203 h -16.7793 c 2.048,-1.027206 4.58721,-1.625 8.11915,-1.625 z m -14.55665,9.125 v 13.394532 c -0.62358,-2.139603 -0.96484,-4.567731 -0.96484,-7.396485 0,-2.253971 0.31308,-4.210787 0.96484,-5.998047 z" id="path18"/>
        <path style="baseline-shift:baseline;display:inline;overflow:visible;vector-effect:none;fill:#ff0000;stroke:none;enable-background:accumulate;stop-color:#000000;stop-opacity:1" d="m 647.52156,82.050754 q 0,-17.622507 12.33343,-30.371103 12.33343,-12.748596 30.33056,-12.749346 20.8913,0 32.3441,13.998605 l -13.96933,14.49861 q -0.12613,-0.250002 -0.50302,-0.62463 -0.37837,-0.500003 -1.76277,-1.624636 -1.25827,-1.125385 -3.02029,-2.000016 -1.63665,-0.874625 -4.78232,-1.500004 -3.02029,-0.750006 -6.54435,-0.750006 -10.5714,0 -16.10897,6.249297 -5.41221,6.249297 -5.41221,14.873237 0,9.624699 4.53081,16.123247 4.65694,6.500051 15.22835,6.500051 7.29961,0 12.33343,-3.74928 5.15995,-3.874662 5.15995,-8.249319 H 683.3897 V 74.552207 h 49.45984 q 0.62914,4.00003 0.62914,8.499313 0,17.99788 -12.71032,30.37186 -12.58568,12.24859 -30.58281,12.24859 -10.3199,0 -18.62627,-3.75003 -8.30637,-3.74928 -13.46632,-9.99857 -5.15995,-6.2493 -7.92799,-13.873987 -2.64341,-7.748558 -2.64341,-15.99787 z" id="path20"/>
    </g>
    <g id="path33" style="stroke:#ffffff;stroke-width:12;stroke-linecap:round;stroke-linejoin:round;stroke-dasharray:none;stroke-opacity:1;paint-order:markers stroke fill" transform="translate(1.1636679,-7.834841)">
        <path style="baseline-shift:baseline;display:inline;overflow:visible;vector-effect:none;fill:#ffffff;stroke:none;enable-background:accumulate;stop-color:#000000;stop-opacity:1" d="m 605.88086,29.460937 a 6.0006,6.0006 0 0 0 -1.48633,0.04492 l -13.23633,2.060547 a 6.0006,6.0006 0 0 0 -1.51758,0.445313 l -8.27148,3.68164 a 6.0006,6.0006 0 0 0 -1.82812,1.261719 l -5.26368,5.322266 a 6.0006,6.0006 0 0 0 -1.0625,1.46289 l -3.30468,6.388672 -3.30274,6.386719 a 6.0006,6.0006 0 0 0 -0.66992,2.755859 v 32.564453 32.564455 a 6.0006,6.0006 0 0 0 6,6 h 12.31055 12.31054 a 6.0006,6.0006 0 0 0 6,-5.99414 l 0.0332,-30.77344 0.0351,-30.77539 a 6.0006,6.0006 0 0 0 -0.0488,-0.765625 l 0.0254,0.208984 0.75781,-1.05664 2.63086,-0.839844 1.375,0.06055 1.90429,0.6875 1.42969,1.11914 V 91.875 124.40039 a 6.0006,6.0006 0 0 0 6,6 h 12.31055 12.30859 a 6.0006,6.0006 0 0 0 6,-6 V 90.613281 56.828125 a 6.0006,6.0006 0 0 0 -0.67578,-2.767578 l -4.10547,-7.902344 a 6.0006,6.0006 0 0 0 -1.0957,-1.490234 l -5.19922,-5.166016 a 6.0006,6.0006 0 0 0 -1.125,-0.878906 l -7.68945,-4.644531 a 6.0006,6.0006 0 0 0 -0.84375,-0.423829 l -6.04688,-2.457031 A 6.0006,6.0006 0 0 0 618.8457,30.683594 Z M 605.5,41.478516 l 11.33984,1.068359 4.79102,1.947266 6.66601,4.027343 4.0254,4 2.99804,5.771485 v 32.320312 27.787109 h -6.30859 -6.31055 V 91.875 59.349609 A 6.0006,6.0006 0 0 0 620.40039,54.625 l -4.49023,-3.513672 A 6.0006,6.0006 0 0 0 614.25,50.193359 l -3.66797,-1.326172 a 6.0006,6.0006 0 0 0 -1.77539,-0.349609 l -3.35742,-0.148437 a 6.0006,6.0006 0 0 0 -2.08399,0.279296 l -5.54687,1.767579 a 6.0006,6.0006 0 0 0 -3.05664,2.224609 l -3.28516,4.589844 a 6.0006,6.0006 0 0 0 -1.07422,4.251953 l 0.22266,1.746094 -0.0332,30.390625 -0.0274,24.781249 h -6.3164 -6.31055 V 91.835937 60.730469 l 2.63281,-5.089844 2.88281,-5.576172 3.82422,-3.867187 6.51368,-2.896485 z" id="path21"/>
        <path style="baseline-shift:baseline;display:inline;overflow:visible;vector-effect:none;fill:#ff0000;stroke:none;enable-background:accumulate;stop-color:#000000;stop-opacity:1" d="M 571.93771,91.835848 V 59.271306 l 3.30297,-6.38726 3.303,-6.387289 5.2632,-5.322189 8.27328,-3.680352 13.23744,-2.060518 12.96382,1.223169 6.04599,2.456471 7.68784,4.645589 5.20008,5.166031 4.10551,7.902428 V 90.613912 124.40042 H 629.01093 616.70101 V 91.874893 59.349366 l -4.48859,-3.513768 -3.66768,-1.324671 -3.35725,-0.146938 -5.54637,1.768559 -3.28618,4.590548 0.27112,2.12776 -0.0342,30.774792 -0.0342,30.774772 h -12.30997 -12.3099 z" id="path22"/>
    </g>
    <path style="baseline-shift:baseline;display:inline;overflow:visible;vector-effect:none;fill:#ffffff;stroke:none;stroke-width:12;stroke-linecap:round;stroke-linejoin:round;stroke-dasharray:none;stroke-opacity:1;paint-order:markers stroke fill;enable-background:accumulate;stop-color:#000000" d="m 507.16172,20.797971 c -4.44792,-0.02495 -9.06791,0.102968 -13.25977,0.712891 -2.94908,0.429035 -5.13643,2.95738 -5.13672,5.9375 0,21.481763 -1.34962,42.976987 0.0117,65.050777 0.0217,0.353594 0.0746,0.704575 0.1582,1.04883 0.786,3.23117 2.21329,6.546381 3.55079,9.132821 1.33824,2.58787 2.77929,4.37516 4.39843,6.23828 1.66814,1.91947 3.46473,3.99077 6.15039,5.89648 2.85244,2.02402 5.97829,3.35605 8.24805,4.40039 2.74063,1.26102 4.75048,1.29816 5.52539,1.49219 1.10243,0.27602 2.75127,0.89859 5.06836,1.23633 2.6428,0.38532 4.73367,0.24002 6.19727,0.30468 1.23862,0.0548 3.43732,0.56807 6.53906,0.21485 2.07958,-0.23682 5.56208,0.0524 9.68164,-1.0918 3.62267,-1.00619 6.63526,-2.71063 9.24609,-4.34961 4.88719,-3.06803 6.67306,-7.21807 8.21875,-8.97851 2.48126,-2.826 3.64311,-5.09758 4.8711,-8.357431 2.63645,-6.99867 3.19672,-16.097181 3.47851,-24.001949 0.2818,-7.904767 0.0352,-14.412109 0.0352,-14.412109 l 0.002,0.380859 0.89649,-34.283203 c 0.0901,-3.463096 -2.7628,-6.28284 -6.22461,-6.152344 l -23.94922,0.90625 c -3.09864,0.117957 -5.59705,2.577419 -5.76367,5.673828 -1.18865,22.151095 0.9584,43.051982 -1.61524,63.048829 -0.0639,0.199727 -0.0968,0.299575 -0.14453,0.447265 -0.28784,0.03849 -0.51789,0.09105 -0.83789,0.0918 -1.20679,0.0028 -2.64429,-0.129701 -3.23047,-0.220703 -1.83002,-0.284118 -3.13584,-0.241991 -4.0957,-0.337891 -0.21856,-0.02183 -0.23233,-0.05978 -0.36719,-0.105468 -0.0702,-0.12187 -0.33659,-0.35446 -0.34766,-0.480469 -0.17456,-17.390899 0.51524,-37.21607 0.89844,-64.923493 0.2958,-3.500573 -2.46546,-4.316285 -5.97851,-4.316742 -3.50023,0 -7.7767,-0.178179 -12.22461,-0.203125 z m -0.21094,12.056641 c 2.02481,0.0078 3.95658,0.03731 5.98437,0.07031 -1.62709,21.116718 -2.13947,38.81531 -0.42187,58.365234 0.32921,3.747653 2.42445,6.867973 4.64648,8.878914 2.72274,2.46407 5.07432,2.42438 6.82813,2.59961 1.75381,0.17522 3.28468,0.22866 3.44726,0.2539 1.4135,0.21944 3.16158,0.3678 5.09961,0.36328 1.93804,-0.005 3.76524,0.14361 6.51953,-1.11132 2.40581,-1.09617 4.03877,-3.239831 4.80469,-4.843751 0.76593,-1.60393 1.02647,-2.81002 1.26172,-3.54688 0.10811,-0.338782 0.18589,-0.686504 0.23242,-1.03906 2.65622,-20.102022 1.06614,-39.648857 1.61719,-58.943365 l 11.9082,-0.449219 -0.72851,27.888672 c -0.003,0.126943 -0.003,0.25396 0.002,0.38086 0,0 0.22949,6.111574 -0.0352,13.535156 -0.26464,7.423582 -1.27212,16.364211 -2.71679,20.199226 -1.22927,3.26323 -0.54036,2.25783 -2.65821,4.669921 -3.05337,3.47759 -4.56358,6.09625 -5.58007,6.73437 -2.19929,1.38068 -4.22879,2.43557 -6.07813,2.94922 -1.35314,0.37584 -4.26435,0.32464 -7.82812,0.73047 -0.6082,0.0693 -2.16069,-0.16912 -4.65235,-0.2793 -2.26668,-0.10014 -3.94207,-0.0361 -4.99414,-0.18945 v -0.002 c -0.72709,-0.10598 -2.00298,-0.5308 -3.88476,-1.00196 -2.20931,-0.55317 -3.37171,-0.72707 -3.42578,-0.75195 -2.32613,-1.07028 -5.04689,-2.38351 -6.32032,-3.28711 -1.44014,-1.02191 -2.38673,-2.08144 -4.03711,-3.98047 -1.5449,-1.777691 -1.91946,-2.182181 -2.79687,-3.878901 -0.83224,-1.60938 -1.98859,-4.56533 -2.41602,-6.119147 -1.12003,-19.012753 -0.22914,-38.214067 -0.0488,-57.900391 2.09044,-0.101061 3.94047,-0.303887 6.27149,-0.294922 z" id="path23"/>
    <path style="baseline-shift:baseline;display:inline;overflow:visible;vector-effect:none;fill:#ff0000;stroke:none;stroke-width:12;stroke-linecap:round;stroke-linejoin:round;stroke-dasharray:none;stroke-opacity:1;paint-order:markers stroke fill;enable-background:accumulate;stop-color:#000000" d="m 518.07281,115.46739 c -1.49211,-0.3736 -2.88548,-1.05832 -4.28283,-1.70127 -2.29794,-1.05731 -5.22037,-2.38036 -7.2833,-3.84417 -2.0629,-1.46381 -3.43491,-3.02948 -5.09417,-4.93873 -1.58202,-1.8204 -2.48928,-2.91638 -3.59711,-5.058681 -1.10783,-2.14231 -1.65884,-4.083451 -3.04982,-7.795113 V 27.254465 l 24.61982,-0.254128 -0.89527,63.765391 c -0.0283,2.016298 1.19975,3.601421 2.69488,4.954511 1.49513,1.35309 4.79162,2.031572 6.78423,2.340932 1.99967,0.31044 6.75573,-0.407372 8.5972,-1.246402 1.84145,-0.83903 2.22317,-2.82749 2.83862,-4.755241 l 1.49705,-65.101076 23.94836,-0.1314 0.0722,35.830959 c 0,0 -0.21327,23.498425 -3.13344,35.10608 -0.85031,3.379969 -1.85262,5.830099 -4.15217,8.449139 -2.29953,2.61902 -4.33376,3.87558 -7.2856,5.72866 -2.40522,1.50996 -4.92538,2.88825 -7.6617,3.64826 -2.73635,0.76002 -4.70324,0.72734 -7.52492,1.04866 -1.85497,0.21124 -5.15514,0.0855 -7.02028,0.003 -1.86514,-0.0824 -3.6913,-0.0911 -5.53873,-0.3605 -1.52209,-0.22186 -3.04091,-0.44035 -4.53302,-0.81394 z" id="path24"/>
    <g id="path19" style="stroke:#ffffff;stroke-width:12;stroke-linecap:round;stroke-linejoin:round;stroke-dasharray:none;stroke-opacity:1;paint-order:markers stroke fill" transform="translate(-5.2363281,-7.834841)">
        <path style="baseline-shift:baseline;display:inline;overflow:visible;vector-effect:none;fill:#ffffff;stroke:none;enable-background:accumulate;stop-color:#000000;stop-opacity:1" d="m 285.27539,7.8515625 -11.74414,0.8789063 h -13.5332 a 6.0005976,6.0005976 0 0 0 -6,6.0000002 v 24.61914 18.621094 h -4.07032 -4.07226 V 39.349609 14.730469 a 6.0005976,6.0005976 0 0 0 -6,-6.0000002 h -12.31055 -12.30859 a 6.0005976,6.0005976 0 0 0 -6,6.0000002 v 54.833984 54.835937 a 6.0005976,6.0005976 0 0 0 6,6 h 12.30859 12.31055 a 6.0005976,6.0005976 0 0 0 6,-6 V 105.37695 92.351562 h 4.07226 4.07032 v 13.025388 19.02344 a 6.0005976,6.0005976 0 0 0 6,6 h 12.31054 12.31055 a 6.0005976,6.0005976 0 0 0 6,-6 V 86.689453 49.072266 l 1.10156,-35.048828 a 6.0005976,6.0005976 0 0 0 -6.44531,-6.1718755 z m -5.75781,12.4648435 -0.89649,28.472656 a 6.0005976,6.0005976 0 0 0 -0.002,0.189454 V 86.689453 118.40039 H 272.30854 265.998 V 105.37695 86.351562 a 6.0005976,6.0005976 0 0 0 -6,-6 h -10.07032 -10.07226 a 6.0005976,6.0005976 0 0 0 -6,6 v 19.025388 13.02344 h -6.31055 -6.30859 V 69.564453 20.730469 h 6.30859 6.31055 v 18.61914 24.621094 a 6.0005976,6.0005976 0 0 0 6,6 h 10.07226 10.07032 a 6.0005976,6.0005976 0 0 0 6,-6 V 39.349609 20.730469 h 7.75781 a 6.0005976,6.0005976 0 0 0 0.44726,-0.01758 z" id="path25"/>
        <path style="baseline-shift:baseline;display:inline;overflow:visible;vector-effect:none;fill:#ff0000;stroke:none;enable-background:accumulate;stop-color:#000000;stop-opacity:1" d="M 215.23555,69.565374 V 14.73029 h 12.3099 12.30992 v 24.61985 24.619809 h 10.07175 10.07175 V 39.35012 14.73029 h 13.7574 l 11.96687,-0.89526 -1.10447,35.143139 v 37.711118 37.711133 h -12.3099 -12.3099 V 105.376 86.351598 H 249.92712 239.85537 V 105.376 124.40042 h -12.30992 -12.3099 z" id="path26"/>
    </g>
</svg>
