<?xml version='1.0' encoding='utf-8'?>
<svg xmlns:xlink="http://www.w3.org/1999/xlink" xmlns="http://www.w3.org/2000/svg" xmlns:rdf="http://www.w3.org/1999/02/22-rdf-syntax-ns#" xmlns:cc="http://creativecommons.org/ns#" xmlns:dc="http://purl.org/dc/elements/1.1/" width="600" height="84.07446378720881" viewBox="0 0 151.70703 21.257812" version="1.1" id="svg8">
    <defs id="defs2">
        <linearGradient id="linearGradient863">
            <stop style="stop-color:#87aade;stop-opacity:1" offset="0" id="stop859"/>
            <stop id="stop867" offset="0.70000005" style="stop-color:#bfcdde;stop-opacity:1"/>
            <stop style="stop-color:#89abde;stop-opacity:1" offset="1" id="stop861"/>
        </linearGradient>
        <rect x="27.796032" y="54.522984" width="332.48331" height="65.213768" id="rect32"/>
        <linearGradient xlink:href="#linearGradient863" id="linearGradient1358" gradientUnits="userSpaceOnUse" x1="188.83083" y1="101.09003" x2="188.83083" y2="67.948616"/>
        <linearGradient y2="67.948616" x2="188.83083" y1="101.09003" x1="188.83083" gradientUnits="userSpaceOnUse" id="linearGradient933" xlink:href="#linearGradient863"/>
        <linearGradient y2="67.948616" x2="188.83083" y1="101.09003" x1="188.83083" gradientUnits="userSpaceOnUse" id="linearGradient935" xlink:href="#linearGradient863"/>
        <linearGradient y2="67.948616" x2="188.83083" y1="101.09003" x1="188.83083" gradientUnits="userSpaceOnUse" id="linearGradient937" xlink:href="#linearGradient863"/>
        <linearGradient y2="67.948616" x2="188.83083" y1="101.09003" x1="188.83083" gradientUnits="userSpaceOnUse" id="linearGradient939" xlink:href="#linearGradient863"/>
        <linearGradient y2="67.948616" x2="188.83083" y1="101.09003" x1="188.83083" gradientUnits="userSpaceOnUse" id="linearGradient941" xlink:href="#linearGradient863"/>
        <linearGradient y2="67.948616" x2="188.83083" y1="101.09003" x1="188.83083" gradientUnits="userSpaceOnUse" id="linearGradient943" xlink:href="#linearGradient863"/>
        <linearGradient y2="67.948616" x2="188.83083" y1="101.09003" x1="188.83083" gradientUnits="userSpaceOnUse" id="linearGradient945" xlink:href="#linearGradient863"/>
        <linearGradient y2="67.948616" x2="188.83083" y1="101.09003" x1="188.83083" gradientUnits="userSpaceOnUse" id="linearGradient947" xlink:href="#linearGradient863"/>
        <linearGradient y2="67.948616" x2="188.83083" y1="101.09003" x1="188.83083" gradientUnits="userSpaceOnUse" id="linearGradient949" xlink:href="#linearGradient863"/>
        <linearGradient y2="67.948616" x2="188.83083" y1="101.09003" x1="188.83083" gradientUnits="userSpaceOnUse" id="linearGradient951" xlink:href="#linearGradient863"/>
        <linearGradient y2="67.948616" x2="188.83083" y1="101.09003" x1="188.83083" gradientUnits="userSpaceOnUse" id="linearGradient953" xlink:href="#linearGradient863"/>
    </defs>
    <metadata id="metadata5">
        <rdf:RDF>
            <cc:Work rdf:about="">
                <dc:format>image/svg+xml</dc:format>
                <dc:type rdf:resource="http://purl.org/dc/dcmitype/StillImage"/>
            </cc:Work>
        </rdf:RDF>
    </metadata>
    <g id="g33" transform="translate(-20.619141,-75.044922)">
        <path style="font-size:50.8px;line-height:1.25;font-family:'Serpentine Sans ICG';baseline-shift:baseline;white-space:pre;display:inline;overflow:visible;vector-effect:none;fill:#ffffff;stroke-linejoin:round;paint-order:stroke fill markers;enable-background:accumulate;stop-color:#000000" d="m 23.119141,75.044922 a 2.50025,2.50025 0 0 0 -2.5,2.5 v 16.257812 a 2.50025,2.50025 0 0 0 2.5,2.5 h 6.197265 a 2.50025,2.50025 0 0 0 2.5,-2.5 V 77.544922 a 2.50025,2.50025 0 0 0 -2.5,-2.5 z m 2.5,5 h 1.197265 v 11.257812 h -1.197265 z" id="path12"/>
        <path style="font-size:50.8px;line-height:1.25;font-family:'Serpentine Sans ICG';baseline-shift:baseline;white-space:pre;display:inline;overflow:visible;vector-effect:none;fill:#ffffff;stroke-linejoin:round;paint-order:stroke fill markers;enable-background:accumulate;stop-color:#000000" d="m 31.84375,87.035156 a 2.50025,2.50025 0 0 0 -2.5,2.5 v 4.267578 a 2.50025,2.50025 0 0 0 2.5,2.5 h 5.994141 a 2.50025,2.50025 0 0 0 2.5,-2.5 v -4.267578 a 2.50025,2.50025 0 0 0 -2.5,-2.5 z" id="path14"/>
        <path style="font-size:50.8px;line-height:1.25;font-family:'Serpentine Sans ICG';baseline-shift:baseline;white-space:pre;display:inline;overflow:visible;vector-effect:none;fill:#ffffff;stroke-linejoin:round;paint-order:stroke fill markers;enable-background:accumulate;stop-color:#000000" d="m 40.382812,75.044922 a 2.50025,2.50025 0 0 0 -2.5,2.5 v 16.257812 a 2.50025,2.50025 0 0 0 2.5,2.5 h 6.197266 a 2.50025,2.50025 0 0 0 2.355469,-2.355468 l 0.539062,1.021484 a 2.50025,2.50025 0 0 0 2.210938,1.333984 h 7.21289 a 2.50025,2.50025 0 0 0 2.15625,-3.767578 l -5.785156,-9.84375 3.21875,-3.4375 a 2.50025,2.50025 0 0 0 -1.824219,-4.208984 h -3.861328 a 2.50025,2.50025 0 0 0 -1.90039,0.876953 l -1.822266,2.134766 v -0.511719 a 2.50025,2.50025 0 0 0 -2.5,-2.5 z m 2.5,5 h 1.197266 v 4.791015 a 2.50025,2.50025 0 0 0 1.087891,1.560547 l -0.453125,0.507813 a 2.50025,2.50025 0 0 0 -0.634766,1.666015 v 2.732422 h -1.197266 z m 7.494141,4.191406 4.154297,7.066406 h -1.337891 l -2.929687,-5.550781 a 2.50025,2.50025 0 0 0 -0.742188,-0.511719 z" id="path16"/>
        <path style="font-size:50.8px;line-height:1.25;font-family:'Serpentine Sans ICG';baseline-shift:baseline;white-space:pre;display:inline;overflow:visible;vector-effect:none;fill:#ffffff;stroke-linejoin:round;paint-order:stroke fill markers;enable-background:accumulate;stop-color:#000000" d="m 60.964844,87.035156 a 2.50025,2.50025 0 0 0 -2.5,2.5 v 4.267578 a 2.50025,2.50025 0 0 0 2.5,2.5 h 5.99414 a 2.50025,2.50025 0 0 0 2.5,-2.5 v -4.267578 a 2.50025,2.50025 0 0 0 -2.5,-2.5 z" id="path18"/>
        <path style="font-size:50.8px;line-height:1.25;font-family:'Serpentine Sans ICG';baseline-shift:baseline;white-space:pre;display:inline;overflow:visible;vector-effect:none;fill:#ffffff;stroke-linejoin:round;paint-order:stroke fill markers;enable-background:accumulate;stop-color:#000000" d="m 69.503906,75.044922 a 2.50025,2.50025 0 0 0 -2.5,2.5 v 16.257812 a 2.50025,2.50025 0 0 0 2.5,2.5 h 14.070313 a 2.50025,2.50025 0 0 0 2.5,-2.5 v -2.693359 a 2.50025,2.50025 0 0 0 -2.5,-2.5 h -0.0293 a 2.50025,2.50025 0 0 0 1.86914,-1.869141 v -2.691406 a 2.50025,2.50025 0 0 0 -1.574218,-1.576172 2.50025,2.50025 0 0 0 2.234375,-2.234375 v -2.693359 a 2.50025,2.50025 0 0 0 -2.5,-2.5 z m 2.5,5 h 1.390625 a 2.50025,2.50025 0 0 0 -0.193359,0.193359 v 3.810547 a 2.50025,2.50025 0 0 0 1.345703,1.345703 2.50025,2.50025 0 0 0 -1.345703,1.345703 v 4.369141 a 2.50025,2.50025 0 0 0 0.193359,0.193359 h -1.390625 z" id="path20"/>
        <path style="font-size:50.8px;line-height:1.25;font-family:'Serpentine Sans ICG';baseline-shift:baseline;white-space:pre;display:inline;overflow:visible;vector-effect:none;fill:#ffffff;stroke-linejoin:round;paint-order:stroke fill markers;enable-background:accumulate;stop-color:#000000" d="m 85.769531,87.035156 a 2.50025,2.50025 0 0 0 -2.5,2.5 v 4.267578 a 2.50025,2.50025 0 0 0 2.5,2.5 h 5.994141 a 2.50025,2.50025 0 0 0 2.5,-2.5 v -4.267578 a 2.50025,2.50025 0 0 0 -2.5,-2.5 z" id="path22"/>
        <path style="font-size:50.8px;line-height:1.25;font-family:'Serpentine Sans ICG';baseline-shift:baseline;white-space:pre;display:inline;overflow:visible;vector-effect:none;fill:#ffffff;stroke-linejoin:round;paint-order:stroke fill markers;enable-background:accumulate;stop-color:#000000" d="m 94.308594,75.044922 a 2.50025,2.50025 0 0 0 -2.5,2.5 v 16.257812 a 2.50025,2.50025 0 0 0 2.5,2.5 H 97 a 2.50025,2.50025 0 0 0 1.960937,-1.960937 l 0.0918,0.267578 a 2.50025,2.50025 0 0 0 2.367183,1.693359 h 4.29297 a 2.50025,2.50025 0 0 0 2.35742,-1.671875 l 0.13477,-0.382812 a 2.50025,2.50025 0 0 0 2.05469,2.054687 h 6.19726 a 2.50025,2.50025 0 0 0 2.5,-2.5 V 77.544922 a 2.50025,2.50025 0 0 0 -2.5,-2.5 h -7.77344 a 2.50025,2.50025 0 0 0 -2.35351,1.658203 L 105.42969,79.214844 104.60156,76.75 a 2.50025,2.50025 0 0 0 -2.36914,-1.705078 z m 4.90039,5 h 1.226566 l 2.52539,7.517578 a 2.50025,2.50025 0 0 0 1.83203,1.316406 l -0.85156,2.423828 h -0.73243 L 99.416016,80.193359 a 2.50025,2.50025 0 0 0 -0.207032,-0.148437 z m 12.595706,0 h 2.15234 v 11.257812 h -1.19726 V 81 a 2.50025,2.50025 0 0 0 -0.95508,-0.955078 z" id="path24"/>
        <path style="font-size:50.8px;line-height:1.25;font-family:'Serpentine Sans ICG';baseline-shift:baseline;white-space:pre;display:inline;overflow:visible;vector-effect:none;fill:#ffffff;stroke-linejoin:round;paint-order:stroke fill markers;enable-background:accumulate;stop-color:#000000" d="m 119.00781,87.035156 a 2.50025,2.50025 0 0 0 -2.5,2.5 v 4.267578 a 2.50025,2.50025 0 0 0 2.5,2.5 h 5.99414 a 2.50025,2.50025 0 0 0 2.5,-2.5 v -4.267578 a 2.50025,2.50025 0 0 0 -2.5,-2.5 z" id="path26"/>
        <path style="font-size:50.8px;line-height:1.25;font-family:'Serpentine Sans ICG';baseline-shift:baseline;white-space:pre;display:inline;overflow:visible;vector-effect:none;fill:#ffffff;stroke-linejoin:round;paint-order:stroke fill markers;enable-background:accumulate;stop-color:#000000" d="m 127.54688,75.044922 a 2.50025,2.50025 0 0 0 -2.5,2.5 v 16.257812 a 2.50025,2.50025 0 0 0 2.5,2.5 h 14.07031 a 2.50025,2.50025 0 0 0 2.5,-2.5 v -2.693359 a 2.50025,2.50025 0 0 0 -2.5,-2.5 h -0.0293 a 2.50025,2.50025 0 0 0 1.86914,-1.869141 v -2.691406 a 2.50025,2.50025 0 0 0 -1.57422,-1.576172 2.50025,2.50025 0 0 0 2.23438,-2.234375 v -2.693359 a 2.50025,2.50025 0 0 0 -2.5,-2.5 z m 2.49999,5 h 1.39063 a 2.50025,2.50025 0 0 0 -0.19336,0.193359 v 3.810547 a 2.50025,2.50025 0 0 0 1.3457,1.345703 2.50025,2.50025 0 0 0 -1.3457,1.345703 v 4.369141 a 2.50025,2.50025 0 0 0 0.19336,0.193359 h -1.39063 z" id="path28"/>
        <path style="font-size:50.8px;line-height:1.25;font-family:'Serpentine Sans ICG';baseline-shift:baseline;white-space:pre;display:inline;overflow:visible;vector-effect:none;fill:#ffffff;stroke-linejoin:round;paint-order:stroke fill markers;enable-background:accumulate;stop-color:#000000" d="m 143.8125,87.035156 a 2.50025,2.50025 0 0 0 -2.5,2.5 v 4.267578 a 2.50025,2.50025 0 0 0 2.5,2.5 h 5.99414 a 2.50025,2.50025 0 0 0 2.5,-2.5 v -4.267578 a 2.50025,2.50025 0 0 0 -2.5,-2.5 z" id="path30"/>
        <path style="font-size:50.8px;line-height:1.25;font-family:'Serpentine Sans ICG';baseline-shift:baseline;white-space:pre;display:inline;overflow:visible;vector-effect:none;fill:#ffffff;stroke-linejoin:round;paint-order:stroke fill markers;enable-background:accumulate;stop-color:#000000" d="m 152.35156,75.044922 a 2.50025,2.50025 0 0 0 -2.5,2.5 v 16.257812 a 2.50025,2.50025 0 0 0 2.5,2.5 h 2.69141 a 2.50025,2.50025 0 0 0 2.5,-2.5 v -2.941406 l 2.01953,4.054688 a 2.50025,2.50025 0 0 0 2.23633,1.386718 h 8.02734 a 2.50025,2.50025 0 0 0 2.5,-2.5 V 77.544922 a 2.50025,2.50025 0 0 0 -2.5,-2.5 h -2.69336 a 2.50025,2.50025 0 0 0 -2.5,2.5 v 2.785156 l -1.9414,-3.898437 a 2.50025,2.50025 0 0 0 -2.23829,-1.386719 z m 5.38867,5 h 1.16602 l 5.60742,11.257812 h -1.16601 z" id="path32"/>
    </g>
    <g id="layer1" transform="translate(-5.0087236,-142.51367)">
        <g aria-label="I.K.E.M.E.N" transform="matrix(0.5,0,0,0.5,-7.8022699,110.65203)" id="text30" style="font-size:10.5833px;line-height:1.25;font-family:'Serpentine Sans ICG';white-space:pre;shape-inside:url(#rect32);fill:url(#linearGradient1358);fill-opacity:1;stroke:#000000;stroke-width:2;stroke-linejoin:round;stroke-miterlimit:4;stroke-dasharray:none;stroke-opacity:1;paint-order:stroke fill markers">
            <path d="m 42.986075,101.20801 h -12.3952 V 68.696008 h 12.3952 z" style="font-size:50.8px;fill:url(#linearGradient933);fill-opacity:1;stroke:#000000;stroke-width:2;stroke-linejoin:round;stroke-miterlimit:4;stroke-dasharray:none;stroke-opacity:1;paint-order:stroke fill markers" id="path1360"/>
            <path d="m 60.030268,101.20801 h -11.9888 v -8.534402 h 11.9888 z" style="font-size:50.8px;fill:url(#linearGradient935);fill-opacity:1;stroke:#000000;stroke-width:2;stroke-linejoin:round;stroke-miterlimit:4;stroke-dasharray:none;stroke-opacity:1;paint-order:stroke fill markers" id="path1362"/>
            <path d="M 102.1522,101.20801 H 87.724997 l -7.2644,-13.766802 -2.9464,3.302 v 10.464802 h -12.3952 V 68.696008 h 12.3952 v 14.5796 l 12.446,-14.5796 h 7.721599 l -8.991599,9.6012 z" style="font-size:50.8px;fill:url(#linearGradient937);fill-opacity:1;stroke:#000000;stroke-width:2;stroke-linejoin:round;stroke-miterlimit:4;stroke-dasharray:none;stroke-opacity:1;paint-order:stroke fill markers" id="path1364"/>
            <path d="m 118.27167,101.20801 h -11.9888 v -8.534402 h 11.9888 z" style="font-size:50.8px;fill:url(#linearGradient939);fill-opacity:1;stroke:#000000;stroke-width:2;stroke-linejoin:round;stroke-miterlimit:4;stroke-dasharray:none;stroke-opacity:1;paint-order:stroke fill markers" id="path1366"/>
            <path d="m 151.50361,101.20801 h -28.1432 V 68.696008 h 28.1432 v 5.3848 h -15.748 v 7.62 h 14.4272 v 5.3848 h -14.4272 v 8.7376 h 15.748 z" style="font-size:50.8px;fill:url(#linearGradient941);fill-opacity:1;stroke:#000000;stroke-width:2;stroke-linejoin:round;stroke-miterlimit:4;stroke-dasharray:none;stroke-opacity:1;paint-order:stroke fill markers" id="path1368"/>
            <path d="m 167.88105,101.20801 h -11.9888 v -8.534402 h 11.9888 z" style="font-size:50.8px;fill:url(#linearGradient943);fill-opacity:1;stroke:#000000;stroke-width:2;stroke-linejoin:round;stroke-miterlimit:4;stroke-dasharray:none;stroke-opacity:1;paint-order:stroke fill markers" id="path1370"/>
            <path d="m 217.26738,101.20801 h -12.3952 V 75.604808 h -0.1016 l -8.9916,25.603202 h -8.5852 l -8.7376,-25.603202 h -0.1016 v 25.603202 h -5.3848 V 68.696008 h 15.8496 l 6.1976,18.4404 h 0.1016 l 6.604,-18.4404 h 15.5448 z" style="font-size:50.8px;fill:url(#linearGradient945);fill-opacity:1;stroke:#000000;stroke-width:2;stroke-linejoin:round;stroke-miterlimit:4;stroke-dasharray:none;stroke-opacity:1;paint-order:stroke fill markers" id="path1372"/>
            <path d="m 234.35761,101.20801 h -11.9888 v -8.534402 h 11.9888 z" style="font-size:50.8px;fill:url(#linearGradient947);fill-opacity:1;stroke:#000000;stroke-width:2;stroke-linejoin:round;stroke-miterlimit:4;stroke-dasharray:none;stroke-opacity:1;paint-order:stroke fill markers" id="path1374"/>
            <path d="m 267.58954,101.20801 h -28.1432 V 68.696008 h 28.1432 v 5.3848 h -15.748 v 7.62 h 14.4272 v 5.3848 h -14.4272 v 8.7376 h 15.748 z" style="font-size:50.8px;fill:url(#linearGradient949);fill-opacity:1;stroke:#000000;stroke-width:2;stroke-linejoin:round;stroke-miterlimit:4;stroke-dasharray:none;stroke-opacity:1;paint-order:stroke fill markers" id="path1376"/>
            <path d="m 283.96698,101.20801 h -11.9888 v -8.534402 h 11.9888 z" style="font-size:50.8px;fill:url(#linearGradient951);fill-opacity:1;stroke:#000000;stroke-width:2;stroke-linejoin:round;stroke-miterlimit:4;stroke-dasharray:none;stroke-opacity:1;paint-order:stroke fill markers" id="path1378"/>
            <path d="m 324.00612,101.20801 h -16.0528 l -13.4112,-26.924002 h -0.1016 v 26.924002 h -5.3848 V 68.696008 h 16.2052 l 13.208,26.5176 h 0.1524 v -26.5176 h 5.3848 z" style="font-size:50.8px;fill:url(#linearGradient953);fill-opacity:1;stroke:#000000;stroke-width:2;stroke-linejoin:round;stroke-miterlimit:4;stroke-dasharray:none;stroke-opacity:1;paint-order:stroke fill markers" id="path1380"/>
        </g>
    </g>
    <style id="style923" type="text/css">
	.st0{fill:#2DBCAF;}
	.st1{fill:#5DC9E1;}
	.st2{fill:#FDDD00;}
	.st3{fill:#CE3262;}
	.st4{fill:#00ACD7;}
	.st5{fill:#FFFFFF;}
</style>
</svg>
