<?xml version='1.0' encoding='utf-8'?>
<svg xmlns="http://www.w3.org/2000/svg" version="1.2" width="600" height="111.84231366235278" xml:space="preserve" id="svg1" viewBox="0 0 586.93024 109.40606">
    <defs id="defs1"/>
    <g fill="#6b6b6b" id="g1" style="stroke:#ffffff;stroke-width:20;stroke-linecap:round;stroke-linejoin:round;stroke-dasharray:none;stroke-opacity:1;paint-order:markers stroke fill" transform="translate(10,10)">
        <g id="path1" style="opacity:1">
            <path style="baseline-shift:baseline;display:inline;overflow:visible;vector-effect:none;fill:#ffffff;stroke:none;enable-background:accumulate;stop-color:#000000;stop-opacity:1" d="m 422.19531,-10 c -0.89554,0 -1.82365,0.179004 -2.74414,0.4453125 -0.61872,-0.091245 -1.26439,-0.2635175 -1.8418,-0.2636719 h -0.004 l -6.26367,-0.00195 h -0.004 c -0.79297,0 -1.68437,0.1459452 -2.58398,0.3378906 -1.09957,-0.3059438 -2.17681,-0.4511719 -3.16993,-0.4511719 h -15.91211 c -0.59372,0 -1.24732,0.1692611 -1.8789,0.2636719 -0.77984,-0.1442576 -1.57324,-0.3105469 -2.2793,-0.3105469 h -6.48437 c -1.11598,0 -2.52018,0.3000106 -3.9375,0.8183594 -1.14173,-0.4434894 -2.31011,-0.7714844 -3.44922,-0.7714844 h -2.29297 c -0.96594,0 -2.15766,0.4227613 -3.30664,0.8300782 -1.42805,-0.5539644 -2.84354,-0.876583 -4.15625,-0.8769532 h -0.004 l -4.28711,-0.00195 h -0.004 c -2.20872,0 -4.66967,0.5509511 -7.01953,2.3847657 -1.35808,1.0598323 -2.49928,2.7172152 -3.26563,4.5351562 -1.10006,-0.5878931 -2.30039,-0.9648181 -3.53906,-1.1113281 h -9.80078 l -0.006,-0.00195 h -0.002 c -4.55481,0.2796752 -8.34267,3.60711111 -9.20703,8.0878906 L 324.2832,3.3066406 c 0,0 -3.87374,14.8795114 -7.79883,29.9277344 -0.23489,0.90056 -0.41789,1.597486 -0.65234,2.496094 -1.84342,-6.255421 -4.09375,-13.896485 -4.09375,-13.896485 -1.2457,-4.265244 -5.15618,-7.197113 -9.59961,-7.197265 h -21.3789 c -0.87195,0.156746 -1.71921,0.428657 -2.51954,0.808594 -0.76097,-0.439773 -1.57659,-0.777316 -2.42578,-1.003907 h -20.30468 c -4.28943,0.29298 -7.9116,3.294681 -8.9961,7.455078 -1.12963,-4.056048 -4.67863,-6.970205 -8.87695,-7.289062 h -20.29883 -0.002 c -3.19346,0.219208 -6.08904,1.953794 -7.78907,4.666015 -1.70003,-2.712218 -4.5956,-4.446804 -7.78906,-4.666015 H 181.0957 c -0.70304,0.203759 -1.38158,0.484084 -2.02343,0.835937 -0.71958,-0.409106 -1.48717,-0.727294 -2.28516,-0.947265 l -30.66211,0.002 c -3.89486,0 -7.58497,1.24001 -10.92773,3.060547 -1.87273,-1.869871 -4.41024,-2.921254 -7.05665,-2.923828 h -4.94335 v -4.361375 c -0.001,-7.8945436 -8.71999,-12.6752919 -15.37696,-8.4316411 L 84.609375,16.646484 c -1.344642,-1.008805 -2.921873,-1.662402 -4.585938,-1.90039 H 69.470703 c -5.522619,5.52e-4 -9.999448,4.477381 -10,10 v 2.25 c -1.346959,-1.769009 -3.023168,-4.181942 -4.066406,-5.429688 l -0.002,-0.0039 C 49.56796,14.579872 42.021708,13.75271 34.498047,15.410156 33.161592,15.704574 31.812145,16.320342 30.46875,16.90625 v -6.273437 c -5.52e-4,-5.522619 -4.477381,-9.99944832 -10,-10.0000005 L 0.16601562,0.63085937 C -5.3474645,0.63139419 -9.8205123,5.0939583 -9.8339844,10.607422 c 0,0 -0.1660156,73.071266 -0.1660156,77.699219 5.483e-4,5.527962 4.4857147,10.007004 10.01367188,10 L 20.480469,98.279297 c 1.937268,-0.201695 3.773482,-0.964691 5.283203,-2.195313 0.914624,0.565368 1.914439,0.97954 2.960937,1.226563 h 10.552735 c 5.522619,-5.52e-4 9.999448,-4.477381 10,-10 v -8.126953 c 1.589014,2.405958 3.315101,5.022601 4.603515,6.96875 1.138373,1.719511 2.110739,3.184446 2.839844,4.277343 0.729105,1.092898 0.797956,1.26226 1.585938,2.328125 l 0.0098,0.01563 c 2.573426,3.468433 5.172374,4.55355 7.955078,5.490235 2.782705,0.936685 5.870702,1.388569 9.386719,0.820312 3.516017,-0.568256 7.606414,-2.490651 10.404297,-6.011718 1.118318,-1.407376 1.91379,-3.005699 2.544922,-4.673829 5.024685,6.020936 12.576873,9.769532 20.445303,9.769532 h 19.03321 c 2.67881,-0.01436 5.23989,-1.102818 7.10937,-3.021485 3.32503,1.758897 7.07339,2.832032 10.93164,2.832032 h 30.66016 c 2.77618,-0.06338 5.40103,-1.278178 7.24606,-3.353521 3.12748,1.761998 6.51477,3.068691 10.13672,3.414062 0.83246,0.08124 1.66945,0.124403 2.50586,0.128907 0.0176,4.6e-5 0.0351,4.6e-5 0.0527,0 h 19.0332 c 2.30145,-0.116754 4.49197,-1.024699 6.20117,-2.570313 2.65288,1.290492 5.51065,2.16126 8.48828,2.44336 h 0.01 c 0.70751,0.06641 1.55129,0.126953 2.50976,0.126953 h 19.03125 c 0.51946,-0.166803 1.0244,-0.375834 1.50977,-0.625 0.58828,0.31484 1.2066,0.570017 1.8457,0.761718 l 20.46875,-0.02539 c 5.51804,-0.007 9.98773,-4.481954 9.98828,-10 V 75.089844 c 0.41014,1.306572 0.87434,2.79758 1.17969,3.751953 0.26006,0.812798 0.47726,1.479928 0.6582,2.021484 0.18095,0.541557 -0.10454,0.130857 0.72852,1.917969 l 0.002,0.0039 c 5.195,11.13048 16.71829,16.941843 26.37891,15.0625 7.64896,-1.488001 13.8653,-6.363092 17.54883,-13.080078 -10e-4,0.714185 -0.01,3.206108 -0.01,3.537109 5.5e-4,5.527198 4.48452,10.005925 10.01172,10 l 20.43945,-0.02539 c 1.49181,-0.252477 2.90689,-0.840146 4.13867,-1.71875 0.9103,0.561099 1.9047,0.972574 2.94532,1.21875 h 24.31054 c 0.52039,0 1.06411,-0.01127 1.62305,-0.03906 6.05001,-0.297541 11.66948,-2.324736 16.43359,-5.523437 1.44479,3.433603 4.67822,5.779643 8.39063,6.08789 l 20.44141,-0.02539 c 5.23456,-0.113989 9.49519,-4.245998 9.76953,-9.47461 4.40816,3.629255 9.53546,6.44204 15.17383,8.140625 l 0.008,0.002 c 0.97698,0.293467 1.66898,0.441841 2.05859,0.539062 l 0.008,0.002 c 3.53089,0.878384 7.15642,1.320244 10.79493,1.316406 10.38828,-0.0023 19.8939,-3.774705 27.44531,-9.820312 0.77583,4.610477 4.64237,8.06822 9.31055,8.326172 h 10.55273 c 5.52262,-5.52e-4 9.99945,-4.477381 10,-10 V 79.15625 c 1.59888,2.41801 3.33503,5.045062 4.63086,7 1.13981,1.71956 2.11361,3.184304 2.84375,4.277344 0.73014,1.093039 0.79634,1.260808 1.58984,2.332031 l 0.006,0.0078 c 1.83967,2.478445 3.83687,3.712482 5.90235,4.675782 0.36434,0.169949 1.03883,0.495866 2.05078,0.833984 4.17841,1.402273 9.37735,1.923379 14.8125,-1.041016 5.4423,-2.968296 8.9375,-9.950831 8.9375,-16.783203 0,-11.776871 -0.0274,-55.720703 -0.0274,-55.720703 -0.24029,-1.647607 -0.88813,-3.20915 -1.88476,-4.542969 1.17771,-1.812448 1.876,-3.921851 1.82422,-6.134765 l 0.002,0.359375 0.082,-6.5664064 c 9.3e-4,-0.041662 0.002,-0.08333 0.002,-0.125 0,-1.4674126 -0.4601,-3.0336034 -1.14453,-4.4882812 0.17364,-0.7378077 0.29297,-1.4788281 0.29297,-2.1933594 0,-3.1561167 -1.8904,-6.8651468 -4.31445,-8.7011719 -2.42405,-1.836025 -4.8509,-2.2823641 -6.91211,-2.2792969 -0.0176,-4.63e-5 -0.0351,-4.63e-5 -0.0527,0 l -7.0957,0.048828 c -0.50626,-0.00126 -1.01134,0.028788 -1.51367,0.091797 -0.06,0.00792 -0.11987,0.016384 -0.17969,0.025391 -0.17103,0.024609 -0.36561,0.123175 -0.54101,0.15625 -0.77936,-0.1470545 -1.57068,-0.3222657 -2.29688,-0.3222657 l -7.01953,-0.048828 c -0.0228,-7.8e-5 -0.0456,-7.8e-5 -0.0684,0 -0.9412,0 -2.03197,0.1844806 -3.15234,0.4863281 -0.94352,-0.2791732 -1.89346,-0.4707031 -2.8086,-0.4707031 -0.93827,0 -1.92908,0.1899289 -2.91211,0.5234375 -5e-4,-1.613e-4 -10e-4,1.612e-4 -0.002,0 -1.20503,-0.3818949 -2.39345,-0.5390625 -3.52148,-0.5390625 h -8.4336 c -0.44039,0 -0.98173,0.032892 -1.61718,0.1210938 -0.24963,0.034421 -0.47247,0.1679413 -0.71875,0.21875 -0.85729,-0.1761569 -1.71784,-0.3398438 -2.48829,-0.3398438 h -8.28906 -0.002 -0.002 c -0.53624,0 -1.03668,0.038884 -1.57227,0.1113281 -0.552,0.073255 -1.15932,0.2995059 -1.75,0.46875 -1.25165,-0.3992772 -2.45883,-0.5799405 -3.55664,-0.5800781 h -7.64844 c -0.40331,0 -0.78607,0.041366 -1.16992,0.080078 V -9.5625 c -0.34777,-0.076808 -0.677,-0.1019384 -1.01563,-0.1445313 -1.34027,0.2438726 -2.76044,0.8485419 -4.18359,1.8105469 -1.36859,-1.0785179 -2.99523,-1.7807441 -4.71875,-2.0371094 -0.0271,-2.191e-4 -0.053,0.011749 -0.0801,0.011719 v -0.011719 h 0.0801 7.31641 c -0.004,-4.1e-6 -0.009,-0.00195 -0.0137,-0.00195 h -7.38477 c -0.0156,0.00647 -0.0313,0.012981 -0.0469,0.019531 -0.55115,0.00171 -1.08656,0.1397081 -1.63085,0.21875 -0.56711,-0.075553 -1.15844,-0.2382813 -1.69532,-0.2382813 l -7.02343,-0.046875 c -0.0221,-7.35e-5 -0.0443,-7.35e-5 -0.0664,0 -0.92241,0 -1.92576,0.1364414 -2.95313,0.3964844 -0.55658,-0.072665 -1.13787,-0.234375 -1.66601,-0.234375 h -6.25391 c -1.92021,0 -4.42718,0.409901 -6.83008,2.2558594 C 456.32716,-9.0012114 453.81426,-10 451.5918,-10 c -1.5136,0 -2.29773,0.2491041 -2.39844,0.2714844 -0.0176,0.00386 -0.0351,0.00777 -0.0527,0.011719 -0.12842,0.029259 -0.21233,0.1223063 -0.33789,0.15625 -0.61137,-0.088815 -1.24945,-0.2597656 -1.82031,-0.2597656 h -6.26367 c -2.38825,0 -5.84207,0.7081288 -8.54492,3.8164063 -0.0468,0.053542 -0.093,0.1075814 -0.13867,0.1621093 -0.26984,0.3240527 -0.44789,0.7099578 -0.67774,1.0625 -0.18804,-0.3029434 -0.22705,-0.5944015 -0.45703,-0.8984375 C 429.06295,-8.1068732 425.34085,-10 422.19531,-10 Z m 98.05664,1.1484375 c -0.0194,0.00931 -0.0334,0.025739 -0.0527,0.035156 -0.016,0.00782 -0.0348,0.00773 -0.0508,0.015625 z m -117.73242,3.3105469 c -0.005,7.078e-4 -0.0122,0.00319 -0.0176,0.00391 -0.0149,0.00199 -0.0321,0.00187 -0.0469,0.00391 z m 28.24609,1.6015625 c -0.0373,0.070625 -0.0482,0.1513153 -0.084,0.2226562 -0.0345,0.069438 -0.092,0.1251058 -0.125,0.1953125 z m -87.27734,9.2949218 0.46875,0.46875 0.002,0.00195 L 343.5332,6.25 c -0.002,-0.298698 -0.0166,-0.5971743 -0.0449,-0.8945313 z M 10.144531,20.632812 h 0.324219 v 57.660157 h -0.447266 c 0.02769,-14.588113 0.09544,-45.380495 0.123047,-57.660157 z m 562.292969,2.417969 -0.14063,0.101563 c 0.0278,-0.01982 0.0467,-0.0483 0.0742,-0.06836 0.0223,-0.01631 0.0441,-0.01666 0.0664,-0.0332 z m -65.63672,0.919922 c 0.024,0.01237 0.0463,0.01324 0.0703,0.02539 0.0405,0.02063 0.0524,0.03822 0.0937,0.05859 z m -14.16992,1 -0.10156,0.02344 c 0.0135,-0.0031 0.0217,-0.01251 0.0352,-0.01563 0.0355,-0.0081 0.0305,7.86e-4 0.0664,-0.0078 z m -111.08984,0.12304 c 0.007,0.0013 0.003,-0.0013 0.01,0 0.007,0.0013 0.0104,0.0045 0.0176,0.0059 z m 143.69921,0.07813 c 0.0668,-0.0017 0.13242,0.01853 0.19922,0.01563 l -0.43359,0.0098 c 0.008,0 0.21357,-0.02668 0.23437,-0.02539 z m -96.94336,0.04102 h 0.0723 l -0.082,0.002 c 0.003,0 0.007,-0.002 0.01,-0.002 z m 29.37696,0 h 0.0723 l -0.082,0.002 c 0.003,0 0.007,-0.002 0.01,-0.002 z M 104.41016,27.73633 c 0.38589,0.833149 0.8384,1.648748 1.45507,2.419922 -1.29545,2.198077 -2.14257,4.498989 -2.14257,7.212891 v 36.103515 c 0,0.861546 0.1272,1.696217 0.27929,2.523438 -0.81238,-0.958844 -1.38476,-2.163485 -1.38476,-3.794922 0,-3.992601 0.16615,-37.291483 0.16601,-37.277344 0.0151,-1.585663 -0.34708,-3.152188 -1.05664,-4.570312 0,0 -0.30877,-0.409235 -0.45898,-0.611329 z m 422.55468,6.652344 c 0.74365,0.889861 2.73572,3.707433 4.07618,5.503906 -0.72958,-0.222811 -1.48166,-0.437654 -2.4629,-0.574219 -0.824,-0.114682 -1.886,-0.03718 -3,0.140625 0.002,-1.055487 -0.005,-3.651809 -0.002,-4.253906 0.001,-0.216168 -2.7e-4,-0.179452 0.002,-0.265625 0.0426,-0.01891 -0.0945,0.04765 0.11329,0.002 0.93136,-0.204843 2.88454,1.375257 1.27343,-0.552734 z m -486.90234,0.0098 c 0.743979,0.889979 2.732559,3.698266 4.070312,5.488282 -0.723597,-0.219329 -1.46428,-0.433426 -2.433593,-0.56836 -0.823917,-0.114694 -1.884603,-0.03694 -2.998047,0.140625 0.0018,-1.05236 -0.005,-3.648506 -0.002,-4.248047 v -0.0059 c 0.001,-0.22034 -3.86e-4,-0.178459 0.002,-0.267578 0.0466,-0.02006 -0.09091,0.04588 0.09961,0.0039 0.916344,-0.201868 2.839832,1.351388 1.261719,-0.542969 z m 150.99805,0.208985 h 0.69726 v 38.867187 c 0,0.72503 0.12782,1.421677 0.23633,2.123047 -0.16751,-0.267153 -0.43727,-0.421902 -0.56641,-0.730469 -3.8e-4,-9.14e-4 -0.002,-10e-4 -0.002,-0.002 0.0133,0.03114 -0.057,-0.154391 -0.17773,-0.554687 l -0.006,-0.01758 c -0.20605,-0.678196 -0.3125,-1.337609 -0.3125,-2.091797 0,-3.258632 0.0874,-26.079565 0.13086,-37.59375 z m 36.24609,0 h 0.33008 v 38.867187 c 0,0.635166 0.1222,1.241077 0.20508,1.857422 -0.37784,-0.827736 -0.64453,-1.801286 -0.64453,-3.130859 0,-3.291956 0.0733,-26.084962 0.10937,-37.59375 z m 66.96875,0.0293 h 0.38477 c 1.11615,3.809229 1.90344,6.520268 3.89648,13.224609 1.53901,5.177022 3.11149,10.422877 4.38086,14.552734 0.63469,2.064929 1.19059,3.844593 1.64453,5.242188 0.42171,1.298354 0.33103,1.500552 1.32617,3.552734 0.754,1.671968 1.91841,3.516615 4.05469,5.025391 0.69557,0.491256 1.62715,0.748572 2.49609,1.076172 -0.53053,0.344121 -1.09622,0.822329 -1.51757,0.904297 -1.43934,0.280003 -2.05291,1.211232 -4.43164,-3.882813 0.70518,1.514193 0.24206,0.584644 0.11132,0.19336 -0.1323,-0.395966 -0.33252,-1.011695 -0.57812,-1.779297 -0.4912,-1.535206 -1.16975,-3.692996 -1.96485,-6.244141 -1.59018,-5.102289 -3.65109,-11.787521 -5.68945,-18.423828 -2.07902,-6.768686 -2.59748,-8.480851 -4.11328,-13.441406 z m -151.04883,1.552734 c -0.21143,0.972925 -0.33398,1.974338 -0.33398,3 -4e-5,0.01562 -4e-5,0.03125 0,0.04687 L 142.94922,51.5 c 0.24016,1.68355 0.90566,3.278054 1.93359,4.632812 -1.01392,1.349674 -1.6697,2.934035 -1.90625,4.605469 v 12.126953 c -0.008,1.019823 0.0914,2.02523 0.2793,3.007813 -0.41964,-0.947098 -0.80274,-2.212258 -0.80274,-4.21875 v -31.1875 c 0,-1.486349 0.20652,-2.666813 0.46875,-3.492188 l 0.004,-0.01172 c 0.12715,-0.402086 0.19116,-0.568715 0.19141,-0.570313 0.0476,-0.113823 0.0681,-0.102611 0.10937,-0.203125 z m 234.95117,5.076172 c 0.89384,5.961309 5.05844,9.223307 7.58594,10.769531 0.71787,0.439162 1.26564,0.642497 1.91406,0.958985 -2.40869,-0.510273 -5.08256,-1.27465 -6.96093,-2.417969 -2.56886,-1.563601 -3.25196,-2.119993 -3.25196,-4.890625 0,-1.674888 0.28868,-3.109215 0.71289,-4.419922 z m 100.51563,2.828125 c 0.82537,2.776736 1.5293,7.034358 1.5293,12.253906 0,4.630918 -0.65685,8.399955 -1.4336,11.232422 -0.68067,-2.824248 -1.30078,-6.503626 -1.30078,-11.232422 0,-0.75125 0.0117,-1.533862 0.0254,-2.353515 0.0836,-4.398513 0.63798,-7.581844 1.17969,-9.900391 z m 20.86914,1.708984 c 1.75708,3.163211 2.83636,6.721467 2.83594,10.546875 0,3.897561 -1.11898,7.520333 -2.94141,10.726563 0.51498,-3.439477 0.76563,-7.010001 0.76563,-10.728516 0,-3.635952 -0.20459,-7.144954 -0.66016,-10.544922 z m -41.69727,0.515625 c -0.18986,2.401069 -0.30072,4.826149 -0.34765,7.296875 -1e-5,0.0078 -1e-5,0.01563 0,0.02344 -0.0142,0.84616 -0.0293,1.749092 -0.0293,2.708984 0,3.602644 0.19641,7.070369 0.60547,10.455078 -0.15624,-0.281397 -0.37597,-0.526693 -0.51953,-0.814453 -0.13598,-0.279054 -0.28702,-0.606834 -0.45899,-0.998047 l -0.002,-0.0039 c -1.16253,-2.659403 -1.80859,-5.576382 -1.80859,-8.636719 0,-3.640377 0.95102,-7.003276 2.56054,-10.03125 z m -192.38867,2.986328 h 0.33789 v 28.986329 h -0.4375 c 0.032,-10.18187 0.0678,-20.280218 0.0996,-28.986329 z m 86.93555,0 h 0.32812 v 28.986329 h -0.41015 c 0.0269,-10.188313 0.0552,-20.283682 0.082,-28.986329 z m 78.28125,0 h 0.32812 v 28.986329 h -0.41015 c 0.0268,-10.188634 0.0554,-20.283894 0.082,-28.986329 z m -30.31445,7.962891 c 1.32076,0.462508 2.66213,0.926327 3.34765,1.316406 1.84551,1.050137 1.77633,0.730057 2.32813,3.289063 7.3e-4,0.0034 0.001,0.0024 0.002,0.0059 0.0796,0.383447 0.12861,0.61931 0.12891,0.621094 l -0.002,-0.002 c 0.0443,0.269593 0.0426,0.83477 0.0762,1.189453 -1.14049,-2.057775 -2.59295,-3.858157 -4.19727,-5.210938 -0.54014,-0.455454 -1.11755,-0.818586 -1.68359,-1.208984 z M 62.966797,63.623047 c 0.438733,0.240433 0.761814,0.561567 1.259765,0.751953 1.872091,0.715774 3.916755,0.683022 5.8125,0.376953 0.002,3.34612 0.0049,7.073997 0.0059,9.582031 -2.044302,-3.089296 -4.533053,-6.856247 -7.078125,-10.710937 z m 486.906253,0.01563 c 0.43111,0.23455 0.74642,0.549957 1.23437,0.736328 1.87224,0.715094 3.91815,0.683834 5.81445,0.376953 0.002,4.090038 0.003,6.475902 0.004,9.550781 -2.03996,-3.078999 -4.51607,-6.826639 -7.05273,-10.664062 z m -87.39649,17.585937 c 0.0242,0.04292 0.0178,0.02385 0.041,0.06445 0.004,0.0075 0.005,0.01595 0.01,0.02344 z" id="path2"/>
            <path style="baseline-shift:baseline;display:inline;overflow:visible;vector-effect:none;stroke:none;enable-background:accumulate;stop-color:#000000;stop-opacity:1" d="m 422.195,0 c -0.636,0 -0.999,0.541 -0.999,1.212 l -0.132,13.085 c 0,0.636 0.541,0.966 1.212,0.966 l 6.011,-0.049 c 0.672,0 1.213,-0.362 1.213,-0.999 v -2.424 c 0,-0.637 -0.54,-0.982 -1.213,-0.982 l -3.88,0.016 c -0.672,0 -1.23,-0.33 -1.23,-0.967 V 1.212 C 423.177,0.541 422.833,0 422.195,0 Z m 29.396,0 c -0.079,0 -0.157,0.017 -0.229,0.033 -0.496,0.113 -0.77,0.591 -0.77,1.179 l -0.147,13.085 c 0,0.398 0.218,0.665 0.54,0.818 a 1.425,1.425 0 0 0 0.442,0.131 c 0.078,0.01 0.161,0.017 0.245,0.017 l 5.993,-0.049 c 0.672,0 1.212,-0.362 1.212,-0.999 v -2.424 c 0,-0.636 -0.54,-0.982 -1.212,-0.982 l -3.882,0.016 c -0.67,0 -1.212,-0.33 -1.212,-0.966 L 452.554,1.212 C 452.556,0.541 452.227,0 451.591,0 Z m -94,0.017 c -0.673,0 -1.229,0.378 -1.229,1.015 l 0.065,1.965 -0.065,10.988 c 0,0.672 0.346,1.212 0.981,1.212 0.08,0 0.143,0 0.214,-0.016 0.496,-0.113 0.786,-0.608 0.786,-1.196 V 5.339 c 0,-0.636 0.54,-0.999 1.211,-0.999 h 0.836 c 0.671,0 1.212,0.363 1.212,0.999 l 0.817,4.602 c 0,0.672 0.33,1.212 0.968,1.212 h 2.146 c 0.078,0 0.157,-0.002 0.23,-0.016 0.49,-0.098 0.77,-0.527 1.078,-1.13 0,0 2.47,-5.901 2.57,-6.125 0.223,-0.483 0.836,-0.403 0.836,0.065 v 8.793 l 0.033,1.294 c 0,0.672 0.328,1.229 0.965,1.229 l 2.475,0.016 a 0.734,0.734 0 0 0 0.394,-0.082 c 0.323,-0.168 0.471,-0.574 0.786,-1.13 l 1.852,-4.045 c 0.302,-0.585 0.704,-0.987 1.211,-0.999 h 3.063 c 0.672,0 1.212,0.362 1.212,0.999 l 0.164,4.308 c -0.009,0.436 0.22,0.678 0.573,0.818 0.118,0.047 0.252,0.089 0.394,0.115 0.565,0.105 1.291,0.065 1.884,0.082 0.563,0.015 1.44,-0.358 1.44,-0.981 l 0.032,-13.363 c 0,-0.637 -0.54,-0.982 -1.212,-0.982 h -6.484 c -0.67,0 -1.02,0.34 -1.212,0.982 0,0 -4.267,10.776 -4.372,11.021 a 0.266,0.266 0 0 1 -0.064,0.082 0.674,0.674 0 0 1 -0.264,0.115 c -0.244,0.055 -0.539,-0.002 -0.539,-0.312 L 372.56,1.361 c 0,-0.672 -0.279,-1.294 -0.917,-1.294 h -2.293 c -0.638,0 -0.87,0.426 -1.326,1.212 0,0 -2.704,6.669 -2.866,6.977 a 0.556,0.556 0 0 1 -0.18,0.196 0.47,0.47 0 0 1 -0.213,0.098 c -0.154,0.022 -0.304,-0.047 -0.347,-0.262 -0.08,-0.429 -1.323,-7.254 -1.323,-7.254 0,-0.636 -0.54,-1.015 -1.213,-1.015 l -4.29,-0.002 z m 118.383,0 c -0.672,0 -1.229,0.345 -1.229,0.982 l -0.063,13.232 c 0,0.238 0.081,0.432 0.212,0.59 0.132,0.157 0.307,0.277 0.523,0.343 a 1.767,1.767 0 0 0 0.474,0.066 l 2.063,0.016 v 0.017 h 5.044 a 1.782,1.782 0 0 0 0.475,-0.066 c 0.437,-0.124 0.736,-0.423 0.736,-0.9 0,-0.636 -0.54,-1.016 -1.213,-1.016 h -5.044 v 0.033 c -0.646,-0.017 -1.16,-0.395 -1.16,-1.015 l 0.081,-6.977 c 0,-0.636 0.54,-0.966 1.212,-0.966 h 4.98 c 0.671,0 1.228,-0.33 1.228,-0.966 V 1.064 c 0,-0.637 -0.558,-0.999 -1.229,-0.999 z m 21.633,0 c -0.084,0 -0.166,0.006 -0.245,0.017 -0.555,0.072 -0.98,0.408 -0.98,0.966 -0.003,0.332 0.002,0.651 0,0.982 -0.024,3.76 -0.105,7.54 -0.05,11.299 0.003,0.23 -0.037,0.477 -0.05,0.721 a 1.6,1.6 0 0 0 0.017,0.361 c 0.02,0.116 0.055,0.225 0.114,0.327 0.158,0.269 0.388,0.44 0.64,0.541 0.252,0.1 0.536,0.123 0.818,0.115 0.442,-0.012 0.862,0.034 1.261,0.016 0.133,-0.006 0.271,-0.027 0.394,-0.049 0.495,-0.088 0.906,-0.331 1.181,-0.982 l 0.163,-4.308 c 0,-0.636 0.54,-0.999 1.212,-0.999 h 3.274 c 0.672,0 1.212,0.362 1.212,0.999 l 0.05,4.045 c 0,0.672 0.328,1.212 0.966,1.212 0.08,0 0.158,0 0.23,-0.016 0.495,-0.113 0.784,-0.608 0.784,-1.196 V 8.517 c 0,-0.955 -0.838,-1.264 -1.457,-1.573 A 2.233,2.233 0 0 1 506.664,6.65 0.502,0.502 0 0 1 506.484,6.257 C 506.484,5.415 506.466,1 506.466,1 c 0,-0.637 -0.542,-0.982 -1.212,-0.982 z m 14.528,0 c -0.084,0 -0.168,0.006 -0.246,0.017 -0.555,0.072 -0.982,0.408 -0.982,0.966 l -0.064,13.232 a 0.91,0.91 0 0 0 0.36,0.736 c 0.056,0.043 0.114,0.082 0.181,0.115 0.192,0.099 0.421,0.148 0.672,0.148 h 8.435 c 0.67,0 1.211,-0.363 1.211,-0.999 L 521.64,1 c 0,-0.637 -0.54,-0.982 -1.213,-0.982 l -8.29,-10e-4 z m 13.116,0 c -0.084,0 -0.167,0.005 -0.245,0.017 a 1.37,1.37 0 0 0 -0.428,0.13 0.95,0.95 0 0 0 -0.539,0.868 l 0.064,1.965 -0.064,10.988 c 0,0.588 0.264,1.083 0.754,1.196 a 0.904,0.904 0 0 0 0.213,0.016 c 0.08,0 0.158,0 0.23,-0.016 0.495,-0.113 0.785,-0.608 0.785,-1.196 V 5.339 c 0,-0.636 0.542,-0.999 1.212,-0.999 h 4.438 c 0.671,0 1.212,0.363 1.212,0.999 l 0.05,8.614 c 0,0.672 0.33,1.212 0.966,1.212 0.08,0 0.158,0 0.23,-0.016 0.495,-0.113 0.785,-0.608 0.785,-1.196 l -0.018,-9.58 0.018,-3.341 c 0,-0.637 -0.559,-1.015 -1.229,-1.015 z m 20.831,0 c -0.505,0 -0.945,0.193 -1.13,0.557 A 0.92,0.92 0 0 0 544.869,1 l -0.08,13.232 c 0,0.238 0.08,0.432 0.212,0.59 0.22,0.262 0.58,0.409 1,0.409 l 7.104,0.033 c 0.671,0 1.212,-0.329 1.212,-0.966 0,-0.636 -0.54,-1.015 -1.212,-1.015 l -4.979,0.033 c -0.67,0 -1.229,-0.38 -1.229,-1.016 l 0.082,-6.977 c 0,-0.636 0.54,-0.966 1.212,-0.966 h 4.98 c 0.672,0 1.228,-0.33 1.228,-0.966 V 1.065 c 0,-0.637 -0.557,-0.999 -1.229,-0.999 z m -5.96,0.017 c -0.397,0 -0.683,0.2 -0.835,0.524 a 1.552,1.552 0 0 0 -0.149,0.687 l 0.063,8.729 c 0,0.478 -0.25,0.793 -0.653,0.918 a 1.57,1.57 0 0 1 -0.215,0.049 c -0.074,0.011 -0.16,0 -0.244,0 h -0.459 c -0.672,0 -1.326,0.329 -1.326,0.966 v 2.325 c 0,0.319 0.163,0.565 0.408,0.737 0.063,0.042 0.127,0.082 0.196,0.114 0.213,0.099 0.47,0.148 0.722,0.148 h 3.995 c 0.671,0 1.212,-0.363 1.212,-0.999 v -2.325 c 0,-0.1 -0.004,-0.184 -0.018,-0.263 -0.088,-0.551 -0.473,-0.62 -0.852,-0.687 a 1.697,1.697 0 0 1 -0.458,-0.131 C 541.277,10.71 541.113,10.49 541.113,9.974 V 1.245 c 0.006,-0.671 -0.355,-1.211 -0.992,-1.211 z m -150.45,0.032 c -0.672,0 -1.229,0.361 -1.229,0.999 v 2.326 c 0,0.636 0.558,0.966 1.23,0.966 h 1.52 c 0.671,0 1.212,0.33 1.212,0.966 l -0.064,8.729 c 0,0.671 0.347,1.212 0.982,1.212 0.08,0 0.143,0 0.212,-0.017 0.497,-0.113 0.786,-0.607 0.786,-1.195 V 5.323 c 0,-0.557 0.412,-0.877 0.967,-0.949 0.08,-0.011 0.162,-0.017 0.245,-0.017 h 4.193 c 0.67,0 1.211,0.33 1.211,0.966 v 8.729 c 0,0.671 0.361,1.212 1,1.212 0.08,0 0.158,0 0.228,-0.017 0.49,-0.113 0.735,-0.607 0.735,-1.195 l -0.064,-8.729 c 0,-0.557 0.431,-0.877 0.981,-0.949 0.08,-0.011 0.162,-0.017 0.246,-0.017 h 1.521 c 0.672,0 1.212,-0.33 1.212,-0.966 V 1.065 c 0,-0.637 -0.539,-0.999 -1.212,-0.999 z m 96.767,0 a 1.7,1.7 0 0 0 -0.476,0.064 1.4,1.4 0 0 0 -0.213,0.082 c -0.323,0.163 -0.54,0.454 -0.54,0.852 V 3.39 c 0,0.636 0.558,0.966 1.23,0.966 h 1.521 c 0.671,0 1.212,0.33 1.212,0.966 l -0.064,8.729 c 0,0.335 0.082,0.648 0.246,0.868 0.04,0.055 0.097,0.104 0.146,0.146 a 0.83,0.83 0 0 0 0.36,0.18 c 0.07,0.017 0.147,0.017 0.228,0.017 0.08,0 0.143,0 0.214,-0.017 0.495,-0.113 0.784,-0.607 0.784,-1.195 V 5.321 c 0,-0.557 0.414,-0.877 0.968,-0.949 0.078,-0.011 0.161,-0.017 0.244,-0.017 h 1.523 c 0.67,0 1.211,-0.33 1.211,-0.966 V 1.063 c 0,-0.637 -0.54,-0.999 -1.21,-0.999 h -7.386 v 0.002 z m 78.426,0 -7.188,0.049 a 1.93,1.93 0 0 0 -0.245,0.015 c -0.556,0.08 -0.968,0.427 -0.968,0.983 l 0.082,6.681 c 0,0.637 0.541,0.982 1.212,0.982 l 3.521,0.065 c 0.671,0 1.212,0.379 1.212,1.015 l -0.082,2.44 a 0.923,0.923 0 0 1 -0.099,0.426 c -0.122,0.242 -0.349,0.409 -0.64,0.491 -0.07,0.021 -0.149,0.022 -0.229,0.033 a 1.794,1.794 0 0 1 -0.246,0.016 l -5.01,0.017 c -0.086,0 -0.168,0.007 -0.247,0.016 -0.554,0.074 -0.966,0.409 -0.966,0.967 a 0.89,0.89 0 0 0 0.344,0.736 c 0.221,0.172 0.532,0.263 0.868,0.263 h 9.448 c 0.335,0 0.633,-0.083 0.853,-0.246 a 0.86,0.86 0 0 0 0.36,-0.72 l 0.082,-6.567 c 0,-0.636 -0.559,-0.966 -1.229,-0.966 h -5.829 c -0.673,0 -1.213,-0.33 -1.213,-0.967 l -0.082,-2.768 c 0,-0.636 0.56,-0.999 1.23,-0.999 l 5.06,0.017 c 0.673,0 1.213,-0.363 1.213,-0.999 0,-0.634 -0.54,-0.981 -1.212,-0.98 z M 411.338,0.18 c -0.67,0 -1.212,0.33 -1.212,0.967 V 5.75 c 0,0.67 -0.329,1.212 -0.967,1.212 l -1.31,0.033 c -0.672,0 -1.213,0.33 -1.213,0.966 l -0.082,6.271 c 0,0.479 0.317,0.8 0.754,0.933 0.071,0.022 0.134,0.038 0.213,0.049 0.08,0.011 0.162,0.017 0.245,0.017 l 9.843,0.033 c 0.671,0 1.212,-0.33 1.212,-0.966 0,-0.636 -0.54,-1.015 -1.212,-1.015 l -7.713,0.033 c -0.672,0 -1.212,-0.38 -1.212,-1.016 l 0.063,-2.342 c 0,-0.636 0.541,-0.966 1.213,-0.966 l 7.647,0.016 c 0.084,0 0.167,-0.006 0.245,-0.016 0.08,-0.011 0.141,-0.029 0.213,-0.049 0.438,-0.124 0.754,-0.439 0.754,-0.917 0,-0.557 -0.413,-0.904 -0.967,-0.982 A 1.625,1.625 0 0 0 417.607,7.027 L 415.904,7.01 c -0.084,0 -0.167,-0.005 -0.246,-0.016 -0.315,-0.045 -0.577,-0.167 -0.753,-0.377 a 0.94,0.94 0 0 1 -0.213,-0.606 l 0.064,-2.866 c 0,-0.636 0.558,-0.982 1.23,-0.982 h 1.62 c 0.671,0 1.212,-0.346 1.212,-0.982 0,-0.637 -0.54,-0.999 -1.212,-0.999 z m 29.381,0 c -0.42,0 -0.78,0.124 -1,0.377 a 0.836,0.836 0 0 0 -0.114,0.179 0.854,0.854 0 0 0 -0.099,0.41 v 4.602 c 0,0.67 -0.328,1.212 -0.966,1.212 l -1.312,0.033 c -0.67,0 -1.212,0.33 -1.212,0.966 l -0.082,6.271 a 0.9,0.9 0 0 0 0.213,0.59 c 0.131,0.157 0.321,0.277 0.54,0.343 a 1.778,1.778 0 0 0 0.474,0.066 l 9.825,0.033 c 0.672,0 1.212,-0.33 1.212,-0.966 0,-0.636 -0.54,-1.015 -1.212,-1.015 l -7.713,0.033 c -0.67,0 -1.212,-0.38 -1.212,-1.016 l 0.064,-2.342 c 0,-0.636 0.56,-0.966 1.23,-0.966 l 7.63,0.016 c 0.084,0 0.166,-0.006 0.245,-0.016 0.08,-0.011 0.156,-0.029 0.23,-0.049 0.436,-0.124 0.734,-0.439 0.734,-0.917 0,-0.557 -0.41,-0.904 -0.967,-0.982 a 1.638,1.638 0 0 0 -0.246,-0.017 l -1.702,-0.017 c -0.084,0 -0.166,-0.005 -0.246,-0.016 -0.314,-0.045 -0.577,-0.167 -0.753,-0.377 a 0.934,0.934 0 0 1 -0.213,-0.606 l 0.082,-2.866 c 0,-0.636 0.541,-0.982 1.211,-0.982 h 1.622 c 0.672,0 1.212,-0.346 1.212,-0.982 0,-0.637 -0.54,-0.999 -1.212,-0.999 z m 24.382,0 c -0.42,0 -0.797,0.124 -1.017,0.377 a 0.873,0.873 0 0 0 -0.113,0.179 0.855,0.855 0 0 0 -0.1,0.41 l 0.018,4.602 c 0,0.67 -0.348,1.212 -0.982,1.212 l -1.294,0.033 c -0.672,0 -1.212,0.33 -1.212,0.966 l -0.082,6.271 c 0,0.238 0.082,0.432 0.214,0.59 0.132,0.157 0.306,0.277 0.523,0.343 a 1.742,1.742 0 0 0 0.473,0.066 l 9.826,0.033 c 0.671,0 1.23,-0.33 1.23,-0.966 0,-0.636 -0.56,-1.015 -1.23,-1.015 l -7.696,0.033 c -0.672,0 -1.229,-0.38 -1.229,-1.016 l 0.081,-2.342 c 0,-0.636 0.54,-0.966 1.212,-0.966 l 7.632,0.016 c 0.084,0 0.166,-0.006 0.246,-0.016 0.078,-0.011 0.155,-0.029 0.23,-0.049 0.437,-0.124 0.753,-0.439 0.753,-0.917 0,-0.557 -0.43,-0.904 -0.98,-0.982 a 1.657,1.657 0 0 0 -0.247,-0.017 l -1.688,-0.017 a 1.79,1.79 0 0 1 -0.245,-0.016 c -0.315,-0.045 -0.595,-0.167 -0.77,-0.377 a 0.928,0.928 0 0 1 -0.196,-0.606 l 0.064,-2.866 c 0,-0.636 0.54,-0.982 1.212,-0.982 h 1.621 c 0.671,0 1.23,-0.346 1.23,-0.982 0,-0.637 -0.56,-0.999 -1.23,-0.999 z M 380.65,2.195 h 2.702 c 0.67,0 1.212,0.33 1.212,0.966 l 0.082,2.849 c 0,0.637 -0.542,0.999 -1.212,0.999 h -4.014 c -1.378,-0.019 -1.196,-0.984 -1.112,-1.31 l 1.13,-2.539 c 0.326,-0.554 0.54,-0.965 1.212,-0.965 z m 119.104,0 h 3.343 c 0.671,0 1.212,0.33 1.212,0.966 l 0.082,2.849 c 0,0.637 -0.56,0.999 -1.229,0.999 h -3.472 c -0.672,0 -1.212,-0.362 -1.212,-0.999 l 0.064,-2.849 c 0.001,-0.636 0.542,-0.966 1.212,-0.966 z m 14.314,0 h 4.404 c 0.671,0 1.212,0.33 1.212,0.966 l 0.063,6.993 c 0,0.636 -0.54,0.999 -1.212,0.999 H 514 c -0.672,0 -1.213,-0.362 -1.213,-0.999 l 0.065,-6.993 c 0.003,-0.636 0.544,-0.966 1.215,-0.966 z M 333.96,5.825 c 0,0 -15.497,59.529 -15.91,60.881 -0.543,1.758 -2.218,2.334 -3.095,0.304 -1.082,-2.165 -12.816,-42.374 -12.816,-42.374 h -21.38 c 0,0 15.962,52.369 16.685,53.92 7.577,16.234 24.275,9.75 27.705,-2.154 3.527,-12.254 18.618,-70.576 18.618,-70.576 h -9.808 V 5.825 Z M 113.198,10.272 80.023,31.431 V 24.746 H 69.471 v 29.198 c 0,0.729 -1.37,2.065 -2.597,0.275 0,0 -14.05,-20.15 -19.144,-26.242 -4.228,-5.062 -18.975,-4.803 -19.03,7.182 -0.039,7.607 0.025,52.151 0.025,52.151 H 39.278 V 50.491 c 0,-2.039 1.806,-1.322 2.928,-0.058 0.521,0.588 23.124,35.004 24.142,36.381 2.306,3.108 13.701,5.406 13.701,-6.354 0,-8.427 -0.02,-33.382 -0.028,-46.849 h 10.304 c 1.081,0 2.457,1.213 2.458,1.215 -0.01,1.021 -0.166,33.137 -0.166,37.375 0,9.528 7.895,15.966 16.436,15.966 h 19.032 v -9.255 h -8.756 c -3.138,0 -5.607,-2.306 -5.607,-5.44 V 37.37 c 0,-1.942 1.56,-4.696 4.668,-4.696 3.111,0 9.75,-0.083 9.75,-0.083 v -7.956 h -13.093 c -1.218,0 -1.85,-0.958 -1.85,-1.851 z M 0.166,10.631 c 0,0 -0.166,73.3 -0.166,77.675 L 20.468,88.279 V 10.633 Z M 478.84,23.89 c -9.84,0 -18.67,4.102 -24.807,10.635 -0.359,0.385 -0.708,0.786 -1.05,1.188 -4.783,5.61 -7.679,12.791 -7.679,20.636 0,4.48 0.953,8.769 2.65,12.649 0.213,0.485 0.43,0.964 0.662,1.437 4.005,8.041 11.321,14.246 20.247,16.935 0.526,0.158 1.067,0.28 1.604,0.414 a 34.52,34.52 0 0 0 8.37,1.021 c 18.523,0 33.562,-14.529 33.562,-32.455 0.002,-17.931 -15.034,-32.46 -33.559,-32.46 z m -89.525,0.469 c -12.309,0 -21.85,8.804 -21.85,21.326 0,12.896 14.227,16.998 21.738,17.789 4.726,0.496 9.28,3.765 9.28,8.396 0,3.727 -3.219,6.74 -6.687,6.74 l -21.96,-0.084 v 9.254 h 24.31 c 0.384,0 0.752,-0.008 1.132,-0.027 11.773,-0.579 21.132,-10.041 21.132,-21.711 0,-1.926 -0.106,-3.633 -0.358,-5.166 -0.063,-0.383 -0.145,-0.743 -0.22,-1.104 -2.105,-9.762 -9.757,-11.649 -21.686,-14.807 0,0 -6.326,-1.967 -6.326,-5.773 0,-2.379 1.377,-4.012 3.261,-4.889 0.188,-0.088 0.382,-0.175 0.58,-0.249 0.985,-0.364 2.064,-0.524 3.148,-0.524 l 14.888,0.055 V 24.358 H 389.315 Z M 255.51,24.442 c 0,0 -0.166,6.508 -0.166,10.883 l 20.47,-0.056 V 24.441 Z m 86.93,0 c 0,0 -0.14,6.508 -0.14,10.883 l 20.44,-0.056 V 24.441 Z m 78.281,0 c 0,0 -0.139,6.508 -0.139,10.883 l 20.44,-0.056 V 24.441 l -20.3,0.001 z m -274.596,0.056 c -5.87,0 -10.142,3.04 -12.237,8.039 -0.189,0.455 -0.343,0.923 -0.497,1.41 -0.617,1.942 -0.938,4.135 -0.938,6.519 v 31.188 c 0,9.527 5.134,16.324 13.673,16.324 h 30.661 V 78.75 h -18.259 c -3.137,0 -5.578,-2.657 -5.552,-5.802 V 60.739 h 20.966 V 51.512 L 152.949,51.455 152.893,39.19 c 0,-3.137 2.498,-5.44 5.635,-5.44 h 18.26 v -9.254 z m 34.97,0.11 c 0,0 -0.166,43.219 -0.166,47.594 0,1.785 0.276,3.451 0.746,4.998 0.156,0.517 0.321,1.033 0.524,1.521 2.234,5.345 7.184,8.819 12.928,9.364 a 17.3,17.3 0 0 0 1.602,0.083 h 19.032 v -9.254 h -8.396 c -3.137,0 -5.607,-2.306 -5.607,-5.44 V 24.608 Z m 36.241,0 c 0,0 -0.138,43.219 -0.138,47.594 0,8.934 6.365,15.141 14.197,15.883 0.522,0.049 1.041,0.083 1.575,0.083 h 19.031 v -9.255 h -8.729 c -3.137,0 -5.635,-2.305 -5.635,-5.439 V 24.608 h -20.3 z m 339.013,0.138 v 29.198 c 0,0.729 -1.369,2.064 -2.598,0.275 0,0 -14.022,-20.15 -19.113,-26.242 -4.23,-5.062 -19,-4.803 -19.062,7.182 -0.035,7.607 0.027,52.151 0.027,52.151 h 10.553 V 50.491 c 0,-2.039 1.805,-1.322 2.93,-0.058 0.52,0.588 23.15,35.004 24.17,36.381 0.432,0.582 1.163,1.136 2.1,1.573 0.313,0.146 0.646,0.298 0.994,0.414 4.171,1.403 10.58,0.479 10.58,-8.342 0,-11.761 -0.028,-55.715 -0.028,-55.715 H 556.35 v 0.002 z m -77.509,6.712 c 8.13,0 11.382,11.144 11.382,24.889 0,13.743 -3.822,24.871 -11.382,24.889 -2.065,0.005 -3.795,-0.676 -5.248,-1.935 a 11.411,11.411 0 0 1 -1.961,-2.293 c -0.146,-0.224 -0.306,-0.452 -0.44,-0.69 -2.617,-4.539 -3.702,-11.812 -3.702,-19.971 0,-0.859 0.013,-1.705 0.027,-2.542 0.143,-7.528 0.985,-14.067 3.563,-18.093 0.146,-0.225 0.288,-0.428 0.442,-0.635 1.694,-2.286 4.047,-3.619 7.32,-3.619 z m -223.33,7.846 c 0,0 -0.166,44.626 -0.166,49.001 l 20.47,-0.026 V 39.304 Z m 86.93,0 c 0,0 -0.14,44.626 -0.14,49.001 l 20.44,-0.026 V 39.304 Z m 78.281,0 c 0,0 -0.139,44.626 -0.139,49.001 l 20.44,-0.026 V 39.304 h -20.3 z" id="path3"/>
        </g>
    </g>
</svg>
