<?xml version="1.0" encoding="UTF-8" standalone="no"?>
<svg
   version="1.1"
   viewBox="0 0 1310.2336 466.00003"
   id="svg46"
   sodipodi:docname="laser310.svg"
   inkscape:version="1.4.3 (0d15f75042, 2025-12-25)"
   width="1310.2336"
   height="466.00003"
   xmlns:inkscape="http://www.inkscape.org/namespaces/inkscape"
   xmlns:sodipodi="http://sodipodi.sourceforge.net/DTD/sodipodi-0.dtd"
   xmlns="http://www.w3.org/2000/svg"
   xmlns:svg="http://www.w3.org/2000/svg">
  <defs
     id="defs50" />
  <sodipodi:namedview
     id="namedview48"
     pagecolor="#ababab"
     bordercolor="#666666"
     borderopacity="1.0"
     inkscape:pageshadow="2"
     inkscape:pageopacity="0.0"
     inkscape:pagecheckerboard="0"
     showgrid="false"
     inkscape:zoom="0.54908058"
     inkscape:cx="542.72544"
     inkscape:cy="284.1113"
     inkscape:window-width="1920"
     inkscape:window-height="1080"
     inkscape:window-x="0"
     inkscape:window-y="0"
     inkscape:window-maximized="0"
     inkscape:current-layer="svg46"
     inkscape:showpageshadow="2"
     inkscape:deskcolor="#d1d1d1" />
  <path
     style="baseline-shift:baseline;display:inline;overflow:visible;vector-effect:none;fill:#ffffff;fill-opacity:1;stroke:none;stroke-width:50;stroke-linecap:round;stroke-linejoin:round;stroke-dasharray:none;stroke-opacity:1;paint-order:markers stroke fill;enable-background:accumulate;stop-color:#000000"
     d="M 104.17057,3.6890388e-5 C 92.718303,0.03927689 82.464557,7.9717879 79.549484,19.046912 L 0.83073368,308.99027 a 25.0025,25.0025 0 0 0 -0.05078,0.18555 C -3.3185433,324.74632 9.3002737,341.1754 25.401048,341.23051 a 25.0025,25.0025 0 0 0 0.08398,0 l 227.878902,0.0195 -0.25,-0.002 c 11.74459,0.1191 22.30845,-8.09724 25.08398,-19.50977 l 17.70508,-69.92187 a 25.0025,25.0025 0 0 0 0.0547,-0.22657 c 3.79569,-15.60004 -9.03159,-31.75111 -25.08594,-31.58789 l 0.25586,-0.002 H 164.87566 L 217.69988,32.517615 c 5.4e-4,-0.0019 -5.4e-4,-0.004 0,-0.0059 C 222.14421,16.818703 209.38986,-0.02516911 193.07877,3.6890388e-5 h -88.82226 a 25.0025,25.0025 0 0 0 -0.0859,0 z M 122.95573,50.000037 h 37.87109 l -52.83398,187.519533 0.0117,-0.0371 c -4.44904,15.69467 8.30802,32.54278 24.62109,32.51757 h 107.0957 l -5.38086,21.24805 -176.88085,-0.0156 z"
     id="path1" />
  <path
     style="baseline-shift:baseline;display:inline;overflow:visible;vector-effect:none;fill:#ffffff;fill-opacity:1;stroke:none;stroke-width:50;stroke-linecap:round;stroke-linejoin:round;stroke-dasharray:none;stroke-opacity:1;paint-order:markers stroke fill;enable-background:accumulate;stop-color:#000000"
     d="m 823.28777,45.000037 0.30664,0.002 c -11.73132,-0.144411 -22.30765,8.02073 -25.13867,19.40625 a 25.0025,25.0025 0 0 0 -0.0449,0.185547 l -56.79101,236.089846 0.0469,-0.18945 c -3.89724,15.66304 8.99929,31.95319 25.13868,31.75391 l -0.30665,0.002 210.79493,-0.01 c 12.10837,0.011 22.84231,-8.83988 25.13871,-20.72851 a 25.0025,25.0025 0 0 0 0.029,-0.1543 l 10.8419,-58.08008 -0.031,0.1543 c 2.5254,-13.07408 -6.3125,-25.98538 -18.65634,-29.45508 1.1492,-2.0507 2.0924,-4.23518 2.6348,-6.59375 l 11.79494,-51.04492 a 25.0025,25.0025 0 0 0 0.01,-0.0234 c 1.1138,-4.84235 0.4959,-9.66488 -1.166,-14.08203 l 9.4258,-0.002 a 25.0025,25.0025 0 0 0 0.053,0 c 12.2386,-0.0277 23.0286,-9.11457 25.1387,-21.16992 l 9.8476,-56.054697 a 25.0025,25.0025 0 0 0 0,-0.01563 c 2.6487,-15.146301 -9.7645,-29.955249 -25.1412,-29.990086 a 25.0025,25.0025 0 0 0 -0.057,0 z m 179.81643,21.353516 v 0.02539 c 6e-4,-0.0033 -6e-4,-0.0065 0,-0.0098 z M 842.52213,95.000037 h 155.55083 l -1.2715,7.232423 -119.44533,0.0176 c -11.98047,-0.0526 -22.66005,8.56573 -25.13868,20.28711 a 25.0025,25.0025 0 0 0 -0.004,0.0234 l -6.64443,31.56445 c -3.2285,15.26043 9.10035,30.67295 24.69726,30.87305 a 25.0025,25.0025 0 0 0 0.32032,0.002 h 82.82812 l -0.51562,2.23633 -94.65821,0.0234 0.21094,0.002 c -11.85479,-0.0971 -22.48187,8.29205 -25.13867,19.8457 a 25.0025,25.0025 0 0 0 -0.0469,0.20313 l -7.60351,34.375 c -3.1e-4,0.001 2.8e-4,0.003 0,0.004 -3.53688,15.3872 8.91087,31.16601 24.69921,31.3086 a 25.0025,25.0025 0 0 0 0.22461,0.002 h 108.17187 l -1.72461,9.24023 -159.55273,0.008 z"
     id="path5" />
  <path
     style="baseline-shift:baseline;display:inline;overflow:visible;vector-effect:none;fill:#ffffff;fill-opacity:1;stroke:none;stroke-width:50;stroke-linecap:round;stroke-linejoin:round;stroke-dasharray:none;stroke-opacity:1;paint-order:markers stroke fill;enable-background:accumulate;stop-color:#000000"
     d="m 1135.3054,45.474646 c -25.1529,0.0076 -50.1793,0.311707 -74.9551,0.566407 a 25.0025,25.0025 0 0 0 -0.078,0.002 c -11.8237,0.15787 -22.2868,8.571614 -24.9785,20.085937 a 25.0025,25.0025 0 0 0 -0.045,0.191406 L 982.65886,299.53129 c -3.55019,15.74712 9.338,31.79143 25.48054,31.71875 l 82.8359,-0.0293 a 25.0025,25.0025 0 0 0 0.084,0 c 12.3582,-0.0453 23.2541,-9.16387 25.4785,-21.32031 l 14.2325,-76.57812 32.58,83.39453 a 25.0025,25.0025 0 0 0 0.022,0.0566 c 3.8401,9.76054 13.4403,16.4517 24.1133,16.48633 a 25.0025,25.0025 0 0 0 0.092,0 l 71.8398,-0.0293 a 25.0025,25.0025 0 0 0 0.01,0 c 17.7137,-0.0144 30.8283,-19.82957 23.9199,-36.14063 a 25.0025,25.0025 0 0 0 -0.016,-0.0371 l -29.8027,-70.04882 c 3.4875,-1.61049 6.9896,-3.19204 10.4375,-4.88672 l -0.01,0.002 c 20.1965,-9.91946 33.6344,-27.19314 40.791,-46.23437 a 25.0025,25.0025 0 0 0 0,-0.006 c 9.0178,-24.01341 6.2621,-49.4464 -3.4804,-70.9043 a 25.0025,25.0025 0 0 0 0,-0.0117 c -16.404,-36.083014 -53.0692,-56.898544 -90.2442,-58.275395 a 25.0025,25.0025 0 0 0 -0.01,0 c -25.2795,-0.930625 -50.5581,-1.220471 -75.711,-1.212891 z m 0.018,50.00586 c 24.7601,-0.0074 49.419,0.272669 73.8477,1.171875 16.822,0.623037 40.2332,15.061419 46.5742,28.996099 4.6759,10.30161 5.519,23.80685 2.1972,32.65234 -2.8651,7.61718 -10.2434,16.09969 -16.0254,18.93945 a 25.0025,25.0025 0 0 0 -0.01,0.004 c -6.9298,3.4061 -13.9806,6.55387 -21.0898,9.58008 5.1492,-5.41213 9.3233,-11.89979 11.5351,-19.72266 a 25.0025,25.0025 0 0 0 0,-0.006 c 4.9075,-17.37647 -0.4696,-35.69239 -10.7715,-47.47461 -10.3019,-11.78221 -24.7951,-18.64439 -40.6777,-19.31836 -17.844,-0.755477 -35.6193,-1.450735 -53.3242,-2.085936 h -0.01 c -12.762,-0.457634 -24.1195,8.797526 -26.4727,21.111336 a 25.0025,25.0025 0 0 0 -0.023,0.12304 l -30.0664,161.77735 -32.9707,0.0117 41.7949,-185.343749 c 18.5116,-0.189806 37.0351,-0.410486 55.4883,-0.416015 z m 11.1191,53.511724 c 10.7723,0.41373 21.521,0.80733 32.3457,1.26562 2.0274,0.086 4.3932,1.40261 5.1563,2.27539 0.7621,0.87166 0.6543,-0.30484 0.293,0.97071 -5e-4,0.002 4e-4,3e-4 0,0.002 -0.6141,2.18765 0.9069,1.22708 -5.1973,1.29492 v 0 c -11.3625,0.12581 -22.5517,0.15259 -33.7012,0.15625 z m 54.0235,51.42383 c -4.5196,7.08617 -5.7058,16.24434 -2.2305,24.33789 l 24.8848,58.49218 -19.1621,0.008 -30.6387,-78.42579 c 2.1077,-0.0192 4.1607,-0.006 6.2754,-0.0293 6.7334,-0.0757 13.9376,-1.63583 20.8672,-4.38281 z m 30.791,36.27148 c -0.013,0.005 -0.024,0.0141 -0.037,0.0195 l -0.1719,0.0684 c 0.07,-0.0281 0.1388,-0.0597 0.209,-0.0879 z"
     id="path9" />
  <g
     id="path8"
     style="fill:#e58d6c;fill-opacity:0.969;stroke:#ffffff;stroke-width:50;stroke-linecap:round;stroke-linejoin:round;stroke-dasharray:none;stroke-opacity:1;paint-order:markers stroke fill"
     transform="translate(11.326828,24.500037)">
    <path
       style="baseline-shift:baseline;display:inline;overflow:visible;vector-effect:none;fill:#ffffff;fill-opacity:1;stroke:none;enable-background:accumulate;stop-color:#000000;stop-opacity:1"
       d="m 762.37891,25.519531 c -46.07746,-0.05336 -92.15497,-0.03903 -138.23243,0.04102 a 25.0025,25.0025 0 0 0 -0.0117,0 c -17.39258,0.03848 -33.71847,5.239866 -47.94141,13.742187 a 25.0025,25.0025 0 0 0 -0.008,0.0039 c -6.58119,3.937339 -10.68392,6.322442 -15.47266,10.339843 a 25.0025,25.0025 0 0 0 -0.002,0.002 c -26.0652,21.869199 -33.16134,55.200309 -29.14453,84.222649 3.5e-4,0.003 -3.6e-4,0.005 0,0.008 1.97338,14.34378 6.36319,31.01492 22.03515,44.56445 11.15035,9.65887 22.64941,14.49923 29.4043,18.08203 a 25.0025,25.0025 0 0 0 0.0137,0.008 c 9.85091,5.21724 19.21653,9.51671 28.19141,13.65235 -26.10685,-0.14035 -52.21347,-0.32176 -78.32032,-0.57813 l -17.4414,-156.966791 -0.002,-0.0059 C 513.99849,39.573949 502.56911,29.535913 489.66992,29.5 a 25.0025,25.0025 0 0 0 -0.0703,0 h -78.53906 a 25.0025,25.0025 0 0 0 -0.0684,0 c -8.84917,0.02388 -16.97612,4.578528 -21.67969,11.751953 a 25.0025,25.0025 0 0 0 -0.0957,0.148438 L 237.39258,276.58398 c -1.12022,1.72514 -2.5395,3.97122 -3.60156,8.20118 -1.06207,4.22995 -1.41251,11.67602 2.33203,18.54101 3.74454,6.86499 10.16215,10.58234 14.27148,11.98242 4.10712,1.39933 6.75092,1.43161 8.80078,1.43164 l 66.63086,0.01 a 25.0025,25.0025 0 0 0 0.0547,0 c 8.68909,-0.0176 16.9529,-4.43803 21.76172,-11.83789 a 25.0025,25.0025 0 0 0 0.14453,-0.22656 l 18.36719,-28.9375 53.58007,-0.0117 -0.27343,9.20898 c -4e-5,10e-4 4e-5,0.003 0,0.004 v 0.008 c -0.43264,14.56115 11.96343,26.91553 26.26172,26.77149 a 25.0025,25.0025 0 0 0 0.041,0 c 64.57882,-0.75874 129.04316,-1.09745 193.39453,-1.01758 a 25.0025,25.0025 0 0 0 0.004,0 c 13.33153,0.0147 28.17118,-0.93105 44.7168,-2.76172 a 25.0025,25.0025 0 0 0 0.0195,-0.004 c 8.3254,-0.92766 15.46996,-2.17093 22.78515,-5.03906 l 0.002,-0.002 c 23.51767,-9.2191 39.23427,-28.1169 48.23437,-48.04688 3.76707,-8.3332 6.14655,-17.28294 7.25977,-26.51562 a 25.0025,25.0025 0 0 0 0.002,-0.0137 c 1.38643,-11.55355 1.75255,-25.02926 -1.69922,-39.21093 -3.45176,-14.18167 -11.71731,-29.95578 -27.19531,-39.82032 a 25.0025,25.0025 0 0 0 -0.01,-0.004 c -10.88995,-6.93453 -23.13439,-13.37952 -36.25781,-19.5586 19.52996,-0.005 39.05989,0.002 58.58984,-0.0137 a 25.0025,25.0025 0 0 0 0.0176,0 c 12.80336,-0.0187 24.18738,-9.88821 25.76953,-22.83789 l 6.73047,-51.982419 c 1.98256,-15.12091 -10.48797,-29.357773 -25.73828,-29.38086 a 25.0025,25.0025 0 0 0 -0.01,0 z m -27.33985,50.007813 -0.54297,4.199218 c -34.9288,0.02124 -69.8583,0.03453 -104.78711,0.02344 -9.72096,-0.007 -20.43674,4.728188 -26.66992,11.921875 -6.23318,7.193687 -8.52193,15.385763 -8.82812,22.847653 -0.6124,14.92378 6.9887,32.64787 26.20508,38.27344 16.31704,4.79461 31.98754,11.48343 49.33007,19.24609 14.06101,6.30275 26.2916,12.81691 36.66797,19.42383 2.472,1.57547 4.1006,3.78519 5.48633,9.47852 1.3855,5.69235 1.52978,13.98032 0.63672,21.42578 -1.5e-4,0.001 1.5e-4,0.003 0,0.004 -0.5673,4.69396 -1.66639,8.54735 -3.17774,11.89063 a 25.0025,25.0025 0 0 0 -0.006,0.0117 c -4.58035,10.14556 -13.05909,19.0004 -20.91602,22.08008 a 25.0025,25.0025 0 0 0 -0.004,0.002 c -0.47052,0.1845 -4.2773,1.25281 -10.06836,1.89844 -0.002,1.7e-4 -0.002,-1.8e-4 -0.004,0 -15.13886,1.67441 -28.25443,2.46901 -39.14453,2.45703 -56.25389,-0.0698 -112.60981,0.23974 -169.03516,0.80859 l 0.26758,-9.00976 v -0.002 c 0.35518,-11.86561 -7.90821,-22.32108 -18.88281,-25.60937 8.24383,-4.89782 13.74365,-14.22644 12.73828,-24.22852 l 0.0332,0.36133 -6.83984,-79.63867 c -6e-5,-6.4e-4 5e-5,-10e-4 0,-0.002 -0.86774,-10.65177 -9.67097,-20.09615 -18.97657,-22.46485 -9.30616,-2.368838 -21.55179,1.71848 -27.40625,10.66016 a 25.0025,25.0025 0 0 0 -0.006,0.008 l -52.17968,79.75977 a 25.0025,25.0025 0 0 0 -0.22657,0.35156 c -7.17222,11.37333 -2.47266,26.49246 7.69141,34.04297 l -13.44922,0.002 a 25.0025,25.0025 0 0 0 -0.0566,0 c -8.95559,0.0221 -17.3488,4.71712 -22.05273,12.33789 l -18.18946,28.66016 -9.38867,-0.002 L 424.13672,79.5 h 43.99023 l 17.42383,156.80664 c 1.4e-4,0.001 -1.4e-4,0.003 0,0.004 l 0.002,0.01 c 1.42618,12.8327 12.56689,22.94692 25.47852,23.12696 a 25.0025,25.0025 0 0 0 0.0723,0.002 c 42.99414,0.474 85.98827,0.79094 128.98242,0.95117 a 25.0025,25.0025 0 0 0 0.002,0 c 5.41376,0.0199 10.84709,-0.48427 16.49414,-2.13672 a 25.0025,25.0025 0 0 0 0.0234,-0.008 c 7.7504,-2.27634 17.20281,-4.75573 27.61133,-15.51172 5.20425,-5.37799 11.37361,-15.70428 9.79101,-27.85352 -1.58236,-12.14742 -9.34706,-20.37241 -16.76367,-25.67578 l -0.004,-0.002 c -25.02768,-17.89971 -50.6326,-26.17701 -70.80664,-36.85937 -8.70197,-4.61554 -16.8548,-8.89292 -20.09961,-11.70508 a 25.0025,25.0025 0 0 0 -0.0293,-0.0254 c -0.0468,-0.0404 -4.43944,-7.99009 -5.20703,-13.57617 a 25.0025,25.0025 0 0 0 -0.004,-0.0254 c -2.48073,-17.91471 0.30324,-29.45984 11.75391,-39.068355 l 0.002,-0.002 c -0.812,0.681427 3.24239,-2.287978 8.99805,-5.732422 l 0.008,-0.0059 c 9.28536,-5.550037 12.66529,-6.629859 22.3789,-6.652344 36.93535,-0.06416 73.86935,-0.05485 110.80469,-0.0332 z M 445.21875,261.73047 c 0.005,-5e-5 0.0103,0.002 0.0156,0.002 -0.0195,2.3e-4 -0.039,-2.3e-4 -0.0586,0 z"
       id="path13" />
    <path
       style="baseline-shift:baseline;display:inline;overflow:visible;vector-effect:none;fill:#ff0000;fill-opacity:1;stroke:none;enable-background:accumulate;stop-color:#000000;stop-opacity:1"
       d="m 511.38,234.45 q 64.4,0.71 128.8,0.95 5.45,0.02 9.38,-1.13 c 10.01,-2.94 30.12,-12.58 13.14,-24.72 -21.07,-15.07 -45.36,-23.13 -67.98,-35.11 -7.73,-4.1 -17.56,-8.66 -24.76,-14.9 -7.87,-6.8 -12.26,-19.12 -13.63,-29.09 -3.25,-23.47 1.69,-45.91 20.45,-61.65 q 2.98,-2.5 12.24,-8.04 c 11.76,-7.03 21.61,-10.17 35.17,-10.2 q 69.08,-0.12 138.16,-0.04 a 1,1 0 0 1 0.99,1.13 l -6.76,52.2 a 1,0.99 3.6 0 1 -0.99,0.87 q -62.95,0.05 -125.9,0.03 c -13.83,-0.01 -13.42,20.78 -2.25,24.05 18.18,5.34 34.96,12.56 52.52,20.42 q 22.49,10.08 39.89,21.16 c 17.95,11.44 19.79,35.97 17.51,54.97 q -1.26,10.45 -5.22,19.21 c -6.79,15.04 -18.89,28.92 -34.58,35.07 q -5.84,2.29 -16.43,3.47 -23.77,2.63 -41.94,2.61 -96.69,-0.12 -193.72,1.02 a 1.01,1 0.5 0 1 -1.02,-1.03 l 1.01,-33.94 a 1,1 0 0 0 -1,-1.03 l -91.51,0.02 a 0.99,0.99 0 0 0 -0.84,0.47 l -25.43,40.07 a 1.02,1.01 16.5 0 1 -0.85,0.46 l -66.63,-0.01 q -1.84,0 -0.84,-1.54 L 410.22,54.96 a 1.02,1 -73.1 0 1 0.84,-0.46 h 78.54 a 1.01,1 -3.2 0 1 1,0.89 l 19.8,178.17 a 1,1 0 0 0 0.98,0.89 z m -78.8,-109.03 a 0.3,0.3 0 0 0 -0.55,-0.14 l -52.18,79.76 a 0.3,0.3 0 0 0 0.25,0.46 h 59.03 a 0.3,0.3 0 0 0 0.3,-0.33 z"
       id="path15" />
  </g>
  <path
     style="baseline-shift:baseline;display:inline;overflow:visible;vector-effect:none;fill:#ff0000;fill-opacity:1;stroke:none;stroke-width:50;stroke-linecap:round;stroke-linejoin:round;stroke-dasharray:none;stroke-opacity:1;paint-order:markers stroke fill;enable-background:accumulate;stop-color:#000000"
     d="m 271.66682,245.68004 -17.76,70.15 a 0.55,0.55 0 0 1 -0.54,0.42 l -227.879992,-0.02 a 0.55,0.55 0 0 1 -0.53,-0.69 L 103.72683,25.410037 a 0.55,0.55 0 0 1 0.53,-0.41 h 88.86 a 0.55,0.55 0 0 1 0.53,0.7 l -61.59,218.600003 a 0.55,0.55 0 0 0 0.53,0.7 h 138.53999 a 0.55,0.55 0 0 1 0.54,0.68 z"
     id="path3" />
  <g
     id="g1"
     style="stroke:#ffffff;stroke-width:25;stroke-linecap:round;stroke-linejoin:round;stroke-dasharray:none;stroke-opacity:1;paint-order:markers stroke fill"
     transform="translate(-13.040637,3.6890388e-5)">
    <g
       id="path25"
       style="opacity:1">
      <path
         style="baseline-shift:baseline;display:inline;overflow:visible;vector-effect:none;fill:#ffffff;stroke:none;enable-background:accumulate;stop-color:#000000;stop-opacity:1"
         d="m 1241.9219,304.83398 c -3.2608,0.0514 -6.6083,0.43286 -10.0078,1.25977 a 12.50125,12.50125 0 0 0 -0.012,0.004 c -16.239,3.96518 -33.2027,15.18517 -39.8769,33.8789 a 12.50125,12.50125 0 0 0 -0,0.004 c -6.7664,18.96968 -10.6558,39.24381 -15.5996,57.26172 -1.5609,5.68167 -2.5302,10.53945 -2.4863,15.53711 a 12.50125,12.50125 0 0 0 0,0.0195 c 0.1278,12.37812 3.62,26.56672 15.707,36.4375 0,0.002 0,0.002 0.01,0.004 0,0.001 0,0.003 0,0.004 14.7035,12.01854 33.2729,12.62973 48.084,10.07422 9.603,-1.65376 17.6535,-6.72411 24.7148,-12.9375 7.0614,-6.21339 13.0631,-13.5881 16.1797,-22.60938 a 12.50125,12.50125 0 0 0 0,-0.002 c 7.9419,-23.00058 13.3465,-39.9264 16.3301,-51.37891 a 12.50125,12.50125 0 0 0 0,-0.002 c 2.9578,-11.36074 3.0385,-23.67282 -0.9785,-35.125 -4.0169,-11.45218 -12.8851,-22.09164 -26,-27.02344 a 12.50125,12.50125 0 0 0 -0,-0.002 c -7.2797,-2.73528 -16.2802,-5.55854 -26.0625,-5.4043 z m -206.1114,2.31641 c -19.9145,0.40121 -39.23187,6.60743 -54.58784,22.51953 a 12.50125,12.50125 0 0 0 -0.0508,0.0527 c -5.07291,5.31884 -4.82392,14.14216 0.53907,19.16796 l 9.02343,8.45704 c 5.26017,4.9686 13.90053,4.78077 18.94143,-0.41016 l -0.084,0.0859 c 6.4445,-6.5106 13.2794,-9.57092 22.6855,-10.06055 a 12.50125,12.50125 0 0 0 0,0 c 6.9649,-0.36384 12.0364,0.26428 13.1875,0.79297 1.1503,0.52836 1.202,-0.85399 1.5762,5.03906 -0.038,-0.60312 -2.8827,5.48651 -6,8.00977 a 12.50125,12.50125 0 0 0 -0.016,0.0117 c -2.2303,1.81125 -10.0008,4.07689 -17.6699,5.14257 a 12.50125,12.50125 0 0 0 -0.025,0.004 c -3.7511,0.5288 -6.5975,0.5917 -11.1875,3.55664 a 12.50125,12.50125 0 0 0 -0.043,0.0293 c -6.1638,4.0185 -8.8065,10.34805 -8.8516,16.56836 -0.045,6.2203 3.3671,13.75193 10.3477,17.24218 l -0.025,-0.0117 c 6.7853,3.41205 13.1637,6.65503 17.6172,9.95703 -1.5854,4.72371 -4.5031,8.96687 -7,9.99218 -14.0925,5.7836 -25.44743,3.97228 -36.09966,-6.04296 a 12.50125,12.50125 0 0 0 -0.0176,-0.0176 c -1.1227,-1.05155 -2.27889,-2.07322 -3.4668,-3.06446 a 12.50125,12.50125 0 0 0 -0.043,-0.0351 c -5.156,-4.26355 -12.93193,-4.02691 -17.82031,0.54101 l -8.87891,8.29493 c -5.38537,4.93414 -5.76391,13.67958 -0.83008,19.0625 12.64371,13.83583 29.37707,22.1427 48.0996,23.91015 a 12.50125,12.50125 0 0 0 1.1738,0.0547 h 7 a 12.50125,12.50125 0 0 0 0.9805,-0.0391 c 13.9348,-1.09509 26.8981,-5.35815 37.1367,-13.70508 10.2382,-8.34657 17.197,-20.72763 19.5899,-35.39063 v -0.002 c 1.1823,-7.23928 1.808,-16.3482 -5.3438,-24.98828 -0.039,-0.0474 -0.088,-0.0855 -0.1269,-0.13281 6.371,-4.95673 11.8751,-11.14422 15.7187,-18.55274 5.2342,-10.08885 7.0486,-22.74595 2.9844,-35.14062 l -0,-0.002 c -5.7606,-17.58218 -21.4017,-29.63668 -39.8711,-30.7246 a 12.50125,12.50125 0 0 0 -0,0 c -2.8595,-0.16829 -5.7156,-0.22919 -8.5606,-0.17188 z m 116.2227,5.2832 c -3.1798,0.26229 -6.3179,1.26447 -9.1269,2.98243 a 12.50125,12.50125 0 0 0 -0.014,0.008 c -13.1633,8.07357 -25.4214,15.29531 -36.7656,21.66406 -5.7132,3.18112 -8.2898,10.18992 -6.1661,16.25391 a 12.50125,12.50125 0 0 0 0.01,0.0312 l 4.25,12.03125 -0.047,-0.14063 c 2.1449,6.30816 8.9026,9.82677 15.1895,8.79492 l -21.0528,64.82227 c -8e-4,0.003 -10e-4,0.005 -0,0.008 -2.3541,7.00439 1.6757,14.93399 8.7227,17.16016 l 11.8964,3.80664 a 12.50125,12.50125 0 0 0 0.096,0.0293 c 6.9151,2.15238 14.5994,-1.81082 16.8536,-8.69336 a 12.50125,12.50125 0 0 0 0,-0.0137 c 12.0291,-36.86083 24.0053,-73.73863 35.9277,-110.63281 l 0,-0.0117 c 1.0817,-3.33702 2.0493,-6.47004 1.3848,-11.21679 a 12.50125,12.50125 0 0 0 -0.01,-0.0332 c -0.9811,-6.86786 -5.8474,-12.90232 -11.7871,-15.39062 -2.9699,-1.24416 -6.1913,-1.72127 -9.3711,-1.45899 z m 84.8516,7.7793 c -0,2.6e-4 -0,0.002 -0,0.002 -0.01,0.001 -0.016,4.8e-4 -0.024,0.002 z m 6.4199,24.5293 c 0.9382,0.0535 2.1997,0.20758 3.7461,0.55859 a 12.50125,12.50125 0 0 0 0.01,0 c 3.6662,0.83042 6.4664,1.71572 7.7481,2.42383 1.2817,0.70811 1.1231,0.48981 1.5,1.60547 1.4432,4.28522 1.4843,6.2659 0.9609,9.66992 -0.5237,3.4066 -2.1103,8.35919 -4.2773,15.62891 a 12.50125,12.50125 0 0 0 0,0.004 c -3.4204,11.48655 -7.1268,22.87752 -11.1172,34.17383 a 12.50125,12.50125 0 0 0 -0,0.0117 c -0.6096,1.73168 -2.8009,5.28633 -5.3789,7.77344 -2.578,2.4871 -5.4709,3.71836 -6.0801,3.79492 -6.3957,0.79413 -11.6518,0.32268 -13.6602,-0.54492 -2.0098,-0.86824 -2.581,-0.46459 -3.2539,-6.26953 0,0.0283 -0.029,-1.32662 0.5801,-3.60352 l -0,0.002 c 4.7248,-17.65902 8.9192,-36.91802 14.3398,-54.01172 a 12.50125,12.50125 0 0 0 0,-0.008 c 1.5417,-4.8714 7.6521,-10.15536 13.0566,-11.16406 a 12.50125,12.50125 0 0 0 0.027,-0.004 c 0.2533,-0.0479 0.8685,-0.0945 1.8067,-0.041 z m -189.3945,55.59179 0.037,0.043 c -0.01,-0.007 -0.013,-0.0123 -0.02,-0.0195 -0.01,-0.007 -0.011,-0.016 -0.017,-0.0234 z"
         id="path4" />
      <path
         style="baseline-shift:baseline;display:inline;overflow:visible;vector-effect:none;fill:#ff0000;stroke:none;enable-background:accumulate;stop-color:#000000;stop-opacity:1"
         d="m 1140.1475,350.53 q 0.63,-1.96 -1.16,-0.95 l -21.55,12.2 a 0.99,0.99 0 0 1 -1.43,-0.54 l -4.25,-12.03 a 1,0.99 65.6 0 1 0.45,-1.2 q 17.28,-9.7 37.22,-21.93 c 4.66,-2.85 10.6,-0.56 11.39,4.97 q 0.28,2 -0.9,5.64 -17.88,55.33 -35.92,110.61 a 1.01,1.01 0 0 1 -1.26,0.65 l -11.94,-3.82 a 0.99,0.99 0 0 1 -0.64,-1.26 z m -126.84,102.97 h -7 q -23.94003,-2.26 -40.06003,-19.91 a 0.99,0.99 0 0 1 0.06,-1.4 l 8.97,-8.38 a 1,1 0 0 1 1.32001,-0.04 q 1.51,1.26 2.92999,2.59 c 13.88,13.05 31.60003,15.81 49.41003,8.5 9.79,-4.02 14.97,-15.66 15.82,-25.55 a 1.02,1.01 26.7 0 0 -0.25,-0.74 c -6.5,-7.49 -16.57,-11.99 -25.32,-16.39 -4.74,-2.37 -4.34,-9.5 -0.26,-12.16 q 1.61,-1.04 6.15,-1.68 c 8.06,-1.12 17.71,-2.85 23.83,-7.82 5.09,-4.12 11.05,-11.51 10.61,-18.51 -1.11,-17.49 -13.15,-18.3 -27.89,-17.53 q -18.25,0.95 -30.92,13.75 a 0.99,0.99 0 0 1 -1.39003,0.03 l -9.05999,-8.49 a 1,1 0 0 1 -0.04,-1.42 c 14.91002,-15.45 32.69002,-19.77 53.42002,-18.55 q 21.9,1.29 28.73,22.14 c 6.01,18.32 -5.1,35.02 -20.34,43.92 q -3.07,1.79 -6.45,2.77 -1.63,0.47 -0.23,1.43 6.01,4.12 10.69,9.78 c 3.09,3.73 3.46,9.99 2.64,15.01 -3.96,24.27 -21.32,36.76 -45.37,38.65 z m 184.25,-13.94 c -7.07,-5.77 -11.03,-18.17 -11.12,-26.89 q -0.04,-4.55 2.04,-12.12 c 5.12,-18.66 9.01,-38.68 15.32,-56.37 4.42,-12.38 19.48,-23.11 31.07,-25.94 8.88,-2.16 20.31,0.54 28.72,3.7 19.12,7.19 24.06,28.94 19.28,47.3 q -4.21,16.16 -16.05,50.45 c -4.08,11.81 -19.18,25.24 -31.2,27.31 -12.63,2.18 -27.41,1.27 -38.06,-7.44 z m 3.52,-24.55 c 2.08,17.95 16.19,19.61 30.89,17.78 9.23,-1.16 18.74,-11.44 21.69,-19.82 q 6.09,-17.24 11.31,-34.77 c 4.2,-14.09 7.15,-21.09 3.18,-32.87 -2.79,-8.26 -10.56,-10.46 -18.33,-12.22 q -6.3,-1.43 -10.64,-0.61 c -10.18,1.9 -19.55,9.79 -22.68,19.68 -5.67,17.88 -9.89,37.33 -14.5,54.56 q -1.31,4.9 -0.92,8.27 z"
         id="path6" />
    </g>
  </g>
  <path
     style="baseline-shift:baseline;display:inline;overflow:visible;vector-effect:none;fill:#ff0000;fill-opacity:1;stroke:none;stroke-width:50;stroke-linecap:round;stroke-linejoin:round;stroke-dasharray:none;stroke-opacity:1;paint-order:markers stroke fill;enable-background:accumulate;stop-color:#000000"
     d="m 1221.7469,213.57004 a 1,1 0 0 0 -0.54,1.32 l 39.12,91.95 a 1,1 0 0 1 -0.92,1.39 l -71.84,0.03 a 1.01,1 79.2 0 1 -0.93,-0.64 l -49.33,-126.27 a 0.99,1 79.2 0 1 0.93,-1.36 q 20.31,0.04 41.08,-0.19 c 13.34,-0.15 25.18,-6.06 28.98,-19.5 5.27,-18.66 -10.54,-34.26 -28.45,-35.02 q -26.69,-1.13 -53.17,-2.08 a 1,1.01 6.4 0 0 -1.02,0.82 l -33.71,181.38 a 1,1 0 0 1 -0.98,0.82 l -82.94,0.03 a 1,1 0 0 1 -0.98,-1.22 l 52.59,-233.210003 a 1.01,1.01 0 0 1 0.97,-0.78 c 49.61,-0.51 99.78,-1.2 149.49,0.63 27,1 57.04,18.63 68.41,43.640003 7.21,15.88 9.01,35.35 2.84,51.78 -5.01,13.33 -15.42,26.21 -28.41,32.59 q -15.32,7.53 -31.19,13.89 z"
     id="path11" />
  <path
     style="baseline-shift:baseline;display:inline;overflow:visible;vector-effect:none;fill:#ff0000;fill-opacity:1;stroke:none;stroke-width:50;stroke-linecap:round;stroke-linejoin:round;stroke-dasharray:none;stroke-opacity:1;paint-order:markers stroke fill;enable-background:accumulate;stop-color:#000000"
     d="m 850.58683,248.00004 h 137.57003 a 0.58,0.58 0 0 1 0.57,0.69 l -10.84004,58.08 a 0.58,0.58 0 0 1 -0.57,0.47 l -210.82,0.01 a 0.58,0.58 0 0 1 -0.57,-0.72 L 822.71683,70.440037 a 0.58,0.58 0 0 1 0.57,-0.44 h 203.87007 a 0.58,0.58 0 0 1 0.57,0.68 l -9.85,56.070003 a 0.58,0.58 0 0 1 -0.57,0.48 l -140.06007,0.02 a 0.58,0.58 0 0 0 -0.57,0.46 l -6.65,31.59 a 0.58,0.58 0 0 0 0.56,0.7 h 113.52999 a 0.58,0.58 0 0 1 0.57001,0.71 l -11.8,51.07 a 0.58,0.58 0 0 1 -0.56,0.45 l -114.08,0.03 a 0.58,0.58 0 0 0 -0.57,0.45 l -7.65,34.58 a 0.58,0.58 0 0 0 0.56,0.71 z"
     id="path7" />
  <g
     id="g2"
     style="fill:#000000;fill-opacity:1;stroke:#ffffff;stroke-width:20;stroke-linecap:round;stroke-linejoin:round;stroke-dasharray:none;stroke-opacity:1;paint-order:markers stroke fill"
     transform="translate(-13.040637,6.0000369)">
    <g
       id="path58"
       style="opacity:1">
      <path
         style="baseline-shift:baseline;display:inline;overflow:visible;vector-effect:none;fill:#ffffff;stroke:none;enable-background:accumulate;stop-color:#000000;stop-opacity:1"
         d="m 129.95312,346.91992 c -8.95278,-0.14696 -17.81082,0.57579 -21.74804,0.77149 -5.32225,0.25734 -14.34779,0.94303 -20.150393,9.09375 -5.58e-4,7.8e-4 -0.0014,0.001 -0.002,0.002 -0.141645,0.19876 -0.201434,0.38999 -0.333984,0.58789 -1.294598,-2.17214 -2.885545,-4.14697 -4.933594,-5.57227 -4.800778,-3.34098 -9.672612,-3.81007 -14.199219,-4.08398 h -0.0039 C 58.101088,347.0795 47.60973,347.11827 37.117187,347.83398 l 0.0039,-0.002 c -6.131477,0.41597 -11.948086,3.42239 -15.464844,7.62305 -3.516758,4.20066 -5.008817,8.95035 -5.792969,13.36914 -1.567528,8.83321 -0.428181,17.37663 0.08399,22.4414 0.457491,4.56977 2.175632,9.33645 5.638671,12.91016 3.46304,3.57371 8.192391,5.44404 12.75,6.02344 a 10.001,10.001 0 0 0 0.0059,0.002 c 11.004979,1.39345 21.340805,1.09961 31.265625,1.09961 6.429745,0 12.642216,-1.26669 18.220703,-3.94726 a 10.001,10.001 0 0 0 0.02539,-0.0117 c 2.155187,-1.04274 3.880997,-2.78581 4.96875,-4.91407 1.270442,1.45593 2.68634,2.80629 4.261718,3.85547 a 10.001,10.001 0 0 0 0.002,0 c 6.88902,4.58644 14.111813,4.99138 21.205083,5.24024 7.09017,0.24875 14.1424,-0.2359 19.3164,-0.46289 2.78097,-0.11971 7.33129,-0.11647 12.30469,-1.16016 3.43011,-0.71983 7.67946,-2.20955 11.14453,-5.33203 1.643,3.74242 5.29936,6.4751 9.50586,6.6875 0.001,7e-5 0.002,0.002 0.004,0.002 3.24468,0.17722 6.49508,0.24393 9.75195,0.20117 a 10.001,10.001 0 0 0 0.0156,0 c 10.91595,-0.15926 21.84125,-0.23515 32.77735,-0.22851 a 10.001,10.001 0 0 0 0.006,0 c 3.64781,0 6.79237,-2.00758 8.80664,-4.8418 2.84925,2.05646 6.08597,3.70479 9.85351,4.11328 h 0.004 c 11.16859,1.2137 23.17653,1.25453 36.04297,0.1836 4.56226,-0.37882 9.42894,-0.7903 14.48633,-3.81055 1.08792,-0.6497 2.07588,-1.50181 3.02343,-2.4082 1.69415,3.939 5.64999,6.7832 10.12305,6.7832 h 11.41016 c 5.89203,0 10.85312,-4.94447 10.96093,-10.81641 l 8.85547,0.10352 0.0195,0.33789 a 10.001,10.001 0 0 0 0.002,0.0352 c 0.34367,5.71773 5.27196,10.35016 11,10.33984 h 12.13086 c 5.7468,0.007 10.76017,-4.69607 11.00195,-10.53711 0.13642,-3.08484 0.0817,-6.1781 -0.16211,-9.26953 -0.17951,-2.31733 -0.78833,-4.82857 -1.97461,-7.20899 1.50478,-2.52597 2.57019,-5.1938 2.95508,-7.57031 0.92732,-5.72579 0.14585,-10.72577 -1.18164,-14.98242 -1.73519,-5.58934 -6.24153,-10.03706 -10.65234,-12.02539 -4.40931,-1.98765 -8.54295,-2.28827 -12.1211,-2.32617 h -0.01 c -14.08948,-0.16071 -28.2439,-0.14319 -42.46485,0.0508 -4.35254,0.0435 -8.15554,2.79632 -9.88281,6.5918 -4.51101,-4.24281 -10.51781,-5.9917 -16.43945,-6.34571 a 10.001,10.001 0 0 0 -0.01,0 c -11.6918,-0.68653 -23.37382,-0.57463 -35.0332,0.33399 a 10.001,10.001 0 0 0 -0.008,0 c -8.70806,0.6842 -16.55903,6.12531 -19.43946,12.60351 -2.88043,6.47821 -2.57823,12.24629 -2.74023,17.10157 a 10.001,10.001 0 0 0 0,0.004 c -0.0236,0.71283 -0.006,1.76139 -0.0352,2.58008 h -18.27148 v -22 c 0,-5.95669 -5.04332,-11 -11,-11 h -11.25 c -4.48612,0 -8.44504,2.8634 -10.13086,6.82031 -0.24507,-0.22135 -0.42842,-0.45823 -0.68946,-0.67578 l -0.006,-0.004 c -8.46415,-7.06326 -17.38032,-6.32365 -26.3379,-6.4707 z m 343.44141,0.25586 c -5.25682,0.0279 -10.5128,0.24132 -15.76758,0.64258 -4.32553,0.32878 -9.05397,0.8401 -13.875,3.78711 -2.26161,1.38248 -4.22555,3.45958 -5.80273,5.86328 -1.7409,-2.87143 -4.06731,-5.41534 -6.83203,-6.9043 -4.34203,-2.33843 -8.26146,-2.56869 -11.78321,-2.79297 -9.67749,-0.62705 -19.36303,-0.64491 -29.04687,-0.0527 -4.79051,0.28982 -8.72534,0.70131 -13.02734,3.08594 a 10.001,10.001 0 0 0 -0.0293,0.0156 c -9.17768,5.12677 -10.90134,14.52535 -11.58594,22.01953 -0.6846,7.49418 0.0594,14.66051 0.73242,19.38868 1.17292,8.25654 7.85027,14.69411 13.86719,16.86132 6.01785,2.16755 11.51482,2.07274 15.76367,2.11914 a 10.001,10.001 0 0 0 0.0117,0 c 2.73881,0.0267 11.29242,0.59981 19.58789,0.15235 4.14774,-0.22373 8.32189,-0.65019 12.47656,-1.875 3.54332,-1.04458 7.7908,-2.85797 10.69727,-7.19141 0.96664,1.17659 2.03351,2.23534 3.17773,3.14258 4.53571,3.59629 9.91198,5.21497 15.2461,5.4707 h 0.004 c 9.08653,0.43913 18.17967,0.52255 27.2793,0.24805 a 10.001,10.001 0 0 0 0.008,-0.002 c 3.89986,-0.12062 9.14132,-0.0779 14.93164,-2.10352 2.59974,-0.90946 5.32205,-2.67968 7.73047,-4.96875 1.60229,4.18588 5.65096,7.27324 10.31836,7.22656 l -0.0195,0.002 11.17578,-0.0918 c 4.55811,-0.003 8.49815,-2.9496 10.14453,-6.94727 l 0.78516,1.38868 a 10.001,10.001 0 0 0 0.0137,0.0273 c 1.93031,3.3907 5.57885,5.55393 9.53906,5.5625 a 10.001,10.001 0 0 0 0.0215,0 h 10.18945 c 3.99709,2.4e-4 7.71975,-2.20743 9.63672,-5.71484 l 0.73438,-1.29688 c 1.64121,4.04924 5.6165,7.01172 10.16992,7.01172 h 11.25 c 2.82564,0 5.40125,-1.19262 7.375,-3.02148 1.97375,1.82893 4.5493,3.02148 7.375,3.02148 h 11.25 c 5.89823,0 10.86722,-4.9539 10.96484,-10.83398 7.2715,0.0987 14.39069,0.0254 21.18359,-0.41797 4.28917,-0.27867 8.40605,-2.02939 11.5293,-4.56446 0.92334,2.7016 2.29418,5.26595 4.27344,7.51172 3.90889,4.43523 9.52509,6.76008 15.14844,7.59571 a 10.001,10.001 0 0 0 0.0137,0.002 c 7.81868,1.15122 15.15861,0.77455 25.6543,0.67578 6.30374,-0.0554 12.94178,-0.35166 19.37695,-4.2793 6.43517,-3.92764 10.54824,-12.06326 10.8789,-20.75976 a 10.001,10.001 0 0 0 0,-0.002 c 0.10126,-2.67754 -0.0198,-5.37291 0.0293,-8.05468 3.93359,0.41235 7.07448,0.38329 9.69531,0.27929 l 0.043,21.82813 c -2.9e-4,5.91762 4.97135,10.94082 10.88867,11 a 10.001,10.001 0 0 0 0.0312,0 l 11.42969,0.0801 a 10.001,10.001 0 0 0 0.0703,0 c 5.9087,0 11.00977,-4.98927 11.00977,-11 a 10.001,10.001 0 0 0 0,-0.0273 l -0.0566,-21.86328 h 7.86719 l -0.0508,21.67578 a 10.001,10.001 0 0 0 0,0.0156 c -0.005,5.80208 4.76138,10.76685 10.55859,11 7.6452,0.35714 13.82822,0.48825 18.71289,0.36523 a 10.001,10.001 0 0 0 0.006,0 c 9.72998,-0.24982 19.69174,-0.30627 29.88672,-0.16797 a 10.001,10.001 0 0 0 0.0352,0 c 2.32555,0.0234 4.40037,-0.89026 6.2129,-2.16406 1.81379,1.27474 3.89028,2.18733 6.21679,2.16406 l -0.0195,0.002 11.17578,-0.0918 c 5.93883,-0.004 10.84251,-4.99827 10.94727,-10.81836 2.94648,0.0151 5.90068,0.0455 8.82812,0.0195 0.10071,5.88372 5.09817,10.94129 11.07032,10.86914 0.001,-1e-5 0.003,2e-5 0.004,0 l 12.20117,-0.0586 c 5.83409,0.003 10.81345,-4.8268 10.99024,-10.6582 0.10652,-2.83618 0.86317,-7.27683 -0.81446,-13.03321 -0.28155,-0.96608 -0.85127,-2.01356 -1.36328,-3.04492 0.61748,-0.95468 1.26991,-1.90731 1.62696,-2.89258 2.02013,-5.57459 1.48087,-10.14473 1.30078,-13.67969 a 10.001,10.001 0 0 0 0,-0.002 c -0.22623,-4.43723 -1.60518,-9.08577 -4.63672,-12.7832 -3.03071,-3.69641 -7.38511,-5.97998 -11.71875,-6.99414 h -0.004 c -2.52202,-0.59193 -5.10814,-0.89258 -7.69726,-0.89258 h -42 c -2.29771,0 -4.34395,0.912 -6.13282,2.17578 -1.79575,-1.26637 -3.84933,-2.17578 -6.13671,-2.17578 h -48.15039 c -1.70853,0 -3.28726,0.50007 -4.74805,1.23242 -1.45712,-0.72841 -3.02927,-1.23265 -4.74219,-1.23242 h -52.16992 c -2.088,0 -3.953,0.77836 -5.63867,1.83984 -1.69023,-1.06336 -3.56498,-1.84078 -5.65625,-1.83984 h -11.06446 c -5.91762,-3e-4 -10.94082,4.9733 -11,10.89062 a 10.001,10.001 0 0 0 0,0.0176 c -0.061,7.4591 0.36961,15.98891 0,21.80274 -3.53283,0.17015 -7.07522,0.1667 -10.61523,-0.0254 -0.17318,-6.11195 -0.30036,-12.78153 -0.23438,-21.60157 l -0.002,0.0254 c 0.06,-5.99518 -5.00277,-11.10855 -10.99805,-11.10937 h -11.20898 c -3.98601,-0.005 -7.46801,2.3184 -9.40234,5.60742 -2.13731,-1.76262 -4.41338,-3.20546 -6.625,-3.92773 -5.73018,-1.87137 -10.78263,-1.64575 -14.45118,-1.65039 h -0.01 c -11.3178,-0.0267 -22.57213,-0.0329 -33.76367,-0.0195 -2.82227,0 -5.39426,1.19059 -7.36719,3.01562 -1.97447,-1.83233 -4.55413,-3.02539 -7.38281,-3.02539 h -19.75977 a 10.001,10.001 0 0 0 -0.0215,0 c -3.96021,0.009 -7.60875,2.1718 -9.53907,5.5625 a 10.001,10.001 0 0 0 -0.004,0.008 l -7.56445,13.31836 -7.44922,-13.18164 v -0.002 c -1.94775,-3.55621 -5.69835,-5.70096 -9.63086,-5.70508 a 10.001,10.001 0 0 0 -0.0117,0 h -19.76953 c -4.57611,0 -8.55808,2.99575 -10.1836,7.07617 -4.67291,-4.2185 -11.14909,-6.21968 -18.01562,-6.67383 a 10.001,10.001 0 0 0 -0.004,0 c -5.2553,-0.34546 -10.51271,-0.50448 -15.76953,-0.47656 z M 39.990234,359.67187 c -0.0045,0.001 -0.0073,0.005 -0.01172,0.006 -0.01009,0.003 -0.01134,0.001 -0.02148,0.004 z m 864.431636,0.97266 0.0234,0.0176 c -0.004,-0.003 -0.008,-0.003 -0.0117,-0.006 -0.005,-0.004 -0.007,-0.008 -0.0117,-0.0117 z m -677.11523,1.72461 c -0.003,0.002 -0.005,0.006 -0.008,0.008 -0.008,0.007 -0.015,0.009 -0.0234,0.0156 z m 115.5625,5.55078 0.004,0.0137 c -6.5e-4,-0.003 -0.003,-0.005 -0.004,-0.008 -4.4e-4,-0.002 4.5e-4,-0.004 0,-0.006 z m 66.5625,5.14649 c 0.001,0.0153 0.0106,0.0277 0.0117,0.043 -4.2e-4,-0.005 -0.009,-0.0186 -0.01,-0.0234 z m -350.142578,0.34375 c 0.006,0.0586 0.04193,0.10571 0.04883,0.16406 -0.0034,-0.0214 -0.04085,-0.08 -0.04297,-0.0996 z m 675.798828,4.66406 c 0.0267,0.004 0.0437,4.4e-4 0.0703,0.004 0.01,0.001 0.0176,0.007 0.0274,0.008 z m -487.75977,0.0332 c 3.29885,-0.0256 5.07692,0.1588 7.45313,0.30664 -0.003,0.50863 -0.0572,0.93187 -0.0859,1.47656 -2.55793,0.24064 -4.78124,0.53775 -7.75781,0.57618 -1.75261,0.0226 -3.2844,-0.26498 -4.76953,-0.4961 -0.0213,-0.58358 -2e-4,-0.97379 0.0117,-1.5664 1.58812,-0.13704 3.21612,-0.2819 5.14843,-0.29688 z m -186.134761,0.13672 c 0.123083,0.18338 0.270806,0.3441 0.404297,0.51953 -0.313062,0.41302 -0.660645,0.78081 -0.914062,1.23633 -3.618524,0.12934 -7.27222,0.114 -10.966797,-0.0449 -0.01828,-0.43604 0.0096,-0.8596 0.0059,-1.36719 1.633871,-0.12778 3.303442,-0.26418 5.160156,-0.33594 2.324896,-0.0899 4.557693,-0.084 6.310547,-0.008 z m 344.550781,0.0117 c 2.14059,-0.0305 4.10174,0.0245 5.75586,0.10742 0.0913,0.13127 0.19037,0.2537 0.28711,0.38086 -0.32892,0.43052 -0.74601,0.78524 -1.00977,1.26172 -3.66157,0.21281 -7.28061,0.21694 -10.85742,0.0117 0.001,-0.51744 0.0638,-0.95274 0.0957,-1.51758 1.76343,-0.11151 3.69221,-0.21517 5.72852,-0.24414 z m 70.49805,0.0566 c 1.44241,0.008 2.88551,0.11328 4.32812,0.16602 0.0102,0.46965 -0.0219,0.97345 -0.0293,1.45703 -3.93928,0.2032 -8.69658,0.28623 -12.4336,0.0937 -0.0366,-0.54284 0.008,-0.93534 -0.0195,-1.49414 2.71834,-0.14332 5.43676,-0.23786 8.1543,-0.22266 z m -346.05078,0.19727 c -0.0175,0.49014 -0.0197,0.9534 -0.0449,1.56835 -4.61933,0.0953 -8.72516,0.0841 -12.47265,-0.11718 -0.0119,-0.47051 -0.0243,-0.94303 -0.0215,-1.41016 4.17315,-0.22399 8.35529,-0.15189 12.53907,-0.041 z m 312.57226,6.15429 0.002,0.0352 c -2.1e-4,-0.004 -0.004,-0.007 -0.004,-0.0117 -4.2e-4,-0.008 0.002,-0.0155 0.002,-0.0234 z m 465.75,4.69141 0.0195,0.0801 c -0.002,-0.009 -0.007,-0.0165 -0.01,-0.0254 -0.005,-0.018 -0.005,-0.0367 -0.01,-0.0547 z m 1.29102,3.66601 c -0.22254,0.0937 -0.40938,0.20679 -0.60547,0.26758 -0.004,-0.0287 -0.009,-0.0572 -0.0137,-0.0859 0.21005,-0.0478 0.41065,-0.12639 0.61914,-0.18164 z m -570.9043,1.99219 c 0.0126,0.002 0.0343,0.01 0.0469,0.0117 l -0.0332,-0.004 c -7e-5,-10e-6 -0.0134,-0.008 -0.0137,-0.008 z m -110.38281,2.04102 c 0.0228,0.0141 0.0417,0.0172 0.0644,0.0312 0.0148,0.009 0.0242,0.0243 0.0391,0.0332 z m 33.70703,2.29101 c 0.002,-2.3e-4 0.004,2.4e-4 0.006,0 l -0.0176,0.004 c 0.004,-5.1e-4 0.008,-0.003 0.0117,-0.004 z m -151.9668,0.11328 c 0.003,4.1e-4 0.005,-4e-4 0.008,0 0.001,2e-4 0.003,0.002 0.004,0.002 z m 799.3125,1.44532 c -3.7e-4,0.005 0.002,0.0102 0.002,0.0156 l -0.002,0.0293 c 0.001,-0.015 -0.001,-0.03 0,-0.0449 z m -820.611326,1.33007 -0.02539,0.0527 c 0.0066,-0.0134 0.01102,-0.0276 0.01758,-0.041 0.0021,-0.004 0.0057,-0.007 0.0078,-0.0117 z"
         id="path10" />
      <path
         style="baseline-shift:baseline;display:inline;overflow:visible;vector-effect:none;stroke:none;enable-background:accumulate;stop-color:#000000;stop-opacity:1"
         d="m 811.61747,390.25 h 34.73 a 1,0.99 0 0 1 1,0.99 l 0.06,9.06 a 1,1 0 0 1 -1.01,1.01 q -15.48,-0.21 -30.27999,0.17 -6.75,0.17 -18.06,-0.36 a 1,1 0 0 1 -0.96,-1 l 0.1,-41.87 a 1,1 0 0 1 1,-1 h 48.15 a 1,0.99 0 0 1 1,0.99 l 0.06,9.09 a 0.99,0.99 0 0 1 -0.99,1 l -34.79999,0.15 a 1,1 0 0 0 -1,1 v 3.77 a 1,1 0 0 0 1,1 h 32.5 a 1,1 0 0 1 1,1 v 7.14 a 1,1 0 0 1 -1,1 l -32.5,0.05 a 1,1 0 0 0 -1,1 v 4.81 a 1,1 0 0 0 1,1 z m 86.58,0.93 q -2.33,-0.79 -4.85,-0.75 -10.64,0.16 -21.46,-0.05 a 1,1 0 0 0 -1.02,1 v 8.84 a 0.99,1 0 0 1 -0.99,1 l -11.25,0.09 a 1,1 0 0 1 -1.01,-1 v -42.06 a 1,1 0 0 1 1,-1 h 42 q 2.74,0 5.41999,0.63 8.21001,1.92 8.65,10.55 c 0.35,6.87 0.51,14.07 -8.30999,15.29 q -0.99,0.14 -0.94001,0.8 a 0.51,0.51 0 0 0 0.49,0.48 c 9.32001,0.35 8.23,8.79 8,15.27 a 0.99,0.99 0 0 1 -0.99,0.96 l -12.33,0.06 a 1,1 0 0 1 -1.01,-1.07 q 0.31,-4.24 -0.76,-8.34 a 1.01,1 2.9 0 0 -0.63999,-0.7 z m 0.34,-22.45 a 1.04,1.03 63.7 0 0 -0.58,-0.2 l -26.09,-0.07 a 0.99,1 0.3 0 0 -1,1 v 8.76 a 1,1 0 0 0 0.99,1 q 12.11,0.1 24.19,-0.03 c 5.65,-0.06 5.76,-8.08 2.49,-10.46 z m -143.66,-0.2 q -2.52,-0.08 -5.05,-0.2 c -4.34,-0.2 -8.81,0.44 -13.43,-0.17 a 0.99,1 3.6 0 1 -0.87,-0.99 l 0.01,-8.92 a 1,1 0 0 1 1,-1 h 52.17 a 1.01,1 89.1 0 1 1,0.98 l 0.21,9.17 a 1,1 0 0 1 -1,1.02 h -18.66 a 1,1 0 0 0 -1,1 l 0.08,30.89 a 1.01,1 0 0 1 -1.01,1 l -11.43,-0.08 a 1,1 0 0 1 -0.99,-1 l -0.06,-30.7 a 1,1 0 0 0 -0.97,-1 z m -66.8,21.21 c 7.04,0.62 13.76,0.59 20.79,-0.05 q 2.78999,-0.25 3.48,-2.98 c 2.02,-8.12 0.76,-19.91 0.83,-28.47 a 1,1 0 0 1 1,-0.99 h 11.07 a 1,1 0 0 1 1,0.97 q 0.42,13.83 -0.1,27.58 c -0.5,13.15 -8.97,15.32 -20.35,15.42 -10.64,0.1 -17.59,0.39 -24.11,-0.57 -8.21,-1.22 -11.95,-5.64 -12.45,-13.95 q -0.86,-14.23 -0.13,-28.5 a 1,1 0 0 1 1,-0.95 h 11.22 a 1,1 0 0 1 1,1.01 q -0.12,16.04 0.29,26.41 c 0.13,3.34 2.2,4.78 5.46,5.07 z m -68.92001,0.51 a 0.99,1 1.4 0 0 -1.03999,1 v 9 a 1,1 0 0 1 -1,1 h -11.25 a 1,1 0 0 1 -1,-1 v -41.99 a 1,1 0 0 1 1,-1 q 16.77999,-0.02 33.75,0.02 c 7.35,0.01 16.71,0.01 18.77999,9.19 1.77,7.9 1.61001,22.81 -9.77999,23.55 q -13.94001,0.91 -29.46001,0.23 z m 24.45001,-20.48 c -1.39,-0.71 -2.66,-1.3 -4.25,-1.28 q -10.13,0.15 -20.20001,-0.24 a 1,1 0 0 0 -1.03999,1 v 9.03 a 1.01,1 0 0 0 1.01,1 l 20.99,-0.1 q 3.5,-0.01 4.21,-2.45 0.97,-3.32 -0.25,-6.43 a 0.97,1.03 1.7 0 0 -0.47,-0.53 z m -64.74,1 q 0,-3.04 -1.5,-0.4 l -17.18,30.37 a 0.98,0.98 0 0 1 -0.86,0.51 h -10.19 a 1.01,1 75 0 1 -0.87,-0.51 l -17.15,-30.34 q -1.5,-2.64 -1.5,0.4 v 29.42 a 0.99,1 0 0 1 -0.99,1 l -11.25,0.09 a 1,1 0 0 1 -1.01,-1 v -42.06 a 1,1 0 0 1 1,-1 h 19.77 a 0.98,1 75.8 0 1 0.87,0.51 l 15.33,27.13 q 0.87,1.54 1.74,0 l 15.41,-27.13 a 1,1.01 15 0 1 0.87,-0.51 h 19.76 a 1,1 0 0 1 1,1 v 42 a 1,1 0 0 1 -1,1 h -11.25 a 1,1 0 0 1 -1,-1 z m -121.18001,30.15 c -7.11,-0.34 -13.58,-4.46 -14.05,-12.15 q -0.69,-11.29 0.68,-20.78 c 1.14,-7.91 6.57,-9.63 14.07,-10.2 q 15.06,-1.15 30.12,-0.16 c 13.91,0.92 16.24,6.75 16.43,20.11 q 0.09,6.81 -1.27,13.52 c -1.89999,9.31 -11.72,9.66 -19.48,9.9 q -13.26,0.4 -26.5,-0.24 z m 2.34,-12.02 c 6.43,2.23 16.46,1.34 22.28,0.99 3.7,-0.21 7.43,-0.3 7.91,-4.29 q 0.84,-7.07 -0.15,-13.31 -0.54,-3.36 -3.94,-3.6 -9.83,-0.7 -19.66,-0.11 c -4.15,0.24 -7.63,0.03 -8.31,4.39 -0.6,3.82 -0.96,11.25 1.31,15.46 a 1.03,1.04 85.3 0 0 0.56,0.47 z m -40.93,-1.38 0.33,-2.41 a 1,1 0 0 1 0.99,-0.86 h 11.36 a 1,1 0 0 1 1,0.95 q 0.33,6.15 -1.69,10.74 c -3.25999,7.4 -27.8,5.34 -34.97,5.27 -8.24,-0.09 -18.44,-0.52 -19.84,-10.39 -1.20999,-8.5 -2.52999,-26.6 5.83,-31.27 q 2.67,-1.48 8.79,-1.85 13.9,-0.85 27.79001,0.05 c 6.27999,0.4 10.22,1.38 12.01,7.61 q 0.95999,3.34 1.07999,6.84 a 1.01,1.01 0 0 1 -1,1.04 l -10.37,0.04 a 0.99,0.99 0 0 1 -1,-0.92 q -0.16,-2.2 -1.87,-3.19 c -2.6,-1.5 -21.11,-0.96 -24.36,0.07 q -2.35,0.75 -2.75,3.19 c -0.7,4.26 -2.23,16.66 4.36,17.33 q 10.53,1.08 21.4,-0.04 2.64,-0.27 2.91,-2.2 z m -190.23999,13.04 c -11.92,-1.29 -11.47,-14.1 -11.19,-22.56 0.33,-9.89 0.37,-19.08 12.97,-20.07 q 16.81,-1.31 33.66999,-0.32 c 9.2,0.55 13.45,4.72 14.46001,13.93 q 0.99,8.92 -0.56,18.31 c -1.43001,8.7 -6.90001,10.18 -15.21001,10.87 q -18.5,1.54 -34.13999,-0.16 z m 4.19,-29.74 c -1.47,5.17 -1.52001,12.1 0.31,17.22 a 0.99,0.99 0 0 0 0.41999,0.51 c 5.06,3.13 21.35,1.68 27.09,0.89 q 3.02001,-0.41 3.45,-3.43 c 0.59,-4.12 2.12,-16.65 -3.94,-17.35 -3.28,-0.37 -22.73,-1.65 -26.98,1.64 a 1.01,0.98 79.6 0 0 -0.34999,0.52 z m 107.06999,12.77 q -2.69,1.13 0.2,1.53 2.68,0.38 4.48,2.12 1.65,1.61 1.91001,4.98 0.31999,4.05 0.13999,8.08 a 1,0.99 1.2 0 1 -1,0.95 h -12.16 a 1,1 0 0 1 -1,-0.94 l -0.39,-6.89 q -0.16,-2.77 -3.17,-2.81 l -24.25,-0.28 a 1,1 0 0 0 -1.01,1 v 8.92 a 1,1 0 0 1 -1,1 h -11.41 a 1,1 0 0 1 -1,-1 l -0.12,-41.87 a 1,1 0 0 1 0.99,-1 q 21.23,-0.29 42.26,-0.05 c 5.73,0.06 11.49,1.35 13.34,7.32 1.77,5.67 2.21,16 -5.08,18.32 q -0.94,0.29 -1.73,0.62 z m -6.98,-13.37 q -0.39,-1.66 -3.52,-1.67 l -24.74,-0.14 a 1.01,1 0 0 0 -1.01,1 v 8.87 a 1.01,1 0 0 0 1.01,1 l 24.49,-0.09 q 3.04,-0.01 3.63,-2.09 0.96,-3.41 0.14,-6.88 z m -152.77,20.03 h 28.75 a 1,1 0 0 1 1,1 v 8.98 a 1,1 0 0 1 -1,1 q -16.47999,-0.01 -32.93,0.23 -4.57,0.06 -9.12,-0.19 a 1,0.99 1.5 0 1 -0.95,-0.99 v -42.03 a 1,1 0 0 1 1,-1 h 11.25 a 1,1 0 0 1 1,1 v 31 a 1,1 0 0 0 1,1 z M 45.347465,389.8 c 6.79,0.39 13.17,0.57 20.2,0.04 q 2.94,-0.22 3.35,-2.55 l 0.39,-2.21 a 1.01,1.01 0 0 1 0.99,-0.83 h 11.32 a 1,1 0 0 1 1,0.95 q 0.33,6.63 -2.64,12.68 a 0.99,0.99 0 0 1 -0.46,0.46 q -6.16,2.96 -13.89,2.96 c -10.09,0 -19.98,0.25 -30.01,-1.02 q -8.81,-1.12 -9.7,-10.01 c -1.04,-10.29 -3.43,-31.42 11.9,-32.46 q 15.1,-1.03 30.18,-0.11 c 7.77,0.47 12.13,2.24 13.07,10.36 q 0.31,2.72 0.4,4.19 a 1,1 0 0 1 -1,1.06 l -10.22,-0.02 a 0.99,1 87.1 0 1 -0.99,-0.89 q -0.24,-2.22 -1.92,-3.22 c -3.45,-2.03 -22.52,-0.47 -24.66,0.13 -3.47,0.96 -3.14,9.39 -2.92,12.38 0.34,4.46 0.5,7.82 5.61,8.11 z m 53.28,8.16 c -4.91,-3.27 -4.98,-6.91 -5.28,-13.01 -0.29,-5.79 -0.65,-17.45 2.85,-22.36 2.78,-3.91 7.939995,-4.69 12.489995,-4.91 8.67,-0.43 33.87,-2.73 41.2,3.39 6.86,5.71 5.61,26.86 2.22,33.91 -2.8,5.83 -12.89,5.83 -18.93,6.09 -10.71999,0.47 -27.18999,1.79 -34.549995,-3.11 z m 32.839995,-7.9 c 5.14001,-0.1 8.45001,-0.49 8.59,-6.58 0.14001,-6.03 1.91,-14.59 -5.25,-14.97 q -9.31999,-0.49 -18.60999,0.06 c -3.97,0.24 -7.78,0.15 -8.24,4.21 q -0.72,6.4 0.1,13.01 0.41,3.29 3.69,3.78 c 6.31,0.95 12.97,0.62 19.71999,0.49 z"
         id="path12" />
    </g>
  </g>
</svg>
