<?xml version='1.0' encoding='utf-8'?>
<svg xmlns="http://www.w3.org/2000/svg" width="600" height="211.69116698266365" viewBox="0 0 248.76821 87.770058" version="1.1" id="svg1">
    <defs id="defs1"/>
    <g id="layer1" transform="translate(-19.693392,-85.572215)">
        <g id="g62" transform="translate(32.67,16.5)">
            <path style="baseline-shift:baseline;display:inline;overflow:visible;vector-effect:none;fill:#ffffff;stroke-linecap:round;stroke-linejoin:round;paint-order:markers stroke fill;enable-background:accumulate;stop-color:#000000" d="m 45.78125,86.078125 c -6.545903,-0.0261 -12.003886,5.326637 -12.023438,11.869141 -0.01949,6.547984 5.305439,12.019544 11.84961,12.060544 6.574975,0.0422 12.039307,-5.31619 12.08789,-11.890623 0.04867,-6.567363 -5.345004,-12.012481 -11.912109,-12.039062 a 4.0004,4.0004 0 0 0 -0.002,0 z m -0.03125,8 c 2.327223,0.0094 3.962473,1.664812 3.945312,3.980469 -0.01622,2.194386 -1.807244,3.963546 -4.037109,3.949216 -2.330613,-0.0146 -3.909599,-1.59921 -3.902344,-4.037107 0.0072,-2.405316 1.50994,-3.902482 3.994141,-3.892578 z" id="path61"/>
            <g id="path2" style="opacity:1">
                <path style="baseline-shift:baseline;display:inline;overflow:visible;vector-effect:none;fill:#ffffff;stroke-linecap:round;stroke-linejoin:round;paint-order:markers stroke fill;enable-background:accumulate;stop-color:#000000;stop-opacity:1" d="m 18.169922,94.052734 c -17.299066,0.162484 -31.2434,14.258726 -31.146485,31.519536 0.09717,17.18861 14.2424043,31.2207 31.398438,31.12109 17.36392,-0.10085 31.331308,-14.2316 31.236328,-31.59766 C 49.563845,107.92305 35.334888,93.8911 18.169922,94.052734 Z m 0.07422,7.999996 c 2.287968,-0.0215 4.462933,0.40079 6.5625,1.00977 -4.199629,1.87562 -7.172426,6.08011 -7.201172,10.9375 -0.01983,3.37194 1.408308,6.41717 3.671875,8.61523 A 4.0004,4.0004 0 0 0 18.507812,124.0918 4.0004,4.0004 0 0 0 15.5,122.48633 h -2.261719 a 4.0004,4.0004 0 0 0 -3.9999997,4 c 0,2.22153 0.011523,4.45784 0.017578,6.68945 H 6.0703125 v -11.78515 a 4.0004,4.0004 0 0 0 -4,-4 h -2.16601562 a 4.0004,4.0004 0 0 0 -3.99999998,4 v 10.02148 c -0.5086983,-1.89017 -0.8692921,-3.83848 -0.8808594,-5.88477 -0.072805,-12.96675 10.185245,-23.35217 23.2207035,-23.47461 z m 11.357421,7.95508 c 2.437068,-0.0172 4.135896,1.65668 4.16211,4.01172 0.02517,2.27193 -1.711564,4.04295 -4.078125,4.05078 -2.356386,0.008 -4.093497,-1.74169 -4.080078,-4.02343 0.01373,-2.32047 1.715929,-4.02284 3.996093,-4.03907 z m 11.054688,8.90235 c 0.578171,1.99587 0.990019,4.05853 1.001953,6.23047 0.01121,2.08003 -0.319353,4.05452 -0.798828,5.96679 3.66e-4,-0.33546 -0.0012,-0.65191 -0.002,-0.99023 v -0.002 c -0.0037,-1.70211 -0.293693,-3.63395 -1.611328,-5.26562 -0.590835,-0.73165 -1.324483,-1.22264 -2.078125,-1.62695 1.462382,-1.1835 2.704588,-2.58708 3.488281,-4.3125 z m -5.294922,22.15039 c 0.04707,0.0273 0.09132,0.0428 0.138672,0.0684 -0.01127,0.0123 -0.01995,0.0268 -0.03125,0.0391 -0.04698,-0.0387 -0.06557,-0.069 -0.107422,-0.10742 z m -9.824219,1.31836 c 0.686457,0.47549 1.424347,0.85067 2.191407,1.07031 2.05669,0.58896 3.869632,0.32977 5.46289,-0.18164 -4.009676,3.31981 -9.107066,5.39262 -14.816406,5.42578 -5.67499,0.0329 -10.8335586,-2.08162 -14.8964844,-5.47852 h 7.5585934 a 4.0004,4.0004 0 0 0 1.710938,-0.70898 c 0.508879,0.32597 1.032046,0.61651 1.552734,0.78711 2.16884,0.71066 4.535481,0.44732 6.679688,-0.40039 0.05014,0.0196 0.09883,0.0772 0.148437,0.0937 2.217279,0.73775 2.971041,0.12515 2.953125,0.12695 a 4.0004,4.0004 0 0 0 1.455078,-0.73437 z" id="path3"/>
                <path style="baseline-shift:baseline;display:inline;overflow:visible;vector-effect:none;fill:#00007f;stroke-linecap:round;stroke-linejoin:round;paint-order:markers stroke fill;enable-background:accumulate;stop-color:#000000;stop-opacity:1" d="M 11.036298,137.17605 H 2.070996 v -15.78494 h -2.166237 v 17.82466 h 11.131539 z m 2.201724,-10.68975 c 0,3.4741 -0.05503,6.85769 0.02623,10.23819 0.03343,1.40765 0.958143,2.33287 2.281441,2.76643 2.330813,0.76374 4.374647,0.19081 6.310992,-1.73114 -0.09823,1.89366 0.915456,1.46473 1.824227,1.37319 v -12.61016 h -2.180124 c 0,2.33236 0.05555,4.55568 -0.02674,6.77386 -0.03446,0.92832 -0.211378,1.91321 -0.588875,2.75357 -0.625905,1.3953 -2.150809,2.00064 -3.597539,1.66994 -1.605134,-0.36618 -1.806226,-1.55525 -1.794397,-2.9274 0.02417,-2.74431 0.0072,-5.48863 0.0072,-8.30648 z m 13.257147,3.89274 c 0.977173,-0.26949 2.06852,-0.27463 2.229497,-0.66396 0.877912,-2.12355 2.591564,-1.73885 4.192585,-1.56553 1.047632,0.11314 1.704909,0.77248 1.659136,1.96308 -0.04474,1.15204 -0.85374,1.32124 -1.724967,1.48274 -1.50896,0.27926 -3.061122,0.43715 -4.508366,0.90979 -1.736281,0.56676 -2.472761,1.91938 -2.374015,3.71583 0.09412,1.70851 1.105234,2.88112 2.86003,3.38359 2.138979,0.61253 3.937491,-0.18155 5.089526,-1.0034 1.429758,0.48139 2.42596,0.86454 3.454049,1.1222 0.204692,0.0509 0.701507,-0.34252 0.75808,-0.59813 0.07869,-0.35692 -0.0684,-1.09083 -0.225264,-1.12169 -1.358784,-0.26589 -1.029632,-1.29398 -1.040432,-2.14258 -0.02417,-1.91166 -0.0041,-3.82434 -0.0082,-5.73652 -0.0051,-2.49487 -0.858883,-3.54919 -3.194326,-3.95857 -3.431419,-0.60225 -6.183445,0.38778 -6.889067,2.5031 -0.129089,0.38676 -0.137833,0.81363 -0.278237,1.71005 m 3.203584,-8.30956 c 4.504251,-0.0149 8.114133,-3.63766 8.06476,-8.09357 -0.04989,-4.48213 -3.664912,-7.99944 -8.189736,-7.96755 -4.411677,0.0314 -7.94287,3.58313 -7.9691,8.01538 -0.02623,4.46003 3.595996,8.06065 8.094076,8.04574 m -11.300745,30.62407 c -14.96617,0.0869 -27.289346,-12.13237 -27.374206,-27.14431 -0.08486,-15.11378 12.015624,-27.35415 27.182886,-27.49661 14.965142,-0.14092 27.369577,12.08917 27.451865,27.06511 0.08332,15.23412 -12.029509,27.48735 -27.260545,27.57581" id="path4"/>
            </g>
            <path style="baseline-shift:baseline;display:inline;overflow:visible;vector-effect:none;fill:#00007f;stroke-linecap:round;stroke-linejoin:round;paint-order:markers stroke fill;enable-background:accumulate;stop-color:#000000" d="m 37.756827,97.95954 c 0.01337,-4.47391 3.494164,-7.89864 8.009216,-7.88064 4.447164,0.018 7.961899,3.56771 7.928984,8.00922 -0.0324,4.38441 -3.659769,7.94801 -8.062189,7.91972 -4.437392,-0.0278 -7.889383,-3.55536 -7.876011,-8.0483" id="path62"/>
            <path style="baseline-shift:baseline;display:inline;overflow:visible;vector-effect:none;fill:#00007f;stroke-linecap:round;stroke-linejoin:round;paint-order:markers stroke fill;enable-background:accumulate;stop-color:#000000" d="m 34.425182,133.01176 c 0.453614,3.47616 -1.3953,5.45314 -4.412706,4.66214 -0.672192,-0.1764 -1.613363,-1.00906 -1.632907,-1.56707 -0.02366,-0.68454 0.645963,-1.78412 1.27341,-2.02121 1.508961,-0.56984 3.168097,-0.74059 4.772203,-1.07386" id="path60"/>
        </g>
        <g id="g48" transform="translate(2.5150001,-35.64)">
            <path style="baseline-shift:baseline;display:inline;overflow:visible;vector-effect:none;fill:#ffffff;stroke:none;stroke-width:5;stroke-linecap:round;stroke-linejoin:round;stroke-dasharray:none;stroke-opacity:1;paint-order:markers stroke fill;enable-background:accumulate;stop-color:#000000" d="m 93.160469,190.15391 a 2.50025,2.50025 0 0 0 -0.306641,0.004 c -2.46967,0.18234 -4.737295,1.06813 -6.306641,2.76953 -1.569345,1.70141 -2.308403,4.00879 -2.451171,6.57227 a 2.5,2.5 0 0 0 0.07813,0.0859 2.5,2.5 0 0 0 -0.07617,0.22461 c 0.247506,3.59032 1.682322,6.72437 4.537109,8.08203 2.404338,1.1441 5.151005,1.32687 7.861328,0.64062 1.758805,-0.44482 3.282817,-1.67084 4.201177,-3.23828 0.91835,-1.56744 1.36283,-3.42445 1.54687,-5.57812 a 2.50025,2.50025 0 0 0 -0.30078,-0.88477 2.50025,2.50025 0 0 0 0.32031,-0.99219 c -0.23569,-2.20649 -1.20297,-4.26411 -2.87304,-5.61523 -1.67008,-1.35112 -3.823342,-1.95183 -6.230474,-2.07031 z m 2.542968,2.80468 0.01953,0.0176 c -0.0031,-0.003 -0.0086,-0.005 -0.01172,-0.008 -0.0034,-0.003 -0.0044,-0.007 -0.0078,-0.01 z" id="path23"/>
            <path style="baseline-shift:baseline;display:inline;overflow:visible;vector-effect:none;fill:#ffffff;stroke:none;stroke-width:5;stroke-linecap:round;stroke-linejoin:round;stroke-dasharray:none;stroke-opacity:1;paint-order:markers stroke fill;enable-background:accumulate;stop-color:#000000" d="m 107.41242,194.275 c -0.80496,-0.11766 -1.64317,-0.0542 -2.55273,0.008 a 2.50025,2.50025 0 0 0 -0.43946,0.0684 c -1.99323,0.50156 -3.74398,1.34424 -4.83593,2.9707 a 2.50025,2.50025 0 0 0 0,0.002 c -0.8262,1.23132 -1.272284,2.69413 -1.314456,4.17773 -0.124806,1.73908 0.424296,3.50339 1.480466,4.89844 a 2.50025,2.50025 0 0 0 0.006,0.004 c 1.26502,1.66147 3.36535,2.47807 5.48047,2.52539 0.84432,0.0296 1.55539,0.0268 2.20508,-0.0371 0.18441,-0.0181 0.37176,-0.0466 0.55469,-0.0645 a 2.50025,2.50025 0 0 0 0.15039,0.14649 h 3.98047 a 2.50025,2.50025 0 0 0 2.5,-2.5 v -9.51953 a 2.50025,2.50025 0 0 0 -2.49414,-2.5 l -3.97266,-0.01 a 2.50025,2.50025 0 0 0 -0.19727,0.082 c -0.18515,-0.0495 -0.36258,-0.22444 -0.55078,-0.25195 z m 3.20899,11.20508 0.0156,0.60937 a 2.50025,2.50025 0 0 0 -0.24609,-0.3789 z" id="path25"/>
            <path style="baseline-shift:baseline;display:inline;overflow:visible;vector-effect:none;fill:#00007f;stroke:none;stroke-width:5;stroke-linecap:round;stroke-linejoin:round;stroke-dasharray:none;stroke-opacity:1;paint-order:markers stroke fill;enable-background:accumulate;stop-color:#000000" d="m 86.592379,199.63884 c 0.24275,-4.3587 2.390987,-6.68798 6.445225,-6.9873 4.127269,0.20315 6.374766,2.02121 6.741466,5.45417 l -4.429167,-0.017 c -0.254065,-1.63703 -0.683506,-2.7186 -1.287296,-3.2437 -0.604304,-0.53642 -1.219923,-0.4459 -1.846342,0.27103 -0.621276,0.71694 -0.948886,2.18784 -0.98283,4.41271 -0.06172,2.9418 0.24275,4.60711 0.914942,4.99695 0.671678,0.38367 1.349527,0.33584 2.032519,-0.144 0.683507,-0.47985 1.050203,-1.48222 1.101119,-3.00661 l -2.312299,-0.009 -0.0252,-1.8628 h 6.809354 c -0.32761,3.8336 -1.617481,6.03584 -3.870635,6.60569 -2.25264,0.57036 -4.310875,0.41247 -6.174189,-0.47419 -1.863314,-0.88614 -2.902202,-2.88523 -3.116666,-5.99624" id="path24"/>
            <path style="baseline-shift:baseline;display:inline;overflow:visible;vector-effect:none;fill:#ffffff;stroke:none;stroke-width:5;stroke-linecap:round;stroke-linejoin:round;stroke-dasharray:none;stroke-opacity:1;paint-order:markers stroke fill;enable-background:accumulate;stop-color:#000000" d="m 127.66242,194.08945 c -0.81964,-0.12205 -1.67082,-0.0889 -2.51562,0.0352 a 2.50025,2.50025 0 0 0 -0.5918,0.16211 c -0.55611,0.22956 -1.02183,0.52147 -1.51562,0.79101 -0.16207,-0.10815 -0.27595,-0.27877 -0.45118,-0.36523 -1.23422,-0.60899 -2.57432,-0.65983 -3.88867,-0.46094 a 2.5,2.5 0 0 0 -0.008,-0.006 c -0.008,0.001 -0.0152,0.007 -0.0234,0.008 -0.0162,0.002 -0.0326,-6.4e-4 -0.0488,0.002 a 2.5,2.5 0 0 0 -0.0527,0.0332 c -0.58657,0.0896 -1.13486,0.31841 -1.67383,0.56445 a 2.50025,2.50025 0 0 0 -0.57226,-0.23828 h -0.35547 -0.6875 -2.45508 a 2.50025,2.50025 0 0 0 -2.5,2.5 v 9.3418 a 2.50025,2.50025 0 0 0 2.5,2.5 h 3.48047 a 2.50025,2.50025 0 0 0 1.54883,-1.54883 2.50025,2.50025 0 0 0 1.55078,1.54883 h 0.68554 2.73633 a 2.50025,2.50025 0 0 0 1.85352,-1.85352 2.50025,2.50025 0 0 0 1.77539,1.79493 l 3.32812,0.0156 a 2.50025,2.50025 0 0 0 2.51367,-2.5 v -6.86719 a 2.50025,2.50025 0 0 0 -0.01,-0.21484 c -0.14215,-1.64746 -0.85998,-3.3592 -2.29688,-4.34766 -0.71844,-0.49422 -1.50653,-0.77247 -2.32617,-0.89453 z m -2.89844,2.29883 0.49219,0.0234 c -0.0901,-0.0133 -0.1939,0.0153 -0.28711,0.008 -0.065,1.7e-4 -0.14222,-0.0345 -0.20508,-0.0312 z" id="path27"/>
            <path style="baseline-shift:baseline;display:inline;overflow:visible;vector-effect:none;fill:#00007f;stroke:none;stroke-width:5;stroke-linecap:round;stroke-linejoin:round;stroke-dasharray:none;stroke-opacity:1;paint-order:markers stroke fill;enable-background:accumulate;stop-color:#000000" d="m 106.67328,197.84341 c -1.06152,0.0453 -1.61182,0.8666 -1.65142,2.46453 v 2.55762 c 0.0843,1.56965 0.64648,2.3915 1.68536,2.46505 1.01626,-0.10749 1.51616,-0.56213 1.49919,-1.36393 v -4.46311 c 0.0787,-1.0106 -0.43201,-1.56399 -1.53313,-1.66016 m 1.48222,-0.89797 3.97195,0.009 v 9.51972 h -3.9807 l -0.008,-0.32195 c -0.31063,0.24275 -1.25643,0.33584 -2.8374,0.27926 -1.6149,-0.0339 -2.80037,-0.54773 -3.5569,-1.54136 -0.75654,-0.99928 -1.08724,-2.08343 -0.99106,-3.25192 0.017,-1.07284 0.31886,-2.04692 0.9062,-2.92226 0.58733,-0.87483 1.71108,-1.52182 3.37073,-1.93944 1.5753,-0.10748 2.61728,0.0535 3.12541,0.48293 z" id="path26"/>
            <g id="path8" style="stroke:#ffffff;stroke-width:5;stroke-linecap:round;stroke-linejoin:round;stroke-dasharray:none;stroke-opacity:1;paint-order:markers stroke fill" transform="translate(-1.32,42.9)">
                <path style="baseline-shift:baseline;display:inline;overflow:visible;vector-effect:none;fill:#ffffff;stroke:none;enable-background:accumulate;stop-color:#000000;stop-opacity:1" d="m 137.06641,151.41211 c -1.95113,0.0884 -3.79887,0.66322 -5.19922,1.90234 -1.40036,1.23913 -2.18944,3.02323 -2.45703,4.9336 a 2.50025,2.50025 0 0 0 -0.0234,0.37695 l 0.008,0.66016 a 2.50025,2.50025 0 0 0 0.0547,0.49414 c 0.53251,2.48352 2.00323,4.70223 4.27344,5.5957 a 2.50025,2.50025 0 0 0 0.0117,0.004 c 1.87525,0.72782 3.93844,0.85257 5.95899,0.41992 2.53924,-0.54291 4.42583,-2.80068 5.07031,-5.40039 a 2.50025,2.50025 0 0 0 -0.0976,-0.46289 2.50025,2.50025 0 0 0 -0.0762,-0.35547 2.50025,2.50025 0 0 0 -0.0176,-0.0781 2.50025,2.50025 0 0 0 0.3457,-0.93554 c -0.10216,-1.99177 -0.80081,-3.91666 -2.24024,-5.23047 -1.43942,-1.31382 -3.36883,-1.86119 -5.42187,-1.92383 a 2.5,2.5 0 0 0 -0.13477,0.0508 2.5,2.5 0 0 0 -0.0547,-0.0508 z m 2.33789,12.78516 -0.0195,0.0137 c 0.005,-0.003 0.007,-0.009 0.0117,-0.0117 0.002,-0.001 0.006,-6.1e-4 0.008,-0.002 z" id="path29"/>
                <path style="baseline-shift:baseline;display:inline;overflow:visible;vector-effect:none;fill:#00007f;stroke:none;enable-background:accumulate;stop-color:#000000;stop-opacity:1" d="m 137.23028,154.94341 c -0.98232,0.0509 -1.48787,0.81002 -1.51616,2.27836 h 2.93923 c -0.0113,-1.40045 -0.48601,-2.15956 -1.42307,-2.27836 m -0.0509,-1.03323 c 3.33731,0.10183 5.08439,1.69668 5.24279,4.78506 h -6.70803 c -0.0509,2.04949 0.19801,3.21027 0.74522,3.48079 0.54773,0.26538 1.08981,0.23195 1.62622,-0.10132 0.54773,-0.33326 0.76528,-1.09237 0.65214,-2.27835 h 3.59959 -0.73699 0.73699 c -0.50247,2.02686 -1.55833,3.21284 -3.16758,3.55691 -1.60925,0.34458 -3.11975,0.24326 -4.53099,-0.30447 -1.4061,-0.55339 -2.32053,-1.81806 -2.74432,-3.79452 l -0.008,-0.66036 c 0.41762,-2.9814 2.18219,-4.54282 5.29319,-4.68374" id="path30"/>
            </g>
            <path style="baseline-shift:baseline;display:inline;overflow:visible;vector-effect:none;fill:#00007f;stroke:none;stroke-width:5;stroke-linecap:round;stroke-linejoin:round;stroke-dasharray:none;stroke-opacity:1;paint-order:markers stroke fill;enable-background:accumulate;stop-color:#000000" d="m 119.01342,196.72532 c 2.0212,-0.32195 3.29153,0.30498 3.81097,1.88029 0.27104,-0.71128 1.16644,-1.38039 2.68517,-2.00732 2.6538,-0.38984 4.08201,0.59299 4.28516,2.94746 v 6.86849 l -3.32804,-0.017 0.0252,-5.65731 c 0.0339,-1.29296 -0.4999,-1.91166 -1.60051,-1.85509 -0.95454,-0.14092 -1.64319,0.31373 -2.06698,1.36393 v 6.20762 h -3.42113 0.68556 -0.68556 v -6.49563 c 0,-0.85837 -0.50299,-1.33255 -1.50793,-1.42307 -0.70562,-0.0622 -1.23638,0.27669 -1.59228,1.01626 v 6.90244 h -3.48079 v -9.34126 h 3.14238 -0.68608 1.04146 l -0.008,1.13455 c 0.7622,-0.88048 1.66274,-1.38913 2.70163,-1.52439" id="path28"/>
            <path style="baseline-shift:baseline;display:inline;overflow:visible;vector-effect:none;fill:#ffffff;stroke:none;stroke-width:5;stroke-linecap:round;stroke-linejoin:round;stroke-dasharray:none;stroke-opacity:1;paint-order:markers stroke fill;enable-background:accumulate;stop-color:#000000" d="m 145.02375,190.38828 a 2.50025,2.50025 0 0 0 -2.5,2.5 v 13.54297 a 2.50025,2.50025 0 0 0 2.5,2.5 h 3.83594 a 2.50025,2.50025 0 0 0 2.5,-2.5 v -3.23438 h 3.30078 a 2.50025,2.50025 0 0 0 2.5,-2.5 v -2.07421 a 2.50025,2.50025 0 0 0 -0.67969,-0.67969 2.50025,2.50025 0 0 0 2.1875,-2.36914 v -2.68555 a 2.50025,2.50025 0 0 0 -2.5,-2.5 z" id="path31"/>
            <path style="baseline-shift:baseline;display:inline;overflow:visible;vector-effect:none;fill:#ffffff;stroke:none;stroke-width:5;stroke-linecap:round;stroke-linejoin:round;stroke-dasharray:none;stroke-opacity:1;paint-order:markers stroke fill;enable-background:accumulate;stop-color:#000000" d="m 162.86164,194.57383 a 2.5,2.5 0 0 0 -0.13477,0.1582 2.5,2.5 0 0 0 -0.17382,-0.11328 c -0.24477,0.0518 -0.4665,0.19943 -0.70703,0.2832 a 2.50025,2.50025 0 0 0 -0.68946,-0.28711 h -0.42383 -0.80468 -2.91211 a 2.50025,2.50025 0 0 0 -2.5,2.5 v 9.3418 a 2.50025,2.50025 0 0 0 2.5,2.5 h 4.12304 a 2.50025,2.50025 0 0 0 2.5,-2.5 v -4.12695 a 2.50025,2.50025 0 0 0 0.3125,0.13086 h 3.04883 a 2.50025,2.50025 0 0 0 2.5,-2.49414 c 0.004,-1.58405 -0.62395,-3.34558 -1.99414,-4.35547 -1.37019,-1.00989 -2.99409,-1.17548 -4.64453,-1.03711 z" id="path33"/>
            <path style="baseline-shift:baseline;display:inline;overflow:visible;vector-effect:none;fill:#00007f;stroke:none;stroke-width:5;stroke-linecap:round;stroke-linejoin:round;stroke-dasharray:none;stroke-opacity:1;paint-order:markers stroke fill;enable-background:accumulate;stop-color:#000000" d="m 145.02319,192.88863 h 11.14594 v 2.68465 l -7.30925,-0.008 v 3.05753 h 5.80132 v 2.07469 h -5.80132 v 5.73394 h -3.83669 z" id="path32"/>
            <path style="baseline-shift:baseline;display:inline;overflow:visible;vector-effect:none;fill:#ffffff;stroke:none;stroke-width:5;stroke-linecap:round;stroke-linejoin:round;stroke-dasharray:none;stroke-opacity:1;paint-order:markers stroke fill;enable-background:accumulate;stop-color:#000000" d="m 174.30305,194.275 c -0.80496,-0.11766 -1.64122,-0.0542 -2.55078,0.008 a 2.50025,2.50025 0 0 0 -0.43946,0.0684 c -1.99323,0.50156 -3.74594,1.34424 -4.83789,2.9707 a 2.50025,2.50025 0 0 0 0,0.002 c -0.8262,1.23132 -1.27228,2.69413 -1.31445,4.17773 -0.12481,1.73908 0.42625,3.50339 1.48242,4.89844 a 2.50025,2.50025 0 0 0 0.004,0.004 c 1.26501,1.66147 3.36729,2.47807 5.48242,2.52539 0.84431,0.0296 1.55344,0.0268 2.20312,-0.0371 0.18442,-0.0181 0.37177,-0.0466 0.55469,-0.0645 a 2.50025,2.50025 0 0 0 0.15039,0.14649 h 3.98242 a 2.50025,2.50025 0 0 0 2.5,-2.5 v -9.51953 a 2.50025,2.50025 0 0 0 -2.49609,-2.5 l -3.9707,-0.01 a 2.50025,2.50025 0 0 0 -0.19727,0.082 c -0.18569,-0.0497 -0.36399,-0.22436 -0.55273,-0.25195 z m 3.21093,11.20508 0.0156,0.60937 a 2.50025,2.50025 0 0 0 -0.24609,-0.3789 z" id="path35"/>
            <path style="baseline-shift:baseline;display:inline;overflow:visible;vector-effect:none;fill:#00007f;stroke:none;stroke-width:5;stroke-linecap:round;stroke-linejoin:round;stroke-dasharray:none;stroke-opacity:1;paint-order:markers stroke fill;enable-background:accumulate;stop-color:#000000" d="m 163.07105,197.06425 c 2.62551,-0.22012 3.93543,0.74522 3.92978,2.89655 h -3.04878 c 0.0226,-0.97101 -0.57911,-1.43696 -1.80417,-1.39736 -0.66602,0.14657 -1.00237,0.47676 -1.00803,0.99106 v 6.90244 h -4.12418 v -9.34177 h 3.71788 -0.80488 1.22815 l -0.008,1.13454 c 0.42893,-0.60944 1.06975,-1.00494 1.92246,-1.18546" id="path34"/>
            <path style="baseline-shift:baseline;display:inline;overflow:visible;vector-effect:none;fill:#ffffff;stroke:none;stroke-width:5;stroke-linecap:round;stroke-linejoin:round;stroke-dasharray:none;stroke-opacity:1;paint-order:markers stroke fill;enable-background:accumulate;stop-color:#000000" d="m 194.55305,194.08945 c -0.81965,-0.12205 -1.67083,-0.0889 -2.51563,0.0352 a 2.50025,2.50025 0 0 0 -0.58984,0.16211 c -0.55632,0.22965 -1.02363,0.52134 -1.51758,0.79101 -0.16206,-0.10815 -0.27595,-0.27877 -0.45117,-0.36523 -1.23054,-0.60717 -2.56442,-0.65771 -3.875,-0.46094 a 2.5,2.5 0 0 0 -0.0215,-0.006 c -0.008,0.001 -0.0152,0.007 -0.0234,0.008 -0.0156,0.002 -0.0313,-5.4e-4 -0.0469,0.002 a 2.5,2.5 0 0 0 -0.0508,0.0312 c -0.58809,0.0893 -1.13745,0.31976 -1.67773,0.5664 a 2.50025,2.50025 0 0 0 -0.57227,-0.23828 h -0.35547 -0.68555 -2.45703 a 2.50025,2.50025 0 0 0 -2.5,2.5 v 9.3418 a 2.50025,2.50025 0 0 0 2.5,2.5 h 3.48047 a 2.50025,2.50025 0 0 0 1.55078,-1.55078 2.50025,2.50025 0 0 0 1.55078,1.55078 h 0.68555 2.73438 a 2.50025,2.50025 0 0 0 1.85351,-1.85352 2.50025,2.50025 0 0 0 1.77539,1.79493 l 3.32813,0.0156 a 2.50025,2.50025 0 0 0 2.51367,-2.5 v -6.86719 a 2.50025,2.50025 0 0 0 -0.01,-0.21484 c -0.14214,-1.64746 -0.85998,-3.3592 -2.29687,-4.34766 -0.71845,-0.49422 -1.50653,-0.77247 -2.32617,-0.89453 z m -2.89844,2.29883 0.49219,0.0234 c -0.0901,-0.0133 -0.19391,0.0153 -0.28711,0.008 -0.065,1.8e-4 -0.1423,-0.0345 -0.20508,-0.0312 z" id="path37"/>
            <path style="baseline-shift:baseline;display:inline;overflow:visible;vector-effect:none;fill:#00007f;stroke:none;stroke-width:5;stroke-linecap:round;stroke-linejoin:round;stroke-dasharray:none;stroke-opacity:1;paint-order:markers stroke fill;enable-background:accumulate;stop-color:#000000" d="m 173.56486,197.84341 c -1.06152,0.0453 -1.61182,0.8666 -1.65142,2.46453 v 2.55762 c 0.0843,1.56965 0.64648,2.3915 1.68536,2.46505 1.01626,-0.10749 1.51616,-0.56213 1.49919,-1.36393 v -4.46311 c 0.0787,-1.0106 -0.43201,-1.56399 -1.53313,-1.66016 m 1.48222,-0.89797 3.97195,0.009 v 9.51972 h -3.9807 l -0.008,-0.32195 c -0.31063,0.24275 -1.25643,0.33584 -2.8374,0.27926 -1.6149,-0.0339 -2.80037,-0.54773 -3.5569,-1.54136 -0.75654,-0.99928 -1.08724,-2.08343 -0.99106,-3.25192 0.017,-1.07284 0.31886,-2.04692 0.9062,-2.92226 0.58733,-0.87483 1.71108,-1.52182 3.37073,-1.93944 1.5753,-0.10748 2.61728,0.0535 3.12541,0.48293 z" id="path36"/>
            <path style="baseline-shift:baseline;display:inline;overflow:visible;vector-effect:none;fill:#ffffff;stroke:none;stroke-width:5;stroke-linecap:round;stroke-linejoin:round;stroke-dasharray:none;stroke-opacity:1;paint-order:markers stroke fill;enable-background:accumulate;stop-color:#000000" d="m 202.63703,194.31211 c -1.95112,0.0884 -3.79886,0.66322 -5.19922,1.90234 -1.40035,1.23913 -2.18943,3.02323 -2.45703,4.9336 a 2.50025,2.50025 0 0 0 -0.0234,0.37695 l 0.008,0.66016 a 2.50025,2.50025 0 0 0 0.0566,0.49414 c 0.53251,2.48352 2.00128,4.70223 4.27148,5.5957 a 2.50025,2.50025 0 0 0 0.0117,0.004 c 1.87526,0.72756 3.93854,0.85255 5.95898,0.41992 2.53925,-0.54291 4.42583,-2.80068 5.07032,-5.40039 a 2.50025,2.50025 0 0 0 -0.0977,-0.46289 2.50025,2.50025 0 0 0 -0.0762,-0.35547 2.50025,2.50025 0 0 0 -0.0176,-0.0762 2.50025,2.50025 0 0 0 0.34766,-0.9375 c -0.10217,-1.99191 -0.80276,-3.91674 -2.24219,-5.23047 -1.43944,-1.31373 -3.36904,-1.86118 -5.42188,-1.92383 a 2.5,2.5 0 0 0 -0.13476,0.0508 2.5,2.5 0 0 0 -0.0547,-0.0508 z m 2.33984,12.78516 -0.0215,0.0137 c 0.004,-0.003 0.007,-0.007 0.0117,-0.01 0.003,-0.002 0.007,-0.002 0.01,-0.004 z" id="path39"/>
            <path style="baseline-shift:baseline;display:inline;overflow:visible;vector-effect:none;fill:#00007f;stroke:none;stroke-width:5;stroke-linecap:round;stroke-linejoin:round;stroke-dasharray:none;stroke-opacity:1;paint-order:markers stroke fill;enable-background:accumulate;stop-color:#000000" d="m 185.90449,196.72532 c 2.0212,-0.32195 3.29153,0.30498 3.81097,1.88029 0.27104,-0.71128 1.16644,-1.38039 2.68517,-2.00732 2.6538,-0.38984 4.08201,0.59299 4.28516,2.94746 v 6.86849 l -3.32804,-0.017 0.0252,-5.65731 c 0.0339,-1.29296 -0.4999,-1.91166 -1.60051,-1.85509 -0.95454,-0.14092 -1.64319,0.31373 -2.06698,1.36393 v 6.20762 h -3.42113 0.68556 -0.68556 v -6.49563 c 0,-0.85837 -0.50299,-1.33255 -1.50793,-1.42307 -0.70562,-0.0622 -1.23638,0.27669 -1.59228,1.01626 v 6.90244 h -3.48079 v -9.34126 h 3.14238 -0.68608 1.04146 l -0.008,1.13455 c 0.7622,-0.88048 1.66274,-1.38913 2.70163,-1.52439" id="path38"/>
            <path style="baseline-shift:baseline;display:inline;overflow:visible;vector-effect:none;fill:#ffffff;stroke:none;stroke-width:5;stroke-linecap:round;stroke-linejoin:round;stroke-dasharray:none;stroke-opacity:1;paint-order:markers stroke fill;enable-background:accumulate;stop-color:#000000" d="m 208.67023,194.12461 a 2.50025,2.50025 0 0 0 -2.32617,3.41601 l 3.86133,9.80665 a 2.50025,2.50025 0 0 0 2.32617,1.58398 h 3.56641 a 2.50025,2.50025 0 0 0 2.05859,-1.4668 2.50025,2.50025 0 0 0 2.08399,1.4668 h 3.54882 a 2.50025,2.50025 0 0 0 2.32813,-1.58984 l 3.82812,-9.8086 a 2.50025,2.50025 0 0 0 -2.33007,-3.4082 h -3.82618 a 2.50025,2.50025 0 0 0 -1.85937,1.41992 2.50025,2.50025 0 0 0 -2.01172,-1.41992 h -3.59961 a 2.50025,2.50025 0 0 0 -1.95703,1.39844 2.50025,2.50025 0 0 0 -1.83008,-1.39844 z" id="path41"/>
            <path style="baseline-shift:baseline;display:inline;overflow:visible;vector-effect:none;fill:#00007f;stroke:none;stroke-width:5;stroke-linecap:round;stroke-linejoin:round;stroke-dasharray:none;stroke-opacity:1;paint-order:markers stroke fill;enable-background:accumulate;stop-color:#000000" d="m 202.80135,197.84341 c -0.98232,0.0509 -1.48787,0.81002 -1.51616,2.27836 h 2.93923 c -0.0113,-1.40045 -0.48601,-2.15956 -1.42307,-2.27836 m -0.0509,-1.03323 c 3.33679,0.10183 5.08439,1.69668 5.24279,4.78506 h -6.70803 c -0.0509,2.04949 0.19801,3.21027 0.74522,3.48079 0.54773,0.26538 1.08981,0.23195 1.62622,-0.10132 0.54773,-0.33326 0.76528,-1.09237 0.65214,-2.27835 h 3.59959 -0.73699 0.73699 c -0.50247,2.02686 -1.55833,3.21284 -3.16758,3.55691 -1.60925,0.34458 -3.11924,0.24326 -4.53099,-0.30447 -1.4061,-0.55339 -2.32053,-1.81806 -2.74432,-3.79452 l -0.008,-0.66036 c 0.41762,-2.9814 2.18219,-4.54282 5.29319,-4.68374" id="path40"/>
            <path style="baseline-shift:baseline;display:inline;overflow:visible;vector-effect:none;fill:#ffffff;stroke:none;stroke-width:5;stroke-linecap:round;stroke-linejoin:round;stroke-dasharray:none;stroke-opacity:1;paint-order:markers stroke fill;enable-background:accumulate;stop-color:#000000" d="m 233.81867,194.30234 c -1.83001,-0.0584 -3.62281,0.37308 -5.10351,1.35743 -1.76939,1.17538 -2.65681,3.25349 -2.84375,5.40625 a 2.5,2.5 0 0 0 0.12695,0.15039 2.5,2.5 0 0 0 -0.13477,0.14257 c 0.0627,2.0441 0.64302,3.98753 2.03321,5.37891 1.43571,1.44349 3.40448,2.01828 5.60156,2.18555 a 2.50025,2.50025 0 0 0 0.18945,0.008 h 0.65235 a 2.50025,2.50025 0 0 0 0.2539,-0.0137 c 1.82565,-0.18581 3.54325,-0.80408 4.94727,-1.88477 a 2.50025,2.50025 0 0 0 0.008,-0.008 c 1.73224,-1.34524 2.47457,-3.59078 2.42383,-5.82617 a 2.50025,2.50025 0 0 0 -0.008,-0.15235 c -0.15813,-1.87983 -0.9314,-3.70229 -2.34961,-4.91406 -1.39361,-1.19005 -3.20005,-1.72977 -5.1211,-1.82812 a 2.50025,2.50025 0 0 0 -0.1289,-0.002 z" id="path43"/>
            <path style="baseline-shift:baseline;display:inline;overflow:visible;vector-effect:none;fill:#00007f;stroke:none;stroke-width:5;stroke-linecap:round;stroke-linejoin:round;stroke-dasharray:none;stroke-opacity:1;paint-order:markers stroke fill;enable-background:accumulate;stop-color:#000000" d="m 208.67056,196.62401 h 3.86189 l 1.67714,6.17419 2.10863,-6.17419 h 3.5996 l 2.19349,6.17419 1.67714,-6.17419 h 3.82794 l -3.82794,9.80773 h -3.54868 l -2.10864,-5.90315 -2.03303,5.90315 h -3.56565 z" id="path42"/>
            <path style="baseline-shift:baseline;display:inline;overflow:visible;vector-effect:none;fill:#ffffff;stroke:none;stroke-width:5;stroke-linecap:round;stroke-linejoin:round;stroke-dasharray:none;stroke-opacity:1;paint-order:markers stroke fill;enable-background:accumulate;stop-color:#000000" d="m 246.09992,194.57383 a 2.5,2.5 0 0 0 -0.13476,0.1582 2.5,2.5 0 0 0 -0.17383,-0.11328 c -0.24477,0.0518 -0.4665,0.19943 -0.70703,0.2832 a 2.50025,2.50025 0 0 0 -0.68946,-0.28711 h -0.42382 -0.80469 -2.91211 a 2.50025,2.50025 0 0 0 -2.5,2.5 v 9.3418 a 2.50025,2.50025 0 0 0 2.5,2.5 h 4.12305 a 2.50025,2.50025 0 0 0 2.5,-2.5 v -4.12695 a 2.50025,2.50025 0 0 0 0.3125,0.13086 h 3.04882 a 2.50025,2.50025 0 0 0 2.5,-2.49414 c 0.004,-1.58405 -0.62394,-3.34558 -1.99414,-4.35547 -1.37019,-1.00989 -2.99408,-1.17548 -4.64453,-1.03711 z" id="path45"/>
            <path style="baseline-shift:baseline;display:inline;overflow:visible;vector-effect:none;fill:#00007f;stroke:none;stroke-width:5;stroke-linecap:round;stroke-linejoin:round;stroke-dasharray:none;stroke-opacity:1;paint-order:markers stroke fill;enable-background:accumulate;stop-color:#000000" d="m 233.92584,197.97868 c -1.12375,0.0339 -1.69977,0.76785 -1.72754,2.20224 v 2.82866 c 0.0787,1.40044 0.66602,2.13692 1.76148,2.21046 1.08415,-0.10183 1.61491,-0.85528 1.59228,-2.26138 v -2.7438 c -0.0283,-1.47964 -0.57036,-2.22487 -1.62622,-2.23618 m -5.56423,3.30284 c 0.14658,-1.68793 0.72517,-2.86826 1.73628,-3.53993 1.01061,-0.67219 2.22436,-0.9854 3.64177,-0.94015 h 0.62642 c 1.54702,0.0792 2.75563,0.48962 3.62531,1.23227 0.86917,0.74265 1.36342,1.81651 1.4817,3.22261 0.0396,1.74451 -0.44589,3.00969 -1.4565,3.79452 -1.00494,0.77351 -2.23052,1.23329 -3.67571,1.38038 h -0.65213 c -1.85766,-0.14143 -3.19844,-0.62693 -4.02287,-1.45701 -0.81877,-0.81826 -1.25387,-2.04949 -1.30427,-3.69269" id="path44"/>
            <g id="path17" style="stroke:#ffffff;stroke-width:5;stroke-linecap:round;stroke-linejoin:round;stroke-dasharray:none;stroke-opacity:1;paint-order:markers stroke fill" transform="translate(-1.32,42.9)">
                <path style="baseline-shift:baseline;display:inline;overflow:visible;vector-effect:none;fill:#ffffff;stroke:none;enable-background:accumulate;stop-color:#000000;stop-opacity:1" d="m 252.23633,147.52344 a 2.50025,2.50025 0 0 0 -2.5,2.48828 l -0.0176,4.19336 a 2.50025,2.50025 0 0 0 0,0.01 v 9.3418 a 2.50025,2.50025 0 0 0 2.5,2.5 h 4.125 a 2.50025,2.50025 0 0 0 1.38477,-1.36914 l 0.13671,0.21875 a 2.50025,2.50025 0 0 0 2.1211,1.17578 h 4.48047 a 2.50025,2.50025 0 0 0 2.14453,-3.78516 l -4.32031,-7.21093 1.71679,-2.28125 a 2.50025,2.50025 0 0 0 -1.99804,-4.00391 H 259.875 a 2.50025,2.50025 0 0 0 -1.27539,0.61524 2.50025,2.50025 0 0 0 -2.24805,-1.89258 z" id="path47"/>
                <path style="baseline-shift:baseline;display:inline;overflow:visible;vector-effect:none;fill:#00007f;stroke:none;enable-background:accumulate;stop-color:#000000;stop-opacity:1" d="m 256.34351,163.55693 h -4.1247 v -9.34177 l 0.017,-4.19259 h 4.11596 l -0.008,5.71698 3.53171,-4.43791 h 2.13435 l -2.72734,3.6248 5.18364,8.65569 h -4.48059 l -3.29462,-5.27622 -0.29623,0.3559 z" id="path48"/>
            </g>
            <path style="baseline-shift:baseline;display:inline;overflow:visible;vector-effect:none;fill:#00007f;stroke:none;stroke-width:5;stroke-linecap:round;stroke-linejoin:round;stroke-dasharray:none;stroke-opacity:1;paint-order:markers stroke fill;enable-background:accumulate;stop-color:#000000" d="m 246.30868,197.06425 c 2.62551,-0.22012 3.93543,0.74522 3.92978,2.89655 h -3.04878 c 0.0226,-0.97101 -0.57911,-1.43696 -1.80417,-1.39736 -0.66602,0.14657 -1.00237,0.47676 -1.00803,0.99106 v 6.90244 h -4.12418 v -9.34177 h 3.71788 -0.80488 1.22815 l -0.008,1.13454 c 0.42893,-0.60944 1.06975,-1.00494 1.92246,-1.18546" id="path46"/>
        </g>
        <g id="g1" style="stroke:#ffffff;stroke-width:8;stroke-linecap:round;stroke-linejoin:round;stroke-dasharray:none;stroke-opacity:1;paint-order:markers stroke fill">
            <g id="path18" style="opacity:1">
                <path style="baseline-shift:baseline;display:inline;overflow:visible;vector-effect:none;fill:#ffffff;stroke:none;enable-background:accumulate;stop-color:#000000;stop-opacity:1" d="m 166.33594,85.601562 c -0.97398,0.08064 -1.96193,0.33238 -2.93555,0.757813 a 4,4 0 0 0 -0.01,0 c -0.002,9.9e-4 -0.004,0.0029 -0.006,0.0039 -0.003,0.0011 -0.005,8.16e-4 -0.008,0.002 a 4,4 0 0 0 -0.0117,0.01367 c -2.10445,0.928143 -3.51643,2.676543 -4.32617,4.539063 a 4.0004,4.0004 0 0 0 -0.0625,0.148437 c -0.78869,2.035712 -0.65039,3.563183 -0.65039,9.001955 v 2.74219 c -0.92806,0.12487 -1.85121,0.33732 -2.76172,0.78125 -1.56964,0.76529 -2.78358,2.12795 -3.54297,3.44922 -0.71135,1.21251 -1.27569,2.69886 -1.28906,4.29296 -0.0134,1.60193 0.50227,3.04995 1.14649,4.28907 0.72431,1.40624 1.93578,2.86631 3.54101,3.68554 1.60922,0.82127 3.25352,0.98829 4.90235,0.98829 h -1.99415 l 0.0488,6.98242 a 4.0004,4.0004 0 0 0 0,0.01 c 0.0507,5.25122 0.079,8.00121 0.17383,9.83203 0.0949,1.83083 0.38676,3.13547 0.69141,4.04883 a 4.0004,4.0004 0 0 0 0.002,0.008 c 1.43149,4.26194 4.32494,7.94074 8.29102,9.94727 4.06465,2.06913 9.0087,2.58154 13.48828,1.58203 a 4.0004,4.0004 0 0 0 0.0469,-0.01 c 2.04918,-0.48309 4.01271,-1.58479 5.32031,-3.32618 1.30761,-1.74138 1.82065,-3.95917 1.6836,-6.07422 a 4.0004,4.0004 0 0 0 0,-0.004 c -0.18794,-2.86257 -2.22805,-5.98305 -4.84375,-7.25977 -9.6e-4,-4.7e-4 -0.003,4.7e-4 -0.004,0 -0.93024,-0.45533 -2.30119,-0.86134 -3.57031,-0.86718 -1.26062,-0.006 -2.34348,0.21443 -3.76367,0.51953 -0.063,-1.29793 -0.096,-3.80757 -0.13281,-8.79297 l -0.0469,-6.61328 c 2.22787,-0.0123 4.00446,-0.0436 5.92773,-0.91016 2.0803,-0.93729 3.41663,-2.9495 4.14649,-4.5957 a 4.0004,4.0004 0 0 0 0.002,-0.008 c 0.55753,-1.26444 0.92639,-2.83076 0.69922,-4.38282 -0.42026,-3.19064 -2.10029,-5.32235 -4.8418,-6.72265 -0.6936,-0.35564 -1.83368,-0.76085 -2.86132,-0.88282 -1.02765,-0.12197 -1.99721,-0.11523 -3.57813,-0.11523 h 0.48438 l -0.0332,-3.093752 -0.0762,-7.074218 a 4.0004,4.0004 0 0 0 -0.85351,-2.423829 l -0.69922,-0.892578 c -1.92777,-2.533532 -4.74816,-3.820018 -7.69336,-3.576172 z m 0.2539,8.087891 a 4,4 0 0 0 0.01,0 c -0.11326,0.04983 0.85499,0.264924 0.99609,0.310547 l 0.0625,5.65625 0.0762,7.04883 a 4.0004,4.0004 0 0 0 4,3.95703 h 3.47266 c 1.53781,0 2.38193,0.0305 2.63477,0.0606 0.25283,0.03 -0.13915,-0.0968 0.15625,0.0547 a 4.0004,4.0004 0 0 0 0.008,0.006 c -0.0754,-0.0384 0.49434,0.82895 0.52734,0.61914 -0.0159,0.0362 -0.0105,0.0166 -0.0625,0.13477 -6.2e-4,0.001 6.3e-4,5.2e-4 0,0.002 -0.43515,0.98439 -0.21191,0.57979 -0.11718,0.53711 0.0961,-0.0433 -0.92906,0.20874 -3.19336,0.22071 h -3.47657 a 4.0004,4.0004 0 0 0 -4,4.02929 l 0.0762,10.62305 a 4.0004,4.0004 0 0 0 0,0.002 c 0.0381,5.16293 0.0575,7.79332 0.14843,9.4707 0.0455,0.8387 0.0885,1.46143 0.28516,2.22852 0.19664,0.76709 0.71527,1.67117 0.91797,1.95508 a 4.0004,4.0004 0 0 0 0.0664,0.0898 c 1.13041,1.49413 2.48847,2.15929 3.88086,2.58985 1.3924,0.43055 2.89042,0.58485 4.52735,0.21484 l -0.041,0.01 c 1.27634,-0.2744 1.94999,-0.34628 2.07422,-0.34571 0.12423,5.7e-4 -0.22047,-0.10029 0.0918,0.0527 a 4.0004,4.0004 0 0 0 0.0137,0.008 c 0.82657,0.40108 0.30046,-0.39478 0.36523,0.5918 0.0395,0.61879 -0.0678,0.7102 -0.0977,0.75 -0.0291,0.0388 -0.14572,0.18766 -0.73633,0.33398 -2.11995,0.4639 -6.48134,-0.0845 -8.0918,-0.9043 a 4.0004,4.0004 0 0 0 -0.0117,-0.006 c -1.35199,-0.68239 -3.62517,-3.28498 -4.32226,-5.35742 -2.5e-4,-7.4e-4 -0.002,-0.001 -0.002,-0.002 -0.22525,-0.67386 -0.2131,-0.45798 -0.28906,-1.92383 -0.0762,-1.47038 -0.11156,-4.24866 -0.16211,-9.48437 v -0.01 l -0.0762,-10.94336 a 4.0004,4.0004 0 0 0 -4,-3.97265 h -1.97851 c -1.01372,0 -1.33451,-0.15039 -1.26563,-0.11524 0.0689,0.0352 0.17126,0.24405 -0.0684,-0.22266 a 4.0004,4.0004 0 0 0 -0.0117,-0.0215 c -0.2913,-0.55913 -0.24327,-0.63922 -0.24414,-0.53516 -8.7e-4,0.10407 -0.0779,0.13173 0.19141,-0.32421 a 4.0004,4.0004 0 0 0 0.0293,-0.0488 c 0.25609,-0.44792 0.16001,-0.26697 0.11719,-0.2461 -0.0428,0.0209 0.29167,-0.12109 1.30274,-0.12109 h 1.95312 a 4.0004,4.0004 0 0 0 4,-4 v -6.59375 c 0,-5.337904 0.28577,-6.527776 0.11133,-6.082032 0.10738,-0.16322 0.24994,-0.337201 0.14844,-0.292969 a 4,4 0 0 0 0.004,-0.0039 z" id="path49"/>
                <path style="baseline-shift:baseline;display:inline;overflow:visible;vector-effect:none;fill:#7a7777;stroke:none;enable-background:accumulate;stop-color:#000000;stop-opacity:1" d="m 164.98867,90.027264 c -0.989,0.430985 -1.77485,1.318669 -2.28196,2.485104 -0.30446,0.785853 -0.38058,2.154923 -0.38058,7.556112 v 6.59283 h -1.95229 c -2.63733,0 -3.87937,0.60842 -4.89409,2.38328 -0.98849,1.67353 -0.98849,2.94129 -0.0504,4.74186 0.96329,1.87617 2.23104,2.5103 4.89358,2.5103 h 1.978 l 0.0761,10.95411 c 0.10131,10.4974 0.12652,11.05542 0.65933,12.65284 1.06461,3.16964 3.65103,6.31356 6.31357,7.65743 2.83997,1.4457 7.50571,1.97801 10.80187,1.24255 2.68774,-0.63362 4.10772,-2.5103 3.93029,-5.24844 -0.12652,-1.92709 -0.88717,-3.09352 -2.61162,-3.93029 -1.24256,-0.60894 -2.05412,-0.60894 -4.76706,-0.0257 -1.57222,0.35538 -3.54971,-0.27875 -4.33608,-1.31815 -0.5071,-0.71025 -0.5323,-1.03992 -0.60842,-11.35989 l -0.0761,-10.62444 h 3.4993 c 4.76706,-0.0252 5.75606,-0.4567 6.9477,-3.14444 0.38007,-0.86197 0.5071,-1.5465 0.40578,-2.20584 -0.17743,-1.41998 -1.36958,-3.0426 -2.71345,-3.72765 -0.989,-0.5071 -1.4961,-0.55751 -4.61483,-0.55751 h -3.47359 l -0.0761,-7.049011 -0.0761,-7.07473 -0.73545,-0.938086 c -1.29296,-1.699251 -3.95549,-2.408987 -5.85738,-1.572219" id="path50"/>
            </g>
            <g id="path19" style="opacity:1">
                <path style="baseline-shift:baseline;display:inline;overflow:visible;vector-effect:none;fill:#ffffff;stroke:none;enable-background:accumulate;stop-color:#000000;stop-opacity:1" d="m 102.56055,86.431641 c -1.67568,0 -2.44457,0.301888 -3.632816,0.841796 a 4,4 0 0 0 -0.0039,0.0039 4,4 0 0 0 -0.0078,0 c -1.733255,0.794498 -3.564,2.713218 -4.302753,4.472663 a 4.0004,4.0004 0 0 0 -0.01758,0.04297 c -0.837556,2.061876 -0.552646,2.809523 -0.607422,6.582031 -0.05478,3.772509 -0.06836,10.183849 -0.06836,21.394529 0,11.91906 0.0068,18.31156 0.06836,21.91406 0.03078,1.80125 0.06905,2.89063 0.154297,3.77344 0.0841,0.87091 0.31813,1.8578 0.693359,2.57813 2.950247,5.78786 11.376765,6.30066 14.966795,0.86914 a 4.0004,4.0004 0 0 0 0.0156,-0.0215 l 0.70898,-1.08984 a 4.0004,4.0004 0 0 0 0.64844,-2.1836 v -25.61132 c 0,-7.05647 -0.019,-13.54642 -0.0508,-18.33008 -0.0159,-2.391829 -0.0349,-4.356183 -0.0566,-5.761719 -0.0109,-0.702768 -0.0222,-1.262757 -0.0352,-1.6875 -0.006,-0.212371 -0.0121,-0.38689 -0.0215,-0.556641 -0.009,-0.169751 0.1816,0.225905 -0.14844,-1.013672 a 4.0004,4.0004 0 0 0 -0.0254,-0.0918 c -0.59929,-2.04986 -1.83426,-3.340187 -3.21094,-4.347657 -1.37667,-1.007469 -2.97894,-1.777343 -5.0664,-1.777343 z m 0,8 c -0.31261,0 0.064,0.03105 0.34179,0.234375 0.15187,0.111134 0.10247,0.02654 0.14063,0.07422 0.009,0.341736 0.0187,0.731006 0.0273,1.291016 0.021,1.362322 0.0389,3.311072 0.0547,5.689448 0.0316,4.75676 0.0508,11.23527 0.0508,18.27735 v 24.42382 l -0.0469,0.0723 c -3.5e-4,5.2e-4 -0.002,-5.2e-4 -0.002,0 -0.22113,0.33196 -0.74418,0.29411 -1.02929,-0.004 -0.0391,-0.46436 -0.0837,-1.32834 -0.11133,-2.94336 -0.0589,-3.44651 -0.0664,-9.8611 -0.0664,-21.77734 0,-11.20463 0.0133,-17.62221 0.0664,-21.279294 0.0327,-2.251454 0.20574,-3.486348 0.23047,-3.90039 0.0447,-0.0092 -0.0528,6.44e-4 0.0312,-0.03711 0.005,-0.0021 -0.003,3.03e-4 0.002,-0.002 0.005,0.0183 0.89758,-0.11914 0.31055,-0.11914 z" id="path51"/>
                <path style="baseline-shift:baseline;display:inline;overflow:visible;vector-effect:none;fill:#7a7777;stroke:none;enable-background:accumulate;stop-color:#000000;stop-opacity:1" d="m 100.58322,90.914434 c -1.217351,0.558017 -1.749653,1.11552 -2.281955,2.383273 -0.329667,0.811567 -0.380583,4.057323 -0.380583,26.472633 0,23.8353 0.0252,25.61015 0.456699,26.42121 1.571705,3.14444 6.161329,3.42319 8.088419,0.50761 l 0.71025,-1.09032 v -25.61015 c 0,-14.09854 -0.0761,-25.939817 -0.17743,-26.3204 -0.4819,-1.648336 -2.66254,-3.245756 -4.4374,-3.245756 -0.53281,0 -1.41998,0.228349 -1.978,0.4819" id="path52"/>
            </g>
            <g id="path20" style="opacity:1">
                <path style="baseline-shift:baseline;display:inline;overflow:visible;vector-effect:none;fill:#ffffff;stroke:none;enable-background:accumulate;stop-color:#000000;stop-opacity:1" d="m 207.0957,102.51172 c -1.9306,-0.0562 -3.57863,-0.0265 -5.22461,0.35351 a 4,4 0 0 0 -0.004,0.004 4,4 0 0 0 -0.008,-0.002 c -6.92703,1.62145 -12.51501,5.85072 -15.01367,11.96875 a 4.0004,4.0004 0 0 0 -0.006,0.0117 c -0.77819,1.92499 -1.36759,3.87967 -1.61523,6.56054 -0.24764,2.68088 -0.27344,6.18106 -0.27344,12.35938 0,5.50225 -0.005,8.2976 0.0703,10.08398 0.0749,1.78639 0.53664,3.39325 0.86719,4.07031 a 4.0004,4.0004 0 0 0 0.002,0.002 c 2.11827,4.33117 7.41147,6.0658 11.71094,3.89258 a 4.0004,4.0004 0 0 0 0.0156,-0.008 c 2.15845,-1.10297 3.81317,-3.41682 4.33789,-5.75195 0.24596,-1.07785 0.16527,-1.22042 0.20117,-1.92773 0.0362,-0.71377 0.0678,-1.61617 0.0937,-2.69922 0.0518,-2.16611 0.082,-5.03778 0.082,-8.29688 0,-5.15673 0.0102,-7.91357 0.0723,-9.37304 0.0621,-1.45948 0.042,-1.19279 0.24218,-1.77344 a 4.0004,4.0004 0 0 0 0.0137,-0.0371 c 0.32858,-0.98522 1.09851,-1.58268 1.04101,-1.5625 -0.0991,0.0489 3.33722,-0.31891 4.0332,-0.17383 a 4.0004,4.0004 0 0 0 0.0117,0.002 c 0.70305,0.14468 0.69705,0.14409 1.00586,0.76172 l -0.008,-0.0176 c 1.47538,2.98567 4.6183,5.42383 7.97266,5.42383 2.36601,0 5.01598,-1.16375 6.59375,-2.94336 a 4.0004,4.0004 0 0 0 0.0156,-0.0176 c 1.35467,-1.54587 2.36399,-3.76905 2.25781,-6.01172 -0.1061,-2.24116 -1.05202,-4.12262 -2.2832,-5.93946 l -0.002,-0.004 c -3.71712,-5.49702 -9.51742,-8.68456 -16.15625,-8.95508 a 4.0004,4.0004 0 0 0 -0.0469,0 z m -0.25586,7.99805 c 4.55196,0.19083 7.31729,1.71802 9.83399,5.4414 a 4.0004,4.0004 0 0 0 0.002,0.004 c 0.796,1.17421 0.91445,1.80087 0.91602,1.83398 0.001,0.0316 0.10477,-0.0836 -0.26953,0.34375 -0.39199,0.44466 0.0685,0.25 -0.60547,0.25 -0.39901,0 -0.14593,0.35842 -0.80078,-0.96679 a 4.0004,4.0004 0 0 0 -0.008,-0.0176 c -1.26249,-2.52499 -3.80394,-4.45185 -6.54883,-5.01758 -7.2e-4,-1.5e-4 -0.001,-0.002 -0.002,-0.002 -2.94858,-0.61338 -5.6503,-0.62992 -8.66797,0.58789 a 4.0004,4.0004 0 0 0 -0.0215,0.01 c -2.90073,1.1914 -4.64848,3.61925 -5.58789,6.42188 -0.30523,0.8902 -0.59104,2.21241 -0.66797,4.02148 -0.0773,1.81791 -0.0801,4.54965 -0.0801,9.71289 0,3.20671 -0.0305,6.03065 -0.0801,8.10547 -0.0248,1.03741 -0.0557,1.89023 -0.0859,2.48633 -0.0303,0.5961 -0.18824,1.33224 -0.01,0.55664 a 4.0004,4.0004 0 0 0 -0.006,0.0215 c -0.13141,0.58634 0.0245,0.28458 -0.16797,0.36914 -0.31541,0.14998 -0.7905,-0.0322 -0.9043,-0.26171 -0.19959,-0.40665 -0.006,0.49396 -0.0645,-0.89258 -0.0582,-1.38956 -0.0625,-4.24775 -0.0625,-9.75 0,-6.14538 0.0505,-9.56862 0.24024,-11.62305 0.18969,-2.05355 0.40009,-2.64662 1.0664,-4.29492 2.9e-4,-7.1e-4 -2.8e-4,-0.001 0,-0.002 1.45855,-3.56012 4.43729,-6.02011 9.41797,-7.1875 0.33246,-0.0761 1.61384,-0.19318 3.16406,-0.15039 z" id="path53"/>
                <path style="baseline-shift:baseline;display:inline;overflow:visible;vector-effect:none;fill:#7a7777;stroke:none;enable-background:accumulate;stop-color:#000000;stop-opacity:1" d="m 202.77028,106.76263 c -5.9587,1.39479 -10.24386,4.74186 -12.22186,9.58504 -1.44519,3.5749 -1.59742,5.09621 -1.59742,17.4199 0,11.0045 0,11.30897 0.5323,12.39929 1.11604,2.28195 4.00641,3.24576 6.31408,2.07932 1.19164,-0.60893 1.92709,-1.59742 2.25676,-3.06832 0.15172,-0.65934 0.27875,-5.57863 0.27875,-12.04443 0,-10.31997 0.0252,-10.9793 0.5323,-12.4502 0.63413,-1.90138 1.90189,-3.42319 3.32187,-4.00641 1.44519,-0.58322 4.53871,-0.76065 6.36448,-0.38007 1.72445,0.35487 2.99221,1.31867 3.77806,2.89037 1.06512,2.15544 2.51031,3.19536 4.38699,3.19536 1.5213,0 2.61162,-0.4819 3.60062,-1.59742 1.80006,-2.05412 1.69874,-4.08253 -0.32966,-7.07473 -3.11924,-4.61483 -7.4044,-6.9729 -13.00823,-7.20125 -1.74965,-0.0509 -3.22004,0.0252 -4.20904,0.25355" id="path54"/>
            </g>
            <g id="path21" style="opacity:1">
                <path style="baseline-shift:baseline;display:inline;overflow:visible;vector-effect:none;fill:#ffffff;stroke:none;enable-background:accumulate;stop-color:#000000;stop-opacity:1" d="m 119.64063,102.65234 c -1.03047,0.0679 -2.07931,0.3511 -3.11329,0.88868 a 4,4 0 0 0 -0.0449,0.004 c -0.006,0.003 -0.0115,0.0105 -0.0176,0.0137 -0.005,0.002 -0.009,0.001 -0.0137,0.004 a 4,4 0 0 0 -0.0137,0.0176 c -1.57906,0.83999 -3.19227,2.5089 -3.91211,4.05664 a 4.0004,4.0004 0 0 0 -0.008,0.0176 c -0.40738,0.8867 -0.69266,2.29497 -0.76563,4.13867 -0.073,1.84369 -0.082,4.72523 -0.082,10.03125 0,9.5554 0.035,12.01221 0.48633,14.23437 a 4.0004,4.0004 0 0 0 0.002,0.01 c 0.84755,4.1198 2.66867,7.53326 5.63868,10.70312 a 4.0004,4.0004 0 0 0 0.0156,0.0176 c 2.26234,2.38613 5.01255,4.14481 8.10547,5.17578 a 4.0004,4.0004 0 0 0 0.0312,0.01 c 1.97543,0.64003 3.59597,0.85318 6.67578,0.87891 a 4.0004,4.0004 0 0 0 0.0332,0 c 3.10664,0 4.76596,-0.23055 6.72657,-0.89258 6.78557,-2.25729 11.72378,-7.6357 13.6621,-14.69532 v -0.002 c 0.29403,-1.06479 0.5376,-2.32602 0.63086,-4.26758 0.0933,-1.94242 0.12289,-4.84487 0.17383,-10.32421 a 4.0004,4.0004 0 0 0 0,-0.004 c 0.0507,-6.15496 0.0811,-9.31572 -0.0996,-11.54492 -0.18002,-2.22082 -1.25729,-4.4047 -1.99023,-5.26953 -2.04726,-2.43262 -5.21369,-3.51621 -8.07617,-3.04493 -2.86842,0.47227 -5.49285,2.47298 -6.72461,5.39063 a 4.0004,4.0004 0 0 0 -0.0195,0.0488 c -1.05172,2.58915 -0.67579,4.10414 -0.67579,13.72851 0,5.30905 -0.01,8.15946 -0.0723,9.69727 -0.0627,1.53781 -0.0621,1.3751 -0.26563,2.00586 a 4.0004,4.0004 0 0 0 -0.0215,0.0644 c -0.31215,1.02754 -0.55936,1.24131 -0.91211,1.45508 -0.35225,0.21347 -1.14259,0.47528 -2.72461,0.38086 -1.15502,-0.076 -1.57586,-0.2687 -1.77734,-0.40235 -0.20245,-0.13428 -0.45805,-0.3571 -0.90039,-1.30273 -0.1509,-0.32049 -0.0267,0.36105 -0.10352,-1.21289 -0.0772,-1.5812 -0.12012,-4.6956 -0.18359,-10.59961 v -0.002 l -0.125,-12.32227 a 4.0004,4.0004 0 0 0 -0.68555,-2.19726 l -0.66406,-0.98438 c -1.29771,-1.95946 -3.17385,-3.04456 -5.12305,-3.57226 -0.9746,-0.26386 -2.01075,-0.40155 -3.0664,-0.33204 z m 0.57421,7.96875 c -0.21492,0.11461 0.0548,-0.01 0.40039,0.084 0.34562,0.0936 0.60009,0.35282 0.54493,0.26953 a 4.0004,4.0004 0 0 0 0.0195,0.0293 l 0.0117,0.0176 0.11523,11.12305 a 4.0004,4.0004 0 0 0 0,0.002 c 0.0635,5.91047 0.0975,8.98226 0.19141,10.90625 0.0939,1.924 0.48704,3.44261 0.83984,4.20118 a 4.0004,4.0004 0 0 0 0.004,0.006 c 0.82402,1.76369 2.01039,3.44627 3.72851,4.58593 1.71812,1.13966 3.70193,1.59107 5.69922,1.71875 a 4.0004,4.0004 0 0 0 0.0156,0.002 c 2.62256,0.15798 5.16628,-0.19871 7.35546,-1.52539 2.18032,-1.32132 3.67518,-3.55862 4.40625,-5.94336 0.30001,-0.9391 0.56471,-2.23644 0.64063,-4.09766 0.0767,-1.87895 0.0781,-4.70806 0.0781,-10.02344 0,-9.4955 0.4602,-11.57957 0.0898,-10.6875 0.2068,-0.4579 0.42604,-0.55221 0.63086,-0.58593 0.21238,-0.035 0.34698,-0.0707 0.6582,0.30078 a 4.0004,4.0004 0 0 0 0.0234,0.0293 c 0.45858,0.53676 -0.006,-0.71121 0.11133,0.73633 0.11733,1.44754 0.12287,4.69097 0.0723,10.83399 -0.0508,5.46857 -0.0863,8.38861 -0.16406,10.00781 -0.0778,1.62014 -0.11346,1.66339 -0.35156,2.52539 a 4.0004,4.0004 0 0 0 -0.002,0.006 c -1.35813,4.95158 -3.96789,7.73219 -8.48242,9.23047 a 4.0004,4.0004 0 0 0 -0.0215,0.008 c -1.62576,0.54952 -1.22637,0.47369 -4.13672,0.47266 -2.93395,-0.0245 -2.66781,0.0319 -4.25391,-0.48243 -1.92059,-0.64154 -3.37799,-1.56869 -4.81445,-3.08203 -2.29033,-2.44669 -3.0073,-3.80619 -3.62891,-6.82226 v -0.004 c -0.20789,-1.02445 -0.32617,-3.12877 -0.32617,-12.63867 0,-5.29321 0.0159,-8.19256 0.0762,-9.71484 0.0598,-1.51164 0.0185,-1.06336 0.041,-1.10743 0.24648,-0.55681 -0.32756,0.0144 0.39648,-0.36328 a 4,4 0 0 0 0.0137,-0.0156 4,4 0 0 0 0.0176,-0.002 z" id="path55"/>
                <path style="baseline-shift:baseline;display:inline;overflow:visible;vector-effect:none;fill:#7a7777;stroke:none;enable-background:accumulate;stop-color:#000000;stop-opacity:1" d="m 118.33279,107.09178 c -1.16644,0.60842 -1.67354,1.14123 -2.18064,2.23155 -0.43098,0.93809 -0.4819,1.90138 -0.4819,12.50061 0,9.53412 0.0761,11.81608 0.40579,13.43921 0.73545,3.57491 2.0032,5.9587 4.64002,8.77296 1.85149,1.9528 3.95601,3.29667 6.46631,4.13344 1.80006,0.58321 2.45939,0.65933 5.4768,0.68453 3.04312,0 3.65154,-0.0761 5.45159,-0.68453 5.65475,-1.87669 9.43281,-5.9587 11.08114,-11.96831 0.5323,-1.92709 0.5575,-2.61162 0.65934,-13.56573 0.10131,-12.29797 0.0504,-12.80508 -1.14124,-14.19986 -2.35807,-2.81477 -6.61803,-2.10452 -8.06322,1.31867 -0.32966,0.81157 -0.38058,2.61162 -0.38058,12.22186 0,10.62443 -0.0252,11.35989 -0.5323,12.93159 -1.03992,3.42319 -3.49931,4.91929 -7.70835,4.66574 -3.16964,-0.20263 -4.79277,-1.29295 -6.06053,-4.0064 -0.5071,-1.09032 -0.5323,-1.64783 -0.65933,-13.46442 l -0.12652,-12.32317 -0.68454,-1.0142 c -1.24255,-1.87617 -4.25995,-2.68774 -6.16184,-1.67354" id="path56"/>
            </g>
            <g id="path22" style="opacity:1">
                <path style="baseline-shift:baseline;display:inline;overflow:visible;vector-effect:none;fill:#ffffff;stroke:none;enable-background:accumulate;stop-color:#000000;stop-opacity:1" d="m 247.27148,102.68164 c -1.77173,-0.0562 -3.5488,0.10205 -5.23046,0.48242 a 4,4 0 0 0 -0.0195,-0.004 c -0.007,0.002 -0.0126,0.006 -0.0195,0.008 -0.003,7.1e-4 -0.007,-7.1e-4 -0.01,0 a 4,4 0 0 0 -0.008,0.006 c -7.07479,1.57906 -12.92815,6.68098 -15.38671,13.45703 a 4.0004,4.0004 0 0 0 -0.004,0.0117 c -1.25095,3.48095 -1.67859,6.1869 -1.67969,11.04883 -1e-5,0.003 2e-5,0.006 0,0.01 0,0.002 0,0.004 0,0.006 -0.0247,6.87428 1.17009,11.86238 4.16406,16.38281 a 4.0004,4.0004 0 0 0 0.01,0.0156 c 2.67391,3.99553 6.72641,6.83242 11.53516,8.14648 0.002,5.1e-4 0.004,-5.1e-4 0.006,0 3.76003,1.04286 8.02384,1.03514 11.74023,0.0332 a 4.0004,4.0004 0 0 0 0.0215,-0.006 c 5.82224,-1.60209 10.65391,-5.51608 13.28321,-10.90039 a 4.0004,4.0004 0 0 0 0.0137,-0.0273 c 1.64189,-3.43066 2.49679,-7.08991 2.71875,-11.55469 0.70195,-12.63702 -5.30536,-23.50782 -15.91211,-26.33789 -1.66406,-0.45305 -3.43906,-0.72078 -5.22266,-0.77734 z m -3.50781,8.28125 a 4,4 0 0 0 0.0137,0.002 c 0.81801,-0.18731 5.49857,-0.0926 6.625,0.21485 a 4.0004,4.0004 0 0 0 0.0234,0.006 c 6.52565,1.73743 10.55456,8.09945 9.99219,18.17382 a 4.0004,4.0004 0 0 0 0,0.0273 c -0.18422,3.73436 -0.75104,6.00192 -1.94141,8.49414 -1.62871,3.32637 -4.44424,5.64351 -8.19336,6.67969 -0.80021,0.21407 -6.7174,0.20514 -7.51953,-0.0176 a 4.0004,4.0004 0 0 0 -0.0195,-0.004 c -3.19113,-0.86885 -5.36845,-2.44145 -7,-4.875 -2.17236,-3.28235 -2.85374,-5.84609 -2.83008,-11.9414 a 4.0004,4.0004 0 0 0 0,-0.0156 c 0,-4.551 0.1297,-5.35382 1.20508,-8.34765 l 0.002,-0.002 c 1.49354,-4.11351 5.25847,-7.41839 9.62696,-8.38476 a 4,4 0 0 0 0.0156,-0.01 z m 3.42969,1.01172 c -1.56642,-0.0776 -3.15632,0.17638 -4.80469,0.83594 a 4.0004,4.0004 0 0 0 -0.0117,0.004 c -3.43833,1.38794 -6.15006,4.30281 -7.40039,7.86133 -0.77307,2.20216 -0.75147,4.06675 -0.80664,6.41797 -0.0551,2.35053 -0.0319,4.56841 0.42578,6.60937 1.4e-4,6.1e-4 -1.3e-4,0.001 0,0.002 0.63401,2.85134 1.95649,5.43593 4.09571,7.24804 2.1423,1.81474 4.9582,2.67188 7.81836,2.67188 4.13683,0 8.13017,-1.91272 10.30664,-5.45898 a 4.0004,4.0004 0 0 0 0.002,-0.002 c 1.78736,-2.91519 2.2361,-6.25561 2.33789,-9.73242 0.10179,-3.47681 -0.18134,-6.88864 -1.72852,-9.92187 a 4.0004,4.0004 0 0 0 -0.01,-0.0176 c -1.20067,-2.32604 -3.0101,-4.25086 -5.54492,-5.33789 a 4,4 0 0 0 -0.0215,-0.0215 c -0.006,-0.003 -0.0131,-0.001 -0.0195,-0.004 -0.006,-0.003 -0.009,-0.009 -0.0156,-0.0117 a 4,4 0 0 0 -0.0293,0 c -1.52805,-0.65397 -3.04897,-1.06604 -4.59375,-1.14258 z m -1.83008,8.26367 c 0.005,3.3e-4 2.66026,-0.0458 3.3125,0.23633 a 4,4 0 0 0 0.0195,0 4,4 0 0 0 0.0156,0.0156 c 0.3196,0.13456 1.17733,0.87 1.59179,1.66407 0.37985,0.75142 0.93096,3.46483 0.85547,6.04297 -0.0756,2.58238 -0.8176,5.22525 -1.16015,5.78515 -0.56271,0.91686 -1.74254,1.64258 -3.48828,1.64258 -1.39981,0 -2.09462,-0.30986 -2.64649,-0.77734 -0.55186,-0.46749 -1.10486,-1.2779 -1.46094,-2.88477 a 4.0004,4.0004 0 0 0 -0.002,-0.01 c -0.0994,-0.44312 -0.2787,-2.69987 -0.23242,-4.67187 0.0463,-1.97104 0.47109,-4.27586 0.35742,-3.95312 v -0.002 c 0.72556,-2.06459 1.01243,-2.35032 2.83789,-3.08789 z" id="path57"/>
                <path style="baseline-shift:baseline;display:inline;overflow:visible;vector-effect:none;fill:#7a7777;stroke:none;enable-background:accumulate;stop-color:#000000;stop-opacity:1" d="m 250.26344,116.80334 c 1.44519,0.60842 2.78906,1.95229 3.60062,3.52451 1.92709,3.77806 1.67354,12.27277 -0.45618,15.74636 -1.36959,2.23156 -3.95601,3.55023 -6.8973,3.55023 -4.25996,0 -7.02381,-2.33288 -8.01281,-6.79598 -0.55751,-2.48459 -0.40527,-8.95039 0.25355,-10.82708 0.989,-2.81477 2.4851,-4.41219 5.12244,-5.47679 1.64782,-0.65934 4.51351,-0.53282 6.38968,0.27875 m -7.37868,-9.73675 c -5.73086,1.26775 -10.54832,5.47679 -12.52633,10.92839 -1.16643,3.24575 -1.44518,4.99541 -1.44518,9.71155 -0.0252,6.49151 0.91288,10.26957 3.4993,14.17466 2.15493,3.22004 5.27416,5.42588 9.28057,6.51671 2.28196,0.63362 7.37868,0.63362 9.63544,0.0252 4.79226,-1.31867 8.62123,-4.43739 10.75095,-8.79866 1.41999,-2.96701 2.13024,-5.9335 2.33288,-10.04122 0.63413,-11.35989 -4.38648,-19.98113 -12.95731,-22.26308 -2.23104,-0.60894 -6.4658,-0.73545 -8.57032,-0.25355" id="path58"/>
            </g>
        </g>
    </g>
</svg>
