<?xml version='1.0' encoding='utf-8'?>
<svg xmlns="http://www.w3.org/2000/svg" width="600" height="108.58879275210768" xml:space="preserve" version="1.1" id="svg15" viewBox="0 0 581.93359 105.31911">
    <defs id="defs15"/>
    <path style="baseline-shift:baseline;display:inline;overflow:visible;vector-effect:none;fill:#ffffff;stroke-linecap:round;stroke-linejoin:round;paint-order:markers stroke fill;enable-background:accumulate;stop-color:#000000" d="m 290.83072,0.00121614 c 0,0 -10.96349,0.12081 -15.38867,0.5195398 a 7.50075,7.50075 0 0 0 -0.006,0 C 269.35577,1.0722259 262.98819,1.6828959 256.51417,3.0422359 250.33441,4.340126 244.31929,6.044816 238.35988,8.241456 a 7.50075,7.50075 0 0 0 -0.004,0.002 c -4.6567,1.71884 -8.9436,3.80222 -12.98633,5.77735 a 7.50075,7.50075 0 0 0 -0.004,0.002 c -2.29814,1.12432 -4.06252,2.29684 -5.58789,3.2168 -0.003,0.002 -0.005,0.002 -0.008,0.004 -6.3e-4,3.8e-4 -10e-4,0.002 -0.002,0.002 -1.9593,1.17766 -3.76389,2.35244 -5.26953,3.19921 a 7.50075,7.50075 0 0 0 -0.0176,0.01 c -2.02297,1.14476 -4.11829,2.15659 -6.27344,3.02734 -3.62135,1.46012 -7.59029,2.72401 -11.60156,3.89453 -4.24249,1.2382 -7.22029,2.16014 -12.00391,3.08594 l 0.002,-0.002 c -4.9101,0.94951 -11.72788,2.029 -17.58008,2.74023 -5.17386,0.62805 -10.51293,1.10992 -15.76367,1.47461 -8.78108,0.60969 -17.67168,0.93988 -26.52735,1.07422 -5.7582,0.0874 -11.56649,-0.18251 -17.74218,-0.32422 h -0.002 c -7.7809,-0.18122 -16.103793,-0.50273 -24.263677,-0.34179 -8.327064,0.1644 -16.612612,0.44072 -25.269531,1.59765 -7.444616,0.9945 -15.062503,2.09482 -22.841797,4.30274 a 7.50075,7.50075 0 0 0 -0.002,0 c -5.717486,1.62483 -11.751368,3.6972 -17.423827,6.62109 a 7.50075,7.50075 0 0 0 -0.279297,0.15039 c -3.203699,1.82739 -6.979959,3.88216 -10.41211,7.15234 -3.4321514,3.27018 -6.48970861,8.39633 -6.4960936091786,14.39063 a 7.50075,7.50075 0 0 0 0,0.002 C -0.00889261,80.134536 8.021608,87.592086 16.558601,92.159896 22.737397,95.46471 28.039419,97.64225 33.93946,99.32005 a 7.50075,7.50075 0 0 0 0.002,0 c 7.897091,2.24324 15.942492,3.26578 23.310547,4.24805 8.690519,1.16249 17.168711,1.40633 25.476562,1.56836 a 7.50075,7.50075 0 0 0 0.146485,0 c 0.004,0 345.132966,0.41098 416.226566,0 l -0.0684,-0.0684 a 7.50075,7.50075 0 0 0 0.17188,0.0684 c 8.307,-0.163 16.7846,-0.40635 25.47461,-1.56836 7.36864,-0.98235 15.41434,-2.0034 23.3125,-4.24805 5.90354,-1.67709 11.20352,-3.85653 17.38281,-7.162114 8.53964,-4.5673 16.56926,-12.02553 16.55859,-22.85937 a 7.50075,7.50075 0 0 0 0,-0.002 c -0.007,-5.99413 -3.0657,-11.11796 -6.49804,-14.38868 -3.43234,-3.27071 -7.20878,-5.32555 -10.41407,-7.15234 a 7.50075,7.50075 0 0 0 -0.27734,-0.15039 c -5.67278,-2.92405 -11.70275,-4.99484 -17.41992,-6.62109 a 7.50075,7.50075 0 0 0 -0.004,0 c -7.77862,-2.20912 -15.39721,-3.30924 -22.84179,-4.30274 h -0.002 c -8.65541,-1.15675 -16.94174,-1.43227 -25.26758,-1.59765 a 7.50075,7.50075 0 0 0 -0.002,0 c -8.15799,-0.1599 -16.48126,0.16058 -24.26172,0.34179 -6.17517,0.14366 -11.98383,0.41164 -17.74218,0.32422 -8.85301,-0.13433 -17.74374,-0.4646 -26.52735,-1.07422 h -0.002 c -5.25382,-0.36598 -10.59301,-0.84451 -15.75977,-1.47461 a 7.50075,7.50075 0 0 0 -0.002,0 c -5.84867,-0.71092 -12.66521,-1.79029 -17.57813,-2.73828 -4.78349,-0.92689 -7.76243,-1.84776 -12.00585,-3.08594 -4.01351,-1.17145 -7.98177,-2.43446 -11.60547,-3.89648 -2.15228,-0.86837 -4.24461,-1.879 -6.26368,-3.02344 a 7.50075,7.50075 0 0 0 -0.0176,-0.01 c -1.51147,-0.85145 -3.32175,-2.02724 -5.27735,-3.20313 l -0.004,-0.002 c -1.52829,-0.92039 -3.29113,-2.09249 -5.58399,-3.2168 a 7.50075,7.50075 0 0 0 -0.006,-0.002 c -4.0468,-1.98014 -8.33475,-4.06366 -12.99218,-5.78125 a 7.50075,7.50075 0 0 0 -0.006,-0.002 c -5.91557,-2.17562 -11.98368,-3.91252 -18.1543,-5.1972701 -6.47192,-1.35695 -12.83746,-1.96816 -18.91602,-2.52147996 a 7.50075,7.50075 0 0 0 -0.008,0 c -4.42459,-0.3981598 -15.39062,-0.5195398 -15.39062,-0.5195398 a 7.50075,7.50075 0 0 0 -0.27344,0 z m 0.13672,15.00195986 c 0.23675,0.006 12.51034,0.30663 14.18164,0.45703 l -0.008,-0.002 c 6.00544,0.54667 11.79514,1.13257 17.19921,2.26562 a 7.50075,7.50075 0 0 0 0.0117,0.002 c 5.45033,1.13434 10.81008,2.6686 16.03516,4.58985 3.74675,1.38174 7.58887,3.22293 11.58398,5.17773 1.2296,0.60294 2.61608,1.49228 4.45508,2.59961 a 7.50075,7.50075 0 0 0 0.006,0.004 c 1.61389,0.97032 3.51911,2.21948 5.63086,3.41015 0.003,0.001 0.005,0.002 0.008,0.004 0.004,0.002 0.006,0.004 0.01,0.006 2.5888,1.46636 5.27014,2.75983 8.0293,3.87305 4.35229,1.75598 8.77913,3.15017 13.01562,4.38672 4.13258,1.20582 7.86896,2.34899 13.35547,3.4121 a 7.50075,7.50075 0 0 0 0.004,0.002 c 5.35673,1.03379 12.35775,2.13954 18.61718,2.90039 5.49137,0.66959 11.07698,1.16891 16.53125,1.54883 a 7.50075,7.50075 0 0 0 0.002,0 c 9.10975,0.63229 18.2675,0.96976 27.33984,1.10742 6.36165,0.0966 12.37153,-0.18783 18.31836,-0.32617 a 7.50075,7.50075 0 0 0 0.002,0 c 7.93289,-0.18477 16.06171,-0.48981 23.61719,-0.3418 8.18553,0.1626 15.86426,0.43772 23.57812,1.46875 a 7.50075,7.50075 0 0 0 0.002,0 c 7.31682,0.97643 14.18574,2.00654 20.73047,3.86523 5.10171,1.45138 10.21599,3.25666 14.55273,5.48047 3.09796,1.77069 5.81233,3.44352 7.3125,4.87305 1.53166,1.45954 1.84389,2.03295 1.8457,3.54883 -4.4e-4,1.35992 -3.50975,6.87524 -8.63281,9.61523 a 7.50075,7.50075 0 0 0 -0.002,0 c -5.49671,2.94043 -9.45379,4.55208 -14.40625,5.95899 -6.42984,1.82735 -13.80196,2.8249 -21.19531,3.81054 a 7.50075,7.50075 0 0 0 -0.004,0 c -7.6491,1.02306 -15.51244,1.27448 -23.67773,1.43555 -6.7e-4,1e-5 -0.001,-1e-5 -0.002,0 -70.73727,0.40892 -415.879643,2e-4 -416.050779,0 -8.180792,-0.16002 -16.059796,-0.41052 -23.722656,-1.43555 a 7.50075,7.50075 0 0 0 -0.0039,0 c -7.39277,-0.98557 -14.765477,-1.98234 -21.195313,-3.80859 h -0.0019 c -4.950563,-1.40792 -8.910696,-3.02077 -14.404297,-5.95898 h -0.002 c -5.122928,-2.74176 -8.632144,-8.25752 -8.632811,-9.61915 v -0.002 c 0.0019,-1.51392 0.312954,-2.08637 1.84375,-3.54492 1.501035,-1.4302 4.220366,-3.10082 7.322264,-4.875 4.33683,-2.223 9.448784,-4.03221 14.544922,-5.48047 l -0.002,0.002 c 6.546706,-1.85808 13.415038,-2.88773 20.732422,-3.86523 7.714451,-1.03098 15.393939,-1.3052 23.578125,-1.4668 7.557459,-0.14905 15.686523,0.15506 23.621093,0.33985 a 7.50075,7.50075 0 0 0 0.002,0 c 5.94155,0.1363 11.95125,0.42277 18.31641,0.32617 9.07433,-0.13766 18.23291,-0.47511 27.33984,-1.10742 5.46126,-0.37931 11.04706,-0.88288 16.5332,-1.54883 6.2598,-0.76077 13.25924,-1.86585 18.61914,-2.90235 a 7.50075,7.50075 0 0 0 0.002,0 c 5.48763,-1.06205 9.22268,-2.20648 13.35351,-3.4121 4.23931,-1.23707 8.66801,-2.63349 13.01563,-4.38672 a 7.50075,7.50075 0 0 0 0.004,-0.002 c 2.75633,-1.11365 5.4377,-2.40582 8.02539,-3.86914 l 0.01,-0.006 c 2.12513,-1.19579 4.0289,-2.44754 5.64062,-3.41601 a 7.50075,7.50075 0 0 0 0.01,-0.006 c 1.83524,-1.10638 3.21638,-1.99407 4.44141,-2.59375 l 0.004,-0.002 c 3.99923,-1.95386 7.84434,-3.79707 11.58985,-5.17969 5.24999,-1.93515 10.53527,-3.43569 16.04882,-4.59375 5.40399,-1.13467 11.19159,-1.71915 17.19532,-2.26367 l -0.004,0.002 c 1.66279,-0.14983 13.94276,-0.45122 14.17969,-0.45703 z" id="path16"/>
    <path d="m 499.51736,97.214909 c 8.256,-0.162 16.444,-0.409003 24.631,-1.504003 7.381,-0.984 15.09,-1.993 22.254,-4.029 5.428,-1.542 10.057,-3.437 15.895,-6.56 6.832,-3.654 12.602,-10.143 12.596,-16.239 -0.009,-7.51 -6.74,-11.396 -13.125,-15.035 -5.015,-2.585 -10.609,-4.529 -16.037,-6.073 -7.162,-2.034 -14.406,-3.098 -21.787,-4.083 -8.185,-1.094 -16.168,-1.369 -24.424,-1.533 -7.857,-0.154 -16.084,0.158 -23.941,0.341 -6.061,0.141 -11.971,0.417 -18.031,0.325 -8.963,-0.136 -17.987,-0.469 -26.934,-1.09 -5.355,-0.373 -10.818,-0.862 -16.148,-1.512 -6.055,-0.736 -12.965,-1.829 -18.1,-2.82 -5.135,-0.995 -8.492,-2.027 -12.68,-3.249 -4.125,-1.204 -8.322,-2.533 -12.31,-4.142 a 60.158,60.158 0 0 1 -7.156,-3.453 c -1.816,-1.023 -3.677,-2.238 -5.465,-3.313 -1.684,-1.014 -3.26,-2.046 -5.022,-2.91 -4.022,-1.968 -8.088,-3.93 -12.291,-5.48 a 120.94,120.94 0 0 0 -17.103,-4.8960004 c -5.938,-1.245 -12.016,-1.843 -18.058,-2.393 -3.056,-0.275 -14.854,-0.49 -14.854,-0.49 0,0 -11.802,0.215 -14.854,0.49 -6.042,0.548 -12.119,1.146 -18.058,2.393 -5.847,1.2280004 -11.498,2.8300004 -17.103,4.8960004 -4.202,1.551 -8.269,3.515 -12.291,5.48 -1.764,0.863 -3.34,1.896 -5.022,2.91 -1.789,1.075 -3.646,2.29 -5.465,3.313 a 60.723,60.723 0 0 1 -7.158,3.453 c -3.985,1.607 -8.184,2.938 -12.31,4.142 -4.187,1.222 -7.543,2.254 -12.679,3.248 -5.135,0.993 -12.044,2.085 -18.1,2.821 -5.33,0.647 -10.793,1.14 -16.149,1.512 -8.944,0.621 -17.968,0.954 -26.933,1.09 -6.062,0.092 -11.971,-0.186 -18.03,-0.325 -7.858001,-0.183 -16.084003,-0.495 -23.943003,-0.34 -8.256,0.163 -16.238,0.438 -24.424,1.532 -7.381,0.986 -14.624,2.05 -21.787,4.083 -5.426,1.542 -11.023,3.488 -16.038,6.073 -6.385,3.642 -13.1160004,7.525 -13.1240004,15.035 -0.005,6.097 5.7660004,12.585 12.5970004,16.24 5.837,3.122 10.468,5.017 15.894,6.56 7.164,2.035 14.874,3.044 22.255,4.028 8.186,1.095 16.374,1.342003 24.629,1.503003 0.004,0 345.259003,0.41 416.183003,0 z" id="path1" style="fill:#000000;fill-opacity:1"/>
    <linearGradient id="a" gradientUnits="userSpaceOnUse" x1="284.45001" y1="-415.98801" x2="284.45001" y2="-475.99399" gradientTransform="matrix(1,0,0,-1,7.3543566,-382.00009)">
        <stop offset="0" style="stop-color:#f1f3f2" id="stop1"/>
        <stop offset=".194" style="stop-color:#a4b5d3" id="stop2"/>
        <stop offset=".586" style="stop-color:#f1f3f2" id="stop3"/>
        <stop offset=".6" style="stop-color:#5878b5" id="stop4"/>
        <stop offset="1" style="stop-color:#f1f3f2" id="stop5"/>
    </linearGradient>
    <path fill="url(#a)" d="m 272.79836,48.781906 c -5.688,-0.354 -11.369,-0.9 -17.009,-1.721 -2.925,-0.427 -5.817,-1.055 -8.712,-1.657 -1.859,-0.387 -3.73,-0.742 -5.561,-1.257 -3.459,-0.974 -6.947,-1.953 -10.215,-3.45 -3.813,-1.746 -9.41,-5.425 -10.83,-6.402 -1.42,-0.979 -1.996,-1.67 -2.604,-1.671 -0.753,0.024 -1.433,0.39 -2.233,0.697 -4.707,1.814 -9.4,3.699 -14.236,5.138 -6.178,1.835 -12.483,3.243 -18.816,4.436 -6.262,1.178 -12.591,2.008 -18.928,2.676 -7.372,0.774 -14.779,1.199 -22.184,1.537 -6.226,0.285 -12.458,0.354 -18.69,0.415 -8.47,0.083 -16.94,-0.155 -25.411001,-0.062 -8.062002,0.091 -16.143002,-0.044 -24.179002,0.604 -7.37,0.596 -14.771,1.353 -21.977,3.007 -5.555,1.275 -10.329,2.483 -16.251,5.306 -5.47,2.604 -12.708,7.281 -12.746,13.461 -0.038,6.116 7.126,10.469 12.45,13.479 2.818,1.594 11.498,4.311 17.459,5.708 6.875,1.611 13.932,2.436 20.966,3.055 8.415,0.739 16.884,0.649 25.331002,0.779 H 485.18936 c 8.446,-0.13 16.916,-0.04 25.33,-0.779 7.034,-0.619 14.092,-1.44 20.967,-3.055 5.961,-1.397 14.641,-4.114 17.459,-5.708 5.324,-3.01 12.487,-7.36 12.451,-13.479 -0.039,-6.18 -7.275,-10.854 -12.746,-13.461 -5.922,-2.82 -10.695,-4.028 -16.25,-5.306 -7.207,-1.654 -14.607,-2.412 -21.979,-3.007 -8.033,-0.647 -16.115,-0.514 -24.176,-0.604 -8.471,-0.096 -16.941,0.145 -25.412,0.062 -6.229,-0.063 -12.465,-0.13 -18.688,-0.415 -7.406,-0.338 -14.813,-0.762 -22.185,-1.537 -6.338,-0.667 -12.666,-1.498 -18.93,-2.676 -6.332,-1.191 -12.64,-2.601 -18.814,-4.437 -4.836,-1.438 -9.528,-3.319 -14.237,-5.137 -0.802,-0.309 -1.734,-0.729 -2.284,-0.561 -0.509,0.086 -1.69,0.94 -2.55,1.533 -3.455,2.379 -7.021,4.656 -10.832,6.402 -3.269,1.498 -6.757,2.478 -10.216,3.45 -1.829,0.515 -3.698,0.87 -5.56,1.257 -2.896,0.604 -5.788,1.23 -8.714,1.657 -5.639,0.819 -11.318,1.364 -17.007,1.721 -14.104,0.403 -16.633,0.291 -19.963,0.287 -9.494,-0.006 -12.017,0.091 -18.055,-0.285 z" id="path5" style="fill:url(#a)"/>
    <linearGradient id="b" gradientUnits="userSpaceOnUse" x1="1.7640001" y1="261.543" x2="1.7640001" y2="259.414" gradientTransform="matrix(2.5123,0,0,-12.4474,289.29636,3270.9049)">
        <stop offset="0" style="stop-color:#f1f3f2" id="stop6"/>
        <stop offset=".898" style="stop-color:#a4b5d3" id="stop7"/>
        <stop offset="1" style="stop-color:#5878b5" id="stop8"/>
    </linearGradient>
    <path fill="url(#b)" d="m 350.67736,29.490906 c 0,7.391 -25.497,13.383 -56.951,13.383 -31.451,0 -56.949,-5.992 -56.949,-13.383 0,-7.393 25.498,-13.385 56.949,-13.385 31.452,0 56.951,5.992 56.951,13.385 z" id="path8" style="fill:url(#b)"/>
    <path d="m 98.699359,87.707906 c -8.445002,-0.129 -17.579002,0.039 -26.329002,-0.688 -5.462,-0.454 -10.98,-0.904 -16.284,-2.293 -5.424,-1.419 -11.206,-2.718 -15.668,-6.11 -2.922,-2.225 -6.594,-5.285 -6.594,-8.827 0,-2.274 1.791,-4.304 3.475,-5.805 4.464,-3.979 10.615,-5.685 16.348,-7.388 6.58,-1.957 13.513,-2.559 20.352,-3.153 8.204,-0.715 16.64,-0.402 24.701002,-0.493 m 385.206001,34.757 c 8.447,-0.129 17.658,0.041 26.447,-0.688 5.463,-0.454 10.981,-0.904 16.285,-2.293 5.424,-1.419 11.206,-2.718 15.666,-6.11 2.926,-2.225 6.596,-5.285 6.596,-8.827 0,-2.274 -1.791,-4.304 -3.476,-5.805 -4.463,-3.979 -10.612,-5.685 -16.346,-7.388 -6.582,-1.957 -13.514,-2.56 -20.353,-3.153 -8.242,-0.718 -16.759,-0.402 -24.82,-0.493" id="path9"/>
    <path d="m 95.219357,52.949906 389.851003,0.008 v 34.75 l -389.290003,-0.12 z" id="path10"/>
    <path fill="#0f0e43" d="m 310.08136,22.937906 c -0.369,1.215 -0.74,2.438 -1.108,3.667 -0.371,1.229 -0.742,2.465 -1.112,3.708 -0.372,1.242 -0.742,2.488 -1.113,3.742 l -1.111,3.772 c 0.186,-0.008 0.367,-0.016 0.552,-0.021 0.183,-0.008 0.364,-0.016 0.55,-0.022 l 0.548,-0.025 c 0.184,-0.008 0.367,-0.017 0.551,-0.024 0.372,-1.212 0.743,-2.419 1.114,-3.62 0.372,-1.199 0.743,-2.396 1.114,-3.583 a 989.117,989.117 0 0 1 2.225,-7.043 c 0.04,-0.158 0.103,-0.308 0.18,-0.438 0.078,-0.132 0.173,-0.248 0.278,-0.343 0.107,-0.097 0.229,-0.171 0.354,-0.221 a 1.086,1.086 0 0 1 0.826,0.027 c 0.129,0.057 0.252,0.139 0.356,0.239 0.107,0.101 0.204,0.221 0.281,0.354 0.078,0.133 0.138,0.283 0.18,0.44 0.313,0.979 0.629,1.953 0.943,2.919 0.313,0.967 0.628,1.927 0.94,2.879 0.313,0.953 0.629,1.899 0.942,2.839 0.313,0.938 0.629,1.869 0.942,2.794 l -1.479,0.093 c -0.492,0.03 -0.984,0.061 -1.479,0.089 l -1.479,0.083 c -0.492,0.025 -0.986,0.052 -1.479,0.076 v 2.153 a 392.86,392.86 0 0 0 4.399,-0.31 320.07,320.07 0 0 0 2.198,-0.178 c 0.73,-0.062 1.465,-0.125 2.196,-0.19 a 557.474,557.474 0 0 1 -3.332,-10.152 682.912,682.912 0 0 1 -1.114,-3.517 3.948,3.948 0 0 0 -0.485,-1.093 4.058,4.058 0 0 0 -0.781,-0.887 3.798,3.798 0 0 0 -1.006,-0.609 3.486,3.486 0 0 0 -1.166,-0.259 3.207,3.207 0 0 0 -1.162,0.158 c -0.362,0.119 -0.7,0.303 -1.002,0.539 a 3.522,3.522 0 0 0 -0.776,0.858 3.941,3.941 0 0 0 -0.485,1.106 z m 2.614,9.042 0.192,-0.622 0.194,-0.62 0.192,-0.619 c 0.063,-0.206 0.13,-0.412 0.194,-0.617 0.066,0.204 0.136,0.407 0.203,0.608 l 0.202,0.607 0.204,0.606 c 0.066,0.201 0.135,0.403 0.202,0.604 l -0.396,0.013 -0.398,0.014 -0.396,0.012 z m -0.326,-7.086 c -0.332,1.044 -0.664,2.096 -0.996,3.151 -0.331,1.059 -0.663,2.12 -0.994,3.188 -0.332,1.067 -0.664,2.144 -0.998,3.222 l -0.994,3.25 c 0.216,-0.012 0.429,-0.021 0.645,-0.032 l 0.642,-0.032 c 0.216,-0.013 0.431,-0.022 0.646,-0.036 0.214,-0.013 0.428,-0.023 0.643,-0.037 0.138,-0.446 0.274,-0.893 0.412,-1.336 0.139,-0.444 0.273,-0.89 0.413,-1.331 0.136,-0.441 0.272,-0.884 0.409,-1.323 0.137,-0.44 0.272,-0.881 0.412,-1.319 v 2.462 l 1.296,-0.063 1.293,-0.065 c 0.432,-0.022 0.862,-0.046 1.294,-0.069 0.432,-0.023 0.861,-0.048 1.294,-0.073 -0.257,-0.774 -0.513,-1.555 -0.771,-2.339 a 666.06,666.06 0 0 1 -2.31,-7.184 13.235,13.235 0 0 0 -0.172,-0.557 7.036,7.036 0 0 0 -0.267,-0.7 3.073,3.073 0 0 0 -0.341,-0.604 c -0.121,-0.158 -0.254,-0.26 -0.392,-0.265 -0.138,-0.004 -0.271,0.09 -0.395,0.242 a 2.85,2.85 0 0 0 -0.34,0.591 8.514,8.514 0 0 0 -0.266,0.697 21.39,21.39 0 0 0 -0.163,0.562 z m -14.083,-2.132 c 0.645,0.003 1.285,0.007 1.93,0.012 0.644,0.005 1.283,0.012 1.928,0.019 0.643,0.006 1.284,0.015 1.928,0.021 0.645,0.008 1.285,0.019 1.929,0.026 l -10e-4,-0.606 v -1.213 a 61.409,61.409 0 0 1 0,-0.607 427.25,427.25 0 0 0 -1.975,-0.045 c -0.657,-0.015 -1.314,-0.025 -1.976,-0.036 a 213.97,213.97 0 0 0 -1.973,-0.026 c -0.659,-0.009 -1.315,-0.015 -1.976,-0.02 a 3.438,3.438 0 0 0 -1.5,0.334 3.793,3.793 0 0 0 -1.226,0.928 4.38,4.38 0 0 0 -0.827,1.382 4.853,4.853 0 0 0 -0.303,1.688 v 9.086 c -10e-4,0.6 0.107,1.169 0.303,1.688 0.195,0.521 0.479,0.986 0.828,1.379 0.348,0.392 0.762,0.708 1.227,0.925 0.459,0.217 0.969,0.333 1.5,0.326 0.658,-0.008 1.316,-0.02 1.977,-0.03 0.658,-0.014 1.315,-0.028 1.976,-0.046 0.658,-0.019 1.314,-0.038 1.975,-0.061 0.657,-0.021 1.314,-0.048 1.976,-0.074 v -2.834 c -0.002,-0.944 -0.002,-1.891 -0.003,-2.834 v -2.833 l -10e-4,-2.833 -1.563,-0.002 -1.562,-0.003 -1.559,-10e-4 -1.563,-0.001 v 1.694 c 0.002,0.188 0,0.377 0,0.564 l 1.011,-0.003 1.011,-0.004 1.008,-0.004 1.008,-0.006 10e-4,1.683 v 1.683 l 0.001,1.681 10e-4,1.683 c -0.459,0.013 -0.916,0.022 -1.376,0.033 -0.46,0.01 -0.919,0.02 -1.378,0.026 -0.459,0.006 -0.917,0.016 -1.377,0.021 l -1.377,0.018 a 1.659,1.659 0 0 1 -0.715,-0.154 1.794,1.794 0 0 1 -0.582,-0.438 2.107,2.107 0 0 1 -0.394,-0.654 2.264,2.264 0 0 1 -0.146,-0.804 v -6.506 l 10e-4,-2.168 c 0,-0.283 0.049,-0.557 0.143,-0.803 0.092,-0.247 0.229,-0.469 0.394,-0.654 0.166,-0.188 0.36,-0.337 0.582,-0.44 0.219,-0.102 0.46,-0.16 0.715,-0.157 z m 1.471,6.592 v 2.472 l 0.321,-0.003 c 0.106,-0.001 0.214,-0.001 0.32,-0.003 l 0.32,-0.003 c 0.105,-0.001 0.214,-0.001 0.318,-0.003 v 0.153 l 10e-4,0.154 v 0.307 l -0.319,0.004 -0.32,0.003 -0.32,0.003 -0.321,0.003 a 0.51,0.51 0 0 1 -0.215,-0.047 0.548,0.548 0 0 1 -0.177,-0.131 0.704,0.704 0 0 1 -0.119,-0.196 0.71,0.71 0 0 1 -0.042,-0.239 v -1.34 l -0.001,-1.34 v -2.68 a 0.647,0.647 0 0 1 0.161,-0.435 0.561,0.561 0 0 1 0.177,-0.133 0.5,0.5 0 0 1 0.216,-0.048 l 1.56,0.003 c 0.521,0 1.039,0.002 1.563,0.004 l 1.562,0.006 1.56,0.007 v -2.42 c -0.597,-0.009 -1.191,-0.016 -1.791,-0.021 -0.597,-0.007 -1.191,-0.014 -1.788,-0.019 -0.597,-0.005 -1.192,-0.011 -1.791,-0.015 l -1.789,-0.012 a 1.682,1.682 0 0 0 -0.716,0.159 c -0.22,0.104 -0.418,0.254 -0.585,0.439 a 2.092,2.092 0 0 0 -0.395,0.655 2.249,2.249 0 0 0 -0.146,0.802 v 3.715 a 575.36,575.36 0 0 0 0,1.858 v 1.857 c 0,0.285 0.053,0.557 0.146,0.803 0.094,0.247 0.228,0.468 0.395,0.653 0.168,0.187 0.366,0.335 0.586,0.438 0.221,0.103 0.463,0.157 0.717,0.154 l 1.104,-0.014 1.103,-0.018 1.103,-0.021 1.104,-0.023 -0.001,-1.377 v -2.756 l -10e-4,-1.377 -0.873,0.005 -0.871,0.005 c -0.291,0.003 -0.582,0.004 -0.873,0.005 -0.291,10e-4 -0.592,0.006 -0.883,0.007 z m -14.138,-6.542 c 0.644,-0.008 1.285,-0.017 1.929,-0.021 l 1.928,-0.019 1.928,-0.012 c 0.643,-0.003 1.283,-0.005 1.927,-0.006 v -2.481 a 434.599,434.599 0 0 0 -7.897,0.096 3.584,3.584 0 0 0 -1.5,0.369 4.05,4.05 0 0 0 -1.224,0.938 c -0.35,0.392 -0.632,0.854 -0.825,1.361 a 4.568,4.568 0 0 0 -0.306,1.646 v 2.184 l -0.001,2.183 v 2.183 l -10e-4,2.183 c 0,0.583 0.108,1.14 0.304,1.649 0.193,0.514 0.478,0.979 0.825,1.375 0.349,0.396 0.765,0.727 1.226,0.958 0.459,0.232 0.967,0.372 1.5,0.391 0.658,0.021 1.315,0.042 1.976,0.061 0.658,0.019 1.315,0.032 1.976,0.046 0.656,0.013 1.314,0.023 1.975,0.031 0.658,0.009 1.316,0.015 1.975,0.019 v -1.239 l 0.002,-0.62 v -0.62 a 410.143,410.143 0 0 1 -3.858,-0.038 c -0.643,-0.009 -1.285,-0.021 -1.928,-0.033 -0.645,-0.014 -1.287,-0.028 -1.93,-0.045 a 1.694,1.694 0 0 1 -0.713,-0.18 1.927,1.927 0 0 1 -0.584,-0.449 2.202,2.202 0 0 1 -0.539,-1.447 l 0.001,-2.104 v -2.104 l 10e-4,-2.104 v -2.103 c 0,-0.279 0.053,-0.546 0.146,-0.79 0.093,-0.242 0.228,-0.463 0.394,-0.647 0.166,-0.188 0.363,-0.337 0.583,-0.442 a 1.65,1.65 0 0 1 0.71,-0.169 z m 6.054,5.929 v -0.567 c 0,-0.189 0,-0.379 0.002,-0.566 v -1.133 h -1.285 l -1.285,10e-4 -1.283,0.001 -1.285,0.001 a 0.618,0.618 0 0 1 0.336,-0.564 0.53,0.53 0 0 1 0.215,-0.051 l 1.561,-0.004 c 0.521,0 1.041,-0.001 1.562,-0.003 l 1.562,-0.002 1.561,-10e-4 -10e-4,-0.618 10e-4,-0.62 v -1.236 c -0.597,10e-4 -1.191,0.002 -1.789,0.005 -0.597,0.002 -1.191,0.006 -1.79,0.01 -0.597,0.004 -1.192,0.007 -1.791,0.013 -0.597,0.004 -1.192,0.011 -1.788,0.017 a 1.717,1.717 0 0 0 -0.715,0.167 c -0.22,0.104 -0.417,0.256 -0.583,0.441 a 2.1,2.1 0 0 0 -0.394,0.647 2.192,2.192 0 0 0 -0.146,0.79 v 3.25 c 0.612,0.004 1.226,0.009 1.835,0.011 l 1.834,0.009 c 0.611,0.003 1.225,0.004 1.836,0.006 0.608,-0.007 1.218,-0.005 1.83,-0.004 z m 0,0.826 v 1.134 c 0,0.188 0.002,0.378 0,0.567 0,0.188 0.002,0.378 0,0.565 a 276.08,276.08 0 0 1 -1.285,-0.008 c -0.429,-0.003 -0.855,-0.008 -1.283,-0.012 l -1.285,-0.014 -1.285,-0.016 c 0,0.085 0.016,0.165 0.042,0.238 a 0.621,0.621 0 0 0 0.294,0.331 0.515,0.515 0 0 0 0.215,0.052 l 1.561,0.02 a 405.031,405.031 0 0 0 3.126,0.029 l 1.561,0.007 v 2.474 c -0.597,-0.002 -1.191,-0.007 -1.79,-0.012 -0.598,-0.005 -1.192,-0.012 -1.791,-0.02 -0.598,-0.009 -1.192,-0.02 -1.791,-0.028 -0.597,-0.01 -1.192,-0.022 -1.79,-0.037 a 1.69,1.69 0 0 1 -0.713,-0.177 1.926,1.926 0 0 1 -0.583,-0.45 2.145,2.145 0 0 1 -0.394,-0.653 2.26,2.26 0 0 1 -0.145,-0.793 v -3.25 l 1.835,0.017 1.834,0.013 1.835,0.011 c 0.609,0.008 1.22,0.011 1.832,0.012 z m -18.86,2.658 -1.155,-0.045 -1.153,-0.049 -1.156,-0.049 -1.154,-0.051 v 2.011 c 0.588,0.038 1.176,0.074 1.763,0.109 0.587,0.036 1.177,0.07 1.765,0.104 a 521.02,521.02 0 0 0 3.528,0.189 l 0.021,0.001 0.022,10e-4 c 0.006,0 0.017,0 0.022,0.002 l 0.023,10e-4 a 2.255,2.255 0 0 0 1.688,-0.726 c 0.216,-0.229 0.389,-0.507 0.509,-0.813 a 2.76,2.76 0 0 0 0.188,-1.006 c 0,-0.365 -0.069,-0.716 -0.194,-1.036 a 2.758,2.758 0 0 0 -0.53,-0.854 2.494,2.494 0 0 0 -0.785,-0.579 2.37,2.37 0 0 0 -0.964,-0.222 l -0.694,-0.01 a 159.02,159.02 0 0 1 -0.696,-0.011 l -0.696,-0.01 c -0.23,-0.003 -0.463,-0.007 -0.693,-0.012 a 3.466,3.466 0 0 1 -1.914,-1.979 2.853,2.853 0 0 1 -0.166,-0.947 c 0,-0.424 0.097,-0.831 0.268,-1.204 a 3.38,3.38 0 0 1 0.712,-0.999 3.594,3.594 0 0 1 1.024,-0.695 c 0.38,-0.169 0.789,-0.271 1.207,-0.283 0.574,-0.019 1.146,-0.033 1.721,-0.05 0.574,-0.017 1.146,-0.031 1.721,-0.046 0.574,-0.016 1.146,-0.028 1.721,-0.041 0.574,-0.014 1.146,-0.025 1.722,-0.037 v -2.399 c -0.597,0.02 -1.193,0.039 -1.79,0.062 a 545.346,545.346 0 0 0 -3.58,0.142 c -0.598,0.025 -1.193,0.053 -1.789,0.082 a 5.143,5.143 0 0 0 -1.997,0.514 5.672,5.672 0 0 0 -2.732,2.878 5.183,5.183 0 0 0 -0.402,2.003 c 0,0.707 0.154,1.381 0.432,1.998 a 5.498,5.498 0 0 0 1.163,1.661 c 0.486,0.48 1.063,0.882 1.692,1.167 a 5.309,5.309 0 0 0 2.025,0.481 v -0.026 c 0,0.002 0.002,0.004 0.004,0.006 l 0.004,0.008 c 0,0.002 0.002,0.004 0.004,0.006 l 0.002,0.006 0.41,0.014 0.407,0.013 0.41,0.013 0.409,0.014 a 0.373,0.373 0 0 1 0.141,0.033 0.39,0.39 0 0 1 0.195,0.21 0.388,0.388 0 0 1 -10e-4,0.301 c -0.021,0.045 -0.045,0.087 -0.079,0.12 a 0.346,0.346 0 0 1 -0.258,0.103 57.343,57.343 0 0 0 -0.586,-0.021 38.236,38.236 0 0 0 -0.586,-0.022 l -0.586,-0.021 c -0.197,0.006 -0.391,-0.003 -0.587,-0.01 z m 3.035,-6.497 1.158,-0.011 1.157,-0.009 1.159,-0.009 c 0.385,-0.003 0.771,-0.007 1.158,-0.009 v -2.195 l -1.766,0.031 c -0.591,0.012 -1.18,0.022 -1.768,0.036 -0.589,0.014 -1.178,0.025 -1.766,0.041 -0.59,0.016 -1.178,0.028 -1.767,0.044 h -0.022 l -0.023,10e-4 h -0.045 a 2.432,2.432 0 0 0 -0.933,0.251 2.617,2.617 0 0 0 -1.259,3.331 c 0.125,0.302 0.308,0.578 0.53,0.811 0.226,0.231 0.491,0.421 0.788,0.555 0.296,0.132 0.623,0.209 0.965,0.214 l 0.696,0.008 0.694,0.009 0.697,0.008 0.693,0.008 a 3.456,3.456 0 0 1 1.46,1.189 c 0.188,0.269 0.345,0.565 0.45,0.884 a 3.097,3.097 0 0 1 -0.102,2.265 c -0.17,0.384 -0.416,0.723 -0.711,1.004 a 3.166,3.166 0 0 1 -1.025,0.644 2.922,2.922 0 0 1 -1.209,0.188 329.135,329.135 0 0 1 -3.435,-0.201 c -0.573,-0.034 -1.146,-0.071 -1.718,-0.108 -0.57,-0.038 -1.145,-0.076 -1.716,-0.116 v 2.198 c 0.595,0.054 1.19,0.105 1.784,0.155 0.596,0.052 1.19,0.101 1.787,0.146 a 350,350 0 0 0 3.574,0.267 4.599,4.599 0 0 0 1.998,-0.3 4.654,4.654 0 0 0 1.635,-1.096 5.242,5.242 0 0 0 1.104,-1.721 5.864,5.864 0 0 0 0.405,-2.162 5.7,5.7 0 0 0 -1.597,-3.962 5.385,5.385 0 0 0 -1.694,-1.188 4.938,4.938 0 0 0 -2.027,-0.425 v 0.032 l -0.004,-0.008 -0.004,-0.007 -0.005,-0.007 -0.004,-0.008 -0.409,0.001 -0.408,0.002 -0.407,0.002 -0.408,0.002 a 0.345,0.345 0 0 1 -0.26,-0.108 0.391,0.391 0 0 1 -0.078,-0.416 0.398,0.398 0 0 1 0.192,-0.205 0.33,0.33 0 0 1 0.144,-0.031 l 0.584,-0.007 0.586,-0.006 a 114.498,114.498 0 0 1 1.172,-0.012 z" id="path11"/>
    <linearGradient id="c" gradientUnits="userSpaceOnUse" x1="284.853" y1="-415.70001" x2="284.853" y2="-480.57599" gradientTransform="matrix(1,0,0,-1,6.354357,-383.00009)">
        <stop offset="0" style="stop-color:#f1f3f2" id="stop11"/>
        <stop offset=".194" style="stop-color:#a4b5d3" id="stop12"/>
        <stop offset=".586" style="stop-color:#f1f3f2" id="stop13"/>
        <stop offset=".6" style="stop-color:#5878b5" id="stop14"/>
        <stop offset="1" style="stop-color:#f1f3f2" id="stop15"/>
    </linearGradient>
    <path fill="url(#c)" d="m 421.46836,56.994906 4.438,6.651 h 12.134 l -4.438,-6.651 z m 36.842,0 -4.437,6.651 h 12.133 l 4.437,-6.651 z m -386.569003,0.571 v 6.082 h 59.302003 c 0,-3.322 -2.405,-6.025 -5.385,-6.082 z m 65.479003,0 v 6.082 h 39.027 v -6.082 z m 50.052,0 c -3.01,0.02 -5.449,2.734 -5.449,6.082 h 46.124 v -6.082 z m 51.572,0 c -2.996,0.037 -5.418,2.747 -5.418,6.082 h 43.685 c 0,-3.357 -2.457,-6.082 -5.479,-6.082 -0.057,0 -0.104,-0.002 -0.158,0 z m 63.925,0 v 6.082 h 45.616 c 0,-3.334 -2.424,-6.042 -5.416,-6.082 z m 57.846,0 v 0.031 c -2.818,0.248 -5.037,2.855 -5.037,6.051 h 44.604 c 0,-3.335 -2.422,-6.045 -5.416,-6.082 z m 46.06,0 v 6.082 h 10.931 v -6.082 z m 68.012,0 v 6.082 h 39.028 v -6.082 z m -427.941003,5.29 a 7.024,7.024 0 0 0 -7.032,7.033 c 0,3.89 3.142,7.063 7.032,7.063 3.892,0 7.033,-3.174 7.033,-7.063 a 7.022,7.022 0 0 0 -7.033,-7.033 z m 488.923003,0 c -3.891,0 -7.063,3.143 -7.063,7.033 0,3.89 3.174,7.063 7.063,7.063 3.891,0 7.033,-3.174 7.033,-7.063 a 7.026,7.026 0 0 0 -7.033,-7.033 z m -463.928003,2.818 v 18.058 h 10.834 v -18.058 z m 24.107,0 v 18.058 h 10.865003 v -18.058 z m 24.139003,0 v 18.058 h 10.96 v -18.058 z m 17.233,0 v 11.563 c 0.146,3.611 3.46,6.494 7.508,6.494 h 31.52 v -6.082 h -25.659 c -1.345,0 -2.407,-1.096 -2.407,-2.438 v -1.521 h 26.167 v -5.574 h -23.76 c -1.345,0 -2.407,-1.097 -2.407,-2.439 h -1.015 z m 44.603,0 v 11.753 h 0.031 c 0.238,3.313 3.13,5.968 6.779,6.272 v 0.03 h 32.026 v -0.03 c 4.069,-0.265 7.286,-3.623 7.286,-7.763 0,-4.312 -3.48,-7.823 -7.793,-7.823 -0.042,0 -0.084,-0.002 -0.126,0 h -18.722 v 5.574 h 13.525 c 1.096,0 1.965,0.9 1.965,1.996 0,1.096 -0.869,1.964 -1.965,1.964 h -20.084 a 1.95,1.95 0 0 1 -1.964,-1.964 v -10.01 z m 51.604,0 v 18.058 h 10.93 v -18.058 z m 32.724,0 v 5.387 h -19.862 v 7.097 h 19.862 v 5.574 h 10.961 v -18.058 z m 36.618,0 v 18.058 h 10.93 v -18.058 z m 34.658,0 v 10.012 a 1.95,1.95 0 0 1 -1.965,1.964 h -20.243 v 6.082 h 26.294 v -0.03 c 3.842,-0.293 6.875,-3.183 6.875,-6.717 v -11.311 z m 18.15,0 v 18.058 h 10.93 v -18.058 z m 33.642,0 v 3.423 c 0,0.021 0.003,0.042 0,0.063 a 1.95,1.95 0 0 1 -1.963,1.899 h -18.309 v 7.097 h 15.27 l 5.543,5.574 h 13.084 l -7.539,-7.57 c 2.854,-1.159 4.88,-3.954 4.88,-7.224 v -3.264 h -0.729 z m 17.456,0 v 18.058 h 10.931 v -18.058 z m 20.559,0 12.037,18.058 h 13.367 l 12.036,-18.058 h -12.133 l -6.59,9.885 -6.59,-9.885 z m 47.453,0 v 11.563 c 0.147,3.611 3.461,6.494 7.508,6.494 h 31.521 v -6.082 h -25.659 a 2.444,2.444 0 0 1 -2.439,-2.438 v -1.521 h 26.168 v -5.574 h -23.729 a 2.445,2.445 0 0 1 -2.439,-2.439 z" id="path15" style="fill:url(#c)"/>
</svg>
