<?xml version='1.0' encoding='utf-8'?>
<svg xmlns:xlink="http://www.w3.org/1999/xlink" xmlns="http://www.w3.org/2000/svg" height="281.09516952306336" viewBox="0 0 901.88284 422.52525" width="600" version="1.1" id="svg16">
    <defs id="defs16">
        <linearGradient id="linearGradient16" gradientUnits="userSpaceOnUse" x1="935.961" x2="112.393" y1="239.55701" y2="239.55701">
            <stop offset="0" stop-color="#fff" id="stop1-3"/>
            <stop offset="1" stop-color="#2871be" id="stop2-6"/>
        </linearGradient>
        <linearGradient id="linearGradient17" gradientUnits="userSpaceOnUse" x1="494.439" x2="495.01001" y1="375.103" y2="80.959999">
            <stop offset="0" stop-color="#ea1f4b" id="stop3-7"/>
            <stop offset="1" stop-color="#f7ed18" id="stop4-5"/>
        </linearGradient>
        <linearGradient xlink:href="#b" id="linearGradient20" gradientUnits="userSpaceOnUse" x1="494.439" y1="375.103" x2="495.01001" y2="80.959999"/>
        <linearGradient xlink:href="#b" id="linearGradient21" gradientUnits="userSpaceOnUse" x1="494.439" y1="375.103" x2="495.01001" y2="80.959999"/>
    </defs>
    <linearGradient id="a" gradientUnits="userSpaceOnUse" x1="935.961" x2="112.393" y1="239.55701" y2="239.55701" gradientTransform="translate(-62.15,-21.871124)">
        <stop offset="0" stop-color="#fff" id="stop1"/>
        <stop offset="1" stop-color="#2871be" id="stop2"/>
    </linearGradient>
    <linearGradient id="b" gradientUnits="userSpaceOnUse" x1="494.439" x2="495.01001" y1="375.103" y2="80.959999">
        <stop offset="0" stop-color="#ea1f4b" id="stop3"/>
        <stop offset="1" stop-color="#f7ed18" id="stop4"/>
    </linearGradient>
    <path style="baseline-shift:baseline;display:inline;overflow:visible;opacity:1;vector-effect:none;fill:#ffffff;stroke-linecap:round;stroke-linejoin:round;paint-order:markers stroke fill;enable-background:accumulate;stop-color:#000000;stop-opacity:1" d="m 705.12683,0.00239796 c -2.3888,0.0199 -4.79696,0.16228 -7.20898,0.42578 -9.64809,1.05396994 -19.48019,4.00084994 -27.4375,10.77147904 -3.65803,3.1125 -6.64729,7.2956 -8.67579,12.07617 -8.5827,-2.36916 -17.61665,-2.5213 -26.13476,-0.22265 -12.4214,3.351961 -23.75961,13.662941 -27.05078,28.158201 -18.66126,13.98867 -28.15047,36.25181 -32.35156,54.285162 a 11.701171,11.701171 0 0 0 -0.1875,1.00586 c -2.39865,16.84112 2.48472,32.24661 7.99609,43.27342 2.75568,5.51341 5.59477,9.87907 8.71094,13.32422 1.55808,1.72258 2.77149,3.30458 6.36328,4.95899 1.79589,0.8272 4.8237,2.02153 9.1582,0.70117 4.3345,-1.32037 7.50951,-5.75292 8.30469,-8.49805 a 11.701171,11.701171 0 0 0 0.19726,-0.78125 c 1.019,-4.70925 1.53329,-7.07847 1.77539,-8.17773 0.044,-0.19985 0.0175,-0.086 0.0469,-0.21289 0.0367,-0.12931 0.12536,-0.38267 0.14258,-0.47071 0.91263,3.84324 2.10476,7.64093 3.85547,11.30469 a 11.701171,11.701171 0 0 0 0.1289,0.26172 c 2.66857,5.24523 6.52815,10.79673 11.77539,15.66602 5.24725,4.86928 12.28741,9.59522 21.61524,9.30273 a 11.701171,11.701171 0 0 0 11.3164,-11.05859 c 0.42172,-7.75031 0.67608,-10.25873 0.81641,-12.22461 0.13831,-1.93757 0.004,-3.97377 -0.24219,-6.28125 1.61689,-2.14985 1.6563,-3.54167 1.89844,-4.57813 0.61287,-2.62334 0.55029,-4.08133 0.55273,-5.7539 0.003,-1.78033 -0.019,-3.26559 -0.14453,-4.79688 4.43773,6.14761 11.04367,10.79004 19.32032,12.38477 a 11.701171,11.701171 0 0 0 0.0937,0.0176 c 3.96816,0.7313 8.78761,1.32205 14.20898,0.10938 5.12884,-1.14724 10.35699,-4.25372 14.43164,-8.72656 16.11169,25.79079 29.90243,54.66139 33.46484,80.36328 4.54017,37.85668 2.59385,84.42776 1.43946,104.20703 -81.05949,4.33861 -133.39075,24.17691 -166.99219,39.83594 a 11.701171,11.701171 0 0 0 4.9043,22.30469 l 298.93164,0.92968 a 11.701171,11.701171 0 0 0 6.30273,-21.58007 c -19.64242,-12.4618 -35.37629,-29.75424 -76.9277,-39.94144 -5.04553,-49.26189 -9.09403,-102.10392 -28.25586,-150.99805 a 11.701171,11.701171 0 0 0 -0.14063,-0.34375 c -4.33617,-10.10741 -9.23835,-19.95593 -14.70117,-29.43555 3.31861,-2.81689 5.23168,-6.13576 6.81445,-9.23632 2.11953,-4.15203 3.42679,-8.23293 4.22657,-11.9004 a 11.701171,11.701171 0 0 0 0.13672,-0.73828 c 0.64517,-4.25175 0.80633,-8.49415 0.72656,-12.68945 l 5.4414,7.59375 a 11.701171,11.701171 0 0 0 20.63672,-3.19727 c 8.4568,-26.011492 3.21421,-46.867942 -7.53125,-60.261702 -9.23533,-11.51146 -21.04108,-17.84289 -29.48437,-22.20118 -4.37194,-10.55426 -12.56716,-17.746181 -20.64453,-21.554681 -5.72399,-2.69888 -11.17444,-3.99856 -16.34571,-4.36719 C 736.60963,8.2061775 730.95169,5.1203679 725.6405,3.2426279 719.28064,0.99412796 712.29324,-0.05722204 705.12683,0.00239796 Z m 0.11719,23.43944904 c 4.78566,0.007 9.42511,0.74038 12.5957,1.86133 4.22746,1.494591 3.83504,2.728461 3.63477,0.902341 a 11.701171,11.701171 0 0 0 13.8164,10.21875 c 0.876,-0.16663 6.91394,-0.009 11.48047,2.14453 4.56653,2.15313 8.10075,5.17167 9.78516,11.5918 a 11.701171,11.701171 0 0 0 5.85156,7.37695 c 9.07565,4.7949 19.8102,10.27569 26.21875,18.26367 0.0961,0.11981 0.15704,0.26799 0.25195,0.38868 -1.30248,-0.0633 -2.61917,-0.059 -3.68554,0.22851 -2.47892,0.66841 -3.94791,1.77092 -4.99805,2.6836 -0.49834,-0.33547 -0.77762,-0.59114 -1.21484,-0.86915 a 11.701171,11.701171 0 0 0 -17.78516,11.98633 c 0.5384,2.93204 0.92222,5.96349 1.42187,8.99024 -0.89186,-0.65926 -1.83865,-1.30474 -2.9707,-1.70313 -2.54132,-0.89433 -5.04072,-0.70378 -6.82422,-0.26172 -0.0128,-0.17098 0.0164,-0.27154 0,-0.44922 -0.10852,-1.17691 0.28024,-2.22117 -1.66406,-5.74414 -0.97215,-1.76148 -3.50344,-5.15269 -8.33398,-6.04687 -4.83055,-0.89418 -8.5331,1.4304 -10.09961,2.79297 a 11.701171,11.701171 0 0 0 -1.99805,2.25 l -0.88672,1.30273 c -0.28711,-0.0799 -0.76431,-0.25637 -1.05859,-0.33203 -2.61526,-0.6724 -5.99656,-0.80255 -8.17383,-0.64453 a 11.701171,11.701171 0 0 0 -7.66406,19.263672 11.701171,11.701171 0 0 0 -9.48047,9.94921 c -0.20442,4.19522 -2.89878,11.63902 -2.16602,10.77734 a 11.701171,11.701171 0 0 0 -0.006,0.008 c -1.39432,1.6419 -1.70985,1.60504 -2.42773,1.76562 -0.70922,0.15864 -2.28197,0.17386 -4.80274,-0.2832 -4.52009,-0.91012 -7.72556,-8.80944 -5.44531,-13 0.69154,-0.9248 1.37309,-1.83037 1.88672,-2.59766 0.34997,-0.5228 0.67437,-1.0081 1.11328,-1.84375 0.43891,-0.83564 2.07584,-0.71729 1.41406,-7.041 -0.33088,-3.16187 -4.60053,-9.072282 -8.68945,-10.154302 -4.08892,-1.08202 -5.82635,-0.11435 -6.93164,0.26758 -1.53492,0.53038 -1.71819,0.78235 -2.13867,1.07812 l -0.0664,-0.0762 a 11.701171,11.701171 0 0 0 -1.5332,-1.46875 c -0.77608,-0.61874 -1.68798,-1.44029 -4.04297,-2.22266 -2.35499,-0.78236 -7.93611,-0.87653 -11.57812,2.25196 -3.64201,3.128482 -3.95046,6.294352 -4.12305,7.925782 -0.17259,1.63143 -0.0436,2.51953 0.0547,3.26562 0.39309,2.98435 0.95672,4.12718 1.48046,5.70898 0.26362,0.79616 0.43778,1.33806 0.67188,2.03906 -1.05207,-0.22843 -2.25328,-0.38308 -3.85547,-0.22851 -2.58781,0.24965 -6.12938,1.81693 -8.2168,4.25585 -0.94086,1.09931 -1.54671,2.11533 -2.02734,3.08594 0.74405,-3.47138 1.7708,-6.91975 3.07422,-10.21484 0.50698,-1.28199 1.73664,-2.45067 3.82422,-6.86523 A 11.701171,11.701171 0 0 0 633.57593,90.338478 c -2.5893,1.15858 -4.72094,2.45763 -6.5625,3.70899 a 11.701171,11.701171 0 0 0 -18.10156,11.363282 l 1.06445,6.49022 -1.63086,3.20118 a 11.701171,11.701171 0 0 0 -9.32031,1.20703 c -0.0681,-2.03881 -0.0486,-4.07197 0.20508,-6.04882 3.67566,-15.283072 13.22336,-34.366972 26.33984,-42.513672 a 11.701171,11.701171 0 0 0 5.49805,-9.11524 c 0.60031,-8.50796 4.15797,-11.22114 10.69922,-12.98633 6.54124,-1.76518 15.98354,-0.2869 22.58789,4.24805 a 11.701171,11.701171 0 0 0 18.18554,-11.43359 c -0.84803,-5.48491 0.25581,-7.01448 3.10352,-9.4375 2.84771,-2.42303 8.50141,-4.642391 14.81445,-5.332031 1.57826,-0.17242 3.18994,-0.25023 4.78516,-0.24805 z m 42.40234,76.468751 c -0.19106,0.194332 -0.48199,0.431172 -0.64648,0.593752 l 0.57617,-0.533202 z m -77.03906,3.941412 c -0.15061,0.21237 -0.39985,0.54722 -0.66016,0.90039 0.23762,-0.62116 0.44779,-0.75831 0.66016,-0.90039 z m -29.45313,26.01756 c 0.0283,0.17591 0.0152,0.50119 0.0371,0.65625 0.51151,3.62529 1.45268,5.42577 2.38282,7.37696 a 11.701171,11.701171 0 0 0 -2.49219,4.27539 c -0.51513,-3.856 -0.37097,-8.03911 0.0723,-12.3086 z m -23.90234,11.6836 c 0.0137,0.0216 0.0209,0.0341 0.0352,0.0566 5e-4,0.006 0.001,0.0117 0.002,0.0176 -0.0126,-0.0152 -0.0405,-0.0494 -0.0547,-0.0664 0.007,-0.003 0.011,-0.005 0.0176,-0.008 z m -21.0293,9.51758 c 0.08,0.23512 0.14969,0.44696 0.27344,0.74804 -0.079,-0.18277 -0.21488,-0.4962 -0.21484,-0.49609 3e-5,1.1e-4 -0.0469,-0.20589 -0.0586,-0.25195 z m 152.98243,1.03515 c 7.77167,11.84526 14.58495,24.5841 20.34179,37.97852 18.34233,46.91474 21.98994,100.78844 27.54492,152.92188 a 11.701171,11.701171 0 0 0 9.3125,10.22656 c 22.15785,4.48313 35.4373,10.38763 46.33985,17.13672 L 655.33191,369.7563 c 28.55631,-8.09704 64.02433,-14.63173 109.39258,-16.21094 a 11.701171,11.701171 0 0 0 11.25586,-10.74805 c 0,0 5.50461,-65.96985 -0.89258,-119.11328 a 11.701171,11.701171 0 0 0 -0.0274,-0.20118 c -3.36648,-24.40804 -13.40608,-48.83429 -25.85546,-71.37695 z m -132.98633,3.30664 c -8.8e-4,0.001 -0.0254,0.0332 -0.0254,0.0332 0,-1e-5 -0.0324,0.0286 -0.0332,0.0293 0.0155,-0.0187 0.0435,-0.0441 0.0586,-0.0625 z m -9.64063,3.81641 c 0.46469,0.0336 0.53226,0.0377 0.92969,0.0664 -0.0558,0.0148 -0.43947,0.11719 -0.43945,0.11719 1e-5,0 -0.42711,-0.15993 -0.49024,-0.18359 z" id="path14-1"/>
    <path style="baseline-shift:baseline;display:inline;overflow:visible;vector-effect:none;fill:#ffffff;fill-opacity:0.938;stroke:none;stroke-width:23.4;stroke-linecap:round;stroke-linejoin:round;stroke-dasharray:none;stroke-opacity:1;paint-order:markers stroke fill;enable-background:accumulate;stop-color:#000000" d="m 528.35987,54.056924 c -33.85242,1.08853 -61.55625,19.67377 -75.81836,47.339836 a 11.701171,11.701171 0 0 0 -0.42774,0.92969 c -4.62287,11.29825 -10.68474,16.8783 -15.73632,22.57032 -5.14647,5.68903 -8.5345,11.9401 -9.82422,18.27539 -7.7178,-3.09443 -17.13152,-2.78947 -26.07422,1.04688 a 11.701171,11.701171 0 0 0 -1.87305,1.01562 c -12.49149,8.31873 -22.62013,17.89696 -31.6914,28.05469 1.13954,-4.43925 2.19067,-9.00937 2.99218,-13.92774 a 11.701171,11.701171 0 0 0 0.14453,-2.28515 c -0.21267,-6.17201 -0.94835,-15.40019 -4.42578,-24.5918 -1.73871,-4.5958 -4.19611,-9.31 -8.35351,-13.3457 -4.1574,-4.0357 -10.41909,-7.06662 -17.11719,-7.23633 a 11.701171,11.701171 0 0 0 -8.57031,3.42383 l 5.9375,-3.19141 c -20.72129,4.21935 -30.60693,21.54164 -39.03125,29.94727 a 11.701171,11.701171 0 0 0 -0.58203,0.625 c -36.67478,42.36483 -71.51221,88.76201 -104.0293,133.86914 -10.60621,14.28182 -22.41655,31.22753 -33.35547,43.75 -5.01185,2.99757 -7.82804,8.24813 -9,12.25586 -1.50114,5.13344 -1.66285,9.96758 -1.5918,14.52929 0.14211,9.12343 1.73438,17.34571 1.73438,17.34571 a 11.701171,11.701171 0 0 0 13.87695,9.29883 l 29.65625,-6.15625 a 11.701171,11.701171 0 0 0 7.36524,-4.97852 c 0,0 41.60811,-62.51634 77.02539,-113.58984 -0.55852,2.88927 -1.1595,5.65611 -1.67383,8.67773 a 11.701171,11.701171 0 0 0 -0.0801,0.54883 c -0.483,3.96933 -3.46992,12.56076 -3.66406,22.63086 -0.0971,5.03505 0.66449,10.85458 3.76562,16.35937 3.10114,5.5048 8.50198,10.09123 15.11719,12.87305 l -1.59766,-0.82031 c 10.56021,6.50144 23.1941,3.9553 31.25196,-0.91016 8.05785,-4.86545 13.86663,-11.50697 18.11719,-16.5039 a 11.701171,11.701171 0 0 0 0.0488,-0.0566 c 2.78881,-3.32153 5.10063,-6.5672 7.6211,-9.84765 -0.0433,0.33589 -0.12346,0.6362 -0.16407,0.97461 -1.59109,12.65016 3.29312,24.02873 11.08985,31.6289 3.90202,3.80366 8.73998,6.84449 14.69336,7.86719 3.71769,0.63865 7.86017,0.077 11.70898,-1.4043 10.08484,2.07322 19.80002,-1.47685 25.91602,-5.6621 7.02518,-4.80742 12.18519,-9.58904 13.33594,-10.33008 1.03765,2.62679 2.25147,5.26293 3.8457,7.85156 4.10782,6.67009 10.6354,13.17447 19.82617,16.02344 9.19077,2.84896 20.06285,1.60414 31.31641,-3.75 l -1.0625,0.44336 c 24.19741,-8.71099 38.50319,-17.2453 63.25976,-28.62305 a 11.701171,11.701171 0 0 0 0.17969,-0.084 C 610.99337,263.98674 682.7615,238.63606 753.5903,207.39485 l -0.40235,0.16797 c 8.04744,-3.19769 14.27534,-6.96595 18.875,-12.07813 4.59966,-5.11217 7.81015,-13.33253 4.79297,-20.91211 -3.01718,-7.57958 -9.95393,-11.17736 -16.71679,-12.73437 -6.76287,-1.55701 -14.43131,-1.43953 -23.4336,0.14843 a 11.701171,11.701171 0 0 0 -0.40234,0.0781 l -44.87305,9.54883 a 11.701171,11.701171 0 0 0 -0.0234,0.004 c -46.72683,10.04241 -91.39227,24.9881 -135.29492,42.35547 4.54926,-6.2265 8.95604,-12.4866 12.95899,-18.63476 11.57227,-17.77398 20.33245,-33.60439 23.90429,-45.97071 6.13487,-19.93204 6.35423,-36.1249 0.30078,-57.578126 -6.2491,-24.78441 -33.84662,-39.07991 -64.91601,-37.73242 z m 0.95898,23.375 c 23.23062,-1.02629 38.91445,10.50421 41.29883,20.16406 a 11.701171,11.701171 0 0 0 0.10352,0.38867 c 5.42316,19.125726 5.26159,27.124186 -0.13672,44.603526 a 11.701171,11.701171 0 0 0 -0.0664,0.22265 c -1.94304,6.76636 -10.13269,22.98156 -21.05664,39.75977 -10.92395,16.77821 -24.6726,34.90855 -37.83594,48.77734 a 11.701171,11.701171 0 0 0 11.85938,19.25782 c 13.06624,-3.93454 12.51086,-4.04726 21.04492,-6.89844 a 11.701171,11.701171 0 0 0 0.76953,-0.28711 c 49.42544,-20.47078 99.14362,-37.77354 151.02539,-48.92383 l 44.50977,-9.47266 c 2.55761,-0.44801 4.5867,-0.54555 6.58008,-0.64257 -0.99565,0.48817 -1.66088,0.95621 -2.86719,1.43554 a 11.701171,11.701171 0 0 0 -0.40039,0.16797 c -69.72489,30.7543 -141.71831,56.16663 -211.75196,89.80274 -0.0284,0.0136 -0.0575,0.0254 -0.0859,0.0391 -25.50368,11.73163 -38.93724,19.75506 -61.23242,27.78125 a 11.701171,11.701171 0 0 0 -1.06446,0.44336 c -7.50644,3.57136 -11.66203,3.35755 -14.33398,2.52929 -2.67195,-0.82825 -4.84048,-2.70761 -6.83203,-5.9414 -1.99156,-3.23379 -3.40011,-7.64917 -3.92774,-11.15039 -0.26381,-1.75061 -0.31119,-3.28255 -0.26562,-4.07422 0.007,-0.12379 0.031,-0.0651 0.0586,-0.15234 2.592,-5.6435 13.74683,-19.04073 24,-29.26954 10.33936,-10.31478 19.69336,-18.38867 19.69336,-18.38867 a 11.701171,11.701171 0 0 0 1.0918,-1.07226 c 19.95982,-22.38293 44.85511,-43.80848 53.84961,-78.92383 a 11.701171,11.701171 0 0 0 0.12304,-0.53516 c 2.02244,-9.78104 2.9981,-19.25138 -1.67968,-28.36914 -4.67779,-9.11775 -15.7744,-14.04922 -27.03516,-13.87304 a 11.701171,11.701171 0 0 0 -0.35742,0.01 c -13.84713,0.64151 -25.04473,6.85967 -33.36719,14.11523 -8.29855,7.23472 -14.3598,15.45585 -19.71484,21.79297 -3.10757,3.6208 -7.79615,2.87341 -10.30664,0.96485 -1.25552,-0.95449 -1.60839,-1.61207 -1.6543,-2.78516 -0.0459,-1.17309 0.33402,-3.86483 4.37695,-8.33398 a 11.701171,11.701171 0 0 0 0.084,-0.0918 c 3.42327,-3.866 13.4613,-13.44375 19.95507,-29.31445 l -0.42773,0.92968 c 10.72321,-20.801206 29.78717,-33.862796 55.82617,-34.679686 a 11.701171,11.701171 0 0 0 0.15039,-0.006 z M 340.60206,135.59208 c 0.1017,0.0914 0.16689,0.13582 0.37304,0.33594 0.68154,0.66159 1.82814,2.36312 2.76367,4.83594 1.75474,4.63813 2.58917,11.38822 2.82618,16.0664 -3.79915,21.75835 -13.35812,39.38865 -19.57618,64.58204 -0.57338,1.62949 -1.04661,3.03362 -1.39257,4.44726 -0.19197,0.7844 -0.37114,1.57127 -0.48047,2.74414 -0.10934,1.17287 -0.61394,2.65914 0.9375,6.26953 0.77572,1.8052 2.55687,4.3415 5.36719,5.83203 2.81031,1.49054 5.89565,1.53909 7.81445,1.17383 3.8376,-0.73051 4.7645,-1.96327 5.63281,-2.67187 1.73662,-1.4172 2.27177,-2.21891 2.99024,-3.11133 2.87386,-3.5697 6.16367,-8.4851 6.65429,-9.06445 a 11.701171,11.701171 0 0 0 0.41406,-0.51758 c 18.26098,-24.22688 32.87371,-45.57293 55.67969,-61.0957 4.93727,-1.90092 6.84648,-0.99859 7.77149,-0.31641 0.9863,0.72738 1.94709,2.21737 1.57031,5.23437 a 11.701171,11.701171 0 0 0 -0.0879,1.1875 c -0.31008,13.82591 -5.8984,35.94106 -11.60156,53.77344 -5.70317,17.83238 -11.29883,31.62695 -11.29883,31.62695 a 11.701171,11.701171 0 0 0 -0.11914,0.30469 c -1.43925,3.85124 -2.72009,6.82004 -1.85938,12.15235 0.43036,2.66615 2.04844,6.45802 5.32227,8.8457 3.27382,2.38768 6.97558,2.70708 9.37304,2.46289 2.92414,-0.29783 4.75266,-1.05599 6.3086,-1.91602 -0.22933,1.064 -0.50672,2.14314 -0.8711,3.06836 -0.80382,2.04109 -2.04897,3.19725 -1.45703,2.79102 -7.21527,3.89752 -11.26415,8.79733 -15.13086,11.44336 -4.19609,2.87144 -4.97854,3.61793 -9.12109,1.76367 a 11.701171,11.701171 0 0 0 -11.53125,1.41406 c -0.15492,-0.0574 -0.98145,-0.31672 -2.11719,-1.42383 -2.48945,-2.42669 -4.76426,-7.56921 -4.20703,-11.96679 a 11.701171,11.701171 0 0 0 0.01,-0.082 c 2.90072,-24.25846 16.46278,-42.98928 24.53711,-71.70899 a 11.701171,11.701171 0 0 0 -20.38086,-10.50195 c -20.8008,25.85414 -33.20442,49.9109 -52.74219,73.1875 -3.75249,4.40789 -8.5398,9.29525 -12.35938,11.60156 -3.82864,2.3118 -4.35387,2.57424 -6.88867,1.01367 a 11.701171,11.701171 0 0 0 -1.59961,-0.82226 c -2.83978,-1.19418 -3.37004,-2.0225 -3.80078,-2.78711 -0.43074,-0.76461 -0.80129,-2.06725 -0.75586,-4.42383 0.0909,-4.71315 2.48909,-11.97824 3.4961,-20.25391 l -0.0801,0.54883 c 3.93275,-23.10417 9.46293,-42.09711 15.14453,-65.36719 a 11.701171,11.701171 0 0 0 -20.72676,-9.7969 c -33.3867,44.51362 -105.04607,152.2863 -109.63282,159.1875 l -12.32812,2.56055 c -0.0216,-0.52664 -0.10508,-0.94635 -0.11328,-1.47266 -0.051,-3.27104 0.30894,-6.41666 0.6543,-7.59766 0.009,-0.0321 -0.007,-0.003 0,-0.0293 a 11.701171,11.701171 0 0 0 2.58007,-1.51758 c 12.95535,-14.46816 25.53494,-32.85196 36.19922,-47.20508 a 11.701171,11.701171 0 0 0 0.0996,-0.13672 c 32.30261,-44.8096 66.73935,-90.64051 102.64453,-132.12695 10.37289,-10.4459 17.37759,-19.95799 25.09571,-22.54102 z m 174.71679,2.64453 c 5.87085,-0.0724 5.28704,0.43641 5.65235,1.14844 0.36705,0.71544 1.08565,5.37103 -0.3711,12.6543 -6.9425,26.73262 -27.10646,44.93674 -48.07031,68.37305 -0.86481,0.7486 -9.84543,8.53835 -20.3457,19.01367 -5.99482,5.98057 -12.22843,12.40743 -17.6875,19.11523 -0.11802,-0.13975 -0.17568,-0.28886 -0.29883,-0.42773 -2.61173,-2.94522 -6.48557,-4.7677 -10.60547,-5.60742 2.06782,-5.65236 4.41435,-12.13586 6.95508,-20.08008 5.80579,-18.15327 11.78481,-39.93013 12.54297,-58.54688 11.57338,5.06247 26.38438,3.29973 35.98828,-7.89843 a 11.701171,11.701171 0 0 0 0.0527,-0.0606 c 6.01863,-7.11556 11.48661,-14.27948 17.27539,-19.32617 5.74634,-5.00968 11.20014,-7.96063 18.91211,-8.35743 z m -72.06445,33.8125 -0.0879,1.1875 c 0.009,-0.0697 -0.008,-0.13923 0,-0.20898 0.0102,-0.31562 0.0809,-0.66486 0.0879,-0.97852 z M 173.51807,339.39286 c -0.54206,0.58111 -1.51143,1.45797 -3.08203,1.81446 a 11.701171,11.701171 0 0 0 3.08203,-1.81446 z" id="path23"/>
    <g id="g21" transform="translate(0,11.126953)">
        <path style="baseline-shift:baseline;display:inline;overflow:visible;vector-effect:none;fill:#ffffff;stroke-linecap:round;stroke-linejoin:round;paint-order:markers stroke fill;enable-background:accumulate;stop-color:#000000" d="m 691.85225,184.7823 c -48.69019,-0.42721 -104.46352,1.05162 -163.51172,4.91211 -157.46188,10.29466 -337.97456,37.32579 -469.238284,91.26172 a 10.401041,10.401041 0 0 0 -0.134766,0.0566 c -8.325892,3.55906 -11.86236,11.53586 -12.902343,16.90039 -1.039984,5.36453 -0.371094,9.89453 -0.371094,9.89453 l -0.08984,-1.16797 c 1.030228,50.63423 36.455186,92.20481 37.966797,93.95899 2.92495,4.05633 7.31161,8.60688 13.70703,10.17383 6.39543,1.56694 12.63551,0.0261 19.29492,-2.79883 a 10.401041,10.401041 0 0 0 0.008,-0.004 c 43.06541,-18.3089 86.67211,-34.48337 130.08594,-49.43359 126.91643,-43.70738 412.00971,-104.9125 514.33984,-112.11719 38.06884,-2.67984 71.50179,-9.58406 98.41797,-12.19922 a 10.401041,10.401041 0 0 0 2.12891,-0.43554 c 2.92605,-0.92494 5.66113,-2.25968 8.19726,-4.38672 2.53613,-2.12705 5.23634,-5.3371 5.80469,-10.20508 0.56835,-4.86798 -2.08037,-10.01559 -5.26758,-12.79492 -3.15031,-2.74716 -6.70325,-4.24676 -10.97461,-5.48242 -22.08029,-8.38542 -63.8376,-12.91751 -121.27343,-15.0879 -14.5147,-0.54848 -29.95744,-0.90251 -46.1875,-1.04492 z m -0.17578,20.80078 c 16.0409,0.14017 31.28248,0.4891 45.57812,1.0293 42.66481,1.61222 77.44449,5.32401 98.5957,9.53125 -23.23042,3.21967 -48.71327,7.58311 -76.30468,9.52539 -107.70787,7.58331 -389.39878,68.34455 -519.65235,113.20117 -43.72349,15.05686 -87.78739,31.3954 -131.44336,49.95508 -4.66059,1.97705 -6.35508,1.7117 -6.22265,1.74414 0.13242,0.0325 -0.0721,0.23895 -1.78516,-2.13672 A 10.401041,10.401041 0 0 0 99.946,387.79988 c 0,0 -32.699335,-40.0244 -33.544926,-81.58398 a 10.401041,10.401041 0 0 0 -0.08984,-1.16797 c 0,0 -0.142938,-1.54181 0.173828,-3.17578 0.315713,-1.62854 0.306723,-1.5794 0.65625,-1.72852 C 194.42568,247.87424 373.63774,220.65316 529.696,210.45027 c 58.54167,-3.82738 113.85776,-5.28768 161.98047,-4.86719 z" id="path19"/>
        <g stroke-width="1.483" id="g10" transform="translate(0,-1.2374445e-4)">
            <path d="m 164.901,184.248 c 6.145,6.053 14.525,9.795 23.767,9.795 l 146.025,0.017 -31.537,-95.428 c -4.308,-10.138 -14.413,-17.237 -26.55,-17.237 -12.086,0 -22.344,7.331 -26.491,17.427 L 239.602,129.907 239.561,83 188.566,82.974 c -9.217,0 -17.503,3.648 -23.606,9.683 l 0.018,-9.64 h -52.213 c -9.725,0 -18.57,4.205 -24.756,10.816 V 82.974 L 38.798,83.017 C 17.554,83 0.128,99.843 0.102,122.112 c 0,10.31 4.442,19.66 10.993,26.588 L 0,148.68 v 45.362 l 49.581,-0.01 c 13.931,-0.016 27.736,-8.541 32.535,-18.756 l 0.144,-0.42 c 5.543,11.357 17.113,19.186 30.503,19.186 l 52.137,-0.01 v -9.785" fill="#ffffff" id="path4"/>
            <g fill="#0060a8" id="g9">
                <path d="m 7.66,186.281 41.811,-0.043 c 17.106,0 30.97,-14.018 30.97,-31.29 0,-17.306 -13.864,-31.325 -30.97,-31.325 l -10.859,0.06 c -0.855,0 -1.55,-0.712 -1.55,-1.588 0,-0.876 0.695,-1.589 1.55,-1.589 l 41.736,0.01 0.016,-13.28 h -41.76 c -8.074,0 -14.643,6.652 -14.643,14.825 0,8.181 6.567,14.808 14.642,14.808 l 10.91,0.146 c 9.801,0 17.732,8.017 17.732,17.908 0,9.898 -7.93,17.933 -17.732,17.933 H 7.677 Z" id="path5"/>
                <path d="m 7.677,169.739 h 41.836 c 8.1,0 14.651,-6.627 14.651,-14.817 0,-8.181 -6.551,-14.8 -14.65,-14.8 l -10.91,-0.12 c -9.785,0 -17.724,-8.026 -17.724,-17.942 0,-9.889 7.94,-17.916 17.723,-17.916 l 41.761,-0.01 -0.016,-13.33 H 38.612 c -17.088,0 -30.969,14.002 -30.969,31.291 0,17.289 13.881,31.3 30.97,31.3 l 10.799,0.016 a 1.53,1.53 0 0 1 1.515,1.537 c 0,0.842 -0.694,1.52 -1.515,1.52 L 7.66,156.502 Z m 105.179,3.202 c -7.254,0 -13.196,-5.864 -13.196,-13.35 v -42.364 c 0,-7.202 5.942,-13.126 13.196,-13.126 l 44.63,0.008 V 90.804 h -44.63 c -14.523,0 -26.288,11.89 -26.288,26.569 v 42.22 c 0,14.68 11.765,26.587 26.288,26.587 l 44.443,0.018 -0.009,-13.273 z" id="path6"/>
                <path d="m 102.86,117.373 c 0,-5.614 4.453,-10.164 9.996,-10.164 h 44.63 v 13.323 h -38.451 c -3.08,0 -3.123,3.1 -3.123,3.1 h 32.078 v 13.263 h -45.146 z m 9.996,52.341 c -5.527,0 -10.013,-4.524 -10.013,-10.122 v -19.539 h 45.146 v 13.29 H 115.91 c 0.042,3.125 3.123,3.14 3.123,3.14 h 38.264 l -0.01,13.213 z m 75.904,3.193 c -7.228,0 -13.135,-5.974 -13.135,-13.316 v -42.22 c 0,-7.348 5.864,-13.271 13.1,-13.271 h 43.226 V 90.804 h -43.326 c -14.517,0 -26.281,11.89 -26.281,26.569 v 42.22 c 0,14.68 11.866,26.587 26.382,26.587 l 43.225,0.018 v -62.566 h -37.147 v 13.263 h 24.02 v 36.012 z" id="path7"/>
                <path d="m 178.705,159.591 c 0,5.625 4.486,10.2 10.02,10.2 h 27 v -29.755 h -20.89 v 13.308 h 7.754 l 0.024,3.124 h -7.718 c -1.685,0 -3.064,-1.416 -3.064,-3.124 l -0.069,-29.721 c 0,0 -0.009,-3.09 3.098,-3.168 h 37.106 l -0.017,-13.255 -43.226,0.01 c -5.534,0 -10.02,4.55 -10.02,10.163 v 42.218 m 93.865,-52.58 c 0.583,-1.69 2.166,-2.91 4.037,-2.91 a 4.267,4.267 0 0 1 4.037,2.91 l 20.983,62.874 H 270.9 l 0.034,-14.79 H 281.2 l -4.622,-13.934 -15.057,45.025 h -15.488 z" id="path8"/>
                <path d="m 305.856,172.907 h -34.904 v 13.28 h 53.118 l -27.626,-82.902 c -2.42,-8.086 -10.4,-14.035 -19.848,-14.035 -9.462,0 -17.418,5.923 -19.856,14.002 l -27.88,82.936 h 13.907 l 27.068,-80.618 c 1.099,-2.67 3.69,-4.55 6.737,-4.55 3.03,0 5.637,1.88 6.746,4.533 z" id="path9"/>
            </g>
        </g>
        <path d="m 762.974,341.62888 c 3.182,-44.032 2.534,-88.113 0.377,-133.46 -11.819,-41 -31.59,-70.158 -63.33,-119.550004 l 15.773,0.957 c 45.462,35.906004 62.844,78.940004 77.399,121.082004 l 14.789,127.506 z" fill="#9b8945" id="path10"/>
        <path d="m 710.11,2.2798763 c -19.232,-1.90800004 -43.548,5.927 -40.097,28.2499997 -19.088,-13.107 -49.747,-8.475 -51.584,17.56 -17.551,10.901 -27.671,32.913 -31.733,50.344 -3.839,26.962004 16.28,53.804004 17.713,48.857004 4.075,-18.837 0,-0.003 4.072,-17.504 0.269,-1.153 -0.396,-2.47 -1.33,-4.459 -1.292,-2.751 -3.122,-7.165 -3.123,-9.521 8.583,6.098 7.145,6.477 9.08,4.118 l 8.069,-15.849 -1.686,-10.278004 5.763,4.342 c 2.727,2.052004 2.256,-2.421 12.132,-6.84 -1.308,2.765 -2.886,4.439 -4.123,7.566 -6.156,15.561004 -7.825,34.103004 -1.042,48.298004 4.064,7.99 13.222,18.874 22.598,18.58 0.857,-15.75 1.148,-11.803 0.62,-16.711 -3.949,-4.795 -4.923,-7.528 -5.2,-12.594 l 6.484,4.972 c 1.648,1.262 1.109,-8.133 0.564,-10.472 0,0 -8.866,-14.754 -4.113,-13.132 l 6.185,4.16 c 0,0 7.452,-10.595 8.216,-14.103 0.47,-2.01 -5.01,-13.684004 -2.163,-11.415004 l 6.358,7.312004 c 1.787,2.054 14.043,-11.510004 5.875,-0.761 -6.764,11.424 0.076,28.098 13.27,30.641 6.543,1.205 12.774,1.126 18.326,-5.413 3.49,-4.104 4.682,-12.453 4.941,-17.789 21.71,30.67 43.381,69.093 48.324,104.924 1.061,8.816 1.687,18.063 2.153,27.326 -0.315,-11.439 -0.76,-22.938 -1.31,-34.521 -10.6,-36.77 -25.553,-63.262 -51.29,-103.797 0.022,0.272 0.099,0.5 0.113,0.777 1.344,26.8 -12.604,28.008 -18.678,26.863 -6.573,-1.24 -10.574,-3.02 -14.32,-10.075 -2.116,-3.985 -2.93,-8.572 -1.574,-13.229 3.008,-10.336004 11.18,-16.870004 21.2,-17.610004 2.03,-0.15 3.696,0.07 5.18,0.472 -0.235,-0.367 -0.392,-0.632 -0.63,-1 l 12.442,-0.99 c 7.178,5.668 13.588,11.531004 19.465,17.524004 -0.844,-0.895 -1.582,-1.9 -2.443,-2.778 l -12.33,-12.000004 c 3.665,-0.265 3.718,0.057 13.178,3.078 l 5.774,-8.496 c 1.758,-1.531 0.168,12.091 0.168,12.091 l 6.545,7.114004 8.11,-7.002004 c 2.59,-2.56 -2.437,12.451004 -2.437,12.451004 l 5.982,7.567 c 0,0 2.9,-2.852 4.453,-4.301 -0.574,5.183 -1.794,14.829 3.723,19.428 4.729,-2.568 7.91,-10.6 9.09,-16.01 1.902,-12.542 -1.062,-27.492004 -3.332,-39.854004 2.249,1.429 10.45,7.485 10.45,7.485 4.63,-7.539 3.037,-5.634 4.627,-7.607 2.674,-2.36 1.483,10.258 1.483,10.258 l 14.02,19.556004 c 15.13,-46.536004 -18.076,-61.448004 -35.41,-70.606004 -5.22,-19.896 -26.158,-23.9 -34.77,-22.263 C 731.356,8.0778763 721.648,3.4238763 710.11,2.2798763 Z M 735.257,107.10288 c 18.477,19.588 33.168,43.21 44.154,68.818 8.177,20.865 13.432,42.78 17.296,65.031 l -3.514,-30.296 c -12.257,-35.489 -26.589,-71.59 -57.936,-103.553 z m 61.45,133.849 11.273,97.21 -45.007,3.469 c 0.412,-5.701 0.595,-11.413 0.884,-17.118 -0.23,3.49 -0.508,7.622 -0.508,7.622 -85.668,2.982 -138.697,23.393 -173.058,39.406 l 298.93,0.93 c -22.76,-14.44 -35.4,-31.103 -81.464,-40.423 -3.185,-29.89 -5.79,-60.811 -11.05,-91.096 z m -32.85,83.56 c 0.16,-2.438 0.225,-4.455 0.426,-8.257 -0.112,2.754 -0.287,5.506 -0.426,8.258 z m 0.426,-8.257 c 0.147,-3.594 0.34,-7.191 0.442,-10.79 -0.153,3.73 -0.281,7.765 -0.442,10.79 z m 0.442,-10.79 c 0.7,-17.08 1.121,-39.174 -0.066,-62.776 0.582,21.096 0.66,41.976 0.066,62.775 z" fill="#16a252" id="path11"/>
        <path d="m 712.914,112.04988 c 0.466,12.224 -7.706,21.263 -17.755,21.263 -10.049,0 -21.622,-12.441 -18.64,-23.71 3.037,-11.480004 13.03,-18.353004 23.064,-18.893004 11.87,-0.638 13.017,13.140004 13.33,21.340004 z" fill="#eb1758" id="path12"/>
        <path d="m 598.124,369.71888 286.432,1.336 c -22.642,-17.341 -44.91,-35.165 -79.363,-37.334 h -41 c -82.638,0.936 -140.287,23.937 -166.069,35.998 z" fill="#bfb07b" id="path13"/>
        <path d="m 677.648,102.99988 c -6.765,11.425 0.074,28.098 13.267,30.64 6.544,1.206 12.774,1.126 18.327,-5.413 3.49,-4.104 4.68,-12.453 4.94,-17.789 21.71,30.67 43.38,69.096 48.322,104.927 6.16,51.173 0.847,116.77 0.847,116.77 -85.668,2.982 -138.701,23.392 -173.062,39.405 l 298.93,0.93 c -22.759,-14.439 -35.397,-31.101 -81.461,-40.421 -5.525,-51.852 -9.042,-106.868 -28.348,-156.13 -11.488,-26.778 -26.9,-51.513 -46.595,-71.595 L 720.487,92.325876 c 3.665,-0.266 3.714,0.057 13.175,3.077 l 5.774,-8.495 c 1.759,-1.53 0.165,12.092 0.165,12.092 l 6.55,7.110004 8.106,-7.001004 c 2.59,-2.56 -2.436,12.450004 -2.436,12.450004 l 5.981,7.568 c 0,0 2.905,-2.851 4.457,-4.3 -0.574,5.183 -1.798,14.829 3.718,19.429 4.73,-2.569 7.913,-10.603 9.093,-16.014 1.903,-12.541 -1.064,-27.490004 -3.334,-39.852004 2.249,1.43 10.452,7.487 10.452,7.487 4.63,-7.54 3.038,-5.633 4.628,-7.606 2.673,-2.36 1.484,10.255 1.484,10.255 l 14.017,19.560004 c 15.13,-46.537004 -18.076,-61.453004 -35.41,-70.611004 -5.22,-19.896 -26.158,-23.9 -34.769,-22.262 -2.087,-19.0299997 -67.649,-20.3979997 -62.127,15.317 -19.088,-13.107 -49.744,-8.475 -51.581,17.56 -17.551,10.901 -27.673,32.913 -31.734,50.345 -3.84,26.961004 16.28,53.801004 17.713,48.854004 4.076,-18.837 0,0 4.073,-17.501 0.268,-1.153 -0.396,-2.472 -1.33,-4.46 -1.292,-2.752 -3.121,-7.164 -3.122,-9.52 8.584,6.098 7.141,6.474 9.076,4.115 l 8.069,-15.848 -1.685,-10.275004 5.763,4.338 c 2.727,2.053004 2.258,-2.418 12.134,-6.837 -1.308,2.766 -2.889,4.436 -4.126,7.564 -6.155,15.560004 -7.823,34.103004 -1.04,48.298004 4.065,7.99 13.22,18.874 22.596,18.58 0.857,-15.75 1.148,-11.802 0.62,-16.71 -3.949,-4.795 -4.92,-7.526 -5.198,-12.592 l 6.481,4.967 c 1.647,1.263 1.11,-8.13 0.566,-10.468 0,0 -8.868,-14.756 -4.115,-13.133 l 6.188,4.159 c 0,0 7.452,-10.594 8.216,-14.1 0.47,-2.011 -5.011,-13.686004 -2.165,-11.417004 l 6.36,7.310004 c 1.787,2.054 14.045,-11.507004 5.877,-0.759" fill="none" stroke="#000000" stroke-width="4" id="path14"/>
        <path d="m 114.457,398.39988 c 43.362,-18.435 87.199,-34.692 130.769,-49.696 128.585,-44.282 411.977,-105.266 516.996,-112.66 37.233,-2.621 70.333,-9.473 98.143,-12.175 7.216,-2.281 11.637,-9.067 -2.11,-13.008 -73.66,-28.814 -534.698,-26.525 -793.254,79.715 -8.679,3.71 -7.053,15.852 -7.053,15.852 0.949,46.642 36.004,88.088 36.004,88.088 4.638,6.432 9.185,8.686 20.505,3.884 z" fill="url(#a)" stroke="#000000" stroke-width="4" id="path15" style="fill:url(#a)"/>
        <g fill="url(#b)" stroke="#000000" stroke-opacity="0.938" stroke-width="6" transform="translate(-62.15,-21.871124)" id="g16" style="fill:url(#linearGradient21)">
            <path d="m 401.04,135.754 c -14.625,2.978 -23.186,16.87 -33.103,26.765 -36.307,41.94 -70.96,88.075 -103.384,133.053 -10.87,14.63 -23.372,32.808 -35.524,46.379 -10.336,2.346 -4.68,32.504 -4.68,32.504 l 29.655,-6.156 c 0,0 78.15,-117.599 111.942,-162.653 -5.612,22.985 -11.254,42.34 -15.312,66.18 -1.49,12.245 -10.77,31.713 8.14,39.665 13.095,8.062 26.317,-5.617 34.324,-15.03 20.495,-24.41 32.945,-48.578 52.917,-73.402 -7.432,26.435 -21.597,45.948 -24.89,73.487 -2.162,17.062 14.33,33.07 24.682,24.128 16.244,7.271 26.514,-9.93 35.804,-14.328 9.036,-6.423 12.964,-34.7 -4.087,-30.278 -5.062,5.143 -13.026,9.414 -8.54,-2.59 0,0 23.02,-56.72 23.756,-89.537 1.651,-13.22 -9.454,-24.113 -26.466,-16.815 -25.631,17.069 -41.21,40.223 -59.508,64.499 -3.561,4.205 -12.2,18.77 -7.423,5.386 5.914,-24.364 16.164,-42.618 20.199,-67.378 -0.373,-10.825 -3.266,-33.494 -18.501,-33.88 z M 589.985,77.897 c -29.963,0.94 -53.362,16.77 -65.86,41.014 -5.57,13.613 -13.642,21.194 -17.887,25.988 -21.987,24.305 10.601,42.575 25.143,25.619 11.385,-13.46 23.09,-30.833 44.74,-31.836 17.514,-0.274 20.641,10.925 17.074,28.176 -7.966,31.1 -30.663,50.956 -51.248,74.04 0,0 -38.558,33.258 -46.857,51.954 -4.051,6.458 3.612,51.77 41.132,33.919 23.278,-8.38 37.136,-16.663 62.337,-28.245 69.306,-33.294 141.201,-58.678 211.492,-89.682 27.6,-10.967 21.424,-28.748 -10.13,-23.182 l -44.872,9.549 c -52.811,11.35 -103.21,28.914 -153.044,49.554 -8.761,2.927 -7.786,2.9 -20.711,6.792 27.709,-29.194 56.155,-74.216 61.653,-93.362 5.796,-18.767 5.987,-30.886 0.213,-51.249 -4.269,-17.295 -25.967,-30.251 -53.175,-29.049 z" id="path16" style="fill:url(#linearGradient20)"/>
        </g>
        <text fill="#ef00eb" font-family="TrasksHand" font-size="5.2px" stroke="#0105ff" stroke-width="6.5" x="825.862" y="219.13087" id="text16">
            <tspan fill="#fafafa" fill-opacity="0.4" stroke="none" x="825.862" y="219.13087" id="tspan16">John Loreth 2022</tspan>
        </text>
    </g>
    <text fill="#ef00eb" font-family="TrasksHand" font-size="5.2px" stroke="#0105ff" stroke-width="6.5" x="845.15521" y="665.85919" id="text16-9">
        <tspan fill="#fafafa" fill-opacity="0.4" stroke="none" x="845.15521" y="665.85919" id="tspan16-3">John Loreth 2022</tspan>
    </text>
</svg>
