<?xml version='1.0' encoding='utf-8'?>
<svg xmlns="http://www.w3.org/2000/svg" width="600" height="120.9335890732779" xml:space="preserve" version="1.1" id="svg8" viewBox="0 0 581.92969 117.29141">
    <defs id="defs8"/>
    <path style="baseline-shift:baseline;display:inline;overflow:visible;vector-effect:none;fill:#ffffff;stroke-linecap:round;stroke-linejoin:round;paint-order:markers stroke fill;enable-background:accumulate;stop-color:#000000" d="M 56.294922,0.50055431 41.921875,6.0357138 c -0.224169,0.1923604 -0.436779,0.3977949 -0.636719,0.61523 -1.310218,0.5828564 -2.425897,1.5290814 -3.214844,2.72656 l -4.767578,8.5312502 -8.521484,-3.27929 c -1.733051,-0.666493 -3.651715,-0.666493 -5.384766,0 l -14.5898435,5.61328 c -0.2650976,0.223353 -0.5143935,0.464816 -0.7460935,0.72265 -0.579758,0.418449 -1.096708,0.917644 -1.535156,1.48243 -0.973286,1.015772 -1.64129297,2.284783 -1.92773497,3.66211 -0.231152,0.359873 -0.4311,0.738857 -0.597656000042479,1.13281 v 61.41797 C -2.6897004e-4,91.681072 1.811073,94.406936 4.5957025,95.576724 l 14.5898445,6.126956 c 1.024055,0.11381 2.060575,0.0154 3.044922,-0.28907 0.940492,0.26529 1.923759,0.34424 2.894531,0.23242 l 7.222656,-3.199206 4.529297,8.794916 c 0.803462,1.55985 2.12834,2.78866 3.744141,3.47265 l 15.447265,6.53516 c 0.982977,0.10302 1.976624,0.0108 2.923828,-0.27148 0.946585,0.28199 1.939542,0.37424 2.921875,0.27148 l 15.445313,-6.53516 c 2.775123,-1.1741 4.578233,-3.89492 4.578125,-6.9082 v -6.345696 l 11.263672,4.328116 c 0.11931,-0.005 0.238485,-0.0128 0.357422,-0.0234 1.696269,0.60893 3.555077,0.58674 5.236328,-0.0625 l 14.589848,-6.126946 c 2.78463,-1.169791 4.59597,-3.895659 4.5957,-6.91602 v -61.41796 c -0.16656,-0.393953 -0.36651,-0.772937 -0.59766,-1.13281 -0.28644,-1.377326 -0.95445,-2.646337 -1.92773,-3.66211 -0.43845,-0.564786 -0.9554,-1.063981 -1.53516,-1.48243 -0.2317,-0.257834 -0.48099,-0.499296 -0.74609,-0.72265 l -14.589846,-5.61328 c -1.733631,-0.666994 -3.653087,-0.666994 -5.386718,0 l -12.332032,4.74609 v -6.32227 C 80.699203,12.660111 80.499912,12.281788 80.269531,11.922474 79.982042,10.540597 79.310481,9.2678786 78.332031,8.2505938 77.896742,7.6887133 77.3838,7.1915547 76.808594,6.7740338 76.578572,6.5184147 76.331243,6.2789164 76.068359,6.0572338 l -14.375,-5.55272949 c -1.736617,-0.67129 -3.660827,-0.672716 -5.398437,-0.004 z M 534.40234,19.383364 c -7.49969,0.197 -14.58559,2.64977 -19.89257,7.56641 -0.0118,0.01036 -0.0235,0.02076 -0.0352,0.0312 -4.2275,3.9656 -7.00218,9.32856 -8.22656,15.33789 -0.0855,-0.10003 -0.13753,-0.22136 -0.2246,-0.32031 -5.3811,-6.11458 -13.66996,-9.49219 -23.07227,-9.49219 -9.40428,0 -17.69494,3.37726 -23.07617,9.49219 -1.01603,1.15456 -1.81816,2.44666 -2.61915,3.73828 -0.55531,-0.83486 -1.00319,-1.71819 -1.67187,-2.5 -5.322,-6.22237 -13.90709,-9.48438 -24.33007,-9.48438 h -21.12305 c -1.40346,0.158058 -2.73378,0.709146 -3.83789,1.58985 -1.10356,-0.880367 -2.43316,-1.431435 -3.83594,-1.58985 h -14.45898 c -1.80746,0.0635 -3.53112,0.777936 -4.85352,2.01172 -0.14644,-0.217757 -0.30421,-0.427679 -0.47266,-0.6289 -1.26831,-0.899642 -2.78486,-1.382868 -4.33984,-1.38282 h -21.375 c -1.29366,0.173704 -2.51959,0.681986 -3.55664,1.47461 -1.04509,-0.802843 -2.28326,-1.316165 -3.58984,-1.48828 h -35.25977 c -0.94585,0.191963 -1.84577,0.564665 -2.65039,1.09766 -0.79503,-0.524055 -1.68258,-0.891936 -2.61523,-1.08399 h -40.52344 c -0.92163,0.191976 -1.79889,0.555734 -2.58594,1.07227 -0.78705,-0.516536 -1.66431,-0.880294 -2.58594,-1.07227 h -14.45312 c -1.80882,0.06257 -3.53402,0.77707 -4.85742,2.01172 -1.31134,-1.224284 -3.01805,-1.938013 -4.81055,-2.01172 H 218.0957 c -1.58327,0.123682 -3.08642,0.746692 -4.29297,1.7793 -1.20654,-1.032606 -2.7097,-1.655616 -4.29296,-1.7793 h -17.83008 c -1.61261,0.116431 -3.14443,0.75081 -4.36719,1.8086 -1.22223,-1.057402 -2.75331,-1.691755 -4.36523,-1.8086 h -14.46289 c -1.80585,0.0639 -3.52793,0.777566 -4.84961,2.00977 -1.31213,-1.224002 -3.01958,-1.937058 -4.8125,-2.00977 h -21.37499 c -4.14196,4.14e-4 -7.49959,3.358036 -7.5,7.5 v 47.5 c 3.8e-4,1.988993 0.79074,3.8964 2.19726,5.30274 1.40634,1.406521 3.31375,2.19688 5.30274,2.19726 h 14.45507 c 1.80721,-0.06297 3.53083,-0.776691 4.85352,-2.00976 0.14534,0.215666 0.3018,0.423627 0.46875,0.62304 1.26947,0.902186 2.7883,1.386845 4.3457,1.38672 h 21.37695 c 1.61192,-0.116842 3.143,-0.751192 4.36523,-1.80859 1.22276,1.057786 2.75458,1.692162 4.36719,1.80859 h 17.83008 c 1.58326,-0.123681 3.08641,-0.746688 4.29296,-1.77929 1.20655,1.032604 2.7097,1.655611 4.29297,1.77929 h 14.46094 c 1.80423,-0.0643 3.52474,-0.777188 4.8457,-2.00781 0.14413,0.21491 0.29929,0.422217 0.46485,0.62109 1.27002,0.902572 2.78958,1.38725 4.34765,1.38672 h 21.375 c 4.14196,-4.14e-4 7.49959,-3.358036 7.5,-7.5 v -27.09765 h 1.50196 v 27.09765 c -1.4e-4,1.988714 0.7895,3.896081 2.19531,5.30274 1.40682,1.406999 3.31502,2.197397 5.30469,2.19726 h 17.82422 c 4.14196,-4.14e-4 7.49959,-3.358036 7.5,-7.5 v -27.09765 h 1.63476 v 27.08203 c 4.1e-4,4.141964 3.35804,7.499586 7.5,7.5 H 350.375 c 1.18305,-0.184242 2.3048,-0.649017 3.27148,-1.35547 0.97654,0.717774 2.11247,1.188227 3.31055,1.37109 h 14.45703 c 1.80653,-0.06343 3.52938,-0.777126 4.85156,-2.00976 0.14471,0.21562 0.30052,0.42358 0.4668,0.62304 1.26947,0.902186 2.7883,1.386845 4.3457,1.38672 h 21.37891 c 1.4019,-0.158202 2.73076,-0.708564 3.83399,-1.58789 1.10465,0.881041 2.4357,1.432148 3.83984,1.58985 h 22.1875 c 8.52305,0 16.39048,-2.88764 21.88281,-8.48047 1.10598,-1.12622 2.02276,-2.40917 2.91016,-3.71289 0.83344,1.37151 1.6928,2.72793 2.76562,3.94726 5.38117,6.11599 13.67064,9.4961 23.07423,9.4961 7.93799,0 14.96528,-2.53418 20.23633,-6.96485 2.25388,4.06035 6.44096,6.95899 11.34375,6.95899 7.16542,0 13.13476,-5.96934 13.13476,-13.13477 v -0.006 c -0.006,-7.16505 -5.97947,-13.1295 -13.14454,-13.12695 -0.43166,2.3e-4 -0.84175,0.0883 -1.26367,0.13086 0.14357,-1.0113 0.14088,-2.06839 0.21289,-3.10352 3.82112,3.23563 8.98926,5.29297 14.72462,5.29297 7.2314,0 13.65072,-3.66682 17.56055,-9.16406 h 7.60937 v 1.02344 c 4.1e-4,4.141964 3.35804,7.499586 7.5,7.5 h 9.53711 c 4.14196,-4.14e-4 7.49959,-3.358036 7.5,-7.5 v -2.46289 c 2.29809,-1.19013 3.82033,-3.480868 4.02735,-6.06055 v -7.8086 c -0.20703,-2.579679 -1.72926,-4.870412 -4.02735,-6.06054 v -15.61324 c -4.1e-4,-4.141964 -3.35804,-7.499586 -7.5,-7.5 H 557.7422 c -2.71249,6.9e-5 -5.2136,1.464592 -6.54102,3.83008 l -5.61915,10.01367 v -6.8086 c -7.4e-4,-3.879845 -2.96018,-7.118802 -6.82421,-7.46875 -0.72232,-0.0653 -2.35667,-0.18939 -4.35548,-0.0879 z m -486.421871,3.00782 0.25,0.0976 -2.945313,5.25587 -0.138672,-0.28125 z m 17.884765,1.61523 v 5.86719 l -3.769531,-1.44336 2.119141,-3.78516 z m 17.597657,12.10937 4.927734,1.9004 v 10.0332 l -6.841797,-9.7793 z m -50.484375,0.59375 3.066406,6.22852 v 0.002 0.22852 l -3.367188,-6.34375 z M 15,38.174384 l 1.779296,0.68555 9.564454,18.02148 C 23.804065,54.723173 20.144879,54.499595 17.361328,56.332584 15.97555,57.627579 15.131821,59.399481 15,61.291574 Z m 501.57812,8.43555 c -0.0515,0.10552 -0.0412,0.17625 -0.0879,0.27929 -0.0381,0.0896 -0.10849,0.15717 -0.14452,0.24805 z m -194.52734,2.1289 h 4.64259 c -1.31242,1.36334 -2.06102,3.172376 -2.09571,5.06445 v 4.9668 c 0.21072,2.604427 1.76159,4.911509 4.09375,6.08985 -2.33159,1.177984 -3.88238,3.484183 -4.09375,6.08789 v 5.33007 c 0.0492,1.849598 0.78028,3.61575 2.05273,4.95899 h -4.59961 z m -177.1035,0.0137 h 8.55468 l 2.18749,6.24805 c -1.09702,-0.699152 -2.35701,-1.100978 -3.65625,-1.16602 h -0.13086 c -1.98899,3.85e-4 -3.89639,0.790748 -5.30273,2.19727 -0.92972,1.138777 -1.5043,2.525655 -1.65234,3.98828 z m 54.23242,0 h 2.83008 v 32.5 h -2.83008 z m 26.41601,0 h 8.55274 l 2.1875,6.25 c -1.09626,-0.699519 -2.35555,-1.102007 -3.6543,-1.16797 h -0.125 c -1.98967,-1.35e-4 -3.89787,0.790267 -5.30469,2.19727 -0.93324,1.14156 -1.50932,2.532858 -1.65625,4 z m 59.5586,0 h 7.69922 c -0.0807,0.03181 -0.16075,0.06501 -0.24025,0.0996 -1.40652,1.40634 -2.19688,3.313747 -2.19726,5.30274 v 27.09765 h -2.82422 v -27.09765 c -0.0364,-2.059041 -0.91783,-4.012535 -2.4375,-5.40235 z m 79.30272,0 h 8.55469 l 2.18946,6.25 c -1.09796,-0.700483 -2.35939,-1.103011 -3.66015,-1.16797 h -0.12696 c -1.98899,3.85e-4 -3.89639,0.790748 -5.30273,2.19727 -0.93113,1.139628 -1.50644,2.527987 -1.6543,3.99219 z m 53.17384,0 h 3.8125 c -0.71084,0.970667 -1.17775,2.098085 -1.36134,3.28711 v 25.91992 c 0.18354,1.192099 0.65186,2.322356 1.36524,3.29492 h -3.81641 z m 55.82616,1.14844 c -0.25236,0.40992 -0.59735,0.80069 -0.7871,1.21094 -1.80589,3.90423 -2.01953,7.784 -2.01953,13.88867 0,6.25277 0.22918,10.16343 2.10742,14.08203 0.1667,0.34777 0.47608,0.67268 0.68946,1.01953 -0.86354,-0.58737 -1.64324,-1.24351 -2.31055,-2.00195 -2.36109,-2.68351 -3.93164,-6.99869 -3.93164,-13.09766 0,-6.09712 1.57137,-10.41167 3.93164,-13.09375 0.6698,-0.76112 1.45235,-1.41903 2.3203,-2.00781 z m 18.98634,0.002 c 0.86703,0.58847 1.65095,1.24526 2.32031,2.00586 2.36065,2.68242 3.93164,6.99713 3.93164,13.09375 0,6.09863 -1.57229,10.41391 -3.93359,13.09765 -0.66773,0.75891 -1.44649,1.41437 -2.31055,2.00196 0.21319,-0.3465 0.52279,-0.6701 0.68945,-1.01758 1.87887,-3.91732 2.11133,-7.8306 2.11133,-14.08398 0,-6.10533 -0.21509,-9.98511 -2.02148,-13.88868 -0.1896,-0.40971 -0.53511,-0.79963 -0.78711,-1.20898 z m -420.792979,0.38672 8.111328,11.59375 C 75.17271,57.244349 67.258312,60.272184 66.9375,66.789644 v 15.29688 16.75 l -0.447266,0.18945 v -46.75976 z m 369.953129,0.62523 c 1.02972,0.61583 1.91565,1.29349 2.58007,2.07032 2.04899,2.39563 3.32032,6.52222 3.32032,12.54296 0,5.62929 -1.61519,9.30191 -4.00586,11.73633 -0.4895,0.49846 -1.0576,0.93265 -1.64453,1.35156 2.83043,-5.00391 2.19531,-9.0036 2.19531,-13.61523 0,-4.74194 0.7149,-8.81222 -2.36524,-13.99023 -0.0213,-0.0361 -0.0583,-0.0599 -0.0801,-0.0957 z m -390.558598,1.17961 0.445312,0.16992 v 46.76172 l -2.521484,-1.06641 -6.523438,-12.66406 v -0.002 l -3.65039,-7.08789 c 2.546333,2.531122 6.529228,2.902881 9.5,0.88672 1.739077,-1.423376 2.748316,-3.551523 2.75,-5.79883 z m 124.402348,17.69141 v 11.46679 h -8.54492 l -2.24023,-6.4414 c 1.10778,0.710078 2.38287,1.116247 3.69726,1.17773 h 0.125 c 1.98871,1.37e-4 3.89608,-0.789504 5.30274,-2.19531 0.93605,-1.143259 1.5136,-2.537517 1.66015,-4.00781 z m 219.50976,0.01 v 11.45703 h -8.54687 l -2.24023,-6.44336 c 1.10816,0.711097 2.38398,1.117959 3.69922,1.17969 h 0.12891 c 1.98871,1.32e-4 3.89607,-0.789513 5.30273,-2.19532 0.93288,-1.141019 1.50894,-2.531584 1.65624,-3.99804 z m -138.86718,0.0137 v 11.44335 h -8.54297 l -2.24023,-6.4414 c 1.10835,0.710405 2.38416,1.116587 3.69922,1.17773 h 0.13086 c 3.46942,-0.20043 6.34683,-2.757772 6.95312,-6.17968 z m 258.4336,2.41015 c -0.032,1e-5 -0.0618,0.01 -0.0937,0.01 -0.0326,5.6e-4 -0.0631,-0.009 -0.0957,-0.008 z m -411.54298,0.5488 v 10.9082 l -4.658204,1.95508 -6.152344,-8.0293 c 4.317679,2.299323 9.645438,-0.08301 10.810548,-4.83398 z m 338.7168,6.20898 -0.0312,0.0527 c 0.007,-0.0117 0.009,-0.0215 0.0156,-0.0332 0.004,-0.007 0.0114,-0.0123 0.0156,-0.0195 z m 73.9082,4.3086 0.55469,0.55468 c 0.069,0.18258 0.23632,0.33177 0.23632,0.52344 -1.6e-4,0.1897 -0.16674,0.33673 -0.23437,0.51758 l -1.11524,1.11523 c -0.18075,0.0675 -0.32798,0.23428 -0.51757,0.23438 h -0.002 c -0.12025,4e-5 -0.21031,-0.12014 -0.32812,-0.14844 z m -1.17774,13.21875 c 0.0313,2.7e-4 0.0604,0.01 0.0918,0.01 l -0.18555,-0.002 c 0.032,8.1e-4 0.0618,-0.008 0.0937,-0.008 z" id="path9"/>
    <g id="g8" transform="translate(7.3546056,7.6395146)">
        <path fill="#1747ce" d="m 51.491,11.127 -11.878,21.197 11.878,-4.552 11.338,4.341 3.036,-3.406 V 5.553 Z M 88.391,87.288 66.938,59.29 v 37.017 l -15.447,6.535 V 39.606 L 66.938,33.69 88.391,64.354 V 25.369 l 14.589,-5.627 v 61.419 z m -73.802,0 13.688,-6.061 -13.688,-26.575 z" id="path1"/>
        <path fill="#069330" d="M 29.178,19.742 36.044,33.689 39.613,32.324 51.491,11.127 37.117,5.535 Z M 62.829,32.113 73.807,19.742 88.391,25.369 V 64.354 L 66.938,33.69 Z" id="path2"/>
        <path fill="#069330" d="M 14.589,25.369 0,19.742 v 61.419 l 14.589,6.127 V 54.652 l 21.455,41.655 15.447,6.535 V 39.606 L 36.044,33.689 v 32.103 z" id="path3"/>
        <path fill="#cc130e" d="M 36.044,33.689 V 65.792 L 14.589,25.369 29.178,19.742 Z M 88.391,87.288 66.938,59.29 v 15.296 l 4.383,6.144 z" id="path4"/>
        <path fill="#ffc001" d="M 66.938,33.689 51.491,39.606 36.044,33.689 51.491,27.772 Z m 6.864,-13.947 14.589,-5.613 14.589,5.613 -14.589,5.627 z M 0,19.742 14.589,14.129 29.178,19.742 14.589,25.369 Z M 65.865,5.553 51.491,0 37.117,5.535 51.491,11.127 Z" id="path5"/>
        <path fill="#1747ce" d="m 154.07,81.252 h 21.377 v -47.5 h -14.463 v 27.237 h -0.125 l -9.536,-27.237 h -21.375 v 47.5 h 14.455 V 53.834 h 0.13 z m 80.644,0 h 21.375 v -47.5 h -14.453 v 27.237 h -0.131 l -9.537,-27.237 h -21.373 v 47.5 h 14.461 V 53.834 h 0.125 z m 138.864,0 h 21.379 v -47.5 h -14.459 v 27.237 h -0.129 l -9.536,-27.237 h -21.376 v 47.5 h 14.457 V 53.834 h 0.127 z m -189.399,-47.5 h 17.83 v 47.5 h -17.83 z m 88.412,12.903 h -11.33 V 33.752 h 40.524 V 46.655 H 290.416 V 81.252 H 272.591 Z M 307.05,33.739 h 35.26 v 12.564 h -17.713 v 4.967 h 16.309 v 12.178 h -16.309 v 5.329 h 18.278 V 81.236 H 307.05 Z m 95.58,0.013 h 21.123 c 18.016,0 23.75,10.197 23.75,24.275 0,14.343 -8.848,23.226 -22.684,23.226 H 402.63 Z m 17.453,36.707 h 1.738 c 2.867,0 4.789,-0.879 5.912,-2.787 1.184,-1.975 1.316,-5.572 1.316,-10.172 0,-4.604 -0.135,-8.194 -1.316,-10.172 -1.123,-1.91 -3.045,-2.789 -5.912,-2.789 h -1.738 z m 55.368,-37.953 c 15.521,0 23.244,10.193 23.244,24.995 0,14.806 -7.725,25.002 -23.244,25.002 -15.523,0 -23.246,-10.196 -23.246,-25.002 0,-14.802 7.72,-24.995 23.246,-24.995 z m 0,37.959 c 2.738,0 4.801,-1.346 4.801,-12.965 0,-11.357 -1.939,-12.961 -4.801,-12.961 -2.865,0 -4.801,1.604 -4.801,12.961 0,11.62 2.058,12.965 4.801,12.965 z m 31.574,0.765 a 5.632,5.632 0 0 0 -5.629,5.634 5.635,5.635 0 1 0 11.27,0 5.639,5.639 0 0 0 -5.641,-5.634 z m 0,10.284 a 4.64,4.64 0 0 1 -4.637,-4.649 4.638,4.638 0 0 1 4.637,-4.646 4.649,4.649 0 1 1 0,9.295 z" id="path6"/>
        <path fill="#1747ce" d="m 506.109,79.961 h -1.328 v -6.199 h 2.635 c 1.068,0.019 2.154,0.357 2.154,1.615 0,0.803 -0.52,1.342 -1.287,1.504 v 0.014 c 1.021,0.119 1.021,0.74 1.135,1.603 0.059,0.392 0.105,1.123 0.359,1.465 h -1.469 a 17.57,17.57 0 0 1 -0.232,-1.662 c -0.035,-0.344 -0.117,-0.817 -0.559,-0.836 h -1.408 z m 0,-3.527 h 1.119 c 0.582,-0.008 0.928,-0.305 0.928,-0.85 0,-0.547 -0.346,-0.781 -0.928,-0.789 h -1.119 z M 154.07,81.252 h 21.377 v -47.5 h -14.463 v 27.237 h -0.125 l -9.536,-27.237 h -21.375 v 47.5 h 14.455 V 53.834 h 0.13 z m 80.644,0 h 21.375 v -47.5 h -14.453 v 27.237 h -0.131 l -9.537,-27.237 h -21.373 v 47.5 h 14.461 V 53.834 h 0.125 z m 138.864,0 h 21.379 v -47.5 h -14.459 v 27.237 h -0.129 l -9.536,-27.237 h -21.376 v 47.5 h 14.457 V 53.834 h 0.127 z m -189.399,-47.5 h 17.83 v 47.5 h -17.83 z m 88.412,12.903 h -11.33 V 33.752 h 40.524 V 46.655 H 290.416 V 81.252 H 272.591 Z M 307.05,33.739 h 35.26 v 12.564 h -17.713 v 4.967 h 16.309 v 12.178 h -16.309 v 5.329 h 18.278 V 81.236 H 307.05 Z" id="path7"/>
        <path fill="#cc130e" d="m 530.583,27.436 c -0.949,-0.083 -1.871,-0.044 -3.158,0.014 -7.521,0.348 -10.563,3.553 -11.594,7.174 h 0.182 c 1.873,-1.637 4.188,-2.401 7.289,-2.401 5.965,0 11.414,4.338 11.414,12.476 0,7.787 -5.986,13.852 -14.02,13.852 -10.584,0 -15.188,-8.083 -15.188,-16.75 0,-7.041 2.498,-13.004 6.598,-16.85 3.902,-3.615 8.934,-5.441 15.092,-5.582 1.631,-0.094 2.6,0 3.385,0.071 z m -10.021,23.456 c 2.439,0 3.918,-2.491 3.918,-5.673 -0.02,-2.686 -1.25,-5.613 -4.52,-5.613 a 4.427,4.427 0 0 0 -4.143,2.795 c -0.229,0.469 -0.314,1.137 -0.314,2.27 0.209,3.035 1.672,6.222 4.998,6.222 z m 32.803,7.019 v -8.524 h -15.846 v -6.811 l 12.723,-22.671 h 12.66 v 21.673 h 4.027 v 7.809 h -4.027 v 8.524 z m 0,-16.333 v -6.531 c 0,-2.414 0.145,-4.922 0.268,-7.565 h -0.207 c -1.178,2.565 -2.203,5.007 -3.543,7.657 l -3.113,6.326 -0.033,0.115 z" id="path8"/>
    </g>
</svg>
