<?xml version='1.0' encoding='utf-8'?>
<svg xmlns="http://www.w3.org/2000/svg" stroke-width="0.501" stroke-linejoin="bevel" fill-rule="evenodd" overflow="visible" width="600" height="148.75775923500677" viewBox="0 0 396.53999 98.313998" version="1.1" id="svg2">
    <defs id="defs2"/>
    <g stroke="none" fill="none" font-family="'Times New Roman'" font-size="16px" id="g2" style="stroke:#ffffff;stroke-width:15;stroke-linecap:round;stroke-linejoin:round;stroke-dasharray:none;stroke-opacity:1;paint-order:markers stroke fill" transform="translate(5.7019959,5.979)">
        <g id="path1" style="opacity:1">
            <path style="font-size:medium;baseline-shift:baseline;display:inline;overflow:visible;vector-effect:none;fill:#ffffff;fill-rule:nonzero;stroke:none;enable-background:accumulate;stop-color:#000000;stop-opacity:1" d="m 370.69531,-5.1503906 c -4.13359,3.952e-4 -7.48775,3.3449442 -7.5,7.4785156 l -0.20703,78.341797 0.004,0.0098 -0.004,0.0098 c 0.18887,0.836623 0.51984,1.634652 0.97852,2.359375 0.19067,1.05404 0.60491,2.05501 1.21484,2.935547 0.75834,0.491817 1.59933,0.842507 2.48242,1.035156 0.84527,0.577277 1.79975,0.975423 2.80469,1.169922 l 0.01,-0.0039 0.01,0.0039 h 12.64258 c 4.13435,-3.98e-4 7.48882,-3.346134 7.5,-7.480469 l 0.20703,-78.3398434 c 0.0104,-4.1495894 -3.3504,-7.5191293 -7.5,-7.5195312 z m -24.64844,0.8417969 c -2.05566,0.1098062 -3.97585,1.0596593 -5.31054,2.6269531 L 303.72461,41.798828 267.16016,-0.67773437 C 262.62144,-5.9463598 253.97751,-2.7372212 253.97656,4.2167969 V 80.689453 c 4.1e-4,4.141964 3.35804,7.499586 7.5,7.5 h 12.43555 c 4.14214,0 7.5,-3.357864 7.5,-7.5 V 59.808594 l 16.39453,19.490234 c 3.00923,3.57764 8.52245,3.560798 11.50977,-0.03516 l 16.26171,-19.583985 0.10547,21.046875 c 0.0208,4.127465 3.37248,7.462531 7.5,7.462891 h 13.26368 c 4.14196,-4.14e-4 7.49959,-3.358036 7.5,-7.5 V 3.1796875 c -0.001,-4.2988563 -3.60765,-7.7173302 -7.9004,-7.4882812 z M 60.033203,-4.1132812 c -4.154197,3.81e-4 -7.516892,3.37708735 -7.5,7.53125 L 52.671875,36.314453 6.5742187,-1.7734375 C 1.6766359,-5.8158048 -5.7147032,-2.3230002 -5.7011719,4.0273437 l 0.2050782,76.2675783 c 0.011179,4.134335 3.3656502,7.480071 7.5,7.480469 H 12.988281 c 4.141964,-4.14e-4 7.499586,-3.358036 7.5,-7.5 v -33.56836 l 47.458985,38.560547 c 0.7555,0.372234 1.568302,0.614556 2.404296,0.716797 0.715597,0.449741 1.502065,0.775291 2.326172,0.962891 0.128379,-0.04923 0.255381,-0.101988 0.38086,-0.158204 0.826453,-0.17786 1.616888,-0.494166 2.33789,-0.935546 0.309892,0.195301 0.633675,0.367637 0.96875,0.515625 0.180438,0.275109 0.378783,0.538046 0.59375,0.787109 0.639951,0.177744 1.300678,0.269694 1.964844,0.273437 0.574963,0.333398 1.191692,0.588891 1.833984,0.759766 h 14.091797 c 2.735195,2.45e-4 5.253681,-1.488392 6.572271,-3.884766 l 6.98242,-12.695312 h 28.95898 l 6.5957,12.566406 c 1.29584,2.467831 3.85327,4.013572 6.64063,4.013672 h 15.12891 c 5.72115,-0.001 9.33498,-6.149374 6.55273,-11.148437 L 129.58984,0.359375 C 126.72321,-4.7876958 119.3139,-4.7722551 116.46875,0.3867188 L 91.871094,45.003906 H 81.585937 c -0.488016,0.146331 -0.959854,0.342003 -1.408203,0.583985 V 3.3867188 c -4.14e-4,-4.14196407 -3.358036,-7.4995859 -7.5,-7.5 z m 63.037107,23.5976562 0.39453,0.710937 c -0.26219,-0.01378 -0.52492,-0.01378 -0.78711,0 z M 9.3417969,19.96875 14.263672,24.035156 C 12.570556,23.7722 10.838445,24.096842 9.3554688,24.955078 Z M 338.94727,23.560547 v 11.9375 c -1.46914,-2.46211 -4.21331,-3.871337 -7.07032,-3.63086 z m -69.97071,0.865234 7.02149,8.15625 c -2.38116,-0.82822 -5.01911,-0.404826 -7.02149,1.126953 z m -126.00586,30.806641 1.10547,1.984375 c -0.6494,-0.28489 -1.33592,-0.476249 -2.03906,-0.56836 0.36373,-0.43519 0.67693,-0.910231 0.93359,-1.416015 z m -39.91211,0.548828 c 0.0239,0.03013 0.048,0.06008 0.0723,0.08984 0.10213,0.296993 0.22281,0.587278 0.36133,0.86914 -0.56968,0.08733 -1.1274,0.240033 -1.66211,0.455078 0.38106,-0.321358 0.72913,-0.679902 1.03906,-1.070312 z m -37.880856,1.888672 v 6.021484 l -5.054687,-4.105469 c 1.864472,0.01176 3.666491,-0.671304 5.054687,-1.916015 z m 33.265625,1.748047 c -0.38271,0.323007 -0.73211,0.68353 -1.042968,1.076172 l -0.419922,0.761718 C 96.782317,60.81648 96.542274,60.397224 96.263672,60.003906 h 0.03711 c 0.739314,-0.08789 1.461423,-0.285372 2.142577,-0.585937 z m 202.244141,0.0039 c 1.65332,0.768802 3.53007,0.909055 5.2793,0.394531 l -2.45703,2.958985 z" id="path3"/>
            <path style="font-size:medium;baseline-shift:baseline;display:inline;overflow:visible;vector-effect:none;fill:#000000;fill-rule:nonzero;stroke:none;enable-background:accumulate;stop-color:#000000;stop-opacity:1" d="M 72.677,79.447 V 3.386 H 60.033 L 60.241,52.296 1.798,4.008 2.004,80.275 H 12.989 V 30.951 l 59.688,48.496 m 8.081,1.242 9.74,-16.579 H 81.586 V 52.504 H 96.301 L 123.037,4.008 165.729,80.689 H 150.6 L 141.896,64.11 H 103.971 L 94.85,80.689 H 80.758 m 28.393,-28.393 h 27.356 L 122.829,27.221 109.151,52.296 M 273.912,80.689 H 261.476 V 4.216 l 42.28,49.117 42.691,-50.153 v 77.509 h -13.264 l -0.206,-41.657 -29.43,35.44 -29.635,-35.232 v 41.449 m 96.576,0 0.208,-78.34 h 12.642 l -0.208,78.34 h -12.642" id="path4"/>
        </g>
        <g id="path2" style="opacity:1">
            <path style="font-size:medium;baseline-shift:baseline;display:inline;overflow:visible;vector-effect:none;fill:#ffffff;fill-rule:nonzero;stroke:none;enable-background:accumulate;stop-color:#000000;stop-opacity:1" d="m 206.97266,-5.9785156 c -27.05912,0 -49.15821,22.0981726 -49.15821,49.1562496 0,27.058902 22.0993,49.158203 49.15821,49.158203 27.05807,0 49.15625,-22.099084 49.15625,-49.158203 0,-27.058295 -22.09796,-49.1562496 -49.15625,-49.1562496 z m 0,27.6406246 c 12.12602,0 21.7207,9.64962 21.7207,21.515625 0,12.126646 -9.59406,21.720703 -21.7207,21.720703 -11.86727,0 -21.51758,-9.594676 -21.51758,-21.720703 0,-11.865378 9.65094,-21.515625 21.51758,-21.515625 z" id="path5"/>
            <path style="font-size:medium;baseline-shift:baseline;display:inline;overflow:visible;vector-effect:none;fill:#ff0000;fill-rule:nonzero;stroke:none;enable-background:accumulate;stop-color:#000000;stop-opacity:1" d="m 165.315,43.178 c 0,-23.004 18.652,-41.657 41.657,-41.657 23.004,0 41.657,18.653 41.657,41.657 0,23.005 -18.653,41.657 -41.657,41.657 -23.005,0 -41.657,-18.652 -41.657,-41.657 m 41.657,29.221 c 16.165,0 29.221,-13.056 29.221,-29.221 0,-15.957 -13.056,-29.015 -29.221,-29.015 -15.958,0 -29.016,13.058 -29.016,29.015 0,16.165 13.058,29.221 29.016,29.221" id="path6"/>
        </g>
    </g>
</svg>
