<?xml version='1.0' encoding='utf-8'?>
<svg xmlns="http://www.w3.org/2000/svg" height="127.06493065381778" viewBox="0 0 3986.8118 844.30618" width="600" version="1.1" id="svg9" xml:space="preserve">
    <defs id="defs9"/>
    <g fill="#231f20" id="g1" transform="matrix(1.4267926,0,0,1.4267926,-548.52339,-46.563533)" style="stroke:#ffffff;stroke-width:46.2576;stroke-linecap:round;stroke-linejoin:round;stroke-dasharray:none;stroke-opacity:1;paint-order:markers stroke fill">
        <g id="path1" style="opacity:1">
            <path style="baseline-shift:baseline;display:inline;overflow:visible;vector-effect:none;fill:#ffffff;stroke:none;enable-background:accumulate;stop-color:#000000;stop-opacity:1" d="m 1381.125,460.0332 a 23.131112,23.131112 0 0 0 -17.4766,9.01367 23.131112,23.131112 0 0 0 -17.4765,-9.01171 H 1087.291 c -17.3042,0 -33.1737,2.8578 -46.541,8.03711 a 23.131112,23.131112 0 0 0 -0.5391,0.21679 c -8.0823,3.36754 -15.6646,7.86864 -22.0293,14.77539 -6.3647,6.90676 -11.2968,17.06922 -11.2968,27.93164 0,10.93652 5.0518,20.94535 11.3867,27.74219 2.267,2.43233 4.7304,4.48147 7.2734,6.375 a 23.131112,23.131112 0 0 0 -14.7754,20.89063 v 13.91992 a 23.131112,23.131112 0 0 0 23.1289,23.1289 h 255.3204 c 17.3086,0 33.1749,-2.86754 46.5292,-8.03515 a 23.131112,23.131112 0 0 0 0.5489,-0.22071 c 8.0823,-3.36753 15.6049,-7.84124 21.9394,-14.63671 6.3345,-6.79548 11.3867,-16.80593 11.3867,-27.74219 v -0.32813 c 0,-3.44536 -0.5294,-6.73144 -1.3886,-9.86914 4.3862,6.07272 9.7711,10.99062 15.5644,13.88867 13.8827,6.94464 26.7376,6.81446 36.4766,6.81446 h 92.7187 v 16.99804 a 23.131112,23.131112 0 0 0 23.1289,23.12891 h 13.5918 a 23.131112,23.131112 0 0 0 23.129,-23.12891 v -16.99804 h 66.5078 28.8007 c 9.739,0 22.5935,0.13145 36.4766,-6.8125 8.2421,-4.12248 15.7262,-12.23585 20.502,-22.16797 1.1899,1.70433 2.427,3.35655 3.7675,4.79492 2.2669,2.4323 4.7306,4.48147 7.2735,6.375 a 23.131112,23.131112 0 0 0 -14.7774,20.89063 v 13.91992 a 23.131112,23.131112 0 0 0 23.1289,23.1289 h 255.3184 c 17.3111,0 33.0109,-2.92739 46.209,-8.03711 a 23.131112,23.131112 0 0 0 0.5449,-0.21875 c 8.0824,-3.36753 15.6049,-7.84124 21.9395,-14.63671 6.3345,-6.79548 11.3867,-16.80593 11.3867,-27.74219 v -0.32813 c 0,-14.04807 -8.2998,-25.90543 -17.8633,-33.38281 a 23.131112,23.131112 0 0 0 10.9141,-6.53906 23.131112,23.131112 0 0 0 16.1816,7.71875 h 131.5508 v 60.03515 a 23.131112,23.131112 0 0 0 23.1289,23.12696 h 13.5957 a 23.131112,23.131112 0 0 0 23.1289,-23.12696 v -60.03515 h 131.8769 a 23.131112,23.131112 0 0 0 15.6993,-7.23438 v 38.79297 c 0,11.59557 6.0945,21.74239 13.3144,28.36914 a 23.131112,23.131112 0 0 0 0.5957,0.5293 c 6.3491,5.43667 16.6576,12.50348 30.9258,15.88477 7.4742,2.0942 15.6817,3.87005 24.6152,4.96875 10.0073,1.51322 19.5475,1.85156 28.75,1.85156 h 245.9395 a 23.131112,23.131112 0 0 0 15.207,-6.74219 23.131112,23.131112 0 0 0 15.2071,6.74219 h 13.916 a 23.131112,23.131112 0 0 0 23.1289,-23.12696 v -40.58789 l 112.0039,56.99219 a 23.131112,23.131112 0 0 0 0.086,0.043 l 1.9395,0.97656 a 23.131112,23.131112 0 0 0 1.0176,0.48242 c 3.2816,1.45703 8.5987,3.90677 15.8242,4.15821 7.2254,0.25143 13.0949,-1.73012 18.3203,-3.81641 l -1.2149,0.44531 1.9434,-0.65234 a 23.131112,23.131112 0 0 0 3.0547,-1.27539 l 113.3691,-57.18555 v 40.41797 a 23.131112,23.131112 0 0 0 23.1289,23.12695 h 13.2676 a 23.131112,23.131112 0 0 0 23.1289,-23.12695 v -89.96094 c 0,-17.25696 -15.4764,-29.92382 -30.25,-29.92382 -7.6952,0 -9.745,0.91425 -14.6465,4.15625 l -18.1289,9.83007 -129.8261,66.16993 -148.1407,-76.29688 1.2559,0.69727 c -3.1331,-1.86827 -11.8676,-4.55664 -16.3809,-4.55664 -7.0142,0 -13.6192,2.12515 -19.5254,7.10742 -0.3665,0.30918 -0.6665,0.75553 -1.0214,1.09375 a 23.131112,23.131112 0 0 0 -16.6641,-8.19922 h -243.9961 c -11.3151,0 -21.6016,0.71319 -31.2656,1.75 a 23.131112,23.131112 0 0 0 -0.086,0.01 c -10.0453,1.11539 -19.0633,2.99545 -27.1562,5.20313 a 23.131112,23.131112 0 0 0 -0.2617,0.0742 c -9.3134,2.65862 -17.507,6.55254 -24.5801,11.99609 -0,0.002 -0,0.002 -0.01,0.004 -0,0.001 -0,0.003 -0,0.004 -3.9085,3.00767 -6.9022,6.27443 -9.3574,9.70704 v -5.6211 a 23.131112,23.131112 0 0 0 -23.1289,-23.12695 h -323.2793 a 23.131112,23.131112 0 0 0 -16.3418,7.87695 23.131112,23.131112 0 0 0 -16.3418,-7.8789 H 1797.918 c -17.3034,0 -33.1732,2.85762 -46.541,8.03711 a 23.131112,23.131112 0 0 0 -0.334,0.13281 c -7.7128,3.1271 -14.8778,7.37289 -20.9825,13.55859 a 23.131112,23.131112 0 0 0 -22.7539,-21.73047 h -13.5898 a 23.131112,23.131112 0 0 0 -23.1289,23.12891 v 19.48242 c -1.8765,0.0807 -1.7134,0.10352 -4.377,0.10352 h -243.6718 c -2.4939,0 -2.265,-0.0154 -4.0528,-0.0918 v -19.49414 a 23.131112,23.131112 0 0 0 -23.1289,-23.12891 z m -335.4316,21.39844 c -0.08,0.0319 -0.1529,0.0735 -0.2325,0.10547 -0.06,0.0253 -0.1273,0.041 -0.1875,0.0664 z m 710.6269,0 c -0.086,0.0345 -0.1659,0.0786 -0.2519,0.11328 -0.054,0.0227 -0.114,0.0377 -0.168,0.0606 z m -397.9609,35.05078 c 0.3695,3.64899 1.0951,7.21011 2.2031,10.63672 -2.5601,-3.29723 -5.5143,-6.06032 -8.5469,-8.48047 a 23.131112,23.131112 0 0 0 6.3438,-2.15625 z m 392.4199,36.86719 c 0.01,0.004 0.02,0.006 0.029,0.01 0.013,0.005 0.024,0.0123 0.037,0.0176 z m 747.3223,34.53125 c 0.074,0.0118 0.1425,0.0117 0.2168,0.0234 0.2281,0.0281 0.429,0.07 0.6582,0.0976 z" id="path9"/>
            <path style="baseline-shift:baseline;display:inline;overflow:visible;vector-effect:none;stroke:none;enable-background:accumulate;stop-color:#000000;stop-opacity:1" d="m 2772.275,579.921 h -245.94 c -8.732,0 -17.147,-0.324 -25.56,-1.617 -8.09,-0.972 -15.533,-2.59 -22.328,-4.53 -9.708,-2.266 -16.828,-7.12 -21.358,-10.999 -3.883,-3.564 -5.825,-7.448 -5.825,-11.33 V 508.73 c 0.971,-3.56 3.56,-8.091 7.766,-11.326 4.203,-3.236 10.032,-6.15 16.828,-8.09 7.119,-1.942 14.886,-3.56 23.622,-4.53 9.06,-0.972 18.447,-1.618 28.8,-1.618 h 243.995 v 12.943 h -243.994 c -10.354,0 -19.417,0.324 -27.505,1.295 -7.772,0.97 -15.534,2.587 -22.653,4.525 -9.708,2.916 -11.65,6.477 -13.59,11.33 l -0.325,10.028 h 307.743 l 0.324,13.272 h -307.743 v 13.914 c 0,3.56 2.59,7.12 15.529,10.68 6.476,1.622 13.595,2.912 21.684,3.887 8.086,1.29 16.182,1.614 24.27,1.614 h 246.26 z m -359.84,-83.164 H 2257.43 v 83.164 h -13.596 v -83.164 h -154.68 v -13.591 h 323.28 z m -773.083,43.039 h -89.637 v 40.126 h -13.592 v -40.126 h -115.848 c -17.475,0 -39.15,-2.27 -39.15,-28.157 v -28.477 h 14.232 v 27.186 c 0,17.151 16.504,15.529 27.183,15.529 h 243.67 c 11.003,0 27.506,1.622 27.506,-15.529 v -27.186 h 13.59 v 28.477 c 0,25.887 -21.679,28.157 -39.154,28.157 z M 1346.17,497.077 h -258.88 c -12.942,0 -24.592,2.27 -33.006,5.829 -6.472,2.589 -10.354,5.502 -10.354,8.09 0,2.59 3.882,5.497 10.354,8.086 8.414,3.24 20.064,5.505 33.007,5.505 h 201.927 c 9.708,0 19.092,0.967 26.859,2.908 4.206,0.972 7.765,2.265 11.325,3.565 3.56,1.613 6.796,3.235 9.385,4.853 6.147,4.527 9.708,10.032 9.708,16.176 v 0.329 c 0,8.737 -7.443,16.175 -19.093,21.029 -10.032,3.882 -23.622,6.476 -38.184,6.476 h -255.32 v -13.92 h 255.32 c 12.943,0 24.594,-2.264 33.006,-5.496 6.148,-2.913 10.356,-5.829 10.356,-8.09 v -0.328 c 0,-1.29 -1.619,-2.908 -3.884,-4.53 -1.941,-1.295 -4.206,-2.26 -6.472,-3.56 -2.912,-0.967 -5.825,-1.937 -9.384,-2.908 -6.795,-1.618 -14.886,-2.59 -23.622,-2.59 H 1087.29 c -14.562,0 -28.152,-2.264 -38.184,-6.476 -11.65,-4.849 -19.093,-12.292 -19.093,-21.028 0,-9.066 7.443,-16.504 19.093,-21.358 10.032,-3.887 23.622,-6.476 38.185,-6.476 h 258.88 z m 710.3,0 h -258.552 c -12.944,0 -24.594,2.27 -33.007,5.829 -6.471,2.589 -10.355,5.502 -10.355,8.09 0,2.59 3.884,5.497 10.355,8.086 8.413,3.24 20.063,5.505 33.007,5.505 h 201.922 c 9.712,0 19.098,0.967 26.539,2.908 4.203,0.972 7.767,2.265 11.322,3.565 3.564,1.613 6.795,3.235 9.39,4.853 h -0.324 c 6.471,4.527 10.027,10.032 10.027,16.176 v 0.329 c 0,8.737 -7.443,16.175 -19.093,21.029 -10.027,3.882 -23.295,6.476 -37.86,6.476 h -255.317 v -13.92 h 255.316 c 12.948,0 24.274,-2.264 32.364,-5.496 6.467,-2.913 10.678,-5.829 10.678,-8.09 v -0.328 c 0,-1.29 -1.617,-2.908 -3.882,-4.53 -1.942,-1.295 -4.207,-2.26 -6.472,-3.56 -2.913,-0.967 -5.825,-1.937 -9.06,-2.908 -6.797,-1.618 -14.886,-2.59 -23.628,-2.59 h -201.922 c -14.562,0 -28.153,-2.264 -38.185,-6.476 -11.649,-4.849 -19.092,-12.292 -19.092,-21.028 0,-9.066 7.12,-16.504 19.092,-21.358 10.032,-3.887 23.623,-6.476 38.185,-6.476 h 258.552 z m 1078.884,-13.913 c 3.56,0 7.12,2.589 7.12,6.795 v 89.96 h -13.267 v -77.987 l -146.915,74.105 -1.942,0.652 c -8.09,3.23 -10.355,2.588 -16.184,0 l -1.938,-0.976 -145.623,-74.1 v 78.308 h -13.915 v -90.286 c 0,-4.206 3.56,-6.471 6.796,-6.471 1.946,0 2.91,0.324 4.535,1.293 l 151.438,77.994 c 5.826,2.587 6.8,3.878 13.92,0.322 l 133.965,-68.279 19.098,-10.355 c 0.971,-0.651 2.261,-0.975 2.912,-0.975" id="path10"/>
        </g>
    </g>
    <g id="path2883" style="fill-rule:nonzero;stroke:#ffffff;stroke-width:78.6164;stroke-linecap:round;stroke-linejoin:round;stroke-dasharray:none;stroke-opacity:1;paint-order:markers stroke fill" transform="matrix(1.1193594,0,0,1.1193594,112.84397,-79.017585)">
        <path style="baseline-shift:baseline;display:inline;overflow:visible;vector-effect:none;fill:#ffffff;stroke:none;enable-background:accumulate;stop-color:#000000;stop-opacity:1" d="m 276.32617,70.591797 c -207.808396,0 -377.13672,169.330273 -377.13672,377.138673 0,207.81726 169.329729,377.13867 377.13672,377.13867 207.8084,0 377.13867,-169.33027 377.13867,-377.13867 0,-207.8084 -169.33027,-377.138673 -377.13867,-377.138673 z m 0,78.617183 c 165.3116,0 298.52344,133.20989 298.52344,298.52149 0,165.3116 -133.21184,298.52148 -298.52344,298.52148 -165.31301,0 -298.521482,-133.19874 -298.521482,-298.52148 0,-165.3116 133.209882,-298.52149 298.521482,-298.52149 z" id="path11"/>
        <path style="baseline-shift:baseline;display:inline;overflow:visible;vector-effect:none;fill:#231f20;stroke:none;enable-background:accumulate;stop-color:#000000;stop-opacity:1" d="m -61.503,447.73 c 0,-186.56 151.27,-337.83 337.83,-337.83 186.56,0 337.83,151.27 337.83,337.83 0,186.56 -151.27,337.83 -337.83,337.83 -186.56,0 -337.83,-151.26 -337.83,-337.83" id="path12"/>
    </g>
    <path style="baseline-shift:baseline;display:inline;overflow:visible;vector-effect:none;fill:#f0b21a;fill-rule:nonzero;stroke:none;stroke-width:88;stroke-linecap:round;stroke-linejoin:round;stroke-dasharray:none;stroke-opacity:1;paint-order:markers stroke fill;enable-background:accumulate;stop-color:#000000" d="m 568.38967,306.18757 c -6.66445,-1.47196 -12.64653,-7.55568 -12.64653,-7.55568 l 2.5199,-7.55568 7.60739,-5.03711 c 0,0 7.55568,0.62824 10.0729,2.51855 2.5199,1.88892 5.03846,10.07424 5.03846,10.07424 l -5.66676,5.03712 c 0,0 -1.25928,3.77649 -6.92604,2.51856 z m 42.81549,-42.86923 10.12595,-15.11247 h 12.59503 c 0,0 10.70242,15.74043 10.70242,18.26235 0,2.51856 -8.18531,14.53152 -8.18531,14.53152 l -16.42548,-0.62824 -8.81362,-17.05344 z m 0,126.02867 c 8.55325,5.45822 17.62991,5.35189 26.44599,5.247 14.7442,-0.15811 28.90857,-4.77541 39.08691,-16.57995 8.23983,-11.96147 8.45116,-19.41529 13.27672,-32.94946 2.83332,-7.92507 6.2964,-12.43609 6.2964,-12.43609 0,0 2.83332,10.70388 2.51856,23.3476 -0.20988,8.44982 -1.73076,17.36798 -6.92604,25.81803 -10.07424,16.42212 -19.57088,22.7174 -26.49524,23.97667 -6.92749,1.25794 -26.44598,3.77784 -39.04213,-1.88746 -9.86156,-4.46065 -15.16173,-14.53488 -15.16173,-14.53488 z m -55.46202,-216.75275 -60.4969,88.20104 42.86699,93.28965 75.60825,95.81269 57.98058,20.14735 73.14342,-88.25253 -10.07423,-75.61049 -75.65974,-105.8858 -103.36725,-27.70303" id="path14"/>
    <path style="baseline-shift:baseline;display:inline;overflow:visible;vector-effect:none;fill:#f0b21a;fill-rule:nonzero;stroke:none;stroke-width:88;stroke-linecap:round;stroke-linejoin:round;stroke-dasharray:none;stroke-opacity:1;paint-order:markers stroke fill;enable-background:accumulate;stop-color:#000000" d="m 119.6612,447.33879 7.55568,-201.64141 25.18783,-30.27419 98.32788,73.14454 25.18671,-149.37851 5.03712,43.49718 12.64316,-22.72075 2.51856,20.20331 17.63103,-22.72075 2.93832,265.13147 L 175.1221,313.75555 c 0,0 -55.45978,132.33067 -55.45978,133.58436" id="path16"/>
    <path style="baseline-shift:baseline;display:inline;overflow:visible;vector-effect:none;fill:#f0b21a;fill-rule:nonzero;stroke:none;stroke-width:88;stroke-linecap:round;stroke-linejoin:round;stroke-dasharray:none;stroke-opacity:1;paint-order:markers stroke fill;enable-background:accumulate;stop-color:#000000" d="M 338.93218,144.8431 509.56733,96.934519 c 0,0 -34.47403,20.198841 -31.95323,20.198841 2.51721,0 22.6659,2.51856 22.6659,2.51856 l -40.29805,25.1867 45.33517,-2.51721 -120.99156,70.56889 v 5.03992 l 131.12176,-7.55702 -131.12176,93.29301 v 27.70302 l 98.74989,-12.17303 c 0,0 -32.58455,18.52092 -30.64582,17.26276 1.89172,-1.31099 23.92742,-0.89129 23.92742,-0.89129 l -13.85207,8.44691 h 23.92631 L 341.50783,447.32922 338.9361,144.83353" id="path18"/>
    <path style="baseline-shift:baseline;display:inline;overflow:visible;vector-effect:none;fill:#2394d8;fill-rule:nonzero;stroke:none;stroke-width:88;stroke-linecap:round;stroke-linejoin:round;stroke-dasharray:none;stroke-opacity:1;paint-order:markers stroke fill;enable-background:accumulate;stop-color:#000000" d="m 326.33939,525.51485 -41.66144,-91.19421 c 0,0 -23.08679,-20.83128 -64.06542,-19.36044 -9.02629,0.31482 -83.58592,0.89129 -88.36111,115.58505 -4.25065,102.57921 64.11915,151.05755 64.11915,151.05755 0,0 33.10953,24.45129 57.61231,39.30071 24.50277,14.89979 69.83795,36.5191 69.83795,36.5191 l -35.26094,-224.3644 -75.66198,22.66815 15.16508,2.5199 -25.23708,20.2022 22.66591,2.51576 -15.11023,15.11247 40.34843,2.51856 15.11023,57.97834 c 0,0 -30.74656,-9.65448 -56.61608,-35.36281 -21.19507,-21.0932 -38.24627,-55.46425 -39.19213,-83.11355 -0.89199,-27.6493 12.0667,-62.54421 50.42267,-63.01546 38.40969,-0.47153 105.8858,50.4249 105.8858,50.4249" id="path20"/>
    <path style="baseline-shift:baseline;display:inline;overflow:visible;vector-effect:none;fill:#2394d8;fill-rule:nonzero;stroke:none;stroke-width:88;stroke-linecap:round;stroke-linejoin:round;stroke-dasharray:none;stroke-opacity:1;paint-order:markers stroke fill;enable-background:accumulate;stop-color:#000000" d="m 306.19092,588.53478 143.65858,-196.66025 90.7711,73.14342 c 0,0 -11.33464,-2.88795 -12.59168,-2.51722 -1.25928,0.31342 20.14735,30.22159 20.14735,30.22159 l -27.70302,-10.07558 15.11023,20.14735 -93.28965,-32.73902 -7.55568,7.55433 60.4969,100.8498 -123.51012,-5.03711 68.05594,131.06579 -25.18783,-5.03824 11.85961,29.64735 -21.30252,-18.52427 16.99859,31.74503 -115.95444,-153.78879" id="path22"/>
    <path style="baseline-shift:baseline;display:inline;overflow:visible;vector-effect:none;fill:#2394d8;fill-rule:nonzero;stroke:none;stroke-width:88;stroke-linecap:round;stroke-linejoin:round;stroke-dasharray:none;stroke-opacity:1;paint-order:markers stroke fill;enable-background:accumulate;stop-color:#000000" d="m 520.48108,646.5064 7.55568,-12.59279 22.66591,-10.07289 17.68364,22.66591 h 15.11135 l 20.14847,-7.55568 15.11135,32.74126 -37.77838,17.68141 h -17.6814 l -7.55702,-15.11024 h -25.18447 l -10.07423,-27.75675 z m 131.06579,-68.05145 c 0,0 9.18301,-4.09406 10.07558,-2.5199 0.88989,1.52098 12.5928,2.5199 12.5928,2.5199 v 12.59279 l -10.07558,7.55433 -12.5928,-7.55433 z m -52.9401,-12.59503 -10.07703,-15.16173 10.07703,-20.14958 25.23708,-2.51856 7.55702,15.11135 -7.55702,20.2022 -25.23708,2.51721 z m -113.44707,47.85373 -2.51722,90.77333 40.35067,32.79275 71.0435,-14.95352 118.00287,-103.52283 7.55568,-128.6032 H 583.49229 l -98.33013,123.51011" id="path24"/>
    <path style="baseline-shift:baseline;display:inline;overflow:visible;vector-effect:none;fill:#ffffff;fill-rule:nonzero;stroke:none;stroke-width:87.9998;stroke-linecap:round;stroke-linejoin:round;stroke-dasharray:none;stroke-opacity:1;paint-order:markers stroke fill;enable-background:accumulate;stop-color:#000000" d="m 2791.8139,17.988592 c -84.2214,0 -159.7502,30.996945 -216.3557,89.980858 a 44.004323,44.004323 0 0 0 0,0.008 c -56.2488,58.65966 -85.5982,134.17596 -85.5982,217.77615 0,46.94776 9.1964,91.1992 28.1744,130.91775 a 44.004323,44.004323 0 0 0 0.095,0.20878 c 14.9599,30.89256 35.8119,58.66779 61.6219,82.74069 a 44.004323,44.004323 0 0 0 0.041,0.0329 c 25.8975,24.1079 55.8781,43.56359 89.0975,58.11429 a 44.004323,44.004323 0 0 0 0.049,0.0164 c 36.46,15.91801 78.8302,22.68384 126.9602,22.68384 37.3884,0 73.7715,-3.87323 108.9887,-11.68708 a 44.004323,44.004323 0 0 0 0.041,-0.008 c 35.1252,-7.81968 69.0055,-19.43636 101.5234,-34.74819 a 44.004323,44.004323 0 0 0 25.2605,-39.81312 V 432.04629 c 0,-6.30747 0.2302,-10.24632 0.4496,-13.90252 5.4282,-0.83033 12.3079,-1.6254 19.2644,-2.12707 a 44.004323,44.004323 0 0 0 40.8406,-43.88276 v -16.72792 a 44.004323,44.004323 0 0 0 -44.0034,-43.99511 H 2806.897 a 44.004323,44.004323 0 0 0 -43.9952,43.99511 v 16.72792 a 44.004323,44.004323 0 0 0 11.9758,30.1729 l 0.09,0.0962 a 44.004323,44.004323 0 0 0 32.0272,13.83023 h 11.9602 c 2.3319,0 7.7247,0.43358 12.1443,1.05953 0.5918,4.29558 1.3406,8.5721 1.3406,14.84965 v 69.53654 c -0.4496,0.22234 -1.7417,0.76499 -1.2362,0.65817 0,6.2e-4 0,-6.1e-4 0,0 -8.919,1.92899 -17.1598,2.80942 -24.9235,2.80942 -24.3605,0 -41.7447,-5.64177 -57.2956,-16.75204 -13.8038,-9.8933 -25.5244,-26.09148 -34.0176,-54.94371 v -0.008 c -8.951,-30.42791 -13.8543,-67.58458 -13.8543,-111.48476 0,-35.28714 4.3095,-69.42299 12.9231,-102.74354 7.9088,-30.59493 20.0748,-50.72864 35.6072,-64.72042 14.7951,-13.30163 31.0918,-19.69786 56.8862,-19.69786 28.7587,0 30.3315,0.5595 52.2545,23.34205 a 44.004323,44.004323 0 0 0 0,0.008 c 25.4262,26.41261 45.8964,51.85672 58.4192,90.60698 a 44.004323,44.004323 0 0 0 41.868,30.46987 h 22.2666 A 44.004323,44.004323 0 0 0 3025.3331,235.22 V 61.992787 a 44.004323,44.004323 0 0 0 -43.9952,-43.995113 h -12.6667 a 44.004323,44.004323 0 0 0 -41.7874,30.237095 c -0.086,0.258503 -0.148,0.263846 -0.2343,0.513718 -4.4808,-1.67961 -7.873,-2.85175 -14.0466,-5.337856 v -0.0082 c -23.3931,-9.428117 -40.0347,-15.572099 -56.493,-18.774779 -19.8356,-4.116276 -38.9973,-6.638178 -64.2467,-6.638178 z M 2637.2728,170.98815 c -3.1514,8.50683 -6.1342,17.14062 -8.4764,26.1996 -10.488,40.5726 -15.7242,82.2836 -15.7242,124.76921 0,50.37384 5.5008,95.7654 17.4343,136.32781 a 44.004323,44.004323 0 0 0 0,0.008 c 1.1561,3.92875 2.8189,7.49531 4.1418,11.30985 -15.6832,-15.70456 -28.2685,-32.4047 -37.2766,-50.97847 -12.8388,-26.91421 -19.5295,-57.26079 -19.5295,-92.87055 0,-63.18694 19.1888,-111.91019 59.4306,-154.76547 z m 241.9051,170.12082 0.1603,0.0962 c -0.041,-0.0164 -0.049,-0.0123 -0.082,-0.0329 -0.041,-0.0164 -0.053,-0.0477 -0.078,-0.0641 z m 71.3825,39.23521 c -0.1192,0.26343 -0.094,0.37645 -0.2096,0.63409 -0.058,0.1385 -0.1849,0.26303 -0.2424,0.40152 z m -31.0959,19.06374 h 25.8786 c -0.2301,2.23615 -0.5207,4.48052 -0.7307,6.80675 -0.6958,7.71941 -0.9309,16.05204 -0.9309,25.83039 v 72.60273 c -7.9248,3.09406 -15.8952,6.11193 -23.9922,8.68504 0.1356,-1.76629 0.7143,-3.34648 0.7143,-5.16126 v -76.03022 c 0,-12.90545 0.577,-22.37224 -0.9391,-32.73343 z" id="path25"/>
    <path style="baseline-shift:baseline;display:inline;overflow:visible;vector-effect:none;fill:#ffffff;fill-rule:nonzero;stroke:none;stroke-width:87.9998;stroke-linecap:round;stroke-linejoin:round;stroke-dasharray:none;stroke-opacity:1;paint-order:markers stroke fill;enable-background:accumulate;stop-color:#000000" d="m 2999.0825,31.36128 a 44.004323,44.004323 0 0 0 -43.9948,44.003127 v 19.754048 a 44.004323,44.004323 0 0 0 43.9948,44.003165 h 13.0197 c 6.3775,0 6.2903,0.54557 7.5533,0.9953 0.4282,6.13038 1.0677,15.0449 1.0677,25.05179 v 305.18843 c 0,11.08935 -0.337,19.53159 -0.7949,25.05175 -1.657,0.47036 -2.0174,1.01942 -7.8261,1.01942 h -13.0197 a 44.004323,44.004323 0 0 0 -43.9948,44.00313 v 22.95677 a 44.004323,44.004323 0 0 0 43.9948,44.00312 h 419.6112 a 44.004323,44.004323 0 0 0 43.4252,-36.94752 l 25.2124,-155.1829 a 44.004323,44.004323 0 0 0 -43.4252,-51.05873 h -23.0289 a 44.004323,44.004323 0 0 0 -42.3899,32.21171 c -6.7458,24.24698 -15.7876,41.85833 -26.3603,55.38522 a 44.004323,44.004323 0 0 0 5.1211,-12.36137 v -202.4208 a 44.004323,44.004323 0 0 0 37.8627,26.59291 h 16.5914 a 44.004323,44.004323 0 0 0 44.0034,-43.99512 V 75.364407 A 44.004323,44.004323 0 0 0 3411.7022,31.36128 Z m 326.0262,36.586358 0.3781,0.112196 c -0.074,-0.02466 -0.1562,-0.03288 -0.2342,-0.0563 -0.049,-0.01644 -0.095,-0.0411 -0.1439,-0.0563 z m -250.2767,1.195976 0.7866,0.561884 c -0.1356,-0.09946 -0.2876,-0.150417 -0.4253,-0.24905 -0.1315,-0.09206 -0.2302,-0.221515 -0.3617,-0.313163 z m 31.5456,50.215906 h 30.7988 c -0.5856,3.4759 -1.7212,6.89323 -1.7018,10.38675 v 169.15759 a 44.004323,44.004323 0 0 0 6.285,15.18676 44.004323,44.004323 0 0 0 -6.285,15.17876 v 137.22686 c 0,14.03415 0.2835,25.61294 0.9715,35.47061 0.4303,6.15754 0.9407,11.47879 2.119,17.41823 h -33.0304 c 1.1108,-5.34122 1.5604,-10.17999 2.0306,-15.54797 0.8413,-9.60583 1.1561,-20.47498 1.1561,-33.47997 V 165.16871 c 0,-20.44814 0.7031,-30.31082 -2.3438,-45.80919 z m 93.5044,27.74877 a 44.004323,44.004323 0 0 0 3.3873,0.21658 c -2.0565,0.0567 -3.3873,-0.21658 -3.3873,-0.21658 z m 23.5912,0.36125 h 12.7463 c 16.5158,0 30.0291,0.86805 40.6963,1.78995 a 44.004323,44.004323 0 0 0 -27.227,33.17495 c -3.3745,33.11872 -10.1971,49.71809 -18.7429,61.5578 a 44.004323,44.004323 0 0 0 -0.041,0.0329 c -1.994,2.76787 -4.3041,4.92947 -7.4489,6.69436 z m 0,230.66726 c 1.2802,0.71361 6.354,4.4319 12.6662,16.50316 a 44.004323,44.004323 0 0 0 0.041,0.0801 c 6.7996,12.94055 11.0581,25.65087 13.5169,49.26877 a 44.004323,44.004323 0 0 0 43.7626,39.44386 h 14.8493 c -15.0581,5.39174 -33.1804,8.72519 -56.308,8.72519 h -26.0311 c -0.9448,0 -1.0126,-0.15453 -1.8382,-0.20056 -0.3576,-6.46445 -0.658,-14.37542 -0.658,-25.46112 z m -122.0643,154.34007 -0.6744,1.54115 c 0.1767,-0.38426 0.1397,-0.56517 0.3041,-0.93916 0.086,-0.20713 0.2836,-0.39494 0.3699,-0.60199 z m -32.9342,38.43249 -1.3246,0.7465 c 0.2055,-0.11097 0.374,-0.27207 0.5782,-0.38509 0.2466,-0.13973 0.5018,-0.21904 0.7464,-0.36124 z" id="path27"/>
    <g id="path3" style="fill:#000000;fill-rule:nonzero;stroke:#ffffff;stroke-width:21.4125;stroke-linecap:round;stroke-linejoin:round;stroke-dasharray:none;stroke-opacity:1;paint-order:markers stroke fill" transform="matrix(4.1097416,0,0,4.1097416,-1886.3646,-1401.9432)">
        <path style="baseline-shift:baseline;display:inline;overflow:visible;vector-effect:none;fill:#ffffff;stroke:none;enable-background:accumulate;stop-color:#000000;stop-opacity:1" d="m 1355.6094,346.90234 a 10.70625,10.70625 0 0 0 -0.014,0.006 c -19.3402,-0.57965 -37.0273,6.30553 -50.4473,19.90235 0,10e-4 0,0.003 0,0.004 0,0.002 0,0.004 -0.01,0.006 -13.6099,13.766 -20.6641,31.86667 -20.6641,51.99024 0,17.86905 5.3075,34.24775 15.7891,47.66211 13.3499,17.09503 33.4782,26.02343 56.8554,26.02343 23.4359,0 43.6508,-9.46208 56.9258,-27.27929 9.9547,-13.33494 15.041,-29.27618 15.041,-46.4961 0,-20.09948 -6.949,-38.14773 -20.3593,-51.90429 a 10.707321,10.707321 0 0 0 0,-0.002 c -13.4313,-13.76859 -31.7714,-20.49233 -52.2715,-19.90625 a 10.70625,10.70625 0 0 0 -0.012,-0.006 c -0.1317,-0.005 -0.2591,0.009 -0.3906,0.004 -0.149,0.005 -0.2922,-0.01 -0.4414,-0.004 z m 1.4179,27.0586 c 3.7514,0 6.3118,0.86037 8.9454,2.78906 a 10.707321,10.707321 0 0 0 0,0.002 c 1.9695,1.44196 4.7593,5.02182 7.1699,11.65039 2.0667,5.69852 3.6367,16.69363 3.6367,31.89063 0,12.55083 -1.3905,22.31358 -3.6289,28.92969 a 10.70625,10.70625 0 0 0 0,0.0273 c -2.3249,6.86903 -5.2204,10.80383 -7.9804,12.87109 -1.8818,1.40916 -4.2072,2.27735 -8.3028,2.27735 -5.9353,0 -8.5394,-1.37812 -11.6484,-5.74414 -4.914,-6.90121 -8.4551,-19.86726 -8.4551,-39.08008 0,-16.24758 2.3189,-28.00999 5.6582,-34.81836 4.3204,-8.72563 7.7591,-10.79492 14.6035,-10.79492 z m -36.2578,7.57031 c -3.7704,10.47021 -5.416,22.97006 -5.416,38.04297 0,14.76455 1.6508,27.41494 5.5195,38.00976 -1.2922,-1.32984 -2.5361,-2.7584 -3.7343,-4.29296 a 10.707321,10.707321 0 0 0 0,-0.002 c -7.5524,-9.66565 -11.25,-20.66756 -11.25,-34.47851 0,-15.43161 4.6407,-26.98862 14.4844,-36.94141 a 10.707321,10.707321 0 0 0 0.01,-0.01 c 0.1256,-0.12731 0.2627,-0.20268 0.3886,-0.32812 z m 72.7305,0.36133 c 9.5916,9.89589 14.1738,21.43184 14.1738,36.82812 0,13.17615 -3.5322,23.97016 -10.7929,33.69336 a 10.707321,10.707321 0 0 0 -0.01,0.01 c -1.219,1.63614 -2.4814,3.15114 -3.7891,4.5625 0.1121,-0.31739 0.2589,-0.60102 0.3672,-0.92188 a 10.70625,10.70625 0 0 0 0,-0.041 c 3.3434,-9.91194 4.7402,-21.70865 4.7402,-35.73047 0,-16.07817 -1.2574,-28.49495 -4.6914,-38.40039 z" id="path29"/>
        <path style="baseline-shift:baseline;display:inline;overflow:visible;vector-effect:none;stroke:none;enable-background:accumulate;stop-color:#000000;stop-opacity:1" d="m 1356,357.6 c -17.11,-0.7064 -31.53,4.871 -43.24,16.74 -11.73,11.86 -17.58,26.69 -17.58,44.47 0,15.84 4.503,29.53 13.52,41.07 11.4,14.6 27.54,21.91 48.42,21.91 20.81,0 36.93,-7.656 48.34,-22.97 8.61,-11.53 12.92,-24.9 12.92,-40.1 0,-17.78 -5.778,-32.59 -17.32,-44.43 -11.55,-11.84 -26.56,-17.4 -45.04,-16.69 m 27.29,95.04 c -2.792,8.27 -6.7,14.29 -11.72,18.05 -3.934,2.946 -8.841,4.415 -14.72,4.415 -8.728,0 -15.51,-3.415 -20.37,-10.24 -6.956,-9.769 -10.44,-24.86 -10.44,-45.29 0,-17.19 2.251,-30.37 6.758,-39.55 5.531,-11.18 13.6,-16.77 24.21,-16.77 5.76,0 10.85,1.621 15.27,4.858 4.42,3.236 8.055,8.785 10.91,16.64 2.851,7.861 4.278,19.7 4.278,35.54 0,13.3 -1.396,24.09 -4.194,32.36" id="path30"/>
    </g>
    <path style="baseline-shift:baseline;display:inline;overflow:visible;vector-effect:none;fill:#ffffff;fill-rule:nonzero;stroke:none;stroke-width:87.9998;stroke-linecap:round;stroke-linejoin:round;stroke-dasharray:none;stroke-opacity:1;paint-order:markers stroke fill;enable-background:accumulate;stop-color:#000000" d="m 2124.5986,20.91033 c -80.4231,-3.018769 -153.9958,25.387888 -209.7012,81.8497 -55.9356,56.57515 -84.9319,130.95387 -84.9319,213.65839 0,73.43718 21.8204,140.74945 64.8969,195.87896 l -0.016,-0.008 c 54.8474,70.24321 137.5466,106.9347 233.589,106.95763 0.029,0 0.058,0.008 0.088,0.008 0,0 0,-0.008 0.01,-0.008 96.2685,-0.0247 179.298,-38.8978 233.838,-112.07878 v -0.0247 c 40.8981,-54.8265 61.8228,-120.31938 61.8228,-191.09493 0,-82.60371 -28.5668,-156.7693 -83.6796,-213.30524 a 44.004323,44.004323 0 0 0 0,-0.0164 C 2285.0707,45.892463 2209.2898,18.223135 2124.5907,20.909139 Z m 2.7372,111.46071 c 15.4323,0 25.9357,3.5343 36.7469,11.45431 a 44.004323,44.004323 0 0 0 0.01,0 c 8.1041,5.93508 19.5727,20.65843 29.4826,47.9202 8.489,23.42688 14.9299,68.60013 14.9299,130.99 0,51.58067 -5.7145,91.69503 -14.9139,118.88549 a 44.004323,44.004323 0 0 0 -0.01,0.0329 c -9.5535,28.30108 -21.4561,44.49987 -32.8619,53.08147 -7.7369,5.78314 -17.3033,9.35126 -34.1141,9.35126 -24.39,0 -35.0967,-5.66014 -47.872,-23.59888 v -0.008 c -20.1934,-28.36346 -34.7482,-81.64601 -34.7482,-160.60097 0,-66.7189 9.5159,-115.03122 23.2216,-143.02221 a 43.999921,43.999921 0 0 0 0.064,-0.0563 c 17.774,-35.92711 31.9151,-44.42852 60.0649,-44.42852 z m 149.4677,31.1361 c 0.2343,0.23919 0.4875,0.43334 0.7225,0.67425 39.7507,40.78088 58.676,88.33343 58.676,151.86781 0,54.15053 -14.5041,98.47352 -44.3642,138.49509 a 44.004323,44.004323 0 0 0 0,0.0164 c -5.3492,7.17914 -10.9368,13.72341 -16.704,19.85038 0.5613,-1.57485 1.2912,-2.98749 1.8304,-4.58331 v -0.0329 c 13.7915,-40.77838 19.5534,-89.3356 19.5534,-147.05971 0,-66.78371 -5.226,-118.29969 -19.7058,-159.2284 z m -298.8231,0.68226 c -15.316,42.8958 -21.9936,94.07014 -21.9936,155.6886 0,59.63186 6.548,110.87816 21.8571,153.9628 -4.6819,-4.94233 -9.2506,-10.10035 -13.6296,-15.70854 a 44.004323,44.004323 0 0 0 -0.016,-0.0164 c -31.0386,-39.72332 -46.2346,-84.93837 -46.2346,-141.69781 0,-63.41993 19.08,-110.91625 59.535,-151.81965 a 44.004323,44.004323 0 0 0 0.041,-0.0329 c 0.1435,-0.14549 0.298,-0.23262 0.4415,-0.37728 z" id="path31"/>
    <g id="path5" style="fill:#000000;fill-rule:nonzero;stroke:#ffffff;stroke-width:21.4125;stroke-linecap:round;stroke-linejoin:round;stroke-dasharray:none;stroke-opacity:1;paint-order:markers stroke fill" transform="matrix(4.1097416,0,0,4.1097416,-1886.3647,-1401.9432)">
        <path style="baseline-shift:baseline;display:inline;overflow:visible;vector-effect:none;fill:#ffffff;stroke:none;enable-background:accumulate;stop-color:#000000;stop-opacity:1" d="m 808.33008,347.77539 a 10.707321,10.707321 0 0 0 -10.70703,10.70508 v 4.83984 a 10.707321,10.707321 0 0 0 10.70703,10.70508 h 3.16406 c 1.54341,0 1.52238,0.13554 1.83789,0.24805 0.10493,1.49014 0.26172,3.65726 0.26172,6.08984 v 74.25977 c 0,2.69463 -0.084,4.74409 -0.19531,6.08593 -0.40389,0.11447 -0.48833,0.24805 -1.9043,0.24805 h -3.16406 a 10.707321,10.707321 0 0 0 -10.70703,10.70703 v 5.58789 a 10.707321,10.707321 0 0 0 10.70703,10.70508 h 102.09961 a 10.707321,10.707321 0 0 0 10.5664,-8.98828 l 6.13868,-37.75977 -0.11915,0.0762 a 10.707321,10.707321 0 0 0 -7.55859,-12.10352 l -0.0332,-0.008 a 10.707321,10.707321 0 0 0 -2.93555,0.44336 l 0.11133,-0.82422 h -5.60547 a 10.707321,10.707321 0 0 0 -10.31445,7.83789 c -1.65821,5.96228 -3.8844,10.28473 -6.49414,13.58789 a 10.707321,10.707321 0 0 0 1.29101,-3.11719 v -49.26562 a 10.707321,10.707321 0 0 0 9.2168,6.48047 h 4.03711 a 10.707321,10.707321 0 0 0 10.70508,-10.70508 V 358.4803 a 10.707321,10.707321 0 0 0 -10.70508,-10.70508 z m 79.32617,8.92969 0.0937,0.0293 c -0.0153,-0.005 -0.0316,-0.007 -0.0469,-0.0117 -0.0161,-0.005 -0.0308,-0.0126 -0.0469,-0.0176 z M 826.76367,357 l 0.17774,0.12695 c -0.0306,-0.0224 -0.065,-0.0344 -0.0957,-0.0566 -0.0293,-0.0208 -0.0526,-0.0496 -0.082,-0.0703 z m 7.66406,12.1875 h 7.5 c -0.14589,0.85529 -0.42461,1.69678 -0.41992,2.55664 v 41.16211 a 10.707321,10.707321 0 0 0 1.53125,3.69727 10.707321,10.707321 0 0 0 -1.52929,3.6914 v 33.39063 c 0,3.41485 0.0689,6.23123 0.23632,8.6289 0.10445,1.49596 0.22717,2.78986 0.51172,4.23047 h -8.02539 c 0.2702,-1.29946 0.37791,-2.47309 0.49219,-3.77734 0.20477,-2.33704 0.28125,-4.98104 0.28125,-8.14453 v -74.25977 c 0,-4.98353 0.17617,-7.37914 -0.57813,-11.17578 z m 22.75782,6.78125 a 10.707321,10.707321 0 0 0 0.81836,0.0527 c -0.49861,0.0135 -0.81836,-0.0527 -0.81836,-0.0527 z m 5.73437,0.0898 h 3.10156 c 4.02027,0 7.31164,0.20922 9.91016,0.4336 a 10.707321,10.707321 0 0 0 -6.62891,8.06836 c -0.8242,8.05616 -2.48502,12.10635 -4.5625,14.98632 a 10.707321,10.707321 0 0 0 -0.006,0.01 c -0.48356,0.67187 -1.04805,1.19593 -1.81445,1.625 z m 0.002,56.125 c 0.30516,0.16848 1.54368,1.0715 3.08594,4.01953 a 10.707321,10.707321 0 0 0 0.008,0.0137 c 1.65504,3.15383 2.68999,6.24863 3.28907,11.99414 a 10.707321,10.707321 0 0 0 10.64843,9.5957 h 3.60352 c -3.66376,1.31227 -8.07077,2.125 -13.69141,2.125 h -6.33398 c -0.23053,0 -0.24789,-0.0376 -0.44922,-0.0488 -0.0871,-1.57326 -0.16016,-3.49899 -0.16016,-6.19726 z m -29.6914,37.53321 -0.17969,0.41211 c 0.0305,-0.0659 0.0235,-0.0956 0.0527,-0.16016 0.0363,-0.0846 0.0921,-0.16741 0.12695,-0.25195 z m -8.01563,9.36328 -0.31836,0.17969 c 0.0499,-0.0268 0.0891,-0.0664 0.13868,-0.0937 0.0589,-0.0335 0.12097,-0.0518 0.17968,-0.0859 z" id="path33"/>
        <path style="baseline-shift:baseline;display:inline;overflow:visible;vector-effect:none;stroke:none;enable-background:accumulate;stop-color:#000000;stop-opacity:1" d="m 916.6,439.5 h -5.605 c -2.923,10.51 -7.736,18.33 -14.43,23.45 -6.694,5.126 -15.6,7.687 -26.7,7.687 h -6.334 c -3.392,0 -5.842,-0.4652 -7.367,-1.396 -1.518,-0.9338 -2.558,-2.128 -3.114,-3.586 -0.5536,-1.458 -0.8339,-5.447 -0.8339,-11.97 v -33.39 c 5.705,0 12.39,0.742 15.39,2.236 2.997,1.484 5.629,4.39 7.889,8.71 2.267,4.32 3.753,9.089 4.459,15.86 h 4.816 v -61.45 h -4.816 c -0.9442,9.229 -3.119,15.43 -6.531,20.16 -3.405,4.731 -8.908,7.095 -16.49,7.095 h -4.72 v -41.22 c -0.0391,-7.165 6.352,-6.334 6.352,-6.334 h 7.456 c 9.027,0 15.18,0.5261 18.46,1.578 5.626,1.747 9.975,4.491 13.05,8.221 3.077,3.735 5.463,9.889 7.163,18.46 h 4.036 v -35.13 h -100.4 v 4.839 h 3.164 c 3.858,0 6.899,0.8167 9.121,2.444 1.578,1.107 2.659,2.685 3.241,4.724 0.2952,1.22 0.4434,4.513 0.4434,9.875 v 74.26 c 0,5.942 -0.3205,9.615 -0.966,11.01 -0.8167,1.979 -1.991,3.382 -3.504,4.195 -2.108,1.227 -4.884,1.836 -8.336,1.836 h -3.164 v 5.587 h 102.1 l 6.138,-37.76 z" id="path34"/>
    </g>
    <g id="path6" style="fill:#000000;fill-rule:nonzero;stroke:#ffffff;stroke-width:21.4125;stroke-linecap:round;stroke-linejoin:round;stroke-dasharray:none;stroke-opacity:1;paint-order:markers stroke fill" transform="matrix(4.1097416,0,0,4.1097416,-1886.3647,-1401.9432)">
        <path style="baseline-shift:baseline;display:inline;overflow:visible;vector-effect:none;fill:#ffffff;stroke:none;enable-background:accumulate;stop-color:#000000;stop-opacity:1" d="m 684.75781,347.7832 a 10.707321,10.707321 0 0 0 -10.70703,10.70703 v 3.98829 a 10.707321,10.707321 0 0 0 8.77344,10 l 0.0996,0.0996 c -0.22609,-0.0875 -0.24845,-0.0644 -0.41992,-0.16992 -0.20974,-0.129 0.68275,0.42379 0.73632,0.48828 l 6.15235,6.19336 -0.0117,75.125 a 10.707321,10.707321 0 0 0 0,0.002 c 0,4.87485 -1.24232,6.47215 -0.79102,5.99609 0.60484,-0.63869 -0.68446,0.63054 -5.52734,0.67578 a 10.707321,10.707321 0 0 0 -10.60547,10.70508 v 4.80859 a 10.707321,10.707321 0 0 0 10.70703,10.70508 h 40.71875 a 10.707321,10.707321 0 0 0 10.70703,-10.70508 v -4.80859 l -0.42187,0.29687 A 10.707321,10.707321 0 0 0 727.5,461.51758 l -0.0156,-0.006 a 10.707321,10.707321 0 0 0 -3.67578,-0.0879 l 0.0918,-0.5293 h -2.71094 c -1.54925,0 -2.33876,-0.29633 -3.42187,-1.0957 -0.0165,-0.20981 -0.75391,-1.67287 -0.75391,-5.57813 v -41.26367 l 58.63281,73.0918 a 10.707321,10.707321 0 0 0 8.33789,4.00781 l 5.03711,0.006 a 10.707321,10.707321 0 0 0 10.71875,-10.70703 v -98.7793 c 0,-4.63547 -0.0358,-4.01654 0.53125,-5.32617 0.9378,-0.26364 2.7524,-0.798 5.1875,-1.12305 A 10.707321,10.707321 0 0 0 814.75,363.51562 v -5.02734 A 10.707321,10.707321 0 0 0 804.04297,347.7832 h -38.53906 a 10.707321,10.707321 0 0 0 -10.70704,10.70508 v 5.02734 a 10.707321,10.707321 0 0 0 10.90235,10.70313 c 4.38269,-0.08 4.88026,0.72409 4.97851,0.85156 0.32911,0.40265 0.17699,0.0928 0.28125,0.48047 0.11279,0.4194 0.3711,1.94999 0.3711,5.0293 v 21.76953 l -41.49219,-50.64453 a 10.707321,10.707321 0 0 0 -8.28125,-3.92188 z m 23.78906,21.41211 h 7.94141 l 57.26758,69.90039 a 10.707321,10.707321 0 0 0 4.57226,2.35157 v 13.72656 L 714.6582,375.80078 a 10.707321,10.707321 0 0 0 -4.32422,-2.27148 10.707321,10.707321 0 0 0 -1.78711,-4.33399 z m -25.5664,3.35156 a 10.707321,10.707321 0 0 0 1.42187,0.63086 c 0.37068,0.0123 -0.57664,-0.28143 -1.25976,-0.51171 z" id="path35"/>
        <path style="baseline-shift:baseline;display:inline;overflow:visible;vector-effect:none;stroke:none;enable-background:accumulate;stop-color:#000000;stop-opacity:1" d="m 723.9,471.6 h -2.71 c -3.888,0 -7.341,-1.193 -10.36,-3.58 -3.014,-2.388 -4.523,-6.986 -4.523,-13.8 V 382.5 l 77.69,96.85 5.037,0.006 v -98.78 c 0,-5.616 0.4664,-7.246 1.393,-9.557 0.9269,-2.311 2.223,-3.979 3.878,-5.003 1.656,-1.023 4.906,-1.856 9.738,-2.501 v -5.026 h -38.54 v 5.026 c 6.354,-0.116 10.89,1.521 13.58,4.915 1.97,2.515 2.954,5.008 2.954,12.15 v 51.73 l -60.48,-73.82 h -36.8 v 3.988 c 3.498,0.116 3.622,1.289 5.485,2.277 l 9.858,9.921 -0.0138,79.54 c 0,6.289 -1.242,10.74 -3.723,13.36 -2.483,2.621 -6.885,3.959 -13.2,4.018 v 4.808 h 40.72 v -4.808 z" id="path36"/>
    </g>
    <g id="path7" style="fill:#000000;fill-rule:nonzero;stroke:#ffffff;stroke-width:21.4125;stroke-linecap:round;stroke-linejoin:round;stroke-dasharray:none;stroke-opacity:1;paint-order:markers stroke fill" transform="matrix(3.7376345,0,0,3.7376345,543.3588,283.97308)">
        <path style="baseline-shift:baseline;display:inline;overflow:visible;vector-effect:none;fill:#ffffff;stroke:none;enable-background:accumulate;stop-color:#000000;stop-opacity:1" d="m 512.18945,-17.833984 c -15.03554,0 -27.48242,12.4410259 -27.48242,27.4824215 0,15.0355395 12.44103,27.4824215 27.48242,27.4824215 15.03554,0 27.48242,-12.441026 27.48242,-27.4824215 0,-15.0355392 -12.44102,-27.4824215 -27.48242,-27.4824215 z m 0,23.5449215 c 2.31661,0 3.9375,1.6250392 3.9375,3.9375 0,2.3166045 -1.62504,3.9375005 -3.9375,3.9375005 -2.3166,0 -3.9375,-1.62504 -3.9375,-3.9375005 0,-2.3166044 1.62504,-3.9375 3.9375,-3.9375 z" id="path37"/>
        <path style="baseline-shift:baseline;display:inline;overflow:visible;vector-effect:none;stroke:none;enable-background:accumulate;stop-color:#000000;stop-opacity:1" d="m 527.9,9.648 c 0,8.679 -7.036,15.71 -15.71,15.71 -8.679,0 -15.71,-7.036 -15.71,-15.71 0,-8.679 7.036,-15.71 15.71,-15.71 8.679,0 15.71,7.036 15.71,15.71 z" id="path38"/>
    </g>
    <path style="baseline-shift:baseline;display:inline;overflow:visible;vector-effect:none;fill:#000000;fill-rule:nonzero;stroke:none;stroke-width:87.9998;stroke-linecap:round;stroke-linejoin:round;stroke-dasharray:none;stroke-opacity:1;paint-order:markers stroke fill;enable-background:accumulate;stop-color:#000000" d="m 2806.9603,372.23225 h 11.9635 c 11.1579,0 30.2723,2.29899 38.1384,6.91669 7.8742,4.57826 13.0566,9.71543 15.5594,15.39921 2.5115,5.69199 3.7814,18.23081 3.7814,37.59591 v 76.03022 c 0,22.94469 -24.2433,34.63279 -35.9314,37.1685 -11.7169,2.53489 -23.1132,3.8048 -34.2301,3.8048 -32.0108,0 -59.6323,-8.32633 -82.9346,-24.99134 -23.2693,-16.67733 -40.1275,-42.74131 -50.5909,-78.29057 -10.4428,-35.49584 -15.6417,-76.76998 -15.6417,-123.90871 0,-38.88638 4.7714,-76.81107 14.3225,-113.75765 9.5551,-36.96302 25.8215,-65.75587 48.7826,-86.42787 22.9611,-20.64323 51.7417,-30.975118 86.3046,-30.975118 36.1822,0 57.3309,9.156504 83.962,36.831508 27.2229,28.27913 53.3445,60.4132 68.5916,107.59303 h 22.2625 V 61.995253 h -12.6621 c -4.5701,13.874488 -9.5593,23.289906 -15.0129,28.270912 -5.4701,4.993336 -11.3922,7.47562 -17.7459,7.47562 -4.0974,0 -17.3719,-4.508386 -39.7617,-13.525159 -22.4022,-9.029103 -38.6152,-14.511498 -48.6183,-16.443076 -18.424,-3.842609 -32.7382,-5.782407 -55.687,-5.782407 -74.1397,0 -135.7037,25.480398 -184.6096,76.441197 -48.9059,51.00189 -73.3589,113.42887 -73.3589,187.32202 0,41.3029 7.9483,78.61936 23.8735,111.94936 12.5142,25.84206 29.8655,49.07031 52.0293,69.74232 22.1803,20.64734 47.7963,37.32467 76.77,50.01555 29.0025,12.66211 65.4682,19.00345 109.3602,19.00345 34.3575,0 67.482,-3.55 99.4558,-10.64424 31.9738,-7.11807 62.7146,-17.65545 92.3459,-31.60802 V 432.04461 c 0,-17.91026 1.0052,-29.17095 3.0539,-33.75742 3.6302,-8.72087 8.7908,-14.93891 15.4979,-18.70344 6.6947,-3.76698 24.9625,-6.22214 42.0015,-7.45096 v -16.72665 h -241.3651 v 16.72665 z" id="path26"/>
    <path style="baseline-shift:baseline;display:inline;overflow:visible;vector-effect:none;fill:#000000;fill-rule:nonzero;stroke:none;stroke-width:87.9998;stroke-linecap:round;stroke-linejoin:round;stroke-dasharray:none;stroke-opacity:1;paint-order:markers stroke fill;enable-background:accumulate;stop-color:#000000" d="m 3361.7754,504.56593 c -27.5106,21.07064 -64.1119,31.59158 -109.7712,31.59158 h -26.0311 c -13.9443,0 -24.0173,-1.9024 -30.2764,-5.7372 -6.2345,-3.83767 -10.5169,-8.74142 -12.7896,-14.73342 -2.28,-5.98378 -3.432,-22.38576 -3.432,-49.19361 V 329.26901 c 23.4502,0 50.9197,3.04943 63.2489,9.18527 12.3046,6.10297 23.1255,18.04588 32.4094,35.79996 9.3292,17.75409 15.428,37.35344 18.3254,65.1805 h 19.7925 V 186.89112 h -19.7925 c -3.8661,37.94525 -12.8019,63.41331 -26.8325,82.85239 -14.006,19.44319 -36.6137,29.16273 -67.7697,29.16273 H 3179.471 V 129.50269 c -0.1644,-29.44219 26.0845,-26.0311 26.0845,-26.0311 h 30.6669 c 37.0904,0 62.3448,2.16665 75.8247,6.48928 23.105,7.18383 40.9783,18.46096 53.6322,33.78618 12.6498,15.354 22.4433,40.62891 29.4339,75.86583 h 16.5911 V 75.360955 h -412.6181 v 19.759637 h 13.0156 c 15.8471,0 28.3572,3.351494 37.4685,10.044208 6.4934,4.55359 10.9483,11.04288 13.3402,19.41853 1.2037,5.00977 1.8128,18.55137 1.8128,40.58781 v 305.18941 c 0,24.4283 -1.3172,39.51516 -3.97,45.28935 -3.3659,8.13318 -8.1743,13.88682 -14.4129,17.23626 -8.6633,5.04265 -20.072,7.54548 -34.2382,7.54548 h -13.0156 v 22.95702 h 419.6046 l 25.2133,-155.18384 h -23.031 c -12.0169,43.19338 -31.7888,75.33156 -59.3036,96.37344" id="path28"/>
    <path style="baseline-shift:baseline;display:inline;overflow:visible;vector-effect:none;fill:#000000;fill-rule:nonzero;stroke:none;stroke-width:87.9998;stroke-linecap:round;stroke-linejoin:round;stroke-dasharray:none;stroke-opacity:1;paint-order:markers stroke fill;enable-background:accumulate;stop-color:#000000" d="m 2128.4419,575.25348 c 85.5237,0 151.7727,-31.46829 198.6649,-94.40076 35.3849,-47.42642 53.0978,-102.33257 53.0978,-164.80064 0,-73.0712 -23.746,-133.93648 -71.1807,-182.59582 -47.4675,-48.659339 -109.1547,-71.509502 -185.1027,-68.591586 -70.3177,-2.898189 -129.5802,20.018552 -177.7053,68.797076 -48.2072,48.74153 -72.2492,109.689 -72.2492,182.76021 0,65.0983 18.5061,121.36067 55.5637,168.78709 46.851,60.00222 113.1823,90.04443 198.9937,90.04443 M 2027.8354,157.29276 c 22.731,-45.94691 55.8925,-68.920364 99.4968,-68.920364 23.6722,0 44.5907,6.649562 62.7558,19.956904 18.1651,13.30324 33.104,36.10819 44.8373,68.3861 11.7168,32.30668 17.5814,80.96191 17.5814,146.01912 0,54.65956 -5.7372,99.00368 -17.2362,132.99124 -11.4744,33.99167 -27.5353,58.72821 -48.1662,74.22193 -16.1677,12.09908 -36.3342,18.1404 -60.4954,18.1404 -35.8698,0 -63.7421,-14.03477 -83.7154,-42.08375 -28.5874,-40.14807 -42.9057,-102.16818 -42.9057,-186.1302 0,-70.64646 9.251,-124.81285 27.7736,-162.54028" id="path32"/>
</svg>
