<?xml version='1.0' encoding='utf-8'?>
<svg xmlns="http://www.w3.org/2000/svg" xmlns:osb="http://www.openswatchbook.org/uri/2009/osb" width="600" height="233.46686622437653" viewBox="-0.501 0 299.34198 116.4774" xml:space="preserve" version="1.1" id="svg11">
    <defs id="defs3">
        <linearGradient id="b">
            <stop style="stop-color:#000;stop-opacity:1" offset="0" id="stop1"/>
            <stop style="stop-color:#000;stop-opacity:0" offset="1" id="stop2"/>
        </linearGradient>
        <linearGradient id="a" osb:paint="solid">
            <stop style="stop-color:#000;stop-opacity:1" offset="0" id="stop3"/>
        </linearGradient>
    </defs>
    <g id="path5" style="opacity:1" transform="matrix(0.91123,0,0,0.86383,-7.385219,3.8939837)">
        <path style="baseline-shift:baseline;display:inline;overflow:visible;vector-effect:none;fill:#ffffff;stroke-linecap:round;stroke-linejoin:round;paint-order:markers stroke fill;enable-background:accumulate;stop-color:#000000;stop-opacity:1" d="m 62.576172,-4.5078125 c -21.866355,0 -39.736328,17.8635645 -39.736328,39.7343745 0,21.86963 17.867696,39.734375 39.736328,39.734375 h 215.148438 0.002 c 21.87061,-0.0011 39.73438,-17.867098 39.73438,-39.734375 0,-21.870301 -17.86691,-39.7343745 -39.73633,-39.7343745 z M 286.68945,23.86528 c 4.2e-4,-9.1e-5 0.0636,0.0625 0.31641,0.0625 h 0.008 c 0.0351,5.8e-5 0.0583,0.06411 0.10352,0.103516 -0.0658,0.05671 -0.12684,0.160156 -0.11133,0.160156 -0.5119,0 -0.25391,0.07891 -0.25391,-0.0078 0,-0.254132 -0.0629,-0.318268 -0.0625,-0.31836 z" id="path1"/>
        <path style="baseline-shift:baseline;display:inline;overflow:visible;vector-effect:none;fill:#ff0000;stroke-linecap:round;stroke-linejoin:round;paint-order:markers stroke fill;enable-background:accumulate;stop-color:#000000;stop-opacity:1" d="m 287.006,29.216 a 5.043,5.043 0 0 1 -5.036,-5.035 c 0,-2.959 2.213,-5.28 5.036,-5.28 2.729,0 5.036,2.417 5.036,5.28 0,2.681 -2.35,5.035 -5.036,5.035 z m 0,-9.533 c -2.427,0 -4.253,1.934 -4.253,4.5 a 4.26,4.26 0 0 0 4.253,4.254 c 2.229,0 4.254,-2.028 4.254,-4.254 0,-2.399 -1.984,-4.5 -4.254,-4.5 z m 0.884,6.647 -0.863,-1.515 h -1.096 v 1.321 h -0.779 V 21.59 h 2.104 c 0.979,0 1.488,0.813 1.488,1.613 0,0.615 -0.303,1.238 -0.885,1.492 l 0.711,1.248 z m -1.959,-2.294 h 1.321 c 0.22,0 0.396,-0.079 0.521,-0.235 a 0.973,0.973 0 0 0 0.188,-0.597 c 0,-0.311 -0.151,-0.832 -0.709,-0.832 h -1.321 z M 90.208839,51.562229 v -32.5145 H 80.430846 V 41.782527 L 66.00529,19.046572 H 55.496417 v 32.515657 h 9.777992 V 28.093491 l 15.15534,23.468738 z m 15.891711,0 V 29.560214 h -9.777997 v 22.002015 z m 0,-26.647605 v -5.868052 h -9.777997 v 5.866895 z m 34.22407,26.647605 V 36.402996 c 0,-3.177709 -6.11152,-7.57788 -9.28855,-7.57788 h -2.93449 c -2.19923,0 -4.64537,1.956404 -6.8457,2.934605 v -2.199507 h -9.77799 v 22.002015 h 9.77799 V 36.402996 c 0,-1.466724 3.42175,-3.177709 4.8901,-3.177709 1.46725,0 4.15482,1.710985 4.15482,3.177709 v 15.158075 z m 81.82127,0.757093 V 37.162405 c 0,-3.178867 -6.10932,-7.57788 -9.29403,-7.57788 h -2.9312 c -2.20142,0 -4.64647,1.956403 -6.84789,2.93229 v -2.199507 h -9.77799 V 52.32048 h 9.77799 V 37.162405 c 0,-1.465567 3.42394,-3.178867 4.89009,-3.178867 1.46725,0 4.15483,1.7133 4.15483,3.178867 V 52.319322 Z M 156.21632,51.562229 V 29.560214 h 5.13372 v -2.933447 h -5.13372 v -4.64559 H 146.1947 v 4.64559 h -5.13481 v 2.933447 h 5.13591 v 22.002015 z m 18.82291,-22.735955 c -7.82239,0 -14.42226,5.378373 -14.42226,11.979209 0,6.846254 6.59987,12.222312 14.42226,12.222312 6.84569,0 12.46886,-3.910492 13.93611,-9.044604 h -10.02052 v 2.934605 c 0,2.444926 -1.70978,3.180024 -3.9101,3.180024 -2.20032,0 -3.66867,-0.735098 -3.66867,-3.180024 v -6.112313 h 18.09313 c -0.004,-6.599679 -6.35954,-11.979209 -14.42995,-11.979209 z m 0,2.199507 c 2.20142,0 3.9123,1.467881 3.9123,3.912806 v 2.199507 h -7.57877 v -2.199507 c 0,-2.444925 1.46725,-3.912806 3.66647,-3.912806 z m 96.32585,-2.199507 c -8.06822,0 -14.42556,5.378373 -14.42556,11.979209 0,6.846254 6.35405,12.222312 14.42556,12.222312 7.818,0 14.42226,-5.376058 14.42226,-12.222312 -0.004,-6.599679 -6.60316,-11.979209 -14.42226,-11.979209 z m 0,2.199507 c 2.19483,0 3.66647,1.467881 3.66647,3.912806 v 11.978052 c 0,2.44261 -1.47054,3.178866 -3.66537,3.178866 -2.44505,0 -3.91449,-0.733941 -3.91449,-3.178866 V 34.938587 c -0.002,-2.444925 1.46724,-3.912806 3.91339,-3.912806 z M 243.24814,19.046572 v 11.979209 c 0,0 -2.9356,-2.199507 -6.84789,-2.199507 -6.11042,0 -11.24414,5.378373 -11.24414,11.246425 0,6.112314 5.13591,12.224628 11.24414,12.224628 3.91229,0 6.84789,-1.467881 6.84789,-1.467881 v 0.731625 h 9.77909 V 19.047729 Z m -3.66757,13.44709 c 2.19922,0 3.66757,1.712142 3.66757,3.911649 v 9.044604 c 0,2.201822 -1.46835,2.934605 -3.66757,2.934605 -2.44286,0 -3.9123,-0.732783 -3.9123,-2.934605 v -9.044604 c 0,-2.199507 1.46944,-3.912807 3.9123,-3.912807 z M 277.72571,70.45252 H 62.576956 C 43.153759,70.45252 27.348748,54.649642 27.348748,35.225681 27.348748,15.800563 43.154857,0 62.575859,0 H 277.72461 c 19.4243,0 35.22711,15.80172 35.22711,35.226839 0,19.422803 -15.80062,35.225681 -35.22711,35.225681 z M 62.576956,8.3338157 c -14.829406,0 -26.895514,12.0625583 -26.895514,26.8941803 0,14.829307 12.065011,26.894181 26.895514,26.894181 H 277.72352 c 14.82611,0 26.89661,-12.064874 26.89661,-26.894181 0,-14.829306 -12.06721,-26.8941803 -26.89661,-26.8941803 z" id="path2"/>
    </g>
    <g id="path9" style="opacity:1" transform="translate(-24.825219,-8.3230163)">
        <path style="baseline-shift:baseline;display:inline;overflow:visible;vector-effect:none;fill:#ffffff;stroke-linecap:round;stroke-linejoin:round;paint-order:markers stroke fill;enable-background:accumulate;stop-color:#000000;stop-opacity:1" d="m 28.324219,78.761719 a 4.0004,4.0004 0 0 0 -4,4 v 11.324218 c 0,2.543046 1.607843,4.636218 3.261718,5.710938 1.653876,1.074715 3.466331,1.523435 5.345704,1.523435 h 13.820312 a 4.0004,4.0004 0 0 0 1.882813,-0.78125 4.0004,4.0004 0 0 0 1.884765,0.78125 h 5.445313 a 4.0004,4.0004 0 0 0 4,-3.999998 v -7.146484 h 3.515625 v 7.146484 a 4.0004,4.0004 0 0 0 4,3.999998 h 5.234375 a 4.0004,4.0004 0 0 0 4,-3.999998 v -7.146484 h 1.21289 v 7.146484 a 4.0004,4.0004 0 0 0 4,3.999998 h 5.234375 a 4.0004,4.0004 0 0 0 4,-3.999998 v -7.146484 h 1.22461 v 4.09375 c 0,2.543468 1.606224,4.636435 3.259765,5.710938 1.653542,1.074504 3.465905,1.523434 5.345706,1.523434 h 13.82226 a 4.0004,4.0004 0 0 0 2.09571,-0.86718 4.0004,4.0004 0 0 0 1.66015,0.6875 h 5.44532 a 4.0004,4.0004 0 0 0 3.98046,-3.955083 h 1.87891 a 4.0004,4.0004 0 0 0 3.98047,3.955083 h 4.60742 a 4.0004,4.0004 0 0 0 4,-4.000004 v -3.955079 c 0,-0.77392 -0.12456,-1.217038 -0.25,-1.599609 0.23046,-0.369676 0.43298,-0.780589 0.64063,-1.337891 h 1.10156 v 7.146485 a 4.0004,4.0004 0 0 0 4,3.999998 h 5.23437 a 4.0004,4.0004 0 0 0 4,-3.999998 v -7.146485 h 1.77344 v 6.892579 a 4.0004,4.0004 0 0 0 4,4.000004 h 5.44141 a 4.0004,4.0004 0 0 0 3.98047,-3.955083 h 1.8789 a 4.0004,4.0004 0 0 0 3.98047,3.955083 h 5.44336 a 4.0004,4.0004 0 0 0 1.88867,-0.78321 4.0004,4.0004 0 0 0 1.88477,0.78125 h 5.23242 a 4.0004,4.0004 0 0 0 1.56445,-0.64843 4.0004,4.0004 0 0 0 1.5625,0.64843 h 5.44141 a 4.0004,4.0004 0 0 0 4,-3.999998 v -7.146484 h 3.51562 v 7.146484 a 4.0004,4.0004 0 0 0 4,3.999998 h 5.23633 a 4.0004,4.0004 0 0 0 1.89258,-0.78515 4.0004,4.0004 0 0 0 1.89258,0.78515 h 5.44336 a 4.0004,4.0004 0 0 0 3.03515,-1.673826 4.0004,4.0004 0 0 0 3.03711,1.673826 h 5.44532 a 4.0004,4.0004 0 0 0 3.03515,-1.671873 4.0004,4.0004 0 0 0 3.03711,1.671873 h 5.23438 a 4.0004,4.0004 0 0 0 3.01562,-1.623044 c 0.0357,0.0242 0.0619,0.07635 0.0977,0.09961 1.65386,1.074354 3.46786,1.523434 5.34765,1.523434 h 13.81446 a 4.0004,4.0004 0 0 0 0.004,0.002 h 0.002 a 4.0004,4.0004 0 0 0 1.43945,-0.65039 4.0004,4.0004 0 0 0 1.56445,0.64843 h 5.44141 a 4.0004,4.0004 0 0 0 4,-3.999997 v -7.146484 h 3.51562 v 7.146484 a 4.0004,4.0004 0 0 0 4,3.999997 h 5.23828 a 4.0004,4.0004 0 0 0 4,-3.999997 v -7.146484 h 1.97657 v 7.146484 a 4.0004,4.0004 0 0 0 4,3.999997 h 5.23242 a 4.0004,4.0004 0 0 0 4,-3.999997 v -7.146484 h 2.91016 a 4.0004,4.0004 0 0 0 4,-4 v -3.234375 a 4.0004,4.0004 0 0 0 -4,-4 h -19.05274 a 4.0004,4.0004 0 0 0 -2.98047,1.537109 c -1.34718,-0.885105 -2.8734,-1.539062 -4.69336,-1.539062 h -17.58789 a 4.0004,4.0004 0 0 0 -1.29101,0.535156 4.0004,4.0004 0 0 0 -1.71485,-0.710937 h -18.42773 a 4.0004,4.0004 0 0 0 -3.19727,2.0625 c -1.45309,-1.105128 -3.19097,-1.88676 -5.2619,-1.88676 h -23.66015 a 4.0004,4.0004 0 0 0 -3.125,1.888672 C 217.22092,79.719561 215.48076,78.9375 213.4082,78.9375 h -17.58789 a 4.0004,4.0004 0 0 0 -1.5625,0.648437 4.0004,4.0004 0 0 0 -1.56445,-0.648437 h -5.23242 a 4.0004,4.0004 0 0 0 -3.14844,1.943359 c -1.04227,-1.001666 -2.2783,-1.941406 -4.60352,-1.941406 h -12.97851 c -1.97109,0 -3.05305,0.627444 -3.91992,1.378906 a 4.0004,4.0004 0 0 0 -2.71094,-1.123047 h -19.05274 a 4.0004,4.0004 0 0 0 -1.93164,0.798829 c -0.82372,-0.600563 -1.88756,-1.052735 -3.58203,-1.052735 l -16.96093,-0.002 a 4.0004,4.0004 0 0 0 -1.88086,0.779297 4.0004,4.0004 0 0 0 -1.87696,-0.777344 H 96.386719 a 4.0004,4.0004 0 0 0 -1.15625,0.478516 4.0004,4.0004 0 0 0 -1.158203,-0.480469 H 75.019531 a 4.0004,4.0004 0 0 0 -2.818359,1.167969 C 70.988519,79.437417 69.6637,78.9375 68.109375,78.9375 H 50.519531 A 4.0004,4.0004 0 0 0 48.847656,79.630859 4.0004,4.0004 0 0 0 46.75,78.761719 Z M 141.64844,92.697266 c -0.1133,0.273303 -0.22623,0.337639 -0.20899,0.310546 0.0136,-0.02143 0.14139,-0.212057 0.20899,-0.310546 z" id="path3"/>
        <path style="baseline-shift:baseline;display:inline;overflow:visible;vector-effect:none;stroke-linecap:round;stroke-linejoin:round;paint-order:markers stroke fill;enable-background:accumulate;stop-color:#000000;stop-opacity:1" d="m 300.61406,82.939011 v 3.23554 h 5.4422 c 1.46718,0 1.46718,0 1.46718,1.43908 v 9.705885 h 5.23322 v -9.705885 c 0,-1.43908 0,-1.43908 1.67446,-1.43908 h 5.23407 v -3.23554 z m -182.04308,0 v 14.382711 h 5.44391 v -2.514897 c 0,-0.719908 0.62782,-1.440551 1.46547,-1.440551 h 6.91025 c 0.83851,0 1.46547,0.719908 1.46547,1.440551 v 2.514897 h 4.60711 v -3.955448 c 0,-0.536805 -0.62696,-1.256713 -0.62696,-1.976621 0,-0.536805 1.46547,-1.794989 1.46547,-3.232598 V 86.8974 c 0,-1.26039 -2.30312,-3.956918 -3.7686,-3.956918 z m 6.90938,3.23554 h 6.91025 c 0.83851,0 1.46461,0.719908 1.46461,1.43908 v 1.257449 c 0,0.719907 -0.62696,1.259654 -1.46461,1.259654 h -6.91025 c -0.83765,0 -1.46547,-0.539011 -1.46547,-1.259654 v -1.257449 c 8.6e-4,-0.717701 0.62782,-1.43908 1.46547,-1.43908 z m 41.2499,-3.23554 c -1.46633,0 -3.76774,2.696529 -3.76774,3.956919 v 10.425792 h 5.4422 v -3.955448 h 9.84033 v 3.955448 h 5.44305 V 86.89593 c 0,-1.26039 -2.30227,-3.956919 -3.97929,-3.956919 z m 3.14079,3.23554 h 6.90853 c 0.62524,0 1.46547,0.719908 1.46547,1.43908 v 2.516368 h -9.84033 v -2.516368 c 0,-0.717701 0.62867,-1.43908 1.46633,-1.43908 z m 22.8223,11.144965 V 82.937541 h -5.23322 v 14.38271 h 5.23322 z m -119.978524,0 V 86.892253 c 0,-1.976621 -2.303129,-3.955448 -4.606257,-3.955448 H 50.520341 v 14.383446 h 5.444771 v -9.70662 c 0,-0.719907 0.626957,-1.43908 1.465471,-1.43908 h 8.374001 c 0.838513,0 1.67617,0.719908 1.67617,1.43908 v 9.705885 z m 145.298374,0 V 86.892253 c 0,-1.976621 -2.30227,-3.955448 -4.60455,-3.955448 h -17.58822 v 14.383446 h 5.4422 v -9.70662 c 0,-0.719907 0.63038,-1.43908 1.46718,-1.43908 h 8.37572 c 0.83851,0 1.67274,0.719908 1.67274,1.43908 v 9.705885 z m 79.53288,0 V 86.892253 c 0,-1.976621 -2.30228,-3.955448 -4.60712,-3.955448 h -17.58823 v 14.383446 h 5.44221 v -9.70662 c 0,-0.719907 0.62695,-1.43908 1.46889,-1.43908 h 8.37229 c 0.83851,0 1.67446,0.719908 1.67446,1.43908 v 9.705885 z m -47.48008,0 V 86.892253 c 0,-1.976621 -2.30227,-3.955448 -4.60712,-3.955448 h -23.66081 v 14.383446 h 5.44477 v -9.70662 c 0,-0.719907 0.62525,-1.43908 1.46376,-1.43908 h 3.14164 c 0.62867,0 1.46633,0.719908 1.46633,1.43908 v 9.705885 h 5.44563 v -9.705885 c 0,-0.719907 0.62524,-1.43908 1.46376,-1.43908 h 3.14164 c 0.62696,0 1.46547,0.719908 1.46547,1.43908 v 9.705885 z m -203.314259,0 H 32.932113 c -2.302272,0 -4.607113,-1.257449 -4.607113,-3.234069 v -11.32439 h 18.425884 v 3.416436 H 34.396729 c -0.626959,0 -1.465472,0.539011 -1.465472,1.258919 0,0.719907 0.838513,1.258919 1.465472,1.258919 h 11.516499 v 2.875954 H 34.396729 c -0.626959,0 -1.465472,0.719908 -1.465472,1.258919 0,0.719908 0.838513,1.437609 1.465472,1.437609 h 12.354155 z m 68.061769,0.181631 h -13.82048 c -2.302272,0 -4.607114,-1.258184 -4.607114,-3.233334 V 82.940482 h 18.427594 v 3.415701 h -12.35587 c -0.6261,0 -1.46461,0.539747 -1.46461,1.261125 0,0.721378 0.83851,1.258184 1.46461,1.258184 h 11.5165 v 2.875218 h -11.5165 c -0.6261,0 -1.46461,0.719908 -1.46461,1.26039 0,0.719908 0.83851,1.436874 1.46461,1.436874 h 12.35587 z M 272.34785,97.319516 H 258.5265 c -2.30227,0 -4.60882,-1.258184 -4.60882,-3.234069 v -11.32439 h 18.42845 v 3.416436 h -12.35415 c -0.62696,0 -1.4689,0.539011 -1.4689,1.258919 0,0.719907 0.83851,1.258919 1.4689,1.258919 h 11.51307 v 2.875954 h -11.51307 c -0.62696,0 -1.4689,0.719908 -1.4689,1.258919 0,0.719908 0.83851,1.437609 1.4689,1.437609 h 12.35415 v 3.053909 h 0.002 z M 141.04604,83.194996 v 3.23554 h 5.44306 c 1.46632,0 1.46632,0 1.46632,1.43908 v 9.705885 h 5.23408 v -9.705885 c 0,-1.43908 0,-1.43908 1.67531,-1.43908 h 5.23407 v -3.23554 z M 75.01881,82.939011 v 3.23554 h 5.443058 c 1.466328,0 1.466328,0 1.466328,1.43908 v 9.705885 h 5.234072 v -9.705885 c 0,-1.43908 0,-1.43908 1.675314,-1.43908 h 5.234071 v -3.23554 z" id="path4"/>
    </g>
    <g id="path11" style="opacity:1" transform="matrix(0.8565,0,0,0.73535,3.499781,20.026984)">
        <path style="baseline-shift:baseline;display:inline;overflow:visible;vector-effect:none;fill:#ffffff;stroke-linecap:round;stroke-linejoin:round;paint-order:markers stroke fill;enable-background:accumulate;stop-color:#000000;stop-opacity:1" d="m 191.96484,101.17969 a 5.0407214,5.0407214 0 0 0 -1.64453,0.68164 5.0407214,5.0407214 0 0 0 -1.05859,-0.43945 h -22.24414 a 5.0407214,5.0407214 0 0 0 -1.50586,0.62304 5.0407214,5.0407214 0 0 0 -1.26953,-0.52539 h -17.84571 a 5.0407214,5.0407214 0 0 0 -0.0195,0.008 c -2.2766,0.004 -3.55367,0.62351 -4.66992,1.38086 a 5.0407214,5.0407214 0 0 0 -3.33984,-1.38281 h -6.11133 a 5.0407214,5.0407214 0 0 0 -5.04102,5.03906 v 3.76368 h -1.65429 v -3.76368 a 5.0407214,5.0407214 0 0 0 -5.03907,-5.03906 h -6.10937 a 5.0407214,5.0407214 0 0 0 -0.9707,0.40234 5.0407214,5.0407214 0 0 0 -0.98633,-0.4082 H 94.611328 a 5.0407214,5.0407214 0 0 0 -0.01953,0.008 c -3.477563,0.006 -4.740285,1.31125 -6.419922,2.62696 -0.84165,0.65929 -1.634123,1.3952 -2.367188,2.36914 -0.733064,0.97393 -1.613281,2.20893 -1.613281,4.43945 v 2.68945 c 0,2.22651 0.878019,3.46417 1.611328,4.43946 0.0012,0.002 0.0027,0.002 0.0039,0.004 a 5.0407214,5.0407214 0 0 0 -1.615235,3.6211 v 4.39843 a 5.0407214,5.0407214 0 0 0 5.041016,5.04102 h 18.089844 c 3.49387,0 4.79304,-1.36601 6.42382,-2.7168 1.16859,-0.96794 2.56077,-1.87828 3.27149,-3.84375 0.35101,0.0706 0.74445,0.10954 1.15234,0.13672 v 1.38867 a 5.0407214,5.0407214 0 0 0 5.04102,5.04102 h 6.35547 a 5.0407214,5.0407214 0 0 0 5.04101,-5.04102 v -1.38867 c 0.48494,-0.0322 0.96359,-0.0696 1.36914,-0.16211 v 1.54492 a 5.0407214,5.0407214 0 0 0 5.04102,5.04102 h 18.08984 c 3.49387,0 4.79305,-1.36601 6.42383,-2.7168 1.63078,-1.35078 3.75,-2.50701 3.75,-6.72265 v -2.6875 c 0,-1.29749 -0.26914,-2.27014 -0.62695,-3.12891 h 1.38867 v 10.11524 a 5.0407214,5.0407214 0 0 0 5.03906,5.04101 h 6.11133 a 5.0407214,5.0407214 0 0 0 5.04101,-5.04101 v -10.11524 h 0.68946 v 5.72266 c 0,3.0252 1.67355,5.70448 3.67773,7.22265 2.00418,1.51817 4.32557,2.21485 6.74024,2.21485 h 16.13672 a 5.0407214,5.0407214 0 0 0 2.18554,-0.90625 5.0407214,5.0407214 0 0 0 2.19141,0.9082 h 6.35351 a 5.0407214,5.0407214 0 0 0 3.54688,-1.46875 5.0407214,5.0407214 0 0 0 3.54297,1.4668 h 6.35351 a 5.0407214,5.0407214 0 0 0 3.54688,-1.46875 5.0407214,5.0407214 0 0 0 3.54687,1.46875 h 3.80469 l -1.50391,-1.74024 a 5.0407214,5.0407214 0 0 0 8.85157,-3.29687 V 111.8418 c 0,-3.02468 -1.35568,-5.46078 -3.15625,-7.26172 -1.80058,-1.80095 -4.23796,-3.15821 -7.26367,-3.1582 h -27.62305 a 5.0407214,5.0407214 0 0 0 -1.89649,0.78515 5.0407214,5.0407214 0 0 0 -2.48242,-1.02734 z" id="path6"/>
        <path style="baseline-shift:baseline;display:inline;overflow:visible;vector-effect:none;stroke-linecap:round;stroke-linejoin:round;paint-order:markers stroke fill;enable-background:accumulate;stop-color:#000000;stop-opacity:1" d="m 213.479,126.021 h -16.137 c -2.688,0 -5.377,-1.713 -5.377,-4.397 V 106.22 h 21.512 v 4.646 h -14.422 c -0.732,0 -1.713,0.732 -1.713,1.711 0,0.979 0.979,1.712 1.713,1.712 h 13.443 v 3.911 h -13.443 c -0.732,0 -1.713,0.979 -1.713,1.713 0,0.979 0.979,1.954 1.713,1.954 h 14.422 z m -46.462,-19.559 v 4.398 h 6.355 c 1.711,0 1.711,0 1.711,1.957 v 13.199 h 6.111 v -13.199 c 0,-1.957 0,-1.957 1.959,-1.957 h 6.109 v -4.398 z m -72.406,0.103 c -1.712,0 -5.379,2.689 -5.379,4.397 v 2.69 c 0,1.713 3.667,4.4 5.379,4.4 h 10.756 c 0.978,0 1.956,0.979 1.956,1.711 0,0.978 -0.979,1.954 -1.956,1.954 H 89.232 v 4.399 h 18.09 c 1.712,0 5.134,-2.688 5.134,-4.399 v -2.688 c 0,-1.957 -3.422,-4.646 -5.134,-4.646 H 96.566 c -0.979,0 -1.955,-0.733 -1.955,-1.713 0,-0.978 0.977,-1.713 1.955,-1.713 h 15.89 V 106.56 H 94.611 Z m 51.786,0 c -1.713,0 -5.38,2.689 -5.38,4.397 v 2.69 c 0,1.713 3.667,4.4 5.38,4.4 h 10.756 c 0.978,0 1.956,0.979 1.956,1.711 0,0.978 -0.979,1.954 -1.956,1.954 h -16.136 v 4.399 h 18.091 c 1.712,0 5.134,-2.688 5.134,-4.399 v -2.688 c 0,-1.957 -3.422,-4.646 -5.134,-4.646 h -10.757 c -0.978,0 -1.955,-0.733 -1.955,-1.713 0,-0.978 0.978,-1.713 1.955,-1.713 h 15.891 v -4.397 h -17.845 z m -31.985,0 v 8.804 c 0,1.71 2.688,4.399 4.4,4.399 h 4.398 v 6.354 h 6.357 v -6.354 h 4.4 c 1.71,0 4.4,-2.689 4.4,-4.399 v -8.804 h -6.112 v 7.092 c 0,0.732 -0.978,1.712 -1.956,1.712 h -7.822 c -0.979,0 -1.956,-0.979 -1.956,-1.712 v -7.092 z m 136.44608,19.4579 v -14.18029 c 0,-2.68863 -2.68909,-5.37993 -5.38049,-5.37993 h -27.62271 v 19.55888 h 6.35393 v -13.20054 c 0,-0.97841 0.73181,-1.95682 1.70987,-1.95682 h 3.66715 c 0.73297,0 1.71334,0.97841 1.71334,1.95682 v 13.19921 h 6.35393 v -13.19921 c 0,-0.97841 0.73066,-1.95682 1.70872,-1.95682 h 3.6683 c 0.73182,0 1.71566,0.97841 1.71566,1.95682 v 13.19921 h 6.10999 z" id="path7"/>
    </g>
</svg>
