<?xml version='1.0' encoding='utf-8'?>
<svg xmlns="http://www.w3.org/2000/svg" width="600" height="153.55412000861045" version="1.1" id="svg1" viewBox="0 0 387.62152 99.201469">
    <defs id="defs1"/>
    <g id="path1" style="opacity:1" transform="translate(-11.418571,-7.532385)">
        <path style="baseline-shift:baseline;display:inline;overflow:visible;vector-effect:none;fill:#ffffff;fill-rule:evenodd;stroke-linecap:round;stroke-linejoin:round;paint-order:markers stroke fill;enable-background:accumulate;stop-color:#000000;stop-opacity:1" d="m 135.97461,7.5351562 c -0.54664,0.022084 -1.25523,0.1802052 -2.46094,0.7207032 -8.8e-4,3.951e-4 -10e-4,-3.955e-4 -0.002,0 l -0.004,0.00391 c -0.0101,0.00597 -1.19331,0.7244914 -1.52148,1.0585938 -0.32942,0.3353715 -0.52424,0.6175913 -0.66992,0.8496098 -0.25897,0.412435 -0.34292,0.650051 -0.41993,0.859375 -0.004,0.0078 -0.008,0.01562 -0.0117,0.02344 -0.007,0.02014 -0.0341,0.06489 -0.041,0.08399 -0.1596,0.439726 -0.18819,0.635708 -0.2207,0.802734 -0.065,0.334051 -0.0774,0.492475 -0.0937,0.658203 -0.0327,0.331457 -0.0483,0.616199 -0.0645,0.962891 -0.0322,0.693384 -0.0567,1.575718 -0.0762,2.625 -0.0389,2.098563 -0.0575,4.838074 -0.0586,7.58789 -0.001,2.749817 0.0156,5.499085 0.0527,7.617188 0.0186,1.059052 0.0409,1.953755 0.0723,2.658203 0.0157,0.352224 0.0325,0.646547 0.0625,0.970703 0.015,0.162078 0.0277,0.319277 0.0781,0.607422 0.0252,0.144073 0.0532,0.312186 0.15235,0.640625 0.0596,0.19741 0.13681,0.518433 0.38672,0.970703 -0.3271,0.718839 -0.45653,1.292202 -0.51172,1.683594 -0.15416,1.093221 -0.16051,2.021083 -0.18946,4.029297 -0.006,0.415356 7e-4,2.378616 -0.004,2.880859 -0.2912,-0.86683 -0.64224,-1.847111 -1.02344,-2.855469 -0.40364,-1.067711 -0.82755,-2.137558 -1.2168,-3.060547 -0.38864,-0.921567 -0.48976,-1.38198 -1.24609,-2.544921 -1.23341,-1.89926 -2.4642,-2.095334 -3.21094,-2.310547 -0.74755,-0.215448 -1.30134,-0.270572 -1.85937,-0.308594 -1.11545,-0.076 -2.22123,-0.02275 -3.5,0.09961 -7.2e-4,6.9e-5 -10e-4,-6.8e-5 -0.002,0 -7.94333,0.759582 -15.00353,3.74191 -20.285153,8.332032 0.0198,-0.1344 0.04603,-0.297749 0.0625,-0.417969 0.04426,-0.323023 0.09259,-0.308005 0.105469,-1.134766 l 0.0098,-0.566406 c 0.05209,-2.792497 -2.193355,-5.08632 -4.986328,-5.09375 l -16.197266,-0.04297 c -5.255517,-0.01352 -9.322376,-0.01097 -12.109375,0.0098 -1.393499,0.01037 -2.462177,0.02477 -3.234375,0.04492 -0.386099,0.01008 -0.689382,0.02062 -0.988281,0.03906 -0.14945,0.0092 -0.281716,0.01608 -0.53711,0.04883 -0.127696,0.01638 -0.269277,0.02874 -0.613281,0.113282 -0.172001,0.04227 -0.388246,0.09038 -0.810547,0.273437 -0.21115,0.09153 -0.478418,0.214497 -0.855468,0.474609 -0.105102,0.07251 -0.215522,0.173233 -0.363282,0.298829 -0.369952,-0.227344 -0.408845,-0.25991 -0.841797,-0.525391 -1.491031,-0.914102 -2.144785,-1.375189 -3.30664,-1.890625 -0.580928,-0.257718 -1.470938,-1.016493 -3.841797,-0.339844 -1.185429,0.338325 -2.368421,1.33039 -2.890625,2.117188 -0.522204,0.786797 -0.635572,1.297137 -0.712891,1.578125 v 0.0059 l -0.002,0.0039 c -0.300816,1.102994 -0.582803,2.506893 -1.021484,4.595703 l 0.002,-0.002 c -0.190127,0.903349 -0.426499,2.000647 -0.484375,2.25586 l -0.002,0.0039 c -0.106761,0.472061 -0.321705,1.475599 -0.517578,2.40625 v 0.0098 c -0.225037,1.07851 -0.45849,2.155167 -0.689453,3.232421 -0.313151,-0.349704 -0.624016,-0.701375 -0.9375,-1.050781 l -0.002,-0.002 C 40.045882,47.088611 37.778475,44.546104 35.515266,41.99806 l -0.01172,-0.01172 c -1.561144,-1.770535 -3.136473,-3.5284 -4.724249,-5.275403 -0.0058,-0.0065 -0.0117,-0.01304 -0.01758,-0.01953 -0.242309,-0.263839 -0.526244,-0.671261 -1.47461,-1.25 -0.948365,-0.578739 -3.092302,-0.99826 -4.511718,-0.53125 -2.838833,0.93402 -2.745568,1.865361 -3.308594,2.53711 l -0.0039,0.002 c -0.276224,0.330033 -1.776496,2.07567 -3.142579,3.65039 v 0.002 c -2.662404,3.069293 -3.723011,3.856991 -4.955078,6.109375 -0.308016,0.563097 -0.755625,1.37188 -0.761718,2.816407 -0.0061,1.444526 0.923209,3.21984 1.736328,3.970703 1.555548,1.436448 1.923428,1.242544 2.068359,1.277344 -0.03063,0.02181 0.05892,0.337412 -0.275391,1.892578 -0.288642,1.341294 -0.774378,3.62523 -1.085937,5.099609 l -0.002,0.002 c -0.307716,1.460905 -0.681567,3.227506 -0.826172,3.904297 l -0.002,0.0039 c -0.147729,0.695137 -0.487742,2.30865 -0.757813,3.601563 l -0.998046,4.742187 v -0.0059 c -0.315162,1.490262 -0.555625,2.59298 -0.730469,3.5 -0.174844,0.90702 -0.403637,1.376011 -0.273438,2.945312 0.0651,0.784651 0.268001,2.434519 2,3.794922 1.732,1.360404 3.716542,1.145948 4.519531,0.951172 1.605979,-0.389552 1.664896,-0.650698 1.972657,-0.800781 h 0.002 c 0.260845,-0.127359 0.510698,-0.244773 0.660156,-0.3125 0.01552,-0.007 0.0082,-0.0039 0.02148,-0.0098 0.01562,-0.0057 0.05034,-0.01631 0.06445,-0.02148 0.135265,-0.04958 0.20876,-0.07909 0.287109,-0.111328 0.156698,-0.06448 0.302574,-0.128165 0.472656,-0.203125 0.340165,-0.14992 0.758103,-0.339054 1.208985,-0.548828 l 0.0059,-0.0039 c 0.74533,-0.348054 2.39589,-1.084312 3.482422,-1.550781 0.728629,-0.312865 1.286689,-0.515519 2.068359,-0.914062 0.390835,-0.199272 0.863104,-0.421978 1.548828,-1.048828 0.685725,-0.626851 1.697262,-2.04176 1.779297,-3.732422 0.08204,-1.690663 -0.608724,-2.860203 -1.05664,-3.486328 -0.447917,-0.626126 -0.793087,-0.934981 -1.103516,-1.21875 -0.620857,-0.56754 -1.159777,-0.977567 -1.861328,-1.554688 l -0.002,-0.002 c -0.08732,-0.0718 -0.07956,-0.06474 -0.160157,-0.130859 0.02689,-0.193503 0.0041,-0.175954 0.05273,-0.421875 0.15906,-0.804188 0.191293,-0.975655 0.330078,-1.677735 2.496672,2.819934 4.740156,5.349746 5.113281,5.765625 l 0.0059,0.0059 c 0.23795,0.264389 1.09306,1.229472 1.816406,2.050781 l 0.002,0.002 c 2.547654,2.889345 4.381902,4.955566 5.615234,6.324219 0.616667,0.684326 1.07753,1.189322 1.435547,1.568359 0.179009,0.189519 0.323929,0.341762 0.509766,0.521484 0.09292,0.08986 0.18299,0.179321 0.394531,0.353516 0.105771,0.0871 0.227514,0.19255 0.527344,0.382813 0.149915,0.09513 0.340774,0.21494 0.695312,0.36914 0.177269,0.0771 0.39788,0.164998 0.708985,0.248047 0.311105,0.08305 1.29014,0.169922 1.291015,0.169922 1.532099,0 3.518097,-1.219345 4.185547,-2.113281 0.113175,-0.151579 0.07191,-0.181228 0.15625,-0.3125 0.462068,0.408273 0.927575,0.677427 1.25,0.832031 0.680442,0.326275 1.082931,0.39865 1.425781,0.466797 0.685702,0.136293 1.142519,0.158582 1.726563,0.189453 2.336176,0.123482 6.468954,0.08599 15.447266,0.0625 l 16.527343,-0.04297 c 2.224343,-0.0055 4.177643,-1.47964 4.792969,-3.617187 l 0.115234,-0.400391 0.002,-0.0078 c 0.313785,-1.079475 0.223559,-0.998524 0.318359,-1.550782 0.09528,-0.555064 0.203107,-1.227855 0.308594,-1.921875 v -0.0039 c 0.047,-0.310788 0.133456,-0.812379 0.195312,-1.208984 0.780864,1.24001 1.565552,2.482581 2.576172,3.533203 5.378771,5.591676 13.825031,8.078736 22.513671,5.832031 1.16195,-0.300479 2.35597,-0.406088 3.97656,-1.681641 1.6206,-1.275552 2.08108,-2.648768 2.51367,-3.605468 l 1.30665,-2.888672 0.002,-0.0059 c 0.58614,-1.299094 1.17446,-2.596651 1.76758,-3.892578 l 0.002,-0.002 c 1.25802,-2.752136 1.93884,-4.224875 2.40039,-5.535156 0.11539,-0.32757 0.22523,-0.643399 0.32812,-1.148438 0.1029,-0.505038 0.49256,-1.155384 -0.21679,-3.023437 -0.35468,-0.934027 -1.33233,-2.204 -2.57227,-2.792969 -1.23994,-0.588968 -2.33645,-0.532661 -3.00586,-0.425781 -1.33605,0.21332 -1.65945,0.541642 -1.97461,0.728516 -6.5e-4,3.85e-4 -0.003,0.0016 -0.004,0.002 -0.31318,0.184003 -0.59886,0.364591 -0.98633,0.607422 l 0.01,-0.0078 c -3.78479,2.35897 -8.93625,2.923316 -9.53711,2.740234 -2.62121,-0.804468 -4.67658,-5.610357 -3.24805,-8.447265 0.88468,-1.756543 2.43005,-3.668101 4,-5.00586 0.7009,-0.597241 1.39574,-1.004174 1.99805,-1.326171 0.52933,0.720703 0.67632,0.901551 1.97461,2.736328 l 0.002,0.002 c 0.31805,0.449368 0.56767,0.834241 1.02734,1.382812 0.45968,0.548571 1.30427,1.4873 2.83399,1.992188 1.52972,0.504887 2.98207,0.214116 3.71679,-0.01172 0.73472,-0.225835 1.12204,-0.416771 1.57618,-0.607422 h 0.002 c 1.20272,-0.505389 1.91741,-0.802367 2.6543,-1.183594 0.36844,-0.190613 0.75128,-0.361338 1.41015,-0.9375 0.30221,-0.264268 0.70796,-0.793017 1.06055,-1.410156 -0.0146,4.699765 -0.0321,8.141572 -0.0215,19.09961 l 0.0293,30.832031 c 0.002,2.75978 2.24021,4.99582 5,4.9961 h 12.5 c 2.75826,-2.7e-4 4.99542,-2.23393 5,-4.99219 l 0.0352,-19.986332 c 0.70489,-0.02352 1.43434,-0.0649 2.24218,-0.140625 1.88171,-0.176384 3.93298,-0.446827 5.68164,-0.845703 5.50782,-1.256292 10.16237,-3.932822 13.40235,-7.863281 0.45202,10.406718 4.21613,19.454647 10.78125,25.558593 6.99587,6.504438 16.91709,9.508068 27.64844,7.974608 l -0.002,0.002 c 1.30632,-0.18647 2.51147,-0.39479 3.51172,-0.60547 0.50013,-0.10534 0.93893,-0.2072 1.39844,-0.33985 0.22975,-0.0663 0.45995,-0.13422 0.78516,-0.26367 0.32307,-0.1286 0.65403,-0.0397 1.79687,-1.15039 0.0295,-0.0328 0.54021,-0.60123 0.69141,-0.83008 0.15546,-0.23531 0.25506,-0.42472 0.33203,-0.58398 0.15393,-0.31851 0.2202,-0.52416 0.27148,-0.6875 0.10257,-0.32668 0.12969,-0.48915 0.1543,-0.62305 0.0492,-0.26779 0.0584,-0.39 0.0703,-0.50976 0.0238,-0.23953 0.0331,-0.41159 0.043,-0.61133 0.0198,-0.399493 0.0334,-0.869418 0.0449,-1.43555 0.0231,-1.132265 0.0363,-2.623176 0.0332,-4.251953 v -0.002 c -0.007,-3.056683 0.0497,-4.403447 -0.14844,-5.97461 -0.0991,-0.785581 0.0979,-2.377486 -2.27149,-4.074219 -1.18469,-0.848366 -2.69246,-1.02195 -3.46289,-0.964843 -0.77042,0.05711 -1.06942,0.181855 -1.20312,0.21875 -5.37561,1.483583 -9.75197,0.308298 -12.83594,-2.302735 -3.08397,-2.611032 -4.99571,-6.776092 -4.45508,-12.376953 0.49069,-5.083204 2.70468,-8.614971 5.71485,-10.699219 3.01017,-2.084247 6.94242,-2.848071 11.67187,-1.451171 0.17782,0.0525 0.71984,0.827967 3.30469,0.154296 1.29242,-0.336835 2.6537,-1.484966 3.21094,-2.408203 0.55724,-0.923236 0.66932,-1.562371 0.76171,-2.0625 0.36959,-2.000512 0.20704,-3.150298 0.20704,-6.265625 0,-2.153029 -0.01,-3.597015 -0.0469,-4.652343 -0.0187,-0.527665 -0.0389,-0.944825 -0.0957,-1.427735 -0.0417,-0.354307 -0.024,-0.825155 -0.47071,-1.734375 0.95078,-0.535145 1.83913,-1.167156 2.61329,-1.929687 0.0868,0.08635 0.14113,0.198986 0.23046,0.283203 3.60413,3.397823 9.55959,4.190115 14.33594,1.644531 0.39604,-0.211026 0.7131,-0.483021 1.0625,-0.730469 0.9653,1.13365 1.68375,1.308076 2.03125,1.427735 0.42863,0.14759 0.64527,0.181764 0.83594,0.216797 0.38134,0.07007 0.61387,0.08959 0.86523,0.111328 0.4433,0.03833 0.91391,0.05692 1.42774,0.07422 -4.80838,3.77003 -8.04117,9.275083 -8.52735,15.734375 -0.17455,2.315478 0.1131,4.574817 0.79102,6.916016 -0.88601,-0.842163 -2.04982,-1.330614 -3.27148,-1.373047 l -7.17774,-0.04297 h -0.002 c -1.99512,-0.01212 -3.81988,-0.01091 -5.17969,0.002 -0.68016,0.0064 -1.23903,0.01423 -1.67969,0.02734 -0.22033,0.0066 -0.40219,0.01334 -0.61718,0.02734 -0.1075,0.007 -0.21191,0.0132 -0.42969,0.04102 -0.10889,0.01391 -0.23426,0.02565 -0.52149,0.0918 -0.14361,0.03307 -0.32396,0.07428 -0.65039,0.197265 -0.16321,0.06149 -0.36608,0.143063 -0.64648,0.296875 -0.1402,0.07691 -0.48794,0.304447 -0.48828,0.304688 -3.4e-4,2.41e-4 -0.64429,0.544679 -0.64453,0.544922 -4.9e-4,4.84e-4 -0.4876,0.557586 -0.63086,0.773437 -0.14326,0.215852 -0.23966,0.39238 -0.31446,0.542969 -0.1496,0.301178 -0.21836,0.501351 -0.27148,0.662109 -0.10624,0.321516 -0.13741,0.486341 -0.16406,0.621094 -0.0533,0.269506 -0.0637,0.393265 -0.0762,0.507812 -0.025,0.229096 -0.0335,0.376936 -0.043,0.544922 -0.0189,0.335974 -0.032,0.706733 -0.043,1.152344 -0.022,0.891223 -0.0332,2.048919 -0.0332,3.3125 v 4.470703 c 3.4e-4,2.311325 1.5847,4.321244 3.83204,4.861328 l 0.36328,0.08594 c 1.46685,0.356032 0.98357,0.145869 1.16992,0.154297 0.18635,0.0084 0.37118,0.01283 0.5918,0.01758 0.44123,0.0095 1.00562,0.01726 1.68164,0.02148 1.35203,0.0084 3.13827,0.0063 5.05859,-0.0059 h 0.002 l 6.91602,-0.04492 c 0.38993,-0.110461 0.76498,-0.267916 1.11691,-0.468899 -0.1443,1.280374 -0.2212,2.576291 -0.18555,3.921875 0.26082,9.870094 6.77078,18.146855 16.41797,21.378905 9.48057,3.17684 19.00726,1.60347 25.80469,-3.42969 2.66148,-1.970694 4.70321,-4.622798 6.32226,-7.542965 1.74336,3.076497 4.16721,5.838937 7.32617,7.917965 14.20765,9.35115 33.54403,4.10988 39.49805,-10.013668 0.51226,1.061758 1.02706,2.120647 1.6582,3.191406 5.42869,9.205162 16.20007,13.371952 27.20899,11.097652 7.76867,-1.60392 13.58427,-6.421609 17.24219,-13.513668 0.0248,2.584349 0.0533,4.896157 0.0918,6.498047 0.0212,0.88328 0.0447,1.585331 0.0742,2.144531 0.0148,0.2796 0.0281,0.51071 0.0606,0.81055 0.0162,0.14991 0.0272,0.29651 0.0996,0.63867 0.0362,0.17108 0.0675,0.37552 0.25,0.83789 0.0913,0.23118 0.20953,0.53156 0.53711,1.00781 0.32758,0.47625 2.32634,1.83721 2.32812,1.83789 l 0.008,0.002 c 1.43449,0.54966 1.29693,0.3226 1.54297,0.3457 0.24605,0.0231 0.45099,0.0344 0.67774,0.0449 0.45349,0.021 0.9715,0.0322 1.57031,0.041 1.19762,0.0177 2.68994,0.0182 4.17773,0.006 1.4878,-0.0123 2.96113,-0.0368 4.12305,-0.0742 0.58096,-0.0187 1.07452,-0.0403 1.51563,-0.0703 0.22055,-0.015 0.41561,-0.0279 0.69726,-0.0645 0.14083,-0.0183 0.29205,-0.0352 0.5957,-0.10547 0.30366,-0.0703 0.5074,0.59612 2.45899,-1.35547 0.008,-0.0107 0.98152,-1.36117 1.11133,-1.68554 0.13026,-0.32551 0.1758,-0.51122 0.21289,-0.66016 0.0742,-0.29787 0.0909,-0.43541 0.10742,-0.55273 0.0331,-0.23466 0.0397,-0.35 0.0488,-0.47266 0.0182,-0.24531 0.0272,-0.46426 0.0371,-0.73242 0.0198,-0.53633 0.0378,-1.235472 0.0527,-2.115236 0.0299,-1.759526 0.0537,-4.217008 0.0723,-7.154297 0.0371,-5.874576 0.0515,-13.658641 0.0469,-21.439453 -0.005,-7.780811 -0.0281,-15.554321 -0.0723,-21.404297 -0.0221,-2.924987 -0.05,-5.365737 -0.082,-7.107421 -0.016,-0.870843 -0.0321,-1.561335 -0.0527,-2.089844 -0.0103,-0.264255 -0.0212,-0.477595 -0.041,-0.728516 -0.01,-0.12546 -0.0147,-0.242122 -0.0566,-0.511719 -0.0209,-0.134798 -0.0358,-0.286436 -0.15234,-0.68164 -0.0583,-0.197602 -0.12538,-0.452752 -0.38476,-0.941406 -0.25939,-0.488655 -2.61788,-2.323731 -2.61915,-2.324219 -0.005,-0.002 -0.0104,-0.0039 -0.0156,-0.0059 -1.01258,-0.38708 -1.03717,-0.278414 -1.21094,-0.300781 -0.17376,-0.02237 -0.28093,-0.03118 -0.38476,-0.03906 -0.20766,-0.01577 -0.38528,-0.02306 -0.58985,-0.03125 -0.40913,-0.01638 -0.90015,-0.02878 -1.47461,-0.03906 -1.14891,-0.02057 -2.61171,-0.0335 -4.07812,-0.03711 -1.46641,-0.0036 -2.93053,0.0027 -4.08008,0.01758 -0.57478,0.0074 -1.06556,0.01507 -1.47461,0.0293 -0.20452,0.0071 -0.38345,0.01482 -0.58984,0.0293 -0.1032,0.0072 -0.20789,0.01627 -0.37891,0.03711 -0.17102,0.02084 -0.20301,-0.07803 -1.17969,0.279297 l -0.006,0.0059 h -0.008 c -0.002,6.61e-4 -2.03785,1.353832 -2.37305,1.833985 -0.23267,0.333306 -0.29253,0.5064 -0.38085,0.705078 -0.0173,0.03107 -0.0342,0.06232 -0.0508,0.09375 -0.0242,0.05723 -0.0973,0.167033 -0.11718,0.216797 -0.18632,0.466226 -0.21897,0.673713 -0.25586,0.845703 -0.0738,0.343979 -0.085,0.490448 -0.10157,0.640625 -0.0331,0.300353 -0.0472,0.529055 -0.0625,0.808594 -0.0306,0.559077 -0.0552,1.26153 -0.0781,2.144531 -0.0428,1.648525 -0.0772,4.002516 -0.10742,6.6875 -1.31149,-2.796048 -2.86476,-5.383916 -4.95508,-7.44336 -5.10147,-5.026811 -12.62062,-7.466493 -19.85156,-6.751953 -7.51272,0.743079 -14.01988,3.770052 -18.40821,9.134766 -1.58394,1.936362 -2.79362,4.193393 -3.83789,6.597656 -1.67129,-4.751175 -4.97093,-8.80892 -9.34961,-11.626953 0.68855,-0.659997 1.27015,-1.412805 1.50782,-2.126953 0.41184,-1.237541 0.30845,-2.086144 0.21289,-2.724609 -0.19112,-1.276932 -0.54183,-1.988906 -0.93555,-2.822266 -0.60431,-1.279118 -1.64382,-2.914812 -2.72266,-4.617188 0.46672,-0.559724 0.98156,-1.067819 1.36914,-1.765625 0.29301,-0.527525 0.5083,-1.149217 0.6875,-1.771484 0.26002,-0.06041 0.54068,-0.05056 0.78516,-0.140625 0.29783,0.116997 0.55532,0.302495 0.87695,0.373047 2.86909,0.630083 5.18238,-0.748775 6.5,-2.341797 1.31826,-1.593782 2.22903,-4.0967 1.10157,-6.791015 -1.32285,-3.163566 -4.30594,-5.4176365 -8.42188,-3.9199224 l -0.002,0.00195 c -0.0831,0.030271 -0.13968,0.095504 -0.2207,0.1289062 -0.18979,-0.072995 -0.3166,-0.1862054 -0.5254,-0.2441406 -1.53611,-0.426243 -3.25596,-0.117678 -4.32226,0.3535156 l -0.002,0.00195 h -0.002 c -0.44822,0.1986312 -0.80893,0.5787132 -1.21289,0.8847662 -0.48787,-0.258133 -0.92781,-0.588688 -1.45898,-0.7714849 -1.23897,-0.426909 -1.50485,-0.3444079 -2.09375,-0.4023438 -0.58891,-0.057936 -1.23004,-0.098577 -1.93946,-0.1328125 -1.41883,-0.068472 -3.09596,-0.1067419 -4.74609,-0.1152343 -1.65013,-0.00849 -3.25331,0.012059 -4.55469,0.068359 -0.65068,0.02815 -1.20818,0.059594 -1.7832,0.1269532 -0.28751,0.03368 -0.55697,0.061923 -1.03125,0.1796875 -0.23714,0.058882 -0.51903,0.1210982 -1.04492,0.3691398 -0.52562,0.247912 -1.71169,0.503594 -2.58203,2.769532 -4.6e-4,0.0012 -0.002,7.58e-4 -0.002,0.002 v 0.0039 c -0.6593,1.716932 -0.3956,1.769979 -0.41992,2.283203 -0.0244,0.514179 -0.0258,1.014836 -0.0117,1.519531 0.008,0.299407 0.0377,0.598052 0.0586,0.894532 -0.93503,-0.0096 -1.74707,-0.03102 -2.73047,-0.03125 -1.97408,-4.73e-4 -3.88657,0.02229 -5.49024,0.06055 -0.002,-0.153692 0.004,-0.364832 0.002,-0.511718 -0.0116,-0.70668 -0.0298,-1.323083 -0.0664,-1.884766 -0.0183,-0.280841 -0.0387,-0.540065 -0.084,-0.86914 -0.0451,-0.328381 0.21261,-0.414637 -0.60547,-1.94336 l -0.002,-0.002 c -1.25414,-2.341871 -2.37125,-2.289701 -2.96093,-2.5019527 -0.58998,-0.2123615 -0.98237,-0.2817595 -1.36328,-0.3457031 -0.76182,-0.1278874 -1.43287,-0.1691632 -2.12891,-0.1835938 -0.69604,-0.014431 -1.3619,-0.00329 -2.13867,0.097656 -0.38839,0.050475 -0.78721,0.1031138 -1.43555,0.3222656 -0.4449,0.1503861 -1.31086,0.258577 -2.16601,1.203125 -1.61313,-1.5606286 -2.16912,-1.273199 -2.625,-1.3730469 -0.47016,-0.1029739 -0.7982,-0.136343 -1.12891,-0.1660156 -0.66143,-0.059345 -1.28512,-0.070253 -1.92188,-0.060547 -0.63676,0.00971 -1.24496,0.037921 -1.91406,0.1230469 -0.33455,0.042563 -0.66307,0.082673 -1.21094,0.2402344 -0.27393,0.078781 -0.60075,0.1684974 -1.14843,0.4667972 -0.16061,0.08747 -0.41875,0.279841 -0.64649,0.427734 l -1.61719,-0.03516 h -0.002 c -0.99465,-0.02326 -1.32526,-0.139744 -2.6543,0.06836 -0.16276,0.02549 -0.45676,0.139949 -0.6914,0.205078 -0.9067,-0.8725912 -2.10906,-1.3712497 -3.36719,-1.3964841 L 248.449,9.4239599 h -0.002 c -1.59826,-0.015275 -2.81361,-0.013262 -3.73243,0.011719 -0.45964,0.012497 -0.82988,0.025845 -1.2539,0.066406 -0.21201,0.020281 -0.42044,0.036194 -0.82227,0.1230469 -0.20091,0.043427 -0.44302,0.092563 -0.89648,0.2773438 -0.24992,0.1018374 -0.64361,0.2511524 -1.10938,0.5878904 -0.55463,-0.457545 -1.16197,-0.8767674 -1.85156,-1.2285154 -3.22625,-1.6453658 -6.21599,-1.9909725 -9.75977,-0.8808594 -6.4e-4,2.015e-4 -0.001,-2.017e-4 -0.002,0 l -0.004,0.00195 c -1.87631,0.5885555 -3.55204,1.7921168 -5.00976,3.2265628 -0.68576,-0.704076 -1.29809,-1.488388 -2.14453,-2.0019534 -2.76458,-1.6773672 -6.22742,-2.0861429 -9.4375,-1.2519531 -1.96939,0.5117117 -3.81861,1.5646683 -5.36328,2.9492195 -2.90968,-2.767482 -7.27679,-4.1929559 -11.69336,-2.9062508 -1.64911,0.4802745 -3.16009,1.3059004 -4.44336,2.3710938 -1.50263,-1.2537693 -3.32574,-2.1790397 -5.36524,-2.5996094 -1.88183,-0.3881187 -4.01357,-0.3079051 -5.85742,0.2285156 -3.26517,0.9501824 -6.06708,3.1766418 -7.42578,6.2050788 -0.39614,0.882978 -0.61795,1.822061 -0.75195,2.777343 -0.9639,-0.02456 -1.98225,-0.04203 -3.06446,-0.0293 -0.19324,0.0023 -0.35107,0.01429 -0.54296,0.01758 0.014,-0.212142 0.0492,-0.466281 0.0586,-0.634766 0.0356,-0.636552 0.0165,-1.124796 0.002,-1.707031 v -0.002 c -0.0236,-0.92026 0.11174,-1.262902 -0.24023,-2.701172 -0.17599,-0.719135 -0.76039,-1.965071 -1.58594,-2.7363287 -0.82482,-0.7705697 -1.38231,-0.948007 -1.51562,-1.0117187 h -0.002 c -1.37141,-0.6573614 -1.80141,-0.5747004 -2.42187,-0.6523438 -0.62093,-0.077702 -1.22742,-0.1141469 -1.85157,-0.1308594 -1.24704,-0.033392 -2.31351,-0.075217 -3.89257,0.2871094 -0.002,3.617e-4 -0.002,-3.624e-4 -0.004,0 l -0.004,0.00195 c -2.30647,0.5289555 -4.1697,1.6155647 -5.80273,2.9316412 -0.74371,-0.662774 -1.5874,-1.2523954 -2.56445,-1.7148444 h -0.002 c -1.42084,-0.6724075 -2.2899,-0.773815 -3.43554,-0.9824218 -1.14625,-0.2087165 -2.38712,-0.3713846 -3.62305,-0.4902344 -1.23593,-0.1188499 -2.44833,-0.1930077 -3.56641,-0.1972657 -0.55903,-0.00213 -0.94319,-0.1158501 -1.49023,-0.09375 z m 115.06055,5.9511718 c 0.22207,-0.06553 0.28475,-0.01227 0.39062,0.02149 -0.0926,0.0062 -0.10384,0.0101 -0.21484,0.01563 -0.0564,0.0028 -0.1622,0.0013 -0.22266,0.0039 0.009,-0.003 0.0378,-0.03835 0.0469,-0.04102 z m 75.13671,4.068359 c -0.36863,0.640037 -0.8992,1.197558 -1.59179,1.458985 0.63053,-0.364586 1.17379,-0.862524 1.59179,-1.458985 z M 145.90234,30.425781 c 0.48057,1.289712 0.99228,2.567995 1.78321,3.679688 -1.0917,-0.01937 -1.80018,-0.06033 -2.99414,-0.07227 0.0196,-0.495507 0.039,-1.060205 0.0566,-1.787109 0.0101,-0.416503 0.0159,-1.101853 0.0254,-1.583985 0.37449,-0.07315 0.75032,-0.128299 1.1289,-0.236328 z m 25.13282,0.267578 c 0.1643,0.823864 0.36062,1.641848 0.72656,2.390625 1.79132,3.665399 5.5053,6.082962 9.82812,6.753907 3.57734,0.554923 6.90385,-0.55249 9.41993,-2.529297 0.3317,0.263359 0.72245,0.457991 1.08789,0.683593 -3.45973,1.82087 -6.59337,4.139137 -9.14454,7.064454 -1.71939,1.971557 -3.11874,4.218179 -4.35156,6.589843 -1.00278,-4.706946 -3.22543,-8.868591 -6.92578,-11.724609 -1.66943,-1.288504 -3.59921,-2.236666 -5.6543,-3.044922 0.81244,-0.607828 1.42075,-1.448426 1.74414,-2.410156 V 30.71875 c 0.29312,0.0018 0.53539,0.01367 0.83204,0.01367 0.86859,0 1.64263,-0.0225 2.4375,-0.03906 z m 113.02929,0.796875 c 0.13349,0.002 0.20833,0.006 0.35157,0.0078 1.58186,0.01971 3.73776,0.02628 6.21679,0.01367 L 293.07422,31.5 c 0.009,0.526728 0.10742,0.97489 0.10742,1.412109 0,0.522664 -0.0289,0.998379 0.0859,1.84961 0.0758,0.561742 0.43304,1.484632 1,2.410156 -4.9667,2.589378 -8.81732,6.813718 -10.70117,12.121094 -1.62637,-4.119369 -4.45532,-7.669086 -8.14844,-10.304688 1.10268,-0.225587 2.19852,-0.428671 3.26367,-0.958984 2.72939,-1.358896 4.41559,-4.034561 5.38281,-6.539063 z m 34.47852,7.958985 c 9.2e-4,-3.56e-4 0.003,3.56e-4 0.004,0 l -0.008,0.0039 c 0.002,-6.07e-4 0.002,-0.0033 0.004,-0.0039 z m -106.26953,1.876953 c -0.002,-0.0171 0.0142,0.23209 0.0273,0.519531 -0.10663,-0.37361 -0.026,-0.507811 -0.0273,-0.519531 z M 65.023437,43.654297 c -0.0026,0.0044 -0.0012,0.01128 -0.0039,0.01563 -9.1e-5,1.15e-4 -0.0019,0.0018 -0.002,0.002 6.73e-4,-0.0046 0.0013,-0.0091 0.002,-0.01367 l 0.0039,-0.0039 z m 142.070313,0.33789 0.004,0.002 c 1.08238,-0.05396 3.38817,0.08077 5.23242,0.3125 0.006,0.671631 0.0176,0.982311 0.0176,1.933593 -5.43233,-0.436427 -10.64506,0.902612 -14.84766,3.8125 -5.57083,3.857253 -9.2422,10.331189 -9.97852,17.958985 -0.81836,8.478139 2.28544,16.175485 7.94922,20.970703 4.36681,3.697141 10.18996,5.542377 16.37891,5.183594 8.9e-4,0.183961 0.003,0.108027 0.004,0.302734 10e-4,0.731919 -0.009,1.235694 -0.0137,1.882812 -0.20065,0.03089 -0.32394,0.06025 -0.53125,0.08984 -8.15665,1.165545 -14.6914,-0.998581 -19.42578,-5.40039 -4.73438,-4.40181 -7.77263,-11.265334 -7.76953,-20.238282 0.003,-8.15812 2.42593,-14.64335 6.37695,-19.173828 3.95028,-4.529619 9.45867,-7.278945 16.60352,-7.636719 z m 180.70508,0.0059 c 0.40419,9.95e-4 0.71495,0.0074 1.11133,0.0098 0.0198,1.469189 0.0413,2.868499 0.0566,4.904297 0.0438,5.811462 0.0676,13.570546 0.0723,21.333985 0.005,7.763438 -0.01,15.534732 -0.0469,21.371093 -0.0133,2.106724 -0.034,3.580351 -0.0527,5.085938 -0.38211,0.0051 -0.67178,0.0163 -1.0625,0.01953 -0.46134,0.0038 -0.82371,-0.003 -1.27539,-0.002 -0.0256,-1.480198 -0.0521,-2.903579 -0.0703,-4.96875 -0.0513,-5.830214 -0.0719,-13.615978 -0.0645,-21.398437 0.007,-7.78246 0.043,-15.567184 0.10547,-21.396485 0.0221,-2.059737 0.0498,-3.477315 0.0781,-4.955078 0.40895,-4.42e-4 0.73096,-0.0049 1.14844,-0.0039 z M 140.43164,44 c 1.01048,5.22e-4 1.92757,-0.002 3.07617,0.0078 3.82575,0.03279 8.23967,0.141952 9.04492,0.203125 h 0.002 c 6.64144,0.50276 10.77858,1.903365 13.01172,3.626954 2.23314,1.723588 3.31097,3.806826 3.63671,8.167968 0.34074,4.561065 -0.53551,7.714372 -2.1582,9.984375 -1.62268,2.270004 -4.16729,3.971003 -8.3789,4.931641 -0.5324,0.121442 -1.58268,0.235413 -2.50196,0.363281 -9.3e-4,-0.237287 -0.008,-0.411634 -0.008,-0.65039 2.8e-4,-0.645953 0.0178,-1.148142 0.0254,-1.757813 2.04704,-0.469532 3.99665,-1.161845 5.63281,-2.542969 2.40367,-2.028987 3.70118,-5.3052 3.70117,-8.347656 0,-2.269615 -0.5152,-4.753085 -2.04492,-6.779297 -1.52971,-2.026212 -3.74264,-3.195012 -5.92187,-3.855469 -1.88313,-0.571269 -3.87586,-0.859461 -5.75977,-1.02539 -0.94195,-0.08297 -1.81446,-0.128457 -2.70508,-0.09766 -0.4453,0.0154 -0.88215,0.03652 -1.49609,0.158203 -0.61394,0.12168 -1.55733,-0.156662 -3.23242,1.861328 -0.004,0.0046 -0.008,0.0091 -0.0117,0.01367 -1.3522,1.640541 -0.97066,1.847545 -1.0332,2.128906 -0.0625,0.281361 -0.0782,0.421472 -0.0937,0.546875 -0.031,0.250806 -0.0419,0.408031 -0.0527,0.583984 -0.0216,0.351908 -0.0353,0.738991 -0.0488,1.246094 -0.027,1.014206 -0.0481,2.474393 -0.0664,4.496094 -0.0366,4.043402 -0.0587,10.309294 -0.0742,19.378906 l -0.0352,19.992188 h -2.51172 l -0.0254,-25.837891 C 140.38735,55.336403 140.38251,47.946418 140.43164,44 Z m 212.32422,0.128906 c 5.9e-4,-5.8e-5 0.001,5.8e-5 0.002,0 3.75912,-0.370644 9.57143,1.67899 11.84961,3.923828 v 0.002 c 2.42058,2.384817 5.15517,8.928779 6.08594,16.328125 0.93077,7.399347 0.2918,15.623818 -1.85156,21.326172 -2.61443,6.952664 -5.1719,9.197364 -11.56641,10.517578 -7.69394,1.589466 -13.25882,-0.767827 -16.57031,-6.380859 l -0.002,-0.002 c -1.33637,-2.267516 -2.15865,-4.110854 -2.85742,-6.359375 -1.56825,-5.048825 -2.26868,-11.7965 -1.77929,-18.042969 0.5897,-7.524391 2.43289,-12.610839 5.03906,-15.796875 2.60585,-3.185639 6.05134,-4.961469 11.65039,-5.515625 z m -44.83789,0.208985 c 1.05974,0.08783 2.06329,0.2708 3.03906,0.542968 7.76641,2.165947 11.33907,8.238745 9.45117,15.69336 0.0188,-0.07432 -1.41964,2.950425 -2.875,4.773437 -0.18128,0.226543 -0.35186,0.447992 -0.50781,0.65625 -0.15698,0.209634 -0.18215,0.183387 -0.54492,0.794922 -0.003,0.0046 -0.005,0.0091 -0.008,0.01367 -0.81758,1.388892 -0.75487,2.671667 -0.63672,3.404297 0.11815,0.732629 0.30344,1.129925 0.45117,1.443359 0.29545,0.626869 0.52046,0.912266 0.73437,1.197266 0.42784,0.57 0.83569,1.01097 1.34571,1.541015 2.23622,2.326174 3.23615,3.877796 3.6875,5.185547 0.45151,1.308214 0.5502,2.725851 0.11328,5.419922 -1.66027,10.234672 -15.26644,15.279716 -25.73633,8.388672 -6.77375,-4.458065 -7.74406,-13.775314 -2.6582,-18.390625 0.68924,-0.625394 1.24652,-1.239965 1.76172,-1.939453 0.25759,-0.349744 0.50238,-0.697593 0.7832,-1.271484 0.28067,-0.573582 1.45396,-1.177972 0.25,-4.304688 l -0.002,-0.0039 c -0.28656,-0.74398 -0.28202,-0.625507 -0.375,-0.800781 -0.0935,-0.17614 -0.19811,-0.363704 -0.31641,-0.576172 -0.2366,-0.424937 -0.52978,-0.939506 -0.8418,-1.47461 -3.21721,-5.516142 -3.47492,-7.089664 -2.36718,-11.195312 1.35293,-5.016519 5.60139,-8.513818 11.87304,-9.070313 h 0.002 c 1.20151,-0.106728 2.31721,-0.115177 3.37695,-0.02734 z m -49.01367,0.03125 c 1.91435,-0.181992 1.2809,-0.177922 3.41992,0 h 0.002 c 9.22798,0.764461 14.50454,7.809082 12.49805,15.796875 v 0.002 c -0.2993,1.193235 -1.00045,2.635635 -3.03906,5.30664 -0.19832,0.259744 -0.49232,0.548073 -0.92969,1.429688 -0.43737,0.881614 -0.77155,2.796838 -0.36719,4.144531 0.80872,2.695387 1.67175,2.771378 2.46484,3.599609 2.7454,2.868495 3.38431,4.229853 3.5625,5.257813 1.03243,5.947438 -1.16031,10.45014 -5.18164,13.427734 -4.02132,2.977595 -10.01735,4.21554 -16.67578,1.984375 -6.44385,-2.158363 -9.44044,-6.136843 -9.59961,-12.160156 -0.065,-2.451765 0.10506,-3.474876 0.56446,-4.529297 0.4594,-1.05442 1.48857,-2.499455 3.74609,-4.908203 0.14258,-0.152136 0.33635,-0.292145 0.81055,-0.935547 0.4742,-0.643402 1.20073,-2.329378 1.08593,-3.746094 -0.22935,-2.83048 -0.98618,-2.861977 -1.44531,-3.623046 l -0.002,-0.002 c -3.07297,-5.117545 -3.45446,-6.510772 -3.23633,-9.404296 0.50521,-6.712156 4.73605,-10.920962 12.32227,-11.640626 z m -44.45703,0.28125 c 0.0524,0.01126 0.17324,0.02655 0.21875,0.03711 0.23274,0.05402 0.3805,0.108857 0.27734,0.07031 -0.0533,-0.01993 -0.19787,0.04611 -0.49609,-0.107421 z m -145.458989,1.28125 c 0.505236,-0.0013 1.139415,6.55e-4 1.695313,0 -0.187444,1.159215 -0.432763,2.661505 -0.78125,4.693359 -0.452742,2.63971 -1.011574,5.683849 -0.96875,5.486328 -0.09979,0.459371 -0.235066,0.958951 -0.216797,1.910156 0.0051,0.264471 0.140596,0.688316 0.21875,1.056641 -0.431576,0.647585 -0.809891,1.324466 -0.925781,1.716797 -0.300837,1.018437 -0.349794,1.566576 -0.582032,2.892578 v 0.0039 c -0.180369,1.033204 -0.412161,2.310505 -0.480468,2.666016 -0.105188,0.547456 -0.328862,1.786459 -0.527344,2.90039 -0.192236,1.078877 -0.536052,2.965597 -0.75586,4.150391 -0.08396,0.452312 -0.1653,0.93231 -0.246093,1.419922 -0.717992,7.42e-4 -1.075839,-0.0055 -1.691407,-0.0059 0.255209,-1.316827 0.450821,-2.255914 0.953125,-5.097657 l 0.002,-0.01172 c 0.213658,-1.191823 0.433047,-2.382194 0.65625,-3.572266 v -0.002 c 0.2965,-1.577174 0.636674,-2.682185 0.328125,-4.597656 0.486261,-0.861454 0.799071,-1.691457 0.90039,-2.181641 0.405511,-1.959451 2.114663,-11.442717 2.421875,-13.421875 v -0.002 c 1.36e-4,-8.77e-4 -1.36e-4,-0.003 0,-0.0039 z m 236.749999,0.109375 c -1.79101,0.08453 -3.53088,0.608223 -5.01758,1.548828 -2.9734,1.88121 -4.86914,5.376901 -4.86914,9.128906 0,3.849407 2.06819,7.359217 5.10547,9.185547 3.03661,1.825927 7.03708,2.023596 10.47266,0.332031 l 0.002,-0.002 c 7.76345,-3.822309 7.33878,-15.396194 -0.36719,-19.109375 -1.69178,-0.814994 -3.53515,-1.168511 -5.32617,-1.083984 z M 261.4707,46.0625 c -3.62554,-0.209149 -7.13725,1.482533 -9.14062,4.107422 -2.67117,3.499851 -3.09909,9.022697 0.0117,13.142578 4.75713,6.301832 14.532,5.539973 17.99609,-1.640625 v -0.002 c 2.64186,-5.479707 0.36152,-12.22113 -5.25586,-14.728516 -1.18181,-0.527724 -2.40281,-0.80919 -3.61133,-0.878906 z m -197.082028,0.0957 -0.01563,0.04492 c 0.0015,-0.0046 -0.0015,-0.0091 0,-0.01367 0.0062,-0.01871 0.0094,-0.01216 0.01563,-0.03125 z m 289.449218,0.396484 c -1.44646,-0.06767 -2.89879,0.152715 -4.20703,0.69336 -2.61649,1.081289 -4.49432,3.090541 -5.86719,5.363281 -2.74574,4.54548 -3.91625,10.542743 -3.91406,17.720703 0.002,7.150551 1.27883,13.24104 4.05078,17.837891 1.38597,2.298425 3.22697,4.322022 5.82617,5.470703 2.59921,1.148681 5.89163,1.031604 8.50977,-0.242188 4.15377,-2.020956 6.18097,-5.895017 7.49219,-9.90625 1.31122,-4.011232 1.86512,-8.520341 1.84179,-13.041015 -0.0233,-4.520674 -0.6245,-9.024157 -1.97656,-13.023438 -1.35206,-3.99928 -3.41524,-7.852259 -7.58398,-9.83789 -1.28513,-0.612205 -2.72542,-0.96749 -4.17188,-1.035157 z M 26.503906,46.923828 c 0.502487,0.56421 1.01199,1.122792 1.511719,1.689453 0.0039,0.0046 0.0078,0.0091 0.01172,0.01367 2.276937,2.563536 4.557817,5.122012 6.845703,7.675781 l 0.0039,0.002 c 2.049891,2.284774 4.091446,4.575451 6.126953,6.873047 0.667296,0.777278 1.079543,1.587398 3.181641,2.308594 -0.32123,1.600551 -0.646567,3.200465 -0.978516,4.798828 l -0.002,0.0059 c -0.0015,0.0073 -0.0024,0.0122 -0.0039,0.01953 -0.41612,-0.471002 -0.548471,-0.615248 -1.011719,-1.140625 l -0.002,-0.002 c -0.735932,-0.835591 -1.541387,-1.74577 -1.880859,-2.123047 l -0.0059,-0.0059 c -0.190607,-0.212508 -2.660089,-2.994534 -5.292969,-5.96875 l -0.002,-0.002 c -2.638701,-2.978663 -5.041436,-5.688694 -5.439453,-6.134765 -0.59843,-0.671801 -1.118302,-1.16572 -2.08789,-1.701172 -0.310973,-0.171734 -0.750749,-0.37617 -1.388672,-0.53125 -0.0688,-0.305669 -0.01516,-0.586521 -0.117188,-0.900391 -0.310916,-0.95644 -0.854589,-1.785599 -1.470703,-2.546875 0.625986,-0.765018 0.383138,-0.458351 1.373047,-1.599609 v -0.002 c 0.266619,-0.30734 0.368924,-0.428097 0.628906,-0.728516 z m 191.160154,0.160156 c 0.27298,0.07115 0.21584,0.202937 0.0312,0.148438 -0.17365,-0.05129 -0.34582,-0.04812 -0.51953,-0.0957 0.10782,0.0066 0.42221,-0.06996 0.48828,-0.05273 z m 135.78516,9.40625 c 0.0259,-0.01071 -0.24948,-0.115638 0.25976,0.126953 0.25376,0.12087 1.52418,1.387234 2.41211,4.013672 0.88794,2.626438 1.43251,6.255847 1.45118,9.873047 0.0187,3.617201 -0.48933,7.249123 -1.34961,9.88086 -0.86028,2.631736 -2.1146,3.901441 -2.36133,4.021484 -0.40637,0.197708 -0.0245,0.117616 -0.0918,0.08789 -0.0673,-0.02973 -0.64729,-0.398082 -1.30469,-1.488282 -1.3148,-2.180398 -2.61343,-6.848285 -2.61523,-12.677734 -0.002,-5.94404 1.25214,-10.526355 2.47266,-12.546875 0.61025,-1.01026 1.10103,-1.280305 1.12695,-1.291015 z m -200.39063,0.16211 c 0.55814,0.102978 1.30094,0.182481 1.58789,0.269531 h 0.002 c 0.94877,0.287543 0.94305,0.447259 0.83984,0.310547 -0.10321,-0.136712 0.0273,-0.170479 0.0273,0.753906 0,0.824544 0.0104,0.569315 -0.15039,0.705078 -0.13655,0.115272 -0.94879,0.461663 -2.32421,0.675781 0.003,-0.465903 0.004,-1.597741 0.008,-2.013671 0.003,-0.323603 0.007,-0.407066 0.01,-0.701172 z m -4.29101,3.783203 c -0.005,0.0032 -0.003,0.0046 -0.008,0.0078 -0.014,0.0086 -0.001,-0.003 -0.0156,0.0059 z m 135.08594,3.833984 c 0.55637,1.501886 1.28176,3.02728 2.13671,4.574219 -0.91575,0.982395 -1.77881,1.987616 -2.45312,3.091797 -0.6322,-0.920286 -1.403,-1.847523 -2.2168,-2.773438 1.09357,-1.646334 1.94336,-3.28347 2.53321,-4.892578 z M 98.8125,65.208984 c 1.71891,4.09065 5.07498,7.462825 9.66992,8.873047 v 0.002 c 2.34297,0.718407 4.69313,0.69354 7.0293,0.357422 l -0.60156,1.330078 c -0.005,0.0013 -0.003,6.74e-4 -0.008,0.002 -5.58936,1.445295 -9.91376,-0.07871 -12.80273,-3.082031 -1.79848,-1.869668 -2.95041,-4.444142 -3.28711,-7.482422 z m 140.28516,1.384766 c 0.35389,0.738371 0.81763,1.529359 1.24609,2.302734 -0.41217,0.478872 -0.88089,0.977381 -1.24609,1.449219 z m 67.64453,4.818359 c -2.7526,-0.08163 -5.45296,0.687831 -7.58985,2.353516 -2.84917,2.220913 -4.39905,5.902026 -4.27539,9.644531 v 0.002 c 0.11497,3.452323 1.67853,6.742357 4.29102,8.810547 2.61249,2.06819 6.1105,2.842774 9.50976,2.28125 5.8014,-0.958127 9.41158,-6.160076 9.59375,-11.035156 0.18218,-4.87508 -3.0526,-10.341801 -8.77734,-11.691406 -0.91018,-0.214677 -1.83442,-0.338023 -2.75195,-0.365235 z m -44.7793,0.02344 c -3.37037,-0.308043 -6.69396,0.734859 -9.07031,2.892578 -3.16847,2.876959 -4.52107,7.647782 -3.25196,12.175781 2.39403,8.550621 13.42423,11.018109 19.65235,4.839844 5.94159,-5.892031 3.90464,-16.195954 -3.97852,-19.142578 -1.10068,-0.411863 -2.2281,-0.662944 -3.35156,-0.765625 z m -1.60352,9.90625 c 0.33954,-0.06046 0.79703,-0.01821 1.45118,0.226562 h 0.002 c 0.57035,0.213189 1.00447,2.115626 0.43945,2.675782 l -0.002,0.002 c -0.76788,0.761735 -2.80649,0.181926 -2.98047,-0.439453 v -0.002 c -0.36689,-1.309 -0.0211,-1.739224 0.3457,-2.072265 0.1834,-0.166521 0.40461,-0.330169 0.74414,-0.390626 z m 45.51172,0.07031 c 0.29524,-0.05147 0.71503,-0.04649 1.32618,0.09766 h 0.002 c 1.11726,0.263394 1.1117,0.685564 1.07812,1.583984 -0.0336,0.89842 -0.0849,1.354096 -1.22851,1.542969 -1.00173,0.165476 -1.42807,-0.05935 -1.67383,-0.253907 -0.24576,-0.194559 -0.47488,-0.431057 -0.50391,-1.302734 -0.0353,-1.069495 0.21887,-1.261445 0.42969,-1.425781 0.10541,-0.08217 0.27507,-0.190722 0.57031,-0.242188 z M 20.353516,84.671875 c -0.04024,0.01242 -0.04754,0.01664 -0.107422,0.0332 -0.173377,0.04794 -0.2619,0.177734 -1.31836,0.177734 1.40006,0 1.279183,-0.157336 1.425782,-0.210937 z m 197.074214,8.619141 c 0.0493,-0.01361 -0.089,0.06856 -0.71875,0.115234 -0.002,1.64e-4 -0.008,-1.59e-4 -0.01,0 0.24478,-0.06042 0.48351,-0.04762 0.72851,-0.115234 z m 174.66407,3.326171 c 0.0939,-0.02366 0.0995,0.0068 0.16211,0.01367 -0.0697,0.003 -0.11646,0.0068 -0.19336,0.0098 0.006,-0.0015 0.0258,-0.02207 0.0312,-0.02344 z" id="path2"/>
        <path style="baseline-shift:baseline;display:inline;overflow:visible;vector-effect:none;fill:#040404;fill-rule:evenodd;stroke-linecap:round;stroke-linejoin:round;paint-order:markers stroke fill;enable-background:accumulate;stop-color:#000000;stop-opacity:1" d="m 135.557,12.819 c -0.297,0.133 -0.306,21.735 -0.009,22.032 0.284,0.284 3.898,0.276 4.082,-0.008 0.074,-0.115 0.172,-4.146 0.218,-8.96 l 0.084,-8.75 0.623,-0.05 c 1.068,-0.09 2.648,0.404 3.187,0.993 1.209,1.323 -0.038,3.642 -1.96,3.642 -0.861,0 -1.397,2.823 -0.761,4.01 0.327,0.61 3.421,0.163 4.991,-0.723 4.219,-2.38 4.182,-9.18 -0.06,-11.187 -1.753,-0.83 -9.182,-1.544 -10.395,-1 m 22.025,0.136 c -10.665,2.44 -10.85,19.707 -0.234,21.852 1.561,0.315 3.581,0.264 4.75,-0.12 l 0.667,-0.22 v -3.973 l -2.083,-0.012 c -3.527,-0.022 -5.408,-1.463 -6.229,-4.774 -1.224,-4.936 2.708,-9.564 7.237,-8.52 1.285,0.298 1.345,0.202 1.289,-2.034 -0.047,-1.834 -0.051,-1.85 -0.506,-2.068 -0.688,-0.33 -3.677,-0.41 -4.891,-0.131 m 23.516,0.245 c -4.158,1.21 -5.883,5.055 -3.958,8.822 0.853,1.67 0.852,1.636 0.134,2.474 -3.518,4.11 -0.896,9.474 5.083,10.402 6.15,0.954 10.629,-5.874 6.717,-10.24 -0.838,-0.934 -0.868,-1.104 -0.328,-1.825 2.797,-3.733 0.632,-8.771 -4.198,-9.766 -1.217,-0.251 -2.271,-0.21 -3.45,0.133 m 15.667,0 c -4.426,1.289 -6.071,5.53 -3.641,9.39 0.532,0.846 0.501,1.048 -0.324,2.118 -2.507,3.249 -1.382,7.584 2.437,9.393 6.847,3.24 14.174,-3.755 9.694,-9.258 -1.092,-1.341 -1.073,-1.15 -0.249,-2.418 3.189,-4.908 -1.996,-10.95 -7.917,-9.225 m 16.917,-0.004 c -4.195,1.09 -6.167,4.457 -6.167,10.528 0,7.699 3.514,12.105 9.029,11.324 4.635,-0.657 6.83,-4.121 6.86,-10.83 0.011,-2.583 -0.058,-3.098 -0.756,-5.583 -1.217,-4.34 -4.81,-6.52 -8.966,-5.44 m 16.833,-0.042 c -3.73,1.168 -5.44,4.04 -5.779,9.709 -0.544,9.082 5.326,14.616 11.827,11.15 5.587,-2.977 5.549,-17.438 -0.054,-20.296 -1.651,-0.842 -4.306,-1.092 -5.994,-0.563 m 87.575,1.296 c -2.067,0.916 -0.77,4.079 1.316,3.208 1.158,-0.484 1.429,-1.77 0.567,-2.685 -0.64,-0.68 -1.186,-0.831 -1.883,-0.523 m 4.758,-0.113 c -1.653,0.602 -1.523,3.095 0.182,3.469 1.176,0.259 2.386,-1.204 1.919,-2.32 -0.366,-0.876 -1.359,-1.42 -2.101,-1.15 m -79.251,0.22 c -0.253,0.409 -0.234,3.488 0.024,3.745 0.359,0.36 9.082,0.378 9.379,0.02 0.127,-0.153 0.177,-0.851 0.146,-2.042 l -0.048,-1.81 -4.697,-0.044 c -3.136,-0.03 -4.732,0.014 -4.804,0.13 m 20.852,0.095 c -0.203,0.53 -0.112,8.99 0.099,9.203 0.132,0.132 0.834,0.2 2.05,0.2 1.217,0 1.919,-0.068 2.05,-0.2 0.285,-0.285 0.285,-8.982 0,-9.267 -0.33,-0.33 -4.069,-0.273 -4.199,0.064 m 11.167,0 c -0.055,0.145 -0.103,3.05 -0.105,6.458 -0.006,9.549 0.258,9.168 -6.413,9.245 -5.123,0.06 -4.75,-0.113 -4.75,2.199 0,2.16 -0.388,2 4.883,2 6.959,0 8.852,-0.942 10.343,-5.15 0.399,-1.128 0.649,-13.983 0.284,-14.664 -0.252,-0.471 -4.065,-0.55 -4.242,-0.088 m 22.667,0 c -0.19,0.494 -0.111,3.327 0.099,3.536 0.148,0.148 1.732,0.2 6.096,0.2 h 5.896 l 0.487,0.488 c 0.895,0.894 0.978,0.77 -4.176,6.179 a 999.388,999.388 0 0 0 -4.071,4.289 c -1.031,1.103 -1.923,1.544 -3.118,1.544 -1.244,0 -1.314,0.108 -1.314,2.028 0,2.04 0.031,2.066 2.322,1.906 2.713,-0.19 2.597,-0.124 5.638,-3.196 1.49,-1.506 2.779,-2.738 2.864,-2.738 0.372,0 1.821,2.15 3.084,4.578 0.332,0.638 0.695,1.218 0.806,1.289 0.239,0.152 3.473,0.179 3.855,0.032 0.739,-0.283 -0.387,-2.667 -3.52,-7.45 -1.274,-1.945 -1.298,-1.728 0.388,-3.5 1.569,-1.65 2.063,-2.54 2.061,-3.71 -0.005,-2.437 -1.572,-4.6 -3.916,-5.406 -1.335,-0.46 -13.308,-0.521 -13.481,-0.07 m -40.662,1.274 c -0.056,0.209 -0.102,2.99 -0.104,6.18 -0.003,8.428 0.327,8.117 -8.611,8.117 -3.787,0 -5.237,0.053 -5.325,0.194 -0.153,0.248 -0.149,3.703 0.005,3.952 0.201,0.325 11.475,0.254 12.607,-0.08 2.48,-0.73 4.741,-2.962 5.394,-5.327 0.235,-0.851 0.267,-1.854 0.226,-7.156 l -0.048,-6.167 -2.021,-0.046 c -1.981,-0.046 -2.023,-0.04 -2.123,0.333 m -73.683,1.394 c 1.493,0.708 1.534,2.966 0.066,3.574 -1.342,0.556 -2.828,-0.35 -2.816,-1.716 0.013,-1.633 1.338,-2.528 2.75,-1.858 m 15.949,0.155 c 1.61,1.094 0.912,3.578 -1.005,3.58 -1.221,0.002 -2.037,-0.8 -2.028,-1.994 0.011,-1.664 1.655,-2.523 3.033,-1.586 m 33.706,-0.015 c 2.664,1.113 3.161,9.799 0.707,12.385 -2.275,2.397 -4.612,-0.716 -4.617,-6.15 -0.004,-4.56 1.641,-7.183 3.91,-6.235 m -16.716,0.535 c 2.792,2.65 2.087,12.543 -0.909,12.754 -1.76,0.123 -2.824,-1.233 -3.356,-4.278 -1.022,-5.841 1.584,-11.02 4.265,-8.476 m 26.805,2.89 c -0.279,0.177 -0.383,2.929 -0.138,3.632 l 0.131,0.378 4.712,-0.045 4.711,-0.044 0.048,-1.831 c 0.041,-1.577 0.008,-1.86 -0.24,-2.042 -0.351,-0.257 -8.825,-0.3 -9.224,-0.047 m -80.328,1.826 c -0.24,0.449 -0.22,2.563 0.028,2.81 0.285,0.286 10.147,0.286 10.433,0 0.267,-0.267 0.267,-2.665 0,-2.933 -0.39,-0.39 -10.248,-0.274 -10.461,0.123 m 118.623,0.073 c -0.263,0.262 -0.271,3.362 -0.01,3.623 0.088,0.088 3.726,0.133 8.641,0.108 l 8.49,-0.043 0.048,-1.726 c 0.031,-1.13 -0.019,-1.806 -0.145,-1.958 -0.285,-0.343 -16.681,-0.347 -17.024,-0.004 m -97.531,3.682 c 1.356,0.888 1.417,2.973 0.113,3.885 -1.042,0.729 -2.093,0.628 -3.063,-0.295 -1.998,-1.9 0.636,-5.106 2.95,-3.59 m 15.762,0.108 c 1.839,1.309 0.91,4.213 -1.347,4.21 -2.478,0 -3.332,-3.275 -1.144,-4.383 0.84,-0.425 1.739,-0.363 2.491,0.173 m -64.349,12.509 c -0.494,0.184 -0.488,-0.244 -0.457,31.722 l 0.03,30.833 h 12.5 l 0.042,-24.983 c 0.031,-18.13 0.093,-25.045 0.229,-25.21 0.425,-0.512 5.337,-0.08 7.895,0.696 3.128,0.948 4.417,2.656 4.417,5.85 0,3.867 -2.573,6.039 -7.685,6.487 -0.698,0.062 -1.351,0.163 -1.451,0.225 -0.294,0.18 -0.299,11.68 -0.005,11.885 0.459,0.317 5.721,-0.176 8.404,-0.788 10.202,-2.327 15.22,-9.346 14.412,-20.162 -0.788,-10.55 -6.978,-15.327 -21.258,-16.408 -2.738,-0.208 -16.588,-0.326 -17.073,-0.147 m 70.989,-0.08 c -16.699,0.834 -27.728,13.48 -27.734,31.802 -0.007,20.254 14.013,33.289 32.901,30.59 2.424,-0.346 4.502,-0.784 4.716,-0.993 0.074,-0.071 0.128,-2.744 0.122,-5.94 -0.013,-6.108 -0.023,-6.188 -0.755,-5.986 -13.566,3.744 -24.958,-5.901 -23.599,-19.98 1.227,-12.711 11.771,-20.012 23.78,-16.465 1.094,0.323 1.069,0.458 1.069,-5.786 0,-4.267 -0.05,-5.696 -0.21,-5.914 -0.484,-0.661 -6.94,-1.494 -10.29,-1.327 m 174.991,0.087 c -0.458,0.169 -0.517,62.354 -0.06,62.53 0.535,0.205 11.824,0.112 12.036,-0.1 0.324,-0.323 0.287,-62.276 -0.037,-62.401 -0.361,-0.138 -11.57,-0.165 -11.939,-0.03 m -29.574,0.068 c -13.113,1.297 -19.907,9.603 -21.184,25.897 -0.538,6.867 0.185,14.106 1.99,19.917 0.808,2.6 1.83,4.878 3.326,7.416 4.37,7.41 12.538,10.672 21.89,8.74 7.677,-1.585 12.232,-5.67 15.235,-13.656 5.11,-13.595 2.379,-35.306 -5.406,-42.976 -3.69,-3.636 -10.356,-5.881 -15.851,-5.338 m -301.469,0.34 c -0.111,0.407 -0.519,2.25 -0.951,4.307 -0.193,0.917 -0.418,1.967 -0.501,2.333 -0.083,0.367 -0.308,1.417 -0.501,2.334 a 606.1,606.1 0 0 1 -1.074,5.04 c -0.835,3.823 -1.403,6.515 -1.45,6.876 -0.092,0.71 -0.666,0.52 -1.572,-0.521 a 1471.92,1471.92 0 0 0 -6.149,-6.897 2398.915,2398.915 0 0 1 -6.833,-7.66 469.136,469.136 0 0 0 -4.685,-5.233 c -0.619,-0.674 -0.767,-0.625 -1.782,0.586 -0.385,0.46 -1.825,2.133 -3.2,3.718 -5.359,6.178 -5.067,5.646 -3.498,6.393 2.808,1.336 3.366,3.052 2.421,7.448 -0.286,1.329 -0.773,3.616 -1.083,5.083 -0.309,1.467 -0.683,3.229 -0.83,3.917 -0.146,0.687 -0.487,2.3 -0.755,3.583 a 3465.73,3465.73 0 0 1 -1,4.75 c -1.271,6.01 -1.298,5.692 0.404,4.862 0.596,-0.291 1.123,-0.53 1.17,-0.53 0.047,0 0.78,-0.323 1.629,-0.718 0.848,-0.396 2.48,-1.123 3.626,-1.615 3.144,-1.35 3.13,-1.065 0.17,-3.5 -2.718,-2.235 -2.555,-1.757 -1.837,-5.386 1.629,-8.236 2.167,-10.976 2.167,-11.041 0,-0.297 0.629,0.05 1.151,0.636 0.348,0.39 2.792,3.146 5.431,6.125 2.638,2.98 5.033,5.679 5.321,6 0.288,0.32 1.121,1.26 1.852,2.09 5.085,5.767 7.317,8.244 7.429,8.244 0.256,0 0.402,-0.451 0.835,-2.584 0.242,-1.191 0.873,-4.266 1.402,-6.833 a 735.79,735.79 0 0 0 1.087,-5.333 c 0.069,-0.367 0.388,-1.942 0.711,-3.5 1.249,-6.035 2.141,-10.39 2.39,-11.667 0.381,-1.96 0.33,-1.908 3.972,-4.057 1.821,-1.075 3.339,-2.037 3.372,-2.138 0.062,-0.184 -0.654,-0.656 -5.522,-3.641 -2.954,-1.811 -3.194,-1.918 -3.317,-1.471 m 207.636,-0.102 c -9.561,0.907 -16.161,7.274 -16.836,16.242 -0.294,3.9 0.666,6.91 3.937,12.357 0.974,1.62 0.963,1.482 0.187,2.31 -4.792,5.113 -5.806,7.44 -5.659,12.989 0.21,7.947 4.963,14.075 13.009,16.77 16.139,5.408 31.042,-5.627 28.372,-21.008 -0.415,-2.394 -1.838,-4.687 -4.877,-7.862 -1.58,-1.65 -1.583,-1.662 -0.805,-2.681 2.234,-2.927 3.387,-5.024 3.914,-7.125 2.733,-10.88 -5.069,-21.014 -16.935,-21.997 -2.164,-0.18 -2.361,-0.18 -4.307,0.005 m 45.666,-0.008 c -8.058,0.715 -14.342,5.642 -16.259,12.75 -1.386,5.137 -0.653,8.966 2.875,15.015 0.593,1.017 1.127,1.976 1.187,2.132 0.096,0.249 -0.645,1.255 -1.487,2.019 -7.674,6.964 -6.034,20.148 3.268,26.27 13.153,8.657 31.135,2.327 33.421,-11.765 1.018,-6.277 -0.166,-9.707 -5.133,-14.873 -0.866,-0.9 -1.272,-1.442 -1.189,-1.583 0.07,-0.118 0.367,-0.515 0.66,-0.881 1.809,-2.266 3.407,-5.058 3.814,-6.667 2.492,-9.84 -2.933,-18.941 -12.955,-21.736 -2.567,-0.716 -5.275,-0.941 -8.202,-0.681 m -185.25,0.443 c -12.576,1.202 -21.939,8.129 -24.495,18.122 -3.745,14.642 7.524,26.357 21.802,22.665 2.297,-0.594 2.334,-0.624 3.185,-2.506 l 1.307,-2.89 a 800.641,800.641 0 0 1 1.78,-3.917 c 2.499,-5.467 2.772,-6.242 2.048,-5.814 -0.116,0.068 -0.51,0.31 -0.877,0.54 -4.717,2.94 -10.342,4.29 -13.649,3.276 -5.979,-1.835 -9.154,-9.703 -6.247,-15.476 2.484,-4.932 7.647,-9.332 11.396,-9.71 1.258,-0.126 0.861,-0.55 5.125,5.476 1.32,1.865 1.23,1.836 3.138,1.035 2.356,-0.99 2.821,-1.23 2.821,-1.46 0,-0.776 -2.73,-7.998 -3.431,-9.075 -0.245,-0.378 -1.699,-0.477 -3.903,-0.266 m -58.08,1.22 c -0.211,0.34 0.299,0.858 1.559,1.585 1.881,1.085 1.934,1.164 1.721,2.539 -0.208,1.34 -2.115,11.91 -2.377,13.176 -0.22,1.066 -0.49,1.265 -2.061,1.53 -2.262,0.38 -2.484,1.34 -0.31,1.34 1.689,0 1.8,0.395 1.123,4 a 458.274,458.274 0 0 0 -0.665,3.626 c -1.515,8.57 -1.411,8.15 -2.105,8.499 -0.213,0.108 -1.008,0.429 -1.766,0.715 -0.758,0.286 -1.602,0.709 -1.875,0.939 -1.114,0.937 -1.934,0.894 16.031,0.847 l 16.528,-0.042 0.12,-0.417 c 0.067,-0.23 0.285,-1.504 0.487,-2.833 0.315,-2.083 0.983,-6.22 1.286,-7.958 0.113,-0.646 -0.233,-0.75 -0.621,-0.186 -3.79,6.371 -9.099,8.634 -14.134,8.644 -3.966,0 -3.682,0.248 -3.129,-2.731 0.223,-1.202 0.566,-3.086 0.762,-4.186 0.196,-1.1 0.428,-2.375 0.516,-2.833 0.088,-0.458 0.311,-1.696 0.495,-2.75 0.465,-2.655 0.459,-2.635 0.839,-2.84 1.581,-0.845 5.469,1.843 6.884,4.762 0.354,0.73 0.7,1.44 0.768,1.578 0.234,0.472 0.583,0.266 0.705,-0.417 0.138,-0.77 1.106,-5.982 1.812,-9.75 0.266,-1.42 0.604,-3.13 0.751,-3.797 0.422,-1.914 0.299,-1.901 -1.797,0.19 -2.803,2.798 -4.973,4.104 -7.041,4.237 -1.533,0.098 -1.728,-0.082 -1.454,-1.344 0.209,-0.964 1.804,-10.263 2.045,-11.924 0.272,-1.877 -0.179,-1.73 5.121,-1.667 5.238,0.063 5.032,0.013 6.554,1.587 1.395,1.443 2.91,4.356 3.22,6.19 0.225,1.329 0.799,1.01 0.982,-0.543 0.058,-0.496 0.42,-2.652 0.804,-4.791 0.384,-2.138 0.703,-4.15 0.708,-4.471 L 93.265,40.968 77.067,40.925 C 66.574,40.898 60.833,40.94 60.768,41.047 m 202.276,10.46 c 2.955,1.319 4.238,4.992 2.791,7.992 -1.656,3.434 -7.164,3.898 -9.502,0.8 -3.61,-4.781 1.296,-11.21 6.711,-8.792 m 45.85,0.123 c 4.134,1.992 4.334,8.149 0.328,10.12 -4.011,1.976 -8.37,-0.646 -8.37,-5.032 0,-4.393 4.1,-6.987 8.042,-5.088 m 46.965,0.474 c 8.845,4.213 8.991,32.517 0.19,36.799 C 350,91.846 344.853,83.31 344.849,70.33 344.845,57.208 349.7,49.17 355.859,52.104 M 219.628,65.827 c -0.062,0.062 -0.113,2.124 -0.113,4.582 v 4.469 l 0.375,0.09 c 0.206,0.05 3.487,0.07 7.292,0.046 l 6.916,-0.046 V 65.8 l -7.178,-0.043 c -3.949,-0.024 -7.23,0.007 -7.292,0.069 m 43.935,11.059 c 4.227,1.58 5.463,7.684 2.209,10.91 -3.498,3.47 -10.033,1.946 -11.317,-2.64 -1.636,-5.837 3.397,-10.407 9.108,-8.27 m 44.783,-0.242 c 6.842,1.613 6.462,11.78 -0.483,12.927 -4.401,0.727 -7.845,-2 -7.989,-6.324 -0.159,-4.812 3.609,-7.75 8.472,-6.603" id="path3"/>
    </g>
</svg>
