<?xml version='1.0' encoding='utf-8'?>
<svg xmlns="http://www.w3.org/2000/svg" viewBox="0 0 290.88976 78.641681" version="1.1" id="svg1" width="600" height="162.20925083160375">
    <defs id="defs1"/>
    <g id="path1" style="opacity:1">
        <path style="baseline-shift:baseline;display:inline;overflow:visible;vector-effect:none;fill:#ffffff;stroke-linecap:round;stroke-linejoin:round;paint-order:markers stroke fill;enable-background:accumulate;stop-color:#000000;stop-opacity:1" d="M 66.279297,0.50390625 C 65.359662,0.53841647 64.447809,0.87061821 63.585937,1.328125 63.521715,1.2570416 63.454601,1.1886246 63.384766,1.1230469 l -1.673829,-0.0625 c -0.793968,-0.029715 -1.248012,-0.1264311 -2.296875,0.09375 -0.472554,0.0992 -1.037197,0.4805817 -1.544921,0.8769531 -0.109354,-0.086527 -0.129363,-0.1863241 -0.257813,-0.2675781 -0.0033,-0.00196 -0.0065,-0.00391 -0.0098,-0.00586 C 56.789003,1.2470609 56.557027,1.290913 56.28125,1.2285156 56.005473,1.1661182 55.777893,1.1322502 55.542969,1.1035156 55.07312,1.0460465 54.592862,1.0189584 54.080078,1.0175781 53.444992,1.0158709 52.949059,0.97017165 52.039062,1.2109375 51.395052,1.381329 50.6446,1.976051 50.0625,2.5703125 49.520278,1.6679317 48.600708,1.0575154 47.558594,0.90820313 l -1.25586,-0.0664063 h -0.002 c -2.996996,-0.15507121 -5.79972,0.85219097 -8.263625,2.32031257 -0.01048,0.00624 -0.01883,0.015226 -0.0293,0.021484 C 37.702541,2.7346271 37.411308,2.2330012 37.044922,1.9941406 36.49633,1.6364928 36.074354,1.5250848 35.748047,1.4472656 35.095433,1.2916272 34.690852,1.2836607 34.134766,1.2617187 c -1.112173,-0.043884 -2.730647,-0.030645 -5.591797,0.00195 -1.81585,0.0203 -3.48374,0.05914 -4.742188,0.1074218 -0.629224,0.024141 -1.149932,0.051225 -1.574219,0.082031 -0.212143,0.015403 -0.39201,0.028192 -0.611328,0.056641 -0.109658,0.014224 -0.22203,0.029295 -0.43164,0.076172 -0.104805,0.023438 -0.230872,0.050463 -0.458985,0.1328125 -0.01817,0.00656 -0.08393,0.060528 -0.103515,0.066406 C 20.38272,1.6724429 20.168083,1.53779 19.908203,1.4394531 c -0.310312,-0.11742 -0.632385,-0.2286247 -1.082031,-0.3125 -0.448678,-0.083695 -1.023878,-0.28451995 -2.220703,0.1738281 -1.434526,0.5483451 -1.587353,1.1644694 -1.791016,1.4863282 -0.203942,0.322299 -0.292446,0.5307066 -0.375,0.7285156 -0.165107,0.395618 -0.269357,0.7324052 -0.384765,1.1308594 -0.05489,0.189495 -0.121486,0.5169801 -0.177735,0.7304687 C 12.963437,4.3579059 11.893043,3.1528894 11.453125,2.6953125 11.114692,2.3432947 10.902848,2.0921918 10.351563,1.7128906 9.8002772,1.3335894 8.3358926,1.0117187 8.1132813,1.0117187 c -1.2143807,0 -1.4585628,0.2997197 -1.7109376,0.4335938 C 6.149969,1.5791866 6.012097,1.6770788 5.8886719,1.765625 5.6418216,1.9427173 5.4751814,2.0858585 5.296875,2.2421875 4.9402622,2.5548454 4.5781238,2.9044965 4.1972656,3.2890625 3.4355494,4.0581944 2.6739174,4.8693305 2.0449219,5.71875 L 1.6230469,6.2890625 C 0.60311135,7.6670023 0.73125403,9.5808758 1.9257812,10.810547 l 0.3398438,0.349609 c -0.017009,0.09177 -0.024247,0.138803 -0.042969,0.238282 -0.1709849,0.908516 -0.410648,2.125856 -0.6738282,3.410156 -0.2722791,1.328702 -0.5058836,2.554385 -0.66992185,3.49414 -0.0820191,0.469878 -0.14697019,0.863741 -0.19335938,1.203125 -0.0231946,0.169692 -0.0432202,0.31763 -0.0585938,0.521485 -0.007687,0.101927 -0.0160186,0.207932 -0.0117188,0.421875 0.0043,0.213942 -0.44745767,0.239798 0.53125003,1.818359 0.4670249,0.752285 1.5519031,1.52639 2.4238281,1.722656 0.8731265,0.196537 1.4456082,0.08593 1.8925781,-0.0059 C 6.35683,23.800749 6.953415,23.536542 7.849609,23.164021 h 0.00391 c 0.560984,-0.233776 1.0554769,-0.449952 1.615231,-0.798787 0.4091962,-0.255008 0.937112,-0.715202 1.410156,-1.429687 0.220608,0.234915 0.686873,0.771859 0.873047,0.960937 0.433813,0.44058 0.772173,0.774278 1.265625,1.132813 0.493453,0.358534 1.386649,0.859375 2.496094,0.859375 -0.113538,0 -0.02224,0.03246 0.492187,-0.01563 0.323182,-0.03021 0.846005,-0.341429 1.335938,-0.576172 0.629745,0.282051 1.048502,0.357286 1.441406,0.412109 h 0.002 c 0.699045,0.09727 0.771051,0.05589 1.201172,0.0625 0.430121,0.0066 0.963496,0.0091 1.576172,0.0078 1.225351,-0.0026 2.762459,-0.01883 4.291016,-0.04297 1.528556,-0.02414 3.044511,-0.05633 4.228515,-0.0918 0.592002,-0.01773 1.097932,-0.03658 1.501953,-0.05664 0.202011,-0.01003 0.376743,-0.01944 0.548828,-0.0332 0.172086,-0.01376 0.06502,0.08213 0.871094,-0.140625 l 0.0078,-0.0039 c 1.293332,-0.36069 1.869212,-1.153875 2.177734,-1.626953 0.01775,-0.02722 0.01466,-0.04002 0.03125,-0.06641 0.979803,0.863156 2.087336,1.576311 3.480469,2.007812 1.797799,0.557272 2.766106,0.3672 4.111328,0.294922 0.673184,-0.03617 1.327585,-0.09633 1.960937,-0.199219 0.633353,-0.102884 1.020809,0.05681 2.335938,-0.804687 0.130288,-0.08535 0.08448,-0.103533 0.183594,-0.177734 1.042793,0.951336 1.730573,0.94108 2.210937,1.001953 0.512239,0.06491 0.908673,0.05297 1.308594,0.02344 0.799841,-0.05906 1.571452,-0.207088 2.40625,-0.5 l 0.0059,-0.002 c 1.947484,-0.68751 3.402329,-2.055289 4.525391,-3.707031 0.242309,0.365548 0.478275,0.771294 0.720703,1.054687 3.83e-4,4.48e-4 0.0016,-4.47e-4 0.002,0 3.06e-4,3.58e-4 -3.06e-4,0.0016 0,0.002 0.948605,1.109509 1.752177,1.718671 3.072266,2.333985 h 0.0039 c 1.157981,0.537946 2.214529,0.835408 3.591797,0.839844 h 0.0039 c 0.533573,0.0012 1.032313,0.162896 2.267578,-0.371094 0.617633,-0.266995 1.350701,-0.874662 1.732422,-1.464844 0.381722,-0.590182 0.487846,-1.036 0.556641,-1.310547 0.316548,-1.262045 0.236526,-2.092528 0.132812,-3.013672 -0.0116,-0.102994 -0.04837,-0.218231 -0.0625,-0.320312 l 0.519532,0.01172 c 3.441428,0.07419 5.880182,0.113998 7.539062,0.11914 0.338378,0.001 0.524011,-0.0059 0.800781,-0.0078 -0.02002,0.241752 -0.0563,0.487154 -0.06445,0.730468 -0.01647,0.491793 -0.01463,0.972354 0.0293,1.484375 0.02196,0.256011 0.04903,0.513637 0.130859,0.871094 0.08183,0.357458 -0.05765,0.804325 1.003907,1.884766 1.044805,1.065414 1.36055,0.870896 1.601562,0.9375 0.241621,0.06677 0.369812,0.08417 0.484375,0.101562 0.229127,0.03479 0.378735,0.04691 0.542969,0.05859 0.328468,0.02336 0.677904,0.03431 1.091797,0.04297 0.827785,0.01732 1.884913,0.01642 3.03125,-0.0059 1.853668,-0.03626 2.907772,-0.05451 3.888672,-0.167968 0.9809,-0.113456 2.021608,-0.469795 2.638672,-0.771485 l 0.002,-0.002 c 0.90918,-0.445437 1.590661,-1.005083 2.230468,-1.607422 0.385991,1.528491 1.74612,2.610357 3.322266,2.642578 l 2.228514,-0.11914 h 0.002 c 1.42523,-0.07726 2.62947,-0.194353 3.88281,-0.644531 1.25335,-0.450179 2.34295,-1.270685 3.15821,-2.085938 0.34255,-0.342556 0.67402,-0.770966 0.99609,-1.203125 0.006,0.166712 0.0107,0.32886 0.0273,0.509766 0.0207,0.225506 -0.0785,0.290677 0.25585,1.162109 2.1e-4,5.39e-4 -2e-4,0.0014 0,0.002 0.48128,1.254588 1.61104,1.996484 2.35352,2.259766 0.74279,0.263395 1.27667,0.274714 1.75781,0.265625 0.96093,-0.01815 1.75742,-0.205847 2.65235,-0.472656 1.08016,-0.320686 2.00908,-0.876748 2.8457,-1.539063 l 0.13477,0.144531 c 0.37248,0.39616 1.35897,1.188424 2.33593,1.451172 0.97696,0.262748 1.55564,0.210253 2.29492,0.207031 h 0.002 c 1.2085,-0.0054 2.4723,-0.105798 3.58789,-0.253906 0.26399,-0.03505 0.49543,-0.08728 0.74219,-0.128906 0.12028,0.04237 0.38355,0.262978 0.46484,0.291016 0.23552,0.08123 0.36459,0.107215 0.4707,0.128906 0.21222,0.04338 0.3207,0.05306 0.42578,0.06445 0.21018,0.02279 0.37395,0.03146 0.56446,0.04102 0.38101,0.01911 0.83841,0.03253 1.39062,0.04102 1.10443,0.01697 2.56282,0.01686 4.15039,-0.002 2.82304,-0.03351 4.20058,-0.03474 5.34375,-0.142578 0.49759,-0.04694 0.81767,-0.28387 1.33203,-0.46875 0.56196,0.385506 0.86923,0.405651 1.03516,0.445312 0.22838,0.05459 0.34572,0.06795 0.45508,0.08203 0.21871,0.02817 0.37336,0.03836 0.54883,0.04883 0.35093,0.02094 0.74946,0.03264 1.22656,0.04102 0.95419,0.01676 2.19542,0.01567 3.54492,-0.0059 2.24481,-0.03563 3.46997,-0.05281 4.53125,-0.158203 1.06058,-0.105319 2.12669,-0.446107 2.77344,-0.736328 0.72068,-0.323425 1.30592,-0.855972 1.91211,-1.353516 0.7598,0.690842 1.61765,1.272036 2.52929,1.667969 2.11354,0.919428 3.17264,0.606266 6.89649,0.611328 1.35124,0.0015 2.60819,-0.01725 3.58594,-0.05078 0.48887,-0.01677 0.9028,-0.03668 1.26562,-0.06445 0.18141,-0.01389 0.34477,-0.02707 0.55469,-0.05664 0.10496,-0.01479 0.2179,-0.03091 0.4043,-0.07422 0.006,-0.0015 0.0326,-0.01632 0.0391,-0.01758 0.0978,0.0147 0.34577,0.09889 0.40625,0.107422 0.12845,0.01813 0.21015,0.02622 0.29101,0.0332 0.16174,0.01397 0.30778,0.0211 0.47657,0.0293 0.33758,0.01639 0.75393,0.0291 1.25,0.04102 0.99213,0.02382 2.29243,0.0418 3.6914,0.04687 1.83759,0.0061 3.13396,-0.0062 4.09961,-0.05078 0.48283,-0.02231 0.87286,-0.04684 1.30664,-0.111328 0.21689,-0.03224 0.44205,-0.06906 0.77149,-0.169922 0.32943,-0.100858 0.80251,-0.156026 1.58398,-0.9375 1.15051,-1.150511 1.03917,-1.73743 1.14063,-2.24414 0.10145,-0.50671 0.13054,-0.935722 0.13671,-1.375 0.006,-0.40518 0.0412,-0.766201 0.006,-1.183594 h 0.39258 c 1.68736,0 3.29544,-0.01574 4.54883,-0.04102 0.62669,-0.01264 1.16286,-0.0269 1.59375,-0.04492 0.2932,-0.01226 0.57351,-0.04771 0.87305,-0.08203 -0.0408,0.411418 -0.0552,0.781449 -0.0469,1.15625 0.009,0.419755 0.0376,0.835 0.0996,1.277344 0.062,0.442344 0.003,0.779696 0.5332,1.771484 l 0.002,0.0039 c 0.16159,0.30128 0.82113,1.224282 1.65234,1.666015 0.83122,0.441734 1.42556,0.475492 1.89844,0.511719 0.94575,0.07245 1.83045,0.02448 3.60937,-0.03125 2.22336,-0.06983 3.63977,-0.125588 5.01172,-0.408203 1.37196,-0.282615 2.7483,-1.035873 3.58985,-1.755859 0.90637,-0.775682 2.16383,-2.433124 2.49218,-4.121094 0.32847,-1.688526 0.27609,-3.351535 0.23829,-6.320313 -0.0306,-2.4163778 -0.0421,-3.6934362 -0.13672,-4.740234 -0.0946,-1.0467978 -0.67391,-2.5196296 -1.07032,-3.0546875 -0.57466,-0.7748823 -2.2531,-2.1242816 -3.75234,-2.4080781 C 208.4578,0.89393789 207.098,0.95312152 204.5957,0.984375 c -1.28763,0.0159922 -2.5112,0.0532696 -3.48437,0.1015625 -0.48659,0.024146 -0.90634,0.05121 -1.27344,0.083984 -0.18355,0.016387 -0.35084,0.033548 -0.54102,0.060547 -0.19017,0.026998 -0.27043,-0.023983 -0.94531,0.2324219 -1.529,0.5809119 -1.8367,1.0053119 -2.54492,2.0839844 l -0.002,0.00391 c -0.77649,1.18547 -0.62422,1.2956631 -0.83985,1.9316406 -0.16759,0.4943013 -0.3417,1.0754509 -0.51367,1.6503906 -0.32393,-0.00615 -0.61814,-0.015139 -1.00976,-0.017578 -1.26046,-0.00785 -2.8425,0.00219 -4.41016,0.023437 -1.56766,0.021247 -3.11481,0.054447 -4.3125,0.095703 -0.59885,0.020628 -1.10435,0.042956 -1.51953,0.070312 -0.20759,0.013678 -0.38524,0.026539 -0.60156,0.052734 -0.10817,0.013098 -0.21734,0.023879 -0.42579,0.068359 -0.10422,0.02224 -0.22913,0.048517 -0.45898,0.1289063 -0.093,0.032535 -0.39216,0.2805908 -0.54102,0.3398437 -0.0965,-0.032599 -0.19142,-0.085914 -0.2871,-0.1132812 0.007,-0.047386 0.0444,-0.077092 0.0508,-0.125 0.24668,-1.837667 -0.36712,-3.8380379 -1.71485,-5.1425781 -1.34773,-1.3045403 -3.27229,-1.84006823 -5.07617,-1.63671877 -2.30107,0.25897207 -4.02615,1.79339547 -4.88281,3.61523437 h -1.7168 c -0.63549,0 -0.90849,-0.00281 -1.36328,-0.00195 -0.16416,-1.6878771 -1.51463,-3.015303 -3.20508,-3.1503907 l -1.63086,-0.054687 c -0.57891,-0.020007 -1.12369,-0.010043 -1.64453,0.03125 -0.26042,0.020647 -0.50957,0.046226 -0.81055,0.1015625 -0.3005,0.055251 -0.51792,-0.070719 -1.52343,0.5800782 -0.0694,0.044832 -0.0807,0.1070313 -0.14453,0.1542969 -0.32453,-0.020644 -0.64806,-0.046146 -0.97461,-0.044922 -0.48361,0.00181 -0.96307,0.020359 -1.45313,0.072266 -0.29085,0.030807 -0.55459,0.00739 -0.96484,0.1132813 -0.60282,-0.5715502 -1.38927,-0.9100811 -2.21875,-0.9550782 l -3.32031,-0.060547 c -0.96766,-0.017488 -1.91506,-0.011706 -2.71094,0.011719 -0.39794,0.011712 -0.75629,0.026948 -1.08399,0.050781 -0.3277,0.023833 -0.47773,-0.00693 -1.15234,0.1679688 h -0.002 c -0.15942,0.041383 -0.47805,0.1272666 -0.92774,0.328125 -0.34258,-0.1219449 -0.67976,-0.3813104 -0.98633,-0.4355469 -1.60213,-0.2834416 -3.08897,-0.2050615 -6.19531,-0.1855469 -1.58916,0.00968 -3.0498,0.038432 -4.16015,0.078125 -0.55518,0.019847 -1.01662,0.041929 -1.4043,0.070312 -0.19384,0.014192 -0.36099,0.027269 -0.57813,0.056641 -0.10856,0.014686 -0.22149,0.029133 -0.4375,0.080078 -0.20322,0.04793 -0.41232,-0.2562919 -1.5664,0.8339844 -0.008,-0.00903 -0.0507,-0.06245 -0.0508,-0.0625 -1.13777,-1.1377694 -1.51098,-0.9257097 -1.83985,-1.0058594 -0.32886,-0.08015 -0.56405,-0.1098952 -0.80078,-0.1367188 -0.47346,-0.053647 -0.9267,-0.074053 -1.39453,-0.078125 -0.46783,-0.00407 -0.93088,0.0095 -1.40234,0.050781 -0.46497,0.040718 -0.63166,-0.20032968 -1.98438,0.515625 -0.62952,-0.3306072 -1.29415,-0.5725004 -1.75,-0.6054688 -1.11636,-0.0807387 -1.5437,0.089194 -2.04297,0.15625 l -1.49414,0.2011719 c -0.56963,0.3549062 -1.02523,0.8660941 -1.3125,1.4726563 l -2.42383,-0.087891 -0.60742,-0.021484 0.25977,0.7714844 c -0.47962,-1.4236359 -1.81415,-2.3824901 -3.31641,-2.3828126 h -3.43945 c -1.55226,1.842e-4 -2.919,1.0226536 -3.35742,2.5117188 l 0.32226,-1.0957031 h -0.11328 C 99.496593,2.5382144 98.916571,2.4524374 98.3124,2.4335988 97.668037,1.6921411 96.741771,1.2555648 95.759766,1.2304687 l -1.685547,0.00195 h -0.002 c -0.553035,0.00119 -1.069849,0.022097 -1.544922,0.0625 -0.237537,0.020201 -0.458027,0.042113 -0.726563,0.087891 -0.268535,0.045778 -0.259308,-0.3207872 -1.638672,0.6425781 -1.160737,0.8106735 -1.075517,1.176975 -1.1875,1.4140625 -0.111983,0.2370875 -0.152516,0.371476 -0.191406,0.4902344 -0.07778,0.2375168 -0.116526,0.3973582 -0.158203,0.5742187 -0.08335,0.3537212 -0.159035,0.7367374 -0.240234,1.1894532 -0.01545,0.086136 -0.0331,0.2257834 -0.04883,0.3164062 -0.03079,-0.1995306 -0.06473,-0.4454822 -0.09375,-0.625 -0.05255,-0.3251017 -0.10124,-0.6101577 -0.148437,-0.8613281 -0.0472,-0.2511704 0.03831,-0.1893995 -0.244141,-0.9570312 h 0.002 C 87.427488,2.4129226 86.444343,1.7148405 85.845703,1.4492187 85.247063,1.183597 84.861039,1.1385238 84.523437,1.0976562 83.848235,1.0159212 83.330271,1.0348072 82.642578,1.0605472 81.800375,1.0920922 81.506274,0.84905486 80.013672,1.433594 c -0.746301,0.2922696 -1.828483,1.3018479 -2.164063,2.1113282 -0.334518,0.8069213 -0.294475,1.1416535 -0.3125,1.3046875 -0.07333,0.641152 -0.02881,0.7318666 -0.01563,1.0019531 0.01318,0.2700865 0.03367,0.5603197 0.06055,0.8847656 0.0037,0.044354 0.01173,0.1049211 0.01563,0.1503906 L 74.808597,6.837891 c -0.805989,-0.014144 -1.434335,-0.00986 -2.173828,-0.015625 0.02626,-0.4976156 0.02532,-1.0048879 -0.08984,-1.5292969 v -0.00195 C 71.87758,2.2579177 68.865408,0.40685989 66.279297,0.50390625 Z M 38.482422,3.765625 l 0.0039,0.00977 c -6.32e-4,-0.00165 -0.0033,-0.00225 -0.0039,-0.00391 -0.0018,-0.00467 0.0018,-0.00116 0,-0.00586 z m 28.574219,2.3535156 c 0.04095,0.077661 0.187386,0.2478445 0.05078,0.875 0,0 -0.083,-0.9360948 -0.05078,-0.875 z M 7.7050781,6.7128906 8.8027344,7.84375 C 8.746761,7.8613255 8.6998502,7.871706 8.6289063,7.8867187 8.3570441,7.4650756 8.0693719,7.0885686 7.7050781,6.7128906 Z M 130.66211,8.3203125 c -0.12144,0.034781 -0.16687,0.029804 -0.22461,0.00977 0.0602,-0.0036 0.15271,-0.00603 0.22461,-0.00977 z m -2.43359,2.2480465 c 0.27375,0.41456 0.63262,0.7661 1.05273,1.03125 l 4.67773,0.107422 1.25586,0.0293 v 1.449219 l -1.06054,0.03125 c -1.19254,0.0355 -2.28966,0.07024 -3.14453,0.09961 -0.74118,-0.622433 -1.70699,-0.910198 -2.66797,-0.794922 l -0.0762,0.0098 c -0.016,-0.598556 -0.0267,-1.275241 -0.0371,-1.962891 z m -85.029301,0.298829 c 0.22933,0.282179 0.498599,0.573531 1.017578,0.935546 -0.715902,0.250959 -1.411932,0.425683 -1.488281,0.414063 -0.09869,-0.01502 0.175311,0.224659 0.02734,-0.04297 v -0.002 c -0.240895,-0.435491 -0.181269,-0.440645 -0.179687,-0.451172 0.0016,-0.0105 0.03474,-0.234516 0.505859,-0.759765 l 0.002,-0.002 c 0.02078,-0.02304 0.08803,-0.06472 0.115235,-0.0918 z m -40.6132815,0.623046 0.095703,0.09766 c 0.027997,0.02978 0.090925,0.116129 0.078125,0.0957 -0.00711,-0.01134 -0.091705,-0.0095 -0.173828,-0.19336 z m 147.9355425,0.34375 -0.0312,1.355469 h -1.08789 c -1.13238,0 -2.04263,0.06049 -3.03125,0.101563 -0.0121,-0.494665 0.0338,-0.617434 0.0195,-1.207032 -0.003,-0.1091 -0.005,-0.111853 -0.008,-0.216796 0.49772,8e-5 0.81476,0.0206 1.49024,0.0098 z m 25.49219,1.748042 c -0.46258,0.01513 -0.84686,0.0636 -1.24805,0.103516 l 0.004,-0.0625 z m 29.08399,0.898438 v 0.0078 l -0.40039,0.01953 c 0.14799,-0.0072 0.25636,-0.01931 0.40039,-0.02734 z M 52.964844,19.283203 c -0.0011,0.003 -9.82e-4,0.0108 -0.002,0.01367 -1.66e-4,-0.0031 1.65e-4,-0.0086 0,-0.01172 6.96e-4,-4.26e-4 0.0013,-0.0015 0.002,-0.002 z M 7.703125,19.9375 c 0.00495,0.08511 -0.00486,0.107227 -0.023437,0.152344 0.00741,-0.04725 0.014767,-0.09884 0.023437,-0.152344 z m 273.339845,6.533203 c -1.08543,0 -2.18938,0.375273 -3.16406,1.111328 -0.35143,-0.182139 -0.68379,-0.385132 -1.08594,-0.509765 l -0.002,-0.002 c -1.166,-0.360681 -1.04972,-0.198917 -1.49805,-0.234375 -0.44833,-0.03546 -0.98994,-0.06773 -1.6211,-0.09766 -1.26231,-0.05985 -2.87117,-0.110565 -4.55859,-0.140625 -2.43197,-0.04325 -3.95781,-0.05853 -5.03516,-0.02734 -0.53867,0.01559 -0.95174,0.03368 -1.45507,0.113282 -0.50334,0.0796 -1.32793,-0.08327 -2.52539,1.357422 -10e-4,0.002 -0.003,0.0039 -0.004,0.0059 -0.82174,0.992931 -0.73912,1.376075 -0.81641,1.728516 -0.0773,0.352441 -0.10691,0.629029 -0.13086,0.914062 -0.0479,0.570067 -0.0539,1.154623 -0.0312,1.804688 v 0.002 l 0.0527,1.501953 c -1.0744,0.0044 -1.58485,-0.0123 -3.31836,0.0078 -2.15857,0.02521 -4.13562,0.0649 -5.60547,0.109375 -0.0501,0.0015 -0.0742,0.0024 -0.12305,0.0039 0.005,-0.270923 0.004,-0.678169 0.01,-0.914063 0.0146,-0.563023 0.0327,-1.021973 0.0488,-1.300781 0.005,-0.08481 0.007,-0.101913 0.01,-0.142578 0.0335,-1.264721 0.0563,-2.024274 -0.57049,-3.12602 -0.0595,-0.112288 -0.27938,-0.376779 -0.34943,-0.461871 -0.68355,-0.830655 -1.13463,-0.921615 -1.41601,-1.035156 -0.56277,-0.227082 -0.72574,-0.214347 -0.9004,-0.240235 -0.34931,-0.05178 -0.54787,-0.057 -0.78515,-0.06641 -0.47456,-0.0188 -0.99507,-0.01789 -1.54492,-0.0059 -0.54985,0.01203 -1.10952,0.03538 -1.61914,0.07227 -0.25482,0.01844 -0.49441,0.04007 -0.7461,0.07227 -0.25029,0.03202 -0.39798,-0.0012 -1.07226,0.242188 -4.9e-4,1.75e-4 -0.001,-1.76e-4 -0.002,0 -0.9866,0.35602 -1.77434,1.305258 -2.15429,2.177734 C 238.70432,28.247037 237.82083,27.34674 236.68359,27 l -1.84961,-0.05469 c -0.59647,-0.0176 -1.15565,-0.01465 -1.66211,0.01172 -0.25322,0.01318 -0.48612,0.03024 -0.76562,0.06836 -0.13975,0.01906 -0.28946,0.0415 -0.51172,0.0957 -0.22225,0.05421 -0.46543,0.02599 -1.20898,0.52539 l -0.002,0.002 c -0.13753,0.09255 -0.11156,0.133686 -0.22265,0.21875 L 228.75,27.81641 h -0.004 c -0.59606,-0.01807 -1.15667,-0.0146 -1.66406,0.01172 -0.25429,0.01319 -0.48955,0.0302 -0.76953,0.06836 -0.19351,0.02638 -0.41413,0.004 -0.89844,0.205078 C 224.75911,27.40559 223.84817,27.007613 222.89258,27 l -4.34961,-0.01758 c -1.21287,-0.0051 -2.33862,-0.0012 -3.19531,0.0098 -0.42835,0.0055 -0.78591,0.01169 -1.07618,0.02148 -0.14513,0.0049 -0.27039,0.01025 -0.41015,0.01953 -0.0699,0.0046 -0.13971,0.0084 -0.25391,0.02148 -0.1142,0.0131 -0.0984,-0.06936 -0.82617,0.191407 -1.77407,0.635708 -1.85943,1.494523 -2.03125,1.859375 -0.17182,0.364852 -0.21917,0.565665 -0.26563,0.746093 -0.0929,0.360858 -0.12622,0.60887 -0.16015,0.88086 -0.0679,0.54398 -0.1019,1.124346 -0.11328,1.763672 v 0.002 l -0.0352,1.939453 c 0.12943,0.177359 0.27525,0.342148 0.43555,0.492187 -0.1255,0.26739 -0.13689,0.437625 -0.17578,0.566407 -0.0701,0.231931 -0.0964,0.370441 -0.1211,0.501953 -0.0494,0.263023 -0.0759,0.475956 -0.10156,0.71289 -0.0514,0.47387 -0.0885,1.01075 -0.11133,1.589844 l -0.0703,1.816406 c -0.42524,-1.286071 -0.93124,-2.535756 -1.53125,-3.736328 -1.32734,-2.655917 -3.26918,-4.905767 -5.69727,-6.574218 -2.60908,-1.792831 -5.79077,-2.628907 -9.19336,-2.628907 -3.35419,0 -6.49932,0.837126 -9.07617,2.621094 -2.41546,1.671971 -4.34138,3.952379 -5.66797,6.644531 -0.19285,0.391888 -0.31724,0.81138 -0.49218,1.210938 -0.18417,-0.419515 -0.31698,-0.864225 -0.52149,-1.273438 -1.32734,-2.655917 -3.26918,-4.905767 -5.69726,-6.574218 -2.60909,-1.792831 -5.79078,-2.628907 -9.19336,-2.628907 -3.3534,0 -6.49891,0.83581 -9.07617,2.619141 -2.41654,1.672115 -4.34097,3.953483 -5.66797,6.646484 h -0.002 c -0.0595,0.120829 -0.0946,0.251469 -0.15234,0.373047 -0.80461,-2.100868 -2.02203,-3.979973 -3.69922,-5.478515 v -0.002 c -3.08645,-2.755304 -7.1172,-4.160156 -11.45898,-4.160156 -2.17735,0 -4.27991,0.284739 -6.27344,0.867188 -2.04677,0.589206 -3.95885,1.573448 -5.625,2.90039 l -0.006,0.0039 c -1.55489,1.242956 -2.7601,2.852123 -3.65625,4.640625 -1.52911,-2.505955 -3.56645,-4.627189 -6.12891,-6.056641 -2.82708,-1.577762 -6.04715,-2.353516 -9.4375,-2.353516 -3.302055,0 -6.438881,0.765219 -9.179684,2.322266 -2.752011,1.564129 -4.96781,3.887359 -6.445312,6.724609 -1.478482,2.837991 -2.185547,6.061527 -2.185547,9.492188 0,0.957324 0.166324,1.875255 0.294922,2.802734 -0.05249,-1.878789 -1.579377,-3.38077 -3.458775,-3.402361 H 58.384766 c -1.932917,1.93e-4 -3.499807,1.567083 -3.5,3.5 v 6.027344 c 1.93e-4,1.932917 1.567083,3.499807 3.5,3.5 h 22.417968 c 1.932917,-1.93e-4 3.499807,-1.567083 3.5,-3.5 v -5.74414 c 0.281971,1.779699 0.718211,3.514746 1.486328,5.121093 1.231176,2.57598 3.080746,4.754508 5.417969,6.306641 v -0.002 c 1.34633,0.894581 2.854486,1.473231 4.429688,1.865234 -0.09216,0.1022 -0.158798,0.224841 -0.251953,0.326172 l -0.0078,0.0078 c -1.759707,1.926742 -4.520476,4.81943 -8.244141,8.634765 -2.154674,2.207308 -0.607948,5.920425 2.476563,5.945313 l 11.691402,0.08984 c 0.94082,0.0066 1.8447,-0.365766 2.50781,-1.033203 4.5253,-4.549961 8.11074,-8.929215 10.94727,-13.21289 0.16659,2.822726 0.92643,5.528881 2.5,7.794922 1.69605,2.443757 4.02969,4.35684 6.77734,5.591796 2.65691,1.194172 5.51592,1.802735 8.44922,1.802735 2.14257,-4.06e-4 4.27343,-0.329103 6.31641,-0.97461 2.09258,-0.650438 4.053,-1.671342 5.78515,-3.013671 l 0.002,-0.002 c 1.65045,-1.278891 2.98172,-2.905094 3.99804,-4.724609 1.3088,2.436901 3.06586,4.551203 5.30079,6.097656 2.57731,1.784292 5.72277,2.621094 9.07617,2.621094 4.43256,0 8.49893,-1.45198 11.38476,-4.394531 1.72494,-1.758856 2.97151,-3.900909 3.99219,-6.189453 0.18563,0.428473 0.31941,0.877077 0.52539,1.296875 1.32582,2.702775 3.25058,4.991642 5.66992,6.666015 2.57731,1.784292 5.72278,2.621094 9.07617,2.621094 4.43257,0 8.50089,-1.45198 11.38672,-4.394531 2.63792,-2.689781 4.46477,-6.079686 5.44141,-9.923828 0.91772,-3.612252 1.37695,-7.338025 1.37695,-11.150391 0,-0.386665 -0.0888,-0.750279 -0.0976,-1.134766 0.3025,0.252883 0.5447,0.528089 1.04297,0.701172 0.003,0.0013 0.005,0.0026 0.008,0.0039 1.29301,0.445302 1.13436,0.230104 1.51758,0.253906 0.38321,0.0238 0.81927,0.03896 1.31836,0.05078 0.99818,0.02365 2.23469,0.03059 3.49609,0.02344 1.2614,-0.0071 2.53963,-0.02935 3.61523,-0.06445 1.07482,-0.03507 1.68713,-0.01984 2.65039,-0.1875 1.51426,-0.26364 2.91392,-0.907045 4.16602,-1.763671 0.15373,0.241108 0.16397,0.482989 0.37109,0.68164 0.64071,0.614507 1.18153,0.79139 1.39453,0.876953 0.86419,0.347002 1.07745,0.288738 1.44532,0.330078 0.36787,0.04134 0.73962,0.06654 1.14843,0.08594 0.81764,0.0388 1.76608,0.05088 2.73829,0.04297 1.94441,-0.01583 3.44636,0.05431 5.24218,-0.369141 3.16884,-0.745851 5.89033,-2.95661 7.35352,-5.892578 v -0.002 c 0.104,-0.208846 0.17123,-0.75492 0.28906,-1.117188 l 6.39258,-0.04492 2.61523,-0.01953 -0.0586,1.84375 v 0.0059 l -0.0606,2.009765 c -0.0582,1.973211 1.52593,3.604176 3.5,3.603516 h 1.82227 c 1.56307,0 3.26682,-0.255171 4.78906,-1.052735 1.20608,-0.631914 2.22004,-1.520153 3.28906,-2.5625 0.0268,0.05715 0.0961,0.16206 0.11719,0.210938 l 0.55664,1.291016 c 0.55345,1.282325 1.81623,2.112919 3.21289,2.113281 h 2.03125 c 0.85091,0 1.38756,0.01364 2.14453,-0.101563 0.37849,-0.0576 0.84996,-0.08673 1.65039,-0.58789 0.80044,-0.501165 1.73438,-2.05551 1.73438,-3.119141 0,-1.733662 -0.38922,-2.018173 -0.72656,-2.808594 -0.33735,-0.79042 -0.75751,-1.638175 -1.22266,-2.5 -0.50055,-0.927413 -1.76583,-2.505652 -1.76583,-2.505652 0.0875,-0.103008 0.55391,-0.568402 0.63692,-0.670129 0.37645,-0.461323 0.6446,-0.717088 1.05665,-1.539062 0.32188,-0.641437 0.35407,-1.299973 0.49609,-1.955079 0.46833,-0.0578 0.92752,-0.14826 1.38086,-0.33789 0.67417,0.281968 1.36917,0.453125 2.06055,0.453125 1.20877,0 2.46487,-0.385665 3.50976,-1.314453 1.04489,-0.928788 1.71485,-2.46049 1.71484,-3.910157 10e-6,-1.449666 -0.66995,-2.979415 -1.71484,-3.908203 -1.04489,-0.928787 -2.30099,-1.316406 -3.50976,-1.316406 -0.69138,0 -1.38638,0.17311 -2.06055,0.455078 -0.67424,-0.282032 -1.37105,-0.455078 -2.0625,-0.455078 z M 53.212891,27.148437 c -4.191341,0 -8.2101,1.199026 -11.757813,3.492188 -0.0046,0.0026 -0.0091,0.0052 -0.01367,0.0078 -2.874338,1.876925 -5.156618,4.451152 -7.054687,7.371094 -0.08376,-0.226149 -0.111215,-0.482277 -0.205078,-0.703125 h -0.002 C 33.219178,35.057739 31.741065,33.097115 29.814453,31.6875 v -0.002 C 28.003554,30.361897 25.888096,29.445 23.580078,28.910156 21.32124,28.38671 18.800642,28.154297 15.974609,28.154297 H 4.0292969 c -1.9329166,1.93e-4 -3.49980677,1.567083 -3.50000003,3.5 v 42.484375 c 1.8351e-4,1.937502 1.57422733,3.506293 3.51171873,3.5 l 9.8300784,-0.0293 c 1.929102,-0.0056 3.490049,-1.57089 3.490234,-3.5 V 62 c 2.327101,5.66e-4 4.639193,-0.376844 6.841797,-1.128906 h 0.0039 c 2.215878,-0.759489 4.219099,-1.87453 5.916016,-3.34375 l 0.0039,-0.0039 c 0.144261,-0.125184 0.247396,-0.287823 0.386719,-0.417968 0.456229,2.862506 1.190202,5.646438 2.529297,8.207031 0.0032,0.0065 0.0065,0.01303 0.0098,0.01953 2.036457,3.830913 4.874855,6.982382 8.402344,9.261719 3.547713,2.293162 7.566472,3.490234 11.757813,3.490234 1.368936,0.0022 2.735119,-0.123753 4.080078,-0.378906 1.652192,-0.313576 2.847893,-1.757767 2.847656,-3.439453 v -9.910156 c -4.74e-4,-2.512531 -2.569433,-4.206317 -4.878906,-3.216797 -0.64303,0.27564 -1.335544,0.414676 -2.035157,0.412109 -0.0046,-9e-6 -0.0091,-9e-6 -0.01367,0 -1.207232,0 -2.14623,-0.300785 -3.203125,-1.072265 -0.01295,-0.0099 -0.02597,-0.01962 -0.03906,-0.0293 -1.123005,-0.796186 -2.015234,-1.836247 -2.748047,-3.316407 -0.002,-0.0046 -0.0039,-0.0091 -0.0059,-0.01367 -0.727772,-1.454784 -1.066406,-2.889855 -1.066406,-4.472657 0,-1.561926 0.332873,-3.012 1.048828,-4.49414 0.730005,-1.451877 1.62572,-2.501738 2.761718,-3.322266 1.107553,-0.786863 2.075084,-1.089844 3.251954,-1.089844 0.0033,5e-6 0.0065,5e-6 0.0098,0 0.703395,-0.0021 1.399561,0.13883 2.046875,0.414063 0.433576,0.184429 0.899923,0.279426 1.371094,0.279297 1.932917,-1.93e-4 3.499807,-1.567083 3.5,-3.5 v -9.966797 c -1.64e-4,-1.679126 -1.192656,-3.121591 -2.841797,-3.4375 -1.336991,-0.255637 -2.703722,-0.38086 -4.085937,-0.38086 z m 190.384769,1.416016 c -0.0107,0.01718 -0.005,0.03549 -0.0156,0.05273 0.005,-0.0088 5.6e-4,-0.02849 0.006,-0.03711 z m 0.2207,0.634766 c -0.0107,0.01644 0.002,0.0036 -0.008,0.01953 0.002,-0.0026 2.4e-4,-0.0071 0.002,-0.0098 z m 42.13281,1.033203 c 0.12206,0.06551 0.23139,0.03033 0.35547,0.140625 0.39839,0.354121 0.63477,1.021932 0.63477,1.322265 0,0.300335 -0.23638,0.970098 -0.63477,1.324219 -0.12416,0.110362 -0.23334,0.0751 -0.35547,0.140625 0.14357,-0.485522 0.31641,-0.971105 0.31641,-1.464844 0,-0.493109 -0.17319,-0.977941 -0.31641,-1.46289 z m -35.77734,1.566406 c -0.002,0.0116 7e-4,0.0034 -0.002,0.01758 -0.0154,0.08194 -0.17426,0.46822 -0.33789,0.833985 0.13581,-0.272004 0.27112,-0.544777 0.33985,-0.851563 z m -6.35352,0.677734 c 0.0756,0.110598 0.16724,0.200411 0.25196,0.298829 -0.0914,-0.09301 -0.10485,-0.02816 -0.20704,-0.152344 -0.0251,-0.03051 -0.0212,-0.112147 -0.0449,-0.146485 z M 53.140625,34.158203 v 2.59375 c -2.587229,0.01604 -5.120749,0.862487 -7.255859,2.384766 -0.0052,0.0039 -0.01043,0.0078 -0.01563,0.01172 -2.086149,1.504869 -3.758379,3.525805 -4.941407,5.890625 -0.0066,0.01298 -0.0131,0.026 -0.01953,0.03906 -1.155401,2.380938 -1.757812,4.953255 -1.757812,7.568359 0,2.639745 0.61774,5.227418 1.804687,7.601563 6.54e-4,0.0013 0.0013,0.0026 0.002,0.0039 1.17815,2.374266 2.852191,4.397517 4.94336,5.886719 2.111934,1.536687 4.647565,2.384417 7.240234,2.40039 v 2.535157 c -2.875164,-0.0131 -5.410269,-0.758653 -7.886719,-2.359375 -2.516676,-1.626186 -4.481179,-3.781744 -6.011719,-6.65625 -1.49954,-2.871006 -2.246093,-5.945677 -2.246093,-9.41211 0,-3.488904 0.746064,-6.570265 2.24414,-9.4375 1.530205,-2.874483 3.499889,-5.043912 6.019532,-6.691406 2.474718,-1.598315 5.007798,-2.346284 7.880859,-2.359375 z m 79.763675,0.01758 c 2.9435,0 4.99767,0.778903 6.79492,2.382813 1.67042,1.492497 2.49414,3.336955 2.49414,6.492187 0,1.130126 -0.24428,2.168063 -0.80469,3.275391 h -0.002 c -0.5427,1.072703 -1.14654,1.742138 -1.86719,2.228515 -0.007,0.0045 -0.013,0.0091 -0.0195,0.01367 -1.96262,1.344527 -1.98825,4.498021 -0.0469,5.873047 l -0.0254,-0.01953 c 1.58232,1.142923 2.5957,2.266728 3.1836,3.298828 0.53959,0.947102 0.90625,2.305817 0.90625,4.248047 0,1.510717 -0.29433,2.710771 -0.84766,3.78125 -0.003,0.0046 -0.005,0.0091 -0.008,0.01367 -0.56928,1.113147 -1.3768,2.085938 -2.36524,2.851562 v 0.002 c -1.07264,0.831496 -2.28573,1.463268 -3.58203,1.865235 -0.007,0.0019 -0.013,0.0039 -0.0195,0.0059 -1.36275,0.431158 -2.78355,0.65012 -4.21289,0.650391 -1.98669,0 -3.80303,-0.389672 -5.57812,-1.1875 -1.6839,-0.756843 -2.91056,-1.775546 -3.89844,-3.199219 -0.92591,-1.33336 -1.38867,-2.804596 -1.38867,-4.785156 0,-1.414888 0.33118,-2.663309 1.08203,-3.96875 0.77553,-1.348376 1.70645,-2.355708 2.86328,-3.152344 0.0256,-0.01789 0.051,-0.03612 0.0762,-0.05469 1.83313,-1.336181 1.90276,-4.262348 0.13477,-5.683594 -0.0181,-0.0145 -0.0363,-0.02883 -0.0547,-0.04297 -2.25282,-1.739291 -3.06055,-3.385962 -3.06055,-5.953125 0,-1.727839 0.28274,-3.064974 0.74219,-4.103516 v -0.002 c 0.48412,-1.092347 1.10982,-1.900758 1.96875,-2.58789 7.2e-4,-5.79e-4 0.001,-0.0014 0.002,-0.002 0.94887,-0.7545 2.03781,-1.31609 3.20313,-1.650391 0.006,-0.0013 0.0117,-0.0026 0.0176,-0.0039 1.30938,-0.382829 2.73517,-0.585938 4.3125,-0.585938 z m -31.12696,0.002 c 2.35566,0 4.29243,0.498559 6.02735,1.466797 1.7245,0.962004 2.96635,2.22478 3.93164,4.019531 0.95059,1.767433 1.4707,3.880052 1.4707,6.527344 0,4.196092 -1.14479,8.083792 -3.57226,11.927735 -2.36641,3.747243 -5.71033,7.802394 -9.839848,12.064453 l -2.039063,-0.01563 c 0.821147,-0.869779 2.163852,-2.236197 2.781251,-2.91211 l 0.006,-0.0078 c 1.87807,-2.043701 3.58353,-4.240171 5.09766,-6.566406 0.88697,-1.362153 0.71951,-3.155673 -0.4043,-4.330079 l -0.11328,-0.117187 c -1.01294,-1.058418 -2.57787,-1.374051 -3.92188,-0.791016 -0.31312,0.135903 -0.87265,0.273438 -1.734373,0.273438 -1.819696,0 -3.168965,-0.411556 -4.386719,-1.220703 -1.288777,-0.855868 -2.233785,-1.94412 -2.974609,-3.494141 h -0.002 c -0.751558,-1.571716 -1.136719,-3.283256 -1.136719,-5.285156 0,-2.491339 0.487013,-4.515803 1.394531,-6.257813 0.906235,-1.740244 2.072104,-2.951276 3.693359,-3.873047 1.635197,-0.928953 3.464725,-1.408203 5.72265,-1.408203 z m 61.1836,0 c 2.30541,0 3.9316,0.507268 5.22851,1.398438 1.47792,1.015548 2.56774,2.267511 3.40039,3.933594 0.92302,1.84688 1.57942,3.847724 1.9668,6.044921 h -0.002 c 0.40469,2.300598 0.60937,4.670174 0.60937,7.119141 0,3.253634 -0.38788,6.387987 -1.16015,9.427734 -0.71337,2.807858 -1.91822,4.973922 -3.6543,6.744141 -1.49016,1.519449 -3.34724,2.296875 -6.38867,2.296875 -2.24261,0 -3.82111,-0.497244 -5.0918,-1.376953 -1.4301,-0.989553 -2.51913,-2.255408 -3.37109,-3.992188 -0.94244,-1.920705 -1.6086,-3.966648 -1.97657,-6.074218 v -0.0039 c -0.40194,-2.315941 -0.60124,-4.663111 -0.5957,-7.013671 v -0.0078 c 0,-2.433 0.19966,-4.781887 0.5957,-7.052734 6.7e-4,-0.0026 0.001,-0.0052 0.002,-0.0078 0.36292,-2.109774 1.02758,-4.155322 1.97265,-6.076172 v -0.002 c 0.85089,-1.726193 1.94002,-2.988885 3.37305,-3.980469 1.27274,-0.880669 2.84919,-1.376953 5.0918,-1.376953 z m 30.64843,0 c 2.30542,0 3.93161,0.507268 5.22852,1.398438 1.47792,1.015548 2.56774,2.267511 3.40039,3.933594 0.92301,1.84688 1.57942,3.847724 1.9668,6.044921 0.40469,2.300598 0.60937,4.670174 0.60937,7.119141 0,3.253634 -0.38788,6.387987 -1.16015,9.427734 -0.71336,2.807858 -1.92017,4.973922 -3.65625,6.744141 -1.49017,1.519449 -3.34724,2.296875 -6.38868,2.296875 -2.2426,0 -3.8211,-0.497244 -5.09179,-1.376953 -1.4301,-0.989553 -2.51914,-2.255408 -3.3711,-3.992188 -0.94235,-1.920523 -1.60662,-3.966859 -1.97461,-6.074218 -0.40239,-2.317188 -0.6032,-4.665718 -0.59765,-7.017578 v -0.0078 c 0,-2.433 0.19966,-4.781887 0.5957,-7.052734 6.7e-4,-0.0026 0.001,-0.0052 0.002,-0.0078 0.36293,-2.109774 1.02758,-4.155322 1.97266,-6.076172 v -0.002 c 0.85088,-1.726194 1.94002,-2.988885 3.37305,-3.980469 v -0.002 c 1.27116,-0.880032 2.84799,-1.375 5.09179,-1.375 z M 7.5292969,35.154297 h 8.4453121 c 2.431967,0 4.452229,0.211618 6.025391,0.576172 1.523982,0.353156 2.714493,0.899072 3.683594,1.607422 0.852322,0.624186 1.513664,1.444562 2.054687,2.716796 0.518329,1.219558 0.847657,2.88397 0.847656,5.041016 0,1.625658 -0.287124,2.956899 -0.814453,4.121094 -0.0026,0.0065 -0.0052,0.01301 -0.0078,0.01953 -0.513415,1.150983 -1.272735,2.173991 -2.22461,3 -0.97071,0.84002 -2.136383,1.509531 -3.601562,2.011719 -1.057486,0.360747 -2.175793,0.436061 -3.285156,0.539062 V 52.84375 c 1.582711,-0.233447 3.1079,-0.669718 4.376953,-1.693359 1.810709,-1.459431 2.753906,-3.870729 2.753906,-6.113282 0,-2.224715 -0.971262,-4.622766 -2.769531,-6.054687 -1.796238,-1.430304 -4.034694,-1.916016 -6.335938,-1.916016 H 13.86134 c -1.932917,1.93e-4 -3.499807,1.567083 -3.5,3.5 v 30.052735 l -2.8320311,0.0078 z M 132.73437,35.734375 c -4.35187,0 -7.78124,3.713986 -7.78124,7.998047 0,4.284061 3.42937,8 7.78124,8 4.35188,0 7.7793,-3.715939 7.7793,-8 0,-4.284061 -3.42742,-7.998047 -7.7793,-7.998047 z m -30.74218,0.710937 c -2.341898,0.0036 -4.70685,1.069111 -6.285159,2.789063 l -0.002,0.002 c -1.567225,1.709419 -2.439453,4.045462 -2.439453,6.363281 0,1.528351 0.360474,3.057597 1.041016,4.427735 0.703933,1.417232 1.794848,2.672562 3.142578,3.529297 1.345786,0.855505 2.963898,1.316406 4.554688,1.316406 2.38468,0 4.78999,-1.05802 6.41601,-2.796875 v -0.002 c 1.61261,-1.726151 2.51455,-4.100259 2.51758,-6.462891 0.0116,-1.597488 -0.39626,-3.168399 -1.18359,-4.558594 -0.76144,-1.352948 -1.85238,-2.492464 -3.17188,-3.310547 -1.3768,-0.857702 -2.96792,-1.307161 -4.58984,-1.296875 z m 60.96875,0.175782 c -2.25754,0 -4.65362,1.197856 -5.98047,3.039062 -1.19094,1.652609 -1.85098,3.605938 -2.23047,5.800781 l 0.002,-0.002 c -0.36678,2.115907 -0.53125,4.504261 -0.53125,7.214844 0,2.688053 0.16007,5.063426 0.51367,7.167969 0.37085,2.208348 1.04247,4.187013 2.25977,5.851562 1.33254,1.823474 3.70604,3.035157 5.9668,3.035157 3.15894,0 6.04457,-2.375079 7.28906,-5.248047 1.24449,-2.872969 1.64844,-6.369403 1.64844,-10.806641 0,-4.436768 -0.40401,-7.931688 -1.64844,-10.804687 -1.24443,-2.873 -4.12979,-5.248047 -7.28906,-5.248047 z m 30.64843,0 c -2.25753,0 -4.65361,1.197856 -5.98046,3.039062 -1.19095,1.652609 -1.84903,3.605938 -2.22852,5.800781 -0.36658,2.115484 -0.53125,4.503038 -0.53125,7.212891 0,2.688053 0.16006,5.063426 0.51367,7.167969 0.37085,2.208348 1.04247,4.187013 2.25977,5.851562 1.33254,1.823474 3.70604,3.035157 5.96679,3.035157 3.15895,0 6.04458,-2.375079 7.28907,-5.248047 1.24449,-2.872969 1.64843,-6.369403 1.64843,-10.806641 -5.3e-4,-4.436559 -0.40422,-7.931799 -1.64843,-10.804687 -1.24421,-2.872889 -4.1298,-5.248047 -7.28907,-5.248047 z m 16.45118,3.566406 c 0.26594,0.938694 0.91158,1.723803 1.78125,2.166016 -0.37281,0.300493 -0.81009,0.51752 -1.02149,0.865234 -0.22053,-1.024998 -0.43846,-2.050806 -0.75976,-3.03125 z m -77.32618,2.546875 c 0.37613,0 0.7793,0.312108 0.7793,0.998047 0,0.685939 -0.40317,1 -0.7793,1 -0.37612,0 -0.78124,-0.314061 -0.78125,-1 0,-0.685939 0.40513,-0.998047 0.78125,-0.998047 z m -30.73046,0.708984 c 0.01,4.1e-5 0.0195,4.1e-5 0.0293,0 0.30051,-0.0025 0.59466,0.08115 0.84961,0.240235 0.003,0.002 0.007,0.0039 0.01,0.0059 0.31763,0.196664 0.58074,0.471146 0.76367,0.796875 0.003,0.0046 0.005,0.0091 0.008,0.01367 0.18449,0.325088 0.27893,0.692632 0.27539,1.066406 -5e-5,0.01107 -5e-5,0.02213 0,0.0332 0,0.831437 -0.14808,1.174366 -0.63476,1.695313 -0.47661,0.509395 -0.64429,0.578125 -1.30078,0.578125 -0.36322,0 -0.53063,-0.05412 -0.79883,-0.22461 -0.26627,-0.169265 -0.43084,-0.335607 -0.62891,-0.734375 -0.22146,-0.445862 -0.31054,-0.828803 -0.31054,-1.314453 0,-0.799336 0.13999,-1.129173 0.5996,-1.630859 0.44703,-0.487142 0.55445,-0.525391 1.13868,-0.525391 z m 60.95703,0.177735 c 0.46473,0 0.29716,-0.282204 0.86523,1.029297 0.56807,1.3115 1.07227,4.092206 1.07227,8.023437 0,3.931762 -0.50426,6.714109 -1.07227,8.025391 -0.56801,1.311281 -0.40018,1.029297 -0.86523,1.029297 -0.36925,0 -0.089,0.144464 -0.31446,-0.164063 l -0.002,-0.002 c -0.34171,-0.467007 -0.75882,-1.398153 -1.00781,-2.880859 -0.26639,-1.585458 -0.41602,-3.603866 -0.41602,-6.007813 0,-2.421417 0.15453,-4.441485 0.42774,-6.017578 v -0.002 c 0.25851,-1.495157 0.68066,-2.442952 1.01172,-2.902344 0.19514,-0.270794 -0.10968,-0.130859 0.30078,-0.130859 z m 30.64843,0 c 0.46474,0 0.2972,-0.282315 0.86524,1.029297 0.56804,1.311611 1.0718,4.09395 1.07226,8.02539 -1.9e-4,3.930549 -0.50241,6.712412 -1.07031,8.023438 -0.56801,1.311281 -0.40213,1.029297 -0.86719,1.029297 -0.36924,0 -0.089,0.144464 -0.31445,-0.164063 l -0.002,-0.002 c -0.34171,-0.467007 -0.75687,-1.398153 -1.00586,-2.880859 -0.26639,-1.585458 -0.41797,-3.603866 -0.41797,-6.007813 0,-2.421417 0.15452,-4.441485 0.42773,-6.017578 v -0.002 c 0.25852,-1.495157 0.68067,-2.442952 1.01172,-2.902344 0.19515,-0.270794 -0.10968,-0.130859 0.30078,-0.130859 z m -72.01757,5.458984 c -0.0412,0.02839 -0.0724,0.06889 -0.11328,0.09766 0.0157,-0.01188 0.0211,-0.03134 0.0371,-0.04297 z m 11.14257,3.361328 c -4.65362,0 -8.32812,3.970718 -8.32812,8.572266 0,4.601548 3.6745,8.572265 8.32812,8.572265 4.65363,0 8.32618,-3.970717 8.32618,-8.572265 0,-4.601548 -3.67255,-8.572266 -8.32618,-8.572266 z m 10.73438,1.886719 c -0.006,0.0041 -0.008,0.01153 -0.0137,0.01563 l -0.0195,0.01367 c 0.0123,-0.0083 0.021,-0.02096 0.0332,-0.0293 z m -22.11328,0.193359 c 0.0321,0.02516 0.0536,0.05904 0.0859,0.08398 l -0.0547,-0.04102 c -0.0144,-0.01156 -0.0171,-0.0312 -0.0312,-0.04297 z m 11.3789,4.919922 c 0.67838,0 1.32618,0.569814 1.32618,1.572266 0,1.002452 -0.6478,1.572266 -1.32618,1.572265 -0.67837,0 -1.32812,-0.569813 -1.32812,-1.572265 0,-1.002452 0.64975,-1.572266 1.32812,-1.572266 z" id="path2"/>
        <path style="baseline-shift:baseline;display:inline;overflow:visible;vector-effect:none;stroke-linecap:round;stroke-linejoin:round;paint-order:markers stroke fill;enable-background:accumulate;stop-color:#000000;stop-opacity:1" d="m 213.90773,48.934677 c -0.19,-0.066 -0.272,-0.672 -0.272,-2.01 0,-1.546 0.066,-1.941 0.344,-2.048 0.189,-0.073 2.466,-0.132 5.06,-0.132 7.134,0 6.859,0.298 7.09,-7.658 0.109,-3.772 0.239,-5.55 0.412,-5.663 0.139,-0.091 1.084,-0.14 2.101,-0.109 l 1.849,0.055 -0.006,6.307 c -0.005,5.384 -0.058,6.418 -0.363,7.068 -1.089,2.323 -2.87,3.695 -5.357,4.128 -1.32,0.23 -10.225,0.28 -10.858,0.062 z m 18.694,-0.068 c -0.473,-0.19 -0.495,-0.295 -0.435,-2.107 l 0.063,-1.907 3.806,-0.112 c 4.227,-0.124 4.914,-0.325 5.525,-1.619 0.333,-0.704 0.885,-11.091 0.64,-12.03 -0.078,-0.3 -0.015,-0.519 0.171,-0.586 0.505,-0.183 4.304,-0.266 4.197,-0.092 -0.056,0.09 0,0.227 0.123,0.303 0.123,0.076 0.15,0.254 0.058,0.396 -0.092,0.141 -0.167,3.046 -0.167,6.455 0,5.997 -0.016,6.23 -0.491,7.183 -1.095,2.198 -2.716,3.504 -5.023,4.047 -1.408,0.332 -7.685,0.383 -8.467,0.069 z m 29.36,-1.784 0.063,-2.012 1.305,-0.126 c 0.718,-0.069 1.501,-0.233 1.74,-0.365 0.582,-0.32 9.461,-9.263 9.457,-9.525 -0.012,-0.714 -0.35,-0.759 -6.102,-0.817 l -5.747,-0.058 -0.064,-1.807 c -0.038,-1.088 0.032,-1.921 0.176,-2.095 0.192,-0.231 1.426,-0.267 6.262,-0.181 3.312,0.059 6.33,0.202 6.705,0.318 2.349,0.728 3.585,4.301 2.343,6.776 -0.194,0.387 -0.95,1.313 -1.679,2.058 l -1.326,1.355 0.565,0.602 c 1.374,1.463 4.09,6.495 4.09,7.578 0,0.245 -0.421,0.309 -2.03,0.309 h -2.03 l -0.557,-1.292 c -0.699,-1.62 -2.345,-4.145 -2.702,-4.145 -0.148,0 -1.179,0.934 -2.292,2.076 -2.669,2.739 -3.856,3.361 -6.415,3.361 h -1.822 z m -14.199,-5.869 c -0.047,-1.357 0.064,-3.336 0.195,-3.469 0.082,-0.082 3.651,-0.19 7.932,-0.24 6.981,-0.081 7.803,-0.054 7.971,0.259 0.103,0.192 0.172,1.132 0.154,2.088 l -0.033,1.739 -8.101,0.057 -8.101,0.057 z m -33.366,-0.791 -0.87,-0.136 0.072,-1.849 c 0.04,-1.017 0.137,-1.915 0.217,-1.997 0.08,-0.082 2.103,-0.174 4.495,-0.205 l 4.35,-0.057 0.063,2.036 c 0.044,1.417 -0.017,2.085 -0.2,2.198 -0.315,0.195 -6.893,0.203 -8.127,0.01 z m 18.11,-0.912 c -0.342,-0.2 -0.364,-0.593 -0.244,-4.506 0.085,-2.792 0.216,-4.345 0.375,-4.452 0.134,-0.09 1.076,-0.139 2.093,-0.109 l 1.849,0.055 0.044,4.132 c 0.024,2.273 -0.002,4.352 -0.059,4.621 -0.097,0.46 -0.209,0.489 -1.893,0.483 -0.984,-0.002 -1.958,-0.104 -2.165,-0.224 z m -18.035,-4.927 -0.796,-0.084 0.034,-1.941 c 0.019,-1.067 0.132,-1.975 0.252,-2.018 0.12,-0.043 2.175,-0.069 4.567,-0.059 l 4.349,0.018 -0.079,1.957 c -0.043,1.077 -0.122,2.031 -0.176,2.12 -0.095,0.163 -6.63,0.168 -8.151,0.007 z M 4.1207348,20.422677 c -0.062,-0.1 0.324,-2.31 0.857,-4.911 0.533,-2.601 0.97,-4.921 0.97,-5.156 0,-0.236 -0.34,-0.7779999 -0.756,-1.2069999 l -0.756,-0.778 0.422,-0.57 c 0.799,-1.079 2.987,-3.288 3.256,-3.288 0.309,0 0.383,0.077 4.4600002,4.639 1.671,1.8689999 3.106,3.3269999 3.188,3.2399999 0.082,-0.087 0.517,-1.856 0.967,-3.9309999 0.534,-2.464 0.925,-3.814 1.127,-3.891 0.606,-0.233 3.589,1.498 3.406,1.976 -0.062,0.162 -0.601,0.524 -1.197,0.803 -0.596,0.279 -1.182,0.627 -1.303,0.772 -0.121,0.146 -0.755,2.7939999 -1.41,5.8859999 -1.417,6.692 -1.328,6.382 -1.838,6.382 -0.446,0 -1.197,-0.763 -5.211,-5.292 -1.4660002,-1.656 -2.7410002,-2.928 -2.8330002,-2.828 -0.167,0.182 -1.087,4.18 -1.087,4.725 0,0.16 0.391,0.55 0.87,0.867 1.316,0.871 1.171,1.273 -0.746,2.072 -1.672,0.695 -2.193,0.802 -2.386,0.49 z m 35.6150002,-0.041 c -1.243,-0.385 -2.78,-1.598 -3.615,-2.853 -1.353,-2.034 -1.527,-4.261 -0.541,-6.91 1.223,-3.2869999 6.592,-6.4859999 10.541,-6.2809999 l 1.257,0.065 0.683,1.414 c 1.03,2.13 1.058,2.31 0.423,2.726 -0.3,0.197 -0.93,0.409 -1.399,0.472 -0.84,0.113 -0.866,0.095 -1.756,-1.216 -0.599,-0.883 -1.049,-1.33 -1.337,-1.33 -0.803,0 -2.525,1.055 -3.511,2.151 -1.564,1.7399999 -1.813,3.3939999 -0.788,5.2469999 1.15,2.08 3.393,2.421 6.45,0.982 1.452,-0.683 1.846,-0.793 1.994,-0.554 0.264,0.427 -2.224,5.321 -2.946,5.794 -0.661,0.433 -4.363,0.632 -5.455,0.293 z m 159.771995,-0.197 c -0.26,-0.486 -0.306,-2.549 -0.06,-2.701 0.091,-0.056 1.774,-0.174 3.739,-0.262 3.331,-0.149 3.607,-0.194 4.075,-0.662 0.544,-0.544 0.713,-2.105 0.258,-2.386 -0.134,-0.083 -1.392,-0.135 -2.795,-0.115 -2.995,0.042 -3.107,-0.023 -3.008,-1.754 l 0.066,-1.159 2.745,-0.133 c 1.51,-0.073 2.855,-0.201 2.99,-0.285 0.308,-0.19 0.322,-1.9689999 0.02,-2.5319999 -0.205,-0.383 -0.48,-0.421 -3.04,-0.421 -3.266,0 -3.192,-0.047 -3.793,2.3919999 -0.577,2.344 -0.614,2.393 -1.8,2.389 -1.525,-0.004 -2.016,-0.185 -2.016,-0.743 0,-0.752 1.451,-5.7449999 1.844,-6.3449999 0.195,-0.297 0.582,-0.627 0.861,-0.733 0.279,-0.106 2.549,-0.219 5.045,-0.25 4.964,-0.062 5.394,0.019 6.258,1.185 0.426,0.575 0.459,0.937 0.52,5.7559999 0.075,5.889 -0.04,6.484 -1.506,7.738 -1.17,1.001 -2.074,1.188 -6.436,1.325 -3.543,0.111 -3.753,0.095 -3.967,-0.304 z m -180.239995,0.057 c -0.946,-0.132 -0.891,-0.436 0.153,-0.854 0.971,-0.389 1.077,-0.619 1.642,-3.567 0.195,-1.017 0.403,-2.02 0.463,-2.229 0.076,-0.263 -0.063,-0.446 -0.449,-0.593 -0.731,-0.278 -0.698,-0.479 0.143,-0.875 0.655,-0.309 0.718,-0.449 1.183,-2.6099999 0.64,-2.981 0.634,-3.254 -0.09,-3.833 -0.329,-0.263 -0.517,-0.56 -0.417,-0.661 0.1,-0.1 3.109,-0.216 6.687,-0.256 5.705,-0.065 6.522,-0.032 6.634,0.261 0.071,0.184 -0.051,1.195 -0.271,2.246 -0.304,1.452 -0.491,1.928 -0.781,1.984 -0.222,0.043 -0.434,-0.093 -0.508,-0.324 -0.769,-2.411 -1.348,-2.899 -3.435,-2.894 -0.851,0.002 -1.684,0.09 -1.852,0.196 -0.356,0.225 -1.356,5.0359999 -1.105,5.3119999 0.255,0.279 1.981,-0.584 2.701,-1.351 1.193,-1.2709999 1.665,-0.8359999 1.221,1.126 -0.114,0.502 -0.365,1.67 -0.559,2.597 -0.424,2.028 -0.767,2.156 -1.736,0.644 -0.661,-1.032 -1.658,-1.629 -2.055,-1.23 -0.252,0.253 -1.321,5.131 -1.177,5.365 0.144,0.233 2.98,0.213 3.598,-0.025 0.707,-0.273 2.433,-1.956 2.869,-2.798 0.354,-0.684 0.852,-0.912 1.104,-0.505 0.068,0.11 -0.086,1.184 -0.342,2.387 -0.332,1.557 -0.567,2.215 -0.818,2.285 -0.503,0.139 -11.955,0.32 -12.803,0.202 z m 30.32,0.001 c -0.196,-0.196 -0.179,-2.729 0.021,-3.038 0.088,-0.136 0.512,-0.394 0.943,-0.573 0.431,-0.179 0.993,-0.621 1.25,-0.982 0.444,-0.624 0.467,-0.894 0.467,-5.476 0,-2.9059999 0.089,-4.9869999 0.225,-5.2399999 0.186,-0.347 0.461,-0.42 1.577,-0.417 0.743,0.002 1.494,0.094 1.669,0.204 0.264,0.167 0.319,1.109 0.326,5.5969999 l 0.009,5.396 -0.613,1.248 c -0.697,1.418 -1.997,2.603 -3.402,3.099 -0.969,0.34 -2.221,0.433 -2.472,0.182 z m 13.435,-0.371 c -0.605,-0.282 -1.456,-0.928 -1.891,-1.437 -1.384,-1.617 -1.528,-2.322 -1.632,-7.973 -0.065,-3.5389999 -0.019,-5.1719999 0.157,-5.4999999 0.227,-0.425 0.4,-0.461 1.923,-0.404 l 1.673,0.063 0.109,5.15 c 0.13,6.1479999 0.064,5.9669999 2.61,7.1409999 0.35,0.161 0.564,2.062 0.335,2.975 -0.109,0.435 -0.261,0.501 -1.155,0.499 -0.621,-0.002 -1.466,-0.206 -2.129,-0.514 z m 49.360995,0.222 c -0.062,-0.161 -0.083,-0.96 -0.048,-1.776 0.064,-1.454 0.078,-1.487 0.765,-1.718 1.475,-0.498 1.464,-0.45 1.584,-6.387 l 0.109,-5.3749999 1.493,-0.201 c 2.323,-0.312 2.194,-0.628 2.262,5.5369999 0.047,4.29 -0.006,5.511 -0.283,6.463 -0.46,1.581 -1.81,2.942 -3.383,3.409 -1.408,0.42 -2.35,0.437 -2.499,0.048 z m 17.03,0.162 c -0.288,-0.288 -0.184,-3.345 0.114,-3.377 0.15,-0.016 2.278,-0.09 4.73,-0.163 l 4.458,-0.133 V 8.3176771 l -4.676,-0.109 -4.676,-0.109 -0.065,-1.501 c -0.036,-0.825 0.013,-1.579 0.109,-1.675 0.096,-0.096 2.726,-0.19 5.846,-0.209 6.208,-0.039 6.275,-0.027 7.072,1.251 0.391,0.627 0.445,1.22 0.565,6.2029999 0.151,6.248 0.078,6.717 -1.169,7.566 -0.794,0.541 -0.829,0.544 -6.474,0.611 -3.122,0.037 -5.747,-0.003 -5.834,-0.09 z m 14.358,0.004 c -0.089,-0.089 -0.162,-0.866 -0.162,-1.726 v -1.564 l 1.337,-0.14 c 0.735,-0.077 2.74,-0.14 4.455,-0.14 h 3.118 l 0.71,-0.634 0.71,-0.634 0.109,-4.702 c 0.089,-3.8599999 0.167,-4.7389999 0.435,-4.9079999 0.42,-0.265 3.198,-0.275 3.36,-0.013 0.068,0.11 0.14,2.385 0.16,5.0559999 0.033,4.458 0,4.938 -0.406,5.846 -0.638,1.429 -1.642,2.47 -2.95,3.057 -1.069,0.48 -1.455,0.518 -5.928,0.589 -2.633,0.042 -4.859,0.003 -4.948,-0.087 z m 18.145,-0.203 c -1.219,-0.529 -1.985,-1.188 -2.484,-2.134 -0.457,-0.867 -0.477,-1.159 -0.484,-6.84 -0.006,-5.0419999 0.042,-5.9659999 0.319,-6.1449999 0.179,-0.116 1.06,-0.186 1.957,-0.155 l 1.631,0.056 0.057,1.087 c 0.118,2.264 -0.325,2.066 4.633,2.066 h 4.355 l -0.064,1.577 -0.064,1.5769999 -4.35,0.125 c -2.392,0.069 -4.383,0.142 -4.424,0.163 -0.041,0.021 -0.041,1.062 0,2.314 0.104,3.198 -0.181,3.026 5.246,3.161 l 4.397,0.109 0.065,1.503 c 0.046,1.055 -0.019,1.556 -0.217,1.682 -0.155,0.099 -2.436,0.177 -5.067,0.174 -3.678,-0.005 -4.952,-0.079 -5.506,-0.32 z m 12.193,0.187 c -0.302,-0.122 -0.38,-2.393 -0.098,-2.837 0.105,-0.165 0.894,-0.286 2.117,-0.326 l 1.95,-0.064 0.066,-1.135 c 0.097,-1.686 -0.161,-2.018 -1.569,-2.018 -1.381,0 -1.709,-0.293 -1.628,-1.457 0.101,-1.463 0.253,-1.589 1.889,-1.572 2.701,0.029 3.748,0.275 4.432,1.041 0.579,0.649 0.617,0.807 0.617,2.626 0,2.592 0.017,2.624 1.429,2.624 0.929,0 1.211,0.085 1.39,0.421 0.308,0.575 0.284,2.26 -0.036,2.58 -0.189,0.189 -1.645,0.256 -5.274,0.244 -2.757,-0.01 -5.135,-0.067 -5.285,-0.127 z m -91.882995,-0.198 c -0.281,-0.286 -0.188,-3.064 0.111,-3.312 0.153,-0.127 1.677,-0.259 3.463,-0.298 3.052,-0.068 3.214,-0.095 3.778,-0.615 0.919,-0.849 1.127,-1.594 1.764,-6.3339999 0.328,-2.437 0.698,-4.503 0.824,-4.591 0.126,-0.088 0.987,-0.161 1.914,-0.163 l 1.685,-0.003 v 0.612 c 0,0.337 -0.15,1.731 -0.333,3.099 -0.223457,1.6783299 -0.441791,3.3573379 -0.655,5.0369999 -0.177,1.402 -0.437,2.821 -0.579,3.153 -0.476,1.116 -1.683,2.407 -2.726,2.918 -0.947,0.463 -1.378,0.513 -5.059,0.585 -2.213,0.043 -4.097,0.004 -4.187,-0.088 z m 16.148,-1.584 v -1.771 h 1.312 c 0.721995,0 1.637995,-0.136 2.037995,-0.303 1.268,-0.53 1.435,-0.993 1.435,-3.986 V 9.7316771 h -2.841 c -1.562995,0 -3.030995,-0.101 -3.261995,-0.225 -0.353,-0.189 -0.421,-0.465 -0.421,-1.714 0,-1.809 -0.123,-1.75 3.705995,-1.755 l 2.728,-0.003 0.208,-0.707 0.208,-0.707 h 3.44 l 0.256,0.761 0.256,0.761 3.026,0.109 3.026,0.109 v 3.262 h -2.972 c -1.635,0 -3.035,0.063 -3.111,0.139 -0.077,0.077 -0.181,1.4279999 -0.231,3.0019999 -0.106,3.308 -0.401,4.226 -1.814,5.639 -1.239,1.239 -2.156,1.568 -4.757,1.709 l -2.228995,0.12 z m 23.034995,1.147 -0.527,-0.561 -0.063,-7.038 c -0.063,-7.0349999 -0.063,-7.0389999 0.41,-7.2919999 0.444,-0.238 3.087,-0.215 3.331,0.029 0.059,0.059 0.125,2.207 0.148,4.775 0.023,2.5679999 0.101,5.1579999 0.174,5.7559999 0.15,1.231 0.158,1.234 2.688,0.884 l 1.25,-0.173 v 1.629 c 0,1.112 -0.094,1.708 -0.297,1.876 -0.373,0.309 -3.023,0.661 -5.048,0.67 -1.377,0.006 -1.594,-0.053 -2.066,-0.555 z m 61.214,-5.866 c -0.162,-0.646 -0.005,-2.643 0.226,-2.875 0.196,-0.196 12.128,-0.358 12.859,-0.174 0.501,0.126 0.529,0.219 0.529,1.733 v 1.6 l -0.68,0.136 c -0.374,0.075 -3.406,0.136 -6.738,0.136 h -6.058 z m -112.257995,0.175 -3.108,-0.067 0.063,-1.671 0.063,-1.671 0.677,-0.138 c 0.372,-0.076 3.382,-0.091 6.687,-0.033 l 6.01,0.105 v 1.687 c 0,1.337 -0.071,1.714 -0.344,1.819 -0.327,0.126 -3.183,0.117 -10.048,-0.031 z m 11.398,-1.957 c -0.223,-0.758 -0.82,-6.1009999 -0.75,-6.7129999 0.071,-0.625 0.078,-0.627 1.76,-0.69 1.229,-0.046 1.717,0.013 1.792,0.217 0.163,0.443 0.978,6.2149999 0.978,6.9259999 v 0.64 h -1.834 c -1.559,0 -1.851,-0.057 -1.946,-0.38 z M 173.47173,9.2066771 c -2.27,-1.026 -1.494,-4.564 1.065,-4.852 1.854,-0.209 3.168,1.063 2.93,2.836 -0.236,1.758 -2.282,2.791 -3.995,2.016 z m 2.062,-2.213 c 0.20541,-1.4264897 -2.16329,-0.8509351 -1.25,0.25 0.386,0.465 1.171,0.308 1.25,-0.25 z m -110.432995,1.934 c -0.954,-0.492 -1.617,-1.749 -1.413,-2.68 0.633,-2.883 4.815,-3.04 5.438,-0.204 0.487,2.214 -1.945,3.956 -4.025,2.884 z m 1.848,-2.35 c 0,-0.495 -0.099,-0.652 -0.411,-0.652 -0.514,0 -0.9,0.582 -0.712,1.073 0.089,0.233 0.325,0.345 0.633,0.301 0.384,-0.054 0.49,-0.21 0.49,-0.722 z m 76.838995,1.561 c -0.195,-0.195 -0.29,-0.775 -0.276,-1.681 0.022,-1.364 0.032,-1.386 0.71,-1.562 0.378,-0.098 2.181,-0.151 4.007,-0.118 l 3.319,0.06 v 3.48 l -3.731,0.059 c -2.93,0.047 -3.796,-0.004 -4.029,-0.238 z m 143.102,23.5569999 c 0,2.298666 -3.448,2.298666 -3.448,0 0,-2.298665 3.448,-2.298665 3.448,0 z m -4.122,0 c 0,2.298666 -3.448,2.298666 -3.448,0 0,-2.298665 3.448,-2.298665 3.448,0 z m -267.615995,26.811 v -8.911 h 1.526 c 1.803,0 3.188,-0.389 4.155,-1.169 0.967,-0.779 1.451,-1.91 1.451,-3.39 0,-1.441 -0.484,-2.546 -1.451,-3.316 -0.967,-0.77 -2.352,-1.155 -4.155,-1.155 h -2.817 v 33.543 l -9.8310002,0.03 v -42.484 H 15.973735 c 2.629,0 4.901,0.222 6.817,0.666 1.916,0.444 3.568,1.175 4.958,2.191 1.39,1.017 2.46,2.408 3.211,4.174 0.751,1.767 1.127,3.903 1.127,6.41 0,2.053 -0.376,3.908 -1.127,5.566 -0.721667,1.617848 -1.789023,3.057943 -3.127,4.219 -1.334,1.155 -2.92,2.048 -4.761,2.679 -1.858919,0.634713 -3.810724,0.954776 -5.775,0.947 z m 43.234,-3.862 v -6.027 h 22.417 v 6.027 z m 42.940995,19.05 -11.689995,-0.089 c 3.737,-3.829 6.512,-6.735 8.324,-8.719 1.749235,-1.902755 3.337045,-3.947816 4.746995,-6.114 l -0.113,-0.118 c -0.864,0.375 -1.906,0.563 -3.126995,0.563 -2.404,0 -4.512,-0.602 -6.324,-1.806 -1.813,-1.204 -3.211,-2.837 -4.197,-4.9 -0.986,-2.062 -1.479,-4.327 -1.479,-6.795 0,-2.961 0.596,-5.585 1.789,-7.875 1.192,-2.289 2.883,-4.056 5.07,-5.299 2.188,-1.243 4.671,-1.865 7.450995,-1.865 2.873,0 5.451,0.637 7.732,1.91 2.282,1.273 4.052,3.079 5.31,5.418 1.258,2.339 1.887,5.068 1.887,8.186 0,4.855 -1.371,9.454 -4.113,13.796 -2.742,4.342 -6.497,8.911 -11.267,13.707 z m 6.113,-28.096 c 0.009,-0.990371 -0.24316,-1.965629 -0.732,-2.827 -0.47272,-0.841723 -1.15121,-1.549798 -1.972,-2.058 -0.81901,-0.511037 -1.76667,-0.778131 -2.732,-0.77 -1.465,0 -2.703995,0.553 -3.717995,1.658 -1.014,1.106 -1.521,2.438 -1.521,3.997 0,1.007 0.225,1.964 0.676,2.872 0.451,0.908 1.08,1.619 1.887,2.132 0.806995,0.513 1.698995,0.77 2.675995,0.77 1.521,0 2.807,-0.563 3.859,-1.688 1.051,-1.125 1.577,-2.487 1.577,-4.086 z m 55.521,-14.921 c 2.854,0 5.258,0.671 7.211,2.013 1.953,1.342 3.469,3.094 4.549,5.255 1.08,2.161 1.84,4.495 2.282,7.002 0.441,2.507 0.662,5.083 0.662,7.727 0,3.533 -0.423,6.962 -1.268,10.288 -0.845,3.326 -2.362,6.104 -4.549,8.334 -2.188,2.231 -5.15,3.345 -8.887,3.345 -2.798,0 -5.16,-0.666 -7.084,-1.998 -1.925,-1.332 -3.432,-3.109 -4.521,-5.329 -1.08891,-2.219218 -1.85725,-4.581791 -2.282,-7.017 -0.43721,-2.517665 -0.65403,-5.068662 -0.648,-7.624 0,-2.625 0.216,-5.176 0.648,-7.653 0.41988,-2.440893 1.18841,-4.808767 2.282,-7.031 1.089,-2.21 2.596,-3.982 4.521,-5.314 1.925,-1.332 4.286,-1.998 7.084,-1.998 z m 0,9.444 c -1.334,0 -2.38,0.528 -3.141,1.584 -0.761,1.056 -1.301,2.507 -1.62,4.352 -0.32,1.846 -0.479,4.051 -0.479,6.617 0,2.546 0.155,4.742 0.465,6.587 0.31,1.846 0.854,3.301 1.634,4.367 0.779,1.066 1.826,1.599 3.141,1.599 3.624,0 5.437,-4.184 5.437,-12.553 0,-8.368 -1.813,-12.553 -5.437,-12.553 z m 30.649,-9.444 c 2.854,0 5.258,0.671 7.211,2.013 1.953,1.342 3.469,3.094 4.549,5.255 1.08,2.161 1.84,4.495 2.282,7.002 0.441,2.507 0.662,5.083 0.662,7.727 0,3.533 -0.423,6.962 -1.268,10.288 -0.845,3.326 -2.362,6.104 -4.549,8.334 -2.188,2.231 -5.15,3.345 -8.887,3.345 -2.798,0 -5.16,-0.666 -7.084,-1.998 -1.925,-1.332 -3.432,-3.109 -4.521,-5.329 -1.08891,-2.219218 -1.85725,-4.581791 -2.282,-7.017 -0.43721,-2.517665 -0.65403,-5.068662 -0.648,-7.624 0,-2.625 0.216,-5.176 0.648,-7.653 0.41988,-2.440893 1.18841,-4.808767 2.282,-7.031 1.089,-2.21 2.596,-3.982 4.521,-5.314 1.924,-1.332 4.285,-1.998 7.084,-1.998 z m 0,9.444 c -1.334,0 -2.38,0.528 -3.141,1.584 -0.761,1.056 -1.301,2.507 -1.62,4.352 -0.32,1.846 -0.479,4.051 -0.479,6.617 0,2.546 0.155,4.742 0.465,6.587 0.31,1.846 0.854,3.301 1.634,4.367 0.779,1.066 1.826,1.599 3.141,1.599 3.624,0 5.437,-4.184 5.437,-12.553 -0.001,-8.368 -1.813,-12.553 -5.437,-12.553 z m -74.452,2.99 c 0,-2.112 0.347,-3.952 1.042,-5.522 0.695,-1.569 1.69,-2.872 2.986,-3.908 1.31011,-1.043383 2.81311,-1.818164 4.423,-2.28 1.652,-0.483 3.418,-0.725 5.296,-0.725 3.643,0 6.685,1.091 9.127,3.271 2.441,2.181 3.662,5.216 3.662,9.104 0,1.678 -0.394,3.296 -1.183,4.855 -0.77,1.522 -1.781,2.705 -3.033,3.55 -0.0448,0.03069 -0.0453,0.09662 -0.001,0.128 1.887,1.363 3.279,2.831 4.175,4.404 0.911,1.599 1.366,3.593 1.366,5.98 0,1.994 -0.413,3.79 -1.239,5.388 -0.80339,1.570924 -1.94308,2.945516 -3.338,4.026 -1.40429,1.088585 -2.99291,1.91575 -4.69,2.442 -1.70404,0.539135 -3.48071,0.813661 -5.268,0.814 -2.46,0 -4.798,-0.499 -7.014,-1.495 -2.216,-0.996 -3.996,-2.462 -5.338,-4.396 -1.343,-1.934 -2.014,-4.194 -2.014,-6.78 0,-2.013 0.516,-3.918 1.549,-5.714 1.014,-1.763 2.318,-3.194 3.911,-4.291 0.0426,-0.03102 0.044,-0.094 0.003,-0.127 -2.948,-2.276 -4.422,-5.185 -4.422,-8.724 z m 13.576,-3.878 c -2.364,0 -4.28,2.014 -4.28,4.499 0,2.485 1.916,4.499 4.28,4.499 2.364,0 4.28,-2.014 4.28,-4.499 0,-2.485 -1.916,-4.499 -4.28,-4.499 z m 0,16.707 c -2.666,0 -4.827,2.271 -4.827,5.073 0,2.802 2.161,5.073 4.827,5.073 2.666,0 4.827,-2.271 4.827,-5.073 0,-2.802 -2.161,-5.073 -4.827,-5.073 z m -76.093995,-15.008 c -1.083602,-0.46074 -2.249519,-0.696509 -3.427,-0.693 -1.897,0 -3.662,0.582 -5.296,1.747 -1.615,1.165 -2.901,2.704 -3.859,4.619 -0.939,1.935 -1.408,3.948 -1.408,6.04 0,2.112 0.479,4.125 1.437,6.04 0.958,1.935 2.244,3.474 3.859,4.619 1.596,1.165 3.352,1.747 5.268,1.747 1.177964,0.0043 2.344307,-0.232895 3.427,-0.697 v 9.911 c -1.129697,0.214315 -2.277156,0.321126 -3.427,0.319 -3.549,0 -6.836,-0.977 -9.859,-2.931 -3.024,-1.954 -5.427,-4.608 -7.211,-7.964 -1.765,-3.375 -2.648,-7.056 -2.648,-11.043 0,-4.007 0.882,-7.698 2.648,-11.073 1.784,-3.355 4.188,-6.02 7.211,-7.994 3.023,-1.954 6.31,-2.931 9.859,-2.931 1.171,0 2.313,0.106 3.427,0.319 v 9.965 z" id="path3"/>
    </g>
</svg>
