<?xml version='1.0' encoding='utf-8'?>
<svg xmlns="http://www.w3.org/2000/svg" version="1.2" width="464.9354266481445" height="300" viewBox="14.968 80.666 117.29704 75.68602" xml:space="preserve" id="svg18">
    <defs id="defs18">
        <linearGradient id="swatch28">
            <stop style="stop-color:#ffffff;stop-opacity:1" offset="0" id="stop28"/>
        </linearGradient>
    </defs>
    <g id="path16" style="opacity:1;fill:#c61717;stroke:#ffffff;stroke-width:4;stroke-linecap:round;stroke-linejoin:round;stroke-dasharray:none;stroke-opacity:1;paint-order:markers stroke fill" transform="translate(-9.4326367,-10.881412)">
        <g id="path8" style="opacity:1">
            <path style="baseline-shift:baseline;display:inline;overflow:visible;vector-effect:none;fill:#ffffff;stroke:none;enable-background:accumulate;stop-color:#000000;stop-opacity:1" d="m 85.935547,101.55664 c -0.67477,-0.0321 -1.449671,0.25714 -1.927735,0.74609 -0.478063,0.48896 -0.687493,1.08276 -0.714843,1.65821 -0.02735,0.57544 0.125153,1.18666 0.554687,1.71875 0.429535,0.53209 1.172887,0.89371 1.847656,0.92578 5.926135,0.28252 11.705482,0.88268 17.167968,1.7793 0.1064,0.0176 0.21455,0.0217 0.32227,0.0254 0.65927,0.0287 1.4054,-0.23662 1.8789,-0.69922 0.47788,-0.46688 0.70537,-1.04278 0.75196,-1.60938 0.0466,-0.56659 -0.0833,-1.17423 -0.47852,-1.71289 -0.3952,-0.53865 -1.09539,-0.92964 -1.75586,-1.0039 -5.637219,-0.92139 -11.5678,-1.53737 -17.64453,-1.82813 a 2.0002,2.0002 0 0 0 -0.002,0 z m -30.15625,1.45117 a 2.0002,2.0002 0 0 0 -0.0918,0.0117 c -8.762949,1.37538 -16.212637,3.53926 -21.673828,6.39258 -5.761346,3.01089 -9.422788,6.91643 -9.605469,11.56836 -0.110612,2.80815 1.110677,5.5098 3.244141,7.84765 2.133463,2.33786 5.181984,4.41627 9.08789,6.3125 a 2.0002,2.0002 0 0 0 0.0039,0.002 c 0.339458,0.16388 0.71095,0.25003 1.08789,0.25195 1.183413,0.006 2.241694,-0.95075 2.47461,-1.95703 0.232851,-1.006 -0.29808,-2.3271 -1.363282,-2.8418 -3.346141,-1.62501 -5.846131,-3.37745 -7.402343,-5.0332 -1.556886,-1.65646 -2.134022,-3.10998 -2.083985,-4.38086 a 2.0002,2.0002 0 0 0 0,-0.002 c 0.08528,-2.18308 2.172603,-4.82152 6.835938,-7.26953 4.663334,-2.44802 11.604261,-4.55185 20.179687,-5.89844 a 2.0002,2.0002 0 0 0 0.0918,-0.0176 c 0.645784,-0.13299 1.300316,-0.57858 1.646484,-1.14062 0.346169,-0.56205 0.429783,-1.17056 0.341797,-1.72852 -0.08799,-0.55796 -0.355092,-1.11082 -0.857422,-1.53906 -0.502329,-0.42825 -1.260644,-0.65032 -1.916015,-0.57813 z m 0.07227,1.05078 c -0.03661,0.006 -0.06305,0.0157 -0.09961,0.0215 0.0019,-4.1e-4 0.004,-0.004 0.0059,-0.004 z m 53.468748,0.45508 c -0.66328,-0.15145 -1.48756,-3.9e-4 -2.04687,0.40625 -0.56034,0.40739 -0.86807,0.96382 -0.98828,1.53125 -0.12022,0.56743 -0.0658,1.20312 0.28125,1.80274 0.34699,0.59961 1.04209,1.07166 1.71093,1.20117 l -0.0352,-0.006 c 8.55746,1.81492 15.68237,4.34999 20.47461,7.19141 a 2.0002,2.0002 0 0 0 0,0.002 c 4.81394,2.8503 6.73816,5.69127 6.66992,7.87305 a 2.0002,2.0002 0 0 0 0,0.002 c -0.049,1.57453 -1.02837,3.27754 -3.31641,5.07031 -2.28804,1.79277 -5.78868,3.52944 -10.19922,4.98438 -8.82108,2.90986 -21.25581,4.73632 -35.164059,4.73632 h -0.4375 -0.002 c -0.674758,-1.4e-4 -1.432478,0.32394 -1.886719,0.83399 -0.454633,0.51049 -0.638124,1.11172 -0.638672,1.6875 -5.47e-4,0.57578 0.181203,1.18008 0.634766,1.6914 0.453563,0.51133 1.213476,0.83719 1.888672,0.83789 h 0.4375 a 2.0002,2.0002 0 0 0 0.0039,0 c 13.954289,0 26.944969,-1.7424 36.796879,-5.00781 5.09738,-1.6907 9.15316,-3.72026 12.07226,-6.1289 2.9191,-2.40864 4.76099,-5.32888 4.86133,-8.54688 0.14785,-4.75679 -3.37889,-8.96341 -9.14648,-12.38086 -5.46754,-3.24108 -13.02369,-5.88243 -21.97071,-7.78125 z" id="path55"/>
            <path style="baseline-shift:baseline;display:inline;overflow:visible;vector-effect:none;stroke:none;enable-background:accumulate;stop-color:#000000;stop-opacity:1" d="m 37.843,133.394 a 0.533,0.533 0 0 1 -0.229,-0.053 c -7.506,-3.644 -11.381,-7.89 -11.208,-12.282 0.142,-3.616 3.092,-7.03 8.534,-9.874 5.162,-2.697 12.444,-4.838 21.058,-6.19 a 0.527,0.527 0 0 1 0.164,1.04 c -17.449,2.74 -28.447,8.514 -28.703,15.067 -0.153,3.886 3.616,7.896 10.615,11.294 a 0.525,0.525 0 0 1 -0.231,0.998 z m 65.43,-26.976 a 0.49,0.49 0 0 1 -0.086,-0.007 c -5.544,-0.91 -11.397,-1.518 -17.396,-1.804 a 0.52659377,0.52659377 0 0 1 0.05,-1.052 c 6.04,0.289 11.933,0.9 17.518,1.817 a 0.525,0.525 0 0 1 -0.086,1.046 z m -16.565,35.942 -0.441,-0.001 a 0.52550024,0.52550024 0 0 1 0.001,-1.051 h 0.44 c 28.163,0 50.385,-7.319 50.678,-16.729 0.103,-3.293 -2.541,-6.633 -7.65,-9.658 -5.085,-3.015 -12.375,-5.583 -21.079,-7.429 a 0.526,0.526 0 1 1 0.218,-1.029 c 8.814,1.868 16.213,4.48 21.397,7.553 5.458,3.234 8.281,6.897 8.166,10.597 -0.156,5.003 -5.683,9.564 -15.563,12.841 -9.552,3.166 -22.381,4.906 -36.167,4.906 z" id="path56"/>
        </g>
        <path style="baseline-shift:baseline;display:inline;overflow:visible;opacity:1;vector-effect:none;fill:#ffffff;stroke:none;stroke-width:4;stroke-linecap:butt;stroke-linejoin:miter;stroke-dasharray:none;stroke-opacity:1;paint-order:markers fill stroke;enable-background:accumulate;stop-color:#000000;stop-opacity:1" d="m 109.38867,102.51563 -15.066404,6.01367 -3.652344,-3.80078 a 2.0002,2.0002 0 0 0 -3.394531,1.8164 l 1.185546,5.36719 -12.876953,9.81445 a 2.0002,2.0002 0 0 0 1.955078,3.44727 l 15.06836,-6.01563 3.65039,3.80274 a 2.0002,2.0002 0 0 0 3.394532,-1.81836 l -1.185547,-5.36328 12.876953,-9.81641 a 2.0002,2.0002 0 0 0 -1.95508,-3.44726 z m -12.113279,9.14257 -2.25,1.71485 a 2.0002,2.0002 0 0 0 -0.726563,1.98633 2.0002,2.0002 0 0 0 -1.923828,-0.41602 l -2.714844,1.08398 2.242188,-1.70898 a 2.0002,2.0002 0 0 0 0.728515,-1.98828 2.0002,2.0002 0 0 0 1.923828,0.41406 z" id="path51"/>
        <path style="baseline-shift:baseline;display:inline;overflow:visible;opacity:1;vector-effect:none;fill:#ffffff;stroke:none;stroke-width:4;stroke-linecap:butt;stroke-linejoin:miter;stroke-dasharray:none;stroke-opacity:1;paint-order:markers stroke fill;enable-background:accumulate;stop-color:#000000;stop-opacity:1" d="m 71.382812,94.814453 -12.935546,2.050781 c -0.836538,0.132135 -1.499188,0.77679 -1.654297,1.609375 l -2.498047,13.441411 -10.517578,1.66992 c -2.077216,0.32843 -3.465039,1.81805 -3.837891,3.83008 l -4.453125,23.9414 v 0.002 c -0.186603,1.00465 0.0123,2.14643 0.755859,2.97852 0.743562,0.83209 1.949933,1.16846 2.988282,1.00586 0.0013,-6.7e-4 0.0026,-10e-4 0.0039,-0.002 l 22.728516,-3.60743 c 0.266123,-0.15959 0.491465,-0.37891 0.658203,-0.64062 0.321925,0.2272 0.703784,0.35426 1.097656,0.36523 l 5.386719,-0.85937 -1.263672,6.79101 c -0.251404,1.35757 0.915604,2.55558 2.279297,2.33985 l 3.800781,-0.60156 -0.117188,0.0156 c 4.992921,-0.4931 8.701778,-2.08294 11.275391,-4.47266 2.1838,-2.02775 3.352156,-4.59744 4.080078,-7.2539 l 10.222656,-1.6211 c 0.266342,-0.16015 0.491702,-0.38015 0.658204,-0.64257 0.32104,0.22578 0.70142,0.35212 1.09375,0.36328 l 8.18554,-1.29883 c 0.22444,-0.14448 0.41768,-0.33241 0.56836,-0.55273 0.55329,0.0708 1.07432,0.29061 1.64453,0.20117 h 0.004 l 14.1543,-2.24414 c 0.83578,-0.13289 1.49748,-0.77739 1.65234,-1.60938 l 1.32031,-7.10547 c -0.0358,-0.39232 -0.18662,-0.76534 -0.43359,-1.07226 0.50743,-0.81825 0.93116,-1.67897 1.10937,-2.63672 l 0.21875,-1.10156 c 0.004,-0.0188 0.008,-0.0377 0.0117,-0.0566 0.45716,-2.71316 -0.74514,-5.03113 -2.36133,-6.16016 -1.61552,-1.12857 -3.33467,-1.41226 -4.8457,-1.17188 h -0.002 l -8.1211,1.28907 c -1.54079,0.24537 -2.86961,1.07818 -4.0664,2.0957 -1.21969,-0.67284 -2.49493,-1.05329 -3.77735,-0.84961 l -9.04296,1.43555 c -1.302424,0.20768 -2.050862,1.59694 -1.507813,2.79883 l 0.451172,0.99804 -1.634766,-1.92773 c -0.540158,-0.63718 -1.419404,-0.8716 -2.205078,-0.58789 l -9.52539,3.44336 c -0.994034,0.70139 -1.136944,2.12034 -0.302735,3.00586 L 78.90625,123 l 2.453125,-1.88672 c 1.652771,-1.2697 0.504444,-3.90478 -1.550781,-3.55859 l -2.189453,0.36719 c -0.0017,2.7e-4 -0.0041,0.002 -0.0059,0.002 -1.297977,0.20668 -2.903212,1.01513 -4.412109,2.24023 -0.421327,-0.25545 -0.852889,-0.47806 -1.283203,-0.63281 -0.988832,-0.35559 -1.935052,-0.50989 -2.935547,-0.35156 h -0.002 l -5.3125,0.84375 0.544922,-2.93164 4.523437,-0.7168 c 2.185396,-0.34608 4.115035,-1.59764 5.689453,-3.19727 1.574418,-1.59962 2.811131,-3.58246 3.220703,-5.78515 l 0.890625,-4.78711 c 0.410121,-2.20407 -0.157265,-4.360264 -1.5,-5.861329 -1.342735,-1.501065 -3.469399,-2.276387 -5.654297,-1.929688 z m 0.626954,3.949219 c 0.966102,-0.153301 1.58536,0.130549 2.046875,0.646484 0.461515,0.515935 0.756754,1.334964 0.546875,2.462894 l -0.890625,4.78906 c -0.209428,1.12631 -1.025137,2.57961 -2.136719,3.70898 -1.111582,1.12938 -2.501193,1.89982 -3.466797,2.05274 l -5.917969,0.9375 c -0.836537,0.13213 -1.499186,0.77679 -1.654297,1.60937 l -1.322265,7.10743 c 0.01088,0.3536 0.115339,0.69799 0.302734,0.99804 L 58.529297,123.23438 58.757812,122 c 0.116366,-1.1289 -0.728781,-2.12836 -1.861328,-2.20117 l 0.558594,-2.99024 c 0.1164,-0.63646 -0.08226,-1.28992 -0.533203,-1.7539 0.465053,-0.19565 0.838989,-0.55982 1.046875,-1.01953 l 2.5,-13.43946 z m -3.544922,2.205078 -4.091797,0.64648 c -0.837119,0.13239 -1.499929,0.77798 -1.654297,1.61133 l -1.089844,5.86914 c -0.252978,1.35832 0.914634,2.55795 2.279297,2.3418 l 4.089844,-0.64844 h 0.0039 c 1.366413,-0.21883 2.454,-1.37049 2.699219,-2.66992 6.7e-4,-0.002 0.0013,-0.004 0.002,-0.006 l 0.744141,-4.01172 c 0.123858,-0.65401 0.09056,-1.58644 -0.585938,-2.34179 -0.676496,-0.75536 -1.710057,-0.89967 -2.396484,-0.79102 z m -1.294922,4.25391 -0.314453,1.69726 -0.777344,0.12305 0.316406,-1.69727 z m 30.228515,14.78515 c 0.1779,0.13873 0.377989,0.24637 0.591797,0.31836 -0.151926,0.11127 -0.287378,0.24343 -0.402343,0.39258 -0.01865,-0.24666 -0.08289,-0.48771 -0.189454,-0.71094 z m -19.064453,2.81446 -0.02539,0.27343 -0.103516,0.0156 c -0.0334,0.005 -0.06587,0.0409 -0.09961,0.0469 0.08738,-0.10393 0.163943,-0.21649 0.228516,-0.33593 z" id="path53"/>
        <g id="path19" style="opacity:1">
            <path style="baseline-shift:baseline;display:inline;overflow:visible;vector-effect:none;fill:#ffffff;stroke:none;enable-background:accumulate;stop-color:#000000;stop-opacity:1" d="m 91.404297,91.632812 -6.501953,1.03125 a 2.0002,2.0002 0 0 0 -0.002,0 c -2.247809,0.357129 -4.250926,1.630978 -5.871094,3.277344 -1.620168,1.646366 -2.876648,3.700934 -3.298828,5.974614 l -1.810547,9.72851 a 2.0002,2.0002 0 0 0 0,0.002 c -0.421958,2.27378 0.134085,4.49087 1.513672,6.03321 1.379587,1.54234 3.569965,2.31013 5.818359,1.95312 l 2.171875,-0.34375 a 2.0002,2.0002 0 0 0 0.90625,-0.38867 l 6.642578,-5.10742 a 2.0002,2.0002 0 0 0 0.71875,-2.07422 l -0.511719,-2.02539 2.023438,1.89648 a 2.0002,2.0002 0 0 0 3.242187,-0.76171 c 0.129274,-0.34839 0.348224,-0.75496 0.482422,-1.47461 l 0.230469,-1.23829 a 2.0002,2.0002 0 0 0 -2.279297,-2.34179 l -2.705078,0.42969 a 2.0002,2.0002 0 0 0 -1.429687,2.02148 2.0002,2.0002 0 0 0 -2.103516,-1.44141 l -0.488281,0.0606 a 2.0002,2.0002 0 0 0 -1.722657,1.61719 l -0.08594,0.46679 -1.074219,0.16993 1.292969,-6.94922 1.359375,-0.2168 a 2.0002,2.0002 0 0 0 2.105469,1.76758 l 6.796875,-1.08008 a 2.0002,2.0002 0 0 0 1.652343,-1.60937 l 0.259766,-1.388676 a 2.0002,2.0002 0 0 0 0,-0.002 c 0.422049,-2.273616 -0.133924,-4.491099 -1.513672,-6.033204 -1.379748,-1.542104 -3.569991,-2.309449 -5.818359,-1.953125 z m 0.626953,3.951172 c 1.070632,-0.169675 1.731686,0.134277 2.210937,0.669922 0.479252,0.535646 0.789499,1.403335 0.560547,2.636719 l -3.099609,0.492187 c -0.104518,-0.285149 -0.188001,-0.57699 -0.414063,-0.830078 -0.653065,-0.731142 -1.687088,-0.934771 -2.433593,-0.816406 l -3.365235,0.533203 c -1.49034,0.236733 -2.525667,1.345668 -2.789062,2.761719 l -1.69336,9.11133 c -0.132745,0.70838 -0.04578,1.64971 0.607422,2.38086 0.653203,0.73115 1.689387,0.93637 2.4375,0.8164 l 1.19336,-0.18945 -2.949219,2.26758 -1.669922,0.26367 a 2.0002,2.0002 0 0 0 -0.002,0 c -1.070606,0.16999 -1.732025,-0.13256 -2.210938,-0.66797 -0.478912,-0.53541 -0.789588,-1.40445 -0.560546,-2.63867 l 1.808593,-9.72852 c 0.22882,-1.23232 1.071418,-2.734502 2.21875,-3.900386 1.146789,-1.165332 2.577457,-1.960476 3.646485,-2.13086 z m -1.828125,14.455076 v 0.004 l -0.109375,0.5918 -0.208984,0.0254 c 0.08797,-0.22046 0.273773,-0.38017 0.318359,-0.6211 z" id="path57"/>
            <path style="baseline-shift:baseline;display:inline;overflow:visible;vector-effect:none;stroke:none;enable-background:accumulate;stop-color:#000000;stop-opacity:1" d="m 89.753,112.208 -0.869,-3.44 -0.489,0.06 -0.158,0.848 c -0.109,0.589 -0.582,1.067 -1.138,1.157 l -3.362,0.532 c -0.555,0.089 -0.873,-0.267 -0.763,-0.854 l 1.694,-9.114 c 0.109,-0.586 0.582,-1.065 1.136,-1.153 l 3.364,-0.533 c 0.555,-0.088 0.872,0.267 0.762,0.853 l -0.216,1.16 6.797,-1.08 0.259,-1.389 c 0.651,-3.507 -1.733,-6.172 -5.052,-5.646 l -6.503,1.031 c -3.317,0.527 -6.868,4.135 -7.519,7.641 l -1.809,9.73 c -0.651,3.508 1.732,6.173 5.051,5.646 l 2.174,-0.343 z m 4.818,-2.076 c 0.177,-0.477 0.3,-0.658 0.391,-1.146 l 0.231,-1.238 -2.705,0.43 z" id="path58"/>
        </g>
        <path style="baseline-shift:baseline;display:inline;overflow:visible;opacity:1;vector-effect:none;fill:#c61717;stroke:none;stroke-width:4;stroke-linecap:butt;stroke-linejoin:miter;stroke-dasharray:none;stroke-opacity:1;paint-order:markers stroke fill;enable-background:accumulate;stop-color:#000000;stop-opacity:1" d="m 96.238,114.963 13.893,-10.59 -16.317,6.514 -4.586,-4.773 1.462,6.614 -13.893,10.589 16.319,-6.516 4.584,4.774 z" id="path52"/>
        <path style="baseline-shift:baseline;display:inline;overflow:visible;opacity:1;vector-effect:none;fill:#c61717;stroke:none;stroke-width:4;stroke-linecap:butt;stroke-linejoin:miter;stroke-dasharray:none;stroke-opacity:1;paint-order:markers stroke fill;enable-background:accumulate;stop-color:#000000;stop-opacity:1" d="m 78.839,128.183 c 0.199,-0.979 0.563,-0.838 1.557,-0.996 l 0.926,-0.145 -0.289,1.542 -0.925,0.148 c -0.994,0.158 -1.432,0.424 -1.269,-0.549 z m -2.006,-1.413 -0.72,3.875 c -0.198,1.059 0.123,1.399 1.141,1.238 l 5.895,-0.936 1.264,-6.796 -5.895,0.935 c -1.02,0.161 -1.49,0.626 -1.685,1.684 z m 37.424,-6.117 -0.069,0.374 6.082,-0.964 c 0.48,-0.078 0.948,-0.563 1.045,-1.088 0.096,-0.524 -0.212,-0.887 -0.693,-0.811 l -1.562,0.246 -2.492,0.397 -0.631,0.099 c -0.73,0.117 -1.532,0.95 -1.68,1.747 z m -42.665,17.525 0.049,-0.271 c 0.209,0.016 0.49,0.097 0.734,0.06 l 6.32,-0.99 c -0.235,1.26 -1.9,1.575 -4.442,1.979 l -2.893,0.46 -1.551,8.34 3.8,-0.602 c 9.356,-0.924 12.916,-5.76 14.059,-11.524 l 11.401,-1.809 1.837,-9.887 0.927,-0.147 c 1.016,-0.161 0.866,-0.346 0.671,0.711 l -1.682,9.044 8.185,-1.298 0.112,-0.6 c 0.617,0.272 1.339,0.368 2.104,0.248 l 14.155,-2.244 1.32,-7.106 -0.917,-0.652 c 0.795,-0.941 1.415,-2.094 1.594,-3.061 l 0.223,-1.121 c 0.706,-4.19 -3.158,-5.304 -4.921,-5.023 l -8.123,1.289 c -1.438,0.229 -3.023,1.231 -4.176,2.56 -1.066,-1.056 -2.711,-1.466 -3.668,-1.314 l -9.043,1.435 1.012,2.237 8.156,-1.292 c 1.176,-0.188 1.962,0.282 2.177,1.213 -0.086,0.246 -2.177,11.379 -2.177,11.379 l -2.925,0.465 1.568,-8.428 c 0.194,-1.056 -0.125,-1.396 -1.141,-1.235 l -5.604,0.89 -1.839,9.886 -3.215,0.512 2.104,-11.318 -2.646,-3.122 -9.526,3.443 4.515,-0.717 0.073,-0.01 -2.871,15.446 c -0.73,3.923 -4.917,7.675 -8.63,8.266 l -3.8,0.602 0.576,-3.09 2.891,-0.458 c 2.541,-0.405 5.402,-2.947 5.896,-5.607 l 0.312,-1.674 -7.527,1.193 c -1.614,0.257 -2.49,-0.724 -2.173,-2.429 l 1.35,-7.262 c 0.239,-1.289 1.044,-2.36 2.121,-2.918 l 0.019,-0.193 3.776,-2.906 -2.206,0.37 c -1.173,0.186 -3.35,1.065 -4.733,2.83 -1.046,-1.247 -2.875,-1.736 -3.905,-1.573 l -8.113,1.289 1.322,-7.107 5.919,-0.938 c 3.151,-0.499 6.638,-4.043 7.257,-7.372 l 0.89,-4.788 c 0.62,-3.332 -1.723,-5.95 -4.874,-5.45 l -12.936,2.052 -2.757,14.829 -11.912,1.892 c -1.008,0.159 -1.989,1.154 -2.186,2.22 l -4.452,23.942 c -0.198,1.066 0.459,1.801 1.468,1.643 l 22.729,-3.607 1.839,-9.886 0.925,-0.147 c 1.019,-0.16 0.869,-0.343 0.671,0.713 l -1.681,9.043 z m -16.866,-5.421 -7.6,1.206 0.286,-1.543 6.138,-0.977 1.494,-8.032 -6.139,0.975 0.286,-1.545 7.6,-1.206 z m -0.46,2.472 -0.631,3.397 -13.447,2.134 4.191,-22.554 11.109,-1.763 -0.575,3.09 -7.893,1.254 -1.205,6.487 6.43,-1.02 -0.574,3.088 -6.431,1.02 -1.208,6.49 z m 15.446,0.849 -3.216,0.509 1.567,-8.427 c 0.197,-1.056 -0.123,-1.397 -1.141,-1.237 l -5.604,0.89 -1.836,9.887 -3.217,0.511 2.412,-12.976 0.075,-0.012 10.669,-1.691 c 1.614,-0.258 2.49,0.722 2.172,2.429 z m 20.901,-15.91 3.144,-0.498 -2.413,12.976 -3.215,0.51 2.41,-12.974 z m 19.503,6.115 1.116,-6.002 c 0.354,-1.899 2.394,-3.763 4.132,-4.039 l 7.52,-1.191 c 1.267,-0.202 2.147,1.213 1.889,2.599 l -0.369,1.931 c -0.259,1.386 -1.673,2.857 -2.939,3.058 l -7.806,1.24 -0.112,0.701 c -0.148,0.796 0.38,1.419 1.111,1.302 l 8.724,-1.389 -0.588,3.166 -9.842,1.56 c -1.739,0.274 -3.187,-1.036 -2.836,-2.936 z m -46.521,-16.821 1.091,-5.871 4.092,-0.647 c 0.537,-0.085 0.811,0.221 0.704,0.786 l -0.746,4.019 c -0.107,0.567 -0.513,0.979 -1.05,1.065 z" id="path54"/>
        <path style="fill:#000000;stroke:#ffffff;stroke-width:0.217112;stroke-linecap:round;stroke-linejoin:round;stroke-dasharray:none;stroke-opacity:1;paint-order:markers fill stroke" d="" id="path59" transform="translate(24.400637,91.547412)"/>
        <path style="fill:#000000;stroke:#ffffff;stroke-width:0.027139;stroke-linecap:round;stroke-linejoin:round;stroke-dasharray:none;stroke-opacity:1;paint-order:markers fill stroke" d="m 98.378765,25.637834 c -0.008,-0.02146 -0.02012,-0.04863 -0.027,-0.06039 l -0.0125,-0.02137 0.01942,-0.0029 c 0.01846,-0.0027 0.01979,-0.0011 0.02684,0.03155 0.01065,0.0494 0.016,0.09207 0.01156,0.09207 -0.0021,0 -0.01035,-0.01756 -0.01833,-0.03901 z" id="path61" transform="translate(24.400637,91.547412)"/>
    </g>
    <g id="cdrom2" transform="translate(2.2173073,2.9516313)">
        <g id="path5" transform="translate(-0.571415)" style="stroke:#ffffff;stroke-width:2;stroke-linecap:round;stroke-linejoin:round;stroke-dasharray:none;stroke-opacity:1;paint-order:markers stroke fill">
            <g id="path21" style="opacity:1">
                <path style="baseline-shift:baseline;display:inline;overflow:visible;vector-effect:none;fill:#ffffff;fill-rule:evenodd;stroke:none;enable-background:accumulate;stop-color:#000000;stop-opacity:1" d="m 24.160156,138.33398 c -4.788417,0 -8.621094,3.24302 -8.621093,7.53321 -1e-6,4.28994 3.832674,7.53125 8.621093,7.53125 h 9.798828 a 1.0001,1.0001 0 0 0 1,-1 v -2.17578 a 1.0001,1.0001 0 0 0 -1,-1 h -9.798828 c -2.81814,0 -4.443359,-1.86844 -4.443359,-3.35547 0,-1.48705 1.625219,-3.35547 4.443359,-3.35547 h 9.798828 a 1.0001,1.0001 0 0 0 1,-1 v -2.17774 a 1.0001,1.0001 0 0 0 -1,-1 z m 0,2 h 8.798828 v 0.17774 h -8.798828 c -3.714461,0 -6.443359,2.52385 -6.443359,5.35547 0,2.83161 2.728898,5.35547 6.443359,5.35547 h 8.798828 v 0.17578 h -8.798828 c -3.921717,0 -6.621094,-2.41782 -6.621094,-5.53125 0,-3.11377 2.699376,-5.53321 6.621094,-5.53321 z" id="path46"/>
                <path style="baseline-shift:baseline;display:inline;overflow:visible;vector-effect:none;fill-rule:evenodd;stroke:none;enable-background:accumulate;stop-color:#000000;stop-opacity:1" d="m 33.959686,150.22185 h -9.798902 c -3.266301,0 -5.443835,-2.19574 -5.443835,-4.35506 0,-2.15933 2.177534,-4.35507 5.443835,-4.35507 h 9.798902 v -2.17781 h -9.798902 c -4.355068,0 -7.621369,2.8309 -7.621369,6.53288 0,3.70169 3.266301,6.5326 7.621369,6.5326 h 9.798902 z" id="path47"/>
            </g>
        </g>
        <g id="path7" transform="translate(-0.571415)" style="stroke:#ffffff;stroke-width:2;stroke-linecap:round;stroke-linejoin:round;stroke-dasharray:none;stroke-opacity:1;paint-order:markers stroke fill">
            <g id="path23" style="opacity:1">
                <path style="baseline-shift:baseline;display:inline;overflow:visible;vector-effect:none;fill:#ffffff;fill-rule:evenodd;stroke:none;enable-background:accumulate;stop-color:#000000;stop-opacity:1" d="m 86.890625,138.33398 c -4.788665,0 -8.621094,3.24307 -8.621094,7.53321 0,4.28989 3.832427,7.53125 8.621094,7.53125 h 6.53125 c 4.788418,0 8.621095,-3.24136 8.621095,-7.53125 0,-4.29014 -3.832678,-7.53321 -8.621095,-7.53321 z m 0,2 h 6.53125 c 3.921717,0 6.621095,2.41939 6.621095,5.53321 0,3.11348 -2.699379,5.53125 -6.621095,5.53125 h -6.53125 c -3.922019,0 -6.621094,-2.41777 -6.621094,-5.53125 0,-3.11382 2.699073,-5.53321 6.621094,-5.53321 z m 0,0.17774 c -3.714222,0 -6.445313,2.52377 -6.445313,5.35547 0,2.83161 2.730852,5.35547 6.445313,5.35547 h 6.53125 c 3.714461,0 6.443359,-2.52395 6.443359,-5.35547 0,-2.83153 -2.728898,-5.35547 -6.443359,-5.35547 z m 0,2 h 6.53125 c 2.818141,0 4.443359,1.86834 4.443359,3.35547 0,1.48711 -1.625218,3.35547 -4.443359,3.35547 h -6.53125 c -2.818139,0 -4.445313,-1.86844 -4.445313,-3.35547 0,-1.48696 1.627487,-3.35547 4.445313,-3.35547 z" id="path44"/>
                <path style="baseline-shift:baseline;display:inline;overflow:visible;vector-effect:none;fill-rule:evenodd;stroke:none;enable-background:accumulate;stop-color:#000000;stop-opacity:1" d="m 93.422629,139.33391 h -6.532602 c -4.355343,0 -7.621368,2.8309 -7.621368,6.53288 0,3.70169 3.266025,6.5326 7.621368,6.5326 h 6.532602 c 4.355067,0 7.621091,-2.83091 7.621091,-6.5326 0,-3.70198 -3.266024,-6.53288 -7.621091,-6.53288 z m 0,10.88794 h -6.532602 c -3.2663,0 -5.443834,-2.19574 -5.443834,-4.35506 0,-2.15933 2.17781,-4.35507 5.443834,-4.35507 h 6.532602 c 3.266301,0 5.443558,2.19574 5.443558,4.35507 0,2.15932 -2.177257,4.35506 -5.443558,4.35506 z" id="path45"/>
            </g>
        </g>
        <g id="path9" transform="translate(-0.571415)" style="stroke:#ffffff;stroke-width:2;stroke-linecap:round;stroke-linejoin:round;stroke-dasharray:none;stroke-opacity:1;paint-order:markers stroke fill">
            <g id="path25" style="opacity:1">
                <path style="baseline-shift:baseline;display:inline;overflow:visible;vector-effect:none;fill:#ffffff;fill-rule:evenodd;stroke:none;enable-background:accumulate;stop-color:#000000;stop-opacity:1" d="m 36.136719,138.33398 a 1.0001,1.0001 0 0 0 -1,1 v 13.06446 a 1.0001,1.0001 0 0 0 1,1 h 9.798828 c 4.788418,0 8.621094,-3.24136 8.621094,-7.53125 0,-4.29014 -3.832677,-7.53321 -8.621094,-7.53321 z m 1,2 h 8.798828 c 3.921717,0 6.621094,2.41939 6.621094,5.53321 0,3.11348 -2.699378,5.53125 -6.621094,5.53125 h -8.798828 z m 1.177734,0.17774 a 1.0001,1.0001 0 0 0 -1,1 v 8.71094 a 1.0001,1.0001 0 0 0 1,1 h 7.621094 c 3.71446,0 6.445312,-2.52395 6.445312,-5.35547 0,-2.83153 -2.730852,-5.35547 -6.445312,-5.35547 z m 1,2 h 6.621094 c 2.818139,0 4.445312,1.86834 4.445312,3.35547 0,1.48711 -1.627173,3.35547 -4.445312,3.35547 h -6.621094 z" id="path42"/>
                <path style="baseline-shift:baseline;display:inline;overflow:visible;vector-effect:none;fill-rule:evenodd;stroke:none;enable-background:accumulate;stop-color:#000000;stop-opacity:1" d="M 45.936398,139.33391 H 36.13722 v 13.06548 h 9.799178 c 4.355067,0 7.621092,-2.83091 7.621092,-6.5326 0,-3.70198 -3.266025,-6.53288 -7.621092,-6.53288 z m 0,10.88794 h -7.621369 v -8.71013 h 7.621369 c 3.2663,0 5.443558,2.19574 5.443558,4.35507 0,2.15932 -2.177258,4.35506 -5.443558,4.35506 z" id="path43"/>
            </g>
        </g>
        <g id="path11" transform="translate(-0.571415)" style="stroke:#ffffff;stroke-width:2;stroke-linecap:round;stroke-linejoin:round;stroke-dasharray:none;stroke-opacity:1;paint-order:markers stroke fill">
            <g id="path27" style="opacity:1">
                <path style="baseline-shift:baseline;display:inline;overflow:visible;vector-effect:none;fill:#ffffff;fill-rule:evenodd;stroke:none;enable-background:accumulate;stop-color:#000000;stop-opacity:1" d="m 61.001953,138.33398 a 1.0001,1.0001 0 0 0 -1,1 v 13.06641 a 1.0001,1.0001 0 0 0 1,1 h 2.177734 a 1.0001,1.0001 0 0 0 1,-1 v -4.44531 h 8.798829 c 0.210965,0 0.537883,0.13745 0.789062,0.38867 0.251179,0.25122 0.388672,0.57801 0.388672,0.78906 v 3.26758 a 1.0001,1.0001 0 0 0 1,1 h 2.177734 a 1.0001,1.0001 0 0 0 1,-1 v -3.26758 c 0,-1.41481 -0.676353,-2.44794 -1.355468,-3.13281 0.154324,-0.15153 0.33698,-0.27959 0.464843,-0.44531 0.524642,-0.68 0.890625,-1.47181 0.890625,-2.34961 0,-1.25544 -0.307118,-2.44644 -1.029297,-3.36914 -0.722178,-0.92271 -1.89016,-1.50196 -3.238281,-1.50196 z m 1,2 h 12.064453 c 0.829689,0 1.295453,0.26787 1.66211,0.73633 0.366656,0.46847 0.605468,1.21266 0.605468,2.13477 0,0.21096 -0.180585,0.75035 -0.472656,1.1289 -0.01291,0.0167 -0.01815,0.008 -0.03125,0.0234 0.193811,-0.34143 0.326065,-0.73133 0.326172,-1.15234 0,-0.8778 -0.490092,-1.63928 -1.105469,-2.07227 -0.615377,-0.43298 -1.342806,-0.62109 -2.072265,-0.62109 h -9.798829 a 1.0001,1.0001 0 0 0 -1,1 v 3.26562 a 1.0001,1.0001 0 0 0 1,1 h 9.798829 c 0.523251,0 1.033125,-0.19368 1.533203,-0.40234 a 1.0001,1.0001 0 0 0 0.08008,1.13477 c -0.473047,-0.31407 -0.998672,-0.55469 -1.613281,-0.55469 h -9.798829 a 1.0001,1.0001 0 0 0 -1,1 v 4.44531 h -0.177734 z m 2.177734,2.17774 h 8.798829 c 0.359032,0 0.720608,0.11425 0.921875,0.25586 0.201266,0.14161 0.255859,0.22653 0.255859,0.4375 -5.4e-5,0.21108 -0.02596,0.23067 -0.214844,0.34961 -0.188882,0.11893 -0.56685,0.22265 -0.96289,0.22265 h -8.798829 z m 11.298829,4.83789 c 0.03922,0.0372 0.04083,0.0686 0.08008,0.10937 -0.02596,-0.0373 -0.05275,-0.0732 -0.08008,-0.10937 z m 0.509765,1.03516 c 0.116401,0.26118 0.345703,0.42565 0.345703,0.74804 v 2.26758 H 76.15625 v -2.26758 c 0,-0.26928 -0.09841,-0.50301 -0.167969,-0.74804 z" id="path40"/>
                <path style="baseline-shift:baseline;display:inline;overflow:visible;vector-effect:none;fill-rule:evenodd;stroke:none;enable-background:accumulate;stop-color:#000000;stop-opacity:1" d="m 75.155294,145.86679 c 1.088767,0 2.17781,-1.57273 2.17781,-2.66149 0,-2.17754 -1.088767,-3.87111 -3.266576,-3.87111 H 61.001325 v 13.06547 h 2.177809 v -5.44383 h 9.798903 c 1.088766,0 2.177533,1.08904 2.177533,2.17781 v 3.2663 h 2.17781 v -3.2663 c 0,-2.17781 -2.178086,-3.26685 -2.178086,-3.26685 z m -2.177257,-1.08877 h -9.798903 v -3.2663 h 9.798903 c 1.088491,0 2.177533,0.60481 2.177533,1.69358 -2.76e-4,1.08876 -1.089042,1.57272 -2.177533,1.57272 z" id="path41"/>
            </g>
        </g>
        <g id="path13" transform="translate(-0.571415)" style="stroke:#ffffff;stroke-width:2;stroke-linecap:round;stroke-linejoin:round;stroke-dasharray:none;stroke-opacity:1;paint-order:markers stroke fill">
            <g id="path29" style="opacity:1">
                <path style="baseline-shift:baseline;display:inline;overflow:visible;vector-effect:none;fill:#ffffff;fill-rule:evenodd;stroke:none;enable-background:accumulate;stop-color:#000000;stop-opacity:1" d="m 56.800781,143.77734 c -0.619935,-0.01 -1.216662,0.25349 -1.58789,0.66602 -0.371229,0.41253 -0.533204,0.92537 -0.533204,1.42383 0,0.49845 0.161975,1.01129 0.533204,1.42383 0.371228,0.41253 0.967955,0.67389 1.58789,0.66406 h 0.800781 a 1.0001,1.0001 0 0 0 0.01563,0 c 0.605784,-0.01 1.180779,-0.27941 1.539063,-0.6875 0.358284,-0.40809 0.517578,-0.91004 0.517578,-1.40039 0,-0.49035 -0.159294,-0.99425 -0.517578,-1.40235 -0.358284,-0.40809 -0.933279,-0.67789 -1.539063,-0.6875 a 1.0001,1.0001 0 0 0 -0.01563,0 z m -0.03125,2 a 1.0001,1.0001 0 0 0 0.01563,0 h 0.800781 c 0.108552,0.002 0.06948,0.009 0.06836,0.008 -0.0011,-0.001 0.01953,0.0337 0.01953,0.082 0,0.0483 -0.02065,0.0833 -0.01953,0.082 0.0011,-0.001 0.04019,0.004 -0.06836,0.006 h -0.800781 a 1.0001,1.0001 0 0 0 -0.01563,0 c -0.117419,0.002 -0.07286,-0.005 -0.07031,-0.002 0.0026,0.003 -0.01953,-0.0342 -0.01953,-0.0859 0,-0.0517 0.02208,-0.0888 0.01953,-0.0859 -0.0026,0.003 -0.04711,-0.006 0.07031,-0.004 z" id="path38"/>
                <path style="baseline-shift:baseline;display:inline;overflow:visible;vector-effect:none;fill-rule:evenodd;stroke:none;enable-background:accumulate;stop-color:#000000;stop-opacity:1" d="m 56.7853,146.95528 a 1.0887669,1.0887669 0 1 1 0,-2.17726 h 0.816437 a 1.0887669,1.0887669 0 0 1 0,2.17726 z" id="path39"/>
            </g>
        </g>
        <g id="path15" transform="translate(-0.571415)" style="stroke:#ffffff;stroke-width:2;stroke-linecap:round;stroke-linejoin:round;stroke-dasharray:none;stroke-opacity:1;paint-order:markers stroke fill">
            <g id="path31" style="opacity:1">
                <path style="baseline-shift:baseline;display:inline;overflow:visible;vector-effect:none;fill:#ffffff;fill-rule:evenodd;stroke:none;enable-background:accumulate;stop-color:#000000;stop-opacity:1" d="m 107.57813,138.33398 c -1.25556,0 -2.52087,0.2977 -3.55079,0.98438 -1.02991,0.68668 -1.80468,1.8591 -1.80468,3.28125 v 9.79883 a 1.0001,1.0001 0 0 0 1,1 h 2.17773 a 1.0001,1.0001 0 0 0 1,-1 v -8.70899 c 0,-0.75539 0.17127,-0.8068 0.5957,-0.97656 0.42444,-0.16976 1.12555,-0.20117 1.66993,-0.20117 h 1.17773 v 9.88672 a 1.0001,1.0001 0 0 0 1,1 h 2.17773 a 1.0001,1.0001 0 0 0 1,-1 v -9.88672 h 1.17774 c 0.54424,0 1.24561,0.0314 1.66992,0.20117 0.42431,0.16973 0.5957,0.22113 0.5957,0.97656 v 8.70899 a 1.0001,1.0001 0 0 0 1,1 h 2.17774 a 1.0001,1.0001 0 0 0 1,-1 v -9.79883 c 0,-1.42224 -0.77669,-2.5946 -1.80664,-3.28125 -1.02995,-0.68665 -2.29352,-0.98438 -3.54883,-0.98438 z m 0,2 h 8.70898 c 0.92194,0 1.83618,0.24625 2.43945,0.64844 0.60327,0.40219 0.91602,0.86162 0.91602,1.61719 v 8.79883 h -0.17774 v -7.70899 c 0,-1.4221 -0.91694,-2.45933 -1.85351,-2.83398 -0.93658,-0.37465 -1.86787,-0.34375 -2.41211,-0.34375 h -2.17774 a 1.0001,1.0001 0 0 0 -1,1 v 9.88672 h -0.17773 v -9.88672 a 1.0001,1.0001 0 0 0 -1,-1 h -2.17773 c -0.54438,0 -1.47545,-0.0309 -2.41211,0.34375 -0.93666,0.37462 -1.85352,1.41184 -1.85352,2.83398 v 7.70899 h -0.17773 v -8.79883 c 0,-0.75566 0.31089,-1.21503 0.91406,-1.61719 0.60317,-0.40215 1.51915,-0.64844 2.44141,-0.64844 z" id="path36"/>
                <path style="baseline-shift:baseline;display:inline;overflow:visible;vector-effect:none;fill-rule:evenodd;stroke:none;enable-background:accumulate;stop-color:#000000;stop-opacity:1" d="m 110.84318,141.51172 v 10.88767 h 2.17753 v -10.88767 h 2.17781 c 1.08849,0 3.26602,0 3.26602,2.17753 v 8.71014 h 2.17781 v -9.7989 c 0,-2.17781 -2.17781,-3.26658 -4.35506,-3.26658 h -8.71014 c -2.17781,0 -4.35507,1.08877 -4.35507,3.26658 v 9.7989 h 2.17754 v -8.71014 c 0,-2.17753 2.17781,-2.17753 3.26657,-2.17753 z" id="path37"/>
            </g>
        </g>
        <g id="path17" transform="translate(-0.571415)" style="stroke:#ffffff;stroke-width:2;stroke-linecap:round;stroke-linejoin:round;stroke-dasharray:none;stroke-opacity:1;paint-order:markers stroke fill">
            <g id="path33" style="opacity:1">
                <path style="baseline-shift:baseline;display:inline;overflow:visible;vector-effect:none;fill:#ffffff;fill-rule:evenodd;stroke:none;enable-background:accumulate;stop-color:#000000;stop-opacity:1" d="m 122.95313,135.45117 a 1.0001,1.0001 0 0 0 -1,1 v 1.66602 a 1.0001,1.0001 0 0 0 0.95507,0.95508 c -0.43486,0.25635 -0.82319,0.55908 -1.0625,0.9414 -0.55091,0.88015 -0.60547,1.83671 -0.60547,2.58789 v 1.07227 a 1.0001,1.0001 0 0 0 1,1 h 7.25782 a 1.0001,1.0001 0 0 0 1,-1 v -1.78711 a 1.0001,1.0001 0 0 0 -0.76758,-0.76758 c 0.55292,-0.59789 0.88867,-1.41393 0.88867,-2.35352 0,-0.74686 -0.22025,-1.52634 -0.73828,-2.17968 -0.51803,-0.65334 -1.38915,-1.13477 -2.4043,-1.13477 z m 4.46289,2 h 0.0605 c 0.44887,0 0.64859,0.14067 0.83594,0.37695 0.18735,0.23629 0.30664,0.61299 0.30664,0.9375 0,0.62357 -0.15772,0.89255 -0.36914,1.08008 -0.12197,0.10819 -0.42138,0.13084 -0.65234,0.18946 0.35127,-0.30668 0.6289,-0.78666 0.6289,-1.26954 0,-0.53975 -0.40734,-1.05544 -0.81054,-1.31445 z m -3.08008,3.15625 c -0.0832,0.0594 -0.16957,0.054 -0.2461,0.13672 -0.28162,0.30458 -0.42213,0.74907 -0.42187,1.14258 a 1.0001,1.0001 0 0 0 0.78711,0.78711 h -1.21485 v -0.0723 c 0,-0.60633 0.0934,-1.19716 0.29883,-1.52539 0.14063,-0.22468 0.39598,-0.37513 0.79688,-0.46875 z" id="path34"/>
                <path style="baseline-shift:baseline;display:inline;overflow:visible;vector-effect:none;fill-rule:evenodd;stroke:none;enable-background:accumulate;stop-color:#000000;stop-opacity:1" d="m 126.30858,141.17317 h 0.81036 c 1.45105,0 2.50036,-0.74084 2.50036,-2.40765 0,-1.07138 -0.67875,-2.31494 -2.14277,-2.31494 h -4.5242 v 1.66654 h 3.2823 c 0.46796,0 0.99275,0.0775 0.99275,0.6484 0,0.54025 -0.41719,0.74084 -0.90004,0.74084 h -1.35641 c -2.43551,0 -2.73047,1.738 -2.73047,3.09551 v 1.07166 h 7.25799 v -1.78767 h -4.82965 c -5.5e-4,-0.83327 0.92543,-0.71269 1.63978,-0.71269 z" id="path35"/>
            </g>
        </g>
    </g>
</svg>
