<?xml version="1.0" encoding="UTF-8" standalone="no"?>
<!-- Created with Inkscape (http://www.inkscape.org/) -->

<svg
   version="1.1"
   id="svg824"
   width="720.39984"
   height="123.41688"
   viewBox="0 0 720.39985 123.41688"
   sodipodi:docname="pdp1.svg"
   inkscape:version="1.4.3 (0d15f75042, 2025-12-25)"
   xmlns:inkscape="http://www.inkscape.org/namespaces/inkscape"
   xmlns:sodipodi="http://sodipodi.sourceforge.net/DTD/sodipodi-0.dtd"
   xmlns="http://www.w3.org/2000/svg"
   xmlns:svg="http://www.w3.org/2000/svg">
  <defs
     id="defs828" />
  <sodipodi:namedview
     id="namedview826"
     pagecolor="#b0b0b0"
     bordercolor="#666666"
     borderopacity="1.0"
     inkscape:pageshadow="2"
     inkscape:pageopacity="0.0"
     inkscape:pagecheckerboard="0"
     showgrid="false"
     inkscape:zoom="0.6200467"
     inkscape:cx="138.69923"
     inkscape:cy="106.4436"
     inkscape:window-width="1920"
     inkscape:window-height="1080"
     inkscape:window-x="0"
     inkscape:window-y="0"
     inkscape:window-maximized="0"
     inkscape:current-layer="g830"
     inkscape:showpageshadow="0"
     inkscape:deskcolor="#d1d1d1" />
  <g
     inkscape:groupmode="layer"
     inkscape:label="Image"
     id="g830"
     transform="translate(220.88582,-216.86194)"
     style="display:inline">
    <g
       id="path914"
       style="opacity:1">
      <path
         style="baseline-shift:baseline;display:inline;overflow:visible;vector-effect:none;fill:#ffffff;stroke-linecap:round;stroke-linejoin:round;paint-order:markers stroke fill;enable-background:accumulate;stop-color:#000000;stop-opacity:1"
         d="m 162.15234,216.91211 c -5.80538,0.20861 -11.91239,1.21515 -17.94726,3.52148 a 12.5,12.5 0 0 0 -0.0195,-0.002 12.5,12.5 0 0 0 -0.0215,0.0156 c -0.53715,0.20585 -1.07761,0.32416 -1.61328,0.55273 a 12.5,12.5 0 0 0 -2.7793,2.83984 12.5,12.5 0 0 0 -3.27539,3.34571 12.5,12.5 0 0 0 -0.59375,4.625 12.5,12.5 0 0 0 -0.50976,3.95703 c -0.40289,-1.48616 -0.4009,-0.5406 -0.32227,1.16015 -3.82461,-4.36289 -8.39992,-8.16359 -14.01953,-10.93164 -15.47869,-7.62439 -31.02806,-7.22388 -43.986327,-7.54492 -19.814649,-0.49089 -39.557837,0.008 -58.849609,0.008 -11.3471083,0 -22.1359312,0.63199 -31.826172,-0.0391 0.370043,0.0256 -2.501122,-0.52042 -5.929688,-0.87109 -3.428565,-0.35067 -8.913553,-1.39459 -15.208984,3.75586 a 12.5,12.5 0 0 0 0,0.002 12.5,12.5 0 0 0 -0.002,0 c -3.873376,3.16954 -4.87484,6.31792 -5.458984,9.10156 -3.666022,-3.80643 -8.183662,-6.90464 -13.765625,-8.70312 -18.741628,-6.03834 -37.25859,-3.2461 -51.728518,-3.2461 -27.42378,0 -55.15471,-0.59791 -83.03515,-0.22265 -0.83703,0.0113 -4.20205,-0.26773 -7.91797,-0.36524 -3.71593,-0.0975 -7.91043,-0.6469 -13.95703,2.35547 -5.67336,2.81701 -7.20849,7.0208 -8.17774,9.86524 -0.96925,2.84443 -1.28179,5.27843 -1.46094,7.62695 -0.35828,4.69703 -0.61206,7.74012 1.09961,13.08398 1.9771,6.1724 9.18524,10.28451 12.98047,10.89258 3.79523,0.60807 5.99847,0.21476 6.19141,0.21485 4.6017,0.002 8.77287,-0.59803 12.64258,-0.60547 0.47465,8.14746 -0.8086,21.0733 -0.8086,32.69726 0,1.0437 0.0517,1.25651 0.0937,2.06055 -3.33211,-0.18576 -6.94863,-0.72266 -11.16211,-0.72266 0.28271,0 -2.02389,-0.30288 -5.34961,-0.0351 -3.32571,0.26772 -10.46283,2.00359 -13.79296,8.84765 -3.30224,6.78697 -2.5319,9.93037 -2.22266,14.96094 0.15462,2.51529 0.46585,5.08658 1.50195,8.08008 1.03611,2.9935 2.82282,7.56745 8.99805,10.16016 a 12.50125,12.50125 0 0 0 0.002,0 c 6.38186,2.67826 11.69395,2.22924 16.03321,1.9707 4.33925,-0.25855 8.01318,-0.57445 9.17187,-0.49414 12.13898,0.84011 22.83234,-0.32015 32.39063,-0.0117 8.4267,0.27218 19.68139,1.69199 31.37109,-0.32227 7.78433,-1.34165 10.59754,-6.98957 11.95117,-10.30273 1.35363,-3.31316 1.80729,-6.22884 2.03906,-9.17969 0.23178,-2.95085 0.1758,-5.82734 -0.35742,-8.8789 -0.2313,-1.32371 -0.45576,-2.82427 -0.9668,-4.40235 h 25.548833 c 10.534802,0 25.381364,0.3963 38.408203,-8.85742 12.432202,-8.83072 16.649252,-23.46349 15.980468,-37.20313 7.835723,3.30479 14.503191,1.55311 18.853516,0.97852 0.514411,-0.0679 0.5682281,-0.0144 1.0058594,-0.0508 -0.034951,0.7518 -0.080078,0.93085 -0.080078,1.88086 0,11.13001 0.067673,22.22383 -0.00195,33.14648 -2.7367621,-0.29801 -6.0225201,-0.82512 -9.9355471,-1.00586 -4.255326,-0.19654 -9.917835,-0.68992 -16.08789,4.25196 -6.443406,5.16 -6.03166,10.78788 -6.095703,13.83203 -0.06404,3.04414 0.191966,5.50573 0.191406,5.14844 a 12.50125,12.50125 0 0 0 0,0.004 c 0.0014,0.74527 -1.24792,4.77445 1.716797,11.19336 a 12.50125,12.50125 0 0 0 0,0.002 c 2.841688,6.15038 9.659093,9.02087 13.357422,9.54688 3.698328,0.52601 6.112355,0.19129 6.544921,0.19141 8.765545,0.003 16.9187229,-0.38851 24.1562504,0.15429 26.0241016,1.9526 52.0630516,-0.15429 76.2011716,-0.15429 13.396057,0 32.503944,0.65176 47.683594,-12.59961 2.52022,-2.20009 4.69642,-4.67332 6.7168,-7.25391 -0.0246,0.46346 -0.0631,0.93067 -0.0606,2.32812 0.003,1.92032 -0.19439,4.60775 1.77734,8.70118 2.71572,5.63787 7.72453,7.91174 11.07227,8.86718 3.34774,0.95545 6.08807,1.06553 8.60937,1.09375 5.04261,0.0564 10.29433,-0.38332 9.70508,-0.40234 17.59995,0.56744 34.52791,-0.73437 50.58008,-0.73437 0.008,0 4.64323,0.51342 9.45508,0.4375 2.40593,-0.038 5.0681,-0.16664 8.35351,-1.19727 3.28509,-1.03053 7.99913,-3.53762 10.50391,-8.72266 v -0.002 c 2.53406,-5.24657 2.20981,-8.77328 2.33594,-10.62305 a 12.50125,12.50125 0 0 0 0,-0.002 c 0.0359,-0.52844 0.31729,-2.6951 0.30664,-5.41602 -0.008,-1.97893 0.21789,-4.59071 -1.23242,-7.89648 7.0859,-0.19915 14.37863,-0.40582 21.21484,-0.40625 5.7527,-3.6e-4 15.69261,2.14457 27,-1.08594 8.13811,-2.32519 15.87378,-6.99467 21.71875,-13.50781 1.27425,3.62747 4.06869,7.64407 8.29297,9.74609 8.29288,4.12656 15.42238,3.24294 21.91797,2.80664 6.49559,-0.43629 12.67034,-1.10936 14.78711,-1.01562 0.0383,0.002 6.54921,3.49533 16.27929,-0.95117 4.89431,-2.23687 7.49011,-6.35338 8.71289,-9.64649 1.22279,-3.2931 1.46439,-6.26022 1.28907,-9.17578 -0.17532,-2.91555 -0.77355,-5.78722 -2.30469,-8.84375 -1.53114,-3.05653 -4.32848,-6.77989 -9.41992,-8.58008 -15.25527,-5.39401 -33.13441,-3.27474 -45.10352,-1.12109 -1.64778,0.29643 -3.04786,0.76868 -4.34375,1.31055 0.67599,-16.62695 -6.10386,-35.58425 -24.4375,-43.09961 -14.75052,-6.04652 -28.6631,-3.34521 -37.83398,-3.58594 -25.91175,-0.68016 -51.30664,0.24609 -76.38281,0.24609 -6.25,0 -15.79869,-1.9263 -26.35743,-1.54687 z m 248.52149,0.37305 c -2.27761,0.16195 -4.77539,0.56238 -7.45703,1.34179 -10.06472,2.92527 -12.91868,10.94452 -14.04297,17.42578 -1.1243,6.48126 -1.05739,14.89497 7.14258,21.11719 8.80104,6.67916 17.7743,4.45623 22.82812,3.71289 0.50597,-0.0744 0.54313,-0.0226 0.97656,-0.0664 -0.0287,0.68432 -0.0703,0.82355 -0.0703,1.66406 v 29.98242 c 0,1.55355 0.0929,2.3903 0.17383,3.5625 -4.42608,-0.0463 -8.88716,-0.68555 -13.52344,-0.68555 0.71464,0 -1.97434,-0.32404 -5.39453,-0.11718 -1.71009,0.10342 -3.85436,0.28599 -6.69922,1.57226 -2.84486,1.28628 -6.58493,4.50634 -8.05078,8.71289 -2.31494,6.64137 -1.44206,9.74089 -0.74023,14.59766 0.35091,2.42838 0.86061,4.89718 2.0039,7.66601 1.1433,2.76884 2.72826,6.68642 8.47071,9.31446 a 12.50125,12.50125 0 0 0 0.002,0.002 c 5.80016,2.6525 10.36883,2.33231 14.20703,2.18945 3.8382,-0.14285 7.17457,-0.48632 8.36523,-0.48632 14.48126,0 28.46067,-1.09786 40.61719,0.0723 2.64168,0.25417 7.24421,0.97744 12.33594,1.25977 5.09173,0.28233 10.8542,0.52091 17.44141,-2.48243 6.55423,-2.98857 7.88263,-7.60318 8.87695,-10.75781 0.99432,-3.15463 1.30391,-6.00755 1.36719,-8.89062 0.0633,-2.88307 -0.14317,-5.70501 -0.87305,-8.72461 -0.72988,-3.01961 -1.18859,-6.82663 -6.76758,-10.74805 -7.88019,-5.5386 -13.71738,-4.18638 -18.98437,-3.96484 -4.20587,0.17691 -7.11348,0.47513 -9.13477,0.62695 0.13714,-1.75765 0.3125,-3.36676 0.3125,-5.79297 v -39.20898 c 0,-0.47756 0.51286,-5.09224 0.42383,-10.02539 -0.0445,-2.46658 -0.20538,-5.19002 -1.16211,-8.41993 -0.95673,-3.2299 -3.01013,-7.52551 -7.53516,-10.41015 v 0.002 c -7.76608,-4.9516 -13.85585,-3.92843 -19.35742,-3.69336 -5.50157,0.23508 -10.77522,0.82617 -12.23828,0.82617 -1.83548,0 -6.68084,-1.65968 -13.51367,-1.17382 z m -432.757814,25.13281 c 0.02467,0.003 0.109553,0.0167 0.134765,0.0195 -0.75235,0.19243 -0.832121,-0.0909 -0.134765,-0.0195 z m -142.050786,0.80078 c -0.4268,0.5453 -0.85742,0.83464 -1.27929,1.5 h 0.002 c -0.18564,0.29277 -0.17755,0.41192 -0.33008,0.67578 -0.49026,-0.80019 -1.00713,-1.51331 -1.59375,-2.17383 1.06735,8.5e-4 2.13299,-0.004 3.20117,-0.002 z m 356.54493,0.20117 c -1.38959,1.58307 -2.17944,2.87925 -2.58204,3.97656 -0.76653,-1.43095 -1.63733,-2.73618 -2.66406,-3.97461 0.45684,0.003 0.89204,0.0371 1.34571,0.0371 1.31215,0 2.59084,-0.0346 3.90039,-0.0391 z m -177.458988,0.0918 c -0.292056,0.4031 -0.601393,0.80176 -0.837891,1.21289 -0.228801,-0.39844 -0.320071,-0.79315 -0.599609,-1.18945 0.470788,-0.007 0.970603,-0.018 1.4375,-0.0234 z M -8.578125,255.4707 c 0.04357,-0.0643 0.1213969,0.0423 0.1289062,0.35352 0.00169,0.0701 -0.015269,0.29968 -0.015625,0.375 -0.1468955,-0.3958 -0.1586333,-0.66163 -0.1132812,-0.72852 z m 428.779295,0 c 0.0436,-0.0642 0.1214,0.0423 0.12891,0.35352 0.002,0.0694 -0.0153,0.29661 -0.0156,0.37109 -0.14579,-0.39413 -0.15852,-0.65789 -0.11328,-0.72461 z m -343.742186,4.4961 c 9.47272,0.039 17.227737,1.76578 20.324219,4.01172 1.788979,1.29753 4.914507,8.53497 4.111327,16.29101 -0.80318,7.75605 -4.655437,12.8771 -6.824218,13.60352 -11.858115,3.97165 -32.023765,1.46679 -50.767578,1.46679 -2.422785,0 -3.99742,0.18402 -5.810547,0.34375 0.01292,-0.41171 0.06445,-0.44359 0.06445,-0.91406 0,-10.10631 0.892791,-21.63468 -0.113282,-33.75 3.047627,0.0778 4.893033,0.12109 9.660157,0.12109 9.397745,0 19.882749,-1.21282 29.355468,-1.17382 z m -212.064454,1.56054 c 0.69358,-0.002 1.46179,0.0499 2.16797,0.0586 -3.64405,0.0911 -6.94138,0.4779 -9.82422,0.65039 -0.006,-0.11012 0.007,-0.19206 0.002,-0.30274 2.47199,-0.21749 4.97115,-0.39961 7.6543,-0.40625 z m 303.41797,0.20899 c 0.48841,9.27419 -0.16406,19.74824 -0.16406,30.72656 0,1.21663 0.0809,1.73325 0.14258,2.69727 -3.68881,-0.29553 -8.34736,-0.97005 -14.88477,0.24414 -2.02592,0.37627 -4.38108,1.14388 -6.67383,2.39257 2.0934,-7.48958 3.01177,-15.36797 2.74219,-23.1582 -0.14731,-4.25677 -0.73893,-8.56033 -1.67969,-12.79687 4.39955,1.65245 8.41141,1.3878 11.56836,1.12109 3.69527,-0.31219 6.57596,-0.8853 8.94922,-1.22656 z m 45.70898,0.20703 c -0.20444,0.0184 -0.45177,0.0483 -0.65429,0.0645 -0.084,0.007 -0.12729,-0.0131 -0.21094,-0.008 0.27768,-0.031 0.58534,-0.0282 0.86523,-0.0566 z m -361.84765,0.28906 c -1.11958,0.48332 -1.69798,0.11828 -1.41992,0.0879 0.16463,-0.018 1.10892,-0.0858 1.41992,-0.0879 z m 356.18164,0.0937 c -0.62252,0.21615 -0.81868,0.0696 -0.50195,0.0352 0.0657,-0.007 0.4182,-0.0305 0.50195,-0.0352 z m -14.96289,19.49024 c 0.6074,0.63469 1.37489,1.24657 2.28125,1.84961 -0.85882,0.6043 -1.64207,1.32923 -2.3711,2.11718 0.0341,-1.30445 0.0491,-2.6268 0.0899,-3.96679 z m -355.2461,0.48632 c 0.46746,0.4293 1.11084,0.85224 1.74415,1.28125 -0.68302,0.54547 -1.34073,1.30737 -2.00196,2.03516 0.0957,-1.04095 0.15577,-2.21008 0.25781,-3.31641 z m 199.466801,18.82813 c 1.164324,1.90284 -0.07712,1.49276 -0.02539,0.37695 0.0039,-0.0836 0.01957,-0.29137 0.02539,-0.37695 z m -201.777341,8.86719 c 0.78286,1.4644 1.70001,2.75446 2.76367,3.91015 -1.61806,0.0319 -3.36538,-0.006 -4.92578,0.0371 1.0428,-1.35377 1.63526,-2.64774 2.16211,-3.94726 z m 178.013669,0.70507 c 0.598371,1.13119 1.40268,2.34184 2.509766,3.66211 -1.658125,-0.0636 -3.332982,-0.10054 -4.972656,-0.19531 0.930001,-1.09109 1.728496,-2.20851 2.46289,-3.4668 z m 177.347661,0.50977 c 0.50054,0.87707 0.87795,1.75586 1.58007,2.62695 0.13798,0.17119 0.34035,0.32854 0.49024,0.49805 -1.45119,0.0444 -2.83996,0.004 -4.2793,0.043 0.42997,-0.5024 0.91962,-0.84512 1.31055,-1.4375 a 12.50125,12.50125 0 0 0 0,-0.002 c 0.40751,-0.61762 0.5827,-1.14533 0.89844,-1.72852 z m 251.50976,1.32813 c 0.19704,0.28673 0.43189,0.52283 0.64453,0.79101 -0.37848,0.004 -0.76547,-0.003 -1.14258,0.002 0.17399,-0.24615 0.33201,-0.52707 0.49805,-0.79296 z m -218.95898,0.63671 c 0.0484,-0.0314 0.10684,0.0385 0.10742,0.18555 2.8e-4,0.0713 -0.026,0.34925 -0.0293,0.43945 -0.0762,-0.32461 -0.13287,-0.58946 -0.0781,-0.625 z m -348.53321,6.99805 c 0.20338,0.002 -0.006,0.16853 -0.65039,0.0273 0.10835,-0.007 0.58421,-0.0278 0.65039,-0.0273 z"
         id="path1" />
      <path
         style="baseline-shift:baseline;display:inline;overflow:visible;vector-effect:none;fill:#030303;stroke-linecap:round;stroke-linejoin:round;paint-order:markers stroke fill;enable-background:accumulate;stop-color:#000000;stop-opacity:1"
         d="m -188.57271,230.73572 c -4.40313,0.0593 -12.53545,-1.27355 -16.48377,0.68694 -3.37051,1.67357 -3.18801,12.46001 -2.19275,15.56722 0.98447,3.07346 4.73382,2.41914 7.2728,2.42028 4.95248,0.002 22.27032,-2.71166 23.99828,3.12029 3.48847,11.77415 0.32964,29.1559 0.32964,41.4706 0,3.31526 1.39985,10.91462 -1.76217,13.04837 -4.52644,3.05433 -16.4469,0.79018 -21.8055,0.79018 -2.30893,0 -6.64937,-0.7964 -7.904,1.7821 -1.54041,3.16595 -1.71308,14.69808 1.87775,16.20571 5.82007,2.4425 14.97543,0.0992 21.2312,0.53278 10.70893,0.74114 21.23472,-0.38133 31.93041,-0.0362 9.14023,0.29523 19.74257,1.42153 28.84457,-0.14684 4.23762,-0.73037 4.88003,-15.13399 1.86717,-17.54728 -1.86185,-1.49149 -5.69198,-0.79034 -7.90431,-0.79034 -8.15442,0 -26.75501,3.72642 -25.65775,-8.45689 0.14551,-1.61573 0.11921,-3.7025 1.14623,-5.0483 3.72384,-4.87963 21.16932,-1.10217 26.79227,-1.10217 h 44.094373 c 10.250416,0 22.443275,-0.34981 31.169397,-6.54848 16.340004,-11.60647 14.096518,-46.57986 -6.081219,-53.08103 -15.039983,-4.84571 -32.252758,-2.64396 -47.895611,-2.64396 -27.60323,0 -55.27854,-0.59439 -82.86701,-0.22306 m 161.736636,0.24442 c -3.240182,2.6514 -1.623135,14.64489 1.829151,16.55906 7.560668,4.19185 20.0348102,-2.90448 26.9264603,1.89235 3.20672,2.23147 1.8504461,9.662 1.8504461,13.04836 0,12.99586 0.1748557,26.23943 -0.00348,39.20923 -0.1877797,13.54564 -23.7759904,1.38871 -30.7079294,6.94081 -2.140856,1.71444 -1.222474,6.78396 -1.218677,9.20417 0.0035,1.89973 -0.255443,4.20076 0.564107,5.97517 1.447513,3.13291 5.753551,2.48095 8.558871,2.48172 8.325471,0.003 16.7847507,-0.43361 25.0881703,0.18913 24.6943737,1.85283 50.4409307,-0.18913 75.2645407,-0.18913 13.335504,0 28.673494,-0.0969 39.464454,-9.51708 21.38195,-18.6659 22.2433,-66.01988 -5.25332,-79.56384 -12.19589,-6.00737 -25.560284,-5.93526 -38.772629,-6.26259 -19.39468,-0.48049 -39.0372,0.0112 -58.539076,0.0112 -10.8244082,0 -21.8928582,0.67895 -32.69066,-0.0688 -3.24397,-0.22466 -9.533506,-2.22231 -12.360103,0.0902 m 174.292858,1.51625 c 1.10768,4.086 -1.18447,14.29807 2.5225,16.77555 7.94002,5.30624 28.52678,-7.91534 30.03816,7.05751 1.19282,11.81128 0.12995,24.25997 0.12995,36.13399 0,3.62802 1.28406,10.46356 -0.78154,13.59415 -1.74324,2.64154 -6.42561,1.78201 -9.10168,1.78201 -10.5644,0 -22.29655,-3.71272 -22.02819,9.98299 0.0379,1.94816 -0.40293,4.93113 0.45844,6.71938 2.1705,4.50599 14.48044,2.36025 18.52875,2.49094 16.692,0.53817 33.48511,-0.74189 50.17637,-0.74189 4.0696,0 14.93202,1.97967 17.05691,-2.42021 0.84159,-1.74212 0.99136,-4.13004 1.12137,-6.03669 0.15823,-2.32948 0.82031,-6.80319 -0.71387,-8.76211 -1.51821,-1.93816 -5.45022,-1.23241 -7.5812,-1.23241 -7.26264,-7.1e-4 -14.81115,0.60429 -22.04338,-0.0454 -5.38332,-0.48281 -6.44614,-9.83582 -3.34661,-13.54879 2.03822,-2.44042 5.2305,-1.39561 7.90429,-1.14375 5.94362,0.56 12.259,0.14031 18.24595,0.13055 13.40698,-0.0219 26.85347,-0.76796 40.29313,-0.7688 7.37062,-4.6e-4 16.44036,1.42998 23.56769,-0.60629 11.85302,-3.3866 21.30975,-11.91046 22.67515,-24.76439 1.42475,-13.40788 -3.47124,-28.34897 -16.59313,-33.72792 -10.37357,-4.25232 -22.56262,-2.3708 -33.42125,-2.65583 -25.39379,-0.66656 -50.67736,0.24975 -76.05443,0.24975 -12.26051,0 -29.65575,-3.32581 -41.05338,1.53761 m 259.24831,-1.86567 c -5.46694,1.58894 -7.49756,13.04245 -2.83269,16.5822 7.09844,5.38704 19.83183,-2.65031 26.82688,2.21863 3.20672,2.23154 1.85043,9.66199 1.85043,13.04836 v 29.98353 c 0,3.75433 1.04839,9.46504 -0.45843,12.95589 -2.19712,5.08805 -20.55026,2.42028 -25.38999,2.42028 -2.20928,0 -7.38429,-0.96463 -8.34144,1.7821 -1.15633,3.31741 -0.34516,14.50741 3.13222,16.09884 4.55085,2.08117 12.43994,0.57046 17.37319,0.57046 13.762,0 28.11547,-1.18781 41.81362,0.1307 6.56018,0.63119 17.19073,2.67314 23.39435,-0.1553 3.77006,-1.71906 3.84989,-15.23701 0.60136,-17.52037 -4.73786,-3.33001 -17.57161,-0.90643 -23.23545,-0.90643 -3.01515,0 -7.28926,0.67578 -9.10169,-2.42028 -2.25567,-3.85234 -0.78155,-11.66752 -0.78155,-16.03111 v -39.20917 c 0,-4.5525 1.96525,-15.4718 -2.49284,-18.31377 -5.39473,-3.43964 -18.59111,-0.90643 -24.87606,-0.90643 -5.26321,0 -12.49164,-1.77848 -17.48191,-0.32806 M 27.382881,248.97469 c 5.746704,-1.74119 13.739953,-0.33335 19.721579,-0.33335 16.304279,0 43.103014,-4.87409 57.01859,5.21913 14.7526,10.69996 11.82185,45.86811 -6.081984,51.86489 -16.4031,5.49391 -37.641386,2.11423 -54.737839,2.11423 -3.893236,0 -14.947993,1.91125 -17.719094,-1.23271 -1.919624,-2.17765 -0.52685,-9.01736 -0.52685,-11.83703 0,-11.14104 0.914577,-22.73728 -0.129245,-33.82758 -0.345914,-3.67944 -2.378053,-10.5033 2.454843,-11.96758 m -174.141611,0.65495 c 14.51618,-1.73212 30.1902,0.54931 44.85463,0.54931 9.731171,0 21.686825,-1.91072 31.169397,0.30314 11.796763,2.75387 8.902503,19.5019 -0.75949,22.79556 -5.869113,2.00067 -13.625922,0.73436 -19.766442,0.73436 h -41.053385 c -5.37419,0 -16.17275,2.11499 -20.92794,-0.46389 -2.85254,-1.547 -3.28732,-19.49791 -1.61432,-22.13646 1.20857,-1.90611 6.09977,-1.54362 8.09755,-1.78202 m 357.31645,0 c 14.82255,-1.76857 30.68664,-0.21949 45.61486,-0.21949 9.3503,0 20.56624,-1.42407 29.64892,1.10216 9.78515,2.7215 8.75044,18.77069 0,21.87843 -6.25837,2.22263 -12.59275,0.855 -19.00544,0.85247 -13.64265,-0.005 -27.42442,-0.57323 -41.05339,0.0303 -5.79992,0.25677 -18.15699,2.83559 -23.32591,0.27461 -3.24551,-1.60788 -2.98322,-19.66873 -0.54358,-22.13645 1.83295,-1.85352 6.23479,-1.4921 8.66454,-1.78202 M 333.7213,275.8908 c -4.58733,0.82523 -7.58498,10.65399 -2.80302,13.03352 7.61083,3.78717 23.19211,0.11794 31.68863,0.49421 3.30329,0.14621 7.34629,1.62318 10.53097,0.16783 4.08329,-1.86621 3.40058,-11.64506 -0.69258,-13.09228 -9.7175,-3.43595 -28.63398,-2.41882 -38.724,-0.60328 z"
         id="path2" />
    </g>
  </g>
</svg>
