<?xml version='1.0' encoding='utf-8'?>
<svg xmlns="http://www.w3.org/2000/svg" version="1.1" id="Layer_1" x="0px" y="0px" viewBox="0 0 3823.1992 665.19334" xml:space="preserve" width="600" height="104.39320451835206">
    <defs id="defs35">
							
							
						
							
							
						
						
						
					
					
					
				
				
				
			
			
		
		
		
	
			
			
		
			
			
		
			
			
		
			
			
		
			
			
		
			
			
		
			
			
		
			
			
		
			
			
		
			
			
		
			
			
		
			
			
		
		
		
		
		
		
		
		
		
		
		
		
		
	
	
	
</defs>
    <style type="text/css" id="style1">
	.st0{fill:#FFFFFF;}
</style>
    <g id="g37" style="display:none" transform="translate(-14.400391,0.69921921)">
        <path class="st0" d="m 198.7,52.8 c 14.8,0 29.5,1.9 43.7,5.7 l 7.3,1.9 v 7.6 74.5 h 35.9 21.1 72 23.6 l -16.7,16.7 -62.6,62.6 62.6,62.6 16.7,16.7 h -23.6 -72 -21.1 -35.9 l -0.2,0.1 v 74.4 7.5 l -7.3,1.9 c -14.1,3.8 -28.8,5.7 -43.7,5.7 -22.8,0 -44.9,-4.5 -65.8,-13.3 C 112.6,368.9 94.5,356.7 79,341.2 63.5,325.7 51.3,307.6 42.8,287.5 34,266.7 29.5,244.5 29.5,221.7 c 0,-22.8 4.5,-45 13.3,-65.8 8.5,-20.1 20.7,-38.2 36.2,-53.7 15.5,-15.5 33.6,-27.7 53.8,-36.2 20.9,-8.7 43,-13.2 65.9,-13.2 m -0.1,243.7 c 10.9,0 21.6,-2.4 31.3,-6.9 v -3.9 h 0.1 v -58.1 -1.8 -8 -1.8 -61.9 c -9.9,-4.6 -20.4,-7 -31.4,-7 -41.1,0 -74.6,33.5 -74.6,74.6 -0.1,41.3 33.4,74.8 74.6,74.8 m 203.6,-154 v 0 M 198.7,23.3 c -26.8,0 -52.8,5.3 -77.3,15.6 C 97.7,48.9 76.5,63.2 58.3,81.4 40.1,99.6 25.8,120.9 15.7,144.5 5.3,169.1 0,195.1 0,221.9 c 0,26.8 5.3,52.8 15.6,77.3 10,23.6 24.3,44.9 42.5,63.1 18.2,18.2 39.5,32.5 63.1,42.5 24.5,10.4 50.5,15.6 77.3,15.6 17.4,0 34.7,-2.3 51.3,-6.7 l 7.3,-1.9 C 270,408.3 279,396.6 279,383.3 v -7.5 -45 h 6.5 21.1 72 23.6 c 11.9,0 22.7,-7.2 27.3,-18.2 4.6,-11 2,-23.7 -6.4,-32.2 L 406.4,263.7 364.7,222 406.4,180.3 423,163.7 c 5.4,-5.4 8.8,-12.8 8.8,-21 0,-16.3 -13.2,-29.5 -29.5,-29.5 0,0 0,0 0,0 0,0 0,0 0,0 v 0 h -23.6 -72 -21.1 -6.4 V 68 60.5 c 0,-13.4 -9,-25.1 -21.9,-28.5 L 250,30 c -16.6,-4.4 -33.9,-6.7 -51.3,-6.7 z m -0.1,243.6 c -24.9,0 -45.1,-20.2 -45.1,-45.1 0,-24.9 20.2,-45.1 45.1,-45.1 0.6,0 1.3,0 1.9,0 v 39.3 1.8 8 1.8 39.3 c -0.7,0 -1.3,0 -1.9,0 z" id="path24" style="display:inline"/>
        <path class="st0" d="m 527.8,147.5 c 35.3,0 53.9,3.4 66.5,12.1 14.9,10.3 19.3,27 21.2,48.9 l 0.9,10.7 h -10.7 -44.6 -7.8 l -1.8,-7.5 c -1.1,-4.6 -1.8,-4.9 -2.6,-5.3 -3.9,-1.8 -14,-2 -21.2,-2 -14.5,0 -25.9,0 -29.9,1.9 -0.5,0.3 -0.8,0.4 -1.1,1.3 -1,2.8 -1,8.3 -1,10.1 0,9.8 1.2,15.2 3.8,17.6 3.1,2.8 10.5,4.2 22.6,4.2 14.5,0 23.9,-1.1 27.8,-3.1 1,-0.5 1.4,-0.7 1.4,-4.7 v -9.8 h 9.8 44.6 9.8 v 9.8 c 0,19.9 -2.4,39.8 -20.2,51.1 -15.2,9.7 -39.2,11.7 -73.1,11.7 -31.7,0 -55.9,-2.5 -71.2,-14.7 -7.5,-6 -12.6,-14 -15.6,-24.5 -2.5,-8.9 -3.7,-19.9 -3.7,-34.6 0,-22.8 2.5,-45.7 20.7,-59 13.8,-10.2 34.9,-14.2 75.4,-14.2 m 0,-29.5 c -22.6,0 -39.4,1.2 -53.1,3.7 -16.3,3 -29,8.1 -39.7,15.9 -13.7,10 -23.2,24 -28.2,41.7 -4.1,14.5 -4.7,29.6 -4.7,41.1 0,17.6 1.6,31.2 4.9,42.8 4.7,16.4 13.3,29.7 25.6,39.5 22,17.5 51.7,21.1 89.6,21.1 40.3,0 67.7,-2.7 89.1,-16.3 14,-8.9 23.7,-21.8 29,-38.3 4.3,-13.4 4.8,-27.2 4.8,-37.7 v -5.2 c 0.8,-3.2 1.1,-6.5 0.8,-9.9 L 645,205.7 c -2.2,-24.8 -8,-52.7 -33.9,-70.6 -9.9,-6.8 -21.7,-11.4 -36.2,-14 C 562.6,119 547.6,118 527.8,118 Z" id="path14"/>
        <path class="st0" d="m 718.2,146.6 c 35,0 59.7,2.2 75.2,13.2 16.6,11.8 20,31.3 20,56.9 0,25.7 -1.3,48.2 -16.7,61.7 -13.1,11.5 -34.2,15.8 -77.7,15.8 h -0.9 c -35.7,0 -61,-2.4 -76.6,-14.2 -7.8,-5.9 -13,-14 -16,-24.7 -2.4,-8.8 -3.5,-19.6 -3.5,-34.9 0,-23.7 1.4,-46 18,-59.2 13.4,-10.7 34.6,-14.6 78.2,-14.6 m -0.6,92.8 h 1.3 c 10.3,0 22.5,-0.4 26.3,-3.3 2,-1.6 2.9,-6.5 2.9,-16.5 0,-12.3 -1.6,-14.8 -2.9,-15.5 -4.2,-2.5 -17.3,-2.5 -30,-2.5 -7.3,0 -20.9,0 -24.7,2.7 -1.8,1.3 -2.6,6.2 -2.6,15.3 0,10.2 0.8,15.2 2.8,16.7 4.2,3.1 20.1,3.1 26.9,3.1 M 718.2,117 c -24.5,0 -41.7,1.2 -55.8,3.8 -17,3.2 -29.9,8.7 -40.7,17.2 -12.8,10.2 -21.4,24.3 -25.6,42 -3,12.5 -3.6,25.1 -3.6,40.3 0,18.2 1.4,31.4 4.6,42.9 4.7,17 13.7,30.5 26.7,40.3 22.2,16.8 52.6,20.2 94.4,20.2 h 0.8 c 24.6,0 42,-1.3 56.1,-4.2 17.3,-3.5 30.3,-9.6 41.1,-19 26.7,-23.5 26.7,-59.8 26.7,-83.9 0,-28.7 -3.9,-60.7 -32.4,-81 C 788.6,120.1 758.9,117 718.2,117 Z" id="path12"/>
        <path class="st0" d="m 1032.7,144.7 c 22.9,0 40.8,5.1 53.1,15 13.2,10.7 19.9,26.8 19.9,47.6 v 72.4 9.8 h -9.8 -44.6 -9.8 v -9.8 -64.9 c 0,-8 -2.3,-9.7 -3.2,-10.3 -2.8,-2 -8.4,-3.1 -16.7,-3.1 -25.5,0 -25.5,8.4 -25.5,13.4 v 64.9 9.8 h -9.8 -45.5 -9.8 v -9.8 -56.6 c 0,-9.4 -1.2,-15.2 -3.6,-17.9 -2.3,-2.6 -7.7,-3.8 -16.3,-3.8 -24.6,0 -24.6,6.4 -24.6,15.3 v 63.2 9.8 h -9.8 -44.6 -9.8 v -9.8 -122.6 -9.8 h 9.8 41.9 9.9 v 5.7 c 9.1,-5.8 21.3,-8.6 38.3,-8.6 30.3,0 46.3,8.1 56.6,18.9 3.1,-3.6 6.7,-6.6 11,-9.2 10.5,-6.3 24.9,-9.6 42.9,-9.6 m 0,-29.5 c -21.5,0 -39.7,3.9 -54.4,11.7 -15.2,-7.9 -33.8,-11.7 -56.2,-11.7 -12,0 -22.5,1.2 -31.7,3.6 -2.1,-0.5 -4.3,-0.7 -6.5,-0.7 h -9.9 -41.8 -9.8 c -16.3,0 -29.5,13.2 -29.5,29.5 v 9.8 122.5 9.8 c 0,16.3 13.2,29.5 29.5,29.5 h 9.8 44.6 9.8 c 8.9,0 16.9,-3.9 22.3,-10.1 5.4,6.2 13.3,10 22.2,10 h 9.8 45.5 9.8 c 9.1,0 17.2,-4.1 22.7,-10.6 5.4,6.5 13.6,10.6 22.7,10.6 h 9.8 44.6 9.8 c 16.3,0 29.5,-13.2 29.5,-29.5 v -9.8 -72.4 c 0,-37.6 -16.7,-59.1 -30.8,-70.5 -17.8,-14.4 -41.9,-21.7 -71.8,-21.7 z" id="path10"/>
        <path class="st0" d="m 1331.8,144.7 c 23,0 40.8,5.1 53.1,15.1 13.2,10.7 19.8,26.7 19.8,47.6 v 72.4 9.8 h -9.8 -44.6 -9.8 v -9.8 -64.9 c 0,-6.3 0,-13.4 -20.9,-13.4 -24.6,0 -24.6,7.8 -24.6,13.4 v 64.9 9.8 h -9.8 -45.5 -9.8 v -9.8 -56.6 c 0,-9.7 -1.2,-15.6 -3.5,-18.1 -2.2,-2.4 -7.6,-3.6 -16.4,-3.6 -9.3,0 -15.8,1.3 -19.4,3.8 -2,1.4 -4.2,4 -4.2,11.5 v 63.2 9.8 h -9.8 -44.6 -9.8 V 280 157.3 147.5 h 9.8 41.8 9.8 v 6 c 8.9,-6 20.9,-8.8 37.5,-8.8 18.2,0 32.3,2.9 43.2,8.7 5,2.7 9.4,6 13.4,10.2 10.8,-12.8 28.3,-18.9 54.1,-18.9 m 0,-29.5 c -16.4,0 -30.2,2.1 -42.4,6.3 -4.3,1.5 -8.3,3.3 -12.1,5.3 -15.1,-7.8 -33.4,-11.6 -55.9,-11.6 -11.7,0 -21.9,1.2 -31,3.6 -2.1,-0.5 -4.3,-0.7 -6.5,-0.7 h -9.8 -41.8 -9.8 c -16.3,0 -29.5,13.2 -29.5,29.5 v 9.8 122.5 9.8 c 0,16.3 13.2,29.5 29.5,29.5 h 9.8 44.6 9.8 c 8.6,0 16.4,-3.7 21.8,-9.6 5.4,5.8 13.1,9.5 21.7,9.5 h 9.8 45.5 9.8 c 9.1,0 17.3,-4.1 22.7,-10.7 5.4,6.5 13.6,10.7 22.7,10.7 h 9.8 44.6 9.8 c 16.3,0 29.5,-13.2 29.5,-29.5 v -9.8 -72.4 c 0,-37.6 -16.7,-59.1 -30.7,-70.5 -17.9,-14.4 -42,-21.7 -71.9,-21.7 z" id="path8"/>
        <path class="st0" d="m 1510.1,146.6 c 35,0 59.9,2.2 75.6,13.1 8,5.6 13.5,13.3 16.7,23.5 2.7,8.6 3.9,18.9 3.9,33.5 0,25.7 -1.3,48.1 -17.2,61.8 -15.2,13.1 -41.2,15.8 -78.1,15.8 h -0.9 c -35.7,0 -60.9,-2.3 -76.6,-14 -7.8,-5.8 -13.1,-13.8 -16.1,-24.4 -2.5,-8.7 -3.6,-19.3 -3.6,-34.5 0,-23.7 1.4,-46.1 17.9,-59.5 7.3,-6 17.1,-9.9 30.6,-12.2 11.8,-2.2 27,-3.1 47.8,-3.1 m -0.4,92.8 h 1.4 c 10.3,0 22.6,-0.4 26.3,-3.3 2,-1.6 2.9,-6.5 2.9,-16.5 0,-12.3 -1.6,-14.8 -2.9,-15.5 -4.2,-2.5 -17.3,-2.5 -30,-2.5 -7.6,0 -21.7,0 -25.6,2.7 -1.8,1.3 -2.7,6.1 -2.7,15.3 0,10.2 0.8,15.2 2.8,16.6 3.8,2.8 16.2,3.2 27.8,3.2 m 0.4,-122.4 c -22.5,0 -39.3,1.1 -52.7,3.4 -18.7,3.2 -32.8,9.1 -44.2,18.4 -12.6,10.3 -21.1,24.4 -25.2,42.1 -2.9,12.5 -3.5,25.2 -3.5,40.4 0,18 1.4,31.1 4.7,42.5 4.8,16.9 13.8,30.3 26.8,40.1 22.2,16.6 52.5,19.9 94.2,19.9 h 0.8 c 35.9,0 72.9,-1.8 97.4,-22.9 12.1,-10.4 20.2,-24.7 24.1,-42.4 3.1,-14 3.3,-28.9 3.3,-41.7 0,-17.7 -1.6,-30.8 -5.2,-42.4 -5.2,-16.5 -14.6,-29.6 -28,-38.9 -22.1,-15.4 -51.8,-18.5 -92.5,-18.5 z" id="path16"/>
        <path class="st0" d="m 1807.7,95.5 v 9.8 174.5 9.8 h -9.8 -44.6 -9.8 V 283 c -10,6.1 -24.1,9.5 -45.9,9.5 -32.8,0 -52.1,-4.6 -64.7,-15.5 -12.9,-11.2 -18.5,-28.4 -18.5,-57.5 0,-24.9 2.7,-44.2 16,-57.1 12,-11.7 31.3,-16.7 64.4,-16.7 22.8,0 36.7,2.8 46.8,8.5 v -48.9 -9.8 h 9.8 46.4 9.9 m -92.5,141.2 c 7.3,0 22.4,0 25.2,-2.6 2.1,-1.9 2.1,-13.8 2.1,-20.2 0,-8.9 -2,-10.1 -2.8,-10.7 -3.8,-2.4 -13.7,-2.7 -20.8,-2.7 -16.3,0 -28.2,0.2 -33.6,3 -1.8,0.9 -4.9,2.5 -4.9,16.9 0,11.8 2.3,13 3.7,13.7 4.8,2.4 15.9,2.6 31.1,2.6 M 1807.7,66 h -9.8 -46.4 -9.8 c -16.3,0 -29.5,13.2 -29.5,29.5 v 9.8 11.4 c -5.3,-0.4 -11.1,-0.6 -17.3,-0.6 -29.3,0 -62.4,3 -85.1,25.1 -21.9,21.3 -24.9,50.2 -24.9,78.3 0,25.6 3.3,57.8 28.7,79.8 18.4,15.9 43.5,22.7 84,22.7 14.4,0 26.8,-1.3 37.6,-4 2.6,0.8 5.4,1.2 8.3,1.2 h 9.8 44.6 9.8 c 16.3,0 29.5,-13.2 29.5,-29.5 V 279.9 105.3 95.5 C 1837.2,79.2 1824,66 1807.7,66 Z" id="path18"/>
        <path class="st0" d="m 1911.2,146.6 c 35,0 59.7,2.2 75.2,13.2 16.6,11.8 20,31.3 20,56.9 0,25.7 -1.3,48.2 -16.7,61.7 -13.1,11.5 -34.2,15.8 -77.7,15.8 h -0.9 c -35.3,0 -60.3,-2.4 -75.8,-14.2 -7.7,-5.9 -12.9,-14 -15.9,-24.7 -2.4,-8.8 -3.5,-19.6 -3.5,-34.9 0,-23.6 1.4,-45.9 17.8,-59.2 13.4,-10.7 34.4,-14.6 77.5,-14.6 m -0.4,92.8 h 1.4 c 10.3,0 22.6,-0.4 26.3,-3.3 2,-1.6 2.9,-6.5 2.9,-16.5 0,-12.3 -1.6,-14.8 -2.9,-15.5 -4.2,-2.5 -17.3,-2.5 -30,-2.5 -7.6,0 -21.7,0 -25.6,2.7 -1.8,1.3 -2.7,6.1 -2.7,15.3 0,10.2 0.8,15.2 2.8,16.6 3.8,2.8 16.2,3.2 27.8,3.2 m 0.4,-122.4 c -24.3,0 -41.4,1.2 -55.4,3.8 -16.9,3.2 -29.8,8.7 -40.5,17.4 -12.6,10.2 -21.1,24.3 -25.3,41.9 -2.9,12.4 -3.5,25.1 -3.5,40.2 0,18.2 1.4,31.4 4.6,42.8 4.7,16.9 13.6,30.5 26.4,40.3 22.1,16.9 52.2,20.3 93.7,20.3 h 0.8 c 24.6,0 42,-1.3 56.1,-4.2 17.3,-3.5 30.3,-9.6 41.1,-19 26.7,-23.5 26.7,-59.8 26.7,-83.9 0,-28.7 -3.9,-60.7 -32.4,-81 C 1981.6,120.1 1952,117 1911.2,117 Z" id="path22"/>
        <path class="st0" d="m 2112.7,144.7 c 25.7,0 40.5,5.1 49.6,17 4.9,6.4 7.5,14.2 8.9,23.9 2.9,-9.1 7.6,-17.1 15.2,-23.2 15.4,-12.3 39.9,-14.8 72.1,-14.8 38,0 62.6,2.8 76.3,17.3 12.7,13.5 13.3,33.8 14.3,64.5 v 1 l 0.3,10.1 h -0.4 v 1.4 c 0,23.2 -9.2,38.1 -28.2,45.4 -16.9,6.5 -41,7.1 -70.7,7.1 h -0.1 -0.1 c -31.9,-0.5 -50.1,-4.9 -62.8,-15.1 -13.9,-11.1 -20.2,-28.7 -20.2,-56.9 0,-0.2 0,-0.3 0,-0.5 h -4.1 -41.8 -9.3 l -0.5,-9.2 c -0.4,-6.8 -1.5,-9.2 -2.3,-10 -0.8,-0.8 -3.5,-2.1 -12,-2.1 -16.7,0 -19,7.3 -19,15.3 v 64 9.8 h -9.8 -44.6 -9.8 v -9.8 -122.6 -9.8 h 9.8 42.7 9.8 v 5.2 c 8.9,-5.8 20.2,-8 36.7,-8 M 2271.4,246 c 9.1,0 12,-1.3 12.9,-1.8 0.3,-0.2 0.8,-0.6 1.5,-3.6 h -52.5 c 0.6,1.3 1.3,1.7 2.1,2 5.8,2.9 20.7,3.4 36,3.4 M 2112.7,115.2 c -13.1,0 -23.1,1.3 -31.1,3.4 -1.8,-0.3 -3.7,-0.5 -5.5,-0.5 h -9.8 -42.7 -9.8 c -16.3,0 -29.5,13.2 -29.5,29.5 v 9.8 122.5 9.8 c 0,16.3 13.2,29.5 29.5,29.5 h 9.8 44.6 9.8 c 16.3,0 29.5,-13.2 29.5,-29.5 v -9.8 -28.7 c 1.4,0.2 2.8,0.3 4.3,0.3 h 9.3 18.8 c 3.3,17.9 11.1,36.7 28.9,50.9 18.3,14.7 41.7,20.9 80.8,21.6 v 0 c 0.2,0 0.4,0 0.6,0 h 0.1 c 32.8,0 59.7,-0.7 81.3,-9 15.6,-6 27.6,-15.7 35.7,-28.7 7,-11.3 10.8,-24.8 11.4,-40.3 0.4,-2 0.5,-4.1 0.5,-6.2 l -0.3,-10.1 v -1 c -0.5,-16.2 -0.9,-30.3 -3.2,-42.9 -3,-17.3 -9.1,-30.3 -19.1,-40.9 -23.1,-24.6 -59.4,-26.6 -97.8,-26.6 -33.8,0 -61.2,2.8 -82.4,15.6 -6.5,-5.5 -14.1,-9.8 -22.8,-12.8 -11.5,-4.2 -24.4,-5.9 -40.9,-5.9 z" id="path20"/>
        <path class="st0" d="m 2687.4,29.5 c 20.6,0 40.1,0 60.4,0.6 37.9,0.6 80.6,5.1 109.6,33.4 28.1,27.6 28.1,84.3 28.1,118.1 0,16.6 -0.4,38.2 -4.7,58.5 -5,24.2 -14.2,42.1 -28,54.9 -28.8,26.5 -82.7,30.1 -131.5,30.1 -6.4,0 -12.5,-0.1 -18.4,-0.1 -5.1,0 -9.9,-0.1 -14.4,-0.1 h -130.3 v 79.4 9.8 h -9.8 -111.1 -9.8 v -9.8 -365 -9.8 h 9.8 250.1 m -129.1,184.4 h 155.5 c 19.9,0 29.8,-1.8 34.3,-6.3 4.4,-4.4 6.3,-14.2 6.3,-33.8 0,-20.2 -3.9,-25.6 -7.4,-28 -5.8,-4 -17.7,-4.6 -32.7,-4.8 -4.5,0 -9.1,-0.2 -13.6,-0.3 -4.4,-0.1 -8.9,-0.3 -13.2,-0.3 h -129.3 v 73.5 M 2687.4,0 h -250.1 -9.8 C 2411.2,0 2398,13.2 2398,29.5 v 9.8 365.1 9.8 c 0,16.3 13.2,29.5 29.5,29.5 h 9.8 111.1 9.8 c 16.3,0 29.5,-13.2 29.5,-29.5 v -9.8 -49.9 h 100.8 c 4.3,0 9,0 14.1,0.1 h 0.1 c 5.9,0.1 12.1,0.1 18.6,0.1 22.3,0 51.3,-0.6 78.6,-5.6 31.7,-5.8 55.6,-16.3 73,-32.3 0,0 0,0 0.1,0 18.5,-17.1 30.5,-40.2 36.8,-70.6 4.8,-23 5.3,-46.6 5.3,-64.6 0,-38.5 0,-102.9 -37,-139.2 -16.9,-16.5 -38.7,-28.1 -65,-34.7 C 2789.8,1.9 2766.4,0.8 2748.5,0.5 2727.8,0 2708.2,0 2687.4,0 Z m -99.6,170 h 99.7 c 3.8,0 8.1,0.1 12.2,0.3 4.6,0.2 9.4,0.3 14.3,0.3 2.4,0 6.7,0.1 10.7,0.3 0,0.9 0,1.9 0,2.9 0,4.3 -0.1,7.7 -0.2,10.2 -2.7,0.2 -6.2,0.3 -10.8,0.3 h -126 V 170 Z" id="path2"/>
        <path class="st0" d="m 3320.1,29.5 v 9.8 86 9.8 h -9.8 -284.7 v 33.5 h 269.9 9.8 v 9.8 79.9 9.8 h -9.8 -269.9 v 39 h 286.8 9.8 v 9.8 87.5 9.8 h -9.8 -406.1 -9.8 V 404.4 39.3 29.5 h 9.8 403.9 9.9 m 0,-29.5 h -9.8 -403.9 -9.8 c -16.3,0 -29.5,13.2 -29.5,29.5 v 9.8 365.1 9.8 c 0,16.3 13.2,29.5 29.5,29.5 h 9.8 406.1 9.8 c 16.3,0 29.5,-13.2 29.5,-29.5 v -9.8 -87.5 -9.8 c 0,-12.7 -8,-23.5 -19.2,-27.7 1.4,-3.5 2.2,-7.3 2.2,-11.3 v -9.8 -79.9 -9.8 c 0,-2.5 -0.3,-5 -0.9,-7.4 9.3,-5 15.7,-14.8 15.7,-26.1 v -9.8 -86 -9.8 C 3349.7,13.2 3336.4,0 3320.1,0 Z" id="path4"/>
        <path class="st0" d="m 3809.5,29.5 v 9.8 93 9.8 h -9.8 -152.8 v 262.2 9.8 h -9.8 -116.6 -9.8 v -9.8 -262.1 h -152.8 -9.8 v -9.8 -93 -9.8 h 9.8 441.7 9.9 m 0,-29.6 h -9.8 -441.7 -9.8 c -16.3,0 -29.5,13.2 -29.5,29.5 v 9.8 93 9.8 c 0,16.3 13.2,29.5 29.5,29.5 h 9.8 123.2 v 232.7 9.8 c 0,16.3 13.2,29.5 29.5,29.5 h 9.8 116.6 9.8 c 16.3,0 29.5,-13.2 29.5,-29.5 v -9.8 -232.6 h 123.2 9.8 c 16.3,0 29.5,-13.2 29.5,-29.5 v -9.8 -93 -9.8 C 3839,13.2 3825.8,0 3809.5,0 Z" id="path6"/>
        <path id="path46" style="fill:#ffffff;stroke-linecap:round;stroke-linejoin:round" d="m 3204.127,446.05469 c -29.1401,6.7e-4 -45.3721,0.44481 -54.836,2.39258 -0.018,0.003 -0.038,0.006 -0.068,0.0117 -0.01,10e-4 -0.013,0.003 -0.02,0.004 a 1.50015,1.50015 0 0 0 -0.02,0.004 c -10.1685,2.20281 -19.1389,7.31019 -24.5313,15.89258 -5.325,8.47534 -6.9589,18.87702 -6.9589,31.36328 0,13.35005 2.041,24.81927 9.4804,33.01953 h -0.062 c -5.7696,5.7e-4 -10.4994,4.7304 -10.5,10.5 v 5.79101 c 0,8.89068 0.6128,16.05514 3.084,22.53907 2.5214,6.6149 7.2353,11.81082 12.8516,15.35546 12.1979,7.75299 28.582,8.68946 66.3711,8.68946 35.9332,0 51.1416,-0.25776 61.9394,-4.20313 0,-5.2e-4 0,-10e-4 0.01,-0.002 0,-10e-4 0.01,-8.6e-4 0.01,-0.002 0.065,-0.0237 0.1543,-0.0327 0.2188,-0.0566 0.023,-0.007 0.056,-0.0157 0.062,-0.0176 0,-5.2e-4 0.02,-0.004 0.02,-0.004 0,0 0.014,-0.009 0.016,-0.01 v 0.006 c 0.017,-0.007 0.032,-0.0147 0.049,-0.0215 l -0.039,0.0156 c 7.9051,-2.98879 14.5434,-8.56393 18.5898,-16.14454 2.3241,4.22309 5.354,7.8632 9.0352,10.67383 v 0.002 a 1.50015,1.50015 0 0 0 0,0.006 c 0.046,0.035 0.077,0.0576 0.094,0.0703 a 1.50015,1.50015 0 0 0 0,0.002 c 10.8191,8.05893 25.2584,10.0625 50.6973,10.0625 23.3527,0 38.9206,-1.01877 50.9785,-6.96289 4.4372,-2.18734 8.2559,-5.23075 11.2363,-8.91211 v 3.18164 c 6e-4,5.7696 4.7304,10.49943 10.5,10.5 h 32.0918 c 5.7696,-5.7e-4 10.4994,-4.73042 10.5,-10.5 V 543.7657 c 0,-6.35994 0.2794,-10.44517 0.668,-12.57421 0.4029,-2.20797 0.4134,-2.11666 1.1602,-3.13086 -0.1075,0.13487 0.1418,-0.13469 0.5117,-0.3711 0.3788,-0.24209 0.921,-0.53107 1.5918,-0.77734 1.3856,-0.50877 3.3712,-0.93359 5.8867,-0.93359 2.8104,0 4.6028,0.24345 5.6113,0.46484 0.1765,0.0387 0.1993,0.058 0.3301,0.0937 0,0.0124 -2e-4,0.009 0.01,0.0215 0.1876,0.81113 0.4121,2.40736 0.4121,5.0586 6e-4,5.76959 4.7304,10.49942 10.5,10.5 h 28.8554 v 37.18359 c 6e-4,5.7696 4.7305,10.49943 10.5,10.5 h 32.0918 c 5.7696,-5.7e-4 10.4995,-4.7304 10.5,-10.5 v -3.86719 c 1.8152,2.39999 3.8058,4.62979 6.1661,6.42774 a 1.50015,1.50015 0 0 0 0.01,0.006 c -5e-4,-4e-4 0.029,0.0218 0.078,0.0586 a 1.50015,1.50015 0 0 0 0,0.004 c 10.8195,8.06119 25.2593,10.06445 50.7012,10.06445 23.3441,0 38.9061,-1.01939 50.9629,-6.96289 5.8301,-2.87403 10.5884,-7.23045 13.7813,-12.58203 1.5082,2.87791 3.2686,5.62713 5.7773,7.89648 a 1.50015,1.50015 0 0 0 0.01,0.0156 c 5.3399,4.92589 12.3582,8.11057 21.1562,9.66992 8.7582,1.55232 19.6349,1.94531 35.4219,1.94531 25.2024,0 41.5113,-0.87009 53.8965,-6.9375 6.324,-3.0981 11.4256,-8.02718 14.3066,-14.16015 2.8321,-6.0287 3.5859,-12.55988 3.5859,-19.48829 0,-9.77795 -2.6138,-18.8831 -8.7031,-25.51367 2.6391,-2.04054 4.3399,-5.18665 4.1407,-8.72265 a 1.50015,1.50015 0 0 0 0,-0.041 c -0.3891,-5.58611 -1.0038,-10.24971 -2.6387,-14.67383 -1.6697,-4.51879 -4.5835,-8.38703 -8.0781,-11.21093 -5.2118,-4.38076 -11.8986,-7.13078 -20.2422,-8.53907 -8.3623,-1.41145 -18.7467,-1.81836 -33.5547,-1.81836 -22.789,0 -37.7571,0.60645 -48.2071,4.6875 -6.8382,2.594 -12.7656,7.13712 -16.4863,13.41211 -0.2978,0.50226 -0.4876,1.03191 -0.7461,1.54492 -2.0065,-3.47633 -4.3778,-6.66241 -7.3926,-9.1914 a 1.50015,1.50015 0 0 0 -0.01,-0.0156 c -0.039,-0.0343 -0.074,-0.0641 -0.1055,-0.0898 v -0.002 c -0.01,-0.006 -0.016,-0.0115 -0.023,-0.0176 a 1.50015,1.50015 0 0 0 -0.01,-0.008 c -5.3048,-4.31377 -11.9734,-7.19131 -20.3379,-8.65235 -8.2976,-1.44932 -18.5156,-1.85742 -33.2324,-1.85742 -28.3403,0 -41.9605,1.86421 -52.9277,9.47461 v 0.002 c -0.011,0.007 -0.024,0.0141 -0.035,0.0215 a 1.50015,1.50015 0 0 0 -0.01,0.004 v 0.004 a 1.50015,1.50015 0 0 0 -0.021,0.0156 c -2.7931,1.95356 -5.1261,4.47518 -7.2286,7.22266 v -3.85156 -0.0273 c 2e-4,-0.0273 5e-4,-0.0547 0,-0.082 a 1.50015,1.50015 0 0 0 0,-0.0273 c -0.077,-2.0777 -0.9632,-3.86494 -2.0996,-5.42578 1.1356,-1.55949 2.022,-3.34341 2.0996,-5.41992 a 1.50015,1.50015 0 0 0 0,-0.0273 c 7e-4,-0.0377 7e-4,-0.0756 0,-0.11328 v -24.09765 c -6e-4,-5.76958 -4.7304,-10.49943 -10.5,-10.5 h -32.0918 c -5.7696,5.7e-4 -10.4994,4.7304 -10.5,10.5 v 24.125 c -3e-4,0.0286 -6e-4,0.0573 0,0.0859 a 1.50015,1.50015 0 0 0 0,0.0273 c 0.078,2.07638 0.966,3.86032 2.1016,5.41992 -0.6494,0.89209 -1.1445,1.86614 -1.5019,2.9375 -8.3208,-7.83498 -20.0184,-10.07813 -33.8047,-10.07813 -9.777,0 -18.0684,1.06407 -25.3536,4.39063 -0.8971,0.40962 -1.6223,0.88265 -2.371,1.3418 -1.735,-1.90482 -3.9834,-3.32103 -6.6543,-3.54493 -0.081,-0.007 -0.1613,-0.0112 -0.2422,-0.0117 a 1.50015,1.50015 0 0 0 -0.01,0 h -30.293 c -5.7695,5.8e-4 -10.4994,4.73041 -10.5,10.5 v 3.51171 c -1.545,-2.10842 -3.233,-4.08722 -5.2285,-5.75781 a 1.50015,1.50015 0 0 0 0,-0.002 1.50015,1.50015 0 0 0 0,-0.002 1.50015,1.50015 0 0 0 0,-0.006 c -0.018,-0.0149 -0.05,-0.0404 -0.088,-0.0723 l -0.01,-0.01 c 0,-0.004 -0.01,-0.008 -0.014,-0.0117 a 1.50015,1.50015 0 0 0 -0.01,-0.006 c -5.3075,-4.31608 -11.9799,-7.1936 -20.3476,-8.6543 -8.3011,-1.44906 -18.5253,-1.85547 -33.2422,-1.85547 -28.1415,0 -41.7432,1.85481 -52.668,9.33008 -0.036,0.025 -0.077,0.0433 -0.1133,0.0684 a 1.50015,1.50015 0 0 0 -0.049,0.0351 c 0.1471,-0.11031 0.095,-0.0715 0.025,-0.0234 -0.05,0.0297 -0.1018,0.0572 -0.1504,0.0898 a 1.50015,1.50015 0 0 0 -0.022,0.0137 c -6.078,4.24316 -10.8718,10.44592 -13.2461,18.23047 -0.034,0.11051 -0.04,0.20419 -0.07,0.31445 -0.7788,-0.93108 -1.6036,-1.80771 -2.4746,-2.64257 3.7445,-1.37732 6.58,-4.70126 6.8848,-8.89454 0.21,-2.89652 0.1992,-5.68564 0.1992,-6.38085 0,-7.85549 -0.7333,-14.5879 -3.0352,-20.66797 -2.3324,-6.16048 -6.4745,-11.29672 -11.6972,-14.83789 v -0.002 c -11.7276,-8.01374 -26.8346,-9.25971 -62.293,-9.25976 h -0.051 z m 56.748,141.35547 c 0.015,-0.002 0.01,4.1e-4 0.029,-0.004 0.015,-0.003 0.049,-0.0128 0.088,-0.0234 -0.053,0.0131 -0.093,0.0229 -0.1172,0.0274 z M 2505.1289,446.41602 c -30.8497,0 -49.2007,0.19578 -62.8203,8.32421 -7.0018,4.17887 -11.7431,10.90391 -14,18.42774 -2.2131,7.37806 -2.5918,15.40064 -2.5918,24.90234 v 5.25977 c 6e-4,5.7696 4.7304,10.49942 10.5,10.5 h 2.4258 c -3.7745,3.7123 -6.6185,8.23831 -8.3301,13.26562 -7e-4,0.002 0,0.004 0,0.006 -4e-4,0.002 2e-4,0.0276 -0.01,0.0352 -2.8539,8.13601 -3.3007,18.1021 -3.3007,38.38867 0,5.81501 0.024,8.53259 0.5918,14.74805 0.4918,5.385 5.0497,9.54431 10.457,9.54492 h 144.1621 c 5.7696,-5.8e-4 10.4995,-4.7304 10.5,-10.5 v -10.46875 c 5.9613,10.76762 16.8584,18.22414 30.1875,20.10937 0,3.6e-4 0.01,-3.5e-4 0.01,0 10.5082,1.70617 28.085,2.29688 50.3359,2.29688 22.0676,0 39.6323,-0.59217 50.1484,-2.29688 0,-3.6e-4 0.01,3.7e-4 0.01,0 14.855,-2.10172 26.661,-11.1293 31.9824,-23.95312 5.3212,12.82399 17.1262,21.85247 31.9824,23.95312 0,2.8e-4 -2e-4,-2.7e-4 0.01,0 10.5081,1.70638 28.0857,2.29688 50.3379,2.29688 22.0651,0 39.6402,-0.59072 50.1484,-2.29688 0,-3.6e-4 0.01,3.7e-4 0.01,0 a 1.50015,1.50015 0 0 0 0.3906,-0.45898 c 0.05,0.0813 0.1582,0.25391 0.1582,0.25391 l -0.1172,0.0664 -0.029,0.0137 c 10e-5,-3e-5 -0.2208,0.084 -0.2207,0.084 1e-4,-2e-5 -0.017,0.005 -0.027,0.008 17.7133,-2.56576 31.2926,-14.87362 34.3691,-31.86133 a 1.50015,1.50015 0 0 0 0.012,-0.12109 c 1.3082,-7.32538 1.6054,-11.61932 1.6054,-38.19336 0,-8.10055 -0.1152,-11.36727 -0.1914,-16.03125 0.086,0.10989 0.1057,0.24823 0.1973,0.35547 l 20.3047,23.76562 c 3.7307,4.36556 10.3586,4.90687 14.75,1.20704 l 28.0683,-23.6543 v 74.92578 c 5e-4,5.76958 4.7303,10.49942 10.5,10.5 h 36.8203 c 5.7696,-5.8e-4 10.4994,-4.7304 10.5,-10.5 V 458.35352 c -6e-4,-5.7696 -4.7304,-10.49943 -10.5,-10.5 h -58.2207 c -2.505,4.2e-4 -4.9298,0.89767 -6.832,2.52734 l -44.2402,37.90039 c -0.6989,0.59905 -1.1305,1.36743 -1.6309,2.09375 -0.2453,-3.8017 -0.5869,-6.60333 -1.1308,-9.64844 a 1.50015,1.50015 0 0 0 -0.012,-0.11914 c -3.087,-17.04563 -16.7426,-29.38878 -34.5449,-31.89648 -10.6093,-1.68642 -28.0531,-2.29492 -50.1308,-2.29492 -22.2589,0 -39.7115,0.60763 -50.3125,2.29492 -14.8689,2.0932 -26.6865,11.12158 -32.0118,23.95312 -5.3253,-12.83057 -17.1427,-21.85888 -32.0097,-23.95312 l -0.01,-0.002 c -10.6099,-1.68557 -28.048,-2.29296 -50.1211,-2.29296 -22.2541,0 -39.703,0.6065 -50.3047,2.29296 0,3.8e-4 -0.012,0.002 -0.012,0.002 -16.5488,2.32968 -29.3994,13.21658 -33.625,28.42187 -0.3714,-2.31627 -0.7443,-4.62128 -1.4219,-6.69336 -2.3047,-7.04862 -6.8732,-12.78775 -12.6601,-16.53125 -5.0005,-3.27508 -11.2982,-5.64196 -21.0586,-6.52148 -9.6662,-0.87101 -23.7886,-0.97056 -48.9942,-0.9707 h -0.01 a 1.50015,1.50015 0 0 0 -0.041,0 z m 7.4453,47.6582 v 0 c 9.5676,0 15.4484,0.1063 19.0449,0.26562 2.5362,0.11236 3.0208,0.23935 3.5879,0.34375 0.02,0.34022 0.055,0.50266 0.055,1.03907 0,0.16611 -0.014,0.12348 -0.016,0.23437 -0.5534,0.12305 -0.9244,0.22784 -2.2597,0.42969 -2.5418,0.38418 -6.1987,0.82735 -11.0586,1.20117 a 1.50015,1.50015 0 0 0 -0.055,0.006 c -0.019,0.002 -0.039,0.005 -0.059,0.008 -16.6286,1.34861 -29.2568,2.3361 -37.8984,3.01367 -0.7159,0.0561 -1.1332,0.0896 -1.6563,0.13086 v -1.38476 c 0.052,-2.46811 0.2025,-3.31115 0.3399,-4.25781 1.0587,-0.1972 2.044,-0.41116 4.8398,-0.57422 5.3807,-0.3138 13.5198,-0.45508 25.1328,-0.45508 z m 158.4746,4.69726 v 0 c 9.9714,0.004 17.3296,0.35307 22.291,0.83204 2.4927,0.24063 4.3906,0.51891 5.668,0.77929 0.598,0.12189 1.0885,0.27164 1.4179,0.38477 0.072,0.0247 0.1095,0.04 0.1661,0.0605 0.044,0.11654 0.2801,0.80497 0.5175,2.24219 0.4596,2.78389 0.6093,8.25944 0.6094,15.67969 0,7.47056 -0.1347,12.98748 -0.5898,15.80469 a 1.50015,1.50015 0 0 0 0,0.004 c -0.2335,1.44417 -0.4664,2.13479 -0.5157,2.26563 -0.052,0.0186 -0.085,0.0308 -0.1484,0.0527 -0.3307,0.11361 -0.8223,0.2648 -1.4219,0.38672 -1.2841,0.26109 -3.1942,0.5413 -5.7051,0.78321 -5.0237,0.48401 -12.4775,0.83789 -22.6328,0.83789 -8.7807,0 -15.3276,-0.10719 -19.4707,-0.57227 -2.0474,-0.22982 -3.4427,-0.57845 -4.3105,-0.86328 -0.4339,-0.14242 -0.7378,-0.26964 -0.9199,-0.35547 -0.046,-0.0218 -0.062,-0.0292 -0.092,-0.0449 -0.04,0.002 0.065,0.18968 -0.074,-0.13672 -0.1265,-0.29607 -0.3941,-1.16773 -0.6386,-2.74609 -0.4682,-3.02276 -0.627,-8.52815 -0.627,-15.96485 0,-7.04414 0.1901,-12.25479 0.6563,-15.00781 0.2461,-1.45337 0.5033,-2.22031 0.5937,-2.42188 0.022,-0.009 0.037,-0.0156 0.062,-0.0254 0.2558,-0.1003 0.6392,-0.23699 1.1133,-0.34961 1.039,-0.24679 2.6221,-0.52086 4.7207,-0.76171 4.1991,-0.48196 10.4934,-0.84766 19.1582,-0.84766 a 1.50015,1.50015 0 0 0 0.1699,-0.0156 z m 164.4668,0 v 0 c 9.9712,0.004 17.3281,0.35307 22.289,0.83204 2.4925,0.24063 4.3908,0.51893 5.668,0.77929 0.5979,0.1219 1.0886,0.27165 1.418,0.38477 0.072,0.0247 0.1095,0.04 0.166,0.0605 0.044,0.11686 0.2803,0.80512 0.5176,2.24219 0.4597,2.78391 0.6093,8.25943 0.6093,15.67969 0,7.47059 -0.1346,12.98579 -0.5898,15.80273 a 1.50015,1.50015 0 0 0 0,0.006 c -0.2334,1.44407 -0.4662,2.13464 -0.5156,2.26563 -0.052,0.0186 -0.085,0.0308 -0.1485,0.0527 -0.3308,0.11362 -0.8222,0.2648 -1.4218,0.38672 -1.2837,0.26102 -3.1962,0.5413 -5.7071,0.78321 -5.0237,0.48401 -12.4755,0.83789 -22.6308,0.83789 -8.7805,0 -15.3298,-0.10719 -19.4727,-0.57227 -2.0474,-0.22982 -3.4409,-0.57846 -4.3086,-0.86328 -0.4339,-0.14241 -0.7379,-0.26964 -0.9199,-0.35547 -0.046,-0.0218 -0.062,-0.0292 -0.092,-0.0449 -0.037,0.005 0.066,0.192 -0.072,-0.13281 -0.1265,-0.29667 -0.3941,-1.1714 -0.6386,-2.75 -0.4682,-3.02277 -0.627,-8.52815 -0.627,-15.96485 0,-7.04466 0.1884,-12.25589 0.6543,-15.00781 0.246,-1.45331 0.5033,-2.22003 0.5938,-2.42188 0.022,-0.009 0.037,-0.0156 0.062,-0.0254 0.2557,-0.1003 0.6391,-0.23699 1.1132,-0.34961 1.0395,-0.24685 2.622,-0.52086 4.7207,-0.76171 4.1996,-0.48196 10.4954,-0.84766 19.1602,-0.84766 a 1.50015,1.50015 0 0 0 0.1699,-0.0156 z m -189.1894,0.27149 c 0.035,0.0716 0.092,0.18755 0.092,0.1875 0,-1e-5 10e-5,0.0234 0,0.0254 a 1.50015,1.50015 0 0 0 -0.1563,-0.19141 c 0.035,-0.011 0.028,-0.0105 0.064,-0.0215 z m 164.4629,0 c 0.036,0.0742 0.094,0.19146 0.094,0.19141 v 0.0215 a 1.50015,1.50015 0 0 0 -0.1562,-0.19141 c 0.034,-0.0107 0.028,-0.0108 0.062,-0.0215 z m -110.7676,0.0762 c 0.1393,0.0425 0.1934,0.0502 0.3047,0.0879 a 1.50015,1.50015 0 0 0 0.2226,1.5293 c -0.019,-0.0139 -0.043,-0.0309 -0.08,-0.0625 -0.037,-0.0316 -0.1705,-0.17247 -0.17,-0.17188 2e-4,3e-4 -0.1602,-0.23071 -0.1601,-0.23047 1e-4,2.5e-4 -0.1818,-0.55682 -0.1817,-0.55664 0,1e-4 0.02,-0.49422 0.02,-0.49414 -10e-5,2e-5 0.031,-0.07 0.045,-0.10156 z m 164.4629,0 c 0.1394,0.0425 0.1932,0.0501 0.3047,0.0879 a 1.50015,1.50015 0 0 0 0.2226,1.5293 c -0.019,-0.0139 -0.043,-0.0308 -0.08,-0.0625 -0.037,-0.0317 -0.1723,-0.17442 -0.1718,-0.17383 2e-4,3e-4 -0.1584,-0.23071 -0.1582,-0.23047 10e-5,2.4e-4 -0.1837,-0.56073 -0.1836,-0.56055 0,10e-5 0.025,-0.49617 0.025,-0.49609 -10e-5,1e-5 0.029,-0.0665 0.041,-0.0937 z m -218.0782,0.63477 c -5e-4,0.0204 0,0.0879 0,0.0879 0,-1.1e-4 -0.026,0.0699 -0.049,0.13476 a 1.50015,1.50015 0 0 0 0.051,-0.22265 z m 164.4649,0 c -6e-4,0.0206 0,0.0879 0,0.0879 0,-1.1e-4 -0.026,0.069 -0.049,0.13281 a 1.50015,1.50015 0 0 0 0.051,-0.2207 z m -164.5488,0.31836 c -0.016,0.0457 -0.039,0.10556 -0.039,0.10546 10e-5,-2.9e-4 -0.05,0.0746 -0.088,0.13477 a 1.50015,1.50015 0 0 0 0.127,-0.24023 z m 164.4629,0.002 c -0.016,0.0431 -0.037,0.10166 -0.037,0.10156 2e-4,-2.8e-4 -0.049,0.0727 -0.086,0.13086 a 1.50015,1.50015 0 0 0 0.1231,-0.23242 z m -164.6465,0.32422 c -0.017,0.0247 -0.031,0.0505 -0.041,0.0625 -0.045,0.0543 -0.078,0.0868 -0.1036,0.11133 -0.05,0.049 -0.074,0.0675 -0.092,0.082 a 1.50015,1.50015 0 0 0 0.2364,-0.25586 z m 164.4629,0.002 c -0.016,0.0235 -0.03,0.049 -0.039,0.0605 -0.045,0.0543 -0.076,0.0868 -0.1016,0.11133 -0.05,0.049 -0.076,0.0675 -0.094,0.082 a 1.50015,1.50015 0 0 0 0.2344,-0.25391 z m -223.8047,21.57617 c 0.012,9.03352 0.051,16.01953 0.1894,20.39649 -1.4522,-0.76603 -3.0291,-1.31233 -4.7773,-1.3125 h -16.5039 c 7.6849,-2.70895 13.8183,-6.70667 17.9433,-12.82032 a 1.50015,1.50015 0 0 0 0.012,-0.0156 c 0.03,-0.0437 0.049,-0.0717 0.059,-0.0859 a 1.50015,1.50015 0 0 0 0.01,-0.0176 c 1.2499,-1.90403 2.2177,-3.97778 3.0684,-6.14453 z m -156.5606,5.58594 c -1e-4,0.0585 -6e-4,0.125 0,0.1543 0.01,0.0875 -0.01,-0.12796 -0.01,-0.12696 z m 270.336,9.35352 a 1.50015,1.50015 0 0 0 -0.2149,1.52539 c -0.1116,0.0378 -0.1646,0.0452 -0.3047,0.0879 -0.033,-0.14372 -0.076,-0.33405 -0.076,-0.33399 0,2e-4 0.1153,-0.66236 0.1152,-0.66211 -10e-5,2.5e-4 0.1662,-0.29522 0.166,-0.29492 -3e-4,3.1e-4 0.084,-0.10864 0.1152,-0.14258 0.1259,-0.13575 0.1667,-0.15552 0.1993,-0.17968 z m 164.4648,0 a 1.50015,1.50015 0 0 0 -0.2148,1.52539 c -0.1117,0.0378 -0.1647,0.0452 -0.3047,0.0879 -0.033,-0.1444 -0.076,-0.33405 -0.076,-0.33399 0,2e-4 0.1153,-0.66236 0.1152,-0.66211 -10e-5,2.5e-4 0.1663,-0.29522 0.1661,-0.29492 -2e-4,3.1e-4 0.084,-0.10862 0.1152,-0.14258 0.126,-0.13582 0.1666,-0.15552 0.1992,-0.17968 z m 308.4414,4.74609 2.332,0.0859 18.545,0.86133 c -8.1892,-0.0449 -15.8018,-0.0956 -18.8418,-0.33399 -1.1826,-0.0927 -1.4923,-0.15025 -2.0098,-0.2168 -0.01,-0.10802 -0.015,-0.26091 -0.025,-0.39648 z M 3223,542.24023 a 1.50015,1.50015 0 0 0 0.096,0.0977 c -0.045,0.002 -0.05,0.006 -0.096,0.008 z m 38.5801,44.49024 c 0.015,0.0127 0.041,0.033 0.053,0.043 l -0.045,0.0566 c -0.01,-0.01 -0.034,-0.0307 -0.047,-0.043 a 1.50015,1.50015 0 0 0 0.039,-0.0566 z m 0.1875,0.1582 c 4e-4,2.8e-4 0.014,0.0117 0.014,0.0117 l -0.055,0.0606 c 0,0 -0.011,-0.0115 -0.012,-0.0117 0.025,-0.0287 0.026,-0.0308 0.053,-0.0605 z"/>
    </g>
    <g id="g38" style="display:none" transform="translate(-14.400391,0.69921921)">
        <path class="st0" d="m 198.6,405.7 c -24.8,0 -48.9,-4.9 -71.5,-14.5 C 105.2,381.9 85.6,368.7 68.7,351.8 51.8,334.9 38.6,315.3 29.3,293.4 19.7,270.7 14.8,246.7 14.8,221.9 14.8,197.1 19.7,173 29.3,150.4 38.6,128.5 51.8,108.9 68.7,92 85.6,75.1 105.2,61.9 127.1,52.6 149.8,43 173.9,38.1 198.7,38.1 c 16.1,0 32.1,2.1 47.5,6.2 l 7.3,1.9 c 6.5,1.7 10.9,7.6 10.9,14.3 v 67.3 h 137.8 c 6,0 11.4,3.6 13.6,9.1 2.3,5.5 1,11.9 -3.2,16.1 l -68.9,68.9 68.9,68.9 c 4.2,4.2 5.5,10.6 3.2,16.1 -2.3,5.5 -7.7,9.1 -13.6,9.1 H 264.3 v 67.3 c 0,6.7 -4.5,12.5 -10.9,14.3 l -7.3,1.9 c -15.4,4.1 -31.4,6.2 -47.5,6.2 z m 0,-243.7 c -33,0 -59.8,26.8 -59.8,59.8 0,33 26.8,59.8 59.8,59.8 5.6,0 11.3,-0.8 16.7,-2.4 v -115 c -5.4,-1.4 -11,-2.2 -16.7,-2.2 z" id="path23" style="display:inline"/>
        <path class="st0" d="m 522.2,309.1 c -34.8,0 -61.8,-3 -80.4,-17.9 -9.8,-7.8 -16.8,-18.6 -20.6,-32 -2.9,-10.2 -4.3,-22.5 -4.3,-38.7 0,-25.4 3.2,-53.7 26.8,-70.9 16.6,-12.1 40.2,-16.8 84.1,-16.8 38.6,0 59.6,4.1 74.9,14.7 20.8,14.4 25.6,37.2 27.6,59.7 l 0.9,10.7 c 0.2,2.2 -0.1,4.4 -0.9,6.4 v 7.3 c 0,22.9 -3.2,48.4 -27,63.6 -18.2,11.6 -44.5,13.9 -81.1,13.9 z m -11.4,-85.2 c 2.1,0.3 5.7,0.7 11.4,0.7 6.6,0 11.2,-0.2 14.4,-0.5 v -2.3 c 0,-0.9 0.1,-1.7 0.2,-2.6 -2.2,-0.1 -5.2,-0.2 -9.1,-0.2 -5.7,0 -12.2,0 -17.2,0.2 0.1,2.1 0.2,3.6 0.3,4.7 z" id="path13"/>
        <path class="st0" d="m 718.1,309 c -52.3,0 -71.5,-6.6 -85.5,-17.2 -10.3,-7.8 -17.5,-18.7 -21.3,-32.5 -2.8,-10.1 -4.1,-22.1 -4.1,-38.9 0,-26.3 1.8,-53.5 23.6,-70.7 16.4,-13 40.1,-17.9 87.4,-17.9 51.1,0 69.9,6.1 83.7,15.9 23.1,16.4 26.2,42.8 26.2,69 0,28.3 -1.7,55.2 -21.7,72.8 C 790.3,303.7 766.6,309 719,309 Z m -15.4,-84.8 c 3,0.3 7.7,0.5 14.9,0.5 h 1.3 c 7,0 11.5,-0.2 14.3,-0.5 0.1,-1.2 0.1,-2.7 0.1,-4.6 0,-1.1 0,-2.1 0,-2.9 -5.4,-0.3 -12.9,-0.3 -18.1,-0.3 -5.2,0 -9.4,0.1 -12.5,0.3 0,0.9 0,1.8 0,3 0,1.7 0,3.2 0,4.5 z m -5.6,-6.9 z" id="path11"/>
        <path class="st0" d="m 822.4,304.4 c -8.2,0 -14.8,-6.6 -14.8,-14.8 V 147.5 c 0,-8.2 6.6,-14.8 14.8,-14.8 h 61.5 c 2.2,0 4.3,0.5 6.3,1.4 8.9,-2.9 19.4,-4.2 31.9,-4.2 23.9,0 42.2,4.5 56.3,14.1 1.2,-0.8 2.4,-1.6 3.6,-2.3 12.9,-7.8 30,-11.8 50.7,-11.8 26.4,0 47.4,6.2 62.4,18.4 16.6,13.5 25.3,33.9 25.3,59.1 v 82.2 c 0,8.2 -6.6,14.8 -14.8,14.8 h -64.1 c -8.2,0 -14.8,-6.6 -14.8,-14.8 v -73.2 c -1.3,-0.1 -3,-0.2 -5.1,-0.2 -5.4,0 -8.7,0.4 -10.7,0.8 v 72.5 c 0,8.2 -6.6,14.8 -14.8,14.8 H 931 c -8.2,0 -14.8,-6.6 -14.8,-14.8 v -66.4 c 0,-3.1 -0.2,-5.3 -0.3,-6.8 -1.1,-0.1 -2.7,-0.2 -4.8,-0.2 -4.8,0 -7.9,0.3 -9.8,0.6 v 72.9 c 0,8.2 -6.6,14.8 -14.8,14.8 z" id="path9"/>
        <path class="st0" d="m 1122.4,304.4 c -8.2,0 -14.8,-6.6 -14.8,-14.8 V 147.5 c 0,-8.2 6.6,-14.8 14.8,-14.8 h 61.4 c 2.3,0 4.4,0.5 6.3,1.4 8.7,-2.9 19,-4.3 31.2,-4.3 20.7,0 37.1,3.4 50.2,10.5 2.1,1.1 4,2.3 5.9,3.6 13.2,-9.4 31.2,-14.1 54.4,-14.1 26.5,0 47.5,6.2 62.4,18.4 16.5,13.5 25.3,33.9 25.3,59.1 v 82.2 c 0,8.2 -6.6,14.8 -14.8,14.8 h -64.1 c -8.2,0 -14.8,-6.6 -14.8,-14.8 v -73 c -1.4,-0.2 -3.4,-0.3 -6.1,-0.3 -4.8,0 -7.9,0.3 -9.8,0.7 v 72.7 c 0,8.2 -6.6,14.8 -14.8,14.8 H 1230 c -8.2,0 -14.8,-6.6 -14.8,-14.8 v -66.4 c 0,-3.1 -0.1,-5.2 -0.3,-6.8 -1.2,-0.1 -2.8,-0.2 -4.8,-0.2 -4.3,0 -7.1,0.3 -8.8,0.6 v 72.8 c 0,8.2 -6.6,14.8 -14.8,14.8 z" id="path7"/>
        <path class="st0" d="m 1510.1,309 c -52.2,0 -71.4,-6.5 -85.4,-17 -10.3,-7.7 -17.6,-18.6 -21.4,-32.3 -2.8,-10 -4.1,-21.9 -4.1,-38.5 0,-26.3 1.8,-53.4 23.3,-71 9.4,-7.6 21.3,-12.5 37.4,-15.3 12.6,-2.2 28.6,-3.2 50.2,-3.2 51.1,0 70.1,6 84,15.8 10.7,7.4 18.2,17.9 22.3,31.2 3.2,10.1 4.6,21.8 4.6,37.9 0,28.3 -1.7,55.2 -22.3,73 -18.7,16.1 -47.4,19.4 -87.8,19.4 z m -16.2,-84.9 c 3.1,0.3 8,0.5 15.8,0.5 h 1.4 c 7,0 11.5,-0.2 14.3,-0.5 0.1,-1.2 0.1,-2.7 0.1,-4.6 0,-1.1 0,-2.1 0,-2.9 -5.4,-0.3 -12.9,-0.3 -18.1,-0.3 -5.7,0 -10.2,0.1 -13.5,0.3 0,0.8 0,1.8 0,2.9 -0.1,1.9 -0.1,3.4 0,4.6 z" id="path15"/>
        <path class="st0" d="m 1697.6,307.2 c -36.6,0 -58.9,-5.7 -74.3,-19.1 -20.9,-18.1 -23.6,-46.2 -23.6,-68.6 0,-24.8 2.5,-50.2 20.4,-67.7 15,-14.7 37.4,-20.9 74.8,-20.9 12.7,0 23.2,0.8 32,2.6 v -38 c 0,-8.2 6.6,-14.8 14.8,-14.8 h 66 c 8.2,0 14.8,6.6 14.8,14.8 v 194.1 c 0,8.2 -6.6,14.8 -14.8,14.8 h -64.1 c -2.7,0 -5.3,-0.7 -7.5,-2 -10.5,3.3 -23.1,4.8 -38.5,4.8 z m -2.4,-85.8 c 5.9,0.5 14.9,0.5 20,0.5 5.1,0 9.3,-0.1 12.5,-0.2 0.1,-2.2 0.1,-4.4 0.1,-6.1 -2.1,-0.1 -4.9,-0.3 -8.8,-0.3 -6.1,0 -17.4,0 -23.6,0.7 -0.1,1.1 -0.1,2.5 -0.1,4.4 -0.1,0.4 -0.1,0.7 -0.1,1 z" id="path17"/>
        <path class="st0" d="m 1911.2,309 c -38.4,0 -66,-2.9 -84.7,-17.2 -10.2,-7.8 -17.3,-18.7 -21.1,-32.5 -2.8,-10.1 -4.1,-22.1 -4.1,-38.9 0,-26.3 1.8,-53.4 23.3,-70.7 16.3,-13.1 39.8,-17.9 86.7,-17.9 51.1,0 69.9,6.1 83.7,15.9 23.1,16.4 26.2,42.8 26.2,69 0,28.3 -1.7,55.2 -21.7,72.8 -16.2,14.2 -39.9,19.5 -87.4,19.5 -0.1,0 -0.9,0 -0.9,0 z M 1895,224.1 c 3.1,0.3 8,0.5 15.8,0.5 h 1.4 c 7,0 11.5,-0.2 14.3,-0.5 0.1,-1.2 0.1,-2.7 0.1,-4.6 0,-1.1 0,-2.1 0,-2.9 -5.4,-0.3 -12.9,-0.3 -18.1,-0.3 -5.7,0 -10.2,0.1 -13.5,0.3 0,0.8 0,1.8 0,2.9 -0.1,1.9 -0.1,3.4 0,4.6 z" id="path21"/>
        <path class="st0" d="m 2249.7,309.1 c -35.5,-0.6 -56.3,-5.9 -71.9,-18.3 -14.8,-11.9 -23,-29.3 -25.1,-54.1 h -41 c -7.8,0 -14.3,-6.1 -14.7,-13.9 l -0.4,-7.4 c -1.8,0 -3,0.1 -3.9,0.3 0,0.1 0,74.1 0,74.1 0,8.2 -6.6,14.8 -14.8,14.8 h -64.1 c -8.2,0 -14.8,-6.6 -14.8,-14.8 V 147.5 c 0,-8.2 6.6,-14.8 14.8,-14.8 h 62.3 c 2,0 3.8,0.4 5.6,1.1 8.4,-2.7 18.4,-3.9 31.1,-3.9 39,0 53.3,12.2 61.3,22.8 0.1,0.2 0.2,0.3 0.3,0.5 0.9,-0.8 1.9,-1.7 2.9,-2.4 18.7,-14.9 46,-18 81.3,-18 42,0 69.7,3.6 87,22 16.5,17.5 17.3,41.3 18.3,74.2 l 0.3,11.1 c 0,1.4 -0.1,2.7 -0.4,4 -0.8,35.4 -20.8,50.5 -37.6,57 -19.3,7.5 -44.8,8.1 -76,8.1 -0.1,-0.1 -0.4,-0.1 -0.5,-0.1 z" id="path19"/>
        <path class="st0" d="m 2427.5,429 c -8.2,0 -14.8,-6.6 -14.8,-14.8 V 29.5 c 0,-8.2 6.6,-14.8 14.8,-14.8 h 259.9 c 20.7,0 40.2,0 60.8,0.6 40.8,0.7 86.9,5.7 119.5,37.7 32.5,31.9 32.5,92.5 32.5,128.7 0,17.2 -0.5,39.9 -5,61.5 -5.7,27.3 -16.3,47.8 -32.4,62.7 -32.6,30 -89.8,34 -141.5,34 -6.5,0 -12.6,-0.1 -18.5,-0.1 -5.1,0 -9.9,-0.1 -14.2,-0.1 H 2573 v 74.4 c 0,8.2 -6.6,14.8 -14.8,14.8 h -130.7 z m 286.3,-229.8 c 16.3,0 21.9,-1.3 23.7,-2.1 0.7,-1.8 2,-7.4 2,-23.2 0,-10.2 -1.1,-14.6 -1.7,-16.1 -4.5,-1.6 -18.2,-1.8 -23.7,-1.9 -4.7,0 -9.4,-0.2 -13.9,-0.3 -4.3,-0.1 -8.7,-0.3 -12.7,-0.3 H 2573 v 43.9 z" id="path1"/>
        <path class="st0" d="m 2896.6,429 c -8.2,0 -14.8,-6.6 -14.8,-14.8 V 29.5 c 0,-8.2 6.6,-14.8 14.8,-14.8 h 423.5 c 8.2,0 14.8,6.6 14.8,14.8 v 105.6 c 0,8.2 -6.6,14.8 -14.8,14.8 h -279.7 v 3.9 h 264.9 c 8.2,0 14.8,6.6 14.8,14.8 v 99.5 c 0,8.2 -6.6,14.8 -14.8,14.8 h -264.9 v 9.4 h 281.8 c 8.2,0 14.8,6.6 14.8,14.8 v 107.1 c 0,8.2 -6.6,14.8 -14.8,14.8 z" id="path3"/>
        <path class="st0" d="m 3510.7,429 c -8.2,0 -14.8,-6.6 -14.8,-14.8 V 156.9 h -147.8 c -8.2,0 -14.8,-6.6 -14.8,-14.8 V 29.5 c 0,-8.2 6.6,-14.8 14.8,-14.8 h 461.3 c 8.2,0 14.8,6.6 14.8,14.8 v 112.6 c 0,8.2 -6.6,14.8 -14.8,14.8 h -147.8 v 257.3 c 0,8.2 -6.6,14.8 -14.8,14.8 z" id="path5"/>
        <path id="path43" style="fill:#ffffff;stroke-linecap:round;stroke-linejoin:round" d="m 3204.1777,449.05469 c -29.1468,3e-5 -45.4051,0.50332 -54.2812,2.33008 a 7.50075,7.50075 0 0 0 -0.076,0.0156 c -9.5936,2.07828 -17.7472,6.78703 -22.6289,14.55664 -4.8817,7.76962 -6.498,17.54312 -6.498,29.76563 0,14.10436 2.2316,25.31709 10.3378,32.76172 1.361,1.24999 2.8558,2.29662 4.4122,3.25781 h -8.3301 a 7.50075,7.50075 0 0 0 -7.5,7.5 v 5.79101 c 0,8.74964 0.6219,15.52105 2.8887,21.46875 2.2646,5.94223 6.5088,10.64692 11.6484,13.89063 11.2472,7.15234 27.0276,8.22461 64.7695,8.22461 36.2092,0 51.2283,-0.36986 61.1875,-4.08985 a 7.50075,7.50075 0 0 0 0.027,-0.01 c 7.6291,-2.88443 13.9569,-8.25318 17.5742,-15.6543 0.7886,-1.61354 1.4188,-3.3341 1.9941,-5.09961 2.1104,6.59021 5.9656,11.91006 10.9395,15.70703 a 7.50075,7.50075 0 0 0 0.07,0.0527 c 9.9808,7.43626 23.6265,9.4707 48.9082,9.4707 23.2593,0 38.405,-1.10978 49.6523,-6.6543 5.6237,-2.77226 10.1482,-6.97654 13.0118,-12.14648 1.0708,-1.93337 1.8678,-3.99281 2.5507,-6.11524 v 15.22266 a 7.50075,7.50075 0 0 0 7.5,7.5 h 32.0918 a 7.50075,7.50075 0 0 0 7.5,-7.5 v -35.53516 c 0,-6.44192 0.2576,-10.59732 0.7168,-13.11328 0.448,-2.45472 0.8553,-3.2361 1.75,-4.45507 1.0472,-1.31252 4.6523,-3.21875 10.3535,-3.21875 5.9627,0 7.9835,1.0149 8.209,1.23046 0.2256,0.21557 1.1504,1.77545 1.1504,7.40821 a 7.50075,7.50075 0 0 0 7.5,7.5 h 30.2754 a 7.50075,7.50075 0 0 0 1.5801,-0.6543 v 40.83789 a 7.50075,7.50075 0 0 0 7.5,7.5 h 32.0918 a 7.50075,7.50075 0 0 0 7.5,-7.5 v -15.62109 c 2.1023,6.63155 5.976,11.98102 10.9824,15.79492 a 7.50075,7.50075 0 0 0 0.064,0.0488 c 9.9808,7.43626 23.6264,9.4707 48.9082,9.4707 23.2508,0 38.3902,-1.1102 49.6367,-6.6543 5.6233,-2.77205 10.1481,-6.97401 13.0137,-12.14257 0.8101,-1.46109 1.4706,-2.99132 2.0527,-4.56055 1.6275,4.90485 4.1383,9.15898 7.8516,12.50781 4.8566,4.48516 11.2698,7.44684 19.6582,8.93359 8.4198,1.49235 19.1626,1.89844 34.8984,1.89844 25.1266,0 41.0406,-0.98159 52.5762,-6.63281 5.7678,-2.82561 10.3481,-7.28416 12.9121,-12.74219 2.564,-5.45803 3.3008,-11.50163 3.3008,-18.21094 0,-10.77652 -3.0717,-20.36254 -10.6016,-26.2871 a 7.50075,7.50075 0 0 0 6.043,-7.78321 c -0.3818,-5.48084 -0.9779,-9.83373 -2.459,-13.84179 -1.4703,-3.97913 -4.0764,-7.44201 -7.166,-9.9336 -4.7239,-3.98075 -10.8516,-6.5498 -18.8418,-7.89844 -8.0505,-1.35882 -18.3028,-1.77539 -33.0547,-1.77539 -22.7303,0 -37.5096,0.72583 -47.1211,4.48047 -6.3001,2.38466 -11.654,6.52384 -14.9902,12.15039 -1.3361,2.25343 -2.2696,4.72322 -3.0059,7.30274 -2.1023,-5.75082 -5.3566,-10.61195 -9.6777,-14.22266 a 7.50075,7.50075 0 0 0 -0.074,-0.0625 c -4.8612,-3.95304 -10.9838,-6.63203 -18.9609,-8.02539 -7.9771,-1.39336 -18.0567,-1.8125 -32.7168,-1.8125 -28.253,0 -41.0538,1.86044 -51.2656,8.96875 a 7.50075,7.50075 0 0 0 -0.016,0.01 c -5.4694,3.82548 -9.7436,9.35377 -11.9493,16.33203 v -15.44531 a 7.50075,7.50075 0 0 0 -2.7558,-5.53516 7.50075,7.50075 0 0 0 2.7558,-5.5332 v -24.125 a 7.50075,7.50075 0 0 0 -7.5,-7.5 h -32.0918 a 7.50075,7.50075 0 0 0 -7.5,7.5 v 24.125 a 7.50075,7.50075 0 0 0 2.7559,5.5332 7.50075,7.50075 0 0 0 -2.7559,5.53516 v 5.05859 c -1.114,-1.78485 -2.3646,-3.47091 -3.8808,-4.98047 -7.533,-7.50022 -18.5253,-9.75391 -32.3262,-9.75391 -9.5578,0 -17.3848,1.05038 -24.1055,4.11914 -1.5242,0.69597 -2.9456,1.53753 -4.3105,2.44727 a 7.50075,7.50075 0 0 0 -6.2109,-4.39062 h -30.293 a 7.50075,7.50075 0 0 0 -7.5,7.5 V 509.125 c -2.0599,-6.34799 -5.5165,-11.65467 -10.1699,-15.54297 a 7.50075,7.50075 0 0 0 -0.074,-0.0625 c -4.8632,-3.95474 -10.9899,-6.63223 -18.9707,-8.02539 -7.9807,-1.39316 -18.0644,-1.8125 -32.7246,-1.8125 -28.2529,0 -41.0402,1.86315 -51.248,8.96875 a 7.50075,7.50075 0 0 0 -0.012,0.006 c -5.5641,3.88442 -9.9172,9.50844 -12.0938,16.64453 -0.6482,2.12496 -1.1155,4.42688 -1.5039,6.83984 -2.4338,-4.72082 -5.9688,-8.64701 -10.2871,-11.46679 a 7.50075,7.50075 0 0 0 -0.1094,-0.0684 c -0.3829,-0.24069 -0.8185,-0.43612 -1.2148,-0.66406 h 4.1113 a 7.50075,7.50075 0 0 0 7.4805,-6.95703 c 0.1994,-2.7501 0.1914,-5.44251 0.1914,-6.16211 0,-7.66724 -0.7238,-14.01626 -2.8399,-19.60547 -2.113,-5.58106 -5.862,-10.22508 -10.5839,-13.42383 -10.8493,-7.41535 -25.2171,-8.73823 -60.6055,-8.73828 z m -699.0488,0.36133 c -30.828,0 -48.686,0.38138 -61.2812,7.89843 -6.2976,3.75853 -10.5973,9.82648 -12.6641,16.7168 -2.0668,6.89032 -2.4668,14.62096 -2.4668,24.03906 v 5.25977 a 7.50075,7.50075 0 0 0 7.5,7.5 h 11.4473 c -0.5531,0.29113 -1.1566,0.52188 -1.6895,0.83984 -6.2312,3.71807 -10.5226,9.6208 -12.8301,16.41211 -2.6417,7.4997 -3.1425,17.16535 -3.1425,37.44336 0,5.8083 0.018,8.32818 0.58,14.47461 a 7.50075,7.50075 0 0 0 7.4688,6.81836 h 144.1621 a 7.50075,7.50075 0 0 0 7.5,-7.5 v -27.75781 a 7.50075,7.50075 0 0 0 -7.5,-7.5 h -63.4297 c 7.0471,-0.46606 9.289,-0.66173 19.6543,-1.32617 l -0.08,0.004 c 21.2987,-1.14063 35.4377,-5.2534 42.8086,-16.17773 a 7.50075,7.50075 0 0 0 0.051,-0.0781 c 4.8661,-7.40877 6.4746,-16.48251 6.4746,-31.30859 0,-9.94171 -0.5633,-17.39404 -2.6582,-23.80078 -2.0927,-6.40006 -6.228,-11.58182 -11.4531,-14.95703 -4.6038,-3.01529 -10.277,-5.19339 -19.6836,-6.04102 -9.4304,-0.84977 -23.5369,-0.95898 -48.7676,-0.95898 z m 168.1152,0 c -22.2167,0 -39.6675,0.63237 -49.8632,2.25781 -16.6967,2.33767 -29.1831,13.66986 -32.0469,29.45898 -1.3188,7.16691 -1.5781,11.47991 -1.5781,35.97266 0,28.68979 0.099,32.03004 1.5859,39.45898 2.8725,15.77269 15.348,27.09275 32.0312,29.43164 10.0829,1.63899 27.6657,2.25977 49.8711,2.25977 22.0214,0 39.591,-0.62183 49.6836,-2.25977 16.6952,-2.34131 29.1793,-13.67563 32.0391,-29.46679 a 7.50075,7.50075 0 0 0 0,-0.002 7.50075,7.50075 0 0 0 0,-0.002 7.50075,7.50075 0 0 0 0,-0.006 7.50075,7.50075 0 0 0 0,-0.002 7.50075,7.50075 0 0 0 0,-0.002 c 0.1617,-0.903 0.2651,-1.74331 0.3965,-2.58984 0.144,0.85291 0.2531,1.69712 0.4375,2.61914 2.8655,15.78335 15.3447,27.11127 32.0351,29.45117 10.0829,1.63899 27.6657,2.25977 49.8711,2.25977 22.0189,0 39.6007,-0.62078 49.6836,-2.25977 16.6961,-2.3407 29.1793,-13.67503 32.0391,-29.46679 a 7.50075,7.50075 0 0 0 0,-0.002 7.50075,7.50075 0 0 0 0,-0.002 7.50075,7.50075 0 0 0 0,-0.006 7.50075,7.50075 0 0 0 0,-0.002 7.50075,7.50075 0 0 0 0,-0.002 c 1.3041,-7.2781 1.5742,-11.08754 1.5742,-37.76562 0,-26.5071 -0.2701,-30.31564 -1.5742,-37.59375 a 7.50075,7.50075 0 0 0 0,-0.002 7.50075,7.50075 0 0 0 0,-0.002 7.50075,7.50075 0 0 0 0,-0.006 7.50075,7.50075 0 0 0 0,-0.002 7.50075,7.50075 0 0 0 0,-0.002 c -2.8602,-15.79372 -15.3456,-27.12998 -32.0449,-29.46875 -10.2059,-1.62451 -27.6453,-2.25781 -49.6778,-2.25781 -22.2167,0 -39.6676,0.63237 -49.8632,2.25781 -16.6967,2.33767 -29.1812,13.66986 -32.045,29.45898 -0.1814,0.9859 -0.2101,2.22228 -0.3535,3.16016 -0.1519,-1.02612 -0.2825,-2.04272 -0.4785,-3.13672 a 7.50075,7.50075 0 0 0 0,-0.002 7.50075,7.50075 0 0 0 0,-0.002 7.50075,7.50075 0 0 0 0,-0.006 7.50075,7.50075 0 0 0 0,-0.002 7.50075,7.50075 0 0 0 0,-0.002 c -2.8602,-15.79372 -15.3476,-27.12998 -32.0469,-29.46875 -10.2059,-1.62451 -27.6432,-2.25781 -49.6758,-2.25781 z m 302.9903,1.4375 a 7.50075,7.50075 0 0 0 -4.8789,1.80468 l -44.2403,37.90039 a 7.50075,7.50075 0 0 0 -0.8222,10.56641 l 20.3047,23.76562 a 7.50075,7.50075 0 0 0 10.5351,0.86329 l 33.002,-27.81055 v 81.375 a 7.50075,7.50075 0 0 0 7.5,7.5 h 36.8203 a 7.50075,7.50075 0 0 0 7.5,-7.5 V 458.35352 a 7.50075,7.50075 0 0 0 -7.5,-7.5 z m -463.6524,40.2207 c 19.1794,0 23.6317,0.42366 24.9961,0.88086 a 7.50075,7.50075 0 0 0 0.3672,0.11133 c 0.03,0.008 4e-4,-0.007 0.025,0 -0.019,0.0684 0.2988,0.91331 0.2988,3.65625 0,1.75667 -0.1132,2.32755 -0.1699,2.73632 -1.0241,0.31162 -6.0808,1.36321 -15.9336,2.1211 a 7.50075,7.50075 0 0 0 -0.029,0.004 c -16.6785,1.35278 -29.3188,2.34461 -37.9765,3.02344 -2.2363,0.17534 -3.467,0.27394 -5.1739,0.4082 a 7.50075,7.50075 0 0 0 0.2832,-0.68554 v -4.03125 c 0.081,-3.82712 0.3577,-5.84277 0.5586,-6.87695 1.0915,-0.23528 3.2732,-0.64535 7.4453,-0.88868 5.5032,-0.32095 13.6717,-0.45898 25.3086,-0.45898 z m 685.0703,0.7207 c 13.0214,0 20.652,0.10246 24.9981,0.39063 3.2444,0.21512 4.0143,0.40316 4.4297,0.57422 0.064,0.36493 0.2816,1.36118 0.4355,4.10351 a 7.50075,7.50075 0 0 0 0.1211,0.25977 c -5.6499,-0.25325 -11.4101,-0.49464 -19.2461,-0.74024 a 7.50075,7.50075 0 0 0 -0.023,-0.002 c -12.7556,-0.35906 -21.6059,-0.67546 -27.5547,-1.00781 -5.8983,-0.32954 -9.202,-0.85194 -9.3516,-0.88672 -0.019,-0.19066 -0.045,-0.24005 -0.045,-0.58008 0,-0.50677 0.037,-0.65898 0.064,-0.96289 2.558,-0.6502 10.949,-1.14844 26.1718,-1.14844 z m -526.7324,3.97461 c 20.2375,0.002 29.8586,1.41009 31.4082,2.55274 0.7754,0.57176 1.2075,0.99814 1.7461,4.25976 0.5386,3.26162 0.6485,8.71564 0.6485,16.16797 0,7.49887 -0.097,12.9919 -0.6289,16.2832 -0.5316,3.2913 -0.9663,3.72498 -1.7325,4.29297 -1.5323,1.13598 -11.2025,2.5586 -31.6523,2.5586 -8.8028,0 -15.3756,-0.0944 -19.8067,-0.5918 -4.431,-0.4974 -6.2949,-1.39815 -6.9101,-1.92188 -0.6152,-0.52372 -1.2214,-1.30634 -1.7539,-4.74414 -0.5325,-3.43779 -0.6621,-8.9525 -0.6621,-16.42578 0,-7.09083 0.1576,-12.30925 0.6992,-15.50781 0.5415,-3.19856 1.0783,-3.83171 1.7383,-4.36719 1.3198,-1.07096 9.3677,-2.53906 26.8652,-2.53906 a 7.50075,7.50075 0 0 0 0.041,-0.0176 z m 164.4668,0 c 20.2374,0.002 29.8567,1.41008 31.4063,2.55274 0.7754,0.57177 1.2075,0.99815 1.7461,4.25976 0.5385,3.26161 0.6484,8.71564 0.6484,16.16797 0,7.49887 -0.097,12.99191 -0.6289,16.2832 -0.5315,3.2913 -0.9663,3.72497 -1.7324,4.29297 -1.5324,1.136 -11.2026,2.5586 -31.6524,2.5586 -8.8028,0 -15.3756,-0.0944 -19.8066,-0.5918 -4.4311,-0.4974 -6.295,-1.39816 -6.9102,-1.92188 -0.6152,-0.52371 -1.2194,-1.30634 -1.7519,-4.74414 -0.5325,-3.4378 -0.6621,-8.9525 -0.6621,-16.42578 0,-7.09083 0.1557,-12.30925 0.6972,-15.50781 0.5416,-3.19856 1.0784,-3.83171 1.7383,-4.36719 1.3199,-1.07096 9.3697,-2.53906 26.8672,-2.53906 a 7.50075,7.50075 0 0 0 0.041,-0.0176 z m 334.6563,42.76563 5.8984,0.21679 19.5469,0.90625 a 7.50075,7.50075 0 0 0 0.068,0.002 l 29.0079,1.08007 a 7.50075,7.50075 0 0 0 0.1582,0.004 c 4.364,0.0698 6.3626,0.54679 7.0488,0.67774 0.044,0.3012 0.084,0.30908 0.084,1.07617 0,1.7467 -0.015,1.76109 -0.037,2.18164 -2.9158,0.63913 -12.8641,1.02539 -31.9903,1.02539 -12.9337,0 -20.3884,-0.11221 -24.5371,-0.4375 -3.7372,-0.29303 -4.0116,-0.46202 -4.6035,-0.84766 -0.099,-0.42744 -0.3516,-1.99779 -0.3516,-5.17773 a 7.50075,7.50075 0 0 0 -0.2929,-0.70703 z m 518.6113,0.8789 c 1.1363,1.80053 2.3582,3.53188 3.9121,5.00782 l -2.0781,-0.002 a 7.50075,7.50075 0 0 0 -2.7481,1.1543 7.50075,7.50075 0 0 0 0.8282,-1.81641 c 0.088,-1.866 0.063,-2.74085 0.086,-4.34375 z m -364.0449,11.49219 h 35.6777 c -0.1915,0.9177 -0.4048,1.43437 -0.3183,1.3125 0.1005,-0.14183 0.4642,-0.24856 -0.3438,0.041 -1.6161,0.57919 -7.4005,1.24218 -17.4688,1.24218 -11.034,0 -16.5989,-1.72374 -17.248,-2.16015 -0.2674,-0.17724 -0.2906,-0.31643 -0.2988,-0.43555 z m 280.8886,0 h 35.6602 c -0.1921,0.92152 -0.4068,1.44065 -0.3203,1.31836 0.1006,-0.14223 0.4705,-0.25156 -0.334,0.0371 -1.6091,0.57736 -7.3908,1.24023 -17.459,1.24023 -11.0456,0 -16.6477,-1.74979 -17.2441,-2.15429 -0.2788,-0.18873 -0.2942,-0.33082 -0.3028,-0.44141 z"/>
    </g>
    <g id="g54" style="display:none;fill:#ffffff;stroke:#ffffff;stroke-width:12;stroke-linecap:square;stroke-dasharray:none;stroke-opacity:1" transform="translate(-14.400391,0.69921921)">
        <path d="m 239.8,295.5 c -12.1,6.9 -26.2,10.8 -41.2,10.8 -46.5,0 -84.4,-37.9 -84.4,-84.4 0,-46.5 37.9,-84.4 84.4,-84.4 15,0 29,3.9 41.2,10.8 V 68 c -13.1,-3.5 -26.9,-5.4 -41.1,-5.4 -88,0 -159.3,71.3 -159.3,159.2 0,87.9 71.3,159.2 159.2,159.2 14.2,0 28,-1.9 41.1,-5.4 z" id="path47" style="fill:#ffffff;fill-opacity:1;stroke:#ffffff;stroke-width:12;stroke-linecap:square;stroke-dasharray:none;stroke-opacity:1"/>
        <path id="path48" style="fill:#ffffff;fill-opacity:1;stroke:#ffffff;stroke-width:12;stroke-linecap:square;stroke-dasharray:none;stroke-opacity:1" d="M 239.80078,152.30078 V 216 H 285.5 v 0.0996 h 29.30078 L 378.5,152.30078 H 306.59961 285.5 Z"/>
        <path id="path49" style="fill:#ffffff;fill-opacity:1;stroke:#ffffff;stroke-width:12;stroke-linecap:square;stroke-dasharray:none;stroke-opacity:1" d="m 239.80078,227.59961 v 63.70117 H 285.5 v 0.0996 h 93 L 314.80078,227.59961 H 306.59961 285.5 Z"/>
        <path id="path50" d="m 2066.3,157.3 h -42.7 v 122.5 h 44.6 v -64 c 0,-16.7 10.2,-25.1 28.8,-25.1 18.5,0 23.2,5.6 24.1,21.3 h 41.8 c 0,-41.8 -5.6,-57.6 -50.1,-57.6 -26.9,0 -36.2,5.6 -46.4,26 v -23.1 z m 205.1,98.4 c -42.7,0 -49.2,-3.7 -49.2,-25.1 h 117 c -1.9,-59.3 -1.9,-73.3 -80.8,-73.3 -66.9,0 -81.8,12 -81.8,65 0,49.3 19.5,61.3 73.3,62.2 60.3,0 89.1,-2.8 89.1,-42.7 h -43.7 c -1.6,9.2 -5.3,13.9 -23.9,13.9 z m -50.1,-51.1 c 1.9,-13 5.6,-17.6 35.3,-17.6 32.5,0 37.1,1.9 39,17.6 z m -1660.1,4.7 h 44.6 c -3.7,-41.8 -15.8,-52 -77.9,-52 -70.6,0 -86.4,11.2 -86.4,63.2 0,52 14.9,64 80.8,64 69.6,0 83.5,-9.3 83.5,-53 h -44.6 c 0,12 -4.6,17.6 -39,17.6 -29.7,0 -36.2,-7.4 -36.2,-31.5 0,-23.2 6.5,-23.2 41.8,-23.2 25.9,0 30.5,2.9 33.4,14.9 z m 1035.2,7.4 c 0,-50.1 -14.9,-60.3 -86.4,-60.3 -77.1,0 -86.4,13 -86.4,64.9 0,52 13,63.2 86.4,63.2 78.1,0 86.4,-13 86.4,-67.8 z m -127.2,2.8 c 0,-25.1 5.6,-27.8 38.1,-27.8 36.2,0 42.7,0.9 42.7,27.8 0,25.1 -4.6,29.7 -39,29.7 -37.2,0.1 -41.8,-3.6 -41.8,-29.7 z m 527.4,-2.8 c 0,-50.1 -13.9,-60.3 -85.4,-60.3 -76.2,0 -85.4,12 -85.4,64 0,52.9 13,64 85.4,64 77.9,0.1 85.4,-12.9 85.4,-67.7 z m -126.3,2.8 c 0,-25.1 5.6,-27.8 38.1,-27.8 36.2,0 42.7,0.9 42.7,27.8 0,25.1 -4.6,29.7 -39,29.7 -37.2,0.1 -41.8,-3.6 -41.8,-29.7 z M 803.5,216.7 c 0,-50.1 -13.9,-60.3 -85.4,-60.3 -77.1,0 -86.4,12 -86.4,64 0,52.9 13,64 86.4,64 78,0.1 85.4,-12.9 85.4,-67.7 z m -125.4,2.8 c 0,-25.1 5.6,-27.8 37.1,-27.8 36.2,0 42.7,0.9 42.7,27.8 0,25.1 -4.7,29.7 -39,29.7 -36.1,0.1 -40.8,-3.6 -40.8,-29.7 z M 1751.5,105.3 v 71.5 c -10.2,-13.9 -19.5,-21.3 -56.6,-21.3 -59.4,0 -70.6,15.8 -70.6,64 0,49.3 15.8,63.2 73.3,63.2 36.2,0 47.4,-9.3 55.7,-25.1 v 22.2 h 44.6 V 105.3 Z m -32.6,85.4 c 25.1,0 33.4,3.7 33.4,23.2 0,29.8 -1.9,32.5 -37.1,32.5 -35.3,0 -44.6,-1 -44.6,-26 0.1,-28.7 11.2,-29.7 48.3,-29.7 z M 874,157.3 h -41.8 v 122.5 h 44.6 v -63.2 c 0,-18.5 9.3,-25.1 34.4,-25.1 23.2,0 29.7,8.3 29.7,31.5 v 56.6 h 45.5 v -64.9 c 0,-17.6 13.9,-23.2 35.3,-23.2 20.5,0 29.7,5.6 29.7,23.2 v 64.9 h 44.6 v -72.4 c 0,-36.2 -22.3,-52.9 -63.2,-52.9 -35.3,0 -48.3,13 -53,26.9 -9.3,-15.8 -22.2,-26.9 -57.6,-26.9 -33.4,0 -42.7,11.2 -48.3,31.5 z m 300,0 h -41.8 v 122.5 h 44.6 v -63.2 c 0,-18.5 11.2,-25.1 33.4,-25.1 23.2,0 29.7,7.4 29.7,31.5 v 56.6 h 45.5 v -64.9 c 0,-17.6 13,-23.2 34.4,-23.2 20.5,0 30.7,6.5 30.7,23.2 v 64.9 h 44.6 v -72.4 c 0,-36.2 -22.2,-52.9 -63.2,-52.9 -35.3,0 -47.4,12 -52.9,26.9 -9.3,-15.8 -22.3,-26.9 -57.6,-26.9 -32.5,0 -40.8,11.2 -47.3,31.5 v -28.5 z" style="display:inline;fill:#ffffff;fill-opacity:1;stroke:#ffffff;stroke-width:12;stroke-linecap:square;stroke-dasharray:none;stroke-opacity:1"/>
        <g id="g53" style="fill:#ffffff;fill-opacity:1;stroke:#ffffff;stroke-width:12;stroke-linecap:square;stroke-dasharray:none;stroke-opacity:1">
            <path d="m 2846.3,287.9 c -34.5,31.7 -113.9,27.3 -157.7,27.3 h -140.1 v 89.2 H 2437.4 V 39.3 h 250.1 c 20.3,0 40,0 60.2,0.6 35.5,0.6 76.1,4.4 102.9,30.7 25.2,24.7 25.2,78.8 25.2,111.1 0,34.4 -2.2,80.9 -29.5,106.2 z M 2714.4,131.3 c -8.7,0 -18,-0.6 -26.8,-0.6 h -139.1 v 93 h 165.3 c 42.7,0 50.3,-7.6 50.3,-49.8 0,-39.9 -14.2,-42 -49.7,-42.6 z" id="path51" style="fill:#ffffff;fill-opacity:1;stroke:#ffffff;stroke-width:12;stroke-linecap:square;stroke-dasharray:none;stroke-opacity:1"/>
            <path d="M 2906.4,404.4 V 39.3 h 403.9 v 86 h -294.5 v 53.1 h 279.7 v 79.9 h -279.7 v 58.6 h 296.6 v 87.5 z" id="path52" style="fill:#ffffff;fill-opacity:1;stroke:#ffffff;stroke-width:12;stroke-linecap:square;stroke-dasharray:none;stroke-opacity:1"/>
            <path d="m 3637.1,132.4 v 272 h -116.6 v -272 h -162.6 v -93 h 441.7 v 93 z" id="path53" style="fill:#ffffff;fill-opacity:1;stroke:#ffffff;stroke-width:12;stroke-linecap:square;stroke-dasharray:none;stroke-opacity:1"/>
        </g>
        <path d="m 2471.7697,503.32997 v -4.1634 c 0.1885,-9.0809 0.9253,-12.3362 4.0093,-13.4157 3.8037,-1.6448 13.4156,-2.1759 36.803,-2.1759 19.2239,0 24.107,0.1713 27.3795,1.2679 4.5404,1.2678 5.8083,3.8036 5.8083,10.8798 0,9.7833 -1.6448,10.6914 -23.0276,12.3362 -33.3762,2.7071 -50.5955,3.975 -52.0519,4.1635 -18.8469,2.5357 -26.6599,7.059 -30.4635,18.3158 -1.9875,5.6198 -2.7243,14.8548 -2.7243,34.9868 0,5.8083 0,7.7958 0.5483,13.7926 h 144.1622 v -27.7565 h -110.4433 v -1.2679 c 0.1714,-5.9967 1.4393,-8.344 5.9797,-10.1602 2.3644,-1.0794 9.4235,-1.6277 60.2075,-4.8831 20.4746,-1.0965 31.7314,-5.0886 36.9914,-12.8844 3.8037,-5.7912 5.2429,-12.8674 5.2429,-27.1911 0,-19.2239 -2.5357,-27.2082 -10.6913,-32.4682 -7.9843,-5.2429 -13.9639,-5.7911 -64.371,-5.7911 -61.2869,0 -68.9114,4.5232 -68.9114,41.1549 v 5.26 z m 201.4742,-46.4149 c -22.1195,0 -39.7157,0.7196 -48.7794,2.1759 -14.3237,1.9875 -23.3874,10.3316 -25.7518,23.3874 -1.2679,6.8877 -1.4564,10.1602 -1.4564,34.627 0,28.8359 0,30.8405 1.4564,38.0881 2.3644,13.0558 11.4281,21.3998 25.7518,23.3873 8.8752,1.4564 26.6599,2.176 48.7794,2.176 21.931,0 39.6985,-0.7196 48.5909,-2.176 14.3237,-1.9875 23.3874,-10.3315 25.7518,-23.3873 1.2679,-7.0762 1.4564,-9.8005 1.4564,-36.4432 0,-26.4715 -0.1885,-29.1957 -1.4564,-36.2719 -2.3644,-13.0558 -11.4281,-21.3999 -25.7518,-23.3874 -9.0808,-1.4563 -26.6599,-2.1759 -48.5909,-2.1759 z m -2.3645,31.3545 c 40.6067,0 41.3434,0.5483 41.3434,30.4807 0,30.0866 -0.5482,30.6349 -41.5147,30.6349 -35.3638,0 -36.6317,-1.0795 -36.6317,-31.1832 0,-28.6474 1.6277,-29.9153 36.803,-29.9153 z m 166.83,-31.3545 c -22.1195,0 -39.7157,0.7196 -48.7794,2.1759 -14.3237,1.9875 -23.3874,10.3316 -25.7518,23.3874 -1.2679,6.8877 -1.4564,10.1602 -1.4564,34.627 0,28.8359 0,30.8405 1.4564,38.0881 2.3644,13.0558 11.4281,21.3998 25.7518,23.3873 8.8752,1.4564 26.6599,2.176 48.7794,2.176 21.931,0 39.7157,-0.7196 48.5909,-2.176 14.3237,-1.9875 23.3874,-10.3315 25.7518,-23.3873 1.2679,-7.0762 1.4564,-9.8005 1.4564,-36.4432 0,-26.4715 -0.1885,-29.1957 -1.4564,-36.2719 -2.3644,-13.0558 -11.4281,-21.3999 -25.7518,-23.3874 -9.0808,-1.4563 -26.6599,-2.1759 -48.5909,-2.1759 z m -2.3644,31.3545 c 40.6066,0 41.3434,0.5483 41.3434,30.4807 0,30.0866 -0.5483,30.6349 -41.5148,30.6349 -35.3638,0 -36.6316,-1.0795 -36.6316,-31.1832 0,-28.6474 1.6277,-29.9153 36.803,-29.9153 z m 140.8896,-29.9153 -44.239,37.8995 20.3034,23.7644 35.7236,-30.1038 h 9.6119 v 89.4032 h 36.8201 v -120.9633 z m 150.8786,80.8878 v 5.7911 c 0,16.6882 2.7071,23.7643 11.0512,29.0244 8.5325,5.4313 23.216,7.059 60.7558,7.059 36.0833,0 51.3151,-0.9081 58.5626,-3.6152 12.5076,-4.7289 17.5963,-15.0604 17.5963,-36.0834 0,-16.8766 -3.0841,-25.015 -11.4282,-30.4635 -7.7958,-4.9002 -15.5915,-5.8255 -55.4957,-7.0762 -25.5634,-0.7196 -35.5351,-1.2679 -38.7905,-2.176 -3.8208,-0.9081 -5.4485,-3.2554 -5.4485,-7.7958 0,-8.8923 2.5358,-9.6119 33.7361,-9.6119 26.1116,0 30.6349,0.3598 33.7189,2.1759 2.7243,1.6277 3.2554,3.2554 3.6323,9.9718 h 35.5351 c 0.1714,-2.3644 0.1714,-4.9002 0.1714,-5.6198 0,-14.3237 -2.8956,-21.931 -10.1431,-26.8312 -8.5154,-5.8255 -21.2114,-7.436 -56.3867,-7.436 -29.0244,0 -45.6954,0.7196 -52.7715,2.1759 -16.6882,3.6152 -23.2161,13.9639 -23.2161,36.9915 0,26.6428 8.3441,34.2672 38.2594,35.1753 l 9.8004,0.3598 19.5837,0.9081 29.0072,1.0794 c 11.7879,0.1885 14.5122,2.0046 14.5122,9.2522 0,10.7085 0,10.7085 -39.5273,10.7085 -25.9402,0 -29.9324,-0.377 -33.3762,-2.553 -2.9127,-1.799 -3.6152,-4.1634 -3.6152,-11.4109 z m 240.6244,12.6788 c -1.2679,7.6245 -5.0887,9.0809 -25.5805,9.0809 -11.5994,0 -18.2987,-1.0966 -21.7596,-3.6324 -3.0841,-2.3644 -3.975,-5.26 -3.975,-13.9639 h 83.7833 c 0.1713,-3.6323 0.1713,-7.6244 0.1713,-8.7038 0,-19.3953 -2.9127,-29.0072 -10.52,-35.3638 -7.7958,-6.3394 -17.956,-8.1556 -46.9632,-8.1556 -27.9278,0 -38.6192,1.8162 -46.9632,7.6244 -9.0809,6.3395 -11.6166,14.8549 -11.6166,37.8825 0,21.9481 2.5529,30.4635 10.8798,36.8201 7.7958,5.8083 19.5837,7.9842 44.4275,7.9842 45.8838,0 57.6717,-5.8254 60.019,-29.5726 z m -51.3151,-26.1116 c 0.3426,-11.9592 5.4313,-14.6835 27.0197,-14.6835 12.6788,0 19.2067,1.2679 22.1023,4.3519 2.0046,2.0047 2.3645,3.6324 2.5529,10.3316 z m 95.9139,-32.2626 v 85.7537 h 32.0913 v -35.5351 c 0,-13.2271 0.908,-17.956 3.9921,-22.1195 3.084,-3.9921 9.0808,-6.1681 16.3283,-6.1681 13.2272,0 16.8595,3.4439 16.8595,16.1399 h 30.2751 v -5.8083 c 0,-25.7347 -8.7039,-34.4385 -34.627,-34.4385 -17.9561,0 -27.0198,4.1634 -32.9994,15.0433 h -1.6277 v -12.8674 z m 108.6271,0 v 85.7537 h 32.0912 v -85.7537 z m 0,-35.1924 v 24.1241 h 32.0912 v -24.1241 z m 127.6454,93.5666 c -1.2679,7.6245 -5.0716,9.0809 -25.5634,9.0809 -11.5994,0 -18.3158,-1.0966 -21.7596,-3.6324 -3.0841,-2.3644 -3.9922,-5.26 -3.9922,-13.9639 h 83.7834 c 0.1713,-3.6323 0.1713,-7.6244 0.1713,-8.7038 0,-19.3953 -2.9127,-29.0072 -10.52,-35.3638 -7.7958,-6.3394 -17.9389,-8.1556 -46.9461,-8.1556 -27.9278,0 -38.6363,1.8162 -46.9804,7.6244 -9.0637,6.3395 -11.5994,14.8549 -11.5994,37.8825 0,21.9481 2.5357,30.4635 10.8798,36.8201 7.7958,5.8083 19.5837,7.9842 44.4275,7.9842 45.8666,0 57.6546,-5.8254 60.019,-29.5726 z m -51.3152,-26.1116 c 0.3598,-11.9592 5.4485,-14.6835 27.0197,-14.6835 12.6789,0 19.2239,1.2679 22.1195,4.3519 2.0046,2.0047 2.3645,3.6324 2.5358,10.3316 z m 93.1897,26.1116 c 0.2056,9.9889 2.3816,15.9686 7.6245,20.6803 7.6244,7.0762 18.3329,8.8752 49.5161,8.8752 49.6875,0 61.2869,-5.6198 61.2869,-30.0866 0,-19.2239 -9.4234,-26.4714 -34.2672,-26.6599 -33.0164,-0.1713 -38.6363,-0.3598 -43.8963,-0.7196 -5.0715,-0.377 -7.6073,-2.176 -7.6073,-5.6198 0,-5.4485 6.1681,-7.0762 26.2829,-7.0762 10.8799,0 17.4078,0.7196 20.132,2.5358 1.0966,0.7196 1.4564,1.2678 2.176,3.9921 h 32.6395 c -0.7196,-10.3316 -2.3473,-14.872 -6.8877,-18.5043 -7.2475,-6.1681 -17.956,-7.9671 -47.1517,-7.9671 -22.4793,0 -37.5226,1.2678 -44.4274,3.975 -10.1431,3.8208 -14.8549,11.7879 -14.8549,25.0322 0,18.3158 10.1431,25.9231 34.4386,26.3001 31.5601,0 39.5444,0.1713 43.8963,0.5311 4.7117,0.5483 7.436,2.9127 7.436,6.3394 0,6.1681 -5.9968,7.9843 -26.8484,7.9843 -20.132,0 -26.2829,-2.176 -26.8312,-9.5948 z" style="font-style:normal;font-variant:normal;font-weight:400;font-stretch:normal;font-size:10.5833px;line-height:1.25;font-family:'Microgramma D Extended';font-variant-ligatures:normal;font-variant-caps:normal;font-variant-numeric:normal;font-variant-east-asian:normal;white-space:pre;fill:#ffffff;fill-opacity:1;stroke:#ffffff;stroke-width:12;stroke-linecap:square;stroke-miterlimit:4;stroke-dasharray:none;stroke-opacity:1" id="path54"/>
    </g>
    <path style="baseline-shift:baseline;display:inline;overflow:visible;vector-effect:none;fill:#ffffff;stroke-linecap:round;stroke-linejoin:round;paint-order:markers stroke fill;enable-background:accumulate;stop-color:#000000" d="M 184.29883,38.298828 C 82.79504,38.298828 0,121.08085 0,222.5 c 0,101.41915 82.780068,184.19922 184.19922,184.19922 16.43005,0 32.40256,-2.20029 47.55273,-6.24805 a 25.0025,25.0025 0 0 0 18.54688,-24.12109 l 0.10156,-80.09961 A 25.0025,25.0025 0 0 0 213.01563,274.48242 C 204.65417,279.25053 194.86589,282 184.19922,282 c -32.91577,0 -59.40039,-26.48462 -59.40039,-59.40039 0,-32.91577 26.48462,-59.40039 59.40039,-59.40039 10.66667,0 20.31254,2.7079 28.89258,7.56055 A 25.0025,25.0025 0 0 0 250.40039,149 V 68.699219 A 25.0025,25.0025 0 0 0 231.85352,44.546875 c -15.15018,-4.047756 -31.12464,-6.248047 -47.55469,-6.248047 z m 0,50 c 5.4492,0 10.81657,0.37374 16.10156,1.013672 v 25.19922 c -5.3081,-0.79645 -10.69856,-1.3125 -16.20117,-1.3125 -60.08423,0 -109.400392,49.31616 -109.400392,109.40039 0,60.08423 49.316162,109.40039 109.400392,109.40039 5.4831,0 10.86097,-0.50874 16.1582,-1.29687 l -0.0332,24.98046 c -5.29298,0.64191 -10.66726,1.01563 -16.125,1.01563 C 109.81837,356.69922 50,296.88085 50,222.5 50,148.11915 109.80262,88.298828 184.29883,88.298828 Z" id="path29"/>
    <g id="rect28" style="opacity:1" transform="translate(-14.400391,0.69921921)">
        <path style="baseline-shift:baseline;display:inline;overflow:visible;vector-effect:none;fill:#ffffff;stroke-linecap:round;stroke-linejoin:round;paint-order:markers stroke fill;enable-background:accumulate;stop-color:#000000;stop-opacity:1" d="m 239.80078,127.30078 a 25.0025,25.0025 0 0 0 -25,25 V 216 a 25.0025,25.0025 0 0 0 25,25 h 45.32813 a 25.0025,25.0025 0 0 0 0.37109,0.0996 h 29.30078 a 25.0025,25.0025 0 0 0 17.69141,-7.33594 l 63.69922,-63.79883 A 25.0025,25.0025 0 0 0 378.5,127.30078 H 306.59961 285.5 Z m 25,50 H 285.5 h 21.09961 11.61133 l -13.77735,13.79883 h -18.5625 A 25.0025,25.0025 0 0 0 285.5,191 h -20.69922 z" id="path31"/>
        <path style="baseline-shift:baseline;display:inline;overflow:visible;vector-effect:none;fill:#3771c8;stroke-linecap:round;stroke-linejoin:round;paint-order:markers stroke fill;enable-background:accumulate;stop-color:#000000;stop-opacity:1" d="M 239.80078,152.30078 V 216 H 285.5 v 0.0996 h 29.30078 L 378.5,152.30078 H 306.59961 285.5 Z" id="path32"/>
    </g>
    <g id="rect29" style="opacity:1" transform="translate(-14.400391,0.69921921)">
        <path style="baseline-shift:baseline;display:inline;overflow:visible;vector-effect:none;fill:#ffffff;stroke-linecap:round;stroke-linejoin:round;paint-order:markers stroke fill;enable-background:accumulate;stop-color:#000000;stop-opacity:1" d="m 239.80078,202.59961 a 25.0025,25.0025 0 0 0 -25,25 v 63.70117 a 25.0025,25.0025 0 0 0 25,25 h 45.32813 a 25.0025,25.0025 0 0 0 0.37109,0.0996 h 93 a 25.0025,25.0025 0 0 0 17.69141,-42.66406 L 332.49219,209.93554 A 25.0025,25.0025 0 0 0 314.80078,202.5996 H 306.59961 285.5 Z m 25,50 H 285.5 304.43359 l 13.7793,13.80078 h -32.3418 A 25.0025,25.0025 0 0 0 285.5,266.30078 h -20.69922 z" id="path33"/>
        <path style="baseline-shift:baseline;display:inline;overflow:visible;vector-effect:none;fill:#f20029;stroke-linecap:round;stroke-linejoin:round;paint-order:markers stroke fill;enable-background:accumulate;stop-color:#000000;stop-opacity:1" d="m 239.80078,227.59961 v 63.70117 H 285.5 v 0.0996 h 93 L 314.80078,227.59961 H 306.59961 285.5 Z" id="path34"/>
    </g>
    <path style="baseline-shift:baseline;display:inline;overflow:visible;vector-effect:none;fill:#3771c8;stroke-linecap:round;stroke-linejoin:round;paint-order:markers stroke fill;enable-background:accumulate;stop-color:#000000" d="m 225.39961,296.19922 c -12.1,6.9 -26.2,10.8 -41.2,10.8 -46.5,0 -84.400001,-37.9 -84.400001,-84.4 0,-46.5 37.900001,-84.4 84.400001,-84.4 15,0 29,3.9 41.2,10.8 V 68.699219 c -13.1,-3.5 -26.9,-5.4 -41.1,-5.4 -88.000001,0 -159.300001,71.300001 -159.300001,159.200001 0,87.9 71.3,159.2 159.200001,159.2 14.2,0 28,-1.9 41.1,-5.4 z" id="path30"/>
    <g id="path4595_00000015352148864051845840000009120747381251297167_" style="opacity:1" transform="translate(-14.400391,0.69921921)">
        <path style="baseline-shift:baseline;display:inline;overflow:visible;vector-effect:none;fill:#ffffff;stroke-linecap:round;stroke-linejoin:round;paint-order:markers stroke fill;enable-background:accumulate;stop-color:#000000;stop-opacity:1" d="m 1751.5,80.300781 a 25.0025,25.0025 0 0 0 -25,24.999999 v 27.78125 c -9.1701,-1.79289 -19.3428,-2.58203 -31.5996,-2.58203 -31.9166,0 -56.8761,3.31616 -75.0332,21.0293 -4.0487,3.94968 -7.2092,8.26773 -9.8399,12.8125 -4.0996,-6.60038 -9.3126,-12.63039 -15.7343,-17.09961 -21.7476,-15.13529 -47.3542,-15.8418 -84.293,-15.8418 -39.9551,0 -66.6174,1.27803 -87.8945,18.59766 -5.2486,4.27233 -9.4842,9.51318 -12.8008,15.16797 -3.8552,-6.59548 -8.69,-12.52457 -14.6367,-17.3711 -17.0032,-13.85741 -38.8733,-18.49414 -62.7676,-18.49414 -20.4829,0 -37.035,3.37409 -50.4629,11.41016 -1.4265,0.85372 -2.7681,1.78677 -4.082,2.74023 -1.8226,-1.23917 -3.5441,-2.55735 -5.5567,-3.64062 -13.6272,-7.33476 -30.128,-10.50977 -50.3984,-10.50977 -13.3406,0 -25.3846,1.69429 -35.875,6.0625 a 25.0025,25.0025 0 0 0 -11.4258,-3.0625 h -0.1 -41.8008 a 25.0025,25.0025 0 0 0 -25,25 v 3.16602 c -3.3088,-4.71859 -7.1741,-9.01204 -11.6797,-12.67969 -17.0062,-13.84364 -38.8661,-18.48633 -62.7187,-18.48633 -20.719,0 -37.5326,3.75445 -50.91018,11.8418 -1.18343,0.71544 -2.28248,1.50661 -3.39062,2.28906 -1.8618,-1.27503 -3.78897,-2.50153 -5.85156,-3.61328 -13.62882,-7.34603 -30.13623,-10.51758 -50.44922,-10.51758 -13.7694,0 -26.0771,1.63874 -36.83789,6.05078 A 25.0025,25.0025 0 0 0 874,132.30078 h -41.80078 a 25.0025,25.0025 0 0 0 -23.80274,20.53516 c -1.986,-1.95157 -4.03667,-3.84461 -6.31054,-5.45899 -21.59021,-15.32839 -47.04752,-15.97656 -83.98633,-15.97656 -39.84702,0 -66.22779,0.90139 -87.66016,17.92188 -4.94706,3.9287 -8.9362,8.78272 -12.19336,13.99804 -4.00031,-6.22119 -9.06486,-11.96415 -15.2832,-16.26172 -19.72073,-13.62921 -42.64374,-14.75781 -75.0625,-14.75781 -36.622,0 -62.70363,1.10035 -84.38867,16.88672 -10.84252,7.89319 -18.53747,19.85968 -22.32617,32.11914 C 417.39684,193.5661 416.5,206.23397 416.5,220.5 c 0,14.19391 0.85236,26.74835 4.33203,38.84766 3.47967,12.09931 10.46435,24.0156 20.80859,32.23046 20.68849,16.42973 46.19271,17.92188 80.66016,17.92188 35.91351,0 60.12081,-0.49289 81.32031,-14.05273 6.56237,-4.19749 12.01287,-10.13137 16.25391,-16.66016 3.42274,5.03542 7.50651,9.67686 12.42969,13.39648 21.6533,16.35979 47.8347,17.2168 85.79492,17.2168 40.37105,0.0511 67.29071,-1.08027 88.35547,-19.39844 0.97428,-0.84725 1.86875,-1.75788 2.76562,-2.66601 a 25.0025,25.0025 0 0 0 22.97852,17.46484 h 44.60156 a 25.0025,25.0025 0 0 0 25,-25 v -62.52539 c 2.0384,-0.36411 4.97359,-0.77539 9.39844,-0.77539 2.80514,0 3.2953,0.13829 4.3125,0.25195 0.19669,1.41313 0.38867,3.27338 0.38867,6.24805 v 56.59961 a 25.0025,25.0025 0 0 0 25,25 h 45.5 a 25.0025,25.0025 0 0 0 25.00001,-25 V 217.4707 c 2.2047,-0.46179 5.4652,-0.9707 10.2988,-0.9707 1.9116,0 3.4448,0.11544 4.7012,0.25586 v 62.84375 a 25.0025,25.0025 0 0 0 25,25 H 1096 a 25.0025,25.0025 0 0 0 18,-8.84961 25.0025,25.0025 0 0 0 18.1992,9.05078 h 44.6016 a 25.0025,25.0025 0 0 0 25,-25 v -62.54101 c 1.7763,-0.3514 4.4618,-0.75977 8.3984,-0.75977 2.7941,0 3.2518,0.1431 4.3477,0.26562 0.1847,1.45734 0.3535,3.36288 0.3535,6.23438 v 56.59961 a 25.0025,25.0025 0 0 0 25,25 h 45.5 a 25.0025,25.0025 0 0 0 25,-25 v -62.26758 c 2.0993,-0.39352 5.2543,-0.83203 9.4004,-0.83203 2.5194,0 4.2752,0.20195 5.6992,0.42187 v 62.67774 a 25.0025,25.0025 0 0 0 25,25 h 44.5996 a 25.0025,25.0025 0 0 0 23.0625,-17.76953 c 1.9262,1.98016 3.9071,3.91807 6.1328,5.58398 21.6256,16.18652 47.7335,17.08594 85.7051,17.08594 40.4371,0 67.4685,-1.20418 88.7148,-19.33203 5.2138,-4.44848 9.3311,-9.83237 12.5254,-15.60742 3.1226,5.11179 7.0005,9.78799 11.7891,13.93164 19.1496,16.57057 43.8058,19.20703 74.5703,19.20703 16.9978,0 30.7973,-1.86062 42.8984,-6.55274 a 25.0025,25.0025 0 0 0 12.8028,3.6543 h 44.5996 a 25.0025,25.0025 0 0 0 23.0117,-17.58008 c 1.6884,1.6993 3.3524,3.42744 5.2695,4.89063 21.5023,16.41076 47.54,17.28906 85.0176,17.28906 40.3229,0.0511 67.2407,-1.08751 88.3086,-19.38867 0.5121,-0.44481 0.9625,-0.93831 1.4531,-1.40039 a 25.0025,25.0025 0 0 0 22.6387,16.18945 h 44.5996 a 25.0025,25.0025 0 0 0 25,-25 v -63.71289 c 0.8522,-0.16713 1.7131,-0.36327 3.6719,-0.375 A 25.0025,25.0025 0 0 0 2121.0996,237 h 31.2481 c 2.0691,21.96491 9.1775,41.33291 25.1152,54.07617 19.4223,15.52948 43.3121,17.93969 72.0195,18.41992 a 25.0025,25.0025 0 0 0 0.418,0.004 c 30.5369,0 54.1754,0.42143 76.1641,-8.06445 10.9943,-4.24295 21.9141,-11.94728 28.7402,-22.95508 6.8261,-11.0078 9.1953,-23.69717 9.1953,-36.67969 a 25.0025,25.0025 0 0 0 -1.4199,-5.29687 25.0025,25.0025 0 0 0 1.6074,-6.70508 c -0.474,-14.79353 -0.7248,-27.34416 -2.6152,-39.50781 -1.8905,-12.16366 -5.893,-25.12796 -15.5489,-35.56055 -9.6558,-10.4326 -22.9542,-15.98788 -37.0468,-18.82422 -14.0926,-2.83634 -30.1119,-3.60547 -50.5762,-3.60547 -34.9448,0 -60.7043,1.45908 -81.5606,18.06641 -0.8316,0.66224 -1.501,1.48539 -2.289,2.19336 -0.037,-0.0489 -0.061,-0.0996 -0.098,-0.14844 -13.6015,-17.92374 -36.4435,-23.01172 -61.6523,-23.01172 -12.8787,0 -24.7315,0.98704 -35.8731,5.7207 a 25.0025,25.0025 0 0 0 -10.5273,-2.82031 h -0.1 -42.7012 a 25.0025,25.0025 0 0 0 -23.4824,19.33984 c -1.6017,-1.47211 -3.1553,-3.00254 -4.9317,-4.26367 -21.5902,-15.32839 -47.0475,-15.97656 -83.9863,-15.97656 -39.4123,0 -65.6561,0.91739 -86.9316,18.00977 -0.4787,0.38455 -0.905,0.81832 -1.3672,1.21875 v -45.32813 a 25.0025,25.0025 0 0 0 -25,-24.999999 z m 21.4004,109.070309 v 1.54493 c -0.1581,-0.34175 -0.3199,-0.68069 -0.4902,-1.02149 a 25.0025,25.0025 0 0 0 0.4902,-0.52344 z m -511.0996,8.61133 a 25.0025,25.0025 0 0 0 1.4219,1.34375 c -0.1874,0.53398 -0.3542,1.07131 -0.5235,1.60938 -0.255,-0.99184 -0.5821,-1.97137 -0.8984,-2.95313 z m -298.90432,0.77539 a 25.0025,25.0025 0 0 0 1.18946,1.25196 c -0.14424,0.41658 -0.29468,0.83076 -0.42774,1.25 -0.21819,-0.8392 -0.50005,-1.66899 -0.76172,-2.50196 z m 756.00392,16.94141 c 3.5256,0 6.1392,0.23195 8.3125,0.48828 -0.03,2.24178 -0.1105,3.17906 -0.1816,4.76758 -3.2185,0.20248 -5.9908,0.44531 -11.8321,0.44531 -8.6456,0 -15.3451,-0.57377 -19.5957,-0.98633 0.01,-1.56705 0.1339,-2.37407 0.2266,-3.46289 4.2071,-0.44063 11.8777,-1.25195 23.0703,-1.25195 z m -1003.70118,1 c 7.87399,0 13.61613,0.55555 17.61719,0.97656 0.0211,0.69627 0.084,1.02495 0.084,1.82422 0,2.20884 -0.1248,2.24701 -0.21875,3.7168 -3.01229,0.44481 -7.26715,0.98242 -13.78125,0.98242 a 25.0025,25.0025 0 0 0 -0.0703,0 c -7.25199,0.0201 -12.12965,-0.56699 -15.51953,-1.03125 -0.091,-1.49873 -0.21094,-1.46103 -0.21094,-3.66797 0,-1.29613 0.077,-1.02513 0.12305,-2.04688 2.9034,-0.36775 6.60436,-0.7539 11.97656,-0.7539 z m 792.10158,0 c 7.8737,0 13.6142,0.55556 17.6152,0.97656 0.021,0.69627 0.084,1.02495 0.084,1.82422 0,2.2048 -0.1243,2.24353 -0.2168,3.7168 -3.0184,0.44525 -7.2704,0.98242 -13.7832,0.98242 a 25.0025,25.0025 0 0 0 -0.066,0 c -7.7232,0.0208 -12.9712,-0.61284 -16.5293,-1.09766 -0.089,-1.4873 -0.2051,-1.41836 -0.2051,-3.60156 0,-1.26322 0.075,-0.97277 0.1192,-1.97266 3.0857,-0.39316 7.1193,-0.82812 12.9824,-0.82812 z m 401.0996,0 c 7.8737,0 13.6142,0.55556 17.6152,0.97656 0.021,0.69628 0.084,1.02494 0.084,1.82422 0,2.2048 -0.1243,2.24353 -0.2168,3.7168 -3.0184,0.44523 -7.2709,0.98242 -13.7832,0.98242 a 25.0025,25.0025 0 0 0 -0.066,0 c -7.7232,0.0208 -12.9712,-0.61284 -16.5293,-1.09766 -0.089,-1.48729 -0.2031,-1.41841 -0.2031,-3.60156 0,-1.26322 0.074,-0.97277 0.1191,-1.97266 3.0857,-0.3931 7.1186,-0.82812 12.9805,-0.82812 z m -1380.59962,2.70117 c 5.19267,0 8.87619,0.33974 11.47461,0.62891 a 25.0025,25.0025 0 0 0 -0.80273,2.98828 c -3.55086,0.49312 -8.8884,1.08203 -16.27344,1.08203 -5.5551,0 -8.83929,-0.49113 -10.89258,-0.85938 -0.0696,-0.63847 -0.10088,-1.80579 -0.16992,-3.11914 4.16195,-0.33821 9.54674,-0.7207 16.66406,-0.7207 z" id="path35"/>
        <path style="baseline-shift:baseline;display:inline;overflow:visible;vector-effect:none;fill:#3771c8;stroke-linecap:round;stroke-linejoin:round;paint-order:markers stroke fill;enable-background:accumulate;stop-color:#000000;stop-opacity:1" d="m 2066.3,157.3 h -42.7 v 122.5 h 44.6 v -64 c 0,-16.7 10.2,-25.1 28.8,-25.1 18.5,0 23.2,5.6 24.1,21.3 h 41.8 c 0,-41.8 -5.6,-57.6 -50.1,-57.6 -26.9,0 -36.2,5.6 -46.4,26 v -23.1 z m 205.1,98.4 c -42.7,0 -49.2,-3.7 -49.2,-25.1 h 117 c -1.9,-59.3 -1.9,-73.3 -80.8,-73.3 -66.9,0 -81.8,12 -81.8,65 0,49.3 19.5,61.3 73.3,62.2 60.3,0 89.1,-2.8 89.1,-42.7 h -43.7 c -1.6,9.2 -5.3,13.9 -23.9,13.9 z m -50.1,-51.1 c 1.9,-13 5.6,-17.6 35.3,-17.6 32.5,0 37.1,1.9 39,17.6 z m -1660.1,4.7 h 44.6 c -3.7,-41.8 -15.8,-52 -77.9,-52 -70.6,0 -86.4,11.2 -86.4,63.2 0,52 14.9,64 80.8,64 69.6,0 83.5,-9.3 83.5,-53 h -44.6 c 0,12 -4.6,17.6 -39,17.6 -29.7,0 -36.2,-7.4 -36.2,-31.5 0,-23.2 6.5,-23.2 41.8,-23.2 25.9,0 30.5,2.9 33.4,14.9 z m 1035.2,7.4 c 0,-50.1 -14.9,-60.3 -86.4,-60.3 -77.1,0 -86.4,13 -86.4,64.9 0,52 13,63.2 86.4,63.2 78.1,0 86.4,-13 86.4,-67.8 z m -127.2,2.8 c 0,-25.1 5.6,-27.8 38.1,-27.8 36.2,0 42.7,0.9 42.7,27.8 0,25.1 -4.6,29.7 -39,29.7 -37.2,0.1 -41.8,-3.6 -41.8,-29.7 z m 527.4,-2.8 c 0,-50.1 -13.9,-60.3 -85.4,-60.3 -76.2,0 -85.4,12 -85.4,64 0,52.9 13,64 85.4,64 77.9,0.1 85.4,-12.9 85.4,-67.7 z m -126.3,2.8 c 0,-25.1 5.6,-27.8 38.1,-27.8 36.2,0 42.7,0.9 42.7,27.8 0,25.1 -4.6,29.7 -39,29.7 -37.2,0.1 -41.8,-3.6 -41.8,-29.7 z M 803.5,216.7 c 0,-50.1 -13.9,-60.3 -85.4,-60.3 -77.1,0 -86.4,12 -86.4,64 0,52.9 13,64 86.4,64 78,0.1 85.4,-12.9 85.4,-67.7 z m -125.4,2.8 c 0,-25.1 5.6,-27.8 37.1,-27.8 36.2,0 42.7,0.9 42.7,27.8 0,25.1 -4.7,29.7 -39,29.7 -36.1,0.1 -40.8,-3.6 -40.8,-29.7 z M 1751.5,105.3 v 71.5 c -10.2,-13.9 -19.5,-21.3 -56.6,-21.3 -59.4,0 -70.6,15.8 -70.6,64 0,49.3 15.8,63.2 73.3,63.2 36.2,0 47.4,-9.3 55.7,-25.1 v 22.2 h 44.6 V 105.3 Z m -32.6,85.4 c 25.1,0 33.4,3.7 33.4,23.2 0,29.8 -1.9,32.5 -37.1,32.5 -35.3,0 -44.6,-1 -44.6,-26 0.1,-28.7 11.2,-29.7 48.3,-29.7 z M 874,157.3 h -41.8 v 122.5 h 44.6 v -63.2 c 0,-18.5 9.3,-25.1 34.4,-25.1 23.2,0 29.7,8.3 29.7,31.5 v 56.6 h 45.5 v -64.9 c 0,-17.6 13.9,-23.2 35.3,-23.2 20.5,0 29.7,5.6 29.7,23.2 v 64.9 h 44.6 v -72.4 c 0,-36.2 -22.3,-52.9 -63.2,-52.9 -35.3,0 -48.3,13 -53,26.9 -9.3,-15.8 -22.2,-26.9 -57.6,-26.9 -33.4,0 -42.7,11.2 -48.3,31.5 z m 300,0 h -41.8 v 122.5 h 44.6 v -63.2 c 0,-18.5 11.2,-25.1 33.4,-25.1 23.2,0 29.7,7.4 29.7,31.5 v 56.6 h 45.5 v -64.9 c 0,-17.6 13,-23.2 34.4,-23.2 20.5,0 30.7,6.5 30.7,23.2 v 64.9 h 44.6 v -72.4 c 0,-36.2 -22.2,-52.9 -63.2,-52.9 -35.3,0 -47.4,12 -52.9,26.9 -9.3,-15.8 -22.3,-26.9 -57.6,-26.9 -32.5,0 -40.8,11.2 -47.3,31.5 v -28.5 z" id="path36"/>
    </g>
    <g id="g27" style="fill:#000000;fill-opacity:1;stroke:#ffffff;stroke-width:80;stroke-linecap:square;stroke-linejoin:round;stroke-dasharray:none;stroke-opacity:1;paint-order:markers stroke fill" transform="translate(-16.400391,0.69921921)">
        <g id="path25" style="opacity:1">
            <path style="baseline-shift:baseline;display:inline;overflow:visible;vector-effect:none;fill:#ffffff;stroke:none;enable-background:accumulate;stop-color:#000000;stop-opacity:1" d="m 2437.4004,-0.69921875 a 40.004,40.004 0 0 0 -40,39.99999975 V 404.40039 a 40.004,40.004 0 0 0 40,40 H 2548.5 a 40.004,40.004 0 0 0 40,-40 v -49.20117 h 100.0996 c 20.5606,0 52.9305,1.26444 86.1836,-1.94727 33.2531,-3.21171 69.3936,-9.08069 98.5801,-35.89843 a 40.004,40.004 0 0 0 0.125,-0.11524 c 44.4365,-41.18106 42.3125,-99.43363 42.3125,-135.53906 0,-16.15 0.1696,-39.67101 -3.6074,-64.43164 -3.7761,-24.754088 -10.5649,-52.650872 -33.5762,-75.216799 l -0.01,-0.0078 C 2838.8734,3.0577266 2786.4983,0.56133615 2748.6855,-0.0859375 2727.7878,-0.70276309 2707.734,-0.69921875 2687.5,-0.69921875 Z m 40,79.99999975 H 2687.5 c 20.3,0 39.5832,0.0049 59.0117,0.582031 a 40.004,40.004 0 0 0 0.5117,0.01172 c 33.162,0.560485 61.8,5.750027 75.5606,19.253906 a 40.004,40.004 0 0 0 0.016,0.01758 c 2.1741,2.130922 7.9849,13.626642 10.5078,30.166012 2.523,16.53937 2.6934,36.21719 2.6934,52.36719 0,32.64461 -6.5077,67.32291 -16.6445,76.80469 -5.4086,4.88547 -26.1395,12.61521 -52.0645,15.11914 -26.0219,2.51329 -55.2528,1.57617 -78.4922,1.57617 h -140.1 a 40.004,40.004 0 0 0 -40,40 v 49.20117 h -31.0996 z M 2548.5,90.699219 a 40.004,40.004 0 0 0 -40,40.000001 v 93 a 40.004,40.004 0 0 0 40,40 h 165.3008 c 23.7231,0 48.1407,0.33064 69.3222,-20.66797 21.1816,-20.99861 20.9766,-45.6296 20.9766,-69.13086 0,-12.3476 -0.8148,-23.68658 -4.7226,-35.74023 -3.9079,-12.05366 -12.5304,-25.13013 -23.8868,-33.07422 -22.7126,-15.888192 -41.9657,-13.467497 -60.414,-13.779299 a 40.004,40.004 0 0 0 -0.6758,-0.0059 c -6.8609,0 -16.1826,-0.601562 -26.8008,-0.601562 z m 40,80.000001 h 99.0996 c 6.9818,0 16.2617,0.60156 26.8008,0.60156 l -0.6758,-0.006 c 4.1195,0.0696 7.4996,0.35088 10.2695,0.6582 0.022,0.76902 0.1055,1.08083 0.1055,1.94727 0,4.05115 -0.2248,6.87643 -0.4512,9.31445 -2.5421,0.24722 -5.5929,0.48438 -9.8476,0.48438 H 2588.5 Z" id="path37"/>
            <path style="baseline-shift:baseline;display:inline;overflow:visible;vector-effect:none;stroke:none;enable-background:accumulate;stop-color:#000000;stop-opacity:1" d="m 2846.3,287.9 c -34.5,31.7 -113.9,27.3 -157.7,27.3 h -140.1 v 89.2 H 2437.4 V 39.3 h 250.1 c 20.3,0 40,0 60.2,0.6 35.5,0.6 76.1,4.4 102.9,30.7 25.2,24.7 25.2,78.8 25.2,111.1 0,34.4 -2.2,80.9 -29.5,106.2 z M 2714.4,131.3 c -8.7,0 -18,-0.6 -26.8,-0.6 h -139.1 v 93 h 165.3 c 42.7,0 50.3,-7.6 50.3,-49.8 0,-39.9 -14.2,-42 -49.7,-42.6 z" id="path38"/>
        </g>
        <g id="path26" style="opacity:1">
            <path style="baseline-shift:baseline;display:inline;overflow:visible;vector-effect:none;fill:#ffffff;stroke:none;enable-background:accumulate;stop-color:#000000;stop-opacity:1" d="m 2906.4004,-0.69921875 a 40.004,40.004 0 0 0 -40,39.99999975 V 404.40039 a 40.004,40.004 0 0 0 40,40 h 406 a 40.004,40.004 0 0 0 40,-40 v -87.5 a 40.004,40.004 0 0 0 -24.3399,-36.71875 40.004,40.004 0 0 0 7.4395,-21.88086 v -79.90039 a 40.004,40.004 0 0 0 -5.5469,-19.05078 40.004,40.004 0 0 0 20.3477,-34.04883 V 39.300781 a 40.004,40.004 0 0 0 -40,-39.99999975 z m 40,79.99999975 h 323.9004 v 6 h -254.5 a 40.004,40.004 0 0 0 -40,39.999999 v 53.09961 a 40.004,40.004 0 0 0 39.75,39.94922 40.004,40.004 0 0 0 -39.75,39.95117 v 58.59961 a 40.004,40.004 0 0 0 40,40 h 256.5996 v 7.5 h -326 z" id="path39"/>
            <path style="baseline-shift:baseline;display:inline;overflow:visible;vector-effect:none;stroke:none;enable-background:accumulate;stop-color:#000000;stop-opacity:1" d="M 2906.4,404.4 V 39.3 h 403.9 v 86 h -294.5 v 53.1 h 279.7 v 79.9 h -279.7 v 58.6 h 296.6 v 87.5 z" id="path40"/>
        </g>
        <g id="path27" style="opacity:1">
            <path style="baseline-shift:baseline;display:inline;overflow:visible;vector-effect:none;fill:#ffffff;stroke:none;enable-background:accumulate;stop-color:#000000;stop-opacity:1" d="m 3357.9004,-0.59960937 a 40.004,40.004 0 0 0 -40,40.00000037 v 92.999999 a 40.004,40.004 0 0 0 40,40 H 3480.5 v 232 a 40.004,40.004 0 0 0 40,40 h 116.5996 a 40.004,40.004 0 0 0 40,-40 v -232 h 122.5 a 40.004,40.004 0 0 0 40,-40 V 39.400391 a 40.004,40.004 0 0 0 -40,-40.00000037 z m 40,80.00000037 h 361.6992 v 13 h -122.5 a 40.004,40.004 0 0 0 -40,39.999999 v 232 H 3560.5 v -232 a 40.004,40.004 0 0 0 -40,-39.999999 h -122.5996 z" id="path41"/>
            <path style="baseline-shift:baseline;display:inline;overflow:visible;vector-effect:none;stroke:none;enable-background:accumulate;stop-color:#000000;stop-opacity:1" d="m 3637.1,132.4 v 272 h -116.6 v -272 h -162.6 v -93 h 441.7 v 93 z" id="path42"/>
        </g>
    </g>
    <g id="path1815" style="opacity:1" transform="translate(-14.400391,0.69921921)">
        <path style="font-size:10.5833px;line-height:1.25;font-family:'Microgramma D Extended';baseline-shift:baseline;white-space:pre;display:inline;overflow:visible;vector-effect:none;fill:#ffffff;paint-order:markers stroke fill;enable-background:accumulate;stop-color:#000000;stop-opacity:1" d="m 3198.1797,489.55469 c -29.4376,0 -44.7335,-0.002 -57.8106,2.68945 l -0.1269,0.0254 -0.127,0.0293 c -12.509,2.70985 -26.1433,10.2565 -33.7402,22.34765 -7.5969,12.09116 -9.1816,25.20003 -9.1816,39.07618 0,6.08275 0.3884,12.37457 1.5996,18.51953 h -2.6797 v 30.79101 c 0,9.69591 0.4922,18.40481 4.0351,27.70117 3.5352,9.27585 11.2315,17.75251 18.6348,22.43555 17.5713,11.1658 35.905,10.94727 74.1367,10.94727 36.5028,0 51.024,0.88809 67.3106,-5.19532 l 0.047,-0.0176 0.047,-0.0176 c 4.6046,-1.74091 9.1237,-4.53875 13.3125,-7.85938 0.1322,0.1037 0.2542,0.25237 0.3867,0.35352 l 0.1172,0.0879 0.1172,0.0879 c 15.0792,11.23484 33.0598,12.9375 59.3633,12.9375 19.371,0 34.0611,-0.27013 47.7148,-4.63477 v 2.44141 h 82.0918 v -47.68359 h 26.5352 v 47.68359 h 82.0918 v -2.25586 c 11.6101,3.65978 25.2283,4.44922 42.4551,4.44922 23.9917,0 40.8322,-0.30307 57.3769,-8.45898 2.3722,-1.1694 4.67,-2.6419 6.8965,-4.26368 7.0184,5.21544 15.9757,8.95807 24.8848,10.53711 10.5007,1.86115 21.8827,2.16797 37.955,2.16797 25.7863,0 43.0818,0.005 60.2754,-8.41797 8.5969,-4.21152 16.853,-12.07968 21.0508,-21.01562 4.1979,-8.93594 4.961,-17.56028 4.961,-25.65235 0,-6.42788 -1.1144,-13.50437 -3.5508,-20.23242 l -1.0489,-15.05273 c -0.4329,-6.21596 -1.0468,-12.05453 -3.5,-18.69336 -2.4054,-6.5097 -7.4139,-13.21403 -12.416,-17.32031 -7.3146,-6.11493 -17.2579,-10.04067 -27.0957,-11.70118 -9.959,-1.68096 -20.8554,-2.01953 -35.9668,-2.01953 -23.3051,0 -37.4945,-0.52803 -53.3242,5.61914 -4.1739,1.58185 -8.3045,3.94897 -12.123,6.83399 -6.9686,-5.16703 -16.1245,-8.9529 -25.3731,-10.56836 -9.9392,-1.7361 -20.7031,-2.07422 -35.7285,-2.07422 -19.5842,0 -33.9422,0.96462 -45.7285,4.66602 v -2.30079 -35.19335 h -82.0918 v 34.66015 c -6.1538,-1.22622 -12.4794,-1.64258 -18.707,-1.64258 -7.1157,0 -13.9704,0.57456 -20.6993,2.17578 h -69.2207 v 1.91993 c -2.863,-0.91523 -5.7715,-1.6985 -8.707,-2.21094 -9.9414,-1.73543 -20.709,-2.07422 -35.7344,-2.07422 -21.4534,0 -36.6893,1.10217 -49.0683,5.76172 -0.5447,-2.30039 -1.2121,-4.60348 -2.0899,-6.92188 -3.2445,-8.56952 -9.8251,-16.75694 -17.125,-21.70703 -16.2828,-11.10503 -34.5453,-11.75976 -70.4316,-11.75976 z m -720.4492,0.33203 c -19.5456,0.16728 -34.1058,1.60178 -48.8516,10.40234 -9.8305,5.86704 -17.4718,16.75437 -20.459,26.71289 -2.9872,9.95852 -3.2031,19.04319 -3.2031,29.06836 v 30.25977 h 3.7676 c -2.372,9.77774 -2.4824,20.03307 -2.4824,37.19531 0,5.8083 0.058,9.57278 0.6523,16.06836 l 2.0781,22.72461 h 191.9805 v -5.03906 c 4.3876,1.90342 8.9483,3.35538 13.6328,4.02343 12.8024,2.0514 29.9689,2.45313 52.3984,2.45313 22.2495,0 39.4075,-0.40401 52.2051,-2.45117 11.0159,-1.56958 21.5764,-6.84642 29.9336,-14.46289 8.3555,7.61454 18.9145,12.89035 29.9277,14.46093 12.8024,2.0514 29.9689,2.45313 52.3985,2.45313 22.2495,0 39.4103,-0.40126 52.2129,-2.45313 22.2639,-3.17589 42.7138,-21.47502 46.7304,-43.65429 v -0.0234 -0.0215 c 0.8036,-4.48512 1.2354,-9.86457 1.5078,-17.63868 l 11.2539,13.17188 23.2129,-19.5625 v 68.74414 h 86.8203 V 491.35352 h -92.4649 l -35.5019,30.41601 c -8.283,-15.3885 -24.3523,-26.96115 -41.6055,-29.4082 -12.7553,-2.00399 -29.8987,-2.44531 -52.1738,-2.44531 -22.4595,0 -39.6117,0.43849 -52.3711,2.44726 -11.0233,1.5657 -21.5926,6.84586 -29.9551,14.4668 -8.3646,-7.62331 -18.9363,-12.90439 -29.9629,-14.46875 -12.7556,-2.00446 -29.8986,-2.44531 -52.1758,-2.44531 -22.4574,0 -39.6101,0.43896 -52.3691,2.44726 -10.9667,1.55723 -21.4779,6.79798 -29.8203,14.35547 -2.509,-2.69931 -5.1547,-5.16367 -7.9317,-6.96484 -6.0671,-3.95455 -16.7914,-7.82957 -27.6562,-8.8086 -10.9157,-0.98361 -25.0437,-1.02929 -50.3379,-1.02929 -7.8146,0 -14.8832,-0.0851 -21.3984,-0.0293 z m 62.955,28.87695 1.2188,0.375 c -0.2744,-0.0919 -0.5119,-0.11543 -0.7813,-0.20117 -0.132,-0.0399 -0.3091,-0.13799 -0.4375,-0.17383 z m -79.166,1.39063 c -0.1569,0.0549 -0.3136,0.15636 -0.4707,0.21679 -0.4183,0.16827 -0.756,0.2445 -1.1933,0.4336 z m 271.0723,15.79882 c 0,0.0154 -0.01,0.0314 -0.01,0.0469 0,0.008 0,0.0155 -0.01,0.0234 z m 644.6309,19.84766 0.5468,0.56445 c -0.1395,-0.14857 -0.2767,-0.2397 -0.416,-0.38476 -0.039,-0.04 -0.092,-0.14117 -0.1308,-0.17969 z m 280.8886,0 0.5469,0.56445 c -0.1399,-0.14896 -0.2763,-0.24128 -0.416,-0.38671 -0.039,-0.0397 -0.093,-0.13954 -0.1309,-0.17774 z m -993.2324,15.48633 h 0.375 c 6.9902,0.0221 11.946,0.51186 15.8281,0.98047 0.045,1.88143 0.1407,1.99805 0.1407,4.48242 0,2.5498 -0.094,2.69747 -0.1387,4.62109 -3.9968,0.48466 -9.0871,1.01368 -16.375,1.01368 -5.5817,0 -8.1131,-0.17655 -11.4375,-0.3086 -0.068,-2.19141 -0.1953,-2.73347 -0.1953,-5.875 0,-2.32664 0.1031,-2.4642 0.1523,-4.22851 2.9917,-0.35743 6.6863,-0.68555 11.6504,-0.68555 z m 164.4668,0 h 0.375 c 6.9915,0.0221 11.9459,0.51376 15.8281,0.98242 0.045,1.88089 0.1387,1.99721 0.1387,4.48047 0,2.5498 -0.094,2.69747 -0.1387,4.62109 -3.9968,0.48466 -9.0871,1.01368 -16.375,1.01368 -5.5813,0 -8.1112,-0.17656 -11.4355,-0.3086 -0.068,-2.19143 -0.1953,-2.73345 -0.1953,-5.875 0,-2.32771 0.103,-2.46563 0.1523,-4.23047 2.9914,-0.3573 6.6878,-0.68359 11.6504,-0.68359 z m -418.6875,8.91601 c -0.022,0.0622 -0.029,0.12339 -0.051,0.18555 -0.016,0.0483 -0.048,0.0983 -0.064,0.14649 z m 321.9199,37.44532 c 0.01,0.0393 0.024,0.0759 0.031,0.11523 0.023,0.1177 0.035,0.23697 0.059,0.35547 z m 414.5196,12.13867 c 0.035,0.0224 0.087,0.0402 0.123,0.0625 0.03,0.0185 0.064,0.0561 0.094,0.0742 z m 528.0039,19.13867 c 0.042,0.0388 0.097,0.0688 0.1386,0.10742 0.055,0.0504 0.1006,0.1121 0.1563,0.16211 z" id="path44"/>
        <path style="font-size:10.5833px;line-height:1.25;font-family:'Microgramma D Extended';baseline-shift:baseline;white-space:pre;display:inline;overflow:visible;vector-effect:none;paint-order:markers stroke fill;enable-background:accumulate;stop-color:#000000;stop-opacity:1" d="m 2465.7697,561.32997 v -4.1634 c 0.1885,-9.0809 0.9253,-12.3362 4.0093,-13.4157 3.8037,-1.6448 13.4156,-2.1759 36.803,-2.1759 19.2239,0 24.107,0.1713 27.3795,1.2679 4.5404,1.2678 5.8083,3.8036 5.8083,10.8798 0,9.7833 -1.6448,10.6914 -23.0276,12.3362 -33.3762,2.7071 -50.5955,3.975 -52.0519,4.1635 -18.8469,2.5357 -26.6599,7.059 -30.4635,18.3158 -1.9875,5.6198 -2.7243,14.8548 -2.7243,34.9868 0,5.8083 0,7.7958 0.5483,13.7926 h 144.1622 v -27.7565 h -110.4433 v -1.2679 c 0.1714,-5.9967 1.4393,-8.344 5.9797,-10.1602 2.3644,-1.0794 9.4235,-1.6277 60.2075,-4.8831 20.4746,-1.0965 31.7314,-5.0886 36.9914,-12.8844 3.8037,-5.7912 5.2429,-12.8674 5.2429,-27.1911 0,-19.2239 -2.5357,-27.2082 -10.6913,-32.4682 -7.9843,-5.2429 -13.9639,-5.7911 -64.371,-5.7911 -61.2869,0 -68.9114,4.5232 -68.9114,41.1549 v 5.26 z m 201.4742,-46.4149 c -22.1195,0 -39.7157,0.7196 -48.7794,2.1759 -14.3237,1.9875 -23.3874,10.3316 -25.7518,23.3874 -1.2679,6.8877 -1.4564,10.1602 -1.4564,34.627 0,28.8359 0,30.8405 1.4564,38.0881 2.3644,13.0558 11.4281,21.3998 25.7518,23.3873 8.8752,1.4564 26.6599,2.176 48.7794,2.176 21.931,0 39.6985,-0.7196 48.5909,-2.176 14.3237,-1.9875 23.3874,-10.3315 25.7518,-23.3873 1.2679,-7.0762 1.4564,-9.8005 1.4564,-36.4432 0,-26.4715 -0.1885,-29.1957 -1.4564,-36.2719 -2.3644,-13.0558 -11.4281,-21.3999 -25.7518,-23.3874 -9.0808,-1.4563 -26.6599,-2.1759 -48.5909,-2.1759 z m -2.3645,31.3545 c 40.6067,0 41.3434,0.5483 41.3434,30.4807 0,30.0866 -0.5482,30.6349 -41.5147,30.6349 -35.3638,0 -36.6317,-1.0795 -36.6317,-31.1832 0,-28.6474 1.6277,-29.9153 36.803,-29.9153 z m 166.83,-31.3545 c -22.1195,0 -39.7157,0.7196 -48.7794,2.1759 -14.3237,1.9875 -23.3874,10.3316 -25.7518,23.3874 -1.2679,6.8877 -1.4564,10.1602 -1.4564,34.627 0,28.8359 0,30.8405 1.4564,38.0881 2.3644,13.0558 11.4281,21.3998 25.7518,23.3873 8.8752,1.4564 26.6599,2.176 48.7794,2.176 21.931,0 39.7157,-0.7196 48.5909,-2.176 14.3237,-1.9875 23.3874,-10.3315 25.7518,-23.3873 1.2679,-7.0762 1.4564,-9.8005 1.4564,-36.4432 0,-26.4715 -0.1885,-29.1957 -1.4564,-36.2719 -2.3644,-13.0558 -11.4281,-21.3999 -25.7518,-23.3874 -9.0808,-1.4563 -26.6599,-2.1759 -48.5909,-2.1759 z m -2.3644,31.3545 c 40.6066,0 41.3434,0.5483 41.3434,30.4807 0,30.0866 -0.5483,30.6349 -41.5148,30.6349 -35.3638,0 -36.6316,-1.0795 -36.6316,-31.1832 0,-28.6474 1.6277,-29.9153 36.803,-29.9153 z m 140.8896,-29.9153 -44.239,37.8995 20.3034,23.7644 35.7236,-30.1038 h 9.6119 v 89.4032 h 36.8201 v -120.9633 z m 150.8786,80.8878 v 5.7911 c 0,16.6882 2.7071,23.7643 11.0512,29.0244 8.5325,5.4313 23.216,7.059 60.7558,7.059 36.0833,0 51.3151,-0.9081 58.5626,-3.6152 12.5076,-4.7289 17.5963,-15.0604 17.5963,-36.0834 0,-16.8766 -3.0841,-25.015 -11.4282,-30.4635 -7.7958,-4.9002 -15.5915,-5.8255 -55.4957,-7.0762 -25.5634,-0.7196 -35.5351,-1.2679 -38.7905,-2.176 -3.8208,-0.9081 -5.4485,-3.2554 -5.4485,-7.7958 0,-8.8923 2.5358,-9.6119 33.7361,-9.6119 26.1116,0 30.6349,0.3598 33.7189,2.1759 2.7243,1.6277 3.2554,3.2554 3.6323,9.9718 h 35.5351 c 0.1714,-2.3644 0.1714,-4.9002 0.1714,-5.6198 0,-14.3237 -2.8956,-21.931 -10.1431,-26.8312 -8.5154,-5.8255 -21.2114,-7.436 -56.3867,-7.436 -29.0244,0 -45.6954,0.7196 -52.7715,2.1759 -16.6882,3.6152 -23.2161,13.9639 -23.2161,36.9915 0,26.6428 8.3441,34.2672 38.2594,35.1753 l 9.8004,0.3598 19.5837,0.9081 29.0072,1.0794 c 11.7879,0.1885 14.5122,2.0046 14.5122,9.2522 0,10.7085 0,10.7085 -39.5273,10.7085 -25.9402,0 -29.9324,-0.377 -33.3762,-2.553 -2.9127,-1.799 -3.6152,-4.1634 -3.6152,-11.4109 z m 240.6244,12.6788 c -1.2679,7.6245 -5.0887,9.0809 -25.5805,9.0809 -11.5994,0 -18.2987,-1.0966 -21.7596,-3.6324 -3.0841,-2.3644 -3.975,-5.26 -3.975,-13.9639 h 83.7833 c 0.1713,-3.6323 0.1713,-7.6244 0.1713,-8.7038 0,-19.3953 -2.9127,-29.0072 -10.52,-35.3638 -7.7958,-6.3394 -17.956,-8.1556 -46.9632,-8.1556 -27.9278,0 -38.6192,1.8162 -46.9632,7.6244 -9.0809,6.3395 -11.6166,14.8549 -11.6166,37.8825 0,21.9481 2.5529,30.4635 10.8798,36.8201 7.7958,5.8083 19.5837,7.9842 44.4275,7.9842 45.8838,0 57.6717,-5.8254 60.019,-29.5726 z m -51.3151,-26.1116 c 0.3426,-11.9592 5.4313,-14.6835 27.0197,-14.6835 12.6788,0 19.2067,1.2679 22.1023,4.3519 2.0046,2.0047 2.3645,3.6324 2.5529,10.3316 z m 95.9139,-32.2626 v 85.7537 h 32.0913 v -35.5351 c 0,-13.2271 0.908,-17.956 3.9921,-22.1195 3.084,-3.9921 9.0808,-6.1681 16.3283,-6.1681 13.2272,0 16.8595,3.4439 16.8595,16.1399 h 30.2751 v -5.8083 c 0,-25.7347 -8.7039,-34.4385 -34.627,-34.4385 -17.9561,0 -27.0198,4.1634 -32.9994,15.0433 h -1.6277 v -12.8674 z m 108.6271,0 v 85.7537 h 32.0912 v -85.7537 z m 0,-35.1924 v 24.1241 h 32.0912 v -24.1241 z m 127.6454,93.5666 c -1.2679,7.6245 -5.0716,9.0809 -25.5634,9.0809 -11.5994,0 -18.3158,-1.0966 -21.7596,-3.6324 -3.0841,-2.3644 -3.9922,-5.26 -3.9922,-13.9639 h 83.7834 c 0.1713,-3.6323 0.1713,-7.6244 0.1713,-8.7038 0,-19.3953 -2.9127,-29.0072 -10.52,-35.3638 -7.7958,-6.3394 -17.9389,-8.1556 -46.9461,-8.1556 -27.9278,0 -38.6363,1.8162 -46.9804,7.6244 -9.0637,6.3395 -11.5994,14.8549 -11.5994,37.8825 0,21.9481 2.5357,30.4635 10.8798,36.8201 7.7958,5.8083 19.5837,7.9842 44.4275,7.9842 45.8666,0 57.6546,-5.8254 60.019,-29.5726 z m -51.3152,-26.1116 c 0.3598,-11.9592 5.4485,-14.6835 27.0197,-14.6835 12.6789,0 19.2239,1.2679 22.1195,4.3519 2.0046,2.0047 2.3645,3.6324 2.5358,10.3316 z m 93.1897,26.1116 c 0.2056,9.9889 2.3816,15.9686 7.6245,20.6803 7.6244,7.0762 18.3329,8.8752 49.5161,8.8752 49.6875,0 61.2869,-5.6198 61.2869,-30.0866 0,-19.2239 -9.4234,-26.4714 -34.2672,-26.6599 -33.0164,-0.1713 -38.6363,-0.3598 -43.8963,-0.7196 -5.0715,-0.377 -7.6073,-2.176 -7.6073,-5.6198 0,-5.4485 6.1681,-7.0762 26.2829,-7.0762 10.8799,0 17.4078,0.7196 20.132,2.5358 1.0966,0.7196 1.4564,1.2678 2.176,3.9921 h 32.6395 c -0.7196,-10.3316 -2.3473,-14.872 -6.8877,-18.5043 -7.2475,-6.1681 -17.956,-7.9671 -47.1517,-7.9671 -22.4793,0 -37.5226,1.2678 -44.4274,3.975 -10.1431,3.8208 -14.8549,11.7879 -14.8549,25.0322 0,18.3158 10.1431,25.9231 34.4386,26.3001 31.5601,0 39.5444,0.1713 43.8963,0.5311 4.7117,0.5483 7.436,2.9127 7.436,6.3394 0,6.1681 -5.9968,7.9843 -26.8484,7.9843 -20.132,0 -26.2829,-2.176 -26.8312,-9.5948 z" id="path45"/>
    </g>
</svg>
