<?xml version='1.0' encoding='utf-8'?>
<svg xmlns="http://www.w3.org/2000/svg" width="600" height="189.7792657242744" xml:space="preserve" version="1.1" id="svg7" viewBox="0 0 566.926 179.318">
    <defs id="defs7"/>
    <linearGradient id="a" gradientUnits="userSpaceOnUse" x1="478.707" y1="416.162" x2="478.707" y2="513.925" gradientTransform="matrix(0.96312228,0,0,0.92727053,10.366787,-377.2981)">
        <stop offset="0" style="stop-color:#33438a" id="stop1"/>
        <stop offset="1" style="stop-color:#0098df" id="stop2"/>
    </linearGradient>
    <g id="path2" style="opacity:1">
        <path style="baseline-shift:baseline;display:inline;overflow:visible;vector-effect:none;fill:#ffffff;paint-order:markers stroke fill;enable-background:accumulate;stop-color:#000000;stop-opacity:1" d="M 379.2793,1.5097656 V 22.162109 H 542.64648 V 43.595703 H 379.2793 V 106.33594 H 563.56055 V 85.683594 H 400.1875 V 64.25 H 563.56055 V 1.5097656 Z" id="path10"/>
        <path style="baseline-shift:baseline;display:inline;overflow:visible;vector-effect:none;fill:url(#a);paint-order:markers stroke fill;enable-background:accumulate;stop-color:#000000;stop-opacity:1" d="m 549.73453,15.074565 v 35.608116 h -163.3677 v 48.565798 h 170.1057 V 92.771491 H 393.09906 V 57.162447 H 556.47253 V 8.5966534 h -170.1057 v 6.4779116 z" id="path11"/>
    </g>
    <linearGradient id="b" gradientUnits="userSpaceOnUse" x1="270.465" y1="416.162" x2="270.465" y2="513.925" gradientTransform="matrix(0.96312228,0,0,0.92727053,10.366787,-377.2981)">
        <stop offset="0" style="stop-color:#33438a" id="stop3"/>
        <stop offset="1" style="stop-color:#0098df" id="stop4"/>
    </linearGradient>
    <g id="path4" style="opacity:1">
        <path style="baseline-shift:baseline;display:inline;overflow:visible;vector-effect:none;fill:#ffffff;paint-order:markers stroke fill;enable-background:accumulate;stop-color:#000000;stop-opacity:1" d="M 260.24219,1.5097656 V 85.683594 h -86.76953 v 20.652346 h 108 V 22.162109 h 86.77148 V 1.5097656 Z" id="path12"/>
        <path style="baseline-shift:baseline;display:inline;overflow:visible;vector-effect:none;fill:url(#b);paint-order:markers stroke fill;enable-background:accumulate;stop-color:#000000;stop-opacity:1" d="M 361.15614,8.5966534 V 15.074565 H 274.38557 V 99.248479 H 180.56012 V 92.771491 H 267.3307 V 8.5966534 Z" id="path13"/>
    </g>
    <linearGradient id="c" gradientUnits="userSpaceOnUse" x1="88.399" y1="416.162" x2="88.399" y2="513.925" gradientTransform="matrix(0.96312228,0,0,0.92727053,10.366787,-377.2981)">
        <stop offset="0" style="stop-color:#33438a" id="stop5"/>
        <stop offset="1" style="stop-color:#0098df" id="stop6"/>
    </linearGradient>
    <g id="path6" style="opacity:1">
        <path style="baseline-shift:baseline;display:inline;overflow:visible;vector-effect:none;fill:#ffffff;paint-order:markers stroke fill;enable-background:accumulate;stop-color:#000000;stop-opacity:1" d="M 3.3652344,1.5097656 V 22.052734 L 166.74805,22.158203 v 21.4375 H 3.3652344 V 106.33594 H 24.269531 V 64.25 H 187.64844 V 1.5097656 Z" id="path14"/>
        <path style="baseline-shift:baseline;display:inline;overflow:visible;vector-effect:none;fill:url(#c);paint-order:markers stroke fill;enable-background:accumulate;stop-color:#000000;stop-opacity:1" d="M 17.181841,99.248479 V 57.162447 H 180.56012 V 8.5966534 H 10.453468 V 14.969783 L 173.83657,15.074565 V 50.682681 H 10.453468 v 48.565798 z" id="path15"/>
    </g>
    <path style="baseline-shift:baseline;display:inline;overflow:visible;vector-effect:none;fill:#ffffff;paint-order:markers stroke fill;enable-background:accumulate;stop-color:#000000" d="m 362.76367,135.84184 -13.85937,0.2539 v 28.88867 h 9.86328 v -21.0664 l 2.70508,-0.11133 c 0.92086,0.004 1.87468,0.48551 1.80273,0.39648 -7e-5,-9e-5 0.002,1e-4 0.002,0 0.43262,0.53255 0.61719,0.8324 0.61719,2.07813 v 18.70703 h 9.89844 V 145.875 c 0,-3.67035 -1.38372,-6.45858 -3.45703,-8.03906 l -0.004,-0.002 c -1.65056,-1.25971 -3.49784,-1.63894 -4.94726,-1.83789 -1.44407,-0.19821 -2.59901,-0.15469 -2.60938,-0.15429 z m -8.72265,4.88486 v 19.53321 h -0.41211 v -19.5254 z m 13.03125,0.73245 c 0.1003,0.0559 0.3193,0.0753 0.39453,0.13282 l 0.002,0.002 c 0.96451,0.73441 1.59961,1.61285 1.59961,4.28125 v 14.38867 h -0.44727 v -13.98242 c 0,-1.97282 -0.65244,-3.62372 -1.54882,-4.82227 z" id="path16"/>
    <path style="baseline-shift:baseline;display:inline;overflow:visible;vector-effect:none;fill:#ffffff;paint-order:markers stroke fill;enable-background:accumulate;stop-color:#000000" d="m 334.69141,135.64066 c -3.86427,0 -6.9799,0.70748 -9.16211,2.39844 l -0.004,0.002 -0.004,0.004 c -1.98678,1.55205 -4.19531,5.00421 -4.19531,12.38867 0,7.38708 2.21479,10.83755 4.18945,12.39258 l 0.008,0.006 0.008,0.006 c 2.18359,1.69096 5.29713,2.39453 9.16016,2.39453 3.85693,0 6.97514,-0.69776 9.16015,-2.39648 l 0.004,-0.004 0.002,-0.002 c 1.98818,-1.55752 4.19922,-5.01028 4.19922,-12.39649 0,-7.38385 -2.20209,-10.83866 -4.20508,-12.39257 -2.1853,-1.70055 -5.30366,-2.4004 -9.16015,-2.4004 z m -5.33594,5.52354 c -0.001,0.002 -0.002,0.006 -0.004,0.008 -0.002,0.002 -0.004,0.002 -0.006,0.004 z m -0.13477,0.27735 c -1.10169,1.41638 -2.00586,3.84524 -2.00586,8.99218 0,5.16988 0.91478,7.59705 2.01172,9.00196 -0.23325,-0.11411 -0.66002,-0.22651 -0.79687,-0.33203 -0.96652,-0.76267 -2.37891,-2.1243 -2.37891,-8.66993 0,-6.54877 1.41848,-7.91333 2.37305,-8.66015 l 0.004,-0.002 c 0.13586,-0.10495 0.56156,-0.21644 0.79297,-0.33007 z m 11.3711,0.18185 c 0.0809,0.0497 0.29886,0.10135 0.35937,0.14843 l 0.002,0.002 c 0.95329,0.73902 2.37696,2.09278 2.37696,8.66015 0,6.55903 -1.4143,7.91449 -2.38281,8.67383 -0.0614,0.0476 -0.28101,0.10018 -0.36329,0.15039 1.04129,-1.42043 1.92188,-3.80184 1.92188,-8.82422 0,-4.99916 -0.87337,-7.38098 -1.91406,-8.81054 z m -5.74024,2.04101 c 1.16681,0 1.76321,0.39642 1.91406,0.56446 0.26925,0.32179 1.01563,1.37611 1.01563,6.20507 0,4.85171 -0.7479,5.88493 -1.01563,6.20313 -0.15583,0.17641 -0.75019,0.57617 -1.91406,0.57617 -1.15975,0 -1.77343,-0.42537 -1.88867,-0.5625 l -0.004,-0.004 -0.004,-0.006 c -0.26425,-0.31071 -1.01367,-1.33647 -1.01367,-6.20703 0,-4.85494 0.7589,-5.90941 1.01367,-6.20898 l 0.004,-0.006 0.006,-0.006 c 0.1052,-0.12535 0.71487,-0.54883 1.88672,-0.54883 z" id="path7"/>
    <path style="baseline-shift:baseline;display:inline;overflow:visible;vector-effect:none;fill:#ffffff;paint-order:markers stroke fill;enable-background:accumulate;stop-color:#000000" d="m 255.79687,131.4766 v 25.82617 l 0.004,0.0684 c 0,0 0.0755,1.91798 0.27539,3.12696 l 0.002,0.008 0.002,0.008 c 0.20756,1.20336 0.80259,2.10882 1.89258,2.99219 1.08998,0.88337 2.7024,1.51758 4.66015,1.51758 h 0.0254 l 7.69336,-0.15821 v -4.76171 c 0.80717,1.72655 2.0557,3.12713 3.84571,3.83007 1.63231,0.64092 3.40657,0.81062 4.9121,0.92383 1.50554,0.11321 2.71875,0.10742 2.71875,0.10742 h 0.0176 l 12.22657,-0.2539 v -18.83008 c 0,-3.66876 -1.3734,-6.45761 -3.44532,-8.03906 h -0.002 c -1.6518,-1.26218 -3.50164,-1.64087 -4.95313,-1.83985 -1.44653,-0.1983 -2.60462,-0.15463 -2.61328,-0.15429 h -0.01 l -10.46485,0.27148 v 7.96875 l 9.18164,-0.27734 c 0.90624,0.004 1.86809,0.47505 1.81446,0.40625 0.24356,0.30145 0.38904,0.59593 0.48242,0.97851 h -3.82617 l 0.0976,0.002 c 0,0 -1.17255,-0.0502 -2.625,0.14453 -1.45244,0.19473 -3.30337,0.56889 -4.95898,1.82812 l -0.006,0.004 -0.004,0.004 c -2.05942,1.58518 -3.44531,4.37342 -3.44531,8.04688 0,0.6351 0.11165,1.23763 0.19922,1.84766 l -1.67383,0.12109 c 0,0 -1.26922,0.0772 -1.99804,0.0898 -0.0866,-1.04087 -0.13672,-2.30078 -0.13672,-2.30078 v -11.41406 h 5.83203 v -7.72461 h -5.83203 v -4.36719 z m 4.72461,4.72471 h 0.43946 l -0.002,2.64258 v 1.72461 14.41406 c 0,0 -0.01,1.7831 0.21094,3.45313 8e-5,5.9e-4 -7e-5,0.001 0,0.002 0.0714,0.56847 0.33123,1.12543 0.64063,1.63477 -0.27629,-0.0918 -0.73489,-0.13423 -0.86328,-0.23829 -0.12355,-0.10012 -0.19271,-0.2396 -0.22461,-0.30273 -0.0579,-0.51247 -0.19566,-2.31397 -0.20118,-2.38867 z m 26.84961,5.26584 c 0.0971,0.0545 0.31167,0.073 0.38477,0.1289 l 0.002,0.002 c 0.95362,0.72759 1.58985,1.61192 1.58985,4.2832 v 14.20312 l -0.43946,0.01 v -13.80859 c 0,-1.96593 -0.64131,-3.61575 -1.53711,-4.81836 z m -11.48242,9.37279 c -0.63719,1.03948 -1.17383,2.34772 -1.17383,3.98243 0,1.25821 0.11433,2.34695 0.5293,3.38085 0.2372,0.591 0.72755,0.95401 1.13672,1.41211 -0.11049,-0.032 -0.37407,-0.0463 -0.45508,-0.0781 -1.09987,-0.43193 -1.9043,-1.61385 -1.9043,-4.3125 0,-2.65075 0.64957,-3.5649 1.5918,-4.29297 0.0524,-0.0398 0.21035,-0.0526 0.27539,-0.0918 z m 5.73047,1.90625 h 2.5625 v 4.37305 l -1.07617,0.0625 c -1.75034,-0.006 -3.16962,-0.3851 -3.15625,-0.375 -0.25617,-0.18036 -0.2438,-0.17265 -0.32031,-0.36328 -0.077,-0.19171 -0.18946,-0.68909 -0.18946,-1.62109 0,-1.28835 0.0178,-1.13123 0.55469,-1.79102 -0.0274,0.0333 0.58908,-0.28516 1.625,-0.28516 z" id="path5"/>
    <path style="baseline-shift:baseline;display:inline;overflow:visible;vector-effect:none;fill:#ffffff;paint-order:markers stroke fill;enable-background:accumulate;stop-color:#000000" d="m 310.82812,128.41606 v 7.42773 h -5.55078 v -2.00586 l -0.01,-2.46567 -2.35168,0.10435 h -2.36524 -5.17383 v 25.82422 l 0.004,0.0684 c 0,0 0.0692,1.89722 0.28125,3.13672 0.20271,1.20473 0.79439,2.11356 1.88281,2.99805 1.08979,0.88559 2.70468,1.51953 4.66406,1.51953 h 0.0254 l 7.69727,-0.15821 v -7.85546 l -2.53125,0.18359 c 0,0 -1.25476,0.0766 -1.99414,0.0898 -0.0813,-1.04346 -0.13086,-2.30078 -0.13086,-2.30078 V 143.5684 h 5.55273 v 21.45898 h 9.89454 v -27.44922 -1.73437 -7.42773 z" id="path20"/>
    <path style="baseline-shift:baseline;display:inline;overflow:visible;vector-effect:none;fill:#ffffff;paint-order:markers stroke fill;enable-background:accumulate;stop-color:#000000" d="m 300.31836,159.71104 c 0.002,0.0125 -4.1e-4,-0.002 0.002,0.0117 l -0.002,-0.006 z" id="path19"/>
    <path style="baseline-shift:baseline;display:inline;overflow:visible;vector-effect:none;fill:#ffffff;paint-order:markers stroke fill;enable-background:accumulate;stop-color:#000000" d="m 315.55273,140.5685 h 0.44532 v 19.73437 h -0.44532 z" id="path18"/>
    <path style="baseline-shift:baseline;display:inline;overflow:visible;vector-effect:none;fill:#ffffff;paint-order:markers stroke fill;enable-background:accumulate;stop-color:#000000" d="m 300.10156,136.20131 h 0.44922 v 2.64258 1.72461 14.41406 c 0,0 -0.0116,1.791 0.19922,3.45703 v 0.004 l 0.002,0.002 c 0.0732,0.56756 0.33366,1.12201 0.64258,1.62891 -0.27939,-0.0919 -0.74152,-0.13457 -0.86914,-0.23828 -0.12222,-0.0993 -0.19223,-0.23763 -0.22266,-0.29883 -0.0546,-0.4694 -0.19545,-2.31634 -0.20117,-2.39258 z" id="path17"/>
    <path style="baseline-shift:baseline;display:inline;overflow:visible;vector-effect:none;fill:#ffffff;paint-order:markers stroke fill;enable-background:accumulate;stop-color:#000000" d="m 302.91602,135.84584 0.17773,0.17578 -0.17773,0.17774 z" id="path3"/>
    <path style="baseline-shift:baseline;display:inline;overflow:visible;vector-effect:none;fill:#ffffff;paint-order:markers stroke fill;enable-background:accumulate;stop-color:#000000" d="m 160.41602,128.41406 -13.64649,0.002 v 36.61132 h 9.89844 v -12.46289 h 5.31836 l -0.0996,-0.004 c 0,0 1.21997,0.0556 2.69336,-0.14844 1.47339,-0.20404 3.35917,-0.54595 4.92383,-2.07617 l 0.002,-0.002 0.002,-0.002 c 1.39216,-1.36841 2.24197,-2.98588 2.74805,-4.76562 v 19.46093 h 9.90625 v -9.71289 c 0.0255,3.81912 1.62323,7.33779 4.89648,8.61914 8.7e-4,3.4e-4 0.001,0.002 0.002,0.002 1.62902,0.64106 3.39819,0.80878 4.90039,0.92187 1.50403,0.11324 2.71484,0.10742 2.71484,0.10742 h 0.0176 l 12.24219,-0.2539 v -18.83008 c 0,-1.29149 -0.22312,-2.4288 -0.53516,-3.48633 l 7.78711,19.65234 -6.44336,15.18946 h 9.41992 l 14.67774,-34.4336 c 0.1258,0.72702 0.12495,1.706 0.33593,2.27149 0.47096,1.26226 1.17593,2.1449 1.58008,2.61523 l 0.0234,0.0274 0.0254,0.0254 c 1.63908,1.79522 3.94442,2.84514 6.38477,2.93554 1.58637,0.0767 2.97227,0.23882 3.97461,0.32813 l 0.0137,0.002 0.0137,0.002 c 0.51604,0.0401 0.60482,0.25156 0.63867,0.32226 -0.0507,-0.0993 0.13597,0.50652 0.21289,1.10547 0.0787,0.61281 0.11914,1.30159 0.11914,1.61719 0,0.0264 -0.097,0.94156 -0.26172,1.64258 -0.0824,0.3505 -0.18011,0.68298 -0.25586,0.88671 -0.0593,0.15953 -0.0356,0.0931 0.0859,-0.0469 -0.49669,0.50596 -0.84244,0.75781 -3.0039,0.75781 -0.85127,0 -6.51172,-0.20312 -6.51172,-0.20312 L 232.76562,157 v 7.75977 l 10.25391,0.26953 h 0.0312 c 0,0 2.24281,0.0383 4.05859,-0.27735 1.44702,-0.2405 3.44345,-0.73508 5.08594,-2.34179 2.06728,-1.98705 2.86524,-5.14021 2.86524,-9.53516 0,-4.37661 -1.20289,-6.90174 -2.34571,-8.21484 l -0.002,-0.002 c -1.1212,-1.28928 -3.2704,-2.83254 -6.39648,-2.98242 h -0.002 c -1.57679,-0.0741 -2.94062,-0.24619 -4.00586,-0.32422 -0.52874,-0.0458 -0.62888,-0.28111 -0.64257,-0.31054 0.0692,0.14856 -0.11482,-0.4419 -0.17774,-1.01368 -0.0629,-0.57177 -0.0879,-1.21496 -0.0879,-1.57617 0,-0.0973 0.0653,-0.611 0.18555,-1.00976 0.11784,-0.39075 0.37795,-0.71782 0.1582,-0.48633 0.3675,-0.37722 0.47385,-0.46079 0.68359,-0.54492 0.21641,-0.0868 0.7226,-0.20704 1.82618,-0.20704 0.86173,0 6.32812,0.19336 6.32812,0.19336 l 2.44922,0.0918 v -7.75586 l -9.57422,-0.27734 h -0.043 c 0,0 -2.2403,-0.0185 -4.02539,0.28515 -1.44082,0.2416 -3.44472,0.72671 -5.10156,2.32618 l -0.004,0.004 -0.004,0.002 c -1.06115,1.03361 -1.76945,2.73093 -2.25586,4.77148 h -7.20703 l -5.10157,13.39258 -4.75195,-13.39258 h -11.1582 l 1.86523,4.70508 c -0.57991,-1.09282 -1.3036,-2.02959 -2.18555,-2.70508 l -0.002,-0.002 c -1.65218,-1.26253 -3.50154,-1.6408 -4.95312,-1.83985 -1.4462,-0.19831 -2.60463,-0.15463 -2.61328,-0.15429 h -0.01 l -10.48047,0.27148 v 7.96875 l 9.1875,-0.27734 c 0.91327,0.004 1.88387,0.48764 1.81445,0.40234 0.24664,0.30549 0.39345,0.60051 0.48829,0.98242 h -3.83204 l 0.0977,0.002 c 0,0 -1.16918,-0.0503 -2.61914,0.14453 -1.44996,0.19485 -3.29952,0.5693 -4.95313,1.82812 l -0.002,0.002 -0.004,0.002 c -2.05271,1.57096 -3.41462,4.33184 -3.44141,7.94922 V 128.4162 h -9.90625 v 7.16601 c -0.73451,-2.55053 -2.13972,-4.84427 -4.70508,-5.97851 -1.58277,-0.70627 -3.25977,-0.92023 -4.64453,-1.05469 -1.38698,-0.13468 -2.49023,-0.13477 -2.49023,-0.13477 z m -8.92188,4.7266 h 0.44727 v 27.16211 h -0.44727 z m 25.48633,0 h 0.45703 v 27.16211 h -0.45703 z m -11.31641,0.8125 c 1.33559,0.61711 2.53125,3.08248 2.53125,5.93555 0,3.39867 -0.47069,5.30714 -1.8457,6.80274 0.63868,-1.13399 0.71783,-2.08299 0.82422,-3.11914 0.11309,-1.10146 0.13672,-2.22354 0.13672,-3.10938 0,-1.72402 0.0596,-4.28033 -1.64649,-6.50977 z m 72.33789,0.33399 c -0.41369,0.60764 -0.76096,1.19918 -0.93945,1.79101 -0.23609,0.78281 -0.38867,1.53841 -0.38867,2.37305 0,0.55493 0.0301,1.30244 0.11719,2.09375 0.0871,0.79131 0.14798,1.53679 0.59179,2.49024 0.74169,1.59263 2.41372,2.84119 4.51758,3.02343 l 0.0176,0.002 0.0176,0.002 c 0.80877,0.0583 2.35311,0.24918 4.15429,0.33398 1.66891,0.08 2.66724,0.91522 3.05664,1.36329 l 0.002,0.002 c 0.36695,0.42134 1.1875,1.53747 1.1875,5.11328 0,3.55063 -1.35414,6.0737 -1.41797,6.13477 l -0.01,0.0117 -0.0117,0.01 c -0.0723,0.071 -0.28322,0.0884 -0.38086,0.15625 0.19024,-0.32021 0.45075,-0.66695 0.5586,-0.95703 0.17752,-0.47749 0.31277,-0.96388 0.42773,-1.45313 0.22992,-0.9785 0.38672,-1.8273 0.38672,-2.72265 0,-0.61909 -0.0505,-1.39545 -0.15625,-2.21875 -0.10574,-0.82331 -0.17978,-1.57508 -0.62109,-2.52344 l -0.008,-0.0156 -0.008,-0.0156 c -0.74574,-1.54266 -2.41082,-2.81729 -4.53711,-2.98242 -0.869,-0.078 -2.38754,-0.25907 -4.16601,-0.34375 h -0.0137 -0.0117 c -1.18454,-0.0439 -2.28422,-0.55667 -3.04688,-1.37891 -0.32436,-0.37729 -0.50105,-0.57606 -0.71679,-1.1543 -0.22202,-0.59506 -0.44922,-1.62018 -0.44922,-3.41796 0,-3.54375 0.98883,-5.12067 1.41797,-5.54102 0.0824,-0.0792 0.31576,-0.10053 0.42968,-0.17578 z m -81.33398,1.91416 h 2.42969 0.006 c 0,0 0.67342,0.001 1.45312,0.14258 0.77733,0.14079 1.44116,0.57189 1.3457,0.44922 0.23695,0.30136 0.6836,2.29666 0.6836,3.66992 0,0.78603 -0.0272,1.78707 -0.11328,2.625 -0.086,0.83793 -0.40109,1.6087 -0.22266,1.32031 l -0.004,0.004 -0.002,0.004 c -0.35508,0.57948 -0.64486,0.5957 -1.63672,0.5957 h -3.93945 z m 54.0918,4.36719 h 0.86718 l 7.28125,20.52539 -0.008,0.0195 z m -10.53907,0.89665 c 0.099,0.0553 0.3162,0.0741 0.39063,0.13086 0.95461,0.73115 1.59961,1.6201 1.59961,4.28516 v 14.20312 l -0.44727,0.01 V 146.2857 c 0,-1.97246 -0.65101,-3.62295 -1.54297,-4.82032 z m -11.4707,9.37079 c -0.64442,1.04699 -1.17773,2.35993 -1.17773,3.98633 0,1.2544 0.10956,2.34017 0.52343,3.37695 0.23625,0.5918 0.73074,0.95601 1.14258,1.41601 -0.10893,-0.0316 -0.3716,-0.0467 -0.45117,-0.0781 h -0.002 l -0.004,-0.002 c -1.10965,-0.43387 -1.9043,-1.60866 -1.9043,-4.31055 0,-2.66068 0.64772,-3.56925 1.59766,-4.29688 0.0527,-0.0399 0.21015,-0.0525 0.27539,-0.0918 z m 5.72461,1.91025 h 2.56445 v 4.37305 l -1.07812,0.0625 c -1.7562,-0.006 -3.16648,-0.38217 -3.15625,-0.375 l -0.002,-0.002 -0.002,-0.002 c -0.26179,-0.18246 -0.24102,-0.16662 -0.31641,-0.35546 -0.0754,-0.18885 -0.1875,-0.68919 -0.1875,-1.625 0,-1.30613 0.007,-1.1208 0.55469,-1.78711 -0.0132,0.0169 0.579,-0.28907 1.62305,-0.28907 z" id="path1"/>
    <path style="baseline-shift:baseline;display:inline;overflow:visible;vector-effect:none;fill:#ffffff;paint-order:markers stroke fill;enable-background:accumulate;stop-color:#000000" d="m 406.77734,122.64258 c -7.88675,0.11197 -15.60156,0.42773 -15.60156,0.42773 l -2.26562,0.0937 v 8.49805 l 2.41406,-0.0527 c 0,0 7.86095,-0.17187 14.56445,-0.15429 h 0.004 0.002 c 2.22613,0 2.04654,0.11577 2.79492,0.91992 -0.0573,-0.0601 0.60352,1.50383 0.60352,3.16602 0,1.78172 -0.2669,2.34268 -0.8418,3.05664 l -0.006,0.008 -0.004,0.006 c -0.19485,0.2454 -0.1657,0.23531 -0.47461,0.34179 -0.3084,0.10631 -1.03017,0.23272 -2.30469,0.22071 -0.50023,-0.009 -1.70092,-0.0411 -2.88281,-0.0918 h -0.0195 l -0.0195,-0.002 c -1.76819,-0.0463 -3.07981,0.0386 -3.64257,0.0625 h -0.008 l -0.006,0.002 c -3.85743,0.18637 -6.8977,1.70484 -8.64843,3.73242 v 0.002 l -0.002,0.002 c -0.86608,1.00716 -1.75722,2.26834 -2.19922,4.02734 -0.44199,1.759 -0.58144,3.93121 -0.63671,7.58203 v 0.0176 6.16992 c 0,1.60528 0.69051,3.11386 1.75586,4.05274 1.06534,0.93888 2.39027,1.34961 3.67968,1.34961 l 1.08789,0.008 h 25.17578 v -8.76562 h -20.86132 v -5.82618 c 0.0504,-1.36651 0.11723,-2.18506 0.19336,-2.50976 0.0761,-0.32454 0.0276,-0.24216 0.34179,-0.56836 0.0796,-0.0805 0.62092,-0.39351 1.28321,-0.5586 0.65686,-0.16372 1.39502,-0.22763 1.70312,-0.23437 l 6.08008,0.17383 h 0.0332 c 5.41663,0 8.66833,-1.83335 10.25196,-4.09571 l 0.002,-0.002 v -0.002 c 1.66652,-2.38864 1.8952,-5.07163 1.82812,-8.83985 v -0.002 c -0.0684,-3.72649 -0.81041,-6.29152 -2.54101,-8.4375 -1.96326,-2.4609 -5.53122,-3.86365 -10.82813,-3.77734 z m 3.37305,5.13086 c 1.91103,0.37643 3.25221,0.94413 3.76953,1.59375 l 0.006,0.008 0.006,0.006 c 1.15977,1.43531 1.43549,2.25948 1.49609,5.5625 0.0637,3.57948 -0.0793,4.76383 -0.97851,6.05273 -0.49996,0.71366 -1.77606,1.35603 -3.95508,1.72266 0.59674,-0.37798 1.27798,-0.70948 1.64258,-1.16797 1.19431,-1.48843 1.88086,-3.52964 1.88086,-6.00976 0,-2.33307 -0.18265,-4.53049 -1.82813,-6.34571 l -0.0176,-0.0176 -0.0156,-0.0176 c -0.46642,-0.49378 -1.20075,-0.96544 -2.00586,-1.38672 z m -13.9043,16.87925 c -0.22234,0.16983 -0.45868,0.25901 -0.66992,0.47657 l -0.004,0.004 -0.004,0.004 c -0.69062,0.71847 -1.29644,1.73661 -1.53906,2.77148 -0.24263,1.03487 -0.26484,2.02089 -0.31641,3.44141 l -0.002,0.043 v 9.96679 l -0.66992,-0.004 h -0.008 c -0.26024,0 -0.47079,-0.096 -0.55468,-0.16992 -0.0839,-0.0739 -0.15625,-0.087 -0.15625,-0.50782 v -6.11718 c 0.0535,-3.53737 0.23666,-5.47534 0.49414,-6.5 0.257,-1.02282 0.44487,-1.22083 1.19726,-2.09571 0.27538,-0.31892 1.13523,-0.84562 2.23242,-1.3125 z" id="path8"/>
    <path style="baseline-shift:baseline;display:inline;overflow:visible;vector-effect:none;fill:#1f1a17;paint-order:markers stroke fill;enable-background:accumulate;stop-color:#000000" d="m 149.13248,130.77846 v 31.88605 h 5.17197 v -28.82606 h 4.78864 c 0,0 3.47109,-0.014 4.66344,1.48734 1.00742,1.275 1.19234,3.57741 1.19234,5.13801 0,1.67187 -0.10594,4.24226 -0.69055,5.18715 -0.88126,1.43819 -2.32113,1.7238 -3.6512,1.7238 h -3.15904 v 2.82631 h 4.53823 c 0,0 4.09808,0.17433 5.86541,-1.5541 2.16029,-2.12345 2.70638,-4.95905 2.70638,-8.759 0,-3.46428 -1.30022,-6.94896 -3.96421,-8.12567 -2.20363,-0.98569 -6.17747,-0.98569 -6.17747,-0.98569 z m 25.48614,31.88605 h 5.1816 v -31.88605 h -5.1816 z m 32.66333,-24.45862 9.45882,23.87073 -5.42816,12.79634 h 4.29071 l 15.62956,-36.66707 h -4.78768 l -6.81024,17.87222 -6.34024,-17.87222 z m 27.84579,24.25276 v -3.00621 c 0,0 5.46476,0.20493 6.60028,0.20493 2.52627,0 3.78218,-0.52206 4.72797,-1.49198 0.5615,-0.5814 1.07003,-3.18888 1.07003,-4.11059 0,-0.93468 -0.1801,-2.93388 -0.55766,-3.74524 -0.38909,-0.80488 -1.26746,-1.55319 -2.59272,-1.65611 -0.93711,-0.0835 -2.40202,-0.25686 -4.09616,-0.33753 a 6.6359125,6.388894 0 0 1 -4.72892,-2.1661 c -0.74739,-0.86978 -1.75964,-2.1522 -1.75964,-6.14688 0,-3.97427 1.06907,-6.19694 2.13718,-7.23734 1.07677,-1.03948 2.65147,-1.49476 3.85152,-1.69598 1.3792,-0.23553 3.6512,-0.25129 3.6512,-0.25129 l 7.23882,0.20863 v 3.009 c 0,0 -5.28176,-0.19566 -6.41535,-0.19566 -2.52627,0 -3.28232,0.51186 -4.22811,1.48734 -0.55283,0.58789 -0.98912,2.19115 -0.98912,3.12305 0,0.91614 0.11268,2.78181 0.48734,3.58669 0.37754,0.81135 1.26361,1.5541 2.5802,1.66815 0.93904,0.0677 2.40299,0.25129 4.09904,0.33104 2.39818,0.11498 3.97192,1.30467 4.72702,2.17352 0.75508,0.867 1.76828,2.68723 1.76828,6.6643 0,3.97706 -1.07676,6.81914 -2.1468,7.84285 -1.06906,1.0506 -2.63895,1.50774 -3.84285,1.7071 -1.38689,0.24202 -3.65794,0.24202 -3.65794,0.24202 z m 28.19541,-28.6202 h -5.1633 v 23.39504 c 0,0 0.12424,2.13272 0.24752,2.87824 0.13003,0.75388 1.26651,2.55 4.22618,2.55 l 5.35592,-0.11127 v -3.00158 c 0,0 -1.45816,0.10478 -2.32882,0.10478 -0.88704,0 -1.96574,-0.0622 -2.1468,-1.51052 -0.19166,-1.43078 -0.19166,-3.16014 -0.19166,-3.16014 v -13.77646 h 5.83266 v -3.00065 h -5.83266 z m 49.86662,28.82606 h 5.17004 v -24.45862 h -5.17004 z m 0,-27.44814 h 5.17004 v -4.43791 h -5.17004 z m 21.5017,2.78738 c 3.5154,0 6.24296,0.76129 7.7098,1.90275 1.47839,1.14611 3.29195,3.55052 3.29195,10.52731 0,6.97679 -1.81356,9.37841 -3.29195,10.53657 -1.46587,1.13963 -4.19344,1.89998 -7.7098,1.89998 -3.5231,0 -6.24296,-0.76035 -7.7146,-1.89998 -1.4707,-1.15816 -3.28811,-3.55978 -3.28811,-10.53657 0,-6.97401 1.81741,-9.37842 3.28811,-10.52731 1.47068,-1.13961 4.1915,-1.90275 7.7146,-1.90275 z m -3.53659,4.69014 c -0.71367,0.83917 -1.57662,2.6186 -1.57662,7.73899 0,5.13523 0.86295,6.8989 1.57662,7.73808 0.70212,0.83547 2.00619,1.40481 3.69647,1.40481 1.69894,0 2.99627,-0.56656 3.71669,-1.40481 0.70596,-0.8364 1.57567,-2.60285 1.57567,-7.73808 0,-5.11946 -0.86778,-6.89704 -1.57567,-7.73899 -0.72042,-0.83548 -2.01967,-1.39184 -3.71669,-1.39184 -1.69028,0 -2.99531,0.55636 -3.69647,1.39184 z m 25.24922,-1.04319 5.06121,-0.20863 c 1.33393,0 2.88648,0.34587 3.63868,1.26202 0.70981,0.87255 1.15381,1.90646 1.15381,3.5774 v 16.34407 h 5.17293 v -16.75114 c 0,-3.17033 -1.01031,-5.00355 -2.53012,-6.16078 -2.17087,-1.65889 -6.04744,-1.51052 -6.04744,-1.51052 l -11.58636,0.21234 v 24.20732 h 5.13729 z m -53.48892,-7.81225 h -5.17582 v 23.39504 c 0,0 0.12231,2.13272 0.25042,2.87824 0.12616,0.75388 1.25494,2.55 4.21943,2.55 l 5.36073,-0.11127 v -3.00158 c 0,0 -1.45334,0.10478 -2.3346,0.10478 -0.87355,0 -1.95417,-0.0622 -2.14102,-1.51052 -0.18107,-1.43078 -0.18107,-3.16014 -0.18107,-3.16014 v -13.77646 h 5.81918 v -3.00065 h -5.81822 v -4.36744 z m -103.51445,12.44582 c 0,-1.67186 -0.44305,-2.70485 -1.14997,-3.57741 -0.75799,-0.91614 -2.31825,-1.26015 -3.64446,-1.26015 l -6.81794,0.20677 v -3.23246 l 8.20772,-0.21235 c 0,0 3.88138,-0.14836 6.05226,1.51053 1.50729,1.15445 2.52434,2.99044 2.52434,6.16078 v 16.51747 l -9.90859,0.20493 c 0,0 -4.49008,0.0213 -6.74283,-0.867 -2.20554,-0.86235 -3.40655,-3.23154 -3.40655,-6.51036 0,-3.16663 1.0132,-5.01746 2.5253,-6.17469 2.17184,-1.65333 6.04359,-1.49291 6.04359,-1.49291 h 3.16675 v 2.82631 h -1.776 c -1.3243,0 -2.69193,0.23461 -3.44508,1.14611 -0.71657,0.87535 -1.09411,1.6218 -1.09411,3.29181 0,2.19022 0.44303,3.17312 1.51402,3.91958 0.94482,0.66206 2.63992,0.80672 4.53631,0.80672 l 3.41524,-0.204 z m 87.14426,0 c 0,-1.67186 -0.43629,-2.70485 -1.14419,-3.57741 -0.76376,-0.91614 -2.32016,-1.26015 -3.64253,-1.26015 l -6.8112,0.20677 v -3.23246 l 8.19135,-0.21235 c 0,0 3.88332,-0.14836 6.05323,1.51053 1.51307,1.15445 2.5176,2.99044 2.5176,6.16078 v 16.51747 l -9.89319,0.20493 c 0,0 -4.49201,0.0213 -6.75438,-0.867 -2.19592,-0.86235 -3.40367,-3.23154 -3.40367,-6.51036 0,-3.16663 1.01898,-5.01746 2.52242,-6.17469 2.17376,-1.65333 6.05611,-1.49291 6.05611,-1.49291 h 3.15712 v 2.82631 h -1.77504 c -1.31659,0 -2.6977,0.23461 -3.44797,1.14611 -0.70694,0.87535 -1.09315,1.6218 -1.09315,3.29181 0,2.19022 0.45363,3.17312 1.51402,3.91958 0.94483,0.66206 2.64763,0.80672 4.5392,0.80672 l 3.41427,-0.204 z M 417.79063,134.9011 c 0.0654,3.67385 -0.12039,5.60814 -1.40328,7.44691 -1.1307,1.61531 -3.36899,3.08874 -8.31655,3.08874 l -6.13798,-0.17526 c -0.97083,0.0177 -3.47398,0.29024 -4.66151,1.51331 -1.0161,1.05709 -1.09604,1.84805 -1.19813,4.66046 v 8.249 h 20.86123 v 4.04012 H 394.1296 l -1.09604,-0.007 c -1.54965,0 -3.07331,-1.01258 -3.07331,-3.03867 v -6.15337 c 0.10883,-7.1882 0.6424,-8.21839 2.26429,-10.10446 1.12493,-1.30282 3.76774,-2.76234 6.97301,-2.9172 0.63181,-0.0268 1.81548,-0.10478 3.48072,-0.0612 1.21257,0.052 2.42611,0.0853 2.95775,0.0945 2.84217,0.0278 3.87657,-0.47662 4.65477,-1.45674 0.88704,-1.10161 1.36378,-2.40627 1.36378,-4.53992 0,-1.9992 -0.42377,-3.88341 -1.21642,-4.75783 -0.95735,-1.01351 -1.87617,-1.68948 -4.54305,-1.68948 -6.74859,-0.0177 -14.62212,0.15485 -14.62212,0.15485 v -3.81664 c 0,0 7.69535,-0.31528 15.54383,-0.42655 4.88688,-0.0807 7.5817,1.17021 8.95223,2.89123 1.44756,1.79148 1.95706,3.48746 2.02159,7.0046 z" id="path9"/>
</svg>
