<?xml version='1.0' encoding='utf-8'?>
<svg xmlns:xlink="http://www.w3.org/1999/xlink" xmlns="http://www.w3.org/2000/svg" version="1.0" width="600" height="251.42428785607197" xml:space="preserve" id="svg3" viewBox="0 0 667.0 279.5">
    <defs id="defs3">
        <linearGradient id="swatch7">
            <stop style="stop-color:#000000;stop-opacity:1" offset="0" id="stop7"/>
        </linearGradient>
        <linearGradient id="swatch6">
            <stop style="stop-color:#ffffff;stop-opacity:1" offset="0" id="stop6"/>
        </linearGradient>
        <linearGradient id="swatch5">
            <stop style="stop-color:#000000;stop-opacity:1" offset="0" id="stop5"/>
        </linearGradient>
        <linearGradient id="swatch2">
            <stop style="stop-color:#000000;stop-opacity:1" offset="0" id="stop2"/>
        </linearGradient>
        <linearGradient id="swatch1">
            <stop style="stop-color:#ffffff;stop-opacity:1" offset="0" id="stop1"/>
        </linearGradient>
        <linearGradient id="linearGradient8">
            <stop style="stop-color:#000000;stop-opacity:1" offset="0" id="stop9"/>
            <stop style="stop-color:#000000;stop-opacity:0" offset="1" id="stop10"/>
        </linearGradient>
        <linearGradient id="swatch4">
            <stop style="stop-color:#000000;stop-opacity:1" offset="0" id="stop4"/>
        </linearGradient>
        <linearGradient id="swatch3">
            <stop style="stop-color:#f80000;stop-opacity:1" offset="0" id="stop3"/>
        </linearGradient>
        <linearGradient xlink:href="#swatch3" id="linearGradient3" x1="16.358" y1="144.0145" x2="655.994" y2="144.0145" gradientUnits="userSpaceOnUse"/>
        <linearGradient xlink:href="#linearGradient8" id="linearGradient10" x1="16.358" y1="144.0145" x2="655.99402" y2="144.0145" gradientUnits="userSpaceOnUse"/>
    </defs>
    <g style="fill:#000000;fill-opacity:1;stroke:#ffffff;stroke-width:5;stroke-linecap:butt;stroke-linejoin:round;stroke-miterlimit:4;stroke-dasharray:none;stroke-opacity:1;paint-order:markers stroke fill" stroke="none" id="g1">
        <g id="path1" style="opacity:1" transform="translate(2.749,3.514)">
            <path style="baseline-shift:baseline;display:inline;overflow:visible;vector-effect:none;fill:#ffffff;stroke:none;enable-background:accumulate;stop-color:#000000;stop-opacity:1" d="m 276.01562,194.29297 c -4.89689,0 -9.87727,1.22379 -13.81835,3.99414 -3.55619,2.49978 -6.06764,6.48189 -6.54688,11.42578 a 2.50025,2.50025 0 0 0 -1.20312,-0.62695 h -8.29493 a 2.50025,2.50025 0 0 0 -2.36914,1.69922 l -6.7539,19.98632 -7.00586,-20.01367 a 2.50025,2.50025 0 0 0 -2.36133,-1.67187 h -8.54492 a 2.50025,2.50025 0 0 0 -2.33789,3.38476 l 13.1875,34.81446 -0.625,1.92382 a 2.50025,2.50025 0 0 0 -0.006,0.0156 c -0.44688,1.40333 -0.8649,2.28618 -1.20117,2.64648 -0.33628,0.36031 -0.60177,0.58204 -1.99024,0.58203 -0.85997,0 -1.95374,-0.21271 -3.14062,-0.5 a 2.50025,2.50025 0 0 0 -3.08789,2.42969 v 6.70899 a 2.50025,2.50025 0 0 0 2.22656,2.48437 c 1.81366,0.19936 3.77922,0.37305 5.74023,0.37305 4.71046,0 8.21085,-1.8984 10.40625,-4.61328 2.1954,-2.71488 3.31102,-5.96671 4.57617,-9.10157 a 2.50025,2.50025 0 0 0 0.0274,-0.0723 l 13.04492,-35.38867 c 0.40127,1.85791 1.04383,3.69767 2.30859,5.36914 2.05682,2.71822 5.35695,4.85959 9.99414,6.08008 0.002,4.1e-4 0.002,0.002 0.004,0.002 6.80427,1.85168 11.29574,2.80742 14.45313,4.00586 0.77933,0.31273 1.39038,0.69154 1.78906,1.17773 0.40181,0.49001 0.7207,1.12096 0.7207,2.49414 0,1.28257 -0.40062,2.36536 -1.49609,3.29102 -1.09547,0.92566 -3.07698,1.74805 -6.46875,1.74805 -3.09995,0 -5.69555,-0.69471 -7.35742,-1.93555 -1.66188,-1.24084 -2.66211,-2.94407 -2.66211,-6.12891 a 2.50025,2.50025 0 0 0 -2.5,-2.5 h -8.61914 l 1.24023,1.24024 a 2.50025,2.50025 0 0 0 -3.74023,1.25781 v 0.002 a 2.50025,2.50025 0 0 0 0.0351,0.0352 h -0.0351 c 0.0984,6.75021 2.80528,12.02963 7.0996,15.3418 4.29433,3.31216 9.95109,4.71484 15.99024,4.71484 5.28316,0 10.63606,-1.15081 14.875,-4.01758 4.23894,-2.86677 7.21289,-7.66955 7.21289,-13.9082 0,-6.14241 -3.82519,-12.70579 -11.3457,-15.06641 a 2.50025,2.50025 0 0 0 -0.0937,-0.0293 c -1.31399,-0.35634 -4.65149,-1.22274 -7.78711,-2.03711 -1.56782,-0.40719 -3.08112,-0.79914 -4.2461,-1.10352 -1.16497,-0.30438 -2.12331,-0.5637 -2.09961,-0.55664 a 2.50025,2.50025 0 0 0 -0.0215,-0.006 c -1.52199,-0.43909 -2.61132,-1.03248 -3.22266,-1.63867 -0.61134,-0.6062 -0.89648,-1.16458 -0.89648,-2.33008 0,-1.66333 0.54922,-2.25504 1.74219,-2.92383 1.19296,-0.66879 3.10991,-1.03125 4.83593,-1.03125 2.64311,0 4.64695,0.54143 5.91407,1.48242 1.26712,0.941 2.09212,2.28403 2.27539,4.97461 a 2.50025,2.50025 0 0 0 2.49414,2.33008 h 8.57226 a 2.50025,2.50025 0 0 0 1.72852,-1.72851 v 4.0664 a 2.50025,2.50025 0 0 0 2.5,2.5 h 3.40625 v 18.56055 a 2.50025,2.50025 0 0 0 0.002,0.0625 c 0.0797,3.20708 0.51121,6.20878 2.63281,8.45703 2.12161,2.24825 5.39493,3.09375 9.81836,3.09375 1.89482,0 3.61869,-0.2237 5.34375,-0.41406 a 2.50025,2.50025 0 0 0 2.22461,-2.48438 v -5.58984 c 0.75746,2.46321 2.17173,4.55194 4.06055,6.00781 2.7966,2.15558 6.37089,3.125 10.00977,3.125 3.74772,0 7.95502,-0.90223 11.46289,-3.07031 0.4899,0.66647 1.0165,1.30492 1.68945,1.73633 1.64592,1.05515 3.52219,1.33398 5.41797,1.33398 1.93469,0 4.17816,-0.55541 5.58008,-0.93945 a 2.50025,2.50025 0 0 0 1.83789,-2.41211 v -5.48047 a 2.50025,2.50025 0 0 0 -2.86524,-2.47461 c -0.37725,0.0557 -0.64303,0.0487 -0.94726,0.0586 -0.0152,-0.13275 0.004,0.0185 0.004,-0.18359 v -18.30664 c 0,-4.59608 -2.47686,-8.17904 -5.75781,-10.18359 -3.28095,-2.00456 -7.26983,-2.74024 -11.10351,-2.74024 -4.19765,0 -8.53476,0.68507 -12.13086,2.86914 -3.5961,2.18408 -6.26411,6.09621 -6.57618,11.37891 a 2.50025,2.50025 0 0 0 2.4961,2.64648 h 7.37304 c -1.92322,0.42416 -3.82857,1.02819 -5.58007,2.08789 -3.21398,1.94455 -5.59375,5.64577 -5.59375,10.76758 0,0.93833 0.12465,1.82745 0.30468,2.6875 a 2.50025,2.50025 0 0 0 -2.70507,-1.77734 c -0.74638,0.16023 -1.68664,0.17969 -2.80664,0.17969 -1.31808,0 -1.05962,-0.0793 -1.04688,-0.0586 0.0127,0.0207 -0.2168,-0.83174 -0.2168,-2.38281 v -16.55469 h 4.59375 a 2.50025,2.50025 0 0 0 2.5,-2.5 v -5.86133 a 2.50025,2.50025 0 0 0 -2.5,-2.5 h -4.59375 v -8.24023 a 2.50025,2.50025 0 0 0 -2.5,-2.5 h -7.92773 a 2.50025,2.50025 0 0 0 -2.5,2.5 v 8.24023 h -3.40625 a 2.50025,2.50025 0 0 0 -1.9043,1.93164 c -0.43096,-5.1227 -2.76489,-9.38115 -6.36914,-12.17382 -3.98235,-3.08564 -9.24303,-4.54883 -14.8418,-4.54883 z m 248.32032,1.18555 c -5.46416,0 -10.12156,2.02902 -13.32032,5.45703 -3.19875,3.42801 -4.9316,8.1396 -5.13476,13.35156 a 2.50025,2.50025 0 0 0 2.49805,2.59766 h 7.77343 a 2.50025,2.50025 0 0 0 2.5,-2.55274 c -0.0424,-2.03784 0.5161,-4.01087 1.45508,-5.3125 0.93898,-1.30163 2.08508,-2.03711 4.04297,-2.03711 3.26368,0 4.98828,1.57914 4.98828,4.375 0,2.19766 -0.71802,3.08636 -2.11523,3.9043 -1.39722,0.81793 -3.6582,1.24437 -6.00196,1.18555 a 2.50025,2.50025 0 0 0 -2.5625,2.5 v 5.85156 a 2.50025,2.50025 0 0 0 2.60352,2.49804 c 2.91348,-0.12113 5.75193,0.13141 7.46875,0.95313 1.71682,0.82172 2.61133,1.73898 2.61133,4.79297 0,2.11676 -0.68643,3.44568 -1.81055,4.42383 -1.12411,0.97814 -2.82897,1.59765 -4.9668,1.59765 -2.47727,0 -3.95104,-0.77924 -4.98632,-2.02539 -1.03529,-1.24614 -1.64626,-3.15648 -1.54688,-5.60156 a 2.50025,2.50025 0 0 0 -2.49609,-2.60156 h -7.89844 a 2.50025,2.50025 0 0 0 -2.5,2.54492 c 0.10085,5.49189 1.71485,10.37858 5.05859,13.87695 3.34375,3.49837 8.30526,5.41407 14.3711,5.41406 5.14396,10e-6 9.96651,-1.54928 13.58593,-4.51953 3.61943,-2.97024 5.95508,-7.4491 5.95508,-12.71093 0,-5.27284 -2.27404,-9.96543 -6.13867,-12.59375 2.69536,-2.56518 4.18359,-6.15759 4.18359,-10.02344 0,-5.00627 -2.38696,-9.06712 -5.76171,-11.61133 -3.37476,-2.5442 -7.64677,-3.73437 -11.85547,-3.73437 z m -398.86719,0.002 a 2.50025,2.50025 0 0 0 -2.5,2.5 v 49.27148 a 2.50025,2.50025 0 0 0 2.5,2.5 h 8.68359 a 2.50025,2.50025 0 0 0 2.5,-2.5 v -16.36328 h 10.60352 c 7.57164,0.031 12.6866,-2.55545 15.61719,-6.20898 2.93221,-3.65557 3.66211,-8.0357 3.66211,-11.44922 0,-3.43991 -0.72936,-7.82726 -3.66016,-11.49024 -2.9308,-3.66297 -8.04309,-6.25976 -15.61914,-6.25976 z m 43.7168,0 a 2.50025,2.50025 0 0 0 -2.5,2.5 v 49.27148 a 2.50025,2.50025 0 0 0 2.5,2.5 h 7.89062 a 2.50025,2.50025 0 0 0 2.5,-2.5 v -49.27148 a 2.50025,2.50025 0 0 0 -2.5,-2.5 z m 219.40429,0 a 2.50025,2.50025 0 0 0 -2.5,2.5 v 7.45508 a 2.50025,2.50025 0 0 0 2.5,2.5 h 7.88672 a 2.50025,2.50025 0 0 0 2.5,-2.5 v -7.45508 a 2.50025,2.50025 0 0 0 -2.5,-2.5 z m -21.78711,2.86328 a 2.50025,2.50025 0 0 0 -2.5,2.5 v 8.24023 h -3.42578 -0.002 a 2.50025,2.50025 0 0 0 -2.5,2.5 v 5.86133 a 2.50025,2.50025 0 0 0 2.5,2.5 h 3.42773 v 18.56055 a 2.50025,2.50025 0 0 0 0,0.0625 c 0.079,3.19868 0.48616,6.19546 2.59766,8.45117 2.1115,2.25571 5.38499,3.09961 9.82227,3.09961 1.9045,0 3.69636,-0.22238 5.38281,-0.41406 a 2.50025,2.50025 0 0 0 2.2168,-2.48438 v -6.01367 a 2.50025,2.50025 0 0 0 -3.00977,-2.44726 c -0.79311,0.1657 -1.73059,0.18164 -2.80859,0.18164 -0.64051,0 -0.95895,-0.0846 -1.07422,-0.125 0.005,-0.022 -0.19922,-0.80208 -0.19922,-2.31641 v -16.55469 h 4.59375 a 2.50025,2.50025 0 0 0 2.5,-2.5 v -5.86133 a 2.50025,2.50025 0 0 0 -2.5,-2.5 h -4.59375 v -8.24023 a 2.50025,2.50025 0 0 0 -2.5,-2.5 z m -90.78711,0.94922 c 4.71624,0 8.8969,1.26859 11.7793,3.50195 2.30341,1.78475 3.82018,4.15754 4.35547,7.3125 h -3.69922 c -0.62648,-2.67891 -1.9686,-4.87796 -3.9082,-6.31836 -2.47938,-1.84125 -5.59659,-2.46875 -8.89649,-2.46875 -2.32397,0 -4.94771,0.36172 -7.28125,1.66992 -2.33353,1.30821 -4.29687,3.9465 -4.29687,7.28516 0,2.3105 0.90759,4.4258 2.375,5.88086 1.46199,1.44968 3.32938,2.303 5.33789,2.88477 7.4e-4,2.2e-4 0.003,0.002 0.004,0.002 0.405,0.12054 1.09084,0.29615 2.25976,0.60156 1.17106,0.30597 2.68414,0.69828 4.25195,1.10547 3.1009,0.80535 6.39403,1.66208 7.6504,2.00195 5.50099,1.73199 7.83398,6.1464 7.83398,10.29102 0,4.75735 -1.91261,7.66839 -5.01367,9.76562 -3.10106,2.09723 -7.54338,3.16016 -12.07422,3.16016 -5.25385,0 -9.80237,-1.25724 -12.93555,-3.67383 -2.6072,-2.01091 -4.31555,-4.86148 -4.88672,-8.91797 h 3.61133 c 0.55065,3.25182 2.11306,5.91818 4.41211,7.63477 2.86938,2.14241 6.5326,2.92969 10.34766,2.92969 4.20822,0 7.46074,-1.0379 9.69726,-2.92774 2.23653,-1.88984 3.26758,-4.57789 3.26758,-7.11133 0,-2.30881 -0.71432,-4.27481 -1.85351,-5.66406 -1.1392,-1.38924 -2.57655,-2.16722 -3.81836,-2.66211 a 2.50025,2.50025 0 0 0 -0.0371,-0.0137 c -3.77355,-1.43521 -8.25972,-2.3436 -14.96094,-4.16797 a 2.50025,2.50025 0 0 0 -0.0195,-0.006 c -3.83534,-1.00873 -5.99696,-2.56381 -7.28321,-4.26367 -1.28624,-1.69986 -1.77929,-3.66978 -1.77929,-5.82813 0,-4.18198 1.76252,-6.91326 4.61719,-8.91992 2.85466,-2.00665 6.90525,-3.08398 10.94335,-3.08398 z m 248.32032,1.18555 c 3.23829,0 6.5227,0.97526 8.8457,2.72656 2.323,1.75129 3.77149,4.11541 3.77148,7.61914 0,4.03183 -1.51195,6.72004 -5.14843,8.08203 a 2.50025,2.50025 0 0 0 -1.62305,2.3418 v 0.10156 a 2.50025,2.50025 0 0 0 2.01172,2.45117 c 4.2558,0.84913 6.71484,4.2775 6.71484,9.64063 0,3.84016 -1.54512,6.72695 -4.12695,8.8457 -2.58183,2.11875 -6.28102,3.38477 -10.41406,3.38476 -5.05217,0 -8.46281,-1.46801 -10.75782,-3.86914 -1.81388,-1.89776 -2.79005,-4.6963 -3.25,-7.96679 h 2.76954 c 0.28938,2.37729 0.93702,4.63232 2.40429,6.39843 2.00272,2.41061 5.16231,3.83008 8.83203,3.83008 3.10918,0 6.04542,-0.90956 8.24805,-2.82617 2.20264,-1.91661 3.5293,-4.84907 3.5293,-8.19531 0,-4.49502 -2.36719,-7.82766 -5.45313,-9.30469 -2.27872,-1.09067 -4.76887,-1.3293 -7.23047,-1.37695 v -1.10742 c 2.12135,-0.18375 4.22544,-0.5863 6.08985,-1.67774 2.61753,-1.53231 4.58984,-4.5044 4.58984,-8.21875 0,-5.36813 -4.57796,-9.375 -9.98828,-9.375 -3.4641,0 -6.36714,1.71246 -8.09766,4.11133 -1.22694,1.70081 -1.79635,3.71921 -2.09179,5.79102 h -2.58008 c 0.53814,-3.00249 1.54671,-5.66974 3.29101,-7.53907 2.25325,-2.41474 5.39222,-3.86718 9.66407,-3.86718 z m -396.36719,0.002 h 19.28711 c 6.49794,0 9.77415,1.95729 11.71484,4.38281 1.9407,2.42552 2.56446,5.66109 2.56446,8.36719 0,2.67248 -0.62322,5.90263 -2.5625,8.32031 -1.93929,2.41769 -5.21163,4.36697 -11.70704,4.33789 a 2.50025,2.50025 0 0 0 -0.01,0 h -13.10352 a 2.50025,2.50025 0 0 0 -2.5,2.5 v 16.36328 h -3.68359 z m 43.7168,0 h 2.89062 v 44.27148 h -2.89062 z m 219.40429,0 h 2.88672 v 2.45508 h -2.88672 z m -256.9375,1.99609 v 5 l -2.5,-2.5 v 16.375 a 2.50025,2.50025 0 0 0 2.5,2.5 h 12.5918 c 2.37475,0 5.04987,-0.56392 7.30078,-2.27148 2.25091,-1.70756 3.84766,-4.67015 3.84766,-8.41016 0,-3.74004 -1.26629,-6.71828 -3.46289,-8.47656 -2.19661,-1.75828 -4.91456,-2.2168 -7.51172,-2.2168 z m 173.38477,0.86719 h 2.92773 v 8.24023 a 2.50025,2.50025 0 0 0 2.5,2.5 h 4.59375 v 0.86133 h -4.59375 a 2.50025,2.50025 0 0 0 -2.5,2.5 V 236.5 c 0,1.71293 -0.072,3.33069 0.96094,5.00586 1.033,1.67517 3.17381,2.43555 5.30274,2.43555 0.24113,0 0.57264,-0.0607 0.83007,-0.0625 v 1.03515 c -0.85229,0.08 -1.76961,0.20508 -2.56836,0.20508 -3.79056,0 -5.41749,-0.71564 -6.18164,-1.52539 -0.76414,-0.80975 -1.2022,-2.36347 -1.27148,-5.15039 v -20.99805 a 2.50025,2.50025 0 0 0 -2.5,-2.5 h -3.40625 v -0.86133 h 3.40625 a 2.50025,2.50025 0 0 0 2.5,-2.5 z m 61.76562,0 h 2.92774 v 8.24023 a 2.50025,2.50025 0 0 0 2.5,2.5 h 4.59375 v 0.86133 h -4.59375 a 2.50025,2.50025 0 0 0 -2.5,2.5 V 236.5 c 0,1.69991 -0.0933,3.30944 0.9375,4.99805 0.51541,0.8443 1.38888,1.5695 2.33398,1.94922 0.94511,0.37971 1.92577,0.49414 3.00196,0.49414 0.23031,0 0.56812,-0.0587 0.81836,-0.0605 v 1.03125 c -0.87065,0.0808 -1.78844,0.20703 -2.59961,0.20703 -3.80672,0 -5.42088,-0.71529 -6.17188,-1.51758 -0.74902,-0.80017 -1.1773,-2.3592 -1.24805,-5.14062 v -21.01563 a 2.50025,2.50025 0 0 0 -2.5,-2.5 H 363.375 v -0.86133 h 3.42773 a 2.50025,2.50025 0 0 0 2.5,-2.5 z m -232.65039,4.13281 h 10.26563 c 1.96984,0 3.48757,0.40137 4.38672,1.1211 0.89914,0.71972 1.58789,1.8383 1.58789,4.57226 0,2.46699 -0.77476,3.59604 -1.8711,4.42774 -1.09634,0.83169 -2.74509,1.2539 -4.27734,1.2539 h -10.0918 z m 64.77344,0.625 c -4.23563,0 -8.58339,0.68376 -12.18164,2.86914 -3.59825,2.18539 -6.25456,6.09991 -6.56641,11.37891 a 2.50025,2.50025 0 0 0 2.4961,2.64648 h 7.39258 c -1.9192,0.42408 -3.82441,1.02743 -5.57813,2.08594 -3.21795,1.94229 -5.61523,5.64305 -5.61523,10.76953 0,4.16845 1.8903,7.63389 4.69336,9.78906 2.80305,2.15518 6.38712,3.12305 10.04101,3.12305 3.72717,0 7.92107,-0.90437 11.42774,-3.07031 0.48817,0.6643 1.01099,1.30253 1.67578,1.73242 1.62901,1.05342 3.48388,1.33789 5.31836,1.33789 1.98288,0 4.25977,-0.52904 5.67773,-0.95703 a 2.50025,2.50025 0 0 0 1.77734,-2.39453 v -5.48047 a 2.50025,2.50025 0 0 0 -2.89453,-2.46875 c -0.29694,0.0476 -0.53114,0.0398 -0.79687,0.0508 -0.0145,-0.13476 0.006,0.017 0.006,-0.18164 v -18.30664 a 2.50025,2.50025 0 0 0 -0.002,0 v -0.002 c -7.3e-4,-4.59731 -2.48407,-8.17829 -5.76757,-10.18164 -3.28399,-2.00365 -7.27435,-2.74024 -11.10352,-2.74024 z m 219.00586,0 c -6.32017,0 -11.60494,2.24323 -15.17187,6.11914 -3.56694,3.87592 -5.3711,9.24199 -5.3711,15.21289 0,5.98409 1.80289,11.3521 5.3711,15.22461 3.5682,3.87252 8.85395,6.10547 15.17187,6.10547 6.30434,0 11.5841,-2.2336 15.15039,-6.10547 3.5663,-3.87186 5.37305,-9.23931 5.37305,-15.22461 0,-5.97173 -1.80601,-11.33756 -5.3711,-15.21289 -3.56508,-3.87532 -8.84612,-6.11914 -15.15234,-6.11914 z m 42.6543,0 c -3.3939,0 -6.50912,1.21474 -9.10352,3.16211 a 2.50025,2.50025 0 0 0 -2.17969,-2.17969 h -7.40625 a 2.50025,2.50025 0 0 0 -2.5,2.5 v 35.66797 a 2.50025,2.50025 0 0 0 2.5,2.5 h 7.85547 a 2.50025,2.50025 0 0 0 2.5,-2.5 V 226.2207 c 0,-2.05755 0.66163,-3.78137 1.71094,-4.95898 1.04931,-1.17761 2.45736,-1.88867 4.45313,-1.88867 1.87225,0 2.70186,0.38889 3.27929,1.03906 0.57743,0.65017 1.10236,1.98739 1.15625,4.44141 v 22.39843 a 2.50025,2.50025 0 0 0 2.5,2.5 h 7.91602 a 2.50025,2.50025 0 0 0 2.5,-2.5 v -24.48828 c 0,-4.5022 -1.45934,-8.33504 -4.22461,-10.9043 -2.76527,-2.56925 -6.62164,-3.75781 -10.95703,-3.75781 z m -74.4961,0.98242 a 2.50025,2.50025 0 0 0 -2.5,2.5 v 35.66797 a 2.50025,2.50025 0 0 0 2.5,2.5 h 7.88672 a 2.50025,2.50025 0 0 0 2.5,-2.5 v -35.66797 a 2.50025,2.50025 0 0 0 -2.5,-2.5 z m -91.22265,3.21289 a 2.50025,2.50025 0 0 0 1.76367,1.78711 l -1.75977,-1.75976 c -1.4e-4,-0.01 -0.004,-0.0178 -0.004,-0.0273 z m -95.94141,0.80469 c 3.14683,0 6.34249,0.69146 8.5,2.00781 2.15751,1.31636 3.37109,2.9463 3.37109,5.91602 a 2.50025,2.50025 0 0 0 0.002,0.002 v 18.30469 c 0,1.13432 -0.024,2.21339 0.75195,3.4375 0.64418,1.01625 1.86103,1.47804 2.93359,1.63867 v 0.92383 c -1.00769,0.18996 -2.0623,0.43164 -2.45507,0.43164 -1.27553,0 -2.13908,-0.23803 -2.60157,-0.53711 -0.46249,-0.29907 -0.76921,-0.62549 -0.97851,-1.77734 a 2.50025,2.50025 0 0 0 -4.19141,-1.35742 c -0.0958,0.0918 -0.23805,0.1555 -0.33984,0.24414 2.09765,-1.44424 3.875,-3.89045 3.875,-7.04297 v -5.85938 a 2.50025,2.50025 0 0 0 -2.81055,-2.13672 c 0.64182,-0.31781 1.25973,-0.7254 1.80274,-1.30468 1.02094,-1.08916 1.55664,-2.67189 1.55664,-4.28125 0,-2.88898 -1.86206,-5.21024 -3.90235,-6.19727 -2.04028,-0.98703 -4.19314,-1.14258 -6.01367,-1.14258 -2.53871,0 -4.91739,0.47326 -6.86914,1.78516 -1.31089,0.88114 -2.1683,2.28341 -2.75195,3.83984 h -3.20313 c 0.64473,-2.24848 1.94084,-3.65833 3.73828,-4.75 2.4185,-1.46886 5.92458,-2.14453 9.58594,-2.14453 z m 140.52149,0 c 3.15231,0 6.345,0.69042 8.49804,2.00586 2.15305,1.31544 3.36328,2.94605 3.36328,5.91797 v 18.30664 c 0,1.15638 0.007,2.25832 0.78907,3.46094 0.67187,1.03275 1.93492,1.50384 3.01953,1.64062 v 0.89844 c -1.00157,0.18595 -2.12308,0.43164 -2.41797,0.43164 -1.36222,0 -2.25492,-0.24562 -2.71875,-0.54297 -0.46383,-0.29735 -0.76549,-0.61828 -0.98242,-1.7832 a 2.50025,2.50025 0 0 0 -4.13868,-1.35352 c 1.95326,-1.47043 3.5625,-3.80439 3.5625,-6.79101 v -5.85938 a 2.50025,2.50025 0 0 0 -2.85937,-2.13867 c 0.63916,-0.31816 1.25306,-0.72631 1.79297,-1.30469 1.01805,-1.09057 1.54883,-2.67265 1.54883,-4.27929 0,-2.89533 -1.86941,-5.21124 -3.90235,-6.19727 -2.03293,-0.98603 -4.17286,-1.14258 -5.95312,-1.14258 -2.56515,0 -4.94474,0.47398 -6.89453,1.78516 -1.31804,0.88634 -2.18053,2.28706 -2.77539,3.83984 h -3.21485 c 0.64729,-2.24664 1.94949,-3.65765 3.74805,-4.75 2.42065,-1.47017 5.9178,-2.14453 9.53516,-2.14453 z m 78.48437,0 c 5.15978,0 8.89274,1.69948 11.47266,4.50391 2.57992,2.80443 4.05078,6.85486 4.05078,11.82812 0,4.98971 -1.47233,9.03851 -4.05078,11.83789 -2.57846,2.79939 -6.31,4.49219 -11.47266,4.49219 -5.17908,0 -8.9151,-1.69515 -11.49414,-4.49414 -2.57904,-2.79899 -4.04883,-6.84602 -4.04883,-11.83594 0,-4.9741 1.47047,-9.02233 4.05078,-11.82617 2.58032,-2.80383 6.31536,-4.50586 11.49219,-4.50586 z m 42.6543,0 c 3.4386,0 5.92196,0.90293 7.55468,2.41992 1.63273,1.517 2.62696,3.76539 2.62696,7.24219 v 21.98828 h -2.91602 v -19.95312 a 2.50025,2.50025 0 0 0 -0.002,-0.0547 c -0.0681,-3.10099 -0.7072,-5.72827 -2.41602,-7.65234 -1.70881,-1.92408 -4.28683,-2.71875 -7.01757,-2.71875 -1.3446,0 -2.59962,0.27666 -3.7793,0.69336 1.70064,-1.22351 3.71181,-1.96485 5.94922,-1.96485 z m -71.9961,0.98242 h 2.88672 v 30.66797 h -2.88672 z m 55.80664,0 h 2.40625 v 2.78907 a 2.50025,2.50025 0 0 0 0.91211,1.93164 l 0.17383,0.14258 a 2.50025,2.50025 0 0 0 1.51563,0.39648 c -1.30846,2.00118 -2.15235,4.32232 -2.15235,6.87695 v 18.53125 h -2.85547 z m -224.1582,0.002 h 3.15039 l 8.74805,24.98047 a 2.50025,2.50025 0 0 0 2.35937,1.67382 h 0.14844 a 2.50025,2.50025 0 0 0 2.36914,-1.69921 l 8.43164,-24.95508 h 2.91602 l -12.64453,34.30664 c -1.30118,3.22489 -2.39147,6.03672 -3.81641,7.79883 -1.4296,1.76787 -2.97403,2.75781 -6.51758,2.75781 -0.94774,0 -1.9654,-0.1188 -2.96679,-0.19727 v -1.48047 c 0.4303,0.046 0.77202,0.18164 1.22851,0.18164 2.29953,0 4.35056,-0.78347 5.64453,-2.16992 1.29011,-1.3823 1.81382,-2.98001 2.30664,-4.52734 l 0.90039,-2.76172 a 2.50025,2.50025 0 0 0 -0.041,-1.6582 z m 197.69336,0.28711 c -4.29815,0 -7.75382,2.11024 -9.79492,5.03125 -2.0411,2.921 -2.8711,6.52546 -2.8711,10.02929 0,3.52899 0.82844,7.14813 2.86915,10.07813 2.0407,2.93 5.49848,5.04297 9.79687,5.04297 4.26654,0 7.70933,-2.11549 9.75,-5.04102 2.04067,-2.92553 2.88615,-6.54455 2.88672,-10.08008 0,-3.51057 -0.84756,-7.11462 -2.88867,-10.03125 -2.04112,-2.91663 -5.48135,-5.02929 -9.74805,-5.02929 z m -219.50586,4.99804 c 1.42747,0 2.98022,0.22861 3.83594,0.64258 0.85571,0.41397 1.08008,0.51425 1.08008,1.69727 0,0.69164 -0.0984,0.74943 -0.20508,0.86328 -0.10672,0.11384 -0.45378,0.34779 -1.20117,0.55273 -1.45963,0.40024 -4.15104,0.55942 -7.12696,1.09961 -1.31409,0.15215 -2.70418,0.39081 -4.08398,0.66211 a 2.50025,2.50025 0 0 0 2.38086,-2.23633 c 0.08,-1.28748 0.44973,-1.8163 1.24023,-2.34765 0.7905,-0.53135 2.20079,-0.9336 4.08008,-0.9336 z m 140.62305,0 c 1.37574,0 2.91397,0.22761 3.76953,0.64258 0.85556,0.41497 1.08594,0.52059 1.08594,1.69727 0,0.69436 -0.10013,0.75476 -0.20508,0.86718 -0.10495,0.11243 -0.44476,0.34426 -1.18945,0.54883 -1.45441,0.39954 -4.14863,0.56001 -7.13672,1.09961 -1.32154,0.15185 -2.71304,0.39175 -4.09375,0.66211 a 2.50025,2.50025 0 0 0 2.375,-2.18164 c 0.11128,-1.31539 0.49785,-1.87028 1.28906,-2.40234 0.79121,-0.53207 2.19062,-0.9336 4.10547,-0.9336 z m 78.88281,0.002 c 2.75131,0 4.37946,1.07761 5.65234,2.89648 1.27289,1.81887 1.98438,4.49464 1.98438,7.16406 -4.3e-4,2.70247 -0.71495,5.39524 -1.98828,7.22071 -1.27334,1.82547 -2.89798,2.90039 -5.64844,2.90039 -2.79961,0 -4.42506,-1.07939 -5.69336,-2.90039 -1.2683,-1.821 -1.97266,-4.51169 -1.97266,-7.22071 0,-2.67616 0.7028,-5.35152 1.97071,-7.16601 1.2679,-1.81449 2.89547,-2.89453 5.69531,-2.89453 z m -222.62109,9.7539 c -0.005,6.6e-4 -0.009,0.003 -0.0137,0.004 -0.0244,0.004 -0.044,0.005 -0.0684,0.01 z m -1.50196,0.33008 c -1.42073,0.30611 -2.84753,0.74084 -4.13672,1.70899 -1.74543,1.31078 -2.94335,3.63263 -2.94335,6.32617 0,2.81957 2.02352,4.92809 3.99609,5.86914 1.97257,0.94104 4.0457,1.19336 5.74219,1.19336 2.14641,0 4.65989,-0.49668 6.93359,-1.84766 -2.56137,1.9435 -6.48513,3.05664 -9.79297,3.05664 -2.74911,0 -5.28144,-0.77106 -6.99414,-2.08789 -1.71269,-1.31683 -2.74023,-3.05667 -2.74023,-5.82422 0,-3.78451 1.19292,-5.27732 3.19922,-6.48828 1.66296,-1.00373 4.13732,-1.52772 6.73632,-1.90625 z m 140.55664,0 c -1.42038,0.30673 -2.84529,0.74247 -4.1289,1.71484 -1.73676,1.31566 -2.91406,3.63497 -2.91406,6.32032 0,2.8306 2.04294,4.93283 4.01757,5.87109 1.97464,0.93826 4.04058,1.19141 5.71875,1.19141 2.10928,0 4.57482,-0.49933 6.82422,-1.79492 -2.55456,1.90699 -6.44495,3.0039 -9.7539,3.0039 -2.72913,0 -5.25109,-0.76951 -6.95899,-2.08594 -1.7079,-1.31642 -2.73437,-3.05802 -2.73437,-5.82617 0,-3.78919 1.18386,-5.28152 3.18164,-6.49023 1.65662,-1.0023 4.13451,-1.5257 6.74804,-1.9043 z m 9.05664,3.59961 v 2.23633 c 0,1.57731 -0.65264,2.34168 -1.91406,3.09961 -1.26142,0.75793 -3.14126,1.16211 -4.44922,1.16211 -1.06282,0 -2.61365,-0.25154 -3.57226,-0.70703 -0.95862,-0.4555 -1.16406,-0.63507 -1.16406,-1.35547 0,-1.48866 0.3216,-1.87039 0.93359,-2.33399 0.61199,-0.4636 1.81023,-0.86374 3.32226,-1.08203 a 2.50025,2.50025 0 0 0 0.0762,-0.0137 c 2.03345,-0.3584 4.41545,-0.44801 6.76757,-1.00586 z m -140.6289,0.008 v 2.22852 c 0,1.58318 -0.65105,2.34595 -1.90235,3.10156 -1.25129,0.75561 -3.11649,1.16016 -4.42382,1.16016 -1.09152,0 -2.63896,-0.25238 -3.58789,-0.70508 -0.94894,-0.4527 -1.15039,-0.62599 -1.15039,-1.35742 0,-1.48047 0.3215,-1.85966 0.94531,-2.32813 0.62381,-0.46847 1.83812,-0.86939 3.35156,-1.08789 a 2.50025,2.50025 0 0 0 0.082,-0.0137 c 1.99457,-0.35574 4.35282,-0.44496 6.68555,-0.99805 z" id="path3"/>
            <path style="baseline-shift:baseline;display:inline;overflow:visible;vector-effect:none;stroke:none;enable-background:accumulate;stop-color:#000000;stop-opacity:1" d="m 520.959,224.799 c 6.157,-0.256 12.684,0.695 12.684,8.244 0,5.463 -4.03,8.521 -9.277,8.521 -6.147,0 -9.268,-4.398 -9.031,-10.229 h -7.897 c 0.185,10.074 5.811,16.836 16.929,16.836 9.277,0 17.041,-5.627 17.041,-14.729 0,-6.24 -3.283,-11.006 -8.726,-12.092 v -0.102 c 4.563,-1.709 6.772,-5.625 6.772,-10.424 0,-8.51 -7.672,-12.846 -15.119,-12.846 -9.736,0 -15.588,6.965 -15.956,16.406 h 7.774 c -0.104,-5.002 2.576,-9.902 7.998,-9.902 4.337,0 7.487,2.793 7.487,6.875 0,5.912 -5.38,7.723 -10.679,7.59 z m -395.491,22.453 h 8.684 v -18.863 h 13.103 c 14.074,0.063 16.78,-9.072 16.78,-15.158 0,-6.146 -2.706,-15.25 -16.78,-15.25 h -21.787 z m 8.684,-42.275 h 12.765 c 4.567,0 8.475,1.719 8.475,8.193 0,6.207 -4.741,8.182 -8.648,8.182 h -12.591 v -16.375 z m 35.034,-6.997 h 7.891 v 49.271 h -7.891 z m 46.611,23.045 c 0,-7.568 -7.395,-10.424 -14.371,-10.424 -7.897,0 -15.711,2.721 -16.253,11.896 h 7.938 c 0.241,-3.877 3.396,-5.625 7.814,-5.625 3.248,0 7.416,0.766 7.416,4.838 0,4.602 -5.068,3.938 -10.745,5 -6.547,0.758 -13.722,2.23 -13.722,11.141 0,6.936 5.83,10.412 12.233,10.412 4.199,0 9.226,-1.34 12.382,-4.367 0.604,3.324 2.93,4.367 6.04,4.367 1.33,0 3.866,-0.521 4.956,-0.85 v -5.482 c -0.767,0.123 -1.448,0.123 -1.841,0.123 -1.488,0 -1.846,-0.756 -1.846,-2.721 v -18.308 z m -8.004,14.268 c 0,4.963 -5.35,6.762 -8.827,6.762 -2.788,0 -7.237,-1.012 -7.237,-4.563 0,-4.174 3.038,-5.4 6.439,-5.891 3.437,-0.613 7.237,-0.613 9.625,-2.168 z m 24.825,11.928 -0.899,2.762 c -0.941,2.955 -1.887,4.971 -5.575,4.971 -1.232,0 -2.501,-0.275 -3.728,-0.572 v 6.709 c 1.774,0.195 3.657,0.359 5.467,0.359 8.254,0 10.091,-5.779 12.663,-12.152 l 13.901,-37.713 h -8.295 l -9.007,26.656 h -0.148 l -9.334,-26.656 h -8.546 z m 23.485,-16.346 c 0.179,12.273 9.298,17.594 20.591,17.594 9.814,0 19.587,-4.43 19.587,-15.426 0,-5.145 -3.079,-10.637 -9.594,-12.682 -2.537,-0.688 -13.43,-3.488 -14.192,-3.715 -3.539,-1.021 -5.927,-2.895 -5.927,-6.371 0,-5.002 5.028,-6.455 9.078,-6.455 5.943,0 10.245,2.342 10.684,8.787 h 8.572 c 0,-10.352 -8.572,-15.814 -18.887,-15.814 -8.935,0 -18.059,4.604 -18.059,14.504 0,5.115 2.45,10.281 10.925,12.51 6.766,1.842 11.261,2.773 14.729,4.092 2.03,0.809 4.097,2.322 4.097,6.004 0,3.816 -2.864,7.539 -10.464,7.539 -6.915,0 -12.52,-2.967 -12.52,-10.566 h -8.62 z m 43.027,-19.291 h 5.907 v -10.74 h 7.928 v 10.74 h 7.093 v 5.861 h -7.093 V 236.5 c 0,3.264 0.317,4.941 3.764,4.941 1.12,0 2.24,0 3.33,-0.234 v 6.014 c -1.749,0.193 -3.375,0.398 -5.068,0.398 -8.214,0 -9.804,-3.119 -9.953,-9.113 v -21.061 h -5.907 v -5.861 z m 57.179,9.441 c 0,-7.568 -7.375,-10.424 -14.361,-10.424 -7.815,0 -15.67,2.721 -16.212,11.896 h 7.927 c 0.328,-3.877 3.406,-5.625 7.886,-5.625 3.156,0 7.355,0.766 7.355,4.838 0,4.602 -5.038,3.938 -10.746,5 -6.597,0.758 -13.722,2.23 -13.722,11.141 0,6.936 5.825,10.412 12.193,10.412 4.229,0 9.267,-1.34 12.412,-4.367 0.619,3.324 2.9,4.367 6.158,4.367 1.227,0 3.718,-0.521 4.919,-0.85 v -5.482 c -0.833,0.123 -1.529,0.123 -1.958,0.123 -1.442,0 -1.852,-0.756 -1.852,-2.721 v -18.308 z m -7.887,14.268 c 0,4.963 -5.385,6.762 -8.863,6.762 -2.741,0 -7.237,-1.012 -7.237,-4.563 0,-4.174 2.997,-5.4 6.398,-5.891 3.478,-0.613 7.283,-0.613 9.702,-2.168 z m 12.454,-23.709 h 5.927 v -10.74 h 7.927 v 10.74 h 7.094 v 5.861 H 374.73 V 236.5 c 0,3.264 0.266,4.941 3.774,4.941 1.078,0 2.199,0 3.319,-0.234 v 6.014 c -1.698,0.193 -3.396,0.398 -5.1,0.398 -8.244,0 -9.773,-3.119 -9.921,-9.113 v -21.061 h -5.927 v -5.861 z m 27.714,0 h 7.887 v 35.668 h -7.887 z m 31.842,36.68 c 11.467,0 18.023,-7.855 18.023,-18.83 0,-10.945 -6.557,-18.832 -18.023,-18.832 -11.497,0 -18.043,7.887 -18.043,18.832 0,10.974 6.546,18.83 18.043,18.83 z m 0,-6.209 c -7.098,0 -10.167,-6.383 -10.167,-12.621 0,-6.18 3.069,-12.561 10.167,-12.561 7.018,0 10.137,6.381 10.137,12.561 -0.001,6.238 -3.12,12.621 -10.137,12.621 z m 23.965,5.197 h 7.855 v -21.031 c 0,-5.195 3.366,-9.348 8.664,-9.348 4.603,0 6.813,2.371 6.935,7.926 v 22.453 h 7.917 v -24.488 c 0,-7.979 -4.909,-12.162 -12.683,-12.162 -4.654,0 -8.776,2.434 -11.109,6.414 l -0.174,-0.143 v -5.289 h -7.405 z M 388.59,197.98 h 7.887 v 7.455 h -7.887 z" id="path4"/>
        </g>
    </g>
    <g style="fill:#000000;fill-opacity:1;stroke:#ffffff;stroke-width:15;stroke-linecap:butt;stroke-linejoin:round;stroke-miterlimit:4;stroke-dasharray:none;stroke-opacity:1;paint-order:markers stroke fill" stroke="none" id="g2">
        <g id="path2" style="opacity:1" transform="translate(2.749,3.514)">
            <path style="baseline-shift:baseline;display:inline;overflow:visible;vector-effect:none;fill:#ffffff;stroke:none;enable-background:accumulate;stop-color:#000000;stop-opacity:1" d="m 19.607422,12.050781 c -4.384228,0 -8.498047,3.663655 -8.498047,8.431641 v 12.507812 c 0,4.603797 4.214384,8.441407 8.498047,8.441407 H 168.98047 c 4.51101,0 6.50525,1.210463 8.17969,3.3125 1.67443,2.102036 2.9414,5.818447 2.9414,10.984375 0,5.136259 -1.26204,8.831661 -2.93359,10.923828 -1.67155,2.092166 -3.67233,3.302734 -8.1875,3.302734 H 50.810547 c -22.551044,0 -39.701172,19.527768 -39.701172,43.361332 v 39.6875 c 0,4.40119 4.205748,8.47265 8.498047,8.47265 h 26.927734 a 7.50075,7.50075 0 0 0 0.02344,0 c 4.589024,-0.0142 8.457574,-3.90707 8.443359,-8.49609 v -39.66406 c 0,-4.86948 1.405622,-8.50176 3.230469,-10.72071 1.824846,-2.21894 3.889537,-3.289059 7.03125,-3.289059 H 178.53906 c 14.24751,0 25.98536,-4.559897 33.84961,-12.632813 7.86425,-8.072915 11.53906,-19.188107 11.53906,-30.935547 0,-11.733828 -3.67034,-22.862535 -11.52539,-30.96875 -7.85504,-8.106215 -19.60072,-12.71875 -33.86328,-12.71875 z m 319.460938,0 c -14.28181,0 -26.04199,4.5985 -33.91211,12.699219 -7.87012,8.100719 -11.54688,19.234411 -11.54688,30.980469 v 62.085941 c 0,5.16157 -1.26548,8.87614 -2.93945,10.97656 -1.67397,2.10042 -3.67075,3.3125 -8.1914,3.3125 h -72.24024 c -4.64631,0 -8.42383,3.56388 -8.42383,8.40039 v 12.5293 c 0,4.60379 3.6787,8.4414 8.42383,8.4414 h 81.76953 c 14.27045,0 26.02773,-4.57382 33.90821,-12.65625 7.88048,-8.08243 11.57031,-19.20879 11.57031,-30.96289 V 55.730469 c 0,-5.176565 1.26187,-8.901711 2.93164,-11.001953 1.66977,-2.100243 3.66169,-3.316407 8.22461,-3.316407 h 73.01758 c 4.14193,0 8.52343,-3.515343 8.52343,-8.421875 V 20.482422 c 0,-5.083668 -4.11295,-8.431641 -8.52539,-8.431641 z m 112.3457,0 c -4.60104,0 -8.43945,4.200055 -8.43945,8.472656 v 12.378907 c -0.0551,4.635065 3.88636,8.579467 8.52148,8.529297 h 149.26758 c 4.48786,0 6.51054,1.214775 8.20117,3.326171 1.69064,2.111397 2.9668,5.820926 2.9668,10.970704 0,5.128152 -1.26846,8.815825 -2.94922,10.912109 -1.68075,2.096284 -3.70037,3.314453 -8.21875,3.314453 h -0.18555 l -149.16601,0.03125 c -4.12999,0.0013 -8.4375,4.410526 -8.4375,8.460938 V 90.90625 c 0,4.473056 4.21664,8.400391 8.43945,8.400391 h 149.28125 c 5.78397,0.07297 7.21395,1.876809 8.89258,5.142579 1.68091,3.2702 2.3125,8.35162 2.3125,11.79297 a 7.50075,7.50075 0 0 0 0.002,0.15039 l 0.0274,1.41211 c -0.004,5.15052 -1.27959,8.87851 -2.97266,11 -1.69555,2.12459 -3.71364,3.33984 -8.19336,3.33984 H 451.41406 c -4.12133,0 -8.43945,3.99507 -8.43945,8.40039 v 12.40039 c -0.0551,4.63507 3.88636,8.57947 8.52148,8.5293 h 158.81055 c 14.41982,0 26.19544,-5.00099 33.98242,-13.2168 7.78699,-8.2158 11.45508,-19.23506 11.45508,-30.47265 v -1.54297 c -9.4e-4,-11.52988 -3.01672,-22.959157 -9.77344,-31.708987 6.54785,-7.827024 9.77344,-18.025154 9.77344,-28.794922 0,-11.73107 -3.6606,-22.862649 -11.52148,-30.970703 -7.86088,-8.108054 -19.61974,-12.716797 -33.91602,-12.716797 z m -276.5039,15 h 3.6289 c 11.16045,0 18.35909,3.274168 23.0918,8.158203 4.7327,4.884036 7.29687,11.848126 7.29687,20.529297 0,8.69956 -2.5597,15.619916 -7.2832,20.46875 -4.7235,4.848835 -11.92998,8.09961 -23.10547,8.09961 h -3.52929 c 5.63261,-1.21698 10.54157,-4.118286 13.87695,-8.292969 4.4822,-5.610083 6.21484,-12.778416 6.21484,-20.285156 0,-7.527072 -1.72966,-14.706865 -6.20898,-20.330079 -3.35463,-4.21131 -8.30108,-7.140744 -13.98242,-8.347656 z m 164.1582,0 h 3.5625 c -5.67479,1.216791 -10.61223,4.13714 -13.95508,8.341797 -4.48023,5.635258 -6.18945,12.820456 -6.18945,20.337891 v 62.126951 c 0,8.6939 -2.56753,15.62762 -7.31055,20.49219 -4.74302,4.86457 -11.97441,8.12695 -23.16797,8.12695 h -3.55859 c 5.66804,-1.21144 10.60291,-4.13275 13.95117,-8.33398 4.48103,-5.62258 6.20899,-12.80375 6.20898,-20.32617 V 55.730469 c 0,-8.691943 2.56626,-15.648063 7.30665,-20.527344 4.74038,-4.879281 11.96015,-8.152344 23.15234,-8.152344 z m 267.62305,0 h 3.61523 c 11.20373,0 18.41337,3.276257 23.14648,8.158203 4.73312,4.881946 7.29102,11.844367 7.29102,20.529297 0,9.722989 -3.11663,17.126273 -9.11914,22.097656 a 7.50075,7.50075 0 0 0 -0.74805,0.712891 c -3.31646,3.623889 -3.25938,7.950413 -0.0644,11.53125 a 7.50075,7.50075 0 0 0 0.56641,0.568359 c 5.80967,5.254171 9.36436,14.915423 9.36523,25.593753 v 1.54297 c 0,8.0124 -2.54003,15.0881 -7.3418,20.15429 -4.80176,5.0662 -11.99452,8.53516 -23.0957,8.53516 h -3.46094 c 5.6109,-1.23246 10.50554,-4.13937 13.83594,-8.3125 4.4902,-5.62641 6.25,-12.82521 6.25,-20.37695 a 7.50075,7.50075 0 0 0 -0.002,-0.15039 l -0.0312,-1.54297 0.002,0.15039 c 0,-4.76266 -0.45257,-11.80209 -3.97266,-18.650393 -3.13142,-6.092154 -9.73542,-11.732429 -18.66015,-12.998047 6.66981,-0.820541 12.59009,-3.79413 16.41797,-8.568359 4.49474,-5.605966 6.24609,-12.782027 6.24609,-20.296875 0,-7.543223 -1.7627,-14.73185 -6.25781,-20.345704 -3.36524,-4.202772 -8.30982,-7.126286 -13.98242,-8.332031 z m 34.74804,52.472656 0.56641,0.570313 c 0.0145,0.0162 0.0189,0.03262 0.0332,0.04883 -0.20971,-0.198718 -0.38463,-0.424715 -0.59961,-0.619141 z M 50.810547,84.955078 h 8.951172 c -5.190457,1.217897 -9.817978,4.103942 -13.115235,8.113281 -4.427403,5.383556 -6.644531,12.505521 -6.644531,20.248051 v 33.16015 H 26.109375 v -33.16015 c 0,-17.060443 10.550215,-28.361332 24.701172,-28.361332 z" id="path6"/>
            <path style="baseline-shift:baseline;display:inline;overflow:visible;vector-effect:none;stroke:none;enable-background:accumulate;stop-color:#000000;stop-opacity:1" d="m 421.659,19.551 h -82.591 c -25.474,0 -37.958,15.741 -37.958,36.179 v 62.087 c 0,12.684 -5.989,21.788 -18.631,21.788 h -72.24 c -0.506,0 -0.925,0.419 -0.925,0.9 v 12.53 c 0,0.512 0.419,0.941 0.925,0.941 h 81.768 c 25.464,0 37.979,-15.67 37.979,-36.118 V 55.73 c 0,-12.694 5.943,-21.818 18.657,-21.818 h 73.017 c 0.573,0 1.023,-0.409 1.023,-0.921 V 20.482 c 0,-0.491 -0.451,-0.931 -1.024,-0.931 z m -243.119,0 H 19.607 c -0.578,0 -0.998,0.44 -0.998,0.931 v 12.509 c 0,0.512 0.419,0.941 0.998,0.941 h 149.374 c 12.627,0 18.621,9.104 18.621,21.797 0,12.643 -5.994,21.726 -18.621,21.726 H 50.81 c -18.351,0 -32.2,15.415 -32.2,35.862 v 39.687 c 0,0.543 0.419,0.973 0.998,0.973 h 26.927 a 0.97,0.97 0 0 0 0.967,-0.973 v -39.687 c 0,-12.612 7.247,-21.511 17.762,-21.511 H 178.54 c 25.423,0 37.887,-15.62 37.887,-36.067 0,-20.415 -12.464,-36.188 -37.887,-36.188 z m 457.869,65.535 c -0.356,-0.399 -0.356,-1.084 0,-1.473 7.917,-6.557 11.835,-16.438 11.835,-27.874 0,-20.416 -12.438,-36.188 -37.938,-36.188 H 451.414 c -0.542,0 -0.94,0.44 -0.94,0.972 v 12.468 a 0.93,0.93 0 0 0 0.94,0.941 h 149.35 c 12.591,0 18.667,9.104 18.667,21.797 0,12.643 -6.035,21.726 -18.667,21.726 h -0.185 l -149.165,0.031 c -0.542,0 -0.94,0.389 -0.94,0.961 v 12.459 c 0,0.501 0.398,0.9 0.94,0.9 h 149.35 C 617.232,92 619.4,108.038 619.4,116.242 l 0.031,1.544 c 0,12.714 -6.076,21.859 -18.667,21.859 h -149.35 c -0.542,0 -0.94,0.388 -0.94,0.899 v 12.49 a 0.93,0.93 0 0 0 0.94,0.941 h 158.893 c 25.521,0 37.938,-16.939 37.938,-36.189 v -1.544 c -10e-4,-12.274 -3.919,-23.996 -11.836,-31.156 z" id="path7"/>
        </g>
    </g>
</svg>
