<?xml version="1.0" encoding="UTF-8" standalone="no"?>
<!-- Generator: Adobe Illustrator 15.1.0, SVG Export Plug-In  -->

<svg
   version="1.1"
   x="0px"
   y="0px"
   width="732.20508"
   height="232.10515"
   viewBox="-48.423 -13.517 732.20508 232.10515"
   enable-background="new -48.423 -13.517 800 230"
   xml:space="preserve"
   id="svg1"
   sodipodi:docname="psvita.svg"
   inkscape:version="1.4.3 (0d15f75042, 2025-12-25)"
   xmlns:inkscape="http://www.inkscape.org/namespaces/inkscape"
   xmlns:sodipodi="http://sodipodi.sourceforge.net/DTD/sodipodi-0.dtd"
   xmlns="http://www.w3.org/2000/svg"
   xmlns:svg="http://www.w3.org/2000/svg"><sodipodi:namedview
   id="namedview1"
   pagecolor="#bbbbbb"
   bordercolor="#000000"
   borderopacity="0.25"
   inkscape:showpageshadow="2"
   inkscape:pageopacity="0.0"
   inkscape:pagecheckerboard="0"
   inkscape:deskcolor="#d1d1d1"
   inkscape:zoom="0.79461125"
   inkscape:cx="324.68707"
   inkscape:cy="105.71207"
   inkscape:window-width="1920"
   inkscape:window-height="1080"
   inkscape:window-x="0"
   inkscape:window-y="0"
   inkscape:window-maximized="0"
   inkscape:current-layer="svg1" />
<defs
   id="defs1">
</defs>
<g
   id="path36"
   style="opacity:1;stroke:#ffffff;stroke-width:3.70106;stroke-linecap:round;stroke-linejoin:round;stroke-dasharray:none;stroke-opacity:1;paint-order:markers stroke fill"
   transform="matrix(1.6663152,0,0,1.6663152,-251.80261,-125.97456)"><g
     id="path59"
     style="opacity:1"><path
       style="baseline-shift:baseline;display:inline;overflow:visible;vector-effect:none;fill:#ffffff;stroke:none;enable-background:accumulate;stop-color:#000000;stop-opacity:1"
       d="m 280.08984,166.3457 c -2.85204,0 -5.75911,0.71387 -8.08789,2.35547 -2.04522,1.44172 -3.51379,3.74813 -3.85937,6.56641 a 1.8507151,1.8507151 0 0 0 -1.00391,-0.52344 H 262.4668 A 1.8507151,1.8507151 0 0 0 260.71484,176 l -3.45507,10.17578 -3.56446,-10.19336 a 1.8507151,1.8507151 0 0 0 -1.74609,-1.23828 h -4.90625 a 1.8507151,1.8507151 0 0 0 -1.72852,2.50781 l 7.45899,19.60157 -0.3086,0.94921 a 1.8507151,1.8507151 0 0 0 -0.004,0.0117 c -0.25865,0.81365 -0.49029,1.2566 -0.58594,1.35938 -0.0957,0.10278 -0.0744,0.17383 -0.78906,0.17383 -0.4334,0 -1.04502,-0.11945 -1.81446,-0.24805 a 1.8507151,1.8507151 0 0 0 -2.15429,1.82617 v 3.76758 a 1.8507151,1.8507151 0 0 0 1.56836,1.83008 c 1.11182,0.17096 2.22982,0.25781 3.38086,0.25781 2.77089,0 4.92793,-1.16565 6.24023,-2.79688 1.31231,-1.63122 1.94926,-3.52716 2.66211,-5.31835 a 1.8507151,1.8507151 0 0 0 0.0176,-0.043 l 7.33398,-19.88282 c 0.2547,1.0287 0.65147,2.04468 1.35742,2.97266 1.23439,1.62261 3.19575,2.88391 5.87696,3.61133 3.90131,1.07423 6.46754,1.60552 8.19336,2.26172 a 1.8507151,1.8507151 0 0 0 0.002,0 c 0.38359,0.14528 0.63968,0.31446 0.80078,0.51367 0.1611,0.19921 0.31836,0.46772 0.31836,1.21094 0,0.59039 -0.16668,1.05858 -0.6875,1.49804 -0.52082,0.43947 -1.53114,0.88868 -3.38672,0.88868 -1.69665,0 -3.0773,-0.38621 -3.91601,-1.01368 -0.83872,-0.62746 -1.3375,-1.4363 -1.33789,-3.14062 a 1.8507151,1.8507151 0 0 0 -1.85157,-1.84961 h -4.90429 a 1.8507151,1.8507151 0 0 0 -1.84961,1.88086 c 0.0667,3.92863 1.67292,7.07694 4.20898,9.04101 2.53607,1.96408 5.84228,2.78711 9.33594,2.78711 3.06454,0 6.18784,-0.66153 8.69922,-2.35937 2.51138,-1.69784 4.29687,-4.59622 4.29687,-8.2832 0,-3.65468 -2.32069,-7.58629 -6.77734,-8.91407 -0.8162,-0.24356 -2.69146,-0.74292 -4.48047,-1.21484 -1.78901,-0.47193 -3.55662,-0.93438 -3.63867,-0.95703 a 1.8507151,1.8507151 0 0 0 -0.004,0 c -0.79865,-0.21901 -1.32665,-0.52376 -1.59375,-0.79297 -0.26709,-0.26921 -0.38086,-0.46965 -0.38086,-1.03125 0,-0.78764 0.18884,-0.94502 0.76953,-1.26953 0.5807,-0.32451 1.60681,-0.53125 2.52149,-0.53125 1.44369,0 2.48621,0.303 3.09765,0.75586 0.61145,0.45285 1.00804,1.0519 1.09961,2.45898 a 1.8507151,1.8507151 0 0 0 1.84571,1.73047 h 4.90625 a 1.8507151,1.8507151 0 0 0 0.73828,-0.73828 v 1.67383 a 1.8507151,1.8507151 0 0 0 1.84961,1.84961 h 1.52539 v 10.11914 a 1.8507151,1.8507151 0 0 0 0,0.043 c 0.0425,1.83766 0.26809,3.66137 1.57617,5.07226 1.30808,1.4109 3.3133,1.91602 5.88672,1.91602 1.17844,0 2.16937,-0.17136 3.04687,-0.24024 a 1.8507151,1.8507151 0 0 0 1.70703,-1.84375 v -1.18945 c 0.43228,0.64162 0.84582,1.31049 1.43946,1.76758 1.68616,1.29828 3.8143,1.85937 5.9707,1.85937 2.09086,0 4.4487,-0.43228 6.46484,-1.60156 0.23832,0.26302 0.44146,0.56804 0.73243,0.75781 1.01972,0.66507 2.16605,0.84375 3.2832,0.84375 1.19873,0 2.42425,-0.25534 3.44141,-0.61523 a 1.8507151,1.8507151 0 0 0 1.23437,-1.74414 v -3.10156 a 1.8507151,1.8507151 0 0 0 -2.16016,-1.82422 v -10.06446 c 0,-0.52383 -0.10021,-1.00735 -0.20312,-1.48828 a 1.8507151,1.8507151 0 0 0 1.33398,1.33399 h 1.52539 v 10.11914 a 1.8507151,1.8507151 0 0 0 0,0.043 c 0.043,1.83738 0.26828,3.6594 1.57618,5.07031 1.30789,1.41091 3.31135,1.91797 5.88476,1.91797 1.17924,0 2.17328,-0.17136 3.05078,-0.24024 a 1.8507151,1.8507151 0 0 0 1.60547,-1.73437 1.8507151,1.8507151 0 0 0 1.78125,1.78125 h 4.47266 a 1.8507151,1.8507151 0 0 0 1.85156,-1.85156 v -20.29102 a 1.8507151,1.8507151 0 0 0 -1.74805,-1.74609 1.8507151,1.8507151 0 0 0 1.74805,-1.7461 v -4.23828 a 1.8507151,1.8507151 0 0 0 -1.85156,-1.85156 h -4.47266 a 1.8507151,1.8507151 0 0 0 -1.85156,1.85156 v 4.23828 a 1.8507151,1.8507151 0 0 0 1.74805,1.7461 1.8507151,1.8507151 0 0 0 -1.66211,1.66211 1.8507151,1.8507151 0 0 0 -1.76758,-1.76563 h -2.19141 v -4.23437 a 1.8507151,1.8507151 0 0 0 -1.84961,-1.84961 h -4.47461 a 1.8507151,1.8507151 0 0 0 -1.84961,1.84961 v 4.23242 h -1.52539 a 1.8507151,1.8507151 0 0 0 -1.84961,1.85156 v 2.34375 c -0.62305,-1.32435 -1.57891,-2.42277 -2.74218,-3.13281 -1.95379,-1.19257 -4.28114,-1.60938 -6.51367,-1.60938 -2.44795,0 -4.9863,0.38527 -7.13086,1.68555 -2.14457,1.30027 -3.75176,3.68385 -3.93946,6.80469 a 1.8507151,1.8507151 0 0 0 1.84766,1.96093 h 1.75976 c -0.31964,0.14463 -0.65811,0.19484 -0.96679,0.38086 -1.9329,1.16486 -3.38732,3.4565 -3.38672,6.48047 0,0.10876 0.0641,0.18957 0.0684,0.29688 a 1.8507151,1.8507151 0 0 0 -0.98438,-0.20899 c -0.34411,0.0862 -0.80559,0.10157 -1.43359,0.10157 -0.18801,0 -0.18362,-0.0124 -0.26563,-0.0254 0.0213,-0.027 -0.041,-0.19607 -0.041,-0.91015 v -8.98047 h 2.18945 a 1.8507151,1.8507151 0 0 0 1.85156,-1.85156 v -3.33594 a 1.8507151,1.8507151 0 0 0 -1.85156,-1.84961 h -2.18945 v -4.23437 a 1.8507151,1.8507151 0 0 0 -1.85156,-1.84961 h -4.47461 a 1.8507151,1.8507151 0 0 0 -1.84961,1.84961 v 4.23242 h -1.52539 a 1.8507151,1.8507151 0 0 0 -0.90625,0.90625 c -0.38275,-2.76379 -1.73159,-5.09405 -3.73633,-6.63672 -2.36305,-1.81839 -5.44617,-2.66602 -8.69727,-2.66602 z m -62.35937,0.66602 a 1.8507151,1.8507151 0 0 0 -1.85156,1.85156 v 28.02149 a 1.8507151,1.8507151 0 0 0 1.85156,1.85156 h 4.47265 a 1.8507151,1.8507151 0 0 0 1.85157,-1.85156 v -28.02149 a 1.8507151,1.8507151 0 0 0 -1.85157,-1.85156 z m 192.96484,0 a 1.8507151,1.8507151 0 0 0 -1.75586,2.43555 l 9.3418,28.02343 a 1.8507151,1.8507151 0 0 0 1.75391,1.26563 h 5.45507 a 1.8507151,1.8507151 0 0 0 1.75196,-1.25391 l 8.44531,-24.7168 v 0.33594 a 1.8507151,1.8507151 0 0 0 1.74609,1.7461 1.8507151,1.8507151 0 0 0 -1.74609,1.74609 v 20.29102 a 1.8507151,1.8507151 0 0 0 1.84961,1.85156 h 4.47461 a 1.8507151,1.8507151 0 0 0 1.85156,-1.85156 v -16.27344 a 1.8507151,1.8507151 0 0 0 1.16992,1.16992 h 1.52539 v 10.11914 a 1.8507151,1.8507151 0 0 0 0,0.043 c 0.0425,1.83748 0.26978,3.65934 1.57813,5.07031 1.30834,1.41098 3.31043,1.91657 5.88476,1.91602 1.17765,0 2.17032,-0.17135 3.04883,-0.24024 a 1.8507151,1.8507151 0 0 0 1.70703,-1.84375 v -1.1875 c 0.43195,0.64079 0.84646,1.309 1.43946,1.76563 1.68609,1.29836 3.81389,1.85937 5.9707,1.85937 2.08988,0 4.44708,-0.43097 6.46289,-1.59961 0.238,0.26241 0.44201,0.56649 0.73242,0.75586 1.01991,0.66505 2.1641,0.84375 3.28125,0.84375 1.19913,0 2.42535,-0.25573 3.44141,-0.61523 a 1.8507151,1.8507151 0 0 0 1.23437,-1.74414 v -3.10156 a 1.8507151,1.8507151 0 0 0 -2.16015,-1.82422 v -10.06446 c 0,-2.73883 -1.50715,-4.93633 -3.46094,-6.1289 -1.95379,-1.19257 -4.28114,-1.60938 -6.51367,-1.60938 -2.44749,0 -4.98434,0.38527 -7.12891,1.68555 -2.14457,1.30027 -3.75235,3.68368 -3.93945,6.80469 a 1.8507151,1.8507151 0 0 0 1.84765,1.96093 h 1.75977 c -0.31962,0.14463 -0.65814,0.19484 -0.9668,0.38086 -1.93275,1.16487 -3.38731,3.4565 -3.38672,6.48047 0,0.10875 0.0641,0.18958 0.0684,0.29688 a 1.8507151,1.8507151 0 0 0 -0.98046,-0.20899 c -0.34821,0.0869 -0.80855,0.10157 -1.43555,0.10157 -0.189,0 -0.18534,-0.0124 -0.26758,-0.0254 0.0213,-0.0268 -0.041,-0.19607 -0.041,-0.91015 v -8.98047 h 2.19141 a 1.8507151,1.8507151 0 0 0 1.85156,-1.85156 v -3.33594 a 1.8507151,1.8507151 0 0 0 -1.85156,-1.84961 h -2.19141 v -4.23437 a 1.8507151,1.8507151 0 0 0 -1.85156,-1.84961 h -4.47461 a 1.8507151,1.8507151 0 0 0 -1.84961,1.84961 v 4.23437 h -1.52539 a 1.8507151,1.8507151 0 0 0 -1.50976,1.50977 1.8507151,1.8507151 0 0 0 -1.40821,-1.40625 1.8507151,1.8507151 0 0 0 1.74805,-1.7461 v -4.23828 a 1.8507151,1.8507151 0 0 0 -1.85156,-1.85156 h -4.47461 a 1.8507151,1.8507151 0 0 0 -0.94141,0.94336 1.8507151,1.8507151 0 0 0 -1.52929,-0.94336 h -4.98438 a 1.8507151,1.8507151 0 0 0 -1.75976,1.28125 l -5.44141,16.80078 -5.31836,-16.78906 a 1.8507151,1.8507151 0 0 0 -1.76367,-1.29297 z m -218.82617,0.002 a 1.8507151,1.8507151 0 0 0 -1.85156,1.84961 v 28.02344 a 1.8507151,1.8507151 0 0 0 1.85156,1.84961 h 4.9043 a 1.8507151,1.8507151 0 0 0 1.85156,-1.84961 v -8.9043 h 5.60547 c 4.39834,0.02 7.46393,-1.50022 9.21484,-3.67969 1.75203,-2.18085 2.17383,-4.76758 2.17383,-6.76757 0,-2.01687 -0.42199,-4.61074 -2.17187,-6.80079 -1.74989,-2.19004 -4.81468,-3.72125 -9.2168,-3.7207 z m 88.2207,3.0332 c 2.59691,0 4.88801,0.70263 6.43946,1.89649 1.08123,0.83202 1.7011,1.98765 2.06836,3.34961 h -1.26563 c -0.41482,-1.40819 -1.06499,-2.6677 -2.13867,-3.46289 -1.50805,-1.1169 -3.36947,-1.48242 -5.30078,-1.48242 -1.36132,0 -2.90732,0.20796 -4.32813,1.00195 -1.4208,0.79399 -2.66406,2.46164 -2.66406,4.5 0,1.4004 0.55467,2.72918 1.45508,3.63672 0.9004,0.90754 2.03884,1.42587 3.24219,1.75586 0.35098,0.0969 1.89556,0.49719 3.67578,0.96679 1.78199,0.47008 3.73238,0.99221 4.36718,1.18164 a 1.8507151,1.8507151 0 0 0 0.002,0.002 c 2.9196,0.86899 4.13281,3.21259 4.13281,5.36719 0,2.59201 -1.00155,4.08888 -2.66992,5.21679 -1.66837,1.12792 -4.11654,1.72461 -6.625,1.72461 -2.90334,0 -5.38763,-0.70855 -7.07031,-2.01172 -1.25868,-0.97479 -1.98768,-2.44834 -2.38282,-4.29687 h 1.20899 c 0.3981,1.74565 1.14555,3.29613 2.42578,4.2539 1.73203,1.29579 3.90546,1.75196 6.13281,1.75196 2.46142,0 4.41051,-0.61168 5.77344,-1.76172 1.36293,-1.15004 2.00195,-2.79857 2.00195,-4.32617 0,-1.41578 -0.43068,-2.65877 -1.14258,-3.53907 -0.71122,-0.87946 -1.61126,-1.35871 -2.36523,-1.64453 -2.19819,-0.8358 -4.73471,-1.32537 -8.52539,-2.36914 a 1.8507151,1.8507151 0 0 0 -0.008,-0.004 c -2.10204,-0.56898 -3.23907,-1.40423 -3.90625,-2.28125 -0.66719,-0.87702 -0.92578,-1.88188 -0.92578,-3.03516 0,-2.23544 0.91052,-3.63649 2.4375,-4.71289 1.52697,-1.0764 3.74412,-1.67774 5.95507,-1.67774 z m -60.50976,0.66602 h 0.77344 v 24.32227 h -0.77344 z m 126.40234,0 h 0.77344 V 171.25 h -0.77344 z m 67.28125,0 h 1.17969 l 6.61523,20.88477 a 1.8507151,1.8507151 0 0 0 1.76368,1.29101 h 0.0781 a 1.8507151,1.8507151 0 0 0 1.76172,-1.28125 l 6.76758,-20.89453 h 1.04883 l -8.31055,24.32227 h -2.79883 z m 26.125,0 h 0.77344 V 171.25 h -0.77344 z m -245.66992,0.002 h 10.51172 c 3.60388,-4.5e-4 5.30906,1.05713 6.32617,2.33008 1.01711,1.27295 1.36133,3.0141 1.36133,4.49024 0,1.453 -0.3444,3.18582 -1.35938,4.44921 -1.01497,1.2634 -2.71519,2.31488 -6.31836,2.29688 a 1.8507151,1.8507151 0 0 0 -0.01,0 h -7.45703 a 1.8507151,1.8507151 0 0 0 -1.84961,1.84961 v 8.9043 h -1.20508 z m 3.05469,0.30078 a 1.8507151,1.8507151 0 0 0 -1.84961,1.85157 v 9.26172 a 1.8507151,1.8507151 0 0 0 1.84961,1.85156 h 7.18164 c 1.4077,0 3.01034,-0.32612 4.39062,-1.36524 1.38029,-1.03911 2.36719,-2.8802 2.36719,-5.11914 0,-2.21855 -0.7789,-4.07185 -2.14648,-5.15039 -1.36759,-1.07854 -3.01214,-1.33008 -4.53125,-1.33008 z m 101.88281,1.34571 h 0.77344 v 4.23242 a 1.8507151,1.8507151 0 0 0 1.66797,1.66797 1.8507151,1.8507151 0 0 0 -1.66797,1.66797 v 10.83203 c 0,0.97465 -0.0801,1.95588 0.60547,3.06055 0.34278,0.55233 0.93197,1.03066 1.54101,1.27148 0.25818,0.10208 0.52848,0.0816 0.78906,0.12891 -2.04137,-0.009 -2.81186,-0.39513 -3.11914,-0.72657 -0.30999,-0.33435 -0.55318,-1.10461 -0.58984,-2.63281 v -11.93359 a 1.8507151,1.8507151 0 0 0 -1.66797,-1.66797 1.8507151,1.8507151 0 0 0 1.66797,-1.66797 z m 35.27734,0 h 0.77344 v 4.23242 a 1.8507151,1.8507151 0 0 0 1.66797,1.66797 1.8507151,1.8507151 0 0 0 -1.66797,1.66797 v 10.83203 c 0,0.97499 -0.0786,1.95809 0.60742,3.0625 0.343,0.5522 0.93007,1.0288 1.53907,1.26953 0.25851,0.10219 0.53007,0.0816 0.79101,0.12891 -2.04332,-0.009 -2.81179,-0.395 -3.11914,-0.72657 -0.31086,-0.33534 -0.5558,-1.10301 -0.5918,-2.64062 v -11.92578 a 1.8507151,1.8507151 0 0 0 -1.66797,-1.66797 1.8507151,1.8507151 0 0 0 1.66797,-1.66797 z m 116.32618,0 h 0.77343 v 4.23242 a 1.8507151,1.8507151 0 0 0 1.66797,1.66797 1.8507151,1.8507151 0 0 0 -1.66797,1.66797 v 10.83203 c 0,0.97465 -0.0808,1.95768 0.60547,3.0625 0.34313,0.55241 0.93186,1.02889 1.54102,1.26953 0.25858,0.10215 0.52999,0.0817 0.79101,0.12891 -2.04442,-0.008 -2.81394,-0.39336 -3.12109,-0.72461 -0.31066,-0.33503 -0.55431,-1.10311 -0.58984,-2.64063 v -11.92773 a 1.8507151,1.8507151 0 0 0 -1.66797,-1.66797 1.8507151,1.8507151 0 0 0 1.66797,-1.66797 z m -87.29102,1.83203 c -3.68076,0 -6.81267,1.31974 -8.92383,3.60937 -2.11116,2.28964 -3.16797,5.44663 -3.16797,8.91797 0,3.48765 1.05476,6.65224 3.16602,8.94727 2.11125,2.29502 5.24511,3.61523 8.92578,3.61523 3.68067,0 6.81453,-1.32021 8.92578,-3.61523 2.11126,-2.29503 3.16797,-5.45962 3.16797,-8.94727 0,-3.47124 -1.05691,-6.62828 -3.16797,-8.91797 -2.11106,-2.28969 -5.24458,-3.60937 -8.92578,-3.60937 z m -126.83398,0.002 c -2.4475,0 -4.9863,0.38527 -7.13086,1.68555 -2.14457,1.30027 -3.75235,3.68368 -3.93946,6.80469 a 1.8507151,1.8507151 0 0 0 1.84766,1.96093 h 1.75976 c -0.32004,0.14475 -0.65969,0.19463 -0.96875,0.38086 -1.93296,1.1648 -3.38671,3.45652 -3.38671,6.48047 0,2.49505 1.13978,4.61781 2.82617,5.91602 1.68638,1.2982 3.8143,1.85937 5.9707,1.85937 2.09023,0 4.44658,-0.43268 6.46289,-1.60156 0.2383,0.26307 0.44151,0.56804 0.73242,0.75781 1.01954,0.66509 2.16682,0.84375 3.28321,0.84375 1.19951,0 2.42675,-0.25553 3.44336,-0.61523 a 1.8507151,1.8507151 0 0 0 1.23242,-1.74414 v -3.10156 a 1.8507151,1.8507151 0 0 0 -2.15821,-1.82422 v -10.06446 c 0,-2.73897 -1.50888,-4.9364 -3.46289,-6.1289 -1.954,-1.19251 -4.27918,-1.60938 -6.51171,-1.60938 z m 151.63476,0 c -1.94101,0 -3.72211,0.65968 -5.22851,1.71875 a 1.8507151,1.8507151 0 0 0 -1.16797,-1.16992 h -4.23828 a 1.8507151,1.8507151 0 0 0 -1.85157,1.85156 v 20.29102 a 1.8507151,1.8507151 0 0 0 1.85157,1.84961 h 4.4746 a 1.8507151,1.8507151 0 0 0 1.84961,-1.84961 v -11.97266 c 0,-1.09385 0.34895,-1.97298 0.86719,-2.55664 0.51825,-0.58366 1.18473,-0.92969 2.18945,-0.92969 0.9915,0 1.31066,0.18675 1.54883,0.45704 0.23818,0.27028 0.53085,0.93972 0.56446,2.29101 v 12.71094 a 1.8507151,1.8507151 0 0 0 1.84961,1.84961 h 4.47265 a 1.8507151,1.8507151 0 0 0 1.85156,-1.84961 v -3.18164 c 1.16571,3.09443 4.05547,5.32226 7.61719,5.32226 4.31949,0 8.16602,-3.48787 8.16602,-8.30273 0,-4.81486 -3.8469,-8.30274 -8.16602,-8.30274 -3.40045,0 -6.42997,2.17094 -7.61719,5.40821 v -4.87696 c 0,-2.65436 -0.86686,-4.96926 -2.5332,-6.51757 -1.66633,-1.54832 -3.97169,-2.24024 -6.5,-2.24024 z M 198.625,174.7168 h 5.41016 c 1.07088,0 1.83986,0.22094 2.23828,0.53515 0.39841,0.31421 0.73828,0.7737 0.73828,2.24414 0,1.29307 -0.36741,1.76822 -0.89063,2.16211 -0.52321,0.39389 -1.37571,0.6211 -2.16601,0.6211 H 198.625 Z m 189.14453,3.17968 c 1.86769,0 3.15481,0.48282 3.98047,1.25 0.82566,0.76719 1.35156,1.90701 1.35156,3.80664 v 12.08204 h -0.77148 v -10.90625 a 1.8507151,1.8507151 0 0 0 -0.002,-0.0469 c -0.0454,-1.8257 -0.41925,-3.43162 -1.48632,-4.64258 -0.80799,-0.91693 -1.96199,-1.32423 -3.17188,-1.51758 0.0366,-6.5e-4 0.0627,-0.0254 0.0996,-0.0254 z m -149.12305,0.27539 c 0.0122,0.003 0.0211,0.009 0.0332,0.0117 -0.0113,-0.004 -0.0219,-0.008 -0.0332,-0.0117 z m 81.46875,0 c 0.0157,0.004 0.0274,0.01 0.043,0.0137 -0.0145,-0.005 -0.0285,-0.009 -0.043,-0.0137 z m 151.60157,0 c 0.0141,0.003 0.025,0.008 0.0391,0.0117 -0.0131,-0.004 -0.026,-0.008 -0.0391,-0.0117 z m -238.75977,0.11719 c -0.42292,0.16033 -0.86121,0.28416 -1.24219,0.54297 -0.73721,0.50081 -1.25664,1.26472 -1.64062,2.11328 h -0.78711 c 0.3704,-0.80507 0.87735,-1.44116 1.63476,-1.90039 0.55641,-0.33735 1.27582,-0.56749 2.03516,-0.75586 z m 233.07227,0 c -0.42283,0.16034 -0.86131,0.28419 -1.24219,0.54297 -0.73702,0.50076 -1.25641,1.26517 -1.64063,2.11328 h -0.78711 c 0.37041,-0.80507 0.87736,-1.44116 1.63477,-1.90039 0.5564,-0.33735 1.27581,-0.56749 2.03516,-0.75586 z m -151.60938,0.002 c -0.42061,0.15996 -0.8553,0.28354 -1.23437,0.54101 -0.73723,0.50074 -1.25838,1.26491 -1.64258,2.11328 h -0.78711 c 0.37052,-0.80516 0.87931,-1.44116 1.63672,-1.90039 0.55435,-0.33611 1.27134,-0.56569 2.02734,-0.7539 z m 46.27344,0.006 c -1.48845,0.51199 -2.80525,1.30565 -3.62695,2.48243 -1.22539,1.75489 -1.7168,3.88222 -1.7168,5.9414 5.9e-4,2.07324 0.49015,4.20958 1.71484,5.97071 0.81866,1.17724 2.13054,1.96975 3.61328,2.48437 -1.59437,-0.37291 -2.96304,-0.98412 -3.91015,-2.01367 -1.38125,-1.50147 -2.18946,-3.69105 -2.18946,-6.44141 0,-2.72965 0.80616,-4.91203 2.1875,-6.41015 0.95041,-1.03075 2.32507,-1.64209 3.92774,-2.01368 z m 4.55078,0 c 1.60282,0.37159 2.97744,0.98297 3.92773,2.01368 1.38119,1.49806 2.18946,3.6804 2.18946,6.41015 0,2.75036 -0.81016,4.93994 -2.19141,6.44141 -0.94805,1.03058 -2.31738,1.64115 -3.91406,2.01367 1.48452,-0.51415 2.79972,-1.30615 3.61914,-2.48437 1.22485,-1.76119 1.71289,-3.89687 1.71289,-5.97071 0,-2.0586 -0.48962,-4.18635 -1.71484,-5.9414 -0.8216,-1.17689 -2.14027,-1.97032 -3.62891,-2.48243 z m -115.51562,0.14844 h 0.9082 L 255.5,192.35352 a 1.8507151,1.8507151 0 0 0 1.74609,1.24023 h 0.0781 a 1.8507151,1.8507151 0 0 0 1.7539,-1.25586 l 4.71485,-13.89258 h 0.68945 l -6.95508,18.86133 c -0.73802,1.85456 -1.35694,3.43136 -2.10351,4.35938 -0.7482,0.93002 -1.45732,1.41406 -3.35742,1.41406 -0.27745,0 -0.53735,-0.0507 -0.8086,-0.0625 1.30032,-0.04 2.5455,-0.4834 3.32617,-1.32227 0.8166,-0.87747 1.11395,-1.84641 1.4043,-2.75976 l 0.50586,-1.5586 a 1.8507151,1.8507151 0 0 0 -0.0293,-1.23047 z m 96.2539,0 h 0.77344 v 16.58985 h -0.77344 z m 33.00195,0 h 0.53907 v 1.13281 a 1.8507151,1.8507151 0 0 0 1.40234,1.40235 c -0.0422,0.0705 -0.0833,0.14083 -0.12305,0.21289 a 1.8507151,1.8507151 0 0 0 0.50586,0.16992 1.8507151,1.8507151 0 0 0 0.0645,0.0644 l -0.57032,-0.23437 c -0.6195,1.12415 -1.04492,2.36272 -1.04492,3.7207 v 10.1211 h -0.77344 z m 60.4043,0 h 0.77344 v 16.58985 h -0.77344 z m -199.83008,0.0742 c 0.39834,0.14309 0.84583,0.25348 1.16016,0.44531 1.1175,0.682 1.68945,1.42973 1.68945,2.96875 v 10.4375 c 0,0.68064 -0.009,1.38403 0.52539,2.19532 0.28427,0.43122 0.72981,0.72227 1.19727,0.91601 -0.18978,0.028 -0.46712,0.0996 -0.53906,0.0996 -0.68761,0 -1.09205,-0.13278 -1.25977,-0.24219 -0.16772,-0.10941 -0.2718,-0.17726 -0.37695,-0.72656 a 1.8507151,1.8507151 0 0 0 -1.6211,-1.33008 c 0.72651,-0.87436 1.30079,-1.91409 1.30079,-3.22851 v -3.33399 a 1.8507151,1.8507151 0 0 0 -0.92188,-1.54883 c 0.0647,-0.0608 0.1469,-0.0518 0.20898,-0.11914 0.6524,-0.70725 0.98829,-1.73528 0.98829,-2.72851 0,-1.73402 -1.13939,-3.15937 -2.35157,-3.80469 z m 81.46875,0 c 0.39865,0.14315 0.84565,0.25334 1.16016,0.44531 1.11721,0.68193 1.68945,1.42958 1.68945,2.96875 v 10.4375 c 0,0.68008 -0.01,1.3833 0.52539,2.19532 0.28492,0.43221 0.73083,0.72243 1.19922,0.91601 -0.18956,0.028 -0.4679,0.0996 -0.53906,0.0996 -0.68885,0 -1.09394,-0.13276 -1.26172,-0.24219 -0.16778,-0.10943 -0.2714,-0.17673 -0.37695,-0.72656 a 1.8507151,1.8507151 0 0 0 -1.61914,-1.33203 c 0.7254,-0.87404 1.29883,-1.91339 1.29883,-3.22656 v -3.33399 a 1.8507151,1.8507151 0 0 0 -0.92383,-1.54687 c 0.0654,-0.0614 0.14812,-0.053 0.21093,-0.1211 0.6524,-0.70725 0.98829,-1.73528 0.98829,-2.72851 0,-1.73402 -1.13952,-3.15936 -2.35157,-3.80469 z m 151.60157,0 c 0.39894,0.14321 0.8474,0.25322 1.16211,0.44531 1.1172,0.68193 1.6875,1.42958 1.6875,2.96875 v 10.4375 c 0,0.68121 -0.007,1.3862 0.52929,2.19727 0.28485,0.43111 0.72796,0.72072 1.19531,0.91406 -0.18947,0.0279 -0.4675,0.0996 -0.53906,0.0996 -0.68884,0 -1.09192,-0.13274 -1.25976,-0.24219 -0.16785,-0.10944 -0.2718,-0.17726 -0.37696,-0.72656 a 1.8507151,1.8507151 0 0 0 -1.61914,-1.33203 c 0.72535,-0.87403 1.29883,-1.91339 1.29883,-3.22656 v -3.33399 a 1.8507151,1.8507151 0 0 0 -0.92383,-1.54687 c 0.0654,-0.0614 0.14816,-0.0531 0.21094,-0.1211 0.6525,-0.70719 0.98828,-1.73516 0.98828,-2.72851 0,-1.73406 -1.1413,-3.15939 -2.35351,-3.80469 z m -130.34766,1.58008 v 12.94336 a 1.8507151,1.8507151 0 0 0 -2.12891,-1.44727 c -0.3482,0.0869 -0.80754,0.10157 -1.43554,0.10157 -0.18938,0 -0.18568,-0.0123 -0.26758,-0.0254 0.0212,-0.0271 -0.041,-0.1964 -0.041,-0.91015 v -8.98047 h 2.19141 a 1.8507151,1.8507151 0 0 0 1.68164,-1.68164 z m 37.79297,0.79492 0.0781,0.0781 a 1.8507151,1.8507151 0 0 0 0.63086,0.21289 z m -144.21485,0.5332 c 0.7558,0 1.58617,0.13506 1.97461,0.32227 0.38845,0.18721 0.375,0.0538 0.375,0.57422 0,0.32076 -0.0225,0.23463 -0.008,0.21875 0.0147,-0.0159 -0.0983,0.0911 -0.47656,0.19726 -0.75658,0.2124 -2.31282,0.30454 -4.08203,0.62891 l 0.125,-0.0176 c -0.37433,0.0428 -0.78092,0.13395 -1.16992,0.1875 a 1.8507151,1.8507151 0 0 0 0.63086,-0.57812 c 0.0565,-0.6338 0.2083,-0.82314 0.5664,-1.06641 0.3581,-0.24327 1.05917,-0.4668 2.06445,-0.4668 z m 81.47071,0 c 0.75521,0 1.58432,0.13508 1.97265,0.32227 0.38834,0.18719 0.375,0.0538 0.375,0.57422 0,0.32076 -0.0225,0.23463 -0.008,0.21875 0.0147,-0.0159 -0.0983,0.0911 -0.47656,0.19726 -0.75658,0.2124 -2.31282,0.30454 -4.08203,0.62891 l 0.125,-0.0176 c -0.37433,0.0428 -0.78092,0.13395 -1.16992,0.1875 a 1.8507151,1.8507151 0 0 0 0.63086,-0.57812 c 0.0568,-0.63399 0.20807,-0.82302 0.5664,-1.06641 0.35834,-0.24339 1.06112,-0.4668 2.06641,-0.4668 z m 45.63867,0 c 1.43985,0 2.21086,0.52776 2.86914,1.47071 0.65828,0.94295 1.04883,2.38686 1.04883,3.82226 0,1.45717 -0.39213,2.91036 -1.05078,3.85742 -0.65865,0.94707 -1.42765,1.47266 -2.86719,1.47266 -1.43874,0 -2.20643,-0.52528 -2.86523,-1.47266 -0.65881,-0.94737 -1.05233,-2.40261 -1.05274,-3.85937 3.6e-4,-1.43516 0.39272,-2.87984 1.05078,-3.82227 0.65837,-0.94286 1.42783,-1.46875 2.86719,-1.46875 z m 105.96289,0 c 0.75579,0 1.58617,0.13506 1.97461,0.32227 0.38844,0.18721 0.375,0.0538 0.375,0.57422 0,0.32065 -0.0224,0.23457 -0.008,0.21875 0.0146,-0.0158 -0.0982,0.091 -0.47657,0.19726 -0.75678,0.21243 -2.31321,0.30451 -4.08203,0.62891 l 0.12305,-0.0176 c -0.37315,0.0427 -0.77824,0.1322 -1.16602,0.18555 a 1.8507151,1.8507151 0 0 0 0.62891,-0.57422 c 0.0572,-0.63445 0.20823,-0.825 0.56641,-1.06836 0.35817,-0.24335 1.05977,-0.4668 2.06445,-0.4668 z m -238.80078,6.57813 c -0.76592,0.85139 -1.33984,1.98069 -1.33984,3.30469 8.9e-4,1.7866 1.31752,3.14065 2.52539,3.71679 0.7956,0.3795 1.52467,0.38811 2.26953,0.47657 -0.15518,0.008 -0.32202,0.0781 -0.47266,0.0781 -1.49359,0 -2.83827,-0.4185 -3.71289,-1.0918 -0.87461,-0.67329 -1.38281,-1.51347 -1.38281,-2.98242 0,-2.03905 0.56566,-2.68985 1.5957,-3.31054 0.134,-0.0807 0.36159,-0.11987 0.51758,-0.19141 z m 81.4707,0 c -0.76622,0.85133 -1.34179,1.9803 -1.34179,3.30469 0,1.78669 1.31754,3.14057 2.52539,3.71679 0.79559,0.37955 1.52467,0.38812 2.26953,0.47657 -0.15526,0.008 -0.32194,0.0781 -0.47266,0.0781 -1.49359,0 -2.83659,-0.41858 -3.71094,-1.0918 -0.87434,-0.67321 -1.38281,-1.51331 -1.38281,-2.98242 -4e-4,-2.03903 0.56585,-2.6899 1.5957,-3.31054 0.1341,-0.0808 0.36146,-0.11982 0.51758,-0.19141 z m 151.59961,0 c -0.76551,0.85135 -1.33789,1.98098 -1.33789,3.30469 0,1.7873 1.31735,3.14074 2.52539,3.71679 0.79638,0.37975 1.5262,0.38822 2.27149,0.47657 -0.15528,0.008 -0.32193,0.0781 -0.47266,0.0781 -1.49419,0 -2.83873,-0.41866 -3.71289,-1.0918 -0.87416,-0.67313 -1.38281,-1.51316 -1.38281,-2.98242 -4.1e-4,-2.03903 0.56595,-2.68992 1.5957,-3.31054 0.13307,-0.0802 0.35889,-0.12029 0.51367,-0.19141 z m -225.26758,1.28125 v 0.76758 c 0,0.7456 -0.25295,1.02142 -0.8789,1.39843 -0.62595,0.37702 -1.63297,0.59766 -2.29297,0.59766 -0.55319,0 -1.39168,-0.14588 -1.85156,-0.36523 -0.45988,-0.21936 -0.41786,-0.16155 -0.41797,-0.37696 3.7e-4,-0.72042 0.10542,-0.77485 0.37109,-0.97656 0.26614,-0.20206 0.89421,-0.43472 1.72461,-0.57031 a 1.8507151,1.8507151 0 0 0 0.0293,-0.004 c 0.95459,-0.17166 2.11182,-0.25242 3.3164,-0.4707 z m 81.46875,0 v 0.76758 c 0,0.7456 -0.25295,1.02142 -0.8789,1.39843 -0.62595,0.37702 -1.63297,0.59766 -2.29297,0.59766 -0.55319,0 -1.39191,-0.144 -1.85156,-0.36328 -0.45965,-0.21928 -0.41797,-0.16164 -0.41797,-0.37695 0,-0.72377 0.10472,-0.77631 0.37109,-0.97852 0.26637,-0.20221 0.89468,-0.43472 1.72461,-0.57031 a 1.8507151,1.8507151 0 0 0 0.0293,-0.004 c 0.95465,-0.17167 2.11208,-0.2524 3.3164,-0.4707 z m 151.60352,0 v 0.76758 c 0,0.7456 -0.255,1.02143 -0.88086,1.39843 -0.62586,0.37701 -1.63168,0.59766 -2.29102,0.59766 -0.55254,0 -1.39135,-0.14578 -1.85156,-0.36523 -0.46021,-0.21945 -0.41797,-0.16031 -0.41797,-0.375 0,-0.72403 0.10502,-0.77646 0.3711,-0.97852 0.26607,-0.20205 0.89473,-0.43473 1.72461,-0.57031 a 1.8507151,1.8507151 0 0 0 0.0273,-0.004 c 0.95528,-0.17169 2.11375,-0.2524 3.31836,-0.4707 z"
       id="path2" /><path
       style="baseline-shift:baseline;display:inline;overflow:visible;vector-effect:none;stroke:none;enable-background:accumulate;stop-color:#000000;stop-opacity:1"
       d="m 467.049,185.19 c 3.217,-0.59 6.083,-0.237 6.083,-2.865 0,-2.316 -2.394,-2.747 -4.2,-2.747 -2.511,0 -4.276,1.021 -4.474,3.218 h -4.474 c 0.313,-5.221 4.749,-6.751 9.222,-6.751 3.964,0 8.124,1.61 8.124,5.888 v 10.439 c 0,1.097 0.236,1.53 1.061,1.53 0.274,0 0.628,0 1.098,-0.08 v 3.101 c -0.667,0.236 -2.078,0.51 -2.824,0.51 -1.806,0 -3.102,-0.627 -3.455,-2.471 -1.766,1.728 -4.63,2.471 -7.023,2.471 -3.651,0 -6.946,-1.961 -6.946,-5.925 -10e-4,-5.063 4.041,-5.887 7.808,-6.318 z m 0.785,8.712 c 1.961,0 5.022,-1.021 5.022,-3.848 v -3.334 c -1.373,0.903 -3.531,0.863 -5.495,1.216 -1.922,0.314 -3.648,1.021 -3.648,3.374 0,2.002 2.552,2.592 4.121,2.592 z M 448.409,191.9 v -11.97 h -3.376 v -3.336 h 3.376 v -6.084 h 4.474 v 6.084 h 4.043 v 3.336 h -4.043 v 10.832 c 0,1.845 0.156,2.786 2.159,2.786 0.627,0 1.255,0 1.884,-0.157 v 3.454 c -0.982,0.077 -1.924,0.234 -2.904,0.234 -4.672,0.001 -5.535,-1.804 -5.613,-5.179 z m -25.508,-0.862 7.182,-22.175 h 4.983 l -9.575,28.022 h -5.455 l -9.341,-28.022 h 5.103 l 7.025,22.175 z m -17.48,0.239 2.002,3.14 h -1.329 l -1.846,-3.053 h -1.104 v 3.053 h -1.174 v -7.142 h 2.709 c 1.726,0 2.604,0.604 2.604,2.053 10e-4,1.292 -0.791,1.829 -1.862,1.949 z m -0.862,-3.003 h -1.415 v 2.089 h 1.312 c 0.88,0 1.656,-0.087 1.656,-1.123 0,-0.862 -0.847,-0.966 -1.553,-0.966 z m -0.139,8.903 c -3.71,0 -6.35,-2.778 -6.35,-6.453 0,-3.883 2.933,-6.452 6.35,-6.452 3.382,0 6.315,2.569 6.315,6.452 0,3.883 -2.933,6.453 -6.315,6.453 z m 0,-11.784 c -2.794,0 -4.969,2.191 -4.969,5.331 0,2.934 1.897,5.332 4.969,5.332 2.761,0 4.935,-2.174 4.935,-5.332 0,-3.14 -2.174,-5.331 -4.935,-5.331 z m -137.281,-8.799 -7.889,21.388 c -1.453,3.651 -2.512,6.948 -7.183,6.948 -1.059,0 -2.079,-0.079 -3.1,-0.236 v -3.769 c 0.706,0.118 1.413,0.274 2.119,0.274 2.08,0 2.59,-1.097 3.139,-2.824 l 0.51,-1.57 -7.692,-20.211 h 4.906 l 5.298,15.149 h 0.078 l 5.142,-15.149 z m -53.371,0.942 c 0,3.453 -1.531,8.635 -9.537,8.595 h -7.457 v 10.755 h -4.905 v -28.022 h 12.362 c 8.006,-0.001 9.537,5.179 9.537,8.672 z m -16.994,-4.669 v 9.262 h 7.182 c 2.198,0 4.906,-1.1 4.906,-4.632 0,-3.689 -2.237,-4.63 -4.827,-4.63 z m 25.43,24.018 h -4.474 v -28.022 h 4.474 z m 11.773,-11.695 c 3.218,-0.59 6.083,-0.237 6.083,-2.865 0,-2.316 -2.394,-2.747 -4.2,-2.747 -2.512,0 -4.278,1.021 -4.474,3.218 h -4.474 c 0.313,-5.221 4.749,-6.751 9.222,-6.751 3.964,0 8.125,1.61 8.125,5.888 v 10.439 c 0,1.097 0.235,1.53 1.059,1.53 0.275,0 0.628,0 1.099,-0.08 v 3.101 c -0.667,0.236 -2.079,0.51 -2.826,0.51 -1.804,0 -3.1,-0.627 -3.453,-2.471 -1.767,1.728 -4.631,2.471 -7.024,2.471 -3.65,0 -6.947,-1.961 -6.947,-5.925 0,-5.063 4.042,-5.887 7.81,-6.318 z m 0.785,8.712 c 1.962,0 5.023,-1.021 5.023,-3.848 v -3.334 c -1.374,0.903 -3.532,0.863 -5.495,1.216 -1.923,0.314 -3.649,1.021 -3.649,3.374 0.001,2.002 2.551,2.592 4.121,2.592 z m 46.032,-0.354 c 4.317,0 5.926,-2.12 5.926,-4.238 0,-2.159 -1.177,-3.023 -2.315,-3.454 -1.962,-0.746 -4.513,-1.256 -8.359,-2.315 -4.788,-1.296 -6.2,-4.198 -6.2,-7.104 0,-5.61 5.18,-8.241 10.243,-8.241 5.848,0 10.753,3.101 10.753,8.948 h -4.906 c -0.235,-3.611 -2.669,-4.945 -6.044,-4.945 -2.276,0 -5.141,0.824 -5.141,3.65 0,1.962 1.334,3.06 3.336,3.609 0.431,0.119 6.632,1.727 8.083,2.16 3.689,1.098 5.456,4.237 5.456,7.142 0,6.279 -5.573,8.791 -11.146,8.791 -6.397,0 -11.577,-3.061 -11.695,-10.008 h 4.905 c 10e-4,4.317 3.18,6.005 7.104,6.005 z m 16.011,-23.038 h 4.475 v 6.084 h 4.041 v 3.336 h -4.041 v 10.832 c 0,1.845 0.156,2.786 2.157,2.786 0.628,0 1.257,0 1.884,-0.157 v 3.454 c -0.981,0.077 -1.923,0.234 -2.904,0.234 -4.67,0 -5.534,-1.805 -5.612,-5.18 v -11.97 h -3.375 v -3.336 h 3.375 z m 18.641,14.68 c 3.218,-0.59 6.083,-0.237 6.083,-2.865 0,-2.316 -2.394,-2.747 -4.199,-2.747 -2.512,0 -4.278,1.021 -4.475,3.218 h -4.474 c 0.314,-5.221 4.749,-6.751 9.223,-6.751 3.964,0 8.124,1.61 8.124,5.888 v 10.439 c 0,1.097 0.234,1.53 1.06,1.53 0.275,0 0.627,0 1.099,-0.08 v 3.101 c -0.667,0.236 -2.08,0.51 -2.825,0.51 -1.806,0 -3.101,-0.627 -3.455,-2.471 -1.765,1.728 -4.63,2.471 -7.024,2.471 -3.65,0 -6.946,-1.961 -6.946,-5.925 -10e-4,-5.063 4.041,-5.887 7.809,-6.318 z m 0.784,8.712 c 1.962,0 5.023,-1.021 5.023,-3.848 v -3.334 c -1.374,0.903 -3.531,0.863 -5.494,1.216 -1.922,0.314 -3.649,1.021 -3.649,3.374 0,2.002 2.55,2.592 4.12,2.592 z m 15.854,-23.392 h 4.474 v 6.084 h 4.042 v 3.336 h -4.042 v 10.832 c 0,1.845 0.157,2.786 2.158,2.786 0.628,0 1.256,0 1.885,-0.157 v 3.454 c -0.981,0.077 -1.923,0.234 -2.905,0.234 -4.67,0 -5.533,-1.805 -5.612,-5.18 v -11.97 h -3.375 v -3.336 h 3.375 z m 16.522,2.591 h -4.474 v -4.238 h 4.474 z m 0,23.784 h -4.474 v -20.291 h 4.474 z m 14.363,-20.841 c 6.515,0 10.242,4.475 10.242,10.676 0,6.238 -3.728,10.712 -10.242,10.712 -6.514,0 -10.242,-4.474 -10.242,-10.712 0,-6.201 3.728,-10.676 10.242,-10.676 z m 0,17.858 c 4.004,0 5.769,-3.651 5.769,-7.182 0,-3.494 -1.765,-7.143 -5.769,-7.143 -4.003,0 -5.769,3.648 -5.769,7.143 0.001,3.53 1.766,7.182 5.769,7.182 z m 18.405,-14.324 0.078,0.077 c 1.334,-2.236 3.65,-3.61 6.318,-3.61 4.396,0 7.182,2.354 7.182,6.908 v 13.933 h -4.473 v -12.757 c -0.079,-3.177 -1.336,-4.551 -3.964,-4.551 -2.983,0 -4.906,2.354 -4.906,5.337 v 11.971 h -4.475 v -20.291 h 4.239 v 2.983 z m 60.638,-6.477 h -4.474 v -4.238 h 4.474 z m 0,23.784 h -4.474 v -20.291 h 4.474 z"
       id="path3" /></g></g><g
   id="path1"
   style="opacity:1"
   transform="translate(-40.923,-6.0169993)"><path
     style="baseline-shift:baseline;display:inline;overflow:visible;vector-effect:none;fill:#ffffff;stroke-linecap:round;stroke-linejoin:round;paint-order:markers stroke fill;enable-background:accumulate;stop-color:#000000;stop-opacity:1"
     d="M 574.39062,-7.5 459.5293,-7.423828 a 7.50075,7.50075 0 0 0 -7.49414,7.49999997 V 14.048828 a 7.50075,7.50075 0 0 0 7.48828,7.5 l 37.90039,0.05859 v 92.994142 a 7.50075,7.50075 0 0 0 7.5,7.5 h 23.9082 a 7.50075,7.50075 0 0 0 7.5,-7.50586 l -0.0781,-93.064454 38.06836,0.101562 a 7.50075,7.50075 0 0 0 7.52148,-7.472656 l 0.0508,-14.13281225 A 7.50075,7.50075 0 0 0 574.39062,-7.5 Z m 49.20118,0.1328125 c -7.64159,-0.4126283 -13.61575,3.6642148 -17.39844,7.54101562 -3.7827,3.87680088 -6.13933,8.10524508 -7.00586,9.51367188 -0.869,1.411113 -1.50918,2.69565 -3.14063,5.730469 -1.6321,3.03605 -3.84083,7.169676 -6.43164,12.035156 -5.1816,9.73096 -11.89102,22.380268 -18.53515,34.923828 -13.28827,25.08712 -26.31641,49.751957 -26.31641,49.751957 a 7.50075,7.50075 0 0 0 6.63281,11.00195 h 16.71875 a 7.50075,7.50075 0 0 0 6.64844,-4.02734 l 10.58594,-20.273442 64.50976,0.02344 10.9961,20.343752 a 7.50075,7.50075 0 0 0 6.59765,3.93359 h 26.76563 a 7.50075,7.50075 0 0 0 4.82227,-2.72656 7.50075,7.50075 0 0 0 3.6875,1.52734 h 1.55078 a 7.50075,7.50075 0 0 0 2.03906,-0.84375 7.50075,7.50075 0 0 0 2.03711,0.84375 h 1.45703 a 7.50075,7.50075 0 0 0 1.03906,-0.43164 7.50075,7.50075 0 0 0 1.38672,0.43164 h 1.08594 a 7.50075,7.50075 0 0 0 1.38672,-0.43164 7.50075,7.50075 0 0 0 1.04101,0.43164 h 1.45313 a 7.50075,7.50075 0 0 0 7.5,-7.5 v -7.99609 a 7.50075,7.50075 0 0 0 -7.5,-7.500001 h -2.23047 a 7.50075,7.50075 0 0 0 -2.18164,0.677734 7.50075,7.50075 0 0 0 -2.18555,-0.677734 h -2.25195 a 7.50075,7.50075 0 0 0 -0.81445,0.33789 7.50075,7.50075 0 0 0 -0.81446,-0.33789 h -6.44336 a 7.50075,7.50075 0 0 0 -5.27343,2.185541 C 690.94822,93.462543 684.45141,81.208827 673.71484,60.990234 666.87557,48.110826 659.97932,35.134953 654.67773,25.179687 c -2.65079,-4.977632 -4.9013,-9.199972 -6.55078,-12.281249 -1.64947,-3.0812785 -2.41378,-4.5434089 -3.04297,-5.6230474 a 7.50075,7.50075 0 0 0 -0.002,-0.00586 C 643.41823,4.419262 636.85996,-6.6505876 623.5918,-7.3671875 Z m -361.73828,0.1894531 a 7.50075,7.50075 0 0 0 -5.10547,2.8867188 7.50075,7.50075 0 0 0 -5.52735,-2.7382813 h -51.04297 c -13.39823,0 -23.91678,4.3667505 -30.48828,11.8515625 -6.57149,7.4848124 -8.89257,17.2115244 -8.89258,26.7832034 v 52.441406 c 0,3.309713 -0.97583,5.817639 -2.17382,7.269531 -1.198,1.451893 -2.42845,2.1875 -4.98633,2.1875 h -44.8418 a 7.50075,7.50075 0 0 0 -7.5,7.500004 v 14.17773 a 7.50075,7.50075 0 0 0 7.5,7.5 h 51.39649 c 13.213,0 23.75516,-3.45583 30.67382,-10.69531 6.91866,-7.23948 9.38282,-17.228926 9.38282,-27.941408 V 31.605469 c 0,-3.077824 0.67474,-6.192671 1.54492,-7.585938 0.87018,-1.393267 1.04091,-2.045687 4.9414,-1.876953 a 7.50075,7.50075 0 0 0 0.32422,0.0078 h 44.16211 a 7.50075,7.50075 0 0 0 7.5,-7.5 v -4.230469 c 2.82607,5.329317 11.69307,22.053375 23.58399,44.445312 6.82622,12.854554 13.70826,25.806064 19,35.742188 2.64587,4.968062 4.8944,9.182331 6.54101,12.257811 1.64662,3.07549 2.40371,4.52651 3.03907,5.61524 1.66023,2.84559 8.20975,13.90026 21.45898,14.61719 7.6325,0.41295 13.59783,-3.65863 17.375,-7.5293 3.77717,-3.87067 6.13264,-8.09423 6.99609,-9.49609 a 7.50075,7.50075 0 0 0 0,-0.002 c 0.86585,-1.40668 1.50781,-2.69052 3.13672,-5.7207 1.62891,-3.030181 3.83408,-7.157592 6.41992,-12.013676 5.17169,-9.712166 11.86648,-22.33617 18.49805,-34.855468 C 398.03266,28.441872 411.03711,3.8261719 411.03711,3.8261719 A 7.50075,7.50075 0 0 0 404.4043,-7.1777344 h -16.6875 a 7.50075,7.50075 0 0 0 -6.61719,3.96875 c 0,0 -37.87221,70.9592234 -42.75,80.1328124 L 295.16992,-3.234375 a 7.50075,7.50075 0 0 0 -6.60351,-3.9433594 z M 0,-7.0292969 A 7.50075,7.50075 0 0 0 -7.5,0.47070313 V 14.648438 A 7.50075,7.50075 0 0 0 0,22.148437 H 84.970703 A 7.50075,7.50075 0 0 0 85.560547,22.125 c 4.565624,-0.360325 5.628891,0.694658 6.820312,2.255859 1.191422,1.561202 1.988282,4.542211 1.988282,7.060547 0,4.089184 -0.742143,6.243302 -1.566407,7.220703 -0.821649,0.974302 -2.51613,2.185364 -8.080078,2.404297 H 29.332031 c -10.496089,0 -20.061719,4.152624 -26.6562497,11.373047 C -3.9187495,59.659876 -7.5,69.695291 -7.5,80.931641 v 34.412109 a 7.50075,7.50075 0 0 0 7.5,7.5 h 23.744141 a 7.50075,7.50075 0 0 0 7.5,-7.5 V 79.621094 c 0,-3.499452 0.94571,-5.47453 1.867187,-6.525391 0.921477,-1.050861 1.874797,-1.542969 3.742188,-1.542969 h 55 c 13.421994,0 24.234774,-3.899684 31.296874,-11.417968 7.06211,-7.518285 9.79688,-17.794045 9.79688,-28.691407 0,-9.916185 -2.84076,-19.768495 -9.85157,-27.0722653 -7.0108,-7.3037706 -17.75221,-11.4003906 -31.242184,-11.4003906 z m 419.67187,0.2363282 a 7.50075,7.50075 0 0 0 -7.5,7.49999995 V 115.25391 a 7.50075,7.50075 0 0 0 7.5,7.5 h 24.3125 a 7.50075,7.50075 0 0 0 7.5,-7.5 V 0.70703125 a 7.50075,7.50075 0 0 0 -7.5,-7.49999995 z M 526.29102,7.5332031 a 7.50075,7.50075 0 0 0 -5.04297,6.4843749 l 0.0781,93.083982 h -8.90234 V 14.119141 a 7.50075,7.50075 0 0 0 -5.25977,-6.5742191 z m 96.49218,0.076172 c 5.91384,0.3194001 7.37556,3.8509259 9.34375,7.2226559 -0.17358,-0.297651 1.13678,2.083545 2.77539,5.144531 1.63984,3.063273 3.88902,7.279383 6.53711,12.251954 5.2962,9.945141 12.1895,22.920158 19.02735,35.796875 10.72934,20.204992 17.21798,32.439989 21.2832,40.105469 h -9.82422 L 660.92969,87.789062 a 7.50075,7.50075 0 0 0 -6.59571,-3.933593 l -6.41601,-0.002 a 7.50075,7.50075 0 0 0 5.41797,-10.396485 l -23.8418,-44.109375 0.11523,0.22461 c -2.06258,-4.142032 -5.87051,-7.60134 -11.02148,-8.09961 -5.14636,-0.497824 -10.37069,2.983532 -12.7832,7.576172 -0.95551,1.8056 -16.27058,30.577978 -20.65039,38.806641 6.35034,-11.987426 12.75814,-24.068639 17.70117,-33.351563 2.58584,-4.85616 4.78779,-8.980983 6.40234,-11.984375 1.61455,-3.003391 3.05586,-5.538288 2.70508,-4.96875 a 7.50075,7.50075 0 0 0 0,-0.002 c 1.20747,-1.962573 2.86074,-4.741941 4.9668,-6.90039 2.10605,-2.1584497 3.9021,-3.1444347 5.85351,-3.039063 z M 274.32227,7.8222656 h 9.76562 L 326.43555,86.4375 326.32422,86.222656 c 2.06042,4.13862 5.86626,7.594358 11.01367,8.091797 5.14511,0.497216 10.3687,-2.984659 12.77734,-7.576172 0.22255,-0.420388 3.51304,-6.584722 4.46289,-8.367187 -0.45266,0.850751 -1.11474,2.104495 -1.54687,2.916015 -2.58091,4.846808 -4.77919,8.963268 -6.39063,11.960938 -1.61143,2.99767 -3.04756,5.524918 -2.69921,4.958984 -1.20848,1.962069 -2.85664,4.732379 -4.95704,6.884769 -2.10082,2.15283 -3.88857,3.13239 -5.83007,3.02734 -5.89677,-0.31908 -7.35074,-3.83486 -9.3125,-7.19726 a 7.50075,7.50075 0 0 0 -0.002,-0.002 c 0.18236,0.31248 -1.1327,-2.077562 -2.76953,-5.134764 -1.63682,-3.057202 -3.88226,-7.265593 -6.52539,-12.228515 C 309.25866,73.630796 302.37751,60.681899 295.55273,47.830078 284.84924,27.674188 278.38409,15.481331 274.32227,7.8222656 Z m -74.14454,0.1484375 h 0.55469 c -5.09112,1.360133 -9.32418,4.3602009 -11.66211,8.1035159 -3.30282,5.288233 -3.82226,10.907074 -3.82226,15.53125 v 52.439453 c 0,8.461517 -1.84968,14.040653 -5.22852,17.576168 -3.37884,3.53552 -9.11512,6.06055 -19.82812,6.06055 h -0.88868 c 4.33525,-1.16449 8.18914,-3.54434 10.89063,-6.81836 3.83775,-4.651106 5.60351,-10.622118 5.60351,-16.816405 V 31.605469 c 0,-7.143321 1.73801,-12.982281 5.16602,-16.886719 3.42801,-3.904438 8.85108,-6.7480469 19.21484,-6.7480469 z M 92.634766,8.0273438 c 10.068454,0.1513964 15.977804,2.9185722 19.638674,6.7324222 3.76394,3.921229 5.67383,9.555779 5.67383,16.683593 0,8.439639 -2.01587,14.46941 -5.72852,18.421875 -3.71265,3.952466 -9.69823,6.6875 -20.365234,6.6875 h -55 c -5.671609,0 -11.272711,2.377205 -15.021485,6.652344 -3.748773,4.275139 -5.58789,10.083468 -5.58789,16.416016 V 107.84375 H 7.5 V 80.931641 c 0,-8.100651 2.4814839,-14.248626 6.251953,-18.376954 3.770469,-4.128327 8.870168,-6.488281 15.580078,-6.488281 h 55.638672 a 7.50075,7.50075 0 0 0 0.285156,-0.0059 c 8.03752,-0.305737 14.799931,-2.731917 19.013671,-7.728516 4.21374,-4.996598 5.09961,-11.146809 5.09961,-16.890625 0,-5.019663 -1.08862,-10.95231 -5.06445,-16.162109 C 101.6991,11.865022 97.540802,9.3007293 92.634766,8.0273438 Z M 427.17187,8.2070313 h 9.3125 V 107.75391 h -9.3125 z m 190.40821,30.6445307 16.57812,30.669922 -32.89843,-0.002 C 607.06413,58.614657 614.9747,43.754885 617.58008,38.851562 Z M 582.1543,73.521484 a 7.50075,7.50075 0 0 0 5.40625,10.308594 l -6.75,-0.002 a 7.50075,7.50075 0 0 0 -5.70508,3.019531 c 3.0894,-5.840895 3.52483,-6.67038 7.04883,-13.326172 z"
     id="path60" /><path
     style="baseline-shift:baseline;display:inline;overflow:visible;vector-effect:none;stroke-linecap:round;stroke-linejoin:round;paint-order:markers stroke fill;enable-background:accumulate;stop-color:#000000;stop-opacity:1"
     d="m 715.752,114.432 v -6.248 h -0.04 l -2.388,6.248 h -1.086 l -2.389,-6.248 h -0.037 v 6.248 h -1.457 v -7.996 h 2.252 l 2.192,5.667 2.176,-5.667 h 2.23 v 7.996 z m -11.472,0 h -1.552 v -6.734 h -2.444 v -1.262 h 6.442 v 1.262 h -2.446 z m -49.948,-23.077 -73.525,-0.026 -12.692,24.302 h -16.719 c 0,0 52.105,-98.644 54.18,-102.013 2.074,-3.371 8.018,-14.015 17.611,-13.497 9.591,0.518 13.601,7.819 15.417,10.93 1.813,3.111 55.615,104.58 55.615,104.58 h -26.765 z m -31.436,-58.44 c -2.324,-4.667 -7.603,-5.816 -10.455,-0.373 -1.189,2.247 -23.667,44.476 -23.667,44.476 l 57.965,0.005 z m -94.148,-18.904 0.085,100.591 h -23.91 V 14.119 L 459.535,14.048 V 0.077 L 574.395,0 574.343,14.133 Z M 419.671,0.708 h 24.313 v 114.546 h -24.313 z m -86.922,114.901 c -9.573,-0.518 -13.575,-7.804 -15.386,-10.908 -1.812,-3.105 -55.51,-104.378 -55.51,-104.378 h 26.714 l 44.471,82.557 c 2.319,4.658 7.59,5.805 10.437,0.371 2.328,-4.398 44.242,-82.928 44.242,-82.928 h 16.688 c 0,0 -52.007,98.453 -54.077,101.816 -2.072,3.364 -8.005,13.988 -17.579,13.47 z m -140,-84.003 v 52.439 c 0,19.174 -8.632,31.137 -32.558,31.137 h -51.396 v -14.178 h 44.842 c 9.177,0 14.66,-7.454 14.66,-16.958 v -52.44 c 0,-16.715 8.118,-31.136 31.88,-31.136 h 51.043 v 14.18 h -44.161 c -11.928,-0.516 -14.31,9.254 -14.31,16.956 z M 91.854,64.053 h -55 c -7.539,0 -13.11,5.736 -13.11,15.568 v 35.723 H 0 V 80.932 C 0,61.595 12.127,48.566 29.333,48.566 h 55.638 c 13.644,-0.519 16.898,-7.291 16.898,-17.124 0,-7.538 -3.771,-17.829 -16.898,-16.793 H 0 V 0.471 h 91.854 c 24.089,0 33.594,13.928 33.594,30.972 0,19.337 -9.505,32.61 -33.594,32.61 z"
     id="path61" /></g>
</svg>
