<?xml version='1.0' encoding='utf-8'?>
<svg xmlns="http://www.w3.org/2000/svg" width="600" height="131.84932804695947" xml:space="preserve" version="1.1" id="svg7" viewBox="0 0 582.63 128.03229">
    <defs id="defs7"/>
    <g id="g9" transform="translate(6.4638771e-5,0.00111532)">
        <path style="baseline-shift:baseline;display:inline;overflow:visible;opacity:1;vector-effect:none;fill:#ffffff;stroke-linecap:round;stroke-linejoin:round;paint-order:markers stroke fill;enable-background:accumulate;stop-color:#000000;stop-opacity:1" d="m 63.683594,62.417969 a 7.50075,7.50075 0 0 0 -2.414063,0.398437 l -9.458984,3.21875 a 7.50075,7.50075 0 0 0 0.199219,14.265625 l 9.458984,2.925781 a 7.50075,7.50075 0 0 0 9.716797,-7.166015 v -6.142578 a 7.50075,7.50075 0 0 0 -7.5,-7.5 z m 52.687496,6.916015 c -10.12601,0.643207 -19.877662,3.157465 -29.189449,6.361328 a 7.50075,7.50075 0 0 0 -0.04883,0.01563 l -1.949218,0.6875 a 7.50075,7.50075 0 0 0 0.263672,14.236329 l 21.355465,6.632812 a 7.50075,7.50075 0 0 0 4.61524,-0.05273 l 2.78516,-0.9375 a 7.50075,7.50075 0 0 0 4.59375,4.794927 l 22.62109,7.02148 a 7.50075,7.50075 0 0 0 4.07031,0.10742 l 0.38867,-0.0996 a 7.50075,7.50075 0 0 0 0.63867,-0.19336 c 5.29777,-1.85994 9.52297,-4.13294 12.73243,-7.42187 3.20172,-3.281011 5.28499,-8.406216 4.18164,-13.2168 -1.55717,-6.920083 -7.43252,-11.108394 -13.73828,-13.539062 -6.31828,-2.435492 -13.9944,-3.705626 -23.05274,-4.371094 a 7.50075,7.50075 0 0 0 -0.0195,0 c -3.45607,-0.244749 -6.87271,-0.239793 -10.24805,-0.02539 z m 25.45118,17.740235 c 0.75892,0.228855 1.84119,0.408184 2.4746,0.652343 2.9219,1.126295 3.73657,1.908418 4.09571,2.369141 -0.68094,0.665248 -2.51767,1.770672 -5.09375,2.875 l -2.81446,-0.873047 c 0.55263,-0.85968 1.04869,-1.859994 1.30079,-3.201172 0.11039,-0.587292 0.0817,-1.206354 0.0371,-1.822265 z" id="path15"/>
        <path style="baseline-shift:baseline;display:inline;overflow:visible;opacity:1;vector-effect:none;fill:#ffffff;stroke-linecap:round;stroke-linejoin:round;paint-order:markers stroke fill;enable-background:accumulate;stop-color:#000000;stop-opacity:1" d="M 65.601562,0.24804688 A 7.50075,7.50075 0 0 0 56.183594,7.5 v 105.23047 a 7.50075,7.50075 0 0 0 5.18164,7.13086 l 23.984375,7.80078 a 7.50075,7.50075 0 0 0 9.820313,-7.12305 l 0.04492,-40.437498 c 10.625098,3.024073 20.771568,2.49656 27.958988,-3.539062 7.24707,-6.08572 9.91542,-15.857624 10.02539,-27.435547 v -0.0059 c 0.11372,-10.65496 -3.7159,-20.054045 -10.45313,-26.83785 C 116.0076,15.498122 106.85424,11.203661 96.248047,8.3535156 a 7.50075,7.50075 0 0 0 -0.0293,-0.00781 z m 5.582032,16.99218712 15.77539,4.169922 c -0.568043,0.241976 -1.128565,0.343305 -1.701172,0.699219 -2.567519,1.595887 -4.988281,5.225153 -4.988281,8.896484 l -0.08789,79.203121 -8.998047,-2.92578 z m 32.132816,9.636719 c 3.61565,1.76814 6.5892,3.763478 8.78515,5.974609 4.10901,4.137419 6.17838,8.827759 6.09961,16.113282 a 7.50075,7.50075 0 0 0 0,0.01172 c -0.0868,9.289753 -2.34319,14.142463 -4.67383,16.09961 -1.73752,1.45908 -4.40241,2.350708 -8.99414,1.742187 V 31.6875 a 7.50075,7.50075 0 0 0 0,-0.002 c -6.7e-4,-1.684319 -0.48416,-3.334095 -1.21679,-4.808594 z" id="path11"/>
        <path style="baseline-shift:baseline;display:inline;overflow:visible;opacity:1;vector-effect:none;fill:#ffffff;stroke-linecap:round;stroke-linejoin:round;paint-order:markers stroke fill;enable-background:accumulate;stop-color:#000000;stop-opacity:1" d="m 56.441406,65.970703 a 7.50075,7.50075 0 0 0 -4.61914,0.06055 l -33.556641,11.3457 c -0.511073,0.100729 -0.661625,0.209719 -0.603516,0.193359 0.0029,-8.07e-4 0.04908,-0.0067 0.05273,-0.0078 l -0.216797,0.07422 1.421875,-0.234375 c 0.226733,-0.02412 0.174475,-0.06641 0.49414,-0.06641 a 7.50075,7.50075 0 0 0 -2.271484,14.648438 l 20.574219,6.537109 a 7.50075,7.50075 0 0 0 4.798828,-0.08594 L 45.828125,97.25 a 7.50075,7.50075 0 0 0 4.560547,5.26563 l 11.019531,3.51171 a 7.50075,7.50075 0 0 0 9.777344,-7.146481 v -7.216797 a 7.50075,7.50075 0 0 0 -1.732422,-4.179687 7.50075,7.50075 0 0 0 1.730469,-4.595703 V 76.0625 A 7.50075,7.50075 0 0 0 65.900391,68.898437 Z M 89.892578,76.3125 a 7.50075,7.50075 0 0 0 -9.722656,7.162109 v 13.945313 a 7.50075,7.50075 0 0 0 1.703125,3.310548 7.50075,7.50075 0 0 0 -1.703125,4.58789 v 1.16992 a 7.50075,7.50075 0 0 0 5.228515,7.14844 l 21.158203,6.72656 a 7.50075,7.50075 0 0 0 4.76953,-0.0742 l 34.8125,-12.28515 a 7.50075,7.50075 0 0 0 -0.27344,-14.236332 l -22.62304,-7.021484 a 7.50075,7.50075 0 0 0 -4.65235,0.06641 l -2.74804,0.939453 a 7.50075,7.50075 0 0 0 -4.59375,-4.808594 z" id="path17"/>
        <path style="baseline-shift:baseline;display:inline;overflow:visible;opacity:1;vector-effect:none;fill:#ffffff;stroke-linecap:round;stroke-linejoin:round;paint-order:markers stroke fill;enable-background:accumulate;stop-color:#000000;stop-opacity:1" d="m 21.683594,77.689453 a 7.50075,7.50075 0 0 0 -4.679688,0.04492 c -4.028665,1.365348 -8.0239781,3.450082 -11.3515623,6.759766 -3.3256061,3.307716 -5.96176913,8.33663 -5.62304682,13.957031 3.937e-5,6.6e-4 -3.951e-5,0.0013 0,0.002 0.266725,4.45411 3.27659762,7.97496 6.04882812,9.83204 2.772641,1.85733 5.659398,2.84565 8.683594,3.67968 6.041794,1.66626 12.785526,2.49248 18.359375,3.38868 11.877329,1.94226 23.01383,0.86135 33.048828,-2.66797 a 7.50075,7.50075 0 0 0 5.011719,-7.07617 V 98.878906 A 7.50075,7.50075 0 0 0 65.958984,91.734375 L 54.941406,88.224609 a 7.50075,7.50075 0 0 0 -4.667969,0.03711 l -3.457031,1.164062 a 7.50075,7.50075 0 0 0 -4.558594,-5.199219 z m -1.84961,15.150391 4.605469,1.46289 c -0.298446,1.549659 -0.189148,3.045749 0.222656,4.425782 -2.113938,-0.385368 -4.25156,-0.766651 -5.912109,-1.22461 -1.70837,-0.471147 -2.613414,-0.92941 -3.369141,-1.308594 0.187422,-0.306991 0.392582,-0.613779 0.847657,-1.066406 0.785931,-0.781703 2.129481,-1.57765 3.605468,-2.289062 z m 70.107422,6.501953 a 7.50075,7.50075 0 0 0 -9.771484,7.148433 v 13.55665 a 7.50075,7.50075 0 0 0 0.542969,2.80273 l 0.195312,0.48437 a 7.50075,7.50075 0 0 0 9.425781,4.2793 l 20.964846,-7.3125 a 7.50075,7.50075 0 0 0 -0.19727,-14.22851 z" id="path13"/>
        <path style="baseline-shift:baseline;display:inline;overflow:visible;opacity:1;vector-effect:none;fill:#f3c202;stroke-linecap:round;stroke-linejoin:round;paint-order:markers stroke fill;enable-background:accumulate;stop-color:#000000;stop-opacity:1" d="m 52.664115,95.369776 -11.31,3.805 c -7.315,2.537004 -13.555,-3.412 -6.827,-5.854 l 5.46,-1.947 -20.575,-6.537 c -6.338,2.148 -12.2880001,6.73 -11.8960001,13.168 0.39,6.533004 15.3100001,8.096004 26.8150001,9.947004 10.726,1.754 20.477,0.779 29.351,-2.342 v -6.730004 z m 35.2,25.162004 20.964995,-7.313 -21.159995,-6.729 v 13.558 z" id="path14"/>
        <path style="baseline-shift:baseline;display:inline;overflow:visible;opacity:1;vector-effect:none;fill:#326db3;stroke-linecap:round;stroke-linejoin:round;paint-order:markers stroke fill;enable-background:accumulate;stop-color:#000000;stop-opacity:1" d="m 143.64211,100.93078 0.39,-0.099 c 9.166,-3.218004 13.066,-7.707004 12.091,-11.898004 -1.56,-7.021 -12.773,-10.826 -30.033,-12.094 -12.384,-0.877 -24.572,1.854 -36.467995,5.947 l -1.95,0.686 21.354995,6.633 12.48,-4.197 c 13.067,-2.436 18.333,1.854 5.755,5.854 l -6.242,2.146 z m -79.957995,-31.013004 -9.459,3.217 9.46,2.926 v -6.143 z" id="path16"/>
        <path style="baseline-shift:baseline;display:inline;overflow:visible;opacity:1;vector-effect:none;fill:#de0029;stroke-linecap:round;stroke-linejoin:round;paint-order:markers stroke fill;enable-background:accumulate;stop-color:#000000;stop-opacity:1" d="m 87.769115,31.005776 -0.099,89.525004 -23.986,-7.801 V 7.499776 l 30.618,8.096 c 19.599995,5.267 31.591995,15.507 31.397995,33.45 -0.195,20.873 -9.849,29.257 -28.666995,23.796 v -41.154 c -0.002,-4.976 -9.264,-5.267 -9.264,-0.682 z" id="path12"/>
        <path style="baseline-shift:baseline;display:inline;overflow:visible;opacity:1;vector-effect:none;fill:#00aa9e;stroke-linecap:round;stroke-linejoin:round;paint-order:markers stroke fill;enable-background:accumulate;stop-color:#000000;stop-opacity:1" d="m 108.83011,113.21678 34.812,-12.286 -22.624,-7.022004 -33.347995,11.410004 v 1.17 z m -45.145995,-21.552004 -11.019,3.705 11.02,3.512 v -7.217 z m 23.985,5.755 v -13.945 l 21.354995,6.631 z m -47.681,-6.046 23.696,-8.485 v -6.826 l -9.459,-2.927 -34.324,11.605 c -0.097,0 -0.292,0.096 -0.487,0.096 z" id="path18"/>
        <g id="path6" style="opacity:1"/>
    </g>
    <g id="g8" transform="translate(6.4638771e-5,0.00111532)">
        <g id="path1" style="opacity:1">
            <path style="baseline-shift:baseline;display:inline;overflow:visible;vector-effect:none;fill:#ffffff;stroke-linecap:round;stroke-linejoin:round;paint-order:markers stroke fill;enable-background:accumulate;stop-color:#000000;stop-opacity:1" d="m 173.13281,28.917969 a 7.50075,7.50075 0 0 0 -7.5,7.5 v 57.539062 a 7.50075,7.50075 0 0 0 7.5,7.499999 h 10.07813 a 7.50075,7.50075 0 0 0 7.5,-7.499999 V 80.017578 l 3.45117,-0.06641 6.25781,-0.121094 a 7.50075,7.50075 0 0 0 3.06055,-0.71875 l 2.20898,-1.044922 c 1.63768,-0.772479 3.12435,-1.759271 4.47852,-2.898437 v 18.789062 a 7.50075,7.50075 0 0 0 7.5,7.499999 h 10.07617 a 7.50075,7.50075 0 0 0 6.43555,-4.929686 c 2.15966,2.045845 4.36628,3.397408 7.28906,4.291016 2.07413,0.63865 1.85661,0.36564 2.4043,0.4082 0.54992,0.0427 1.14056,0.0726 1.8125,0.0996 1.34108,0.0539 2.97985,0.0888 4.6914,0.0957 l 5.93164,0.0312 a 7.50075,7.50075 0 0 0 2.30469,-0.94336 7.50075,7.50075 0 0 0 2.28516,0.94336 h 10.07812 a 7.50075,7.50075 0 0 0 7.5,-7.500005 v -14.78125 l 4.90039,14.365234 -3.18945,8.222661 a 7.50075,7.50075 0 0 0 0,0.004 c -1.14933,2.96824 -2.19449,5.67659 -2.95508,7.65625 -0.38029,0.98983 -0.68979,1.7962 -0.9082,2.3711 -0.10921,0.28744 -0.19423,0.51393 -0.26172,0.69531 -0.0337,0.0907 -0.0626,0.16556 -0.0977,0.26367 -0.0175,0.0491 -0.0347,0.0958 -0.0723,0.20898 -0.0188,0.0566 -0.0401,0.12221 -0.0879,0.28711 -0.0239,0.0825 -0.0553,0.18396 -0.10547,0.40039 -0.0251,0.10822 -0.0541,0.24274 -0.0918,0.47071 -0.0377,0.22796 -0.10156,1.22245 -0.10156,1.22265 0,3.9e-4 1.15601,4.00353 1.15625,4.00391 2.4e-4,3.8e-4 1.72217,1.90587 1.72266,1.90625 4.8e-4,3.8e-4 0.8771,0.59991 1.1914,0.76172 0.3143,0.1618 0.5598,0.26339 0.76563,0.3418 0.82328,0.31362 1.112,0.33242 1.35937,0.37695 0.49475,0.0891 0.64945,0.0912 0.80469,0.10351 0.31048,0.0246 0.46251,0.0263 0.64062,0.0312 0.35622,0.01 0.71986,0.0137 1.16016,0.0137 0.88061,0 2.02325,-0.0132 3.2832,-0.0391 a 7.50075,7.50075 0 0 0 0.002,0 l 4.42968,-0.0918 a 7.50075,7.50075 0 0 0 6.81055,-4.72266 L 311.7832,85.517578 v -0.002 c 2.74354,-6.882508 4.94678,-12.415285 7.04883,-17.695313 1.4731,1.972515 3.13654,3.640661 5.75781,5.15625 9.2e-4,5.31e-4 0.001,0.0014 0.002,0.002 3.35224,1.941394 7.13566,2.673921 11.875,3.054687 0.82455,0.06677 0.85468,0.08379 1.24804,0.130859 0.004,0.168606 0.0388,0.612692 0.0371,2.179688 -0.001,1.31279 -0.0231,1.497201 -0.0352,1.8125 l -5.60547,0.06641 -8.54883,0.0918 a 7.50075,7.50075 0 0 0 -7.41992,7.5 v 6.144531 a 7.50075,7.50075 0 0 0 7.5,7.499996 h 9.73047 c 3.02165,0 5.68673,-0.0375 7.79882,-0.10546 2.1121,-0.0679 2.89133,0.0654 5.20899,-0.42383 5.10811,-1.076038 9.53204,-4.092992 12.44726,-8.339846 0.29926,0.480249 0.4473,1.007837 0.82227,1.521484 a 7.50075,7.50075 0 0 0 0.0117,0.01953 c 2.13651,2.908171 5.25981,5.18144 8.66211,6.373051 2.95615,1.0374 5.01496,0.92104 8.51367,0.93359 l 4.63477,0.0195 a 7.50075,7.50075 0 0 0 6.28711,-4.505858 c 1.69309,1.495689 3.57835,2.760457 5.69531,3.492188 0.001,4e-4 0.003,-4e-4 0.004,0 8.3e-4,2.8e-4 0.001,0.002 0.002,0.002 2.54439,0.8794 5.10378,0.98983 9.88867,0.99805 l 5.77148,0.0117 a 7.50075,7.50075 0 0 0 2.28907,-0.94336 7.50075,7.50075 0 0 0 2.27929,0.94336 h 10.40235 a 7.50075,7.50075 0 0 0 6.63086,-5.400393 c 0.6093,0.61909 1.25002,1.222393 1.98242,1.78125 1.8644,1.426657 3.01797,1.942645 4.96484,2.609373 2.46998,0.85271 4.96491,0.99155 8.58594,1 l 4.46875,0.01 a 7.50075,7.50075 0 0 0 4.57422,-1.884768 7.50075,7.50075 0 0 0 4.54687,1.884768 h 10.07813 a 7.50075,7.50075 0 0 0 7.0664,-6.451174 c 3.09765,2.952523 6.93642,4.832949 11.14649,5.789064 a 7.50075,7.50075 0 0 0 0.008,0.002 c 2.55415,0.57709 5.01997,0.61629 8.31641,0.52735 5.81631,-0.15573 10.81435,-1.473494 14.81836,-4.210942 v 0.002 c 0.84993,-0.580994 1.60845,-1.261512 2.34961,-1.957031 a 7.50075,7.50075 0 0 0 6.99414,6.29883 h 10.41015 a 7.50075,7.50075 0 0 0 7.5,-7.500002 V 65.919922 c -0.0192,-0.01817 0.12185,2.093443 0.17969,4.736328 0.0616,2.815082 0.0996,6.390506 0.0996,10.041016 v 13.257812 a 7.50075,7.50075 0 0 0 7.5,7.500002 h 10.07422 a 7.50075,7.50075 0 0 0 7.5,-7.505861 l -0.01,-12.916016 v -0.0059 c -0.002,-13.786117 -0.30888,-18.433538 -1.99609,-23.179688 -2.45655,-6.907605 -8.45261,-12.297129 -15.58399,-14.232422 h -0.002 c -2.86943,-0.77879 -5.58376,-0.828451 -14.75195,-0.851562 h -0.004 l -10.72265,-0.03125 a 7.50075,7.50075 0 0 0 -7.13868,6.560547 c -2.36893,-2.249608 -5.05658,-3.990792 -8.17578,-5.027344 a 7.50075,7.50075 0 0 0 -0.006,-0.002 c -3.31046,-1.097227 -6.70765,-1.439453 -10.17773,-1.439453 -3.47008,0 -6.83126,0.3238 -10.14844,1.464843 -3.00708,1.034551 -5.78708,2.839881 -8.07031,5 a 7.50075,7.50075 0 0 0 -0.75391,-1.818359 7.50075,7.50075 0 0 0 1.07813,-2.599609 v -8.453125 a 7.50075,7.50075 0 0 0 -7.5,-7.5 h -5.03906 -5.03907 a 7.50075,7.50075 0 0 0 -7.5,7.5 v 6.294922 l -2.33203,-0.03906 a 7.50075,7.50075 0 0 0 -7.39844,-7.253906 h -5.03906 -5.03711 a 7.50075,7.50075 0 0 0 -7.5,7.5 v 0.164062 a 7.50075,7.50075 0 0 0 -1.50976,-0.59375 l -10.75782,0.173828 c -5.80536,0.08933 -9.06878,0.136149 -11.96093,0.5 -2.89357,0.364029 -5.53155,1.367292 -7.47266,2.351563 -1.03156,0.522892 -1.9161,1.237018 -2.82422,1.919922 a 7.50075,7.50075 0 0 0 -6.4082,-4.865235 h -3.69727 a 7.50075,7.50075 0 0 0 -7.35547,-7.15039 h -5.04882 -5.06055 a 7.50075,7.50075 0 0 0 -3.19531,1.328125 v -0.328125 a 7.50075,7.50075 0 0 0 -7.5,-7.5 h -8.20703 -0.002 a 7.50075,7.50075 0 0 0 -0.002,-0.002 c -2.34449,5.19e-4 -4.69803,0.04094 -6.66797,0.107422 -1.96757,0.0664 -3.04255,0.04637 -4.83008,0.332031 -4.27437,0.681162 -7.9076,2.181997 -11.26367,5.214844 -2.47693,2.237783 -4.14635,5.001436 -5.37695,8.019531 -0.82706,-0.01094 -1.72215,-0.02148 -2.80274,-0.02148 -1.78499,10e-7 -3.07194,0.01766 -4.30078,0.119141 -0.61442,0.05074 -1.19101,0.09779 -2.11133,0.330078 -0.92031,0.232292 -2.8014,0.07155 -4.92773,3.53711 -0.73968,1.204924 -0.46957,0.88722 -0.5293,1.023437 -0.06,0.136734 -0.10821,0.249341 -0.16211,0.378906 -0.10778,0.259131 -0.23352,0.569187 -0.38867,0.955078 -0.3103,0.771784 -0.72936,1.827903 -1.23437,3.111329 -0.52453,1.333 -1.30531,3.355408 -1.98047,5.089843 l -3.20313,-9.451172 a 7.50075,7.50075 0 0 0 -7.10351,-5.09375 h -5.32618 c -1.49559,10e-7 -2.85144,0.0096 -3.87304,0.02539 -0.5108,0.0079 -0.9286,0.01589 -1.29688,0.0293 -0.18414,0.0067 -0.33897,0.0134 -0.60156,0.0332 -0.13129,0.0099 -0.25376,0.01148 -0.65039,0.07227 -0.19832,0.03039 -0.41351,0.03827 -1.12695,0.261718 -0.17836,0.05586 -0.39364,0.128335 -0.68555,0.251954 -0.0929,0.03935 -0.20908,0.113048 -0.375,0.201171 A 7.50075,7.50075 0 0 0 270.86523,42.5 l -10.80664,0.162109 a 7.50075,7.50075 0 0 0 -0.004,0 c -5.91322,0.09112 -9.36268,0.159397 -12.35157,0.539063 -2.98888,0.379666 -5.74179,1.405629 -7.71289,2.460937 a 7.50075,7.50075 0 0 0 -0.34961,0.199219 c -1.72151,1.043883 -3.13282,2.301824 -4.39648,3.654297 V 36.417969 a 7.50075,7.50075 0 0 0 -7.5,-7.5 h -5.03906 -5.03711 a 7.50075,7.50075 0 0 0 -6.63477,5.410156 c -0.78817,-0.72362 -1.4984,-1.536057 -2.55664,-2.216797 a 7.50075,7.50075 0 0 0 -0.008,-0.0039 c -1.77416,-1.138414 -4.9345,-2.501031 -8.15625,-2.851563 -3.22175,-0.350532 -7.08219,-0.33789 -14.25,-0.33789 z m 276.88086,13.757812 0.10156,0.002 v 0.242188 a 7.50075,7.50075 0 0 0 -0.10156,-0.244141 z m -94.54101,6.087891 0.0449,9.09375 c -1.22238,-1.083435 -2.59534,-2.048929 -4.10156,-2.738281 -3.10114,-1.41929 -6.26342,-1.910235 -10.01563,-2.253907 -0.88981,-0.08147 -1.74477,-0.198214 -2.51367,-0.308593 -0.0377,-0.313889 -0.0905,-0.581212 -0.0899,-0.890625 0.002,-0.777271 0.0469,-1.037387 0.0918,-1.451172 0.0813,-0.0059 0.11669,-0.01976 0.19922,-0.02344 1.28768,-0.05732 3.19987,-0.0918 5.63281,-0.0918 h 7.52735 a 7.50075,7.50075 0 0 0 3.22461,-1.335937 z m 23.06054,0.05664 -1.92773,0.0332 v -0.002 z m -39.58984,0.595704 c -0.0122,0.04217 0.002,0.02319 -0.006,0.05859 -0.003,0.0084 0.005,-0.05293 0.002,-0.04297 a 7.50075,7.50075 0 0 0 0.004,-0.01563 z m -148.23242,0.705078 c 0.97123,0.0099 1.87702,0.02224 2.46679,0.04687 -0.1069,-0.196782 0.24899,1.550913 0.32422,3.503906 a 7.50075,7.50075 0 0 0 0,0.002 c 0.13427,3.460157 -0.20395,4.678081 -0.34375,5.132813 -0.29265,0.02303 -0.11626,0.01953 -1.41601,0.01953 h -1.03125 z m 78.33398,0.695312 c 1e-5,3.8e-5 0.0292,0.171509 0.041,0.246094 -3.1e-4,0.0043 -0.006,0.08203 -0.006,0.08203 z m 181.06836,12.931641 h 2.23242 v 17.195312 a 7.50075,7.50075 0 0 0 -1.60351,-0.664062 h -0.54102 c -0.0547,-2.519933 -0.0879,-5.981827 -0.0879,-10.134766 z m -68.66016,0.02539 c -0.31321,2.370532 -0.46093,5.21759 -0.46093,11.328125 0,2.660814 0.0466,3.649542 0.0684,5.179688 h -0.39453 c -0.006,-0.262798 -0.0145,-0.389788 -0.0195,-0.681641 -0.0418,-2.420147 -0.0517,-5.818473 -0.0234,-9.972656 l 0.041,-5.839844 z m 113.98829,0.105469 c 0.15135,0 0.0882,-0.0012 0.21484,0.01953 0.0354,0.13837 -0.0395,0.0083 0.0605,0.314454 a 7.50075,7.50075 0 0 0 0,0.0039 c 0.23713,0.724548 0.30871,1.091216 0.43359,6.466797 0.15081,6.487478 -0.2487,8.666498 -0.58984,9.580078 -0.0777,0.0021 -0.14856,0.01367 -0.22071,0.01367 -0.12206,0 -0.0188,0.01488 -0.10937,0.01758 -0.3039,-0.72971 -0.67712,-2.290844 -0.69336,-7.978516 l 0.002,0.0039 c -0.0138,-5.749331 0.21399,-7.089832 0.74219,-8.40625 0.0647,-0.0089 0.0937,-0.03516 0.16016,-0.03516 z m -89.25196,2.398438 v 14 h -0.1914 c -0.0395,-1.384805 -0.0715,-2.938364 -0.0742,-4.648438 -0.006,-4.05388 0.2072,-8.926137 0.25781,-9.316406 0.003,-0.02185 0.005,-0.01352 0.008,-0.03516 z m -152.91015,0.322265 0.0371,8.615235 0.0215,5.064453 h -0.31641 c -0.0659,-0.776829 -0.14172,-1.165245 -0.16601,-2.308594 a 7.50075,7.50075 0 0 0 0,-0.0039 c -0.068,-3.145627 0.0102,-6.497594 0.18555,-9.238281 0.0753,-1.176595 0.12023,-1.233625 0.23828,-2.128907 z m 138.22265,19.939453 c 2.1e-4,8.36e-4 0.002,0.0011 0.002,0.002 6.9e-4,0.0028 -7e-4,0.0031 0,0.0059 z m 47.98242,6.466797 c 0.003,0.0026 0.0104,0.0052 0.0137,0.0078 0.007,0.0054 0.007,0.0082 0.0137,0.01367 z" id="path19"/>
            <path style="baseline-shift:baseline;display:inline;overflow:visible;vector-effect:none;stroke-linecap:round;stroke-linejoin:round;paint-order:markers stroke fill;enable-background:accumulate;stop-color:#000000;stop-opacity:1" d="m 173.13211,36.417776 v 57.54 h 10.078 v -51.363 h 6.186 c 4.461,0 6.475,0.12 7.233,0.437 1.496,0.625 3.036,2.529 3.667,4.521 0.331,1.047 0.604,3.313 0.701,5.831 0.2,5.154 -0.398,8.356 -1.971,10.433 -1.641,2.168 -2.645,2.51 -7.284,2.51 h -3.982 v 6.246 l 6.257,-0.121 6.258,-0.121 2.214,-1.047 c 4.045,-1.908 6.982,-5.811 8.167,-10.84 0.662,-2.808 0.652,-9.086 -0.021,-12.099 -0.646,-2.896 -1.991,-5.813 -3.504,-7.579 -0.633,-0.738 -1.857,-1.797 -2.712,-2.347 -2.933,-1.882 -4.062,-2.001 -18.356,-2.001 z m 44.535,0 v 57.54 h 10.077 v -57.54 h -5.039 z m 126.372,0 c -4.514,10e-4 -9.158,0.16 -10.32,0.346 -2.623,0.418 -5.682,1.805 -7.416,3.372 -1.748,1.579 -3.236,3.949 -4.043,6.44 -0.502,1.548 -0.66,2.959 -0.68,5.933 -0.029,4.103 0.316,5.851 1.727,8.614 0.916,1.798 3.361,4.393 5.039,5.363 1.949,1.13 4.441,1.728 8.727,2.072 3.26,0.264 4.02,0.426 5.08,1.129 0.834,0.551 1.564,1.453 2.184,2.711 0.869,1.771 0.918,2.142 0.914,5.953 -0.004,3.801 -0.057,4.176 -0.896,5.771 -0.566,1.084 -1.385,2.032 -2.242,2.602 l -1.354,0.895 -8.563,0.103 -8.553,0.092 v 6.145 h 9.73 c 5.92,0 10.412,-0.146 11.459,-0.367 3.984,-0.838 7.299,-3.42 8.908,-6.938 1.355,-2.963 1.834,-6.008 1.656,-10.576 -0.188,-4.816 -0.9,-7.44 -2.824,-10.32 -2.391,-3.575 -5.064,-4.801 -11.855,-5.423 -2.512,-0.23 -5.086,-0.635 -5.719,-0.904 -1.398,-0.592 -2.705,-2.082 -3.281,-3.738 -0.568,-1.633 -0.561,-6.361 0.021,-8.359 0.57,-1.973 2.305,-3.79 4.135,-4.338 0.883,-0.266 3.852,-0.396 8.848,-0.396 h 7.527 v -6.18 h -8.209 z m 115.806,0 v 8.453 h 10.078 v -8.453 h -5.039 z m -96.902,6.502 0.104,20.723 c 0.09,20.398 0.105,20.754 0.803,22.604 0.391,1.033 1.227,2.58 1.857,3.443 1.293,1.76 2.973,2.994 5.1,3.738 1.023,0.359 2.762,0.498 6.064,0.51 l 4.633,0.02 v -6.176 h -3.027 c -2.881,0 -3.07,-0.039 -3.891,-0.895 -0.508,-0.529 -1.006,-1.563 -1.207,-2.52 -0.221,-1.033 -0.313,-6.406 -0.256,-14.791 l 0.092,-13.165 5.445,-0.092 5.445,-0.092 v -6.156 h -11.052 v -7.151 h -5.049 z m 69.596,0 v 20.469 c 0,19.797 0.023,20.54 0.672,22.512 0.771,2.348 2.338,4.672 4.043,5.973 0.65,0.498 1.939,1.166 2.863,1.482 1.289,0.445 2.73,0.582 6.156,0.59 l 4.469,0.01 v -6.176 h -2.885 c -2.41,0 -3.02,-0.104 -3.727,-0.662 -0.467,-0.365 -0.996,-1.205 -1.18,-1.867 -0.205,-0.74 -0.336,-6.584 -0.336,-15.106 v -13.897 h 11.074 l -0.094,-3.007 -0.092,-3.008 -5.445,-0.09 -5.441,-0.093 v -7.13 h -5.039 z m -8.889,7.069 -10.758,0.174 c -11.568,0.178 -12.766,0.32 -16.162,2.042 -3.799,1.925 -6.447,5.663 -7.648,10.788 -0.502,2.138 -0.59,3.979 -0.59,12.109 0,9.23 0.027,9.661 0.742,11.428 1.441,3.561 3.586,5.76 6.674,6.826 1.361,0.471 2.781,0.58 7.457,0.588 l 5.771,0.012 v -6.178 h -4.043 c -3.828,0 -4.088,-0.047 -4.998,-0.813 -0.602,-0.506 -1.092,-1.35 -1.32,-2.256 -0.453,-1.793 -0.475,-15.937 -0.031,-19.361 0.631,-4.865 1.727,-7.146 4.014,-8.371 0.787,-0.42 2.146,-0.57 5.975,-0.67 l 4.957,-0.132 v 37.781 h 10.402 v -12.141 c 0,-6.674 -0.104,-16.566 -0.225,-21.982 z m -152.672,0.011 -10.808,0.162 c -11.746,0.181 -13.433,0.396 -16.64,2.113 -9.476,5.746 -11.593,31.145 -4.602,38.511 1.172,1.192 3.117,2.368 4.743,2.864 0.447,0.138 3.481,0.259 6.745,0.272 l 5.932,0.031 v -6.173 h -4.154 c -4.686,0 -5.303,-0.221 -6.186,-2.234 -0.395,-0.897 -0.549,-2.662 -0.65,-7.416 -0.146,-6.756 0.324,-14.086 1.056,-16.52 0.657,-2.185 1.881,-3.863 3.321,-4.57 1.052,-0.516 2.019,-0.613 6.125,-0.62 l 4.875,-0.011 0.082,18.773 0.082,18.771 h 10.078 v -21.98 z m 10.85,0.071 c -2.928,0 -5.319,0.037 -5.313,0.082 0.004,0.045 3.346,9.857 7.426,21.811 l 7.416,21.738 -4.176,10.770004 c -2.295,5.927 -4.175,10.818 -4.175,10.869 0,0.05 1.993,0.05 4.429,0 l 4.43,-0.092 12.951,-32.508004 c 7.127,-17.879 12.963,-32.542 12.963,-32.588 0.002,-0.045 -2.102,-0.082 -4.684,-0.082 -3.404,0 -4.766,0.113 -4.947,0.408 -0.137,0.223 -2.627,6.543 -5.525,14.049 -2.897,7.504 -5.397,13.688 -5.565,13.744 -0.17,0.057 -2.472,-6.266 -5.108,-14.049 l -4.796,-14.152 z m 178.017,0 v 43.884 h 10.078 v -43.884 h -5.039 z m 60.951,0.162 -0.094,21.861 h 0.012 l -0.092,21.861 h 10.412 v -37.779 l 4.957,0.133 c 5.262,0.137 6.141,0.356 7.619,1.939 1.158,1.24 1.986,3.499 2.355,6.439 0.191,1.539 0.348,8.603 0.348,16.01 v 13.259 h 10.074 l -0.01,-12.922 c -0.002,-13.705 -0.242,-16.957 -1.563,-20.673 -1.797,-5.053 -5.104,-8.049 -10.482,-9.508 -1.779,-0.483 -3.68,-0.567 -12.811,-0.59 z m -25.478,0.092 c -2.842,0 -5.674,0.357 -7.709,1.057 -2.709,0.932 -4.41,2.023 -6.117,3.921 -1.852,2.06 -3.193,4.849 -3.98,8.259 -0.48,2.09 -0.596,3.845 -0.566,8.938 0.025,5.359 0.133,6.729 0.711,8.849 0.979,3.596 2.26,6.017 4.205,7.985 1.916,1.938 4.748,3.422 7.936,4.146 1.434,0.324 3.422,0.427 6.461,0.345 5.238,-0.14 7.73,-0.814 10.787,-2.904 2.563,-1.752 4.5,-4.517 5.598,-7.996 1.57,-4.967 1.846,-13.156 0.641,-19.199 -0.586,-2.936 -2.01,-6.119 -3.598,-8.056 -1.492,-1.821 -3.936,-3.418 -6.551,-4.287 -2.115,-0.701 -4.976,-1.058 -7.818,-1.058 z m 0.123,6.054 c 1.475,0 2.953,0.285 4.113,0.873 1.514,0.768 2.465,2.104 3.291,4.632 0.541,1.653 0.676,3.158 0.803,8.625 0.166,7.141 -0.162,10.506 -1.27,13.043 -0.781,1.793 -2.045,3.186 -3.434,3.779 -0.594,0.254 -2.156,0.446 -3.605,0.446 -2.055,0 -2.844,-0.146 -3.992,-0.75 -0.902,-0.478 -1.773,-1.295 -2.336,-2.205 -1.469,-2.37 -1.953,-5.479 -1.973,-12.483 -0.016,-6.668 0.328,-9.348 1.557,-12.06 0.416,-0.92 1.256,-2.043 1.879,-2.52 1.184,-0.903 3.07,-1.38 4.967,-1.38 z" id="path20"/>
        </g>
    </g>
    <g id="g10" transform="translate(6.0000646,4.0011153)" style="stroke:#ffffff;stroke-width:5;stroke-linecap:round;stroke-dasharray:none;stroke-opacity:1;paint-order:markers stroke fill">
        <g id="path2" style="opacity:1">
            <path style="baseline-shift:baseline;display:inline;overflow:visible;vector-effect:none;fill:#ffffff;stroke:none;enable-background:accumulate;stop-color:#000000;stop-opacity:1" d="m 567.15039,79.621094 c -3.1e-4,1.4e-5 -0.15448,0.0119 -0.18555,0.01563 -0.0621,0.0075 -0.0761,0.01123 -0.0918,0.01367 -0.0628,0.0098 -0.0716,0.01078 -0.12305,0.01953 l 0.17383,-0.02344 c -0.28484,0.02807 -0.50761,0.205735 -0.78321,0.261719 0.0284,-0.01759 0.068,-0.04209 0.082,-0.05078 -0.0669,0.03275 -0.0933,0.04443 -0.14844,0.07227 -4.6315,0.982237 -7.88989,5.655532 -6.50195,10.423829 1.28233,5.359177 7.53036,8.129047 12.35937,5.458984 5.11925,-2.504405 6.30471,-9.566225 2.28125,-13.599609 -1.60096,-1.722623 -3.86851,-2.469693 -6.17383,-2.453125 -6.5e-4,4e-6 -0.001,-5e-6 -0.002,0 -0.37396,0.0028 -0.72729,-0.162925 -1.10156,-0.109375 l 0.14843,-0.01758 c 0.0155,-0.0013 0.0376,-0.0047 0.14649,-0.0059 -0.021,-0.0012 -0.0801,-0.0059 -0.0801,-0.0059 z m 0.40234,0.02344 c 0.0995,0.01387 0.37855,0.08245 0.41797,0.0918 -0.0734,-0.02546 -0.17187,-0.06055 -0.17187,-0.06055 0,0 -0.13086,-0.02344 -0.13086,-0.02344 -2e-5,-2e-6 -0.0753,-0.0055 -0.11524,-0.0078 z m -1.09179,0.109375 c -0.0263,0.0082 -0.0151,0.0024 -0.082,0.02734 -0.005,0.0018 -0.0222,0.0106 -0.0293,0.01367 0.0426,-0.01623 0.0755,-0.02795 0.11133,-0.04102 z m 2.3457,0.490235 c 0.23519,0.215954 0.49613,0.455129 0.49609,0.455078 -2e-5,-4.2e-5 0.35744,0.771528 0.35743,0.771484 0,-10e-7 0.002,0.01326 0.002,0.01367 -0.10826,-0.02853 -0.20858,-0.04596 -0.31641,-0.07031 -0.26011,-0.563325 -0.47213,-1.024964 -0.53906,-1.169921 z m -3.20117,0.0078 c -0.0348,0.03706 -0.0767,0.08345 -0.1543,0.166016 6.1e-4,-0.0014 0.0137,-0.0332 0.0137,-0.0332 0,0 0.0926,-0.08765 0.14063,-0.132813 z m 8.16015,3.935547 0.11524,0.175781 c -0.0249,-0.04166 -0.0624,-0.06284 -0.0879,-0.103515 -0.0157,-0.0225 -0.0113,-0.04988 -0.0273,-0.07227 z m -6.5332,0.505859 -0.004,0.136719 -0.01,-0.130859 c 0.005,-9.01e-4 0.009,-0.005 0.0137,-0.0059 z m 0.14258,1.330078 c 1.10565,0.08741 1.92845,0.428375 2.21289,0.904297 l 0.0547,0.08984 0.0605,0.08594 c 0.66962,0.932799 -0.13457,2.854962 -1.26757,3.041015 l -0.0957,0.01563 -0.0937,0.02148 c -1.0857,0.265728 -2.57187,-1.137297 -2.35937,-2.232422 l 0.0156,-0.07813 0.01,-0.07813 c 0.13296,-1.034234 0.68487,-1.661956 1.31055,-1.746094 l 0.084,-0.0098 z m -6.39648,0.97461 c -0.003,0.01781 0.007,0.03299 0.004,0.05078 -0.005,0.03585 -0.0247,0.0696 -0.0293,0.105469 z m 8.35742,8.039062 c 0.0337,-0.0077 0.0639,0.01021 0.0976,0.002 l -0.1875,0.03906 c 0.0348,-0.0057 0.0553,-0.03481 0.0899,-0.04102 z" id="path21"/>
            <path style="baseline-shift:baseline;display:inline;overflow:visible;vector-effect:none;stroke:none;enable-background:accumulate;stop-color:#000000;stop-opacity:1" d="m 567.16811,82.134776 c -3.46,0.341 -6.22,4.127 -5.197,7.556 0.832,3.727 5.489,5.797 8.81,3.912 3.548,-1.687 4.426,-6.908 1.636,-9.661 -1.32,-1.443 -3.192,-2.094 -5.128,-1.817 -0.121,0.01 0.085,-0.025 -0.121,0.01 z m 0.15,1.357 c 1.66,0.078 3.495,0.613 4.416,2.154 1.809,2.52 0.163,6.463 -2.894,6.965 -2.954,0.723 -5.987,-2.148 -5.407,-5.137 0.248,-1.929 1.53,-3.645 3.456,-3.904 0.382,-0.078 0.187,-0.04 0.43,-0.078 z" id="path22"/>
        </g>
        <g id="path7" style="opacity:1">
            <path style="baseline-shift:baseline;display:inline;overflow:visible;vector-effect:none;fill:#ffffff;stroke:none;enable-background:accumulate;stop-color:#000000;stop-opacity:1" d="M 563.08789,82.160156 V 93.9375 h 5.98047 v -0.08789 h 4.51367 l -0.89844,-4.169922 v -0.328125 c 0,-0.413856 -0.0867,-0.911536 -0.25781,-1.414062 0.12736,-0.461758 0.33399,-0.934062 0.33399,-1.367188 0,-1.40111 -0.65101,-3.040154 -2.16407,-3.833984 -0.75257,-0.41273 -1.55385,-0.576172 -2.29492,-0.576172 z m 8.75781,4.683594 0.40625,0.644531 c -0.0614,-0.141648 -0.15489,-0.189586 -0.22851,-0.308594 -0.0729,-0.110119 -0.0869,-0.231229 -0.17774,-0.335937 z" id="path23"/>
            <path style="baseline-shift:baseline;display:inline;overflow:visible;vector-effect:none;stroke:none;enable-background:accumulate;stop-color:#000000;stop-opacity:1" d="m 570.41111,91.001776 c -0.076,0 -0.151,-0.174 -0.151,-0.26 0,-0.087 -0.076,-0.261 -0.076,-0.522 v -0.869 c 0,-0.434 -0.075,-0.695 -0.226,-0.869 -0.075,-0.173 -0.226,-0.26 -0.376,-0.347 0.15,-0.174 0.301,-0.26 0.452,-0.522 0.15,-0.26 0.226,-0.608 0.226,-1.042 0,-0.782 -0.302,-1.39 -0.83,-1.651 -0.3,-0.174 -0.677,-0.26 -1.13,-0.26 h -2.712 v 6.777 h 0.98 v -2.78 h 1.582 c 0.301,0 0.527,0 0.603,0.086 0.226,0.087 0.301,0.348 0.301,0.695 l 0.076,1.043 c 0,0.26 0,0.434 0.075,0.521 0,0.087 0.075,0.174 0.075,0.26 l 0.076,0.088 h 1.13 z m -1.206,-4.344 c 0,0.347 -0.075,0.608 -0.226,0.782 -0.15,0.173 -0.452,0.26 -0.754,0.26 h -1.657 v -1.91 h 1.733 c 0.226,0 0.452,0 0.527,0.087 0.302,0.087 0.377,0.347 0.377,0.782" id="path24"/>
        </g>
    </g>
</svg>
