<?xml version="1.0" encoding="UTF-8" standalone="no"?>
<svg
   width="581.87518"
   height="169.08978"
   viewBox="-0.003 -0.001 581.87515 169.08978"
   xml:space="preserve"
   version="1.1"
   id="svg21"
   sodipodi:docname="scummvm.svg"
   inkscape:version="1.4.3 (0d15f75042, 2025-12-25)"
   xmlns:inkscape="http://www.inkscape.org/namespaces/inkscape"
   xmlns:sodipodi="http://sodipodi.sourceforge.net/DTD/sodipodi-0.dtd"
   xmlns="http://www.w3.org/2000/svg"
   xmlns:svg="http://www.w3.org/2000/svg"><defs
   id="defs21"><linearGradient
     id="linearGradient2"
     gradientUnits="userSpaceOnUse"
     x1="439.68301"
     y1="979.901"
     x2="439.68301"
     y2="1115.395"
     gradientTransform="translate(49.71,-968.872)">
        <stop
   offset="0"
   style="stop-color:#ecefeb"
   id="stop1-3" />
        <stop
   offset=".175"
   style="stop-color:#eaece9"
   id="stop2-6" />
        <stop
   offset=".28"
   style="stop-color:#e1e4e0"
   id="stop3-7" />
        <stop
   offset=".366"
   style="stop-color:#d3d6d3"
   id="stop4-5" />
        <stop
   offset=".443"
   style="stop-color:#c0c1bf"
   id="stop5-3" />
        <stop
   offset=".513"
   style="stop-color:#a6a7a6"
   id="stop6-5" />
        <stop
   offset=".577"
   style="stop-color:#878787"
   id="stop7-6" />
        <stop
   offset=".6"
   style="stop-color:#7a7a7a"
   id="stop8-2" />
        <stop
   offset="1"
   style="stop-color:#343732"
   id="stop9-9" />
    </linearGradient><linearGradient
     id="linearGradient3"
     gradientUnits="userSpaceOnUse"
     x1="324.53601"
     y1="976.89203"
     x2="324.53601"
     y2="1105.9771"
     gradientTransform="translate(49.71,-968.872)">
        <stop
   offset="0"
   style="stop-color:#ecefeb"
   id="stop10-1" />
        <stop
   offset=".175"
   style="stop-color:#eaece9"
   id="stop11-2" />
        <stop
   offset=".28"
   style="stop-color:#e1e4e0"
   id="stop12-7" />
        <stop
   offset=".366"
   style="stop-color:#d3d6d3"
   id="stop13-0" />
        <stop
   offset=".443"
   style="stop-color:#c0c1bf"
   id="stop14-9" />
        <stop
   offset=".513"
   style="stop-color:#a6a7a6"
   id="stop15-3" />
        <stop
   offset=".577"
   style="stop-color:#878787"
   id="stop16-6" />
        <stop
   offset=".6"
   style="stop-color:#7a7a7a"
   id="stop17-0" />
        <stop
   offset="1"
   style="stop-color:#343732"
   id="stop18-6" />
    </linearGradient></defs><sodipodi:namedview
   id="namedview21"
   pagecolor="#a5a5a5"
   bordercolor="#000000"
   borderopacity="0.25"
   inkscape:showpageshadow="2"
   inkscape:pageopacity="0.0"
   inkscape:pagecheckerboard="0"
   inkscape:deskcolor="#d1d1d1"
   inkscape:zoom="1.121281"
   inkscape:cx="290.7389"
   inkscape:cy="85.616362"
   inkscape:window-width="1920"
   inkscape:window-height="1080"
   inkscape:window-x="0"
   inkscape:window-y="0"
   inkscape:window-maximized="0"
   inkscape:current-layer="svg21" />
    <linearGradient
   id="a"
   gradientUnits="userSpaceOnUse"
   x1="439.68301"
   y1="979.901"
   x2="439.68301"
   y2="1115.395"
   gradientTransform="translate(49.71,-968.872)">
        <stop
   offset="0"
   style="stop-color:#ecefeb"
   id="stop1" />
        <stop
   offset=".175"
   style="stop-color:#eaece9"
   id="stop2" />
        <stop
   offset=".28"
   style="stop-color:#e1e4e0"
   id="stop3" />
        <stop
   offset=".366"
   style="stop-color:#d3d6d3"
   id="stop4" />
        <stop
   offset=".443"
   style="stop-color:#c0c1bf"
   id="stop5" />
        <stop
   offset=".513"
   style="stop-color:#a6a7a6"
   id="stop6" />
        <stop
   offset=".577"
   style="stop-color:#878787"
   id="stop7" />
        <stop
   offset=".6"
   style="stop-color:#7a7a7a"
   id="stop8" />
        <stop
   offset="1"
   style="stop-color:#343732"
   id="stop9" />
    </linearGradient>
    
    
    <linearGradient
   id="b"
   gradientUnits="userSpaceOnUse"
   x1="324.53601"
   y1="976.89203"
   x2="324.53601"
   y2="1105.9771"
   gradientTransform="translate(49.71,-968.872)">
        <stop
   offset="0"
   style="stop-color:#ecefeb"
   id="stop10" />
        <stop
   offset=".175"
   style="stop-color:#eaece9"
   id="stop11" />
        <stop
   offset=".28"
   style="stop-color:#e1e4e0"
   id="stop12" />
        <stop
   offset=".366"
   style="stop-color:#d3d6d3"
   id="stop13" />
        <stop
   offset=".443"
   style="stop-color:#c0c1bf"
   id="stop14" />
        <stop
   offset=".513"
   style="stop-color:#a6a7a6"
   id="stop15" />
        <stop
   offset=".577"
   style="stop-color:#878787"
   id="stop16" />
        <stop
   offset=".6"
   style="stop-color:#7a7a7a"
   id="stop17" />
        <stop
   offset="1"
   style="stop-color:#343732"
   id="stop18" />
    </linearGradient>
    
    
    
    <path
   id="path20-2"
   style="baseline-shift:baseline;display:inline;overflow:visible;vector-effect:none;fill:#ffffff;fill-opacity:1;stroke:none;stroke-width:15;stroke-linecap:round;stroke-linejoin:round;stroke-dasharray:none;stroke-opacity:1;paint-order:markers stroke fill;enable-background:accumulate;stop-color:#000000"
   d="m 41.635639,41.988115 c -16.690227,1.01497 -29.915099,9.71519 -35.4648435,22.19531 a 7.50075,7.50075 0 0 0 -0.00195,0.002 c -5.34773228,12.03175 -3.8302448,25.69662 1.8242184,35.5625 a 7.50075,7.50075 0 0 0 0,0.002 c 0.795571,1.387125 1.431228,2.201625 1.9804691,2.832035 -2.5888731,2.90443 -6.7469239,6.59228 -8.9453125,12.84569 -2.0679939,5.88173 -0.74599688,11.84975 1.5019531,15.97657 2.2479501,4.12682 5.2187663,6.98684 7.3437504,8.9707 a 7.50075,7.50075 0 0 0 0.0039,0.002 c 8.984456,8.37627 22.786121,14.68571 39.568352,13.56041 a 7.50075,7.50075 0 0 0 0.002,0 c 11.136138,-0.74972 20.445985,-4.54103 27.431641,-9.89453 a 7.50075,7.50075 0 0 0 0.002,0 c 0.697583,-0.53477 0.757057,-0.73704 1.199219,-1.16211 0.384978,0.36939 0.60374,0.66186 1.162109,1.10156 7.031437,5.53465 16.213447,8.51986 25.666015,9.25586 9.44971,0.73578 19.34502,-0.79675 27.42579,-6.20508 1.3912,-0.92915 2.16507,-1.63366 3.06445,-2.38476 7.68671,6.39561 18.14403,11.38904 31.06641,10.26367 a 7.50075,7.50075 0 0 0 0.002,0 c 4.63237,-0.40465 6.54383,-1.45319 6.88672,-1.44922 a 7.50075,7.50075 0 0 0 0.0137,0 c -0.39599,-0.004 1.20792,0.78343 5.2207,1.19141 a 7.50075,7.50075 0 0 0 0.008,0 c 6.07135,0.61084 12.83154,0.49441 19.10937,-0.26172 5.10438,-0.6109 7.07293,-1.97917 6.22656,-1.92969 -0.9301,0.0596 0.41195,0.34959 3.33399,0.49609 a 7.50075,7.50075 0 0 0 0.0137,0.002 c 5.31439,0.2557 11.48554,0.22443 16.79883,-0.26953 2.17718,-0.20131 3.61817,-0.44595 4.27539,-0.64454 0.65394,0.32551 2.21955,0.83247 4.76172,1.29493 6.19596,1.12743 14.37412,1.40075 20.50195,0.82226 3.23062,-0.30356 5.62847,-1.43796 7.17774,-2.15039 1.55105,-0.71324 2.32885,-0.86559 1.7207,-0.80469 1.13917,-0.11393 3.72159,0.26931 7.04492,0.93555 3.32333,0.66625 7.42946,1.5548 12.22266,1.02344 a 7.50075,7.50075 0 0 0 0.002,0 c 2.20933,-0.24535 3.574,-0.85479 4.43164,-1.1836 0.48559,0.27184 2.29553,0.70088 5.15234,0.95313 a 7.50075,7.50075 0 0 0 0.0195,0.002 c 5.94392,0.50835 12.85963,0.329 18.4121,-0.26172 a 7.50075,7.50075 0 0 0 0.004,0 c 1.83361,-0.19586 3.07215,-0.39974 3.75391,-0.57226 0.63073,0.30996 2.01224,0.75579 4.33398,1.21289 a 7.50075,7.50075 0 0 0 0.002,0 c 3.92334,0.77103 7.48584,0.63281 10.55079,0.63281 4.55509,0 9.57487,0.98478 15.64062,-0.79687 h 0.004 c 2.22945,-0.65372 3.43,-1.544 4.04492,-1.91016 0.56144,0.0206 3.29793,0.67002 7.45117,1.17578 a 7.50075,7.50075 0 0 0 0.004,0 c 2.9328,0.35565 7.09527,1.45021 12.2832,0.7207 3.94243,-0.55459 7.59551,-2.54545 10.0332,-5.17968 2.4377,-2.63423 3.78358,-5.65043 4.6836,-8.55664 1.80003,-5.81243 2.02006,-11.65423 2.51953,-16.25782 1.29311,-11.93519 0.99269,-23.401665 -2.03711,-33.394525 -3.0298,-9.99285 -9.3652,-18.85278 -19.36524,-22.84765 -9.28345,-3.70757 -19.57833,-4.10596 -28.73508,-1.46689 a 7.50075,7.50075 0 0 0 -0.008,0.002 c -1.90407,0.55103 -2.7135,1.09826 -3.33399,1.42969 -0.78434,-0.31528 -1.88069,-0.81392 -3.52734,-1.24024 a 7.50075,7.50075 0 0 0 -0.004,0 c -1.95849,-0.50564 -4.7052,-1.27558 -8.14258,-1.2207 h -0.006 c -4.52212,0.0707 -6.79939,0.97088 -6.38282,0.99219 a 7.50075,7.50075 0 0 0 -0.002,0 c 0.19401,0.01 -2.44,-1.52293 -7.7207,-1.72656 a 7.50075,7.50075 0 0 0 -0.002,0 c -6.00773,-0.23096 -13.89305,-0.96691 -21.46093,1.98242 a 7.50075,7.50075 0 0 0 -0.0117,0.006 c -2.16755,0.8488 -3.23,1.66607 -3.97461,2.39648 -0.66394,-0.44122 -1.56231,-0.93735 -3.00196,-1.46679 a 7.50075,7.50075 0 0 0 -0.002,-0.002 c -8.5119,-3.12706 -17.65998,-3.62203 -26.10351,-1.45507 a 7.50075,7.50075 0 0 0 -0.004,0.002 c -2.2129,0.56906 -3.45389,1.29388 -4.32617,1.66992 -0.15441,0.0666 -0.18336,0.0636 -0.30274,0.10547 -0.70592,-0.31553 -1.71205,-0.83534 -3.43359,-1.28125 a 7.50075,7.50075 0 0 0 -0.002,0 c -2.19264,-0.56728 -4.85092,-1.19706 -7.96485,-1.22266 h -0.002 c -4.81967,-0.0409 -7.62981,0.95774 -6.99219,0.9961 a 7.50075,7.50075 0 0 0 -0.01,0 c 0.29149,0.0171 -2.29156,-1.47365 -7.45313,-1.72657 a 7.50075,7.50075 0 0 0 -0.002,0 c -4.17117,-0.20284 -8.44468,0.0819 -12.02539,0.2461 -2.37896,0.10653 -4.04098,0.31447 -4.77735,0.49804 -0.74595,-0.53049 -1.84003,-1.45426 -4.36718,-2.18164 -4.57589,-1.31881 -9.30306,-1.27287 -14.4336,-1.1289 -5.13053,0.14397 -9.62304,0.40518 -13.70312,1.65429 a 7.50075,7.50075 0 0 0 -0.006,0.002 c -2.83885,0.87145 -3.60907,1.7092 -4.35156,2.25586 -1.04764,-0.41363 -2.59779,-1.08464 -5.02344,-1.32031 a 7.50075,7.50075 0 0 0 -0.006,0 c -3.44344,-0.33163 -8.20219,-0.43304 -12.9668,-0.25586 -4.7646,0.17718 -8.69196,0.0949 -13.30273,2.03906 a 7.50075,7.50075 0 0 0 -0.002,0 c -1.95685,0.82584 -3.05118,1.62807 -3.7871,2.3418 -12.71953,-7.92876 -30.09322,-8.14546 -43.417983,-2.38086 -0.919522,-2.639 -2.150652,-5.06382 -3.798828,-6.95703 -4.135574,-4.75042 -9.136725,-7.23461 -13.201172,-9.57031 l -0.002,-0.002 c -6.895981,-3.96607 -14.766579,-6.31748 -22.636719,-6.88282 -2.513476,-0.18007 -4.969197,-0.19187 -7.353516,-0.0469 z m 0.882813,14.95117 c 1.710348,-0.0923 3.510456,-0.0784 5.396484,0.0566 5.548997,0.3986 11.454899,2.17664 16.234375,4.92578 a 7.50075,7.50075 0 0 0 0.002,0.002 c 4.27517,2.45695 7.770783,4.58452 9.365235,6.41602 1.594452,1.8315 2.290678,2.84044 1.310547,7.4043 a 7.50075,7.50075 0 0 0 8.904296,8.9082 c 6.268986,-1.34259 9.017861,-4.66168 10.179688,-5.19727 a 7.50075,7.50075 0 0 0 0.0039,-0.002 c 7.803953,-3.60305 23.828233,-3.01765 30.451183,1.22852 -0.19491,-0.12439 0.65557,0.53305 1.67969,1.30859 1.02806,0.77854 1.49493,2.50983 6.44531,2.58008 a 7.50075,7.50075 0 0 0 0.0117,0.002 c 3.02804,0.0387 4.81351,-1.16902 5.99414,-2.01367 1.18062,-0.84465 1.93091,-1.61159 2.5625,-2.24805 0.50692,-0.51083 0.96778,-0.82415 1.31836,-1.08008 0.24153,0.0474 3.56829,-0.65547 7.31836,-0.79492 4.11346,-0.15296 8.66275,-0.0238 10.96289,0.19727 -0.33593,-0.0326 0.30375,0.0905 1.45312,0.52734 1.14938,0.43689 2.7638,1.40059 6.07813,1.21875 a 7.50075,7.50075 0 0 0 0.006,0 c 3.86814,-0.21467 5.45273,-1.69514 6.72656,-2.50586 0.59421,-0.37818 1.15635,-0.65374 1.4668,-0.8164 0.89774,-0.20033 5.0879,-0.83504 9.22656,-0.95118 4.13319,-0.11598 8.50833,0.31627 9.48242,0.50586 0.18727,0.0996 0.51457,0.26284 0.99023,0.57227 1.06559,0.69318 2.75577,2.0312 5.99024,2.41601 a 7.50075,7.50075 0 0 0 0.004,0.002 c 4.9059,0.58178 7.31163,-0.69088 7.36719,-0.69335 a 7.50075,7.50075 0 0 0 0.008,-0.002 c 3.74592,-0.17176 7.70489,-0.38694 10.60743,-0.2461 -0.0595,-0.003 2.18689,1.41396 7.29687,1.7168 5.12574,0.30837 7.6788,-0.96951 7.76758,-0.96875 a 7.50075,7.50075 0 0 0 0.002,0 c 0.81882,0.007 2.68174,0.31783 4.33008,0.74414 -0.0579,-0.015 0.57748,0.22679 1.64453,0.68164 1.06706,0.45485 2.59003,1.29831 5.44922,1.28125 a 7.50075,7.50075 0 0 0 0.0117,0 c 2.97924,-0.0225 4.94011,-0.93595 6.33008,-1.53516 1.38996,-0.59921 2.34689,-0.97307 2.125,-0.91601 5.19843,-1.3333 11.19352,-1.06568 16.75781,0.88086 0.0311,0.0724 1.03027,0.58347 2,1.20898 1.34312,0.86636 2.44533,2.60265 7.21875,2.57422 5.32206,-0.032 6.8458,-2.61023 8.11719,-3.75391 0.55625,-0.50037 1.05605,-0.82176 1.36914,-1.03711 2.79768,-0.8545 9.12919,-1.09235 14.7832,-0.875 0.1133,0.004 2.3151,1.45288 7.53711,1.71875 4.87311,0.24876 7.37012,-0.97441 7.38281,-0.9746 a 7.50075,7.50075 0 0 0 0.008,0 c 0.8636,-0.014 2.26402,0.25805 4.15429,0.74609 0.1885,0.0493 0.95625,0.33812 2.03711,0.76172 1.08393,0.42479 2.37782,1.15671 5.13672,1.19922 a 7.50075,7.50075 0 0 0 0.0215,0 c 2.97981,0.0375 4.91774,-0.94727 6.14453,-1.53516 1.22016,-0.58472 1.93643,-0.8701 1.4375,-0.72656 5.72124,-1.64893 13.10037,-1.3801 19.01562,0.98242 5.17696,2.06812 8.42548,6.17809 10.57617,13.27148 2.1507,7.093395 2.62641,16.829025 1.47852,27.423835 -0.56053,5.16642 -0.97658,10.34093 -1.93555,13.4375 -0.47948,1.54827 -1.04318,2.45861 -1.36523,2.80663 -0.32206,0.34802 -0.27872,0.39431 -1.11328,0.51172 -1.31147,0.18441 -4.49008,-0.28373 -8.38282,-0.75586 h -0.004 c -1.78981,-0.21903 -5.71206,-1.92266 -11.40625,-1.22852 a 7.50075,7.50075 0 0 0 -0.004,0 c -2.6807,0.3278 -4.43232,1.412 -5.4043,1.98242 -0.97197,0.57042 -1.29486,0.64774 -0.70898,0.47657 a 7.50075,7.50075 0 0 0 -0.0117,0.004 c -1.40449,0.41278 -5.68209,0.1875 -11.41601,0.1875 -3.22542,0 -6.0512,-0.037 -7.6543,-0.35156 0.95764,0.18854 -1.13154,-1.47669 -6.05664,-1.83984 h -0.002 c -4.75178,-0.35547 -6.58087,1.00829 -6.52149,1.00195 -4.46185,0.47441 -10.9693,0.62015 -15.52344,0.23242 0.50266,0.0444 -1.43315,-1.33317 -6.42773,-1.25586 h -0.008 c -2.64715,0.0411 -4.16905,0.77846 -5.14453,1.14258 -0.97496,0.36392 -1.41747,0.42782 -0.97657,0.37891 -1.7828,0.19763 -4.42062,-0.18222 -7.62304,-0.82422 -3.20243,-0.64201 -6.9265,-1.60646 -11.48633,-1.15039 -3.26416,0.3269 -5.15749,1.48585 -6.49219,2.09961 -1.3347,0.61375 -2.03572,0.81969 -2.31445,0.8457 a 7.50075,7.50075 0 0 0 -0.008,0 c -4.02017,0.37951 -12.51221,0.0621 -16.40625,-0.64649 0.38167,0.0694 -1.60919,-1.49858 -6.49609,-1.82812 -4.80805,-0.32662 -6.71393,1.00789 -6.60742,0.99805 a 7.50075,7.50075 0 0 0 -0.004,0.002 c -4.24694,0.39513 -10.02054,0.44604 -14.67773,0.22266 0.0551,0.003 -1.46978,-0.70919 -5.02735,-0.48633 a 7.50075,7.50075 0 0 0 -0.0117,0 c -5.39064,0.34494 -7.8907,2.10787 -7.05469,2.00781 a 7.50075,7.50075 0 0 0 -0.006,0 c -5.13597,0.61894 -11.09087,0.70463 -15.81055,0.23047 0.17672,0.018 -2.11327,-1.2228 -6.58789,-1.26758 h -0.004 c -5.17624,-0.0568 -8.38386,1.50851 -8.35352,1.50586 -10.59723,0.92218 -18.1672,-3.96138 -23.83594,-10.14453 a 7.50075,7.50075 0 0 0 -8.77734,-1.69336 c -5.09444,2.44766 -7.21052,5.53978 -8.54297,6.42969 a 7.50075,7.50075 0 0 0 -0.008,0.004 c -4.25089,2.84668 -11.04315,4.2545 -17.92384,3.71875 -6.879979,-0.53569 -13.674017,-3.035 -17.550781,-6.08593 0.785664,0.61868 -0.486857,-0.6522 -1.787109,-2.08204 -0.650126,-0.71491 -1.409654,-1.53247 -2.615235,-2.41406 -1.205581,-0.88158 -3.06311,-2.07586 -6.013672,-2.02929 a 7.50075,7.50075 0 0 0 -0.0078,0 c -3.277252,0.0546 -4.614894,1.27638 -5.6875,2.05664 -1.072606,0.78025 -1.81896,1.50736 -2.492188,2.17773 -1.346454,1.34075 -2.809087,2.7269 -2.164062,2.23242 -4.629784,3.54743 -10.960937,6.27149 -19.310547,6.83399 -12.535183,0.84052 -22.158299,-3.80656 -28.333984,-9.5625 l -0.0039,-0.004 c -1.758288,-1.64253 -3.529501,-3.57273 -4.403886,-5.17793 -0.87505,-1.60643 -1.054444,-2.31395 -0.523438,-3.82422 0.349498,-0.99417 3.554758,-4.92466 6.763672,-8.70703 a 7.50075,7.50075 0 0 0 0.0039,-0.006 c 0.108845,-0.12855 0.74004,-0.72467 1.646485,-1.76172 0.905161,-1.03559 2.620064,-2.6799 2.822265,-6.35938 v -0.002 c 0.298329,-5.380215 -2.08462,-7.120495 -3.367187,-8.783195 -1.281658,-1.66152 -2.566747,-3.41357 -2.041016,-2.49609 l -0.002,-0.002 c -2.800478,-4.88833 -3.991837,-15.56399 -1.128853,-22.00758 v -0.002 c 3.018724,-6.78669 10.666708,-12.69187 22.642578,-13.33785 z m 92.371108,12.9336 c 0.57089,0.20522 0.51336,0.38722 0.21093,0.1582 -0.0394,-0.0298 -0.16858,-0.12448 -0.21093,-0.1582 z M 432.70987,0.01546453 c -1.29398,-0.0587 -2.60392,0.0391 -3.90039,0.30078 L 405.39541,5.0349945 c -6.67746,1.3453 -11.82432,6.8187605 -12.75585,13.5664005 a 7.50075,7.50075 0 0 0 -0.002,0.004 l -4.66406,33.89844 -16.94336,-30.14648 a 7.50075,7.50075 0 0 0 0,-0.002 c -3.41625,-6.0764 -10.44677,-9.27637 -17.2734,-7.86519 v -0.002 l -26.21093,5.41797 c -5.08623,1.04814 -9.36717,4.50637 -11.4629,9.25781 -2.09232,4.74698 -1.76363,10.23349 0.88282,14.69532 a 7.50075,7.50075 0 0 0 0.002,0.002 l 64.31636,108.357365 c 3.43687,5.79287 10.19628,8.84362 16.81445,7.5918 l 15.72852,-2.97071 a 7.50075,7.50075 0 0 0 0.002,0 c 6.5868,-1.24528 11.74943,-6.5095 12.86719,-13.11914 L 447.84463,18.761605 a 7.50075,7.50075 0 0 0 0,-0.002 c 0.88121,-5.21167 -0.86766,-10.5450803 -4.66211,-14.2246105 -2.84794,-2.76276 -6.5907,-4.34331997 -10.47265,-4.51952997 z m -69.54688,48.12109047 -0.23437,0.32031 -0.67774,0.92774 h -1.15429 a 7.50075,7.50075 0 0 0 1.83203,-0.92774 l 0.22656,-0.3125 a 7.50075,7.50075 0 0 0 0.008,-0.008 z m -3.56445,2.00781 17.24609,30.68164 -7.03125,5.86524 -15.91992,-26.81641 a 7.50075,7.50075 0 0 0 3.33789,-5.77539 v -2.75586 a 7.50075,7.50075 0 0 0 2.36719,-1.19922 z m 58.55664,2.73242 -1.05859,6.25391 h -2.86914 a 7.50075,7.50075 0 0 0 -3.56836,1.47852 l 0.69531,-5.05079 h 0.875 a 7.50075,7.50075 0 0 0 4.82422,-1.75586 l 0.20898,-0.17773 z m -12.14062,41.49024 a 7.50075,7.50075 0 0 0 4.57617,3.17969 l -0.89258,5.275385 -1.39258,1.09375 -2.73047,-0.0215 a 7.50075,7.50075 0 0 0 -0.004,0 l -0.25977,-0.002 a 7.50075,7.50075 0 0 0 -1.61904,0.54105 c 0.0893,-0.1386 0.28997,-0.30107 0.36133,-0.42968 0.77741,-1.40132 0.97267,-2.46101 1.10351,-3.41797 z m -20.94727,1.10156 4.54102,8.076165 a 7.50075,7.50075 0 0 0 0.002,0.002 c 0.47339,0.84166 1.04386,1.75639 2.28125,2.77344 1.03963,0.8545 2.98129,1.82421 5.29492,1.80469 l -0.98437,0.75391 -0.28907,0.21875 a 7.50075,7.50075 0 0 0 -2.95703,5.96875 v 1.84179 l -4.2793,1.57813 -10.33203,-17.40821 z m 20.07227,34.314445 -0.82227,4.85938 -5.4375,1.02734 -1.62891,-2.74414 6.82227,-2.51758 0.49219,-0.18164 a 7.50075,7.50075 0 0 0 0.57422,-0.44336 z M 446.06729,3.5428045 c -8.37514,0.81235 -15.48378,7.2939705 -16.75391,15.8886705 v -0.008 l -17.3164,116.255855 a 7.50075,7.50075 0 0 0 0,0.004 c -0.74601,5.0243 0.61142,10.14346 3.74804,14.13868 a 7.50075,7.50075 0 0 0 0.0254,0.0351 c 3.15701,3.97348 7.81576,6.47995 12.8711,6.92578 a 7.50075,7.50075 0 0 0 0.008,0 l 16.04297,1.40039 c 9.19821,0.80367 17.52404,-5.39349 19.72266,-14.17773 l 1.15429,3.96289 c 2.26516,7.77765 8.88914,13.32822 16.95117,14.18164 l 10.70313,1.14258 a 7.50075,7.50075 0 0 0 0.002,0 c 7.91531,0.84056 15.41882,-2.97175 19.39649,-9.875 l 0.002,-0.004 2.45313,-4.25195 c 0.35916,9.14061 7.38287,16.87871 16.66015,17.83789 l 19.22852,1.99219 a 7.50075,7.50075 0 0 0 0.002,0 c 4.91593,0.50797 9.89706,-0.99497 13.71289,-4.13867 3.85623,-3.15932 6.27436,-7.75282 6.69531,-12.72071 L 581.79385,35.302365 v -0.004 c 0.45522,-4.92657 -1.08746,-9.83627 -4.27539,-13.61914 -3.16584,-3.78754 -7.71804,-6.15922 -12.63672,-6.58007 l -0.0156,-0.002 -18.03321,-1.56836 c -7.95269,-0.69191 -15.39432,3.29801 -19.2246,10.29492 -8.4e-4,0.001 -15.08741,27.55054 -26.73438,48.82031 l -14.18166,-52.5879 c -2.14145,-7.94473 -8.8906,-13.6808905 -17.08594,-14.5039105 l 0.002,0.002 -19.88672,-2.0039 h -0.01 c -1.23139,-0.12479 -2.45128,-0.12355 -3.64453,-0.008 z m 5.89453,23.9316405 12.65625,1.27344 2.25586,8.36718 h -13.83789 a 7.50075,7.50075 0 0 0 -2.64063,0.86133 z m 110.85352,11.11328 0.0273,0.002 h -0.0195 c -0.003,-2.4e-4 -0.005,-0.002 -0.008,-0.002 z m -5.06446,0.88867 -1.7539,19.65039 -6.46485,-0.0254 a 7.50075,7.50075 0 0 0 -0.004,0 l -0.57422,-0.002 a 7.50075,7.50075 0 0 0 -7.26162,5.52544 l -0.14844,0.54297 -2.24219,8.10351 c -0.15843,-0.0596 -0.24492,-0.15775 -0.41406,-0.21093 -4.15608,-1.30683 -6.78736,0.93143 -7.79101,1.89258 -1.00366,0.96114 -1.39773,1.65566 -1.78711,2.33398 l -35.92774,62.306635 -5.86718,-0.62305 -4.77149,-16.38281 a 7.50075,7.50075 0 0 0 2.86133,-5.57812 v -10.43164 l 2.26367,8.39453 a 7.50075,7.50075 0 0 0 0.002,0.002 c 0.27508,1.01952 0.67879,2.15671 1.68946,3.44531 1.01066,1.28861 2.97163,2.81666 5.47851,3.11719 2.50689,0.30053 4.77545,-0.72187 6.0625,-1.73633 1.28706,-1.01445 1.94735,-2.0249 2.45508,-2.95117 a 7.50075,7.50075 0 0 0 0.002,-0.002 l 32.57422,-59.490235 h 10.25 a 7.50075,7.50075 0 0 0 7.10157,-5.08594 l 0.17578,-0.51953 a 7.50075,7.50075 0 0 0 0.0137,-0.041 z m -98.1289,14.1543 h 11.69726 l 7.00391,25.97461 h -1.74219 a 7.50075,7.50075 0 0 0 -5.54883,2.78516 l -4.15234,-14.26758 a 7.50075,7.50075 0 0 0 -0.004,-0.0156 c -0.21454,-0.73141 -0.42744,-1.47049 -1.14843,-2.61914 -0.3605,-0.57433 -0.84229,-1.29281 -1.9043,-2.11719 -1.06202,-0.82438 -3.03529,-1.77533 -5.29492,-1.60938 -2.25963,0.16596 -4.07063,1.39312 -5,2.36133 -0.92937,0.96821 -1.3029,1.74753 -1.57617,2.36719 -0.54656,1.23931 -0.64931,2.00171 -0.75586,2.75586 a 7.50075,7.50075 0 0 0 -0.002,0.0156 l -4.73633,34.066405 h -1.95898 l -1.77539,-0.96485 -0.125,-0.0703 a 7.50075,7.50075 0 0 0 -1.7168,-0.45703 l 5.70313,-38.306635 h 4.40429 a 7.50075,7.50075 0 0 0 7.14649,-5.22461 l 0.16797,-0.5293 a 7.50075,7.50075 0 0 0 0.002,0 z m 94.30468,28.68945 -0.68554,7.70117 0.0137,-5.26953 z m -2.78125,31.224605 -1.12695,12.64258 h -0.082 a 7.50075,7.50075 0 0 0 -6.71289,4.16016 l -0.20898,0.41992 0.50585,-1.03125 -1.04492,0.13867 -0.60742,0.0801 a 7.50075,7.50075 0 0 0 -1.74414,0.88867 l 1.26758,-14.73242 h 4.29883 a 7.50075,7.50075 0 0 0 5.45507,-2.56641 z m -114.48632,16.61719 5.9707,0.71094 -0.47461,3.42187 -6.0332,-0.52734 z m 119.63476,11.02539 -0.32812,0.66406 -0.16407,-0.17969 a 7.50075,7.50075 0 0 0 0.38672,-0.27539 z" /><g
   id="g2"
   transform="translate(8.0665491,6.73814)"><path
     fill="url(#a)"
     d="m 436.783,14.144 -17.318,116.254 c -0.141,0.942 0.103,1.867 0.683,2.603 0.58,0.736 1.423,1.187 2.37,1.271 l 16.047,1.399 c 1.91,0.168 3.686,-1.244 3.947,-3.146 0,0 8.807,-63.336 9.371,-67.417 1.156,3.975 20.719,71.149 20.719,71.149 0.504,1.722 2.293,3.222 4.078,3.41 l 10.701,1.14 c 1.773,0.188 3.861,-0.875 4.752,-2.418 0,0 34.193,-59.302 36.105,-62.614 l -5.582,64.872 c -0.01,0.104 -0.016,0.205 -0.016,0.31 a 3.6,3.6 0 0 0 3.209,3.56 l 19.23,1.987 a 3.48,3.48 0 0 0 2.586,-0.778 3.467,3.467 0 0 0 1.258,-2.388 L 559.347,26.447 a 3.507,3.507 0 0 0 -0.813,-2.578 3.504,3.504 0 0 0 -2.396,-1.25 l -18.051,-1.57 c -1.777,-0.155 -3.842,0.951 -4.699,2.516 l -44.734,81.701 -0.008,0.01 -0.004,-0.01 -23.939,-88.783 c -0.469,-1.743 -2.244,-3.25 -4.041,-3.431 l -19.895,-2.003 c -1.918,-0.195 -3.701,1.194 -3.984,3.095 z"
     id="path9"
     style="fill:url(#a)" /><path
     d="m 564.333,19 a 11.032,11.032 0 0 0 -7.543,-3.929 l -18.049,-1.569 c -4.77,-0.415 -9.699,2.227 -11.996,6.423 0,0 -24.188,44.166 -35.697,65.188 L 472.009,14.509 C 470.716,9.712 466.364,6.013 461.415,5.516 L 441.519,3.513 a 11.213,11.213 0 0 0 -12.229,9.516 l -17.317,116.256 a 10.997,10.997 0 0 0 2.228,8.406 11.017,11.017 0 0 0 7.658,4.121 l 16.043,1.4 c 5.963,0.521 11.277,-3.717 12.104,-9.646 0,0 2.26,-16.262 4.5,-32.362 l 10.822,37.168 c 1.363,4.68 5.699,8.31 10.545,8.821 l 10.703,1.142 c 4.746,0.504 9.725,-2.028 12.107,-6.164 l 19.084,-33.092 -2.66,30.918 c -0.027,0.317 -0.041,0.637 -0.041,0.949 0,5.629 4.309,10.506 10.002,11.094 l 19.229,1.992 c 2.971,0.307 5.875,-0.57 8.18,-2.472 A 10.96,10.96 0 0 0 556.461,144 L 566.883,27.111 A 10.996,10.996 0 0 0 564.333,19 Z m -30.062,5.044 c 0.666,-1.218 2.344,-2.116 3.729,-1.996 l 5.943,0.517 -6.096,18.277 h -12.773 z m -93.607,-11.995 19.895,2.003 c 1.383,0.139 2.811,1.349 3.168,2.69 l 5.494,20.373 h -23.627 l -0.168,0.527 -2.979,9.373 h -9.541 l 4.877,-32.722 c 0.203,-1.373 1.5,-2.382 2.881,-2.244 z m -9.561,90.799 3.496,1.902 0.17,0.092 h 10.568 l -1.459,10.486 -20.783,-2.473 1.498,-10.049 z m 7.547,31.819 -16.047,-1.401 a 2.352,2.352 0 0 1 -2.143,-2.716 l 2.412,-16.196 20.797,2.476 -2.162,15.56 c -0.187,1.37 -1.474,2.396 -2.857,2.277 z m 13.586,-71.948 c -0.391,-1.333 -0.861,-1.297 -1.055,0.076 l -5.635,40.534 h -10.395 l -3.494,-1.899 -0.166,-0.093 -0.191,-0.002 -6.479,-0.041 7.855,-52.764 h 10.871 l 0.168,-0.528 2.98,-9.372 h 22.928 l 11.049,40.976 h -11.534 v 28.391 h -3.723 z m 92.945,82.778 -9.295,-0.961 0.938,-13.306 4.813,-0.633 0.4,-0.054 0.18,-0.36 1.225,-2.479 h 5.861 l -1.385,15.541 a 2.494,2.494 0 0 1 -2.737,2.252 z m 4.256,-19.309 h -6.942 l -0.209,0.42 -1.252,2.541 -5.023,0.662 -0.609,0.08 -0.047,0.617 -0.975,13.869 -8.428,-0.871 a 2.588,2.588 0 0 1 -2.293,-2.775 l 3.408,-39.619 h 11.182 l 0.002,-0.756 0.064,-24.132 4.314,-15.606 12.646,0.051 z m 5.977,-67.033 -13.355,-0.054 -0.574,-0.002 -0.152,0.557 -4.5,16.264 -0.027,0.098 V 76.12 L 536.74,99.6 h -9.541 l 2.217,-25.75 c 0.117,-1.383 -0.355,-1.531 -1.045,-0.329 l -37.113,64.363 c -0.691,1.203 -2.391,2.064 -3.77,1.918 l -10.701,-1.139 c -1.381,-0.146 -2.828,-1.356 -3.215,-2.688 l -7.709,-26.466 h 4.799 V 81.118 h 10.426 l 6.58,24.403 c 0.361,1.338 1.203,1.439 1.869,0.224 l 34.709,-63.387 h 14.693 l 0.176,-0.518 6.379,-19.139 10.557,0.918 a 2.524,2.524 0 0 1 2.289,2.733 z"
     id="path10" /><path
     fill="url(#b)"
     d="m 421.875,8.088 -18.472,3.722 c -1.782,0.359 -3.37,2.05 -3.618,3.85 L 389.35,91.455 351.684,24.44 c -0.896,-1.594 -3,-2.553 -4.791,-2.183 l -21.271,4.396 c -0.975,0.2 -1.732,0.776 -2.088,1.579 -0.354,0.802 -0.27,1.752 0.238,2.605 l 61.738,104.019 c 0.928,1.561 3.045,2.518 4.822,2.182 L 401.108,135 c 1.776,-0.336 3.404,-1.996 3.707,-3.781 L 425.123,11.234 C 425.291,10.25 425.027,9.337 424.4,8.73 423.775,8.125 422.853,7.893 421.875,8.088 Z"
     id="path18"
     style="fill:url(#b)" /><path
     d="m 430.519,2.419 a 8.576,8.576 0 0 0 -7.668,-2.251 l -23.417,4.719 a 8.584,8.584 0 0 0 -6.808,7.241 L 384.921,68.121 357.05,18.532 a 8.581,8.581 0 0 0 -9.217,-4.198 l -26.215,5.418 a 8.575,8.575 0 0 0 -6.115,4.938 8.587,8.587 0 0 0 0.472,7.844 l 64.317,108.356 a 8.576,8.576 0 0 0 8.972,4.051 l 15.729,-2.971 a 8.58,8.58 0 0 0 6.866,-7 L 433.007,10.01 a 8.58,8.58 0 0 0 -2.488,-7.591 z m -29.734,13.379 c 0.188,-1.375 1.457,-2.724 2.815,-2.999 l 7.015,-1.413 v 5.358 l -1.759,1.556 -0.256,0.226 v 4.246 l -1.806,1.93 -0.205,0.219 v 12.148 l -2.353,1.972 h -6.653 z M 341.53,46.599 h 0.759 V 36.522 h 7.148 l 0.228,-0.311 1.335,-1.827 h 5.119 L 378.996,75.09 360.416,90.59 334.3,46.6 Z m -15.702,-18.954 21.271,-4.396 c 1.355,-0.281 3.025,0.48 3.707,1.689 l 4.459,7.934 h -5.035 l -0.229,0.31 -1.338,1.828 h -7.895 V 45.087 H 333.4 l -8.762,-14.76 c -0.704,-1.196 -0.172,-2.403 1.19,-2.682 z m 77.993,103.408 c -0.229,1.369 -1.536,2.701 -2.899,2.957 l -10.771,2.035 c -1.362,0.258 -3.062,-0.508 -3.771,-1.701 l -7.616,-12.834 15.272,-5.639 0.494,-0.182 v -7.375 l 3.793,-2.902 5.36,0.043 0.267,0.002 0.209,-0.164 4.637,-3.643 z m 2.262,-64.336 1.992,-1.949 0.228,-0.223 v -3.9 h 7.434 l -3.547,20.953 h -6.147 z m 18.043,-55.649 -8.135,48.063 h -9.205 v 4.779 l -1.99,1.947 -0.226,0.223 -0.002,0.317 -0.049,15.958 -0.002,0.76 h 7.412 l -2.763,16.316 -5.737,4.506 -5.357,-0.043 -0.26,-0.002 -0.205,0.157 -4.297,3.291 -0.297,0.226 v 7.067 l -15.039,5.553 -16.783,-28.273 18.554,-15.48 8.959,15.937 c 0.68,1.209 1.392,1.074 1.58,-0.301 l 7.09,-51.511 h 7.414 L 405,40.38 l 2.834,-2.376 0.271,-0.226 V 25.521 l 1.809,-1.931 0.205,-0.218 v -4.163 l 1.756,-1.557 0.254,-0.225 v -6.344 l 9.945,-2.003 c 1.359,-0.275 2.285,0.621 2.052,1.988 z"
     id="path19" /><path
     d="m 353.483,66.369 c 15.177,6.063 19.17,25.939 16.729,48.469 -1.06,9.77 -1.271,22.031 -10.825,23.375 -3.25,0.457 -6.921,-0.324 -10.335,-0.738 -3.063,-0.373 -6.569,-1.598 -9.596,-1.229 -1.84,0.225 -3.238,1.721 -4.922,2.213 -3.736,1.098 -8.386,0.492 -13.531,0.492 -3.146,0 -6.34,0.051 -9.103,-0.492 -1.666,-0.328 -3.373,-1.59 -5.168,-1.721 -1.642,-0.123 -3.303,0.783 -5.166,0.982 -5.01,0.533 -11.729,0.695 -16.979,0.246 -1.88,-0.166 -3.958,-1.256 -5.657,-1.229 -1.678,0.025 -3.559,1.271 -5.414,1.477 -6.576,0.729 -13.49,-2.537 -19.189,-1.967 -2.656,0.266 -5.342,2.623 -8.857,2.951 -5.074,0.479 -13.408,0.182 -18.453,-0.736 -1.891,-0.344 -3.834,-1.6 -5.658,-1.723 -1.654,-0.113 -3.541,0.811 -5.412,0.984 -4.783,0.445 -10.76,0.486 -15.748,0.246 -1.436,-0.072 -2.875,-0.574 -4.184,-0.492 -2.266,0.145 -4.504,1.713 -6.643,1.969 -5.709,0.688 -12.07,0.789 -17.467,0.246 -1.918,-0.195 -3.865,-1.209 -5.906,-1.229 -2.764,-0.032 -5.326,1.277 -7.627,1.478 -13.297,1.158 -23.307,-5.229 -30.018,-12.549 -2.968,1.426 -4.869,4.063 -7.627,5.905 -12.333,8.259 -33.379,5.879 -44.287,-2.707 -1.548,-1.219 -3.757,-4.95 -5.658,-4.92 -1.621,0.027 -4.445,3.8 -5.906,4.92 -5.808,4.451 -13.629,7.709 -23.373,8.365 C 26.843,139.938 15.13,134.459 7.55,127.392 3.665,123.765 -1.938,117.808 0.661,110.416 1.999,106.61 5.915,102.722 8.78,99.345 9.835,98.099 11.419,96.883 11.485,95.654 11.608,93.441 7.989,90.144 7.057,88.519 2.829,81.142 1.475,68.969 5.581,59.731 10.477,48.721 23.409,40.755 41.01,42.016 c 6.71,0.482 13.599,2.547 19.437,5.905 8.34,4.793 16.992,9.227 14.271,21.897 3.516,-0.753 5.535,-3.256 8.611,-4.674 10.691,-4.936 27.801,-4.587 37.643,1.723 1.234,0.793 3.127,2.69 4.184,2.705 1.957,0.025 4.361,-3.92 6.15,-4.675 4.008,-1.69 16.895,-1.782 22.637,-1.229 2.285,0.222 4.627,1.82 6.395,1.723 1.928,-0.107 4.414,-2.495 5.906,-2.953 4.586,-1.404 18.709,-1.978 23.865,-0.492 1.695,0.487 3.506,2.48 5.414,2.707 1.813,0.215 4.176,-0.65 6.15,-0.738 3.664,-0.168 7.781,-0.418 11.318,-0.246 2.551,0.125 4.965,1.58 7.379,1.722 2.244,0.135 4.926,-1.004 7.381,-0.983 1.967,0.016 4.229,0.486 6.15,0.983 1.83,0.474 3.66,1.733 5.168,1.724 2.246,-0.017 4.652,-1.703 6.643,-2.215 6.889,-1.768 14.553,-1.378 21.652,1.23 1.588,0.584 4.469,3.209 6.148,3.199 1.994,-0.012 4.344,-3.476 6.152,-4.184 5.037,-1.963 12.468,-1.707 18.451,-1.477 2.697,0.104 5.115,1.594 7.629,1.722 2.229,0.114 4.617,-0.948 6.887,-0.983 2.152,-0.035 4.227,0.486 6.152,0.983 1.939,0.502 3.986,1.702 5.414,1.724 1.906,0.024 3.781,-1.498 5.412,-1.97 7.439,-2.144 16.275,-1.81 23.874,1.225 z"
     id="path20" /><g
     id="g1"><path
       fill="#8ed703"
       d="m 65.161,95.064 c 1.551,3.064 2.33,6.711 2.33,10.945 0,4.084 -0.854,7.619 -2.558,10.605 -1.705,2.985 -3.921,5.44 -6.649,7.37 -2.727,1.929 -5.816,3.363 -9.263,4.312 a 39.276,39.276 0 0 1 -10.399,1.416 c -6.973,0 -12.826,-1.287 -17.562,-3.854 -4.736,-2.567 -8.998,-6.463 -12.786,-11.681 l 8.075,-10.193 c 0.747,-0.942 2.017,-0.979 2.817,-0.086 0,0 0.929,1.037 2.52,2.283 a 31.32,31.32 0 0 0 5.171,3.289 c 1.854,0.947 3.75,1.721 5.683,2.326 1.933,0.605 3.731,0.908 5.398,0.908 1.666,0 2.938,-0.304 3.807,-0.908 0.871,-0.604 1.309,-1.738 1.309,-3.402 0,-1.436 -0.779,-2.797 -2.33,-4.084 -1.555,-1.283 -3.487,-2.625 -5.797,-4.024 -2.313,-1.397 -4.813,-2.91 -7.502,-4.537 a 43.629,43.629 0 0 1 -7.5,-5.728 30.47,30.47 0 0 1 -5.797,-7.541 c -1.553,-2.836 -2.33,-6.105 -2.33,-9.811 0,-3.629 0.682,-6.805 2.045,-9.526 1.363,-2.723 3.201,-5.008 5.513,-6.862 2.31,-1.851 4.981,-3.25 8.013,-4.197 3.029,-0.944 6.25,-1.417 9.66,-1.417 6.061,0 11.498,1.116 16.311,3.345 4.812,2.231 9.377,5.539 13.697,9.922 l -6.539,10.073 c -0.654,1.009 -1.936,1.191 -2.846,0.402 0,0 -1.643,-1.42 -3.46,-2.595 A 48.72,48.72 0 0 0 48.851,68.81 c -1.744,-0.832 -3.374,-1.455 -4.889,-1.872 -1.517,-0.415 -2.84,-0.624 -3.978,-0.624 -1.364,0 -2.368,0.341 -3.012,1.021 -0.646,0.681 -0.966,1.55 -0.966,2.608 0,1.36 0.775,2.628 2.33,3.8 1.551,1.172 3.504,2.381 5.853,3.629 a 259.463,259.463 0 0 1 7.56,4.195 41.53,41.53 0 0 1 7.559,5.613 c 2.346,2.197 4.297,4.824 5.853,7.884 z m 29.793,-4.388 c 0.866,-0.941 1.848,-1.656 2.944,-2.146 1.093,-0.487 2.168,-0.733 3.228,-0.733 3.17,0 5.528,0.791 7.076,2.373 1.547,1.582 2.248,3.197 2.248,3.197 0.477,1.1 1.818,1.762 2.981,1.473 l 13.737,-3.428 c -1.435,-6.25 -4.342,-11.3 -8.719,-15.139 -4.379,-3.842 -10.267,-5.762 -17.664,-5.762 -4.529,0 -8.568,0.695 -12.117,2.09 -3.549,1.395 -6.529,3.389 -8.944,5.989 -2.417,2.599 -4.247,5.726 -5.492,9.377 -1.246,3.656 -1.869,7.74 -1.869,12.259 0,3.918 0.566,7.646 1.698,11.188 1.132,3.542 2.887,6.646 5.266,9.32 2.377,2.676 5.377,4.803 9.002,6.385 3.623,1.58 7.963,2.371 13.021,2.371 a 27.59,27.59 0 0 0 8.379,-1.299 23.808,23.808 0 0 0 7.474,-3.955 c 2.266,-1.77 4.246,-4.01 5.944,-6.725 1.698,-2.711 3.16,-7.518 3.16,-7.518 a 2.148,2.148 0 0 0 -1.461,-2.687 l -13.304,-3.807 a 7.619,7.619 0 0 1 -1.473,3.277 13.56,13.56 0 0 1 -2.548,2.541 c -0.944,0.719 -1.907,1.284 -2.888,1.698 -0.981,0.414 -1.887,0.619 -2.717,0.619 -2.944,0 -5.342,-1.129 -7.19,-3.389 -1.851,-2.261 -2.774,-5.233 -2.774,-8.929 0,-1.954 0.283,-3.649 0.85,-5.084 0.566,-1.425 1.282,-2.612 2.152,-3.556 z m 94.375,9.574 c -0.189,-4.686 -0.379,-9.461 -0.568,-14.334 -0.189,-4.873 -0.445,-13.508 -0.445,-13.508 a 2.213,2.213 0 0 0 -2.25,-2.137 l -18.598,0.404 c 0.229,3.627 0.436,6.763 0.625,9.407 0.189,2.645 0.342,5.176 0.455,7.592 0.113,2.416 0.189,4.91 0.229,7.477 0.035,2.57 0.057,5.593 0.057,9.066 0,2.645 -0.871,4.74 -2.611,6.289 -1.742,1.549 -3.822,2.322 -6.248,2.322 -2.572,0 -4.504,-0.775 -5.791,-2.322 -1.289,-1.549 -1.93,-3.418 -1.93,-5.609 0,-3.92 0.18,-7.598 0.566,-11.442 0.379,-3.774 0.756,-7.25 1.137,-10.427 0.455,-3.625 1.229,-8.268 1.229,-8.268 0.197,-1.186 -0.623,-2.146 -1.826,-2.133 l -19.391,0.203 a 288.049,288.049 0 0 0 -1.363,11.333 241.745,241.745 0 0 0 -0.965,10.312 c -0.266,3.625 -0.396,6.873 -0.396,9.743 0,4.078 0.492,7.755 1.477,11.025 0.982,3.271 2.5,6.051 4.543,8.34 2.043,2.289 4.674,4.051 7.893,5.291 3.217,1.235 7.059,1.856 11.525,1.856 1.287,0 2.611,-0.17 3.975,-0.51 a 20.224,20.224 0 0 0 3.918,-1.419 21.25,21.25 0 0 0 3.463,-2.094 c 0.477,-0.356 1.313,-1.485 1.998,-1.248 0.889,0.312 0.387,2.306 0.387,2.97 0,1.202 0.982,2.163 2.186,2.137 l 17.801,-0.399 c -0.152,-5.554 -0.322,-10.756 -0.512,-15.61 z m 82.494,-19.064 c -1.736,-2.672 -4.115,-4.762 -7.133,-6.27 -3.02,-1.506 -6.945,-2.26 -11.775,-2.26 -3.625,0 -6.738,0.791 -9.344,2.373 a 26.33,26.33 0 0 0 -2.025,1.354 c -0.586,0.435 -1.154,0.898 -1.684,1.399 -0.395,0.373 -0.738,0.944 -1.311,1.045 -0.146,0.024 -0.299,0.062 -0.453,0.047 -0.523,-0.049 -0.668,-0.401 -0.938,-0.791 -0.754,-1.094 -1.732,-2.015 -2.818,-2.772 -1.889,-1.316 -4.266,-1.977 -7.133,-1.977 -1.436,0 -2.795,0.226 -4.078,0.678 a 14.069,14.069 0 0 0 -3.453,1.751 c -0.861,0.604 -1.604,1.334 -2.426,1.984 -0.404,0.317 -0.564,0.756 -1.131,0.721 -0.586,-0.038 -0.502,-0.784 -0.543,-1.184 -0.049,-0.474 -0.1,-0.947 -0.148,-1.421 a 193.38,193.38 0 0 1 -0.109,-1.04 c -0.123,-1.191 -1.205,-2.144 -2.404,-2.115 l -16.279,0.399 c 0.227,4.595 0.396,9 0.51,13.22 0.114,4.219 0.188,8.491 0.227,12.821 0.037,4.332 0.037,8.908 0,13.729 -0.039,4.82 -0.053,13.75 -0.053,13.75 a 2.142,2.142 0 0 0 2.176,2.146 l 15.797,-0.27 c 1.197,-0.021 2.199,-1.02 2.223,-2.215 l 0.637,-31.037 c 0,-1.055 0.264,-2.127 0.791,-3.221 0.527,-1.093 1.771,-1.64 3.736,-1.64 0.906,0 1.623,0.338 2.152,1.019 0.525,0.678 0.961,1.582 1.303,2.711 0.34,1.129 0.564,2.428 0.678,3.897 0.113,1.467 0.17,2.994 0.17,4.576 v 9.604 c 0,2.483 -0.02,4.649 -0.057,6.493 -0.039,1.851 -0.096,3.58 -0.17,5.199 -0.076,1.62 -0.143,3.416 -0.143,3.416 a 2.148,2.148 0 0 0 2.096,2.228 l 18.543,0.401 c -0.152,-1.129 -0.283,-2.522 -0.395,-4.181 a 110.07,110.07 0 0 1 -0.229,-5.084 c -0.037,-1.731 -0.074,-3.389 -0.113,-4.971 -0.039,-1.582 -0.057,-2.861 -0.057,-3.843 0,-7.229 0.303,-12.612 0.908,-16.155 0.604,-3.539 2.188,-5.311 4.756,-5.311 1.584,0 2.811,0.66 3.68,1.979 0.865,1.318 1.303,3.521 1.303,6.609 0,2.938 -0.359,6.686 -1.076,11.242 -0.719,4.558 -2.971,14.427 -2.971,14.427 -0.266,1.168 0.49,2.244 1.68,2.396 l 18.672,2.33 c 0.83,-4.67 1.529,-9.188 2.096,-13.56 0.566,-4.366 0.85,-8.625 0.85,-12.769 0,-4.442 -0.322,-8.528 -0.963,-12.258 -0.646,-3.724 -1.836,-6.926 -3.572,-9.599 z m 89.059,9.604 c -0.644,-3.729 -1.83,-6.931 -3.563,-9.604 -1.737,-2.672 -4.116,-4.762 -7.137,-6.27 -3.021,-1.506 -6.942,-2.26 -11.774,-2.26 -3.623,0 -6.736,0.791 -9.343,2.373 -0.666,0.405 -1.315,0.834 -1.946,1.295 -0.593,0.434 -1.162,0.896 -1.697,1.396 -0.442,0.414 -1.014,1.406 -1.715,1.203 -0.5,-0.146 -0.938,-0.701 -1.229,-1.105 -0.718,-0.984 -1.644,-1.813 -2.64,-2.506 -1.889,-1.315 -4.267,-1.978 -7.133,-1.978 -1.438,0 -2.795,0.227 -4.078,0.679 -1.282,0.452 -2.435,1.036 -3.451,1.751 -1.02,0.716 -1.852,1.469 -2.491,2.259 -0.104,0.127 -0.205,0.252 -0.317,0.369 -0.162,0.168 -0.416,0.396 -0.671,0.334 -0.288,-0.067 -0.459,-0.498 -0.522,-0.752 -0.116,-0.445 -0.127,-0.917 -0.172,-1.374 -0.062,-0.592 -0.121,-1.186 -0.185,-1.777 -0.125,-1.193 -1.207,-2.145 -2.403,-2.115 l -16.277,0.399 c 0.225,4.595 0.396,9.001 0.508,13.22 0.115,4.219 0.189,8.492 0.229,12.822 0.037,4.332 0.037,8.908 0,13.729 -0.039,4.82 -0.055,13.75 -0.055,13.75 a 2.142,2.142 0 0 0 2.178,2.146 l 15.799,-0.269 a 2.288,2.288 0 0 0 2.223,-2.215 l 0.635,-31.037 c 0,-1.055 0.266,-2.127 0.793,-3.221 0.527,-1.092 1.773,-1.639 3.736,-1.639 0.906,0 1.623,0.338 2.15,1.018 0.525,0.678 0.963,1.582 1.303,2.711 0.34,1.129 0.563,2.428 0.68,3.898 0.113,1.469 0.17,2.994 0.17,4.574 v 9.604 c 0,2.483 -0.02,4.649 -0.057,6.495 a 211.833,211.833 0 0 1 -0.17,5.197 c -0.076,1.621 -0.146,3.416 -0.146,3.416 a 2.15,2.15 0 0 0 2.1,2.228 h 0.033 c 0.6,0.012 1.197,0.024 1.799,0.039 1.293,0.026 2.586,0.057 3.881,0.084 1.582,0.032 3.164,0.067 4.748,0.104 1.494,0.031 2.988,0.063 4.48,0.098 0.916,0.021 1.99,0.219 2.891,0.012 0.76,-0.176 0.592,-0.777 0.57,-1.385 -0.025,-0.918 -0.193,-1.814 -0.26,-2.729 a 120.919,120.919 0 0 1 -0.229,-5.084 c -0.037,-1.731 -0.074,-3.391 -0.111,-4.971 a 163.055,163.055 0 0 1 -0.059,-3.843 c 0,-7.229 0.301,-12.614 0.906,-16.155 0.605,-3.541 2.189,-5.313 4.756,-5.313 1.586,0 2.813,0.662 3.682,1.979 0.865,1.317 1.305,3.521 1.305,6.608 0,2.938 -0.357,6.687 -1.078,11.242 -0.717,4.562 -2.969,14.428 -2.969,14.428 -0.268,1.168 0.486,2.246 1.68,2.396 l 1.521,0.19 c 2.555,0.32 5.104,0.636 7.656,0.955 1.619,0.203 3.242,0.373 4.863,0.563 0.984,0.113 1.957,0.332 2.938,0.443 0.607,0.066 1.377,0.375 1.867,-0.166 0.465,-0.52 0.438,-1.469 0.545,-2.109 0.166,-0.967 0.264,-1.939 0.344,-2.916 0.121,-1.495 0.313,-2.959 0.523,-4.443 0.18,-1.248 0.344,-2.496 0.506,-3.746 0.564,-4.367 0.85,-8.624 0.85,-12.768 -0.006,-4.443 -0.328,-8.529 -0.97,-12.257 z"
       id="path21" /></g></g>
</svg>
