<?xml version='1.0' encoding='utf-8'?>
<svg xmlns="http://www.w3.org/2000/svg" viewBox="0 0 254.83394 69.731261" version="1.1" id="svg2" width="600" height="164.18046810481886">
    <defs id="defs2"/>
    <g id="path2" style="opacity:1" transform="translate(0,-0.00120772)">
        <path style="baseline-shift:baseline;display:inline;overflow:visible;opacity:1;vector-effect:none;fill:#ffffff;stroke:none;stroke-width:10;stroke-linecap:round;stroke-linejoin:round;stroke-dasharray:none;stroke-opacity:1;paint-order:markers stroke fill;enable-background:accumulate;stop-color:#000000;stop-opacity:1" d="m 51.050781,22.353516 a 5.0005,5.0005 0 0 0 -5,5 v 9.273437 0.002 a 5.0005,5.0005 0 0 0 5,5 h 8.433594 a 5.0005,5.0005 0 0 0 -0.490234,1.181641 v 7.367187 h -7.94336 a 5.0005,5.0005 0 0 0 -5,5 v 9.275391 a 5.0005,5.0005 0 0 0 5,5 h 52.425779 c 3.87317,0 7.69639,-1.088662 10.3711,-3.826172 0.16394,-0.167792 0.26635,-0.373223 0.41797,-0.548828 a 5.0005,5.0005 0 0 0 4.74218,4.375 h 61.48828 a 5.0005,5.0005 0 0 0 3.81055,-2.130859 5.0005,5.0005 0 0 0 2.8457,2.128906 h 19.41797 a 5.0005,5.0005 0 0 0 2.70703,-0.794922 l 16.29297,-10.492188 16.29492,10.492188 a 5.0005,5.0005 0 0 0 3.37891,0.123047 l -0.67187,0.671875 h 19.41406 a 5.0005,5.0005 0 0 0 2.70898,-9.203125 l -22.18945,-14.300781 3.14258,-2.025391 a 5.0005,5.0005 0 0 0 0.85351,-2.292969 h 1.2461 a 5.0005,5.0005 0 0 0 2.70507,-0.794922 l 14.42383,-9.27539 a 5.0005,5.0005 0 0 0 -2.70312,-9.205078 h -19.41797 a 5.0005,5.0005 0 0 0 -2.71094,0.798828 l -14.37695,9.27539 a 5.0005,5.0005 0 0 0 -0.84961,2.291016 h -2.49414 a 5.0005,5.0005 0 0 0 -0.85156,-2.292969 l -14.37696,-9.27539 a 5.0005,5.0005 0 0 0 -2.71093,-0.796875 H 186.9668 a 5.0005,5.0005 0 0 0 -4.16602,5.279296 c -0.39679,-0.545144 -0.78127,-1.10036 -1.2793,-1.576171 -2.82188,-2.696007 -6.70207,-3.703125 -10.73437,-3.703125 h -51.77734 a 5.0005,5.0005 0 0 0 -4.74219,4.376953 c -0.15249,-0.176745 -0.25496,-0.383898 -0.41992,-0.552735 -2.67471,-2.73751 -6.49793,-3.824218 -10.3711,-3.824218 z m 133.779299,9.570312 13.85742,8.910156 a 5.0005,5.0005 0 0 0 2.70508,0.792969 h 1.24414 a 5.0005,5.0005 0 0 0 0.85351,2.294922 l 3.14258,2.025391 -21.13672,13.623046 v -4.392578 a 5.0005,5.0005 0 0 0 -2.28515,-3.875 c 1.58903,-2.453878 2.28515,-5.451682 2.28515,-8.492187 v -3.089844 a 5.0005,5.0005 0 0 0 -0.64062,-1.546875 5.0005,5.0005 0 0 0 0.64062,-1.544922 c 0,-1.610194 -0.2513,-3.190094 -0.66601,-4.705078 z m -67.29297,9.095703 a 5.0005,5.0005 0 0 0 0.71289,0.294922 c -0.0838,0.07552 -0.18556,0.120868 -0.26758,0.199219 -0.17347,0.16572 -0.28435,0.37419 -0.44531,0.548828 z m 102.65625,3.699219 h 10.75391 a 5.0005,5.0005 0 0 0 1.62109,5.429687 L 247,59.451172 h -0.95898 l -17.76368,-11.4375 a 5.0005,5.0005 0 0 0 -5.41406,0 l -17.76367,11.4375 h -0.96094 l 14.43164,-9.302735 a 5.0005,5.0005 0 0 0 1.62305,-5.429687 z m -120.78711,0.002 h 8.13086 v 10.457031 c 0,2.277451 -0.49589,3.10691 -0.8418,3.460938 -0.3459,0.354028 -1.05151,0.814453 -3.21875,0.814453 h -6.255857 c 0.167199,-0.06791 0.309229,-0.06765 0.482422,-0.150391 1.708206,-0.816096 3.654295,-3.409328 3.654295,-5.671875 0,-2.262546 -1.946089,-4.853824 -3.654295,-5.669922 -0.711014,-0.339687 -1.349093,-0.491419 -1.980469,-0.61914 0.945227,-0.280596 1.887345,-0.683967 2.775391,-1.390625 0.405738,-0.322864 0.589688,-0.824774 0.908203,-1.230469 z m 68.14648,0 h 7.71094 c -0.17429,0.713122 -0.40414,1.196394 -0.65039,1.431641 -0.41418,0.39568 -1.3864,0.933593 -3.82617,0.933593 h -6.25977 c 0.84877,-0.335766 1.69872,-0.731846 2.43164,-1.43164 0.28283,-0.27004 0.36822,-0.631601 0.59375,-0.933594 z m -38.83593,3.089844 h 3.02343 c -0.84868,0.335765 -1.69683,0.731913 -2.42968,1.43164 -1.74373,1.664918 -2.35742,4.031955 -2.35742,5.935547 a 5.0005,5.0005 0 0 0 3.25195,4.275391 h -6.19727 v -7.363281 a 5.0005,5.0005 0 0 0 0.002,-0.0039 c 0,-2.219427 0.46667,-2.944161 0.88086,-3.339843 0.41418,-0.395682 1.38641,-0.935547 3.82617,-0.935547 z" id="path3" transform="translate(-14.33729,0.25702907)"/>
        <path style="baseline-shift:baseline;display:inline;overflow:visible;opacity:1;vector-effect:none;fill:#666666;stroke:none;stroke-width:10;stroke-linecap:round;stroke-linejoin:round;stroke-dasharray:none;stroke-opacity:1;paint-order:markers stroke fill;enable-background:accumulate;stop-color:#000000;stop-opacity:1" d="m 51.050311,36.627745 v -9.274048 h 52.425509 c 6.04041,0 9.06143,3.091349 9.06143,9.274801 H 51.050311 Z m 0,27.824404 v -9.274802 h 42.070053 c 2.15671,0 3.236283,-0.516229 3.236283,-1.545674 0,-1.029445 -1.079573,-1.545675 -3.236283,-1.545675 H 63.994631 v -9.274801 h 28.478314 c 2.588864,0 3.883702,-1.029445 3.883702,-3.09135 h 16.180603 v 15.4575 c 0,6.183452 -3.02102,9.274802 -9.06143,9.274802 z M 119.009,36.627745 v -9.274048 h 51.77809 c 6.47257,0 9.70804,3.091349 9.70804,9.274801 H 119.009 Z m 0,15.458253 c 0,-6.183452 3.23629,-9.274801 9.70804,-9.274801 h 32.3612 c 2.15671,0 3.23629,-1.029445 3.23629,-3.09135 h 16.1806 v 3.09135 c 0,6.183452 -3.23628,9.274801 -9.70804,9.274801 H 135.1896 c -2.1567,0 -3.23628,1.029445 -3.23628,3.091349 h 48.54181 v 9.274802 H 119.00819 V 52.085998 Z m 82.38306,-15.458253 -14.42437,-9.274802 h 19.41689 l 14.37806,9.274802 z M 244.57174,64.452149 225.57076,52.217881 206.56979,64.451395 H 187.1529 l 28.70902,-18.505139 -9.66255,-6.227162 h 38.74117 l -9.66255,6.227162 28.70901,18.505139 h -19.41526 z m 0.1844,-37.098452 h 19.41688 l -14.42436,9.274801 h -19.37059 z" id="path4" transform="translate(-14.33729,0.25702907)"/>
        <path style="baseline-shift:baseline;display:inline;overflow:visible;vector-effect:none;fill:#ffffff;stroke-linejoin:round;paint-order:markers stroke fill;enable-background:accumulate;stop-color:#000000;stop-opacity:1" d="M 22.166016,0.21484375 4.8964844,6.25 C 3.5608322,6.6842087 2.1990233,7.5303297 1.2832031,8.8046875 0.36738297,10.079045 0.00195313,11.622509 0.00195313,13.021484 c 0,2.653868 1.92632877,5.233306 4.18554687,6.419922 H 3.8242188 A 3.8237673,3.8237673 0 0 0 0,23.263672 v 7.527344 c 0,1.522483 0.39950054,3.011775 1.0332031,4.402343 A 3.8237673,3.8237673 0 0 0 0,37.689453 v 7.525391 c 0,1.522278 0.3995387,3.011883 1.0332031,4.402343 A 3.8237673,3.8237673 0 0 0 0,52.113281 v 8.150391 c 0,2.556864 1.2871436,5.01629 3.125,6.710937 a 3.8237673,3.8237673 0 0 0 0,0.002 c 1.9104756,1.760083 4.5185005,2.75586 7.121094,2.75586 1.548567,0 3.044069,-0.445014 4.449219,-1.09961 a 3.8237673,3.8237673 0 0 0 2.648437,1.09961 h 2.703125 a 3.8237673,3.8237673 0 0 0 0.337891,-0.140625 3.8237673,3.8237673 0 0 0 0.339843,0.140625 h 2.703125 A 3.8237673,3.8237673 0 0 0 27.25,65.910156 v -8.152344 c 0,-2.203691 -1.061242,-4.244145 -2.503906,-5.876953 C 26.458091,50.089318 27.25,47.636424 27.25,45.214844 V 37.689453 A 3.8237673,3.8237673 0 0 0 26.216797,35.197266 C 26.851846,33.805641 27.25,32.314944 27.25,30.791016 V 23.263672 A 3.8237673,3.8237673 0 0 0 26.962891,22.570312 3.8237673,3.8237673 0 0 0 27.25,22.009766 V 19.501953 A 3.8237673,3.8237673 0 0 0 27.0625,19.238281 3.8237673,3.8237673 0 0 0 27.25,18.875 V 16.365234 A 3.8237673,3.8237673 0 0 0 26.789062,15.703125 3.8237673,3.8237673 0 0 0 27.25,14.587891 V 3.8222656 A 3.8237673,3.8237673 0 0 0 22.166016,0.21484375 Z M 5.0117187,65.171875 c 0.0063,0.0059 0.015171,0.0078 0.021484,0.01367 0.0052,0.0048 0.00651,0.01279 0.011719,0.01758 z m 5.2675783,2.046875 c 0.0081,-9.3e-5 0.01538,0.004 0.02344,0.0039 l -0.05664,0.002 c 0.01105,0 0.02214,-0.0058 0.0332,-0.0059 z" id="path5"/>
        <path style="baseline-shift:baseline;display:inline;overflow:visible;vector-effect:none;fill:#002e82;stroke-linejoin:round;paint-order:markers stroke fill;enable-background:accumulate;stop-color:#000000;stop-opacity:1" d="m 10.24558,65.909548 c -1.758757,0 -3.266263,-0.582247 -4.529073,-1.745648 C 4.45479,63.000498 3.823385,61.700547 3.823385,60.264047 v -8.151459 h 2.70368 v 7.524423 c 0,1.15794 0.368137,2.073368 1.104412,2.749561 a 3.7359939,3.7359939 0 0 0 2.614103,1.013743 c 1.020298,0 1.8964,-0.33755 2.62612,-1.013743 0.727536,-0.676193 1.092396,-1.592713 1.092396,-2.749561 v -1.25407 c 0,-0.989711 0.296039,-1.758758 0.890303,-2.310417 0.593171,-0.550568 1.310875,-0.825852 2.152019,-0.825852 0.826944,0 1.538094,0.275284 2.140004,0.825852 0.600818,0.550567 0.901227,1.321799 0.901227,2.310417 v 7.525515 h -2.70368 v -7.526608 c 0,-0.417295 -0.112517,-0.625942 -0.338643,-0.625942 -0.225034,0 -0.338643,0.208647 -0.338643,0.627035 v 1.881106 c 0,1.435408 -0.625943,2.734266 -1.881105,3.899853 -1.254071,1.163401 -2.767039,1.745648 -4.539998,1.745648 z m 0,-3.136268 A 3.0598009,3.0598009 0 0 1 8.104484,61.947429 C 7.503667,61.396861 7.203258,60.627814 7.203258,59.638104 V 52.112588 H 9.90803 v 7.526608 c 0,0.417295 0.112517,0.625943 0.338643,0.625943 0.223941,0 0.33755,-0.208648 0.33755,-0.627035 v -1.881106 c 0,-1.434316 0.627035,-2.734267 1.882198,-3.898761 1.252978,-1.163402 2.765947,-1.745649 4.538905,-1.745649 1.758757,0 3.267356,0.582247 4.530166,1.745649 1.261717,1.163402 1.892029,2.463353 1.892029,3.899853 v 8.151458 h -2.703679 v -7.525515 c 0,-1.155755 -0.367045,-2.072275 -1.10332,-2.748468 a 3.7359939,3.7359939 0 0 0 -2.615196,-1.013743 c -1.020298,0 -1.896399,0.33755 -2.625027,1.013743 -0.727536,0.676193 -1.092396,1.592713 -1.092396,2.748468 v 1.255163 c 0,0.989711 -0.297132,1.758757 -0.891395,2.310417 -0.592079,0.548383 -1.310875,0.823667 -2.150928,0.823667 z M 9.906938,50.858518 c -4.056066,0 -6.083553,-1.882198 -6.083553,-5.64441 v -7.525515 h 2.70368 v 7.525515 c 0,2.089754 1.127352,3.135177 3.380965,3.135177 h 7.434846 c 2.253613,0 3.379873,-1.045423 3.379873,-3.135177 v -7.525515 h 2.70368 v 7.525515 c 0,3.763304 -2.027487,5.64441 -6.083553,5.64441 z m 3.380965,-3.135176 H 9.906938 c -1.802454,0 -2.704773,-0.836775 -2.704773,-2.509234 v -7.525515 h 2.704773 v 6.89848 c 0,0.418388 0.225033,0.627035 0.676193,0.627035 v -5.644409 h 2.703679 z m 0.676193,0 v -8.153643 h 2.70368 v 5.644409 c 0.451159,0 0.676193,-0.208647 0.676193,-0.627035 v -6.89848 h 2.70368 v 7.525515 c 0,1.671366 -0.901227,2.508141 -2.70368,2.508141 z M 9.906938,36.434523 c -4.056066,0 -6.083553,-1.881106 -6.083553,-5.64441 v -7.525515 h 2.70368 v 7.525515 c 0,2.089754 1.127352,3.135176 3.380965,3.135176 h 7.434846 c 2.253613,0 3.379873,-1.045422 3.379873,-3.135176 v -5.017374 h -7.434846 v 4.390339 h -2.70368 v -6.89848 h 12.843298 v 7.525515 c 0,3.763304 -2.027486,5.64441 -6.084645,5.64441 z m 0,-3.135176 c -1.802454,0 -2.70368,-0.837868 -2.70368,-2.509234 V 23.264598 H 9.90803 v 6.89848 c 0,0.417295 0.225034,0.627035 0.676193,0.627035 h 6.083553 c 0.451159,0 0.676193,-0.20974 0.676193,-0.627035 v -1.255163 h -0.677286 v 1.255163 h -2.702587 v -3.763304 h 6.084645 v 4.389247 c 0,1.671366 -0.902319,2.508141 -2.704772,2.508141 H 9.906938 Z M 20.722749,14.58879 V 7.1681449 L 6.979317,12.185519 c -0.299317,0.138734 -0.45116,0.418388 -0.45116,0.836775 0,0.347382 0.151843,0.627036 0.45116,0.835683 l 16.448204,5.64441 v 2.508141 L 6.07809,16.15747 C 4.576046,15.460522 3.824477,14.415099 3.824477,13.022294 c 0,-1.602544 0.751569,-2.647967 2.253613,-3.1362682 L 23.427521,3.8232288 V 14.58879 Z m -0.676193,0 h -1.46381 l 4.843683,1.777328 v 2.508141 L 7.654417,13.43959 C 7.355101,13.36968 7.203258,13.22985 7.203258,13.021202 c 0,-0.20974 0.151843,-0.348474 0.451159,-0.418388 L 20.047649,8.2135677 V 14.58879 Z m -5.858519,-1.566496 3.154839,1.149201 v -2.299494 z" id="path6"/>
    </g>
    <g id="path1-3" style="opacity:1" transform="matrix(1.0144278,0,0,1.0144278,-3.6766901,-0.27792817)">
        <path style="baseline-shift:baseline;display:inline;overflow:visible;vector-effect:none;fill:#ffffff;stroke-linecap:round;stroke-linejoin:round;paint-order:markers stroke fill;enable-background:accumulate;stop-color:#000000;stop-opacity:1" d="m 38.210937,0.765625 a 3.50035,3.50035 0 0 0 -3.5,3.5 V 7.1191406 A 3.50035,3.50035 0 0 0 34.908203,7.59375 3.50035,3.50035 0 0 0 34.710937,8.0703125 v 7.6093755 a 3.50035,3.50035 0 0 0 3.5,3.499999 h 5.126954 a 3.50035,3.50035 0 0 0 3.5,-3.499999 v -5.060547 h 0.177734 v 5.060547 a 3.50035,3.50035 0 0 0 3.5,3.499999 h 5.126953 a 3.50035,3.50035 0 0 0 3.5,-3.499999 v -5.060547 h 1.201172 v 5.060547 a 3.50035,3.50035 0 0 0 3.5,3.499999 h 5.126953 A 3.50035,3.50035 0 0 0 71.25,18.236328 c 0.920474,0.554558 1.925683,0.943359 2.847656,0.943359 h 17.431641 a 3.50035,3.50035 0 0 0 2.279297,-0.943359 c 0.920473,0.554558 1.925683,0.943359 2.847656,0.943359 h 18.45508 c 0.92269,0 1.92717,-0.390146 2.84765,-0.945312 a 3.50035,3.50035 0 0 0 2.2793,0.945312 h 5.12695 a 3.50035,3.50035 0 0 0 2.83789,-1.902343 h 5.60352 a 3.50035,3.50035 0 0 0 2.83789,1.902343 h 5.125 a 3.50035,3.50035 0 0 0 1.53906,-0.636718 3.50035,3.50035 0 0 0 1.53907,0.636718 h 5.125 a 3.50035,3.50035 0 0 0 0.51171,-0.21289 3.50035,3.50035 0 0 0 0.51368,0.21289 h 13.33007 c 0.92225,0 1.92694,-0.390224 2.84766,-0.945312 a 3.50035,3.50035 0 0 0 2.2793,0.945312 h 5.125 a 3.50035,3.50035 0 0 0 2.83789,-1.902343 h 5.39648 l 2.23047,1.378906 a 3.50035,3.50035 0 0 0 1.8418,0.523437 h 5.125 a 3.50035,3.50035 0 0 0 1.08984,-0.822265 3.50035,3.50035 0 0 0 1.98633,0.822265 h 5.12695 a 3.50035,3.50035 0 0 0 3.5,-3.499999 V 9.2597656 a 3.50035,3.50035 0 0 0 0.75586,0.3886719 3.50035,3.50035 0 0 0 0.0195,0.3769535 l 5.125,7.609375 a 3.50035,3.50035 0 0 0 2.9043,1.544921 h 8.20117 a 3.50035,3.50035 0 0 0 2.9043,-1.544921 l 4.72852,-7.021485 v 2.212891 c 0,1.370292 0.18301,2.809793 1.16992,4.183594 0.98691,1.3738 2.88568,2.169921 4.38086,2.169921 h 17.42968 a 3.50035,3.50035 0 0 0 3.5,-3.499999 v -2.853516 a 3.50035,3.50035 0 0 0 -1.02539,-2.474609 V 9.59375 a 3.50035,3.50035 0 0 0 1.02539,-2.4746094 V 4.265625 a 3.50035,3.50035 0 0 0 -3.5,-3.5 H 231.85352 A 3.50035,3.50035 0 0 0 230.01953,1.5253906 3.50035,3.50035 0 0 0 228.77734,0.765625 H 222.625 a 3.50035,3.50035 0 0 0 -2.84375,1.4570313 l -2.04883,2.8535156 a 3.50035,3.50035 0 0 0 -0.041,0.5625 3.50035,3.50035 0 0 0 -0.89844,0.4765625 l -0.17188,0.2558593 -0.17382,-0.2558593 a 3.50035,3.50035 0 0 0 -1.05274,-0.5605469 3.50035,3.50035 0 0 0 -0.0352,-0.4785156 L 213.31055,2.2226563 A 3.50035,3.50035 0 0 0 210.4668,0.765625 h -6.15039 A 3.50035,3.50035 0 0 0 202.6582,1.7773437 3.50035,3.50035 0 0 0 200.21484,0.765625 h -5.12695 a 3.50035,3.50035 0 0 0 -2.65625,1.4628906 C 191.39896,1.3654861 190.09986,0.765625 188.93555,0.765625 h -17.43164 c -1.1996,0 -2.54846,0.6252669 -3.58789,1.5371094 -1.03974,-0.911571 -2.38914,-1.5371094 -3.5879,-1.5371094 h -19.48046 a 3.50035,3.50035 0 0 0 -2.28125,0.9453125 C 141.64568,1.1558469 140.641,0.765625 139.71875,0.765625 h -17.42969 c -1.16487,0 -2.46375,0.5999378 -3.49609,1.4628906 A 3.50035,3.50035 0 0 0 116.13672,0.765625 H 96.654297 c -0.922437,0 -1.927341,0.3884846 -2.847656,0.9433594 A 3.50035,3.50035 0 0 0 91.529297,0.765625 H 72.046875 A 3.50035,3.50035 0 0 0 69.769531,1.7089844 C 68.849043,1.1543036 67.841812,0.765625 66.919922,0.765625 Z" id="path7"/>
        <path style="baseline-shift:baseline;display:inline;overflow:visible;vector-effect:none;fill:#666666;stroke-linecap:round;stroke-linejoin:round;paint-order:markers stroke fill;enable-background:accumulate;stop-color:#000000;stop-opacity:1" d="m 38.211822,7.1191229 v -2.853959 h 28.709016 c 1.36794,0 2.05029,0.951068 2.05029,2.853959 z m 0,8.5611231 V 8.0701909 h 5.126552 v 7.6100551 z m 12.303399,0 V 8.0701909 h 5.126552 v 7.6100551 z m 13.329359,0 V 8.0701909 h 5.126548 v 7.6100551 z m 8.202808,-8.5611231 v -2.853959 h 19.48105 v 2.853959 z m 0,5.7071641 V 8.0701909 h 5.12655 c 0,0.635302 0.34199,0.951069 1.02515,0.951069 h 12.30421 v 2.8539591 h -13.32936 c 0,0.635301 0.34199,0.951068 1.02515,0.951068 h 13.32935 v 2.853959 h -17.42994 c -1.36795,0 -2.05111,-0.951068 -2.05111,-2.853959 z m 22.55731,-5.7071641 c 0,-1.902137 0.68316,-2.853959 2.0503,-2.853959 h 19.481052 v 2.853959 z m 0,5.7071641 V 8.0701909 h 5.12655 v 4.7560961 h 10.253102 c 0.68317,0 1.02515,-0.159767 1.02515,-0.475534 0,-0.315767 -0.3428,-0.475534 -1.02515,-0.475534 H 104.8578 V 9.0212599 h 9.22796 c 2.05029,0 3.07625,0.951068 3.07625,2.8539591 v 0.951068 c 0,1.902137 -0.68316,2.853959 -2.05029,2.853959 H 96.655808 c -1.36795,0 -2.05111,-0.951068 -2.05111,-2.853959 z M 120.23827,7.1191229 c 0,-1.902137 0.68316,-2.853959 2.0503,-2.853959 h 17.43076 c 1.36795,0 2.05029,0.951068 2.05029,2.853959 z m 0,8.5611231 V 8.0701909 h 5.12655 v 7.6100551 z m 16.40562,0 V 13.778109 H 126.39078 V 10.92415 h 10.25311 V 8.0701909 h 5.12655 v 7.6100551 z m 8.2028,-8.5611231 v -2.853959 h 19.48106 c 1.36795,0 2.0503,0.951068 2.0503,2.853959 z m 0,8.5611231 V 8.0701909 h 5.12655 v 7.6100551 z m 19.48106,0 h -13.32936 v -2.853959 h 10.2531 V 8.0701909 h 5.12656 v 4.7560961 c 0,1.902891 -0.68235,2.853959 -2.0503,2.853959 z m 5.12655,-8.5611231 c 0,-1.902137 0.68316,-2.853959 2.0503,-2.853959 h 17.43076 c 1.36795,0 2.0503,0.951068 2.0503,2.853959 z m 0,8.5611231 V 8.0701909 h 5.12655 v 7.6100551 z m 6.15251,-1.90289 v -2.853959 h 9.22796 c 0.68316,0 1.02515,-0.315767 1.02515,-0.9510691 v -1.902137 h 5.12655 V 10.92415 c 0,1.902137 -0.68316,2.853959 -2.0503,2.853959 l 3.07626,1.902137 h -5.12655 l -3.07626,-1.902137 h -8.20281 z m 19.48106,1.90289 V 4.2651639 h 5.12655 V 15.680246 Z m 11.27825,-8.5611231 -2.05029,-2.853959 h 6.1517 l 2.05029,2.853959 z m 6.15251,8.5611231 -5.12655,-7.6100551 h 6.1517 l 3.07626,4.5661841 3.07625,-4.5661841 h 6.1517 l -5.12655,7.6100551 z m 8.05578,-8.5611231 2.0503,-2.853959 h 6.1517 l -2.0503,2.853959 z m 11.27907,0 v -2.853959 h 19.48105 v 2.853959 z m 0,5.7071641 V 8.0701909 h 5.12655 c 0,0.635302 0.34198,0.951069 1.02514,0.951069 h 12.30422 v 2.8539591 h -13.32936 c 0,0.635301 0.34198,0.951068 1.02514,0.951068 h 13.32936 v 2.853959 h -17.43076 c -1.36713,0 -2.05029,-0.951068 -2.05029,-2.853959 z" id="path8"/>
    </g>
</svg>
