<?xml version='1.0' encoding='utf-8'?>
<svg xmlns="http://www.w3.org/2000/svg" viewBox="-236.252 381.062 545.29455 113.42399" version="1.1" id="svg4" width="600" height="124.80299455032156">
    <defs id="defs4"/>
    <g id="ellipse1" style="opacity:1" transform="translate(7.49995,-5e-4)">
        <path style="baseline-shift:baseline;display:inline;overflow:visible;vector-effect:none;fill:#ffffff;stroke-linecap:round;stroke-linejoin:round;paint-order:markers stroke fill;enable-background:accumulate;stop-color:#000000;stop-opacity:1" d="m -211.17578,429.01953 c -7.8307,0 -14.9574,1.32829 -20.79297,3.9375 -2.91779,1.3046 -5.55541,2.92354 -7.76172,5.25586 -2.20631,2.33232 -4.02148,5.70319 -4.02148,9.51758 0,3.81439 1.81517,7.18721 4.02148,9.51953 2.20631,2.33232 4.84393,3.95126 7.76172,5.25586 5.83557,2.60921 12.96227,3.9375 20.79297,3.9375 7.8307,0 14.95739,-1.32829 20.79297,-3.9375 2.91778,-1.3046 5.55345,-2.92354 7.75976,-5.25586 2.20631,-2.33232 4.02344,-5.70514 4.02344,-9.51953 0,-3.81439 -1.81713,-7.18526 -4.02344,-9.51758 -2.20631,-2.33232 -4.84198,-3.95126 -7.75976,-5.25586 -5.83558,-2.60921 -12.96227,-3.9375 -20.79297,-3.9375 z m 0,15 c 6.01839,0 11.42977,1.18212 14.66992,2.63086 0.93548,0.41827 1.202,0.71351 1.72461,1.08008 -0.52265,0.36667 -0.78865,0.66354 -1.72461,1.08203 -3.24015,1.44874 -8.65153,2.63086 -14.66992,2.63086 -6.01839,0 -11.42977,-1.18212 -14.66992,-2.63086 -0.93596,-0.41849 -1.20196,-0.71536 -1.72461,-1.08203 0.52261,-0.36657 0.78913,-0.66181 1.72461,-1.08008 3.24015,-1.44874 8.65153,-2.63086 14.66992,-2.63086 z" id="path5"/>
        <path style="baseline-shift:baseline;display:inline;overflow:visible;vector-effect:none;fill:#007544;stroke-linecap:round;stroke-linejoin:round;paint-order:markers stroke fill;enable-background:accumulate;stop-color:#000000;stop-opacity:1" d="m -186.09999,447.73102 a 25.076,11.212 0 0 1 -25.076,11.212 25.076,11.212 0 0 1 -25.07601,-11.212 25.076,11.212 0 0 1 25.07601,-11.212 25.076,11.212 0 0 1 25.076,11.212 z" id="path6"/>
    </g>
    <path style="baseline-shift:baseline;display:inline;overflow:visible;vector-effect:none;fill:#ffffff;stroke-linecap:round;stroke-linejoin:round;paint-order:markers stroke fill;enable-background:accumulate;stop-color:#000000" d="m -130.33013,410.99755 c -2.46267,-0.27192 -5.03258,-0.24048 -7.66406,0.14062 -10.52592,1.5244 -21.17825,9.43846 -27.67383,24.42188 -2.69348,6.21952 -13.51186,18.79506 -7.27695,16.13739 4.51286,-1.92606 21.99866,-3.88461 25.33793,-0.95293 3.33926,2.93168 8.44836,5.06458 9.62262,9.9503 0.9008,3.74612 4.49327,6.20048 8.31054,5.67774 12.38127,-1.69848 19.68598,-11.68847 21.73828,-20.94532 2.05209,-9.25587 1.31835,-18.17916 -4.32812,-24.95507 l -0.002,-0.002 c -4.2521,-5.10195 -10.67743,-8.65701 -18.06445,-9.47265 z m -5.51367,14.98632 c 5.09308,-0.73759 10.1861,1.84495 12.05664,4.08985 0.22491,0.26983 2.35673,6.91982 1.20703,12.10547 -0.67832,3.05953 -1.76098,5.37404 -3.67187,7.00586 -2.18759,-4.8282 -5.21372,-9.39718 -9.37305,-13.04883 -2.61866,-2.29903 -5.93411,-3.96162 -9.48828,-5.07227 3.14953,-3.17151 6.34713,-4.65684 9.26953,-5.08008 z" id="path9"/>
    <path style="baseline-shift:baseline;display:inline;overflow:visible;vector-effect:none;fill:#ffffff;stroke-linecap:round;stroke-linejoin:round;paint-order:markers stroke fill;enable-background:accumulate;stop-color:#000000" d="m -158.78716,447.58934 c -7.83052,0 -14.95741,1.32665 -20.79297,3.93555 -2.91778,1.30445 -5.55337,2.92365 -7.75976,5.25586 -2.2064,2.33221 -4.02344,5.7051 -4.02344,9.51953 0,3.81443 1.81713,7.1853 4.02344,9.51758 2.2063,2.33228 4.84198,3.95125 7.75976,5.25586 5.83556,2.60922 12.96227,3.9375 20.79297,3.9375 7.8307,0 14.95741,-1.32828 20.79297,-3.9375 2.91778,-1.30461 5.55542,-2.92358 7.76172,-5.25586 2.2063,-2.33228 4.02148,-5.70315 4.02148,-9.51758 0,-3.81423 -1.81518,-7.18727 -4.02148,-9.51953 -2.20631,-2.33226 -4.84396,-3.95138 -7.76172,-5.25586 -5.83551,-2.60896 -12.96201,-3.93555 -20.79297,-3.93555 z m 0,15 c 6.01904,0 11.42994,1.18037 14.66992,2.62891 0.93576,0.41836 1.20401,0.71351 1.72657,1.08008 -0.52274,0.36686 -0.78984,0.66319 -1.72657,1.08203 -3.24019,1.44877 -8.65162,2.63086 -14.66992,2.63086 -6.0183,0 -11.42973,-1.18209 -14.66992,-2.63086 -0.93549,-0.41828 -1.20198,-0.7135 -1.72461,-1.08008 0.52264,-0.36663 0.78864,-0.66359 1.72461,-1.08203 3.24019,-1.4486 8.65144,-2.62891 14.66992,-2.62891 z" id="path7"/>
    <path style="baseline-shift:baseline;display:inline;overflow:visible;vector-effect:none;fill:#fed01b;stroke-linecap:round;stroke-linejoin:round;paint-order:markers stroke fill;enable-background:accumulate;stop-color:#000000" d="m -133.71105,466.2995 c 0,6.192 -11.227,11.212 -25.076,11.212 -13.849,0 -25.076,-5.02 -25.076,-11.212 0,-6.192 11.227,-11.211 25.076,-11.211 13.85,0 25.076,5.019 25.076,11.211 z" id="path8"/>
    <g id="path3" style="opacity:1" transform="translate(7.49995,-5e-4)">
        <path style="baseline-shift:baseline;display:inline;overflow:visible;vector-effect:none;fill:#ffffff;stroke-linecap:round;stroke-linejoin:round;paint-order:markers stroke fill;enable-background:accumulate;stop-color:#000000;stop-opacity:1" d="m -182.02344,390.69531 c -2.46269,-0.27191 -5.03256,-0.23852 -7.66406,0.14258 -10.52599,1.52439 -21.17822,9.43643 -27.67383,24.41992 -2.69512,6.22078 -6.00281,19.63214 0.23283,16.97159 4.51292,-1.92608 13.43052,-1.8047 14.90844,2.38585 2.50498,7.10271 11.36757,0.8931 12.54233,5.77928 0.9008,3.74612 4.49327,6.20048 8.31054,5.67774 12.38045,-1.69856 19.68586,-11.69075 21.73828,-20.94727 2.05243,-9.25652 1.31846,-18.1786 -4.32812,-24.95508 -4.25188,-5.10349 -10.67832,-8.65887 -18.06641,-9.47461 z m -5.51367,14.98633 c 5.09326,-0.73761 10.18681,1.8455 12.05664,4.08984 0.22542,0.27053 2.35685,6.92169 1.20703,12.10743 -0.67839,3.05958 -1.76119,5.37215 -3.67187,7.0039 -2.18767,-4.82802 -5.21383,-9.39718 -9.37305,-13.04883 -2.6188,-2.29921 -5.9338,-3.96164 -9.48828,-5.07226 3.14938,-3.171 6.34724,-4.65687 9.26953,-5.08008 z" id="path11"/>
        <path style="baseline-shift:baseline;display:inline;overflow:visible;vector-effect:none;fill:#0a2a8d;stroke-linecap:round;stroke-linejoin:round;paint-order:markers stroke fill;enable-background:accumulate;stop-color:#000000;stop-opacity:1" d="m -182.386,438.641 c -3.019,-12.557 -13.963,-26.431 -28.094,-20.4 11.506,-26.541 33.222,-22.319 40.761,-13.27 5.872,7.047 5.73,31.146 -12.667,33.67 z" id="path12"/>
    </g>
    <path style="baseline-shift:baseline;display:inline;overflow:visible;vector-effect:none;fill:#ba2318;stroke-linecap:round;stroke-linejoin:round;paint-order:markers stroke fill;enable-background:accumulate;stop-color:#000000" d="m -130.69305,458.9425 c -3.018,-12.557 -13.963,-26.431 -28.094,-20.4 11.506,-26.541 33.221,-22.319 40.761,-13.27 5.873,7.046 5.732,31.146 -12.667,33.67 z" id="path10"/>
    <path style="baseline-shift:baseline;display:inline;overflow:visible;vector-effect:none;fill:#ffffff;stroke-linecap:round;stroke-linejoin:round;paint-order:markers stroke fill;enable-background:accumulate;stop-color:#000000" d="m -81.273487,381.062 c -6.879977,0 -12.275613,4.28651 -14.470703,10.4668 l 1.07812,-1.07813 c -1.359807,1.38484 -2.129892,3.24285 -2.14843,5.1836 -0.110431,0.35268 -0.194647,0.71303 -0.25196,1.07812 v -0.75195 c -0.0122,0.0474 -0.02393,0.0949 -0.0352,0.14258 l -0.0215,0.0723 c -0.08854,0.31489 -0.156396,0.63524 -0.20312,0.95899 -0.002,0.009 -0.004,0.0182 -0.006,0.0273 v 0.004 c -0.100336,0.35668 -0.174104,0.72031 -0.2207,1.08789 l -0.0137,0.10156 -0.0273,0.11133 c -0.01582,0.0643 -0.03079,0.12871 -0.0449,0.19336 l -0.11524,0.51953 -0.11132,0.45312 c -0.0424,0.16925 -0.07888,0.33993 -0.10938,0.51172 l -0.17578,1.00195 -0.0801,0.36133 -0.11133,0.45313 c -0.07227,0.29073 -0.127052,0.58553 -0.16406,0.88281 l -0.0117,0.10156 -0.0293,0.11133 -0.002,0.0117 -0.13476,0.54883 c -0.07115,0.28692 -0.125285,0.57779 -0.16211,0.87109 l -0.0547,0.45508 0.0312,-0.22461 0.0742,-0.22656 c -0.03979,0.14927 -0.07497,0.29973 -0.10547,0.45117 l -0.002,0.004 c -0.02246,0.0888 -0.0433,0.17801 -0.0625,0.26757 l 0.4375,-0.8789 c -0.139715,0.42176 -0.241679,0.85511 -0.30469,1.29492 l 0.16797,-0.33594 c -0.502383,1.02181 -0.765543,2.14458 -0.76953,3.2832 -0.0478,1.2806 -0.008,2.52106 0.17578,3.86329 0.0948,0.69384 0.2113,1.39634 0.49609,2.31054 0.16153,0.51853 0.36788,1.20524 0.8457,2.02344 0.66225,1.90222 1.44851,3.23372 2.41407,4.92773 0.86471,1.5171 1.9003,3.19374 2.90039,4.83594 h -3.35547 c -3.648638,4e-5 -6.76797,2.62559 -7.39063,6.22071 l -3.05859,17.67187 c -0.47819,2.7576 -0.0677,5.67048 1.1582,8.17969 -1.70759,1.35592 -2.74063,3.38778 -2.83008,5.5664 v 22.8086 c 4.1e-4,4.14196 3.35804,7.49959 7.5,7.5 h 397.99805 c 4.14196,-4.1e-4 7.49959,-3.35804 7.5,-7.5 v -22.73047 c 2.34686,-1.17281 3.91038,-3.4866 4.12305,-6.10156 v -4.94922 c -4.1e-4,-4.14196 -3.35804,-7.49959 -7.5,-7.5 h -1.87891 c -0.40119,0.0958 -0.7938,0.22445 -1.17383,0.38476 -0.37877,-0.16011 -0.77006,-0.28879 -1.16992,-0.38476 h -1.88672 c -0.11441,0.0441 -0.22773,0.091 -0.33984,0.14062 -0.11276,-0.0497 -0.22673,-0.0966 -0.3418,-0.14062 h -0.83008 l 9.14844,-48.83594 c 0.71374,-3.78517 -0.11942,-7.86267 -2.52734,-10.92187 -2.40792,-3.05921 -6.3442,-4.88477 -10.2793,-4.88477 h -14.81836 c -3.53634,0 -6.63573,1.24285 -9.19531,3.16211 -2.35823,-1.98916 -5.44073,-3.16211 -8.54688,-3.16211 h -19.57421 c -0.90918,0.14893 -1.78314,0.46409 -2.57813,0.92969 -0.61056,-0.40485 -1.27714,-0.71808 -1.97851,-0.92969 h -10.0586 c -2.23817,0.14679 -4.2932,1.28752 -5.60156,3.10937 -1.31092,-1.82491 -3.37091,-2.966 -5.61328,-3.10937 h -8.76953 c -0.7465,0.14676 -1.46632,0.40624 -2.13477,0.76953 -0.52359,-0.32417 -1.0851,-0.58262 -1.67187,-0.76953 h -18.28321 c -0.66483,0.14093 -1.30743,0.37155 -1.91015,0.68555 -0.46957,-0.28218 -0.96864,-0.51207 -1.48828,-0.68555 h -20.52735 c -0.72526,0.14624 -1.42489,0.39897 -2.07617,0.75 -0.50056,-0.31186 -1.03616,-0.5636 -1.5957,-0.75 h -10.06055 c -2.23817,0.14679 -4.2932,1.28752 -5.60156,3.10937 -1.31092,-1.82491 -3.37091,-2.966 -5.61328,-3.10937 h -8.76758 c -0.90918,0.14893 -1.78314,0.46409 -2.57813,0.92969 -0.61056,-0.40485 -1.27714,-0.71808 -1.97851,-0.92969 h -8.69727 c -0.9085,0.14917 -1.78178,0.46432 -2.57617,0.92969 -0.61057,-0.40485 -1.27715,-0.71808 -1.97852,-0.92969 h -9.992183 c -2.261312,0.15082 -4.333192,1.31598 -5.636719,3.16992 -1.305634,-1.8565 -3.381667,-3.02198 -5.646484,-3.16992 h -8.701172 c -3.606068,8.7e-4 -6.701162,2.56767 -7.369141,6.11133 l -13.103515,69.5039 h -5.277344 c 0.367534,-1.98639 0.962823,-5.19632 1.925781,-10.4375 0.612389,-3.3331 1.224293,-6.68 1.685547,-9.23046 0.230627,-1.27524 0.424216,-2.35008 0.5625,-3.13868 0.06914,-0.39429 0.124607,-0.7123 0.167969,-0.97461 0.02168,-0.13115 0.03839,-0.24464 0.05859,-0.38086 0.0202,-0.13621 0.0957,0.60192 0.0957,-1.21484 l -0.0039,0.24414 c 0.02747,-0.84569 0.566444,-2.01268 -0.404297,-4.41211 1.237737,-1.27999 2.317668,-3.00793 2.792969,-5.54297 l 4.751953,-24.69336 c 0.002,-0.01 0.004,-0.0195 0.0059,-0.0293 0.711423,-3.77981 -0.11503,-7.85899 -2.525391,-10.92188 -2.410361,-3.06288 -6.35319,-4.88281 -10.283203,-4.88281 H 29.451122 c -1.012842,0.14526 -1.985256,0.4962 -2.857422,1.03125 -0.684134,-0.4648 -1.440433,-0.81326 -2.238281,-1.03125 H 6.0702625 c -1.7783603,0.0166 -3.4929799,0.66448 -4.8378906,1.82812 -2.0025773,-1.13767 -4.2755079,-1.82812 -6.5820309,-1.82812 h -19.642578 c -0.879604,0.14918 -1.725539,0.45409 -2.498047,0.90039 -0.594711,-0.3897 -1.241813,-0.69287 -1.921875,-0.90039 h -8.158203 c -1.934839,0.0699 -3.767721,0.88518 -5.115235,2.27539 -1.288226,-1.33562 -3.02581,-2.1463 -4.876953,-2.27539 h -8.699219 c -1.804152,0.0166 -3.54186,0.683 -4.894531,1.87695 -2.020666,-1.16731 -4.321941,-1.87695 -6.662109,-1.87695 z m -18.169883,27.55465 -0.002,0.0117 v 0.13671 z m 89.031251,25.19341 -4.466797,22.86718 h -6.619141 l 4.277344,-22.5332 h 4.871094 c 0.685521,0 1.27865,-0.25188 1.9375,-0.33398 z M 181.7949,466.39799 v -0.0371 c -0.10397,0.21995 -0.19718,0.44482 -0.2793,0.67383 v -0.0332 c -0.0489,0.11084 -0.0952,0.22286 -0.13867,0.33594 v -0.32227 c -0.0247,0.0946 -0.0475,0.18967 -0.0684,0.28516 v -0.83984 c -0.0164,0.0266 -0.0327,0.0533 -0.0488,0.0801 0,0 -0.02,0.0982 -0.0215,0.10546 0,0 0.64728,-0.50288 0.55667,-0.24808 z m 38.92386,-0.84398 0.008,-0.002 c -0.25751,0.47072 -0.46376,0.9677 -0.61523,1.48243 v -0.0254 c -0.0488,0.1089 -0.0951,0.21896 -0.13867,0.33007 v -0.33398 c -0.0247,0.0953 -0.0475,0.19097 -0.0684,0.28711 v -0.83985 c -0.0165,0.0299 -0.0327,0.0598 -0.0488,0.0899 0,0 -0.02,0.0982 -0.0215,0.10547 v -0.69141 l 0.0703,-0.13867 v -0.16797 h 0.0684 c 0,0 0.89013,-0.56363 0.7459,-0.0957 z m 14.11521,2.36937 v 1.41015 l 0.0703,0.082 v 1.1875 l -0.0703,0.0703 v 0.0391 l -0.10546,0.10547 c -0.006,-0.008 -0.0119,-0.0152 -0.0176,-0.0234 l -0.51172,0.50391 c 0.0288,-0.15071 0.0519,-0.27755 0.084,-0.43946 0.0415,-0.20961 0.0469,-0.22606 0.084,-0.4082 l -0.24805,0.49414 c 0.006,0.10307 0.0208,0.22455 0.0156,0.36328 l -0.002,0.0566 -0.31836,0.3125 h 0.0547 l -0.25781,0.25586 -0.082,0.0352 -0.002,-0.006 -0.0156,0.0137 -0.3418,0.14844 -0.0293,0.0527 c 0.10053,-0.0408 0.20016,-0.0838 0.29883,-0.1289 l -0.10547,0.10351 c 0.0333,-0.0134 0.0665,-0.0271 0.0996,-0.041 l -0.0176,0.0176 c 0.005,-0.002 0.0104,-0.004 0.0156,-0.006 l -0.56445,0.55664 -0.082,0.15039 -0.0605,0.0605 c 0.0166,-0.0396 0.0329,-0.0793 0.0488,-0.11914 l -0.0547,0.0547 c 0.0146,-0.0344 0.0289,-0.0689 0.043,-0.10351 l -1.23438,1.23632 c -0.11254,-0.0107 -0.22919,-0.0583 -0.34375,-0.0762 0.0924,0.0488 0.14047,0.13714 0.23047,0.18946 l -0.004,0.004 h 0.008 c 0.007,0.004 0.0109,0.01 0.0176,0.0137 l -0.0547,0.0547 h -0.0391 l -0.0684,0.0684 h -2.42383 c 0.0556,-0.0221 0.11095,-0.0449 0.16601,-0.0684 h -0.42968 c 0.053,-0.0222 0.10573,-0.045 0.1582,-0.0684 h 0.43945 c 0.34692,-0.11386 0.68505,-0.2529 1.01172,-0.41601 -0.10936,-0.0358 -0.21341,-0.0302 -0.32226,-0.0723 0.0385,-0.0159 0.077,-0.0322 0.11523,-0.0488 0.10306,0.0336 0.20682,0.0418 0.30859,0.0801 0.89721,-0.18733 1.75248,-0.53752 2.52344,-1.0332 0.0367,-0.0846 0.0719,-0.16993 0.10547,-0.25586 0.0124,-0.005 0.0248,-0.0104 0.0371,-0.0156 h 0.002 l 0.004,-0.0117 0.002,-0.002 c 0.009,-0.0201 0.017,-0.0403 0.0254,-0.0605 0.0137,-0.006 0.0273,-0.0117 0.041,-0.0176 0.007,-0.0162 0.0131,-0.0325 0.0195,-0.0488 l -0.0391,0.0176 c 0.075,-0.16348 0.14401,-0.32961 0.20703,-0.49805 l -0.002,-0.002 0.006,-0.0137 h 0.004 c 0.27451,-0.49215 0.49268,-1.01367 0.65039,-1.55468 l -0.006,-0.01 c 0.0249,-0.0589 0.049,-0.11818 0.0723,-0.17773 0.002,0.009 0.002,0.0111 0.004,0.0195 0.003,-0.007 0.005,-0.013 0.008,-0.0195 0.004,0.003 0.009,0.0383 0.0137,0.0449 0.0303,-0.0692 0.0597,-0.13889 0.0879,-0.20899 -0.006,-0.01 -0.0137,-0.0215 -0.0195,-0.0312 0.14425,-0.29041 0.26951,-0.58986 0.375,-0.89648 l 0.0215,0.0254 c 0.1095,-0.22926 0.20728,-0.46394 0.29297,-0.70312 0.0115,-0.0461 0.0226,-0.0924 0.0332,-0.13868 v 0.0606 c 0.0234,-0.0544 0.0462,-0.10911 0.0684,-0.16406 z m -38.66406,0.16406 v 0.39063 c 0.0234,-0.0538 0.0462,-0.10781 0.0684,-0.16211 v 1.01562 l 0.0703,0.084 v 1.1875 l -0.0703,0.0703 v 0.0391 l -0.11914,0.11914 c -0.005,-0.008 -0.0105,-0.0173 -0.0156,-0.0254 l -0.5,0.49219 c 0.0287,-0.15034 0.0519,-0.27581 0.084,-0.4375 0.0399,-0.20123 0.0441,-0.21593 0.0801,-0.39258 l -0.24414,0.47852 c 0.006,0.10314 0.0227,0.22585 0.0176,0.36132 l -0.004,0.0547 -0.31836,0.31445 h 0.0547 l -0.33008,0.33008 c -0.005,-0.0156 -0.009,-0.0313 -0.0137,-0.0469 l -0.0957,0.0937 -0.19531,0.084 c 0.0547,-0.12165 0.10616,-0.24474 0.1543,-0.36914 -0.0415,-0.0199 -0.0831,-0.0394 -0.125,-0.0586 0.004,-0.0111 0.008,-0.0221 0.0117,-0.0332 h 0.15039 c 0.23428,-0.4333 0.4253,-0.88862 0.57031,-1.35937 -0.03,-0.0525 -0.0606,-0.10454 -0.0918,-0.15625 0.005,-0.0124 0.0104,-0.0247 0.0156,-0.0371 l -0.01,0.006 c 0.0179,-0.0415 0.0355,-0.0832 0.0527,-0.125 7.4e-4,0.003 0.001,0.005 0.002,0.008 0.004,-0.008 0.008,-0.0169 0.0117,-0.0254 0.008,0.0123 0.0118,0.0512 0.0215,0.0742 l -0.0195,0.0137 c 0.0151,0.0686 0.0298,0.1339 0.0391,0.1875 0.008,-0.0175 0.0157,-0.0351 0.0234,-0.0527 0.0699,0.24141 -0.0254,-0.31821 0.10547,0.36523 -0.0312,-0.0551 -0.0631,-0.10978 -0.0957,-0.16406 0.009,0.0617 0.0486,0.21192 0.0547,0.25976 0.006,0.0448 -2.4e-4,0.046 0.004,0.082 0.0617,-0.21437 0.11386,-0.43138 0.15625,-0.65039 -0.0398,-0.0646 -0.0688,-0.11381 -0.10547,-0.17383 l -0.002,0.002 v -0.004 c -0.0325,-0.0532 -0.0642,-0.10538 -0.0937,-0.15429 0.14456,-0.29295 0.26983,-0.59502 0.375,-0.9043 l 0.0957,0.11133 c 0.0799,-0.26507 0.14515,-0.53436 0.19532,-0.80664 0.0119,-0.0286 0.0236,-0.0572 0.0351,-0.0859 z m 38.09961,2.02344 -0.16797,0.30664 c 0.0447,0.20302 -0.0117,-0.13758 0.0449,0.1582 -0.0224,-0.0393 -0.0452,-0.0783 -0.0684,-0.11719 l -0.0117,0.0234 c 0.005,0.0402 0.0347,0.14962 0.0391,0.1836 0.008,0.0639 7.5e-4,0.0722 0.006,0.11914 0.0637,-0.22138 0.11711,-0.44558 0.16015,-0.67188 -5.2e-4,-8.5e-4 -0.001,-0.001 -0.002,-0.002 z m -315.982421,1.5664 h 0.230469 l -0.539062,2.80079 c -0.0844,-0.50947 -0.221197,-1.00887 -0.408203,-1.49024 0.281944,-0.41191 0.522067,-0.85094 0.716796,-1.31055 z m 40.396485,0 h 0.759765 l -1.539062,7.8086 h -1.261719 l 0.541016,-2.94531 h -2.253906 l 0.199218,-1.12305 c 1.589939,-0.78713 2.849408,-2.11234 3.554688,-3.74024 z m 19.732422,0 h 0.595703 l -1.501953,7.8086 h -1.107422 c -0.0032,-0.013 -0.0065,-0.0261 -0.0098,-0.0391 0.702599,-0.78769 1.231042,-1.7148 1.550781,-2.72071 l 0.277344,-1.64453 c -0.08897,-0.71931 -0.28173,-1.42193 -0.572265,-2.08594 0.299999,-0.41222 0.557189,-0.85396 0.767578,-1.31836 z m 39.855468,0 h 2.449219 l -2.902344,7.8086 h -1.585977 l 0.541015,-2.94531 h -2.255859 l 0.201172,-1.12309 c 1.589206,-0.7875 2.847942,-2.11267 3.552734,-3.74024 z m 4.785157,0 h 0.08008 l -0.105469,0.28125 z m 17.255859,0 h 0.04297 l -0.06055,0.32618 z m 17.300781,0 h 0.59375 l -1.503906,7.8086 h -0.591797 z m 22.605469,0 h 0.949219 l -1.46875,7.8086 H 78.74995 Z m 25.70312,0 h 0.34571 l -1.53906,7.8086 h -0.14063 z m 19.26368,0 h 1.20117 l -1.50195,7.8086 h -1.68946 c 0.71509,-0.79714 1.25119,-1.73816 1.57227,-2.75977 l 0.27734,-1.64453 c -0.0887,-0.72274 -0.28211,-1.42871 -0.57422,-2.0957 0.28116,-0.41137 0.52062,-0.84974 0.71485,-1.3086 z m 41.21289,0 h 14.19336 c 0.0116,0.27876 -0.007,0.53211 0.0371,0.87696 0.03,0.23676 0.11864,0.60463 0.19531,0.94531 -0.43935,0.55856 -0.79709,1.17672 -1.0625,1.83594 l -0.67383,3.79883 c -0.0215,0.11194 0.0267,0.23788 0.01,0.35156 h -14.74805 l 0.52539,-2.94531 h -2.2168 l 0.19922,-1.11915 c 1.58549,-0.79068 2.83991,-2.11706 3.54102,-3.74414 z m 67.17187,0.37696 -0.0137,0.0156 h -0.002 l -0.002,-0.008 c 0.006,-0.003 0.0117,-0.005 0.0176,-0.008 z m -38.80664,0.0703 -0.0625,0.0625 c 0.034,-0.0134 0.0678,-0.0271 0.10156,-0.041 l -0.0195,0.0195 c 0.005,-0.002 0.0104,-0.004 0.0156,-0.006 l -0.33203,0.32226 -0.20508,0.20508 0.004,-0.01 -0.0801,0.0781 c 0.0139,-0.0337 0.0276,-0.0676 0.041,-0.10156 l -0.0156,0.0156 -0.004,0.004 c 0.0139,-0.0331 0.0276,-0.0663 0.041,-0.0996 0.005,-0.002 0.0104,-0.004 0.0156,-0.006 0.0269,-0.0634 0.053,-0.12725 0.0781,-0.19141 0.0137,-0.005 0.0273,-0.0104 0.041,-0.0156 0.005,-0.013 0.0104,-0.0261 0.0156,-0.0391 0.006,-0.003 0.0117,-0.005 0.0176,-0.008 l 0.006,-0.0137 c 0.0596,-0.0233 0.1188,-0.0474 0.17774,-0.0723 0.006,-0.0137 0.0118,-0.0273 0.0176,-0.041 0.049,-0.0203 0.0979,-0.0412 0.14648,-0.0625 z m 6.6211,0.79297 c 0.17149,0.40336 0.37801,0.79091 0.61718,1.1582 h -0.58203 l -0.0625,-1.02344 z m 17.9707,0.2793 c 0.0168,0.0931 0.0381,0.1923 0.0625,0.30078 -0.43935,0.55855 -0.79709,1.17671 -1.0625,1.83593 l -0.67383,3.8086 c -0.0209,0.10952 0.0262,0.23259 0.01,0.34375 h -1.43555 l 0.25976,-1.35547 z m -279.121095,0.30078 -1.070312,5.98828 h -0.08203 z M 191.6894,473.6245 c 0.29111,0.10985 0.57876,0.10662 0.85742,0.25195 -0.31996,-0.0513 -0.63304,-0.10667 -0.95703,-0.21289 0.0333,-0.0128 0.0665,-0.0258 0.0996,-0.0391 z m 1.44336,0.10937 -0.22461,0.22071 c -0.0667,-0.007 -0.13579,-0.034 -0.20312,-0.043 0.14437,-0.0548 0.28702,-0.1141 0.42773,-0.17774 z m -0.5039,0.20899 c 0.0628,0.0339 0.0964,0.0953 0.1582,0.13086 l -0.002,0.002 h 0.004 c 0.008,0.004 0.012,0.0113 0.0195,0.0156 l -0.0527,0.0527 h -0.0391 l -0.0703,0.0684 h -0.66992 c 0.0556,-0.0221 0.11095,-0.0449 0.16602,-0.0684 h -1.72266 c 0.0556,-0.0221 0.11095,-0.0449 0.16602,-0.0684 h 1.7207 c 0.10844,-0.0418 0.21589,-0.0861 0.32227,-0.13281 z m -2.43164,0.13281 h 0.25781 l -0.084,0.0684 h -0.33984 c 0.0556,-0.0221 0.11095,-0.0449 0.16602,-0.0684 z m 0.12304,0.10938 -0.0332,0.0273 h -0.0332 c 0.0222,-0.009 0.0443,-0.0181 0.0664,-0.0273 z m 63.4668,0.0449 -0.33399,1.69531 h -1.54882 l 0.19336,-1.08594 c 0.58552,-0.13473 1.15274,-0.33932 1.68945,-0.60937 z m 16.98047,0.24609 0.10351,0.12696 -0.25586,1.32226 h -0.10937 c -0.24925,-0.37419 -0.53163,-0.72521 -0.84375,-1.04883 0.3784,-0.10433 0.74802,-0.23821 1.10547,-0.40039 z m -354.962892,0.54102 0.167968,0.20312 -0.248047,1.32032 h -0.222656 c -0.294773,-0.37771 -0.625058,-0.72631 -0.986328,-1.04102 0.443565,-0.12096 0.875069,-0.28245 1.289063,-0.48242 z m 206.900392,0 0.16797,0.20117 -0.24805,1.32227 h -0.22266 c -0.29529,-0.37848 -0.62624,-0.72774 -0.98828,-1.04297 0.44417,-0.12022 0.87633,-0.28105 1.29102,-0.48047 z m -146.878908,0.0586 0.201172,0.2461 -0.246094,1.21875 h -0.240234 c -0.251631,-0.37519 -0.536644,-0.72689 -0.851563,-1.05079 0.389437,-0.10719 0.769579,-0.24566 1.136719,-0.41406 z m 45.96875,0.0274 h 0.158203 c 0.01359,0.14109 0.03117,0.28177 0.05273,0.42187 -0.258832,0.28605 -0.49521,0.59165 -0.707031,0.91406 z m -22.3613283,0.57812 -0.6796875,3.80469 h -0.1191406 c 0.038408,-0.21121 0.086113,-0.47335 0.1191406,-0.65625 0.053135,-0.29426 0.096306,-0.54321 0.1308594,-0.74024 0.017277,-0.0985 0.031567,-0.17917 0.046875,-0.27148 0.00765,-0.0462 0.016578,-0.0907 0.029297,-0.17578 0.00714,-0.0477 0.027291,-0.5275 0.048828,-0.63672 0.1471703,-0.42885 0.3171919,-0.79234 0.4238281,-1.32422 z m 186.1640663,1.40039 c 0.0323,0.23763 0.076,0.47358 0.13086,0.70703 0.28064,0.19523 0.23006,0.26884 0.60937,0.49805 -0.31287,-0.18621 -0.40045,-0.27545 -0.5918,-0.41016 0.0405,0.38241 0.11039,0.76113 0.20899,1.13282 -0.002,-0.006 -0.009,-0.0162 -0.0117,-0.0215 0.0315,0.0971 0.0535,0.20526 -0.0918,-0.27539 -0.0436,-0.14432 -0.0875,-0.57128 -0.14453,-0.86133 -0.0335,-0.0239 -0.0773,-0.0518 -0.10742,-0.0742 -0.004,-0.0262 -0.006,-0.0735 -0.01,-0.10156 0.0432,0.0312 0.0559,0.05 0.10157,0.082 -0.0417,-0.22825 -0.0871,-0.35324 -0.10938,-0.64648 0.005,-0.01 0.0105,-0.0195 0.0156,-0.0293 z m -268.214847,0.49609 -0.367188,1.90821 h -0.720703 c 0.454304,-0.57924 0.820864,-1.2222 1.087891,-1.90821 z m 307.421877,0.63086 c 0.28033,0.15818 0.44271,0.29398 0.79687,0.46485 L 224.998,478.3472 c -0.12148,-0.073 -0.0884,-0.0731 -0.19336,-0.13868 z" id="path13"/>
    <path style="baseline-shift:baseline;display:inline;overflow:visible;vector-effect:none;fill:#606060;fill-opacity:1;stroke-linecap:round;stroke-linejoin:round;paint-order:markers stroke fill;enable-background:accumulate;stop-color:#000000" d="m -81.274048,388.5625 c -3.73,0 -7.355,3.089 -8.021,6.917 v 0.206 l -0.068,0.068 v 0.206 l -0.068,0.137 v 0.137 l -0.068,0.137 v 0.205 l -0.068,0.137 v 0.206 l -0.068,0.205 -0.068,0.206 -0.068,0.41 -0.136,0.48 -0.068,0.479 -0.136,0.48 -0.068,0.547 -0.136,0.548 -0.136,0.617 -0.136,0.548 -0.204,1.164 -0.136,0.616 -0.136,0.548 -0.068,0.548 -0.136,0.548 -0.135,0.548 -0.068,0.548 -0.068,0.479 -0.136,0.411 -0.068,0.479 v 0.206 l -0.068,0.137 v 0.342 l -0.068,0.206 v 0.273 l -0.068,0.137 v 0.137 c -0.071,1.674 0.161,3.96 0.679,4.384 0.659,3.688 12.858,20.757 12.507,23.356 -0.33,2.607 -1.768,10.274 -1.768,10.274 -0.442,2.586 -2.192,4.658 -4.758,4.658 -2.566,0 -4.316,-2.065 -3.875,-4.658 l 2.311,-12.74 h -9.108002 l -3.059,17.671 c -0.624,3.589 1.788,6.438 5.37,6.438 h 12.982002 c 3.596,0 7.022,-2.849 7.681,-6.438 0,0 3.345,-16.506 3.33,-17.671 -0.014,-1.172 -0.34,-1.301 -0.34,-1.301 0,-1.342 -10.855,-19.397 -11.963,-20.068 -0.477,-0.283 -0.87,-2.07 -0.883,-3.15 -0.021,-1.074 1.427,-8.288 1.427,-8.288 0.442,-2.585 2.872,-4.658 5.437,-4.658 2.566,0 3.637,2.072 3.195,4.658 l -1.971,11.438 h 9.177 l 3.194,-17.192 c 0.722,-3.829 -1.708,-6.917 -5.437,-6.917 h -13.456 z m 25.013,0 -10.876,63.15 c -0.624,3.589 1.788,6.438 5.37,6.438 h 12.982 c 3.596,0 7.083,-2.849 7.749,-6.438 l 11.623,-63.15 h -8.157 l -11.08,61.369 c -0.161,0.89 -1.02,1.644 -1.903,1.644 h -6.457 c -0.905,0 -1.507,-0.747 -1.36,-1.644 l 10.808,-61.369 z m 31.268,0 -13.119,69.588 h 8.7 l 5.982,-31.506 h 11.08 c 3.603,0 7.022,-2.871 7.68,-6.439 l 4.7580002,-24.726 c 0.715,-3.836 -1.708,-6.917 -5.4370002,-6.917 z m 31.0630002,0 -13.5950002,69.588 h 19.576 l 1.36,-8.63 H 3.7589522 l 3.942,-23.493 h 9.6519998 l 1.36,-7.26 H 9.0609522 l 4.2829998,-21.575 h 9.652 l 1.36,-8.63 z m 23.3819998,0 -13.05,69.588 h 8.7 l 5.914,-31.506 h 6.185 c 0.813,0.762 0.907,2.17 1.019,2.876 0.161,1.024 0.33,2.332 0.204,3.356 -0.112,1.017 -4.758,25.273 -4.758,25.273 h 8.7 c 0,0 4.894,-26.425 4.894,-26.849 0.014,-0.431 0.001,-1.786 -0.476,-2.534 -0.316,-0.48 -0.865,-1.584 -1.496,-1.986 -1.213,-0.784 -2.583,-1.301 -2.583,-1.301 h -0.612 c 2.489,-0.989 7.184,-2.618 7.681,-5.274 l 4.758,-24.726 c 0.722,-3.836 -1.708,-6.917 -5.438,-6.917 z m 46.562,0 -13.119,69.588 h 9.992 l 8.088,-40.342 3.195,40.342 h 8.701 l 13.118998,-69.588 h -9.991998 l -6.797,36.369 -4.486,-36.369 z m 34.529998,0 -13.118998,69.588 h 8.699998 l 13.118,-69.588 z m 13.254,0 -13.118,69.588 h 10.06 l 8.088,-40.342 3.195,40.342 h 8.7 l 13.118,-69.588 h -10.06 l -6.729,36.369 -4.486,-36.369 z m 33.715,0 -1.632,8.63 h 5.438 l -10.74,60.958 h 9.924 l 10.944,-60.958 h 5.234 l 1.36,-8.63 z m 23.926,0 -13.595,69.588 h 19.576 l 1.359,-8.63 h -9.652 l 4.01,-23.493 h 9.652 l 1.36,-7.26 h -9.652 l 4.214,-21.575 h 9.652 l 1.359,-8.63 z m 22.091,0 -13.119,69.588 h 10.06 l 8.088,-40.342 3.195,40.342 h 8.701 l 13.118,-69.588 h -10.06 l -6.729,36.369 -4.486,-36.369 z m 34.598,0 -13.119,69.588 h 19.848 c 3.603,0 7.083,-2.849 7.749,-6.438 l 10.536,-56.233 c 0.715,-3.836 -1.708,-6.917 -5.438,-6.917 z m 37.317,0 c -3.73,0 -7.287,3.089 -7.953,6.917 l -9.72,56.233 c -0.631,3.589 1.726,6.438 5.301,6.438 h 14.343 c 3.596,0 7.083,-2.849 7.749,-6.438 l 10.536,-56.233 c 0.722,-3.829 -1.715,-6.917 -5.438,-6.917 z m -29.908,8.013 h 4.01 c 2.566,0 4.316,2.072 3.875,4.658 l -8.565,45.548 c -0.449,2.586 -2.94,4.726 -5.506,4.726 h -3.942 z m 35.006,0 h 0.272 c 2.566,0 4.248,2.072 3.806,4.658 l -8.157,45.548 c -0.442,2.578 -2.804,4.726 -5.37,4.726 -2.566,0 -3.637,-2.141 -3.195,-4.726 l 8.088,-45.548 0.068,-0.205 0.068,-0.206 0.068,-0.274 0.068,-0.205 0.068,-0.274 0.068,-0.206 0.068,-0.205 0.136,-0.205 0.068,-0.206 0.136,-0.205 0.068,-0.206 0.136,-0.205 0.136,-0.137 0.136,-0.206 0.136,-0.205 0.204,-0.137 0.136,-0.137 0.136,-0.137 0.204,-0.137 0.204,-0.137 0.136,-0.137 0.204,-0.137 0.204,-0.068 0.204,-0.137 0.136,-0.069 0.272,-0.068 0.204,-0.069 h 0.204 l 0.204,-0.068 h 0.272 z m -297.175998,0.274 h 4.214 c 0.925,0 2.887,2.135 2.719,3.082 l -3.603,17.191 c -0.168,0.89 -1.36,2.945 -2.243,2.945 h -5.234 l -0.068,-0.068 h -0.272 v -0.069 h -0.136 l -0.068,-0.068 h -0.068 l -0.068,-0.069 -0.068,-0.068 h -0.068 v -0.069 l -0.068,-0.068 -0.068,-0.069 v -0.068 l -0.068,-0.069 -0.068,-0.068 v -0.137 l -0.068,-0.068 v -0.137 l -0.068,-0.069 v -0.068 c 0,-0.113 -0.014,-0.284 0,-0.411 l 4.078,-21.027 c 0.374,-0.311 0.831,-0.548 1.293,-0.548 z m 54.174,0 h 4.214 c 0.925,0 2.901,2.135 2.719,3.082 l -3.602,17.123 c -0.161,0.897 -2.373,3.013 -3.263,3.013 h -3.738 c -0.771,0 -1.303,-0.512 -1.36,-1.232 0,-0.113 -0.014,-0.277 0,-0.411 l 4.011,-21.027 0.068,-0.068 0.068,-0.069 0.136,-0.068 h 0.068 l 0.068,-0.069 0.068,-0.068 h 0.068 l 0.068,-0.069 h 0.068 l 0.136,-0.068 h 0.204 v -0.069 z m -138.120002,67.328 v 22.808 h 397.999 v -22.808 z m 290.635,2.398 h 3.396 c 0.822,0 1.412,0.651 1.247,1.507 l -0.762,3.836 h -1.871 l 0.416,-2.534 c 0.093,-0.573 -0.246,-1.027 -0.832,-1.027 -0.579,0 -1.147,0.451 -1.247,1.027 l -0.346,1.849 c -0.057,0.11 0.115,0.63 0.208,0.685 0.257,0.146 2.702,4.154 2.702,4.452 0.057,0.149 0.091,0.219 0.07,0.274 -0.072,0.502 -0.763,3.904 -0.763,3.904 -0.15,0.781 -0.918,1.438 -1.732,1.438 h -2.91 c -0.808,0 -1.328,-0.657 -1.178,-1.438 l 0.692,-3.904 h 2.009 l -0.485,2.808 c -0.093,0.573 0.246,1.096 0.832,1.096 0.557,0 1.154,-0.52 1.247,-1.096 l 0.415,-2.26 c -0.371,-0.946 -2.822,-4.386 -2.979,-5.206 -0.108,-0.091 -0.153,-0.586 -0.139,-0.959 0.021,-0.408 0.554,-2.945 0.554,-2.945 h 0.069 v -0.206 l 0.07,-0.137 v -0.068 l 0.069,-0.069 v -0.068 l 0.069,-0.069 v -0.068 l 0.07,-0.069 0.069,-0.068 v -0.069 h 0.07 l 0.069,-0.068 0.07,-0.069 0.069,-0.068 v -0.069 h 0.07 l 0.069,-0.068 0.07,-0.069 h 0.069 l 0.07,-0.068 h 0.069 l 0.07,-0.068 h 0.208 z m 15.936,0 h 2.494 l 0.347,5.822 3.187,-5.822 h 2.495 l -5.128,8.904 -1.247,6.507 h -2.217 l 1.108,-6.986 z m 22.658,0 h 3.397 c 0.822,0 1.397,0.651 1.247,1.507 l -0.762,3.836 h -1.871 l 0.416,-2.534 c 0.093,-0.573 -0.245,-1.027 -0.831,-1.027 -0.579,0 -1.154,0.451 -1.247,1.027 l -0.347,1.849 c -0.071,0.11 0.094,0.63 0.208,0.685 0.243,0.146 2.702,4.154 2.702,4.452 0.071,0.149 0.069,0.219 0.069,0.274 -0.093,0.502 -0.693,3.904 -0.693,3.904 -0.15,0.781 -0.925,1.438 -1.732,1.438 h -2.98 c -0.807,0 -1.327,-0.657 -1.178,-1.438 l 0.693,-3.904 h 2.009 l -0.485,2.808 c -0.093,0.573 0.267,1.096 0.831,1.096 0.579,0 1.133,-0.52 1.247,-1.096 l 0.416,-2.26 c -0.378,-0.946 -2.822,-4.386 -2.979,-5.206 -0.107,-0.091 -0.153,-0.586 -0.139,-0.959 0.022,-0.408 0.554,-2.945 0.554,-2.945 l 0.07,-0.069 v -0.137 l 0.069,-0.137 v -0.068 l 0.07,-0.069 v -0.068 l 0.069,-0.069 v -0.068 l 0.07,-0.069 0.069,-0.068 v -0.069 h 0.07 l 0.069,-0.068 0.07,-0.069 0.069,-0.068 0.07,-0.069 0.069,-0.068 0.069,-0.069 h 0.07 l 0.069,-0.068 h 0.07 l 0.069,-0.068 h 0.209 z m 16.145,0 h 4.643 l -0.347,1.849 h -1.178 l -2.425,13.562 h -2.287 l 2.425,-13.562 h -1.178 z m 18.153,0 h 4.157 l -0.346,1.849 h -2.148 l -0.97,4.863 h 2.217 l -0.346,1.576 h -2.148 l -0.901,5.205 h 2.148 l -0.277,1.918 h -4.435 z m 17.115,0 h 2.564 l 0.416,8.904 3.949,-8.835 2.494,-0.069 -2.633,15.411 h -1.94 l 1.247,-8.151 -3.464,8.151 h -1.386 l -0.416,-8.356 -1.524,8.356 h -2.287 z m -372.153998,0.548 h 4.088 l -0.277,1.917 h -2.218 l -0.901,4.795 h 2.148 l -0.277,1.644 h -2.217 l -0.832002,5.206 h 2.148002 l -0.347,1.917 h -4.435002 z m 19.124,0 h 1.94 l 1.04,8.082 1.524,-8.082 h 2.287 l -2.98,15.479 h -1.94 l -0.762,-8.972 -1.802,8.972 h -2.287 z m 20.787,0 h 4.573 l -0.277,1.917 h -1.178 l -2.495,13.562 h -2.217 l 2.425,-13.562 h -1.247 z m 20.163,0 h 4.157 l -0.346,1.917 h -2.148 l -0.97,4.795 h 2.148 l -0.277,1.644 h -2.148 l -0.901,5.206 h 2.148 l -0.277,1.917 h -4.435 z m 19.54,0 h 4.435 c 0.822,0 1.342,0.72 1.178,1.575 l -1.04,5.48 c -0.114,0.593 -1.167,1.078 -1.732,1.301 h 0.278 v 0.068 h 0.278 l 0.07,0.069 h 0.208 v 0.068 h 0.139 v 0.069 h 0.07 c 0.092,0.166 0.139,0.66 0.139,0.753 0,0.091 -1.109,6.096 -1.109,6.096 h -2.009 c 0,0 1.073,-5.392 1.109,-5.616 0.021,-0.24 -0.027,-0.53 -0.07,-0.754 -0.014,-0.165 -0.022,-0.448 -0.208,-0.616 h -1.386 l -1.316,6.986 h -2.009 z m 19.8170002,0 h 4.6419998 l -0.277,1.917 h -1.178 l -2.4939998,13.562 h -2.218 l 2.425,-13.562 h -1.247 z m 23.0729998,0 h 2.633 l -0.832,15.479 h -2.633 l 0.347,-3.561 h -1.594 l -1.317,3.561 h -2.356 z m 18.431,0 h 2.009 l -2.98,15.479 h -1.94 z m 17.877,0 h 1.94 l 1.04,8.082 1.524,-8.082 h 2.218 l -2.91,15.479 h -2.009 l -0.693,-8.972 -1.802,8.972 h -2.288 z m 22.934,0 h 2.564 l 0.416,8.972 3.95,-8.904 h 2.494 l -2.633,15.411 h -1.94 l 1.247,-8.15 -3.464,8.15 h -1.386 l -0.416,-8.356 -1.525,8.356 h -2.217 z m 25.152998,0 h 4.088 l -0.277,1.917 h -2.218 l -0.9,4.795 h 2.148 l -0.277,1.644 h -2.218 l -0.901,5.206 h 2.218 l -0.347,1.917 h -4.365 z m 20.093,0 h 1.94 l 1.039,8.082 1.525,-8.082 h 2.217 l -2.91,15.479 h -1.94 l -0.762,-8.972 -1.801,8.972 h -2.287 z m 20.579,0 h 4.643 l -0.347,1.917 h -1.178 l -2.425,13.562 h -2.218 l 2.425,-13.562 h -1.247 z m -166.085998,1.849 c -0.108,0 -0.199,0.063 -0.277,0.137 l -0.901,4.658 v 0.068 c 0,0.149 0.106,0.274 0.277,0.274 h 0.832 c 0.207,0 0.726,-0.412 0.762,-0.616 l 0.763,-3.836 c 0.036,-0.22 -0.347,-0.685 -0.554,-0.685 z m 41.019,4.657 -1.455,3.904 h 1.109 z m 264.338998,-19.575 h -1.833 v 4.099 h -1.29 v -4.099 h -1.902 v -0.849 h 5.025 z m 6.79,4.099 h -1.291 v -4.02 l -1.118,4.02 h -1.291 l -1.119,-3.998 v 3.998 h -1.29 v -4.948 h 1.888 l 1.165,3.788 1.178,-3.788 h 1.878 z" id="path14"/>
</svg>
