<?xml version='1.0' encoding='utf-8'?>
<svg xmlns="http://www.w3.org/2000/svg" height="118.53790911938009" viewBox="0 0 815.65299 161.14263" width="600" version="1.1" id="svg2">
    <defs id="defs2"/>
    <g id="path6" style="opacity:1">
        <path style="baseline-shift:baseline;display:inline;overflow:visible;vector-effect:none;fill:#ffffff;stroke-linecap:round;stroke-linejoin:round;paint-order:markers stroke fill;enable-background:accumulate;stop-color:#000000;stop-opacity:1" d="m 12.955078,129.08789 a 4.50045,4.50045 0 0 0 -4.4999999,4.5 v 23.05469 a 4.50045,4.50045 0 0 0 4.4999999,4.5 h 23.90625 a 4.50045,4.50045 0 0 0 4.5,-4.5 v -4.33985 a 4.50045,4.50045 0 0 0 -4.5,-4.5 h -3.841797 a 4.50045,4.50045 0 0 0 0.503906,-1.21484 v -3.92578 a 4.50045,4.50045 0 0 0 -0.267578,-0.64649 h 3.386719 a 4.50045,4.50045 0 0 0 4.5,-4.5 v -3.92773 a 4.50045,4.50045 0 0 0 -4.5,-4.5 z m 33.845703,0 a 4.50045,4.50045 0 0 0 -4.5,4.5 v 23.05469 a 4.50045,4.50045 0 0 0 4.5,4.5 h 13.50586 c 2.51261,0 4.65327,-0.13735 6.55664,-0.49024 a 4.50045,4.50045 0 0 0 0.03516,-0.006 c 1.901461,-0.36848 3.673381,-0.97721 5.261719,-1.95898 2.29054,-1.40065 4.167034,-3.42904 5.40625,-5.81836 a 4.50045,4.50045 0 0 0 0.0059,-0.0117 c 1.238251,-2.40513 1.835937,-5.10999 1.835937,-7.88281 0,-4.57884 -1.672936,-8.95371 -4.994141,-11.82227 -3.321709,-2.88095 -7.787104,-4.06445 -12.728515,-4.06445 z m 37.980469,0 a 4.50045,4.50045 0 0 0 -4.5,4.5 v 17.60156 c 0,2.66872 0.280869,5.33046 2.535156,7.53516 a 4.50045,4.50045 0 0 0 0.06055,0.0586 c 2.319106,2.18609 4.897577,2.35938 7.638672,2.35938 h 14.623045 c 2.75193,0 5.33788,-0.15314 7.66797,-2.38672 a 4.50045,4.50045 0 0 0 0.0312,-0.0312 c 2.25475,-2.20515 2.53516,-4.86595 2.53516,-7.53516 v -17.60156 a 4.50045,4.50045 0 0 0 -4.5,-4.5 h -5.36328 a 4.50045,4.50045 0 0 0 -4.5,4.5 v 14.21484 h -6.343754 v -14.21484 a 4.50045,4.50045 0 0 0 -4.5,-4.5 z m 43.19141,0 c -2.76224,0 -5.3839,0.17315 -7.70118,2.43945 -2.24408,2.19473 -2.53515,4.85374 -2.53515,7.51172 v 12.15039 c 0,2.66872 0.28087,5.33046 2.53515,7.53516 a 4.50045,4.50045 0 0 0 0.0312,0.0312 c 2.33062,2.23597 4.91748,2.38672 7.66993,2.38672 h 13.8125 c 2.74058,0 5.32638,-0.16084 7.64648,-2.38672 a 4.50045,4.50045 0 0 0 0.002,-0.002 c 0.0353,-0.0339 0.0496,-0.0733 0.084,-0.10743 a 4.50045,4.50045 0 0 0 3.89062,2.4961 h 5.36328 a 4.50045,4.50045 0 0 0 3.96875,-2.37891 l 1.42188,-2.66015 h 9.3125 l 1.49805,2.71289 a 4.50045,4.50045 0 0 0 3.93945,2.32617 h 6.04101 a 4.50045,4.50045 0 0 0 3.9004,-6.7461 l -7.72657,-13.42578 a 4.50045,4.50045 0 0 0 2.99414,1.24024 h 6.11719 v 14.43164 a 4.50045,4.50045 0 0 0 4.5,4.5 h 5.38477 a 4.50045,4.50045 0 0 0 4.5,-4.5 v -14.43164 h 6.16211 a 4.50045,4.50045 0 0 0 2.08789,-0.86524 v 15.29688 a 4.50045,4.50045 0 0 0 4.5,4.5 h 5.38672 a 4.50045,4.50045 0 0 0 4.5,-4.5 v -23.05469 a 4.50045,4.50045 0 0 0 -4.5,-4.5 h -5.38672 a 4.50045,4.50045 0 0 0 -3.29493,1.58984 4.50045,4.50045 0 0 0 -3.29296,-1.58984 h -26.66407 a 4.50045,4.50045 0 0 0 -4.5,4.5 v 4.12305 a 4.50045,4.50045 0 0 0 0.94922,2.29297 l -4.98242,-8.66016 a 4.50045,4.50045 0 0 0 -3.90039,-2.25586 h -5.18945 a 4.50045,4.50045 0 0 0 -3.91211,2.2793 l -10.56641,18.60937 v -1.51367 a 4.50045,4.50045 0 0 0 -2.30859,-3.62891 4.50045,4.50045 0 0 0 2.30859,-3.61328 v -2.18164 c 0,-2.66172 -0.31694,-5.34595 -2.57226,-7.52344 -2.30363,-2.24445 -4.9172,-2.42773 -7.66211,-2.42773 z m 111.86328,0 c -2.76224,0 -5.3839,0.17315 -7.70117,2.43945 a 4.50045,4.50045 0 0 0 -0.002,0.002 c -2.24284,2.19536 -2.5332,4.85421 -2.5332,7.51172 v 12.14843 c 0,2.66872 0.28087,5.33046 2.53516,7.53516 a 4.50045,4.50045 0 0 0 0.0312,0.0312 c 2.33062,2.23597 4.91747,2.38672 7.66992,2.38672 h 17.02929 c 2.75194,0 5.33976,-0.15118 7.66993,-2.38672 a 4.50045,4.50045 0 0 0 0.0293,-0.0312 c 2.25429,-2.2047 2.53711,-4.86644 2.53711,-7.53516 v -12.14843 c 0,-2.65799 -0.29302,-5.31895 -2.53711,-7.51368 -2.31727,-2.2663 -4.93698,-2.43945 -7.69922,-2.43945 z m 34.06054,0 a 4.50045,4.50045 0 0 0 -4.5,4.5 v 23.05469 a 4.50045,4.50045 0 0 0 4.5,4.5 h 4.83789 a 4.50045,4.50045 0 0 0 4.5,-4.5 v -6.0293 l 11.30469,9.47852 a 4.50045,4.50045 0 0 0 2.89063,1.05078 h 3.67773 a 4.50045,4.50045 0 0 0 3.54688,-2.20117 4.50045,4.50045 0 0 0 3.83007,2.20117 h 5.36329 a 4.50045,4.50045 0 0 0 3.96875,-2.37891 l 1.41992,-2.66015 h 9.31445 l 1.49805,2.71289 a 4.50045,4.50045 0 0 0 3.93945,2.32617 h 6.04102 a 4.50045,4.50045 0 0 0 3.88086,-2.23828 4.50045,4.50045 0 0 0 3.5625,2.23828 h 22.74609 a 4.50045,4.50045 0 0 0 4.5,-4.5 v -4.33985 a 4.50045,4.50045 0 0 0 -4.5,-4.5 h -12.86133 v -14.21484 a 4.50045,4.50045 0 0 0 -4.5,-4.5 h -5.38476 a 4.50045,4.50045 0 0 0 -4.5,4.5 v 19.14453 l -12.3086,-21.38867 a 4.50045,4.50045 0 0 0 -3.90039,-2.25586 h -5.18945 a 4.50045,4.50045 0 0 0 -3.91211,2.2793 l -12.05469,21.23047 v -19.00782 a 4.50045,4.50045 0 0 0 -4.5,-4.5 h -4.83789 a 4.50045,4.50045 0 0 0 -4.5,4.5 v 5.98047 l -11.3125,-9.4375 a 4.50045,4.50045 0 0 0 -2.88281,-1.04492 z m 136.24805,0 a 4.50045,4.50045 0 0 0 -3.88672,6.76758 l 13.44531,23.05273 a 4.50045,4.50045 0 0 0 3.88672,2.23438 h 3.74024 a 4.50045,4.50045 0 0 0 3.93554,-2.31836 l 10.66407,-19.22852 v 17.04688 a 4.50045,4.50045 0 0 0 4.5,4.5 h 5.41406 a 4.50045,4.50045 0 0 0 4.5,-4.5 v -23.05469 a 4.50045,4.50045 0 0 0 -4.5,-4.5 h -5.41406 a 4.50045,4.50045 0 0 0 -3.33985,1.70117 4.50045,4.50045 0 0 0 -2.97461,-1.70117 h -5.39062 a 4.50045,4.50045 0 0 0 -3.96289,2.36719 l -5.10938,9.48437 -5.40625,-9.56445 a 4.50045,4.50045 0 0 0 -3.91797,-2.28711 z m 53.58203,0 a 4.50045,4.50045 0 0 0 -4.5,4.5 v 23.05469 a 4.50045,4.50045 0 0 0 4.5,4.5 h 13.57617 c 2.52371,0 4.67276,-0.13815 6.58204,-0.49024 a 4.50045,4.50045 0 0 0 0.0371,-0.006 c 1.90684,-0.36773 3.68258,-0.9744 5.2754,-1.95312 2.29888,-1.39824 4.18498,-3.42528 5.43164,-5.81641 a 4.50045,4.50045 0 0 0 0.006,-0.0117 c 1.24541,-2.40643 1.8457,-5.11455 1.8457,-7.89062 0,-4.58379 -1.68484,-8.96487 -5.01953,-11.83008 -3.33518,-2.87748 -7.81168,-4.05664 -12.77149,-4.05664 z m 38.17774,0 a 4.50045,4.50045 0 0 0 -4.5,4.5 v 23.05469 a 4.50045,4.50045 0 0 0 4.5,4.5 h 24.02929 a 4.50045,4.50045 0 0 0 4.5,-4.5 v -4.33985 a 4.50045,4.50045 0 0 0 -4.5,-4.5 h -3.88086 a 4.50045,4.50045 0 0 0 0.50391,-1.21484 v -3.92578 a 4.50045,4.50045 0 0 0 -0.26758,-0.64649 h 3.42578 a 4.50045,4.50045 0 0 0 4.5,-4.5 v -3.92773 a 4.50045,4.50045 0 0 0 -4.5,-4.5 z m 39.30078,0 c -2.77047,0 -5.39052,0.16987 -7.71485,2.42969 a 4.50045,4.50045 0 0 0 0,0.002 c -2.2515,2.19086 -2.55078,4.86064 -2.55078,7.52149 v 12.14843 c 0,2.67157 0.28906,5.34217 2.55078,7.54297 a 4.50045,4.50045 0 0 0 0.0312,0.0312 c 2.33743,2.22931 4.92287,2.37891 7.6836,2.37891 h 17.11914 c 2.76125,0 5.34758,-0.14722 7.68555,-2.37891 a 4.50045,4.50045 0 0 0 0.0312,-0.0312 c 2.26172,-2.2008 2.54882,-4.8714 2.54882,-7.54297 v -12.14843 c 0,-2.66085 -0.29732,-5.33063 -2.54882,-7.52149 -2.32481,-2.26219 -4.94581,-2.43164 -7.7168,-2.43164 z m 77.81836,0 c -2.75113,0 -5.37384,0.17825 -7.68164,2.44727 -2.23661,2.19856 -2.52149,4.85074 -2.52149,7.50586 v 2.55273 c 0,1.89713 0.17572,3.78419 1.07422,5.51367 a 4.50045,4.50045 0 0 0 -2.00976,3.44922 v 0.63281 c 0,2.65512 0.28488,5.3073 2.52148,7.50586 a 4.50045,4.50045 0 0 0 0.0273,0.0273 c 2.3173,2.23791 4.93452,2.41992 7.69727,2.41992 h 14.21289 c 2.75776,0 5.3744,-0.17036 7.68945,-2.4375 2.24688,-2.18198 2.55664,-4.85724 2.55664,-7.51563 v -3.16211 c 0,-2.37508 -0.32523,-4.74479 -1.98047,-6.7832 a 4.50045,4.50045 0 0 0 1.67579,-2.11523 v -0.42969 l 8.82421,9.40625 v 8.53711 a 4.50045,4.50045 0 0 0 4.5,4.5 h 5.4004 a 4.50045,4.50045 0 0 0 4.5,-4.5 v -8.65821 l 9.43945,-9.99804 c -0.0143,0.35551 -0.11328,0.69792 -0.11328,1.05469 v 2.55273 c 0,1.89709 0.17612,3.78421 1.07422,5.51367 a 4.50045,4.50045 0 0 0 -2.00977,3.44922 v 0.63281 c 0,2.65512 0.28488,5.3073 2.52148,7.50586 a 4.50045,4.50045 0 0 0 0.0273,0.0273 c 2.31729,2.23791 4.93452,2.41992 7.69726,2.41992 h 14.21289 c 2.75776,0 5.3744,-0.17036 7.68946,-2.4375 2.24688,-2.18198 2.55664,-4.85724 2.55664,-7.51563 v -3.16211 c 0,-2.37508 -0.32524,-4.74479 -1.98047,-6.7832 a 4.50045,4.50045 0 0 0 0.25977,-0.32617 4.50045,4.50045 0 0 0 3.12109,1.29297 h 6.05469 v 14.43164 a 4.50045,4.50045 0 0 0 4.5,4.5 h 5.35547 a 4.50045,4.50045 0 0 0 4.5,-4.5 v -14.43164 h 6.0996 a 4.50045,4.50045 0 0 0 2.05274,-0.84961 v 15.28125 a 4.50045,4.50045 0 0 0 4.5,4.5 h 23.76758 a 4.50045,4.50045 0 0 0 4.5,-4.5 v -4.33985 a 4.50045,4.50045 0 0 0 -4.5,-4.5 h -3.79492 a 4.50045,4.50045 0 0 0 0.5039,-1.21484 v -3.92578 a 4.50045,4.50045 0 0 0 -0.26758,-0.64649 h 3.33985 a 4.50045,4.50045 0 0 0 4.5,-4.5 v -3.92773 a 4.50045,4.50045 0 0 0 -4.5,-4.5 h -23.54883 a 4.50045,4.50045 0 0 0 -3.27539,1.54688 4.50045,4.50045 0 0 0 -3.27735,-1.54688 h -26.50976 a 4.50045,4.50045 0 0 0 -3.85938,2.95313 c -0.19486,-0.22272 -0.33762,-0.46564 -0.56836,-0.67383 -2.27677,-2.06792 -4.8079,-2.2793 -7.47851,-2.2793 h -13.06055 c -2.75197,0 -5.37529,0.17822 -7.68359,2.44727 a 4.50045,4.50045 0 0 0 0,0.002 c -0.14104,0.13875 -0.21198,0.29332 -0.33789,0.43555 a 4.50045,4.50045 0 0 0 -4.10352,-2.88477 H 666.625 a 4.50045,4.50045 0 0 0 -3.35352,1.5 l -4.5664,5.10156 -4.54688,-5.0957 a 4.50045,4.50045 0 0 0 -3.35742,-1.50586 h -7.14062 a 4.50045,4.50045 0 0 0 -3.87305,2.54492 c -0.085,-0.0842 -0.13195,-0.18376 -0.22266,-0.26562 -2.2771,-2.06901 -4.81131,-2.2793 -7.48242,-2.2793 z m 157.65234,0 a 4.50045,4.50045 0 0 0 -4.5,4.5 v 23.05469 a 4.50045,4.50045 0 0 0 4.5,4.5 h 4.33008 a 4.50045,4.50045 0 0 0 4.5,-4.5 v -2.47852 l 1.80273,2.40625 a 4.50045,4.50045 0 0 0 3.60157,1.80078 h 1.0664 a 4.50045,4.50045 0 0 0 3.59961,-1.79882 l 1.69531,-2.25977 v 2.33008 a 4.50045,4.50045 0 0 0 4.5,4.5 h 4.96289 a 4.50045,4.50045 0 0 0 4.5,-4.5 v -23.05469 a 4.50045,4.50045 0 0 0 -4.5,-4.5 h -4.28906 a 4.50045,4.50045 0 0 0 -3.58008,1.77734 l -7.05859,9.2793 -7.24805,-9.31836 a 4.50045,4.50045 0 0 0 -3.55273,-1.73828 z m -706.173827,7.17578 0.01953,0.0195 c -0.0028,-0.003 -0.007,-0.003 -0.0098,-0.006 -0.0041,-0.004 -0.0056,-0.01 -0.0098,-0.0137 z m 569.515627,4.22852 0.0332,0.0312 c -0.007,-0.007 -0.0146,-0.009 -0.0215,-0.0156 -0.005,-0.005 -0.007,-0.0108 -0.0117,-0.0156 z m 66.01562,0 0.0332,0.0312 c -0.007,-0.007 -0.0146,-0.009 -0.0215,-0.0156 -0.005,-0.005 -0.007,-0.0108 -0.0117,-0.0156 z m -649.347653,1.71875 h 5.042969 c 1.78098,0 2.369053,0.37992 2.591796,0.59179 a 4.50045,4.50045 0 0 0 0.01953,0.0195 c 0.219258,0.20605 0.507812,0.52683 0.507812,2.06445 0,1.76759 -0.285491,1.91609 -0.503906,2.07812 -0.166483,0.12359 -1.955437,0.83789 -5.197266,0.83789 h -2.460937 z m 75.435543,0 h 5.57813 a 4.50045,4.50045 0 0 0 1.17187,2.53906 4.50045,4.50045 0 0 0 -1.23632,2.60156 v 0.44922 h -5.51368 z m 111.86328,0 h 8.75391 v 5.58984 h -8.75391 z m 229.65625,0 h 5.09375 c 1.79731,0 2.39971,0.38457 2.62696,0.59961 a 4.50045,4.50045 0 0 0 0.0195,0.0195 c 0.2237,0.20914 0.50977,0.52327 0.50976,2.05664 10e-6,1.76556 -0.27975,1.9052 -0.50585,2.07226 -0.17251,0.12746 -1.98373,0.84375 -5.24805,0.84375 h -2.4961 z m 71.7129,0 h 8.8457 v 5.58984 h -8.8457 z" id="path27"/>
        <path style="baseline-shift:baseline;display:inline;overflow:visible;vector-effect:none;fill:#636365;stroke-linecap:round;stroke-linejoin:round;paint-order:markers stroke fill;enable-background:accumulate;stop-color:#000000;stop-opacity:1" d="m 12.956,156.64185 v -23.053 h 23.686 v 3.926 h -18.3 v 5.147 h 10.682 v 3.926 H 18.341 v 5.714 h 18.52 v 4.34 z m 33.844,0 v -23.053 h 14.886 q 6.37,0 9.785,2.966 3.437,2.966 3.437,8.419 0,3.228 -1.336,5.823 -1.335,2.574 -3.765,4.057 -1.51,0.937 -3.765,1.374 -2.233,0.414 -5.736,0.414 z m 5.385,-4.34 h 6.961 q 5.56,0 7.881,-1.723 2.32,-1.723 2.32,-5.693 0,-3.533 -1.926,-5.343 -1.926,-1.832 -5.692,-1.832 h -9.544 z m 37.981,-18.713 v 18.713 h 15.344 v -18.713 h 5.364 v 17.6 q 0,3.163 -1.182,4.319 -1.183,1.134 -4.554,1.134 H 90.516 q -3.35,0 -4.553,-1.134 -1.182,-1.156 -1.182,-4.318 v -17.601 z m 51.969,4.122 h -14.514 v 14.59 h 14.514 v -4.95 l 5.385,1.112 v 2.727 q 0,3.162 -1.204,4.318 -1.182,1.134 -4.531,1.134 h -13.813 q -3.372,0 -4.554,-1.134 -1.182,-1.156 -1.182,-4.318 v -12.15 q 0,-3.14 1.182,-4.296 1.182,-1.156 4.554,-1.156 h 13.813 q 3.35,0 4.531,1.156 1.204,1.156 1.204,4.296 v 2.181 l -5.385,0.851 z m 11.274,18.931 13.09,-23.053 h 5.189 l 13.266,23.053 h -6.042 l -2.78,-5.038 h -14.667 l -2.693,5.038 z m 10.354,-9.204 h 10.136 l -4.991,-9.378 z m 36.361,-9.727 v 18.931 h -5.385 v -18.931 h -10.617 v -4.122 h 26.663 v 4.122 z m 17.25,18.931 v -23.053 h 5.386 v 23.053 z m 16.726,-17.601 q 0,-3.14 1.181,-4.296 1.182,-1.156 4.554,-1.156 h 17.03 q 3.372,0 4.554,1.156 1.182,1.156 1.182,4.296 v 12.149 q 0,3.162 -1.182,4.318 -1.182,1.134 -4.553,1.134 h -17.031 q -3.372,0 -4.554,-1.134 -1.182,-1.156 -1.182,-4.318 z m 5.384,13.26 h 17.754 v -14.59 h -17.754 z m 34.413,4.341 v -23.053 h 3.678 l 16.287,13.588 q 0.831,0.676 1.466,1.286 0.635,0.59 1.16,1.222 -0.13,-1.941 -0.175,-2.748 -0.043,-0.807 -0.043,-1.244 v -12.103 h 4.838 v 23.053 h -3.678 l -16.988,-14.243 q -0.613,-0.545 -1.072,-0.981 -0.46,-0.436 -0.854,-0.894 0.11,1.068 0.153,2.028 0.066,0.938 0.066,1.636 v 12.453 z m 34.588,0 13.09,-23.053 h 5.189 l 13.266,23.053 h -6.042 l -2.78,-5.038 H 316.54 l -2.693,5.038 z m 10.355,-9.204 h 10.135 l -4.991,-9.378 z m 28.633,9.204 v -23.053 h 5.385 v 18.713 h 17.36 v 4.34 z m 76.117,0 -13.445,-23.053 h 6.183 l 9.418,16.663 8.978,-16.663 h 5.391 l -12.785,23.053 z m 22.84,0 v -23.053 h 5.414 v 23.053 z m 17.296,0 v -23.053 h 14.964 q 6.403,0 9.836,2.966 3.455,2.966 3.455,8.419 0,3.228 -1.343,5.823 -1.342,2.574 -3.784,4.057 -1.519,0.937 -3.785,1.374 -2.245,0.414 -5.766,0.414 z m 5.414,-4.34 h 6.997 q 5.59,0 7.922,-1.723 2.332,-1.723 2.332,-5.693 0,-3.533 -1.936,-5.343 -1.936,-1.832 -5.721,-1.832 h -9.594 z m 32.765,4.34 v -23.053 h 23.81 v 3.926 h -18.397 v 5.147 h 10.738 v 3.926 h -10.738 v 5.714 h 18.616 v 4.34 z m 33.535,-17.601 q 0,-3.14 1.188,-4.296 1.189,-1.156 4.577,-1.156 h 17.12 q 3.389,0 4.577,1.156 1.188,1.156 1.188,4.296 v 12.149 q 0,3.162 -1.188,4.318 -1.188,1.134 -4.577,1.134 h -17.12 q -3.388,0 -4.577,-1.134 -1.188,-1.156 -1.188,-4.318 z m 5.413,13.26 h 17.846 v -14.59 h -17.846 z m 92.208,-14.677 H 618 v 4.95 h 14.344 q 3.374,0 4.549,1.157 1.197,1.155 1.197,4.296 v 3.163 q 0,3.14 -1.197,4.296 -1.175,1.156 -4.55,1.156 H 618.13 q -3.373,0 -4.57,-1.156 -1.176,-1.156 -1.176,-4.296 v -0.633 l 4.723,-0.981 v 2.726 h 16.26 v -5.256 h -14.344 q -3.352,0 -4.527,-1.156 -1.176,-1.156 -1.176,-4.297 v -2.552 q 0,-3.14 1.176,-4.296 1.175,-1.156 4.527,-1.156 h 13.06 q 3.243,0 4.462,1.112 1.24,1.113 1.24,3.948 v 0.48 l -4.723,1.112 z m 22.549,19.018 v -10.316 l -11.949,-12.737 h 7.14 l 7.9,8.855 7.924,-8.855 h 6.29 l -11.906,12.606 v 10.447 z m 43.468,-19.018 h -15.062 v 4.95 h 14.344 q 3.374,0 4.549,1.157 1.197,1.155 1.197,4.296 v 3.163 q 0,3.14 -1.197,4.296 -1.175,1.156 -4.55,1.156 h -14.213 q -3.373,0 -4.57,-1.156 -1.176,-1.156 -1.176,-4.296 v -0.633 l 4.723,-0.981 v 2.726 h 16.26 v -5.256 h -14.344 q -3.352,0 -4.528,-1.156 -1.175,-1.156 -1.175,-4.297 v -2.552 q 0,-3.14 1.175,-4.296 1.176,-1.156 4.528,-1.156 h 13.06 q 3.243,0 4.462,1.112 1.24,1.113 1.24,3.948 v 0.48 l -4.723,1.112 z m 26.838,0.087 v 18.931 h -5.355 v -18.931 h -10.556 v -4.122 h 26.51 v 4.122 z m 17.152,18.931 v -23.053 h 23.55 v 3.926 h -18.196 v 5.147 h 10.622 v 3.926 h -10.622 v 5.714 h 18.414 v 4.34 z m 33.607,0 v -23.053 h 4.331 l 10.84,13.936 10.6,-13.936 h 4.288 v 23.053 h -4.963 v -14.242 q 0,-0.414 0.044,-1.047 0.065,-0.632 0.152,-1.417 -0.435,0.894 -0.762,1.483 -0.326,0.567 -0.588,0.938 l -8.64,11.515 h -1.067 l -8.663,-11.56 q -0.48,-0.653 -0.827,-1.22 -0.327,-0.59 -0.544,-1.135 0.065,0.72 0.087,1.309 0.043,0.589 0.043,1.134 v 14.242 z" id="path28"/>
    </g>
    <g id="path2" style="opacity:1">
        <path style="baseline-shift:baseline;display:inline;overflow:visible;vector-effect:none;fill:#ffffff;stroke-linecap:round;stroke-linejoin:round;paint-order:markers stroke fill;enable-background:accumulate;stop-color:#000000;stop-opacity:1" d="m 168.39062,0 c -18.87959,0 -34.60364,4.8172004 -45.2832,15.626953 a 9.0009,9.0009 0 0 0 -0.0176,0.01758 c -9.70326,9.876346 -14.23519,24.072089 -14.99218,40.982422 -0.78748,-0.918527 -1.63444,-1.791024 -2.55469,-2.607422 C 97.889582,47.18808 87.205458,45.017578 74.175781,45.017578 H 45.419922 c -3.312341,0 -4.545085,-0.748815 -4.587891,-0.783203 -0.01834,-0.01491 -0.123047,0.470825 -0.123047,-1.417969 0,-2.856819 0.42094,-3.025426 0.619141,-3.171875 0.322243,-0.241794 2.507282,-1.271484 7.113281,-1.271484 h 53.718754 a 9.0009,9.0009 0 0 0 9,-9 l -0.002,-18.34375 a 9.0009,9.0009 0 0 0 -9,-9.0000001 H 45.279297 c -13.808159,0 -25.283745,2.6114743 -33.529297,9.7636721 a 9.0009,9.0009 0 0 0 -0.02539,0.02344 C 3.5343462,18.977205 0,30.029564 0,42.535156 0,54.366992 3.4323364,64.955815 11.324219,71.806641 a 9.0009,9.0009 0 0 0 0.0625,0.05273 c 7.957385,6.782527 18.900768,9.222656 31.99414,9.222656 h 25.66211 c 4.556473,0 6.629239,1.102403 6.242187,0.773438 0.05476,0.220865 0.154297,0.804117 0.154297,2.128906 0,2.263242 -0.13601,1.708725 -0.04883,1.611328 0.133806,-0.132002 -2.626883,1.009766 -7.824219,1.009766 H 13.146484 a 9.0009,9.0009 0 0 0 -8.9999996,9 v 18.343751 a 9.0009,9.0009 0 0 0 8.9999996,9 h 57.865235 c 13.657804,0 25.022718,-2.56255 33.253911,-9.56836 a 9.0009,9.0009 0 0 0 0.0312,-0.0273 c 5.06948,-4.35599 8.21659,-10.30233 10.02148,-17.019536 2.20911,4.762176 4.96266,9.058276 8.44141,12.736326 10.5287,11.13275 26.41912,16.04883 45.63085,16.04883 19.02947,0 34.82857,-4.90417 45.38282,-15.93945 4.50255,-4.68731 7.85595,-10.343122 10.29297,-16.746096 3.19307,7.758976 8.059,14.454386 14.4375,19.519536 4.88413,3.9091 10.29756,6.83553 16.08593,8.58203 a 9.0009,9.0009 0 0 0 0.0801,0.0234 c 5.99297,1.74795 13.03454,2.39063 21.64453,2.39063 h 36.77149 a 9.0009,9.0009 0 0 0 7.98047,-6.53711 9.0009,9.0009 0 0 0 7.97851,6.53711 h 21.72656 a 9.0009,9.0009 0 0 0 9,-9 V 82.482422 h 11.33008 l 20.19922,35.880858 a 9.0009,9.0009 0 0 0 7.8418,4.58594 h 23.76562 0.70313 22.35742 a 9.0009,9.0009 0 0 0 8.42578,-5.83399 l 7.01563,-18.669918 h 32.53125 l 7.26367,18.755858 a 9.0009,9.0009 0 0 0 8.39258,5.74805 h 24.18554 a 9.0009,9.0009 0 0 0 8.59961,-6.57227 9.0009,9.0009 0 0 0 7.99414,6.57227 h 22.5 a 9.0009,9.0009 0 0 0 9,-9 V 38.09375 h 22.85938 c -2.27382,7.739109 -3.31446,16.528009 -3.31446,26.216797 0,10.221267 1.41337,19.40344 4.54493,27.478515 a 9.0009,9.0009 0 0 0 0.0273,0.07031 c 3.18559,8.012464 8.16761,14.899915 14.70898,20.093755 4.88367,3.90936 10.29745,6.8355 16.08594,8.58203 a 9.0009,9.0009 0 0 0 0.0801,0.0234 c 5.99319,1.74776 13.03321,2.39063 21.64258,2.39063 h 36.77148 a 9.0009,9.0009 0 0 0 8.6836,-8.23633 9.0009,9.0009 0 0 0 8.68359,8.23633 h 57.86328 c 13.65841,0 25.02305,-2.56203 33.25391,-9.56836 a 9.0009,9.0009 0 0 0 0.0312,-0.0273 c 8.19898,-7.04423 11.85351,-17.967837 11.85351,-30.208989 0,-11.901492 -2.96271,-22.348747 -10.61718,-29.132812 -7.65259,-6.824703 -18.33369,-8.994141 -31.35743,-8.994141 h -28.75586 c -3.31499,0 -4.54695,-0.749936 -4.58789,-0.783203 -0.0189,-0.01535 -0.12304,0.470289 -0.12304,-1.417969 0,-2.853166 0.42016,-3.023211 0.61914,-3.169922 0.32012,-0.240969 2.50641,-1.273437 7.11523,-1.273437 h 53.71485 a 9.0009,9.0009 0 0 0 9,-9 v -18.34375 a 9.0009,9.0009 0 0 0 -9,-9.0000001 H 744.7793 c -13.80756,0 -25.28192,2.6115859 -33.52735,9.7636721 a 9.0009,9.0009 0 0 0 -0.0254,0.02344 c -2.97758,2.603317 -5.14271,5.860026 -6.94336,9.375 V 11.029297 a 9.0009,9.0009 0 0 0 -9,-9.0000001 h -36.13867 c -18.19507,0 -33.43623,4.9524036 -43.47266,15.9394531 -9.6e-4,0.001 -9.9e-4,0.0029 -0.002,0.0039 -0.0924,0.100715 -0.16642,0.216815 -0.25781,0.31836 v -7.121094 a 9.0009,9.0009 0 0 0 -9,-9.0000001 h -89.43164 a 9.0009,9.0009 0 0 0 -9,9.0000001 V 29.09375 a 9.0009,9.0009 0 0 0 9,9 h 24.39648 v 70.72656 L 497.97266,7.4863281 a 9.0009,9.0009 0 0 0 -8.27344,-5.4570312 h -23.0586 a 9.0009,9.0009 0 0 0 -8.2832,5.4804687 L 421.82422,93.484375 410.92187,75.322266 c 3.77819,-2.266929 7.09602,-5.18621 9.66211,-8.777344 4.91462,-6.813395 7.10547,-15.318983 7.10547,-24.56836 0,-12.280258 -3.64402,-23.228133 -11.85351,-30.281249 h -0.002 C 407.60937,4.6280402 396.21989,2.0292969 382.55078,2.0292969 h -53.50586 a 9.0009,9.0009 0 0 0 -7.97851,6.5371094 9.0009,9.0009 0 0 0 -7.98047,-6.5371094 h -36.13867 c -18.20187,0 -33.44809,4.9555111 -43.48438,15.9511721 -0.002,0.0021 -0.004,0.0038 -0.006,0.0059 -3.94066,4.300203 -6.95199,9.38253 -9.19141,15.119141 -2.45096,-6.620366 -5.8697,-12.448275 -10.50585,-17.25 -9.8e-4,-0.001 -0.003,-9.39e-4 -0.004,-0.002 C 203.19494,4.8701394 187.41315,0 168.39062,0 Z m -8.76367,18.560547 c -7.6731,1.569201 -14.47468,5.226695 -19.21093,11.134765 a 9.0009,9.0009 0 0 0 -0.0274,0.03516 c -6.43183,8.103737 -8.83984,18.95744 -8.83984,31.849609 0,13.747531 2.17687,24.945034 8.48242,33.339844 a 9.0009,9.0009 0 0 0 0.0488,0.06445 c 4.81387,6.290845 11.97203,10.106625 20.11133,11.607425 -11.44821,-1.14273 -19.33639,-4.5837 -24.35352,-9.888675 -6.1489,-6.501178 -10.05469,-17.784347 -10.05469,-35.263672 0,-16.244014 3.81291,-26.725468 10.13867,-33.169922 5.09735,-5.154866 12.78332,-8.520323 23.70508,-9.708984 z m 17.60547,0.0078 c 10.96333,1.202804 18.58595,4.597284 23.55078,9.761719 a 9.0009,9.0009 0 0 0 0.0176,0.01563 c 6.2639,6.480695 10.12695,17.331603 10.12695,34.144531 0,16.812929 -3.86099,27.695269 -10.14257,34.228516 a 9.0009,9.0009 0 0 0 -0.0176,0.01758 c -5.0659,5.298142 -12.90887,8.717922 -24.21289,9.857422 8.03556,-1.49599 15.12515,-5.28071 19.95117,-11.46875 l 0.002,-0.0039 c 6.44674,-8.256669 8.79492,-19.319525 8.79492,-32.63086 0,-13.352436 -2.33635,-24.419488 -8.8164,-32.654297 -4.68468,-5.995354 -11.51678,-9.686814 -19.25391,-11.267578 z M 45.279297,20.029297 h 47.880859 v 0.34375 h -44.71875 c -6.882354,0 -13.155607,1.094019 -18.302734,5.158203 a 9.0009,9.0009 0 0 0 -0.06055,0.04687 c -5.154313,4.141973 -7.369141,10.853486 -7.369141,17.238281 0,5.579206 2.192588,11.665013 6.767578,15.384766 4.552403,3.700066 10.165022,4.816406 15.94336,4.816406 h 28.755859 c 10.77699,0 17.008136,2.310328 19.384766,4.433594 a 9.0009,9.0009 0 0 0 0.03125,0.02734 c 2.460997,2.178693 4.558594,6.663146 4.558594,15.666015 0,8.936285 -2.153491,13.596664 -5.570313,16.541016 C 89.1805,102.56859 82.27175,104.94922 71.011719,104.94922 H 22.146484 v -0.34375 h 45.419922 c 7.046581,0 12.888889,-0.53879 18.242188,-4.28906 a 9.0009,9.0009 0 0 0 0.0918,-0.0645 c 5.164683,-3.715684 7.539062,-10.285939 7.539062,-16.267575 0,-5.919744 -1.938182,-12.328013 -6.966797,-16.253906 C 81.38329,63.71892 75.620282,63.082031 69.042969,63.082031 h -25.66211 c -10.685194,0 -17.166974,-2.261798 -20.283203,-4.898437 C 20.039103,55.51195 18,51.121353 18,42.535156 c 0,-9.326254 2.227375,-14.232387 5.560547,-17.154297 3.38296,-2.925736 10.323305,-5.351562 21.71875,-5.351562 z m 292.765623,0 h 44.50586 c 11.2662,0 18.15344,2.397102 21.55274,5.318359 a 9.0009,9.0009 0 0 0 0.002,0.002 c 3.41643,2.934917 5.58398,7.623743 5.58398,16.626953 0,6.515029 -1.4166,10.879129 -3.70898,14.050782 a 9.0009,9.0009 0 0 0 -0.0332,0.04687 c -2.23993,3.140427 -5.03317,5.015998 -10.0254,6.085937 a 9.0009,9.0009 0 0 0 -5.83203,13.433594 l 17.62305,29.35547 H 404.4043 L 384.20508,69.066406 a 9.0009,9.0009 0 0 0 -7.8418,-4.583984 h -25.5918 a 9.0009,9.0009 0 0 0 -9,9 v 31.466798 h -3.72656 z m 134.55078,0 h 11.16797 l 36.375,84.919923 h -4.375 L 508.5,86.195312 a 9.0009,9.0009 0 0 0 -8.39258,-5.75 h -44.92773 a 9.0009,9.0009 0 0 0 -8.42578,5.833985 l -7.01758,18.669923 h -3.22461 l 30.84765,-72.599611 -13.55859,35.542969 a 9.0009,9.0009 0 0 0 8.41016,12.208984 h 30.79492 a 9.0009,9.0009 0 0 0 8.36719,-12.3125 L 485.69531,28.162109 a 9.0009,9.0009 0 0 0 -16.45898,-0.228515 z m 272.1836,0 h 47.88086 v 0.34375 h -44.71485 c -6.88235,0 -13.15561,1.094019 -18.30273,5.158203 a 9.0009,9.0009 0 0 0 -0.0605,0.04687 c -5.15509,4.141564 -7.37109,10.853058 -7.37109,17.238281 0,5.579742 2.19374,11.665446 6.76953,15.384766 4.5524,3.700066 10.16307,4.816406 15.9414,4.816406 h 28.75586 c 10.77626,0 17.00799,2.310196 19.38477,4.433594 a 9.0009,9.0009 0 0 0 0.0312,0.02734 c 2.46155,2.1789 4.55859,6.663338 4.55859,15.666015 0,8.934313 -2.15213,13.594443 -5.56836,16.539063 -3.39754,2.883626 -10.30635,5.265626 -21.57031,5.265626 h -48.86328 v -0.34375 h 45.41797 c 7.04658,0 12.88889,-0.53879 18.24219,-4.28906 a 9.0009,9.0009 0 0 0 0.0898,-0.0645 c 5.16537,-3.715197 7.54297,-10.285458 7.54297,-16.267575 0,-5.919747 -1.94013,-12.328014 -6.96875,-16.253906 -5.08935,-4.010373 -10.85238,-4.648438 -17.42969,-4.648438 h -25.66211 c -10.68591,0 -17.16602,-2.262346 -20.28125,-4.898437 -3.05973,-2.6727 -5.09961,-7.063181 -5.09961,-15.648438 0,-9.326254 2.22738,-14.232387 5.56055,-17.154297 3.38309,-2.925847 10.32208,-5.351562 21.7168,-5.351562 z m -194.21875,0.140625 h 22.13281 a 9.0009,9.0009 0 0 0 -8.81641,8.923828 v 75.85547 h -4.5 V 29.09375 a 9.0009,9.0009 0 0 0 -8.8164,-8.923828 z m -199.79102,0.203125 a 9.0009,9.0009 0 0 0 -9,9 v 25.904297 a 9.0009,9.0009 0 0 0 9,9 h 26.64844 c 8.03263,0 14.41591,-0.530049 20.1914,-4.554688 a 9.0009,9.0009 0 0 0 0,-0.002 c 5.61668,-3.914893 8.07227,-10.931738 8.07227,-17.464844 0,-6.450563 -2.40928,-13.402923 -7.97461,-17.292968 -5.81942,-4.153942 -12.1722,-4.589844 -20.28906,-4.589844 z m 301.78516,0.09375 c -6.60473,0.989307 -12.55907,3.478024 -17.1211,7.914062 a 9.0009,9.0009 0 0 0 -0.0391,0.03906 c -6.07182,5.976311 -8.78812,14.464522 -9.2832,23.9375 a 9.0009,9.0009 0 0 0 8.95898,9.46289 h -0.11133 a 9.0009,9.0009 0 0 0 -9,9.046875 c 0.0532,10.210416 2.08668,19.115484 8.19141,25.498047 a 9.0009,9.0009 0 0 0 0.0391,0.04102 c 5.77335,5.9619 14.00737,8.19089 23.27149,8.49219 -6.9904,-0.0699 -12.39376,-0.70759 -15.51172,-1.61133 -3.46971,-1.05254 -6.75652,-2.78448 -10.01172,-5.392579 a 9.0009,9.0009 0 0 0 -0.0332,-0.02734 C 627.87181,94.6686 624.89447,90.649646 622.74023,85.25 c -2.11078,-5.45656 -3.31835,-12.411915 -3.31836,-20.939453 0,-16.897858 3.72215,-27.860757 9.51368,-34.173828 a 9.0009,9.0009 0 0 0 0.0156,-0.01758 c 4.87409,-5.342132 12.45401,-8.67166 23.60352,-9.652344 z m -383.8086,0.107422 c -7.44212,1.623137 -13.99752,5.365945 -18.22656,11.410156 a 9.0009,9.0009 0 0 0 -0.0293,0.04297 c -5.76235,8.334239 -7.5039,19.264279 -7.5039,33.193359 0,12.303715 1.66244,22.187573 7.74219,29.587891 5.86866,7.142356 15.14821,9.936596 25.48632,10.136716 -7.53051,-0.007 -13.19206,-0.71026 -16.46679,-1.66015 -3.46894,-1.05265 -6.75447,-2.78288 -10.00977,-5.390629 a 9.0009,9.0009 0 0 0 -0.0332,-0.02734 c -4.0355,-3.201373 -7.0132,-7.223735 -9.16797,-12.630859 -2.10775,-5.45466 -3.31445,-12.404838 -3.31445,-20.925781 0,-16.897858 3.72214,-27.860757 9.51367,-34.173828 a 9.0009,9.0009 0 0 0 0.0176,-0.01758 c 4.64632,-5.092496 11.69991,-8.388503 21.99218,-9.544922 z m 51.29883,12.955078 v 57.570312 a 9.0009,9.0009 0 0 0 -6.95898,-4.074218 h -35.71875 c -7.83975,0 -11.22845,-1.817363 -12.73047,-3.644532 -1.51359,-1.842348 -3.65039,-7.873204 -3.65039,-18.160156 0,-12.092474 2.18817,-19.866661 4.29687,-22.933594 2.15743,-3.072859 4.99814,-4.683593 12.08399,-4.683593 h 35.71875 a 9.0009,9.0009 0 0 0 6.95898,-4.074219 z m -151.6543,2.113281 c 7.61925,0 11.23697,1.839653 13.92188,5.285156 a 9.0009,9.0009 0 0 0 0.0273,0.03516 c 2.70253,3.432481 4.96289,10.424809 4.96289,21.527343 0,11.050823 -2.24647,18.049056 -4.98437,21.554688 a 9.0009,9.0009 0 0 0 -0.006,0.0078 c -2.68473,3.444873 -6.30242,5.283203 -13.92188,5.283203 -7.74548,0 -11.36527,-1.8571 -13.98437,-5.259765 -2.5918,-3.472109 -4.85742,-10.881535 -4.85742,-22.496094 0,-10.523823 2.17882,-17.165326 4.92773,-20.640625 2.79721,-3.479957 6.46021,-5.296875 13.91406,-5.296875 z m 531.60157,0.361328 c -0.2357,2.143303 -0.49024,4.279525 -0.49024,6.53125 0,1.104154 0.18545,2.130473 0.2461,3.210938 a 9.0009,9.0009 0 0 0 -4.45313,-1.847657 l -49.04883,-0.05664 c 0.54288,-1.048208 1.12616,-1.944496 1.75782,-2.570313 1.93378,-1.869811 5.20075,-3.318359 11.5625,-3.318359 h 35.71679 a 9.0009,9.0009 0 0 0 4.70899,-1.949219 z m -340.22266,2.369141 h 17.64844 c 6.55961,0 10.25756,1.534888 9.85156,1.242187 a 9.0009,9.0009 0 0 0 0.14063,0.09961 c -0.0777,-0.05379 0.27148,-0.41312 0.27148,2.541015 0,2.975687 -0.35277,2.694888 -0.36328,2.697266 0.15016,-0.104639 -3.49702,1.324219 -9.90039,1.324219 h -17.64844 z m 117.71094,17.951172 2.28515,5.777343 h -4.49023 z m 226.80273,6.824218 c 1.719,3.23488 3.76267,6.242922 6.54492,8.658204 a 9.0009,9.0009 0 0 0 0.0606,0.05273 c 7.95707,6.783076 18.90017,9.222656 31.99414,9.222656 h 25.66211 c 4.55666,0 6.63012,1.103387 6.24414,0.775391 0.0548,0.221332 0.1543,0.803373 0.1543,2.126953 0,2.265444 -0.13805,1.707461 -0.0508,1.611328 0.1338,-0.132002 -2.62688,1.009766 -7.82422,1.009766 h -54.41797 a 9.0009,9.0009 0 0 0 -8.76953,8.445312 9.0009,9.0009 0 0 0 -8.59766,-8.02539 h -35.71679 c -7.44577,0 -11.03304,-1.705598 -12.42188,-3.123047 -0.67767,-0.71538 -1.43574,-2.041764 -2.04492,-4.082032 h 50.18359 a 9.0009,9.0009 0 0 0 9,-9 z M 75.298828,81.857422 c -0.0065,-0.0054 0.04488,0.01397 0.03711,0.0078 a 9.0009,9.0009 0 0 0 0.06641,0.05273 c -0.160708,-0.124863 -0.140771,-0.183603 -0.103516,-0.06055 z m 699.509762,0.0039 c -0.006,-0.0046 0.0377,0.011 0.0312,0.0059 a 9.0009,9.0009 0 0 0 0.0664,0.05078 c -0.15129,-0.117544 -0.12703,-0.145381 -0.0977,-0.05664 z" id="path29"/>
        <path style="baseline-shift:baseline;display:inline;overflow:visible;vector-effect:none;fill:#636365;stroke-linecap:round;stroke-linejoin:round;paint-order:markers stroke fill;enable-background:accumulate;stop-color:#000000;stop-opacity:1" d="m 466.64,11.029845 h 23.06 l 44.084,102.920005 h -24.186 l -9.491,-24.505005 h -44.928 l -9.21,24.504005 h -23.061 z m 10.687,20.444 -15.117,39.627 h 30.795 z m 73.05,-2.379999 H 516.981 V 11.169845 h 89.432 v 17.924001 h -33.537 v 84.855004 h -22.499 z m 109.19,-0.14 q -11.812,0 -17.859,5.879999 -5.976,5.882 -6.609,17.994 l 60.185,0.07 v 17.923 h -60.325 q 0.07,13.443 5.695,19.324 5.695,5.881 18.913,5.881 h 35.717 v 17.923005 h -36.772 q -12.163,0 -19.124,-2.03 -6.96,-2.1 -13.077,-7.001 -7.945,-6.302005 -11.953,-16.383005 -3.937,-10.152 -3.937,-24.225 0,-27.305 11.882,-40.257 11.882,-13.023 36.842,-13.023 h 36.139 v 17.924001 z m 142.093,0.42 h -53.715 q -8.648,0 -12.726,3.219999 -4.008,3.22 -4.008,10.222 0,5.601 3.446,8.402 3.445,2.8 10.265,2.8 h 28.756 q 17.858,0 25.381,6.721 7.594,6.722 7.594,22.405 0,15.893 -8.719,23.384005 -8.718,7.421 -27.42,7.421 H 712.65 V 95.605845 h 54.419 q 9.28,0 13.077,-2.66 3.797,-2.731 3.797,-8.962 0,-6.441 -3.515,-9.172 -3.446,-2.73 -11.883,-2.73 h -25.662 q -17.859,0 -26.155,-7.072 -8.226,-7.141 -8.226,-22.474 0,-16.383 8.648,-23.944001 8.718,-7.561999 27.63,-7.561999 h 56.88 z m -699.5,0 H 48.442 q -8.648,0 -12.726,3.219999 -4.007,3.22 -4.007,10.222 0,5.601 3.445,8.402 3.445,2.8 10.265,2.8 h 28.756 q 17.859,0 25.382,6.721 7.593,6.722 7.593,22.405 0,15.893 -8.718,23.384005 -8.719,7.421 -27.42,7.421 H 13.147 V 95.605845 h 54.42 q 9.28,0 13.077,-2.66 3.796,-2.731 3.796,-8.962 0,-6.441 -3.515,-9.172 -3.445,-2.73 -11.882,-2.73 H 43.38 q -17.858,0 -26.155,-7.072 -8.225,-7.14 -8.225,-22.474 0,-16.383 8.648,-23.944001 8.718,-7.561999 27.631,-7.561999 h 56.88 z m 14.623,32.065999 q 0,-26.535 12.726,-39.488 12.796,-12.9520007 38.881,-12.9520007 26.296,0 38.882,13.0920007 12.655,13.093 12.655,40.398 0,27.305 -12.655,40.467005 -12.586,13.163 -38.881,13.163 -26.577,0 -39.092,-13.233 -12.515,-13.232005 -12.515,-41.447005 z m 51.607,-34.797 q -13.992,0 -20.952,8.682 -6.89,8.681 -6.89,26.255 0,19.043 6.679,27.935 6.75,8.821 21.163,8.821 14.202,0 21.022,-8.751 6.89,-8.822 6.89,-27.095 0,-18.344 -6.89,-27.095 -6.82,-8.752 -21.022,-8.752 z m 108.978,1.961001 q -13.499,0 -19.475,8.540999 -5.906,8.542 -5.906,28.075 0,16.943 5.695,23.875 5.695,6.931 19.686,6.931 h 35.717 v 17.923005 h -36.771 q -12.164,0 -19.124,-2.03 -6.96,-2.1 -13.078,-7.001 -7.944,-6.302005 -11.952,-16.383005 -3.937,-10.152 -3.937,-24.225 0,-27.305 11.882,-40.257 11.882,-13.023 36.842,-13.023 h 36.138 v 17.574001 z m 100.05,0.77 H 350.77 v 25.903999 h 26.647 q 10.827,0 15.046,-2.94 4.218,-2.94 4.218,-10.082 0,-7.071 -4.148,-9.942 -4.078,-2.939999 -15.116,-2.939999 z M 329.045,11.029845 h 53.505 q 18.702,0 27.42,7.491999 8.72,7.491001 8.72,23.454001 0,11.832 -5.415,19.324 -5.343,7.491 -15.468,9.661 l 25.804,42.988005 h -24.468 l -22.78,-40.467005 h -25.592 v 40.467005 h -21.726 z" id="path30"/>
    </g>
</svg>
