<?xml version='1.0' encoding='utf-8'?>
<svg xmlns="http://www.w3.org/2000/svg" width="600" height="140.97994178521023" viewBox="0 0 994.06354 233.5717" version="1.1" id="svg1" xml:space="preserve">
    <defs id="defs1">
        <mask maskUnits="userSpaceOnUse" x="0" y="0.2" width="807.3" height="807.2" id="b_3_">
            <g class="st3" id="g1">
                <path id="a_3_" class="st4" d="M 807.2,807.4 H 0 V 0.2 h 807.2 z"/>
            </g>
        </mask>
        <filter id="Adobe_OpacityMaskFilter" filterUnits="userSpaceOnUse" x="0" y="0.2" width="807.29999" height="807.20001">
            <feColorMatrix type="matrix" values="1 0 0 0 0  0 1 0 0 0  0 0 1 0 0  0 0 0 1 0" id="feColorMatrix1"/>
        </filter>
    </defs>
    <g id="g6" style="display:inline;stroke:#ffffff;stroke-width:20;stroke-linecap:round;stroke-linejoin:round;stroke-dasharray:none;stroke-opacity:1;paint-order:markers stroke fill" transform="translate(10,10)">
        <g id="path11" style="opacity:1">
            <path style="baseline-shift:baseline;clip-rule:evenodd;display:none;overflow:visible;vector-effect:none;fill:#ffffff;fill-rule:evenodd;stroke:none;enable-background:accumulate;stop-color:#000000;stop-opacity:1" d="M 54.769531,-10 C 19.12667,-10 -10,19.093489 -10,54.742187 V 158.80273 c 0,35.6487 29.120835,64.76954 64.769531,64.76954 h 46.671879 c 6.12565,0 11.56054,-5.43693 11.56054,-11.5625 V 211.98437 1.5605469 C 113.00195,-4.5650274 107.56698,-10 101.44141,-10 Z m 71.013669,0 c -6.05464,0 -11.18185,4.9806664 -11.39648,10.9921875 a 10.001,10.001 0 0 0 -0.006,0.3574219 V 1.375 211.98437 c 0,6.32766 5.08886,11.5879 11.56055,11.5879 h 32.86132 c 35.6487,0 64.76954,-29.12084 64.76954,-64.76954 V 54.742187 C 223.57227,19.093489 194.4456,-10 158.80273,-10 Z M 54.769531,10 H 93.001953 V 203.57227 H 54.769531 C 29.934487,203.57227 10,183.63778 10,158.80273 V 54.742187 C 10,29.90714 29.928652,10 54.769531,10 Z m 79.611329,0 h 24.42187 c 24.84088,0 44.76954,19.90714 44.76954,44.742187 V 158.80273 c 0,24.83505 -19.93449,44.76954 -44.76954,44.76954 h -24.42187 z" id="path3"/>
            <path style="baseline-shift:baseline;clip-rule:evenodd;display:none;overflow:visible;vector-effect:none;fill:#ffffff;fill-rule:evenodd;stroke:none;enable-background:accumulate;stop-color:#000000;stop-opacity:1" d="M 101.44125,0 H 54.76875 C 24.52688,0 0,24.50041 0,54.742283 V 158.80291 c 0,30.24187 24.52688,54.76875 54.76875,54.76875 h 46.6725 c 0.87313,0 1.56104,-0.68792 1.56104,-1.56105 V 211.98416 1.56104 C 103.00229,0.68791 102.31438,0 101.44125,0 Z m 24.50042,213.57166 h 32.86125 c 30.24187,0 54.76875,-24.52688 54.76875,-54.76875 V 54.742283 C 213.57167,24.50041 189.04479,0 158.80292,0 h -33.02 c -0.76729,0 -1.37584,0.60854 -1.40229,1.34937 v 0.0265 210.60833 c 0,0.87312 0.71437,1.5875 1.56104,1.5875 z" id="path4"/>
        </g>
        <g id="path2" style="opacity:1">
            <path style="baseline-shift:baseline;clip-rule:evenodd;display:inline;overflow:visible;vector-effect:none;fill:#ffffff;fill-rule:evenodd;stroke:none;enable-background:accumulate;stop-color:#000000;stop-opacity:1" d="M 54.769531,-10 C 19.126669,-10 -10,19.093488 -10,54.742187 V 158.80273 c 0,35.6487 29.120834,64.76954 64.769531,64.76954 h 46.671879 c 6.12565,0 11.56054,-5.43693 11.56054,-11.5625 V 211.98437 1.5605469 C 113.00195,-4.5650274 107.56698,-10 101.44141,-10 Z m 37.746094,20 h 0.486328 v 0.560547 A 10.001,10.001 0 0 0 92.515625,10 Z M 54.714844,27.197266 a 10.001,10.001 0 0 0 0.02734,0 H 75.751953 V 186.34766 H 54.769531 a 10.001,10.001 0 0 0 -0.02734,0 c -7.323049,0.0194 -14.295129,-2.86168 -19.453125,-8.03907 a 10.001,10.001 0 0 0 -0.04102,-0.0391 c -5.161704,-5.12304 -8.07016,-12.13413 -8.050781,-19.43945 a 10.001,10.001 0 0 0 0,-0.0274 V 54.742187 c 0,-7.424371 2.821106,-14.21749 8.064453,-19.480468 5.166794,-5.186227 12.14776,-8.083832 19.453125,-8.064453 z M 21.121094,192.42578 c 0.0066,0.007 0.01488,0.011 0.02148,0.0176 0.0066,0.007 0.01095,0.0149 0.01758,0.0215 z m 71.880859,10.41406 v 0.73243 h -0.693359 a 10.001,10.001 0 0 0 0.693359,-0.73243 z" id="path7"/>
            <path style="baseline-shift:baseline;clip-rule:evenodd;display:inline;overflow:visible;vector-effect:none;fill:#00c6e3;fill-rule:evenodd;stroke:none;enable-background:accumulate;stop-color:#000000;stop-opacity:1" d="M 101.44125,0 H 54.768751 C 24.52688,0 0,24.50041 0,54.742284 V 158.80291 c 0,30.24187 24.52688,54.76875 54.768751,54.76875 h 46.672499 c 0.87313,0 1.56104,-0.68792 1.56104,-1.56105 V 211.98416 1.56104 C 103.00229,0.68791 102.31438,0 101.44125,0 Z M 85.804381,196.34728 H 54.768751 C 44.79396,196.37374 35.2425,192.43145 28.20458,185.36707 21.14021,178.35561 17.17146,168.7777 17.19792,158.80291 V 54.742284 c 0,-10.027711 3.91583,-19.446874 10.98021,-26.537704 C 35.21604,21.1402 44.7675,17.17145 54.742291,17.19791 h 31.00917 v 179.14937 z" id="path8"/>
        </g>
        <g id="path1" style="opacity:1">
            <path style="baseline-shift:baseline;clip-rule:evenodd;display:inline;overflow:visible;vector-effect:none;fill:#ffffff;fill-rule:evenodd;stroke:none;enable-background:accumulate;stop-color:#000000;stop-opacity:1" d="m 53.314453,33.974609 c -16.482228,0 -30.056641,13.584323 -30.056641,30.080078 0,16.495745 13.586287,30.082032 30.082032,30.082032 16.495744,0 30.082031,-13.586281 30.082031,-30.082032 0,-16.495755 -13.586286,-30.080078 -30.082031,-30.080078 z m 0,20 h 0.02539 c 5.676335,0 10.082031,4.403734 10.082031,10.080078 0,5.67633 -4.405696,10.082032 -10.082031,10.082032 -5.676337,0 -10.082032,-4.405696 -10.082032,-10.082032 0,-5.676344 4.419707,-10.080078 10.056641,-10.080078 z" id="path9"/>
            <path style="baseline-shift:baseline;clip-rule:evenodd;display:inline;overflow:visible;vector-effect:none;fill:#29c6e5;fill-rule:evenodd;stroke:none;enable-background:accumulate;stop-color:#000000;stop-opacity:1" d="m 33.25813,64.055624 c 0,11.08604 8.99583,20.08187 20.081871,20.08187 11.08604,0 20.08188,-8.99583 20.08188,-20.08187 0,-11.08605 -8.99584,-20.081881 -20.08188,-20.081881 h -0.0265 c -11.059581,0 -20.055421,8.995831 -20.055421,20.081881 z" id="path10"/>
        </g>
        <g id="path5" style="opacity:1">
            <path style="baseline-shift:baseline;clip-rule:evenodd;display:inline;overflow:visible;vector-effect:none;fill:#ffffff;fill-rule:evenodd;stroke:none;enable-background:accumulate;stop-color:#000000;stop-opacity:1" d="m 125.7832,-10 c -6.05464,0 -11.18185,4.9806664 -11.39648,10.9921875 a 10.001,10.001 0 0 0 -0.006,0.3574219 V 1.375 211.98437 c 0,6.32766 5.08886,11.5879 11.56055,11.5879 h 32.86132 c 35.6487,0 64.76954,-29.12084 64.76954,-64.76954 V 54.742187 C 223.57227,19.093489 194.4456,-10 158.80273,-10 Z m 8.59766,20 h 24.42187 c 24.84088,0 44.76954,19.90714 44.76954,44.742187 V 158.80273 c 0,24.83505 -19.93449,44.76954 -44.76954,44.76954 h -24.42187 z m 32.04883,75.861328 c -16.84823,0.346204 -30.57498,14.11587 -30.95899,30.935552 a 10.001,10.001 0 0 0 0,0.0293 c -0.34586,17.33146 13.62731,31.89034 30.96485,32.23633 a 10.001,10.001 0 0 0 0.40429,0 c 16.84792,-0.3462 30.61279,-14.11106 30.95899,-30.95898 a 10.001,10.001 0 0 0 0,-0.006 c 0.34585,-17.33145 -13.6273,-31.890343 -30.96485,-32.236332 a 10.001,10.001 0 0 0 -0.40429,0 z m 0.20117,20.039062 c 6.42292,0.23568 11.29875,5.33306 11.17187,11.79492 -0.12954,6.25537 -4.94511,11.09059 -11.16796,11.32813 -6.41813,-0.23756 -11.28847,-5.33055 -11.16602,-11.78711 0.15259,-6.27364 4.94758,-11.09662 11.16211,-11.33594 z" id="path12"/>
            <path style="baseline-shift:baseline;clip-rule:evenodd;display:inline;overflow:visible;vector-effect:none;fill:#e60012;fill-rule:evenodd;stroke:none;enable-background:accumulate;stop-color:#000000;stop-opacity:1" d="m 125.94167,213.57166 h 32.86125 c 30.24187,0 54.76875,-24.52688 54.76875,-54.76875 V 54.742283 C 213.57167,24.50041 189.04479,0 158.80292,0 h -33.02 c -0.76729,0 -1.37584,0.60854 -1.40229,1.34937 v 0.0265 210.60833 c 0,0.87312 0.71437,1.5875 1.56104,1.5875 z M 166.63458,95.858533 c 11.93271,0.23813 21.40479,10.107087 21.16667,22.039787 -0.23813,11.58875 -9.57792,20.92854 -21.16667,21.16667 -11.9327,-0.23813 -21.40479,-10.10708 -21.16666,-22.03979 0.26458,-11.58875 9.57791,-20.928537 21.16666,-21.166667 z" id="path13"/>
        </g>
        <g id="path6" class="st2" style="opacity:1">
            <path style="baseline-shift:baseline;clip-rule:evenodd;display:inline;overflow:visible;vector-effect:none;fill:#ffffff;fill-rule:evenodd;stroke:none;enable-background:accumulate;stop-color:#000000;stop-opacity:1" d="m 942.31445,-7.3847656 c -22.92516,0 -41.72461,18.8440076 -41.72461,41.7773436 0,22.951631 18.79945,41.802734 41.72461,41.802734 22.94342,0 41.75,-18.851103 41.75,-41.802734 0,-22.933336 -18.80658,-41.7773436 -41.75,-41.7773436 z m -671.43359,1.984375 a 10.001,10.001 0 0 0 -10,10 V 64.183594 a 10.001,10.001 0 0 0 10,10 h 12.06445 a 10.001,10.001 0 0 0 10,-10.00586 l -0.006,-9.576172 L 304.5,70.150391 a 10.001,10.001 0 0 0 8.02539,4.033203 h 11.74805 a 10.001,10.001 0 0 0 10,-10 V 4.5996094 a 10.001,10.001 0 0 0 -10,-10 h -12.0918 a 10.001,10.001 0 0 0 -10,10 v 9.0839846 l -11.2832,-15.0761721 a 10.001,10.001 0 0 0 -8.00586,-4.0078125 z m 98.29297,0 a 10.001,10.001 0 0 0 -10,10 V 64.183594 a 10.001,10.001 0 0 0 10,10 h 13.25586 a 10.001,10.001 0 0 0 10,-10 V 4.5996094 a 10.001,10.001 0 0 0 -10,-10 z m 58.20703,0 a 10.001,10.001 0 0 0 -10,10 V 64.183594 a 10.001,10.001 0 0 0 10,10 h 12.06641 a 10.001,10.001 0 0 0 10,-10 v -9.609375 l 11.58203,15.576172 a 10.001,10.001 0 0 0 8.02343,4.033203 h 11.77539 a 10.001,10.001 0 0 0 10,-10 V 4.5996094 a 10.001,10.001 0 0 0 -10,-10 h -12.09179 a 10.001,10.001 0 0 0 -10,10 v 9.1074216 l -11.3125,-15.1015622 a 10.001,10.001 0 0 0 -8.00391,-4.0058594 z m 95.83203,0 a 10.001,10.001 0 0 0 -10,10 V 17.248047 a 10.001,10.001 0 0 0 10,10 h 9.05078 v 36.935547 a 10.001,10.001 0 0 0 10,10 h 12.83203 a 10.001,10.001 0 0 0 10,-10 V 27.248047 h 8.59961 a 10.001,10.001 0 0 0 10,-10 V 4.5996094 a 10.001,10.001 0 0 0 -10,-10 z m 140.41016,0 -46.33008,0.027344 a 10.001,10.001 0 0 0 -9.99414,10 V 64.183594 a 10.001,10.001 0 0 0 10.00586,10 l 46.32812,-0.02539 a 10.001,10.001 0 0 0 9.99414,-10 V 53.150391 a 10.001,10.001 0 0 0 -5.05664,-7.953125 10.001,10.001 0 0 0 2.49024,-6.015625 V 28.412109 a 10.001,10.001 0 0 0 -2.09766,-5.068359 10.001,10.001 0 0 0 4.66406,-7.789062 V 4.5996094 a 10.001,10.001 0 0 0 -10.0039,-10 z m 49.37695,0 a 10.001,10.001 0 0 0 -10,10 V 64.183594 a 10.001,10.001 0 0 0 10,10 h 12.06445 a 10.001,10.001 0 0 0 10,-10 v -9.587891 l 11.55274,15.552734 a 10.001,10.001 0 0 0 8.02734,4.035157 h 11.77344 a 10.001,10.001 0 0 0 10,-10 V 4.5996094 a 10.001,10.001 0 0 0 -10,-10 h -12.0918 a 10.001,10.001 0 0 0 -10,10 v 9.0839846 l -11.2832,-15.0761721 a 10.001,10.001 0 0 0 -8.00586,-4.0078125 z m 103.79492,0 a 10.001,10.001 0 0 0 -10,10 V 64.183594 a 10.001,10.001 0 0 0 10,10 h 24.63281 c 22.17286,0 40.63423,-17.784576 40.63868,-39.783203 0.0309,-22.018016 -18.46582,-39.8007816 -40.63868,-39.8007816 z M 942.30078,25.847656 c 4.85004,0.01988 8.5124,3.691035 8.53125,8.558594 -0.007,4.830479 -3.67561,8.499989 -8.51758,8.527344 -4.80774,-0.02641 -8.49609,-3.702735 -8.49609,-8.541016 0,-4.784896 3.75729,-8.537289 8.48242,-8.544922 z m -103.25586,1.267578 h 2.96289 c 4.13273,0.0115 7.2793,3.159749 7.2793,7.277344 0,4.136115 -3.10533,7.265785 -7.2793,7.277344 h -2.96289 z m -43.8789,53.871094 c -38.51276,0.0075 -69.99415,31.490102 -69.99415,69.982422 0,38.49691 31.48878,69.98047 70.00782,69.98047 23.38903,0 45.07743,-11.6047 58.09179,-30.95703 a 10.001,10.001 0 0 0 -1.74023,-13.13086 L 833.2207,160.95898 a 10.001,10.001 0 0 0 -15.16406,2.45899 c -4.48039,7.57354 -13.08385,12.52734 -22.24219,12.52734 -14.33777,0 -25.64062,-11.20531 -25.64062,-25.0039 0,-13.76458 11.30286,-24.97852 25.64062,-24.97852 9.14444,0 17.7672,4.98155 22.24805,12.53711 a 10.001,10.001 0 0 0 15.15234,2.45508 l 18.3086,-15.875 a 10.001,10.001 0 0 0 1.76172,-13.11524 C 840.32177,92.581487 818.50093,80.960057 795.17969,80.986328 Z M 316.9707,83.103516 c -13.7711,0 -27.80502,3.178789 -39.3164,10.097656 -11.51139,6.918868 -20.79493,18.798068 -20.79493,33.689458 0,11.24119 5.06597,22.11841 14.43165,28.9082 9.36567,6.78979 21.85502,10.50343 38.67187,13.38672 11.36056,1.95743 19.99097,3.60384 24.22656,5.21289 1.55858,0.59208 1.76932,0.84202 2.06055,1.04492 -0.15999,0.16387 -0.23337,0.27913 -0.8457,0.69922 -1.76975,1.21413 -7.22584,3.42773 -18.85743,3.42773 -18.19768,0 -31.0046,-6.66117 -35.00585,-9.07031 a 10.001,10.001 0 0 0 -13.90625,3.72266 L 257,193.43164 a 10.001,10.001 0 0 0 4.0957,13.69531 c 6.55671,3.44608 26.90776,13.05469 53.81055,13.05469 19.03968,0 34.54794,-3.10241 46.22852,-10.75781 11.67737,-7.65331 18.43184,-20.65213 18.43554,-35.05469 0.0141,-7.93912 -2.15605,-19.20346 -11.61328,-27.50391 -9.45921,-8.30219 -24.18565,-13.91018 -48.85742,-17.96093 -7.04705,-1.1611 -12.4087,-2.46077 -15.67383,-3.66407 3.06612,-0.97624 8.22619,-1.79101 14.68359,-1.79101 12.03771,0 25.86683,5.0085 30.55274,6.95898 a 10.001,10.001 0 0 0 13.08984,-5.42773 l 7.99024,-19.41992 A 10.001,10.001 0 0 0 364.18555,92.460937 C 357.8408,89.940832 339.03637,83.103516 316.9707,83.103516 Z m 65.45899,1.535156 a 10.001,10.001 0 0 0 -9.62305,12.722656 l 31.80273,112.394532 a 10.001,10.001 0 0 0 9.62305,7.27734 h 27.01367 a 10.001,10.001 0 0 0 9.62305,-7.27929 l 11.28125,-39.9043 11.2207,39.89062 a 10.001,10.001 0 0 0 9.625,7.29297 h 27.1211 a 10.001,10.001 0 0 0 9.61718,-7.26562 l 31.9629,-112.394533 a 10.001,10.001 0 0 0 -9.61915,-12.734375 h -24.44726 a 10.001,10.001 0 0 0 -9.66406,7.429687 L 495.49219,138.96875 481.75,91.837891 a 10.001,10.001 0 0 0 -9.60156,-7.199219 h -19.94922 a 10.001,10.001 0 0 0 -9.59961,7.197265 L 428.93555,138.65039 416.53906,92.066406 a 10.001,10.001 0 0 0 -9.66211,-7.427734 z m 187.58789,0 a 10.001,10.001 0 0 0 -10,10 V 207.0332 a 10.001,10.001 0 0 0 10,10 h 25.0039 a 10.001,10.001 0 0 0 10,-10 V 94.638672 a 10.001,10.001 0 0 0 -10,-10 z m 52.4414,0 a 10.001,10.001 0 0 0 -10,10 v 23.865238 a 10.001,10.001 0 0 0 10,10 h 25.9043 v 78.52929 a 10.001,10.001 0 0 0 10,10 h 24.18164 a 10.001,10.001 0 0 0 10,-10 v -78.52929 h 25.11133 a 10.001,10.001 0 0 0 10,-10 V 94.638672 a 10.001,10.001 0 0 0 -10,-10 z m 248.20508,0 a 10.001,10.001 0 0 0 -10,10 V 207.0332 a 10.001,10.001 0 0 0 10,10 h 23.25781 a 10.001,10.001 0 0 0 10,-10 v -34.82031 h 32.4668 v 34.82031 a 10.001,10.001 0 0 0 10,10 h 23.25586 a 10.001,10.001 0 0 0 10,-10 V 94.638672 a 10.001,10.001 0 0 0 -10,-10 h -23.25586 a 10.001,10.001 0 0 0 -10,10 v 34.316408 h -32.4668 V 94.638672 a 10.001,10.001 0 0 0 -10,-10 z m -75.48437,16.347658 a 10.001,10.001 0 0 0 0.0117,0 c 13.71531,-0.0181 26.59442,5.64367 35.9082,15.33008 l -3.12891,2.71484 c -8.43701,-8.2363 -19.94983,-13.06836 -32.15625,-13.06836 -24.97931,0 -45.64062,20.16685 -45.64062,44.97852 0,24.83056 20.66131,45.0039 45.64062,45.0039 12.19407,0 23.71472,-4.81509 32.15625,-13.05664 l 3.13282,2.7207 c -9.32476,9.72587 -22.07724,15.33985 -35.92383,15.33985 -27.67971,0 -50.00782,-22.33156 -50.00782,-49.98047 0,-27.64892 22.32811,-49.98242 50.00782,-49.98242 z m -478.20899,2.11719 c 11.50755,0 22.35946,2.48324 30.1875,4.7832 l -0.25781,0.62695 c -7.49411,-2.46985 -17.62168,-5.06445 -28.79102,-5.06445 -4.16946,0 -8.13571,0.19068 -11.92382,0.68555 3.55959,-0.60498 7.18098,-1.03125 10.78515,-1.03125 z m 78.67969,1.53515 h 3.53906 l 19.63867,73.79883 a 10.001,10.001 0 0 0 19.26368,0.22852 l 21.60547,-74.02735 h 4.95117 l 21.68554,74.36914 a 10.001,10.001 0 0 0 19.26563,-0.22851 l 19.71875,-74.14063 h 3.51953 l -26.27344,92.39453 h -11.99218 l -18.77149,-66.73828 a 10.001,10.001 0 0 0 -19.25,-0.0137 l -18.86914,66.75195 h -11.88672 z m 184.36719,0 h 5.0039 v 92.39453 h -5.0039 z m 52.4414,0 h 75.19727 v 3.86524 h -25.11133 a 10.001,10.001 0 0 0 -10,10 v 78.52929 h -4.18164 v -78.52929 a 10.001,10.001 0 0 0 -10,-10 h -25.9043 z m 248.20508,0 h 3.25781 v 34.31641 a 10.001,10.001 0 0 0 10,10 h 52.4668 a 10.001,10.001 0 0 0 10,-10 v -34.31641 h 3.25586 v 92.39453 h -3.25586 v -34.82031 a 10.001,10.001 0 0 0 -10,-10 h -52.4668 a 10.001,10.001 0 0 0 -10,10 v 34.82031 h -3.25781 z m -588.31054,3.56055 c -2.54201,1.27533 -5.00168,2.82764 -7.06446,5.20703 -2.75135,3.17366 -4.51172,7.7248 -4.51172,12.13477 0,4.20094 1.80945,8.59673 4.42774,11.53125 2.61828,2.93451 5.68576,4.69645 8.83398,6.07226 6.29646,2.75162 13.44445,4.11408 21.8086,5.49219 a 10.001,10.001 0 0 0 0.006,0.002 c 22.86984,3.75437 34.20371,9.12534 38.9121,13.25781 4.7084,4.13248 4.81575,6.75487 4.80469,12.44141 a 10.001,10.001 0 0 0 0,0.0195 c 0,9.03482 -2.69047,13.94348 -9.39844,18.33985 -6.70796,4.39637 -18.53363,7.48437 -35.26562,7.48437 -14.55408,0 -26.76725,-3.5574 -35.06055,-6.72266 l 0.69727,-1.25976 c 8.31483,3.58561 20.42093,7.37109 36.0039,7.37109 13.98008,0 23.40882,-2.29577 30.17188,-6.93554 6.76306,-4.63978 9.60031,-12.02709 9.79883,-17.06446 a 10.001,10.001 0 0 0 0.002,-0.043 c 0.161,-4.58238 -1.60593,-9.69672 -4.67578,-13.10156 -3.06985,-3.40484 -6.75104,-5.28039 -10.55273,-6.72461 -7.60338,-2.88843 -16.5768,-4.26885 -27.93946,-6.22656 a 10.001,10.001 0 0 0 -0.01,-0.002 c -15.43585,-2.64651 -25.34243,-6.26352 -30.31055,-9.86524 -4.96812,-3.60172 -6.17188,-6.17799 -6.17188,-12.71679 0,-7.04258 3.62715,-12.05559 11.09961,-16.54688 1.32309,-0.79524 2.87135,-1.46417 4.39454,-2.14453 z m 44.17968,66.58398 c -0.002,0.0531 0.0101,0.077 0.0293,0.11133 -0.004,0.008 -0.0305,-0.0898 -0.0312,-0.0684 z" id="path14"/>
            <path style="baseline-shift:baseline;clip-rule:evenodd;display:inline;overflow:visible;vector-effect:none;fill-rule:evenodd;stroke:none;enable-background:accumulate;stop-color:#000000;stop-opacity:1" d="m 842.03645,51.669683 h -12.99104 v -34.55458 h 12.99104 c 9.525,0.0265 17.25083,7.75229 17.25083,17.27729 0,9.525 -7.69937,17.25084 -17.25083,17.27729 z M 841.42791,4.6003133 H 816.7952 V 64.184483 h 24.63271 c 16.90687,0 30.63875,-13.36146 30.63875,-29.79209 0.0264,-16.43062 -13.73188,-29.7920797 -30.63875,-29.7920797 z M 795.81374,115.96343 c 12.7,0 24.52687,6.77334 30.85042,17.43605 l 18.30916,-15.875 c -11.1125,-16.61584 -29.79208,-26.564167 -49.79458,-26.537707 -33.09937,0 -60.0075,26.908117 -60.0075,59.981037 0,33.07291 26.90813,59.98104 60.0075,59.98104 20.10833,0 38.60271,-9.89542 49.79458,-26.53771 l -18.30916,-15.90146 c -6.32355,10.68917 -18.15042,17.43604 -30.85042,17.43604 -19.65854,0 -35.63937,-15.68979 -35.63937,-35.00437 0,-19.28812 15.98083,-34.97792 35.63937,-34.97792 z m -173.355,2.54 h 35.90396 v 88.52959 h 24.18292 v -88.52959 h 35.1102 V 94.638023 h -95.19708 z m 323.92937,20.4523 H 893.92124 V 94.638023 H 870.66436 V 207.03302 h 23.25688 V 162.2126 h 52.46687 v 44.82042 h 23.25688 V 94.638023 h -23.25688 z m -4.07458,-86.016047 c -10.21292,-0.0265 -18.49437,-8.30791 -18.49437,-18.54729 0,-10.21291 8.30791,-18.54729 18.49437,-18.54729 10.23937,0.0265 18.49437,8.30792 18.52083,18.54729 0,10.23938 -8.28146,18.52084 -18.52083,18.54729 z m 0,-50.3237397 c -17.48896,0 -31.72354,14.2610397 -31.72354,31.7764497 0,17.54188 14.23458,31.80292 31.72354,31.80292 17.51542,0 31.75,-14.26104 31.75,-31.80292 0,-17.51541 -14.23458,-31.7764497 -31.75,-31.7764497 z M 663.62791,53.151353 h -34.21063 v -13.97 h 31.64417 v -10.76854 h -31.64417 v -12.85875 h 34.21063 V 4.6003133 l -46.32854,0.0265 V 64.184523 l 46.32854,-0.0265 z m 102.79062,11.03313 V 4.6003133 H 754.32707 V 43.732183 L 725.0377,4.6003133 H 712.99916 V 64.184483 h 12.065 v -39.81979 l 29.58041,39.81979 z m -397.24541,0 h 13.25563 V 4.6003133 h -13.25563 z m -51.69958,74.586037 c -16.21896,-2.67229 -26.69646,-5.68854 -26.69646,-13.22917 0,-8.75771 11.66812,-12.09146 27.33146,-12.09146 14.57854,0 29.18354,5.55625 34.39583,7.72584 l 7.99042,-19.42042 c -5.66209,-2.248957 -23.60084,-8.651877 -43.52396,-8.651877 -24.28875,0 -50.11208,11.853337 -50.11208,33.787297 0,17.78 12.54125,26.90812 44.79395,32.43791 22.72771,3.91584 35.21605,6.05896 34.87209,15.84854 -0.21167,5.37104 -4.36563,14.39334 -29.97729,14.39334 -20.61104,0 -35.11021,-7.46125 -40.16375,-10.50396 l -10.63625,19.20875 c 5.68854,2.98979 24.68562,11.90625 49.15958,11.90625 35.77167,0 54.66292,-12.3825 54.66292,-35.82459 0.0265,-13.62604 -4.55084,-27.78124 -52.09646,-35.58645 z M 495.93499,176.20906 472.14895,94.638023 H 452.19937 L 428.4927,175.8651 406.87624,94.638023 h -24.44749 l 31.80291,112.394997 h 27.01396 l 20.92854,-74.03042 20.82271,74.03042 h 27.11979 L 542.07833,94.638023 h -24.4475 z m -56.48854,-151.844367 29.60688,39.81979 h 11.77396 V 4.6003133 H 468.73583 V 43.732183 L 439.41999,4.6003133 H 427.38145 V 64.184483 h 12.065 z M 570.01833,207.03302 h 25.00312 V 94.638023 H 570.01833 Z M 573.69603,4.6003133 H 523.21354 V 17.247393 h 19.04999 v 46.93709 h 12.8323 v -46.93709 h 18.6002 z m -290.77708,19.7643797 29.60688,39.81979 h 11.7475 V 4.6003133 H 312.18187 V 43.732183 L 282.8925,4.6003133 H 270.88041 V 64.184483 h 12.065 z" id="path15"/>
        </g>
    </g>
</svg>
