<?xml version='1.0' encoding='utf-8'?>
<svg xmlns="http://www.w3.org/2000/svg" xml:space="preserve" width="600" height="266.55980977597807" viewBox="0 0 850.7634 377.96549" version="1.1" id="svg8">
    <defs id="defs8"/>
    <g style="display:inline;fill:#6b4386;fill-opacity:1" id="g1" transform="translate(16.498359,16.496276)">
        
    </g>
    <g style="fill:#6b4386;fill-opacity:1" id="g2" transform="translate(16.498359,16.496276)">
        
    </g>
    <g style="fill:#6b4386;fill-opacity:1" id="g5" transform="translate(16.498359,16.496276)">
        
        
        
    </g>
    <g style="display:inline;fill:#6b4386;fill-opacity:1" id="g6" transform="translate(16.498359,16.496276)">
        
    </g>
    <g style="display:inline;fill:#6b4386;fill-opacity:1" id="g7" transform="translate(16.498359,16.496276)">
        
    </g>
    <g style="display:inline;fill:#6b4386;fill-opacity:1" id="g8" transform="translate(16.498359,16.496276)">
        <g id="path8" style="opacity:1" transform="matrix(1.33333,0,0,-1.33333,-139.358,567.534)">
            <path style="baseline-shift:baseline;display:inline;overflow:visible;vector-effect:none;fill:#ffffff;stroke-linecap:round;stroke-linejoin:round;paint-order:markers stroke fill;enable-background:accumulate;stop-color:#000000;stop-opacity:1" d="m 265.44141,154.54883 a 12.376287,12.376287 0 0 0 -10.7168,18.56445 l 26.32422,45.58399 c -0.48448,0.46739 -0.9022,0.99268 -1.32422,1.51757 -0.67178,-2.48815 -1.87773,-5.09632 -4.13867,-7.27148 -3.86872,-3.72194 -8.63768,-4.46289 -11.87891,-4.46289 h -10.59375 c -2.55493,0 -5.98144,0.5198 -9.18945,2.46094 a 12.376287,12.376287 0 0 0 -5.94141,-2.46094 h -13.59765 -0.002 c -2.7542,2.1e-4 -6.08662,0.56063 -9.24023,2.38281 a 12.376287,12.376287 0 0 0 -5.75391,-2.38281 h -4.58594 a 12.376287,12.376287 0 0 0 -2.59961,1.07617 12.376287,12.376287 0 0 0 -3.24609,-1.07617 h -4.53516 a 12.376287,12.376287 0 0 0 -3.23046,1.07031 12.376287,12.376287 0 0 0 -2.58008,-1.07031 h -4.62305 a 12.376287,12.376287 0 0 0 -5.67578,2.35156 12.376287,12.376287 0 0 0 -5.67773,-2.35156 h -4.76172 a 12.376287,12.376287 0 0 0 -5.0918,2.10937 12.376287,12.376287 0 0 0 -5.0918,-2.10937 h -4.76172 a 12.376287,12.376287 0 0 0 -5.78906,2.39844 12.376287,12.376287 0 0 0 -5.78906,-2.39844 h -4.98633 a 12.376287,12.376287 0 0 0 -6.16016,1.79883 12.376287,12.376287 0 0 0 -4.34765,-1.79883 h -4.42383 a 12.376287,12.376287 0 0 0 -12.375,12.375 v 17.83594 a 12.376287,12.376287 0 0 0 12.375,12.375 h 1.03711 v 37.58789 h -17.94922 a 12.376287,12.376287 0 0 0 -12.374999,12.375 v 16.08984 a 12.376287,12.376287 0 0 0 12.374999,12.375 h 82.16016 a 12.376287,12.376287 0 0 0 2.67578,-1.10742 12.376287,12.376287 0 0 0 2.73633,1.13281 l 59.31445,-0.0117 c 7.41026,0 14.27057,-2.5468 19.5332,-6.8789 a 12.376287,12.376287 0 0 0 10.08008,6.83593 h 21.5625 a 12.376287,12.376287 0 0 0 5.87109,-2.43164 12.376287,12.376287 0 0 0 5.94532,2.46094 h 31.2539 a 12.376287,12.376287 0 0 0 0.28125,1.59766 l 58.15625,100.74414 a 12.376287,12.376287 0 0 0 21.43555,0.002 l 58.16797,-100.74414 a 12.376287,12.376287 0 0 0 0.31836,-1.8125 l 52.79297,-0.01 c 8.82868,0 16.86466,-3.60354 22.32226,-9.58789 0.3786,0.36737 0.718,0.79194 1.10547,1.14258 5.41989,4.90463 12.26469,8.66797 20.86914,8.66797 h 41.91406 a 12.37505,12.37505 0 0 0 0.004,0.002 c 6.18133,0 11.42195,-1.98346 15.91211,-4.89453 a 12.376287,12.376287 0 0 0 9.27539,4.89258 h 68.87695 a 12.376287,12.376287 0 0 0 12.375,-12.375 V 301.0293 a 12.376287,12.376287 0 0 0 -12.375,-12.375 h -1.27343 v -12.8418 h 2.0332 a 12.376287,12.376287 0 0 0 12.375,-12.375 v -16.08984 a 12.376287,12.376287 0 0 0 -12.37109,-12.375 h -3.81836 c 0.007,-0.22022 0.0488,-0.48679 0.0488,-0.69336 v -9.04883 c 10e-6,-3.38402 -0.96809,-8.42461 -4.84179,-12.16016 -3.8737,-3.73554 -8.65006,-4.4707 -11.88281,-4.4707 h -10.59375 c -2.83433,0 -6.73079,0.6975 -10.22852,3.23242 -3.48002,-2.49567 -7.3797,-3.23242 -10.30078,-3.23242 h -15.6543 a 12.376287,12.376287 0 0 0 -6.0957,2.52539 12.376287,12.376287 0 0 0 -6.09375,-2.52539 h -4.98633 a 12.376287,12.376287 0 0 0 -6.1543,1.80078 12.376287,12.376287 0 0 0 -4.35351,-1.80078 h -4.42383 a 12.376287,12.376287 0 0 0 -5.76563,2.38867 12.376287,12.376287 0 0 0 -5.76367,-2.38867 h -16.88867 a 12.376287,12.376287 0 0 0 -9.08008,4.42187 12.376287,12.376287 0 0 0 -9.08008,-4.42187 h -5.14648 a 12.376287,12.376287 0 0 0 -9.2168,4.75195 12.376287,12.376287 0 0 0 -4.28515,-2.70898 l 21.66406,-37.53125 a 12.376287,12.376287 0 0 0 -10.7168,-18.5625 z m 45.61914,38.71094 h 207.49804 l -7.98828,13.83398 a 12.376287,12.376287 0 0 0 -0.26562,1.50586 h -0.0234 a 12.376287,12.376287 0 0 0 -6.89258,2.85547 12.376287,12.376287 0 0 0 -6.89258,-2.85547 h -4.97265 a 12.376287,12.376287 0 0 0 -6.1543,1.80078 12.376287,12.376287 0 0 0 -4.35352,-1.80078 h -4.42382 a 12.376287,12.376287 0 0 0 -11.39453,10.00781 c -2.78477,-2.63893 -6.49758,-4.30534 -10.53907,-4.30664 a 12.376287,12.376287 0 0 0 -0.008,0 c -3.58228,0.001 -6.87894,1.3439 -9.53125,3.47461 a 12.376287,12.376287 0 0 0 -11.22852,-9.60547 h -4.74804 a 12.376287,12.376287 0 0 0 -5.0918,2.10938 12.376287,12.376287 0 0 0 -5.09375,-2.10938 h -4.75976 a 12.376287,12.376287 0 0 0 -7.48633,3.09961 c -3.35904,-2.35501 -7.19183,-3.125 -10,-3.125 h -11.20508 c -2.78113,0 -6.56837,0.73691 -9.91797,3.03906 A 12.376287,12.376287 0 0 0 368.1543,208.125 H 352.875 c -2.99297,0 -7.12635,0.87031 -10.63086,3.60156 -0.10534,-0.0862 -0.18106,-0.211 -0.28906,-0.29297 -3.64593,-2.7672 -7.36809,-3.26367 -10.41797,-3.26367 h -12.30274 a 12.376287,12.376287 0 0 0 -0.1875,-1.07031 c 0,0 -4.36061,-7.55617 -7.98632,-13.83984 z m -19.38868,21.04101 h 0.0215 c -0.003,0 -0.006,0.002 -0.01,0.002 -0.004,1e-5 -0.008,-0.002 -0.0117,-0.002 z m 156.26758,9.2168 a 12.37505,12.37505 0 0 0 -1.67383,4.04687 v -1.59375 c 0.42532,-0.90214 0.99522,-1.72497 1.67383,-2.45312 z m -162.97851,0.0449 a 12.37505,12.37505 0 0 0 -2.54688,6.20898 12.37505,12.37505 0 0 0 2.16211,5.21875 h -0.26562 c -1.10101,-1.52095 -1.8935,-3.2673 -1.90039,-5.21289 a 12.37505,12.37505 0 0 0 -0.004,0.0117 c -2e-5,-0.006 0.004,-0.0101 0.004,-0.0156 -3e-5,-0.009 -0.006,-0.0165 -0.006,-0.0254 a 12.37505,12.37505 0 0 0 0.008,0.0176 c -9.1e-4,-2.35846 1.00613,-4.53042 2.54883,-6.20312 z m 227.78125,5.06641 1.13086,1.1289 -1.13086,1.12891 -1.12891,-1.12891 z m -255.16992,1.02148 a 12.37505,12.37505 0 0 0 0.0547,0.13281 c -0.0262,-0.0339 -0.0546,-0.0676 -0.0801,-0.10156 0.008,-0.0105 0.0174,-0.0207 0.0254,-0.0312 z m 433.63281,0.11328 a 12.37505,12.37505 0 0 0 0.0508,0.11914 c -0.0233,-0.0303 -0.0496,-0.0595 -0.0723,-0.0898 0.007,-0.01 0.0143,-0.0198 0.0215,-0.0293 z m -244.93946,2.1875 a 12.37505,12.37505 0 0 0 1.15625,2.77149 h -0.34765 c -0.26735,-0.39739 -0.6037,-0.74389 -0.8086,-1.17774 z m -70.76757,16.39844 c 0.76702,0.53435 1.52192,1.00925 2.29882,1.36719 -2.44931,3.48142 -4.14692,7.5883 -4.5371,12.48242 h -24.91016 v -11.38281 c 1.7405,0.39369 3.39022,0.54882 4.70117,0.54882 h 15.16797 a 12.376287,12.376287 0 0 0 7.2793,-3.01562 z m -197.63672,0.17773 a 12.376287,12.376287 0 0 0 1.85351,0.76953 v 39.35743 h -10.98242 v -37.58985 c 2.69659,-0.001 5.97785,-0.57119 9.12891,-2.53711 z m 332.35742,2.36524 a 12.376287,12.376287 0 0 0 0.0625,0.0254 h 3.91016 l -3.97266,3.30078 z m -285.38867,0.17383 h 4.08594 l -4.08594,3.39257 z m 370.70312,25.12695 h 14.18946 a 12.376287,12.376287 0 0 0 2.7832,6.71289 12.376287,12.376287 0 0 0 -2.22461,5.36328 H 595.5332 Z m -176.18554,0.16797 h 17.04101 c -0.009,5.12577 -0.0104,6.53597 -0.0195,11.79492 h -17.04102 c 0.009,-5.12615 0.0104,-6.53956 0.0195,-11.79492 z m 241.23632,4.79492 a 12.376287,12.376287 0 0 0 0.60352,1.45312 12.376287,12.376287 0 0 0 -0.60352,1.45508 z m -333.81054,1.07812 a 12.376287,12.376287 0 0 0 0.15625,0.37696 12.376287,12.376287 0 0 0 -0.15625,0.37695 z m 62.32422,42.54688 c 4.39728,2.66991 9.44368,4.49023 15.34179,4.49023 h 35.59961 c -5.96198,10.32665 -15.41993,26.70816 -25.22851,43.69532 -10.55076,-18.28285 -22.29444,-38.62997 -26.98633,-46.75586 a 12.376287,12.376287 0 0 0 1.27344,-1.42969 z" id="path9"/>
            <path style="baseline-shift:baseline;display:inline;overflow:visible;vector-effect:none;stroke-linecap:round;stroke-linejoin:round;paint-order:markers stroke fill;enable-background:accumulate;stop-color:#000000;stop-opacity:1" d="m 136.363,220.856 -9.298,13.105 -1.196,-0.543 -0.013,-12.563 h -4.425 v 17.837 h 6.931 l 7.291,-10.414 1.21,0.405 0.036,10.009 h 4.45 v -17.836 z m 131.707,4.262 v 9.05 c 0,3.096 -1.296,4.262 -4.362,4.262 h -10.595 c -3.004,0 -4.387,-1.216 -4.387,-4.263 v -9.049 c 0,-2.973 1.433,-4.263 4.387,-4.263 h 10.595 c 2.978,0 4.362,1.265 4.362,4.263 m -4.762,-0.66 h -9.77 v 10.363 h 9.77 z m -38.924,-3.602 c -3.141,0 -4.998,1.483 -4.998,4.499 v 8.726 c 0,2.84 2.057,4.61 5.186,4.61 h 13.41 v -3.658 h -13.785 v -10.52 h 13.786 v -3.658 z m -19.581,0 v 9.067 l -0.013,4.606 h -1.757 l -4.076,-13.673 h -4.536 l -4.1,13.673 h -1.72 l 0.011,-13.673 h -4.624 v 17.836 h 8.488 l 3.366,-12.602 h 1.707 l 3.39,12.602 h 8.45 v -17.836 z m -32.169,0 v 14.795 c 0,1.844 -1.234,3.04 -3.914,3.04 h -11.841 c -2.68,0 -3.951,-1.196 -3.951,-3.04 v -14.796 h 4.762 v 7.019 h 10.183 v -7.018 z m -4.362,10.264 h -10.196 v 3.914 h 10.196 z m 126.508,-1.372 a 3.072,3.072 0 0 0 -3.079,-3.072 3.08,3.08 0 0 0 -3.078,3.072 3.083,3.083 0 0 0 3.078,3.085 3.075,3.075 0 0 0 3.08,-3.085 m 162.953,0 a 3.08,3.08 0 0 0 -3.079,-3.072 3.08,3.08 0 0 0 -3.079,3.072 3.083,3.083 0 0 0 3.08,3.085 3.083,3.083 0 0 0 3.078,-3.085 m -126.197,-9.204 h -15.592 v 3.808 h 14.832 v 3.763 h -10.308 c -2.78,0 -4.388,0.693 -4.388,2.998 v 4.954 c 0,2.039 1.297,2.936 5.597,2.936 h 12.277 v -3.783 h -13.237 v -3.808 h 10.732 c 2.954,0 3.914,-1.227 3.914,-3.21 v -5.035 c 0,-1.508 -1.098,-2.623 -3.827,-2.623 m 65.173,-0.025 h -11.205 c -2.966,0 -4.4,1.378 -4.4,4.5 v 9.522 c 0,3.272 1.272,4.462 4.562,4.462 h 15.181 v -3.783 h -14.957 v -10.887 h 10.507 v 3.44 h -7.216 v 3.297 h 11.89 v -6.051 c 0,-3.122 -1.433,-4.5 -4.362,-4.5 m 37.18,0.025 v 15.312 c 0,1.913 -1.221,3.147 -3.9,3.147 h -11.854 c -2.68,0 -3.938,-1.234 -3.938,-3.147 v -15.312 h 4.76 v 7.26 h 10.184 v -7.26 z m -4.748,10.625 h -10.183 v 4.05 h 10.183 z m -60.924,4.045 v 3.776 H 353.05 c -3.304,0 -4.575,-1.183 -4.575,-4.474 v -9.51 c 0,-3.122 1.446,-4.506 4.4,-4.506 h 15.28 l 0.038,3.82 h -14.92 v 3.795 h 10.782 v 3.297 h -10.781 v 3.802 z M 571.89,234.94 v -13.966 h -5.145 v 13.966 h -7.043 v 3.603 h 18.945 v -3.603 z m 23.035,0 v -3.583 h 12.04 v -3.122 h -12.04 v -3.658 h 12.015 v -3.603 h -16.89 v 17.569 h 16.978 v -3.603 z m 75.892,-9.554 v 8.918 c 0,2.829 -1.707,4.238 -4.437,4.238 h -15.804 v -17.568 h 15.654 c 3.08,0 4.587,1.384 4.587,4.412 m -5.01,-0.81 h -10.495 v 10.363 h 10.494 z m 35.896,0.654 v 9.05 c 0,3.097 -1.296,4.263 -4.35,4.263 H 686.76 c -3.017,0 -4.388,-1.21 -4.388,-4.263 v -9.05 c 0,-2.972 1.434,-4.256 4.388,-4.256 h 10.594 c 2.98,0 4.35,1.259 4.35,4.257 m -4.749,-0.654 h -9.77 v 10.363 h 9.77 z m -186.673,13.965 h 4.923 v -17.568 h -4.923 z m -18.759,-17.568 -9.298,12.906 -1.184,-0.53 -0.025,-12.376 h -4.425 v 17.568 h 6.93 l 7.292,-10.264 1.21,0.405 0.036,9.859 h 4.438 v -17.568 z m 51.813,0 -9.298,12.906 -1.196,-0.53 -0.013,-12.376 h -4.412 v 17.568 h 6.93 l 7.279,-10.264 1.209,0.405 0.037,9.859 h 4.438 v -17.568 z m 90.064,0 -9.298,12.906 -1.183,-0.53 -0.026,-12.376 h -4.425 v 17.568 h 6.943 l 7.28,-10.264 1.221,0.405 0.024,9.859 h 4.45 v -17.568 z m -184.677,79.557 c 0,-0.835 0.063,-35.729 0.063,-36.545 h -41.792 c 0,0.816 -0.063,35.71 -0.063,36.545 z m 2.492,16.365 h -46.776 c -8.912,0 -19.058,-9.086 -19.058,-17.05 v -35.69 c 0,-7.972 10.146,-17.059 19.058,-17.059 h 46.776 c 8.9,0 19.045,9.087 19.045,17.058 v 35.69 c 0,7.965 -10.145,17.051 -19.045,17.051 m 171.804,0.224 h -41.917 c -8.7,0 -18.608,-8.973 -18.608,-16.832 v -36.114 c 0,-7.858 9.909,-16.826 18.608,-16.826 h 41.917 c 8.7,0 18.62,8.968 18.62,16.826 v 11.33 l -19.816,0.025 v -11.71 h -38.664 v 36.825 h 38.664 V 290.28 l 19.817,0.03 v 9.978 c 0,7.859 -9.921,16.833 -18.621,16.833 M 248.377,272.37 h 3.029 c 8.737,0 17.001,7.471 17.001,15.38 v 14.002 c 0,7.91 -8.264,15.381 -17.001,15.381 l -59.316,0.012 v -69.81 h 20.366 v 54.48 h 33.254 c 2.692,0 3.64,-2.063 3.64,-3.833 v -6.949 c 0,-2.156 -1.297,-3.352 -3.64,-3.352 h -24.031 l 0.386,-14.838 30.674,-25.477 h 26.699 c 0,0 -26.96,21.7 -31.061,25.003 m 285.375,-0.23 h 3.053 c 8.725,0 16.988,7.466 16.988,15.374 v 14.003 c 0,7.909 -8.263,15.38 -16.988,15.38 l -59.316,0.013 v -69.811 h 20.354 v 54.487 h 33.254 c 2.692,0 3.639,-2.07 3.639,-3.84 v -6.948 c 0,-2.156 -1.297,-3.346 -3.639,-3.346 h -24.031 l 0.387,-14.845 30.661,-25.477 h 26.71 l -31.072,25.01 M 186.68,317.12 h -82.16 v -16.09 h 30.324 v -53.57 h 21.513 v 53.57 h 30.325 z m 115.903,-0.031 H 281.02 v -69.723 h 21.563 z m 77.314,-16.059 v 16.09 h -65.498 v -69.78 h 21.575 v 27.235 h 37.59 v 16.073 h -37.59 v 10.382 z m 337.947,-37.592 h -47.612 v 11.137 h 33.204 v 16.072 h -33.204 v 10.382 h 46.852 v 16.091 h -68.876 v -69.79 l 69.636,0.017 z M 414.808,397.719 c 2.206,-3.814 42.042,-72.814 42.042,-72.814 h 16.127 L 414.808,425.65 356.651,324.904 h 16.13 c 0,0 39.621,68.62 42.027,72.814 M 537.429,213.283 h -16.142 l 18.709,-32.399 H 289.633 c 2.144,3.713 18.696,32.4 18.696,32.4 h -16.116 l -26.772,-46.36 h 298.748 z" id="path10"/>
        </g>
    </g>
</svg>
