<?xml version='1.0' encoding='utf-8'?>
<svg xmlns="http://www.w3.org/2000/svg" height="300" viewBox="0 0 456.33835 236.96234" width="577.7327411542241" version="1.1" id="svg2">
    <defs id="defs2"/>
    <path style="baseline-shift:baseline;display:inline;overflow:visible;vector-effect:none;fill:#ffffff;stroke-linecap:round;stroke-linejoin:round;paint-order:markers stroke fill;enable-background:accumulate;stop-color:#000000" d="m 168.05079,-5.2692769e-4 c -8.19177,0 -16.11516,1.61503002769 -23.48633,4.82617002769 -6.53032,2.76555 -12.38566,6.5992299 -17.49414,11.3261699 -1.21209,-2.80284 -2.98593,-5.3787 -5.20898,-7.4882799 -2.13453,-2.10819 -4.66299,-3.81547 -7.41602,-5.00586 -2.91927,-1.30112 -6.11261,-1.92578 -9.28321,-1.92578 h -54 c -3.195833,0 -6.403372,0.62683 -9.347656,1.88867 -2.824063,1.21031 -5.422059,2.96019 -7.595704,5.13281 v 0.002 c -2.13472,2.1347199 -3.819042,4.6982099 -5.003906,7.4628899 -1.261836,2.94428 -1.886718,6.15182 -1.886719,9.34765 1e-6,3.19584 0.624883,6.40338 1.886719,9.34766 0.02041,0.0471 0.04124,0.0939 0.0625,0.14063 1.177119,2.61613 2.787782,5.03228 4.75,7.12499 0.06272,0.0674 0.126529,0.13385 0.191406,0.19921 1.54057,1.53985 3.346185,2.77379 5.242188,3.84766 0.86119,1.37358 1.811212,2.68828 2.919922,3.87109 0.06336,0.0674 0.127826,0.13387 0.193359,0.19922 2.102418,2.10138 4.61711,3.79657 7.347656,4.9668 0.923813,0.39592 1.904614,0.62378 2.873047,0.89062 v 37.013681 c 0,3.44912 0.663824,6.894986 2.03711,10.054676 l 0.002,0.004 c 1.268088,2.91451 3.035381,5.60181 5.214844,7.91016 0.05581,0.0588 0.112455,0.11669 0.169921,0.17382 1.336336,1.33634 2.857153,2.46047 4.457032,3.4668 H 23.22461 c -3.192252,0 -6.411091,0.67903 -9.322266,2.02149 -2.78776,1.28554 -5.318894,3.13161 -7.40625,5.3789 v 0.002 c -2.048401,2.20629 -3.630851,4.81117 -4.742187,7.60156 v 0.002 C 0.574571,132.74657 1e-6,135.93814 0,139.13054 c 0,3.1924 0.574571,6.38201 1.753907,9.3457 0.01784,0.0457 0.03607,0.0913 0.05469,0.13672 1.105284,2.6429 2.625834,5.10584 4.503906,7.26367 0.06134,0.0707 0.123854,0.14036 0.1875,0.20898 2.086671,2.24445 4.615577,4.08931 7.400391,5.375 l 0.0039,0.002 c 2.910502,1.34164 6.12865,2.01953 9.320313,2.01953 h 0.121094 c 0.01642,0.008 0.03044,0.0198 0.04687,0.0273 l 0.0039,0.002 c 0.338872,0.15624 0.71356,0.21584 1.060547,0.35351 v 45.16015 c 0,3.45572 0.611066,6.88979 1.896484,10.07422 l 0.002,0.004 c 1.191962,2.94966 2.859957,5.69029 4.949219,8.07226 0.05318,0.0607 0.107223,0.12057 0.162109,0.17969 2.18674,2.35449 4.837233,4.27472 7.748047,5.63672 0.04022,0.0186 0.08059,0.0368 0.121094,0.0547 3.094984,1.38886 6.489489,2.125 9.882812,2.125 2.881682,0 5.734006,-0.62836 8.433594,-1.6543 3.144237,-0.0705 6.297402,-0.71676 9.158203,-2.05664 v 0.002 c 2.811438,-1.31629 5.374468,-3.1739 7.488288,-5.44922 2.15537,-2.31973 3.87498,-5.03702 5.06054,-7.97461 1.2432,-3.07823 1.83594,-6.39728 1.83594,-9.72851 v -42.83984 h 0.50195 c 2.43147,0 4.85405,-0.53623 7.16993,-1.37695 v 20.39258 c -1e-5,7.06189 1.26207,13.88883 3.80859,20.25195 v 0.002 c 2.48396,6.20292 5.93593,11.80214 10.304692,16.61523 0.0437,0.048 0.088,0.0956 0.13281,0.14257 4.4741,4.70759 9.7483,8.49331 15.64258,11.22852 6.06848,2.81611 12.66737,4.23633 19.45703,4.23633 6.77443,0 13.33937,-1.41597 19.33984,-4.24219 0.84708,-0.39329 1.57473,-0.96756 2.39453,-1.4043 0.0909,-0.042 0.18674,-0.0706 0.27735,-0.11328 5.6574,-2.62764 10.69881,-6.27642 14.91992,-10.82031 l 0.002,-0.002 c 4.28853,-4.61786 7.66359,-10.01034 10.05469,-15.98241 v -0.002 c 2.44122,-6.09651 3.65234,-12.63931 3.65234,-19.39844 v -23.61914 c 1.14518,0.81481 2.35424,1.54244 3.62891,2.13086 l 0.004,0.002 c 2.82105,1.30066 5.94377,1.95898 9.0332,1.95898 h 0.74414 v 42.83983 c 0,1.86937 0.23791,3.72155 0.62109,5.54297 0.31221,1.79491 0.77745,3.55768 1.45899,5.24609 v 0.004 c 1.19196,2.94967 2.85995,5.6903 4.94922,8.07227 0.0532,0.0607 0.10722,0.12057 0.16211,0.17969 2.18673,2.35448 4.83723,4.27471 7.74804,5.63672 0.0409,0.0186 0.0819,0.0368 0.12305,0.0547 3.09498,1.38886 6.48949,2.12499 9.88281,2.125 3.43406,0 6.8844,-0.71941 10.00391,-2.17969 l 0.002,-0.002 c 2.90986,-1.36194 5.55996,-3.28094 7.74609,-5.63477 2.23069,-2.40198 4.01009,-5.21219 5.23829,-8.2539 v -0.002 c 1.28541,-3.18443 1.89843,-6.6185 1.89843,-10.07422 V 165.328 c 1.02473,-0.0623 2.05107,-0.12012 3.0625,-0.33008 -0.61576,3.58286 -0.95312,7.24095 -0.95312,10.96485 0,7.97175 1.40813,15.67135 4.23828,22.88086 0.0116,0.0294 0.0233,0.0587 0.0352,0.0879 2.85927,7.05073 6.76751,13.36888 11.6914,18.77147 0.0361,0.0394 0.0726,0.0785 0.10938,0.11719 5.02105,5.30376 10.96364,9.58009 17.64062,12.71875 0.0318,0.0152 0.0637,0.0301 0.0957,0.0449 2.38153,1.08364 4.84867,1.91155 7.3496,2.62109 6.32912,2.44856 13.02907,3.75781 19.93946,3.75781 7.97329,0 15.6994,-1.64274 22.85547,-4.89843 0.032,-0.0148 0.0639,-0.0297 0.0957,-0.0449 6.99408,-3.2878 13.18296,-7.77458 18.36133,-13.34961 0.53296,-0.5738 1.00224,-1.20109 1.51172,-1.79492 0.13248,0.38295 0.18607,0.78983 0.33789,1.16601 l 0.002,0.002 c 1.14919,2.84418 2.75876,5.49159 4.77539,7.79102 0.0532,0.0607 0.10722,0.12056 0.16211,0.17968 2.11425,2.27579 4.6798,4.13349 7.49219,5.44922 0.0409,0.0192 0.0819,0.0381 0.12304,0.0566 2.99212,1.34236 6.27872,2.05469 9.56055,2.05469 0.21396,0 0.4246,-0.0626 0.63867,-0.0684 2.71474,1.0236 5.57966,1.66602 8.48047,1.66602 3.43406,0 6.8844,-0.71941 10.00391,-2.17969 l 0.002,-0.002 c 2.20668,-1.03282 4.18722,-2.47337 6.00586,-4.09375 0.92994,0.70553 1.9064,1.34796 2.94336,1.88672 3.522,1.83041 7.49123,2.79101 11.46094,2.79101 0.72395,0 1.43781,-0.16502 2.16015,-0.23437 2.90122,1.09271 5.93709,1.83203 9.04102,1.83203 3.39188,0 6.79853,-0.73937 9.875,-2.17969 l 0.004,-0.002 c 2.86952,-1.34329 5.47815,-3.23732 7.64648,-5.54687 2.29092,-2.35125 4.10498,-5.15697 5.33594,-8.20313 0.0159,-0.0389 0.0316,-0.078 0.0469,-0.11719 1.22546,-3.16896 1.85352,-6.55813 1.85352,-9.95898 0,-4.64573 -1.24441,-9.26193 -3.54688,-13.30663 -0.006,-0.01 -0.0117,-0.0195 -0.0176,-0.0293 l -4.78907,-8.33594 c 0.23005,-0.34308 0.48596,-0.65619 0.70703,-1.00977 1.54377,-2.33814 2.88003,-4.82607 3.99805,-7.44335 1.26012,-2.84319 2.19893,-5.83648 2.82227,-8.9375 0.71297,-3.21873 1.08203,-6.47802 1.08203,-9.74023 0,-6.13358 -1.08878,-12.08202 -3.29297,-17.61914 -2.14882,-5.39802 -5.21112,-10.25301 -9.10938,-14.35743 -3.80665,-4.18655 -8.38549,-7.55462 -13.53515,-9.93164 h -0.002 c -5.3013,-2.44617 -11.08134,-3.67578 -17.00585,-3.67578 h -23.68946 c -0.48656,0 -0.96349,0.1243 -1.44922,0.1543 1.72434,-1.03476 3.36459,-2.19857 4.78711,-3.6211 2.32293,-2.32293 4.20857,-5.07566 5.51758,-8.08593 v -0.002 c 1.374,-3.15966 2.03906,-6.607346 2.03906,-10.056636 v -22.92788 l 20.33789,-29.140631 c 0.0111,-0.0162 0.0222,-0.0325 0.0332,-0.0488 2.86935,-4.17299 4.42968,-9.21788 4.42968,-14.2832 1e-5,-3.35539 -0.70102,-6.71017 -2.03906,-9.78711 v -0.002 c -1.26901,-2.91924 -3.10386,-5.59099 -5.40039,-7.8027299 -2.21211,-2.2975 -4.88458,-4.13296 -7.80469,-5.40235 h -0.002 c -3.07668,-1.33736 -6.43224,-2.03906 -9.78711,-2.03906 -3.84742,0 -7.68283,0.90309 -11.1543,2.57422 -0.0379,0.0186 -0.0757,0.0374 -0.11328,0.0566 -3.63742,1.81818 -6.7417,4.62354 -9.05468,7.9648399 l -1.375,1.95508 c -1.70889,0.99666 -3.26052,2.19243 -4.66016,3.58984 l -3.85547,-5.54492 -0.002,-0.002 c -2.35467,-3.4006999 -5.56876,-6.2239199 -9.29883,-8.0195299 -3.47146,-1.67113 -7.30492,-2.57422 -11.15234,-2.57422 -3.4007,0 -6.80533,0.68368 -9.92383,2.03906 -0.0425,0.0185 -0.0848,0.0374 -0.12696,0.0566 -2.85674,1.29835 -5.47697,3.10979 -7.69531,5.32813 -0.73857,0.73857 -1.3418,1.5902599 -1.97461,2.4179699 -1.16798,-1.55007 -2.45304,-3.0055899 -3.97461,-4.2207099 -4.52773,-3.69906 -10.37274,-5.62109 -16.26172,-5.62109 -4.75757,0 -9.47873,1.17119 -13.52929,3.58984 -4.19532,2.46905 -7.40874,6.3388899 -9.49024,10.7480499 l 0.0156,-0.0371 -3.7207,7.78516 c -0.18678,0.35419 -0.47952,0.642 -0.6504,1.0039 l -3.9121,8.18555 -8.11133,-16.97266 -0.002,-0.008 c -4.15851,-8.6820699 -13.31663,-14.2949199 -23,-14.2949199 -5.91218,0 -11.77085,1.92157 -16.35937,5.58594 -4.64275,3.6902199 -7.68516,9.2119199 -8.68555,15.0820299 -4.5e-4,0.003 -0.001,0.005 -0.002,0.008 l -1.59766,8.68359 c -2.72849,-4.95678 -6.09964,-9.46025 -10.10351,-13.40039 -5.39441,-5.48166 -11.82503,-9.8052199 -19.0625,-12.8691399 -7.36854,-3.20838 -15.29172,-4.82226002769 -23.48047,-4.82226002769 z M 119.19141,12.784623 l 0.14063,0.0625 c -0.0206,-0.009 -0.0439,-0.0103 -0.0644,-0.0195 -0.0268,-0.0116 -0.0494,-0.0315 -0.0762,-0.043 z m 172.39063,1.61914 c -0.0158,0.009 -0.0291,0.0219 -0.0449,0.0312 -0.01,0.006 -0.0214,0.008 -0.0312,0.0137 z m 28.71094,1.94336 0.11718,0.0957 c -0.0189,-0.0156 -0.0416,-0.0255 -0.0605,-0.041 -0.0206,-0.0164 -0.036,-0.0383 -0.0566,-0.0547 z m -109.61719,9.83594 0.11328,0.11524 c -0.0149,-0.0152 -0.032,-0.0278 -0.0469,-0.043 -0.0234,-0.023 -0.043,-0.0493 -0.0664,-0.0723 z m -81.56056,81.560467 c 0.0374,0.0381 0.0752,0.0759 0.11328,0.11328 5.22728,5.12916 11.37699,9.2319 18.25977,12.23633 0.0305,0.0139 0.0611,0.0275 0.0918,0.041 0.0282,0.0119 0.0578,0.0194 0.0859,0.0312 -1.00352,0.80303 -1.99949,1.62183 -2.875,2.56446 -2.18744,2.35424 -3.9039,5.12597 -5.11133,8.11718 -0.11372,0.28174 -0.15241,0.58753 -0.25585,0.87305 -1.07248,-2.05522 -2.34485,-4.00022 -3.95313,-5.66992 -1.41686,-1.58085 -3.09729,-2.88773 -4.88867,-4.0332 -2.01678,-2.06207 -4.33494,-3.83798 -6.94727,-5.06055 -3.12043,-1.46115 -6.57258,-2.17969 -10.00781,-2.17969 -3.39302,0 -6.7862,0.73432 -9.88086,2.12305 -0.0412,0.0185 -0.0822,0.0374 -0.12305,0.0566 -2.97185,1.39056 -5.642882,3.41457 -7.818352,5.86914 -0.15972,0.17358 -0.27507,0.38256 -0.42969,0.56055 -0.85302,-0.69332 -1.75389,-1.29694 -2.69727,-1.86133 0.57185,-0.19637 1.1733,-0.29766 1.72852,-0.53906 2.85447,-1.24155 5.48632,-3.00391 7.687502,-5.20508 2.24317,-2.24318 4.06511,-4.90421 5.33007,-7.8125 l 0.002,-0.002 c 1.32952,-3.05778 1.9707,-6.39299 1.9707,-9.722646 10.02921,-3.77971 13.85729,3.294596 19.71874,9.500136 z m 214.56642,-0.89644 c 0.1374,0.36677 0.19328,0.75961 0.34961,1.11914 v 0.002 c 1.22352,2.81304 2.93063,5.41 5.03515,7.63867 0.0558,0.0588 0.11246,0.1167 0.16993,0.17383 2.20163,2.20164 4.83228,3.96363 7.6875,5.20508 0.0396,0.0172 0.0793,0.0342 0.11914,0.0508 3.03263,1.26392 6.31804,1.92187 9.60351,1.92187 0.0439,0 0.087,-0.0134 0.13086,-0.0137 -1.25461,0.94518 -2.40742,2.02382 -3.44726,3.19727 -2.02533,2.20378 -3.62127,4.77988 -4.76563,7.55078 -0.64763,-0.76196 -1.26434,-1.54991 -1.95117,-2.27735 -5.17466,-5.66219 -11.38369,-10.16819 -18.4043,-13.36914 -1.55457,-0.72899 -3.14723,-1.34947 -4.7539,-1.92187 2.90314,-1.47812 5.55056,-3.42068 7.70507,-5.84375 l 0.002,-0.002 c 0.94412,-1.0623 1.76595,-2.22696 2.51953,-3.43164 z m -132.76758,0.75196 c 0.0652,0.15954 0.0876,0.33415 0.15625,0.49218 0.0192,0.0438 0.0387,0.0874 0.0586,0.13086 1.08715,2.39138 2.58191,4.57407 4.3125,6.55469 h -13.19336 c 3.05456,-2.05786 5.89279,-4.38497 8.48438,-6.97656 0.0641,-0.0641 0.11789,-0.1368 0.18164,-0.20117 z m 43.83398,3.8164 -0.0684,0.10743 c 0.01,-0.0153 0.0138,-0.0335 0.0234,-0.0488 0.0129,-0.021 0.0321,-0.0376 0.0449,-0.0586 z m -0.15234,0.20508 c 0.83072,1.31828 1.81266,2.50811 2.88086,3.63281 -1.45414,-0.29403 -2.93106,-0.47656 -4.40234,-0.47656 h -0.83985 c 0.88097,-0.97789 1.66288,-2.042 2.36133,-3.15625 z m 40.78516,0.2207 c 0.93416,1.37927 2.04088,2.62456 3.23047,3.79102 -2.10833,0.683 -4.18695,1.46597 -6.20899,2.41406 -5.27578,2.4056 -10.11066,5.541 -14.41601,9.34766 -1.15176,0.85021 -2.27281,1.74298 -3.35743,2.68164 -0.0364,-0.0951 -0.0463,-0.19837 -0.084,-0.29297 v -0.002 c -1.12155,-2.81604 -2.7904,-5.42246 -4.9082,-7.60938 0.0115,0.003 0.0237,10e-4 0.0351,0.004 -0.032,-0.0345 -0.0732,-0.0595 -0.10547,-0.0937 -0.0299,-0.0305 -0.05,-0.0693 -0.0801,-0.0996 l 0.18554,0.19336 c 1.74183,0.40952 3.50103,0.7832 5.3086,0.7832 8.02822,0 15.74123,-4.25496 20.13086,-10.88867 0.0879,-0.079 0.18275,-0.14828 0.26953,-0.22852 z m 89.57422,4.85157 -0.12305,0.0527 c 0.0226,-0.009 0.0418,-0.0257 0.0644,-0.0352 0.0188,-0.008 0.0399,-0.009 0.0586,-0.0176 z m -122.6836,0.10742 0.14063,0.0664 c -0.0212,-0.0103 -0.0452,-0.0132 -0.0664,-0.0234 -0.0259,-0.0121 -0.0482,-0.031 -0.0742,-0.043 z m -171.662112,3.50976 0.14649,0.0684 c -0.0231,-0.0112 -0.0492,-0.0143 -0.0723,-0.0254 -0.0259,-0.0121 -0.0482,-0.031 -0.0742,-0.043 z m 169.091802,0 0.14453,0.0684 c -0.0218,-0.0105 -0.0466,-0.013 -0.0684,-0.0234 -0.0267,-0.0125 -0.0494,-0.0326 -0.0762,-0.0449 z m 72.0957,1.15821 0.0957,0.0449 c -0.0133,-0.006 -0.0277,-0.009 -0.041,-0.0156 -0.0189,-0.009 -0.0358,-0.0207 -0.0547,-0.0293 z m -43.77929,0.002 c -0.0195,0.009 -0.0372,0.0204 -0.0566,0.0293 -0.0128,0.006 -0.0263,0.01 -0.0391,0.0156 z m -196.521492,0.51172 0.18555,0.19336 c -0.032,-0.0345 -0.0732,-0.0595 -0.10547,-0.0937 -0.0299,-0.0305 -0.05,-0.0693 -0.0801,-0.0996 z m 39.716802,0.57227 0.33008,0.35546 c -0.0529,-0.0603 -0.12228,-0.10427 -0.17579,-0.16406 -0.057,-0.0591 -0.0967,-0.13287 -0.15429,-0.1914 z m 48.91601,0 0.32813,0.35546 c -0.0505,-0.0576 -0.11693,-0.0992 -0.16797,-0.15625 -0.0592,-0.0615 -0.1003,-0.13834 -0.16016,-0.19921 z m 191.82227,0.17578 c -0.0291,0.0314 -0.0492,0.0701 -0.0781,0.10156 -0.0254,0.0287 -0.0587,0.0493 -0.084,0.0781 z m -187.99414,0.14257 c -0.62503,0.72833 -1.20866,1.48871 -1.73828,2.28711 -0.40666,-0.54486 -0.82537,-1.07823 -1.27539,-1.58789 1.01616,-0.19117 2.01195,-0.45365 3.01367,-0.69922 z m -86.367192,2.44727 0.1875,0.19531 c -0.0326,-0.0351 -0.0746,-0.0608 -0.10742,-0.0957 -0.0299,-0.0305 -0.05,-0.0693 -0.0801,-0.0996 z m 169.089842,0 0.18555,0.19531 c -0.0304,-0.0327 -0.069,-0.0573 -0.0996,-0.0898 -0.0318,-0.0325 -0.0539,-0.0731 -0.0859,-0.10547 z m -165.54296,0.7207 c -0.0291,0.0314 -0.0492,0.0701 -0.0781,0.10157 -0.0254,0.0286 -0.0588,0.0494 -0.084,0.0781 z m 248.27343,8.19141 0.10938,0.11914 c -0.0156,-0.0171 -0.0332,-0.0318 -0.0488,-0.0488 -0.0204,-0.0232 -0.0404,-0.0469 -0.0606,-0.0703 z m -264.986322,27.16216 -0.14063,0.0664 c 0.026,-0.012 0.0483,-0.0309 0.0742,-0.043 0.0212,-0.0102 0.0452,-0.0132 0.0664,-0.0234 z m 6.33007,2.04883 -0.14453,0.0684 c 0.0268,-0.0124 0.0494,-0.0325 0.0762,-0.0449 0.0218,-0.0105 0.0466,-0.0129 0.0684,-0.0234 z m 352.542972,7.89257 -0.041,0.19532 c 0.008,-0.0337 0.0101,-0.0679 0.0176,-0.10157 0.006,-0.0318 0.0171,-0.062 0.0234,-0.0937 z m -2.70508,8.61133 -0.0586,0.13086 c 0.0107,-0.024 0.0167,-0.0502 0.0273,-0.0742 0.009,-0.02 0.0227,-0.0366 0.0312,-0.0566 z m -3.75781,7.03907 -0.14258,0.22265 c 0.0172,-0.0259 0.0278,-0.0561 0.0449,-0.082 0.0307,-0.049 0.0672,-0.0914 0.0976,-0.14062 z m 0.33985,39.02733 -0.16797,0.17578 c 0.028,-0.0285 0.0464,-0.0651 0.0742,-0.0937 0.0285,-0.0303 0.0654,-0.0516 0.0937,-0.082 z" id="path12"/>
    <g id="g4" transform="translate(-30.300358,280.85329)">
        <path d="m 428.97054,-124.28657 q 1.824,0 3.163,1.441 1.338,1.44 1.338,3.405 0,2.096 -1.338,3.536 -1.339,1.44 -3.163,1.44 h -4.136 v -9.822 z m 25.667,30.123007 q 1.947,-1.834 3.65,-4.584002 1.824,-2.750005 3.163,-5.894005 1.46,-3.274 2.19,-6.94 0.85,-3.799 0.85,-7.597 0,-7.334 -2.554,-13.751 -2.554,-6.418 -7.055,-11.133 -4.38,-4.845 -10.34,-7.596 -5.961,-2.75 -12.773,-2.75 h -22.505 q -3.163,0 -6.082,1.31 -2.798,1.31 -4.866,3.667 -2.068,2.226 -3.285,5.239 -1.216,3.012 -1.216,6.417 v 64.828007 q 0,3.536 1.216,6.549 1.217,3.012 3.285,5.37 2.068,2.226 4.866,3.535 2.92,1.31 6.082,1.31 3.284,0 6.082,-1.31 2.798,-1.31 4.866,-3.536 2.19,-2.357 3.406,-5.37 1.217,-3.012 1.217,-6.548 v -9.43 l 10.826,18.729 q 2.068,3.798 5.596,5.631 3.528,1.834 7.542,1.834 3.163,0 5.961,-1.31 2.798,-1.31 4.866,-3.536 2.19,-2.226 3.406,-5.239 1.216,-3.143 1.216,-6.548 0,-4.584 -2.31,-8.644 z m -116.051,-61.947007 q -9.732,0 -18.369,4.06 -8.637,3.929 -15.084,10.87 -6.326,6.81 -10.097,16.109 -3.65,9.298 -3.65,19.776 0,10.477007 3.65,19.775007 3.771,9.299 10.097,16.24 6.447,6.81 15.084,10.87 8.637,3.93 18.369,3.93 9.732,0 18.369,-3.93 8.637,-4.06 14.962,-10.87 6.448,-6.941 10.097,-16.24 3.771,-9.298 3.771,-19.775007 0,-10.478 -3.771,-19.776 -3.65,-9.299 -10.097,-16.11 -6.325,-6.94 -14.962,-10.87 -8.637,-4.06 -18.37,-4.06 z m 0.851,31.824 q 3.65,0 6.813,1.572 3.284,1.44 5.595,4.06 2.433,2.488 3.771,6.024 1.46,3.406 1.46,7.335 0,3.929 -1.46,7.465007 -1.338,3.405 -3.77,6.024 -2.312,2.488 -5.596,4.06 -3.163,1.44 -6.813,1.44 -3.649,0 -6.933,-1.44 -3.163,-1.572 -5.596,-4.06 -2.312,-2.62 -3.771,-6.024 -1.338,-3.536007 -1.338,-7.465007 0,-3.93 1.338,-7.335 1.46,-3.536 3.77,-6.024 2.434,-2.62 5.597,-4.06 3.284,-1.572 6.933,-1.572 z m -68.974,0 h 9.002 q 2.92,0 5.353,-1.178 2.554,-1.179 4.5,-3.274 1.947,-2.096 3.042,-4.715 1.095,-2.75 1.095,-5.894 0,-3.143 -1.095,-5.893 -1.095,-2.75 -3.041,-4.715 -1.947,-2.095 -4.501,-3.274 -2.433,-1.179 -5.353,-1.179 h -49.267 q -2.92,0 -5.474,1.179 -2.554,1.179 -4.5,3.274 -1.826,1.964 -2.92,4.715 -1.095,2.75 -1.095,5.893 0,3.143 1.095,5.894 1.094,2.62 2.92,4.715 1.946,2.095 4.5,3.274 2.555,1.178 5.474,1.178 h 9.245 v 51.340007 q 0,3.535 1.217,6.548 1.216,3.012 3.284,5.37 2.068,2.226 4.866,3.535 2.92,1.31 6.083,1.31 3.284,0 6.082,-1.31 2.798,-1.31 4.866,-3.536 2.19,-2.357 3.406,-5.37 1.216,-3.012 1.216,-6.548 z m -100.115,36.278007 q -3.163,0 -5.474,-2.357 -2.312,-2.489 -2.312,-5.894 v -41.516007 q 0,-3.405 -1.216,-6.417 -1.217,-3.013 -3.406,-5.24 -2.068,-2.357 -4.866,-3.666 -2.798,-1.31 -6.082,-1.31 -3.163,0 -6.083,1.31 -2.798,1.31 -4.866,3.667 -2.068,2.226 -3.284,5.239 -1.217,3.012 -1.217,6.417 v 41.516007 q 0,8.644 3.042,16.24 3.04,7.596 8.272,13.359 5.352,5.631 12.408,8.905 7.055,3.274 15.084,3.274 8.028,0 14.962,-3.274 7.056,-3.274 12.287,-8.905 5.352,-5.763 8.393,-13.359 3.042,-7.596 3.042,-16.24 v -41.516007 q 0,-3.405 -1.217,-6.417 -1.216,-3.013 -3.406,-5.24 -2.068,-2.357 -4.866,-3.666 -2.798,-1.31 -5.96,-1.31 -3.163,0 -6.083,1.31 -2.798,1.31 -4.987,3.667 -2.068,2.226 -3.285,5.239 -1.216,3.012 -1.216,6.417 v 41.516007 q 0,3.405 -2.312,5.894 -2.19,2.357 -5.352,2.357 z m -68.974,-36.278007 h 9.002 q 2.92,0 5.352,-1.178 2.555,-1.179 4.501,-3.274 1.947,-2.096 3.041,-4.715 1.095,-2.75 1.095,-5.894 0,-3.143 -1.095,-5.893 -1.094,-2.75 -3.04,-4.715 -1.947,-2.095 -4.502,-3.274 -2.433,-1.179 -5.352,-1.179 H 61.109541 q -2.92,0 -5.474,1.179 -2.555,1.179 -4.501,3.274 -1.825,1.964 -2.92,4.715 -1.095,2.75 -1.095,5.893 0,3.143 1.095,5.894 1.095,2.62 2.92,4.715 1.946,2.095 4.5,3.274 2.555,1.178 5.475,1.178 h 9.245 v 51.340007 q 0,3.535 1.216,6.548 1.217,3.012 3.285,5.37 2.068,2.226 4.866,3.535 2.92,1.31 6.082,1.31 3.285,0 6.082,-1.31 2.798,-1.31 4.866,-3.536 2.19,-2.357 3.405999,-5.37 1.217,-3.012 1.217,-6.548 z m 330.937,-112.813 q 2.787,-4.053 2.787,-8.993 0,-3.167 -1.267,-6.08 -1.266,-2.914 -3.42,-4.94 -2.026,-2.154 -4.94,-3.42 -2.913,-1.267 -6.08,-1.267 -3.673,0 -7.093,1.647 -3.293,1.646 -5.573,4.94 l -11.4,16.213 -11.273,-16.213 q -2.28,-3.294 -5.7,-4.94 -3.42,-1.647 -7.094,-1.647 -3.293,0 -6.206,1.267 -2.787,1.266 -4.94,3.42 -2.027,2.026 -3.294,4.94 -1.266,2.913 -1.266,6.08 0,2.28 0.633,4.56 0.76,2.28 2.153,4.306 l 20.9,29.893 v 24.32 q 0,3.42 1.267,6.334 1.267,2.913 3.42,5.193 2.153,2.153 5.067,3.42 3.04,1.267 6.333,1.267 3.293,0 6.207,-1.267 3.04,-1.267 5.193,-3.42 2.28,-2.28 3.546,-5.193 1.267,-2.914 1.267,-6.334 v -24.32 z m -105.851,43.066 2.66,14.44 q 0.506,2.914 1.9,5.32 1.52,2.28 3.673,3.927 2.153,1.647 4.686,2.66 2.66,0.887 5.447,0.887 4.18,0 7.22,-1.52 3.04,-1.52 5.067,-3.8 2.026,-2.28 3.04,-5.067 1.013,-2.913 1.013,-5.573 0,-0.634 -0.127,-1.394 0,-0.76 -0.126,-1.393 l -11.78,-63.333 q -1.14,-5.953 -5.447,-9.373 -4.307,-3.547 -10.387,-3.547 -4.94,0 -8.74,2.28 -3.673,2.153 -5.826,6.713 l -15.073,31.54 -15.074,-31.54 q -4.306,-8.993 -14.566,-8.993 -6.08,0 -10.514,3.547 -4.306,3.42 -5.32,9.373 l -11.653,63.333 -0.253,1.52 v 1.393 q 0,3.167 1.266,6.08 1.267,2.787 3.42,5.067 2.28,2.153 5.194,3.42 2.913,1.267 6.333,1.267 2.787,0 5.32,-0.887 2.66,-1.013 4.813,-2.66 2.154,-1.647 3.547,-3.927 1.52,-2.406 2.027,-5.32 l 2.66,-14.44 8.74,18.367 q 4.18,8.867 14.06,8.867 9.88,0 14.06,-8.867 z m -127.766,-69.413 q -10.133,0 -19.126,3.927 -8.994,3.8 -15.707,10.513 -6.587,6.587 -10.513,15.58 -3.8,8.993 -3.8,19.127 0,10.133 3.8,19.126 3.926,8.994 10.513,15.707 6.713,6.587 15.707,10.513 8.993,3.8 19.126,3.8 10.134,0 19.127,-3.8 8.993,-3.926 15.58,-10.513 6.713,-6.713 10.513,-15.707 3.927,-8.993 3.927,-19.126 0,-10.134 -3.927,-19.127 -3.8,-8.993 -10.513,-15.58 -6.587,-6.713 -15.58,-10.513 -8.993,-3.927 -19.127,-3.927 z m 0.887,30.78 q 3.8,0 7.093,1.52 3.42,1.393 5.827,3.927 2.533,2.406 3.927,5.826 1.52,3.294 1.52,7.094 0,3.8 -1.52,7.22 -1.394,3.293 -3.927,5.826 -2.407,2.407 -5.827,3.927 -3.293,1.393 -7.093,1.393 -3.8,0 -7.22,-1.393 -3.293,-1.52 -5.827,-3.927 -2.406,-2.533 -3.926,-5.826 -1.394,-3.42 -1.394,-7.22 0,-3.8 1.394,-7.094 1.52,-3.42 3.926,-5.826 2.534,-2.534 5.827,-3.927 3.42,-1.52 7.22,-1.52 z m -70.005,0 h 9.373 q 3.04,0 5.573,-1.14 2.66,-1.14 4.687,-3.167 2.027,-2.026 3.167,-4.56 1.14,-2.66 1.14,-5.7 0,-3.04 -1.14,-5.7 -1.14,-2.66 -3.167,-4.56 -2.027,-2.026 -4.687,-3.166 -2.533,-1.14 -5.573,-1.14 H 87.649541 q -3.04,0 -5.7,1.14 -2.66,1.14 -4.687,3.167 -1.9,1.9 -3.04,4.56 -1.14,2.66 -1.14,5.7 0,3.04 1.14,5.7 1.14,2.533 3.04,4.56 2.027,2.026 4.687,3.166 2.66,1.14 5.7,1.14 h 9.627 v 49.653 q 0,3.42 1.266,6.334 1.267,2.913 3.419999,5.193 2.154,2.153 5.067,3.42 3.04,1.267 6.333,1.267 3.42,0 6.334,-1.267 2.913,-1.267 5.066,-3.42 2.28,-2.28 3.547,-5.193 1.267,-2.914 1.267,-6.334 z" opacity="0.302" id="path1" style="opacity:1;fill:#8d8d8d;fill-opacity:1"/>
        <path d="m 123.97508,-240.35842 h 9.867 q 3.2,0 5.866,-1.2 2.8,-1.2 4.934,-3.333 2.133,-2.133 3.333,-4.8 1.2,-2.8 1.2,-6 0,-3.2 -1.2,-6 -1.2,-2.8 -3.333,-4.8 -2.134,-2.133 -4.934,-3.333 -2.666,-1.2 -5.866,-1.2 h -54 q -3.2,0 -6,1.2 -2.8,1.2 -4.934,3.333 -2,2 -3.2,4.8 -1.2,2.8 -1.2,6 0,3.2 1.2,6 1.2,2.667 3.2,4.8 2.134,2.133 4.934,3.333 2.8,1.2 6,1.2 h 10.133 v 52.268 q 0,3.6 1.333,6.667 1.334,3.066 3.6,5.466 2.267,2.267 5.334,3.6 3.2,1.334 6.666,1.334 3.6,0 6.667,-1.334 3.067,-1.333 5.333,-3.6 2.4,-2.4 3.734,-5.466 1.333,-3.067 1.333,-6.667 z m 72.756,-32.4 q -10.666,0 -20.133,4.134 -9.466,4 -16.533,11.066 -6.933,6.934 -11.067,16.4 -4,9.467 -4,20.134 0,10.666 4,20.133 4.134,9.467 11.067,16.533 7.067,6.934 16.533,11.067 9.467,4 20.133,4 10.667,0 20.134,-4 9.466,-4.133 16.4,-11.067 7.066,-7.066 11.066,-16.533 4.134,-9.467 4.134,-20.133 0,-10.667 -4.134,-20.134 -4,-9.466 -11.066,-16.4 -6.934,-7.066 -16.4,-11.066 -9.467,-4.134 -20.134,-4.134 z m 0.934,32.4 q 4,0 7.466,1.6 3.6,1.467 6.134,4.134 2.666,2.533 4.133,6.133 1.6,3.467 1.6,7.467 0,4 -1.6,7.6 -1.467,3.466 -4.133,6.133 -2.534,2.533 -6.134,4.133 -3.466,1.467 -7.466,1.467 -4,0 -7.6,-1.467 -3.467,-1.6 -6.133,-4.133 -2.534,-2.667 -4.134,-6.133 -1.466,-3.6 -1.466,-7.6 0,-4 1.466,-7.467 1.6,-3.6 4.134,-6.133 2.666,-2.667 6.133,-4.134 3.6,-1.6 7.6,-1.6 z m 133.556,40.667 2.8,15.2 q 0.533,3.067 2,5.6 1.6,2.4 3.867,4.133 2.266,1.734 4.933,2.8 2.8,0.934 5.733,0.934 4.4,0 7.6,-1.6 3.2,-1.6 5.334,-4 2.133,-2.4 3.2,-5.334 1.066,-3.066 1.066,-5.866 0,-0.667 -0.133,-1.467 0,-0.8 -0.133,-1.467 l -12.4,-66.666 q -1.2,-6.267 -5.734,-9.867 -4.533,-3.733 -10.933,-3.733 -5.2,0 -9.2,2.4 -3.867,2.266 -6.133,7.066 l -15.867,33.2 -15.866,-33.2 q -4.534,-9.466 -15.334,-9.466 -6.4,0 -11.066,3.733 -4.534,3.6 -5.6,9.867 l -12.267,66.666 -0.267,1.6 v 1.467 q 0,3.333 1.334,6.4 1.333,2.933 3.6,5.333 2.4,2.267 5.466,3.6 3.067,1.334 6.667,1.334 2.933,0 5.6,-0.934 2.8,-1.066 5.067,-2.8 2.266,-1.733 3.733,-4.133 1.6,-2.533 2.133,-5.6 l 2.8,-15.2 9.2,19.333 q 4.4,9.334 14.8,9.334 10.4,0 14.8,-9.334 z m 111.423,-45.333 q 2.934,-4.267 2.934,-9.467 0,-3.333 -1.334,-6.4 -1.333,-3.067 -3.6,-5.2 -2.133,-2.267 -5.2,-3.6 -3.066,-1.333 -6.4,-1.333 -3.866,0 -7.466,1.733 -3.467,1.733 -5.867,5.2 l -12,17.067 -11.867,-17.067 q -2.4,-3.467 -6,-5.2 -3.6,-1.733 -7.466,-1.733 -3.467,0 -6.534,1.333 -2.933,1.333 -5.2,3.6 -2.133,2.133 -3.466,5.2 -1.334,3.067 -1.334,6.4 0,2.4 0.667,4.8 0.8,2.4 2.267,4.533 l 22,31.467 v 25.6 q 0,3.6 1.333,6.667 1.333,3.066 3.6,5.466 2.267,2.267 5.333,3.6 3.2,1.334 6.667,1.334 3.467,0 6.533,-1.334 3.2,-1.333 5.467,-3.6 2.4,-2.4 3.733,-5.466 1.334,-3.067 1.334,-6.667 v -25.6 z m -348.356,118.751 h 9.477 q 3.073,0 5.634,-1.24 2.689,-1.242 4.738,-3.447 2.048,-2.206 3.2,-4.963 1.153,-2.895 1.153,-6.204 0,-3.309 -1.152,-6.204 -1.153,-2.895 -3.201,-4.963 -2.05,-2.205 -4.738,-3.446 -2.561,-1.24 -5.634,-1.24 h -51.86 q -3.074,0 -5.763,1.24 -2.689,1.24 -4.738,3.446 -1.92,2.068 -3.073,4.963 -1.152,2.895 -1.152,6.204 0,3.309 1.152,6.204 1.153,2.757 3.073,4.963 2.05,2.205 4.738,3.446 2.69,1.24 5.762,1.24 h 9.732 v 54.042012 q 0,3.722 1.28,6.893 1.281,3.17 3.458,5.652 2.177,2.344 5.122,3.722 3.073,1.379 6.403,1.379 3.457,0 6.402,-1.379 2.945,-1.378 5.122,-3.722 2.305,-2.482 3.585,-5.652 1.28,-3.171 1.28,-6.893 z m 72.605,38.187012 q -3.33,0 -5.762,-2.482 -2.433,-2.619 -2.433,-6.203007 v -43.702005 q 0,-3.584 -1.28,-6.755 -1.281,-3.17 -3.586,-5.514 -2.177,-2.482 -5.122,-3.86 -2.945,-1.379 -6.403,-1.379 -3.329,0 -6.402,1.379 -2.945,1.378 -5.122,3.86 -2.177,2.343 -3.457,5.514 -1.28,3.171 -1.28,6.755 v 43.702005 q 0,9.098007 3.2,17.094007 3.202,7.996 8.708,14.062 5.634,5.928 13.06,9.374 7.428,3.447 15.879,3.447 8.451,0 15.75,-3.447 7.427,-3.446 12.933,-9.374 5.634,-6.066 8.836,-14.062 3.2,-7.996 3.2,-17.094007 v -43.702005 q 0,-3.584 -1.28,-6.755 -1.28,-3.17 -3.585,-5.514 -2.177,-2.482 -5.122,-3.86 -2.945,-1.379 -6.275,-1.379 -3.329,0 -6.402,1.379 -2.945,1.378 -5.25,3.86 -2.177,2.343 -3.457,5.514 -1.28,3.171 -1.28,6.755 v 43.702005 q 0,3.584007 -2.434,6.203007 -2.305,2.482 -5.634,2.482 z m 105.385,-38.187012 h 9.476 q 3.073,0 5.634,-1.24 2.689,-1.242 4.738,-3.447 2.048,-2.206 3.2,-4.963 1.153,-2.895 1.153,-6.204 0,-3.309 -1.152,-6.204 -1.153,-2.895 -3.201,-4.963 -2.05,-2.205 -4.738,-3.446 -2.561,-1.24 -5.634,-1.24 h -51.86 q -3.074,0 -5.763,1.24 -2.689,1.24 -4.738,3.446 -1.92,2.068 -3.073,4.963 -1.152,2.895 -1.152,6.204 0,3.309 1.152,6.204 1.153,2.757 3.073,4.963 2.05,2.205 4.738,3.446 2.69,1.24 5.762,1.24 h 9.732 v 54.042012 q 0,3.722 1.28,6.893 1.281,3.17 3.458,5.652 2.177,2.344 5.122,3.722 3.073,1.379 6.403,1.379 3.457,0 6.402,-1.379 2.945,-1.378 5.122,-3.722 2.305,-2.482 3.585,-5.652 1.28,-3.171 1.28,-6.893 z m 71.708,-33.5 q -10.244,0 -19.336,4.274 -9.091,4.135 -15.878,11.442 -6.659,7.169 -10.628,16.957 -3.842,9.788 -3.842,20.816 0,11.030005 3.842,20.817012 3.97,9.788 10.628,17.095 6.787,7.168 15.878,11.442 9.092,4.136 19.336,4.136 10.244,0 19.335,-4.136 9.092,-4.274 15.75,-11.442 6.787,-7.307 10.628,-17.095 3.97,-9.788007 3.97,-20.817012 0,-11.028 -3.97,-20.816 -3.841,-9.788 -10.628,-16.957 -6.658,-7.307 -15.75,-11.442 -9.091,-4.274 -19.335,-4.274 z m 0.896,33.5 q 3.842,0 7.17,1.654 3.458,1.517 5.891,4.274 2.561,2.62 3.97,6.341 1.536,3.585 1.536,7.72 0,4.136 -1.536,7.858005 -1.409,3.585005 -3.97,6.342007 -2.433,2.62 -5.89,4.274 -3.33,1.516 -7.17,1.516 -3.842,0 -7.3,-1.516 -3.329,-1.655 -5.89,-4.274 -2.433,-2.757002 -3.97,-6.342007 -1.408,-3.722005 -1.408,-7.858005 0,-4.135 1.408,-7.72 1.537,-3.722 3.97,-6.341 2.561,-2.757 5.89,-4.274 3.458,-1.654 7.3,-1.654 z m 94.245,0 q 1.92,0 3.329,1.516 1.409,1.517 1.409,3.585 0,2.205 -1.409,3.722 -1.409,1.516 -3.33,1.516 h -4.353 v -10.34 z m 27.018,31.70701 q 2.049,-1.930005 3.842,-4.825005 1.92,-2.895005 3.329,-6.203005 1.537,-3.447 2.305,-7.307 0.896,-3.998 0.896,-7.996 0,-7.72 -2.689,-14.475 -2.689,-6.755 -7.427,-11.718 -4.61,-5.1 -10.884,-7.996 -6.274,-2.895 -13.445,-2.895 h -23.69 q -3.329,0 -6.402,1.379 -2.945,1.378 -5.122,3.86 -2.177,2.343 -3.457,5.514 -1.28,3.171 -1.28,6.755 v 68.240012 q 0,3.723 1.28,6.894 1.28,3.17 3.457,5.652 2.177,2.344 5.122,3.722 3.073,1.379 6.403,1.379 3.457,0 6.402,-1.379 2.945,-1.378 5.122,-3.722 2.305,-2.482 3.585,-5.652 1.281,-3.171 1.281,-6.893 v -9.926 l 11.396,19.714 q 2.177,3.998 5.89,5.928 3.714,1.93 7.94,1.93 3.33,0 6.274,-1.379 2.945,-1.378 5.122,-3.722 2.305,-2.344 3.586,-5.514 1.28,-3.31 1.28,-6.893 0,-4.826 -2.433,-9.1 z" id="path2" style="fill:#dc1c27;fill-opacity:1"/>
    </g>
    <path style="fill:#ffffff;fill-rule:evenodd;stroke:#ffffff;stroke-width:2.39027;stroke-linecap:round;stroke-linejoin:round;paint-order:markers stroke fill" d="m 237.9516,93.937699 v -2.868326 h 1.65485 c 1.41284,0 1.75787,0.08668 2.35927,0.592728 1.47507,1.241191 1.5845,3.093946 0.2609,4.417543 -0.67869,0.678685 -0.84289,0.726382 -2.5007,0.726382 h -1.77432 z" id="path3" transform="matrix(1.6999996,0,0,1.6999996,0,-5.2186464e-4)"/>
</svg>
