<?xml version='1.0' encoding='utf-8'?>
<svg xmlns="http://www.w3.org/2000/svg" width="544.3664379310345" height="300" viewBox="0 -26.707 526.22089 290" xml:space="preserve" version="1.1" id="svg1">
    <defs id="defs1"/>
    <g id="g1" transform="translate(0,-17.999865)">
        <g id="path1" style="opacity:1" transform="translate(-23.933404,-30.908443)">
            <path style="baseline-shift:baseline;display:inline;overflow:visible;vector-effect:none;fill:#ffffff;stroke-linecap:round;stroke-linejoin:round;paint-order:markers stroke fill;enable-background:accumulate;stop-color:#000000;stop-opacity:1" d="m 376.73437,40.201172 c -19.36629,0 -35.90039,15.104337 -35.90039,34.279297 0,19.167586 16.54136,34.250001 35.90039,34.250001 19.62959,0 36.51758,-14.926481 36.51758,-34.250001 -0.001,-19.324751 -16.87674,-34.279297 -36.51758,-34.279297 z m 89.89844,0 c -19.36113,0 -35.91406,15.093261 -35.91406,34.279297 0,19.179121 16.56077,34.250001 35.91406,34.250001 19.63563,0 36.50391,-14.937825 36.50391,-34.250001 0,-19.314623 -16.85763,-34.279297 -36.50391,-34.279297 z m -283.8789,10.138672 c -8.67305,0 -17.13153,2.264248 -23.95313,7.457031 -6.8216,5.192783 -11.60009,12.927551 -14.45508,22.246094 a 10.001,10.001 0 0 0 0,0.0039 C 140.7483,91.81056 128.58199,136.9157 119.55469,170.52733 L 90.322266,59.339844 a 10.001,10.001 0 0 0 -9.669922,-7.458985 h -46.71875 a 10.001,10.001 0 0 0 -9.617188,12.742188 c 0,0 11.219149,39.371163 23.203125,81.029293 11.982297,41.6523 24.437064,84.73827 27.896485,95.08008 5.726201,17.17601 20.813606,32.70703 42.130864,32.70703 11.88353,0 21.80784,-4.59121 28.56249,-11.07617 6.75466,-6.48496 10.6071,-14.42397 13.00782,-21.63281 a 10.001,10.001 0 0 0 0.004,-0.0137 c 2.45695,-7.41285 10.44878,-35.64892 18.22461,-63.20313 2.79602,-9.90789 3.05851,-10.88895 5.40821,-19.25976 2.34933,8.37065 2.6109,9.35213 5.40625,19.25976 7.77409,27.55397 15.76774,55.80031 18.21289,63.19531 a 10.001,10.001 0 0 0 0.008,0.0195 c 2.39987,7.20942 6.25016,15.14969 13.00391,21.63476 6.75374,6.48507 16.67673,11.07617 28.55859,11.07617 21.32688,0 36.39456,-15.53669 42.14844,-32.68945 a 10.001,10.001 0 0 0 0.004,-0.0137 c 3.44378,-10.31903 15.89425,-53.428 27.86914,-95.08594 11.9749,-41.65794 23.1875,-81.029296 23.1875,-81.029296 A 10.001,10.001 0 0 0 331.53555,51.880759 H 284.8207 a 10.001,10.001 0 0 0 -9.67187,7.458985 L 245.93945,170.50977 C 236.91539,136.90449 224.7609,91.836348 221.14062,80.041016 l -0.002,-0.0039 c -2.85471,-9.313532 -7.62559,-17.044895 -14.4414,-22.238281 -6.81686,-5.194177 -15.27271,-7.458984 -23.94336,-7.458984 z m 193.98046,9.861328 c 10.06779,0 16.51707,6.376214 16.51758,14.279297 0,7.897395 -6.43854,14.25 -16.51758,14.25 -9.22188,0 -15.90039,-6.646346 -15.90039,-14.25 0,-7.622223 6.68577,-14.279297 15.90039,-14.279297 z m 89.89844,0 c 10.07839,0 16.50391,6.366085 16.50391,14.279297 0,7.908739 -6.4131,14.25 -16.50391,14.25 -9.20981,0 -15.91406,-6.657881 -15.91406,-14.25 0,-7.611147 6.7103,-14.279297 15.91406,-14.279297 z m -283.8789,10.138672 c 5.40513,0 8.95121,1.179556 11.82226,3.367187 2.87106,2.187631 5.47339,5.772979 7.44141,12.195313 a 10.001,10.001 0 0 0 0.002,0.0039 c 4.32702,14.097316 34.36719,126.134766 34.36719,126.134766 a 10.001,10.001 0 0 0 19.33203,-0.043 L 292.5332,71.880859 h 25.74024 c -2.75332,9.660112 -9.44525,33.164041 -19.5293,68.244141 -11.96432,41.62114 -24.97127,86.33934 -27.61523,94.26367 -3.79508,11.31342 -11.16415,19.05078 -23.18555,19.05078 -7.16169,0 -11.21481,-2.14865 -14.70703,-5.50195 -3.4881,-3.34934 -6.14941,-8.33696 -7.87305,-13.50781 -1.62652,-4.91918 -10.19008,-34.82592 -17.95508,-62.34766 -7.76499,-27.52173 -15.02343,-53.50976 -15.02343,-53.50976 a 10.001,10.001 0 0 0 -19.26172,0 c 0,0 -7.2588,25.98827 -15.02539,53.50976 -7.7649,27.51546 -16.32983,57.41691 -17.95704,62.32813 -1.72439,5.17798 -4.38994,10.17198 -7.88281,13.52539 -3.49287,3.35341 -7.54646,5.5039 -14.71093,5.5039 -12.00431,0 -19.394251,-7.74303 -23.158208,-19.0332 a 10.001,10.001 0 0 0 -0.0039,-0.01 C 91.742224,226.49796 78.715475,181.75081 66.740234,140.12305 56.64896,105.04424 49.954658,81.542158 47.199219,71.880859 H 72.941406 L 109.7793,212 a 10.001,10.001 0 0 0 19.33203,0.043 c 0,0 30.03038,-111.99208 34.35742,-126.142579 l 0.002,-0.0039 c 1.96654,-6.416365 4.57034,-9.99704 7.44532,-12.185547 2.87565,-2.189024 6.42892,-3.371093 11.83789,-3.371093 z m 172.3789,42.697266 a 10.001,10.001 0 0 0 -10,10 v 138.88672 a 10.001,10.001 0 0 0 10,10 h 44.2168 a 10.001,10.001 0 0 0 10,-10 V 123.03711 a 10.001,10.001 0 0 0 -10,-10 z m 89.8711,0 a 10.001,10.001 0 0 0 -10,10 v 138.88672 a 10.001,10.001 0 0 0 10,10 h 44.22851 a 10.001,10.001 0 0 0 10,-10 V 123.03711 a 10.001,10.001 0 0 0 -10,-10 z m -79.8711,20 h 24.2168 v 118.88672 h -24.2168 z m 89.8711,0 h 24.22851 v 118.88672 h -24.22851 z" id="path2"/>
            <path style="baseline-shift:baseline;display:inline;overflow:visible;vector-effect:none;fill:#0d0d0d;stroke-linecap:round;stroke-linejoin:round;paint-order:markers stroke fill;enable-background:accumulate;stop-color:#000000;stop-opacity:1" d="m 350.83434,74.480451 c 0,13.38562 11.60928,24.250465 25.89974,24.250465 14.85431,0 26.51792,-10.640007 26.51792,-24.250465 -8.9e-4,-13.613917 -11.66361,-24.279002 -26.51792,-24.279002 -14.29046,0 -25.89974,10.880411 -25.89974,24.279002 m 4.29881,48.557139 h 44.21643 v 138.88564 h -44.21643 z m 85.586,-48.557139 c 0,13.38562 11.63244,24.250465 25.91399,24.250465 14.86322,0 26.50367,-10.640007 26.50367,-24.250465 0,-13.613917 -11.64134,-24.279002 -26.50367,-24.279002 -14.28245,0 -25.91399,10.880411 -25.91399,24.279002 m 4.28456,48.557139 h 44.22801 V 261.92323 H 445.00371 Z M 284.82012,61.881763 246.04712,209.45652 c 0,0 -29.64539,-110.773166 -34.46796,-126.48499 -4.82258,-15.737768 -14.74921,-22.632499 -28.825,-22.632499 -14.08202,0 -24.02468,6.894731 -28.84637,22.632499 -4.80476,15.711824 -34.45727,126.48499 -34.45727,126.48499 L 80.65169,61.881763 H 33.934 c 0,0 44.868472,157.455497 50.968396,175.688097 4.745079,14.23309 15.983794,25.87016 32.644574,25.87016 19.04801,0 27.9565,-13.48333 32.08161,-25.87016 4.08146,-12.31418 33.12558,-116.30849 33.12558,-116.30849 0,0 29.04234,103.99431 33.11401,116.30849 4.12333,12.38683 13.03182,25.87016 32.07537,25.87016 16.67414,0 27.89237,-11.63707 32.66685,-25.87016 6.08478,-18.2326 50.92474,-175.688097 50.92474,-175.688097 z" id="path3"/>
        </g>
        <g id="path1-5" style="opacity:1" transform="translate(-23.933404,-30.761963)">
            <path style="baseline-shift:baseline;display:inline;overflow:visible;vector-effect:none;fill:#ffffff;stroke-linecap:round;stroke-linejoin:round;paint-order:markers stroke fill;enable-background:accumulate;stop-color:#000000;stop-opacity:1" d="m 511.39844,249.47852 a 2.50025,2.50025 0 0 0 -2.5,2.5 v 2.77734 a 2.50025,2.50025 0 0 0 2.5,2.5 h 3.47656 v 13.53711 a 2.50025,2.50025 0 0 0 2.5,2.5 h 3.23633 a 2.50025,2.50025 0 0 0 2.5,-2.5 v -13.53711 h 3.28125 v 13.53711 a 2.50025,2.50025 0 0 0 2.5,2.5 h 2.96679 a 2.50025,2.50025 0 0 0 2.20899,-2.20899 l 0.13281,0.4375 a 2.50025,2.50025 0 0 0 2.39063,1.77149 h 3.16406 a 2.50025,2.50025 0 0 0 2.38867,-1.75977 l 0.1582,-0.51172 a 2.50025,2.50025 0 0 0 2.27149,2.27149 h 3.08008 a 2.50025,2.50025 0 0 0 2.5,-2.5 v -18.81445 a 2.50025,2.50025 0 0 0 -2.5,-2.5 h -4.69336 a 2.50025,2.50025 0 0 0 -2.38477,1.74804 l -2.3418,7.42969 -2.30078,-7.41797 a 2.50025,2.50025 0 0 0 -2.38672,-1.75976 h -4.65429 a 2.50025,2.50025 0 0 0 -1.16016,1.16015 2.50025,2.50025 0 0 0 -1.16015,-1.16015 z" id="path4"/>
            <path style="baseline-shift:baseline;display:inline;overflow:visible;vector-effect:none;stroke-linecap:round;stroke-linejoin:round;paint-order:markers stroke fill;enable-background:accumulate;stop-color:#000000;stop-opacity:1" d="m 511.39915,251.97841 h 15.17232 v 2.77675 h -5.95919 V 270.793 h -3.23702 v -16.03784 h -5.97611 z m 20.46076,18.81459 h -2.96801 v -18.81459 h 4.65422 l 4.66936,15.05374 4.74597,-15.05374 h 4.69253 V 270.793 h -3.07936 V 255.24634 L 539.7565,270.793 h -3.16398 l -4.73261,-15.54666 z" id="path5"/>
        </g>
    </g>
</svg>
