<?xml version='1.0' encoding='utf-8'?>
<svg xmlns="http://www.w3.org/2000/svg" width="600" height="203.13161235717308" style="enable-background:new 0 0 2363 800" xml:space="preserve" version="1.1" id="svg5" viewBox="0 0 2363.0 800.0">
    <defs id="defs5"/>
    <g id="path1" style="opacity:1" transform="matrix(0.83753,0,0,0.82141,185.335,53.382)">
        <path style="baseline-shift:baseline;display:inline;overflow:visible;vector-effect:none;fill:#656565;stroke-linejoin:round;enable-background:accumulate;stop-color:#000000;stop-opacity:1" d="m 258.8,574.3 c 6.3,-24.2 12.2,-47 18.2,-69.9 27.7,-105.5 54.9,-211.1 83.8,-316.3 3,-11.1 6.6,-22 11.8,-32.3 13.2,-26.3 33.8,-42.5 63.4,-46.1 27.1,-3.3 52.6,0.5 73.7,19.7 14.8,13.4 23.2,30.8 28.6,49.6 20.9,74.2 40.1,148.8 59.7,223.3 14.8,56.4 29.4,112.8 44.1,169.1 0.1,0.3 0.3,0.6 0.5,1 2.1,-0.2 1.4,-2.1 1.7,-3.2 24,-93.9 47.9,-187.7 71.9,-281.6 14.4,-56.3 28.8,-112.6 43,-168.9 1.1,-4.3 2.7,-5.7 7.3,-5.7 43,0.2 86,0.1 129.1,0.1 7.1,0 7,0 5.1,7 -25.1,90.3 -50.1,180.7 -75.4,271 -25.2,89.9 -49.7,180.1 -76.8,269.5 -9.1,29.9 -25.4,55 -53.2,70.9 -37.7,21.5 -96.9,17 -127.7,-33.7 -11,-18.1 -17.1,-38 -22.8,-58.1 -31.6,-111.6 -61.9,-223.6 -92.3,-335.6 -0.3,-1.2 -0.7,-2.3 -1.2,-3.8 -2.1,3.2 -2.4,6.5 -3.3,9.6 -28.1,103.4 -56.1,206.8 -85.2,310 -6.1,21.6 -11,43.5 -20.8,63.9 -10.3,21.4 -24.4,39.2 -46.1,50.2 -37.5,18.9 -86.4,9 -114.2,-22.4 -17,-19.2 -26,-42.1 -33,-66.2 C 108.4,506.4 69.9,366.9 31.1,227.4 20.9,191 10.8,154.4 0.5,117.9 -0.7,113.7 0.2,113 4.3,113 c 43.9,0.1 87.8,0.1 131.7,0 4.2,0 5.5,1.5 6.5,5.3 31.2,122.7 62.5,245.4 93.8,368.1 7,27.5 14,54.9 21,82.4 0.3,1.4 0.7,2.7 1.5,5.5 z" id="path17"/>
        <path style="baseline-shift:baseline;display:inline;overflow:visible;vector-effect:none;fill:#ffffff;stroke-linejoin:round;enable-background:accumulate;stop-color:#000000;stop-opacity:1" d="m 456.67578,90.720703 c -7.66765,-0.28515 -15.33509,0.110865 -22.86133,1.027344 -35.05401,4.263991 -62.12676,25.557403 -77.375,55.935543 -6.6e-4,0.001 -0.001,0.003 -0.002,0.004 -5.98942,11.87261 -9.92627,23.96647 -13.0957,35.69336 -28.94369,105.36203 -56.1546,211.00428 -83.83399,316.42578 a 18.086499,18.086499 0 0 0 -0.002,0.01 c -0.18749,0.71557 -0.38107,1.46627 -0.56836,2.18164 -1.70366,-6.684 -3.40797,-13.36684 -5.11133,-20.0586 a 18.086499,18.086499 0 0 0 -0.002,-0.01 c -31.3,-122.7 -62.59915,-245.39488 -93.79688,-368.08594 a 18.086499,18.086499 0 0 0 -0.0391,-0.14648 c -0.8418,-3.19886 -2.317,-8.45049 -7.6543,-13.10352 C 146.99669,95.940724 140.25294,94.916016 136,94.916016 a 18.086499,18.086499 0 0 0 -0.041,0 c -43.872532,0.09994 -87.744646,0.09994 -131.6171831,0 a 18.086499,18.086499 0 0 0 -0.041016,0 c -1.539605,0 -3.2664733,-0.04081 -6.1132812,0.541015 -2.8468079,0.58183 -7.7500213,2.171693 -11.626953,6.791019 -3.876932,4.61932 -4.726525,10.3938 -4.625,13.67383 0.100528,3.24783 0.663187,5.15278 1.160156,6.89062 0.0046,0.0162 0.0091,0.0326 0.01367,0.0488 6.74e-4,0.002 0.0013,0.005 0.002,0.008 10.2755323,36.41413 20.3665677,72.98285 30.574219,109.41016 38.790416,139.46571 77.304411,279.01787 117.644533,418.15625 a 18.086499,18.086499 0 0 0 0.004,0.01 c 7.30222,25.1405 17.19503,50.97094 36.82618,73.14258 33.52655,37.86812 90.46981,49.44868 135.8789,26.5625 a 18.086499,18.086499 0 0 0 0.0371,-0.0195 c 25.89982,-13.12894 42.82118,-34.80789 54.21875,-58.48828 a 18.086499,18.086499 0 0 0 0.006,-0.0117 c 10.96869,-22.83278 15.98284,-45.85554 21.90234,-66.81641 a 18.086499,18.086499 0 0 0 0.002,-0.006 c 24.16126,-85.6853 47.52102,-171.4604 70.82812,-257.21679 25.09383,92.4173 50.26138,184.83869 76.36719,277.03515 a 18.086499,18.086499 0 0 0 0.002,0.008 c 5.76918,20.34394 12.22794,41.965 24.74219,62.55664 35.89257,59.08116 106.39513,66.09137 152.11524,40.01757 a 18.086499,18.086499 0 0 0 0.0195,-0.01 c 32.27553,-18.45975 51.49086,-48.37624 61.52148,-81.33399 a 18.086499,18.086499 0 0 0 0.006,-0.0195 c 27.20185,-89.73598 51.73257,-180.05911 76.90625,-269.86523 a 18.086499,18.086499 0 0 0 0.002,-0.002 C 868.0258,305.63941 893.02924,215.2281 918.125,124.94336 a 18.086499,18.086499 0 0 0 0.0273,-0.10547 c 0.4645,-1.7113 0.93918,-3.13487 1.38477,-5.7832 0.44559,-2.64833 1.65584,-8.658 -3.29688,-15.5918 -4.95271,-6.933804 -11.71189,-7.901008 -14.5332,-8.222656 -2.82131,-0.321647 -4.33242,-0.224609 -6.10742,-0.224609 -43.12797,0 -86.09974,0.1 -129.01563,-0.09961 a 18.086499,18.086499 0 0 0 -0.084,0 c -4.13468,0 -10.5382,0.634778 -16.24023,5.183594 -5.70204,4.54881 -7.62511,10.38607 -8.58008,14.11914 a 18.086499,18.086499 0 0 0 -0.0156,0.0586 c -14.19015,56.26096 -28.58437,112.5418 -42.98437,168.8418 a 18.086499,18.086499 0 0 0 -0.002,0.002 c -18.67318,73.05886 -37.29192,146.05667 -55.93554,219.07813 -9.06198,-34.82218 -18.09976,-69.6204 -27.25,-104.49024 a 18.086499,18.086499 0 0 0 -0.002,-0.01 c -19.58358,-74.4376 -38.80921,-149.1389 -59.7832,-223.60156 a 18.086499,18.086499 0 0 0 -0.0254,-0.0898 c -5.95471,-20.7312 -15.78774,-41.65922 -33.82812,-58 -19.18589,-17.449616 -42.1819,-24.43192 -65.17774,-25.287107 z m -1.38867,35.931637 c 16.18455,0.29768 29.78165,4.78455 42.24219,16.12305 a 18.086499,18.086499 0 0 0 0.0332,0.0312 c 11.54732,10.45501 18.50811,24.31766 23.35156,41.17578 0.001,0.003 0.003,0.006 0.004,0.01 20.81624,73.90785 39.98332,148.376 59.5918,222.9082 14.78898,56.35811 29.38624,112.7471 44.09179,169.06836 a 18.086499,18.086499 0 0 0 0.3418,1.15039 c 1.24378,3.73133 1.81965,4.0475 1.48047,3.36914 a 18.086499,18.086499 0 0 0 17.89062,9.91406 c 3.30977,-0.31521 8.17811,-1.81928 11.87305,-5.34179 3.69494,-3.52251 5.18822,-7.91695 5.68359,-10.44336 0.99076,-5.05284 1.36189,-6.10297 -0.12304,-0.65821 a 18.086499,18.086499 0 0 0 0.0742,-0.28125 c 24.0019,-93.90747 47.90097,-187.70562 71.89843,-281.5957 v -0.004 c 13.72068,-53.64402 27.42973,-107.30881 40.98633,-160.98828 34.72654,0.13178 69.42621,0.0975 104.14063,0.082 -23.61909,85.01774 -47.15732,170.08967 -70.96094,255.04883 -25.22614,89.99328 -49.69539,180.0694 -76.69336,269.13282 -8.16994,26.83237 -21.55239,47.1103 -44.87109,60.44726 -29.68096,16.91446 -77.56335,14.91799 -103.26563,-27.39062 a 18.086499,18.086499 0 0 0 -0.002,-0.002 c -9.48449,-15.60629 -15.22341,-33.78178 -20.85352,-53.63476 l -0.002,-0.008 C 530.63852,523.30418 500.35505,411.37036 469.95312,299.36328 l 0.0918,0.34961 c -0.58668,-2.34671 -1.16414,-3.85961 -1.58789,-5.13086 a 18.086499,18.086499 0 0 0 -32.27734,-4.20508 c -4.79561,7.3076 -5.30498,13.64726 -5.54688,14.48047 a 18.086499,18.086499 0 0 0 -0.084,0.30078 c -28.10285,103.41048 -56.08826,206.75444 -85.1543,309.83399 -6.27937,22.23609 -11.06504,43.01151 -19.69531,60.97656 -9.19675,19.10374 -20.46969,33.01695 -37.95117,41.88672 -29.58998,14.90576 -70.43728,6.68445 -92.50782,-18.24414 -14.36885,-16.22836 -22.47604,-36.19635 -29.17382,-59.25586 l 0.004,0.008 C 125.81365,501.51275 87.329886,362.07787 48.523437,222.55469 a 18.086499,18.086499 0 0 0 -0.0098,-0.0352 C 40.009604,192.17168 31.522356,161.6151 22.960937,131.08398 c 34.711889,0.0566 69.422877,0.0683 104.134763,0 30.50067,119.93255 61.08978,239.86311 91.68164,359.78711 l -0.004,-0.01 c 7.00258,27.51015 14.00258,54.91055 21,82.40039 l -0.15625,-0.67188 c 0.50949,2.37761 1.02617,3.9871 1.79492,6.67774 a 18.086499,18.086499 0 0 0 34.88867,-0.41211 c 6.30348,-24.21335 12.20131,-47.00102 18.19141,-69.86328 l 0.002,-0.008 c 27.71358,-105.55181 54.89594,-211.08231 83.74414,-316.09375 a 18.086499,18.086499 0 0 0 0.0195,-0.0723 c 2.82727,-10.46088 6.08629,-20.15171 10.48633,-28.86719 a 18.086499,18.086499 0 0 0 0.0195,-0.0391 c 11.15184,-22.2192 25.27639,-33.32339 49.41992,-36.25977 a 18.086499,18.086499 0 0 0 0.002,0 c 6.02376,-0.73352 11.70671,-1.09922 17.10156,-1 z" id="path18"/>
    </g>
    <g id="path2" style="opacity:1" transform="matrix(.83753 0 0 .82141 185.335 53.382)">
        <path style="baseline-shift:baseline;display:inline;overflow:visible;vector-effect:none;fill:#0196c7;stroke-linejoin:round;enable-background:accumulate;stop-color:#000000;stop-opacity:1" d="m 1887.1,576.8 h -215.2 c -15.5,0 -30.9,-1.9 -45.9,-6.4 -42.3,-12.5 -65.7,-41.7 -73.8,-84.2 -2.2,-11.7 -3.2,-23.5 -3.2,-35.3 V 166.2 c 0,-19.1 3.3,-37.5 13.9,-53.8 15,-23 37.4,-33.2 63.9,-34.9 27.3,-1.8 54.7,-0.3 82,-0.7 4.2,-0.1 3.8,2.3 3.8,5 0,32.6 -0.1,65.1 0,97.7 0.2,49.3 -1.3,98.6 0.7,147.8 1.5,38.8 12.4,74.8 38.4,104.9 20,23.2 45.5,37.4 75,44.8 37,9.2 74.2,9.5 111.1,0 59.4,-15.4 94.7,-54.2 108.6,-113.4 4.2,-17.9 5.6,-36.1 5.6,-54.4 -0.1,-75.4 0,-150.8 -0.1,-226.2 0,-5.1 1.4,-6.3 6.3,-6.2 25.9,0.5 51.9,-0.9 77.8,0.7 48.7,2.9 79.2,35 79.5,83.9 0.3,59.7 0.1,119.5 0.1,179.2 0,38.7 0.1,77.3 -0.1,116 -0.1,17.3 -2.7,34.4 -8.7,50.7 -13.3,36.7 -40.2,57.4 -77.5,65.6 -12.4,2.8 -25.1,4 -37.8,4 -68.2,-0.1 -136.3,-0.1 -204.4,-0.1 z" id="path19"/>
        <path style="baseline-shift:baseline;display:inline;overflow:visible;vector-effect:none;fill:#ffffff;stroke-linejoin:round;enable-background:accumulate;stop-color:#000000;stop-opacity:1" d="m 1667.9316,58.519531 c -13.819,-0.101031 -27.9252,-0.01216 -42.289,0.933594 -0,1.66e-4 -0.01,-1.66e-4 -0.01,0 -30.4596,1.955944 -59.7206,15.219639 -77.8828,43.068355 a 18.086499,18.086499 0 0 0 -0.014,0.0195 c -13.0558,20.07634 -16.8223,42.47515 -16.8223,63.6582 v 284.70117 c 0,12.82173 1.0876,25.74847 3.5117,38.64063 a 18.086499,18.086499 0 0 0 0.01,0.0449 c 9.0115,47.28251 38.522,83.98039 86.4004,98.14453 16.9106,5.06917 34.0976,7.1543 51.0645,7.1543 h 215.1992 c 68.1,0 136.1907,-3.7e-4 204.3731,0.0996 a 18.086499,18.086499 0 0 0 0.027,0 c 13.8153,0 27.8295,-1.3016 41.7109,-4.42968 41.7226,-9.18057 75.3476,-35.08703 90.5723,-77.04297 6.822,-18.5476 9.6908,-37.77565 9.8008,-56.80664 a 18.086499,18.086499 0 0 0 0,-0.0117 c 0.2005,-38.7933 0.1015,-77.4249 0.1015,-116.09375 0,-59.65961 0.199,-119.48994 -0.1015,-179.29102 a 18.086499,18.086499 0 0 0 0,-0.0195 c -0.1729,-28.18545 -9.3455,-53.37909 -26.5606,-71.533201 -17.2139,-18.152842 -41.867,-28.635436 -69.9433,-30.308593 h -0.01 c -27.2765,-1.681944 -53.5229,-0.245843 -78.5254,-0.728516 -3.9638,-0.08115 -11.0985,-0.313524 -17.8672,6.191406 -6.778,6.513988 -6.8671,13.885036 -6.8671,18.089844 a 18.086499,18.086499 0 0 0 0,0.02344 c 0.1,75.368023 0,150.769193 0.1015,226.201173 -0,17.36852 -1.3435,34.13606 -5.123,50.24414 l 0,-0.002 c -12.7429,54.27201 -41.5849,86.03389 -95.5136,100.02148 -33.9645,8.74253 -67.8828,8.49649 -102.2129,-0.0391 h -0 c -26.5734,-6.67194 -48.2548,-18.85954 -65.6661,-39.05664 a 18.086499,18.086499 0 0 0 -0.012,-0.0137 c -22.9715,-26.594 -32.6296,-57.92527 -34.0156,-93.77735 a 18.086499,18.086499 0 0 0 -0,-0.0351 c -1.9651,-48.34346 -0.4838,-97.4249 -0.6855,-147.14063 l 0,0.0195 c -0.1,-32.52615 0,-65.00755 0,-97.644529 0,-0.456929 1.53,-3.469833 -1.9765,-11.101562 -1.7533,-3.815865 -5.8969,-8.098646 -10.0176,-9.984375 -4.1207,-1.88573 -7.5582,-2.059952 -10.3223,-1.994141 l 0.1661,-0.0039 c -13.2303,0.19385 -26.7738,-0.09616 -40.6036,-0.197266 z m 26.418,22.146485 c 0.083,0.181807 0.166,0.573997 0.166,1.134765 0,0.208195 0,0.416809 0,0.625 -0.4993,-1.645962 -0.3325,-2.12369 -0.166,-1.759765 z m -26.6816,14.064453 c 8.7685,0.06414 17.8446,0.07094 26.8476,0.09961 -0.018,28.215612 -0.087,56.405752 0,84.724612 a 18.086499,18.086499 0 0 0 0,0.0195 c 0.1983,48.87917 -1.319,98.39409 0.7149,148.44531 2e-4,0.005 -2e-4,0.0104 0,0.0156 1.6195,41.72915 13.7602,82.37931 42.7715,115.97265 0,0.002 0,0.004 0.01,0.006 0,0.002 0,0.005 0.01,0.008 22.5792,26.18572 51.8825,42.39094 84.2871,50.51954 a 18.086499,18.086499 0 0 0 0.035,0.01 c 39.6653,9.86273 80.1417,10.21749 119.9727,-0.0371 a 18.086499,18.086499 0 0 0 0.029,-0.008 c 64.8582,-16.8151 106.6125,-62.65027 121.668,-126.77149 a 18.086499,18.086499 0 0 0 0,-0.004 c 4.6186,-19.684 6.0781,-39.3089 6.0781,-58.53125 a 18.086499,18.086499 0 0 0 0,-0.0234 c -0.095,-71.40549 -0.018,-142.84373 -0.094,-214.306639 22.3795,0.04286 44.1643,-0.598992 64.8946,0.68164 a 18.086499,18.086499 0 0 0 0.041,0.002 c 20.6212,1.227959 35.5667,8.245906 45.8515,19.091796 10.2849,10.84589 16.5116,26.15264 16.6387,46.86719 0.2994,59.59182 0.1,119.35467 0.1,179.08789 0,38.73115 0.1,77.29955 -0.1,115.90625 -0.091,15.55348 -2.4203,30.50827 -7.5879,44.54687 a 18.086499,18.086499 0 0 0 -0.031,0.0859 c -11.3808,31.40418 -31.5316,46.87654 -64.3789,54.09766 a 18.086499,18.086499 0 0 0 -0.1016,0.0234 c -10.895,2.46016 -22.2556,3.55468 -33.8164,3.55468 -68.2085,-0.1 -136.3095,-0.0996 -204.4004,-0.0996 h -215.1992 c -14.0221,0 -27.6243,-1.71306 -40.7031,-5.63672 a 18.086499,18.086499 0 0 0 -0.072,-0.0215 c -36.6912,-10.84256 -53.9679,-32.531 -61.1562,-70.22266 -1.9728,-10.5003 -2.8848,-21.16331 -2.8848,-31.93359 V 166.19922 c 0,-17.00822 2.8302,-31.40077 10.9648,-43.91992 l 0,-0.002 c 11.836,-18.14715 27.3696,-25.284716 49.9062,-26.730465 a 18.086499,18.086499 0 0 0 0.033,-0.002 c 12.9246,-0.852171 26.1576,-0.913344 39.6778,-0.814453 z" id="path20"/>
    </g>
    <g id="path3" style="opacity:1" transform="matrix(.83753 0 0 .82141 185.335 53.382)">
        <path style="baseline-shift:baseline;display:inline;overflow:visible;vector-effect:none;fill:#656565;stroke-linejoin:round;enable-background:accumulate;stop-color:#000000;stop-opacity:1" d="m 974.1,521.1 c 0,-70.2 0.1,-140.3 -0.1,-210.5 0,-5 1.3,-6.3 6.3,-6.3 40.7,0.2 81.5,0.2 122.2,0 4.7,0 5.7,1.4 5.7,5.9 -0.1,141 -0.1,282.1 0,423.1 0,4.6 -1.2,5.8 -5.8,5.8 -40.9,-0.2 -81.8,-0.2 -122.7,0 -4.7,0 -5.7,-1.4 -5.7,-5.9 0.1,-70.7 0.1,-141.4 0.1,-212.1 z m 272.7,0 c 0,-70.2 0.1,-140.3 -0.1,-210.5 0,-5.1 1.3,-6.3 6.3,-6.3 40.6,0.2 81.1,0.2 121.7,0 4.5,0 6.2,0.7 6.2,5.8 -0.2,141 -0.1,282.1 0,423.1 0,4.6 -1.2,5.8 -5.8,5.8 -40.9,-0.2 -81.8,-0.2 -122.7,0 -4.8,0 -5.7,-1.4 -5.7,-5.9 0.2,-70.6 0.1,-141.3 0.1,-212 z" id="path21"/>
        <path style="baseline-shift:baseline;display:inline;overflow:visible;vector-effect:none;fill:#ffffff;stroke-linejoin:round;enable-background:accumulate;stop-color:#000000;stop-opacity:1" d="m 1377.5801,286.18359 c -1.1151,-0.0177 -2.084,0.0312 -2.8809,0.0312 a 18.086499,18.086499 0 0 0 -0.088,0 c -40.5407,0.19971 -80.9807,0.19971 -121.5215,0 a 18.086499,18.086499 0 0 0 -0.09,0 c -3.9468,0 -11.0385,-0.15085 -17.7285,6.45118 -6.6901,6.60202 -6.6563,13.84698 -6.6563,17.93359 a 18.086499,18.086499 0 0 0 0,0.0527 c 0.1999,70.14853 0.1,140.23009 0.1,210.44727 0,70.71705 0.1003,141.4005 -0.1,211.94922 a 18.086499,18.086499 0 0 0 0,0.0508 c 0,3.45565 -0.5092,9.87499 5.7207,16.76562 6.2299,6.89064 13.9063,7.21875 18.0645,7.21875 a 18.086499,18.086499 0 0 0 0.088,0 c 40.841,-0.19971 81.6824,-0.19971 122.5234,0 a 18.086499,18.086499 0 0 0 0.088,0 c 3.8726,0 10.9368,0.007 17.4141,-6.4707 6.4772,-6.47728 6.4707,-13.54148 6.4707,-17.41406 a 18.086499,18.086499 0 0 0 0,-0.0117 c -0.1,-140.99999 -0.2,-282.08816 0,-423.0625 a 18.086499,18.086499 0 0 0 0,-0.0254 c 0,-4.55941 -0.8324,-12.87509 -8.0059,-18.77734 -5.3801,-4.42669 -10.0533,-5.08568 -13.3984,-5.13868 z m -397.27932,0.0312 c -4.06734,0 -11.25576,0.0136 -17.81445,6.57227 -6.55869,6.55869 -6.57031,13.74516 -6.57031,17.8125 a 18.086499,18.086499 0 0 0 0,0.0527 c 0.19985,70.14853 0.0996,140.23009 0.0996,210.44727 0,70.7 3.7e-4,141.39127 -0.0996,212.07422 a 18.086499,18.086499 0 0 0 0,0.0254 c 0,3.58961 -0.34227,10.12294 5.84765,16.86719 6.18992,6.74424 13.78991,7.11914 17.93555,7.11914 a 18.086499,18.086499 0 0 0 0.0898,-0.002 c 40.84104,-0.19971 81.68244,-0.19971 122.52344,0 a 18.086499,18.086499 0 0 0 0.088,0.002 c 3.8726,0 10.9348,0.005 17.4121,-6.47266 6.4773,-6.47728 6.4727,-13.53953 6.4727,-17.41211 a 18.086499,18.086499 0 0 0 0,-0.0137 c -0.1,-140.99144 -0.1,-282.08278 0,-423.07422 a 18.086499,18.086499 0 0 0 0,-0.0137 c 0,-3.58961 0.3403,-10.12099 -5.8497,-16.86524 -6.1899,-6.74424 -13.7899,-7.11914 -17.9355,-7.11914 a 18.086499,18.086499 0 0 0 -0.088,0 c -40.6406,0.19971 -81.3828,0.19971 -122.02343,0 a 18.086499,18.086499 0 0 0 -0.0879,0 z m 11.78906,36.16993 c 32.66276,0.12929 65.36206,0.12773 98.02536,0 -0.089,132.85103 -0.089,265.77978 0,398.63085 -32.6751,-0.1276 -65.3502,-0.12732 -98.02536,0 0.0837,-66.64596 0.0957,-133.28519 0.0957,-199.91601 0,-66.23756 0.0625,-132.42615 -0.0957,-198.71484 z m 272.70116,0 c 32.6869,0.12968 65.3367,0.12943 98.0235,0 -0.1722,132.829 -0.094,265.72501 0,398.53125 -32.675,-0.12761 -65.3485,-0.12733 -98.0235,0 0.1572,-66.58186 0.094,-133.21155 0.094,-199.81641 0,-66.23756 0.064,-132.42615 -0.094,-198.71484 z m 108.9004,0 c 0.3362,-0.002 0.6716,0.002 1.0078,0 0.67,0 0.2421,0.27691 -1.0078,0 z" id="path22"/>
    </g>
    <g id="path4" style="opacity:1" transform="matrix(.83753 0 0 .82141 185.335 53.382)">
        <path style="baseline-shift:baseline;display:inline;overflow:visible;vector-effect:none;fill:#0196c7;stroke-linejoin:round;enable-background:accumulate;stop-color:#000000;stop-opacity:1" d="m 1969.9,200.3 c 0,39.3 0.8,78.7 -0.3,118 -0.7,27 -10.4,51.1 -30.9,69.7 -38.8,35.2 -112.9,28.3 -136.9,-35.4 -4.9,-13 -7.4,-26.5 -7.5,-40.3 -0.1,-77 -0.1,-153.9 -0.2,-230.9 0,-3.6 1,-4.7 4.6,-4.7 55.5,0.1 111.1,0.1 166.6,0 4,0 4.9,1.2 4.9,5 -0.1,39.5 -0.1,79 -0.1,118.6 z" id="path23"/>
        <path style="baseline-shift:baseline;display:inline;overflow:visible;vector-effect:none;fill:#ffffff;stroke-linejoin:round;enable-background:accumulate;stop-color:#000000;stop-opacity:1" d="m 1798.6992,58.615234 c -3.6419,0 -10.6727,0.322164 -16.6601,6.523438 -5.9875,6.201273 -6.0235,12.78721 -6.0235,16.261719 a 18.086499,18.086499 0 0 0 0,0.02344 c 0.1,76.984362 0.099,153.884752 0.1992,230.900392 a 18.086499,18.086499 0 0 0 0,0.10742 c 0.1153,15.89851 3.0208,31.57999 8.6622,46.54688 14.0893,37.39377 44.4064,59.7533 76.2675,66.14062 31.8616,6.38742 65.6284,-1.88 89.7071,-23.72461 a 18.086499,18.086499 0 0 0 0,-0.002 c 24.1548,-21.91611 36.0212,-51.57474 36.8261,-82.62305 1.1078,-39.62069 0.3205,-78.92623 0.3106,-117.73047 a 18.086499,18.086499 0 0 0 0.1972,-0.73828 c 0,-39.6 -3e-4,-79.08521 0.1,-118.554686 a 18.086499,18.086499 0 0 0 0,-0.04687 c 0,-3.327739 0.2492,-9.782846 -5.8282,-16.279297 -6.0773,-6.496452 -13.3477,-6.804688 -17.1562,-6.804688 a 18.086499,18.086499 0 0 0 -0.033,0 c -55.4783,0.09996 -111.0569,0.09996 -166.5352,0 a 18.086499,18.086499 0 0 0 -0.033,0 z m 13.4981,36.169922 c 46.6203,0.07034 93.2862,0.07065 139.9062,0 -0.07,34.903164 -0.088,69.798204 -0.088,104.763674 a 18.086499,18.086499 0 0 0 -0.2011,0.75195 c 0,39.54543 0.7907,78.7772 -0.293,117.49414 a 18.086499,18.086499 0 0 0 0,0.0371 c -0.595,22.95121 -8.1283,41.48973 -24.9727,56.77344 -14.7213,13.35539 -37.4065,19.23836 -58.2949,15.05078 -20.8884,-4.18758 -39.6203,-17.12644 -49.5312,-43.43164 a 18.086499,18.086499 0 0 0 0,-0.004 c -4.1587,-11.03311 -6.2531,-22.34929 -6.3379,-34.05078 -0.094,-72.47805 -0.1037,-144.8892 -0.1875,-217.384764 z" id="path24"/>
    </g>
    <g id="path5" style="opacity:1" transform="matrix(0.83753,0,0,0.82141,185.335,53.382)">
        <path style="baseline-shift:baseline;display:inline;overflow:visible;vector-effect:none;fill:#656565;stroke-linejoin:round;enable-background:accumulate;stop-color:#000000;stop-opacity:1" d="m 960.8,154.3 c 0.1,-40.6 32.7,-74.7 71.4,-77.1 28.6,-1.7 53.1,6.7 71.3,29.2 29.2,36 18.5,88.8 -22,111.2 -39.7,22 -88,9.8 -110.5,-27.9 -6.9,-11.4 -9.9,-23.9 -10.2,-35.4 z m 432.2,-2.2 c -0.1,36.2 -24.8,65.6 -61.8,74.4 -37.9,9 -77.5,-10.7 -91.8,-45.9 -18.3,-44.8 10.2,-92.9 56.3,-101.8 33.4,-6.5 62,3.3 83.2,30.8 9.7,12.7 13.6,27.6 14.1,42.5 z" id="path25"/>
        <path style="baseline-shift:baseline;display:inline;overflow:visible;vector-effect:none;fill:#ffffff;stroke-linejoin:round;enable-background:accumulate;stop-color:#000000;stop-opacity:1" d="m 1043.3438,59.025391 c -4.0474,-0.163571 -8.1252,-0.122115 -12.2168,0.121093 a 18.086499,18.086499 0 0 0 -0.047,0.0039 c -48.6362,3.016197 -88.24147,44.849699 -88.36526,95.105469 a 18.086499,18.086499 0 0 0 0.006,0.51562 c 0.37276,14.28907 4.07602,29.8441 12.79102,44.25782 27.4714,45.95145 87.14568,60.76196 134.74028,34.39648 l 0.01,-0.006 c 49.8375,-27.57127 63.29,-93.9977 27.3007,-138.392576 l -0.01,-0.0078 c -19.0804,-23.582991 -45.881,-34.849289 -74.2089,-35.99414 z m 263.3222,0.160156 c -4.7736,0.302991 -9.5866,0.92359 -14.416,1.863281 -56.628,10.946463 -92.0808,71.307722 -69.5957,126.376952 17.803,43.79321 66.3049,67.69307 112.7246,56.66992 a 18.086499,18.086499 0 0 0 0.01,-0.002 c 44.0584,-10.47877 75.5765,-47.54413 75.6992,-91.94336 a 18.086499,18.086499 0 0 0 -0.01,-0.65625 c -0.5921,-17.6465 -5.3804,-36.60685 -17.8027,-52.871093 a 18.086499,18.086499 0 0 0 -0.049,-0.06445 C 1371.581,70.485667 1340.0904,57.064042 1306.666,59.185547 Z m 12.1035,35.595703 c 18.2012,0.633077 32.5302,8.66103 45.7696,25.81445 6.8954,9.03728 9.8967,19.75161 10.3535,31.74414 -0.2028,27.85712 -18.0416,49.47042 -47.877,56.56641 -29.3712,6.9716 -60.0583,-8.52128 -70.8613,-35.11328 a 18.086499,18.086499 0 0 0 -0.012,-0.0312 c -14.1008,-34.52 7.4318,-70.34098 42.9863,-77.205079 a 18.086499,18.086499 0 0 0 0.025,-0.0059 c 7.0385,-1.369776 13.5423,-1.980759 19.6152,-1.769531 z m -276.6562,0.28125 c 19.8647,0.408132 34.557,6.9249 47.3262,22.71094 a 18.086499,18.086499 0 0 0 0.016,0.0195 c 22.3887,27.60251 14.441,66.75487 -16.7071,83.98242 a 18.086499,18.086499 0 0 0 -0.014,0.006 c -31.7813,17.6118 -68.6621,8.04461 -86.2051,-21.34961 a 18.086499,18.086499 0 0 0 -0.0586,-0.0957 c -5.02415,-8.30078 -7.30823,-17.63381 -7.57031,-26.26758 0.22831,-30.82035 25.73661,-57.032514 54.41011,-58.816407 0,-2.06e-4 0.01,-0.0017 0.01,-0.002 3.0409,-0.179608 5.9702,-0.245495 8.793,-0.1875 z" id="path26"/>
    </g>
    <g id="path1-3" style="opacity:1">
        <path style="baseline-shift:baseline;display:inline;overflow:visible;vector-effect:none;fill:#ffffff;stroke-linecap:round;stroke-linejoin:round;paint-order:markers stroke fill;enable-background:accumulate;stop-color:#000000;stop-opacity:1" d="m 2132.5,116.31055 c -2.5056,-0.0863 -4.3281,0.0838 -6.4453,0.22265 -1.2768,0.0517 -3.1396,0.1684 -5.3106,0.84961 -2.4734,-0.71269 -4.8031,-0.90683 -6.4023,-0.86328 l 0.168,-0.004 c -9.9768,0.1604 -20.075,0.0801 -30.293,-0.002 a 15.0015,15.0015 0 0 0 -0.1191,0 c -1.3819,0 -4.6455,-1.07961 -10.7989,2.44727 -3.0766,1.76344 -6.0269,5.22029 -7.33,8.35742 -1.3032,3.13712 -1.4786,5.72031 -1.4786,7.89062 0,4.12435 1.9502,11.98251 8.1426,15.92188 2.8478,1.81166 5.1848,2.49739 7.1328,2.76953 -0.016,7.61133 -0.01,15.30222 -0.1152,22.56445 l 0,-0.15625 c -0.053,2.09632 0.056,4.63272 1.2773,7.75586 1.2215,3.12314 4.0769,6.62592 7.1504,8.44336 6.147,3.63489 9.5943,2.50967 11.0938,2.45899 a 15.0015,15.0015 0 0 0 0.543,-0.0274 c -0.7398,0.0518 0.9559,1.22157 7.3691,-1.15625 2,-0.74155 4.342,-2.40164 6.3086,-4.42383 2.4014,2.49557 5.5473,4.26814 7.8594,4.91602 5.9723,1.67352 7.5657,0.79144 5.8398,0.65039 a 15.0015,15.0015 0 0 0 0.1738,0.0137 c 1.9991,0.14004 5.7971,0.48843 10.3555,-2.06054 3.8068,1.89459 7.9643,2.30074 10.7168,2.02148 l -0.4668,0.0391 c -1.1248,0.0788 0.607,0.72678 5.8438,-0.50586 1.4327,-0.33723 2.985,-1.18342 4.5292,-2.26757 2.198,1.21175 4.3183,1.87509 5.7891,2.18359 2.5307,0.53079 4.2168,0.62182 6.1641,0.80664 a 15.0015,15.0015 0 0 0 16.4179,-14.93359 v -48.87305 a 15.0015,15.0015 0 0 0 -15.4609,-14.99414 c -3.6075,0.11062 -5.5844,0.26368 -5.9961,0.22461 a 15.0015,15.0015 0 0 0 -0.1953,-0.0176 c -3.4406,-0.28119 -8.8538,0.13936 -13.4727,3.50781 -1.5927,1.16155 -2.7625,2.47284 -3.7695,3.80469 -1.1104,-1.48199 -2.5067,-2.97824 -4.3652,-4.24219 -4.0441,-2.7503 -8.2452,-3.23226 -10.8594,-3.32226 z m -48.6074,7.47461 c 0.1019,0.0107 0.3011,0.0908 0.4199,0.11132 -0.5828,0.0304 -0.8049,6e-5 -1.5215,0.0586 l 0.3574,-0.0254 c -0.4123,0.0238 -0.175,-0.24132 0.7442,-0.14453 z m 0.084,22.72656 c 0.2554,0.002 0.5198,-0.002 0.7754,0 -1.3202,0.34476 -1.5299,0.002 -0.6543,0.002 z m 4.2343,30.72265 c 0.01,0.11615 0,0.21347 0.01,0.33008 l -0.012,-0.22461 c -7e-4,-0.0164 0,-0.0867 0,-0.10547 z" id="path27"/>
        <path style="baseline-shift:baseline;display:inline;overflow:visible;vector-effect:none;fill:#656565;stroke-linecap:round;stroke-linejoin:round;paint-order:markers stroke fill;enable-background:accumulate;stop-color:#000000;stop-opacity:1" d="m 2103.1084,159.52313 c 0,5.74987 -0.2512,11.4176 0.084,17.16747 0.1675,3.86062 -2.1776,3.12136 -4.5227,3.28564 -2.4288,0.0821 -4.1039,0 -4.0201,-3.28564 0.1675,-11.17118 -0.084,-22.34235 0.1675,-33.43139 0.084,-3.69634 -1.1726,-4.84632 -4.6902,-4.43561 -2.0101,0.24642 -4.1039,-0.0821 -6.1139,0.0821 -2.8477,0.16428 -4.5227,-0.0821 -4.5227,-3.69635 0,-3.69634 1.8426,-3.69634 4.6064,-3.69634 10.2179,0.0821 20.4357,0.16428 30.6536,0 3.0151,-0.0821 3.6014,1.06783 3.6014,3.77848 0,2.71066 -0.5863,4.10705 -3.6014,3.69635 -0.2513,-0.0821 -0.5863,0 -0.8375,0 -10.7204,0.0821 -10.7204,0.0821 -10.7204,10.43191 -0.084,3.28564 -0.084,6.65342 -0.084,10.10334 z m 68.51,20.69953 c -7.789,-0.73927 -7.789,-0.73927 -7.789,-8.78909 v -28.2565 c -0.2513,-0.0821 -0.5026,-0.0821 -0.7538,-0.16428 -2.0938,6.8177 -4.2714,13.71755 -6.3652,20.53525 -1.4238,4.51775 -3.0152,8.95337 -4.1039,13.55326 -0.8376,3.61421 -3.4339,2.71066 -5.779,2.87494 -2.4288,0.24642 -3.5176,-0.73927 -4.1876,-3.12136 -2.7639,-9.6105 -5.6953,-19.22099 -8.6266,-28.74935 -0.4188,-1.31426 -0.4188,-2.79279 -1.6751,-3.77849 -1.4238,0.73927 -0.8375,2.05353 -0.8375,3.03922 0,9.85692 -0.084,19.71384 0.1675,29.57076 0.084,2.71065 -1.005,3.2035 -3.3501,3.03922 -2.0101,-0.16428 -4.5227,0.73927 -4.5227,-2.87494 0.084,-14.29253 0.084,-28.58507 0,-42.8776 0,-2.05352 0.9213,-2.62851 2.9314,-2.71065 9.0453,-0.57499 8.9616,-0.65713 11.5579,7.88553 2.9314,9.69264 6.0302,19.38528 9.0453,29.16006 1.5913,-0.32857 1.3401,-1.64282 1.6751,-2.62851 3.1826,-10.26763 6.5327,-20.45311 9.5478,-30.72074 0.8376,-2.87493 2.1776,-3.94276 5.1927,-3.69634 2.5964,0.24642 5.1927,-0.0821 7.8728,-0.16428 z" id="path28"/>
    </g>
</svg>
