<?xml version='1.0' encoding='utf-8'?>
<svg xmlns="http://www.w3.org/2000/svg" fill="#0078d6" height="143.87003406300983" viewBox="0 0 415.38533 99.602398" width="600" version="1.1" id="svg1">
    <defs id="defs1"/>
    <path id="path2" style="baseline-shift:baseline;display:inline;overflow:visible;vector-effect:none;fill:#ffffff;stroke-linecap:round;stroke-linejoin:round;paint-order:markers stroke fill;enable-background:accumulate;stop-color:#000000" d="M 93.222799,4.6502773e-4 C 92.958802,0.00416503 92.695339,0.02532503 92.434126,0.06374503 L 45.134859,6.963753 C 44.318539,7.237698 43.570745,7.684137 42.942278,8.272739 42.299285,7.945705 41.602591,7.737292 40.885636,7.657504 L 5.1844264,12.555946 c -3.2830512,0.451289 -5.57854357,3.478716 -5.12695837,6.761726 l 0.00117,61.190688 c -0.4591602,3.281258 1.82821677,6.313603 5.10938027,6.773443 l 35.7000367,5.0004 c 0.778069,-0.0728 1.534419,-0.29696 2.226565,-0.65977 0.598928,0.5409 1.30082,0.95542 2.063674,1.21875 l 47.30044,6.70079 c 3.612933,0.512017 6.842688,-2.29238 6.842585,-5.94141 V 52.200519 c -0.154283,-0.786832 -0.464692,-1.534763 -0.912892,-2.199612 0.4482,-0.664849 0.758609,-1.41278 0.912892,-2.199612 V 6.000471 C 99.301266,2.655995 96.566991,-0.04296197 93.222797,4.6502773e-4 Z M 87.301309,12.940322 V 41.801289 H 47.700096 V 18.717671 Z m 108.460651,0.958594 c -1.99564,0.02876 -4.04015,0.626138 -5.83008,1.955862 -0.50384,0.374302 -0.84308,0.967807 -1.27149,1.456642 -0.1584,-0.08737 -0.32068,-0.167528 -0.48632,-0.240235 l -6.65978,0.0293 c -2.75411,0.01274 -5.14595,1.89867 -5.80078,4.573833 -1.84279,7.527597 -3.9451,15.081996 -6.00587,22.733227 L 163.4381,21.514943 c -0.71264,-2.600163 -3.07193,-4.405825 -5.76797,-4.414458 l -5.85001,-0.01992 c -2.70721,-0.0087 -5.08501,1.796337 -5.8043,4.406255 -2.17432,7.897326 -4.55855,15.826283 -6.88829,23.841821 L 132.5451,21.445804 c -0.71395,-2.590655 -3.06321,-4.390782 -5.7504,-4.406254 l -6.75938,-0.03867 c -0.31939,0.100065 -0.62985,0.226678 -0.92812,0.378516 -0.23841,-0.04107 -0.47909,-0.06768 -0.72071,-0.07969 -0.34043,0.220099 -0.65767,0.474131 -0.94687,0.758204 -0.80543,0.391649 -1.51297,0.958639 -2.07071,1.659377 -0.31484,0.514486 -0.5503,1.073505 -0.69844,1.658205 -0.2989,0.495009 -0.52467,1.030626 -0.67031,1.590236 0.10204,0.328936 0.2322,0.648475 0.38906,0.955079 -0.0486,0.269111 -0.0787,0.54123 -0.0902,0.814454 l 15.4008,53.000445 c 0.73967,2.544528 3.06079,4.302635 5.71055,4.325395 2.44999,0.02042 4.97471,0.01188 7.57383,-0.128906 2.57017,-0.139749 4.76493,-1.903101 5.45509,-4.382817 l 5.9461,-21.357444 6.03868,21.500413 c 0.72647,2.58873 3.08627,4.378214 5.775,4.379301 h 7.20118 c 2.69278,-9e-6 5.05582,-1.793842 5.7797,-4.387504 l 9.85313,-35.286365 c -1.51065,-4.198948 -2.13281,7.182005 -2.13281,33.603551 0,3.313709 2.68629,6.000003 6,6.000006 h 6.00001 c 2.31009,-0.193057 4.30236,-1.699464 5.11758,-3.869536 0.81775,2.164512 2.80713,3.66601 5.1129,3.858989 h 6 c 3.29536,-8.72e-4 5.97341,-2.659045 5.99884,-5.954303 0.0608,-8.00914 -0.10379,-15.891319 0.0703,-23.598072 0.0396,-1.162941 0.80364,-2.692842 1.91016,-3.603519 1.10826,-0.912098 2.08539,-1.154949 3.12891,-0.840235 0.12003,0.0366 0.24119,0.06943 0.36328,0.09844 0.285,0.06679 0.32541,0.03724 0.7207,0.768751 0.39528,0.731511 0.75302,2.13163 0.80274,3.362113 v 0.01172 c 0.32644,7.680865 0.0323,15.619603 0.13477,23.819556 0.0406,3.273326 2.69716,5.910114 5.9707,5.926178 2.02,0.0101 4.02931,0.0094 6.02931,0.0094 3.33335,-2.22e-4 6.02766,-2.717163 6,-6.050397 -0.004,-0.475468 -0.006,-0.98448 -0.008,-1.46133 0.93356,1.288292 1.88379,2.573876 3.17344,3.685551 6.64154,5.788213 16.06027,6.373981 23.39651,2.537112 0.91571,0.7371 2.02775,1.189007 3.19805,1.299611 h 5.98008 c 3.31358,-3.29e-4 5.99968,-2.68643 6.00001,-6.000006 v -2.34844 c 8.29598,11.427454 25.61935,12.685784 36.00824,3.236722 0.0268,-0.02515 0.0534,-0.05054 0.0797,-0.07617 3.4263,-3.234009 5.53954,-7.304271 6.71837,-11.581653 l 3.74297,12.580091 c 0.75726,2.544629 3.09666,4.289169 5.75157,4.289067 h 6 c 2.67291,-0.0011 5.02283,-1.76999 5.76329,-4.338286 0.97101,-3.367481 2.07529,-6.789111 3.15235,-10.201182 0.99041,3.368143 2.01206,6.752179 2.8793,10.060557 0.69177,2.638751 3.07638,4.47884 5.8043,4.478911 h 6.21915 c 2.65491,9.7e-5 4.99431,-1.744442 5.75156,-4.289067 l 2.34259,-7.877352 0.0363,4.801177 c 0.0177,2.32177 1.3733,4.424951 3.48048,5.400006 7.93673,3.670738 17.94832,4.322181 26.19377,-0.896485 8.54584,-5.304688 10.13559,-17.409796 2.75743,-24.512135 -0.0206,-0.01968 -0.0413,-0.03921 -0.0621,-0.05859 -4.3292,-4.050256 -8.49198,-5.372386 -11.68595,-6.612898 1.68521,0.161873 3.62759,0.780469 5.43165,1.910159 4.24949,2.659966 9.69385,-0.755054 9.14883,-5.738678 -0.01,-0.08902 0.0397,-0.985843 0.0902,-2.425784 0.0505,-1.43994 0.0972,-3.664047 -1.19532,-6.117194 -0.67214,-1.274959 -1.78072,-2.265402 -3.12305,-2.790237 -4.56756,-1.785615 -9.2875,-2.185569 -13.69923,-1.879689 -0.19799,0.08523 -0.39124,0.181077 -0.57891,0.287109 -0.18752,-0.03083 -0.37641,-0.05273 -0.56601,-0.06562 -2.03264,0.573495 -5.17684,1.178226 -8.30275,3.217972 -1.1382,-1.486861 -2.90524,-2.357163 -4.77773,-2.353127 -2.0398,0.0202 -4.13979,0.05113 -6.28126,0.158203 -2.65352,0.132675 -4.90389,1.994479 -5.53126,4.576177 -0.74626,3.071139 -1.62896,6.227775 -2.47383,9.353916 -0.8958,-3.21141 -1.82213,-6.448429 -2.62969,-9.619932 -0.67498,-2.646522 -3.05201,-4.503351 -5.78321,-4.517583 l -5.46797,-0.03047 c -2.66532,-0.01476 -5.02093,1.730349 -5.78321,4.28438 -1.0906,3.657891 -2.24618,7.355805 -3.38907,11.047277 l -2.97305,-10.927746 c -0.71119,-2.611426 -3.08253,-4.423532 -5.78907,-4.423833 h -6.25899 c -0.35168,0.10908 -0.69257,0.250301 -1.01836,0.421876 -0.22926,-0.03761 -0.46051,-0.06187 -0.69258,-0.07266 -0.32469,0.214984 -0.62768,0.461067 -0.90468,0.734767 -0.78933,0.39302 -1.48233,0.955183 -2.02969,1.646486 -0.33523,0.517824 -0.5886,1.084246 -0.75118,1.679299 -5.72395,-4.956485 -13.06721,-5.809552 -19.1297,-5.276959 -0.11555,0.05571 -0.22928,0.11512 -0.34102,0.178125 -0.15124,-0.03284 -0.3037,-0.05981 -0.45703,-0.08086 -3.67614,0.812042 -8.09933,2.03349 -11.98244,5.320318 -0.0216,0.01821 -0.0431,0.03657 -0.0644,0.05508 -1.40144,1.221049 -2.57992,2.577557 -3.6293,3.998441 V 20.000876 c -3.3e-4,-3.313576 -2.68643,-5.999677 -6.00001,-6.000006 h -5.8207 c -0.0331,-0.01397 -0.0663,-0.02764 -0.0996,-0.04102 -1.43483,0.05609 -2.80196,0.624901 -3.85313,1.603127 -0.13077,0.04977 -0.25975,0.104101 -0.38672,0.16289 -1.16349,1.119415 -1.82673,2.6605 -1.83985,4.275005 0.0286,0.07363 0.0587,0.146695 0.0902,0.219141 l 0.0211,11.528918 c -1.19971,-0.33372 -2.41139,-0.613025 -3.61875,-0.72422 -5.66895,-0.522094 -11.44351,1.046724 -15.97268,4.770708 l -0.008,0.0059 c -2.61392,2.155807 -4.40411,4.796463 -5.81485,7.578523 -0.29028,-0.87105 -0.47149,-1.745763 -0.88594,-2.607424 -1.60463,-3.336064 -4.45008,-6.640823 -8.59805,-8.293368 -5.71095,-2.449197 -11.96793,-1.957229 -17.13518,0.754688 -0.85297,-0.669714 -1.87149,-1.095752 -2.94727,-1.232814 h -6 c -2.30779,0.192918 -4.29858,1.696613 -5.11524,3.863676 -0.68986,-1.529546 -1.98862,-2.700384 -3.58126,-3.228519 3.04287,-1.667909 5.53126,-4.864158 5.53126,-8.735165 0,-5.435332 -4.83631,-9.681927 -9.35157,-9.979698 -0.28221,-0.01861 -0.56686,-0.02637 -0.85196,-0.02227 z m 188.6627,21.780492 c -0.0597,0.05454 -0.10966,0.116906 -0.17461,0.167578 -0.0641,0.05682 -0.12985,0.09112 -0.19453,0.139453 z m -155.0568,0.73711 0.32109,0.08672 c -0.0533,-0.01268 -0.10599,-0.0081 -0.15937,-0.02344 -0.0578,-0.01461 -0.10618,-0.04514 -0.16172,-0.06328 z m 160.71813,1.560939 c -0.0214,0.01161 -0.0351,0.02929 -0.0562,0.04102 -0.0282,0.01618 -0.0573,0.02467 -0.0855,0.03984 z m -69.46179,3.383207 0.0387,0.04102 c -0.008,-0.0068 -0.0183,-0.01153 -0.0258,-0.01992 -0.006,-0.0065 -0.009,-0.0141 -0.0129,-0.02109 z m -55.53755,6.543756 c 1.4571,-0.06271 3.12309,0.644143 3.8332,1.65469 0.0744,0.105608 0.15216,0.208787 0.23321,0.309375 0.82576,1.028302 0.98855,3.691831 0.95625,7.998055 v 0.01172 c -0.0157,2.928916 -0.71445,5.31469 -1.83399,6.483991 -0.0765,0.07996 -0.15072,0.162026 -0.22266,0.246094 -1.3392,1.563523 -5.33463,1.510645 -6.54258,-0.08203 -1.92033,-2.578132 -2.34907,-7.154387 -1.40391,-11.527747 0.007,-0.03315 0.0128,-0.06635 0.0187,-0.09961 0.50606,-2.547177 2.30804,-4.642759 4.0043,-4.911333 0.0306,-0.01887 0.0611,-0.03801 0.0914,-0.05742 0.0856,0.01828 0.17152,0.03469 0.25781,0.04922 0.19624,-0.04176 0.40005,-0.06604 0.60821,-0.075 z m 42.32348,0.09609 c 0.59118,-0.02338 1.17231,0.01933 1.71328,0.123047 1.10556,0.21197 2.04563,0.65969 2.56992,1.250392 0.0163,0.01885 0.0327,0.0376 0.0492,0.05625 1.73973,1.911256 2.34483,5.735112 1.9629,10.006651 -0.27632,2.964963 -1.59111,5.369793 -2.96251,5.997663 -0.0718,0.03297 -0.14287,0.06735 -0.21328,0.103125 -2.86306,1.450001 -7.54534,-0.198306 -8.48673,-3.073831 -0.019,-0.05811 -0.039,-0.115933 -0.0598,-0.173438 -0.92678,-2.561286 -1.16235,-6.351046 -0.40899,-9.123057 0.7511,-2.763704 1.86599,-4.211453 4.06055,-4.891411 0.58257,-0.16255 1.18421,-0.252012 1.7754,-0.275391 z m -59.03796,2.480862 c -0.002,0.01697 -0.003,0.03431 -0.007,0.05039 -0.001,0.0071 -0.006,0.01416 -0.008,0.02109 z m -6.93633,6.199225 c -9.4e-4,0.03253 0.005,0.06939 0.004,0.101954 -3.6e-4,0.03263 -0.008,0.06701 -0.009,0.09961 z m 148.03375,0.213282 c 0.0287,0.01734 0.0538,0.02792 0.0832,0.04687 0.009,0.0054 0.0148,0.0124 0.0223,0.01875 z m -7.64298,0.896485 c 0.27715,0.333662 0.49429,0.694788 0.80508,1.011329 2.89057,3.034385 6.25148,4.476184 8.92735,5.568756 1.40256,0.572668 2.0977,1.007735 3.13829,1.485939 -2.28117,-0.154521 -4.76256,-1.058305 -6.86134,-2.657815 -3.1474,-1.771739 -7.13537,-0.381752 -8.49962,2.962503 z m -49.88677,0.240235 -0.006,0.185156 c 0.001,-0.03201 -0.003,-0.06755 -0.002,-0.09961 4.6e-4,-0.0286 0.007,-0.05695 0.008,-0.08555 z M 47.700096,58.200525 H 87.301309 V 86.690003 L 47.700096,81.081408 Z m 242.941654,8.006258 c 0.007,0.016 0.0167,0.0288 0.0223,0.0457 0.0111,0.03112 0.0167,0.0653 0.0258,0.09727 z m 25.29964,10.040636 -0.19805,0.09726 c 0.0269,-0.01382 0.0435,-0.03621 0.0715,-0.04922 0.0413,-0.0205 0.0849,-0.02896 0.12657,-0.04805 z"/>
    <path style="baseline-shift:baseline;display:inline;overflow:visible;vector-effect:none;stroke-linecap:round;stroke-linejoin:round;paint-order:markers stroke fill;enable-background:accumulate;stop-color:#000000" d="m 6.0003361,18.500796 35.6999999,-4.9 v 34.5 H 6.0003361 m 39.9999999,-35.2 47.299999,-6.9 v 41.8 H 46.000336 m -39.9999999,3.94 H 41.700336 V 86.340793 L 6.0003361,81.340796 m 39.9999999,-29.14 h 47.299999 v 41.400007 l -47.299999,-6.70001 m 74.000004,-63.899997 6.76,0.04 10.5,38.1 c 0.75,2.66 1.3,5.38 1.64,8.14 3.66,-15.6 8.66,-30.8 12.9,-46.2 l 5.85,0.02 9.04,33 c 1.13,4.38 2.6,8.7 3.05,13.2 3.3,-15.6 8.03,-30.8 11.8,-46.2 l 6.66,-0.03 -14.8,53 h -7.2 l -10.7,-38.1 c -0.6,-2.05 -0.85,-4.17 -1.04,-6.3 -0.28,1.83 -0.54,3.68 -1,5.47 l -10.8,38.8 c -2.4,0.13 -4.8,0.14 -7.2,0.12 l -15.4,-53 m 71.94,0.34 c 0.63,-4.994 7.965,-4.485 7.965,0.5 0,4.985 -7.336,5.494 -7.965,0.5 m 0.9,13.6 h 6 v 38 h -6 m 22.16,-31.88 c 3.43,-6.1 11.43,-8.92 17.88,-6.1 5.13,2 7.04,7.94 7.2,13 0.28,8.32 0.05,16.65 0.12,24.97 -2,0 -4,0 -6,-0.01 -0.1,-8 0.2,-16 -0.14,-24 -0.16,-3.96 -1.84,-8.72 -6.15,-9.73 -6.3,-1.9 -12.57,3.77 -12.77,10 -0.18,7.9 -0.01,15.83 -0.07,23.74 h -6 v -37.99 h 6 l -0.08,6.12 m 60.95,-24.12 h 6 v 56 h -5.98 l -0.17,-6.1 c -4.33,7.78 -15.9,9.5 -22.5,3.73 -4.73,-4.07 -6.17,-10.7 -5.92,-16.7 0.05,-6.08 2.05,-12.5 6.9,-16.5 6.3,-5.18 17.4,-4.88 21.8,2.73 l -0.04,-23.2 m -12.9,22.1 c -4.8,0.76 -8.05,5.14 -8.95,9.67 -1.18,5.46 -0.97,11.8 2.47,16.4 3.72,4.94 11.9,5.05 15.9,0.38 2.7,-2.82 3.48,-6.86 3.5,-10.6 0.03,-4 0.37,-8.5 -2.28,-11.8 -2.34,-3.33 -6.7,-4.83 -10.6,-4 m 41.77,-5 c 5.35,-0.47 11.3,0.37 15.3,4.24 4.54,4.2 5.9,10.7 5.64,16.6 -0.07,5.35 -2.05,10.8 -5.97,14.5 -8.18,7.44 -23.4,5.8 -28.6,-4.42 -4.08,-8.57 -3.26,-20.4 4.2,-26.9 2.67,-2.26 6.05,-3.3 9.4,-4.04 m -1.08,5.44 c -8.8,2.7 -10.3,14.2 -7.55,21.8 2.2,6.72 10.7,9.7 16.9,6.56 4.15,-1.9 6.04,-6.6 6.44,-10.9 0.45,-5 0.05,-10.7 -3.5,-14.6 -3,-3.38 -8.08,-4.1 -12.3,-2.87 m 25.12,-4.52 h 6.26 l 7.4,27.2 c 0.5,1.7 0.7,3.46 0.88,5.22 2.83,-10.9 6.4,-21.6 9.62,-32.4 l 5.47,0.03 c 2.75,10.8 6.17,21.4 8.45,32.4 2.35,-10.8 5.7,-21.5 8.3,-32.2 2,-0.1 4.02,-0.13 6.04,-0.15 l -11.3,38 h -6.22 c -2.7,-10.3 -6.2,-20.4 -8.4,-30.8 -2.6,10.4 -6.23,20.5 -9.2,30.8 h -6 l -11.3,-38 m 67,-1.1 c 3.75,-0.26 7.57,0.1 11.1,1.48 0.98,1.86 0.22,4.3 0.45,6.4 -4.2,-2.63 -10,-4.3 -14.6,-1.63 -3.13,1.7 -3.28,6.73 -0.23,8.6 4.37,2.83 9.92,3.57 13.8,7.2 4.28,4.12 3.24,12 -1.77,15.1 -6.1,3.88 -14.1,3.5 -20.5,0.54 l -0.05,-6.72 c 4.54,3.46 10.9,5.38 16.4,2.92 3.17,-1.6 3.33,-6.46 0.54,-8.5 -4.37,-3.22 -10.4,-3.73 -14.2,-7.75 -3.83,-3.86 -3.14,-11 1.13,-14.2 2.2,-2.03 5.2,-2.64 8,-3.43" id="path3"/>
</svg>
