<?xml version="1.0" encoding="UTF-8" standalone="no"?>
<svg
   width="782.09961"
   height="181.75613"
   viewBox="-90.674 86 782.09961 181.75613"
   xml:space="preserve"
   version="1.1"
   id="svg8"
   sodipodi:docname="wonderswancolor.svg"
   inkscape:version="1.4.3 (0d15f75042, 2025-12-25)"
   xmlns:inkscape="http://www.inkscape.org/namespaces/inkscape"
   xmlns:sodipodi="http://sodipodi.sourceforge.net/DTD/sodipodi-0.dtd"
   xmlns="http://www.w3.org/2000/svg"
   xmlns:svg="http://www.w3.org/2000/svg"><defs
   id="defs8">
        
        
    </defs><sodipodi:namedview
   id="namedview8"
   pagecolor="#959595"
   bordercolor="#000000"
   borderopacity="0.25"
   inkscape:showpageshadow="2"
   inkscape:pageopacity="0.0"
   inkscape:pagecheckerboard="0"
   inkscape:deskcolor="#d1d1d1"
   inkscape:zoom="0.8973767"
   inkscape:cx="396.71188"
   inkscape:cy="92.491815"
   inkscape:window-width="1920"
   inkscape:window-height="1080"
   inkscape:window-x="0"
   inkscape:window-y="0"
   inkscape:window-maximized="0"
   inkscape:current-layer="svg8" />
    <g
   id="path1"
   style="opacity:1"
   transform="translate(12.49788,12.5)"><path
     style="baseline-shift:baseline;display:inline;overflow:visible;vector-effect:none;fill:#ffffff;stroke-linecap:round;stroke-linejoin:round;paint-order:markers stroke fill;enable-background:accumulate;stop-color:#000000;stop-opacity:1"
     d="m -12.630859,73.5 c -38.672913,0 -61.869457,17.607693 -69.117188,38.75391 -3.274134,8.42274 -4.227918,17.36448 -3.158203,26.38476 a 12.50125,12.50125 0 0 0 -18.26563,10.35352 c 0.003,0.29505 0.0743,0.58056 0.082,0.875 l -0.043,0.002 c 0.0923,1.14903 0.22695,2.29316 0.36523,3.4375 2.05806,23.03355 18.233827,44.04041 38.769533,60.7793 21.81896,17.78488 49.372729,30.90039 76.554688,30.90039 38.67426,0 61.872853,-17.60601 69.125,-38.75391 3.27108,-8.42109 4.224003,-17.3621 3.154296,-26.38086 a 12.50125,12.50125 0 0 0 18.265623,-10.35547 c -0.003,-0.29765 -0.0742,-0.58579 -0.082,-0.88281 l 0.043,-0.002 c -0.0782,-0.96503 -0.2145,-2.15697 -0.35742,-3.35352 C 100.67483,142.19471 84.484087,121.16014 63.925781,104.40234 42.106928,86.617031 14.552816,73.5 -12.630859,73.5 Z m 0,25 c 14.0665381,0 31.123665,5.94185 46.496093,15.25391 -0.174965,0.0109 -0.350508,0.005 -0.52539,0.0176 A 12.50125,12.50125 0 0 0 24,120.125 c -9.680587,-5.63952 -19.9802976,-8.91499 -30.0683594,-9.57422 -13.3440866,-0.872 -27.0847036,3.14475 -35.8906246,13.77344 h 0.002 c -8.674737,10.46875 -10.035014,24.50811 -6.613281,37.15039 -10.655762,-14.92817 -13.641872,-30.80771 -9.806641,-40.4043 a 12.50125,12.50125 0 0 0 0.234375,-0.63476 C -54.43358,109.47002 -44.662667,98.5 -12.630859,98.5 Z m 4.9316403,36.99805 c 4.7532992,0.31061 10.2763338,1.9289 15.8359375,4.63672 -7.47990373,0.62282 -14.9752582,3.55595 -20.1738278,9.88867 -4.258598,5.18828 -5.872112,11.48834 -5.88086,17.69726 -3.121652,-4.25708 -5.363642,-8.58308 -6.46875,-12.5 -1.972289,-6.99053 -0.952303,-11.77136 1.677735,-14.94531 a 12.50125,12.50125 0 0 0 0.002,0 c 2.634078,-3.17931 7.471149,-5.26984 15.0078123,-4.77734 z m 19.4863277,29.41601 c 3.217411,0.2124 7.896513,1.82104 12.154297,5.16797 7.863437,6.18292 8.685661,14.23013 8.210938,15.17969 a 12.50125,12.50125 0 0 0 -0.08594,0.95508 12.50125,12.50125 0 0 0 -1.142578,-0.0449 c -2.144373,0.7501 -9.76357,0.005 -16.171875,-5.31054 l -0.002,-0.002 c -4.152177,-3.44655 -6.6527152,-7.62749 -7.4921875,-10.6289 -0.839014,-2.99977 -0.2779163,-3.97144 0.027344,-4.34375 0.3057505,-0.37246 1.2845425,-1.18506 4.5019525,-0.97266 z m 47.792969,19.18946 c 0.549022,5.064 0.182977,9.67139 -1.273437,13.31835 a 12.50125,12.50125 0 0 0 -0.230469,0.62696 c -3.714918,10.97366 -13.486547,21.9375 -45.519531,21.9375 -14.0611267,0 -31.111116,-5.93845 -46.480469,-15.2461 0.160632,-0.01 0.321856,-0.005 0.482422,-0.0156 a 12.50125,12.50125 0 0 0 9.888672,-7.16992 c 19.2415548,15.29029 43.097301,21.28952 62.439453,12.29101 0.09694,-0.0329 0.19612,-0.0423 0.292968,-0.0762 l -0.01563,-0.0371 c 0.563665,-0.26697 1.163215,-0.41217 1.71875,-0.70508 a 12.50125,12.50125 0 0 0 5.332032,-6.19922 12.50125,12.50125 0 0 0 7.230468,-4.62695 c 3.138448,-4.31872 5.107005,-9.11423 6.134766,-14.09765 z"
     id="path9" /><path
     style="baseline-shift:baseline;display:inline;overflow:visible;vector-effect:none;fill:#ff0000;stroke-linecap:round;stroke-linejoin:round;paint-order:markers stroke fill;enable-background:accumulate;stop-color:#000000;stop-opacity:1"
     d="m 34.216,126.241 a 51.57,51.57 0 0 1 3.706,-0.127 c 27.223,0 50.532,26.348 52.282,39.772 0.186,1.401 0.312,2.661 0.399,3.735 C 90.238,133.037 33.181,86 -12.63,86 c -35.406,0 -51.91,14.336 -57.354,30.431 -8.116,20.308 2.598,49.249 27.652,69.85 a 101.622,101.622 0 0 0 8.042,5.972 54.694,54.694 0 0 1 -3.701,0.126 c -27.222,0 -50.538,-26.353 -52.286,-39.776 a 73.737,73.737 0 0 1 -0.396,-3.735 c 0.362,36.583 57.423,83.619 103.23,83.619 35.406,0 51.909,-14.331 57.359,-30.43 8.11,-20.308 -2.597,-49.244 -27.656,-69.851 a 100.64,100.64 0 0 0 -8.044,-5.965 z m -51.026,60.777 c -20.162,-16.572 -26.949,-40.929 -15.523,-54.718 11.44,-13.808 37.154,-12.217 57.809,3.867 20.493,15.967 28.379,40.206 17.857,54.685 4.355,-8.711 -0.45,-21.778 -11.666,-30.597 -12.163,-9.561 -27.305,-10.508 -34.043,-2.3 -6.729,8.198 -2.729,22.671 9.145,32.525 9.146,7.588 20.327,10.274 28.283,7.491 -13.557,7.148 -34.796,3.08 -51.862,-10.953 z"
     id="path10" /></g>
    <path
   style="baseline-shift:baseline;display:inline;overflow:visible;vector-effect:none;fill:#ffffff;stroke-linecap:round;stroke-linejoin:round;paint-order:markers stroke fill;enable-background:accumulate;stop-color:#000000"
   d="m 413.31038,162.16602 c -2.8263,-0.20745 -5.6324,0.42479 -7.7793,1.44921 -2.86252,1.36591 -4.90233,3.21233 -6.67578,5.1836 -3.5469,3.94254 -6.1498,8.66798 -8.57226,14.0957 a 10.001,10.001 0 0 0 -0.59571,1.75586 c -3.59019,15.04861 -12.57384,38.78534 -13.23242,58.35547 -4e-5,10e-4 5e-5,0.003 0,0.004 -4e-5,0.001 4e-5,0.003 0,0.004 -0.22813,6.74678 3.73825,13.03886 7.75781,16.01758 4.02114,2.97989 7.81985,4.02978 9.96094,4.78516 a 10.001,10.001 0 0 0 0,0.002 c 17.5456,6.18964 31.85557,-0.40441 38.26758,-8.1543 l 0.002,-0.004 c 3.52501,-4.2562 4.64898,-12.53763 0.60156,-17.43555 -4.04841,-4.89914 -10.12672,-5.74365 -15.17578,-4.24024 l 0.0176,-0.006 c -0.13407,0.0396 -0.14925,0.0178 -0.2832,0.0547 0.57328,-2.76337 1.3675,-6.05381 2.46875,-9.93554 2.48826,-8.77073 5.94389,-19.31981 8.8164,-28.46485 v 0.006 c 1.54959,-4.92547 3.8108,-10.04246 2.94922,-17.22461 -0.43078,-3.59107 -2.25348,-7.85803 -5.4414,-10.77148 -3.05903,-2.79566 -6.78433,-4.22861 -10.71289,-5.05078 -0.78414,-0.20112 -1.57758,-0.3674 -2.37305,-0.42578 z m -3.01172,25.48242 c -0.25821,0.97664 -0.13775,0.87409 -0.48828,1.98828 a 10.001,10.001 0 0 0 -0.002,0.004 c -1.83409,5.83908 -3.85878,12.44708 -5.85547,18.91016 1.72462,-6.19858 3.5051,-12.50247 4.84961,-18.00195 0.50158,-1.09183 0.99491,-1.96543 1.49609,-2.90039 z m -13.55078,52.74218 c 0.10083,0.94265 0.25171,1.93223 0.54687,3.06836 -0.18405,-0.0915 -0.68911,-0.27322 -0.79882,-0.33984 0.0403,-0.84911 0.15534,-1.80225 0.25195,-2.72852 z"
   id="path11" />
    <path
   style="baseline-shift:baseline;display:inline;overflow:visible;vector-effect:none;fill:#ffffff;stroke-linecap:round;stroke-linejoin:round;paint-order:markers stroke fill;enable-background:accumulate;stop-color:#000000"
   d="m 337.27913,190.95508 c -5.95994,0.6164 -14.97527,2.34914 -23.26953,8.57226 -8.29757,6.2256 -14.95508,17.58127 -14.95508,32.74805 0,-1.17342 0.0114,-0.465 -0.01,-0.14453 -0.0212,0.32047 -0.0493,0.79685 -0.0684,1.36719 -0.0381,1.14068 -0.0423,2.67415 0.10351,4.47656 0.29161,3.60481 1.146,8.36101 3.76953,13.27539 5.24706,9.82877 18.59344,18.06224 38.68555,16.25586 19.59594,-1.76178 32.44618,-9.20255 39.91797,-16.73828 7.42768,-7.49124 9.85605,-15.74777 9.88476,-15.84571 0.0997,-0.30993 2.67172,-8.36169 2.02344,-17.83984 -0.33041,-4.83084 -1.46956,-10.51331 -5.63086,-15.51953 -4.16093,-5.00578 -11.44628,-7.98847 -19.03125,-7.70703 h -0.002 c -7.943,0.2932 -14.12236,2.26724 -18.375,4.34375 -0.12061,0.0589 -0.17642,0.12173 -0.29492,0.18164 -0.89381,-2.0598 -2.21644,-4.15936 -4.3418,-5.53125 -2.88615,-1.86297 -6.02755,-2.14188 -8.40625,-1.89453 z m 32.38477,22.89648 c 2.65724,-0.0694 2.4872,0.25748 2.68554,0.4961 0.20755,0.24968 0.89613,1.72432 1.0586,4.09961 0.28854,4.21863 -0.83587,8.99389 -1.11719,10.14648 -0.0255,-4.74242 -0.81172,-9.29096 -2.03906,-13.36719 l -0.002,-0.004 c -0.15472,-0.51424 -0.40549,-0.89165 -0.58593,-1.3711 z m -43.50196,1.58203 c -1.73446,4.91796 -3.19307,10.28004 -3.67578,15.91016 -0.40664,4.74283 -0.065,9.92462 2.38477,14.91992 -2.45493,-1.19048 -3.53699,-2.85456 -4.37891,-4.43164 -0.88084,-1.64999 -1.33595,-3.73047 -1.47656,-5.46875 -0.0703,-0.86914 -0.0696,-1.63337 -0.0508,-2.19726 0.009,-0.28195 0.0234,-0.50943 0.0371,-0.7168 0.0137,-0.20737 0.0527,0.14784 0.0527,-1.17383 0,-10.01322 3.07335,-13.83805 6.95703,-16.75195 0.0459,-0.0344 0.10403,-0.0558 0.15039,-0.0898 z m 20.27344,3.45508 a 10.001,10.001 0 0 0 1.75391,1.08789 c 0,0 3.34,2.44393 2.9082,1.00781 a 10.001,10.001 0 0 0 0.002,0.004 c 1.23454,4.09849 1.4054,10.60953 0.24805,13.78516 -0.57868,1.58781 -1.16724,2.24452 -1.8125,2.66601 -0.64526,0.4215 -1.74039,0.96246 -4.79492,0.67383 -2.54956,-0.24085 -1.85538,-0.32221 -1.9375,-0.45703 -0.0821,-0.13482 -0.6359,-1.74274 -0.39063,-4.60352 0.33607,-3.91977 2.09246,-9.17916 4.02344,-14.16406 z"
   id="path13" />
    <path
   style="baseline-shift:baseline;display:inline;overflow:visible;vector-effect:none;fill:#ffffff;stroke-linecap:round;stroke-linejoin:round;paint-order:markers stroke fill;enable-background:accumulate;stop-color:#000000"
   d="m 454.15413,190.95508 c -5.96083,0.61637 -14.97664,2.34922 -23.27148,8.57226 -8.29815,6.22553 -14.95704,17.58114 -14.95704,32.74805 0,-1.17271 0.0114,-0.46504 -0.01,-0.14453 -0.0212,0.32051 -0.0493,0.79683 -0.0684,1.36719 -0.038,1.1407 -0.0404,2.67611 0.10547,4.47851 0.29183,3.6048 1.1458,8.35921 3.76953,13.27344 5.24746,9.82847 18.59386,18.06226 38.68555,16.25586 19.59547,-1.76179 32.44591,-9.20277 39.91796,-16.73828 7.42089,-7.48391 9.84951,-15.7225 9.88282,-15.83594 0.0951,-0.29566 2.67441,-8.3629 2.02539,-17.84961 -0.33049,-4.83078 -1.46969,-10.51336 -5.63086,-15.51953 -4.16045,-5.0053 -11.44519,-7.98789 -19.0293,-7.70703 h -0.004 c -7.94202,0.29346 -14.12089,2.26731 -18.37305,4.34375 -0.12061,0.0589 -0.17643,0.12173 -0.29492,0.18164 -0.89356,-2.05964 -2.21507,-4.15742 -4.33985,-5.5293 -2.88667,-1.8638 -6.02955,-2.14382 -8.4082,-1.89648 z m 32.38281,22.89648 c 2.66009,-0.0697 2.48905,0.25735 2.6875,0.4961 0.20758,0.24973 0.89414,1.72426 1.05664,4.09961 0.28883,4.22171 -0.839,9.0049 -1.11914,10.15234 -0.0246,-4.74532 -0.80868,-9.29436 -2.03711,-13.37305 l -0.002,-0.004 c -0.15473,-0.51424 -0.40549,-0.89165 -0.58594,-1.3711 z m -43.5039,1.58594 c -1.73357,4.91673 -3.19136,10.27787 -3.67383,15.90625 -0.40656,4.7428 -0.065,9.92466 2.38476,14.91992 -2.45514,-1.19054 -3.5368,-2.85438 -4.3789,-4.43164 -0.88102,-1.65014 -1.33584,-3.7324 -1.47657,-5.4707 -0.0704,-0.86915 -0.0715,-1.63145 -0.0527,-2.19531 0.009,-0.28194 0.0234,-0.50948 0.0371,-0.7168 0.0137,-0.20733 0.0527,0.14713 0.0527,-1.17383 0,-10.01309 3.07488,-13.83602 6.95899,-16.75 0.0452,-0.0339 0.1028,-0.0544 0.14844,-0.0879 z m 20.27539,3.44727 a 10.001,10.001 0 0 0 1.75586,1.09179 c 0,0 3.33748,2.44205 2.90625,1.00781 a 10.001,10.001 0 0 0 0.002,0.006 c 1.23472,4.09795 1.40544,10.60766 0.24805,13.78321 -0.5787,1.58777 -1.16712,2.24445 -1.8125,2.66601 -0.64539,0.42157 -1.7404,0.96246 -4.79493,0.67383 -2.54955,-0.24085 -1.85535,-0.32218 -1.9375,-0.45703 -0.0821,-0.13485 -0.63586,-1.7427 -0.39062,-4.60352 0.33609,-3.92064 2.09213,-9.18213 4.02344,-14.16796 z"
   id="path15" /><path
   style="baseline-shift:baseline;display:inline;overflow:visible;vector-effect:none;fill:#f0373f;stroke-linecap:round;stroke-linejoin:round;paint-order:markers stroke fill;enable-background:accumulate;stop-color:#000000"
   d="m 413.29288,172.262 c -4.492,-1.324 -9.556,5.023 -13.879,14.709 -3.852,16.146 -12.414,39.951 -12.965,56.377 -0.25,7.289 6.479,9.426 11.051,11.039 14.471,5.105 22.934,0.111 27.243,-5.104 3.1,-3.74 -0.179,-6.859 -4.021,-5.715 -5.556,1.643 -12.344,2.758 -13.746,-2.607 -1.545,-5.916 6.688,-30.225 12.373,-48.324 3.108,-9.879 5.736,-18.08 -6.056,-20.375 z"
   id="path12" />
    <g
   id="path5"
   style="opacity:1"
   transform="translate(12.49788,12.5)"><path
     style="baseline-shift:baseline;display:inline;overflow:visible;vector-effect:none;fill:#ffffff;stroke-linecap:round;stroke-linejoin:round;paint-order:markers stroke fill;enable-background:accumulate;stop-color:#000000;stop-opacity:1"
     d="m 280.03906,150.58984 c -4.03613,-0.15523 -8.35109,-0.13199 -12.68554,0.20508 -9.9693,0.7704 -24.99442,4.78156 -39.16797,13.34375 -14.17611,8.56373 -27.92454,23.2477 -26.90235,43.50781 a 10.001,10.001 0 0 0 0,0.004 c 1.19996,23.60551 15.85579,37.33941 29.0586,42.77539 13.2028,5.43598 25.70312,4.60352 25.70312,4.60352 a 10.001,10.001 0 0 0 0.88086,-0.0879 c 0,0 9.14397,-1.2691 18.89844,-5.14844 4.87723,-1.93967 10.06498,-4.52149 14.68555,-8.50391 4.62056,-3.98242 8.83086,-9.85298 9.66601,-17.23047 0.37492,-3.3078 0.29924,-7.22358 -2.42969,-11.00781 -2.72892,-3.78423 -7.59701,-5.2328 -10.55078,-5.24023 -5.89482,-0.0148 -8.765,2.052 -10.48633,2.82226 -0.002,7.7e-4 -0.002,0.001 -0.004,0.002 -3.65346,1.62099 -4.74379,3.28042 -5.92188,4.44531 -1.17865,1.16544 -2.15279,2.12172 -3.35742,3.0332 -2.40926,1.82296 -5.6288,3.69387 -12.82226,4.33594 -5.25767,0.46536 -4.96216,-0.51323 -6.3125,-3.27539 -1.34837,-2.75811 -1.77292,-7.84981 -1.75391,-8.5625 0.041,-1.13257 2.07436,-9.7092 6.49805,-16.125 4.33064,-6.28086 10.0928,-11.07161 18.58984,-12.00977 0.4057,0.54876 1.28103,2.03658 2.15039,4.34766 0.942,2.50418 1.7617,5.47711 3.44531,8.85547 0.84181,1.68918 1.88405,3.61346 4.12696,5.57812 2.2429,1.96466 6.35958,3.59237 10.00195,3.18555 4.39848,-0.49158 7.38121,-3.09984 9.10156,-5.21875 1.7212,-2.11995 2.6895,-4.15378 3.5293,-6.21484 1.67961,-4.12214 2.68108,-8.47682 3.48828,-12.72852 1.6144,-8.5034 2.21875,-16.59766 2.21875,-16.59766 A 10.001,10.001 0 0 0 301.73633,153.125 c 0,0 -9.58888,-2.06944 -21.69727,-2.53516 z m 8.04102,20.72461 c 0.23389,0.0261 0.28183,0.0321 0.50976,0.0586 -0.0274,0.19139 -0.0554,0.37035 -0.084,0.56445 -0.13559,-0.20874 -0.28133,-0.41394 -0.42578,-0.62305 z m -50.53516,10.63672 c -0.29381,0.402 -0.69853,0.78036 -0.97656,1.1836 -6.7248,9.75318 -9.76795,19.02183 -10.02344,26.83789 a 10.001,10.001 0 0 0 -0.002,0.0273 c -0.106,3.55146 0.10109,10.09503 3.60351,17.50977 -4.77711,-3.79933 -8.32324,-9.76412 -8.88867,-20.8711 -0.53334,-10.57092 6.08834,-18.28426 16.28711,-24.6875 z"
     id="path17" /><path
     style="baseline-shift:baseline;display:inline;overflow:visible;vector-effect:none;fill:#019ee3;stroke-linecap:round;stroke-linejoin:round;paint-order:markers stroke fill;enable-background:accumulate;stop-color:#000000;stop-opacity:1"
     d="m 211.271,207.143 c -1.574,-31.197 41.515,-45.195 56.857,-46.379 15.354,-1.194 31.588,2.154 31.588,2.154 0,0 -2.367,30.797 -9.477,31.588 -7.1,0.793 -5.525,-23.295 -18.953,-22.109 -24.588,2.166 -34.455,28.969 -34.747,37.902 -0.129,4.322 1.194,23.686 18.953,22.111 17.769,-1.586 21.72,-11.061 25.27,-12.635 3.56,-1.586 10.368,-4.703 9.477,3.158 -1.966,17.367 -34.746,22.111 -34.746,22.111 0,0 -42.177,2.328 -44.222,-37.901 z"
     id="path18" /></g><path
   style="baseline-shift:baseline;display:inline;overflow:visible;vector-effect:none;fill:#f5a023;stroke-linecap:round;stroke-linejoin:round;paint-order:markers stroke fill;enable-background:accumulate;stop-color:#000000"
   d="m 338.31388,200.901 c -9.795,1.012 -29.26,6.195 -29.26,31.375 0,1.186 -3.551,28.43 31.586,25.271 35.148,-3.16 41.064,-25.271 41.064,-25.271 0,0 8.693,-29.221 -12.636,-28.428 -13.017,0.48 -18.952,6.316 -18.952,6.316 0,0 8.684,1.705 10.559,7.941 3.561,11.822 2.247,31.77 -16.876,29.963 -19.192,-1.813 -9.817,-27.166 -3.77,-40.021 2.088,-4.42 1.574,-7.488 -1.715,-7.146 z"
   id="path14" />
    <path
   style="baseline-shift:baseline;display:inline;overflow:visible;vector-effect:none;fill:#ffffff;stroke-linecap:round;stroke-linejoin:round;paint-order:markers stroke fill;enable-background:accumulate;stop-color:#000000"
   d="m 566.90218,190.6582 c -10.16113,0.57379 -18.835,5.25007 -25.96289,10.09961 -3.05729,-3.91315 -8.17066,-6.46739 -13.10938,-6.875 -4.76368,-0.39527 -9.69058,0.47268 -13.62305,2.99414 -3.9346,2.52284 -6.30799,6.19772 -7.73828,9.43164 -2.86058,6.46786 -3.37427,12.23987 -4.77343,16.58789 a 10.001,10.001 0 0 0 0,0.002 c -1.57081,4.88709 -4.89004,12.37254 -5.79883,20.62109 -0.4544,4.12428 -0.52204,9.23594 3.05273,14.17578 3.57478,4.93985 10.24069,6.97965 15.95313,6.67774 6.56638,-0.3468 12.50639,-4.39537 15.55273,-8.44727 3.04664,-4.0523 4.47953,-7.84544 6.07031,-11.02539 3.12796,-6.25272 4.84956,-10.02642 14.31055,-12.19727 0.0335,0.0727 0.0116,0.10416 0.0957,0.2129 0.72934,0.94307 1.26953,2.32421 1.26953,2.32421 a 10.001,10.001 0 0 0 18.6504,1.18555 c 0,0 3.65082,-7.99059 6.77343,-16.26367 1.56131,-4.13654 3.00613,-8.26832 3.88282,-12.18945 0.43834,-1.96057 0.85356,-3.73542 0.64843,-6.54102 -0.10256,-1.4028 -0.27821,-3.23494 -1.77539,-5.62695 -1.49595,-2.39007 -5.21664,-4.81963 -8.32617,-5.07813 -1.75342,-0.14632 -3.47122,-0.16329 -5.15234,-0.0684 z m -8.26172,23.09766 c -0.11775,0.3066 -0.13873,0.31557 -0.25781,0.62109 -0.19179,-0.0845 -0.41957,-0.1081 -0.61524,-0.1875 0.29202,-0.14376 0.58185,-0.29711 0.87305,-0.43359 z m -37.19141,12.65625 a 10.001,10.001 0 0 0 1.54688,2.50976 c -1.79704,2.46536 -3.28542,4.88639 -4.35743,7.0293 -0.22803,0.45583 -0.27301,0.49851 -0.48632,0.92774 0.83877,-2.57517 1.75404,-5.27727 2.58398,-7.85938 l -0.002,0.002 c 0.31164,-0.96844 0.45037,-1.68667 0.71484,-2.60937 z"
   id="path19" /><path
   style="baseline-shift:baseline;display:inline;overflow:visible;vector-effect:none;fill:#da72a3;stroke-linecap:round;stroke-linejoin:round;paint-order:markers stroke fill;enable-background:accumulate;stop-color:#000000"
   d="m 514.37388,254.387 c -15.004,0.793 -6.711,-17.377 -3.159,-28.428 3.56,-11.063 2.907,-23.184 15.793,-22.111 14.249,1.176 3.158,18.953 3.158,18.953 0,0 21.641,-23.734 41.063,-22.109 4.743,0.389 -9.477,31.586 -9.477,31.586 0,0 -3.551,-11.451 -12.634,-9.477 -26.112,5.676 -19.735,30.795 -34.744,31.586 z"
   id="path20" /><path
   style="baseline-shift:baseline;display:inline;overflow:visible;vector-effect:none;fill:#7487bf;stroke-linecap:round;stroke-linejoin:round;paint-order:markers stroke fill;enable-background:accumulate;stop-color:#000000"
   d="m 455.18888,200.901 c -9.797,1.012 -29.263,6.195 -29.263,31.375 0,1.186 -3.549,28.43 31.587,25.271 35.147,-3.16 41.065,-25.271 41.065,-25.271 0,0 8.692,-29.221 -12.636,-28.428 -13.017,0.48 -18.951,6.316 -18.951,6.316 0,0 8.682,1.705 10.557,7.941 3.562,11.822 2.247,31.77 -16.876,29.963 -19.192,-1.813 -9.817,-27.166 -3.771,-40.021 2.09,-4.42 1.577,-7.488 -1.712,-7.146 z"
   id="path16" />
    <path
   style="baseline-shift:baseline;display:inline;overflow:visible;vector-effect:none;fill:#ffffff;stroke:none;stroke-width:20;stroke-linecap:round;stroke-linejoin:round;stroke-dasharray:none;stroke-opacity:1;paint-order:markers stroke fill;enable-background:accumulate;stop-color:#000000"
   d="m 339.6053,96.960937 c -3.0073,2.33e-4 -5.85485,1.353716 -7.7539,3.685543 l -5.62696,6.90821 h -13.91406 c -3.20353,0.2354 -6.09902,1.99522 -7.7832,4.73047 -0.0216,-0.0526 -0.27148,-0.65822 -0.27149,-0.65821 -1.9e-4,2.7e-4 1.01348,-1.17783 1.20899,-1.36132 0.391,-0.367 0.47691,-0.42011 0.5664,-0.49219 0.17898,-0.14416 0.21249,-0.16813 0.2461,-0.19336 -0.0501,0.0363 -0.13263,0.0965 -0.25977,0.1875 -0.29087,0.20825 -0.73234,0.52237 -1.26953,0.90625 -1.07439,0.76775 -2.53582,1.81442 -4.05664,2.91992 -0.31734,0.23068 -0.61007,0.4576 -0.92969,0.69141 -2.75933,-3.59466 -6.0188,-4.85804 -8.26953,-5.60352 -2.55773,-0.84716 -4.79687,-1.06641 -4.79687,-1.06641 -0.34841,-0.0366 -0.6985,-0.0549 -1.04883,-0.0547 h -37.68164 c -1.19012,0.1725 -2.33938,0.55824 -3.39258,1.13868 -1.38037,-0.72317 -2.91064,-1.11377 -4.46875,-1.14063 h -32.98047 c -2.29731,0.11734 -4.48394,1.02304 -6.19141,2.56445 0.0551,-0.10546 0.34524,-0.67794 0.34766,-0.67968 -0.0158,0.0112 -0.0274,0.0186 -0.0508,0.0352 -0.0817,0.0577 -0.20422,0.14478 -0.36133,0.25586 -0.31421,0.22214 -0.76587,0.54034 -1.31055,0.92773 -1.08936,0.77478 -2.55538,1.82338 -4.08007,2.93164 -1.5247,1.10826 -3.10022,2.27041 -4.46485,3.31836 -1.36463,1.04795 -1.89719,1.12893 -3.92187,3.4043 -0.0328,0.0369 -0.0654,0.074 -0.0977,0.11132 -1.65134,1.91293 -1.71093,2.53129 -2.11328,3.39063 -0.40235,0.85934 -0.74532,1.70451 -1.0957,2.62305 -0.70077,1.83708 -1.39975,3.93 -2.03711,6.09375 -0.63737,2.16374 -1.20582,4.34679 -1.60157,6.49609 -0.19787,1.07465 -0.36106,2.12565 -0.42773,3.38672 -0.0667,1.26107 -0.47574,2.5322 0.91797,5.7832 0.0323,0.074 0.0655,0.14754 0.0996,0.2207 2.73754,5.98018 5.36764,6.25437 7.36914,7.49415 2.0015,1.23977 3.77148,2.07226 3.77148,2.07226 1.34338,0.64015 2.81268,0.97245 4.30078,0.97266 h 28.20899 c 1.8785,-2.7e-4 3.71894,-0.52959 5.31055,-1.52735 0,0 1.79679,-1.14668 2.57617,-1.63867 1.76516,1.89392 4.19599,3.02952 6.78125,3.16797 h 12.5625 c 1.30514,1e-5 2.59767,-0.25544 3.80468,-0.75195 2.86605,-1.17911 3.5914,-2.11878 4.64649,-3.04102 1.05508,-0.92223 1.97568,-1.84004 2.80664,-2.69922 0.58144,-0.60118 0.58918,-0.64299 1.04687,-1.14453 0.98772,4.14994 4.49903,7.21654 8.74415,7.63672 h 15.71875 c 2.29356,-0.0261 4.50845,-0.83979 6.27343,-2.30469 1.02806,0.56337 2.38282,1.31836 2.38282,1.31836 1.34957,0.64761 2.8273,0.984 4.32421,0.98438 h 39.25984 c 2.20902,-0.029 4.34628,-0.78855 6.07812,-2.16016 0.84804,0.45612 2.1211,1.17578 2.1211,1.17578 1.35017,0.64789 2.8286,0.9843 4.32617,0.98438 h 28.24609 c 1.87461,-3.5e-4 3.71138,-0.52755 5.30079,-1.52149 0,0 2.18765,-1.41215 3.02734,-1.9414 1.86633,2.16203 4.56799,3.42295 7.42383,3.46484 h 17.33008 c 4.53875,-4.5e-4 8.50811,-3.05726 9.66796,-7.44531 l 2.91211,-11.02149 c 0.56614,0.40064 1.14649,0.81158 1.62891,1.05469 2.69356,1.35743 4.80078,1.3457 4.80078,1.3457 0.25991,0.0206 0.52053,0.031 0.78125,0.0312 h 9.68359 c 1.18807,5e-5 2.36665,-0.21159 3.48047,-0.625 0,0 1.71544,-0.62971 3.69727,-1.60156 1.98183,-0.97185 4.28487,-1.31724 7.50781,-5.74219 0.0403,-0.0562 0.08,-0.11287 0.11914,-0.16992 0.49129,-0.70481 1.35723,-1.79488 2.35547,-3.4082 0.99824,-1.61332 2.52539,-3.84565 2.52539,-8.0293 0,-4.13445 -1.72129,-6.25904 -2.82812,-7.625 -1.10684,-1.36595 -2.06887,-2.15709 -2.91211,-2.81836 -1.68648,-1.32253 -3.20117,-2.14257 -3.20117,-2.14257 -0.16608,-0.0927 -0.33477,-0.18061 -0.50586,-0.26368 l -3.89649,-1.89648 c -1.36311,-0.66316 -2.85913,-1.00778 -4.375,-1.00781 h -28.94531 c -1.74318,1.9e-4 -3.45604,0.45601 -4.96875,1.32226 0,0 -3.0422,1.76572 -5.95899,3.48633 -1.32546,-1.53168 -2.51367,-2.48242 -2.51367,-2.48242 -1.80538,-1.52615 -4.09302,-2.36343 -6.45703,-2.36328 h -30.86328 c 0.33995,-5.58282 -3.96473,-10.359254 -9.55273,-10.599613 z m 255.34961,10.595703 c -1.15942,-4e-5 -2.31003,0.20153 -3.40039,0.5957 0,0 -5.74761,2.02772 -11.54102,6.38868 -5.7934,4.36095 -12.91406,12.19311 -12.91406,23.4375 0,8.45145 4.80364,15.65685 9.82617,18.4746 5.02253,2.81776 10.02344,2.4961 10.02344,2.4961 l -0.41015,0.008 h 17.25976 c 0.3393,-0.0878 0.67374,-0.19346 1.00195,-0.31641 0.36381,-0.0536 0.72438,-0.12733 1.08008,-0.2207 l -0.53711,0.53711 h 17.29688 c 0.59484,-0.13545 1.17604,-0.32504 1.73633,-0.56641 0.446,0.22502 0.90823,0.41632 1.38281,0.57227 h 0.004 l 0.006,-0.002 h 14.20313 c 1.32433,1.3e-4 2.63551,-0.26277 3.85742,-0.77344 2.96178,-1.23842 3.68387,-2.24414 4.71875,-3.19922 0.63978,-0.59044 1.13544,-1.14352 1.67188,-1.70898 1.59356,3.33847 4.89982,5.52461 8.5957,5.68359 h 17.22656 c 4.55473,-0.001 8.53338,-3.07965 9.67774,-7.48828 l 5.30078,-20.41992 c 0.11572,-0.44544 0.20056,-0.89834 0.2539,-1.35547 0,0 0.2373,-2.01217 0.11524,-4.43164 -0.12206,-2.41948 -0.26209,-5.67385 -2.76172,-9.67383 l -0.002,-0.002 c -2.9669,-4.74433 -6.79592,-6.06678 -9.3418,-6.91016 -2.54589,-0.84338 -4.78125,-1.06445 -4.78125,-1.06445 -0.35097,-0.0375 -0.70367,-0.0564 -1.05664,-0.0566 h -37.6836 c -0.52369,0.12512 -1.03643,0.29233 -1.5332,0.5 -0.50425,-0.2102 -1.02487,-0.37874 -1.55664,-0.50391 z m -294.1582,8.04297 0.0918,0.15039 c -0.0136,-0.0226 -0.0294,-0.0342 -0.043,-0.0566 -0.0202,-0.0328 -0.0283,-0.0609 -0.0488,-0.0937 z m 116.61719,1.95508 c -0.0123,0.008 -0.0306,0.0251 -0.043,0.0332 0.0187,-0.0188 0.0246,-0.0157 0.043,-0.0332 z m 24.29492,1.8457 0.15234,0.20313 c -0.0291,-0.0399 -0.0588,-0.0544 -0.0879,-0.0937 -0.0253,-0.034 -0.0387,-0.0758 -0.0645,-0.10938 z m 2.39648,1.45703 c -0.0186,0.0301 -0.13563,0.19062 -0.16211,0.23047 0.14452,-0.36965 0.26415,-0.39539 0.16211,-0.23047 z m -242.51758,2.7461 c -0.007,0.0116 -0.005,0.0138 -0.0117,0.0254 -0.006,0.0109 -0.009,0.0125 -0.0156,0.0234 z m 162.93555,29.00585 c 0.0715,0.009 0.032,-0.004 0.0977,0.004 0.0153,0.002 0.0276,0.0101 0.043,0.0117 z"
   id="path23"
   sodipodi:nodetypes="cccccssscssscscccccccccssssscsssssccsccccccccsscccccccccccccccccsccccsccssssccccccccccccccssscccccccccccccsccccccsccscccccccccsccccccsscscscccccccc" /><path
   style="baseline-shift:baseline;display:inline;overflow:visible;vector-effect:none;fill:#ffffff;stroke:none;stroke-width:20;stroke-linecap:round;stroke-linejoin:round;stroke-dasharray:none;stroke-opacity:1;paint-order:markers stroke fill;enable-background:accumulate;stop-color:#000000"
   d="m 133.79671,90.964844 a 10.001,10.001 0 0 0 -6.21485,2.166015 l -9.68554,7.685551 a 10.001,10.001 0 0 0 -3.50977,5.51172 l -9.61523,40.31445 a 10.001,10.001 0 0 0 9.72656,12.32031 h 59.85547 a 10.001,10.001 0 0 0 6.37305,-2.29297 l 11.58007,-9.57812 a 10.001,10.001 0 0 0 3.32618,-5.27149 l 9.64648,-38.41992 a 10.001,10.001 0 0 0 -9.69922,-12.435546 h -11.61133 a 10.001,10.001 0 0 0 -6.9707,2.86914 10.001,10.001 0 0 0 -6.53906,-2.86914 h -13.54297 a 10.001,10.001 0 0 0 -6.95899,2.882812 10.001,10.001 0 0 0 -6.54882,-2.882812 z m 340.1914,1.613281 a 10.001,10.001 0 0 0 -2.99609,0.458984 c 0,0 -5.61737,1.784136 -10.66016,6.453125 -5.04184,4.668126 -10.05934,13.087186 -9.99218,24.195316 0.0111,2.02319 0.44372,3.90732 1.02343,5.69922 h -11.55273 a 10.001,10.001 0 0 0 -7.03125,2.89062 l -9.68359,9.57813 0.0254,0.01 a 10.001,10.001 0 0 0 -2.99219,7.09961 10.001,10.001 0 0 0 10.0293,9.9707 l -0.0293,0.0293 h 62.80078 a 10.001,10.001 0 0 0 1.94141,-0.19141 c 0,0 2.55025,-0.60832 5.64843,-2.16406 a 10.001,10.001 0 0 0 4.93555,2.35547 h 55.15625 a 10.001,10.001 0 0 0 5.88477,-1.91602 l 13.1582,-9.57812 a 10.001,10.001 0 0 0 3.79883,-5.59375 l 5.61328,-21.82227 a 10.001,10.001 0 0 0 -9.68555,-12.49218 h -10.03515 a 10.001,10.001 0 0 0 -6.98243,2.88476 10.001,10.001 0 0 0 -6.55859,-2.88476 h -13.47266 a 10.001,10.001 0 0 0 -5.8125,2.4082 10.001,10.001 0 0 0 -6.18945,-2.4082 h -7.85937 a 10.001,10.001 0 0 0 -7.92579,-14.982425 z m -5.67968,25.173825 c -8e-4,0.0196 0.0104,0.0448 0.01,0.0645 -10e-4,0.0322 -0.0148,0.0575 -0.0156,0.0898 z m 28.37304,12.44141 h 0.10547 c -0.0215,0.0652 -0.0317,0.0465 -0.0566,0.13867 -0.0154,-0.047 -0.0328,-0.0918 -0.0488,-0.13867 z"
   id="path21" /><path
   style="baseline-shift:baseline;display:inline;overflow:visible;vector-effect:none;fill:#000000;stroke:none;stroke-width:20;stroke-linecap:round;stroke-linejoin:round;stroke-dasharray:none;stroke-opacity:1;paint-order:markers stroke fill;enable-background:accumulate;stop-color:#000000"
   d="m 114.49788,148.963 9.615,-40.314 9.684,-7.684 h 9.612 l -9.612,40.313 9.612,-5.753 7.717,-28.771 5.789,-5.789 h 13.544 l -9.648,40.313 9.648,-7.649 5.755,-24.98 7.754,-7.684 h 11.613 l -9.647,38.42 -11.581,9.578 z m 390.958,0 4.913,-23.015 8.734,-8.387 h 11.227 l -6.594,25.297 9.682,-5.754 2.456,-13.087 6.458,-6.456 h 13.472 l -6.598,25.297 9.125,-6.106 2.596,-10.804 8.419,-8.387 h 10.035 l -5.613,21.824 -13.157,9.578 z m -75.328,0 9.683,-9.578 h 41.543 c 0,0 3.575,1.053 5.615,-3.473 1.857,-4.213 -1.756,-4.213 -1.756,-4.213 h -19.295 c 0,0 -5.543,-1.265 -5.578,-8.07 -0.104,-16.733 13.648,-21.051 13.648,-21.051 h 40.556 l -8.067,8 h -21.264 c 0,0 -6.771,1.93 -6.913,7.58 -0.104,2.562 3.054,2.035 3.054,2.035 h 17.33 c 0,0 10.034,1.684 7.721,12.49 -3.021,14.21 -13.475,16.279 -13.475,16.279 h -62.802 z"
   id="path22" /><path
   style="baseline-shift:baseline;display:inline;overflow:visible;vector-effect:none;fill:#000000;stroke:none;stroke-width:20;stroke-linecap:round;stroke-linejoin:round;stroke-dasharray:none;stroke-opacity:1;paint-order:markers stroke fill;enable-background:accumulate;stop-color:#000000"
   d="m 397.14588,148.963 h 17.33 l 5.266,-19.928 c 0.632,-2.316 6.736,-4.945 5.124,-4.668 -1.58,0.281 5.543,-1.054 5.543,-1.054 0,0 2.243,0.632 3.368,2.177 1.158,1.508 -1.125,3.754 -1.44,5.51 -0.313,1.752 1.931,1.928 1.931,1.928 h 9.684 c 0,0 5.196,-1.928 6.601,-3.857 1.369,-1.964 3.084,-4 3.084,-5.72 0,-1.72 -3.823,-3.858 -3.823,-3.858 l -3.896,-1.896 h -28.945 c 0,0 -13.854,7.933 -15.471,9.579 -0.566,0.491 -4.356,21.787 -4.356,21.787 z m -202.585,-22 c -1.332,1.543 -5.682,15.088 -4.735,17.297 0.981,2.143 6.35,4.701 6.35,4.701 h 28.208 c 0,0 13.157,-8.246 14.174,-9.404 0.983,-1.191 4.702,-14.35 4.702,-15.721 0,-1.369 -3.157,-6.278 -3.157,-6.278 h -32.98 c 0,0.003 -11.189,7.862 -12.562,9.405 z m 22,-3.121 h 8.668 c 0,0 -0.982,10.422 -3.157,13.365 -2.21,2.949 -7.087,5.51 -7.087,5.51 0,0 -5.473,0.563 -6.245,0 -0.808,-0.631 -0.211,-6.28 -0.211,-6.28 0,0 0.737,-6.104 1.754,-7.894 0.983,-1.753 6.278,-4.701 6.278,-4.701 z m 83.188,3.121 c -1.333,1.543 -5.683,15.088 -4.701,17.297 0.982,2.143 6.315,4.701 6.315,4.701 h 39.26 c 0,0 1.299,-6.246 2.914,-12.563 1.542,-5.931 3.368,-15.048 3.368,-15.72 0,-1.404 9.754,-13.717 9.754,-13.717 h -17.054 l -8.627,10.594 h -18.668 c 0.038,0.006 -11.155,7.865 -12.561,9.408 z m 21.999,-3.121 h 8.63 c 0,0 -0.948,10.422 -3.159,13.365 -2.142,2.949 -7.052,5.51 -7.052,5.51 0,0 -5.473,0.563 -6.281,0 -0.737,-0.631 -0.209,-6.28 -0.209,-6.28 0,0 0.737,-6.104 1.789,-7.894 0.983,-1.753 6.282,-4.701 6.282,-4.701 z m -82.695,25.121 8.911,-31.402 h 37.683 c 0,0 4.982,0.525 6.666,3.333 1.754,2.81 1.193,7.649 1.193,7.649 l -5.123,20.42 h -15.719 c 0,0 1.825,-9.998 3.579,-17.264 1.754,-7.264 -3.157,-7.857 -3.157,-7.857 h -9.402 l -5.403,18.84 c 0,0 -4.702,5.473 -6.666,6.281 z m 386.71,0 10.001,-31.402 h 37.684 c 0,0 4.945,0.525 6.701,3.333 1.756,2.81 1.193,7.649 1.193,7.649 l -5.3,20.42 h -17.226 c 0,0 2.875,-8.42 4.7,-15.721 1.755,-7.228 -2.563,-9.402 -2.563,-9.402 h -9.438 l -5.265,18.84 c 0,0 -4.348,5.474 -6.278,6.281 h -14.212 v 0.002 z m -274.194,-22 c -1.37,1.543 -5.647,15.088 -4.699,17.297 0.946,2.143 6.278,4.701 6.278,4.701 h 28.246 c 0,0 5.613,-3.51 9.791,-6.281 0,0 -24.002,0.176 -25.475,0 -0.665,-0.07 -0.42,-2.979 -0.35,-4.699 h 19.296 c 0,0 3.719,-0.809 9.262,-5.404 5.617,-4.595 6.315,-5.089 6.315,-8.736 0,-3.611 -3.158,-6.281 -3.158,-6.281 h -32.977 c 0.068,0.001 -11.159,7.86 -12.529,9.403 z m 22.036,-3.121 h 12.666 c 0,0 -1.403,4.809 -8.314,7.857 h -10.561 c -1.019,-2.734 1.474,-4.91 2.877,-6.105 1.473,-1.332 3.332,-1.752 3.332,-1.752 z m 231.739,25.121 c 0,0 5.333,-16.877 7.02,-22.28 0.842,-2.946 -1.123,-2.841 -4.844,-2.841 -3.722,0 -6.422,0.806 -11.578,9.4 -6.035,10.035 8.91,12.772 8.91,12.772 l -1.054,2.944 h -17.259 c 0,0 -9.439,0.388 -9.439,-10.979 0,-13.964 17.856,-20.423 17.856,-20.423 h 37.717 l -10.033,31.402 h -17.296 z"
   id="path24" />
</svg>
