<?xml version='1.0' encoding='utf-8'?>
<svg xmlns:xlink="http://www.w3.org/1999/xlink" xmlns="http://www.w3.org/2000/svg" height="164.4983421125796" viewBox="0 0 321.5538 88.158448" width="600" version="1.1" id="svg6">
    <defs id="defs6">
        <linearGradient id="linearGradient18">
            <stop style="stop-color:#f21919;stop-opacity:1" offset="0" id="stop18"/>
            <stop style="stop-color:#650000;stop-opacity:1" offset="1" id="stop19"/>
        </linearGradient>
        <linearGradient xlink:href="#linearGradient18" id="linearGradient19" x1="89.849449" y1="83.313972" x2="189.99457" y2="5.072032" gradientUnits="userSpaceOnUse"/>
    </defs>
    <g id="path2" style="opacity:0.98;stroke:#efd828;stroke-width:1;stroke-linecap:round;stroke-linejoin:round;stroke-dasharray:none;stroke-opacity:0.980392;paint-order:markers stroke fill" transform="matrix(1.1248586,0,0,1.1248586,-13.640164,-5.1806549)">
        <path style="baseline-shift:baseline;display:inline;overflow:visible;mix-blend-mode:color-burn;fill:url(#linearGradient19);stroke:#efd828;stroke-width:1;stroke-linecap:round;stroke-linejoin:round;stroke-dasharray:none;stroke-opacity:0.980392;paint-order:markers stroke fill;enable-background:accumulate;stop-color:#000000;stop-opacity:1" d="M 94.655,81.478 H 76.379 L 105.224,42.495 78.954,6.992 96.138,6.908 l 17.71,23.933 17.647,-23.85 h 18.277 l -26.786,36.2 24.436,33.024 V 50.588 h -10.883 l 32.26,-43.596 h 34.666 l -11.07,14.303 h -24.973 v 15.693 h 35.617 l -10.496,14.08 h -25.121 v 15.84 h 35.435 l -10.78,14.57 H 134.07 L 114.363,54.844 Z" id="path9"/>
        <path style="baseline-shift:baseline;display:inline;overflow:visible;fill:#efd828;stroke:#efd828;stroke-width:1;stroke-linecap:round;stroke-linejoin:round;stroke-dasharray:none;stroke-opacity:0.980392;paint-order:markers stroke fill;enable-background:accumulate;stop-color:#000000;stop-opacity:1" d="m 96.132812,5.9082031 -17.183593,0.083984 a 1.0001,1.0001 0 0 0 -0.798828,1.59375 L 103.98047,42.494141 75.574219,80.882812 a 1.0001,1.0001 0 0 0 0.804687,1.595704 h 18.275391 a 1.0001,1.0001 0 0 0 0.804687,-0.40625 l 18.904296,-25.546875 18.90234,25.546875 a 1.0001,1.0001 0 0 0 0.80469,0.40625 h 58.00586 a 1.0001,1.0001 0 0 0 0.80469,-0.40625 l 10.7793,-14.570313 a 1.0001,1.0001 0 0 0 -0.80274,-1.59375 H 168.42187 V 52.068359 h 24.1211 a 1.0001,1.0001 0 0 0 0.80273,-0.402343 l 10.49414,-14.080079 a 1.0001,1.0001 0 0 0 -0.80078,-1.597656 H 168.42187 V 22.294922 h 23.97266 a 1.0001,1.0001 0 0 0 0.79102,-0.388672 L 204.25586,7.6035156 a 1.0001,1.0001 0 0 0 -0.79102,-1.6113281 h -34.66601 a 1.0001,1.0001 0 0 0 -0.80274,0.4042969 L 135.73437,49.994141 a 1.0001,1.0001 0 0 0 0.80469,1.59375 h 9.88281 v 21.59375 l -22.1914,-29.990235 26.3457,-35.6054685 a 1.0001,1.0001 0 0 0 -0.80469,-1.5957031 h -18.27734 a 1.0001,1.0001 0 0 0 -0.80273,0.40625 L 113.84766,29.160156 96.941406,6.3125 A 1.0001,1.0001 0 0 0 96.132812,5.9082031 Z M 95.636719,7.9101562 113.04492,31.435547 a 1.0001,1.0001 0 0 0 1.60742,0 L 132,7.9902344 h 15.78906 L 122.18164,42.595703 a 1.0001,1.0001 0 0 0 0,1.189453 l 24.43555,33.025391 a 1.0001,1.0001 0 0 0 1.80468,-0.595703 V 50.587891 a 1.0001,1.0001 0 0 0 -1,-1 h -8.89648 L 169.30273,7.9921875 h 32.12305 L 191.9043,20.294922 h -24.48243 a 1.0001,1.0001 0 0 0 -1,1 v 15.693359 a 1.0001,1.0001 0 0 0 1,1 h 33.62305 l -9.0039,12.080078 h -24.61915 a 1.0001,1.0001 0 0 0 -1,1 v 15.839844 a 1.0001,1.0001 0 0 0 1,1 h 33.45118 l -9.30078,12.570313 H 134.57422 L 115.16602,54.25 a 1.0001,1.0001 0 0 0 -1.60743,0 L 94.150391,80.478516 H 78.363281 L 106.02734,43.089844 a 1.0001,1.0001 0 0 0 0,-1.189453 L 80.931641,7.9824219 Z" id="path10"/>
    </g>
    <g id="path2-6" style="opacity:0.98;fill:none;fill-opacity:1;stroke:#ffffff;stroke-opacity:1" transform="translate(11.949982,-0.28004346)"/>
    <g id="path3" style="fill:#324cab;stroke:#ffffff;stroke-width:5;stroke-linecap:round;stroke-linejoin:round;stroke-dasharray:none;paint-order:markers stroke fill" transform="matrix(1.07951,0,0,0.92634,2.9319815,-0.49204346)">
        <path style="baseline-shift:baseline;display:inline;overflow:visible;vector-effect:none;fill:#ffffff;stroke:none;enable-background:accumulate;stop-color:#000000;stop-opacity:1" d="m 10.697266,26.251953 c -1.3664165,0 -2.7986751,0.503051 -3.8281254,1.443359 -1.0294502,0.940309 -1.6455869,2.175142 -2.0292969,3.527344 a 2.5002583,2.5002583 0 0 0 -0.00195,0.0078 l -7.4609375,26.621093 a 2.5002583,2.5002583 0 0 0 2.40820315,3.175782 H 5.0507812 a 2.5002583,2.5002583 0 0 0 2.4042969,-1.814453 l 1.3359375,-4.685547 h 3.7871094 l 1.318359,4.677734 a 2.5002583,2.5002583 0 0 0 2.40625,1.822266 h 5.306641 a 2.5002583,2.5002583 0 0 0 0.529297,-0.261719 2.5002583,2.5002583 0 0 0 0.261719,0.261719 h 5.091796 a 2.5002583,2.5002583 0 0 0 0.275391,-0.275391 2.5002583,2.5002583 0 0 0 0.556641,0.275391 h 5.265625 a 2.5002583,2.5002583 0 0 0 2.402343,-1.814453 l 1.337891,-4.685547 h 3.787109 l 1.320313,4.677734 a 2.5002583,2.5002583 0 0 0 2.40625,1.822266 h 5.306641 a 2.5002583,2.5002583 0 0 0 0.04297,-0.02148 2.5002583,2.5002583 0 0 0 0.02148,0.02148 h 5.09375 a 2.5002583,2.5002583 0 0 0 2.5,-2.5 V 55.419922 L 60.662109,59.875 a 2.5002583,2.5002583 0 0 0 2.105469,1.152344 h 5.925781 a 2.5002583,2.5002583 0 0 0 1.072266,-0.632813 2.5002583,2.5002583 0 0 0 0.632812,0.632813 h 5.09375 a 2.5002583,2.5002583 0 0 0 2.5,-2.5 V 28.751953 a 2.5002583,2.5002583 0 0 0 -2.5,-2.5 h -5.09375 a 2.5002583,2.5002583 0 0 0 -2.5,2.5 v 2.003906 C 67.529242,30.27307 67.293533,29.71116 66.837891,29.289062 64.753248,27.345752 62.102953,26.251953 59.314453,26.251953 h -5.818359 c -1.499087,0 -3.019531,0.662109 -4.070313,1.712891 -1.043569,1.044634 -1.710937,2.553954 -1.710937,4.048828 v 8.55664 l -2.617188,-9.339843 a 2.5002583,2.5002583 0 0 0 -0.0078,-0.02148 c -0.391538,-1.348155 -1.009433,-2.576767 -2.035157,-3.513672 -1.025723,-0.936904 -2.45469,-1.443359 -3.818359,-1.443359 -1.366416,0 -2.798675,0.503051 -3.828125,1.443359 -0.117224,0.107074 -0.178373,0.252702 -0.285156,0.367188 A 2.5002583,2.5002583 0 0 0 33.3125,26.251953 H 16.580078 a 2.5002583,2.5002583 0 0 0 -1.791015,1.791016 C 14.686998,27.934508 14.627062,27.7971 14.515625,27.695312 13.490079,26.75857 12.060805,26.251953 10.697266,26.251953 Z m 0,5 c 0.327127,0 0.319858,0.02017 0.445312,0.134766 0.125454,0.11459 0.387998,0.462093 0.607422,1.216797 l 6.564453,23.423828 h -0.119141 l -1.318359,-4.679688 a 2.5002583,2.5002583 0 0 0 -2.40625,-1.820312 H 6.9042969 A 2.5002583,2.5002583 0 0 0 4.5,51.341797 L 3.1640625,56.027344 H 3.0800781 L 9.6503906,32.587891 c 0.2129567,-0.750465 0.4702474,-1.090148 0.5917974,-1.201172 0.121549,-0.111025 0.11616,-0.134766 0.455078,-0.134766 z m 8.382812,0 H 30.8125 v 0.09375 h -3.320313 a 2.5002583,2.5002583 0 0 0 -2.5,2.5 v 22.181641 h -0.0918 V 33.845703 a 2.5002583,2.5002583 0 0 0 -2.5,-2.5 h -3.320313 z m 20.15625,0 c 0.327665,0 0.321989,0.02034 0.447266,0.134766 0.125276,0.114428 0.38634,0.462286 0.605468,1.216797 l 6.564454,23.423828 h -0.117188 l -1.320312,-4.679688 a 2.5002583,2.5002583 0 0 0 -2.40625,-1.820312 h -7.566407 a 2.5002583,2.5002583 0 0 0 -2.404297,1.814453 l -1.335937,4.685547 h -0.08398 l 6.570312,-23.439453 c 0.212957,-0.750465 0.470247,-1.090148 0.591797,-1.201172 0.12155,-0.111025 0.116161,-0.134766 0.455078,-0.134766 z m 14.259766,0 h 5.818359 c 1.5875,0 2.81721,0.483337 4.115234,1.693359 a 2.5002583,2.5002583 0 0 0 0.0078,0.0078 c 1.263813,1.168628 1.732422,2.246934 1.732422,3.791016 0,1.067968 -0.321154,1.999655 -0.820313,2.919921 0.417447,-0.799499 0.748047,-1.649543 0.748047,-2.55664 0,-1.502421 -0.696472,-2.989441 -1.734375,-4.027344 C 62.319481,32.036278 60.819311,31.34569 59.31444,31.34569 h -4.005859 a 2.5002583,2.5002583 0 0 0 -2.5,2.5 v 11.892578 10.289063 h -0.09375 V 32.013672 c 0,-0.23846 -0.01505,-0.25226 0.248047,-0.515625 0.252658,-0.252454 0.270781,-0.246094 0.533203,-0.246094 z m 19.402343,0 h 0.09375 v 24.775391 h -0.09375 z m -62.201171,4.783203 a 2.5002583,2.5002583 0 0 0 -2.4062504,1.822266 l -2.3652344,8.396484 a 2.5002583,2.5002583 0 0 0 2.4062501,3.177735 h 4.7324217 a 2.5002583,2.5002583 0 0 0 2.40625,-3.177735 l -2.367187,-8.396484 a 2.5002583,2.5002583 0 0 0 -2.40625,-1.822266 z m 28.539062,0 a 2.5002583,2.5002583 0 0 0 -2.40625,1.822266 l -2.365234,8.396484 a 2.5002583,2.5002583 0 0 0 2.40625,3.177735 h 4.732422 a 2.5002583,2.5002583 0 0 0 2.40625,-3.177735 l -2.367188,-8.396484 a 2.5002583,2.5002583 0 0 0 -2.40625,-1.822266 z m -21.244141,0.310547 h 1.908204 v 6.8125 z m 12,0 h 1.951172 l -1.951172,6.960938 z m 27.816407,0 h 1.505859 c 0.200462,0 0.222792,-0.02135 0.513672,0.269531 0.298097,0.298097 0.269531,0.317275 0.269531,0.492188 0,0.354829 -0.0026,0.48213 -0.769531,0.99414 -0.516112,0.28387 -1.023327,0.568953 -1.519531,0.853516 z m 6.169922,3.96875 c -0.101757,0.147607 -0.136774,0.296681 -0.253907,0.445313 a 2.5002583,2.5002583 0 0 0 -0.002,0.002 c -0.981079,1.247737 -2.154688,2.080087 -3.630859,2.644531 0.03513,-0.02012 0.07239,-0.04042 0.107422,-0.06055 0.552243,-0.317605 1.119298,-0.63651 1.701172,-0.955078 a 2.5002583,2.5002583 0 0 0 0.18164,-0.109375 c 0.761104,-0.504728 1.379247,-1.210248 1.896485,-1.966797 z m 3.919921,3.095703 v 9.16211 l -3.628906,-5.763672 c 1.268424,-0.80808 2.437748,-1.755098 3.382813,-2.957032 0.106735,-0.135477 0.145721,-0.302462 0.246093,-0.441406 z m -8.033203,0.123047 a 2.5002583,2.5002583 0 0 0 -1.259765,3.666016 l 5.558593,8.828125 h -0.0293 l -5.378907,-8.398438 a 2.5002583,2.5002583 0 0 0 -0.0078,-0.01367 c -0.777619,-1.196827 -0.939453,-2.049062 -0.939453,-1.876953 0,-0.718258 0.131899,-0.997466 0.822265,-1.513672 0.418226,-0.230329 0.828977,-0.460644 1.234375,-0.691406 z" id="path11"/>
        <path style="baseline-shift:baseline;display:inline;overflow:visible;vector-effect:none;stroke:none;enable-background:accumulate;stop-color:#000000;stop-opacity:1" d="m 21.61,58.527 h -5.307 l -1.833,-6.5 H 6.904 l -1.854,6.5 h -5.265 l 7.46,-26.621 q 0.895,-3.154 3.453,-3.154 2.536,0 3.453,3.154 z M 13.064,46.932 10.698,38.535 8.332,46.932 Z M 33.312,33.846 H 27.493 V 58.527 H 22.4 V 33.846 H 16.58 V 28.752 H 33.312 Z M 50.15,58.527 h -5.307 l -1.833,-6.5 h -7.567 l -1.854,6.5 h -5.265 l 7.46,-26.621 q 0.895,-3.154 3.453,-3.154 2.537,0 3.453,3.154 z m -8.547,-11.595 -2.366,-8.397 -2.366,8.397 z m 27.09,11.595 h -5.925 l -6.117,-9.549 q -1.343,-2.067 -1.343,-3.24 0,-2.195 1.897,-3.58 0.895,-0.49 1.748,-0.98 0.852,-0.49 1.747,-0.98 1.897,-1.258 1.897,-3.091 0,-1.258 -1.002,-2.26 -1.001,-1.001 -2.28,-1.001 H 55.308 V 58.527 H 50.214 V 32.013 q 0,-1.3 0.98,-2.281 0.98,-0.98 2.302,-0.98 h 5.819 q 3.282,0 5.819,2.365 2.536,2.345 2.536,5.627 0,3.048 -1.982,5.563 -1.961,2.494 -4.966,3.56 z m 6.799,0 H 70.398 V 28.752 h 5.094 z" id="path12"/>
    </g>
    <g id="path4" style="fill:#324cab;stroke:#ffffff;stroke-width:5;stroke-linecap:round;stroke-linejoin:round;stroke-dasharray:none;paint-order:markers stroke fill" transform="matrix(1.01213,0,0,0.98802,22.352658,-0.49204346)">
        <path style="baseline-shift:baseline;display:inline;overflow:visible;vector-effect:none;fill:#ffffff;stroke:none;enable-background:accumulate;stop-color:#000000;stop-opacity:1" d="m 281.39844,0.49804688 c -3.59035,0.038865 -6.89115,1.24783842 -9.48438,3.54687502 a 2.500244,2.500244 0 0 0 -0.006,0.00586 c -0.92686,0.8263748 -1.68666,1.7601772 -2.35742,2.7441407 V 3.3828125 a 2.500244,2.500244 0 0 0 -2.5,-2.5 l -6.66992,-0.001953 c -2.05644,-1e-8 -4.00006,0.4121748 -5.4043,1.8535156 -1.3025,1.3263765 -1.66632,3.0863443 -1.72461,4.9824219 -0.0762,-0.1284861 -0.10104,-0.2778574 -0.18164,-0.4042969 l -0.002,-0.00391 c -1.54538,-2.4350561 -3.75351,-4.2937048 -6.41602,-5.4003906 -1.78696,-0.7463978 -3.84529,-1.0429687 -6.20117,-1.0429687 -1.43959,0 -2.61265,0.0906875 -3.78711,0.5703125 -1.16162,0.4635475 -2.12142,1.359919 -2.74219,2.3945312 a 2.500244,2.500244 0 0 0 -0.0195,0.033203 c -0.0783,0.13524 -0.10194,0.2957729 -0.17187,0.4355468 V 3.3828125 a 2.500244,2.500244 0 0 0 -2.5,-2.5 h -4.63672 a 2.500244,2.500244 0 0 0 -0.75586,0.7558594 2.500244,2.500244 0 0 0 -1.51172,-0.7558594 h -4.9707 a 2.500244,2.500244 0 0 0 -2.41406,1.8496094 l -1.92969,7.1601562 -1.85742,-7.140625 a 2.500244,2.500244 0 0 0 -2.41993,-1.8691406 h -5.07031 a 2.500244,2.500244 0 0 0 -2.40234,3.1894531 l 5.56836,19.3847654 c 0.4599,1.623455 1.0164,2.969743 2.04101,4.072266 a 2.500244,2.500244 0 0 0 0.0312,0.0332 c 1.04701,1.086088 2.60482,1.681641 4.08399,1.681641 1.71594,0 3.50925,-0.839288 4.55664,-2.216797 l 0.002,-0.002 c 0.83466,-1.0948 1.07232,-2.068784 1.50977,-3.595704 l 0.004,-0.01563 3.03516,-10.353515 v 13.083984 a 2.500244,2.500244 0 0 0 2.5,2.5 h 4.63672 a 2.500244,2.500244 0 0 0 2.5,-2.5 v -1.134765 c 0.24898,0.546935 0.42228,1.134536 0.82812,1.576171 a 2.500244,2.500244 0 0 0 0.008,0.0078 c 0.67436,0.727275 1.52826,1.315974 2.48242,1.646484 a 2.500244,2.500244 0 0 0 0.0117,0.0039 c 0.96988,0.330273 1.95318,0.417968 3.07422,0.417968 0.99944,0 1.93814,-0.04216 2.82031,-0.128906 3.10249,-0.287134 5.95273,-1.689056 8.23633,-3.972656 0.82195,-0.82195 1.48086,-1.746221 2.05859,-2.712891 0.0247,0.784418 0.0601,1.542567 0.24219,2.242188 0.22971,0.882848 0.6541,1.732645 1.25976,2.435547 0.64868,0.754821 1.50358,1.370318 2.46094,1.708984 a 2.500244,2.500244 0 0 0 0.0566,0.01953 c 0.97923,0.320017 1.95276,0.390625 3.11133,0.390625 h 6.66992 a 2.500244,2.500244 0 0 0 2.5,-2.5 v -3.521484 c 1.25464,1.88038 2.85574,3.482729 4.85742,4.589844 5.4e-4,2.97e-4 0.001,-2.98e-4 0.002,0 2.13403,1.185844 4.50115,1.798828 6.94921,1.798828 2.43005,0 4.77885,-0.596614 6.89258,-1.759766 a 2.500244,2.500244 0 0 0 0,-0.002 c 2.19855,-1.211917 4.00819,-2.952301 5.30274,-5.099609 1.34345,-2.21638 2.06054,-4.672657 2.06054,-7.195313 0,-3.889848 -1.40289,-7.448888 -4.0625,-10.1523436 l -0.004,-0.00391 C 288.8287,2.0148491 285.2784,0.49804687 281.42578,0.49804688 a 2.500244,2.500244 0 0 0 -0.0273,0 z M 239.42773,5.9707031 a 2.500244,2.500244 0 0 0 -1.4414,1.4980469 c 0.0141,-0.2010686 0.0238,-0.5441813 0.0332,-0.5976563 0.0268,-0.1155739 0.0841,-0.2744908 0.20313,-0.484375 0.15662,-0.2533872 0.22149,-0.2832287 0.29101,-0.3105468 a 2.500244,2.500244 0 0 0 0.0371,-0.015625 c 0.0305,-0.012529 0.59294,-0.047437 0.87695,-0.089844 z m 20.21875,0.046875 A 2.500244,2.500244 0 0 0 258.35156,7.3125 c 0.0945,-0.3817497 0.19073,-1.0754819 0.19141,-1.0761719 a 2.500244,2.500244 0 0 0 0.0137,-0.015625 c 0.0106,-0.010958 0.6684,-0.1087268 1.08984,-0.203125 z m 8.58399,3.1367188 c -0.21624,0.5040532 -0.35808,1.0366191 -0.51367,1.5644531 a 2.500244,2.500244 0 0 0 -0.52539,-0.525391 2.500244,2.500244 0 0 0 1.03906,-1.0390621 z m 13.13867,0.8515621 c 1.3143,0.03783 2.18819,0.403133 3.05664,1.242188 a 2.500244,2.500244 0 0 0 0.008,0.0098 c 1.11157,1.064089 1.54688,2.082737 1.54688,3.613281 0,1.137742 -0.31958,2.028843 -1.13672,3.015625 -1.01757,1.20493 -1.95208,1.638672 -3.4668,1.638672 -1.22047,0 -2.10612,-0.331253 -3.05468,-1.16211 l -0.002,-0.002 c -1.15049,-1.011365 -1.59765,-1.99543 -1.59765,-3.605469 0,-1.290123 0.33825,-2.192238 1.13867,-3.115234 a 2.500244,2.500244 0 0 0 0,-0.002 c 1.03386,-1.192662 1.99654,-1.627575 3.50781,-1.632813 z m -38.7832,0.625 c 0.60443,0.181815 1.10747,0.44445 1.52929,0.804688 a 2.500244,2.500244 0 0 0 0.004,0.0039 c 0.46054,0.392096 0.81911,0.863243 1.11523,1.507813 0.29808,0.650898 0.42188,1.230793 0.42188,1.824218 0,0.683198 -0.15612,1.329318 -0.5293,2.048828 -0.29521,0.550676 -0.63769,0.975929 -1.05664,1.332032 a 2.500244,2.500244 0 0 0 -0.0176,0.01563 c -0.41668,0.360366 -0.82667,0.587319 -1.28711,0.738281 -0.041,0.01258 -0.13529,0.0095 -0.17968,0.02148 z m 15.60742,1.835938 a 2.500244,2.500244 0 0 0 1.80469,1.804687 2.500244,2.500244 0 0 0 -1.80469,1.804688 z m 9.30469,5.576172 c 0.20619,0.865825 0.55887,1.685924 0.92578,2.505859 a 2.500244,2.500244 0 0 0 -1.37305,-1.373047 h -4.2207 v -0.236328 h 3.77148 a 2.500244,2.500244 0 0 0 0.89649,-0.896484 z m -54.21289,2.814453 a 2.500244,2.500244 0 0 0 3.29492,0.06445 l -0.32227,1.101562 a 2.500244,2.500244 0 0 0 -0.006,0.01367 c -0.3816,1.330958 -0.87896,2.213076 -0.68359,1.957032 a 2.500244,2.500244 0 0 0 -0.006,0.0078 c -0.19998,0.263935 -0.11617,0.242188 -0.57617,0.242188 -0.3705,0 -0.34991,-0.02391 -0.46289,-0.144532 -0.1385,-0.155303 -0.54727,-0.821392 -0.88282,-2.005859 a 2.500244,2.500244 0 0 0 -0.002,-0.0078 z m 34.03906,1.091797 -0.0156,0.01367 c 0.003,-0.0027 0.005,-0.0071 0.008,-0.0098 0.002,-0.0019 0.006,-0.002 0.008,-0.0039 z m -9.29297,0.154297 a 2.500244,2.500244 0 0 0 1.49609,1.496093 c -0.31931,-0.03358 -0.76106,-0.05955 -0.8457,-0.08789 -0.13233,-0.04631 -0.25807,-0.113805 -0.44531,-0.314453 -0.0828,-0.09081 -0.12141,-0.164318 -0.16211,-0.328125 -0.0149,-0.07293 -0.0233,-0.551406 -0.043,-0.765625 z m 20.23437,0.0059 a 2.500244,2.500244 0 0 0 1.47461,1.476562 c -0.3404,-0.03288 -0.8084,-0.05792 -0.88281,-0.08008 -0.0972,-0.03613 -0.17194,-0.07206 -0.31445,-0.238281 a 2.500244,2.500244 0 0 0 -0.004,-0.0059 c -0.0837,-0.0971 -0.14936,-0.202489 -0.20898,-0.431641 -0.0311,-0.119622 -0.0389,-0.482111 -0.0645,-0.720703 z" id="path13"/>
        <path style="baseline-shift:baseline;display:inline;overflow:visible;vector-effect:none;stroke:none;enable-background:accumulate;stop-color:#000000;stop-opacity:1" d="m 224.326,3.382 -5.67,19.344 q -0.617,2.152 -1.1,2.785 -0.935,1.234 -2.569,1.234 -1.4,0 -2.284,-0.917 -0.868,-0.934 -1.468,-3.052 l -5.57,-19.394 h 5.07 l 4.236,16.276 4.385,-16.276 z m 6.904,0 v 22.763 h -4.636 V 3.382 Z m 4.22,4.769 q 0,-1.184 0.116,-1.784 0.133,-0.617 0.5,-1.251 0.6,-1 1.534,-1.367 0.934,-0.384 2.852,-0.384 3.202,0 5.237,0.85 3.335,1.385 5.27,4.436 1.767,2.769 1.767,6.104 0,4.736 -3.302,8.038 -2.902,2.902 -6.704,3.252 -1.184,0.117 -2.585,0.117 -1.434,0 -2.268,-0.284 -0.817,-0.283 -1.467,-0.984 -0.567,-0.617 -0.767,-1.467 -0.184,-0.85 -0.184,-2.735 z m 4.635,13.508 h 0.6 q 1.652,0 2.836,-0.367 1.184,-0.383 2.168,-1.234 1,-0.85 1.65,-2.068 0.818,-1.567 0.818,-3.218 0,-1.451 -0.65,-2.869 -0.651,-1.417 -1.768,-2.368 -1.952,-1.667 -5.087,-1.667 -0.15,0 -0.567,0.016 z M 267.051,3.382 v 4.452 h -6.72 v 4.27 h 6.27 v 4.335 h -6.27 v 5.237 h 6.72 v 4.469 h -6.67 q -1.518,0 -2.335,-0.267 -0.8,-0.283 -1.401,-0.984 -0.517,-0.6 -0.734,-1.434 -0.217,-0.834 -0.217,-2.134 V 8.2 q 0,-2.635 1.068,-3.719 1.067,-1.1 3.619,-1.1 z m 14.375,-0.384 q 4.87,0 8.338,3.552 3.352,3.402 3.352,8.405 0,3.102 -1.7,5.904 -1.618,2.685 -4.37,4.202 -2.635,1.45 -5.686,1.45 -3.069,0 -5.737,-1.483 -2.869,-1.585 -4.486,-4.403 -1.568,-2.751 -1.568,-5.87 0,-5.27 4.003,-8.839 3.235,-2.868 7.854,-2.918 z m -0.033,4.503 q -3.252,0 -5.42,2.501 -1.75,2.018 -1.75,4.753 0,3.335 2.45,5.487 2.035,1.784 4.703,1.784 3.252,0 5.387,-2.535 1.717,-2.068 1.717,-4.62 0,-3.201 -2.318,-5.42 -1.95,-1.884 -4.77,-1.95 z" id="path14"/>
    </g>
    <g id="path5" style="fill:#324cab;stroke:#ffffff;stroke-width:5;stroke-linecap:round;stroke-linejoin:round;stroke-dasharray:none;paint-order:markers stroke fill" transform="matrix(1.01272,0,0,0.98744,27.811723,-0.49204346)">
        <path style="baseline-shift:baseline;display:inline;overflow:visible;vector-effect:none;fill:#ffffff;stroke:none;enable-background:accumulate;stop-color:#000000;stop-opacity:1" d="m 239.20312,30.949219 c -1.65846,0 -3.33582,0.797697 -4.41992,2.039062 a 2.5002498,2.5002498 0 0 0 -0.004,0.0039 c -0.78345,0.900725 -1.2514,1.970759 -1.57422,3.148438 -2.4e-4,8.77e-4 -0.002,0.0011 -0.002,0.002 l -2.14648,7.689453 c -0.14187,-0.19282 -0.21553,-0.432331 -0.38477,-0.601562 a 2.5002498,2.5002498 0 0 0 -0.0195,-0.01953 c -0.79198,-0.774054 -1.79904,-1.09938 -2.82422,-1.267578 l 1.55079,-1.005859 a 2.5002498,2.5002498 0 0 0 0.70898,-3.501953 c -1.37636,-2.026024 -3.12918,-3.657751 -5.19336,-4.779297 -2.0551,-1.122367 -4.3514,-1.691406 -6.73828,-1.691406 -2.43738,0 -4.79354,0.604924 -6.91797,1.78125 a 2.5002498,2.5002498 0 0 0 -0.002,0.002 c -2.21215,1.22622 -4.03108,2.984844 -5.33594,5.154297 a 2.5002498,2.5002498 0 0 0 -0.002,0 c -1.3444,2.237209 -2.04102,4.753337 -2.04102,7.363281 0,2.525939 0.66484,4.969513 1.94141,7.164062 a 2.5002498,2.5002498 0 0 0 0.002,0.0059 c 1.32676,2.268766 3.20429,4.097458 5.49805,5.351562 8.1e-4,4.43e-4 0.001,0.0015 0.002,0.002 2.11121,1.160805 4.45291,1.759766 6.87305,1.759766 2.22781,0 4.3918,-0.508403 6.375,-1.5 1.17189,-0.586201 2.20524,-1.378071 3.16797,-2.257812 l -0.0508,0.183593 a 2.5002498,2.5002498 0 0 0 2.40625,3.171875 h 4.89062 a 2.5002498,2.5002498 0 0 0 2.41992,-1.86914 l 0.66406,-2.552735 h 2.27149 l 0.65234,2.542969 a 2.5002498,2.5002498 0 0 0 2.42188,1.878906 h 5.03906 a 2.5002498,2.5002498 0 0 0 1.60547,-0.798828 2.5002498,2.5002498 0 0 0 0.79883,0.798828 h 4.63867 a 2.5002498,2.5002498 0 0 0 2.06055,-2.060547 c 0.85108,1.422321 2.60579,2.394532 4.21679,2.394532 1.47185,0 3.0201,-0.867394 3.92383,-2.115235 a 2.5002498,2.5002498 0 0 0 1.78125,1.78125 h 4.64063 a 2.5002498,2.5002498 0 0 0 2.5,-2.5 v -0.873047 c 0.2135,0.423393 0.33554,0.890837 0.64648,1.251954 0.64933,0.757237 1.50558,1.374396 2.46484,1.71289 a 2.5002498,2.5002498 0 0 0 0.0547,0.01758 c 0.97952,0.320112 1.95414,0.390625 3.11328,0.390625 h 6.67578 a 2.5002498,2.5002498 0 0 0 2.5,-2.5 v -4.472656 a 2.5002498,2.5002498 0 0 0 -2.5,-2.5 h -4.22656 v -0.240234 h 3.77735 a 2.5002498,2.5002498 0 0 0 2.5,-2.5 v -4.337891 a 2.5002498,2.5002498 0 0 0 -1.91211,-1.912109 2.5002498,2.5002498 0 0 0 2.36132,-2.361328 v -4.457032 a 2.5002498,2.5002498 0 0 0 -2.5,-2.5 l -6.67578,0.002 c -2.05825,0 -4.00314,0.413182 -5.4082,1.855469 -0.63458,0.646802 -1.00154,1.417282 -1.27539,2.230469 -0.0938,-0.323506 -0.13508,-0.655205 -0.28906,-0.976563 -0.47663,-1.005698 -1.28376,-1.874898 -2.23828,-2.443359 -0.93776,-0.57422 -2.04694,-0.884765 -3.13868,-0.884766 -1.81137,0 -3.69945,0.922112 -4.75,2.414063 a 2.5002498,2.5002498 0 0 0 -0.004,0.0039 c -0.30954,0.442198 -0.57333,0.880915 -0.7793,1.408203 -0.2184,0.559104 -0.36115,1.103127 -0.63477,2.105469 l -0.9082,3.242188 -1.0664,-3.371094 -0.004,-0.01172 c -0.31349,-1.017015 -0.44819,-1.494121 -0.71289,-2.097656 -0.18769,-0.47614 -0.41652,-0.877279 -0.6875,-1.277344 a 2.5002498,2.5002498 0 0 0 -0.043,-0.06055 c -0.54008,-0.747904 -1.2761,-1.341722 -2.07813,-1.742187 -0.81433,-0.406612 -1.73671,-0.628907 -2.65234,-0.628907 -1.07994,1e-6 -2.15991,0.323294 -3.07226,0.875 -0.91931,0.546509 -1.72464,1.377873 -2.19141,2.38086 -0.28363,0.596361 -0.45425,1.232014 -0.52539,1.86914 a 2.5002498,2.5002498 0 0 0 0,0.002 c -0.0704,0.631158 -0.082,1.347061 -0.082,2.396484 v 8.550781 l -3.15821,-11.05664 c -0.40397,-1.413911 -1.02532,-2.685795 -2.06054,-3.667969 -1.03523,-0.982174 -2.50408,-1.533203 -3.91407,-1.533203 z m 0,5 c 0.32535,0 0.31755,0.013 0.47266,0.160156 0.15511,0.14716 0.45395,0.569306 0.69531,1.414062 l 0.39649,1.392579 a 2.5002498,2.5002498 0 0 0 -3.13672,-0.04492 l 0.39062,-1.396485 a 2.5002498,2.5002498 0 0 0 0.004,-0.01172 c 0.18878,-0.689249 0.41847,-1.064134 0.52539,-1.1875 0.29152,-0.333628 0.30805,-0.326172 0.65234,-0.326172 z m 15.00391,0.183593 c 0.15104,0 0.2523,0.02079 0.41797,0.103516 0.16961,0.08469 0.21065,0.132671 0.24805,0.183594 0.0936,0.1495 0.16218,0.284946 0.15039,0.253906 a 2.5002498,2.5002498 0 0 0 0.0566,0.134766 c -0.0877,-0.195229 0.20944,0.592954 0.52539,1.617187 a 2.5002498,2.5002498 0 0 0 0.006,0.01758 l 1.00586,3.175782 a 2.5002498,2.5002498 0 0 0 -3.28125,1.103515 V 38.65625 c 0,-0.97591 0.0318,-1.673575 0.0508,-1.84375 0.0174,-0.156183 0.0468,-0.234368 0.0684,-0.279297 a 2.5002498,2.5002498 0 0 0 0.0176,-0.03711 c 0.0225,-0.04901 0.0162,-0.07385 0.21875,-0.19336 a 2.5002498,2.5002498 0 0 0 0.0273,-0.01758 c 0.2201,-0.133717 0.32573,-0.152344 0.48828,-0.152344 z m 14.32031,0.01563 c 0.25546,0 0.36632,0.03791 0.53516,0.142579 a 2.5002498,2.5002498 0 0 0 0.0508,0.03125 c 0.16602,0.09755 0.19693,0.134886 0.27344,0.296875 a 2.5002498,2.5002498 0 0 0 0.008,0.01563 c -0.0202,-0.04197 0.20313,0.734256 0.20313,1.970703 v 4.294922 a 2.5002498,2.5002498 0 0 0 -3.38868,-1.021485 l 0.96875,-3.466797 a 2.5002498,2.5002498 0 0 0 0.006,-0.01563 c 0.26106,-0.956324 0.4852,-1.648666 0.4668,-1.601562 -0.006,0.01513 0.0631,-0.13484 0.2168,-0.355469 0.21676,-0.308321 0.1355,-0.291016 0.66015,-0.291016 z m 11.61719,0.355469 a 2.5002498,2.5002498 0 0 0 -1.29883,1.298828 c 0.0948,-0.383842 0.19048,-1.079131 0.19141,-1.080078 a 2.5002498,2.5002498 0 0 0 0.0117,-0.01367 c 0.0119,-0.01221 0.67056,-0.110392 1.0957,-0.205078 z m -56.08203,1.080078 0.008,0.0059 c -0.002,-0.0013 -0.004,-6.83e-4 -0.006,-0.002 -0.001,-8.58e-4 -8.5e-4,-0.0031 -0.002,-0.0039 z m -5.93945,2.904297 c 1.05878,0 1.911,0.290796 2.86328,1.03711 a 2.5002498,2.5002498 0 0 0 0.008,0.0059 c 0.0692,0.05378 0.1362,0.170111 0.20508,0.232422 h -2.99219 a 2.5002498,2.5002498 0 0 0 -2.5,2.5 v 4.289062 a 2.5002498,2.5002498 0 0 0 1.30469,1.304688 c -0.66159,-0.160968 -1.27806,-0.425827 -1.88672,-0.953125 l -0.002,-0.002 c -7.6e-4,-6.6e-4 -0.001,-0.0013 -0.002,-0.002 -1.15598,-1.009252 -1.60742,-2.000264 -1.60742,-3.634766 0,-0.886942 0.18871,-1.617534 0.58985,-2.345703 v -0.002 c 0.43043,-0.778018 0.96456,-1.326546 1.7246,-1.777344 a 2.5002498,2.5002498 0 0 0 0.002,-0.002 c 0.77114,-0.458564 1.47837,-0.650391 2.29297,-0.650391 z m 60.56445,2.46875 a 2.5002498,2.5002498 0 0 0 1.80859,1.808594 2.5002498,2.5002498 0 0 0 -1.80859,1.806641 z m -52.95508,3.806641 h 0.91992 c 0.5735,0 0.57275,0.0977 0.48828,0.02148 0.0516,0.04329 0.0645,-0.01776 0.0645,0.298828 0,0.297177 -0.10863,0.905682 -0.45508,1.734375 -7.3e-4,0.0017 7.3e-4,0.0022 0,0.0039 -0.0221,0.05174 -0.0631,0.08953 -0.0859,0.140625 a 2.5002498,2.5002498 0 0 0 -0.93164,-2.199219 z m 17.66211,1.345703 0.91602,3.208984 a 2.5002498,2.5002498 0 0 0 -1.98438,-1.541015 2.5002498,2.5002498 0 0 0 1.06836,-1.667969 z m -8.37695,0.123047 a 2.5002498,2.5002498 0 0 0 1.0332,1.541015 2.5002498,2.5002498 0 0 0 -1.86719,1.44336 z m 27.77929,2.445312 -0.75,2.673828 a 2.5002498,2.5002498 0 0 0 -0.004,0.01367 c -0.17557,0.638637 -0.26858,0.86127 -0.31641,1.001953 -0.0509,-0.123247 -0.1963,-0.452027 -0.41406,-1.130859 l -0.002,-0.0039 -0.78516,-2.466797 a 2.5002498,2.5002498 0 0 0 2.27148,-0.08789 z m 15.96094,1.927735 a 2.5002498,2.5002498 0 0 0 1.48242,1.482422 c -0.34393,-0.03301 -0.81458,-0.05792 -0.88867,-0.08008 -0.098,-0.03633 -0.17176,-0.07385 -0.3125,-0.238281 a 2.5002498,2.5002498 0 0 0 -0.006,-0.0059 c -0.0842,-0.09774 -0.14939,-0.202345 -0.20898,-0.431641 a 2.5002498,2.5002498 0 0 0 0,-0.002 c -0.0312,-0.119913 -0.0408,-0.484171 -0.0664,-0.724609 z m -21.34179,4.365234 c 8.6e-4,0.0016 0.003,0.0023 0.004,0.0039 0.002,0.0042 0.004,0.0095 0.006,0.01367 z" id="path15"/>
        <path style="baseline-shift:baseline;display:inline;overflow:visible;vector-effect:none;stroke:none;enable-background:accumulate;stop-color:#000000;stop-opacity:1" d="m 218.207,44.264 h 8.445 q 1.502,0 2.253,0.734 0.801,0.801 0.801,2.086 0,1.152 -0.65,2.704 -0.652,1.535 -1.687,2.82 -1.635,2.053 -3.938,3.205 -2.47,1.235 -5.258,1.235 -3.037,0 -5.674,-1.452 -2.871,-1.569 -4.54,-4.423 -1.602,-2.754 -1.602,-5.908 0,-3.271 1.685,-6.075 1.636,-2.72 4.407,-4.256 2.653,-1.469 5.708,-1.469 3.004,0 5.54,1.385 2.554,1.386 4.323,3.99 l -3.888,2.52 q -0.701,-1.102 -1.603,-1.803 -2.002,-1.569 -4.406,-1.569 -1.886,0 -3.571,1.002 -1.686,1 -2.637,2.72 -0.902,1.636 -0.902,3.555 0,3.371 2.47,5.524 2.02,1.753 4.657,1.753 2.053,0 3.655,-1.002 1.619,-1.018 2.687,-2.987 h -6.275 z m 30.225,12.383 h -5.04 l -1.135,-4.422 h -6.142 l -1.152,4.422 h -4.89 l 5.541,-19.844 q 0.384,-1.402 1.052,-2.17 1.034,-1.184 2.537,-1.184 2.603,0 3.571,3.388 z m -7.277,-8.795 -1.986,-7.677 -1.936,7.677 z m 30.943,8.795 h -4.64 V 43.312 l -3.004,10.715 q -0.367,1.335 -0.6,1.786 -0.618,1.168 -2.103,1.168 -1.486,0 -2.137,-1.201 -0.267,-0.484 -0.684,-1.786 l -3.455,-10.849 v 13.502 h -4.64 V 38.656 q 0,-1.519 0.067,-2.12 0.067,-0.6 0.3,-1.085 0.368,-0.8 1.219,-1.302 0.851,-0.517 1.786,-0.517 0.8,0 1.535,0.367 0.735,0.367 1.169,0.968 0.317,0.468 0.45,0.818 0.15,0.334 0.634,1.903 l 3.605,11.382 3.171,-11.332 q 0.401,-1.469 0.551,-1.853 0.15,-0.384 0.5,-0.884 0.952,-1.352 2.705,-1.352 1.018,0 1.852,0.517 0.851,0.5 1.269,1.385 0.45,0.935 0.45,3.055 z m 15.455,-22.781 v 4.456 h -6.726 v 4.273 h 6.276 v 4.339 h -6.276 v 5.24 h 6.726 v 4.473 h -6.676 q -1.519,0 -2.336,-0.267 -0.802,-0.283 -1.402,-0.984 -0.518,-0.601 -0.735,-1.436 -0.217,-0.834 -0.217,-2.136 V 38.69 q 0,-2.637 1.068,-3.722 1.069,-1.101 3.622,-1.101 z" id="path16"/>
    </g>
    <g id="path6" style="fill:#324cab;stroke:#ffffff;stroke-width:5;stroke-linecap:round;stroke-linejoin:round;stroke-dasharray:none;paint-order:markers stroke fill" transform="matrix(1.01017,0,0,0.98994,10.931972,-0.49204346)">
        <path style="baseline-shift:baseline;display:inline;overflow:visible;vector-effect:none;fill:#ffffff;stroke:none;enable-background:accumulate;stop-color:#000000;stop-opacity:1" d="m 214.95508,61.09375 c -1.7023,0 -3.26438,0.24383 -4.66602,0.849609 -1.39253,0.595806 -2.60234,1.572963 -3.55273,2.794922 -1.34302,1.719514 -2.07227,3.83391 -2.07227,6.015625 0,1.763404 0.4932,3.492145 1.42969,4.978516 a 2.5002405,2.5002405 0 0 0 0.004,0.0059 c 1.32086,2.082947 3.5871,3.324255 6.29101,4.003906 a 2.5002405,2.5002405 0 0 0 0.004,0.002 c 0.76663,0.191358 0.86732,0.234467 1.1875,0.335937 -0.0919,0.0102 -0.0203,0.02539 -0.16602,0.02539 -1.01164,0 -2.71341,-0.377773 -4.89844,-1.296875 a 2.5002405,2.5002405 0 0 0 -3.46875,2.304687 v 4.806641 a 2.5002405,2.5002405 0 0 0 1.72852,2.378906 c 2.41796,0.782386 4.5658,1.214844 6.53906,1.214844 2.68396,0 5.16364,-0.713119 7.07813,-2.265625 a 2.5002405,2.5002405 0 0 0 0.002,-0.002 c 2.19456,-1.785122 3.41016,-4.501687 3.41016,-7.392578 0,-2.379038 -0.83602,-4.661439 -2.41992,-6.369141 -0.68392,-0.743809 -1.50796,-1.354456 -2.42774,-1.767578 -0.91494,-0.4289 -1.98251,-0.747138 -3.52344,-1.146485 a 2.5002405,2.5002405 0 0 0 -0.004,0 c -0.3767,-0.09699 -0.28474,-0.08355 -0.52149,-0.177734 0.078,-0.0059 0.0183,-0.02344 0.12891,-0.02344 0.82343,0 1.94075,0.251494 3.32031,0.894531 a 2.5002405,2.5002405 0 0 0 3.15625,-1.53711 l 3.58789,7.650391 v 9.238281 a 2.5002405,2.5002405 0 0 0 2.5,2.5 h 4.5918 a 2.5002405,2.5002405 0 0 0 2.5,-2.5 v -9.220703 l 1.89062,-3.904297 c 0.23921,0.784705 0.56311,1.545187 1.00391,2.244141 a 2.5002405,2.5002405 0 0 0 0.004,0.0039 c 1.32037,2.083781 3.58644,3.324285 6.29101,4.003906 a 2.5002405,2.5002405 0 0 0 0.004,0.002 c 0.76663,0.191358 0.86732,0.234467 1.1875,0.335937 -0.0926,0.01046 -0.0199,0.02539 -0.16797,0.02539 -1.01075,0 -2.71259,-0.377686 -4.89844,-1.296875 a 2.5002405,2.5002405 0 0 0 -3.46875,2.304687 v 4.806641 a 2.5002405,2.5002405 0 0 0 1.73047,2.378906 c 2.41854,0.782343 4.5658,1.214844 6.53906,1.214844 2.68396,0 5.16169,-0.713119 7.07618,-2.265625 a 2.5002405,2.5002405 0 0 0 0.004,-0.002 c 2.03595,-1.656768 3.12018,-4.145133 3.28125,-6.800782 v 6.169922 a 2.5002405,2.5002405 0 0 0 2.5,2.5 h 4.60742 a 2.5002405,2.5002405 0 0 0 2.5,-2.5 V 70.916016 h 1.68164 v 10.910156 c 0,1.000566 0.0723,1.891603 0.29493,2.75 a 2.5002405,2.5002405 0 0 0 0,0.002 c 0.22855,0.877165 0.65047,1.722619 1.25195,2.421875 3.5e-4,4.04e-4 0.002,-4.04e-4 0.002,0 0.64673,0.753564 1.49818,1.368722 2.45313,1.707031 a 2.5002405,2.5002405 0 0 0 0.0586,0.02148 c 0.97527,0.318282 1.94393,0.386718 3.0957,0.386718 h 6.63086 a 2.5002405,2.5002405 0 0 0 1.81446,-1.814453 2.5002405,2.5002405 0 0 0 1.8164,1.816406 h 4.60742 a 2.5002405,2.5002405 0 0 0 2.04493,-2.044921 c 0.85134,1.408879 2.58873,2.375 4.1875,2.375 1.4614,0 3.0001,-0.861948 3.90234,-2.09961 a 2.5002405,2.5002405 0 0 0 1.76758,1.767578 h 4.60742 a 2.5002405,2.5002405 0 0 0 2.5,-2.5 v -17.91801 c 0,-1.574438 -0.0797,-2.825659 -0.69336,-4.105469 -0.47435,-1.001666 -1.2764,-1.869723 -2.22656,-2.435547 -0.93411,-0.572075 -2.04138,-0.882812 -3.12891,-0.882813 -1.80319,10e-7 -3.68296,0.918388 -4.72851,2.404297 a 2.5002405,2.5002405 0 0 0 -0.006,0.0078 c -0.30706,0.439406 -0.56813,0.872882 -0.77344,1.396484 a 2.5002405,2.5002405 0 0 0 -0.002,0.0039 c -0.21537,0.552154 -0.3588,1.093578 -0.62696,2.076172 l -0.002,0.0098 c -5.3e-4,0.002 -10e-4,0.0019 -0.002,0.0039 l -0.88477,3.166016 -1.04297,-3.291016 -0.006,-0.01953 c -0.30829,-1.001983 -0.44201,-1.47652 -0.70898,-2.082031 -0.1877,-0.474865 -0.41723,-0.874631 -0.6875,-1.271485 a 2.5002405,2.5002405 0 0 0 -0.0371,-0.05469 c -0.53757,-0.746345 -1.27162,-1.336981 -2.07031,-1.736328 a 2.5002405,2.5002405 0 0 0 -0.002,-0.002 c -0.81095,-0.404922 -1.72907,-0.626953 -2.64062,-0.626954 -1.07686,0 -2.1535,0.324251 -3.0625,0.875 -0.65788,0.391072 -1.20785,0.964253 -1.66602,1.607422 a 2.5002405,2.5002405 0 0 0 -2.25,-2.25 h -6.63086 c -1.99354,0 -3.86545,0.422528 -5.25586,1.771485 a 2.5002405,2.5002405 0 0 0 -1.77148,-1.771485 h -13.16016 a 2.5002405,2.5002405 0 0 0 -1.20507,1.205078 2.5002405,2.5002405 0 0 0 -0.61719,-0.822265 c -1.75333,-0.50995 -3.47508,-0.779297 -5.15625,-0.779297 -1.70313,0 -3.26735,0.243132 -4.66992,0.849609 -0.001,5.63e-4 -0.003,0.0014 -0.004,0.002 -0.44698,0.19177 -0.83954,0.482063 -1.24609,0.748047 a 2.5002405,2.5002405 0 0 0 -2.1211,-1.203125 h -4.88867 a 2.5002405,2.5002405 0 0 0 -2.2793,1.472657 l -1.19531,2.65039 -1.12305,-2.611328 A 2.5002405,2.5002405 0 0 0 226.625,61.490234 h -5.03906 a 2.5002405,2.5002405 0 0 0 -1.24805,0.685547 2.5002405,2.5002405 0 0 0 -0.22656,-0.302734 c -1.75324,-0.509923 -3.47562,-0.779297 -5.15625,-0.779297 z m 53.2832,2.236328 c -0.002,0.0022 -0.002,0.0056 -0.004,0.0078 -0.003,0.0029 -0.007,0.003 -0.01,0.0059 z m 13.75,1.148438 c -0.004,0.0074 -0.002,0.01602 -0.006,0.02344 -0.003,0.0072 -0.0103,0.01226 -0.0137,0.01953 z m 5.23633,1.779296 c 0.14845,0 0.24716,0.02115 0.4082,0.101563 0.16237,0.08169 0.20202,0.12886 0.23633,0.175781 0.0965,0.152295 0.16395,0.2838 0.15039,0.248047 a 2.5002405,2.5002405 0 0 0 0.0586,0.142578 c -0.0922,-0.204023 0.2064,0.579312 0.51954,1.595703 a 2.5002405,2.5002405 0 0 0 0.006,0.01953 l 0.98828,3.11914 a 2.5002405,2.5002405 0 0 0 -3.215,1.089846 v -4.003906 c 0,-0.968309 0.0321,-1.660013 0.0508,-1.826172 a 2.5002405,2.5002405 0 0 0 0,-0.0039 c 0.0169,-0.152894 0.0453,-0.225937 0.0645,-0.265625 a 2.5002405,2.5002405 0 0 0 0.0215,-0.04297 c 0.0205,-0.04471 0.008,-0.06392 0.20508,-0.179688 a 2.5002405,2.5002405 0 0 0 0.0312,-0.01953 c 0.2158,-0.131267 0.31634,-0.150391 0.47461,-0.150391 z m 14.2207,0.01563 c 0.25033,0 0.3576,0.03585 0.52344,0.138672 a 2.5002405,2.5002405 0 0 0 0.0508,0.03125 c 0.16257,0.0955 0.19194,0.128698 0.26563,0.285157 a 2.5002405,2.5002405 0 0 0 0.01,0.02148 c -0.0231,-0.0478 0.19922,0.721287 0.19922,1.947266 v 4.226562 a 2.5002405,2.5002405 0 0 0 -3.32227,-1.007812 l 0.95313,-3.40625 a 2.5002405,2.5002405 0 0 0 0.004,-0.01563 c 0.25839,-0.946589 0.47971,-1.628463 0.46289,-1.585938 l 0.002,-0.002 c -2e-5,5.1e-5 2e-5,-0.002 0,-0.002 -0.005,0.01319 0.0629,-0.133117 0.21484,-0.351563 0.20936,-0.298808 0.12314,-0.279296 0.63672,-0.279297 z m -43.20117,0.216797 h 3.45898 a 2.5002405,2.5002405 0 0 0 -1.73046,1.728516 2.5002405,2.5002405 0 0 0 -1.72852,-1.728516 z m 14.60547,0.142578 a 2.5002405,2.5002405 0 0 0 -1.23047,1.230469 c 0.0904,-0.347027 0.18357,-1.025399 0.18164,-1.023437 a 2.5002405,2.5002405 0 0 0 0.0137,-0.01367 c 0.008,-0.0085 0.6524,-0.101983 1.03516,-0.19336 z m 8.52734,3.152344 v 1.953125 a 2.5002405,2.5002405 0 0 0 -0.97656,-0.976562 2.5002405,2.5002405 0 0 0 0.97656,-0.976563 z m -28.64258,0.4375 a 2.5002405,2.5002405 0 0 0 0.69336,0.69336 h 1.74219 v 8.230468 c -0.15332,-2.111485 -0.87271,-4.128294 -2.29297,-5.660156 -0.68422,-0.744867 -1.50667,-1.360377 -2.42773,-1.773437 -0.91451,-0.428154 -1.98285,-0.74332 -3.52344,-1.142579 a 2.5002405,2.5002405 0 0 0 -0.004,0 c -0.37591,-0.09679 -0.28295,-0.08367 -0.51953,-0.177734 0.078,-0.0059 0.0183,-0.02344 0.12891,-0.02344 0.82343,0 1.94075,0.251494 3.32031,0.894531 a 2.5002405,2.5002405 0 0 0 2.88281,-1.041016 z m 18.72266,2.828125 a 2.5002405,2.5002405 0 0 0 1.76563,1.765625 2.5002405,2.5002405 0 0 0 -1.76563,1.763672 z M 228.83594,73.5625 a 2.5002405,2.5002405 0 0 0 2.09179,0.136719 l -0.98437,2.03125 a 2.5002405,2.5002405 0 0 0 -0.043,0.185547 2.5002405,2.5002405 0 0 0 -0.0352,-0.158204 z m -11.375,3.123047 c 0.0822,0.07143 0.15759,0.08934 0.24414,0.183594 a 2.5002405,2.5002405 0 0 0 0.0117,0.01172 c 0.0387,0.0416 0.0475,0.09105 0.084,0.132813 -0.10534,-0.12313 -0.22457,-0.217111 -0.33984,-0.328125 z m 31.49414,0.002 c 0.0813,0.0709 0.15658,0.08828 0.24219,0.181641 a 2.5002405,2.5002405 0 0 0 0.0117,0.01172 c 0.0383,0.04116 0.0479,0.08954 0.084,0.13086 -0.10445,-0.122086 -0.22367,-0.214042 -0.33789,-0.324219 z m 32.42187,1.205078 v 2.912109 a 2.5002405,2.5002405 0 0 0 -1.13086,-1.130859 h -4.17968 V 79.47075 h 3.73242 a 2.5002405,2.5002405 0 0 0 1.57812,-1.578125 z m 14.34961,2.833984 -0.73242,2.613282 a 2.5002405,2.5002405 0 0 0 -0.002,0.0098 c -0.16676,0.605812 -0.24278,0.787741 -0.29883,0.949219 -0.0592,-0.14321 -0.18838,-0.429277 -0.39649,-1.076172 l -0.002,-0.0039 c -3.3e-4,-0.001 3.3e-4,-9.16e-4 0,-0.002 l -0.76562,-2.402344 a 2.5002405,2.5002405 0 0 0 2.19726,-0.08789 z m -24.19531,1.91211 a 2.5002405,2.5002405 0 0 0 1.41602,1.416015 c -0.31506,-0.03199 -0.76732,-0.05532 -0.8379,-0.07617 -0.0958,-0.03565 -0.16904,-0.06973 -0.30859,-0.232422 a 2.5002405,2.5002405 0 0 0 -0.004,-0.0059 c -0.0809,-0.09384 -0.14453,-0.196627 -0.20312,-0.419922 -0.0292,-0.112656 -0.0378,-0.461017 -0.0625,-0.68164 z m 18.86523,4.304687 c 8.7e-4,0.0016 0.003,0.0023 0.004,0.0039 0.003,0.0047 0.003,0.01095 0.006,0.01563 z" id="path17"/>
        <path style="baseline-shift:baseline;display:inline;overflow:visible;vector-effect:none;stroke:none;enable-background:accumulate;stop-color:#000000;stop-opacity:1" d="m 219.414,64.273 v 4.724 q -2.42,-1.128 -4.376,-1.128 -1.558,0 -2.42,0.813 -0.812,0.762 -0.812,1.79 0,1.011 0.63,1.541 0.63,0.53 2.37,0.978 2.238,0.58 3.116,0.995 0.895,0.398 1.625,1.193 1.757,1.89 1.757,4.675 0,3.43 -2.487,5.453 -2.105,1.707 -5.503,1.707 -2.387,0 -5.768,-1.094 v -4.807 q 3.547,1.492 5.868,1.492 1.508,0 2.337,-0.73 0.862,-0.762 0.862,-1.889 0,-1.326 -1.194,-1.94 -0.497,-0.248 -2.42,-0.728 -3.497,-0.879 -4.79,-2.918 -1.044,-1.657 -1.044,-3.646 0,-2.503 1.541,-4.476 1.094,-1.409 2.57,-2.039 1.491,-0.646 3.68,-0.646 2.12,0 4.458,0.68 z m 12.78,22.343 h -4.592 V 76.82 l -6.017,-12.83 h 5.04 l 3.364,7.824 3.53,-7.823 h 4.89 l -6.215,12.83 z m 18.714,-22.343 v 4.724 q -2.42,-1.128 -4.376,-1.128 -1.558,0 -2.42,0.813 -0.813,0.762 -0.813,1.79 0,1.011 0.63,1.541 0.63,0.53 2.37,0.978 2.238,0.58 3.117,0.995 0.895,0.398 1.624,1.193 1.757,1.89 1.757,4.675 0,3.43 -2.486,5.453 -2.105,1.707 -5.503,1.707 -2.387,0 -5.769,-1.094 v -4.807 q 3.548,1.492 5.868,1.492 1.509,0 2.337,-0.73 0.862,-0.762 0.862,-1.889 0,-1.326 -1.193,-1.94 -0.497,-0.248 -2.42,-0.728 -3.498,-0.879 -4.79,-2.918 -1.045,-1.657 -1.045,-3.646 0,-2.503 1.542,-4.476 1.094,-1.409 2.569,-2.039 1.492,-0.646 3.68,-0.646 2.121,0 4.459,0.68 z m 15.68,-0.283 v 4.426 h -4.31 v 18.2 h -4.608 v -18.2 h -4.243 v -4.425 z m 13.658,0 v 4.426 h -6.68 v 4.244 h 6.233 v 4.31 h -6.233 v 5.204 h 6.68 v 4.442 h -6.63 q -1.508,0 -2.32,-0.265 -0.796,-0.282 -1.393,-0.978 -0.514,-0.596 -0.73,-1.425 -0.215,-0.829 -0.215,-2.122 V 68.781 q 0,-2.619 1.061,-3.696 1.061,-1.094 3.597,-1.094 z m 24.748,22.626 h -4.608 V 73.373 l -2.984,10.641 q -0.365,1.326 -0.597,1.774 -0.613,1.16 -2.088,1.16 -1.476,0 -2.122,-1.194 -0.265,-0.48 -0.68,-1.773 l -3.43,-10.774 v 13.41 h -4.609 v -17.87 q 0,-1.508 0.067,-2.105 0.066,-0.597 0.298,-1.078 0.365,-0.795 1.21,-1.292 0.845,-0.514 1.774,-0.514 0.795,0 1.524,0.364 0.73,0.365 1.16,0.962 0.316,0.464 0.448,0.812 0.15,0.332 0.63,1.89 l 3.58,11.304 3.15,-11.255 q 0.398,-1.458 0.547,-1.84 0.149,-0.38 0.497,-0.878 0.945,-1.343 2.685,-1.343 1.011,0 1.84,0.514 0.846,0.497 1.26,1.376 0.448,0.928 0.448,3.033 z" id="path18"/>
    </g>
</svg>
