<?xml version="1.0" encoding="UTF-8" standalone="no"?>
<!-- Generator: Adobe Illustrator 23.0.3, SVG Export Plug-In . SVG Version: 6.00 Build 0)  -->

<svg
   version="1.1"
   id="Camada_1"
   x="0px"
   y="0px"
   viewBox="0 0 710.7 246.39999"
   xml:space="preserve"
   sodipodi:docname="zx81.svg"
   width="710.70001"
   height="246.39999"
   inkscape:version="1.4.3 (0d15f75042, 2025-12-25)"
   xmlns:inkscape="http://www.inkscape.org/namespaces/inkscape"
   xmlns:sodipodi="http://sodipodi.sourceforge.net/DTD/sodipodi-0.dtd"
   xmlns="http://www.w3.org/2000/svg"
   xmlns:svg="http://www.w3.org/2000/svg"><defs
   id="defs15" /><sodipodi:namedview
   id="namedview15"
   pagecolor="#939393"
   bordercolor="#000000"
   borderopacity="0.25"
   inkscape:showpageshadow="2"
   inkscape:pageopacity="0.0"
   inkscape:pagecheckerboard="0"
   inkscape:deskcolor="#d1d1d1"
   inkscape:zoom="0.9072199"
   inkscape:cx="353.82822"
   inkscape:cy="112.4314"
   inkscape:window-width="1920"
   inkscape:window-height="1080"
   inkscape:window-x="0"
   inkscape:window-y="0"
   inkscape:window-maximized="0"
   inkscape:current-layer="Camada_1" />
<style
   type="text/css"
   id="style1">
	.st0{fill:#010101;}
	.st1{fill:#ED2024;}
</style>
<g
   id="g6"
   style="stroke:#ffffff;stroke-width:25;stroke-linecap:round;stroke-linejoin:round;stroke-dasharray:none;stroke-opacity:1;paint-order:markers stroke fill"
   transform="translate(3.3,7)">
	
	
	
	
	
	
	
	
	
	<g
   id="polygon6"
   class="st0"
   style="opacity:1"><path
     style="baseline-shift:baseline;display:inline;overflow:visible;vector-effect:none;fill:#ffffff;stroke:none;enable-background:accumulate;stop-color:#000000;stop-opacity:1"
     d="m 132.59961,-7 a 12.50125,12.50125 0 0 0 -12.5,12.5 V 16 H 9.1992188 A 12.50125,12.50125 0 0 0 -3.3007813,28.5 v 45.699219 a 12.50125,12.50125 0 0 0 1.5527344,3.75 12.50125,12.50125 0 0 0 -1.5527344,3.75 v 20.000001 a 12.50125,12.50125 0 0 0 12.5000001,12.5 H 127.19922 a 12.50125,12.50125 0 0 0 2.70117,-1.11719 12.50125,12.50125 0 0 0 2.69922,1.11719 h 22.59961 a 12.50125,12.50125 0 0 0 2.3789,-0.98438 12.50125,12.50125 0 0 0 2.6211,1.08594 h 22.60156 a 12.50125,12.50125 0 0 0 12.5,-12.5 V 60.699219 h 46.89844 v 41.000001 a 12.50125,12.50125 0 0 0 12.5,12.5 h 22.60156 a 12.50125,12.50125 0 0 0 2.44922,-1.01367 12.50125,12.50125 0 0 0 2.44922,1.01367 H 399 a 12.50125,12.50125 0 0 0 2.20703,-0.91406 12.50125,12.50125 0 0 0 2.69336,1.11523 H 426.5 a 12.50125,12.50125 0 0 0 2.69141,-1.11523 12.50125,12.50125 0 0 0 2.20898,0.91406 H 547.59961 A 12.50125,12.50125 0 0 0 550,113.20508 a 12.50125,12.50125 0 0 0 2.40039,0.99414 H 575 a 12.50125,12.50125 0 0 0 2.80078,-1.16016 12.50125,12.50125 0 0 0 2.79883,1.16016 h 22.59961 a 12.50125,12.50125 0 0 0 12.5,-12.5 V 60.699219 h 79.20117 a 12.50125,12.50125 0 0 0 12.5,-12.5 v -19.5 a 12.50125,12.50125 0 0 0 -12.5,-12.5 H 587.5 V 5.5 A 12.50125,12.50125 0 0 0 575,-7 h -22.59961 a 12.50125,12.50125 0 0 0 -12.5,12.5 V 16.199219 H 439 V 7.9003906 a 12.50125,12.50125 0 0 0 -12.5,-12.5 h -22.59961 a 12.50125,12.50125 0 0 0 -12.5,12.5 V 16.199219 H 282.19922 A 12.50125,12.50125 0 0 0 279.75,17.214844 12.50125,12.50125 0 0 0 277.30078,16.199219 H 167.69922 V 5.5 a 12.50125,12.50125 0 0 0 -12.5,-12.5 z M 21.699219,41 h 0.40039 a 12.50125,12.50125 0 0 0 -0.40039,0.966797 z m 151.000001,0.199219 h 0.5 a 12.50125,12.50125 0 0 0 -0.5,1.208984 z m 91.60156,0 h 0.5 v 1.208984 a 12.50125,12.50125 0 0 0 -0.5,-1.208984 z m 30.39844,0 h 0.5 a 12.50125,12.50125 0 0 0 -0.5,1.208984 z m 239.90039,0 h 0.5 v 1.207031 a 12.50125,12.50125 0 0 0 -0.5,-1.207031 z m 58.5,0 h 0.5 a 12.50125,12.50125 0 0 0 -0.5,1.207031 z m -275.79883,19.5 h 74.09961 v 8.5 h -74.09961 z m 217.79883,0.894531 v 6.8125 A 12.50125,12.50125 0 0 0 532.9668,65 a 12.50125,12.50125 0 0 0 2.13281,-3.40625 z m -420.48633,6.605469 h 0.0859 v 0.207031 a 12.50125,12.50125 0 0 0 -0.0859,-0.207031 z m 329.28711,0.101562 h 0.043 a 12.50125,12.50125 0 0 0 -0.043,0.105469 z M 294.69922,87.492187 a 12.50125,12.50125 0 0 0 0.70703,1.707032 h -0.70703 z m -180,0.002 v 1.705078 h -0.70703 a 12.50125,12.50125 0 0 0 0.70703,-1.705078 z m 329.20117,0 a 12.50125,12.50125 0 0 0 0.70703,1.705078 h -0.70703 z m 91.19922,0 v 1.705078 h -0.70703 a 12.50125,12.50125 0 0 0 0.70703,-1.705078 z"
     id="path16" /><path
     style="baseline-shift:baseline;display:inline;overflow:visible;vector-effect:none;fill:#010101;stroke:none;enable-background:accumulate;stop-color:#000000;stop-opacity:1"
     d="m 580.6,28.7 v 73 h 22.6 V 48.2 h 91.7 V 28.7 Z M 552.40002,5.5 h 22.6 v 19.4 h -22.6 z M 547.6,101.7 v -73 H 431.4 V 48.2 H 525 v 7.6 h -93.6 v 45.9 z M 525,81.7 h -71 v -7.5 h 71 z m -126,20 v -20 H 304.8 V 48.2 H 399 l 0.1,-19.5 H 282.2 v 73 z M 277.3,28.7 H 160.2 v 73.1 h 22.6 V 48.2 h 71.9 v 53.5 h 22.6 z m -144.69999,1e-6 h 22.6 V 101.7 h -22.6 z m 419.80001,0 h 22.6 V 101.7 h -22.6 z M 403.89999,7.9000001 h 22.6 V 101.9 h -22.6 z M 127.2,55.7 H 31.7 V 48 h 95.4 V 28.5 H 9.2 v 45.7 h 95.4 v 7.5 H 9.2 v 20 h 118 z m 5.40001,-50.2 h 22.6 V 25 h -22.6 z"
     id="path17" /></g>
</g>
<g
   id="g9"
   transform="translate(3.3,29)"
   style="stroke:#ffffff;stroke-width:25;stroke-linecap:round;stroke-linejoin:round;stroke-dasharray:none;stroke-opacity:1;paint-order:markers stroke fill">
	
	
	
	<g
   id="path9"
   class="st1"
   style="opacity:1"><path
     style="baseline-shift:baseline;display:inline;overflow:visible;vector-effect:none;fill:#ffffff;stroke:none;enable-background:accumulate;stop-color:#000000;stop-opacity:1"
     d="M 11.5,95.099609 A 12.50125,12.50125 0 0 0 -1,107.59961 v 16.80078 a 12.50125,12.50125 0 0 0 12.5,12.5 H 33.064453 L 0.49804688,178.04297 a 12.50125,12.50125 0 0 0 -2.69726568,7.75781 v 16.79883 a 12.50125,12.50125 0 0 0 12.4999998,12.5 h 73.298828 a 12.50125,12.50125 0 0 0 2.931641,-1.21484 12.50125,12.50125 0 0 0 3.269531,1.21484 h 22.999999 a 12.50125,12.50125 0 0 0 10.76758,-6.15234 l 8.04101,-13.63868 7.47852,13.38672 A 12.50125,12.50125 0 0 0 150,215.09961 h 24 a 12.50125,12.50125 0 0 0 9.53125,-5.51953 c 7.67331,5.39645 17.34907,7.82031 27.56836,7.82031 12.64359,0 24.4705,-3.6403 33.00195,-11.73047 0.49718,-0.47146 0.8592,-1.05391 1.33008,-1.54883 a 12.50125,12.50125 0 0 0 11.86914,10.97852 h 19.29883 a 12.50125,12.50125 0 0 0 12.5,-12.5 v -92.79883 a 12.50125,12.50125 0 0 0 -12.5,-12.499999 h -19.29883 a 12.50125,12.50125 0 0 0 -12.5,12.499999 v 0.16211 c -0.92774,-1.10613 -1.78236,-2.27586 -2.83398,-3.26562 -7.92076,-7.454832 -18.81704,-10.597661 -30.26758,-10.597661 -10.30643,0 -20.0409,2.734839 -27.6836,8.679691 a 12.50125,12.50125 0 0 0 -11.8164,-9.679691 H 149.30078 A 12.50125,12.50125 0 0 0 138.4082,101.4668 l -6.34961,11.27539 -6.09179,-11.14063 A 12.50125,12.50125 0 0 0 115,95.099609 H 91.300781 A 12.50125,12.50125 0 0 0 87.183594,96.626953 12.50125,12.50125 0 0 0 83.5,95.099609 Z m 217.63867,22.662111 0.21289,0.2168 c -0.036,-0.0378 -0.0829,-0.0583 -0.11914,-0.0957 -0.0364,-0.0369 -0.0571,-0.0844 -0.0937,-0.12109 z m -159.390623,2.33789 h 0.509765 L 69.941406,120.5 a 12.50125,12.50125 0 0 0 -0.193359,-0.40039 z m 22.457031,12.54883 13.431642,21.50976 -14.164064,22.40235 a 12.50125,12.50125 0 0 0 -7.873047,-3.25977 h -23.5 z m 77.724612,1.83398 c 0.15304,4.23144 0.98318,8.61565 2.71484,12.9961 0.58624,1.55275 1.31643,2.98794 2.13281,4.3496 -1.11413,1.42224 -2.12071,2.91908 -2.99218,4.48047 -2.11597,3.79111 -3.53688,8.0067 -4.31446,12.39258 l -9.58593,-15.26172 z m 41.66992,0.20117 c 0.0504,0.0353 0.0959,0.0353 0.13867,0.0781 l 0.21289,0.2168 c 0.0135,0.0141 0.0167,0.0399 0.0293,0.0566 -0.0786,0.15034 -0.10348,0.26558 -0.24219,0.40429 -0.0281,0.0281 -0.052,0.0234 -0.082,0.0488 -0.10459,-0.0676 -0.16796,-0.0872 -0.27344,-0.17969 -0.0795,-0.10289 -0.11085,-0.17163 -0.16406,-0.27343 0.0126,-0.0168 0.0158,-0.0425 0.0293,-0.0566 l 0.21289,-0.2168 c 0.0428,-0.0428 0.0882,-0.0428 0.13867,-0.0781 z m -79.73438,23.10352 a 12.50125,12.50125 0 0 0 0.19336,0.67383 12.50125,12.50125 0 0 0 -0.38867,-0.006 12.50125,12.50125 0 0 0 0.19531,-0.66797 z m 79.15235,15.46875 c -0.18042,0.18793 -0.87777,0.14453 0.7832,0.14453 1.66098,0 0.96167,0.0434 0.78125,-0.14453 -0.31016,-0.32308 0.11719,-0.47253 0.11719,2.24414 0,2.42609 -0.42735,2.36605 -0.11719,2.04297 0.0651,-0.0678 0.73782,-0.043 -0.88281,-0.043 -1.3302,0 -0.88036,0.004 -0.72461,0.0352 -0.0409,0.051 -0.16936,0.42662 -0.0859,-1.49219 a 12.50125,12.50125 0 0 0 0.0117,-0.54297 c 0,-2.71667 0.42735,-2.56722 0.11719,-2.24414 z m -25.10547,1.70117 c -0.003,0.0782 0.0145,0.15806 0.0117,0.23633 -8.6e-4,0.10147 -0.0234,0.20536 -0.0234,0.30664 z M 166.80078,176.5 c 0,0.0665 0.0192,0.13075 0.0195,0.19727 0.003,0.0984 -0.0136,0.1945 -0.01,0.29296 z M 23.21875,189.62109 a 12.50125,12.50125 0 0 0 0.232422,0.47852 h -0.611328 z m 155.17969,15.65235 c 0.0174,0.0181 0.0372,0.0327 0.0547,0.0508 0.0101,0.0103 0.0172,0.0229 0.0273,0.0332 z"
     id="path18" /><path
     style="baseline-shift:baseline;display:inline;overflow:visible;vector-effect:none;fill:#ed2024;stroke:none;enable-background:accumulate;stop-color:#000000;stop-opacity:1"
     d="m 276.6,202.6 h -19.3 v -92.8 h 19.3 z m -93.9,-40.2 c 2.4,-4.3 5.8,-7.5 10.4,-9.6 -4.5,-3 -7.5,-6.3 -8.8,-9.8 -1.4,-3.5 -2,-6.8 -2,-9.8 0,-6.8 2.6,-12.6 7.7,-17.4 5.1,-4.8 12.4,-7.2 21.7,-7.2 9.3,0 16.6,2.4 21.7,7.2 5.1,4.8 7.7,10.6 7.7,17.4 0,3.1 -0.7,6.3 -2,9.8 -1.4,3.5 -4.3,6.5 -8.8,9.1 4.6,2.6 8.1,6 10.4,10.2 2.3,4.3 3.5,9 3.5,14.2 0,7.9 -2.9,14.6 -8.7,20.1 -5.8,5.5 -14,8.3 -24.4,8.3 -10.4,0 -18.4,-2.8 -23.7,-8.3 -5.4,-5.5 -8.1,-12.2 -8.1,-20.1 -0.2,-5.1 1,-9.8 3.4,-14.1 z m 19.1,23.8 c 2.4,2.5 5.7,3.8 9.9,3.8 4.2,0 7.5,-1.3 9.9,-3.8 2.4,-2.5 3.6,-6.1 3.6,-10.7 0,-4.8 -1.2,-8.4 -3.6,-10.9 -2.4,-2.5 -5.7,-3.7 -9.8,-3.7 -4.1,0 -7.4,1.2 -9.8,3.7 -2.4,2.5 -3.6,6.1 -3.6,10.9 -0.2,4.6 1,8.1 3.4,10.7 z m 1.1,-42.6 c 2.1,2.1 5,3.2 8.7,3.2 3.7,0 6.6,-1.1 8.7,-3.2 2,-2.1 3.1,-4.9 3.1,-8.3 0,-3.7 -1,-6.6 -3.1,-8.7 -2,-2.1 -4.9,-3.1 -8.7,-3.1 -3.7,0 -6.6,1 -8.7,3.1 -2.1,2.1 -3.1,5 -3.1,8.7 0,3.4 1.1,6.2 3.1,8.3 z m -90.1,59 h -23 L 120.4,154.2 91.3,107.6 H 115 l 16.9,30.9 17.4,-30.9 h 22.9 l -29.1,45.8 30.9,49.2 H 150 L 131.9,170.2 Z M 10.3,185.8 58.9,124.4 H 11.5 v -16.8 h 72 v 15.9 l -49.2,62.3 h 49.3 v 16.8 H 10.3 Z"
     id="path19" /></g>
</g>
<g
   id="g10"
   transform="translate(3.3,7)">
</g>
<g
   id="g11"
   transform="translate(3.3,7)">
</g>
<g
   id="g12"
   transform="translate(3.3,7)">
</g>
<g
   id="g13"
   transform="translate(3.3,7)">
</g>
<g
   id="g14"
   transform="translate(3.3,7)">
</g>
<g
   id="g15"
   transform="translate(3.3,7)">
</g>
</svg>
