<?xml version="1.0" encoding="UTF-8" standalone="no"?>
<svg
   width="233.403"
   height="70.710999"
   viewBox="3 136.909 233.403 70.711"
   xml:space="preserve"
   version="1.1"
   id="svg8"
   sodipodi:docname="3do.svg"
   inkscape:version="1.4.3 (0d15f75042, 2025-12-25)"
   xmlns:inkscape="http://www.inkscape.org/namespaces/inkscape"
   xmlns:sodipodi="http://sodipodi.sourceforge.net/DTD/sodipodi-0.dtd"
   xmlns="http://www.w3.org/2000/svg"
   xmlns:svg="http://www.w3.org/2000/svg"><defs
   id="defs8" /><sodipodi:namedview
   id="namedview8"
   pagecolor="#9c9c9c"
   bordercolor="#000000"
   borderopacity="0.25"
   inkscape:showpageshadow="2"
   inkscape:pageopacity="0.0"
   inkscape:pagecheckerboard="0"
   inkscape:deskcolor="#d1d1d1"
   inkscape:zoom="3.287037"
   inkscape:cx="116.97465"
   inkscape:cy="35.442254"
   inkscape:window-width="1920"
   inkscape:window-height="1080"
   inkscape:window-x="0"
   inkscape:window-y="0"
   inkscape:window-maximized="0"
   inkscape:current-layer="svg8" />
    <g
   id="path1"
   style="opacity:1"><path
     style="baseline-shift:baseline;display:inline;overflow:visible;vector-effect:none;fill:#ffffff;stroke-linejoin:round;paint-order:markers stroke fill;enable-background:accumulate;stop-color:#000000;stop-opacity:1"
     d="m 5.5,136.9082 a 2.50025,2.50025 0 0 0 -2.5,2.5 v 65.71094 a 2.50025,2.50025 0 0 0 2.5,2.5 h 228.40234 a 2.50025,2.50025 0 0 0 2.5,-2.5 V 139.4082 a 2.50025,2.50025 0 0 0 -2.5,-2.5 z m 2.5,5 h 223.40234 v 60.71094 H 8 Z"
     id="path9" /><path
     style="baseline-shift:baseline;display:inline;overflow:visible;vector-effect:none;stroke-linejoin:round;paint-order:markers stroke fill;enable-background:accumulate;stop-color:#000000;stop-opacity:1"
     d="M 5.5,139.409 H 233.903 V 205.12 H 5.5 Z"
     id="path10" /></g>
    <path
   style="fill:#ffffff;stroke-width:0.821595"
   d="m 8.461,142.54 h 62.318 v 58.783 H 8.461 Z"
   id="path2" />
    <path
   d="m 30.275,197.117 c 0,-0.803 3.93,-1.454 8.781,-1.454 4.85,0 8.78,0.651 8.78,1.454 0,0.803 -3.93,1.452 -8.78,1.452 -4.85,0 -8.78,-0.65 -8.78,-1.452 z"
   style="fill:#888888;stroke-width:0.821595"
   id="path3" />
    <path
   d="m 92.975,169.127 v 0.107 c 5.088,0.09 8.845,1.044 11.268,2.863 2.425,1.818 3.639,4.018 3.639,6.597 0,2.878 -1.378,5.255 -4.141,7.126 -2.757,1.876 -6.431,2.813 -11.01,2.813 -3.958,0 -7.016,-0.749 -9.181,-2.24 -2.166,-1.49 -3.249,-3.186 -3.249,-5.095 0,-1.266 0.485,-2.293 1.456,-3.07 0.97,-0.776 2.135,-1.16 3.49,-1.16 1.272,0 2.366,0.341 3.271,1.015 0.911,0.681 1.36,1.579 1.36,2.69 0,1.484 -1.053,2.728 -3.164,3.733 -0.413,0.195 -0.626,0.418 -0.626,0.664 0,0.458 0.59,0.859 1.78,1.207 1.183,0.345 2.39,0.513 3.631,0.513 4.065,0 6.1,-2.818 6.1,-8.454 0,-5.58 -2.445,-8.37 -7.324,-8.37 l -4.053,0.155 c -0.816,0 -1.23,-0.283 -1.23,-0.852 0,-0.652 0.432,-0.981 1.29,-0.981 l 2.95,0.106 c 3.012,0 5.028,-0.631 6.053,-1.898 1.027,-1.261 1.537,-3.058 1.537,-5.39 0,-2.4 -0.385,-4.17 -1.16,-5.297 -0.775,-1.133 -2.106,-1.695 -3.987,-1.695 a 8.357,8.357 0 0 0 -2.887,0.49 c -0.9,0.324 -1.355,0.642 -1.355,0.96 0,0.294 0.297,0.603 0.888,0.92 1.549,0.932 2.33,1.943 2.33,3.03 0,1.072 -0.431,1.919 -1.301,2.556 a 4.88,4.88 0 0 1 -2.935,0.948 c -1.254,0 -2.373,-0.363 -3.354,-1.081 -0.983,-0.726 -1.48,-1.618 -1.48,-2.696 0,-1.83 1.095,-3.415 3.283,-4.749 2.189,-1.339 4.992,-2.008 8.424,-2.008 3.792,0 6.987,0.758 9.588,2.271 2.609,1.512 3.91,3.447 3.91,5.82 0.008,4.664 -4.601,7.484 -13.81,8.452 z m 45.922,-14.968 v 32.085 h 3.331 c 5.094,0 8.17,-1.261 9.229,-3.778 1.059,-2.522 1.586,-6.83 1.586,-12.928 0,-4.771 -0.327,-8.203 -0.976,-10.286 -0.645,-2.085 -1.633,-3.458 -2.952,-4.11 -1.32,-0.654 -2.999,-0.983 -5.028,-0.983 z m -10.287,32.085 v -32.085 h -5.335 v -1.737 h 21.378 c 6.183,0 11.08,1.652 14.683,4.961 3.602,3.305 5.406,7.478 5.406,12.517 0,2.61 -0.548,5.072 -1.65,7.365 -1.1,2.299 -2.792,4.392 -5.075,6.271 -2.284,1.88 -4.626,3.091 -7.028,3.633 -2.403,0.541 -5.348,0.81 -8.851,0.81 h -18.864 v -1.735 z m 77.3,-16.027 c 0,-5.445 -0.12,-9.034 -0.356,-10.762 -0.24,-1.737 -0.857,-3.131 -1.85,-4.193 -0.994,-1.059 -2.632,-1.59 -4.911,-1.59 -1.921,0 -3.454,0.43 -4.597,1.285 -1.143,0.858 -1.85,2.231 -2.135,4.123 -0.278,1.89 -0.42,5.586 -0.42,11.082 0,5.44 0.119,9.045 0.36,10.803 0.238,1.758 0.877,3.16 1.913,4.203 1.036,1.044 2.662,1.562 4.88,1.562 1.84,0 3.342,-0.417 4.502,-1.256 1.16,-0.842 1.886,-2.204 2.177,-4.096 0.295,-1.893 0.438,-5.614 0.438,-11.16 z m -25.969,-0.15 c 0,-5.319 1.856,-9.67 5.586,-13.058 3.719,-3.38 8.187,-5.071 13.391,-5.071 4.835,0 9.158,1.59 12.973,4.77 3.818,3.182 5.722,7.707 5.722,13.572 0,5.498 -1.798,9.905 -5.408,13.22 -3.609,3.312 -8.016,4.97 -13.221,4.97 -5.625,0 -10.21,-1.764 -13.741,-5.278 -3.533,-3.517 -5.302,-7.89 -5.302,-13.125 z"
   style="fill:#ffffff;stroke-width:0.821595"
   id="path4" />
    <radialGradient
   id="a"
   cx="49.887001"
   cy="-77.316002"
   r="10.654"
   gradientTransform="matrix(0.84594,0,0,-0.79795,-2.113,120.331)"
   gradientUnits="userSpaceOnUse">
        <stop
   offset=".522"
   style="stop-color:#ffe41b"
   id="stop4" />
        <stop
   offset=".893"
   style="stop-color:#716a13"
   id="stop5" />
        <stop
   offset="1"
   style="stop-color:#49482e"
   id="stop6" />
    </radialGradient>
    <path
   d="m 31.592,183.416 c 0,-3.9 3.34,-7.058 7.464,-7.058 4.123,0 7.464,3.159 7.464,7.058 0,3.898 -3.342,7.06 -7.464,7.06 -4.124,-0.002 -7.464,-3.162 -7.464,-7.06 z"
   style="fill:url(#a);stroke-width:0.821595"
   id="path6" />
    <path
   d="m 32.104,165.009 c -1.098,0.691 -1.39,4.705 -1.39,4.705 0,0 0.292,4.014 1.39,4.705 1.097,0.692 6.952,1.108 6.952,1.108 0,0 5.855,-0.416 6.951,-1.108 1.099,-0.691 1.392,-4.705 1.392,-4.705 0,0 -0.292,-4.014 -1.392,-4.705 -1.096,-0.692 -6.951,-1.108 -6.951,-1.108 0,0 -5.855,0.416 -6.952,1.108 z"
   style="fill:#0000a0;stroke-width:0.821595"
   id="path7" />
    <path
   style="fill:#ff0000;stroke-width:0.821595"
   d="m 30.312932,155.18261 8.74279,-8.26915 8.74279,8.26915 -8.74279,8.26677 z"
   id="path8" />
</svg>
