<?xml version="1.0" encoding="UTF-8" standalone="no"?>
<!-- Created with Inkscape (http://www.inkscape.org/) -->

<svg
   version="1.1"
   id="svg2"
   width="966.92529"
   height="213.74533"
   viewBox="0 0 966.92529 213.74533"
   sodipodi:docname="adam.svg"
   inkscape:version="1.4.3 (0d15f75042, 2025-12-25)"
   xmlns:inkscape="http://www.inkscape.org/namespaces/inkscape"
   xmlns:sodipodi="http://sodipodi.sourceforge.net/DTD/sodipodi-0.dtd"
   xmlns="http://www.w3.org/2000/svg"
   xmlns:svg="http://www.w3.org/2000/svg">
  <defs
     id="defs6" />
  <sodipodi:namedview
     id="namedview4"
     pagecolor="#adadad"
     bordercolor="#000000"
     borderopacity="0.25"
     inkscape:showpageshadow="2"
     inkscape:pageopacity="0.0"
     inkscape:pagecheckerboard="0"
     inkscape:deskcolor="#d1d1d1"
     showgrid="false"
     inkscape:zoom="0.48517716"
     inkscape:cx="454.47317"
     inkscape:cy="104.08569"
     inkscape:window-width="1920"
     inkscape:window-height="1080"
     inkscape:window-x="0"
     inkscape:window-y="0"
     inkscape:window-maximized="0"
     inkscape:current-layer="g10">
    <inkscape:page
       x="7.2042354e-09"
       y="2.3567264e-07"
       id="page8"
       width="966.92529"
       height="213.74533"
       margin="0"
       bleed="0" />
  </sodipodi:namedview>
  <g
     id="g10"
     inkscape:groupmode="layer"
     inkscape:label="Page 1"
     transform="matrix(1.3333333,0,0,-1.3333333,33,198.74533)">
    <g
       id="g8">
      <g
         id="path14"
         style="opacity:1">
        <path
           style="baseline-shift:baseline;display:inline;overflow:visible;vector-effect:none;fill:#ffffff;stroke-linejoin:bevel;paint-order:markers stroke fill;enable-background:accumulate;stop-color:#000000;stop-opacity:1"
           d="m 502.35156,-11.25 c -7.38646,0 -13.69531,6.2967281 -13.69531,13.6914063 l -0.0625,89.2695307 h -9.24609 c -3.75,10e-7 -10.21831,3.257443 -12.05274,8.152344 -1.83443,4.894899 -0.54604,8.182919 0.50586,10.570309 l 0.0684,0.15625 13.43164,29.26953 0.0391,0.0859 c 2.00806,4.28068 7.54766,9.11328 13.84766,9.11328 h 73.39258 l 10.67773,-7.70703 15.29492,-46.093748 15.29102,46.093748 10.67773,7.70703 h 68.67188 l 11.25,-11.25 V 2.4414063 C 700.44336,-4.9421865 694.14382,-11.25 686.75391,-11.25 h -34.7168 c -7.38992,0 -13.69141,6.2967281 -13.69141,13.6914063 V 39.533203 l -13.25195,-41.1953124 -0.006,-0.019531 C 623.03589,-8.0239046 618.19312,-11.25 611.87695,-11.25 h -33.85742 c -6.31237,0 -11.16606,3.2266079 -13.21484,9.578125 l 0.0215,-0.070312 -14.06836,42.6542965 V 2.4414063 C 550.75781,-4.9477292 544.45437,-11.25 537.06445,-11.25 Z m 8.79883,22.5 h 17.10742 v 87.683594 c 0,4.743576 2.57083,8.145976 4.91016,9.996096 2.33933,1.85012 4.78831,2.90429 8.28515,2.90429 l 0.0156,-0.0391 c 6.52674,-0.0221 11.05789,-4.29313 12.70703,-9.41211 L 584.23437,11.25 h 21.37891 l 29.30859,91.11328 c 1.64379,5.13683 6.19531,9.4086 12.71094,9.43164 l 0.0156,0.0391 c 3.49684,0 5.94582,-1.05417 8.28515,-2.90429 2.33933,-1.85012 4.91211,-5.25252 4.91211,-9.996096 V 11.25 h 17.09766 V 126.55859 H 628.64258 L 605.23047,55.990234 594.55273,59.53125 583.875,55.990234 560.46094,126.55859 h -60.50782 l -5.7871,-12.60937 c 4.06266,-0.55932 8.20084,-2.20116 11.3457,-5.35547 3.95051,-3.96239 5.57841,-9.470306 5.58008,-14.404297 v -0.0078 z"
           id="path1" />
        <path
           style="baseline-shift:baseline;display:inline;overflow:visible;vector-effect:none;fill:#2892c7;stroke-linejoin:bevel;paint-order:markers stroke fill;enable-background:accumulate;stop-color:#000000;stop-opacity:1"
           d="m 594.552,59.532 -25.971,78.277 h -73.393 c -1.65,0 -2.904,-1.023 -3.663,-2.641 l -13.43,-29.27 c -0.727,-1.65 -0.397,-2.937 1.253,-2.937 h 11.715 c 5.579,0 8.778,-3.234 8.778,-8.779 L 499.907,2.44219 C 499.907,1.08906 500.997,0 502.351,0 h 34.714 c 1.353,0 2.442,1.08906 2.442,2.44219 V 98.934 c 0,0.925 1.056,1.65 1.947,1.65 l -0.032,-0.032 c 0.923,0 1.748,-0.693 2.046,-1.618 L 575.511,1.78203 C 575.841,0.758984 576.929,0 578.019,0 h 33.858 c 1.089,0 2.177,0.758984 2.508,1.78203 L 645.636,98.934 c 0.296,0.925 1.121,1.618 2.046,1.618 l -0.034,0.032 c 0.891,0 1.947,-0.725 1.947,-1.65 V 2.44219 C 649.595,1.08906 650.685,0 652.038,0 h 34.715 c 1.353,0 2.441,1.08906 2.441,2.44219 V 137.809 H 620.521 L 594.552,59.532"
           id="path2" />
      </g>
      <g
         id="path16"
         style="opacity:1">
        <path
           style="baseline-shift:baseline;display:inline;overflow:visible;vector-effect:none;fill:#ffffff;stroke-linejoin:bevel;paint-order:markers stroke fill;enable-background:accumulate;stop-color:#000000;stop-opacity:1"
           d="m 318.57031,-11.25 c -7.38646,0 -13.69336,6.3022708 -13.69336,13.6914063 l 0.95117,4.5273437 37.25,84.742187 h -4.74218 c -3.75,10e-7 -10.2194,3.260359 -12.05274,8.152344 -1.83333,4.891989 -0.54796,8.175529 0.5,10.560549 l 0.0742,0.16601 13.42969,29.26953 0.0391,0.082 c 2.00894,4.28819 7.55338,9.11718 13.85156,9.11718 h 74.01563 l 10.3125,-6.7539 L 497.51367,6.9375 498.44922,2.4414063 C 498.44922,-4.9532719 492.14773,-11.25 484.75781,-11.25 H 446.80664 L 436.4668,-4.4316406 429.88477,10.927734 H 373.44141 L 366.86133,-4.4316406 356.51953,-11.25 Z m 13.7168,22.5 h 16.81445 l 6.58008,15.357422 10.3418,6.820312 h 71.28125 L 447.64453,26.607422 454.22656,11.25 h 16.86133 l -50.26172,115.30859 h -61.88672 l -5.99023,-13.05664 c 3.32885,-0.80088 6.59142,-2.31868 9.17187,-4.90625 3.95226,-3.96314 5.58204,-9.476095 5.58203,-14.414059 l -0.95117,-4.527344 z m 50.23633,32.941406 c -3.011,0 -8.5345,1.565221 -11.21289,6.404297 -2.6784,4.839076 -1.4244,9.084783 -0.38086,11.519531 l 18.01758,42.042966 -0.3711,-0.99609 c 1.63828,5.10855 6.14985,9.33501 12.60547,9.40625 h 0.96289 c 6.45566,-0.0712 10.96914,-4.29769 12.60742,-9.40625 l -0.37304,0.99609 18.01757,-42.042966 c 1.04354,-2.434748 2.29754,-6.680455 -0.38086,-11.519531 -2.67839,-4.839076 -8.19993,-6.404297 -11.21093,-6.404297 z m 14.84765,22.5 h 8.58594 l -4.29297,10.017578 z m 2.80664,45.841794 0.32813,0.0352 h 0.34375 z m 2.96875,0 -0.66992,0.0352 h 0.33985 z"
           id="path3" />
        <path
           style="baseline-shift:baseline;display:inline;overflow:visible;vector-effect:none;fill:#2892c7;stroke-linejoin:bevel;paint-order:markers stroke fill;enable-background:accumulate;stop-color:#000000;stop-opacity:1"
           d="m 399.288,99.727 c 0.296,0.923 1.121,1.616 2.046,1.616 l 0.329,0.034 0.33,-0.034 c 0.925,0 1.75,-0.693 2.046,-1.616 l 18.018,-42.0434 c 0.594,-1.3859 0.132,-2.2422 -1.253,-2.2422 h -38.281 c -1.385,0 -1.847,0.8563 -1.253,2.2422 z M 318.57,0 h 37.95 l 9.503,22.177 h 71.281 L 446.807,0 h 37.95 c 1.353,0 2.443,1.08906 2.443,2.44219 L 428.194,137.809 h -74.017 c -1.651,0 -2.906,-1.023 -3.664,-2.641 l -13.431,-29.27 c -0.725,-1.65 -0.396,-2.937 1.254,-2.937 h 9.34 c 5.576,0 8.778,-3.234 8.778,-8.779 L 316.127,2.44219 C 316.127,1.08906 317.216,0 318.57,0"
           id="path4" />
      </g>
      <g
         id="path18"
         style="opacity:1">
        <path
           style="baseline-shift:baseline;display:inline;overflow:visible;vector-effect:none;fill:#ffffff;stroke-linejoin:bevel;paint-order:markers stroke fill;enable-background:accumulate;stop-color:#000000;stop-opacity:1"
           d="m 174.30469,-11.25 c -7.38992,0 -13.69141,6.3022708 -13.69141,13.6914063 V 91.710937 h -9.24414 c -3.75,10e-7 -10.21744,3.260359 -12.05078,8.152344 -1.83334,4.891989 -0.54992,8.175529 0.49805,10.560549 l 0.0742,0.16601 13.42969,29.26953 0.0449,0.0977 c 2.00953,4.27254 7.54571,9.10156 13.84571,9.10156 h 117.48047 c 20.85062,0 37.81445,-16.96675 37.81445,-37.8164 V 26.566406 C 322.50586,5.7168218 305.54207,-11.25 284.69141,-11.25 Z m 8.80859,22.5 h 101.57813 c 10.10333,0 15.31445,5.212191 15.31445,15.316406 v 84.675784 c 0,10.10435 -5.21107,15.3164 -15.31445,15.3164 h -112.7168 l -5.78711,-12.60937 c 4.0551,-0.56016 8.17913,-2.20205 11.32031,-5.34375 3.94885,-3.94951 5.60547,-9.464224 5.60547,-14.423829 z m 30.79102,13.933594 c -7.38349,0 -13.69141,6.299394 -13.69141,13.691406 v 61.64258 c 0,7.39513 6.29628,13.69336 13.69141,13.69336 h 50.55664 c 4.9595,0 10.47463,-1.65595 14.42383,-5.60547 3.94919,-3.94952 5.60351,-9.464224 5.60351,-14.423829 V 45.210937 c 0,-4.959594 -1.65579,-10.474639 -5.60547,-14.423828 -3.94968,-3.949188 -9.46318,-5.603515 -14.42187,-5.603515 z m 8.80859,22.5 h 39.27539 v 44.027343 h -39.27539 z"
           id="path5" />
        <path
           style="baseline-shift:baseline;display:inline;overflow:visible;vector-effect:none;fill:#2892c7;stroke-linejoin:bevel;paint-order:markers stroke fill;enable-background:accumulate;stop-color:#000000;stop-opacity:1"
           d="m 213.905,36.4332 c -1.353,0 -2.443,1.0879 -2.443,2.4418 v 61.643 c 0,1.353 1.09,2.443 2.443,2.443 h 50.556 c 5.544,0 8.778,-3.234 8.778,-8.779 V 45.2109 c 0,-5.5449 -3.234,-8.7777 -8.778,-8.7777 z M 284.691,0 c 15.477,0 26.564,11.0891 26.564,26.566 v 84.677 c 0,15.477 -11.087,26.566 -26.564,26.566 h -117.48 c -1.65,0 -2.904,-1.023 -3.665,-2.641 l -13.43,-29.27 c -0.725,-1.65 -0.396,-2.937 1.254,-2.937 h 11.716 c 5.543,0 8.777,-3.234 8.777,-8.779 V 2.44219 C 171.863,1.08906 172.952,0 174.305,0 h 110.386"
           id="path6" />
      </g>
      <g
         id="path20"
         style="opacity:1">
        <path
           style="baseline-shift:baseline;display:inline;overflow:visible;vector-effect:none;fill:#ffffff;stroke-linejoin:bevel;paint-order:markers stroke fill;enable-background:accumulate;stop-color:#000000;stop-opacity:1"
           d="M -11.058594,-11.25 C -18.446712,-11.25 -24.75,-4.9394151 -24.75,2.4414063 l 0.951172,4.5273437 37.25,84.742187 H 8.7089844 c -3.7494911,10e-7 -10.2146539,3.255086 -12.0507813,8.146485 -1.8361273,4.891398 -0.5527129,8.179468 0.4960938,10.566408 l 0.074219,0.16601 13.4316404,29.26953 0.04102,0.0879 c 2.007545,4.27733 7.547656,9.11132 13.847656,9.11132 h 74.019531 l 10.312501,-6.7539 59.00391,-135.36719 0.93554,-4.4960937 c 0,-7.3891355 -6.30149,-13.6914063 -13.6914,-13.6914063 h -37.94922 l -10.3418,6.8183594 -6.58203,15.3593746 H 43.8125 L 37.232422,-4.4316406 26.890625,-11.25 Z M 2.6601563,11.25 H 19.472656 l 6.582031,15.357422 10.339844,6.820312 H 107.67578 L 118.01563,26.609375 124.59766,11.25 h 16.86132 L 91.199219,126.55859 H 29.3125 l -5.992188,-13.05664 c 3.329223,-0.8008 6.59307,-2.32018 9.173829,-4.9082 3.95272,-3.96384 5.582031,-9.475227 5.582031,-14.412109 L 37.125,89.654297 Z M 52.894531,44.191406 c -3.009946,0 -8.529951,1.560588 -11.210937,6.400391 -2.680987,4.839802 -1.425713,9.091579 -0.38086,11.527344 l 18.015625,42.039059 -0.363281,-0.9707 c 1.644266,5.08598 6.132123,9.30882 12.595703,9.38086 h 0.966797 c 6.462947,-0.0712 10.966146,-4.29744 12.605469,-9.40234 l -0.371094,0.99218 18.017577,-42.042966 c 1.04354,-2.434748 2.29744,-6.683842 -0.38281,-11.523437 -2.680248,-4.839596 -8.20111,-6.400391 -11.210939,-6.400391 z m 14.847656,22.5 h 8.585938 l -4.292969,10.017578 z m 2.810547,45.841794 0.332032,0.0352 h 0.33789 z m 2.964844,0 -0.669922,0.0352 H 73.1875 Z"
           id="path7" />
        <path
           style="baseline-shift:baseline;display:inline;overflow:visible;vector-effect:none;fill:#2892c7;stroke-linejoin:bevel;paint-order:markers stroke fill;enable-background:accumulate;stop-color:#000000;stop-opacity:1"
           d="m 69.6586,99.727 c 0.2984,0.923 1.1234,1.616 2.0465,1.616 l 0.3304,0.034 0.3305,-0.034 c 0.9235,0 1.7485,-0.693 2.0449,-1.616 L 92.429,57.6836 c 0.594,-1.3859 0.132,-2.2422 -1.254,-2.2422 H 52.8949 c -1.3859,0 -1.8484,0.8563 -1.2539,2.2422 z M -11.05898,0 H 26.891 l 9.5039,22.177 H 107.675 L 117.179,0 h 37.95 c 1.353,0 2.442,1.08906 2.442,2.44219 L 98.568,137.809 H 24.5484 c -1.65,0 -2.9035,-1.023 -3.6629,-2.641 l -13.432,-29.27 c -0.725,-1.65 -0.3949,-2.937 1.2555,-2.937 h 9.3375 c 5.5785,0 8.7789,-3.234 8.7789,-8.779 L -13.5,2.44219 C -13.5,1.08906 -12.4125,0 -11.05898,0"
           id="path8" />
      </g>
    </g>
  </g>
</svg>
