<?xml version="1.0" encoding="UTF-8" standalone="no"?>
<svg
   viewBox="0 0 473.14032 193.84454"
   version="1.1"
   id="svg3"
   sodipodi:docname="amigacd32.svg"
   width="473.14032"
   height="193.84454"
   inkscape:version="1.4.3 (0d15f75042, 2025-12-25)"
   xmlns:inkscape="http://www.inkscape.org/namespaces/inkscape"
   xmlns:sodipodi="http://sodipodi.sourceforge.net/DTD/sodipodi-0.dtd"
   xmlns="http://www.w3.org/2000/svg"
   xmlns:svg="http://www.w3.org/2000/svg">
  <defs
     id="defs3" />
  <sodipodi:namedview
     id="namedview3"
     pagecolor="#b2b2b2"
     bordercolor="#000000"
     borderopacity="0.25"
     inkscape:showpageshadow="2"
     inkscape:pageopacity="0.0"
     inkscape:pagecheckerboard="0"
     inkscape:deskcolor="#d1d1d1"
     inkscape:zoom="0.79656634"
     inkscape:cx="237.26837"
     inkscape:cy="78.461764"
     inkscape:window-width="1920"
     inkscape:window-height="1080"
     inkscape:window-x="0"
     inkscape:window-y="0"
     inkscape:window-maximized="0"
     inkscape:current-layer="svg3" />
  <g
     id="path1"
     style="opacity:1">
    <path
       style="baseline-shift:baseline;display:inline;overflow:visible;vector-effect:none;fill:#ffffff;stroke-linecap:round;stroke-linejoin:round;paint-order:markers stroke fill;enable-background:accumulate;stop-color:#000000;stop-opacity:1"
       d="m 365.26172,2.5 c -5.58338,0 -10.21948,0.3535156 -10.46875,0.3535156 a 7.50075,7.50075 0 0 0 -0.36719,0.00781 C 338.2703,3.6533975 323.51152,6.932028 310.32422,14.685547 a 7.50075,7.50075 0 0 0 -0.0312,0.01758 c -16.66522,9.90397 -26.20172,24.493508 -25.36914,41.189453 a 7.50075,7.50075 0 0 0 0,0.002 c 0.40094,7.989467 3.28112,15.520775 8.32226,21.765625 4.88123,6.054641 11.10404,10.638499 18.26172,13.451172 a 7.50075,7.50075 0 0 0 0.01,0.0039 c 7.09707,2.779432 15.20748,4.042969 24.29492,4.042969 10.48334,0 20.5239,-1.470451 30.0918,-4.275391 a 7.50075,7.50075 0 0 0 5.125,2.59375 h 27.80078 a 7.50075,7.50075 0 0 0 7.49219,-7.865234 l -0.0918,-1.890625 a 7.50075,7.50075 0 0 0 -4.88672,-6.126953 l 4.41211,-4.349609 a 7.50075,7.50075 0 0 0 0.0937,-0.0918 l 3.38867,-3.458985 h 17.94141 l -0.0176,1.871094 a 7.50075,7.50075 0 0 0 0,0.0059 c -0.0277,3.380779 -0.798,5.238506 -0.4375,4.65625 -0.9797,0.108024 -2.41864,0.2363 -4.30274,0.376954 a 7.50075,7.50075 0 0 0 -6.51171,4.980468 l -0.66797,1.890625 a 7.50075,7.50075 0 0 0 7.07031,9.998047 h 40.24023 a 7.50075,7.50075 0 0 0 7.16211,-5.271484 l 0.58789,-1.890625 a 7.50075,7.50075 0 0 0 -6.6875,-9.712891 c -0.74056,-0.047 -1.06575,-0.150452 -1.40429,-0.238281 -0.005,-0.06911 -0.004,-0.02146 -0.008,-0.105469 -0.007,-0.136497 -0.0502,-2.263606 -0.0762,-5.33789 v -0.0625 l 0.0117,-60.205078 a 7.50075,7.50075 0 0 0 -7.5,-7.5019536 h -3.08789 a 7.50075,7.50075 0 0 0 -5.27734,2.171875 L 383.4082,67.587891 a 7.50075,7.50075 0 0 0 -0.0332,0.03516 c -2.25438,2.26227 -4.22119,4.050936 -5.8125,5.40039 l 3.0625,-9.804687 a 7.50075,7.50075 0 0 0 0.0723,-0.246094 c 0.39926,-1.451005 0.89358,-2.74114 1.16406,-3.466797 0.122,-0.02788 0.8084,-0.271521 2.41601,-0.351562 a 7.50075,7.50075 0 0 0 6.91407,-5.722656 l 0.51171,-2.107422 a 7.50075,7.50075 0 0 0 -7.28906,-9.267578 h -39.9375 a 7.50075,7.50075 0 0 0 -7.23437,5.52539 l -0.57617,2.107422 a 7.50075,7.50075 0 0 0 7.23632,9.474609 c 0.69739,0 1.00923,0.09007 1.52735,0.148438 -0.11775,0.480331 -0.14377,0.77269 -0.3086,1.296875 a 7.50075,7.50075 0 0 0 -0.004,0.01758 l -4.81055,15.425781 c -1.19921,0.222362 -2.20747,0.335938 -2.93164,0.335938 -4.15263,0 -7.30928,-1.155253 -10.5957,-3.941406 a 7.50075,7.50075 0 0 0 -0.006,-0.0039 c -2.78916,-2.361055 -4.3654,-5.47455 -4.65821,-11.214843 v -0.0059 c -3e-5,-7.19e-4 4e-5,-0.0012 0,-0.002 -0.32839,-6.656603 1.68881,-13.257875 5.49414,-20.072266 l 0.004,-0.0039 c 3e-4,-5.26e-4 -2.9e-4,-0.0014 0,-0.002 3.11241,-5.557404 9.9892,-10.774308 15.84961,-14.123047 l 0.002,-0.002 c 5.02958,-2.870216 12.59775,-4.699219 17.68946,-4.699219 5.11562,0 3.54014,-0.05658 7.32617,3.007813 a 7.50075,7.50075 0 0 0 0.004,0.0039 c 0.36323,0.293619 0.5146,0.384231 0.89844,1.917969 0.38385,1.533737 0.65881,4.244586 1.02149,7.748047 a 7.50075,7.50075 0 0 0 7.46093,6.728515 h 2.38672 a 7.50075,7.50075 0 0 0 7.32813,-5.90039 l 4.41797,-20.230469 a 7.50075,7.50075 0 0 0 0.14062,-2.292969 c 0,0 -0.0778,-0.921625 -0.32617,-2.033203 -0.24839,-1.111577 0.17755,-2.5806899 -2.91406,-5.4316405 a 7.5,7.5 0 0 0 -0.0332,-0.011719 c -1.21132,-1.1117128 -2.66718,-1.9140433 -4.02148,-2.3027343 -1.37113,-0.3935227 -3.39844,-0.2929688 -3.39844,-0.2929688 l 1.4375,-0.035156 C 375.2623,2.651805 369.87914,2.5 365.26172,2.5 Z M 90.517578,3.1464844 a 7.50075,7.50075 0 0 0 -5.279297,2.171875 L 22.375,67.587891 a 7.50075,7.50075 0 0 0 -0.03711,0.03711 c -4.318257,4.337176 -7.691716,7.064277 -9.011719,7.861328 -0.947592,0.529567 -2.119978,0.950754 -3.7265626,1.166016 a 7.50075,7.50075 0 0 0 -6.1582031,5.18164 L 2.8457031,83.724609 A 7.50075,7.50075 0 0 0 10,93.476562 h 27.800781 a 7.50075,7.50075 0 0 0 7.490235,-7.865234 l -0.0918,-1.890625 A 7.50075,7.50075 0 0 0 40.314453,77.59375 l 4.414063,-4.349609 a 7.50075,7.50075 0 0 0 0.0918,-0.0918 l 3.390625,-3.458985 h 17.935547 l -0.01758,1.867188 a 7.50075,7.50075 0 0 0 -0.002,0.02344 c -0.02187,3.388187 -0.80274,5.238366 -0.441406,4.642578 -0.978343,0.107826 -2.413114,0.236573 -4.296875,0.376954 a 7.50075,7.50075 0 0 0 -6.519531,4.996093 l -0.664063,1.890625 a 7.50075,7.50075 0 0 0 7.078125,9.982422 h 40.240237 a 7.50075,7.50075 0 0 0 2.90234,-0.951172 7.50075,7.50075 0 0 0 2.02344,1.003907 h 30.72265 a 7.50075,7.50075 0 0 0 7.16016,-5.265625 l 0.58984,-1.892579 a 7.50075,7.50075 0 0 0 -6.9414,-9.730468 c -2.38764,-0.06908 -2.88014,-0.355971 -3.19727,-0.419922 0.0722,-0.423911 0.0235,-0.472441 0.24414,-1.181641 l 0.002,-0.0039 6.28711,-20.132813 6.01562,32.490235 a 7.50075,7.50075 0 0 0 7.375,6.134765 h 2.87891 a 7.50075,7.50075 0 0 0 5.80078,-2.74414 l 5.21094,-6.355469 a 7.50075,7.50075 0 0 0 6.87109,9.095703 h 46.38086 a 7.50075,7.50075 0 0 0 5.21094,-2.521484 7.50075,7.50075 0 0 0 4.80273,2.480469 h 46.03516 a 7.50075,7.50075 0 0 0 7.15429,-5.25 l 0.59571,-1.890625 a 7.50075,7.50075 0 0 0 -7.03711,-9.75 c -1.39548,-0.02194 -2.28126,-0.185741 -3.24414,-0.322266 0.12028,-0.47496 0.14748,-0.760059 0.3125,-1.28125 a 7.50075,7.50075 0 0 0 0.008,-0.0293 l 14.72656,-47.148437 a 7.50075,7.50075 0 0 0 0.0176,-0.05859 c 1.17826,-3.880596 2.69082,-5.413589 2.37109,-5.191406 a 7.50075,7.50075 0 0 0 0.0156,-0.01172 c 0.21076,-0.147273 1.80177,-0.847656 5.02734,-0.847656 a 7.50075,7.50075 0 0 0 6.91016,-4.583985 l 0.79687,-1.890625 A 7.50075,7.50075 0 0 0 298.64453,4.8066406 H 253.2168 a 7.50075,7.50075 0 0 0 -4.89258,2.1191406 7.50075,7.50075 0 0 0 -3.92578,-2.0703125 h -32.6836 A 7.50075,7.50075 0 0 0 205.91992,7.59375 L 174.4707,45.871094 167.95898,10.978516 a 7.5,7.5 0 0 0 -1.19336,-1.8339847 7.5,7.5 0 0 0 -1.54296,-2.3671876 7.5,7.5 0 0 0 -2.58789,-1.0722656 7.5,7.5 0 0 0 -2.03711,-0.84375 h -33.17969 a 7.50075,7.50075 0 0 0 -7.00781,4.8300782 l -0.72071,1.8886717 a 7.50075,7.50075 0 0 0 7.00977,10.171875 c 2.40311,0 3.23776,0.181145 4.01367,0.291016 l -15.40234,48.482422 a 7.50075,7.50075 0 0 0 -0.002,0.0059 c -0.90542,2.857205 -2.03638,4.214288 -3.79687,5.296875 -0.21824,0.120722 -1.83315,0.723411 -4.76172,0.810547 a 7.50075,7.50075 0 0 0 -2.49805,0.904297 7.50075,7.50075 0 0 0 -1.66601,-0.945313 c -0.74549,-0.04722 -1.07182,-0.151237 -1.41016,-0.238281 -0.005,-0.05991 -0.004,-0.02247 -0.008,-0.09375 v -0.0039 c -0.008,-0.169972 -0.0515,-2.269476 -0.0703,-5.392578 l 0.002,0.04687 0.006,-60.267578 A 7.50075,7.50075 0 0 0 93.605469,3.1464844 Z m 175.074222,6.109375 0.0273,0.015625 c -0.006,-0.00366 -0.0113,-0.00416 -0.0176,-0.00781 -0.003,-0.002 -0.006,-0.00582 -0.01,-0.00781 z m 5.70703,10.5507816 h 6.00586 c -0.44119,1.149682 -0.84796,2.337049 -1.22657,3.583984 l -14.69921,47.066406 c -0.98879,3.122956 -1.64641,5.146697 -1.73829,8.021485 h -5.78125 c 0.43356,-1.125684 0.84112,-2.284985 1.22657,-3.509766 a 7.50075,7.50075 0 0 0 0.006,-0.01563 l 14.72656,-47.148438 a 7.50075,7.50075 0 0 0 0.008,-0.0293 c 0.88645,-2.878249 1.41407,-5.300102 1.47266,-7.96875 z m -56.03906,0.04883 h 6.89843 c -0.45581,1.113488 -0.8798,2.258312 -1.25781,3.457031 a 7.50075,7.50075 0 0 0 -0.006,0.01953 l -14.75,47.226563 c -0.90453,2.872523 -1.46378,5.254049 -1.5332,7.960937 h -6.01563 c 0.46059,-1.117116 0.88717,-2.266379 1.26563,-3.466797 a 7.50075,7.50075 0 0 0 0.006,-0.01953 l 14.93554,-47.828125 a 7.50075,7.50075 0 0 0 -0.90234,-5.695312 z m -66.54493,0.0059 h 5.64258 l 8.32031,44.580078 a 7.50075,7.50075 0 0 0 1.26368,2.001953 l -4.26954,5.207032 -9.11718,-49.244141 a 7.50075,7.50075 0 0 0 -1.83985,-2.544922 z m 99.63672,0.0078 a 7.5,7.5 0 0 0 0.33203,0.160156 7.5,7.5 0 0 0 1.4043,1.251953 7.5,7.5 0 0 0 1.08789,-0.0625 7.5,7.5 0 0 0 0.98438,0.470703 c 1.51868,0.08042 2.50895,0.312667 3.59179,0.513672 -0.12864,0.566862 -0.0406,0.440385 -0.26172,1.158203 l -14.71679,47.121094 c -1.25741,3.982724 -2.88037,5.593468 -2.41602,5.28125 0.0344,-0.02602 -1.99047,0.824219 -5.83398,0.824219 a 7.50075,7.50075 0 0 0 -5.19336,2.515625 7.50075,7.50075 0 0 0 -4.82227,-2.472657 c -1.03872,-0.01884 -1.61705,-0.153543 -2.36914,-0.261718 0.14069,-0.643035 0.0477,-0.460964 0.31836,-1.320313 a 7.50075,7.50075 0 0 0 0.004,-0.01758 l 14.74609,-47.207031 c 1.14836,-3.641585 2.53207,-5.060507 2.5625,-5.082032 0.34307,-0.230718 2.27378,-0.996093 5.89649,-0.996093 a 7.50075,7.50075 0 0 0 4.68554,-1.876953 z m -162.248044,5.705078 -0.0039,45.339843 a 7.50075,7.50075 0 0 0 0,0.04687 c 0.01915,3.174637 0.03005,4.876591 0.08594,6.029297 a 7.50075,7.50075 0 0 0 0.002,0.02539 c 0.02475,0.477287 0.120883,0.970138 0.181641,1.457031 h -5.757813 c 0.408374,-2.117937 0.499683,-4.323214 0.515625,-6.792969 l 0.08984,-9.416015 -0.830078,0.591797 A 7.50075,7.50075 0 0 0 80.355469,59.394531 7.5,7.5 0 0 0 81,57.945312 L 81.619141,33.904297 A 7.50075,7.50075 0 0 0 80.53125,31.09375 Z m 361.033204,0.002 -0.01,45.33789 a 7.50075,7.50075 0 0 0 0,0.0625 c 0.0261,3.166336 0.0347,4.843486 0.0937,6.025391 0.024,0.48233 0.12058,0.979186 0.18164,1.470703 h -5.75781 c 0.40781,-2.117259 0.49737,-4.315088 0.51758,-6.773437 v -0.0059 l 0.084,-9.433593 a 7.50075,7.50075 0 0 0 -1.18554,-2.16211 7.5,7.5 0 0 0 0.95703,-2.15039 l 0.6289,-24.041016 a 7.50075,7.50075 0 0 0 -1.08789,-2.806641 z m -127.56055,1.226562 c -1.86481,2.112262 -3.6002,4.418607 -5.05664,7.021485 a 7.50075,7.50075 0 0 0 -0.002,0.0039 c -4.7349,8.476712 -7.88836,17.951882 -7.38281,28.142578 a 7.50075,7.50075 0 0 0 0,0.0098 c 0.18994,3.741873 1.01506,7.282802 2.26171,10.58789 -1.57621,-1.286743 -3.10939,-2.632354 -4.47461,-4.326172 a 7.50075,7.50075 0 0 0 -0.004,-0.0039 c -3.20086,-3.96515 -4.76062,-8.053169 -5.01367,-13.095703 l 0.002,0.002 c -0.55326,-11.094797 4.38337,-19.419295 18.04102,-27.539062 0.52398,-0.307808 1.09764,-0.511389 1.6289,-0.802735 z m 55.62305,19.164063 c -0.003,0.0014 -0.005,0.0045 -0.008,0.0059 -0.006,0.003 -0.0131,0.0028 -0.0195,0.0059 z m -6.30469,5.648437 c -0.004,0.0064 -0.004,0.0093 -0.008,0.01563 -0.004,0.0064 -0.01,0.01121 -0.0137,0.01758 z m -7.74609,5.441407 h 5.59765 c -0.1487,0.593583 -0.28193,1.09003 -0.48632,1.839843 l -5.58985,17.892578 c -1.74235,0.487886 -3.50269,0.932322 -5.28906,1.3125 l 4.05078,-12.992187 0.006,-0.01758 c 0.98848,-3.13931 1.68342,-4.940645 1.71094,-8.035156 z m -172.16211,2.498046 -3.43555,11.001954 -0.002,0.0059 c -1.14096,3.604181 -2.51367,4.99498 -2.56836,5.03125 -0.22331,0.147407 -2.56329,1.037109 -6.78516,1.037109 a 7.50075,7.50075 0 0 0 -1.62109,0.501953 z M 23.824219,74.460937 c -0.0042,0.0085 -0.0056,0.01886 -0.0098,0.02734 -0.0051,0.01049 -0.01246,0.01879 -0.01758,0.0293 z m 180.679691,5.408204 c 3.4e-4,0.0072 0.004,0.01424 0.004,0.02148 7.2e-4,0.01337 -0.003,0.02372 -0.002,0.03711 z m 60.91406,9.220703 c 0.005,0.0026 0.009,0.0033 0.0137,0.0059 0.003,0.0015 0.005,0.0044 0.008,0.0059 z"
       id="path9" />
    <path
       style="baseline-shift:baseline;display:inline;overflow:visible;vector-effect:none;fill:#dc2b27;stroke-linecap:round;stroke-linejoin:round;paint-order:markers stroke fill;enable-background:accumulate;stop-color:#000000;stop-opacity:1"
       d="m 73.723637,62.194 h -28.664 l -5.595,5.708 -6.302,6.21 c -1.211,1.362 -2.088,2.591 -2.624,3.691 -0.42,0.844 -0.602,1.688 -0.563,2.532 0.045,0.883 0.667,1.7 1.87,2.454 1.206,0.753 3.16,1.185 5.863,1.296 l 0.092,1.891 H 9.9996369 l 0.5950001,-1.89 c 2.448,-0.328 4.607,-1.029 6.479,-2.089 2.487,-1.472 6.014,-4.495 10.579,-9.08 l 62.864,-62.27 h 3.089 l -0.007,60.268 c 0.019,3.15 0.046,5.053 0.078,5.713 0.13,2.507 0.838,4.326 2.134,5.465 1.302,1.145 3.397,1.806 6.302003,1.99 l -0.59,1.89 H 61.282637 l 0.663,-1.89 c 3.972,-0.296 6.25,-0.55 6.832,-0.766 1.262,-0.512 2.375,-1.586 3.35,-3.208 0.969,-1.629 1.474,-4.449 1.5,-8.477 l 0.09,-9.44 z m -0.222,-4.443 0.62,-24.04 -24.55,24.04 h 23.93 m 87.084003,-45.396 9.465,50.71 41.664,-50.71 h 32.684 l -0.733,1.891 c -4.476,0 -7.847,0.76 -10.102,2.285 -2.25,1.525 -4.09,4.535 -5.51,9.038 l -14.751,47.226 c -0.948,3.01 -1.39,5.25 -1.308,6.714 0.065,1.354 0.805,2.447 2.219,3.272 1.414,0.825 4.135,1.275 8.159,1.348 l -0.524,1.891 h -46.38 l 0.727,-1.89 c 4.986,0 8.628,-0.76 10.93,-2.286 2.298,-1.524 4.163,-4.542 5.583,-9.046 l 14.935,-47.829 -50.057,61.055 h -2.88 l -11.527,-62.253 -15.311,49.028 c -0.628,2.015 -0.91,3.704 -0.845,5.065 0.092,1.832 0.956,3.304 2.585,4.424 1.637,1.118 4.352,1.736 8.154,1.846 l -0.59,1.891 h -30.724 l 0.525,-1.89 c 3.697,-0.11 6.497,-0.734 8.41,-1.873 3.37,-2.054 5.725,-5.208 7.074,-9.465 l 17.322,-54.52 c -2.002,-1.67 -3.783,-2.755 -5.34,-3.266 -1.551,-0.503 -4.136,-0.76 -7.741,-0.76 l 0.72,-1.89 h 33.179 m 91.96,1.838 0.66,-1.892 h 45.426 l -0.798,1.891 c -4.117,0 -7.225,0.734 -9.323,2.2 -2.101,1.46 -3.854,4.515 -5.268,9.172 l -14.726,47.15 c -1.067,3.37 -1.571,5.621 -1.518,6.753 0.066,1.321 0.759,2.343 2.076,3.076 1.694,0.95 4.828,1.466 9.407,1.538 l -0.595,1.891 h -46.036 l 0.66,-1.89 c 4.62,0 7.965,-0.708 10.044,-2.114 2.074,-1.408 3.868,-4.496 5.366,-9.256 l 14.726,-47.15 c 0.903,-2.932 1.315,-5.145 1.243,-6.649 -0.071,-1.349 -0.766,-2.415 -2.081,-3.18 -1.316,-0.773 -4.411,-1.282 -9.264,-1.539 m 182.186,47.994 h -28.655 l -5.595,5.708 -6.302,6.21 c -1.211,1.362 -2.09,2.591 -2.63,3.691 -0.413,0.844 -0.603,1.688 -0.557,2.532 0.045,0.883 0.667,1.7 1.872,2.454 1.203,0.753 3.153,1.185 5.863,1.296 l 0.092,1.891 h -27.801 l 0.59,-1.89 c 2.454,-0.328 4.612,-1.029 6.479,-2.089 2.486,-1.472 6.019,-4.495 10.588,-9.08 l 62.864,-62.27 h 3.089 l -0.013,60.268 c 0.026,3.15 0.052,5.053 0.085,5.713 0.125,2.507 0.838,4.326 2.133,5.465 1.297,1.145 3.397,1.806 6.296,1.99 l -0.588,1.89 h -40.24 l 0.668,-1.89 c 3.965,-0.296 6.249,-0.55 6.832,-0.766 1.256,-0.512 2.375,-1.586 3.343,-3.208 0.976,-1.629 1.473,-4.449 1.506,-8.477 l 0.085,-9.44 z m -0.222,-4.443 0.628,-24.04 -24.551,24.04 h 23.923 m -50.706,-46.401 c 0.668,0.616 0.856,2.644 0.856,2.644 l -4.418,20.23 h -2.388 c -0.706,-6.82 -0.955,-11.728 -4.665,-14.727 -3.704,-2.998 -5.621,-4.679 -12.045,-4.679 -6.616,0 -14.977,2.016 -21.41,5.688 -6.425,3.671 -14.4,9.331 -18.68,16.98 -4.272,7.648 -6.858,15.688 -6.44,24.114 0.367,7.23 2.802,12.757 7.304,16.568 4.5,3.815 9.65,5.72 15.446,5.72 2.448,0 5.393,-0.525 8.837,-1.578 l 6.065,-19.45 c 1.027,-3.266 1.512,-5.399 1.466,-6.413 -0.071,-1.342 -0.844,-2.474 -2.33,-3.397 -1.491,-0.922 -3.991,-1.386 -7.511,-1.386 l 0.575,-2.107 h 39.938 l -0.511,2.107 c -2.37,0.118 -4.215,0.478 -5.536,1.1 -1.315,0.613 -2.337,1.523 -3.05,2.721 -0.426,0.707 -1.04,2.546 -1.852,5.497 l -6.845,21.912 c -9.675,3.175 -19.944,4.764 -30.808,4.764 -8.385,0 -15.563,-1.178 -21.561,-3.527 -5.993,-2.355 -11.057,-6.079 -15.17,-11.182 -4.121,-5.105 -6.34,-10.914 -6.667,-17.43 -0.693,-13.897 6.544,-25.356 21.71,-34.369 11.887,-6.989 25.289,-10.043 40.668,-10.797 1.459,0 5.223,-0.353 10.47,-0.353 4.457,0 9.616,0.143 17.088,0.674 0,0 0.642,-0.078 1.459,0.681"
       id="path10" />
  </g>
  <g
     id="g3"
     transform="translate(-23.430823,110.26855)"
     style="stroke:#ffffff;stroke-width:15;stroke-linecap:round;stroke-linejoin:round;stroke-dasharray:none;stroke-opacity:1;paint-order:markers stroke fill">
    <g
       id="path2"
       style="opacity:1">
      <path
         style="baseline-shift:baseline;display:inline;overflow:visible;vector-effect:none;fill:#ffffff;stroke:none;enable-background:accumulate;stop-color:#000000;stop-opacity:1"
         d="m 132.64062,-7.5 c -14.06803,0 -25.46679,11.7663184 -25.46679,25.878906 a 7.5,7.5 0 0 0 0.006,0.01367 v 36.738281 c 0,14.111863 11.39971,25.878907 25.46875,25.878907 h 39.38476 c 8.99519,0 16.85996,-4.837009 21.39063,-11.996094 v 4.5625 a 7.5,7.5 0 0 0 7.5,7.5 h 57.35351 c 14.93345,0 27.06641,-12.531968 27.06641,-27.509766 V 20.076172 c 0,-14.9788802 -12.13402,-27.5097658 -27.06641,-27.5097657 h -57.35351 a 7.50075,7.50075 0 0 0 -7.5,7.49999995 V 7.4863281 C 189.35381,-1.2840336 180.6287,-7.5 170.43555,-7.5 Z m 0,15 h 37.79493 c 5.76554,0 10.46679,4.702769 10.46679,10.878906 l -0.002,1.896485 h -3.97656 c -2.30162,-5.59453 -7.83586,-9.802735 -14.07422,-9.802735 h -22.89258 c -8.19975,0 -15.21484,7.260155 -15.21484,15.398438 v 23.404297 c 0,8.139594 7.01525,15.40039 15.21484,15.40039 h 24.49219 c 6.82759,0 12.77423,-5.053499 14.5957,-11.435547 H 182.5 v 1.894532 c -0.002,6.180192 -4.69908,10.875 -10.4668,10.875 h -39.38476 c -5.76696,0 -10.46875,-4.702769 -10.46875,-10.878907 V 18.376953 a 7.5,7.5 0 0 0 -0.004,-0.0098 C 122.18214,12.193965 126.87656,7.5 132.64062,7.5 Z m 75.78321,0.066406 h 49.85351 c 6.34162,0 12.06641,5.7446458 12.06641,12.5097658 v 33.490234 c 0,6.764202 -5.72386,12.509766 -12.06641,12.509766 h -49.85351 z m 10.0664,1.3339844 a 7.50075,7.50075 0 0 0 -7.5,7.5000004 v 40.841796 0.0098 a 7.50075,7.50075 0 0 0 7.5,7.5 h 31.54493 c 9.66237,0 17.47461,-8.111904 17.47461,-17.712891 V 26.619141 c 0,-9.601312 -7.81489,-17.7187504 -17.47461,-17.7187504 z m 7.5,15.0000004 h 24.04493 c 1.36027,0 2.47461,1.026062 2.47461,2.71875 v 20.419921 c 0,1.667014 -1.12499,2.712891 -2.47461,2.712891 h -24.04493 z m -86.40429,1.402343 c -0.0343,0.02346 0.019,0.169922 0.37109,0.169922 h 22.89258 c 0.71161,0 0.22266,-0.583823 0.22266,0.400391 v 1.902344 a 7.50075,7.50075 0 0 0 7.5,7.5 h 17.82421 a 7.50075,7.50075 0 0 0 5.02735,-2.082032 v 6.466797 a 7.50075,7.50075 0 0 0 -3.42774,-1.419922 h -17.82617 a 7.50075,7.50075 0 0 0 -7.5,7.5 v 3.535157 c 0,0.983525 0.48979,0.40039 -0.2207,0.40039 h -24.49219 c -0.7024,0 -0.21484,0.586015 -0.21484,-0.40039 V 25.871094 c 0,-0.492859 -0.12197,-0.591824 -0.15625,-0.56836 z"
         id="path11" />
      <path
         style="baseline-shift:baseline;display:inline;overflow:visible;vector-effect:none;fill:#231f20;stroke:none;enable-background:accumulate;stop-color:#000000;stop-opacity:1"
         d="m 114.68046,18.376 v 36.755 c 0,10.144 8.05,18.378 17.968,18.378 h 39.385 c 9.918,0 17.967,-8.23 17.967,-18.378 l -0.005,-9.39 h -17.825 v 3.534 c 0,4.562 -3.265,7.9 -7.721,7.9 h -24.492 c -4.451,0 -7.715,-3.337 -7.715,-7.9 V 25.872 c 0,-4.562 3.263,-7.899 7.715,-7.899 h 22.892 c 4.456,0 7.722,3.337 7.722,7.9 v 1.903 h 17.825 l 0.006,-9.398 c 0,-10.144 -8.05,-18.378 -17.967,-18.378 h -37.795 c -9.918,0 -17.967,8.232 -17.967,18.378 m 103.816,38.864 V 16.4 h 31.545 c 5.51,0 9.976,4.573 9.976,10.22 v 20.42 c 0,5.634 -4.47,10.211 -9.976,10.211 h -31.545 v -0.008 z m -17.565,16.334 h 57.353 c 10.638,0 19.567,-9.139 19.567,-20.01 v -33.49 c 0,-10.872 -8.93,-20.01 -19.567,-20.01 h -57.353 v 73.51"
         id="path12" />
    </g>
    <g
       id="path3"
       style="opacity:1">
      <path
         style="baseline-shift:baseline;display:inline;overflow:visible;vector-effect:none;fill:#ffffff;stroke:none;enable-background:accumulate;stop-color:#000000;stop-opacity:1"
         d="m 303.21484,-7.5 c -5.04876,0 -10.05258,1.369085 -14.31054,4.40625 -4.25797,3.03716501 -7.74024,8.3606069 -7.74024,14.535156 v 6.673828 a 7.50075,7.50075 0 0 0 4.99805,6.464844 7.50075,7.50075 0 0 0 -4.99609,6.462891 v 6.679687 c 0,6.172209 3.48311,11.491337 7.74023,14.527344 4.25712,3.036007 9.2602,4.40625 14.31055,4.40625 h 26.8789 a 7.50075,7.50075 0 0 0 0.13282,0 c 4.81418,-0.08497 9.42475,-1.326166 13.17968,-4.107422 a 7.50075,7.50075 0 0 0 6.03321,3.960938 h 55.88671 a 7.50075,7.50075 0 0 0 7.5,-7.5 V 38.673828 a 7.50075,7.50075 0 0 0 -4.50976,-6.261719 c 2.77462,-3.517382 4.50586,-7.891737 4.50586,-12.664062 V 13.066406 C 412.82422,1.8354101 403.61873,-7.5 392.37305,-7.5 h -28.46289 c -5.05141,0 -10.05651,1.3696139 -14.31446,4.4082031 -1.32278,0.9439777 -2.51021,2.1697163 -3.60156,3.51171878 C 344.82611,-1.3662431 343.44342,-2.9658728 341.7832,-4.0625 337.59062,-6.8318433 332.97257,-7.5 328.49414,-7.5 Z m -4.79882,16.25 c -0.48072,0.5876184 -0.89877,1.209581 -1.27735,1.865234 h -0.79687 c 0.15806,-0.488656 0.45764,-0.9141938 1.27343,-1.4960934 0.19912,-0.142026 0.55234,-0.2368684 0.80079,-0.3691406 z m 60.68554,0.00391 c -0.48046,0.5873018 -0.90091,1.207907 -1.27929,1.8632817 h -0.78321 c 0.15745,-0.490845 0.4556,-0.9177616 1.27149,-1.5000005 0.19651,-0.1402398 0.54617,-0.2324797 0.79101,-0.3632812 z m -1.48437,22.3515627 c -0.22936,0.285589 -0.42403,0.69316 -0.6543,1.044922 0.0546,-0.377871 0.28749,-0.751164 0.6543,-1.044922 z m -7.16992,0.810547 6.33203,0.527343 c -0.57421,0.944977 -1.07989,1.90435 -1.25391,3.28711 a 7.50075,7.50075 0 0 0 -5.05664,-3.648438 c -0.002,-0.0555 -0.0185,-0.110488 -0.0215,-0.166015 z m -54.10352,6.626953 h 0.79297 c 0.37909,0.655996 0.79985,1.277408 1.28125,1.865234 -0.24906,-0.132518 -0.60321,-0.226843 -0.80274,-0.369141 -0.81678,-0.582494 -1.11423,-1.00872 -1.27148,-1.496093 z m 72.94922,1.773437 h 0.041 c -0.005,0.0062 0.004,0.0039 0,0.0098 -0.0175,-0.0029 -0.0183,-0.0079 -0.041,-0.0098 z m -20.93164,6.322266 a 7.50075,7.50075 0 0 0 0.38476,0.1875 l -0.46484,-0.03906 c 0.0259,-0.05005 0.0546,-0.09813 0.0801,-0.148437 z"
         id="path13" />
      <path
         style="baseline-shift:baseline;display:inline;overflow:visible;vector-effect:none;fill:#dc2b27;stroke:none;enable-background:accumulate;stop-color:#000000;stop-opacity:1"
         d="m 363.81046,21.688999 c -7.153,0 -14.441,3.775 -14.441,10.99 v 6.674 l 0.072,0.006 v 9.65 h 55.887 v -10.336 h -40.273 c -5.19,-1.322 0.498,-5.55 3.136,-5.857 h 24.182 c 7.153,0 12.95,-5.858 12.95,-13.067 v -6.682 C 405.32346,5.854999 399.52646,0 392.37346,0 h -28.463 c -7.153,0 -14.55,4.219999 -14.55,11.441999 v 6.675 h 14.072 v -1.355 c 0,-3.239 2.355,-5.616 5.569,-5.616 h 18.093 c 3.095,0 5.393,2.206 5.555,5.27 -0.163,3.055 -2.461,5.26 -5.555,5.26 l -23.295,0.007 m -31.735,2.853 c 5.41,-0.406 9.38,-2.094 9.38,-8.056 v -6.68 c 0,-7.213 -5.803,-9.799999 -12.95,-9.799999 h -25.28 c -7.144,0 -14.55,4.219999 -14.55,11.440999 v 6.675 h 14.082 v -1.355 c 0,-3.239 2.35,-5.616 5.563,-5.616 h 14.9 c 3.097,0 5.395,0.576 5.559,3.633 -0.163,3.062 -2.462,5.26 -5.558,5.26 l -12.112,0.008 v 9.072 h 13.712 c 3.096,0 5.39,2.205 5.554,5.268 -0.163,3.056 -2.458,3.625 -5.554,3.625 h -16.501 c -3.213,0 -5.563,-2.37 -5.563,-5.609 v -1.36 h -14.08 v 6.681 c 0,7.212 7.403,11.434 14.55,11.434 h 26.88 c 8.159,-0.144 12.95,-4.22 12.95,-11.434 v -5.044 c 0,-6.539 -4.763,-7.932 -10.973,-8.134"
         id="path14" />
    </g>
  </g>
</svg>
