<?xml version="1.0" encoding="UTF-8" standalone="no"?>
<svg
   height="140.41008"
   viewBox="0 0 36.66352 14.042314"
   width="366.60135"
   version="1.1"
   id="svg10"
   sodipodi:docname="amstradcpc.svg"
   xml:space="preserve"
   inkscape:version="1.4.3 (0d15f75042, 2025-12-25)"
   xmlns:inkscape="http://www.inkscape.org/namespaces/inkscape"
   xmlns:sodipodi="http://sodipodi.sourceforge.net/DTD/sodipodi-0.dtd"
   xmlns="http://www.w3.org/2000/svg"
   xmlns:svg="http://www.w3.org/2000/svg"><defs
     id="defs10" /><sodipodi:namedview
     id="namedview10"
     pagecolor="#cccccc"
     bordercolor="#000000"
     borderopacity="0.25"
     inkscape:showpageshadow="2"
     inkscape:pageopacity="0.0"
     inkscape:pagecheckerboard="0"
     inkscape:deskcolor="#d1d1d1"
     inkscape:zoom="2.2770188"
     inkscape:cx="171.27658"
     inkscape:cy="72.682754"
     inkscape:window-width="1920"
     inkscape:window-height="1080"
     inkscape:window-x="0"
     inkscape:window-y="0"
     inkscape:window-maximized="0"
     inkscape:current-layer="svg10" /><g
     id="path2"
     style="opacity:1;stroke:#ffffff;stroke-width:0.958018;stroke-linecap:round;stroke-linejoin:miter;stroke-dasharray:none;stroke-opacity:1;paint-order:markers stroke fill"
     transform="matrix(0.92178074,0,0,0.95761388,4.1632051,-0.07668392)"><g
       id="path11"
       style="opacity:1"><path
         style="baseline-shift:baseline;display:inline;overflow:visible;vector-effect:none;fill:#ffffff;stroke:none;enable-background:accumulate;stop-color:#000000;stop-opacity:1"
         d="M 16.755859,0.05664062 9.71875,14.757813 h 8.123047 L 24.878906,0.05664062 Z M 17.359375,1.015625 h 5.998047 l -6.119141,12.783203 h -5.998047 z"
         id="path12" /><path
         style="baseline-shift:baseline;display:inline;overflow:visible;vector-effect:none;fill:#9c2249;stroke:none;enable-background:accumulate;stop-color:#000000;stop-opacity:1"
         d="m 17.05784,0.53571304 h 7.060862 L 17.539636,14.278753 h -7.059951 z"
         id="path15" /></g></g><g
     id="g10"
     transform="translate(-0.92878874,0.25270059)"><g
       id="path3"
       style="opacity:1"><path
         style="baseline-shift:baseline;display:inline;overflow:visible;vector-effect:none;fill:#ffffff;stroke-linecap:round;stroke-linejoin:round;paint-order:markers stroke fill;enable-background:accumulate;stop-color:#000000;stop-opacity:1"
         d="M 2.5429688,1.8671875 A 0.50009501,0.50009501 0 0 0 2.0488281,2.2851563 L 0.93554688,9.0371094 A 0.50009501,0.50009501 0 0 0 1.4277344,9.6191406 h 1.7324219 a 0.50009501,0.50009501 0 0 0 0.4960937,-0.4375 l 0.082031,-0.6425781 0.0625,0.6289063 A 0.50009501,0.50009501 0 0 0 4.2988281,9.6191406 H 6.1816406 A 0.50009501,0.50009501 0 0 0 6.4296875,9.5019531 0.50009501,0.50009501 0 0 0 6.5527344,9.625 H 8.3632813 A 0.50009501,0.50009501 0 0 0 8.7714844,9.3476563 0.50009501,0.50009501 0 0 0 9.1054688,9.625 H 10.257813 A 0.50009501,0.50009501 0 0 0 10.578125,9.3574219 0.50009501,0.50009501 0 0 0 10.982422,9.625 h 1.833984 a 0.50009501,0.50009501 0 0 0 0.363282,-0.3632812 c 0.517663,0.3883327 1.160526,0.3818897 2.332031,0.3789062 1.124178,-0.002 1.455864,-0.00115 1.789062,-0.140625 a 0.50009501,0.50009501 0 0 0 0.002,0 C 17.6,9.3747237 17.783773,9.2009318 17.955078,8.9492188 a 0.50009501,0.50009501 0 0 0 0.002,-0.00195 c 0.09992,-0.1480486 0.202622,-0.3823093 0.228516,-0.6386718 0.02554,-0.2528144 0.01807,-0.5672889 0.0059,-1.1132813 v -0.015625 l 0.0078,-1.0996094 C 18.202798,5.7377002 18.025778,5.594555 17.890625,5.4667969 17.77653,5.358945 17.643631,5.2709381 17.507812,5.1835937 h 0.228516 a 0.50009501,0.50009501 0 0 0 0.5,-0.5 c 0,-0.2919461 -0.0213,-0.4690936 -0.0293,-0.6992187 h 0.236328 v 5.1171875 a 0.50009501,0.50009501 0 0 0 0.5,0.5 h 1.996094 a 0.50009501,0.50009501 0 0 0 0.5,-0.5 V 3.984375 h 0.455078 l 0.04883,5.1347656 a 0.50009501,0.50009501 0 0 0 0.5,0.4960938 h 1.914063 A 0.50009501,0.50009501 0 0 0 24.566406,9.40625 0.50009501,0.50009501 0 0 0 24.957031,9.640625 l 2.021485,0.00781 a 0.50009501,0.50009501 0 0 0 0.220703,-0.09375 0.50009501,0.50009501 0 0 0 0.210937,0.097656 h 1.732422 a 0.50009501,0.50009501 0 0 0 0.496094,-0.4375 l 0.08203,-0.6425782 0.0625,0.6308594 a 0.50009501,0.50009501 0 0 0 0.498047,0.4492188 h 1.882812 a 0.50009501,0.50009501 0 0 0 0.240235,-0.1132813 0.50009501,0.50009501 0 0 0 0.109375,0.109375 l 3.46875,0.019531 c 0.359224,0.00197 0.67804,-0.030447 0.96875,-0.2070313 0.29071,-0.1765844 0.46572,-0.4939989 0.539062,-0.8085937 0.146686,-0.6291898 0.08138,-1.4085011 0.09375,-2.7011719 C 37.599013,4.4483151 37.611253,3.570479 37.455077,2.9335907 37.376991,2.6151496 37.230953,2.3193866 36.970703,2.1328125 36.710453,1.9462384 36.412872,1.9082031 36.130859,1.9082031 h -3.546875 a 0.50009501,0.50009501 0 0 0 -0.5,0.4902344 c 0,0 -0.03187,1.6576179 -0.05664,3.3300781 -2.2e-4,0.014805 2.18e-4,0.02621 0,0.041016 L 31.365234,2.3105469 A 0.50009501,0.50009501 0 0 0 30.875,1.9042969 l -2.349609,-0.00391 A 0.50009501,0.50009501 0 0 0 28.03125,2.3183594 l -0.693359,4.203125 c -0.05917,-0.246069 -0.152077,-0.4860028 -0.3125,-0.6679688 -0.03477,-0.039434 -0.08582,-0.058934 -0.123047,-0.09375 C 27.025965,5.6365277 27.236301,5.5674154 27.294922,5.4042969 27.436493,5.0103605 27.397439,4.660501 27.40625,4.1210937 27.41485,3.5851652 27.42049,3.2573854 27.31836,2.9316406 27.216229,2.6058959 26.959686,2.3698856 26.720704,2.2109375 a 0.50009501,0.50009501 0 0 0 0,-0.00195 C 26.457779,2.0350604 26.10838,1.946916 25.527344,1.9296875 24.946308,1.912459 24.033551,1.9336479 22.375,1.953125 A 0.50009501,0.50009501 0 0 0 22.183594,2.1484375 0.50009501,0.50009501 0 0 0 21.970703,1.9355469 H 17.976562 A 0.50009501,0.50009501 0 0 0 17.552734,2.2539063 C 17.300812,2.0963144 17.028593,1.9954994 16.716797,1.96875 16.344382,1.9368 15.9092,1.942897 15.345703,1.9414062 a 0.50009501,0.50009501 0 0 0 -0.002,0 c -0.5552,-9.723e-4 -0.933781,-0.030594 -1.277344,-0.015625 -0.309982,0.013506 -0.624588,0.1268947 -0.882812,0.3261719 A 0.50009501,0.50009501 0 0 0 12.816406,1.8847656 H 10.257813 A 0.50009501,0.50009501 0 0 0 9.7675781,2.2890625 L 9.7207031,2.5273438 9.6855469,2.3046875 A 0.50009501,0.50009501 0 0 0 9.1914063,1.8847656 l -2.6542969,-0.00195 a 0.50009501,0.50009501 0 0 0 -0.5,0.5 l 0.00781,3.361325 L 5.3828125,2.2773438 A 0.50009501,0.50009501 0 0 0 4.8925781,1.8710937 Z m 0.4238281,1 1.5117187,0.00391 1.0996094,5.7480468 H 4.75 l -0.09375,-0.9375 A 0.50009501,0.50009501 0 0 0 4.1621094,7.2324219 l -0.8222656,-0.00586 a 0.50009501,0.50009501 0 0 0 -0.5,0.4375 L 2.71875,8.6191406 H 2.0175781 Z m 4.0722656,0.015625 1.7265625,0.00195 0.4121094,2.5820313 a 0.50009501,0.50009501 0 0 0 0.9843746,0.017578 l 0.507813,-2.5996094 h 1.646484 V 8.625 h -0.833984 l 0.0039,-3.4394531 A 0.50009501,0.50009501 0 0 0 10.494141,5.09375 L 9.8417969,8.625 H 9.5195313 L 8.8496094,5.0917969 A 0.50009501,0.50009501 0 0 0 7.859375,5.1855469 L 7.8632812,8.625 h -0.8125 z m 21.9101565,0.017578 1.511718,0.00195 1.09961,5.75 h -0.826172 l -0.0957,-0.9375001 A 0.50009501,0.50009501 0 0 0 30.144531,7.2636719 l -0.820312,-0.00586 a 0.50009501,0.50009501 0 0 0 -0.5,0.4375 L 28.701172,8.6523438 H 28 Z m 4.126953,0.00781 h 3.054687 c 0.186487,0 0.244891,0.029246 0.25586,0.037109 0.01097,0.00786 0.05087,0.035757 0.09766,0.2265625 0.09358,0.3816116 0.114581,1.272385 0.09961,2.7695312 -0.01263,1.3193293 0.01066,2.1538148 -0.06641,2.4843751 -0.03853,0.1652801 -0.05505,0.1628812 -0.08594,0.1816406 -0.03088,0.018759 -0.164584,0.062076 -0.44336,0.060547 l -2.970703,-0.017578 v 0.4941407 a 0.50009501,0.50009501 0 0 0 -0.06836,-0.25 c -2.42e-4,-4.18e-4 0.02655,0.052971 0.0332,0.070312 0.0067,0.017341 0.01073,0.030629 0.01367,0.041016 0.0059,0.020774 0.0082,0.032629 0.0098,0.041016 0.0031,0.016773 0.0039,0.019247 0.0039,0.019531 5.7e-5,5.691e-4 -0.0029,-0.015004 -0.0039,-0.037109 -0.002,-0.04421 -0.0028,-0.1180597 -0.0039,-0.2109375 -0.0023,-0.1857557 -0.0017,-0.4508096 0,-0.7675781 0.0035,-0.6335372 0.01303,-1.4719958 0.02539,-2.3066407 0.02108,-1.4232628 0.04141,-2.450021 0.04883,-2.8359375 z m -18.966797,0.017578 c 0.241687,-0.010531 0.645622,0.014597 1.232422,0.015625 0.570503,0.00151 1.000353,-0.00133 1.289062,0.023437 0.28871,0.024769 0.402531,0.077294 0.435547,0.1054687 0.03302,0.028174 0.08042,0.091051 0.119141,0.3535156 0.02335,0.1582977 0.02447,0.48695 0.03125,0.7597656 H 16.207031 C 16.209763,3.9966336 16.22067,3.757387 16.197266,3.5976563 16.175772,3.450971 16.085083,3.210311 15.884766,3.0859375 15.685231,2.96205 15.533667,2.9755167 15.412109,2.9765625 h -0.002 c -0.112886,6.346e-4 -0.230127,0.00243 -0.382812,0.0625 -0.153444,0.060367 -0.319454,0.2267452 -0.38086,0.3769531 -0.122811,0.3004158 -0.07237,0.4721728 -0.06641,0.7617188 0.0092,0.5006906 0.326389,0.91895 0.654297,1.09375 0.32834,0.17503 0.636092,0.2259205 0.871094,0.3125 0.20781,0.077091 0.549237,0.2375675 0.80664,0.3964843 0.126202,0.077915 0.232715,0.158394 0.28711,0.2089844 L 17.191406,7.1875 a 0.50009501,0.50009501 0 0 0 0,0.015625 c 0.01245,0.5564693 0.0124,0.8617688 -0.002,1.0039063 -0.01436,0.1421374 0.0016,0.086689 -0.0625,0.1816406 -0.02789,0.03829 -0.229991,0.1966597 -0.212891,0.1894531 -0.09644,0.04037 -0.285375,0.060506 -1.406249,0.0625 C 14.344767,8.643585 13.819464,8.5188456 13.755812,8.46875 13.723982,8.443702 13.713232,8.444714 13.691362,8.2949219 13.669492,8.14513 13.670882,7.8806421 13.681562,7.5253906 a 0.50009501,0.50009501 0 0 0 0,-0.027344 l -0.01563,-0.6210938 h 0.914062 v 0.9433594 c -0.0017,0.1633631 0.07516,0.3126264 0.152344,0.4003906 0.07719,0.087764 0.152607,0.1349987 0.222656,0.1699219 0.140099,0.069846 0.2657,0.093738 0.396485,0.1054688 0.130784,0.01173 0.260861,0.012642 0.421875,-0.041016 0.08051,-0.026829 0.175607,-0.067735 0.269531,-0.1621093 0.09392,-0.094375 0.171125,-0.261554 0.171875,-0.4160157 a 0.50009501,0.50009501 0 0 0 0,-0.00195 V 6.5585937 a 0.50009501,0.50009501 0 0 0 0,-0.013672 C 16.206646,6.2656129 16.045463,6.1003965 15.921875,5.9980469 15.798287,5.8956973 15.67083,5.825628 15.533203,5.7578125 15.257949,5.6221814 14.937897,5.5020416 14.628906,5.375 14.319916,5.2479584 14.023205,5.1139545 13.841797,4.9941406 13.660389,4.8743267 13.669746,4.8115698 13.669922,4.8808594 c -1.29e-4,-0.5183909 -0.04408,-0.9781203 -0.03516,-1.3125 0.0089,-0.3348769 0.06707,-0.4855859 0.136718,-0.5507813 0.0767,-0.071583 0.0962,-0.081266 0.337891,-0.091797 z m 11.388672,0.00195 c 0.523464,0.015521 0.545846,0.033158 0.669922,0.1152344 0.188018,0.1250518 0.171397,0.1049947 0.197265,0.1875 0.02587,0.082505 0.04938,0.3539754 0.04102,0.8730468 -0.0092,0.5625928 -0.02181,0.876827 -0.05273,0.9628906 -0.03093,0.086064 -0.04687,0.1190835 -0.416016,0.2851563 a 0.50009501,0.50009501 0 0 0 -0.04883,0.8867187 c 0.215418,0.1267163 0.331807,0.2150589 0.386719,0.2773438 0.05491,0.062285 0.08148,0.1080521 0.113281,0.2695312 0.04979,0.2528445 0.05489,1.016135 0.07227,1.8593751 l -1.007812,-0.00195 C 25.473415,7.7285845 25.507362,6.9898872 25.425781,6.6035156 25.400326,6.4829601 25.361848,6.3587082 25.273437,6.2363281 25.185027,6.113948 25.039057,6.0142495 24.914062,5.9726562 24.664073,5.8894697 24.526046,5.9255896 24.375,5.9238281 A 0.50009501,0.50009501 0 0 0 23.869141,6.421875 l -0.0098,2.1933594 h -0.919922 l -0.05469,-5.6660156 c 1.205293,-0.015708 2.17361,-0.034521 2.613281,-0.021484 z m -7.019531,0.00781 h 2.992187 v 0.048828 h -0.53125 a 0.50009501,0.50009501 0 0 0 -0.5,0.5 v 5.117196 H 19.443359 V 3.484375 a 0.50009501,0.50009501 0 0 0 -0.5,-0.5 h -0.464843 z m 5.884765,0.056641 a 0.50009501,0.50009501 0 0 0 -0.509765,0.4980469 l -0.0059,1.7089843 a 0.50009501,0.50009501 0 0 0 0.503906,0.5019532 c 0.201402,-0.00109 0.361106,-0.00638 0.539063,-0.056641 0.177957,-0.050265 0.400688,-0.2052501 0.492187,-0.3984375 0.183,-0.3863746 0.07617,-0.5882192 0.07617,-0.9179687 0,-0.3093554 0.117288,-0.4949409 -0.07031,-0.8867187 C 25.294832,3.245509 25.069988,3.0965651 24.896444,3.0488198 24.7229,3.0010748 24.565829,2.9962308 24.363241,2.9921788 Z M 3.7363281,3.0332031 A 0.50009501,0.50009501 0 0 0 3.2382813,3.4882813 L 2.9609375,6.5683594 A 0.50009501,0.50009501 0 0 0 3.4589844,7.1132812 H 4.0019531 A 0.50009501,0.50009501 0 0 0 4.5,6.5683594 L 4.234375,3.4902344 A 0.50009501,0.50009501 0 0 0 3.7363281,3.0332031 Z m 30.8085939,0.00195 a 0.50009501,0.50009501 0 0 0 -0.5,0.5039062 l 0.04102,4.5273438 A 0.50009501,0.50009501 0 0 0 34.599609,8.5625 C 34.752262,8.55828 34.924237,8.57195 35.150391,8.4511719 35.376545,8.3303928 35.517203,8.0657289 35.5625,7.8496094 35.6531,7.4173703 35.61939,6.8892567 35.60742,5.796875 35.597,4.8465868 35.62456,4.3021558 35.54297,3.859375 35.50217,3.6379846 35.41362,3.393678 35.201173,3.2265625 34.988725,3.059447 34.747373,3.0351563 34.544923,3.0351563 Z m -4.826172,0.03125 a 0.50009501,0.50009501 0 0 0 -0.5,0.4550781 l -0.277344,3.0800781 a 0.50009501,0.50009501 0 0 0 0.498047,0.5449219 h 0.546875 A 0.50009501,0.50009501 0 0 0 30.484375,6.6035156 L 30.214844,3.5234375 A 0.50009501,0.50009501 0 0 0 29.71875,3.0664063 Z M 13.316406,5.8398437 c 0.02303,0.014895 0.0507,0.02278 0.07422,0.037109 h -0.07422 z"
         id="path13" /><path
         style="baseline-shift:baseline;display:inline;overflow:visible;vector-effect:none;stroke-linecap:round;stroke-linejoin:round;paint-order:markers stroke fill;enable-background:accumulate;stop-color:#000000;stop-opacity:1"
         d="m 2.5426191,2.3674699 -1.114,6.751 h 1.731 l 0.177,-1.392 0.822,0.006 0.14,1.386 h 1.883 l -1.29,-6.747 z m 1.193,1.165 0.267,3.08 h -0.544 z m 2.801,-1.15 0.016,6.742 h 1.811 l -0.005,-3.94 0.746,3.94 h 1.1529999 l 0.728,-3.94 -0.003,3.94 h 1.834 v -6.74 h -2.558 l -0.5869999,3.003 -0.48,-3.003 z m 11.4399999,0.053 0.003,1.048 h 0.964 v 5.619 h 1.996 v -5.619 h 1.032 v -1.048 z m -2.633,0.006 c -1.142,-0.002 -1.569,-0.111 -1.914,0.211 -0.438,0.41 -0.26,1.252 -0.26,2.23 0.002,0.79 2.532,1.2 2.546,1.677 v 1.315 c -10e-4,0.206 -0.637,0.141 -0.635,-0.049 v -1.448 h -1.926 l 0.027,1.132 c -0.043,1.426 -0.028,1.638 2.328,1.632 1.124,-0.002 1.383,-0.013 1.598,-0.103 0.14,-0.059 0.336,-0.226 0.434,-0.37 0.164,-0.243 0.175,-0.36 0.15,-1.477 l 0.007,-1.117 c 0.003,-0.287 -0.924,-0.776 -1.42,-0.96 -0.57,-0.21 -1.186,-0.23 -1.198,-0.947 -0.012,-0.583 -0.021,-0.688 0.334,-0.69 0.386,-0.003 0.279,0.115 0.301,1.206 h 2.02 c 0,-2.331 -0.124,-2.236 -2.392,-2.242 z m 7.038,0.011 0.062,6.662 h 1.913 l 0.012,-2.69 c 0.686,0.008 0.634,-0.161 0.59,2.717 l 2.022,0.006 c -0.07,-2.646 0.08,-2.8 -0.838,-3.34 0.818,-0.368 0.745,-0.593 0.763,-1.695 0.017,-1.055 -0.034,-1.202 -0.461,-1.486 -0.387,-0.256 -0.742,-0.213 -4.063,-0.174 z m 1.971,1.039 c 0.75,0.015 0.607,0.148 0.607,0.836 0,0.718 0.126,0.869 -0.611,0.873 z m 8.232,-1.083 c 0,0 -0.13,6.63 -0.068,6.737 v 0.002 l 3.469,0.02 c 1.276,0.007 1.073,-0.61 1.098,-3.222 0.03,-3 -0.016,-3.537 -0.953,-3.537 z m 2.522,3.394 c 0.024,2.19 0.059,2.244 -0.52,2.26 l -0.042,-4.528 c 0.62,0 0.541,0.353 0.562,2.268 z m -6.582,-3.403 -1.114,6.753 h 1.732 l 0.177,-1.394 0.822,0.006 0.14,1.388 h 1.883 l -1.29,-6.749 z m 1.193,1.167 0.268,3.08 h -0.546 z"
         id="path14" /></g></g><g
     id="g1"
     transform="translate(0.16896159,-0.14531089)"><path
       d="M 23.281769,10.971513 H 36.367227 V 14.04231 H 23.281769 Z"
       fill="#f9f9f9"
       id="path1"
       style="stroke-width:1.00009;stroke-dasharray:none" /><g
       id="path3-3"
       style="opacity:1"><path
         style="baseline-shift:baseline;display:inline;overflow:visible;vector-effect:none;paint-order:markers stroke fill;enable-background:accumulate;stop-color:#000000;stop-opacity:1"
         d="m 23.232422,10.921875 v 1.585938 1.583984 h 13.185547 v -3.169922 z m 0.09961,0.09961 h 12.984375 v 2.970704 H 23.332031 v -1.484375 z m 2.080078,0.279297 v 0.175782 c 0,0.05179 0.0022,0.09289 0.02734,0.128906 0.02516,0.03602 0.07026,0.04687 0.113281,0.04687 0.0072,0 0.0098,0.0017 0.01172,0.002 0.0011,0.002 0.01211,0.02259 0.01758,0.07617 0.0112,0.109785 0.01172,0.336161 0.01172,0.771484 0,0.431584 -4.6e-4,0.657414 -0.01172,0.771485 -0.0056,0.05703 -0.0169,0.08454 -0.02148,0.0918 -0.0046,0.0073 -9.29e-4,0.0052 -0.01953,0.0098 -0.04116,0.0085 -0.07763,0.03159 -0.09961,0.06445 -0.02229,0.03331 -0.0293,0.07279 -0.0293,0.115235 0,0.02748 -0.0021,0.05217 0.0078,0.08008 0.0099,0.02791 0.03859,0.05265 0.06836,0.0625 0.05954,0.0197 0.138041,0.01563 0.296875,0.01563 h 0.373047 l -0.01953,-0.167969 c -0.0056,-0.04692 -0.01632,-0.08892 -0.04492,-0.121094 -0.02821,-0.03173 -0.0698,-0.04799 -0.115234,-0.05273 h -0.002 c -0.0216,-0.0032 -0.03337,-0.0067 -0.03516,-0.0078 -0.0019,-0.0012 -0.0053,-0.0015 -0.0098,-0.02148 -0.0089,-0.04004 -0.0088,-0.14262 -0.002,-0.339844 l 0.01367,-0.361328 0.429688,-0.01172 c 0.191204,-0.0044 0.313576,-0.01072 0.398437,-0.02344 0.08486,-0.01271 0.13689,-0.03378 0.171875,-0.07227 l 0.002,-0.002 v -0.002 c 0.01779,-0.0227 0.02558,-0.04807 0.0332,-0.08008 0.0076,-0.03201 0.01479,-0.07053 0.01953,-0.117188 0.0095,-0.09331 0.01367,-0.216849 0.01367,-0.371093 0,-0.202379 -0.0026,-0.323072 -0.01563,-0.40625 -0.01299,-0.08318 -0.04285,-0.134776 -0.08398,-0.169922 l -0.002,-0.002 c -0.04548,-0.03686 -0.105948,-0.05755 -0.21875,-0.06836 -0.112802,-0.01081 -0.28299,-0.01367 -0.560547,-0.01367 z m 2.582032,0 c -0.204603,0 -0.354894,-0.0074 -0.470704,0.0039 -0.115809,0.01131 -0.206419,0.04569 -0.259765,0.126953 -0.05335,0.08126 -0.06917,0.194178 -0.07617,0.363281 -0.007,0.169103 -0.0039,0.396016 -0.0039,0.707031 0,0.469183 0.004,0.725537 0.01563,0.876953 0.0058,0.07571 0.01364,0.126911 0.02734,0.166016 0.0137,0.03911 0.03608,0.06685 0.05859,0.08594 0.04318,0.03705 0.10267,0.05756 0.203125,0.06836 0.101324,0.0109 0.249817,0.01367 0.486328,0.01367 h 0.628907 v -0.34375 c 0,-0.14354 0.0021,-0.214513 -0.01953,-0.271485 -0.01083,-0.02849 -0.03749,-0.05525 -0.06445,-0.06445 -0.02697,-0.0092 -0.04941,-0.0078 -0.07617,-0.0078 -0.02669,0 -0.05048,9.61e-4 -0.07422,0.0078 -0.02374,0.0069 -0.04743,0.02332 -0.0625,0.04492 -0.03013,0.0432 -0.03406,0.09287 -0.04102,0.173828 l -0.0098,0.132813 -0.273437,0.01172 c -0.08482,0.0043 -0.175234,0.0026 -0.25,0 -0.07477,-0.0026 -0.138604,-0.0077 -0.15625,-0.01172 l -0.06445,-0.01367 v -1.71875 h 0.763672 v 0.140625 c 0,0.0868 -0.0021,0.136593 0.02539,0.183594 0.01373,0.0235 0.03839,0.04204 0.0625,0.04883 0.02411,0.0068 0.04696,0.0059 0.07422,0.0059 0.02807,0 0.05412,0.0021 0.08203,-0.0078 0.02792,-0.0099 0.0535,-0.03664 0.06445,-0.06641 0.0219,-0.05953 0.01953,-0.136893 0.01953,-0.291015 v -0.365235 z m -3.820313,0.0078 c -0.117312,0.01134 -0.208584,0.04594 -0.263672,0.128906 -0.05509,0.08296 -0.07342,0.199652 -0.08203,0.371094 -0.0086,0.171442 -0.0059,0.399806 -0.0059,0.710937 0,0.306674 -0.0036,0.531638 0.0039,0.699219 0.0075,0.167581 0.02356,0.280237 0.07813,0.361328 0.05457,0.08109 0.146162,0.115087 0.263672,0.126953 0.117509,0.01187 0.269369,0.0059 0.476562,0.0059 h 0.640625 v -0.6875 H 25.09375 c -0.03418,0 -0.0605,-1.86e-4 -0.08594,0.0039 -0.02544,0.0041 -0.05511,0.01581 -0.07227,0.04102 -0.01715,0.0252 -0.01931,0.05171 -0.01953,0.08008 -2.26e-4,0.02837 0.0024,0.06247 0.0059,0.105468 l 0.0098,0.128907 -0.267579,0.01172 c -0.08418,0.0043 -0.173281,0.0026 -0.248046,0 -0.07477,-0.0026 -0.137834,-0.0079 -0.154297,-0.01172 h -0.002 l -0.06641,-0.01367 v -1.71875 h 0.742188 v 0.126953 c 0,0.08262 -0.0035,0.133767 0.02539,0.179687 0.01444,0.02296 0.03855,0.03852 0.0625,0.04492 0.02395,0.0064 0.04862,0.0059 0.07617,0.0059 0.02776,0 0.0528,0.0014 0.08008,-0.0078 0.02728,-0.0092 0.05326,-0.03374 0.06445,-0.0625 0.02239,-0.05751 0.01953,-0.129884 0.01953,-0.273437 v -0.34375 l -0.617188,-0.01367 c -0.20392,-0.0043 -0.355344,-0.01134 -0.472656,0 z m 3.820313,0.0918 h 0.507812 v 0.265625 c 0,0.15358 -0.0037,0.2341 -0.01172,0.255859 -0.004,0.01088 -5.6e-5,0.0045 -0.0039,0.0059 -0.0038,0.0014 -0.02209,0.0039 -0.04883,0.0039 -0.02444,0 -0.04027,-0.002 -0.04687,-0.0039 -0.0066,-0.0019 -0.0025,3.96e-4 -0.0039,-0.002 -0.0027,-0.0047 -0.01172,-0.0477 -0.01172,-0.132812 v -0.240235 h -0.962891 v 1.900391 l 0.142578,0.0293 c 0.03716,0.0084 0.0963,0.01293 0.173829,0.01563 0.07753,0.0027 0.169475,0.0025 0.257812,-0.002 l 0.361328,-0.01563 0.01758,-0.220703 c 0.0067,-0.0785 0.01838,-0.117744 0.02344,-0.125 0.0025,-0.0036 5.24e-4,-0.0038 0.0078,-0.0059 0.0073,-0.0021 0.02373,-0.0039 0.04687,-0.0039 0.02556,0 0.04153,0.0027 0.04492,0.0039 0.0034,0.0012 -0.0015,-0.0053 0.002,0.0039 0.007,0.0184 0.01172,0.09337 0.01172,0.236328 v 0.24414 h -0.527344 c -0.235631,0 -0.381906,-0.0037 -0.474609,-0.01367 -0.0927,-0.01 -0.126384,-0.02403 -0.150391,-0.04492 -0.01423,-0.01206 -0.02069,-0.01842 -0.0293,-0.04297 -0.0086,-0.02455 -0.01595,-0.06691 -0.02148,-0.138672 -0.01106,-0.143517 -0.01367,-0.402221 -0.01367,-0.871094 0,-0.311865 -0.0048,-0.539376 0.002,-0.703125 0.0068,-0.163748 0.027,-0.2614 0.06055,-0.3125 0.03355,-0.0511 0.08203,-0.07193 0.185547,-0.08203 0.103522,-0.01011 0.254441,-0.0039 0.460938,-0.0039 z m -2.482422,0.002 h 0.61914 c 0.276808,0 0.445889,0.0017 0.550782,0.01172 0.104892,0.01005 0.139243,0.02518 0.166015,0.04687 0.02739,0.0234 0.03784,0.03901 0.04883,0.109375 0.01099,0.07036 0.01563,0.189377 0.01563,0.390625 0,0.152212 -0.0048,0.273692 -0.01367,0.361328 -0.0044,0.04382 -0.0096,0.08013 -0.01563,0.105468 -0.0054,0.02283 -0.0121,0.03414 -0.01367,0.03711 -0.01484,0.01633 -0.03806,0.02975 -0.113282,0.04101 -0.07522,0.01127 -0.196721,0.01909 -0.386718,0.02344 l -0.523438,0.01367 -0.01563,0.455078 c -0.0069,0.197682 -0.01122,0.296894 0.0039,0.365234 0.0076,0.03417 0.02608,0.06667 0.05273,0.08399 0.02666,0.01731 0.05226,0.01988 0.07813,0.02344 h 0.002 c 0.03105,0.003 0.04201,0.0097 0.05078,0.01953 0.0088,0.0099 0.01907,0.02986 0.02344,0.06641 h -0.002 l 0.0078,0.05664 H 25.78514 c -0.158834,0 -0.243257,-0.0024 -0.265625,-0.0098 -0.01118,-0.0037 -0.003,6.19e-4 -0.0039,-0.002 -9.17e-4,-0.0026 -0.0039,-0.02016 -0.0039,-0.04687 0,-0.0298 0.0064,-0.04768 0.01367,-0.05859 0.0073,-0.01091 0.01544,-0.01919 0.03711,-0.02344 h 0.002 c 0.025,-0.0061 0.06139,-0.02005 0.08203,-0.05273 0.02064,-0.03268 0.02895,-0.0719 0.03516,-0.134766 0.01241,-0.125738 0.01172,-0.351475 0.01172,-0.783203 0,-0.435464 7.46e-4,-0.659013 -0.01172,-0.78125 -0.0062,-0.06112 -0.01454,-0.09919 -0.03906,-0.130859 -0.01226,-0.01583 -0.03015,-0.02633 -0.04687,-0.03125 -0.01672,-0.0049 -0.0307,-0.0059 -0.04297,-0.0059 -0.02923,0 -0.029,-0.0026 -0.03125,-0.0059 -0.0023,-0.0032 -0.0098,-0.02493 -0.0098,-0.07031 z m -1.328125,0.0059 c 0.104238,-0.01007 0.255627,-0.0044 0.460937,0 l 0.517578,0.01172 v 0.246094 c 0,0.142971 -0.0045,0.21785 -0.01172,0.236328 -0.0036,0.0092 2.26e-4,0.0045 -0.0039,0.0059 -0.0041,0.0014 -0.02045,0.002 -0.04687,0.002 -0.02477,0 -0.04148,-0.0019 -0.04883,-0.0039 -0.0073,-0.002 -0.0047,-1.54e-4 -0.0059,-0.002 -0.0023,-0.0036 -0.0098,-0.04442 -0.0098,-0.125 v -0.22669 h -0.94134 v 1.900391 l 0.144531,0.0293 c 0.03711,0.0086 0.0963,0.01293 0.173828,0.01563 0.07753,0.0027 0.170073,0.0025 0.257813,-0.002 l 0.36914,-0.01563 -0.01758,-0.232422 c -0.0034,-0.04296 -0.006,-0.07502 -0.0059,-0.0957 1.65e-4,-0.02068 0.0058,-0.02817 0.0039,-0.02539 -0.0019,0.0028 -0.0084,0.0039 0.0039,0.002 0.01232,-0.002 0.0366,-0.0039 0.07031,-0.0039 h 0.0918 v 0.488281 h -0.541016 c -0.20889,0 -0.361471,0.0048 -0.466797,-0.0059 -0.105325,-0.01064 -0.154951,-0.03076 -0.189453,-0.08203 -0.0345,-0.05127 -0.05523,-0.148547 -0.0625,-0.310547 -0.0073,-0.162 -0.0039,-0.387828 -0.0039,-0.695313 0,-0.311748 -0.0025,-0.541262 0.0059,-0.707031 0.0083,-0.165769 0.03071,-0.2646 0.06641,-0.318359 0.0357,-0.05376 0.08522,-0.07586 0.189453,-0.08594 z m 8.277343,0.01563 c -0.783382,0 -1.567484,0.0048 -2.160156,0.01367 -0.296336,0.0044 -0.545171,0.0089 -0.722656,0.01563 -0.08874,0.0033 -0.160073,0.0077 -0.210938,0.01172 -0.02543,0.002 -0.04449,0.0035 -0.06055,0.0059 -0.008,0.0012 -0.01448,0.0021 -0.02148,0.0039 -0.0035,9.09e-4 -0.0073,0.0021 -0.01172,0.0039 -0.0022,8.88e-4 -0.0049,0.0023 -0.0078,0.0039 -0.0029,0.0016 -0.0095,0.0075 -0.0098,0.0078 -0.02441,0.02245 -0.02432,0.03822 -0.0293,0.05859 -0.005,0.02037 -0.008,0.04479 -0.01172,0.07422 -0.0075,0.05886 -0.01472,0.137006 -0.01953,0.228516 -0.0096,0.183019 -0.01375,0.419347 -0.01367,0.65625 7.8e-5,0.236902 0.004,0.473249 0.01367,0.65625 0.0048,0.0915 0.0121,0.169687 0.01953,0.228515 0.0037,0.02941 0.0068,0.0539 0.01172,0.07422 0.0049,0.02032 0.0032,0.03599 0.02734,0.05859 2.97e-4,2.77e-4 0.01124,0.0056 0.01172,0.0059 4.83e-4,2.75e-4 0.0056,0.003 0.0078,0.0039 0.0044,0.0018 0.0082,0.003 0.01172,0.0039 0.007,0.0018 0.01347,0.0027 0.02148,0.0039 0.01603,0.0024 0.03515,0.0058 0.06055,0.0078 0.0508,0.004 0.122253,0.0064 0.210938,0.0098 0.177369,0.0067 0.426398,0.01309 0.722656,0.01758 0.592517,0.009 1.37482,0.01359 2.158203,0.01367 0.783384,7.7e-5 1.567478,-0.0047 2.160157,-0.01367 0.296339,-0.0045 0.545158,-0.0089 0.722656,-0.01563 0.08875,-0.0034 0.16005,-0.0077 0.210937,-0.01172 0.02544,-0.002 0.04445,-0.0034 0.06055,-0.0059 0.008,-0.0012 0.01444,-0.004 0.02148,-0.0059 0.0035,-9.3e-4 0.0073,-0.0021 0.01172,-0.0039 0.0022,-9.1e-4 0.0049,-0.0022 0.0078,-0.0039 0.0029,-0.0017 0.01142,-0.0056 0.01172,-0.0059 0.02392,-0.02238 0.02236,-0.03819 0.02734,-0.05859 0.005,-0.02041 0.008,-0.04475 0.01172,-0.07422 0.0075,-0.05894 0.01467,-0.136976 0.01953,-0.228515 0.0097,-0.183079 0.01367,-0.41942 0.01367,-0.65625 0,-0.236831 -0.0039,-0.473325 -0.01367,-0.65625 -0.0049,-0.09146 -0.01201,-0.169683 -0.01953,-0.228516 -0.0038,-0.02942 -0.0067,-0.05386 -0.01172,-0.07422 -0.005,-0.02036 -0.0049,-0.03617 -0.0293,-0.05859 -0.002,-0.0015 -0.0093,-0.0076 -0.0098,-0.0078 -4.83e-4,-2.75e-4 -0.0056,-0.003 -0.0078,-0.0039 -0.0044,-0.0018 -0.0082,-0.003 -0.01172,-0.0039 -0.007,-0.0018 -0.01347,-0.0027 -0.02148,-0.0039 -0.01603,-0.0024 -0.03515,-0.0039 -0.06055,-0.0059 -0.0508,-0.004 -0.122252,-0.0084 -0.210937,-0.01172 -0.177369,-0.0067 -0.426398,-0.01118 -0.722656,-0.01563 -0.592517,-0.0089 -1.374821,-0.01367 -2.158204,-0.01367 z m 0,0.09961 c 0.783005,0 1.564556,0.0048 2.15625,0.01367 0.295848,0.0044 0.544769,0.01095 0.720704,0.01758 0.08797,0.0033 0.158786,0.006 0.207031,0.0098 0.02242,0.0018 0.03887,0.0042 0.05078,0.0059 0.0011,0.0024 -8.13e-4,-0.0014 0,0.002 0.0035,0.0141 0.0082,0.03528 0.01172,0.0625 0.007,0.05444 0.01279,0.130654 0.01758,0.220703 0.0096,0.180097 0.01367,0.416876 0.01367,0.652344 0,0.235467 -0.0041,0.470135 -0.01367,0.65039 -0.0048,0.09013 -0.01062,0.166139 -0.01758,0.220703 -0.0035,0.02728 -0.0083,0.05026 -0.01172,0.06445 -8.15e-4,0.0033 0.0011,-4.73e-4 0,0.002 -0.01193,0.0017 -0.03023,0.0041 -0.05273,0.0059 -0.04829,0.0038 -0.117058,0.0064 -0.205078,0.0098 -0.176041,0.0067 -0.424781,0.01311 -0.720704,0.01758 -0.591844,0.0089 -1.3752,0.01375 -2.158203,0.01367 -0.783002,-7.8e-5 -1.566509,-0.0047 -2.158203,-0.01367 -0.295847,-0.0045 -0.542815,-0.01092 -0.71875,-0.01758 -0.08797,-0.0033 -0.158786,-0.006 -0.207031,-0.0098 -0.02242,-0.0018 -0.03886,-0.0042 -0.05078,-0.0059 -0.0011,-0.0024 8.04e-4,0.0014 0,-0.002 -0.0034,-0.01416 -0.0083,-0.03525 -0.01172,-0.0625 -0.0069,-0.05451 -0.01282,-0.132548 -0.01758,-0.222656 -0.0095,-0.180216 -0.01359,-0.414839 -0.01367,-0.65039 -7.8e-5,-0.235552 0.0042,-0.472148 0.01367,-0.652344 0.0047,-0.0901 0.01065,-0.166233 0.01758,-0.220703 0.0035,-0.02724 0.0083,-0.04839 0.01172,-0.0625 8.11e-4,-0.0033 -0.0011,4.43e-4 0,-0.002 0.01196,-0.0017 0.02833,-0.0041 0.05078,-0.0059 0.04832,-0.0038 0.119005,-0.0065 0.207031,-0.0098 0.176053,-0.0066 0.424778,-0.01314 0.720703,-0.01758 0.591851,-0.0089 1.375199,-0.01367 2.158203,-0.01367 z"
         id="path16" /><path
         style="baseline-shift:baseline;display:inline;overflow:visible;vector-effect:none;paint-order:markers stroke fill;enable-background:accumulate;stop-color:#000000;stop-opacity:1"
         d="M 23.281769,12.507534 V 14.04231 H 36.367227 V 10.971513 H 23.281769 Z m 1.930927,-0.842133 c 0,0.286525 -0.005,0.295245 -0.113364,0.295245 -0.104644,0 -0.11461,-0.01744 -0.11461,-0.180635 v -0.176898 h -0.840888 v 1.808843 l 0.10589,0.02118 c 0.05357,0.01246 0.245415,0.02118 0.41733,0.01246 l 0.317668,-0.01246 -0.01246,-0.181881 c -0.0137,-0.171915 -0.0137,-0.175652 0.122084,-0.175652 h 0.140771 v 0.587998 h -0.59049 c -0.832168,0 -0.772371,0.08471 -0.772371,-1.143607 0,-1.245759 -0.04609,-1.178488 0.772371,-1.161047 l 0.568066,0.01246 z m 1.666827,-0.242923 c 0.06852,0.05855 0.08222,0.134542 0.08222,0.538168 0,0.306457 -0.01868,0.492075 -0.05481,0.538168 -0.04983,0.05481 -0.154475,0.07101 -0.535677,0.07973 l -0.477126,0.01246 -0.0137,0.408609 c -0.0137,0.394906 -0.0087,0.407363 0.09094,0.421066 0.07724,0.0075 0.108381,0.04609 0.118347,0.12956 l 0.01246,0.113363 h -0.317669 c -0.317669,0 -0.322652,0 -0.322652,-0.108381 0,-0.07225 0.02741,-0.118347 0.09094,-0.130804 0.0872,-0.02118 0.09094,-0.05855 0.09094,-0.921862 0,-0.870787 -0.0037,-0.899438 -0.09094,-0.899438 -0.07225,0 -0.09094,-0.0299 -0.09094,-0.127068 v -0.124576 h 0.668973 c 0.554364,0 0.676448,0.01246 0.748702,0.07101 z m 1.673055,0.242923 c 0,0.307703 -0.005,0.316423 -0.11461,0.316423 -0.103399,0 -0.112118,-0.01744 -0.112118,-0.189355 v -0.189356 h -0.864558 v 1.808843 l 0.104644,0.02118 c 0.05481,0.01246 0.245415,0.02118 0.418575,0.01246 l 0.317669,-0.01246 0.0137,-0.176898 c 0.0137,-0.159457 0.02741,-0.180635 0.127068,-0.180635 0.104644,0 0.109626,0.0075 0.109626,0.294 v 0.293998 h -0.578032 c -0.472143,0 -0.59049,-0.01246 -0.657761,-0.07101 -0.0735,-0.06229 -0.08222,-0.151983 -0.08222,-1.090039 0,-1.24576 -0.06353,-1.152328 0.758667,-1.152328 h 0.559346 z m 7.078405,-0.138279 c 0.07724,0.07101 0.07724,1.888571 0,1.960825 -0.07724,0.07225 -6.26617,0.07101 -6.342161,0 -0.07599,-0.07101 -0.07724,-1.889817 0,-1.960825 0.07724,-0.07101 6.26617,-0.07101 6.342161,0 z"
         id="path17" /></g><path
       d="m 25.871703,11.981824 v 0.378711 h 0.863311 v -0.757422 h -0.863311 z"
       id="path4"
       style="stroke-width:1.00009;stroke-dasharray:none" /><path
       d="m 29.661304,11.910816 a 1.1560648,1.1560648 0 0 0 -0.01,0.306457 l 0.0137,0.247906 0.772371,0.01246 c 0.427296,0.005 0.818465,0 0.877015,-0.01246 0.09592,-0.02118 0.104644,-0.04236 0.09094,-0.307703 l -0.01246,-0.281542 -0.854591,-0.01246 c -0.691397,-0.0087 -0.854591,0 -0.877014,0.04609 z"
       fill="#800000"
       id="path5"
       style="stroke-width:1.00009;stroke-dasharray:none" /><path
       d="m 33.523158,11.910816 a 1.1560648,1.1560648 0 0 0 -0.0087,0.306457 l 0.01246,0.247906 h 1.727868 v -0.589245 l -0.854591,-0.01246 c -0.690151,-0.0087 -0.854591,0 -0.877014,0.04609 z"
       fill="#000080"
       id="path6"
       style="stroke-width:1.00009;stroke-dasharray:none" /><path
       d="m 31.595969,12.171179 v 0.274067 h 1.726622 v -0.548134 h -1.726622 z"
       fill="#008000"
       id="path7"
       style="stroke-width:1.00009;stroke-dasharray:none" /><path
       d="m 29.675007,12.595984 c -0.01869,0.0162 -0.03239,0.150737 -0.03239,0.298982 v 0.264101 l 0.877015,-0.0087 0.872031,-0.01246 v -0.546889 l -0.844624,-0.01246 c -0.463423,-0.0037 -0.854591,0.005 -0.872032,0.01744 z"
       fill="#800000"
       id="path8"
       style="stroke-width:1.00009;stroke-dasharray:none" /><path
       d="m 33.536862,12.595984 c -0.01869,0.0162 -0.03239,0.150737 -0.03239,0.298982 v 0.264101 h 1.777699 L 35.268471,12.872542 35.254771,12.591 34.4089,12.57854 c -0.463421,-0.0037 -0.853344,0.005 -0.872031,0.01744 z"
       fill="#000080"
       id="path9"
       style="stroke-width:1.00009;stroke-dasharray:none" /><path
       d="m 31.595969,12.886245 v 0.274068 h 1.726622 v -0.548135 h -1.726622 z"
       fill="#008000"
       id="path10"
       style="stroke-width:1.00009;stroke-dasharray:none" /></g></svg>
