<?xml version="1.0" encoding="UTF-8" standalone="no"?>
<svg
   version="1.2"
   width="564.703"
   height="165.918"
   xml:space="preserve"
   id="svg9"
   sodipodi:docname="apple2.svg"
   inkscape:version="1.4.3 (0d15f75042, 2025-12-25)"
   xmlns:inkscape="http://www.inkscape.org/namespaces/inkscape"
   xmlns:sodipodi="http://sodipodi.sourceforge.net/DTD/sodipodi-0.dtd"
   xmlns="http://www.w3.org/2000/svg"
   xmlns:svg="http://www.w3.org/2000/svg"><defs
   id="defs9" /><sodipodi:namedview
   id="namedview9"
   pagecolor="#aeaeae"
   bordercolor="#000000"
   borderopacity="0.25"
   inkscape:showpageshadow="2"
   inkscape:pageopacity="0.0"
   inkscape:pagecheckerboard="0"
   inkscape:deskcolor="#d1d1d1"
   inkscape:zoom="1.5716226"
   inkscape:cx="282.51057"
   inkscape:cy="83.035202"
   inkscape:window-width="1920"
   inkscape:window-height="1080"
   inkscape:window-x="0"
   inkscape:window-y="0"
   inkscape:window-maximized="0"
   inkscape:current-layer="path5" />
    
    
    
    
    
    
    <g
   id="g27"><path
     style="baseline-shift:baseline;display:inline;overflow:visible;vector-effect:none;fill:#ffffff;stroke-linecap:round;stroke-linejoin:round;paint-order:markers stroke fill;enable-background:accumulate;stop-color:#000000"
     d="m 118.75391,4.6308594 -0.41797,0.078125 c -11.112,2.0968007 -20.392154,6.5763236 -26.847659,13.8027346 -6.455876,7.226826 -9.66218,16.876806 -9.873047,27.691406 l -0.0078,0.353516 a 7.50075,7.50075 0 0 0 8.566406,7.585937 l 0.396484,-0.05664 a 7.50075,7.50075 0 0 0 0.0039,0 C 101.15662,52.557776 110.01241,48.82457 116.41992,42.341797 a 7.50075,7.50075 0 0 0 0.002,-0.002 c 7.22974,-7.317583 10.75057,-17.585351 11.20507,-29.660156 v -0.0039 l 0.0137,-0.390625 a 7.50075,7.50075 0 0 0 -8.88672,-7.6542966 z m -7.79297,17.9960936 c -1.17232,3.809561 -2.88135,6.812032 -5.21094,9.169922 -1.96699,1.989807 -4.47223,3.616762 -7.630859,4.912109 1.027658,-3.235248 2.533889,-5.941009 4.554689,-8.203125 2.06629,-2.313042 4.82873,-4.272586 8.28711,-5.878906 z"
     id="path10" /><path
     style="baseline-shift:baseline;display:inline;overflow:visible;vector-effect:none;fill:#008000;stroke-linecap:round;stroke-linejoin:round;paint-order:markers stroke fill;enable-background:accumulate;stop-color:#000000"
     d="m 111.086,37.069 c 5.679,-5.748 8.638,-13.819 9.046,-24.675 L 120.147,12 119.729,12.079 C 99.784,15.842 89.484,27.373 89.114,46.349 l -0.008,0.37 0.396,-0.057 c 9.501,-1.372 16.561,-4.511 21.584,-9.593 z"
     id="path11" /><g
     id="path5"
     style="opacity:1"><path
       style="opacity:1;baseline-shift:baseline;display:inline;overflow:visible;vector-effect:none;fill:#ffffff;stroke-linecap:round;stroke-linejoin:round;paint-order:markers stroke fill;enable-background:accumulate;stop-color:#000000;stop-opacity:1"
       d="m 33.580078,54.503906 a 7.50075,7.50075 0 0 0 -6.279297,3.396485 l -0.09766,0.15039 c -4.040311,6.182703 -6.655843,13.24711 -7.884766,20.738281 a 7.50075,7.50075 0 0 0 7.400391,8.714844 l 106.97266,0.002 a 7.50075,7.50075 0 0 0 7.31836,-5.859375 c 0.94736,-4.225614 3.60587,-8.794693 8.76757,-13.654297 a 7.50075,7.50075 0 0 0 0.004,-0.0039 l 0.56055,-0.529297 a 7.50075,7.50075 0 0 0 -5.14649,-12.955078 z m 6.179688,11.751953 a 7.50075,7.50075 0 0 0 0.002,0 l -0.0078,0.01367 c 0.0027,-0.0041 0.0032,-0.0096 0.0059,-0.01367 z m -1.640625,3.248047 H 129.8457 c -0.53485,0.997128 -1.13051,1.977416 -1.5664,3.001953 l -91.673831,-0.002 c 0.427032,-1.059865 1.001436,-2.004668 1.513672,-3 z"
       id="path16" /><path
       style="opacity:1;baseline-shift:baseline;display:inline;overflow:visible;vector-effect:none;fill:#ffffff;stroke-linecap:round;stroke-linejoin:round;paint-order:markers stroke fill;enable-background:accumulate;stop-color:#000000;stop-opacity:1"
       d="m 26.728516,72.509766 a 7.50075,7.50075 0 0 0 -7.40625,6.316406 l -0.04102,0.263672 a 7.50075,7.50075 0 0 0 -0.002,0.0039 c -1.031247,6.480331 -1.020375,13.121489 -0.08789,19.740234 a 7.50075,7.50075 0 0 0 7.427735,6.453126 H 136.30664 l -0.41602,-0.41602 a 7.50075,7.50075 0 0 0 7.91602,-7.083981 7.50075,7.50075 0 0 0 -1.39648,-3.36914 l 0.52929,-0.13086 c -2.05971,-3.902013 -2.92124,-7.864674 -1.97461,-12.365234 l 0.0762,-0.365234 a 7.50075,7.50075 0 0 0 -7.3379,-9.046875 z m 6.886718,15 h 92.199216 c 0.0644,0.929496 0.0801,1.872676 0.22071,2.777343 H 33.59375 c -0.02092,-0.93414 -0.0079,-1.855466 0.02148,-2.777343 z"
       id="path18" /><path
       style="opacity:1;baseline-shift:baseline;display:inline;overflow:visible;vector-effect:none;fill:#ffffff;stroke-linecap:round;stroke-linejoin:round;paint-order:markers stroke fill;enable-background:accumulate;stop-color:#000000;stop-opacity:1"
       d="m 66.214844,37.351562 -0.341797,0.002 a 7.50075,7.50075 0 0 0 -0.0332,0 c -15.931949,0.163636 -30.08268,7.693949 -38.525391,20.527343 a 7.50075,7.50075 0 0 0 6.265625,11.623047 H 145.20312 a 7.50075,7.50075 0 0 0 5.06836,-1.972656 c 1.20208,-1.102317 2.45243,-2.151294 3.7461,-3.144531 a 7.50075,7.50075 0 0 0 0.004,-0.0039 l 0.25391,-0.195312 a 7.50075,7.50075 0 0 0 1.05273,-10.908203 l -0.19921,-0.226563 -0.01,-0.01172 c -8.75816,-9.95872 -21.18795,-15.471899 -34.82031,-15.669922 a 7.50075,7.50075 0 0 0 -0.0684,0 l -0.53906,-0.0039 a 7.50075,7.50075 0 0 0 -0.043,0 c -6.82921,0 -13.12809,1.112082 -18.53125,3.738282 v -0.002 c -2.14171,1.040411 -3.993657,1.667807 -5.250003,2.021484 -0.61328,0.172646 -1.072647,0.27741 -1.363281,0.337891 -0.20775,0.0028 -0.443251,0.0059 -0.886719,0.0059 -0.672502,0 -1.303667,-0.0048 -1.757812,-0.01172 -0.147636,-0.0022 -0.233516,-0.0036 -0.333984,-0.0059 -1.31582,-0.164863 -4.953471,-0.868037 -6.859375,-1.804688 a 7.50075,7.50075 0 0 0 0,-0.002 C 78.942012,38.833113 72.650593,37.364897 66.273437,37.351562 a 7.50075,7.50075 0 0 0 -0.05859,0 z m 0.02734,15 c 6.51e-4,2e-6 0.0013,-1e-6 0.002,0 3.490786,0.0076 6.894442,0.831603 10.113281,2.152344 H 54.683594 c 3.44793,-1.242705 7.13442,-2.107518 11.308593,-2.15039 z m 53.402343,0.01563 0.43555,0.0039 c 4.17555,0.06065 7.90321,0.864745 11.36328,2.132812 h -23.47852 c 2.63875,-1.220121 6.72754,-2.136201 11.67969,-2.136719 z"
       id="path14" /><path
       style="opacity:1;baseline-shift:baseline;display:inline;overflow:visible;vector-effect:none;fill:#ffffff;stroke-linecap:round;stroke-linejoin:round;paint-order:markers stroke fill;enable-background:accumulate;stop-color:#000000;stop-opacity:1"
       d="m 42.447266,127.17578 a 7.50075,7.50075 0 0 0 -5.994141,12.00586 l 0.365234,0.48633 c 3.547987,4.71989 7.585561,9.27219 12.009766,13.56445 a 7.50075,7.50075 0 0 0 0.002,0.002 c 5.03743,4.88315 12.021615,6.875 19.423828,6.875 5.474888,0 10.724782,-0.9216 15.351563,-3.33593 l 0.002,-0.002 c 5.109216,-2.66352 5.849078,-2.32622 8.185547,-2.32812 0.493186,0 1.063021,-2.5e-4 1.74414,-0.0371 a 7.50075,7.50075 0 0 0 0.02344,0 l 0.382812,-0.0234 a 7.50075,7.50075 0 0 0 0.01367,0 c 0.529101,-0.0312 0.870793,-0.0508 1.185547,-0.0508 1.180923,0 2.500332,-0.0712 7.394532,2.48047 a 7.50075,7.50075 0 0 0 0.75977,0.34375 c 4.68106,1.81225 9.41983,2.80859 14.09765,2.80859 h 0.002 c 12.70454,0 23.8493,-7.79984 32.52735,-20.60742 a 7.50075,7.50075 0 0 0 0.002,-0.004 l 0.32227,-0.47657 a 7.50075,7.50075 0 0 0 -6.21289,-11.70117 z m 16.546875,15 h 20.654296 c -0.982855,0.40936 -1.930212,0.75031 -2.978515,1.29688 a 7.50075,7.50075 0 0 0 -0.002,0.002 c -1.250663,0.65278 -5.105851,1.63477 -8.414063,1.63476 -4.580153,0 -7.685025,-1.38607 -8.982422,-2.64257 l -0.002,-0.002 c -0.09676,-0.0939 -0.179085,-0.19493 -0.27539,-0.28906 z m 47.546879,0 h 20.24218 c -3.07066,1.91098 -6.13333,2.78906 -9.38672,2.78906 h -0.002 c -2.52928,0 -5.45044,-0.54836 -8.66601,-1.79101 -0.76098,-0.38001 -1.47198,-0.68663 -2.1875,-0.99805 z"
       id="path12" /><path
       style="opacity:1;baseline-shift:baseline;display:inline;overflow:visible;vector-effect:none;fill:#ffffff;stroke-linecap:round;stroke-linejoin:round;paint-order:markers stroke fill;enable-background:accumulate;stop-color:#000000;stop-opacity:1"
       d="m 26.615234,90.287109 a 7.50075,7.50075 0 0 0 -7.425781,8.560547 l 0.05078,0.34961 a 7.50075,7.50075 0 0 0 0.002,0.01563 c 0.830438,5.729569 2.519496,12.619299 5.728516,20.166019 a 7.50075,7.50075 0 0 0 6.902344,4.56445 H 154.12305 a 7.50075,7.50075 0 0 0 6.70507,-4.13867 l 0.71485,-1.42774 a 7.50075,7.50075 0 0 0 -3.59375,-10.18554 l -0.29297,-0.13477 0.004,0.004 c -4.39269,-2.00603 -11.21749,-7.16056 -14.65235,-13.621097 l -0.084,-0.158203 a 7.50075,7.50075 0 0 0 -6.63086,-3.994141 z M 129.75391,101.4668 a 7.50075,7.50075 0 0 0 0.01,0.0156 c 1.47336,2.77121 3.20839,5.22357 5.07031,7.46094 H 37.179687 c -0.419311,-1.21784 -0.948448,-2.50609 -1.27539,-3.65625 h 95.871093 z"
       id="path20" /><path
       style="opacity:1;baseline-shift:baseline;display:inline;overflow:visible;vector-effect:none;fill:#ffffff;stroke-linecap:round;stroke-linejoin:round;paint-order:markers stroke fill;enable-background:accumulate;stop-color:#000000;stop-opacity:1"
       d="m 31.892578,108.94531 a 7.50075,7.50075 0 0 0 -6.876953,10.49219 l 0.181641,0.41797 c 2.91321,6.71423 6.682881,13.16003 11.230468,19.28906 a 7.50075,7.50075 0 0 0 6.021485,3.03125 H 144.02539 a 7.50075,7.50075 0 0 0 6.23242,-3.33008 c 4.2335,-6.32842 7.54812,-12.99291 10.35742,-18.60351 a 7.50075,7.50075 0 0 0 0.002,-0.004 l 0.2207,-0.43945 a 7.50075,7.50075 0 0 0 -6.70898,-10.85352 z m 12.443359,15 h 97.357423 c -0.61862,1.10471 -1.27401,2.1589 -1.92188,3.23047 H 46.470703 c -0.730226,-1.07286 -1.46435,-2.14397 -2.134766,-3.23047 z"
       id="path22" /><path
       style="opacity:1;baseline-shift:baseline;display:inline;overflow:visible;vector-effect:none;fill:#ff0000;stroke-linecap:round;stroke-linejoin:round;paint-order:markers stroke fill;enable-background:accumulate;stop-color:#000000;stop-opacity:1"
       d="m 31.874,116.444 h 122.249 l 0.716,-1.428 -0.294,-0.134 c -5.851,-2.672 -13.694,-8.521 -18.16,-16.921 l -0.092,-0.174 H 26.615 l 0.05,0.35 c 0.746,5.147 2.271,11.4 5.208,18.307 z"
       id="path21" /><path
       style="opacity:1;baseline-shift:baseline;display:inline;overflow:visible;vector-effect:none;fill:#008000;stroke-linecap:round;stroke-linejoin:round;paint-order:markers stroke fill;enable-background:accumulate;stop-color:#000000;stop-opacity:1"
       d="m 145.203,62.003 a 63.502,63.502 0 0 1 4.247,-3.566 l 0.255,-0.196 -0.21,-0.238 c -7.4,-8.42 -17.534,-12.961 -29.306,-13.132 l -0.54,-0.003 c -5.965,0 -11.24,1.031 -15.254,2.982 -5.206,2.529 -9.078,3.09 -9.115,3.095 -0.068,0.009 -0.495,0.024 -1.663,0.024 -1.419,0 -2.644,-0.021 -2.79,-0.04 l -0.094,-0.012 c -1.67,-0.199 -5.925,-0.845 -9.374,-2.54 A 34.417,34.417 0 0 0 66.258,44.852 l -0.342,0.002 C 52.188,44.995 40.711,51.165 33.581,62.003 Z"
       id="path15" /><path
       style="opacity:1;baseline-shift:baseline;display:inline;overflow:visible;vector-effect:none;fill:#ff6600;stroke-linecap:round;stroke-linejoin:round;paint-order:markers stroke fill;enable-background:accumulate;stop-color:#000000;stop-opacity:1"
       d="m 136.307,97.788 c -2.7,-5.115 -4.025,-11.024 -2.682,-17.409 l 0.078,-0.37 H 26.729 l -0.042,0.263 c -0.905,5.687 -0.905,11.574 -0.068,17.515 h 109.688 z"
       id="path19" /><path
       style="opacity:1;baseline-shift:baseline;display:inline;overflow:visible;vector-effect:none;fill:#800080;stroke-linecap:round;stroke-linejoin:round;paint-order:markers stroke fill;enable-background:accumulate;stop-color:#000000;stop-opacity:1"
       d="m 42.45,134.675 h 101.575 c 3.878,-5.797 7.075,-12.18 9.884,-17.79 l 0.22,-0.44 H 31.893 l 0.185,0.425 c 2.671,6.156 6.142,12.104 10.372,17.805 z"
       id="path23" /><path
       style="opacity:1;baseline-shift:baseline;display:inline;overflow:visible;vector-effect:none;fill:#ffff00;stroke-linecap:round;stroke-linejoin:round;paint-order:markers stroke fill;enable-background:accumulate;stop-color:#000000;stop-opacity:1"
       d="m 133.692,80.005 c 1.351,-6.026 4.998,-11.876 10.944,-17.474 l 0.56,-0.528 H 33.58 l -0.098,0.15 c -3.421,5.235 -5.687,11.291 -6.763,17.85 z"
       id="path17" /><path
       style="opacity:1;baseline-shift:baseline;display:inline;overflow:visible;vector-effect:none;fill:#0000ff;stroke-linecap:round;stroke-linejoin:round;paint-order:markers stroke fill;enable-background:accumulate;stop-color:#000000;stop-opacity:1"
       d="m 42.448,134.675 0.366,0.487 c 3.297,4.386 7.078,8.653 11.236,12.687 3.167,3.07 8.212,4.76 14.204,4.76 4.392,0 8.945,-0.952 11.884,-2.486 6.08,-3.17 9.303,-3.177 11.655,-3.18 0.472,0 0.913,-0.002 1.338,-0.025 l 0.384,-0.022 c 0.509,-0.03 1.034,-0.063 1.627,-0.063 2.085,0 5.2,0.377 10.862,3.329 3.952,1.53 7.784,2.303 11.39,2.303 h 0.002 c 9.818,0 18.427,-5.668 26.318,-17.314 l 0.322,-0.476 z"
       id="path13" /></g><g
     id="path6"
     style="opacity:1" /><g
     id="path7"
     style="opacity:1" /></g>
    <path
   style="baseline-shift:baseline;display:inline;overflow:visible;vector-effect:none;fill:#ffffff;stroke-linecap:round;stroke-linejoin:round;paint-order:markers stroke fill;enable-background:accumulate;stop-color:#000000"
   d="m 369.53906,37.150391 a 7.50075,7.50075 0 0 0 -7.5,7.5 v 22.857421 c -1.3072,-1.784928 -2.80338,-3.459482 -4.48633,-4.99414 -6.7767,-6.185137 -15.43399,-9.455078 -24.76953,-9.455078 h -38.39453 a 7.50075,7.50075 0 0 0 -7.5,7.5 v 6.939453 c -1.30562,-1.781309 -2.80025,-3.45444 -4.48047,-4.986328 -6.78288,-6.185074 -15.44893,-9.452664 -24.78515,-9.453125 h -38.39063 a 7.50075,7.50075 0 0 0 -5.5957,2.90039 7.50075,7.50075 0 0 0 -5.59375,-2.90039 h -37.6543 c -9.63825,0 -18.49392,3.238671 -25.32031,9.49414 a 7.50075,7.50075 0 0 0 0,0.002 c -6.72516,6.165333 -10.62109,14.267325 -10.62109,22.837891 0,8.615625 4.12334,16.747445 11.11328,23.095705 3.9e-4,3.6e-4 0.002,-3.5e-4 0.002,0 0.001,9.6e-4 8.9e-4,0.003 0.002,0.004 7.03185,6.39073 15.74706,9.85351 25.02539,9.85351 h 10.99024 a 7.50075,7.50075 0 0 0 4.70703,-1.95117 7.50075,7.50075 0 0 0 4.70703,1.95117 h 17.04883 a 7.50075,7.50075 0 0 0 3.68945,-1.52929 v 9.9414 a 7.50075,7.50075 0 0 0 7.5,7.5 h 17.06641 a 7.50075,7.50075 0 0 0 7.5,-7.5 v -9.20117 a 7.50075,7.50075 0 0 0 1.91015,0.79102 h 11.49414 c 9.48625,0 18.21153,-3.09677 25.0625,-9.06641 a 7.50075,7.50075 0 0 0 0.004,-0.002 c 1.73597,-1.51401 3.27389,-3.18352 4.61914,-4.9668 v 22.44531 a 7.50075,7.50075 0 0 0 7.5,7.5 h 17.04688 a 7.50075,7.50075 0 0 0 7.5,-7.5 v -9.20898 a 7.50075,7.50075 0 0 0 1.92773,0.79883 h 11.49414 c 9.485,0 18.199,-3.10066 25.04492,-9.06836 a 7.50075,7.50075 0 0 0 0.002,0 c 1.74242,-1.51937 3.28523,-3.19566 4.63476,-4.98633 v 6.55469 a 7.50075,7.50075 0 0 0 7.5,7.5 h 17.04883 a 7.50075,7.50075 0 0 0 7.5,-7.5 v -8.07618 c 1.998,2.72813 4.29794,5.27597 7.19141,7.34766 a 7.50075,7.50075 0 0 0 0.01,0.008 c 7.72008,5.51088 17.18635,8.22071 27.73047,8.22071 h 34.16211 a 7.50075,7.50075 0 0 0 7.5,-7.5 V 99.203125 a 7.50075,7.50075 0 0 0 -7.5,-7.5 h -4.73047 l 10.61524,-13.410156 a 7.50075,7.50075 0 0 0 1.61914,-4.654297 V 60.558594 a 7.50075,7.50075 0 0 0 -7.5,-7.5 h -34.06446 c -10.52714,0 -20.19459,3.149467 -28.18554,9.308593 -2.72435,2.099064 -4.92183,4.512096 -6.84766,7.044922 V 44.650391 a 7.50075,7.50075 0 0 0 -7.5,-7.5 z m 112.72071,0 a 7.50075,7.50075 0 0 0 -7.5,7.5 v 8.892578 a 7.50075,7.50075 0 0 0 7.5,7.5 h 4.76562 v 33.427734 h -4.76367 a 7.50075,7.50075 0 0 0 -7.5,7.499997 v 8.91016 a 7.50075,7.50075 0 0 0 7.5,7.5 h 26.97851 a 7.50075,7.50075 0 0 0 4.20508,-1.74219 7.50075,7.50075 0 0 0 4.20313,1.74219 h 26.98242 a 7.50075,7.50075 0 0 0 7.5,-7.5 v -8.91016 a 7.50075,7.50075 0 0 0 -7.5,-7.499997 h -4.76563 V 61.042969 h 4.76563 a 7.50075,7.50075 0 0 0 7.5,-7.5 v -8.892578 a 7.50075,7.50075 0 0 0 -7.5,-7.5 h -26.98242 a 7.50075,7.50075 0 0 0 -4.20313,1.742187 7.50075,7.50075 0 0 0 -4.20508,-1.742187 z m -105.22071,15 h 2.04883 v 51.197269 h -2.04883 z m 124.23633,0 h 0.46484 v 2.183593 c -0.11337,-0.746686 -0.18722,-1.508161 -0.46484,-2.183593 z m 23.87305,0 h 0.46679 c -0.27886,0.678445 -0.3537,1.443062 -0.46679,2.193359 z M 195.9375,68.058594 h 4.60547 V 103.3457 h -2.04883 V 74.335937 c 0,-2.465544 -1.04007,-4.601179 -2.55664,-6.277343 z m 30.79492,0 h 4.62305 c -1.51567,1.675643 -2.55664,3.810458 -2.55664,6.277343 v 44.921873 h -2.06641 z m 75.15625,0 h 4.59375 c -1.51078,1.672837 -2.54687,3.804618 -2.54687,6.277343 v 44.921873 h -2.04688 z m 147.28516,0 h 6.51172 v 2.970703 l -4.51368,5.703125 c 0.57664,-2.223913 0.4468,-4.611803 -0.63281,-6.726563 -0.37104,-0.728419 -0.85073,-1.358563 -1.36523,-1.947265 z m -110.23828,0.802734 c 3.11978,0.817172 5.82032,2.279369 8.50586,4.730469 a 7.50075,7.50075 0 0 0 0.002,0.0039 c 4.26461,3.888204 5.74414,7.236641 5.74414,12.59375 0,5.039045 -1.37029,8.057834 -5.64258,11.783203 -2.2625,1.972035 -4.58864,3.3273 -7.2207,4.19922 0.16602,-0.11245 0.35202,-0.1858 0.51562,-0.30274 l 0.004,-0.004 c 4.97797,-3.555406 8.24219,-9.390424 8.24219,-15.595695 0,-5.966438 -2.92093,-11.488312 -7.25196,-15.3125 a 7.50075,7.50075 0 0 0 -0.002,-0.002 c -0.90136,-0.795268 -1.89806,-1.44851 -2.89648,-2.09375 z m -75.14844,0.002 c 3.12261,0.818799 5.8292,2.284546 8.51367,4.732422 4.26503,3.887888 5.74414,7.235947 5.74414,12.59375 0,5.041987 -1.36605,8.05904 -5.63281,11.78125 -2.25523,1.965113 -4.58169,3.32175 -7.21289,4.19532 0.16517,-0.11201 0.34891,-0.18626 0.51172,-0.30274 4.98908,-3.56686 8.2207,-9.416765 8.2207,-15.593752 0,-5.966438 -2.91998,-11.486443 -7.24805,-15.310547 a 7.50075,7.50075 0 0 0 -0.004,-0.0039 c -0.90041,-0.794675 -1.89531,-1.446984 -2.89258,-2.091797 z M 161.94336,69.375 c -0.32282,0.235138 -0.68045,0.405831 -0.99219,0.660156 -4.6508,3.792004 -7.39062,9.591003 -7.39062,15.533203 0,5.95459 2.81508,11.660404 7.34375,15.478521 -1.76,-0.92115 -3.4887,-2.053496 -5.25391,-3.658208 a 7.50075,7.50075 0 0 0 -0.002,-0.002 c -4.78352,-4.343188 -6.20117,-7.651487 -6.20117,-11.994141 0,-4.575434 1.35897,-7.748582 5.75781,-11.78125 2.12111,-1.943324 4.28042,-3.331923 6.73828,-4.236328 z m 249.4082,4.048828 c -2.57626,3.394262 -4.09179,7.568701 -4.09179,11.878906 0,5.70702 2.58329,11.136127 6.72851,14.986326 -1.39721,-0.679351 -2.71669,-1.466523 -3.97656,-2.365232 l -0.006,-0.0039 c -7.3e-4,-5.21e-4 -10e-4,-0.0014 -0.002,-0.002 -5.32002,-3.811227 -6.83985,-6.795299 -6.83985,-12.445313 0,-3.971828 1.3493,-6.924559 6.92774,-11.222656 a 7.50075,7.50075 0 0 0 0,-0.002 c 0.41052,-0.316414 0.84446,-0.532954 1.25976,-0.824219 z m -234.50195,6.28125 h 6.64453 v 12.789063 a 7.50075,7.50075 0 0 0 -1.91406,-0.792969 h -4.5293 c -2.84425,0 -4.87584,-0.769672 -6.4707,-2.109375 a 7.50075,7.50075 0 0 0 -0.002,-0.002 c -1.53679,-1.289834 -2.01757,-2.421425 -2.01757,-4.021485 0,-1.705799 0.49794,-2.790206 1.86914,-3.908203 a 7.50075,7.50075 0 0 0 0.002,-0.002 c 1.48962,-1.215475 3.48306,-1.953125 6.41797,-1.953125 z m 66.94922,0 h 5.82031 c 3.05269,0 5.28043,0.861469 7.13477,2.498047 1.71463,1.516244 2.17773,2.733886 2.17773,4.066406 0,1.363151 -0.40096,2.289135 -1.94531,3.392578 a 7.50075,7.50075 0 0 0 -0.004,0.002 c -1.77581,1.27048 -4.13274,2.039063 -7.36328,2.039063 h -3.91016 a 7.50075,7.50075 0 0 0 -1.91015,0.791016 z m 75.13672,0 h 5.83789 c 3.05269,0 5.2777,0.859562 7.13476,2.498047 1.71684,1.516743 2.17774,2.733517 2.17774,4.066406 0,1.344856 -0.40745,2.281736 -1.96094,3.390625 a 7.50075,7.50075 0 0 0 -0.006,0.0039 c -1.78212,1.274922 -4.11723,2.039063 -7.3457,2.039063 h -3.91016 a 7.50075,7.50075 0 0 0 -1.92773,0.798828 z m 111.45117,0.05664 -4.83008,5.763672 a 7.50075,7.50075 0 0 0 -1.29492,3.916015 c -1.46865,-1.273394 -2.00195,-2.449491 -2.00195,-4.138672 0,-1.538306 0.45372,-2.554937 1.82226,-3.671875 1.33528,-1.088116 3.35461,-1.799983 6.30469,-1.86914 z m 94.76172,21.406252 c 0.11438,0.75679 0.18715,1.52885 0.4707,2.21289 h -0.4707 z m -23.40821,0.0195 v 2.19336 h -0.46289 c 0.27769,-0.67688 0.34943,-1.44302 0.46289,-2.19336 z"
   id="path24" /><path
   style="baseline-shift:baseline;display:inline;overflow:visible;vector-effect:none;fill:#808080;stroke-linecap:round;stroke-linejoin:round;paint-order:markers stroke fill;enable-background:accumulate;stop-color:#000000"
   d="m 369.54,44.65 v 66.197 h 17.048 V 44.65 Z m 112.72,0 v 8.893 h 10.017 c 1.243,0 2.248,0.955 2.248,2.132 v 44.163 c 0,1.179 -1.014,2.132 -2.248,2.132 h -10.016 v 8.91 h 26.98 V 44.65 Z m 35.388,0 v 66.23 h 26.982 v -8.91 h -10.017 c -1.244,0 -2.248,-0.953 -2.248,-2.132 V 55.675 c 0,-1.177 1.005,-2.132 2.248,-2.132 H 544.63 V 44.65 Z m -347.26,15.908 c -8.122,0 -14.728,2.463 -20.252,7.525 -5.562,5.099 -8.188,10.737 -8.188,17.31 0,6.48 2.77,12.2 8.658,17.546 5.873,5.339 12.396,7.907 19.984,7.907 h 10.99 V 99.202 h -4.53 c -4.35,0 -8.249,-1.31 -11.293,-3.867 -3.043,-2.554 -4.697,-5.982 -4.697,-9.767 0,-3.824 1.62,-7.266 4.631,-9.721 2.994,-2.443 6.837,-3.642 11.159,-3.642 h 11.896 c 1.242,0 2.248,0.953 2.248,2.13 v 36.511 h 17.048 V 60.558 Z m 48.845,0 v 66.199 h 17.065 V 74.335 c 0,-1.177 1.007,-2.13 2.248,-2.13 h 11.074 c 4.652,0 8.827,1.488 12.097,4.374 3.023,2.671 4.714,6.04 4.714,9.69 0,3.771 -1.816,7.16 -5.084,9.495 -3.226,2.308 -7.238,3.439 -11.728,3.439 h -3.91 v 11.644 h 11.494 c 8,0 14.578,-2.378 20.136,-7.221 5.553,-4.843 8.205,-10.486 8.205,-17.437 0,-7.204 -2.66,-13.095 -8.19,-18.136 -5.537,-5.049 -11.97,-7.494 -19.732,-7.494 z m 75.155,0 v 66.199 h 17.047 V 74.335 c 0,-1.177 1.012,-2.13 2.249,-2.13 h 11.09 c 4.652,0 8.825,1.488 12.096,4.374 3.025,2.671 4.716,6.04 4.716,9.69 0,3.776 -1.836,7.163 -5.103,9.495 -3.222,2.305 -7.218,3.439 -11.709,3.439 h -3.911 v 11.644 h 11.494 c 8,0 14.56,-2.376 20.118,-7.221 5.554,-4.843 8.212,-10.486 8.212,-17.437 0,-7.204 -2.661,-13.095 -8.19,-18.136 -5.533,-5.05 -11.953,-7.494 -19.714,-7.494 z m 134.733,0 c -9.123,0 -16.876,2.562 -23.607,7.75 -6.749,5.2 -9.85,10.768 -9.85,17.164 0,7.723 3.197,13.692 9.982,18.55 6.36,4.54 14.056,6.825 23.374,6.825 h 34.162 V 99.203 h -32.417 c -4.298,0 -8.174,-1.34 -11.24,-3.914 -3.084,-2.591 -4.766,-6.092 -4.766,-9.987 0,-3.719 1.622,-7.067 4.581,-9.482 2.986,-2.435 6.92,-3.61 11.426,-3.61 h 11.076 c 0.862,0 1.646,0.468 2.018,1.202 a 2.046,2.046 0 0 1 -0.255,2.25 l -12.3,14.68 h 18.66 L 463.186,73.639 V 60.558 Z"
   id="path25" />
    <path
   style="baseline-shift:baseline;display:inline;overflow:visible;vector-effect:none;fill:#ffffff;stroke-linecap:round;stroke-linejoin:round;paint-order:markers stroke fill;enable-background:accumulate;stop-color:#000000"
   d="m 509.44336,37.058594 -27.38477,0.002 a 7.50075,7.50075 0 0 0 -7.5,7.5 v 9.27539 a 7.50075,7.50075 0 0 0 7.5,7.5 h 4.76563 v 33.044922 h -4.76758 a 7.50075,7.50075 0 0 0 -7.5,7.500004 v 9.29297 a 7.50075,7.50075 0 0 0 7.5,7.5 h 27.38672 a 7.50075,7.50075 0 0 0 4.00195,-1.6582 7.50075,7.50075 0 0 0 4.00196,1.6582 h 27.38281 a 7.50075,7.50075 0 0 0 7.5,-7.5 v -9.29102 a 7.50075,7.50075 0 0 0 -7.5,-7.500001 h -4.75977 V 61.335937 h 4.75977 a 7.50075,7.50075 0 0 0 7.5,-7.5 v -9.277343 a 7.50075,7.50075 0 0 0 -7.5,-7.5 l -27.38281,0.002 a 7.50075,7.50075 0 0 0 -4,1.658203 7.50075,7.50075 0 0 0 -4.00391,-1.660156 z m -140.10547,0.002 a 7.50075,7.50075 0 0 0 -7.5,7.5 V 67.09575 c -1.23728,-1.635086 -2.59363,-3.202418 -4.15234,-4.623047 -6.82223,-6.223295 -15.53726,-9.5 -24.91993,-9.5 l -38.58007,-0.002 a 7.50075,7.50075 0 0 0 -7.5,7.5 v 6.597656 c -1.2323,-1.624756 -2.57743,-3.185102 -4.12696,-4.597656 -6.82779,-6.224913 -15.55144,-9.498047 -24.93554,-9.498047 l -38.58985,-0.002 h -0.002 a 7.50075,7.50075 0 0 0 -5.39453,2.414063 7.50075,7.50075 0 0 0 -5.39453,-2.414063 h -37.85352 c -9.68455,0 -18.58711,3.250502 -25.45312,9.542969 -6.76306,6.197356 -10.68946,14.346665 -10.68946,22.978515 0,8.669568 4.13764,16.8532 11.16602,23.24414 7.07096,6.42771 15.84609,9.90625 25.17969,9.90625 h 11.1914 a 7.50075,7.50075 0 0 0 4.5,-1.86524 7.50075,7.50075 0 0 0 4.50977,1.86914 h 17.44922 a 7.50075,7.50075 0 0 0 3.28906,-1.36328 v 9.76758 a 7.50075,7.50075 0 0 0 7.5,7.5 H 236.5 a 7.50075,7.50075 0 0 0 7.5,-7.5 v -9.03515 a 7.50075,7.50075 0 0 0 1.50977,0.625 h 11.69335 c 9.53035,0 18.3163,-3.10376 25.2129,-9.11719 l 0.004,-0.004 c 1.59717,-1.39134 2.99804,-2.93286 4.26563,-4.55273 v 22.08398 a 7.50075,7.50075 0 0 0 7.5,7.5 h 17.44922 a 7.50075,7.50075 0 0 0 7.5,-7.5 v -9.03906 a 7.50075,7.50075 0 0 0 1.51562,0.62891 h 11.69531 c 9.53088,0 18.30997,-3.10684 25.20117,-9.1211 1.60733,-1.39993 3.0178,-2.9509 4.29102,-4.58203 v 6.20313 a 7.50075,7.50075 0 0 0 7.5,7.5 h 17.44922 a 7.50075,7.50075 0 0 0 7.5,-7.5 v -7.61719 c 1.93657,2.53406 4.13453,4.90705 6.85937,6.85742 a 7.50075,7.50075 0 0 0 0.008,0.008 c 7.76366,5.54062 17.28369,8.25196 27.86718,8.25196 h 34.35938 a 7.50075,7.50075 0 0 0 7.5,-7.5 V 99.113281 a 7.50075,7.50075 0 0 0 -7.5,-7.5 h -4.5293 L 469.2659,78.455078 a 7.50075,7.50075 0 0 0 1.6211,-4.654297 V 60.470703 a 7.50075,7.50075 0 0 0 -7.5,-7.5 h -34.26563 c -10.56265,0 -20.28429,3.144921 -28.32031,9.337891 -2.55663,1.969977 -4.65278,4.218251 -6.51367,6.574218 V 44.560547 a 7.50075,7.50075 0 0 0 -7.5,-7.5 z m 131.71289,14.998047 h 0.89258 v 51.615239 h -0.89844 c 0.50355,-1.16022 0.77535,-2.42234 0.7793,-3.710942 a 7.50075,7.50075 0 0 0 0,-0.02344 V 55.804687 c 0.005,-1.309206 -0.26997,-2.582304 -0.77344,-3.746093 z m -124.21289,0.002 h 2.44922 v 51.580079 h -2.44922 z m 148.10938,0 h 0.89062 c -0.50689,1.17639 -0.77536,2.456055 -0.76758,3.761719 v 44.08789 c -0.006,1.30743 0.26729,2.5866 0.77735,3.76367 h -0.90039 z M 195.59961,67.970703 h 5.14258 v 35.675777 h -2.44922 V 74.46875 c 0.01,-2.491384 -1.04784,-4.787724 -2.69336,-6.498047 z m 30.93164,0 h 5.16992 c -1.67743,1.738962 -2.69632,4.023806 -2.70117,6.451172 a 7.50075,7.50075 0 0 0 0,0.01367 v 45.115235 h -2.46875 z m 75.1543,0 h 5.13867 c -1.66101,1.728371 -2.69423,4.029626 -2.68945,6.480469 v 45.099608 h -2.44922 z m 147.12304,0 h 7.07813 v 3.220703 l -5.18945,6.554688 c 0.89694,-2.411661 0.87184,-5.178141 -0.31836,-7.533203 -0.42609,-0.843737 -0.9587,-1.592692 -1.57032,-2.242188 z M 262.8418,68.521484 c 3.61237,0.744067 6.62403,2.309687 9.61132,5.033203 4.29149,3.912146 5.79102,7.326714 5.79102,12.738282 0,5.097143 -1.38707,8.183434 -5.67773,11.919922 a 7.50075,7.50075 0 0 0 -0.006,0.0039 c -2.633,2.296509 -5.40911,3.730169 -8.62696,4.562499 0.54545,-0.32715 1.1212,-0.59436 1.64258,-0.9668 a 7.50075,7.50075 0 0 0 0,-0.002 c 4.92423,-3.519048 8.15625,-9.311811 8.15625,-15.441405 0,-5.903763 -2.89702,-11.378643 -7.18164,-15.166016 a 7.50075,7.50075 0 0 0 -0.008,-0.0059 c -1.15213,-1.016042 -2.39264,-1.906265 -3.70117,-2.675782 z m 75.15429,0.0059 c 3.59819,0.744563 6.5968,2.305966 9.58008,5.027343 a 7.50075,7.50075 0 0 0 0.004,0.002 c 4.29277,3.911208 5.78906,7.322692 5.78906,12.736328 0,5.098571 -1.38619,8.182054 -5.67773,11.917968 a 7.50075,7.50075 0 0 0 -0.008,0.0059 c -2.63929,2.303777 -5.41258,3.740497 -8.63281,4.570317 0.55035,-0.32977 1.13056,-0.60081 1.65625,-0.97656 a 7.50075,7.50075 0 0 0 0.002,0 c 4.90589,-3.507695 8.17023,-9.283439 8.17188,-15.43946 a 7.50075,7.50075 0 0 0 0,-0.0039 c -0.002,-5.901091 -2.89835,-11.376139 -7.18359,-15.164062 a 7.50075,7.50075 0 0 0 -0.006,-0.0059 c -1.14936,-1.013594 -2.38976,-1.901461 -3.69532,-2.669922 z M 163.03906,69 c -0.65638,0.427341 -1.34141,0.801623 -1.95508,1.302734 -4.58417,3.741429 -7.32226,9.48786 -7.32226,15.375 0,5.910873 2.80921,11.586201 7.30664,15.365236 0.60006,0.50435 1.27477,0.88519 1.91797,1.32031 -2.58049,-0.95474 -4.99444,-2.463134 -7.48438,-4.726561 -4.81268,-4.376538 -6.25586,-7.742457 -6.25586,-12.144532 0,-4.616149 1.39533,-7.863277 5.82227,-11.919921 a 7.50075,7.50075 0 0 0 0.002,0 c 2.4518,-2.247187 5.01288,-3.689614 7.96875,-4.572266 z m 249.48438,3.513672 c -3.13434,3.533754 -5.06641,8.106242 -5.06641,12.884765 0,5.951953 2.78551,11.662169 7.2793,15.492193 -1.7134,-0.76305 -3.34981,-1.630472 -4.85938,-2.707036 l -0.006,-0.0039 c -7.2e-4,-5.19e-4 -10e-4,-0.0014 -0.002,-0.002 -5.34996,-3.831539 -6.90625,-6.901252 -6.90625,-12.605468 0,-4.029402 1.39324,-7.066672 6.99219,-11.38086 a 7.50075,7.50075 0 0 0 0.002,0 c 0.83571,-0.644044 1.70685,-1.136875 2.56641,-1.677734 z M 244,79.996094 h 5.61914 c 3.00455,0 5.1736,0.840437 6.99805,2.447265 1.69318,1.497482 2.11523,2.64021 2.11523,3.925782 0,1.308405 -0.35318,2.149329 -1.87695,3.238281 -1.75913,1.255926 -4.04883,2.009765 -7.23438,2.009765 h -4.11132 A 7.50075,7.50075 0 0 0 244,92.242187 Z m 75.13477,0 h 5.63281 c 3.01312,0 5.17199,0.837938 7,2.449218 6.9e-4,6.07e-4 10e-4,0.0013 0.002,0.002 1.68818,1.494643 2.11097,2.636923 2.11133,3.923828 -10e-4,1.291578 -0.36206,2.139224 -1.89649,3.236328 -1.76436,1.261128 -4.0307,2.009765 -7.21875,2.009765 h -4.11523 a 7.50075,7.50075 0 0 0 -1.51562,0.628907 z M 176.84961,80 h 6.44336 v 12.242187 a 7.50075,7.50075 0 0 0 -1.50977,-0.625 h -4.73047 c -2.80943,0 -4.77552,-0.748392 -6.33398,-2.058593 -1.51258,-1.270966 -1.95703,-2.325733 -1.95703,-3.88086 0,-1.666859 0.45082,-2.647335 1.80664,-3.753906 a 7.50075,7.50075 0 0 0 0.002,-0.002 C 172.0343,80.726095 173.96866,80 176.84961,80 Z m 253.06445,0.109375 -4.78125,5.707031 a 7.50075,7.50075 0 0 0 -1.05859,3.203125 c -1.11143,-1.097251 -1.61719,-2.140424 -1.61719,-3.621094 0,-1.497814 0.4048,-2.408448 1.75391,-3.509765 1.22718,-1.000912 3.10383,-1.635513 5.70312,-1.779297 z"
   id="path26" /><path
   style="baseline-shift:baseline;display:inline;overflow:visible;vector-effect:none;fill:#7e7e7e;stroke-linecap:round;stroke-linejoin:round;paint-order:markers stroke fill;enable-background:accumulate;stop-color:#000000"
   d="m 369.338,44.56 v 66.581 h 17.45 V 44.56 Z m 112.72,0 v 9.275 h 10.22 c 0.543,0 1.065,0.202 1.45,0.566 0.383,0.364 0.598,0.86 0.596,1.375 V 99.94 a 1.893,1.893 0 0 1 -0.597,1.374 2.098,2.098 0 0 1 -1.45,0.566 h -10.22 v 9.293 h 27.387 V 44.559 Z m 35.389,0 v 66.613 h 27.384 v -9.29 h -10.218 a 2.096,2.096 0 0 1 -1.45,-0.566 1.872,1.872 0 0 1 -0.592,-1.374 V 55.777 a 1.867,1.867 0 0 1 0.592,-1.375 2.098,2.098 0 0 1 1.45,-0.566 h 10.218 V 44.559 Z M 170.389,60.47 c -8.169,0 -14.827,2.477 -20.387,7.573 -5.595,5.127 -8.255,10.826 -8.255,17.45 0,6.536 2.789,12.31 8.71,17.694 5.903,5.366 12.495,7.955 20.134,7.955 h 11.192 V 99.118 h -4.731 c -4.307,0 -8.152,-1.29 -11.159,-3.818 -3.005,-2.525 -4.631,-5.89 -4.631,-9.623 0,-3.777 1.594,-7.14 4.564,-9.564 2.953,-2.412 6.741,-3.613 11.024,-3.613 h 11.896 c 0.544,0 1.066,0.203 1.449,0.567 0.384,0.365 0.6,0.86 0.598,1.373 v 36.706 h 17.45 V 60.47 Z m 48.642,0 v 66.58 H 236.5 V 74.436 a 1.886,1.886 0 0 1 0.597,-1.373 2.102,2.102 0 0 1 1.449,-0.567 h 11.074 c 4.608,0 8.729,1.475 11.963,4.327 2.99,2.643 4.65,5.951 4.65,9.546 0,3.719 -1.793,7.036 -5.017,9.34 -3.189,2.278 -7.14,3.408 -11.595,3.408 h -4.112 v 12.024 h 11.695 c 8.045,0 14.692,-2.393 20.287,-7.273 5.59,-4.868 8.254,-10.575 8.254,-17.575 0,-7.254 -2.673,-13.206 -8.239,-18.28 -5.572,-5.08 -12.074,-7.54 -19.883,-7.54 l -38.59,-0.003 z m 75.154,0 v 66.58 h 17.449 V 74.436 c -0.001,-0.513 0.212,-1.009 0.596,-1.373 a 2.102,2.102 0 0 1 1.452,-0.567 h 11.085 c 4.613,0 8.729,1.475 11.963,4.327 2.99,2.643 4.649,5.951 4.65,9.546 -10e-4,3.725 -1.813,7.037 -5.034,9.34 -3.187,2.278 -7.124,3.408 -11.58,3.408 h -4.115 v 12.024 h 11.695 c 8.046,0 14.677,-2.391 20.27,-7.273 5.592,-4.868 8.254,-10.575 8.254,-17.575 0,-7.254 -2.67,-13.206 -8.239,-18.28 -5.57,-5.081 -12.058,-7.54 -19.866,-7.54 z m 134.936,0 c -9.163,0 -16.976,2.565 -23.743,7.78 -6.781,5.225 -9.916,10.866 -9.916,17.323 0,7.778 3.221,13.822 10.05,18.71 6.398,4.566 14.15,6.858 23.509,6.858 h 34.36 V 99.113 h -32.618 c -4.257,0 -8.08,-1.323 -11.108,-3.865 -3.044,-2.56 -4.698,-6.002 -4.698,-9.85 0,-3.67 1.594,-6.94 4.513,-9.322 2.945,-2.402 6.825,-3.58 11.293,-3.58 h 11.077 c 0.784,-0.002 1.507,0.425 1.846,1.098 0.341,0.672 0.243,1.47 -0.25,2.052 l -12.554,14.987 h 19.18 L 463.386,73.801 V 60.47 Z"
   id="path27" />
</svg>
