<?xml version="1.0" encoding="UTF-8" standalone="no"?>
<svg
   version="1.1"
   viewBox="0 0 996 215"
   id="svg29"
   sodipodi:docname="arduboy.svg"
   inkscape:version="1.4.3 (0d15f75042, 2025-12-25)"
   xmlns:inkscape="http://www.inkscape.org/namespaces/inkscape"
   xmlns:sodipodi="http://sodipodi.sourceforge.net/DTD/sodipodi-0.dtd"
   xmlns="http://www.w3.org/2000/svg"
   xmlns:svg="http://www.w3.org/2000/svg">
  <defs
     id="defs29" />
  <sodipodi:namedview
     id="namedview29"
     pagecolor="#949494"
     bordercolor="#000000"
     borderopacity="0.25"
     inkscape:showpageshadow="2"
     inkscape:pageopacity="0.0"
     inkscape:pagecheckerboard="0"
     inkscape:deskcolor="#d1d1d1"
     inkscape:zoom="0.89106426"
     inkscape:cx="498.28056"
     inkscape:cy="107.17521"
     inkscape:window-width="1920"
     inkscape:window-height="1080"
     inkscape:window-x="0"
     inkscape:window-y="0"
     inkscape:window-maximized="0"
     inkscape:current-layer="svg29" />
  <g
     stroke-width="2.00"
     fill="none"
     stroke-linecap="butt"
     id="g13">
    <path
       style="baseline-shift:baseline;display:inline;overflow:visible;vector-effect:non-scaling-stroke;fill:#c596da;enable-background:accumulate;stop-color:#000000;stop-opacity:1;opacity:1"
       d="m 897.60352,40.238281 c -3.03205,0.314289 -5.95837,2.148023 -7.47657,5.19336 -1.18911,2.372365 -1.37637,5.880777 -1.3789,9.484375 -0.003,3.599221 0.24642,7.271175 0.24218,9.630859 -0.004,0.276266 -0.11362,0.537721 -0.30468,0.732422 l 0.006,-0.0039 -28.63086,28.779296 -28.84766,-28.755859 -0.004,-0.0039 c -0.0607,-0.05922 -0.0963,-0.139893 -0.0996,-0.22461 v -0.0039 -0.0059 c -0.19786,-4.010041 -0.15929,-8.520105 0.11915,-13.525391 0.36479,-6.587837 -4.04709,-10.452235 -8.59375,-10.970703 -2.27334,-0.259234 -4.60434,0.265896 -6.42383,1.634766 -1.81949,1.36887 -3.0737,3.608492 -3.16992,6.498047 -0.0641,1.987774 -0.33142,7.676516 -0.29493,13.166015 0.0182,2.74475 0.11174,5.441777 0.34961,7.642578 0.11894,1.100401 0.27239,2.075783 0.48438,2.894532 0.21174,0.817801 0.43489,1.487492 0.95703,2.03125 5.52325,5.764266 17.34317,17.520431 35.49219,35.302739 0.76751,0.76367 0.99023,1.33714 0.99023,1.50585 -0.0467,17.65483 -0.0354,35.30187 0.0312,52.94336 0.027,6.32487 4.6014,10.06502 9.20313,10.04102 2.30086,-0.012 4.61938,-0.95126 6.32031,-2.85938 1.70093,-1.90811 2.75704,-4.75108 2.71484,-8.46679 -0.19329,-16.86324 -0.29836,-33.7297 -0.31836,-50.59961 5.1e-4,-0.90575 0.31984,-1.56516 0.91407,-2.16016 l 0.002,-0.002 c 11.23163,-11.184966 22.48734,-22.342969 33.76562,-33.474611 2.25504,-2.22575 3.37154,-5.272804 3.35743,-8.90625 -0.01,-2.42844 0.29724,-7.258559 0.30859,-11.947265 0.006,-2.344353 -0.0607,-4.661338 -0.28711,-6.671875 -0.22628,-2.009758 -0.56881,-3.701254 -1.33008,-4.931641 v -0.002 c -1.86352,-3.020771 -5.06523,-4.279172 -8.09765,-3.964844 z m 0.20507,1.988281 c 2.36963,-0.245625 4.72286,0.651036 6.18946,3.029297 H 904 c 0.43311,0.699495 0.8309,2.221944 1.04297,4.105469 0.21207,1.883526 0.28096,4.141463 0.27539,6.443359 -0.0111,4.603794 -0.31894,9.357425 -0.30859,11.958985 0.0126,3.233221 -0.91009,5.647026 -2.76172,7.474609 C 890.96699,86.37266 879.709,97.532987 868.47461,108.7207 l -0.002,0.002 c -0.904,0.90399 -1.50196,2.14601 -1.50196,3.57812 0.02,16.87676 0.12694,33.751 0.32032,50.62109 0.0378,3.32929 -0.88969,5.63109 -2.21094,7.11329 -1.32126,1.48219 -3.06305,2.1802 -4.83594,2.18945 -3.54577,0.0185 -7.17034,-2.6537 -7.19336,-8.04883 -0.0667,-17.63786 -0.0779,-35.2824 -0.0312,-52.93359 v -0.002 c 0,-1.08411 -0.63906,-1.99014 -1.58594,-2.92968 l -0.002,-0.002 -0.002,-0.002 C 833.28537,90.528944 821.45917,78.764562 815.98242,73.048828 l -0.002,-0.002 c -0.0466,-0.0484 -0.29179,-0.478123 -0.46485,-1.146484 -0.17305,-0.668361 -0.31917,-1.568839 -0.43164,-2.609375 -0.22493,-2.081074 -0.31988,-4.731703 -0.33789,-7.439454 -0.036,-5.414692 0.22705,-11.044898 0.29297,-13.08789 v -0.002 c 0.0793,-2.364229 1.02022,-3.943639 2.375,-4.962891 1.3552,-1.019567 3.17873,-1.45311 4.99414,-1.246094 3.63083,0.414033 7.13942,3.178931 6.82422,8.871094 -0.28132,5.057063 -0.32264,9.63066 -0.12109,13.724609 0.0231,0.594045 0.27272,1.158222 0.69726,1.574219 l 28.9961,28.90625 c 0.68606,0.682243 1.8237,0.682243 2.50976,0 l -0.70508,-0.708984 0.70899,0.705078 28.79297,-28.941406 0.002,-0.0039 c 0.55247,-0.562989 0.86673,-1.318645 0.87695,-2.107421 v -0.0039 -0.0059 c 0.005,-2.500651 -0.24465,-6.137582 -0.24218,-9.646484 0.002,-3.508903 0.32512,-6.910256 1.16601,-8.587891 v -0.002 h 0.002 c 1.20216,-2.413165 3.52295,-3.853984 5.89257,-4.09961 z"
       id="path1" />
    <path
       style="baseline-shift:baseline;display:inline;overflow:visible;vector-effect:non-scaling-stroke;fill:#c596da;enable-background:accumulate;stop-color:#000000;stop-opacity:1;opacity:1"
       d="m 751.0957,40.8125 c -3.26299,0.05789 -6.26388,0.177734 -8.3164,0.177734 l -22.5625,0.01953 h -0.002 c -2.44423,0.01121 -4.09024,1.095425 -5.62109,2.542968 l 0.9082,0.960938 -0.91015,-0.958985 c -2.21427,2.101091 -7.55703,6.851658 -12.34375,11.783204 -2.39336,2.465772 -4.65163,4.978759 -6.33985,7.271484 -1.68822,2.292725 -2.88529,4.296635 -2.88867,6.199219 -0.04,25.542175 0.004,51.087876 0.13086,76.636716 0.0146,3.04852 1.26093,5.85524 3.60352,8.26172 6.17438,6.36127 12.45576,12.61289 18.84375,18.75391 1.55966,1.50442 3.4886,2.52867 5.65039,2.52929 12.12073,0.0133 24.24564,0.0133 36.37304,0 h 0.002 c 4.31041,-0.0103 6.18827,-1.00712 9.04687,-3.80468 3.41138,-3.33711 8.67742,-8.01321 13.10938,-12.60157 2.21598,-2.29417 4.22527,-4.56494 5.70898,-6.67773 1.48371,-2.11279 2.49876,-4.04553 2.50195,-5.9043 0.0333,-24.90196 -0.008,-49.796912 -0.12109,-74.685544 -0.0143,-3.654832 -1.42444,-6.969022 -4.11914,-9.769531 -1.82834,-1.901477 -6.25435,-6.900641 -10.77734,-11.455078 -2.2615,-2.277219 -4.55065,-4.449075 -6.59375,-6.09961 -2.04311,-1.650534 -3.71367,-2.851629 -5.38672,-2.988281 h -0.002 -0.002 C 757.8842,40.75925 754.3587,40.754609 751.0957,40.8125 Z m 0.0664,2.003906 c 3.2332,-0.05709 6.68093,-0.05537 9.66601,0.179688 0.59195,0.04835 2.34983,0.982956 4.29297,2.552734 1.94315,1.569779 4.19814,3.70214 6.43164,5.951172 4.46701,4.498063 8.83421,9.43507 10.75586,11.433594 2.39864,2.492825 3.54819,5.232123 3.56055,8.390625 0.11333,24.884701 0.15443,49.775791 0.12109,74.673831 -0.002,1.05123 -0.75675,2.78997 -2.13867,4.75781 -1.38192,1.96784 -3.3352,4.18613 -5.51172,6.43945 -4.35304,4.50665 -9.58973,9.15766 -13.06836,12.56055 -2.76139,2.70243 -3.5847,3.22466 -7.65429,3.23437 -12.12528,0.0133 -24.24662,0.0133 -36.36524,0 h -0.002 c -1.53649,0 -2.96612,-0.71663 -4.26563,-1.9707 h -0.002 c -6.37168,-6.12533 -12.63629,-12.36002 -18.79492,-18.70508 v -0.002 c -2.05741,-2.11352 -3.02503,-4.35214 -3.03711,-6.87695 -0.12666,-25.5445 -0.17086,-51.085225 -0.13086,-76.62305 0.002,-0.912416 0.9022,-2.850303 2.49805,-5.017578 1.59584,-2.167275 3.80812,-4.633273 6.16601,-7.0625 4.71539,-4.858051 9.99716,-9.557412 12.28321,-11.726563 4.4e-4,-4.21e-4 0.001,4.21e-4 0.002,0 1.40727,-1.330536 2.33992,-1.986276 4.25195,-1.996093 l 22.5586,-0.01953 c 2.12748,0 5.1483,-0.116719 8.38281,-0.173828 z"
       id="path2" />
    <path
       style="baseline-shift:baseline;display:inline;overflow:visible;vector-effect:non-scaling-stroke;fill:#c596da;enable-background:accumulate;stop-color:#000000;stop-opacity:1;opacity:1"
       d="m 639.5,41.009766 c -18.49352,-0.02 -36.98695,-0.0169 -55.48047,0.0098 l 0.002,2 c 18.4925,-0.02667 36.98407,-0.02976 55.47657,-0.0098 h 0.002 c 1.0894,0 2.84386,0.48914 3.67578,1.269531 l 0.002,0.002 c 9.48724,8.848097 16.62218,15.967498 21.38477,21.332031 0.45947,0.51767 1.00758,2.070192 1.30469,4.097656 0.2971,2.027465 0.42643,4.531737 0.45117,7.085938 0.0495,5.108401 -0.30648,10.41434 -0.4375,12.828125 v 0.002 c -0.0163,0.308151 -0.64979,1.690842 -1.7793,3.212891 -1.1295,1.522048 -2.68029,3.313911 -4.32031,5.101562 -3.28005,3.575304 -6.89129,7.109624 -8.38867,8.742184 l 0.008,-0.006 c -0.71636,0.76574 -0.71636,1.98036 0,2.7461 3.63698,3.89103 7.45595,7.80094 11.45898,11.73047 2.3931,2.34523 3.38581,7.06561 3.57227,12.14062 0.18646,5.07501 -0.35777,10.42384 -0.57031,14.03711 v 0.002 c -0.008,0.1363 -0.27788,0.93407 -0.85547,1.89649 -0.57759,0.96242 -1.42217,2.15996 -2.44727,3.48633 -2.05019,2.65272 -4.82703,5.82858 -7.71679,8.87109 -2.88977,3.04251 -5.89623,5.95603 -8.39844,8.08594 -1.2511,1.06495 -2.38004,1.93562 -3.27734,2.51758 C 642.26871,172.77336 641.51894,173 641.5,173 c -19.68678,0 -39.37067,0.003 -59.05078,0.01 -2.87443,0 -4.55891,-1.24877 -5.7207,-3.23243 -1.1618,-1.98365 -1.66318,-4.7559 -1.66797,-7.46875 -0.08,-37.18458 -0.08,-74.370102 0,-111.554684 v -0.002 c 0.01,-2.60804 1.02743,-4.453378 2.64257,-5.742187 1.6156,-1.289167 3.88073,-1.985592 6.31836,-1.990235 l -0.004,-2 c -2.81237,0.0054 -5.5156,0.794401 -7.5625,2.427735 -2.04691,1.633333 -3.38359,4.148015 -3.39453,7.298828 v 0.002 c -0.08,37.188101 -0.08,74.376353 0,111.564453 0.005,2.94716 0.50765,6.02326 1.94336,8.47461 1.4357,2.45134 3.93974,4.22266 7.44531,4.22266 h 0.002 C 602.13106,175.0031 621.81345,175 641.5,175 c 0.96606,0 1.7398,-0.47188 2.75586,-1.13086 1.01606,-0.65898 2.19009,-1.57183 3.48242,-2.67187 2.58467,-2.2001 5.62695,-5.14798 8.55469,-8.23047 2.92773,-3.08249 5.73598,-6.29507 7.84765,-9.02735 1.05584,-1.36613 1.93807,-2.60992 2.58008,-3.67968 0.64164,-1.06913 1.08404,-1.89251 1.13672,-2.81055 v -0.002 c 0.20753,-3.52677 0.76577,-8.95792 0.57227,-14.22461 -0.19354,-5.26749 -1.06301,-10.45133 -4.16992,-13.4961 -3.98363,-3.91047 -7.78208,-7.80095 -11.39844,-11.66992 h -0.002 c -0.0101,-0.0108 -0.0101,-0.003 0,-0.0137 l 0.004,-0.004 0.004,-0.004 c 1.38262,-1.50744 5.05676,-5.11249 8.38672,-8.742191 1.66497,-1.814849 3.25013,-3.640643 4.45312,-5.261719 1.20248,-1.620381 2.09752,-2.905714 2.17188,-4.296875 v -0.002 c 0.12903,-2.376758 0.48995,-7.741764 0.43945,-12.955078 -0.0253,-2.60705 -0.15156,-5.177621 -0.4707,-7.355469 -0.31915,-2.177848 -0.74854,-3.962435 -1.78907,-5.134766 v -0.002 C 661.22157,58.83679 654.05655,51.691235 644.54492,42.820312 l -0.002,-0.002 c -1.42746,-1.337672 -3.47138,-1.808245 -5.04102,-1.808593 z"
       id="path3" />
    <path
       style="baseline-shift:baseline;display:inline;overflow:visible;vector-effect:non-scaling-stroke;fill:#c596da;enable-background:accumulate;stop-color:#000000;stop-opacity:1;opacity:1"
       d="m 538.97461,41.193359 c -0.84858,0.0093 -1.74281,0.145561 -2.67578,0.429688 l 0.25195,0.830078 -0.25391,-0.830078 c -1.44075,0.441421 -2.9014,1.486273 -4.10156,2.765625 -1.20016,1.279352 -2.17578,2.787547 -2.17578,4.43164 -0.0333,31.366727 -0.0333,62.756538 0,94.169918 5e-5,0.10986 -0.043,0.21864 -0.12695,0.30274 l -13.59961,13.59961 c -0.0664,0.0665 -0.16049,0.10739 -0.26367,0.10742 h -30.86914 -0.002 c -0.0796,9e-5 -0.14635,-0.0298 -0.1914,-0.0762 l -0.004,-0.006 -12.93164,-12.92969 -0.004,-0.006 c -0.0441,-0.0428 -0.0696,-0.10062 -0.0684,-0.16211 v -0.008 l 0.002,-0.008 c 0.15336,-29.25911 0.0526,-58.510085 -0.30078,-87.755862 -0.0296,-2.603104 0.177,-6.761653 -1.48047,-9.691406 -2.52524,-4.4694 -6.97315,-5.596494 -10.60742,-4.21875 -3.63428,1.377743 -6.55041,5.102056 -6.57227,9.867187 -0.12672,27.985042 0.22393,59.194521 1.05078,93.628911 0.044,1.78725 -0.0633,3.04363 0.23438,4.375 0.29765,1.33136 1.03213,2.58649 2.50586,4.15429 2.41167,2.56575 7.64008,7.99805 15.70117,16.3125 l 0.002,0.002 c 3.77372,3.87654 7.2327,5.49058 12.9707,5.52148 h 0.002 c 3.58319,0.0147 12.37286,0.47229 20.81836,0.39062 4.22275,-0.0408 8.36663,-0.21469 11.78906,-0.65625 3.42243,-0.44155 6.10512,-1.01899 7.64648,-2.45312 h 0.002 c 2.58467,-2.41552 8.16143,-8.00091 16.79101,-16.81055 l 0.002,-0.002 c 1.83446,-1.87907 3.17712,-3.10239 4.11719,-4.61719 0.94007,-1.51479 1.36199,-3.26464 1.36719,-5.83984 v -0.002 c 0.007,-31.1329 0.004,-62.259347 -0.01,-93.378911 0,-3.105172 -0.92547,-6.338482 -2.8789,-8.628906 -1.46508,-1.717818 -3.59098,-2.836503 -6.13672,-2.808594 z m 0.0449,1.966797 c 1.96188,-0.05998 3.41601,0.78524 4.57031,2.138672 1.53907,1.804577 2.40039,4.637204 2.40039,7.332031 0.0133,31.119786 0.0164,62.245791 0.01,93.378911 -0.005,2.37321 -0.33423,3.6073 -1.06641,4.7871 -0.73243,1.18021 -1.98406,2.36447 -3.84961,4.2754 -8.62204,8.80192 -14.21819,14.40384 -16.72656,16.74804 -0.76001,0.70561 -3.25628,1.50615 -6.53906,1.92969 -3.28444,0.42375 -7.37299,0.60021 -11.55274,0.64062 -8.35949,0.0808 -17.05421,-0.37531 -20.79101,-0.39062 -5.40091,-0.0291 -7.9817,-1.25427 -11.54688,-4.91602 l -0.002,-0.002 c -8.05724,-8.31049 -13.2897,-13.7465 -15.67773,-16.28711 -1.34627,-1.4322 -1.80187,-2.28207 -2.01172,-3.2207 -0.20985,-0.93863 -0.14145,-2.11554 -0.1875,-3.98828 C 455.22235,111.16699 454.87339,79.975297 455,52.013672 c 0.0181,-3.954868 2.43302,-6.92415 5.28125,-8.003906 2.84823,-1.079757 6.03344,-0.428569 8.1582,3.332031 1.18253,2.090247 1.19029,6.053573 1.22071,8.730469 0.3532,29.229016 0.45396,58.464684 0.30078,87.707034 -0.0124,0.61366 0.23047,1.20644 0.66992,1.63476 0.001,0.001 8.7e-4,0.003 0.002,0.004 l 12.90039,12.89844 c 0.42804,0.44023 1.01631,0.68426 1.62696,0.68359 h 30.86914 0.002 c 0.62778,-1.9e-4 1.23103,-0.24787 1.67578,-0.69336 l 13.59961,-13.59961 h 0.002 c 0.45424,-0.45505 0.71121,-1.07235 0.71094,-1.7168 v -0.002 c -0.0333,-31.41263 -0.0333,-62.80201 0,-94.167968 0,-0.745906 0.63547,-1.999351 1.63281,-3.0625 0.99665,-1.062411 2.31933,-1.941485 3.22852,-2.220703 0.77452,-0.235873 1.48471,-0.356959 2.13867,-0.376953 z"
       id="path4" />
    <path
       style="baseline-shift:baseline;display:inline;overflow:visible;vector-effect:non-scaling-stroke;fill:#c596da;enable-background:accumulate;stop-color:#000000;stop-opacity:1;opacity:1"
       d="m 279.25977,42.009766 c -17.84689,-0.02 -35.69103,-0.0169 -53.53125,0.0098 -2.99003,0.0052 -5.86859,0.577333 -8.08008,2.13086 -2.21149,1.553527 -3.64305,4.143843 -3.64844,7.677734 v 0.002 c -0.007,38.286841 -0.004,76.572532 0.01,114.859372 v 0.002 c 0.005,3.61587 1.77353,6.76492 4.4082,8.49414 2.63467,1.72922 6.19941,1.96872 9.41015,-0.13868 v -0.002 c 2.57933,-1.69437 3.74014,-3.83986 4.10743,-6.24219 0.36728,-2.40232 0.0841,-5.04989 0.0644,-8.27929 -0.0521,-7.45521 -0.0126,-14.96589 0.10742,-22.52344 h 25.87305 c 0.0478,-4e-5 0.0958,0.0186 0.13281,0.0566 v 0.002 c 11.36236,11.66909 22.7821,23.27711 34.25781,34.82618 4.50113,4.53338 10.26479,3.98131 13.4668,0.77929 3.20202,-3.20201 3.75875,-9.01486 -1.13477,-14.0039 -7.3356,-7.47945 -14.64675,-14.91108 -21.9375,-22.30079 3.2084,-1.71573 5.3419,-3.8564 7.87696,-6.16015 5.93258,-5.40301 11.45106,-11.20597 16.55273,-17.40625 0.33952,-0.40342 0.54722,-0.89998 0.59961,-1.42383 0.0812,-0.70266 0.50798,-1.93409 0.49414,-3.07031 v -0.002 c -0.15996,-13.403702 -0.27319,-26.804149 -0.33984,-40.201177 -0.004,-0.839307 -0.33356,-1.625004 -0.8125,-2.507812 -0.47895,-0.882809 -1.13634,-1.847531 -1.92578,-2.882813 -1.57889,-2.070563 -3.68573,-4.417946 -5.90235,-6.740234 -4.43323,-4.644577 -9.31705,-9.191822 -11.125,-10.935547 -2.72671,-2.621571 -5.74201,-4.018959 -8.92187,-4.019531 z m 0,2 c 2.60562,0 5.07619,1.09724 7.53515,3.460937 1.85206,1.786275 6.68964,6.289577 11.06641,10.875 2.18838,2.292712 4.2599,4.605329 5.75976,6.572266 0.74994,0.983468 1.35567,1.881793 1.75782,2.623047 0.40214,0.741254 0.56926,1.34126 0.57031,1.564453 0.0667,13.402321 0.18177,26.807812 0.3418,40.216801 0.006,0.43885 -0.36322,1.75762 -0.48438,2.83593 l -0.002,0.006 v 0.006 c -0.0127,0.12726 -0.0632,0.24393 -0.14063,0.33594 l -0.002,0.004 -0.004,0.006 c -5.04303,6.12984 -10.49663,11.86389 -16.36133,17.20507 -2.77422,2.52111 -4.72609,4.62386 -7.98632,6.22071 l 0.43945,0.89843 -0.44922,-0.89257 c -0.87466,0.44074 -1.08092,1.67049 -0.39648,2.37109 l 0.002,0.002 0.002,0.002 c 7.43262,7.5326 14.88789,15.11232 22.36719,22.73828 4.32649,4.41095 3.61392,8.72397 1.14844,11.18945 -2.46549,2.46548 -6.76589,3.12122 -10.63477,-0.77539 -11.47095,-11.54427 -22.88454,-23.14825 -34.24219,-34.8125 -0.41102,-0.42272 -0.97742,-0.66255 -1.56835,-0.66211 h -26.36915 c -0.80572,-1.6e-4 -1.48388,0.66514 -1.5,1.4707 v 0.002 c -0.12679,7.74101 -0.16276,15.42988 -0.10937,23.06445 0.0204,3.32943 0.26662,5.95266 -0.041,7.96484 -0.30771,2.01268 -1.02784,3.42742 -3.22851,4.87305 v -0.002 c -2.60926,1.7126 -5.17201,1.4814 -7.21485,0.14062 -2.04283,-1.34078 -3.50135,-3.86009 -3.50585,-6.82422 -0.0133,-38.28649 -0.0164,-76.572879 -0.01,-114.859372 0.005,-3.024728 1.07825,-4.834301 2.79883,-6.042969 1.72101,-1.208973 4.20362,-1.762805 6.93359,-1.767578 17.83913,-0.02667 35.68155,-0.02976 53.52735,-0.0098 z"
       id="path5" />
    <path
       style="baseline-shift:baseline;display:inline;overflow:visible;vector-effect:non-scaling-stroke;fill:#c596da;enable-background:accumulate;stop-color:#000000;stop-opacity:1;opacity:1"
       d="m 401.5,42.009766 c -19.20683,-0.02 -38.41737,-0.0169 -57.63086,0.0098 -4.0749,0.0053 -6.87935,1.318236 -8.4707,3.666016 -1.59136,2.34778 -1.97892,5.493723 -1.92774,9.148437 0.49992,36.260602 0.66974,72.523746 0.50977,108.791016 -0.0152,3.35262 0.19328,6.36696 1.5625,8.69922 1.36922,2.33226 3.98011,3.73185 7.95898,3.72656 18.99924,-0.0333 37.99882,-0.0632 56.99805,-0.0898 2.14196,0 4.1861,-0.93013 6.01953,-2.62696 l -1.35937,-1.46875 c -1.56657,1.44985 -3.08212,2.09571 -4.66016,2.09571 h -0.002 c -19.00012,0.0267 -37.99989,0.0565 -57,0.0898 -3.55113,0.005 -5.21469,-1.00804 -6.23047,-2.73828 -1.01578,-1.73024 -1.30187,-4.43036 -1.28711,-7.67773 0.16003,-36.2794 -0.01,-72.555397 -0.50977,-108.828129 -0.0488,-3.485286 0.38784,-6.235281 1.58399,-8 1.19614,-1.76472 3.14131,-2.782368 6.8164,-2.78711 19.21253,-0.02667 38.4211,-0.02976 57.62696,-0.0098 h 0.002 c 0.0561,0 0.7102,0.193274 1.50781,0.695312 0.79761,0.502038 1.79373,1.256282 2.89649,2.177734 2.2055,1.842906 4.84908,4.355479 7.43945,6.94336 5.18074,5.175761 10.15626,10.65079 11.20703,11.80664 0.81928,0.898824 1.43945,2.523374 1.43945,3.9375 0.02,26.786169 0.02,53.576308 0,80.369138 0,-0.0997 -0.14428,0.4685 -0.58398,1.14258 -0.4397,0.67408 -1.10671,1.53662 -1.92773,2.50781 -1.64205,1.9424 -3.90297,4.32703 -6.28907,6.73243 -4.7722,4.81078 -10.05075,9.71612 -12.02734,11.54296 l 1.35742,1.46875 c 1.98341,-1.83315 7.27705,-6.7518 12.08984,-11.60351 2.4064,-2.42586 4.69166,-4.83294 6.39649,-6.84961 0.85241,-1.00833 1.56033,-1.91623 2.07617,-2.70703 0.51546,-0.79021 0.90762,-1.38129 0.9082,-2.23242 v -0.002 c 0.02,-26.79253 0.02,-53.583275 0,-80.369138 0,-1.945873 -0.72021,-3.922026 -1.96093,-5.283203 -1.04923,-1.154149 -6.04473,-6.653261 -11.27149,-11.875 -2.61338,-2.610869 -5.28238,-5.152671 -7.57031,-7.064453 -1.14397,-0.955891 -2.19015,-1.754889 -3.11328,-2.335937 -0.92253,-0.580665 -1.66672,-1.001399 -2.57227,-1.001953 z"
       id="path6" />
    <path
       style="baseline-shift:baseline;display:inline;overflow:visible;vector-effect:non-scaling-stroke;fill:#c596da;enable-background:accumulate;stop-color:#000000;stop-opacity:1;opacity:1"
       d="m 142.9707,42.791016 c -1.21269,-0.272123 -2.43735,-0.202125 -3.59179,0.134765 -2.3089,0.67378 -4.38847,2.265706 -6.20508,4.025391 v 0.002 h -0.002 C 120.40323,59.37469 108.04531,72.194311 96.097656,85.410156 94.753243,86.897272 94.050781,88.734857 94.050781,90.75 c -0.04667,24.64701 -0.05792,49.2913 -0.03125,73.93164 0.0068,2.76135 0.24042,4.81116 0.833985,6.2832 1.894168,4.70455 6.340794,6.56437 10.230464,5.80664 3.89042,-0.75787 7.29247,-4.16465 7.20508,-9.29882 C 111.99894,151.31829 111.91684,135.16089 112.03125,119 h 58.38867 c 0.2416,15.76301 0.44531,31.51284 0.60938,47.25 0.0277,2.62809 0.39677,4.66594 1.27929,6.1582 1.80829,3.07131 4.93333,4.47959 7.95313,4.2793 3.01979,-0.20029 5.96844,-1.973 7.55664,-5.06055 0.85637,-1.66426 1.17187,-4.1019 1.17187,-7.48633 0.0267,-23.1803 0.0205,-46.3576 -0.0195,-69.531245 0,-2.735807 -0.11931,-4.756864 -0.75,-6.617188 -0.63069,-1.860323 -1.76732,-3.472728 -3.60742,-5.34375 -19.0233,-19.343361 -31.71427,-31.974941 -38.12109,-37.939453 -1.10684,-1.03194 -2.30879,-1.645846 -3.52149,-1.917968 z m -0.43359,1.90039 c 0.85168,0.189753 1.70364,0.652409 2.5918,1.480469 6.33984,5.902155 19.0419,18.542268 38.05859,37.878906 1.7299,1.758978 2.62686,3.072355 3.13867,4.582031 0.51181,1.509677 0.64453,3.30237 0.64453,5.976563 v 0.002 c 0.04,23.172372 0.0462,46.348302 0.0195,69.527342 v 0.002 c 0,3.24225 -0.39225,5.48987 -0.94921,6.57227 -1.27181,2.47246 -3.57746,3.8238 -5.91016,3.97852 -2.3327,0.15471 -4.6579,-0.85014 -6.09961,-3.29883 v -0.002 c -0.58397,-0.98743 -0.97607,-2.72277 -1.00195,-5.16015 v -0.002 c -0.16668,-15.98768 -0.37246,-31.98957 -0.61914,-48.00391 v -0.0117 -0.0137 c -0.0264,-0.6603 -0.58918,-1.19975 -1.25,-1.19922 h -59.65039 c -0.80554,0 -1.48047,0.67493 -1.48047,1.48047 -0.11998,16.34582 -0.0317,32.68818 0.26172,49.02734 0.0726,4.26582 -2.55026,6.70866 -5.58985,7.30078 -3.03958,0.59213 -6.427694,-0.69832 -7.994139,-4.59179 -0.406294,-1.00761 -0.680801,-2.8999 -0.6875,-5.53711 v -0.002 c -0.02666,-24.63835 -0.01541,-49.28075 0.03125,-73.925777 V 90.75 c 0,-1.571524 0.488996,-2.847116 1.53125,-4 11.918699,-13.183812 24.246709,-25.969861 36.984379,-38.361328 1.69338,-1.640316 3.58694,-3.021749 5.37304,-3.542969 0.89306,-0.26061 1.74598,-0.344049 2.59766,-0.154297 z"
       id="path7" />
    <path
       style="baseline-shift:baseline;display:inline;overflow:visible;vector-effect:non-scaling-stroke;fill:#c596da;enable-background:accumulate;stop-color:#000000;stop-opacity:1;opacity:1"
       d="m 755.60937,57 -30.41015,0.0098 c -0.60167,1.44e-4 -1.18096,0.22312 -1.63086,0.61914 l 0.66211,0.75 -0.66992,-0.742187 c -4.91222,4.418983 -9.657,9.263936 -14,14.169922 h 0.002 c -0.36276,0.409222 -0.5627,0.938518 -0.5625,1.484375 v 68.789064 c -2.6e-4,0.63481 0.2555,1.24088 0.70312,1.6875 l 0.002,0.002 14.33203,14.14258 -0.004,-0.006 c 0.44881,0.4491 1.06148,0.69556 1.69532,0.68359 l 30.27929,-0.59961 h 0.008 c 0.59906,-0.0217 1.17111,-0.26447 1.60157,-0.68359 l 0.006,-0.006 13.71484,-13.72266 v -0.002 c 0.3954,-0.39597 0.61449,-0.93875 0.60156,-1.5 l -1.00976,-69.925779 v -0.0039 c -0.0123,-0.510746 -0.22503,-0.995232 -0.58399,-1.353515 v -0.002 L 757.16797,57.642578 h -0.002 C 756.75285,57.229558 756.19114,57.000013 755.60937,57 Z m 0,2 c 0.0585,10e-7 0.10833,0.02234 0.14258,0.05664 h 0.002 l 13.17578,13.148437 1.00976,69.914062 v 0.004 c 2.9e-4,0.0126 -0.003,0.0261 -0.0156,0.0391 h -0.002 l -13.69921,13.71094 c -0.072,0.0701 -0.17087,0.11325 -0.2793,0.11718 l -30.25195,0.59961 c -0.094,0.002 -0.18118,-0.0346 -0.24414,-0.0977 l -0.002,-0.002 -14.32812,-14.13867 c -0.0776,-0.0774 -0.11723,-0.17562 -0.11719,-0.27148 V 73.289062 c -2e-5,-0.05986 0.0217,-0.114637 0.0586,-0.15625 4.29459,-4.851296 8.98714,-9.642892 13.83203,-14.001953 0.0917,-0.08073 0.20354,-0.121068 0.31055,-0.121093 z"
       id="path8" />
    <path
       style="baseline-shift:baseline;display:inline;overflow:visible;vector-effect:non-scaling-stroke;fill:#c596da;enable-background:accumulate;stop-color:#000000;stop-opacity:1;opacity:1"
       d="m 634.69922,56.970703 c -13.28924,0.139949 -26.54189,0.262507 -39.75781,0.369141 -1.83666,0.01415 -3.42512,0.260445 -4.76758,0.777343 -0.73759,0.279603 -1.23275,0.992089 -1.23438,1.78125 l 0.85742,0.002 -0.85742,0.0039 0.20117,39.535156 c 0,0.849717 0.70888,1.560547 1.5586,1.560547 h 45.02148 c 0.56431,-3e-4 1.11194,-0.21268 1.52539,-0.60156 4.39695,-4.075631 8.5761,-8.393818 12.53711,-12.951174 l 0.002,-0.002 c 3.09037,-3.545434 2.59361,-8.669388 1.9414,-12.521484 v -0.002 c -0.24512,-1.434756 -1.15644,-2.880201 -2.37695,-4.462891 -1.22051,-1.58269 -2.78148,-3.262518 -4.42383,-4.902343 -3.28317,-3.278116 -6.904,-6.395831 -8.6582,-7.992188 -0.42617,-0.392582 -0.98798,-0.606263 -1.56836,-0.59375 z m 0.0312,2 h 0.006 0.006 c 0.0613,-0.0013 0.12138,0.01974 0.16992,0.06445 l 0.002,0.002 0.002,0.002 c 1.80672,1.644324 5.38291,4.723793 8.5957,7.931641 1.6064,1.603924 3.11972,3.24019 4.2539,4.710938 1.13419,1.470747 1.8584,2.815928 1.98829,3.576171 0.62766,3.707141 0.89102,8.160511 -1.47657,10.875 h -0.002 v 0.002 c -3.91663,4.506443 -8.04771,8.773972 -12.39453,12.802734 l -0.004,0.002 -0.002,0.002 c -0.0366,0.03438 -0.0907,0.05805 -0.1543,0.05859 h -44.58203 l -0.19922,-39.025391 c 1.03793,-0.39309 2.37,-0.622236 4.01758,-0.634765 h 0.002 c 13.22083,-0.106674 26.47734,-0.229132 39.77149,-0.369141 z"
       id="path9" />
    <path
       style="baseline-shift:baseline;display:inline;overflow:visible;vector-effect:non-scaling-stroke;fill:#c596da;enable-background:accumulate;stop-color:#000000;stop-opacity:1;opacity:1"
       d="m 591.28906,115 c -0.86629,0 -1.58984,0.72356 -1.58984,1.58984 v 0.004 l 0.36133,40.82812 v 0.004 c 0.0144,0.86198 0.73751,1.57434 1.59961,1.57422 h 44.07031 c 0.53682,-1e-5 1.05792,-0.18872 1.4707,-0.5332 5.08831,-4.25715 9.81389,-9.37754 14.2168,-14.22071 l 0.002,-0.004 C 651.79146,143.83496 651.9998,143.30243 652,142.75 v -11.51953 c -1.9e-4,-0.62689 -0.2471,-1.23121 -0.69141,-1.67578 l -0.002,-0.002 -13.83008,-13.8789 v -0.002 c -0.43161,-0.4309 -1.01706,-0.67259 -1.62695,-0.67188 z m 0.41406,2 h 44.14649 0.002 c 0.08,-9e-5 0.15629,0.0314 0.21289,0.0879 l 13.82813,13.87891 c 0.0665,0.0664 0.10739,0.16048 0.10742,0.26367 V 142.75 c -2e-5,0.0518 -0.0186,0.10303 -0.0566,0.14453 l -0.002,0.002 h -0.002 c -4.39569,4.83527 -9.06966,9.89352 -14.01953,14.03516 -6.9e-4,5.8e-4 -0.001,0.001 -0.002,0.002 -0.0514,0.0422 -0.11719,0.0664 -0.1875,0.0664 h -43.67383 z"
       id="path10" />
    <path
       style="baseline-shift:baseline;display:inline;overflow:visible;vector-effect:non-scaling-stroke;fill:#c596da;enable-background:accumulate;stop-color:#000000;stop-opacity:1;opacity:1"
       d="m 231.5,59 c -0.81658,0 -1.5,0.683418 -1.5,1.5 V 120 c -3.6e-4,0.96137 0.81634,1.75681 1.77734,1.73047 l 45.07227,-0.83984 h 0.002 c 0.51224,-0.0107 1.00706,-0.18634 1.41211,-0.50196 l -0.5664,-0.72656 0.57226,0.72266 c 4.73746,-3.74495 9.27166,-8.94409 13.12695,-13.14844 0.38668,-0.40973 0.6033,-0.95225 0.60352,-1.51563 v -31.400388 -0.002 c -7.2e-4,-0.773808 -0.30456,-1.516828 -0.85156,-2.064453 l -0.002,-0.002 -12.60937,-12.578125 C 278.10248,59.238947 277.51125,58.999925 276.90039,59 Z m 0.5,2 h 44.90039 c 0.0923,-8.5e-5 0.17083,0.03408 0.22266,0.08594 v 0.002 l 12.61132,12.580078 c 0.16816,0.169321 0.2654,0.402293 0.26563,0.652343 V 105.7207 c -4.9e-4,0.0532 -0.0201,0.10385 -0.0566,0.14258 l -0.006,0.006 -0.004,0.006 c -3.88107,4.23207 -8.38151,9.36351 -12.89843,12.93555 -0.0623,0.0485 -0.14136,0.0783 -0.22657,0.0801 L 232,119.72461 Z"
       id="path11" />
    <path
       style="baseline-shift:baseline;display:inline;overflow:visible;vector-effect:non-scaling-stroke;fill:#c596da;enable-background:accumulate;stop-color:#000000;stop-opacity:1;opacity:1"
       d="m 351.5,58 c -0.81658,0 -1.5,0.683418 -1.5,1.5 v 99 c 0,0.81658 0.68342,1.5 1.5,1.5 h 44.25 c 0.5518,1.4e-4 1.08292,-0.20432 1.49609,-0.56836 l 0.002,0.002 c 0.002,-0.002 0.004,-0.004 0.006,-0.006 4.71993,-4.12883 10.37161,-9.24662 14.24804,-14.28906 h 0.002 v -0.002 c 0.32204,-0.42151 0.49636,-0.9369 0.49609,-1.4668 V 74.009766 c -4.2e-4,-0.61741 -0.24681,-1.21012 -0.68359,-1.646485 l -13.69336,-13.685547 -0.006,-0.0039 C 397.17721,58.24547 396.58729,58.000532 395.9707,58 Z m 0.5,2 h 43.96875 c 0.0887,7.7e-5 0.18076,0.03621 0.25391,0.107422 l 13.67968,13.669922 c 0.0622,0.06211 0.0976,0.144539 0.0977,0.232422 v 69.660154 c 5e-5,0.0929 -0.0295,0.18265 -0.084,0.25391 -3.70199,4.81458 -9.28649,9.8945 -13.98438,14.0039 l 0.60156,0.68946 -0.60742,-0.68555 c -0.0503,0.0447 -0.11274,0.0684 -0.17578,0.0684 H 352 Z"
       id="path12" />
    <path
       style="baseline-shift:baseline;display:inline;overflow:visible;vector-effect:non-scaling-stroke;fill:#c596da;enable-background:accumulate;stop-color:#000000;stop-opacity:1;opacity:1"
       d="m 140.91406,62.886719 c -0.46758,0 -0.93348,0.176825 -1.2832,0.529297 l -0.002,0.002 -29.05469,29.632812 v 0.002 c -0.32638,0.334771 -0.51053,0.782471 -0.51367,1.25 l -0.0899,6.923826 1,0.0137 -1,-0.0117 c -0.0125,1.00437 0.82766,1.84451 1.83203,1.83203 h 0.002 l 58.45703,-0.95117 c 0.97129,-0.0119 1.77714,-0.81582 1.78906,-1.78711 l 0.0684,-6.234379 v -0.002 c 0.003,-0.486127 -0.18975,-0.954787 -0.53516,-1.296875 L 142.19922,63.416016 c -0.34972,-0.352472 -0.81758,-0.529297 -1.28516,-0.529297 z m 0.002,2.074218 29.20312,29.19336 -0.0664,5.958983 -58.08007,0.94336 0.0879,-6.664062 z"
       id="path13" />
  </g>
  <g
     fill="#8b2db4"
     id="g29"
     style="stroke-width:20;stroke-dasharray:none;stroke:#ffffff;stroke-opacity:1;paint-order:markers stroke fill;stroke-linejoin:bevel;stroke-linecap:round">
    <g
       id="path23"
       style="opacity:1">
      <path
         style="baseline-shift:baseline;display:inline;overflow:visible;vector-effect:none;fill:#ffffff;stroke:none;enable-background:accumulate;stop-color:#000000;stop-opacity:1"
         d="m 896.67578,31.285156 c -6.0139,0.623376 -11.66172,4.234806 -14.60156,10.126953 -2.74797,5.491025 -2.32334,9.471923 -2.32617,13.498047 -0.002,2.691666 0.0896,4.472522 0.16211,6.431641 L 860.0332,81.320312 840.12695,61.476562 c -0.0544,-2.934966 -0.11051,-5.874917 0.0879,-9.441406 v -0.002 c 0.58799,-10.618372 -7.8926,-19.42173 -16.56054,-20.410156 -4.33397,-0.494213 -8.94473,0.444032 -12.85352,3.384765 -3.90879,2.940734 -6.58109,8.14063 -6.75586,13.388672 v 0.01172 c -0.0562,1.742739 -0.33754,7.69313 -0.29883,13.515625 0.0194,2.911248 0.10428,5.811205 0.40039,8.550781 0.14806,1.369789 0.3335,2.68615 0.72071,4.181641 0.38689,1.494256 0.51868,3.240987 3.18164,6.011719 5.45938,5.697301 17.25969,17.402341 33.97265,33.792971 -0.0373,16.5909 -0.0334,33.17863 0.0293,49.75781 v 0.004 c 0.0448,10.50871 8.8965,19.04879 18.25,19 4.67675,-0.0244 9.58076,-2.04242 12.99024,-5.86719 3.40947,-3.82477 5.05998,-9.10395 4.99804,-14.5586 v -0.002 c -0.18342,-16.00181 -0.27564,-32.00581 -0.30273,-48.01367 10.64307,-10.59395 21.30331,-21.1688 31.98828,-31.714844 4.07036,-4.017499 6.05626,-9.911246 6.03516,-15.345703 -0.007,-1.649399 0.29631,-6.819813 0.30859,-11.890625 0.006,-2.535406 -0.053,-5.11713 -0.34375,-7.699219 -0.29047,-2.5799 -0.38325,-5.043177 -2.61914,-8.658203 -3.65054,-5.911659 -10.66511,-8.810946 -16.67969,-8.1875 z M 820.11719,65.5 c 3.7e-4,0.0095 0.005,0.01787 0.006,0.02734 0.001,0.0233 -0.001,0.05289 0,0.07617 z m 23.54492,50.5918 c 0.0358,0.0351 0.0344,0.0351 0.0703,0.0703 l -0.0469,-0.043 c -1.3e-4,-1.2e-4 -0.0227,-0.0268 -0.0234,-0.0273 z"
         id="path30" />
      <path
         style="baseline-shift:baseline;display:inline;overflow:visible;vector-effect:none;stroke:none;enable-background:accumulate;stop-color:#000000;stop-opacity:1"
         d="M 860.61,94.92 889.4,65.98 a 2.07,2.06 67.7 0 0 0.59,-1.42 c 0.01,-4.86 -1,-14.63 1.03,-18.68 2.72,-5.46 10.5,-6.55 13.83,-1.15 2.39,3.86 1.14,18 1.16,23.03 q 0.02,5.15 -3.06,8.19 -16.92,16.7 -33.77,33.48 c -0.75,0.75 -1.21,1.7 -1.21,2.87 q 0.03,25.31 0.32,50.61 c 0.16,14.09 -16.19,12.99 -16.24,1.27 q -0.1,-26.46 -0.03,-52.94 0,-0.94 -1.29,-2.22 -27.22,-26.67 -35.47,-35.28 c -2.28,-2.37 -1.35,-20.98 -1.22,-25.01 0.35,-10.51 16.87,-9.53 16.19,2.75 q -0.42,7.55 -0.12,13.63 a 1.33,1.33 0 0 0 0.4,0.9 l 29,28.91 a 0.78,0.78 0 0 0 1.1,0 z"
         id="path31" />
    </g>
    <g
       id="path24"
       style="opacity:1">
      <path
         style="baseline-shift:baseline;display:inline;overflow:visible;vector-effect:none;fill:#ffffff;stroke:none;enable-background:accumulate;stop-color:#000000;stop-opacity:1"
         d="m 750.79687,31.794922 c -3.39117,0.06141 -6.30237,0.195312 -8.01757,0.195312 h -0.008 l -22.56054,0.01953 h -0.0371 c -4.82237,0.02212 -9.68512,3.038475 -11.76367,5.003906 l -0.0137,0.01172 c -1.89263,1.795901 -7.4995,6.78447 -12.60546,12.044921 -2.55299,2.630226 -5.02696,5.345873 -7.13086,8.203125 -2.1039,2.857253 -4.62934,5.161192 -4.64063,11.519532 v 0.002 c -0.04,25.561754 0.004,51.126908 0.13086,76.695308 0.0264,5.40457 2.52882,10.76979 6.1543,14.49414 6.2394,6.42804 12.58592,12.74535 19.04101,18.95118 2.73494,2.63931 6.91916,5.05468 11.9043,5.05468 12.12343,0.0133 24.25077,0.0133 36.38086,0 h 0.0137 c 5.39313,-0.0129 12.02173,-3.14605 15.31836,-6.37109 l 0.002,-0.002 c 3.10899,-3.04115 8.50072,-7.82401 13.28711,-12.7793 2.39356,-2.47802 4.6598,-4.99471 6.60157,-7.75977 1.94176,-2.76505 4.12728,-5.56789 4.13671,-11.06054 v -0.004 c 0.0334,-24.91768 -0.008,-49.828053 -0.12109,-74.73242 v -0.0059 c -0.0247,-5.885467 -2.60631,-11.783209 -6.63086,-15.966797 l -0.002,-0.002 C 788.827,53.840801 784.13151,48.557283 779.35742,43.75 c -2.38746,-2.40406 -4.83128,-4.743879 -7.32422,-6.757813 -2.49294,-2.013933 -3.77053,-4.42497 -10.30859,-4.958984 l -0.0293,-0.002 c -3.63582,-0.286567 -7.50726,-0.297741 -10.89844,-0.236328 z m 1.17774,36.207031 8.00976,7.992188 0.90235,62.478519 -8.58203,8.58789 -23.13867,0.45898 L 720,138.47461 V 76.738281 c 2.7693,-3.016029 5.65388,-5.939513 8.625,-8.730469 z"
         id="path32" />
      <path
         style="baseline-shift:baseline;display:inline;overflow:visible;vector-effect:none;stroke:none;enable-background:accumulate;stop-color:#000000;stop-opacity:1"
         d="m 694.02,68.81 c 0.01,-5.63 16.76,-20.26 21.26,-24.53 1.47,-1.39 2.76,-2.26 4.94,-2.27 Q 731.5,42 742.78,41.99 c 4.18,0 12.04,-0.47 18.13,0.01 4.53,0.37 18.37,16.34 22.12,20.24 q 3.82,3.97 3.84,9.08 0.17,37.33 0.12,74.68 c -0.01,5.82 -14.13,17.73 -21.02,24.47 -2.81,2.75 -4.16,3.51 -8.35,3.52 q -18.19,0.02 -36.37,0 c -1.85,0 -3.53,-0.87 -4.96,-2.25 q -9.57,-9.2 -18.82,-18.73 -3.3,-3.39 -3.32,-7.57 -0.19,-38.32 -0.13,-76.63 z m 30.21,-10.43 c -4.88,4.39 -9.6,9.21 -13.92,14.09 A 1.24,1.23 65.9 0 0 710,73.29 v 68.79 a 1.4,1.37 23 0 0 0.41,0.98 l 14.33,14.14 a 1.34,1.33 -22.8 0 0 0.97,0.39 l 30.27,-0.6 a 1.43,1.41 21.5 0 0 0.94,-0.4 l 13.71,-13.72 a 1.06,1.05 -23.3 0 0 0.31,-0.77 L 769.93,72.17 A 0.99,0.97 22.2 0 0 769.64,71.5 L 756.46,58.35 A 1.21,1.19 -22.2 0 0 755.61,58 l -30.41,0.01 a 1.49,1.45 -65.1 0 0 -0.97,0.37 z"
         id="path33" />
    </g>
    <g
       id="path25"
       style="opacity:1">
      <path
         style="baseline-shift:baseline;display:inline;overflow:visible;vector-effect:none;fill:#ffffff;stroke:none;enable-background:accumulate;stop-color:#000000;stop-opacity:1"
         d="m 639.5,32.009766 c -18.49784,-0.01999 -36.9963,-0.01691 -55.49414,0.0098 H 584 c -4.49868,0.0086 -9.17039,1.210494 -13.1582,4.392578 -3.98782,3.182085 -6.76185,8.714611 -6.78125,14.302735 v 0.01367 c -0.08,37.201008 -0.08,74.402504 0,111.603514 0.007,4.00061 0.50826,8.44936 3.17578,13.00391 2.66833,4.55594 8.86719,8.67383 15.21289,8.67383 h 0.004 C 602.132,184.0031 621.81446,184 641.5,184 c 5.22812,0 6.10188,-1.5745 7.65234,-2.58008 1.55047,-1.00557 2.94205,-2.11116 4.41993,-3.36914 2.95574,-2.51596 6.14749,-5.62433 9.24609,-8.88672 3.0986,-3.26238 6.05501,-6.63044 8.44336,-9.7207 1.19417,-1.54513 2.24385,-2.99989 3.17578,-4.55274 0.93155,-1.5522 2.15307,-2.49487 2.40625,-6.92968 0.18538,-3.13995 0.80516,-8.94416 0.58008,-15.07032 -0.22536,-6.13365 -0.54614,-13.39907 -6.86524,-19.59179 l 0.006,0.004 c -1.81601,-1.78265 -3.45247,-3.53774 -5.1875,-5.30859 1.0435,-1.08718 1.44584,-1.45749 2.50977,-2.61719 1.77726,-1.93724 3.51514,-3.91572 5.04883,-5.982419 1.53369,-2.066702 3.59782,-2.917051 3.92968,-9.185547 0.12023,-2.211836 0.50624,-7.835533 0.45118,-13.519531 -0.0276,-2.84487 -0.14614,-5.717687 -0.56446,-8.572266 -0.41831,-2.854578 -0.30759,-5.686382 -3.96289,-9.804687 v -0.002 C 667.61926,52.48734 660.31707,45.224693 650.70117,36.255859 l -0.006,-0.0039 c -4.10373,-3.846933 -7.45411,-4.241354 -11.18359,-4.242187 z m -52.48633,17.679687 c -0.01,0.0038 -0.0173,0.01183 -0.0273,0.01563 -0.0177,0.0068 -0.035,0.0068 -0.0527,0.01367 z m 44.34766,18.3125 c 1.86862,1.670068 3.77354,3.323523 5.79101,5.337891 1.44459,1.442368 2.74062,2.870885 3.48633,3.83789 0.19831,0.257161 0.20314,0.34929 0.29102,0.539063 0.16677,2.181748 -0.19832,3.374532 0.56445,2.5 l -0.0117,0.01367 C 638.49132,83.67201 635.27585,86.856617 632.02344,90 h -31.92969 l -0.11133,-21.707031 c 10.43786,-0.08743 20.89551,-0.182846 31.37891,-0.291016 z m 12.05078,38.953127 -0.0547,0.0488 c 0.0142,-0.0131 0.0268,-0.0279 0.041,-0.041 0.004,-0.004 0.01,-0.004 0.0137,-0.008 z m -59.35156,0.4414 c 0.36492,0.30671 0.77332,0.54599 1.17578,0.80274 -0.3844,0.28144 -0.8313,0.47221 -1.17578,0.80078 -5e-5,-0.5345 10e-6,-1.06901 0,-1.60352 z m 57.875,0.49219 c -6.6e-4,0.0451 -0.0233,0.0877 -0.0234,0.13281 -0.0304,-0.0198 -0.0593,-0.041 -0.0898,-0.0605 0.0376,-0.0249 0.076,-0.0469 0.11328,-0.0723 z M 600.7832,126 h 31.45508 L 641,134.79297 v 4.48828 c -2.90235,3.1463 -5.80784,6.09297 -8.69336,8.71875 h -31.32812 z"
         id="path34" />
      <path
         style="baseline-shift:baseline;display:inline;overflow:visible;vector-effect:none;stroke:none;enable-background:accumulate;stop-color:#000000;stop-opacity:1"
         d="m 574.06,50.75 c 0.02,-5.76 4.71,-8.72 9.96,-8.73 q 27.74,-0.04 55.48,-0.01 c 1.33,0 3.23,0.48 4.36,1.54 q 14.25,13.29 21.45,21.4 c 3,3.38 1.83,19.94 1.57,24.73 -0.18,3.4 -11.87,14.54 -14.75,17.68 a 1.01,1.01 0 0 0 0,1.38 q 5.44,5.82 11.43,11.7 c 5.5,5.39 3.72,19.81 3.3,26.95 -0.24,4.22 -21.42,26.61 -25.36,26.61 q -29.53,0 -59.05,0.01 c -6.38,0 -8.38,-6.04 -8.39,-11.7 q -0.12,-55.78 0,-111.56 z m 15.88,9.15 0.2,39.54 a 0.56,0.56 0 0 0 0.56,0.56 h 45.02 a 1.24,1.21 22.8 0 0 0.84,-0.33 q 6.56,-6.08 12.47,-12.88 c 2.73,-3.13 2.35,-7.92 1.71,-11.7 C 649.99,70.7 639.15,61.54 635.59,58.3 a 1.25,1.24 65.6 0 0 -0.87,-0.33 q -19.94,0.21 -39.77,0.37 -2.63,0.02 -4.42,0.71 a 0.91,0.91 0 0 0 -0.59,0.85 z m 46.62,97.8 c 5.02,-4.2 9.72,-9.29 14.12,-14.13 a 1.22,1.21 -24.1 0 0 0.32,-0.82 v -11.52 a 1.38,1.36 -67.7 0 0 -0.4,-0.97 L 636.77,116.38 A 1.3,1.3 0 0 0 635.85,116 h -44.56 a 0.59,0.59 0 0 0 -0.59,0.59 l 0.36,40.82 a 0.6,0.6 0 0 0 0.6,0.59 h 44.07 a 1.3,1.29 25 0 0 0.83,-0.3 z"
         id="path35" />
    </g>
    <g
       id="path26"
       style="opacity:1">
      <path
         style="baseline-shift:baseline;display:inline;overflow:visible;vector-effect:none;fill:#ffffff;stroke:none;enable-background:accumulate;stop-color:#000000;stop-opacity:1"
         d="m 538.77344,32.341797 c -1.72439,-0.03881 -3.45166,0.170605 -5.09766,0.671875 l -0.0156,0.0059 c -3.83251,1.174216 -5.91645,2.960621 -8.0293,5.212891 -2.11286,2.252269 -4.61133,4.901956 -4.61133,10.58789 -0.0321,30.183894 -0.0297,60.392068 0,90.619138 L 512.45898,148 h -23.6875 l -7.82421,-7.82422 c 0.12686,-28.08237 0.052,-56.158349 -0.28711,-84.228514 v -0.002 c -3e-5,-0.002 2e-5,-0.0039 0,-0.0059 -0.024,-2.27274 1.14326,-7.308201 -2.64454,-14.007812 -4.32738,-7.659004 -14.4633,-10.92767 -21.63476,-8.208985 -7.17147,2.718685 -12.34228,9.830871 -12.38086,18.242188 -0.1272,28.090412 0.22421,59.380866 1.05273,93.884766 v 0.006 c 0.0345,1.40256 -0.24355,3.02045 0.44922,6.11914 0.69277,3.09869 2.68512,6.17554 4.73242,8.35351 2.51674,2.67753 7.72601,8.08757 15.79688,16.41211 l 0.0137,0.0156 c 4.70717,4.83543 12.12106,8.20509 19.3711,8.24414 h 0.0137 c 2.89195,0.0119 12.1089,0.47603 20.9414,0.39062 4.41625,-0.0427 8.81012,-0.20879 12.85352,-0.73046 4.04339,-0.52168 7.56335,-0.0777 12.62695,-4.78907 l 0.0156,-0.0156 c 2.92674,-2.7352 8.4204,-8.25152 17.07617,-17.08789 l 0.0117,-0.0117 c 1.69453,-1.73575 3.45171,-3.13777 5.32617,-6.1582 1.87446,-3.02044 2.71173,-7.09139 2.71875,-10.56836 v -0.0176 c 0.007,-31.13352 0.004,-62.26067 -0.01,-93.380861 V 52.625 c -9.5e-4,-4.949853 -1.21467,-9.989863 -5.03125,-14.464844 -2.86355,-3.357551 -8.01239,-5.701942 -13.18554,-5.818359 z"
         id="path36" />
      <path
         style="baseline-shift:baseline;display:inline;overflow:visible;vector-effect:none;stroke:none;enable-background:accumulate;stop-color:#000000;stop-opacity:1"
         d="m 531.02,48.82 c 0,-2.39 3.22,-5.52 5.57,-6.24 6.83,-2.08 10.4,4.25 10.4,10.05 q 0.02,46.68 0.01,93.38 c -0.01,4.95 -1.5,5.97 -5.2,9.76 q -12.94,13.21 -16.76,16.78 c -4.6,4.28 -32.25,2.48 -39.57,2.45 -5.57,-0.03 -8.59,-1.45 -12.26,-5.22 q -12.09,-12.47 -15.69,-16.3 c -2.82,-3 -2.38,-4.21 -2.47,-7.87 Q 453.81,93.97 454,52.01 c 0.04,-8.72 10.66,-13.39 15.31,-5.16 1.42,2.51 1.32,6.57 1.35,9.21 q 0.53,43.86 0.3,87.74 a 1.22,1.22 0 0 0 0.37,0.9 l 12.92,12.92 a 1.28,1.25 -21.6 0 0 0.91,0.38 h 30.87 A 1.38,1.36 22.3 0 0 517,157.6 L 530.6,144 a 1.44,1.42 -22.7 0 0 0.42,-1.01 q -0.05,-47.12 0,-94.17 z"
         id="path37" />
    </g>
    <g
       id="path27"
       style="opacity:1">
      <path
         style="baseline-shift:baseline;display:inline;overflow:visible;vector-effect:none;fill:#ffffff;stroke:none;enable-background:accumulate;stop-color:#000000;stop-opacity:1"
         d="m 279.25977,33.009766 c -17.85148,-0.02 -35.70011,-0.01691 -53.54493,0.0098 h -0.002 c -4.16026,0.0073 -8.81962,0.661606 -13.23828,3.765625 -4.41866,3.10402 -7.46574,9.210391 -7.47461,15.029297 v 0.01367 c -0.007,38.288408 -0.004,76.576825 0.01,114.865235 v 0.0117 c 0.01,6.54873 3.1708,12.52864 8.46875,16.00586 5.29794,3.47722 13.37162,3.74333 19.28906,-0.14063 l 0.002,-0.002 c 4.28326,-2.81369 7.42714,-8.24856 8.0625,-12.4043 0.63536,-4.15573 0.18489,-6.92124 0.16797,-9.69531 v -0.008 c -0.0311,-4.45479 0.0335,-8.96823 0.0644,-13.46094 h 13.22266 c 10.52231,10.78965 21.08,21.54143 31.69922,32.22852 7.34646,7.39688 19.70098,7.31464 26.21679,0.79882 6.51641,-6.5164 6.37092,-19.07943 -1.07421,-26.66992 -4.96931,-5.06675 -9.91251,-10.08174 -14.86133,-15.10742 0.1241,-0.11503 0.30698,-0.27894 0.42773,-0.38867 l 0.008,-0.008 c 6.22915,-5.6731 12.02563,-11.77054 17.38477,-18.27735 1.51278,-1.80254 2.43175,-4.00722 2.66211,-6.31054 l -0.0117,0.12109 c -0.11149,0.99223 0.60371,0.0955 0.55078,-4.19531 v -0.008 c -0.15966,-13.380225 -0.2733,-26.757318 -0.33984,-40.130856 v -0.002 c -0.0175,-3.610084 -1.07605,-5.236403 -1.90039,-6.755859 -0.82453,-1.519804 -1.71441,-2.778434 -2.68164,-4.046875 -1.93447,-2.536881 -4.20518,-5.042665 -6.54883,-7.498047 -4.68731,-4.910764 -9.7773,-9.645013 -11.38672,-11.197266 l -0.0117,-0.01172 c -3.93273,-3.781083 -9.39432,-6.53125 -15.16015,-6.53125 z M 241,70 h 32.31445 L 281,77.667969 v 24.599611 c -2.63152,2.86439 -5.20615,5.49817 -7.62891,7.68555 L 241,110.55664 Z m -15.99414,58.10742 c 0.33941,0.28332 0.73244,0.4834 1.10351,0.72461 -0.37348,0.24174 -0.7629,0.45295 -1.10351,0.73828 -9e-5,-0.48763 8e-5,-0.97525 0,-1.46289 z m 49.62891,1.82617 c -1.64101,1.72335 -2.62839,3.95691 -2.88086,6.30469 -1.91163,-1.95653 -3.84549,-3.88968 -5.75391,-5.84961 -0.1201,-0.12352 -0.29466,-0.16968 -0.41992,-0.28711 z m 11.6875,15.78711 c -0.0264,0.0137 -0.0457,0.0354 -0.0723,0.0488 l -0.10156,0.0508 c 0.0641,-0.0314 0.11039,-0.068 0.17383,-0.0996 z"
         id="path38" />
      <path
         style="baseline-shift:baseline;display:inline;overflow:visible;vector-effect:none;stroke:none;enable-background:accumulate;stop-color:#000000;stop-opacity:1"
         d="m 281.75,136.84 a 0.49,0.49 0 0 0 -0.13,0.78 q 11.15,11.3 22.37,22.74 c 9.22,9.4 -2.54,20.25 -10.91,11.82 Q 275.87,154.86 258.83,137.36 A 1.19,1.18 67.8 0 0 257.98,137 h -26.37 a 0.5,0.5 0 0 0 -0.5,0.49 q -0.19,11.6 -0.11,23.04 c 0.04,6.56 1.06,10.54 -3.72,13.68 -5.82,3.82 -12.26,-0.94 -12.27,-7.52 Q 214.99,109.26 215,51.83 c 0.01,-6.56 5.01,-8.8 10.73,-8.81 q 26.76,-0.04 53.53,-0.01 4.34,0 8.23,3.74 c 3.66,3.53 19.44,18.1 19.46,22.35 q 0.1,20.1 0.34,40.21 c 0.01,0.79 -0.39,2.07 -0.49,2.96 a 1.63,1.6 68.4 0 1 -0.37,0.88 q -7.61,9.25 -16.46,17.31 c -2.74,2.49 -4.79,4.7 -8.22,6.38 z m -4.1,-17.24 c 4.63,-3.66 9.15,-8.83 13.02,-13.05 a 1.21,1.21 0 0 0 0.33,-0.83 v -31.4 a 1.94,1.91 -67.8 0 0 -0.56,-1.36 L 277.83,60.38 A 1.33,1.29 -21.8 0 0 276.9,60 H 231.5 A 0.5,0.5 0 0 0 231,60.5 V 120 a 0.73,0.73 0 0 0 0.75,0.73 l 45.08,-0.84 a 1.39,1.37 25.1 0 0 0.82,-0.29 z"
         id="path39" />
    </g>
    <g
       id="path28"
       style="opacity:1">
      <path
         style="baseline-shift:baseline;display:inline;overflow:visible;vector-effect:none;fill:#ffffff;stroke:none;enable-background:accumulate;stop-color:#000000;stop-opacity:1"
         d="m 401.5,33.009766 c -19.21151,-0.02 -38.42636,-0.01691 -57.64453,0.0098 -5.87356,0.0081 -12.53684,2.644216 -15.90625,7.615235 -3.36883,4.970162 -3.54023,9.906062 -3.47852,14.322265 0.49917,36.206014 0.6695,72.416219 0.50977,108.628909 -0.0174,3.82581 -0.15843,8.25433 2.80078,13.29492 2.95968,5.04138 9.82871,8.17776 15.73242,8.16992 h 0.004 c 18.99427,-0.0333 37.98815,-0.0632 56.98242,-0.0898 4.67702,0 9.09278,-2.21154 12.12695,-5.01758 l 0.006,-0.004 c 2.01599,-1.86327 7.37373,-6.83726 12.36719,-11.87109 2.49774,-2.51794 4.89154,-5.02607 6.87891,-7.37695 0.99368,-1.17545 1.88176,-2.28355 2.74023,-3.59961 0.85793,-1.31524 2.3692,-2.01791 2.37109,-7.14453 0.02,-26.79571 0.02,-53.587916 0,-80.376958 v -0.0078 c -0.001,-4.335067 -1.17531,-7.900225 -4.31054,-11.339844 -1.04807,-1.152886 -6.13116,-6.753558 -11.56055,-12.177734 -2.71693,-2.714318 -5.50129,-5.381788 -8.16016,-7.603516 -1.32943,-1.110863 -2.60184,-2.110281 -4.08984,-3.046875 -1.48678,-0.93582 -2.63685,-2.382378 -7.35937,-2.384765 z M 361,69 h 31.39062 L 401,77.605469 v 62.771481 c -2.41952,2.77086 -5.43687,5.73152 -8.65039,8.62305 H 361 Z"
         id="path40" />
      <path
         style="baseline-shift:baseline;display:inline;overflow:visible;vector-effect:none;stroke:none;enable-background:accumulate;stop-color:#000000;stop-opacity:1"
         d="m 426.99,149.94 c 0,3.01 -17.19,19 -21.15,22.66 q -2.55,2.36 -5.34,2.36 -28.5,0.04 -57,0.09 c -7.53,0.01 -8.55,-4.82 -8.52,-11.42 q 0.24,-54.41 -0.51,-108.81 c -0.1,-7.14 1.65,-11.79 9.4,-11.8 q 28.82,-0.04 57.63,-0.01 c 3.85,0 21.69,19.64 23.79,21.95 1.03,1.13 1.7,2.93 1.7,4.61 q 0.03,40.18 0,80.37 z m -30.4,8.74 c 4.71,-4.12 10.33,-9.22 14.12,-14.15 A 1.42,1.41 63.8 0 0 411,143.67 V 74.01 a 1.33,1.33 0 0 0 -0.39,-0.94 L 396.92,59.39 A 1.38,1.35 66.7 0 0 395.97,59 H 351.5 a 0.5,0.5 0 0 0 -0.5,0.5 v 99 a 0.5,0.5 0 0 0 0.5,0.5 h 44.25 a 1.27,1.26 -65.7 0 0 0.84,-0.32 z"
         id="path41" />
    </g>
    <g
       id="path29"
       style="opacity:1">
      <path
         style="baseline-shift:baseline;display:inline;overflow:visible;vector-effect:none;fill:#ffffff;stroke:none;enable-background:accumulate;stop-color:#000000;stop-opacity:1"
         d="m 140.70117,33.763672 c -1.3703,0.0083 -2.67643,0.18141 -3.8418,0.521484 -4.66144,1.360299 -7.57611,3.904328 -9.94726,6.201172 l -0.0156,0.01563 C 113.99001,53.0576 101.49846,66.014594 89.421875,79.373047 86.717747,82.364205 85.050781,86.738575 85.050781,90.75 c -0.04665,24.65007 -0.05792,49.29799 -0.03125,73.94141 v 0.0137 c 0.0082,3.3135 0.05069,6.06461 1.486328,9.625 3.368297,8.35991 12.582209,12.77863 20.298831,11.27539 7.71916,-1.50373 14.63828,-9.24337 14.48437,-18.28516 v -0.01 c -0.23527,-13.10061 -0.241,-26.2056 -0.20898,-39.31055 h 40.45703 c 0.18425,12.78792 0.361,25.57292 0.49414,38.34375 v 0.002 c 0.0366,3.47522 0.30632,6.87169 2.52148,10.62696 9.5e-4,0.002 0.003,0.002 0.004,0.004 3.45874,5.87003 10.19075,9.09665 16.30078,8.69141 6.11121,-0.40532 11.95266,-4.0673 14.96485,-9.92188 v -0.002 c 2.2005,-4.27738 2.16803,-7.57369 2.16796,-11.5918 v -0.0117 c 0.0267,-23.17981 0.0205,-46.35808 -0.0195,-69.531245 v -0.01758 c -2.3e-4,-3.007484 -0.0632,-6.058567 -1.22656,-9.490235 -1.16563,-3.438236 -3.37888,-6.388453 -5.71484,-8.763671 C 171.97866,56.966743 159.3378,44.370936 152.62891,38.125 c -3.13634,-2.924101 -7.81684,-4.38629 -11.92774,-4.361328 z m 0.2793,43.986328 13.61719,13.613281 -27.40039,0.445313 z m -22.52539,22.97266 c -0.002,0.002 -0.002,0.006 -0.004,0.008 l -0.0215,0.0195 z m 59.51953,6.98828 c 0.001,1.00706 -0.001,2.01441 0,3.02148 -0.64475,-0.58545 -1.40287,-1.01885 -2.17383,-1.42969 0.76782,-0.48448 1.54652,-0.93794 2.17383,-1.59179 z m -72.93164,1.71484 c 0.2463,0.20462 0.52791,0.35418 0.79101,0.53711 -0.26539,0.18031 -0.54285,0.33614 -0.79101,0.53906 3.9e-4,-0.35874 -4.1e-4,-0.71742 0,-1.07617 z"
         id="path42" />
      <path
         style="baseline-shift:baseline;display:inline;overflow:visible;vector-effect:none;stroke:none;enable-background:accumulate;stop-color:#000000;stop-opacity:1"
         d="m 145.81,45.44 q 9.56,8.9 38.09,37.91 c 3.57,3.63 4.07,5.85 4.07,11.26 q 0.06,34.76 0.02,69.53 0,4.97 -1.06,7.03 c -2.86,5.56 -10.51,6.25 -13.76,0.73 q -1.1,-1.86 -1.14,-5.66 -0.25,-23.98 -0.62,-48 A 0.25,0.25 0 0 0 171.16,118 h -59.65 a 0.48,0.48 0 0 0 -0.48,0.48 q -0.18,24.51 0.26,49.01 c 0.16,9.4 -12.05,11.7 -15.51,3.1 q -0.75,-1.86 -0.76,-5.91 -0.04,-36.96 0.03,-73.93 0,-2.69 1.79,-4.67 17.9,-19.8 37.03,-38.41 c 3.51,-3.4 7.95,-5.95 11.94,-2.23 z m -34.84,55.8 a 0.81,0.81 0 0 0 0.82,0.82 l 58.46,-0.95 a 0.81,0.81 0 0 0 0.8,-0.8 l 0.07,-6.23 A 0.81,0.81 0 0 0 170.88,93.5 L 141.49,64.12 a 0.81,0.81 0 0 0 -1.15,0 l -29.05,29.63 a 0.81,0.81 0 0 0 -0.23,0.56 z"
         id="path43" />
    </g>
  </g>
</svg>
