<?xml version="1.0" encoding="UTF-8" standalone="no"?>
<svg
   width="627.89801"
   height="204.74599"
   xml:space="preserve"
   version="1.1"
   id="svg18"
   sodipodi:docname="astrocade.svg"
   inkscape:version="1.4.3 (0d15f75042, 2025-12-25)"
   xmlns:inkscape="http://www.inkscape.org/namespaces/inkscape"
   xmlns:sodipodi="http://sodipodi.sourceforge.net/DTD/sodipodi-0.dtd"
   xmlns="http://www.w3.org/2000/svg"
   xmlns:svg="http://www.w3.org/2000/svg"><defs
   id="defs18"><linearGradient
     id="swatch18"
     inkscape:swatch="solid"><stop
       style="stop-color:#000000;stop-opacity:1;"
       offset="0"
       id="stop18" /></linearGradient></defs><sodipodi:namedview
   id="namedview18"
   pagecolor="#b0b0b0"
   bordercolor="#000000"
   borderopacity="0.25"
   inkscape:showpageshadow="2"
   inkscape:pageopacity="0.0"
   inkscape:pagecheckerboard="0"
   inkscape:deskcolor="#d1d1d1"
   inkscape:zoom="1.1030502"
   inkscape:cx="308.2362"
   inkscape:cy="166.35689"
   inkscape:window-width="1920"
   inkscape:window-height="1080"
   inkscape:window-x="0"
   inkscape:window-y="0"
   inkscape:window-maximized="0"
   inkscape:current-layer="g34" />
    
    
    
    
    
    
    
    
    
    
    
    
    
    
    
    
    
    <g
   id="g24"
   style="stroke:#ffffff;stroke-width:15;stroke-linecap:round;stroke-linejoin:round;stroke-dasharray:none;stroke-opacity:1;paint-order:markers stroke fill"
   transform="translate(96.303,89.150982)"><g
     id="g34"><g
       id="g30"
       transform="translate(-60)"><g
         id="path1"
         style="opacity:1"><path
           style="baseline-shift:baseline;display:inline;overflow:visible;vector-effect:none;fill:#ffffff;stroke:none;enable-background:accumulate;stop-color:#000000;stop-opacity:1"
           d="m 358.58008,16.916016 a 7.50075,7.50075 0 0 0 -5.41992,2.480468 h -0.0899 a 7.50075,7.50075 0 0 0 -5.9375,3.726563 7.50075,7.50075 0 0 0 -4.10156,3.560547 7.50075,7.50075 0 0 0 -4.10742,4.435547 7.50075,7.50075 0 0 0 -4.96875,5.279296 7.50075,7.50075 0 0 0 -4.32227,5.529297 7.50075,7.50075 0 0 0 -4.39844,6.214844 v 35.970703 a 7.50075,7.50075 0 0 0 4.28907,6.169922 7.50075,7.50075 0 0 0 4.69922,5.900391 7.50075,7.50075 0 0 0 4.47656,4.804686 7.50075,7.50075 0 0 0 4.25586,4.67774 7.50075,7.50075 0 0 0 4.79101,3.99609 7.50075,7.50075 0 0 0 5.37891,3.05469 7.50075,7.50075 0 0 0 5.58594,2.8789 h 17.05468 a 7.50075,7.50075 0 0 0 7.5,-7.5 V 85.851562 a 7.50075,7.50075 0 0 0 -7.5,-7.5 h -6.11523 a 7.50075,7.50075 0 0 0 -4.35937,-3.896484 7.50075,7.50075 0 0 0 -3.26172,-3.90625 v -8.585937 a 7.50075,7.50075 0 0 0 4.19726,-4.851563 7.50075,7.50075 0 0 0 3.52344,-3.222656 h 6.01562 a 7.50075,7.50075 0 0 0 7.5,-7.5 V 24.416016 a 7.50075,7.50075 0 0 0 -7.5,-7.5 z m 5.41992,15 h 4.26562 v 6.972656 h -4.70117 a 7.50075,7.50075 0 0 0 -6.59765,5.320312 7.50075,7.50075 0 0 0 -4.32618,4.640625 7.50075,7.50075 0 0 0 -5.61132,6.716797 v 21.107422 a 7.50075,7.50075 0 0 0 5.01562,6.470703 7.50075,7.50075 0 0 0 4.54492,4.607422 7.50075,7.50075 0 0 0 6.71289,5.599609 h 4.96289 v 7.244138 h -4.02734 a 7.50075,7.50075 0 0 0 -5.27734,-2.634763 7.50075,7.50075 0 0 0 -3.4668,-1.826171 7.50075,7.50075 0 0 0 -3.13672,-3.150391 7.50075,7.50075 0 0 0 -4.63476,-5.105469 7.50075,7.50075 0 0 0 -3.66407,-4.359375 7.50075,7.50075 0 0 0 -3.82422,-5.484375 V 54.220703 a 7.50075,7.50075 0 0 0 3.74415,-5.291016 7.50075,7.50075 0 0 0 3.66796,-4.46875 7.50075,7.50075 0 0 0 4.83399,-5.167968 7.50075,7.50075 0 0 0 2.99219,-3.048828 7.50075,7.50075 0 0 0 3.18164,-1.878907 A 7.50075,7.50075 0 0 0 364,31.916016 Z"
           id="path35" /><path
           style="baseline-shift:baseline;display:inline;overflow:visible;vector-effect:none;fill:#d9d9d9;stroke:none;enable-background:accumulate;stop-color:#000000;stop-opacity:1;fill-opacity:1"
           d="m 358.58,26.897 v -2.481 h 17.185 v 21.973 h -12.201 v 4.326 h -4.197 v 4.851 h -4.837 v 21.108 h 4.18 v 4.457 h 4.592 v 4.72 h 12.463 v 22.244 H 358.71 v -2.737 h -5.248 v -2.565 h -4.197 v -3.59 H 345.46 V 94.442 H 341 v -4.689 h -4.196 v -5.64 h -4.07 V 48.142 h 4.07 v -5.424 h 4.065 v -4.905 h 4.724 v -4.689 h 3.672 V 29.74 h 3.805 v -2.843 z"
           id="path36" /></g><path
         d="M 376.515,108.845 H 357.96 v -2.737 h -5.248 v -2.564 h -4.197 v -3.59 h -3.805 v -4.762 h -4.461 v -4.688 h -4.195 v -5.641 h -4.07 V 47.392 h 4.07 v -5.424 h 4.064 v -4.905 h 4.725 v -4.688 h 3.672 V 28.99 h 3.805 v -2.844 h 5.51 v -2.48 h 18.686 v 23.473 h -12.201 v 4.326 h -4.197 v 4.851 h -4.837 v 19.608 h 4.181 v 4.457 h 4.592 v 4.72 h 12.463 v 23.744 z m -17.055,-1.5 h 15.555 V 86.601 h -12.463 v -4.72 h -4.592 v -4.457 h -4.181 V 54.816 h 4.837 v -4.851 h 4.197 v -4.326 h 12.201 V 25.166 H 359.33 v 2.48 h -5.51 v 2.844 h -3.805 v 3.384 h -3.672 v 4.688 h -4.725 v 4.905 h -4.064 v 5.424 h -4.07 v 34.471 h 4.07 v 5.641 h 4.195 v 4.688 h 4.461 v 4.762 h 3.805 v 3.59 h 4.197 v 2.564 h 5.248 z"
         id="path2"
         style="fill:#000000;fill-opacity:1;fill-rule:nonzero;stroke:#ffffff;stroke-width:0;stroke-linecap:round;stroke-linejoin:round;stroke-dasharray:none;stroke-opacity:1;paint-order:markers stroke fill" /></g><g
       id="g31"
       transform="translate(-54)"><g
         id="path3"
         style="opacity:1"><path
           style="baseline-shift:baseline;display:inline;overflow:visible;vector-effect:none;fill:#ffffff;stroke:none;enable-background:accumulate;stop-color:#000000;stop-opacity:1"
           d="m 405.19922,16.810547 a 7.50075,7.50075 0 0 0 -5.23633,2.169922 7.50075,7.50075 0 0 0 -0.0664,0.02734 7.50075,7.50075 0 0 0 -5.91601,3.785157 7.50075,7.50075 0 0 0 -4.35547,3.716797 7.50075,7.50075 0 0 0 -4.53711,4.99414 7.50075,7.50075 0 0 0 -4.09766,4.611328 7.50075,7.50075 0 0 0 -5.12109,6.09375 7.50075,7.50075 0 0 0 -4.01562,6.056641 v 36.208984 a 7.50075,7.50075 0 0 0 4.76171,6.365235 7.50075,7.50075 0 0 0 4.2461,5.550781 7.50075,7.50075 0 0 0 4.39844,5.255855 7.50075,7.50075 0 0 0 4.55078,4.65821 7.50075,7.50075 0 0 0 3.93164,3.69531 7.50075,7.50075 0 0 0 5.94726,3.75195 h 1.19141 a 7.50075,7.50075 0 0 0 4.31836,1.78907 h 15.74219 a 7.50075,7.50075 0 0 0 2.26367,-0.9375 7.50075,7.50075 0 0 0 2.26367,0.9375 h 20.26953 a 7.50075,7.50075 0 0 0 7.5,-7.5 V 42.230469 a 7.50075,7.50075 0 0 0 -5.15625,-6.529297 7.50075,7.50075 0 0 0 -4.62891,-4.921875 7.50075,7.50075 0 0 0 -4.30078,-4.1875 7.50075,7.50075 0 0 0 -4.47656,-4.050781 7.50075,7.50075 0 0 0 -5.80664,-3.529297 7.50075,7.50075 0 0 0 -5.30469,-2.201172 z m 5.26172,15 h 7.84765 a 7.50075,7.50075 0 0 0 4.91211,2.035156 7.50075,7.50075 0 0 0 3.07227,1.853516 7.50075,7.50075 0 0 0 4.12109,4.011718 7.50075,7.50075 0 0 0 4.03125,4.13086 7.50075,7.50075 0 0 0 3.79297,4.628906 v 52.070317 h -5.26953 V 51.019531 A 7.50075,7.50075 0 0 0 427.5,44.361328 a 7.50075,7.50075 0 0 0 -6.42578,-4.90625 h -10.625 a 7.50075,7.50075 0 0 0 -6.22656,4.425781 7.50075,7.50075 0 0 0 -5.08985,4.6875 7.50075,7.50075 0 0 0 -5.76367,6.78125 v 21.253907 a 7.50075,7.50075 0 0 0 5.37891,6.621093 7.50075,7.50075 0 0 0 4.57617,4.714844 7.50075,7.50075 0 0 0 6.33594,4.689453 h 3.78125 v 7.912114 h -3.91993 a 7.50075,7.50075 0 0 0 -4.29296,-1.777348 7.50075,7.50075 0 0 0 -2.61133,-1.554688 7.50075,7.50075 0 0 0 -4.00391,-3.996093 7.50075,7.50075 0 0 0 -3.71289,-4.257813 7.50075,7.50075 0 0 0 -3.80469,-5.007812 7.50075,7.50075 0 0 0 -4.24218,-5.712891 v -24 a 7.50075,7.50075 0 0 0 3.42968,-5.064453 7.50075,7.50075 0 0 0 4.3125,-4.865235 7.50075,7.50075 0 0 0 4.26758,-4.992187 7.50075,7.50075 0 0 0 3.25391,-3.205078 7.50075,7.50075 0 0 0 3.55859,-2.320313 7.50075,7.50075 0 0 0 4.78516,-1.976562 z m 5.21484,24.28125 a 7.50075,7.50075 0 0 0 2.29297,1.140625 v 20.396484 h -2.33984 a 7.50075,7.50075 0 0 0 -3.375,-2.730469 7.50075,7.50075 0 0 0 -3.88477,-4.589843 v -8.554688 a 7.50075,7.50075 0 0 0 3.97852,-4.283203 7.50075,7.50075 0 0 0 3.32812,-1.378906 z"
           id="path37" /><path
           style="baseline-shift:baseline;display:inline;overflow:visible;vector-effect:none;fill:#d9d9d9;stroke:none;enable-background:accumulate;stop-color:#000000;stop-opacity:1;fill-opacity:1"
           d="m 405.199,26.488 v -2.177 h 18.365 v 2.177 h 5.248 v 2.754 h 3.938 v 3.937 h 4.197 v 4.199 h 4.33 v 4.852 h 4.461 v 65.811 h -20.27 V 51.019 h -4.394 v -4.064 h -10.625 v 3.802 h -4.723 v 4.593 h -4.857 v 21.253 h 4.591 v 4.721 h 4.2 v 3.804 h 11.281 v 22.913 h -15.742 v -1.79 h -5.51 v -2.755 h -3.543 v -3.804 h -4.197 v -4.46 h -4.069 v -5.117 h -4.066 v -5.641 h -4.461 V 48.265 h 3.805 v -5.547 h 4.593 v -4.817 h 4.198 v -4.854 h 3.935 v -3.543 h 4.067 v -3.023 z"
           id="path38" /></g><path
         d="m 446.488,108.791 h -21.77 V 51.769 h -4.395 v -4.063 h -9.125 v 3.802 h -4.723 V 56.1 h -4.857 v 19.753 h 4.592 v 4.722 h 4.199 v 3.804 h 11.281 v 24.413 h -17.242 v -1.79 h -5.51 v -2.755 h -3.543 v -3.805 h -4.197 v -4.46 h -4.068 v -5.116 h -4.066 v -5.642 h -4.461 V 47.515 h 3.805 v -5.547 h 4.594 v -4.817 h 4.197 v -4.854 h 3.936 v -3.543 h 4.066 V 25.73 l 5.248,0.007 v -2.176 h 19.865 v 2.177 h 5.248 v 2.755 h 3.938 v 3.937 h 4.197 v 4.199 h 4.33 v 4.852 h 4.461 z m -20.27,-1.5 h 18.77 V 42.98 h -4.461 v -4.852 h -4.33 V 33.929 H 432 v -3.937 h -3.938 v -2.755 h -5.248 V 25.06 h -16.865 v 2.178 l -5.248,-0.007 v 3.022 h -4.066 v 3.543 h -3.936 v 4.854 h -4.197 v 4.817 h -4.594 v 5.547 h -3.805 v 34.709 h 4.461 v 5.642 h 4.066 v 5.116 h 4.068 v 4.46 h 4.197 v 3.805 h 3.543 v 2.755 h 5.51 v 1.79 H 420.19 V 85.878 h -11.28 v -3.804 h -4.199 v -4.722 h -4.592 V 54.6 h 4.857 v -4.593 h 4.723 v -3.802 h 12.125 v 4.063 h 4.395 v 57.023 z"
         id="path4"
         style="stroke:#ffffff;stroke-width:0;stroke-linecap:round;stroke-linejoin:round;stroke-dasharray:none;stroke-opacity:1;paint-order:markers stroke fill" /></g><g
       id="g25"><g
         id="path5"
         style="opacity:1"><path
           style="baseline-shift:baseline;display:inline;overflow:visible;vector-effect:none;fill:#ffffff;stroke:none;enable-background:accumulate;stop-color:#000000;stop-opacity:1"
           d="m -62.957031,16.810547 a 7.50075,7.50075 0 0 0 -5.238281,2.169922 7.50075,7.50075 0 0 0 -0.06641,0.02734 7.50075,7.50075 0 0 0 -5.916015,3.785157 7.50075,7.50075 0 0 0 -4.353516,3.716797 7.50075,7.50075 0 0 0 -4.537109,4.99414 7.50075,7.50075 0 0 0 -4.095703,4.611328 7.50075,7.50075 0 0 0 -5.123047,6.09375 7.50075,7.50075 0 0 0 -4.015625,6.056641 v 36.208984 a 7.50075,7.50075 0 0 0 4.761718,6.365235 7.50075,7.50075 0 0 0 4.246094,5.550781 7.50075,7.50075 0 0 0 4.396485,5.255855 7.50075,7.50075 0 0 0 4.552734,4.65821 7.50075,7.50075 0 0 0 3.931641,3.69531 7.50075,7.50075 0 0 0 5.947265,3.75195 h 1.191406 a 7.50075,7.50075 0 0 0 4.31836,1.78907 h 15.742187 a 7.50075,7.50075 0 0 0 2.263672,-0.9375 7.50075,7.50075 0 0 0 2.263672,0.9375 h 20.269531 a 7.50075,7.50075 0 0 0 7.5,-7.5 V 42.230469 a 7.50075,7.50075 0 0 0 -5.15625,-6.529297 7.50075,7.50075 0 0 0 -4.628906,-4.921875 7.50075,7.50075 0 0 0 -4.300781,-4.1875 7.50075,7.50075 0 0 0 -4.476563,-4.050781 7.50075,7.50075 0 0 0 -5.80664,-3.529297 7.50075,7.50075 0 0 0 -5.304688,-2.201172 z m 5.261719,15 h 7.847656 a 7.50075,7.50075 0 0 0 4.912109,2.035156 7.50075,7.50075 0 0 0 3.072266,1.851563 7.50075,7.50075 0 0 0 4.121094,4.015625 7.50075,7.50075 0 0 0 4.03125,4.128906 7.50075,7.50075 0 0 0 3.792968,4.628906 V 100.54102 H -35.1875 V 51.019531 a 7.50075,7.50075 0 0 0 -5.46875,-6.658203 7.50075,7.50075 0 0 0 -6.425781,-4.90625 h -10.625 a 7.50075,7.50075 0 0 0 -6.226563,4.425781 7.50075,7.50075 0 0 0 -5.089843,4.689453 7.50075,7.50075 0 0 0 -5.763672,6.78125 v 21.25 a 7.50075,7.50075 0 0 0 5.376953,6.621094 7.50075,7.50075 0 0 0 4.578125,4.716797 7.50075,7.50075 0 0 0 6.335937,4.689453 h 3.78125 v 7.912114 h -3.923828 a 7.50075,7.50075 0 0 0 -4.289062,-1.777348 7.50075,7.50075 0 0 0 -2.611328,-1.554688 7.50075,7.50075 0 0 0 -4.003907,-3.996093 7.50075,7.50075 0 0 0 -3.71289,-4.257813 7.50075,7.50075 0 0 0 -3.804688,-5.007812 7.50075,7.50075 0 0 0 -4.242187,-5.712891 v -24 a 7.50075,7.50075 0 0 0 3.429687,-5.064453 7.50075,7.50075 0 0 0 4.3125,-4.865235 7.50075,7.50075 0 0 0 4.267578,-4.992187 7.50075,7.50075 0 0 0 3.253907,-3.205078 7.50075,7.50075 0 0 0 3.558593,-2.320313 7.50075,7.50075 0 0 0 4.785157,-1.976562 z m 5.21289,24.28125 a 7.50075,7.50075 0 0 0 2.294922,1.140625 v 20.396484 h -2.339844 a 7.50075,7.50075 0 0 0 -3.373047,-2.728515 7.50075,7.50075 0 0 0 -3.886718,-4.59375 v -8.550782 a 7.50075,7.50075 0 0 0 3.978515,-4.285156 7.50075,7.50075 0 0 0 3.326172,-1.378906 z"
           id="path39" /><path
           style="baseline-shift:baseline;display:inline;overflow:visible;vector-effect:none;fill:#f2b101;stroke:none;enable-background:accumulate;stop-color:#000000;stop-opacity:1"
           d="m -62.958,26.488 v -2.177 h 18.366 v 2.177 h 5.248 v 2.754 h 3.937 v 3.937 h 4.198 v 4.199 h 4.33 v 4.853 h 4.461 v 65.81 h -20.27 V 51.02 h -4.395 v -4.065 h -10.625 v 3.802 h -4.722 v 4.594 h -4.858 v 21.251 h 4.592 v 4.722 h 4.199 v 3.805 h 11.282 v 22.912 h -15.743 v -1.789 h -5.509 v -2.756 h -3.543 v -3.804 h -4.198 v -4.459 h -4.067 v -5.118 h -4.067 v -5.64 h -4.461 v -36.21 h 3.804 v -5.547 h 4.595 v -4.817 h 4.196 v -4.854 h 3.936 v -3.543 h 4.066 v -3.023 z"
           id="path40" /></g><path
         d="m -21.668,108.791 h -21.77 V 51.77 h -4.395 v -4.064 h -9.125 v 3.802 h -4.722 v 4.594 h -4.858 v 19.751 h 4.592 v 4.723 h 4.199 v 3.805 h 11.282 v 24.412 h -17.243 v -1.789 h -5.509 v -2.756 h -3.543 v -3.805 h -4.198 v -4.459 h -4.067 v -5.117 h -4.067 v -5.641 h -4.461 v -37.71 h 3.804 v -5.547 h 4.595 v -4.817 h 4.196 v -4.854 h 3.936 v -3.543 h 4.066 V 25.73 l 5.248,0.007 v -2.176 h 19.866 v 2.177 h 5.248 v 2.755 h 3.937 v 3.937 h 4.198 v 4.199 h 4.33 v 4.853 h 4.461 z m -20.27,-1.5 h 18.77 v -64.31 h -4.461 v -4.853 h -4.33 v -4.199 h -4.198 v -3.937 h -3.937 v -2.755 h -5.248 V 25.06 h -16.866 v 2.178 l -5.248,-0.007 v 3.022 h -4.066 v 3.543 h -3.936 v 4.854 h -4.196 v 4.817 h -4.595 v 5.547 h -3.804 v 34.71 h 4.461 v 5.641 h 4.067 v 5.117 h 4.067 v 4.459 h 4.198 v 3.805 h 3.543 v 2.756 h 5.509 v 1.789 h 14.243 V 85.879 h -11.282 v -3.805 h -4.199 v -4.723 h -4.592 v -22.75 h 4.858 v -4.594 h 4.722 v -3.802 h 12.125 v 4.064 h 4.395 z"
         id="path6"
         style="stroke:#ffffff;stroke-width:0;stroke-linecap:round;stroke-linejoin:round;stroke-dasharray:none;stroke-opacity:1;paint-order:markers stroke fill" /></g><g
       id="g32"
       transform="translate(-48)"><g
         id="path7"
         style="opacity:1"><path
           style="baseline-shift:baseline;display:inline;overflow:visible;vector-effect:none;fill:#ffffff;stroke:none;enable-background:accumulate;stop-color:#000000;stop-opacity:1"
           d="m 495.06055,-0.36132813 a 7.50075,7.50075 0 0 0 -7.5,7.50000003 v 9.6718751 h -12.13672 a 7.50075,7.50075 0 0 0 -5.34571,2.296875 h 0.29102 a 7.50075,7.50075 0 0 0 -0.35156,0.146484 7.50075,7.50075 0 0 0 -1.05078,2.539063 h -1.04297 v -1.666016 a 7.50075,7.50075 0 0 0 -3.28125,2.240234 7.50075,7.50075 0 0 0 -4.86133,3.898438 7.50075,7.50075 0 0 0 -4.97266,5.160156 7.50075,7.50075 0 0 0 -3.79101,4.53125 7.50075,7.50075 0 0 0 -4.74805,6.033203 7.50075,7.50075 0 0 0 -4.52734,6.269532 v 35.917968 a 7.50075,7.50075 0 0 0 4.8125,6.386719 7.50075,7.50075 0 0 0 4.17773,5.560547 7.50075,7.50075 0 0 0 4.40039,5.35547 7.50075,7.50075 0 0 0 4.78125,5.10937 7.50075,7.50075 0 0 0 4.7793,3.9336 7.50075,7.50075 0 0 0 5.69531,3.13867 h 1.16797 a 7.50075,7.50075 0 0 0 4.54102,1.88086 h 19.13086 a 7.50075,7.50075 0 0 0 4.1289,-1.71094 h 1.07617 a 7.50075,7.50075 0 0 0 6.08399,-4.08203 7.50075,7.50075 0 0 0 4.04101,-4.26953 7.50075,7.50075 0 0 0 4.02539,-4.58984 7.50075,7.50075 0 0 0 4.7168,-4.916021 7.50075,7.50075 0 0 0 4.91406,-6.427734 V 7.1386719 a 7.50075,7.50075 0 0 0 -7.5,-7.50000003 z m 7.5,15.00000013 h 6.65429 v 68.777344 a 7.50075,7.50075 0 0 0 -3.37695,4.152343 7.50075,7.50075 0 0 0 -4.95508,5.320313 7.50075,7.50075 0 0 0 -3.59765,4.226562 7.50075,7.50075 0 0 0 -2.58594,1.935547 7.50075,7.50075 0 0 0 -3.59961,1.492189 h -10.46289 a 7.50075,7.50075 0 0 0 -4.53906,-1.880861 h -0.27344 a 7.50075,7.50075 0 0 0 -3.34766,-1.65039 7.50075,7.50075 0 0 0 -3.60937,-3.451172 7.50075,7.50075 0 0 0 -4.0293,-4.798828 7.50075,7.50075 0 0 0 -3.74219,-5.013672 7.50075,7.50075 0 0 0 -4.35351,-5.841797 V 54.460937 a 7.50075,7.50075 0 0 0 4.23437,-5.890625 7.50075,7.50075 0 0 0 3.67969,-4.625 7.50075,7.50075 0 0 0 3.75391,-4.447265 7.50075,7.50075 0 0 0 3.86328,-3.486328 7.50075,7.50075 0 0 0 3.625,-1.917969 l -0.45703,0.002 a 7.50075,7.50075 0 0 0 0.55273,-0.230469 7.50075,7.50075 0 0 0 0.85156,-2.054687 h 1.04297 v 1.265625 a 7.50075,7.50075 0 0 0 2.87695,-1.265625 h 3.10352 v 6.765625 h -3.24023 a 7.50075,7.50075 0 0 0 -6.86914,5.976562 7.50075,7.50075 0 0 0 -3.80665,3.925782 7.50075,7.50075 0 0 0 -5.88867,6.832031 v 20.976562 a 7.50075,7.50075 0 0 0 5.15039,6.527344 7.50075,7.50075 0 0 0 4.30469,4.941406 7.50075,7.50075 0 0 0 6.43555,4.929688 h 11.41406 a 7.50075,7.50075 0 0 0 6.46875,-5.013672 7.50075,7.50075 0 0 0 4.72266,-6.349609 z m -34.59961,9.582031 a 7.50075,7.50075 0 0 0 -0.0371,0.08984 v -0.05273 z m 9.92773,5.072266 v 0.05273 l -0.0371,0.03711 a 7.50075,7.50075 0 0 0 0.0371,-0.08984 z m 9.15039,24.283203 h 0.52149 v 21.824219 a 7.50075,7.50075 0 0 0 -1.89844,1.595703 7.50075,7.50075 0 0 0 -2.54297,-1.863282 7.50075,7.50075 0 0 0 -4.05469,-5.117187 V 61.71875 a 7.50075,7.50075 0 0 0 3.98438,-4.275391 7.50075,7.50075 0 0 0 3.99023,-3.867187 z"
           id="path41" /><path
           style="baseline-shift:baseline;display:inline;overflow:visible;vector-effect:none;fill:#d9d9d9;stroke:none;enable-background:accumulate;stop-color:#000000;stop-opacity:1;fill-opacity:1"
           d="M 491.369,46.077 V 24.31 h -15.946 v 2.285 l -5.035,0.013 v 2.685 h -4.361 v 3.693 h -4.365 v 4.699 h -3.86 v 4.7 h -4.197 v 5.874 h -4.363 v 35.918 h 4.531 v 5.707 h 4.029 v 5.202 H 462 v 4.868 h 4.195 v 3.693 h 4.193 v 2.516 h 5.709 v 1.879 h 19.131 v -1.71 h 5.205 v -3.022 h 3.525 v -4.195 h 3.862 v -4.868 h 4.697 v -4.7 h 4.197 V 7.138 H 495.06 v 74.185 h -3.691 v 3.862 h -11.414 v -3.862 h -3.858 v -5.035 h -4.533 V 55.31 h 4.867 v -4.365 h 4.197 v -4.868 z"
           id="path42" /></g><path
         d="m 495.978,108.792 h -20.631 v -1.879 h -5.709 v -2.517 h -4.193 v -3.692 h -4.195 v -4.868 h -4.197 v -5.202 h -4.029 v -5.707 h -4.531 V 47.509 h 4.363 v -5.874 h 4.197 v -4.7 h 3.859 v -4.699 h 4.365 v -3.692 h 4.361 V 25.86 l 5.035,-0.013 V 23.56 h 17.445 v 23.268 h -10.74 v 4.867 h -4.197 v 4.365 h -4.867 v 19.479 h 4.533 v 5.035 h 3.857 v 3.861 h 9.914 v -3.861 h 3.691 V 6.388 h 23.154 v 83.909 h -4.197 v 4.7 h -4.697 v 4.868 h -3.861 v 4.194 h -3.525 v 3.022 h -5.205 z m -19.131,-1.5 h 17.631 v -1.71 h 5.205 v -3.022 h 3.525 v -4.194 h 3.861 v -4.868 h 4.697 v -4.7 h 4.197 V 7.888 H 495.81 v 74.186 h -3.691 v 3.861 h -12.914 v -3.861 h -3.857 v -5.035 h -4.533 V 54.56 h 4.867 v -4.365 h 4.197 v -4.867 h 10.74 V 25.06 h -14.445 v 2.283 l -5.035,0.013 v 2.688 h -4.361 v 3.692 h -4.365 v 4.699 h -3.859 v 4.7 h -4.197 v 5.874 h -4.363 v 34.418 h 4.531 v 5.707 h 4.029 v 5.202 h 4.197 v 4.868 h 4.195 v 3.692 h 4.193 v 2.517 h 5.709 v 1.879 z"
         id="path8"
         style="stroke:#ffffff;stroke-width:0;stroke-linecap:round;stroke-linejoin:round;stroke-dasharray:none;stroke-opacity:1;paint-order:markers stroke fill" /></g><g
       id="g33"
       transform="translate(-42)"><g
         id="path9"
         style="opacity:1"><path
           style="baseline-shift:baseline;display:inline;overflow:visible;vector-effect:none;fill:#ffffff;stroke:none;enable-background:accumulate;stop-color:#000000;stop-opacity:1"
           d="m 546.32227,16.810547 a 7.50075,7.50075 0 0 0 -4.48633,1.859375 h -0.38867 a 7.50075,7.50075 0 0 0 -5.96094,3.787109 7.50075,7.50075 0 0 0 -4.78711,4.205078 7.50075,7.50075 0 0 0 -4.1582,4.667969 7.50075,7.50075 0 0 0 -4.4043,4.916016 7.50075,7.50075 0 0 0 -3.73633,4.796875 7.50075,7.50075 0 0 0 -5.44922,6.646484 v 36.314453 a 7.50075,7.50075 0 0 0 5.10352,6.507813 7.50075,7.50075 0 0 0 3.67578,5.460937 7.50075,7.50075 0 0 0 5.41211,6.142574 7.50075,7.50075 0 0 0 3.98633,3.94336 7.50075,7.50075 0 0 0 4.73046,4.12696 7.50075,7.50075 0 0 0 5.85547,3.52929 h 0.19532 a 7.50075,7.50075 0 0 0 4.41211,1.82813 h 19.77343 a 7.50075,7.50075 0 0 0 7.5,-7.5 V 85.222656 a 7.50075,7.50075 0 0 0 -1.88086,-4.537109 7.50075,7.50075 0 0 0 1.88086,-4.53711 V 55.425781 a 7.50075,7.50075 0 0 0 -1.85156,-4.46875 7.50075,7.50075 0 0 0 1.85156,-4.470703 V 24.310547 a 7.50075,7.50075 0 0 0 -7.5,-7.5 z m 4.48632,15 h 7.78711 v 7.175781 h -6.31445 a 7.50075,7.50075 0 0 0 -6.07031,4.048828 7.50075,7.50075 0 0 0 -4.14649,2.607422 7.50075,7.50075 0 0 0 -5.81836,6.802734 v 2.980469 a 7.50075,7.50075 0 0 0 7.5,7.5 h 14.84961 v 5.722656 h -14.71289 a 7.50075,7.50075 0 0 0 -7.5,7.5 v 3.25 a 7.50075,7.50075 0 0 0 5.98047,6.871094 7.50075,7.50075 0 0 0 3.5293,2.294922 7.50075,7.50075 0 0 0 6.11719,4.158203 h 6.58593 v 7.820314 h -7.85742 a 7.50075,7.50075 0 0 0 -3.25391,-1.347658 7.50075,7.50075 0 0 0 -3.63867,-2.441406 7.50075,7.50075 0 0 0 -3.66406,-3.570312 7.50075,7.50075 0 0 0 -4.14062,-4.289063 7.50075,7.50075 0 0 0 -3.2129,-4.839844 v -0.05078 a 7.50075,7.50075 0 0 0 -4.87695,-6.414062 v -23.47461 a 7.50075,7.50075 0 0 0 4.5625,-5.654297 7.50075,7.50075 0 0 0 3.17774,-4.125 7.50075,7.50075 0 0 0 4.51562,-5.041015 7.50075,7.50075 0 0 0 3.20899,-3.326172 7.50075,7.50075 0 0 0 3.88085,-2.703125 7.50075,7.50075 0 0 0 3.51172,-1.455078 z"
           id="path43" /><path
           style="baseline-shift:baseline;display:inline;overflow:visible;vector-effect:none;fill:#d8d8d8;stroke:none;enable-background:accumulate;stop-color:#000000;stop-opacity:1;fill-opacity:1"
           d="m 525.328,47.705 v -5.282 h 3.656 v -4.604 h 4.334 v -4.742 h 3.795 v -3.793 h 4.334 V 26.17 h 4.875 v -1.86 h 19.773 v 22.176 h -13.814 v 3.386 h -4.469 v 2.574 h -4.066 v 2.98 h 22.349 v 20.722 h -22.213 v 3.251 h 4.201 v 2.572 h 3.926 v 3.252 h 14.086 v 22.819 h -19.773 v -1.828 h -4.608 v -2.842 h -4.199 v -3.793 h -3.924 v -4.2 h -4.607 v -5.416 h -3.656 v -5.96 h -4.877 V 47.69 Z"
           id="path44" /></g><path
         d="m 566.845,108.792 h -21.273 v -1.828 h -4.607 v -2.842 h -4.199 v -3.793 h -3.924 v -4.2 h -4.607 v -5.416 h -3.656 v -5.96 h -4.877 V 46.937 l 4.877,0.016 v -5.28 h 3.656 v -4.604 h 4.334 v -4.741 h 3.795 v -3.793 h 4.334 V 25.42 h 4.875 v -1.86 h 21.273 v 23.676 h -13.814 v 3.387 h -4.469 v 2.573 h -4.066 v 1.48 h 22.35 v 22.222 h -22.213 v 1.751 h 4.201 v 2.572 h 3.926 v 3.252 h 14.086 v 24.319 z m -19.773,-1.5 h 18.273 V 85.973 h -14.086 v -3.252 h -3.926 v -2.572 h -4.201 v -4.751 h 22.213 V 56.176 h -22.35 v -4.48 h 4.066 v -2.573 h 4.469 v -3.387 h 13.814 V 25.06 h -18.273 v 1.86 h -4.875 v 3.114 h -4.334 v 3.793 h -3.795 v 4.741 h -4.334 v 4.604 h -3.656 v 5.285 L 521.2,48.441 v 34.811 h 4.877 v 5.96 h 3.656 v 5.416 h 4.607 v 4.2 h 3.924 v 3.793 h 4.199 v 2.842 h 4.607 v 1.829 z"
         id="path10"
         style="stroke:#ffffff;stroke-width:0;stroke-linecap:round;stroke-linejoin:round;stroke-dasharray:none;stroke-opacity:1;paint-order:markers stroke fill" /></g><g
       id="g26"
       transform="translate(-14)"><g
         id="path11"
         style="opacity:1"><path
           style="baseline-shift:baseline;display:inline;overflow:visible;vector-effect:none;fill:#ffffff;stroke:none;enable-background:accumulate;stop-color:#000000;stop-opacity:1"
           d="m 22.691406,16.810547 a 7.50075,7.50075 0 0 0 -5.333984,2.273437 h -0.205078 a 7.50075,7.50075 0 0 0 -5.929688,3.712891 7.50075,7.50075 0 0 0 -4.0624998,3.617187 7.50075,7.50075 0 0 0 -4.2832031,4.490235 7.50075,7.50075 0 0 0 -4.7324218,5.136719 7.50075,7.50075 0 0 0 -4.3300782,6.1875 v 21.9375 a 7.50075,7.50075 0 0 0 4.2714844,6.162109 7.50075,7.50075 0 0 0 -4.2714844,6.162109 v 13.371094 a 7.50075,7.50075 0 0 0 4.9375,6.439453 7.50075,7.50075 0 0 0 4.3632813,4.630859 7.50075,7.50075 0 0 0 4.8105468,4.74609 7.50075,7.50075 0 0 0 4.0917968,3.48633 7.50075,7.50075 0 0 0 5.523438,3.50586 7.50075,7.50075 0 0 0 5.582031,2.87305 h 20.597656 a 7.50075,7.50075 0 0 0 5.689453,-3.13281 7.50075,7.50075 0 0 0 4.826172,-3.07422 7.50075,7.50075 0 0 0 4.544922,-3.74414 7.50075,7.50075 0 0 0 4.609375,-4.6836 7.50075,7.50075 0 0 0 4.111328,-4.562497 7.50075,7.50075 0 0 0 4.833984,-6.396484 V 68.974609 A 7.50075,7.50075 0 0 0 67.21875,62.462891 7.50075,7.50075 0 0 0 72.335937,55.949219 V 42.490234 a 7.50075,7.50075 0 0 0 -4.720703,-6.347656 7.50075,7.50075 0 0 0 -4.5,-5.125 7.50075,7.50075 0 0 0 -4.291015,-4.587891 7.50075,7.50075 0 0 0 -4.484375,-3.80664 7.50075,7.50075 0 0 0 -5.478516,-3.38086 7.50075,7.50075 0 0 0 -5.400391,-2.43164 z m 5.333985,15 H 38.125 a 7.50075,7.50075 0 0 0 4.693359,2.007812 7.50075,7.50075 0 0 0 3.494141,2.164063 7.50075,7.50075 0 0 0 3.298828,3.230469 7.50075,7.50075 0 0 0 4.162109,4.705078 7.50075,7.50075 0 0 0 3.185547,4.53125 h -8.02539 A 7.50075,7.50075 0 0 0 45.548828,45.320312 7.50075,7.50075 0 0 0 38.613281,39.185547 H 27.449219 a 7.50075,7.50075 0 0 0 -6.742188,5.669922 7.50075,7.50075 0 0 0 -4.996093,6.46289 v 4.283203 a 7.50075,7.50075 0 0 0 5.128906,6.517579 7.50075,7.50075 0 0 0 1.144531,2.763671 h -6.253906 a 7.50075,7.50075 0 0 0 -3.695313,-2.96875 7.50075,7.50075 0 0 0 -3.2207029,-3.861328 v -9.888672 a 7.50075,7.50075 0 0 0 2.9531249,-4.078125 7.50075,7.50075 0 0 0 4.556641,-4.855468 7.50075,7.50075 0 0 0 3.414062,-3.421875 7.50075,7.50075 0 0 0 2.966797,-1.730469 7.50075,7.50075 0 0 0 5.320313,-2.267578 z m 16.314453,35.660156 h 4.816406 a 7.50075,7.50075 0 0 0 4.179687,3.966797 7.50075,7.50075 0 0 0 4,4.009766 v 8.423828 a 7.50075,7.50075 0 0 0 -3.298828,4.226562 7.50075,7.50075 0 0 0 -4.007812,4.398438 7.50075,7.50075 0 0 0 -3.716797,3.402343 7.50075,7.50075 0 0 0 -3.650391,2.373047 7.50075,7.50075 0 0 0 -4.458984,2.271486 h -9.564453 a 7.50075,7.50075 0 0 0 -5.083985,-2.531251 7.50075,7.50075 0 0 0 -3.125,-1.941407 7.50075,7.50075 0 0 0 -3.955078,-3.642578 7.50075,7.50075 0 0 0 -4.326171,-4.546875 7.50075,7.50075 0 0 0 -2.7480474,-3.890625 h 7.9511714 a 7.50075,7.50075 0 0 0 3.390625,3.205078 7.50075,7.50075 0 0 0 6.794922,5.796875 h 11.16211 a 7.50075,7.50075 0 0 0 6.599609,-5.326171 7.50075,7.50075 0 0 0 5.402344,-6.63086 v -4.283203 a 7.50075,7.50075 0 0 0 -5.236328,-6.5625 7.50075,7.50075 0 0 0 -1.125,-2.71875 z"
           id="path45" /><path
           style="baseline-shift:baseline;display:inline;overflow:visible;vector-effect:none;fill:#f2b101;stroke:none;enable-background:accumulate;stop-color:#000000;stop-opacity:1"
           d="M 64.836,55.95 V 42.491 h -4.154 v -4.982 h -4.275 v -4.58 h -3.86 V 29.381 H 48.48 V 26.584 H 43.46 V 24.311 H 22.691 v 2.273 h -5.539 v 2.797 h -3.721 v 3.548 H 9.537 v 4.58 h -4.5 v 4.72 H 1.314 v 21.937 h 4.154 v 4.283 h 4.241 v 3.933 h 29.165 v 4.37 h 4.327 v 4.283 H 38.7 v 4.457 H 27.537 V 80.861 H 23.556 V 76.49 H 1.314 v 13.372 h 4.154 v 4.545 h 4.327 v 4.546 h 4.329 v 3.583 h 3.806 v 2.796 h 5.193 v 2.71 H 43.72 v -2.71 h 4.674 v -2.796 h 4.153 v -3.583 h 4.154 v -4.458 h 4.068 V 89.95 h 4.067 V 68.974 H 59.817 V 64.865 H 55.576 V 59.971 H 27.45 v -4.37 h -4.24 v -4.283 h 4.24 v -4.632 h 11.164 v 4.982 h 4.154 v 4.282 z"
           id="path46" /></g><path
         d="M 44.47,108.792 H 22.373 v -2.71 H 17.18 v -2.796 H 13.374 V 99.703 H 9.045 V 95.157 H 4.718 V 90.611 H 0.564 V 75.74 h 23.742 v 4.37 h 3.981 v 4.632 h 9.663 v -4.457 h 4.501 v -2.783 h -4.327 v -4.37 H 8.959 V 69.199 H 4.718 V 64.916 H 0.564 V 41.479 h 3.723 v -4.72 h 4.5 v -4.58 h 3.894 v -3.548 h 3.721 v -2.797 h 5.539 V 23.561 H 44.21 v 2.273 h 5.02 v 2.797 h 4.067 v 3.548 h 3.86 v 4.58 h 4.275 v 4.982 h 4.154 V 56.7 H 42.018 V 52.418 H 37.864 V 47.436 H 28.2 v 4.632 h -4.24 v 2.783 h 4.24 v 4.37 h 28.126 v 4.895 h 4.241 v 4.108 h 5.019 V 90.7 h -4.067 v 4.545 h -4.068 v 4.458 h -4.154 v 3.583 h -4.153 v 2.796 H 44.47 Z m -20.597,-1.5 H 42.97 v -2.71 h 4.674 v -2.796 h 4.153 v -3.583 h 4.154 v -4.458 h 4.068 V 89.2 h 4.067 V 69.724 H 59.067 V 65.616 H 54.826 V 60.721 H 26.7 v -4.37 h -4.24 v -5.783 h 4.24 v -4.632 h 12.664 v 4.982 h 4.154 V 55.2 H 64.086 V 43.241 h -4.154 v -4.982 h -4.275 v -4.58 h -3.86 V 30.131 H 47.73 V 27.334 H 42.71 V 25.061 H 23.441 v 2.273 h -5.539 v 2.797 h -3.721 v 3.548 h -3.894 v 4.58 h -4.5 v 4.72 H 2.064 V 63.417 H 6.218 V 67.7 h 4.241 v 3.933 h 29.165 v 4.37 h 4.327 v 5.783 H 39.45 v 4.457 H 26.787 v -4.632 h -3.981 v -4.37 H 2.064 v 11.871 h 4.154 v 4.546 h 4.327 v 4.546 h 4.329 v 3.583 h 3.806 v 2.796 h 5.193 z"
         id="path12"
         style="stroke:#ffffff;stroke-width:0;stroke-linecap:round;stroke-linejoin:round;stroke-dasharray:none;stroke-opacity:1;paint-order:markers stroke fill" /></g><g
       id="g27"
       transform="translate(-30)"><g
         id="path13"
         style="opacity:1"><path
           style="baseline-shift:baseline;display:inline;overflow:visible;vector-effect:none;fill:#ffffff;stroke:none;enable-background:accumulate;stop-color:#000000;stop-opacity:1"
           d="m 103.24023,9.4082031 a 7.50075,7.50075 0 0 0 -7.499996,7.4999999 v 8.126953 a 7.50075,7.50075 0 0 0 -1.589843,2.533203 7.50075,7.50075 0 0 0 -4.654297,4.472657 7.50075,7.50075 0 0 0 -6.365235,7.029296 v 7.765625 a 7.50075,7.50075 0 0 0 7.5,7.5 h 5.109375 V 84.09375 a 7.50075,7.50075 0 0 0 4.794926,6.378906 7.50075,7.50075 0 0 0 3.57031,4.921875 7.50075,7.50075 0 0 0 4.31445,5.347659 7.50075,7.50075 0 0 0 4.26172,5.16015 7.50075,7.50075 0 0 0 4.23438,4.05274 7.50075,7.50075 0 0 0 5.93164,3.71289 h 1.1914 a 7.50075,7.50075 0 0 0 4.42188,1.83203 h 15.63476 a 7.50075,7.50075 0 0 0 7.5,-7.5 V 86.099609 a 7.50075,7.50075 0 0 0 -7.5,-7.5 h -4.3164 a 7.50075,7.50075 0 0 0 -3.9336,-3.640625 7.50075,7.50075 0 0 0 -2.99218,-3.845703 V 54.335937 h 5.36718 a 7.50075,7.50075 0 0 0 7.5,-7.5 v -7.765625 a 7.50075,7.50075 0 0 0 -5.84179,-6.8125 7.50075,7.50075 0 0 0 -5.16407,-4.863281 7.50075,7.50075 0 0 0 -1.86132,-2.501953 v -7.984375 a 7.50075,7.50075 0 0 0 -7.5,-7.4999999 z m 7.5,14.9999999 h 7.11329 v 6.199219 a 7.50075,7.50075 0 0 0 4.21875,6.140625 7.50075,7.50075 0 0 0 1.93945,3.144531 7.50075,7.50075 0 0 0 -6.1582,6.943359 v 30.279297 a 7.50075,7.50075 0 0 0 4.70703,6.341797 7.50075,7.50075 0 0 0 4.17187,4.478516 7.50075,7.50075 0 0 0 6.73828,5.664062 h 3.125 V 100.5 h -3.71289 a 7.50075,7.50075 0 0 0 -4.42187,-1.832031 h -0.0645 a 7.50075,7.50075 0 0 0 -2.80859,-1.65625 7.50075,7.50075 0 0 0 -3.06055,-3.570313 7.50075,7.50075 0 0 0 -4.38281,-5.423828 7.50075,7.50075 0 0 0 -3.41601,-4.724609 7.50075,7.50075 0 0 0 -3.98829,-5.382813 V 46.835937 a 7.50075,7.50075 0 0 0 -5.98632,-6.873046 7.50075,7.50075 0 0 0 2.18164,-3.386719 7.50075,7.50075 0 0 0 3.80468,-5.96875 z"
           id="path47" /><path
           style="baseline-shift:baseline;display:inline;overflow:visible;vector-effect:none;fill:#f2b101;stroke:none;enable-background:accumulate;stop-color:#000000;stop-opacity:1"
           d="m 133.471,86.1 v -4.625 h -4.232 v -4.36 h -3.886 V 46.836 h 12.868 v -7.765 h -5.009 v -4.799 h -4.665 v -3.664 h -3.194 V 16.909 h -22.112 v 13.699 h -2.851 v 3.664 h -4.318 v 4.799 h -5.441 v 7.765 h 12.61 v 37.257 h 4.319 v 5.234 h 3.627 v 5.062 h 4.232 v 5.147 h 3.715 v 3.839 h 3.713 v 2.793 h 5.614 V 108 h 15.634 V 86.1 Z"
           id="path48" /></g><path
         d="m 144.845,108.75 h -17.134 v -1.832 h -5.614 v -2.793 h -3.713 v -3.839 h -3.715 v -5.147 h -4.232 v -5.062 h -3.627 v -5.234 h -4.319 V 47.586 H 89.881 V 38.32 h 5.441 v -4.799 h 4.318 v -3.664 h 2.851 V 16.159 h 23.612 v 13.698 h 3.194 v 3.664 h 4.665 v 4.799 h 5.009 v 9.266 h -12.868 v 28.779 h 3.886 v 4.359 h 4.232 v 4.625 h 10.624 z m -15.634,-1.5 h 14.134 v -20.4 h -10.624 v -4.625 h -4.232 v -4.359 h -3.886 v -31.78 h 12.868 V 39.82 h -5.009 v -4.799 h -4.665 v -3.664 h -3.194 V 17.659 h -20.612 v 13.698 h -2.851 v 3.664 h -4.318 v 4.799 h -5.441 v 6.266 h 12.61 v 37.257 h 4.319 v 5.234 h 3.627 v 5.062 h 4.232 v 5.147 h 3.715 v 3.839 h 3.713 v 2.793 h 5.614 z"
         id="path14"
         style="stroke:#ffffff;stroke-width:0;stroke-linecap:round;stroke-linejoin:round;stroke-dasharray:none;stroke-opacity:1;paint-order:markers stroke fill" /></g><g
       id="g29"
       transform="translate(-14)"><g
         id="path15"
         style="opacity:1"><path
           style="baseline-shift:baseline;display:inline;overflow:visible;vector-effect:none;fill:#ffffff;stroke:none;enable-background:accumulate;stop-color:#000000;stop-opacity:1"
           d="m 159.8457,16.810547 a 7.50075,7.50075 0 0 0 -5.75586,3.289062 7.50075,7.50075 0 0 0 -3.9707,2.628907 7.50075,7.50075 0 0 0 -4.73633,3.677734 7.50075,7.50075 0 0 0 -5.30859,5.091797 7.50075,7.50075 0 0 0 -3.91016,3.945312 7.50075,7.50075 0 0 0 -5.7539,6.777344 v 65.794927 a 7.50075,7.50075 0 0 0 7.5,7.5 h 21.5 a 7.50075,7.50075 0 0 0 7.5,-7.5 v -1.83594 l 2.02734,4.76953 a 7.50075,7.50075 0 0 0 6.90234,4.56641 h 22.19727 a 7.50075,7.50075 0 0 0 6.92187,-10.38868 L 193.19141,76.927734 a 7.50075,7.50075 0 0 0 1.38281,-3.335937 7.50075,7.50075 0 0 0 4.56445,-6.244141 7.50075,7.50075 0 0 0 2.38086,-5.378906 V 42.308594 a 7.50075,7.50075 0 0 0 -3.49414,-5.839844 7.50075,7.50075 0 0 0 -3.70117,-4.708984 7.50075,7.50075 0 0 0 -4.89258,-5.136719 7.50075,7.50075 0 0 0 -5.24805,-4.06836 7.50075,7.50075 0 0 0 -4.63672,-2.761718 7.50075,7.50075 0 0 0 -5.6289,-2.982422 z m 5.44141,15 h 3.1875 a 7.50075,7.50075 0 0 0 4.22656,2.029297 7.50075,7.50075 0 0 0 4.31836,2.701172 7.50075,7.50075 0 0 0 3.71289,3.253906 7.50075,7.50075 0 0 0 3.67383,4.376953 7.50075,7.50075 0 0 0 2.11328,3.724609 v 8.699219 a 7.50075,7.50075 0 0 0 -2.01562,4.537109 7.50075,7.50075 0 0 0 -3.58985,4.507813 7.50075,7.50075 0 0 0 -4.82031,9.263672 l 10.6875,25.611333 h -5.98047 L 170.23047,75.642578 v -6.929687 a 7.50075,7.50075 0 0 0 5.18164,-3.445313 7.50075,7.50075 0 0 0 6.00586,-6.880859 V 46.677734 a 7.50075,7.50075 0 0 0 -7.5,-7.5 h -14.50781 a 7.50075,7.50075 0 0 0 -7.5,7.5 v 53.837896 h -6.5 V 48.568359 a 7.50075,7.50075 0 0 0 3.79492,-4.115234 7.50075,7.50075 0 0 0 4.26172,-4.441406 7.50075,7.50075 0 0 0 4.31054,-3.644532 7.50075,7.50075 0 0 0 4.02344,-2.833984 7.50075,7.50075 0 0 0 3.48633,-1.722656 z"
           id="path49" /><path
           style="baseline-shift:baseline;display:inline;overflow:visible;vector-effect:none;fill:#f2b101;stroke:none;enable-background:accumulate;stop-color:#000000;stop-opacity:1"
           d="m 183.015,72.016 h 4.711 v -4.718 h 3.933 v -5.33 h 2.36 V 42.309 h -2.885 V 37.94 h -3.67 v -4.631 h -4.283 v -3.67 h -4.72 v -2.795 h -4.544 V 24.31 h -14.071 v 2.534 h -3.932 v 2.795 h -4.37 v 3.67 h -4.719 v 4.631 h -4.195 v 4.281 h -4.719 v 65.794 H 159.41 V 46.677 h 14.507 v 11.709 h -4.457 v 3.145 h -6.73 v 15.64 l 13.109,30.844 h 22.199 z"
           id="path50" /></g><path
         d="m 198.22977,107.85842 h -23.821 l -13.363,-31.441997 v -16.542 h 6.73 v -3.146 h 4.457 v -10.208 h -13.007 v 61.337997 h -22.999 V 40.564423 h 4.719 v -4.281 h 4.195 v -4.631 h 4.719 v -3.67 h 4.37 v -2.795 h 3.932 v -2.534 h 15.571 v 2.534 h 4.544 v 2.795 h 4.72 v 3.67 h 4.283 v 4.631 h 3.67 v 4.369 h 2.885 v 21.159 h -2.36 v 5.33 h -3.933 v 4.718 h -4.335 z m -22.829,-1.5 h 20.578 l -15.023,-35.998997 h 5.086 v -4.718 h 3.933 v -5.33 h 2.36 v -18.159 h -2.885 v -4.369 h -3.67 v -4.631 h -4.283 v -3.67 h -4.72 v -2.795 h -4.544 v -2.534 h -12.571 v 2.534 h -3.932 v 2.795 h -4.37 v 3.67 h -4.719 v 4.631 h -4.195 v 4.281 h -4.719 v 64.293997 h 19.999 V 45.020423 h 16.007 v 13.209 h -4.457 v 3.146 h -6.73 v 14.737 z"
         id="path16"
         style="stroke:#ffffff;stroke-width:0;stroke-linecap:round;stroke-linejoin:round;stroke-dasharray:none;stroke-opacity:1;paint-order:markers stroke fill" /></g><g
       id="g28"
       transform="translate(-24)"><g
         id="path17"
         style="opacity:1"><path
           style="baseline-shift:baseline;display:inline;overflow:visible;vector-effect:none;fill:#ffffff;stroke:none;enable-background:accumulate;stop-color:#000000;stop-opacity:1"
           d="m 238.92383,16.810547 a 7.50075,7.50075 0 0 0 -5.59375,2.898437 7.50075,7.50075 0 0 0 -5.04883,2.923828 7.50075,7.50075 0 0 0 -4.9668,4.171875 7.50075,7.50075 0 0 0 -3.89453,4.433594 7.50075,7.50075 0 0 0 -4.71289,5.029297 7.50075,7.50075 0 0 0 -4.35937,5.642578 7.50075,7.50075 0 0 0 -4.51563,6.263672 v 36.009766 a 7.50075,7.50075 0 0 0 4.51758,6.263672 7.50075,7.50075 0 0 0 4.35547,5.640625 7.50075,7.50075 0 0 0 4.71484,5.031249 7.50075,7.50075 0 0 0 3.89649,4.43555 7.50075,7.50075 0 0 0 4.96484,4.16992 7.50075,7.50075 0 0 0 5.05469,2.92578 7.50075,7.50075 0 0 0 5.59375,2.89649 h 20.83984 a 7.50075,7.50075 0 0 0 5.57422,-2.85352 7.50075,7.50075 0 0 0 5.23242,-3.14258 7.50075,7.50075 0 0 0 4.47266,-3.82031 7.50075,7.50075 0 0 0 4.35937,-4.69922 7.50075,7.50075 0 0 0 4.42774,-4.769531 7.50075,7.50075 0 0 0 4.88281,-6.06836 7.50075,7.50075 0 0 0 4.06445,-6.076172 V 48.171875 a 7.50075,7.50075 0 0 0 -4.09961,-6.091797 7.50075,7.50075 0 0 0 -4.85351,-5.992187 7.50075,7.50075 0 0 0 -4.42578,-4.763672 7.50075,7.50075 0 0 0 -4.44922,-4.736328 7.50075,7.50075 0 0 0 -4.28516,-3.556641 7.50075,7.50075 0 0 0 -5.33398,-3.373047 7.50075,7.50075 0 0 0 -5.57227,-2.847656 z m 5.47851,15 h 9.88282 a 7.50075,7.50075 0 0 0 4.83007,2.349609 7.50075,7.50075 0 0 0 3.46875,2.167969 7.50075,7.50075 0 0 0 3.21485,3.078125 7.50075,7.50075 0 0 0 4.51172,4.976562 7.50075,7.50075 0 0 0 3.87304,4.501954 7.50075,7.50075 0 0 0 3.59961,5.292968 v 23.935547 a 7.50075,7.50075 0 0 0 -3.62695,5.367188 7.50075,7.50075 0 0 0 -3.84375,4.492187 7.50075,7.50075 0 0 0 -4.50977,4.972656 7.50075,7.50075 0 0 0 -3.3125,3.308594 7.50075,7.50075 0 0 0 -3.28125,1.904297 7.50075,7.50075 0 0 0 -4.91796,2.388677 h -9.88282 a 7.50075,7.50075 0 0 0 -4.81445,-2.345708 7.50075,7.50075 0 0 0 -3.71875,-2.121094 7.50075,7.50075 0 0 0 -2.81445,-2.957031 7.50075,7.50075 0 0 0 -4.79493,-5.238281 7.50075,7.50075 0 0 0 -3.41992,-4.244141 7.50075,7.50075 0 0 0 -4.01367,-5.605469 v -23.71289 a 7.50075,7.50075 0 0 0 4.01563,-5.609375 7.50075,7.50075 0 0 0 3.41796,-4.240235 7.50075,7.50075 0 0 0 4.79688,-5.238281 7.50075,7.50075 0 0 0 2.8125,-2.957031 7.50075,7.50075 0 0 0 3.71875,-2.123047 7.50075,7.50075 0 0 0 4.80859,-2.34375 z m -0.62304,7.548828 a 7.50075,7.50075 0 0 0 -6.66016,5.474609 7.50075,7.50075 0 0 0 -4.01758,4.457032 7.50075,7.50075 0 0 0 -5.4707,6.658203 v 20.453125 a 7.50075,7.50075 0 0 0 5.4707,6.660156 7.50075,7.50075 0 0 0 4.01367,4.453125 7.50075,7.50075 0 0 0 6.66407,5.480469 h 11.0625 a 7.50075,7.50075 0 0 0 6.59179,-5.308594 7.50075,7.50075 0 0 0 4.50196,-4.798828 7.50075,7.50075 0 0 0 5.05468,-6.486328 V 55.955078 a 7.50075,7.50075 0 0 0 -5.05273,-6.486328 7.50075,7.50075 0 0 0 -4.50391,-4.800781 7.50075,7.50075 0 0 0 -6.59179,-5.308594 z m 5.52929,16.617187 a 7.50075,7.50075 0 0 0 3.08594,1.738282 7.50075,7.50075 0 0 0 3.5957,4.423828 v 8.080078 a 7.50075,7.50075 0 0 0 -3.59375,4.419922 7.50075,7.50075 0 0 0 -3.08593,1.734375 7.50075,7.50075 0 0 0 -2.66797,-1.560547 7.50075,7.50075 0 0 0 -4.01172,-4.738281 v -7.796875 a 7.50075,7.50075 0 0 0 4.01172,-4.742188 7.50075,7.50075 0 0 0 2.66601,-1.558594 z"
           id="path51" /><path
           style="baseline-shift:baseline;display:inline;overflow:visible;vector-effect:none;fill:#f2b101;stroke:none;enable-background:accumulate;stop-color:#000000;stop-opacity:1"
           d="m 281.389,48.171 v -5.594 h -4.326 v -4.724 h -4.409 v -4.719 h -3.893 V 29.74 h -3.977 v -2.81 h -5.02 v -2.62 h -20.84 v 2.622 H 234 v 2.622 h -4.324 v 3.583 h -3.544 v 4.719 h -4.584 v 4.724 h -3.977 v 5.594 h -4.238 v 36.009 h 4.238 v 5.592 h 3.977 v 4.726 h 4.584 v 4.719 h 3.544 v 3.583 H 234 v 2.623 h 4.929 v 2.621 h 20.84 v -2.621 h 5.016 v -2.623 h 3.977 V 99.22 h 3.896 v -4.719 h 4.409 v -4.726 h 4.326 v -5.658 h 3.89 V 48.171 Z m -22.223,28.231 v 4.724 h -4.324 v 4.37 h -11.063 v -4.37 H 239.8 v -4.724 h -4.669 V 55.949 h 4.669 v -4.726 h 3.979 V 46.86 h 11.063 v 4.369 h 4.324 v 4.726 h 4.324 v 20.447 z"
           id="path52" /></g><path
         d="m 260.519,108.795 h -22.254 l -0.086,-0.75 v -1.871 h -4.929 v -2.623 h -4.324 v -3.583 h -3.544 v -4.719 h -4.584 v -4.726 h -3.977 v -5.592 h -4.238 v -37.42 l 0.75,-0.088 h 3.488 v -5.594 h 3.977 v -4.724 h 4.584 v -4.719 h 3.544 v -3.583 h 4.324 v -2.622 h 4.925 V 23.56 h 22.34 v 2.62 h 5.02 v 2.811 h 3.977 v 3.395 h 3.893 v 4.719 h 4.409 v 4.724 h 4.326 v 5.594 h 3.894 v 37.352 l -0.75,0.093 h -3.14 v 5.658 h -4.326 v 4.726 h -4.409 v 4.719 h -3.896 v 3.583 h -3.977 v 2.623 h -5.016 v 2.618 z m -20.84,-1.5 h 19.34 v -2.621 h 5.016 v -2.623 h 3.977 v -3.583 h 3.896 v -4.719 h 4.409 v -4.726 h 4.326 v -5.658 h 3.89 V 48.921 h -3.894 v -5.594 h -4.326 v -4.724 h -4.409 v -4.719 h -3.893 V 30.49 h -3.977 v -2.81 h -5.02 v -2.62 h -19.34 v 2.622 h -4.925 v 2.622 h -4.324 v 3.583 h -3.544 v 4.719 h -4.584 v 4.724 h -3.977 v 5.594 h -4.238 v 34.509 h 4.238 v 5.592 h 3.977 v 4.726 h 4.584 v 4.719 h 3.544 v 3.583 h 4.324 v 2.623 h 4.929 v 2.619 z m 15.912,-21.05 h -12.563 v -4.37 h -3.979 V 77.151 H 234.38 V 55.199 h 4.669 v -4.726 h 3.979 V 46.11 h 12.563 v 4.369 h 4.324 v 4.726 h 4.324 v 21.947 h -4.324 v 4.724 h -4.324 z m -11.063,-1.5 h 9.563 v -4.37 h 4.324 v -4.724 h 4.324 V 56.704 h -4.324 v -4.726 h -4.324 V 47.61 h -9.563 v 4.364 h -3.979 V 56.7 h -4.669 v 18.952 h 4.669 v 4.724 h 3.979 z"
         id="path18"
         style="stroke:#ffffff;stroke-width:0;stroke-linecap:round;stroke-linejoin:round;stroke-dasharray:none;stroke-opacity:1;paint-order:markers stroke fill" /></g></g><g
     class="layer"
     id="g1"
     transform="translate(111.01206,-87.089439)"
     style="stroke:#ffffff;stroke-opacity:1"><title
       id="title1">Layer 1</title><g
       class="layer"
       id="svg_1"
       style="stroke:#ffffff;stroke-opacity:1"
       transform="translate(4.5328852,9.9723475)"><g
         id="layer1"
         transform="translate(-207.79057,-421.14389)"
         style="stroke:#ffffff;stroke-opacity:1"><g
           id="text2559"
           style="opacity:1"><path
             style="baseline-shift:baseline;display:inline;overflow:visible;vector-effect:none;fill:#ffffff;stroke:none;stroke-linecap:butt;stroke-linejoin:miter;enable-background:accumulate;stop-color:#000000;stop-opacity:1"
             d="m 268.31055,409.10937 c -13.18655,0 -26.46575,4.4023 -39.53907,12.60938 a 7.50075,7.50075 0 0 0 -0.002,0.002 c -13.86759,8.71708 -24.39241,20.02032 -31.02539,33.61524 -1.21421,2.44245 -2.2738,4.95493 -3.17383,7.53125 a 7.50075,7.50075 0 0 0 -0.01,0.0273 c -0.87492,2.53615 -1.61459,5.10526 -2.19141,7.69531 a 7.50075,7.50075 0 0 0 -0.0703,0.35352 l -0.66016,3.82031 a 7.50075,7.50075 0 0 0 -0.0488,0.32813 c -0.14905,1.16952 -0.25912,2.1487 -0.25976,3.32812 -0.007,3.65093 0.78329,7.25833 2.31054,10.57422 2.01108,4.45507 5.26192,8.26673 9.33399,10.93945 0.001,8.1e-4 0.003,0.001 0.004,0.002 4.10467,2.70306 8.938,4.15429 13.82226,4.15429 3.45306,0 6.86231,-0.73519 10.02734,-2.0664 a 7.50075,7.50075 0 0 0 0.0352,-0.0156 c 3.24945,-1.38661 6.25284,-3.43954 9.05664,-6.01172 a 7.50075,7.50075 0 0 0 0.0137,-0.0137 c 0.86436,-0.79713 1.53368,-1.77154 2.31446,-2.64844 1.02123,0.83868 2.10826,1.5621 3.20898,2.08985 a 7.50075,7.50075 0 0 0 0.0176,0.008 c 3.09715,1.47483 6.15647,1.7793 9.53516,1.7793 2.63638,0 5.12043,-0.53894 7.70703,-1.35938 8e-4,-2.5e-4 0.001,-0.002 0.002,-0.002 2.72654,-0.86052 5.32617,-2.07958 7.73633,-3.61719 0.32862,-0.20236 0.59508,-0.46387 0.91406,-0.67578 2.70952,3.39237 7.16579,5.74414 11.26172,5.74414 2.59209,0 5.21066,-0.46975 7.63281,-1.50781 a 7.50075,7.50075 0 0 0 0.043,-0.0176 c 0.65947,-0.28734 1.25424,-0.69097 1.875,-1.04687 0.36081,0.3005 0.65624,0.66121 1.04492,0.93359 a 7.50075,7.50075 0 0 0 0.0215,0.0156 c 2.58359,1.79641 5.77493,2.67188 8.77148,2.67188 4.2225,0 8.2338,-1.42002 11.89258,-3.70508 0.41002,0.33666 0.76055,0.73546 1.20312,1.03516 a 7.50075,7.50075 0 0 0 0.0215,0.0156 c 2.55579,1.71717 5.70383,2.56446 8.67383,2.56446 3.0462,0 5.93813,-0.78161 8.75,-2.00586 1.73375,-0.74096 3.37532,-1.66175 4.96875,-2.66407 2.66503,1.8997 5.88115,3.14063 9.12109,3.14063 2.45248,0 4.86005,-0.56597 7.06641,-1.49805 1.46936,-0.617 2.80182,-1.50404 4.14453,-2.36719 0.93951,0.61944 1.95219,1.09607 3.00586,1.47071 l -3.91211,7.31836 a 7.50075,7.50075 0 0 0 -0.0332,0.0625 c -1.0616,2.03221 -1.90234,4.26123 -1.90234,7.0039 0,3.74094 2.69795,7.79539 5.58203,9.50782 a 7.50075,7.50075 0 0 0 0.0137,0.008 c 1.42552,0.84235 3.22726,1.43359 5.14454,1.43359 3.69908,0 6.71922,-2.08142 8.54296,-4.12109 1.71408,-1.88728 2.68387,-3.73393 3.84375,-6.13281 l 0.004,-0.008 9.83008,-20.24023 6.67578,-13.63086 6.69141,-13.57031 a 7.50075,7.50075 0 0 0 0.002,-0.006 l 2.49023,-5.0586 -0.17382,0.33008 c 1.02985,-1.85373 1.25003,-6.34141 -0.57422,-8.75586 -1.81921,-2.40778 -3.51973,-2.77277 -4.67969,-3.10351 -1.83405,-0.52896 -3.42768,-0.62305 -5.13281,-0.62305 -1.1709,0 -2.2902,0.0646 -3.36133,0.19141 a 7.50075,7.50075 0 0 0 -0.0957,0.0117 c -1.329,0.17487 -3.15581,0.63887 -4.82618,1.92579 -1.20928,-1.19439 -2.48348,-1.97745 -3.41406,-2.28321 a 7.50075,7.50075 0 0 0 -0.0937,-0.0312 c -1.51281,-0.47545 -2.81796,-0.58926 -4.13281,-0.6289 0.54421,-2.22282 0.875,-4.40769 0.875,-6.59571 0,-2.70696 -0.37397,-5.68697 -2.50781,-8.52148 -2.37641,-3.15672 -6.37772,-4.32813 -9.38282,-4.32813 -2.41731,0 -4.34319,0.5806 -6.12304,1.37891 -0.14582,-2.62851 -0.72375,-5.3679 -2.55274,-7.79883 a 7.50075,7.50075 0 0 0 -0.0293,-0.0351 c -2.47293,-3.24571 -6.65312,-4.53516 -9.93555,-4.53516 -7.99539,0 -13.60034,5.12606 -19.69922,12.13867 a 7.50075,7.50075 0 0 0 -0.002,0.002 c -5.19878,5.98273 -9.59778,12.8792 -13.34766,20.48438 -0.0834,-0.0722 -0.13854,-0.17084 -0.22461,-0.24023 -2.8885,-2.32908 -6.1676,-2.85547 -9.14648,-2.85547 -0.86701,0 -1.71251,0.2195 -2.57422,0.29882 1.24811,-2.98011 2.13476,-6.10489 2.13476,-9.42773 0,-7.68365 -3.65197,-15.14468 -9.99218,-19.27148 l -0.002,-0.002 c -6.11893,-3.99039 -13.73115,-5.51757 -22.53515,-5.51758 z m 8.30859,19.71485 0.006,0.0605 c -7.6e-4,-0.007 -0.005,-0.0145 -0.006,-0.0215 -0.002,-0.0149 0.002,-0.024 0,-0.0391 z m -0.82422,4.55664 c -0.25627,2.41426 -1.23473,3.96605 -4.0625,5.95703 a 7.50075,7.50075 0 0 0 -0.0527,0.0371 c 0.0951,-0.0682 -3.70768,1.70806 -5.42774,2.56445 1.02312,-1.19634 2.02279,-2.13995 2.95703,-2.7207 l -0.12109,0.0742 c 1.49528,-0.89045 2.68397,-1.64441 3.8418,-2.57422 0.57891,-0.4649 1.15587,-0.93953 1.88281,-1.84766 0.26751,-0.33418 0.64005,-0.91022 0.98242,-1.49023 z m -32.86328,4.02148 c -0.22302,0.33167 -0.44523,0.54854 -0.66992,0.89063 -1.79514,2.72429 -4.16486,6.93308 -7.51367,13.18555 a 7.50075,7.50075 0 0 0 -0.13477,0.26367 l -1.71875,3.54101 a 7.50075,7.50075 0 0 0 -0.13672,0.29492 l -5.91992,13.66016 c -2.31155,5.25797 -4.62339,9.30747 -6.70703,12.05469 -1.1735,1.49865 -2.21818,2.40929 -2.93945,2.85742 -0.62326,0.38723 -0.91884,0.44922 -1.44141,0.44922 -0.71448,0 -0.49605,-0.058 -0.36719,0.043 0.11358,0.089 -0.0943,-0.14308 -0.34375,-0.84375 -0.2728,-1.00952 -0.48828,-2.48642 -0.48828,-4.40821 0,-1.25309 0.23351,-3.03496 0.79883,-5.21875 0.92331,-3.24221 2.62997,-7.11706 5.23242,-11.50585 a 7.50075,7.50075 0 0 0 0.006,-0.01 c 2.61583,-4.4268 5.75987,-8.7796 9.44727,-13.06445 3.68092,-4.27733 7.46608,-7.96315 11.34961,-11.0918 a 7.50075,7.50075 0 0 0 0.0117,-0.008 c 0.52857,-0.42746 1.01363,-0.69102 1.53516,-1.08985 z m 125.38086,6.95508 c -0.0146,0.003 -0.0323,0.0104 -0.0469,0.0137 -0.0119,0.003 -0.0233,0.001 -0.0351,0.004 z m -50.22266,2.41797 c -0.004,0.008 -0.006,0.0172 -0.01,0.0254 -0.004,0.009 -0.0153,0.0279 -0.0195,0.0371 z m -17.94726,1.96875 0.30078,0.0898 c -0.0568,-0.0181 -0.0772,-0.003 -0.13281,-0.0195 -0.0637,-0.0189 -0.10271,-0.0525 -0.16797,-0.0703 z m 14.51367,5.76563 0.0332,0.61328 c -0.002,0.007 -0.005,0.0129 -0.008,0.0195 -0.002,-0.11403 -0.0318,-0.23959 -0.0371,-0.35547 -0.007,-0.0928 0.0217,-0.18471 0.0117,-0.27734 z m 68.29102,1.0039 -0.1504,0.375 c 0.0109,-0.0253 0.009,-0.0794 0.0195,-0.10547 0.0529,-0.13491 0.0686,-0.10057 0.13086,-0.26953 z m -103.11915,4.46289 c -0.006,0.007 -0.01,0.016 -0.0156,0.0234 -0.004,0.006 -0.009,0.01 -0.0137,0.0156 z m -27.10546,7.9961 c 0.55931,0.72509 1.1167,1.46444 1.67773,2.18554 0.92142,1.21698 0.85938,1.65025 0.85938,1.49219 v 0.57031 c 0,0.94618 -0.25612,1.50999 -0.97852,2.29883 -0.88457,-1.09626 -2.03312,-2.00603 -3.28711,-2.69141 z m -6.0293,2.43554 0.20898,0.0254 c -0.0415,-0.006 -0.0872,0.005 -0.1289,0 -0.0259,-0.003 -0.0543,-0.0225 -0.0801,-0.0254 z m 46.89453,3.03711 c -0.0184,0.0442 -0.0325,0.1021 -0.0508,0.14649 -0.0213,0.0584 -0.0691,0.15665 -0.0898,0.21484 z m 5.75391,2.71485 -0.0293,0.0469 c 0.007,-0.0108 0.0128,-0.0243 0.0195,-0.0352 0.003,-0.005 0.007,-0.007 0.01,-0.0117 z m 38.38281,8.89062 c 0.005,0.006 0.0123,0.009 0.0176,0.0156 0.005,0.006 0.005,0.0139 0.01,0.0195 z m -72.14844,3.6875 c 0.015,0.0365 0.049,0.0652 0.0645,0.10156 0.0257,0.0573 0.0304,0.12066 0.0566,0.17774 z m -24.57031,1.43945 -0.14258,0.19922 c 0.0304,-0.0405 0.0498,-0.0883 0.0801,-0.1289 0.0181,-0.0257 0.0445,-0.0445 0.0625,-0.0703 z m 89.19336,0.38086 c 0.013,0.0163 0.0318,0.0287 0.0449,0.0449 0.0162,0.0198 0.0247,0.0428 0.041,0.0625 z m 21.12695,0.13282 c 0.009,0.0109 0.0221,0.0184 0.0312,0.0293 0.008,0.009 0.0115,0.0199 0.0195,0.0293 z m -15.35937,1.29101 -0.50977,0.34961 c 0.0303,-0.019 0.0481,-0.0453 0.0781,-0.0644 0.13965,-0.10152 0.2934,-0.18159 0.43164,-0.28516 z"
             id="path53" /><path
             style="baseline-shift:baseline;display:inline;overflow:visible;vector-effect:none;fill:#ff0000;stroke:none;stroke-linecap:butt;stroke-linejoin:miter;enable-background:accumulate;stop-color:#000000;stop-opacity:1"
             d="m 270.6,472.22 v 1.53 c 0,2.42 -0.8,4.75 -2.39,6.98 -1.34,1.91 -3.25,3.63 -5.73,5.15 a 25.17,25.17 0 0 1 -6.02,2.82 c -2.11,0.67 -3.92,1.01 -5.45,1.01 -2.74,0 -4.84,-0.35 -6.31,-1.05 -1.46,-0.7 -2.47,-1.58 -3.01,-2.63 -0.54,-1.05 -0.81,-2.12 -0.81,-3.2 0,-1.4 0.49,-2.63 1.48,-3.68 0.99,-1.05 2.15,-1.48 3.49,-1.29 1.15,0.13 2.02,0.59 2.63,1.38 0.6,0.8 0.97,1.8 1.1,3.01 0,1.41 -0.23,2.46 -0.67,3.16 3.89,-0.7 7.17,-2.26 9.84,-4.68 2.68,-2.42 4.01,-5.26 4.01,-8.51 v -0.57 c 0,-1.91 -0.79,-3.92 -2.38,-6.02 -1.79,-2.3 -3.57,-4.62 -5.36,-6.98 0,-2.29 2.46,-4.49 7.36,-6.59 7.52,-3.25 12.08,-5.45 13.67,-6.59 4.9,-3.45 7.35,-7.94 7.36,-13.48 -0.01,-7.77 -5.39,-11.66 -16.16,-11.66 -5.09,0 -10.14,0.99 -15.14,2.96 -5,1.98 -10.15,5.1 -15.43,9.37 -4.27,3.44 -8.38,7.45 -12.33,12.04 -3.95,4.59 -7.36,9.3 -10.22,14.14 -2.87,4.84 -4.88,9.3 -6.03,13.38 -0.7,2.68 -1.05,5.07 -1.05,7.17 0,2.48 0.26,4.65 0.77,6.49 1.27,4.15 3.92,6.22 7.93,6.22 1.91,0 3.71,-0.53 5.4,-1.58 1.69,-1.05 3.33,-2.6 4.92,-4.64 2.61,-3.43 5.16,-7.99 7.65,-13.66 l 5.92,-13.66 1.72,-3.54 c 3.31,-6.18 5.7,-10.38 7.17,-12.61 3.56,-5.42 6.81,-8.95 9.74,-10.61 1.6,-0.89 3.2,-1.63 4.83,-2.2 1.62,-0.57 3.04,-0.86 4.25,-0.86 1.15,0 1.75,0.32 1.82,0.96 0.06,0.51 -1.25,1.56 -3.92,3.15 -1.85,1.15 -3.57,2.71 -5.16,4.68 -2.8,3.51 -6.59,10.55 -11.37,21.12 l -2.01,4.4 -4.11,9.17 c -1.34,2.8 -2.2,4.62 -2.58,5.45 a 59.31,59.31 0 0 1 -5.16,8.21 28.33,28.33 0 0 1 -4.01,4.59 c -2.3,2.11 -4.61,3.65 -6.93,4.64 -2.33,0.98 -4.7,1.48 -7.12,1.48 -3.5,0 -6.74,-0.97 -9.7,-2.92 -2.96,-1.94 -5.18,-4.54 -6.64,-7.79 a 17.66,17.66 0 0 1 -1.63,-7.45 c 0,-0.57 0.07,-1.37 0.2,-2.39 l 0.66,-3.82 c 0.51,-2.29 1.17,-4.59 1.96,-6.88 0.8,-2.29 1.74,-4.52 2.82,-6.69 5.99,-12.29 15.42,-22.49 28.29,-30.58 12.17,-7.64 24.02,-11.46 35.55,-11.46 7.9,0 14.04,1.43 18.44,4.3 4.4,2.86 6.59,7.19 6.59,12.99 0,7.14 -3.47,12.62 -10.41,16.44 -7.52,2.48 -15.04,4.97 -22.55,7.45 l 0.19,0.77 c 2.99,1.78 5.41,3.67 7.26,5.68 1.85,2.01 2.77,4.67 2.77,7.98 z m 61.45,-19.49 c 2.61,-4.46 5.06,-9.11 7.35,-13.95 2.61,-5.55 3.92,-9.24 3.92,-11.09 0,-0.77 -0.26,-1.15 -0.76,-1.15 -1.15,0 -3.27,1.77 -6.36,5.31 -3.09,3.53 -5.56,7.02 -7.41,10.46 -1.84,3.44 -3.15,5.99 -3.91,7.65 a 90.99,90.99 0 0 0 -3.54,8.69 c -1.27,3.7 -2.2,7.65 -2.77,11.85 3.95,-4.14 7.2,-8.09 9.75,-11.85 z m 22.83,2.39 c 1.47,-2.81 2.81,-5.55 4.02,-8.22 1.53,-3.44 2.29,-5.77 2.29,-6.98 0,-0.95 -0.35,-1.43 -1.05,-1.43 -1.02,0 -2.77,1.59 -5.26,4.78 -2.16,2.8 -4.3,5.99 -6.4,9.55 l -2.87,5.83 c -0.89,1.98 -1.59,3.82 -2.1,5.54 -0.51,1.72 -0.99,3.92 -1.43,6.6 2.35,-1.91 4.43,-3.86 6.21,-5.83 1.78,-1.98 3.34,-4.08 4.68,-6.31 z m 29.05,17.1 -6.69,13.66 -9.84,20.26 c -1.02,2.11 -1.91,3.57 -2.67,4.4 -0.96,1.08 -1.95,1.63 -2.97,1.63 -0.44,0 -0.89,-0.13 -1.33,-0.39 -1.28,-0.76 -1.91,-1.78 -1.91,-3.06 0,-1.01 0.35,-2.19 1.05,-3.53 l 10.32,-19.31 1.72,-3.15 c -1.21,1.21 -2.65,2.26 -4.3,3.15 -2.3,1.22 -4.3,1.82 -6.02,1.82 -1.79,0 -3.19,-0.6 -4.21,-1.82 -0.76,-0.89 -1.4,-2.19 -1.91,-3.91 -1.02,1.27 -2.39,2.58 -4.11,3.91 -1.4,1.02 -2.82,1.84 -4.25,2.44 -1.44,0.61 -2.82,0.91 -4.16,0.91 -2.61,0 -4.81,-1.12 -6.59,-3.35 -0.58,-0.7 -1.15,-1.59 -1.72,-2.67 -0.38,0.45 -0.83,0.94 -1.34,1.48 -0.51,0.54 -1.02,0.97 -1.53,1.29 a 28.34,28.34 0 0 1 -5.88,3.39 c -2.13,0.93 -4.06,1.39 -5.78,1.39 -1.72,0 -3.21,-0.43 -4.49,-1.29 -1.27,-0.86 -2.39,-2.06 -3.34,-3.59 l -0.96,-1.62 -1.81,1.62 c -3.76,3.32 -7.49,4.97 -11.19,4.97 -1.71,0 -3.21,-0.44 -4.49,-1.33 -1.27,-0.89 -2.35,-2.11 -3.25,-3.64 l -0.86,-1.71 -1.72,1.71 c -1.52,1.41 -2.99,2.41 -4.39,3.02 -1.4,0.6 -2.96,0.9 -4.68,0.9 -3,0 -5.04,-1.3 -6.12,-3.92 -0.76,-1.65 -1.15,-3.63 -1.15,-5.92 0,-2.1 0.64,-4.68 1.92,-7.74 a 43.18,43.18 0 0 1 4.15,-7.12 c 1.63,-2.26 3.55,-4.41 5.78,-6.45 2.74,-2.48 5.62,-4.46 8.65,-5.92 3.03,-1.47 6.17,-2.2 9.42,-2.2 3.94,0 5.92,1.59 5.92,4.78 0.13,1.21 -0.38,2.32 -1.53,3.34 -0.64,0.57 -1.37,0.89 -2.2,0.96 -1.08,0 -1.93,-0.1 -2.53,-0.29 -0.6,-0.19 -1.1,-0.46 -1.48,-0.81 -0.38,-0.35 -0.64,-0.85 -0.77,-1.48 -0.12,-0.64 -0.3,-0.99 -0.52,-1.05 -0.22,-0.07 -0.49,-0.1 -0.81,-0.1 -1.53,0 -3.48,0.92 -5.83,2.77 -2.04,1.59 -3.97,3.57 -5.78,5.93 a 33.5,33.5 0 0 0 -4.4,7.5 c -1.11,2.64 -1.67,5.11 -1.67,7.4 0,1.02 0.14,1.91 0.43,2.68 0.28,0.76 1,1.15 2.15,1.15 1.4,0 3.15,-1.18 5.25,-3.54 1.66,-1.85 3.48,-4.36 5.45,-7.55 0.96,-1.53 1.94,-3.2 2.96,-5.02 1.02,-1.81 1.82,-3.26 2.39,-4.35 0.32,-0.44 1.5,-0.66 3.54,-0.66 1.27,0 2.32,0.11 3.15,0.33 0.83,0.22 1.18,0.56 1.05,1.01 l -3.82,8.69 c -0.89,2.04 -1.47,3.41 -1.72,4.11 -0.45,1.08 -0.92,2.45 -1.43,4.11 -0.13,0.51 -0.2,0.86 -0.2,1.05 0,0.64 0.28,1.1 0.82,1.39 0.54,0.28 1.25,0.43 2.15,0.43 0.95,0 2.45,-0.75 4.49,-2.25 2.04,-1.5 3.31,-2.6 3.82,-3.3 v -2.72 c 0,-0.86 0.07,-1.8 0.19,-2.82 0,-2.23 0.26,-4.38 0.77,-6.45 0.51,-2.07 1.24,-4.44 2.19,-7.12 0.51,-1.27 1.04,-2.56 1.58,-3.87 0.54,-1.3 1.13,-2.66 1.77,-4.06 3.63,-7.64 7.96,-14.36 13,-20.16 5.54,-6.37 10.22,-9.56 14.04,-9.56 1.85,0 3.17,0.53 3.97,1.58 0.79,1.05 1.19,2.53 1.19,4.44 0,3.25 -1.05,7.42 -3.15,12.52 -1.53,3.69 -3.54,7.64 -6.02,11.85 -0.7,1.21 -1.39,2.34 -2.05,3.39 -0.67,1.05 -1.52,2.34 -2.54,3.87 -1.66,2.42 -3.36,4.7 -5.11,6.83 -1.75,2.14 -3.81,4.38 -6.16,6.74 l -5.16,4.78 c 0,1.59 0.51,3.04 1.52,4.35 1.02,1.3 2.49,1.96 4.4,1.96 1.27,0 2.9,-0.64 4.87,-1.92 1.6,-1.02 2.93,-2.1 4.02,-3.25 l 0.67,-5.92 c 0.7,-4.52 2.13,-9.05 4.3,-13.57 l 2,-3.92 c 3,-5.6 6.79,-10.8 11.38,-15.57 4.58,-4.78 8.09,-7.17 10.51,-7.17 1.59,0 2.72,0.45 3.39,1.34 0.67,0.89 1,2.23 1,4.01 0,2.74 -0.78,6.07 -2.34,9.99 a 73.49,73.49 0 0 1 -5.68,11.32 c -1.6,2.49 -3.22,4.81 -4.88,6.98 -2.1,2.67 -4.11,4.87 -6.02,6.59 -1.53,1.4 -3.25,2.71 -5.16,3.92 -0.06,0.25 -0.1,0.63 -0.09,1.14 -0.01,1.22 0.33,2.24 1,3.06 0.67,0.83 1.86,1.25 3.58,1.25 1.53,0 3.13,-0.74 4.78,-2.2 1.66,-1.47 3.35,-3.86 5.06,-7.17 l 0.58,-1.15 c 1.08,-2.23 2.26,-4.46 3.53,-6.68 1.02,-1.79 2.17,-3.7 3.44,-5.74 l 3.92,-6.4 c 0.13,-0.19 0.62,-0.38 1.48,-0.57 0.86,-0.2 1.68,-0.29 2.44,-0.29 1.21,0 2.17,0.11 2.87,0.33 0.7,0.23 0.92,0.62 0.67,1.2 -0.07,0.19 -0.29,0.63 -0.67,1.33 -0.7,1.28 -1.53,2.75 -2.49,4.4 -1.21,2.04 -2.45,4.24 -3.72,6.6 -1.53,2.8 -2.71,5.12 -3.54,6.97 -1.34,2.87 -2.01,5.03 -2.01,6.5 0,1.21 0.51,1.81 1.53,1.81 1.53,0 3,-0.57 4.4,-1.72 1.4,-1.14 3.18,-3.34 5.35,-6.59 1.53,-2.29 2.93,-4.57 4.2,-6.83 1.28,-2.26 2.49,-4.51 3.64,-6.74 l 2.67,-5.54 c 0.26,-0.38 0.77,-0.62 1.53,-0.72 0.76,-0.09 1.59,-0.14 2.48,-0.14 1.28,0 2.3,0.11 3.06,0.33 0.77,0.22 1.02,0.56 0.77,1.01 l -2.49,5.06 z"
             id="path54" /></g></g></g></g></g>
</svg>
