<?xml version="1.0" encoding="UTF-8" standalone="no"?>
<svg
   width="405.19791"
   height="169.4492"
   viewBox="0 0 162.07916 67.780098"
   version="1.1"
   id="svg31"
   sodipodi:docname="atarijaguarcd.svg"
   inkscape:version="1.4.3 (0d15f75042, 2025-12-25)"
   xmlns:inkscape="http://www.inkscape.org/namespaces/inkscape"
   xmlns:sodipodi="http://sodipodi.sourceforge.net/DTD/sodipodi-0.dtd"
   xmlns:xlink="http://www.w3.org/1999/xlink"
   xmlns="http://www.w3.org/2000/svg"
   xmlns:svg="http://www.w3.org/2000/svg">
  <sodipodi:namedview
     id="namedview31"
     pagecolor="#bebebe"
     bordercolor="#000000"
     borderopacity="0.25"
     inkscape:showpageshadow="2"
     inkscape:pageopacity="0.0"
     inkscape:pagecheckerboard="0"
     inkscape:deskcolor="#d1d1d1"
     inkscape:zoom="1.6004254"
     inkscape:cx="187.13774"
     inkscape:cy="89.976076"
     inkscape:window-width="1920"
     inkscape:window-height="1080"
     inkscape:window-x="0"
     inkscape:window-y="0"
     inkscape:window-maximized="0"
     inkscape:current-layer="g29" />
  <defs
     id="defs14">
    <linearGradient
       id="g">
      <stop
         style="stop-color:#d31909;stop-opacity:0"
         offset="0"
         id="stop1" />
      <stop
         style="stop-color:#fff;stop-opacity:1"
         offset="1"
         id="stop2" />
    </linearGradient>
    <linearGradient
       id="b">
      <stop
         style="stop-color:#d31909;stop-opacity:1"
         offset="0"
         id="stop3" />
      <stop
         style="stop-color:#ff3c2a;stop-opacity:1"
         offset="1"
         id="stop4" />
    </linearGradient>
    <linearGradient
       id="c">
      <stop
         style="stop-color:#d31909;stop-opacity:1"
         offset="0"
         id="stop5" />
      <stop
         style="stop-color:#ff3c2a;stop-opacity:1"
         offset="1"
         id="stop6" />
    </linearGradient>
    <linearGradient
       id="d">
      <stop
         style="stop-color:#d31909;stop-opacity:1"
         offset="0"
         id="stop7" />
      <stop
         style="stop-color:#ff3c2a;stop-opacity:1"
         offset="1"
         id="stop8" />
    </linearGradient>
    <linearGradient
       id="e">
      <stop
         style="stop-color:#d31909;stop-opacity:1"
         offset="0"
         id="stop9" />
      <stop
         style="stop-color:#ff3c2a;stop-opacity:1"
         offset="1"
         id="stop10" />
    </linearGradient>
    <linearGradient
       id="f">
      <stop
         style="stop-color:#d31909;stop-opacity:1"
         offset="0"
         id="stop11" />
      <stop
         style="stop-color:#ff3c2a;stop-opacity:1"
         offset="1"
         id="stop12" />
    </linearGradient>
    <linearGradient
       id="a">
      <stop
         style="stop-color:#d31909;stop-opacity:1"
         offset="0"
         id="stop13" />
      <stop
         style="stop-color:#ff3c2a;stop-opacity:1"
         offset="1"
         id="stop14" />
    </linearGradient>
    <linearGradient
       xlink:href="#b"
       id="o"
       x1="84.053001"
       y1="53.512001"
       x2="84.053001"
       y2="5.1009998"
       gradientUnits="userSpaceOnUse" />
    <linearGradient
       xlink:href="#c"
       id="n"
       x1="84.053001"
       y1="53.512001"
       x2="84.053001"
       y2="5.1009998"
       gradientUnits="userSpaceOnUse"
       gradientTransform="translate(0,-0.084)" />
    <linearGradient
       xlink:href="#d"
       id="m"
       x1="220.3"
       y1="142.69901"
       x2="220.3"
       y2="21.674"
       gradientUnits="userSpaceOnUse"
       gradientTransform="matrix(0.4,0,0,0.4,-3.5368076,-4.8051155)" />
    <linearGradient
       xlink:href="#e"
       id="l"
       x1="220.3"
       y1="142.69901"
       x2="220.3"
       y2="21.674"
       gradientUnits="userSpaceOnUse"
       gradientTransform="matrix(0.4,0,0,0.4,-4.067,-3.652)" />
    <linearGradient
       xlink:href="#f"
       id="k"
       x1="84.053001"
       y1="53.512001"
       x2="84.053001"
       y2="5.1009998"
       gradientUnits="userSpaceOnUse"
       gradientTransform="translate(0,-0.084)" />
    <linearGradient
       xlink:href="#g"
       id="x"
       gradientUnits="userSpaceOnUse"
       x1="84.053001"
       y1="53.512001"
       x2="79.429001"
       y2="-17.142"
       gradientTransform="translate(0,-0.084)" />
    <linearGradient
       xlink:href="#a"
       id="h"
       x1="109.618"
       y1="64.928001"
       x2="110.24"
       y2="38.236"
       gradientUnits="userSpaceOnUse"
       gradientTransform="translate(0,-0.084)" />
    <linearGradient
       xlink:href="#a"
       id="i"
       x1="109.618"
       y1="64.928001"
       x2="110.24"
       y2="38.236"
       gradientUnits="userSpaceOnUse"
       gradientTransform="translate(0,-0.084)" />
    <linearGradient
       xlink:href="#g"
       id="j"
       x1="109.618"
       y1="64.928001"
       x2="103.747"
       y2="24.334"
       gradientUnits="userSpaceOnUse"
       gradientTransform="translate(0,-0.084)" />
    <linearGradient
       xlink:href="#b"
       id="p"
       gradientUnits="userSpaceOnUse"
       x1="84.053001"
       y1="53.512001"
       x2="84.053001"
       y2="5.1009998" />
    <linearGradient
       xlink:href="#b"
       id="q"
       gradientUnits="userSpaceOnUse"
       x1="84.053001"
       y1="53.512001"
       x2="84.053001"
       y2="5.1009998" />
    <linearGradient
       xlink:href="#b"
       id="r"
       gradientUnits="userSpaceOnUse"
       x1="84.053001"
       y1="53.512001"
       x2="84.053001"
       y2="5.1009998"
       gradientTransform="translate(0.53019237,-1.2371155)" />
    <linearGradient
       xlink:href="#b"
       id="s"
       gradientUnits="userSpaceOnUse"
       x1="84.053001"
       y1="53.512001"
       x2="84.053001"
       y2="5.1009998" />
    <linearGradient
       xlink:href="#b"
       id="t"
       gradientUnits="userSpaceOnUse"
       x1="84.053001"
       y1="53.512001"
       x2="84.053001"
       y2="5.1009998" />
    <linearGradient
       xlink:href="#b"
       id="u"
       gradientUnits="userSpaceOnUse"
       x1="84.053001"
       y1="53.512001"
       x2="84.053001"
       y2="5.1009998"
       gradientTransform="translate(0.53019237,-1.2371155)" />
    <linearGradient
       xlink:href="#b"
       id="v"
       gradientUnits="userSpaceOnUse"
       x1="84.053001"
       y1="53.512001"
       x2="84.053001"
       y2="5.1009998" />
    <linearGradient
       xlink:href="#b"
       id="w"
       gradientUnits="userSpaceOnUse"
       x1="84.053001"
       y1="53.512001"
       x2="84.053001"
       y2="5.1009998"
       gradientTransform="translate(0.53019237,-1.2371155)" />
    <linearGradient
       inkscape:collect="always"
       xlink:href="#b"
       id="linearGradient59"
       gradientUnits="userSpaceOnUse"
       x1="84.053001"
       y1="53.512001"
       x2="84.053001"
       y2="5.1009998" />
    <linearGradient
       inkscape:collect="always"
       xlink:href="#b"
       id="linearGradient60"
       gradientUnits="userSpaceOnUse"
       x1="84.053001"
       y1="53.512001"
       x2="84.053001"
       y2="5.1009998" />
    <linearGradient
       inkscape:collect="always"
       xlink:href="#b"
       id="linearGradient61"
       gradientUnits="userSpaceOnUse"
       x1="84.053001"
       y1="53.512001"
       x2="84.053001"
       y2="5.1009998" />
    <linearGradient
       inkscape:collect="always"
       xlink:href="#b"
       id="linearGradient62"
       gradientUnits="userSpaceOnUse"
       x1="84.053001"
       y1="53.512001"
       x2="84.053001"
       y2="5.1009998" />
    <linearGradient
       inkscape:collect="always"
       xlink:href="#b"
       id="linearGradient64"
       gradientUnits="userSpaceOnUse"
       x1="84.053001"
       y1="53.512001"
       x2="84.053001"
       y2="5.1009998" />
    <linearGradient
       inkscape:collect="always"
       xlink:href="#b"
       id="linearGradient65"
       gradientUnits="userSpaceOnUse"
       x1="84.053001"
       y1="53.512001"
       x2="84.053001"
       y2="5.1009998" />
    <linearGradient
       inkscape:collect="always"
       xlink:href="#b"
       id="linearGradient66"
       gradientUnits="userSpaceOnUse"
       x1="84.053001"
       y1="53.512001"
       x2="84.053001"
       y2="5.1009998" />
    <linearGradient
       inkscape:collect="always"
       xlink:href="#b"
       id="linearGradient68"
       gradientUnits="userSpaceOnUse"
       x1="84.053001"
       y1="53.512001"
       x2="84.053001"
       y2="5.1009998" />
    <linearGradient
       inkscape:collect="always"
       xlink:href="#b"
       id="linearGradient69"
       gradientUnits="userSpaceOnUse"
       x1="84.053001"
       y1="53.512001"
       x2="84.053001"
       y2="5.1009998" />
    <linearGradient
       inkscape:collect="always"
       xlink:href="#b"
       id="linearGradient71"
       gradientUnits="userSpaceOnUse"
       x1="84.053001"
       y1="53.512001"
       x2="84.053001"
       y2="5.1009998" />
  </defs>
  <g
     style="display:inline;fill:url(#o);fill-opacity:1"
     transform="translate(1.4693074,3.1542484)"
     id="g29">
    <path
       style="baseline-shift:baseline;display:inline;overflow:visible;vector-effect:none;fill:#ffffff;stroke:none;stroke-width:4.00002;stroke-linecap:round;stroke-linejoin:round;stroke-dasharray:none;stroke-opacity:1;paint-order:markers stroke fill;enable-background:accumulate;stop-color:#000000"
       d="m 123.27042,0.3527282 c -0.7685,0.021759 -1.59771,0.3059681 -2.11718,0.6113282 a 2.00021,2.00021 0 0 0 -0.002,0 c 0.1524,-0.089781 -0.2297,0.092761 -0.63671,0.1972656 -0.40702,0.1045042 -0.91056,0.2009913 -1.32813,0.2480469 -1.78125,0.2005916 -4.20915,1.0879115 -6.73633,2.0507812 -1.26359,0.4814349 -2.47124,0.9794305 -3.4375,1.4277344 -0.48313,0.2241519 -0.90301,0.4321768 -1.27344,0.6464844 -0.37042,0.2143075 -0.63925,0.1337408 -1.2246,1.0703125 0.0901,-0.1441196 -0.094,0.117252 -0.30079,0.3398437 -0.20742,0.2233109 -0.4748,0.4890868 -0.71484,0.7089844 -0.39426,0.3611749 -0.72943,0.7376742 -1.01367,1.140625 -0.28425,0.402951 -0.69289,0.547405 -0.66016,1.8378905 a 2.00021,2.00021 0 0 0 0,0.002 c 0.0343,1.323693 0.55526,1.520464 0.88086,1.861328 0.32561,0.340864 0.67183,0.621785 1.04688,0.888672 0.37504,0.266887 0.76941,0.50937 1.1914,0.71289 0.19946,0.09619 0.53032,0.122056 0.75977,0.201171 0.0567,0.06135 0.0626,0.201749 0.11914,0.248047 0.38764,0.317492 0.70976,0.417156 0.97851,0.488282 0.43547,0.115248 0.76946,0.09904 1.11719,0.08789 -0.74109,2.087204 -1.44227,4.145577 -1.9414,5.771483 -0.28058,0.913966 -0.50846,1.710243 -0.67383,2.359375 -0.16538,0.649133 -0.30073,0.956553 -0.29688,1.728516 -0.002,-0.458069 -0.0271,0.05866 -0.16797,0.474609 -0.14087,0.41595 -0.3502,0.942123 -0.57226,1.41211 -0.58499,1.236995 -1.11208,2.560912 -1.32422,3.728515 -0.0543,0.296637 -0.48522,1.585195 -0.78516,2.183594 a 2.00021,2.00021 0 0 0 -0.002,0 c -0.53665,1.071708 -0.79158,2.259327 -0.96094,3.423828 -0.0847,0.582251 -0.13475,1.134449 -0.12695,1.673828 0.004,0.26969 0.0174,0.53445 0.082,0.851563 0.0646,0.317113 0.10438,0.731332 0.66406,1.291015 0.38274,0.382738 0.98516,0.654399 1.50977,0.691407 0.52461,0.03701 0.94149,-0.09431 1.25976,-0.240235 0.63656,-0.291853 0.99502,-0.665268 1.32422,-1.064453 0.31082,-0.376894 0.58077,-0.791847 0.79102,-1.255859 0.13486,-0.03927 0.32374,-0.01 0.42773,-0.0625 0.68459,-0.345602 0.86648,-0.691617 1.08008,-1.001953 0.4272,-0.620672 0.77046,-1.335963 1.29492,-2.462891 0.50917,-1.09486 0.60311,-1.266291 0.79493,-1.652344 0.19757,-0.04595 0.44448,0.05384 0.58593,-0.0293 0.97034,-0.570307 0.99387,-1.059835 1.16407,-1.488281 0.34038,-0.856891 0.54075,-1.855815 0.76367,-3.257812 0.17352,-1.090727 0.47177,-2.635225 0.60937,-3.205078 0.17531,-0.726002 0.65086,-2.750973 1.06836,-4.53711 0.0834,-0.357279 0.18086,-0.44473 0.27539,-0.779297 0.2746,0.87148 0.74168,1.250527 1.19727,1.611328 0.46126,0.365294 0.98396,0.675485 1.60742,0.990235 1.02872,0.519099 2.00068,1.295439 3.17578,2.634765 a 2.00021,2.00021 0 0 0 0.002,0 c 1.11079,1.265477 2.1686,2.416668 3.26172,3.154297 l 2.72071,1.837891 a 2.00021,2.00021 0 0 0 0,0.002 c 0.68143,0.460041 2.45114,1.97326 3.48632,3.041016 a 2.00021,2.00021 0 0 0 0.002,0.002 c 1.25425,1.292626 2.84546,2.701262 4.0625,3.488281 0.76063,0.492424 2.9367,2.056703 4.60742,3.326172 a 2.00021,2.00021 0 0 0 0.002,0 c 1.79923,1.365562 3.61182,2.712981 5.4375,4.042969 a 2.00021,2.00021 0 0 0 0.006,0.0059 c 1.09553,0.791161 1.7878,1.277544 2.4043,1.619141 0.30825,0.170798 0.50285,0.376947 1.28906,0.429687 0.39311,0.02637 1.13759,-0.08522 1.66602,-0.626953 0.52843,-0.541733 0.59961,-1.161819 0.59961,-1.498047 0,-0.919763 -0.28185,-1.043716 -0.38477,-1.1875 -0.10292,-0.143784 -0.16588,-0.20716 -0.2207,-0.263672 -0.10966,-0.113023 -0.18258,-0.173404 -0.26172,-0.240234 -0.15828,-0.133659 -0.32672,-0.262884 -0.52735,-0.412109 -0.40125,-0.298452 -0.91925,-0.663009 -1.49218,-1.046875 -0.0681,-0.04553 -0.23822,-0.199311 -0.31836,-0.25586 0.44544,-0.460125 0.65168,-1.176171 0.6289,-1.648437 -0.0231,-0.478385 -0.15496,-0.777564 -0.27539,-1.023438 -0.24085,-0.491748 -0.50782,-0.806876 -0.83008,-1.166015 -0.6445,-0.718279 -1.53193,-1.515158 -2.71289,-2.478516 -1.34736,-1.098652 -3.29817,-2.753534 -4.24804,-3.601563 -1.58169,-1.411169 -3.14258,-2.750891 -4.44922,-3.826171 -1.30664,-1.075281 -2.25916,-1.836715 -3.03516,-2.308594 0.0724,0.04403 -0.40259,-0.314647 -0.84375,-0.742188 -0.44115,-0.42754 -0.94969,-0.965323 -1.37695,-1.466796 a 2.00021,2.00021 0 0 0 -0.002,-0.002 c -0.82066,-0.961163 -1.74751,-1.949886 -2.50977,-2.730469 1.93965,-1.357949 3.46761,-2.691917 4.52344,-4.197265 1.12541,-1.604567 1.69531,-3.434443 1.69531,-5.3046875 0,-2.5300224 -1.16628,-4.7363173 -3.34375,-6.5527349 -1.9957,-1.6650464 -3.28831,-2.2262028 -6.33594,-2.671875 -1.18007,-0.1723707 -1.93071,-0.2776187 -2.69922,-0.2558594 z m 0.11329,3.9980469 c 0.22924,-0.00649 0.87388,0.051168 2.00781,0.2167969 2.95562,0.4322172 2.4581,0.2032123 4.35156,1.7832031 1.73053,1.4435824 1.90625,1.8024438 1.90625,3.4824224 0,1.1327545 -0.25762,1.9911295 -0.9707,3.0078115 -0.71309,1.016683 -1.94712,2.162668 -3.84766,3.457031 l -1.2793,0.871094 c 0.44131,-0.515551 0.81443,-0.979216 1.4004,-1.871094 0.54673,-0.833146 0.97984,-1.569926 1.29492,-2.222656 0.15753,-0.326365 0.28864,-0.625979 0.39062,-0.974609 0.10198,-0.348631 0.34944,-0.708714 -0.0176,-1.666016 a 2.00021,2.00021 0 0 0 -0.002,-0.0039 c -0.227,-0.5885205 -0.44335,-0.7496015 -0.63672,-0.9453125 -0.19337,-0.195711 -0.38482,-0.355634 -0.59179,-0.513672 -0.41395,-0.3160749 -0.88524,-0.614019 -1.39844,-0.8828121 a 2.00021,2.00021 0 0 0 -0.002,0 c -1.36786,-0.7152955 -2.80443,-0.9724051 -4.18554,-0.7441406 -1.07352,0.1774407 -1.87115,0.2920772 -2.73633,0.8066406 -0.84851,0.5046499 -1.35605,1.3327491 -1.69531,2.0351556 -0.41934,0.111638 -0.84026,0.267451 -1.08594,0.527344 -0.56745,0.600271 -0.65952,1.093715 -0.76953,1.564453 a 2.00021,2.00021 0 0 0 0,0.0039 c 0.0433,-0.186456 -0.4942,1.150169 -0.93555,1.851563 a 2.00021,2.00021 0 0 0 0,0.002 c -0.17498,0.278728 -0.30112,0.657633 -0.45703,0.974609 0.16708,-0.511959 0.33722,-1.023071 0.4707,-1.544922 a 2.00021,2.00021 0 0 0 0.008,-0.0332 l 0.21282,-0.89458 a 2.00021,2.00021 0 0 0 -2.86524,-2.238281 l -0.95312,0.494139 c -0.13785,0.07125 -0.54444,0.161102 -0.86133,0.210939 -0.0411,-0.03345 -0.0744,-0.09844 -0.11524,-0.126953 -0.47239,-0.33011 -0.96179,-0.455079 -1.46875,-0.455079 0.43798,0 0.28821,0.04659 0.13086,-0.0293 -0.0595,-0.02869 -0.15343,-0.0942 -0.23046,-0.138672 0.23967,-0.229701 0.48153,-0.4635085 0.6914,-0.6894535 0.28557,-0.307439 0.4935,-0.511216 0.76172,-0.9394534 -0.44957,0.7161994 -0.3568,0.3841204 -0.16211,0.2714844 0.19634,-0.113591 0.53673,-0.2892301 0.95313,-0.4824219 0.8328,-0.3863836 1.98007,-0.8600911 3.17773,-1.3164062 2.39532,-0.9126303 5.32102,-1.7650448 5.75977,-1.8144532 0.63843,-0.071944 1.28301,-0.1956604 1.875,-0.3476562 0.59198,-0.1519958 1.05948,-0.2642194 1.67187,-0.625 0.20353,-0.1196399 -0.0261,-0.054056 0.20313,-0.060547 z m -0.12696,6.8300789 c 0.15339,0.03315 0.31984,0.160771 0.87891,0.453125 v -0.002 c 0.0916,0.04798 0.15586,0.10094 0.24609,0.154297 -0.20623,0.380821 -0.41534,0.770719 -0.77343,1.316406 -0.57426,0.873896 -0.75084,1.082204 -0.91407,1.298829 -0.24458,-0.113968 -0.47126,-0.21347 -0.54492,-0.271484 a 2.00021,2.00021 0 0 0 -0.002,0 l -0.84766,-0.666016 a 2.00021,2.00021 0 0 0 -1.21094,-0.259767 c 0.403,-0.410327 0.65656,-0.812306 0.86719,-1.253906 0.24799,-0.520061 0.19293,-0.383141 0.15625,-0.361328 -0.0367,0.02181 0.36027,-0.134316 1.34375,-0.296875 0.50744,-0.08387 0.64739,-0.144475 0.80078,-0.111328 z m -5.5,5.677733 c 0.006,0.02401 -0.0125,0.04256 -0.006,0.06641 0.001,0.0046 0.005,0.0052 0.006,0.0098 -0.0164,0.01078 -0.0284,0.04323 -0.0449,0.05469 0.0143,-0.02946 0.031,-0.103217 0.0449,-0.130859 z m 7.16602,1.029297 a 2.00021,2.00021 0 0 0 -0.55274,0.947266 c -0.0315,-0.01996 -0.0895,-0.0576 -0.11914,-0.07617 -0.1387,-0.08705 -0.25398,-0.158521 -0.37304,-0.226563 -0.0259,-0.01477 -0.11105,-0.04207 -0.13086,-0.05664 0.44452,-0.115927 0.86342,-0.333006 1.17578,-0.587891 z M 112.45792,20.1164 c -0.37267,1.591378 -0.78394,3.342042 -0.92773,3.9375 -0.20239,0.838146 -0.4814,2.318351 -0.67187,3.515625 -0.12687,0.797911 -0.22392,1.077576 -0.33399,1.511718 -0.11132,0.0385 -0.28688,-0.03109 -0.36719,0.01953 -0.45279,0.285445 -0.59279,0.523048 -0.72461,0.71289 -0.006,0.0086 -0.0117,0.02662 -0.0176,0.03516 0.18365,-0.512688 0.25986,-0.833919 0.46679,-1.271484 0.29294,-0.620013 0.54922,-1.25659 0.7461,-1.837891 0.19687,-0.5813 0.38307,-0.896275 0.3789,-1.777343 0.002,0.370963 0.0339,-0.173507 0.17383,-0.722657 0.13991,-0.549149 0.35304,-1.298714 0.62109,-2.171875 0.16587,-0.540284 0.45303,-1.327668 0.65625,-1.951171 z"
       id="path48" />
    <g
       id="path15"
       style="fill:url(#linearGradient59);stroke:#ffffff;stroke-width:4.00002;stroke-linecap:round;stroke-linejoin:round;stroke-dasharray:none;stroke-opacity:1;paint-order:markers stroke fill"
       transform="translate(0.53019237,-1.1531155)">
      <path
         style="baseline-shift:baseline;display:inline;overflow:visible;vector-effect:none;fill:#ffffff;stroke:none;enable-background:accumulate;stop-color:#000000;stop-opacity:1"
         d="m 103.2832,39.597656 c -0.51019,-0.02255 -1.00104,0.05329 -1.49609,0.136719 -0.99009,0.166848 -2.015163,0.493077 -3.052735,0.923828 -2.075144,0.861502 -4.162783,2.079795 -5.613281,3.693359 -2.189348,2.434628 -3.097664,5.263269 -2.892578,8.796875 0.123845,2.138745 0.640206,4.038178 1.71289,5.59375 1.072684,1.555573 2.6674,2.668124 4.554688,3.361329 a 2.00021,2.00021 0 0 0 0.0078,0 c 2.620614,0.959557 5.945056,0.839261 8.605476,-0.15625 1.34346,-0.50258 2.49932,-1.142473 3.36718,-2.138672 0.86786,-0.996199 1.31623,-2.265982 1.48047,-3.576172 l 0.21289,-1.691406 a 2.00021,2.00021 0 0 0 -3.37695,-1.683594 l -1.3125,1.271484 c -2.28515,2.218038 -4.27502,2.557258 -6.478519,1.414063 -0.771726,-0.400526 -1.062571,-0.843202 -1.220703,-1.460938 -0.158132,-0.617736 -0.09714,-1.465604 0.267578,-2.361328 0.729243,-1.790978 2.603084,-3.572796 5.021484,-3.943359 0.92582,-0.140874 1.68405,-0.310468 2.4043,-0.640625 0.36012,-0.165079 0.72617,-0.367854 1.08984,-0.748047 0.36367,-0.380193 0.71485,-1.037081 0.71485,-1.738281 0,0.67667 -0.11079,0.566701 -0.0977,0.542968 0.0131,-0.02373 0.0717,-0.10818 0.0977,-0.136718 a 2.00021,2.00021 0 0 0 0.002,-0.002 c 0.68429,-0.75621 1.11065,-1.89393 0.72266,-3.033203 -0.38799,-1.139272 -1.65866,-1.865234 -2.73438,-1.865234 0.19469,0 -0.43345,-0.141705 -0.37305,-0.109375 -0.57251,-0.306426 -1.10308,-0.426664 -1.61328,-0.449219 z m -0.27539,3.976563 c 0.0819,0.04383 0.16245,0.02406 0.24024,0.0625 -0.2382,0.06627 -0.36226,0.122089 -0.7793,0.185547 a 2.00021,2.00021 0 0 0 -0.002,0 c -0.91538,0.139963 -1.76244,0.416478 -2.56055,0.761718 0.1435,-0.06563 0.21911,-0.173378 0.36133,-0.232422 0.82018,-0.340499 1.61487,-0.577988 2.18359,-0.673828 0.56872,-0.09584 0.89267,0.07634 0.55664,-0.103515 z m -5.857419,2.77539 c -1.193584,1.053084 -2.125603,2.324464 -2.714844,3.697266 0.249128,-1.050359 0.709449,-1.964267 1.660156,-3.021484 0.190982,-0.212453 0.751994,-0.436058 1.054688,-0.675782 z"
         id="path32" />
      <path
         style="baseline-shift:baseline;display:inline;overflow:visible;vector-effect:none;fill:url(#h);stroke:none;enable-background:accumulate;stop-color:#000000;stop-opacity:1"
         d="m 97.186,60.226 c -3.199,-1.175 -4.741,-3.411 -4.96,-7.193 -0.187,-3.222 0.455,-5.2 2.383,-7.344 2.206,-2.454 7.725,-4.745 9.343,-3.879 0.355,0.19 0.948,0.346 1.317,0.346 0.89,0 1.177,0.842 0.53,1.557 -0.286,0.315 -0.519,0.737 -0.519,0.937 0,0.502 -0.867,0.9 -2.51,1.15 -6.357,0.972 -9.611,8.964 -4.69,11.518 2.924,1.517 6.07,0.89 8.794,-1.754 l 1.311,-1.272 -0.212,1.692 c -0.265,2.114 -1.225,3.216 -3.564,4.091 -2.015,0.754 -5.387,0.824 -7.223,0.15 z"
         id="path33" />
    </g>
    <path
       style="baseline-shift:baseline;display:inline;overflow:visible;vector-effect:none;fill:#ffffff;stroke:none;stroke-width:4.00002;stroke-linecap:round;stroke-linejoin:round;stroke-dasharray:none;stroke-opacity:1;paint-order:markers stroke fill;enable-background:accumulate;stop-color:#000000"
       d="m 117.16886,17.8664 c -0.29936,-0.03222 -0.6571,-0.0046 -1.20898,0.177734 -0.55189,0.18234 -1.23133,0.848769 -1.42578,1.375 -0.19446,0.526231 -0.16407,0.817175 -0.16407,1.039062 0,2.140735 1.81587,3.664063 3.83204,3.664063 -0.46758,0 -0.40608,-0.136937 0.0156,0.193359 0.4215,0.330136 1.13244,0.991881 2.13281,2.009766 3.81498,3.886693 8.01016,7.379669 12.52344,10.427734 a 2.00021,2.00021 0 0 0 0.002,0.002 c 0.98749,0.665855 1.97953,1.357861 2.76953,1.927734 0.78933,0.569388 1.47571,1.119197 1.45899,1.103516 0.29834,0.277785 0.59586,0.51765 0.90234,0.726562 0.15324,0.104456 0.30618,0.200508 0.50196,0.298828 0.18598,0.0934 0.37318,0.237052 1.00195,0.259766 -0.50222,-0.02128 -0.61767,-0.116301 -0.67383,-0.142578 -0.0615,-0.02879 -0.054,-0.0287 -0.0293,-0.01367 0.0495,0.03006 0.18391,0.118867 0.34571,0.236328 0.3236,0.234921 0.77628,0.592139 1.23437,0.980469 a 2.00021,2.00021 0 0 0 0.006,0.0039 c 1.12472,0.946219 2.28205,1.852252 3.4707,2.716797 a 2.00021,2.00021 0 0 0 0.0195,0.01367 c 0.86611,0.614207 2.64849,1.873784 3.96484,2.802735 a 2.00021,2.00021 0 0 0 0,0.002 c 0.67075,0.47284 1.29668,0.901404 1.78125,1.222656 0.24228,0.160626 0.4473,0.292607 0.62305,0.400391 0.0879,0.05389 0.16471,0.09994 0.26562,0.154297 0.0505,0.02718 0.10369,0.0564 0.20313,0.09961 0.0994,0.04321 0.065,0.175781 0.82421,0.175781 0.23849,0 0.5964,-0.02028 1.04297,-0.279297 0.44658,-0.259019 0.86449,-0.849531 0.96875,-1.330078 0.20853,-0.961093 -0.1067,-1.256583 -0.22265,-1.470703 -0.23191,-0.428238 -0.38497,-0.557142 -0.57032,-0.75586 -0.37068,-0.397436 -0.83262,-0.816729 -1.38281,-1.289062 -1.10038,-0.944665 -2.49084,-2.026936 -3.6914,-2.796875 a 2.00021,2.00021 0 0 0 -0.002,-0.002 c -2.54813,-1.632514 -5.56471,-4.02321 -7.02734,-5.517578 -1.67124,-1.705536 -4.1261,-3.572885 -6.10156,-4.580078 -0.52937,-0.27003 -1.58038,-1.08408 -1.69336,-1.208984 -0.62774,-0.693 -1.58639,-1.613798 -2.52149,-2.470703 -0.9351,-0.856905 -1.56387,-1.481827 -2.39453,-1.998047 a 2.00021,2.00021 0 0 0 -0.002,-0.002 c 0.28483,0.176512 0.093,0.06457 -0.043,-0.06445 -0.13598,-0.129026 -0.33183,-0.325654 -0.55664,-0.558593 -0.44963,-0.465878 -1.02175,-1.08509 -1.58398,-1.724609 -2.84077,-3.233205 -5.07452,-5.208754 -7.73438,-5.634766 -0.3202,-0.05125 -0.56197,-0.141607 -0.86133,-0.173828 z"
       id="path54" />
    <path
       style="baseline-shift:baseline;display:inline;overflow:visible;vector-effect:none;fill:#ffffff;stroke:none;stroke-width:4.00002;stroke-linecap:round;stroke-linejoin:round;stroke-dasharray:none;stroke-opacity:1;paint-order:markers stroke fill;enable-background:accumulate;stop-color:#000000"
       d="m 116.163,21.0539 c -0.22046,0.02471 -0.51961,0.128762 -0.96679,0.441406 -0.44719,0.312644 -0.89391,1.120773 -0.89454,1.714844 -6.2e-4,0.59407 0.18121,0.900925 0.30274,1.115234 0.48611,0.857234 0.82139,1.015154 1.49609,1.652344 0.47786,0.451469 0.95999,0.853939 1.40821,1.179687 0.22444,0.163118 0.43646,0.306682 0.67968,0.441406 0.0673,0.03725 0.28382,0.05669 0.34961,0.101563 0.14083,0.227097 0.2774,0.505699 0.44141,0.712891 0.27428,0.346499 0.60402,0.723647 0.98242,1.138671 0.75681,0.830049 1.70839,1.802077 2.69336,2.761719 0.98497,0.959643 1.99819,1.901951 2.87891,2.667969 0.88071,0.766018 1.38084,1.282967 2.33593,1.732422 a 2.00021,2.00021 0 0 0 0.002,0.002 c 0.24698,0.115693 0.5417,0.292629 0.73632,0.435547 0.19463,0.142917 0.30763,0.423925 0.0527,-0.05273 0.32044,0.598624 0.48147,0.657868 0.71484,0.886719 0.23338,0.228852 0.50226,0.473138 0.81641,0.744141 0.6283,0.542006 1.42652,1.187621 2.30469,1.871093 1.75633,1.366946 3.80509,2.864293 5.35351,3.857422 4.45853,2.859738 9.10892,6.00672 11.40821,7.712891 0.72171,0.535137 1.40461,1.02463 1.94531,1.394531 0.27035,0.18495 0.5024,0.337812 0.70703,0.464844 0.10231,0.06352 0.19448,0.11963 0.31055,0.181641 0.11606,0.06201 -0.0224,0.172637 0.82617,0.267578 0.2557,0.02938 0.61339,0.134002 1.30469,-0.236328 0.34664,-0.185702 0.75493,-0.584865 0.9414,-1.050782 0.18647,-0.465917 0.1643,-0.894765 0.10742,-1.179687 -0.22749,-1.139686 -0.55431,-1.115581 -0.79297,-1.353516 -0.4773,-0.47587 -1.05573,-0.907416 -1.84375,-1.447265 -0.73959,-0.506181 -2.46511,-1.781785 -3.6875,-2.732422 -1.29236,-1.00506 -3.14,-2.372386 -4.22265,-3.121094 a 2.00021,2.00021 0 0 0 -0.002,-0.002 c -0.92823,-0.640655 -2.89047,-2.119813 -4.20508,-3.173828 v 0.002 c -0.72476,-0.58152 -1.50394,-1.155663 -2.20899,-1.634766 -0.70504,-0.479102 -1.22803,-0.835493 -1.89648,-1.115234 -0.15754,-0.06593 -0.26054,-0.126585 -0.35742,-0.181641 -0.0945,-0.131099 -0.1781,-0.231532 -0.25391,-0.3125 -0.17724,-0.189293 -0.34744,-0.341631 -0.54297,-0.507812 -0.39105,-0.332364 -0.8694,-0.695277 -1.40234,-1.0625 a 2.00021,2.00021 0 0 0 -0.002,-0.002 c -0.40579,-0.27919 -0.78408,-0.585555 -1.0039,-0.792969 -0.10991,-0.103707 -0.18071,-0.18967 -0.16992,-0.175781 0.0108,0.01389 0.28125,-0.05465 0.28125,0.957031 0,-0.890771 -0.29415,-1.1387 -0.46875,-1.388672 -0.1746,-0.249971 -0.34386,-0.432395 -0.52735,-0.613281 -0.36698,-0.36177 -0.78763,-0.697315 -1.26758,-1.011719 v 0.002 c -0.77157,-0.506122 -2.61431,-2.128231 -4.14648,-3.679687 -0.76608,-0.775729 -1.4807,-1.548892 -2.01172,-2.175782 -0.53102,-0.626889 -0.90577,-1.295056 -0.80273,-1.042968 -0.46685,-1.141188 -1.26277,-2.168495 -2.51758,-2.654297 -0.34089,-0.132067 -1.30714,-0.573216 -1.88086,-0.871094 -0.44356,-0.22997 -0.89938,-0.415155 -1.34766,-0.560547 -0.44827,-0.145391 -0.79538,-0.277343 -1.46289,-0.277344 -0.13086,0 -0.27368,-0.05401 -0.49414,-0.0293 z m 20.08399,16.314453 c 0.15364,0.115322 0.36328,0.324877 0.36328,1.144531 0,-0.820894 -0.23818,-0.97891 -0.36328,-1.144531 z"
       id="path58" />
    <g
       id="path16"
       style="fill:url(#linearGradient60);stroke:#ffffff;stroke-width:4.00002;stroke-linecap:round;stroke-linejoin:round;stroke-dasharray:none;stroke-opacity:1;paint-order:markers stroke fill"
       transform="translate(0.53019237,-1.1531155)">
      <path
         style="baseline-shift:baseline;display:inline;overflow:visible;vector-effect:none;fill:#ffffff;stroke:none;enable-background:accumulate;stop-color:#000000;stop-opacity:1"
         d="m 115.21484,36.654297 c -0.34153,-0.02382 -0.77676,0.06352 -1.40234,0.449219 a 2.00021,2.00021 0 0 0 -0.008,0.0059 c -0.81079,0.505352 -0.76116,0.788113 -0.86719,1.011719 -0.10603,0.223605 -0.17259,0.412696 -0.23437,0.613281 -0.12358,0.40117 -0.219,0.834148 -0.28907,1.302734 l 0.002,-0.002 c -0.0168,0.111834 -0.0158,0.08958 -0.0293,0.166016 0.0125,-0.04664 -0.12264,0.04341 -0.98633,0.341797 -1.58241,0.545795 -2.89565,1.118322 -3.92969,1.746093 -0.51723,0.314016 -0.9667,0.634907 -1.37695,1.064454 -0.41025,0.429547 -0.89453,1.033459 -0.89453,2.027343 0,0.789654 0.30054,1.413863 0.81445,1.94336 -0.0321,0.273602 -0.0846,0.541931 -0.0566,0.833984 0.0435,0.454829 -0.12511,1.145961 1.08789,1.900391 a 2.00021,2.00021 0 0 0 0.0117,0.0078 c 0.59325,0.363138 0.88299,0.307459 1.09766,0.3125 0.21467,0.005 0.36016,-0.01194 0.49804,-0.03125 0.27576,-0.03862 0.51297,-0.09485 0.77344,-0.166015 0.006,-0.0016 0.0137,-0.0043 0.0195,-0.0059 -1.28934,3.455554 -2.60163,7.590921 -3.00781,9.9375 -0.18207,1.051182 -0.36584,1.609935 -0.22461,2.572266 0.0706,0.481165 0.32615,1.047004 0.60742,1.398437 0.28128,0.351434 0.51659,0.529021 0.71875,0.697266 a 2.00021,2.00021 0 0 0 0.002,0.002 c 0.31455,0.261107 0.61841,0.491396 1.0332,0.693359 0.41479,0.201964 1.03727,0.42508 1.82226,0.222657 0.46811,-0.120709 0.8262,-0.406618 1.11719,-0.71875 0.27405,0.04928 0.50271,0.170694 0.80469,0.103515 0.56437,-0.12555 1.00158,-0.471319 1.25195,-0.771484 0.26342,-0.315814 0.25072,-0.533044 0.33789,-0.787109 0.0901,-0.02948 0.24919,-0.0355 0.33985,-0.06641 0.2882,-0.09826 0.5773,-0.217056 0.89648,-0.359375 0.63836,-0.284638 1.38716,-0.663251 2.21875,-1.111328 1.66317,-0.896153 3.6407,-2.070011 5.45313,-3.263672 5.45309,-3.591748 8.48533,-7.448261 8.5039,-11.957031 0.002,-0.607226 -0.0324,-1.227755 -0.0957,-1.794922 -0.063,-0.56506 -0.0955,-0.986493 -0.33594,-1.611328 l -0.002,-0.002 c -0.68894,-1.797107 -2.18983,-3.133685 -3.99219,-3.876953 -1.80322,-0.743625 -3.93241,-0.987943 -6.30469,-0.820313 -0.74665,0.0525 -0.86033,0.04524 -1.14648,0.05078 -0.21144,-0.239643 -0.40876,-0.409808 -0.60547,-0.554688 -0.42389,-0.3122 -0.86423,-0.550855 -1.33008,-0.765625 -0.46585,-0.21477 -0.93784,-0.3945 -1.44726,-0.517578 -0.25472,-0.06154 -0.50418,-0.19688 -0.84571,-0.220703 z m 1.09571,4.273437 c 0.0646,0.329774 0.0294,0.615186 0.35351,0.980469 0.53526,0.603249 1.17297,0.738857 1.57617,0.794922 0.25025,0.0348 0.5788,-0.01925 0.81641,-0.01563 -0.32054,0.06154 -0.62428,0.03189 -0.94726,0.113281 l -1.36133,0.341797 a 2.00021,2.00021 0 0 0 -1.4375,1.398438 l -0.75196,2.673828 c 0.0112,-0.221847 0.32936,-0.61491 -0.58984,-1.544922 a 2.00021,2.00021 0 0 0 -0.008,-0.0078 c -0.8862,-0.886194 -1.30321,-0.60456 -1.5293,-0.599609 -0.22609,0.005 -0.35153,0.02944 -0.47461,0.05273 -0.24615,0.04659 -0.45285,0.105517 -0.68945,0.177735 -0.41806,0.127601 -0.91728,0.313687 -1.43555,0.519531 -0.0268,-0.06278 -0.0758,-0.117855 -0.10937,-0.179688 0.65976,-0.38296 1.66236,-0.85337 2.98242,-1.308593 a 2.00021,2.00021 0 0 0 0.002,0 c 1.05971,-0.36611 1.73,-0.468233 2.56836,-1.220703 0.41918,-0.376236 0.7353,-0.94406 0.87109,-1.376954 0.0586,-0.186798 0.0669,-0.316815 0.0977,-0.472656 0.0686,0.0413 0.18878,0.100049 0.22266,0.125 0.0481,0.03542 0.0505,0.05568 -0.0312,-0.04102 -0.03,-0.03549 -0.072,-0.293937 -0.13086,-0.384766 10e-4,-0.0079 0.005,-0.01746 0.006,-0.02539 z m 6.64843,1.769532 c 0.94875,0.0808 1.79422,0.228418 2.41016,0.482421 1.03453,0.426625 1.53069,0.951745 1.7832,1.611329 a 2.00021,2.00021 0 0 0 0.004,0.0059 c -0.0729,-0.1887 0.0466,0.213807 0.0918,0.619141 0.0341,0.30578 0.0453,0.665109 0.0547,1.007812 -0.22553,-1.283698 -1.08313,-2.428306 -2.18945,-3.103516 a 2.00021,2.00021 0 0 0 -0.002,-0.002 c -0.65698,-0.399706 -1.41667,-0.471803 -2.15235,-0.621093 z m -14.51367,1.664062 c 0.4291,0.169816 0.61941,0.323956 0.69141,0.494141 -0.22894,-0.205242 -0.46644,-0.402202 -0.69141,-0.494141 z m 13.15821,2.109375 c 0.72698,0.04595 1.27291,0.171981 1.42773,0.265625 2e-4,1.24e-4 0.002,-1.24e-4 0.002,0 0.39332,0.240966 0.34699,0.268987 0.35938,0.359375 0.0125,0.09113 -0.0129,0.478637 -0.41016,1.136719 -0.79459,1.316164 -2.94758,3.377493 -6.27148,5.513672 -0.0576,0.03701 -0.0666,0.05541 -0.12305,0.0918 0.66197,-1.92735 1.39852,-4.036601 1.74024,-5.253907 l 0.51953,-1.84375 0.23828,-0.06055 a 2.00021,2.00021 0 0 0 0.002,0 c 0.879,-0.221499 1.78768,-0.255 2.51563,-0.208984 z m -14.63086,1.59375 c 0.007,0.0027 0.007,0.009 0.0137,0.01172 l -0.008,-0.0039 c -0.002,-6.77e-4 -0.004,-0.0071 -0.006,-0.0078 z m 7.63867,14.275391 c -0.0925,0.196258 -0.20584,0.258268 -0.21875,0.27539 -0.0241,0.03198 0.0517,-0.06255 0.16797,-0.191406 l 0.002,-0.002 c 0.0216,-0.02388 0.0276,-0.05779 0.0488,-0.08203 z"
         id="path34" />
      <path
         style="baseline-shift:baseline;display:inline;overflow:visible;vector-effect:none;fill:url(#i);stroke:none;enable-background:accumulate;stop-color:#000000;stop-opacity:1"
         d="m 108.818,63.244 c -0.763,-0.635 -0.772,-0.7 -0.41,-2.79 0.395,-2.282 2.049,-7.611 3.444,-11.099 0.467,-1.168 0.78,-2.193 0.695,-2.279 -0.085,-0.085 -1.053,0.21 -2.151,0.657 -1.098,0.446 -2.13,0.728 -2.295,0.627 -0.164,-0.102 -0.21,-0.585 -0.103,-1.074 0.14,-0.638 0.055,-0.943 -0.301,-1.08 -0.274,-0.104 -0.497,-0.476 -0.497,-0.826 0,-0.782 1.873,-1.919 4.854,-2.947 2.113,-0.73 2.136,-0.75 2.339,-2.1 0.112,-0.749 0.324,-1.436 0.47,-1.527 0.532,-0.328 3.217,0.91 3.217,1.483 0,0.498 0.276,0.536 2.651,0.369 4.288,-0.303 7.349,0.96 8.29,3.418 0.17,0.44 0.304,1.647 0.3,2.683 -0.015,3.641 -2.398,6.867 -7.604,10.296 -3.512,2.313 -7.773,4.609 -8.567,4.616 -0.573,0.005 -0.577,-0.03 -0.072,-0.589 0.315,-0.348 0.45,-0.82 0.327,-1.141 -0.399,-1.04 0.628,-2.097 4.387,-4.512 6.932,-4.455 9.38,-8.51 6.28,-10.402 -1.167,-0.71 -3.338,-0.825 -5.473,-0.287 l -1.364,0.343 -0.832,2.96 c -0.457,1.628 -1.563,4.965 -2.457,7.416 -1.09,2.987 -1.626,4.952 -1.626,5.958 0,1.695 -0.421,2.2 -1.027,1.231 -0.55,-0.88 -0.83,-0.82 -0.952,0.203 -0.13,1.097 -0.546,1.204 -1.523,0.393 z"
         id="path35" />
    </g>
    <g
       id="path18"
       style="fill:url(#linearGradient61);stroke:#ffffff;stroke-width:4.00002;stroke-linecap:round;stroke-linejoin:round;stroke-dasharray:none;stroke-opacity:1;paint-order:markers stroke fill"
       transform="translate(0.53019237,-1.1531155)">
      <path
         style="baseline-shift:baseline;display:inline;overflow:visible;vector-effect:none;fill:#ffffff;stroke:none;enable-background:accumulate;stop-color:#000000;stop-opacity:1"
         d="m 59.542969,3.8007813 c -0.847585,0.052019 -1.522657,0.2772286 -2.673828,0.6191406 -2.338152,0.6940748 -3.430135,1.3913659 -5.625,3.7246094 a 2.00021,2.00021 0 0 0 -0.002,0 c -4.133607,4.3947117 -6.186156,9.4591737 -5.748046,14.7187497 0.347726,4.169599 1.391095,6.555126 3.923828,8.925781 0.620391,0.580027 1.246751,1.099692 1.816406,1.509766 0.284827,0.205037 0.550743,0.381435 0.837891,0.539063 0.22534,0.123698 0.568995,0.243244 1.068359,0.3125 -0.104285,-0.03262 -0.284134,-0.02847 -0.601563,-0.541016 0.25885,0.417959 0.431822,0.443736 0.621094,0.546875 0.131307,0.01673 0.08512,0.08008 0.273438,0.08008 -0.109746,0 -0.149522,-0.01176 -0.230469,-0.04297 0.0778,0.03969 0.203554,0.203794 0.263672,0.232422 0.211369,0.100657 0.361835,0.14438 0.505859,0.183594 0.288049,0.07843 0.543474,0.119794 0.828125,0.15625 0.569303,0.07291 1.22867,0.111328 1.9375,0.111328 1.130615,0 1.902423,0.03992 2.837891,-0.285156 0.922326,-0.320515 1.507905,-0.881066 2.193359,-1.507813 l -0.107422,-0.111328 v -0.002 c 0.04353,0.04531 0.08533,0.05609 0.126953,0.09961 0.0036,-0.0033 0.0081,-0.0045 0.01172,-0.0078 l -0.0098,0.0098 c 0.658315,0.688335 1.100166,1.192721 2.001953,1.585937 0.239932,0.104621 0.533412,0.246438 1.117187,0.208984 0.583775,-0.03745 1.536375,-0.622941 1.816406,-1.287109 0.280032,-0.664168 0.177062,-1.077611 0.115235,-1.371094 -0.06183,-0.293482 -0.145668,-0.504094 -0.238281,-0.710937 0.145833,0.325483 0.06093,0.17741 0.03516,0.0332 -0.02578,-0.144207 -0.05849,-0.371451 -0.08984,-0.640625 -0.06271,-0.538348 -0.120455,-1.248008 -0.154297,-1.951172 -0.09821,-2.043559 -0.0056,-2.867977 0.617188,-5.333984 0.501659,-1.986692 0.815509,-3.474089 0.935547,-4.621094 0.06002,-0.573502 0.108033,-1.02992 -0.0332,-1.679688 -0.07062,-0.324883 -0.178599,-0.760987 -0.65625,-1.234375 -0.476662,-0.472407 -1.415217,-0.703286 -1.988281,-0.58789 0.461586,-0.09288 0.426709,-0.01786 0.396485,-0.02539 -0.03082,-0.0077 -0.115674,-0.04202 -0.121094,-0.04492 a 2.00021,2.00021 0 0 0 -0.002,-0.002 c -0.41422,-0.221351 -1.049851,-0.490209 -1.826172,-0.392578 -0.776321,0.09763 -1.318209,0.510227 -1.666016,0.824219 a 2.00021,2.00021 0 0 0 -0.002,0.002 c 0.261091,-0.236347 -0.08976,0.04747 -0.451172,0.21875 -0.36141,0.171276 -0.83276,0.36552 -1.263672,0.513672 -2.69918,0.92912 -4.601918,2.087529 -5.724609,3.904297 -0.133382,0.215093 -0.290392,0.42086 -0.367188,0.507812 -0.0385,0.04359 -0.06366,0.05787 0.0059,0.002 0.06952,-0.05592 0.103799,-0.353515 1.085937,-0.353515 -1.363652,0 -2.294921,1.161973 -2.294922,2.324218 1e-6,0.401109 0.168338,0.940199 0.472657,1.306641 0.304319,0.366442 0.65831,0.54267 0.914062,0.630859 0.511505,0.176379 0.750811,0.123448 0.945313,0.105469 0.389004,-0.03596 0.594219,-0.109168 0.83789,-0.189453 0.486835,-0.160403 1.005749,-0.386549 1.582032,-0.677734 0.440483,-0.222405 0.805793,-0.300729 1.326171,-0.462891 -0.03612,0.819651 -0.08347,1.479125 -0.101562,2.505859 l -0.03125,1.779297 c -0.335251,0.109953 -1.264847,0.171794 -2.328125,-0.234375 -1.128364,-0.431031 -2.236904,-1.259633 -2.75,-2.021484 -1.751061,-2.598009 -1.274532,-5.946156 2.048828,-9.583984 0.677551,-0.741679 2.057118,-1.766714 3.392578,-2.503907 1.335461,-0.737193 2.835494,-1.138671 2.910156,-1.138671 0.309094,0 0.593062,0.0059 0.984375,-0.05274 0.391314,-0.05865 0.971874,-0.237454 1.429688,-0.640625 0.915628,-0.806341 0.914755,-1.526344 1.076172,-2.2011717 a 2.00021,2.00021 0 0 0 0,-0.00195 C 65.853375,9.1387668 66.04956,8.7441274 65.773437,7.8417969 65.635376,7.3906316 65.223556,6.8156662 64.734375,6.5390625 64.548243,6.4338156 64.440107,6.4690358 64.277344,6.4238281 c -0.01297,-0.013607 -0.05324,-0.054804 -0.07422,-0.083984 l -0.0039,-0.00586 C 63.527906,5.3075391 62.79523,4.7912541 61.792969,4.3164062 h -0.002 c -0.558418,-0.2653978 -1.401115,-0.5676007 -2.248,-0.5156249 z m 0.24414,3.9941406 c 0.08117,-0.00498 -0.153485,-0.075677 0.289063,0.1347656 a 2.00021,2.00021 0 0 0 0.002,0 c 0.168757,0.079922 0.870243,0.7410993 0.775391,0.5957031 a 2.00021,2.00021 0 0 0 0.0039,0.00586 c 0.04841,0.073616 0.117323,0.1168676 0.167969,0.1855469 -1.222491,0.2488271 -2.384048,0.7190084 -3.611329,1.3964845 -1.637289,0.903807 -3.24066,2.026273 -4.412109,3.308594 -1.742647,1.907543 -2.828111,4.036046 -3.435547,6.175781 0.42127,-2.981951 1.900414,-5.853579 4.589844,-8.71289 2.151135,-2.2867573 1.621714,-1.968935 3.851562,-2.6308601 1.124829,-0.334088 1.698132,-0.4540031 1.779297,-0.4589844 z m 4.015625,11.5820311 c -0.121797,0.776647 -0.28351,1.689284 -0.644531,3.132813 9.58e-4,-0.01139 0.0051,-0.125517 0.0059,-0.132813 0.02641,-0.243202 0.06729,-0.462816 0.04297,-0.873047 -0.02064,-0.348151 -0.256577,-0.998671 -0.716797,-1.49414 0.275457,-0.112636 0.570446,-0.213617 0.820313,-0.332032 0.176838,-0.08381 0.339122,-0.226099 0.492187,-0.300781 z m 2.257813,0.02148 c 0.0061,-0.0012 0.0056,0.0013 0.01172,0 l -0.0039,0.002 c -0.002,4.12e-4 -0.0058,-0.0024 -0.0078,-0.002 z"
         id="path36" />
      <path
         style="baseline-shift:baseline;display:inline;overflow:visible;vector-effect:none;fill:url(#k);stroke:none;enable-background:accumulate;stop-color:#000000;stop-opacity:1"
         d="m 54.24,32.556 c -0.109,-0.176 -0.472,-0.32 -0.807,-0.32 -0.335,0 -1.527,-0.858 -2.649,-1.907 -2.344,-2.194 -2.963,-3.626 -3.297,-7.631 -0.388,-4.658 1.366,-9.094 5.213,-13.184 2.173,-2.31 2.455,-2.499 4.739,-3.177 2.276,-0.676 2.495,-0.69 3.496,-0.214 0.587,0.278 1.304,0.867 1.593,1.31 0.29,0.441 0.742,0.803 1.005,0.803 0.36,0 0.427,0.218 0.269,0.88 -0.31,1.296 -0.382,1.36 -1.545,1.36 -1.816,0 -5.929,2.27 -7.778,4.294 -3.72,4.072 -4.559,8.597 -2.231,12.051 1.646,2.444 5.626,3.964 7.74,2.957 l 0.972,-0.464 0.056,-3.1 c 0.03,-1.703 0.103,-3.528 0.16,-4.053 0.101,-0.93 0.073,-0.952 -1.166,-0.85 -0.698,0.059 -2.102,0.526 -3.12,1.04 -1.017,0.514 -1.85,0.788 -1.85,0.61 0,-0.179 0.132,-0.325 0.294,-0.325 0.162,0 0.6,-0.497 0.976,-1.104 0.812,-1.314 2.165,-2.201 4.675,-3.065 1.018,-0.35 2.1,-0.863 2.406,-1.14 0.432,-0.39 0.701,-0.424 1.21,-0.152 0.359,0.192 0.839,0.312 1.066,0.265 0.587,-0.12 0.387,1.791 -0.594,5.676 -0.643,2.546 -0.781,3.756 -0.677,5.92 0.072,1.496 0.244,2.972 0.382,3.28 0.437,0.976 -0.375,0.622 -1.674,-0.73 l -1.24,-1.29 -1.412,1.29 c -1.375,1.256 -1.472,1.29 -3.713,1.29 -1.266,0 -2.39,-0.144 -2.499,-0.32 z"
         id="path37" />
    </g>
    <g
       id="path19"
       style="fill:url(#linearGradient62);stroke:#ffffff;stroke-width:4.00002;stroke-linecap:round;stroke-linejoin:round;stroke-dasharray:none;stroke-opacity:1;paint-order:markers stroke fill"
       transform="translate(0.53019237,-1.1531155)">
      <path
         style="baseline-shift:baseline;display:inline;overflow:visible;vector-effect:none;fill:#ffffff;stroke:none;enable-background:accumulate;stop-color:#000000;stop-opacity:1"
         d="m 44.595703,3.1210938 c -1.01278,-0.046995 -1.732209,0.181622 -2.587891,0.4472656 -0.57356,0.1780601 -1.102953,0.500236 -1.642578,0.796875 -0.657136,-0.2049997 -1.380979,-0.1918356 -2.011718,0.2539062 a 2.00021,2.00021 0 0 0 -0.002,0.00195 C 37.873393,4.9604595 37.837377,5.0958294 37.69136,5.2832 37.545343,5.4705706 37.405815,5.6705197 37.255813,5.892575 36.955811,6.3366856 36.622665,6.8663256 36.294876,7.4179656 35.967087,7.9696057 35.647113,8.5383234 35.37886,9.048825 c -0.268252,0.5105017 -0.468747,0.8695853 -0.640625,1.429688 0.08605,-0.280492 -0.116619,0.236738 -0.376953,0.679687 -0.260333,0.442949 -0.607685,0.988645 -0.953125,1.486328 -0.865768,1.24759 -2.164939,3.470286 -3.078125,5.228516 -0.634231,1.221193 -1.058699,1.937826 -1.320312,2.28125 -0.261614,0.343424 -0.267254,0.332881 -0.556641,0.476562 -0.401861,0.19922 -0.753283,0.396719 -1.09375,0.654297 -0.340467,0.257579 -0.727342,0.540989 -1.007813,1.265625 -0.28047,0.724637 0.03784,1.990714 0.564454,2.490235 0.0083,0.0079 0.01324,0.004 0.02148,0.01172 -0.161591,0.335614 -0.293886,0.620482 -0.507813,1.042969 -0.719424,1.420808 -1.690768,3.240356 -2.652343,4.947266 -0.773466,1.372956 -1.431428,2.789105 -1.91211,4.078125 -0.480681,1.28902 -0.828094,2.343289 -0.810547,3.544922 0.0037,0.274025 -0.09217,0.693175 0.488282,1.40625 0.290586,0.356979 0.862152,0.690795 1.365234,0.75 0.503082,0.0592 0.861419,-0.0615 1.097656,-0.164063 0.944951,-0.410271 0.944454,-0.683584 1.222657,-1.017578 0.0016,-0.0019 0.0023,-0.004 0.0039,-0.0059 0.02305,-0.0054 0.07471,0.01558 0.0957,0.0098 0.670789,-0.185763 0.796865,-0.400782 0.957031,-0.550781 0.09752,-0.09133 0.106585,-0.19711 0.1875,-0.285156 a 2.00021,2.00021 0 0 0 2.207031,-1.007813 l 0.5,-0.958984 a 2.00021,2.00021 0 0 0 0.002,-0.002 c 0.209349,-0.401659 0.777229,-1.358258 1.134765,-1.896485 0.415368,-0.624064 0.717284,-1.303381 1.166016,-2.294922 0.448731,-0.99154 0.953169,-2.181545 1.417969,-3.357421 0.438189,-1.109047 0.899966,-2.180664 1.273437,-2.982422 0.186735,-0.400879 0.352616,-0.736234 0.470703,-0.955078 0.009,-0.01671 0.01704,-0.02259 0.02734,-0.03906 0.147563,-0.07916 0.350323,-0.181401 0.607422,-0.298828 0.557323,-0.254551 1.299288,-0.558012 2.039062,-0.824219 0.500223,-0.180004 0.917708,-0.349057 1.365235,-0.523437 0.03716,0.508513 0.06144,0.532702 0.09766,1.302734 0.164285,3.492665 0.305524,5.642617 0.558594,7.023438 0.06327,0.345205 0.128256,0.641561 0.261718,0.990234 0.133463,0.348673 0.219047,0.966028 1.304688,1.400391 0.106702,0.04269 0.219458,-0.03319 0.337891,-0.01172 l 0.335937,0.9375 a 2.00021,2.00021 0 0 0 3.833984,-0.244141 l 0.04297,-0.195312 c 0.286257,-0.06367 0.608189,0.03842 0.791016,-0.09961 0.952412,-0.719021 0.799833,-1.11999 0.875,-1.439453 0.07517,-0.319462 0.112247,-0.615119 0.146484,-0.96875 0.136914,-1.414158 0.171456,-3.750671 0.171875,-7.566406 v -0.002 c 8.41e-4,-4.575281 0.159322,-10.397143 0.332031,-12.683594 v -0.002 c 0.147545,-1.947921 0.22651,-3.0803331 0.197266,-3.9804688 -0.02926,-0.9005764 -0.372809,-1.9455034 -0.871094,-2.4960938 0.06811,0.075292 0.02148,-0.4884268 0.02148,0.2773437 0,-0.50726 -0.113737,-0.9028303 -0.294922,-1.2851562 C 46.645315,4.2433672 46.422447,3.8480473 45.830078,3.4804688 45.220137,3.1018849 44.87978,3.1343066 44.595703,3.1210938 Z m -3.675781,1.6386718 c 0.08888,0.030772 0.18033,0.00283 0.257812,0.046875 0.33948,0.1929611 0.502514,0.4236951 0.576172,0.5429688 C 41.577708,5.0643355 41.215061,4.9504901 40.919922,4.7597656 Z M 43.394531,7.34375 c 0.145756,0.2925395 0.370173,0.5371664 0.609375,0.8027344 -0.01382,0.010081 -0.03616,-0.039849 -0.03125,0.1113281 0.01634,0.5030236 -0.04158,1.6244558 -0.1875,3.5507815 -0.196033,2.593933 -0.342942,8.322634 -0.34375,12.986328 -2.95e-4,2.806432 -0.05772,4.045621 -0.113281,5.324219 -0.03464,-0.02115 -0.02971,-0.03746 -0.06836,-0.05859 -0.01825,-0.01 -0.05849,0.0037 -0.07813,-0.0059 -0.132477,-1.09509 -0.274568,-2.4739 -0.40625,-5.273437 -0.09151,-1.945563 -0.125926,-2.982245 -0.330079,-3.910156 -0.05104,-0.231978 -0.108233,-0.467907 -0.261718,-0.777344 -0.110057,-0.221882 -0.438857,-0.5027 -0.757813,-0.761719 a 2.00021,2.00021 0 0 0 0.894531,-1.560547 l -0.01367,-2.93164 a 2.00021,2.00021 0 0 0 0,-0.002 l -0.01367,-2.931641 a 2.00021,2.00021 0 0 0 -3.144532,-1.402344 c 0.18561,-0.338502 0.372106,-0.681155 0.585938,-1.0410154 0.216935,-0.3650831 0.416696,-0.6714511 0.611328,-0.9726562 0.109273,-7.02e-5 0.231853,0.073836 0.328125,0.058594 0.864426,-0.136859 1.174227,-0.4879697 1.492188,-0.7617187 -0.244812,0.2107711 0.430925,-0.2132811 1.027343,-0.3984375 0.09861,-0.030613 0.09731,-0.020011 0.201172,-0.044922 z M 33.353516,20.607422 c 0.04104,0.241593 0.18274,0.47693 0.333984,0.742187 -0.02056,0.0093 -0.04999,0.01806 -0.07031,0.02734 -0.340838,0.155675 -0.645405,0.304669 -0.919921,0.455078 -0.03516,0.01926 -0.07821,0.06083 -0.111329,0.07813 0.240775,-0.364975 0.507805,-0.827338 0.767579,-1.302734 z m -5.273438,5.039062 c 0.06571,0.01836 0.150676,0.09455 0.214844,0.111328 -0.04924,-0.01287 -0.0765,-0.01201 -0.207031,-0.105468 -0.0013,-9.55e-4 -0.0064,-0.0049 -0.0078,-0.0059 z M 22.378906,37 c -0.0038,0.05525 -0.05859,0.105795 -0.05859,0.160156 0,-0.240013 0.0048,-0.08314 0.01758,-0.144531 0.03678,-0.02118 -0.03704,0.02168 0.04102,-0.01563 z"
         id="path38" />
      <path
         style="baseline-shift:baseline;display:inline;overflow:visible;vector-effect:none;fill:url(#l);stroke:none;enable-background:accumulate;stop-color:#000000;stop-opacity:1"
         d="M 44.5026,5.1192 C 43.6578,5.08 41.491,5.73 40.861,6.2724 c -0.42,0.3616 -0.6424,0.3968 -0.8084,0.128 -0.126,-0.204 -0.3708,-0.2704 -0.544,-0.148 -0.4452,0.316 -2.584,3.9152 -2.8592,4.812 -0.1264,0.412 -0.846,1.636 -1.5984,2.72 -0.7528,1.0848 -2.0784,3.3392 -2.9468,5.0112 -1.2988,2.5008 -1.7896,3.144 -2.762,3.6268 -1.3152,0.652 -1.5072,1.148 -0.542,1.4004 0.352,0.092 0.6408,0.2988 0.6408,0.4588 0,0.3912 -1.9656,4.2728 -3.9204,7.7428 -1.444,2.5632 -2.484,5.352 -2.4656,6.612 0.0048,0.336 0.1952,0.2532 0.636,-0.276 0.346,-0.4156 0.6296,-0.9556 0.6296,-1.2 0,-0.2444 0.1588,-0.4444 0.354,-0.4444 0.1948,0 0.2716,0.216 0.17,0.48 -0.4044,1.0544 0.3144,0.3812 0.8628,-0.808 0.6828,-1.4816 1.1676,-1.642 1.1856,-0.392 l 0.0136,0.88 0.5008,-0.96 c 0.2752,-0.528 0.8348,-1.464 1.244,-2.08 0.41,-0.616 1.4852,-2.992 2.3896,-5.28 0.904,-2.288 1.886,-4.396 2.182,-4.6844 0.296,-0.2888 1.834,-0.9912 3.418,-1.5612 1.584,-0.57 3.0576,-1.1784 3.2756,-1.3516 0.568,-0.4516 0.68,0.0564 0.8616,3.9172 0.3264,6.9392 0.6504,8.7064 1.3048,7.12 0.1764,-0.428 0.3664,-0.1816 0.8048,1.04 l 0.574,1.6 0.2304,-1.0464 c 0.2676,-1.2128 0.7084,-1.6132 0.9844,-0.894 0.5872,1.5296 0.764,-0.296 0.7648,-7.9 8e-4,-4.62 0.1532,-10.396 0.3376,-12.836 C 46.0726,8.0836 46.0518,7.4544 45.6174,6.9744 45.3442,6.6724 45.1206,6.1936 45.1206,5.9096 45.1206,5.6256 44.965,5.2976 44.775,5.18 44.717,5.144 44.623,5.1248 44.5026,5.1192 Z m -4.2088,6.7968 0.0136,2.932 0.0132,2.9328 -2.268,1.308 c -2.088,1.204 -2.8524,1.5184 -2.8524,1.1748 0,-0.5308 3.2232,-6.232 4.0556,-7.1736 z"
         id="path39" />
    </g>
    <path
       style="baseline-shift:baseline;display:inline;overflow:visible;vector-effect:none;fill:#ffffff;stroke:none;stroke-width:4.00002;stroke-linecap:round;stroke-linejoin:round;stroke-dasharray:none;stroke-opacity:1;paint-order:markers stroke fill;enable-background:accumulate;stop-color:#000000"
       d="M 76.536051,0.5968845 C 75.269546,0.5198686 74.163742,1.1096687 73.315348,1.9582126 72.409349,2.8638409 71.788539,4.004628 71.051676,5.4054782 70.314814,6.8063285 69.619969,8.3381149 69.190348,9.6671975 a 2.00021,2.00021 0 0 0 0,0.002 C 68.913036,10.527375 68.3719,11.865887 68.17277,12.259041 a 2.00021,2.00021 0 0 0 0,0.002 c -0.938825,1.856337 -2.726932,6.719324 -3.304687,8.861328 h 0.002 c -0.352665,1.306715 -0.411451,2.971116 -0.40625,4.6875 0.0054,1.77746 6.66e-4,3.048527 0.71875,4.341796 0.359042,0.646635 0.962717,1.208647 1.583984,1.529297 0.621267,0.32065 1.225313,0.458015 1.84375,0.5625 0.672832,0.113785 1.448743,0.171903 2.220703,-0.02344 0.771961,-0.195341 1.380274,-0.537957 2.146485,-0.988282 0.546711,-0.320957 1.080429,-0.685178 1.552734,-1.046875 0.01971,-0.0151 0.03339,-0.03406 0.05273,-0.04883 0.04509,0.364245 0.05771,0.702915 0.232422,1.16211 0.475827,1.252312 1.497784,1.949917 2.646485,2.21289 -0.259522,0.497473 -0.509082,1.061311 -0.728516,1.394532 -0.376594,0.571928 -0.702382,1.041168 -0.878906,1.800781 -0.176524,0.759613 0.03461,1.64253 0.261718,2.140625 0.192667,0.422978 0.35853,1.109421 1.4375,1.572266 0.539486,0.231422 1.152571,0.20366 1.525391,0.109375 0.372821,-0.09429 0.593514,-0.215584 0.792969,-0.322266 a 2.00021,2.00021 0 0 0 0.002,0 c 0.337867,-0.180809 0.60795,-0.402249 0.871094,-0.666016 0.465798,-0.08411 0.871145,-0.299611 1.222656,-0.625 -0.109782,0.01868 -0.214829,0.02953 -0.53125,-0.02344 0.400723,0.06626 0.511445,-0.08744 0.761719,-0.154297 0.06335,-0.06815 0.149922,-0.08673 0.210937,-0.160156 -0.0611,0.0741 -0.08471,0.091 -0.121094,0.142578 0.237527,-0.07576 0.614565,-0.06694 0.765625,-0.154297 0.319087,-0.184532 0.543067,-0.373981 0.761719,-0.580078 0.437306,-0.412195 0.83103,-0.897946 1.228516,-1.470703 0.58751,-0.846484 1.702754,-2.36686 2.40625,-3.279297 0.966993,-1.254719 2.377872,-3.672713 3.519531,-5.871094 1.047927,-2.018099 1.784428,-3.299432 2.236328,-3.927734 0.223769,-0.311118 0.375506,-0.444131 0.361328,-0.433594 0.338282,-0.08682 0.738731,-0.150618 1.003907,-0.277344 0.416952,-0.199258 0.84412,-0.446045 1.265625,-0.732422 0.401806,-0.272927 0.980393,-0.566079 1.523437,-0.851562 0.0034,1.084175 -0.01644,2.1414 0.111328,3.365234 0.09447,0.90491 0.206748,1.75367 0.335938,2.44336 0.06459,0.344844 0.126234,0.63823 0.230468,0.960937 0.05212,0.161354 0.100374,0.322823 0.257813,0.591797 0.03337,0.057 0.129087,0.151811 0.179687,0.222656 0.02543,0.09119 0.05464,0.186213 0.08008,0.347656 0.133893,0.849706 0.423435,2.043474 0.705078,2.988282 0.167474,0.561814 0.154522,1.844577 0.232422,1.455078 -0.190589,0.952942 0.07834,2.260855 0.910156,3.074219 0.11594,0.797116 0.42518,1.34294 1.21093,1.828125 0.17131,0.106043 0.35427,0.244417 0.8379,0.333984 0.24249,0.04491 0.59498,0.0758 1.03515,-0.06836 0.44018,-0.144161 0.90442,-0.525955 1.13086,-0.910157 0.45288,-0.768403 0.30189,-1.206724 0.25586,-1.474609 -0.046,-0.267885 -0.10609,-0.432532 -0.16797,-0.59375 0.19183,0.500422 0.0842,0.351397 0.0801,0.234375 -0.004,-0.117022 -0.005,-0.328089 0.006,-0.580078 0.0213,-0.503453 0.0788,-1.183451 0.16406,-1.857422 v -0.002 c 0.20265,-1.597235 0.46426,-4.90694 0.60938,-7.589844 0.2779,-5.142356 0.61335,-9.606355 0.95312,-12.90039 0.16988,-1.647018 0.34173,-3.005432 0.50195,-3.9824225 0.16023,-0.9769908 0.46609,-1.7577279 0.28516,-1.4179691 0.49325,-0.9263514 0.59398,-2.2415123 0.004,-3.2382813 -0.59007,-0.9967689 -1.59899,-1.4935327 -2.58985,-1.6796875 a 2.00021,2.00021 0 0 0 -0.002,0 c -0.16506,-0.030948 -1.03555,-0.4415782 -1.02539,-0.4335937 -0.92853,-0.7303406 -2.31337,-1.1295672 -3.53906,-0.5410156 -1.180058,0.5666395 -1.709959,1.833208 -1.75,2.9824218 -0.02694,0.038728 -0.218232,0.2664115 -0.660156,0.6289063 -0.950103,0.7793892 -1.971766,1.8494368 -2.675782,2.828125 -0.42706,0.5936787 -1.717678,2.1921186 -2.699218,3.3203126 -1.136854,1.306714 -2.453176,3.113688 -3.197266,4.441407 -0.627286,1.119036 -1.274874,1.796348 -2.347656,2.632812 0.334085,-0.750606 0.365447,-0.853075 0.8125,-1.851562 0.556445,-1.243274 1.087172,-2.46295 1.5,-3.435547 0.412828,-0.972597 0.647524,-1.464613 0.833984,-2.097656 0.01276,-0.04332 0.377248,-0.67899 0.314453,-0.607422 0.311335,-0.35431 0.724791,-0.9287105 0.806641,-1.7050785 0.08176,-0.7755597 -0.176491,-1.3693279 -0.386719,-1.789063 v -0.00195 C 90.672698,6.9998825 90.458394,6.283278 90.450114,6.2121189 a 2.00021,2.00021 0 0 0 0,-0.00195 C 90.388318,5.6798123 90.196318,4.9583228 89.625895,4.3879001 89.055472,3.8174775 88.333983,3.6254772 87.803629,3.5636814 87.7419,3.5564422 87.008979,3.3373757 86.926676,3.2961032 v 0.00195 C 86.515967,3.0918516 85.974991,2.8623951 85.254801,2.885947 c -0.720189,0.023552 -1.448083,0.3910148 -1.90039,0.7988281 -0.904614,0.8156266 -1.310815,1.7102106 -2.033203,3.1308594 -2.08895,4.1082405 -2.752502,5.6893575 -3.216797,7.7539065 -0.754943,3.357608 -1.911109,5.530605 -3.935547,7.554687 -0.660289,0.6605 -1.131516,1.019954 -1.691406,1.513672 0.269541,-0.679469 0.514938,-1.333428 0.699218,-1.861329 0.09328,-0.267227 0.171577,-0.499585 0.234375,-0.708984 0.0314,-0.104699 0.05891,-0.200877 0.08594,-0.314453 0.0029,-0.01223 0.0045,-0.05121 0.0078,-0.0625 0.01221,-0.02341 0.0103,-0.02243 0.03125,-0.05859 0.09208,-0.158915 0.25593,-0.404138 0.425782,-0.626953 0.319138,-0.418361 0.574657,-0.849774 0.783203,-1.292969 0.168815,-0.358762 0.283496,-0.767309 0.34375,-1.3125 0.404496,-0.373575 0.619232,-0.678143 0.841797,-1.037109 0.253821,-0.409378 0.492514,-0.858577 0.695312,-1.332031 0.12221,-0.284949 0.275078,-0.581434 0.386719,-0.769531 0.05582,-0.09405 0.10335,-0.162583 0.107422,-0.167969 0.0039,-0.0051 0.01252,0.06218 -0.34961,0.292969 0.826937,-0.519898 0.923418,-0.997061 1.066407,-1.40625 0.144254,-0.412811 0.214843,-0.815851 0.214843,-1.273438 0,0.397675 -0.03858,0.288612 0.002,0.171875 0.04054,-0.116737 0.12248,-0.320497 0.232422,-0.556641 0.219885,-0.472287 0.549866,-1.083933 0.902344,-1.6503895 0.78916,-1.2682783 1.300732,-2.081992 1.574219,-3.1113284 0.136743,-0.5146682 0.19446,-1.166806 -0.0098,-1.8066406 C 80.548623,4.1132999 80.120877,3.6306989 79.762614,3.3332126 a 2.00021,2.00021 0 0 0 -0.002,-0.00195 c 0.225256,0.1866722 0.0708,0.067697 -0.01953,-0.074219 C 79.651044,3.1155887 79.546439,2.916767 79.493038,2.7882937 v -0.00195 C 79.015048,1.6334061 77.814593,0.6862644 76.549678,0.60275 c -0.0044,-2.873e-4 -0.0074,-0.00559 -0.01172,-0.00586 z m -0.447265,4.2773437 c 0.09339,0.1763488 0.174648,0.3668461 0.279297,0.53125 0.09203,0.1445783 0.260828,0.2965802 0.361328,0.4335938 -0.10248,0.237401 -0.311291,0.7123533 -0.9375,1.71875 -0.439522,0.7063429 -0.828744,1.4253065 -1.13086,2.0742185 -0.151057,0.324456 -0.281007,0.6291815 -0.386718,0.9335945 -0.08961,0.258058 -0.16142,0.538971 -0.189454,0.966797 -0.02828,0.04054 -0.126747,0.109408 -0.15625,0.148436 -0.136565,0.180664 -0.247292,0.353512 -0.357421,0.539064 -0.220259,0.371102 -0.429704,0.788123 -0.621094,1.234375 -0.110402,0.257744 -0.27529,0.570658 -0.417969,0.800781 -0.142679,0.230122 -0.378536,0.429259 -0.115234,0.210938 a 2.00021,2.00021 0 0 0 0,0.002 c -0.905637,0.752182 -1.246094,1.388485 -1.246094,2.623047 0,-0.491395 0.03653,-0.255137 -0.04492,-0.08203 -0.08145,0.173105 -0.224841,0.411874 -0.345703,0.570313 -0.270148,0.354385 -0.507157,0.707242 -0.705078,1.048828 -0.03776,0.06517 -0.06828,0.137577 -0.103516,0.203125 0.746975,-2.035124 1.515157,-4.258789 1.771485,-4.765625 h -0.002 c 0.424871,-0.838846 0.907572,-2.090147 1.25586,-3.167969 0.309579,-0.9577185 0.942312,-2.3904568 1.59375,-3.6289065 0.628407,-1.1946666 1.378179,-2.2514135 1.498047,-2.3945313 z m 25.994134,0.9101563 c 0.47663,0.266335 0.96254,0.5329312 1.50391,0.6640625 -0.20973,0.5971226 -0.38128,1.1263025 -0.51367,1.9335938 -0.18145,1.1064597 -0.36014,2.5200152 -0.53516,4.2167972 -0.33766,3.273595 -0.65723,7.672715 -0.93164,12.632812 -0.0535,-0.383689 -0.1097,-0.694763 -0.15625,-1.140625 -0.17326,-1.659582 -0.21232,-3.778058 -0.17969,-4.015625 0.089,-0.646391 0.17963,-1.06904 0.0684,-1.783204 -0.0556,-0.357081 -0.19581,-0.896252 -0.69336,-1.375 -0.49754,-0.478747 -1.212382,-0.633109 -1.621087,-0.626953 a 2.00021,2.00021 0 0 0 -0.002,0 c -0.266753,0.0043 -0.354133,0.08101 -0.529296,0.117188 0.01914,-0.0097 0.09877,-0.05995 0.105468,-0.0625 1.150732,-0.437178 2.037665,-1.752839 2.242185,-2.878906 0.093,-0.510417 0.28565,-1.344002 0.35547,-1.583985 0.12717,-0.436461 0.28006,-0.831513 0.10742,-1.603515 -0.0863,-0.3860015 -0.33605,-0.9293285 -0.83203,-1.3007815 -0.18756,-0.1404698 -0.36496,-0.09393 -0.566398,-0.162109 0.133328,-0.1259555 0.270998,-0.309215 0.374998,-0.3945312 0.58244,-0.4777513 1.06301,-0.9110467 1.46289,-1.5117188 0.21663,-0.3254066 0.23278,-0.7328217 0.33984,-1.125 z M 85.791911,7.0695408 c 0.283391,0.1094218 0.585827,0.2017581 0.882812,0.2675781 0.08048,0.3668542 0.175631,0.7402087 0.326172,1.09375 -0.357326,0.5026666 -0.682101,0.9724096 -0.869141,1.6074221 0.05686,-0.1930445 -0.278062,0.72246 -0.677734,1.664063 -0.399672,0.941603 -0.924349,2.142554 -1.470703,3.363281 -1.557016,3.477575 -2.376793,5.317686 -2.886719,6.58789 -0.509925,1.270204 -0.713461,2.039211 -0.921875,2.970703 -0.273312,1.222329 -0.434445,2.182678 -0.279297,3.220704 0.05983,0.400266 0.28394,0.835567 0.539063,1.257812 -0.547335,0.01944 -0.713709,0.103473 -0.962891,0.185547 -0.276924,0.09121 -0.561822,0.20385 -0.851562,0.335937 -0.20107,0.09165 -0.194382,-0.09 -0.06445,0.251954 a 2.00021,2.00021 0 0 0 -0.002,0 c 0.09222,0.242377 -0.05352,-0.259431 -0.109375,-0.751954 -0.05579,-0.491949 -0.09772,-1.108809 -0.109375,-1.671875 v -0.002 l -0.04687,-2.294922 a 2.00021,2.00021 0 0 0 -0.714843,-0.984375 c 2.14999,-2.397359 3.638723,-5.189425 4.433593,-8.724611 0.390105,-1.73465 0.819409,-2.762246 2.88086,-6.8164054 0.536434,-1.0549522 0.771639,-1.3589027 0.904297,-1.5605468 z m 7.646484,9.7285162 c 0.08729,0.182251 0.134386,0.360768 0.310547,0.546875 0.353182,0.373121 0.783707,0.516828 1.185547,0.583984 -0.456499,0.255441 -0.934076,0.477588 -1.34375,0.755859 a 2.00021,2.00021 0 0 0 -0.002,0 c -0.244823,0.166397 -0.535422,0.332829 -0.742188,0.431641 -0.206765,0.09881 -0.594969,0.04687 0.144531,0.04687 -0.618218,0 -1.20193,0.281176 -1.666015,0.59375 0.489181,-0.58688 0.949425,-1.1933 1.335937,-1.882812 0.134879,-0.240671 0.53048,-0.709308 0.777344,-1.076172 z m -23.710937,2.685546 c -0.06979,0.14474 -0.15625,0.21286 -0.15625,0.689454 0,-0.370115 0.03381,-0.342021 0.03516,-0.347657 0.0013,-0.0056 -0.01,0.03589 -0.02734,0.09375 -0.0347,0.115713 -0.09702,0.30784 -0.177734,0.539063 -0.161431,0.462444 -0.393971,1.085963 -0.648438,1.726562 -0.01765,0.0444 -0.01399,0.07128 -0.03125,0.115235 0.0016,-0.0093 0.0087,-0.132909 0.0098,-0.136719 0.124631,-0.462066 0.602287,-1.585826 0.996094,-2.679688 z m 20.216796,1.644532 c -0.566658,0.790928 -1.260068,2.082176 -2.023437,3.517578 0.08198,-0.262062 0.215318,-0.531525 0.01172,-1.13086 -0.07165,-0.210916 -0.26592,-0.355416 -0.417969,-0.529296 0.482941,-0.297862 1.00705,-0.646475 1.544922,-1.050782 0.335424,-0.252172 0.585338,-0.540998 0.884764,-0.80664 z m -4.226562,7.251953 c -0.528514,0.87196 -1.206213,2.116489 -1.435547,2.414062 -0.764504,0.991563 -1.867748,2.494738 -2.523437,3.439453 a 2.00021,2.00021 0 0 0 -0.002,0 c -0.192953,0.278036 -0.333879,0.424751 -0.478515,0.585938 0.186337,-0.382039 0.424026,-0.741628 0.582031,-1.105469 0.242311,-0.557974 0.439951,-1.056424 0.580078,-1.535156 0.07006,-0.239366 0.136791,-0.443945 0.158203,-0.847656 0.01002,-0.188899 0.0198,-0.46044 -0.148437,-0.910157 0.950355,0.08857 1.925326,-0.436439 2.447265,-0.960937 0.278523,-0.279888 0.558082,-0.726031 0.820313,-1.080078 z m 13.089844,0.683594 c 0.256834,0.216208 0.679313,0.5 1.291014,0.5 -0.659028,0 -1.068263,-0.299535 -1.267577,-0.47461 -0.01441,-0.01266 -0.01037,-0.01337 -0.02344,-0.02539 z m -16.71875,5.880859 0.0059,0.002 c -0.01568,-0.0026 -0.02161,0.0044 -0.03711,0.002 0.02015,0.0029 0.0103,-0.0074 0.03125,-0.0039 z m 21.962884,0.326172 c 0.16637,0.146276 0.23829,0.308017 0.23829,0.792969 0,-0.421653 -0.14275,-0.55898 -0.23829,-0.792969 z m -24.246087,0.320312 c 0.0077,-0.0028 0.02912,0.0084 0.03711,0.0059 -0.04129,0.03734 -0.08819,0.06509 -0.128906,0.105469 -0.01077,1.25e-4 -0.02039,-2.9e-4 -0.03125,0 0.04232,-0.03008 0.07241,-0.09276 0.123047,-0.111328 z M 100.413,36.610557 c 0.0412,0.03958 0.0437,0.105679 0.0879,0.142578 -0.0517,-0.04324 -0.0506,-0.04218 -0.0723,-0.07813 -0.002,-0.0041 -0.0113,-0.05992 -0.0156,-0.06445 z m -22.457027,0.09375 c -0.205285,0.339188 -0.384765,0.705826 -0.384765,1.052734 0,-0.925379 0.295529,-0.96355 0.351562,-1.023438 0.03033,-0.03242 0.02729,-0.02542 0.0332,-0.0293 z m 22.982417,0.248046 c 0.0228,0.07538 -0.009,0.06726 0.0274,0.164063 -7.8e-4,0.0018 -0.0103,-0.0056 -0.0332,-0.138672 -5.5e-4,-0.0032 0.007,-0.02199 0.006,-0.02539 z M 79.311442,39.45626 c 0.01092,0.0042 0.01648,-0.0021 0.02734,0.002 -0.005,-0.0019 -0.02054,0.0019 -0.02539,0 z"
       id="path40" />
    <g
       id="path21"
       style="fill:url(#linearGradient64);stroke:#ffffff;stroke-width:4.00002;stroke-linecap:round;stroke-linejoin:round;stroke-dasharray:none;stroke-opacity:1;paint-order:markers stroke fill"
       transform="translate(0.53019237,-1.1531155)">
      <path
         style="baseline-shift:baseline;display:inline;overflow:visible;vector-effect:none;fill:#ffffff;stroke:none;enable-background:accumulate;stop-color:#000000;stop-opacity:1"
         d="m 44.410156,-1.9980469 c -0.427037,0.010463 -0.914673,0.049256 -1.482422,0.1074219 -1.135497,0.1163312 -2.570444,0.3143109 -4.039062,0.5449219 -1.468618,0.2306109 -2.963493,0.49413194 -4.205078,0.74999998 -1.241586,0.25586803 -1.968548,0.32719535 -2.951172,0.8203125 a 2.00021,2.00021 0 0 0 -0.002,0.001953 C 32.113464,0.0337503 31.748252,0.21031178 31.40425,0.29101548 31.0603,0.37171939 30.572065,0.4727347 29.996094,0.58203125 28.844151,0.80062435 27.336251,1.0526591 25.78125,1.2792969 22.594941,1.743841 19.032681,2.3160006 17.613281,2.6054688 c -1.049145,0.2134695 -3.209132,0.4296875 -4.330078,0.4296875 -1.023333,-1e-7 -1.679542,-0.00101 -2.396484,0.1464843 -0.358471,0.073745 -0.771323,0.1959409 -1.1933596,0.4980469 -0.4220365,0.302106 -0.7618212,0.8007487 -0.9082031,1.1835937 -0.1145888,0.2993112 -0.063228,0.659589 -0.066406,1 A 2.00021,2.00021 0 0 0 8.328125,8.6210938 l 0.4277344,0.4550781 c -0.051853,0.11765 -0.1070526,0.1992172 -0.1484375,0.4355469 -0.032552,0.1858899 -0.071405,0.4389292 0.021484,0.8398442 0.09289,0.400914 0.4368927,0.997808 0.9628906,1.302734 a 2.00021,2.00021 0 0 0 0.00586,0.0039 c 0.8636925,0.496745 1.9636865,1.028673 3.3496095,1.033203 1.385922,0.0045 3.092094,-0.26308 6.638671,-0.757812 0.414954,-0.05763 0.70028,-0.08515 1.072266,-0.13086 -0.201239,1.022158 -0.461969,2.23045 -0.810547,3.626954 -0.801155,3.209656 -1.894148,6.94248 -2.634765,8.822265 -1.416317,3.594863 -3.220927,6.483487 -5.064453,8.396484 -1.843527,1.912998 -3.6544032,2.784526 -5.1230472,2.806641 C 6.1919745,35.46766 4.4444408,34.732543 3.40625,33.621094 2.7533616,32.922158 2.0489062,32.458589 1.1367187,32.242187 0.68062502,32.133987 0.11649876,32.037941 -0.63085937,32.375 -1.3782175,32.712059 -2,33.780834 -2,34.525391 c 0,0.812925 0.2861778,1.226537 0.5195313,1.580078 0.2333534,0.353541 0.48879494,0.640562 0.77343745,0.927734 0.56928502,0.574344 1.26450009,1.134817 2.04687495,1.695313 1.5647499,1.12099 3.4303964,2.206825 5.1816407,2.833984 3.6835016,1.318632 7.8082026,0.400612 11.2382816,-2.210938 2.596145,-1.976921 4.829923,-5.434943 6.939453,-9.873046 2.109302,-4.437625 3.999983,-9.857035 5.392578,-15.654297 v -0.002 c 0.279288,-1.162033 0.569727,-2.265166 0.802734,-3.078125 0.08491,-0.296259 0.148667,-0.495448 0.212891,-0.697266 0.02136,-0.006 0.04726,-0.01773 0.06445,-0.02148 a 2.00021,2.00021 0 0 0 0.0059,-0.002 C 31.699108,9.9076884 32.134457,9.7170395 32.546875,9.4628906 32.958627,9.2091526 33.366284,8.9593155 33.746094,8.25 33.41086,8.8754962 33.444953,8.6132957 33.597656,8.5253906 c 0.152302,-0.087674 0.414582,-0.2020896 0.628906,-0.265625 0.978325,-0.288728 2.009751,-0.712469 2.851563,-1.2246094 a 2.00021,2.00021 0 0 0 0.0039,-0.00391 c 0.17521,-0.1072323 0.406093,-0.2226843 0.566406,-0.2890625 0.160314,-0.066378 0.433896,-0.025391 -0.138671,-0.025391 0.711613,0 0.892485,-0.1716251 1.109375,-0.2773438 0.216889,-0.1057186 0.388582,-0.2118752 0.5625,-0.3261719 0.347835,-0.2285933 0.687294,-0.4895929 1.019531,-0.7675781 0.332237,-0.2779852 0.646748,-0.5638905 0.929687,-0.8652344 0.14147,-0.1506719 0.274857,-0.2987362 0.421875,-0.5097656 0.07447,-0.1069006 0.132188,-0.4880177 0.226563,-0.6777343 0.282265,-0.031103 0.546165,-0.1034281 0.796875,-0.1054688 a 2.00021,2.00021 0 0 0 0.002,0 c 1.013499,-0.00907 1.904571,-0.2278955 2.707031,-0.5898437 0.401231,-0.1809742 0.781111,-0.3481637 1.236328,-0.8613282 0.227609,-0.2565822 0.518371,-0.6528618 0.585938,-1.30078122 0.0675,-0.6472929 -0.265464,-1.41007909 -0.642578,-1.78710938 -0.456291,-0.4553362 -0.753866,-0.4925897 -0.953125,-0.546875 -0.200051,-0.054501 -0.331929,-0.070078 -0.453125,-0.082031 -0.242392,-0.023906 -0.434919,-0.02281 -0.648438,-0.017578 z M 35.625,3.2988281 c -0.2105,0.1045173 -0.420927,0.1937823 -0.630859,0.3222657 l 0.0039,-0.00391 C 34.741858,3.7730471 33.635379,4.2626031 33.095703,4.421875 a 2.00021,2.00021 0 0 0 -0.002,0.00195 C 32.550387,4.5843997 32.056859,4.7964988 31.601562,5.0585937 31.155655,5.3152838 30.736031,5.4447796 30.25,6.3242187 c 0.152047,-0.2527261 0.229579,-0.2855374 0.197266,-0.265625 -0.03708,0.022851 -0.140093,0.061296 -0.136719,0.060547 -0.425636,0.093533 -0.805942,0.2266853 -1.171875,0.3984375 -0.366405,0.1719735 -0.688949,0.2576165 -1.191406,0.8730469 -0.0013,0.00153 -7.09e-4,4.271e-4 -0.002,0.00195 -0.358508,0.4395071 -0.322368,0.5193716 -0.382812,0.6660157 -0.06065,0.1471532 -0.110711,0.2877975 -0.164063,0.4453125 -0.106702,0.3150299 -0.222057,0.693643 -0.349609,1.1386718 -0.255104,0.8900579 -0.554146,2.0328889 -0.845703,3.2460939 -1.332363,5.547029 -3.151014,10.738697 -5.115234,14.871094 -1.964221,4.132396 -4.168099,7.204077 -5.751953,8.410156 -1.134792,0.863993 -2.262094,1.31963 -3.371094,1.625 1.064834,-0.658416 2.115502,-1.386383 3.064453,-2.371094 2.322723,-2.410252 4.334613,-5.720941 5.904297,-9.705078 0.898382,-2.280215 1.965826,-5.998719 2.794922,-9.320313 0.414547,-1.660796 0.762158,-3.204909 0.984375,-4.414062 0.111108,-0.604576 0.191866,-1.116643 0.232421,-1.578125 0.02028,-0.230741 0.03395,-0.4423612 0.01758,-0.7167969 -0.01637,-0.2744357 0.216924,-0.646536 -0.634766,-1.5 a 2.00021,2.00021 0 0 0 0,-0.00195 C 23.605151,7.4645263 23.377699,7.6465689 23.216797,7.6191406 c -0.160902,-0.027428 -0.245768,-0.030142 -0.324219,-0.033203 -0.156901,-0.00612 -0.267277,-0.00185 -0.394531,0.00391 -0.254508,0.011507 -0.545938,0.036611 -0.892578,0.070312 -0.69328,0.067404 -1.59347,0.1748743 -2.570313,0.3105469 a 2.00021,2.00021 0 0 0 -0.002,0 C 15.49994,8.4635777 13.751661,8.6877488 12.990234,8.6875 c -0.01015,-0.1364571 0.05344,-0.2729276 0.02149,-0.3945312 -0.07205,-0.2742134 -0.206558,-0.2996616 -0.302735,-0.4824219 0.102398,-0.158826 0.229567,-0.1889743 0.31836,-0.4101563 0.04074,-0.1014851 0.0067,-0.2398465 0.02734,-0.3554687 0.121175,-0.00185 0.09117,-0.00977 0.228515,-0.00977 1.545054,0 3.642051,-0.2072352 5.128906,-0.5097656 1.120601,-0.2285319 4.809575,-0.8316066 7.947266,-1.2890625 1.607999,-0.2343622 3.156756,-0.4919524 4.382812,-0.7246094 0.613029,-0.1163284 1.142669,-0.2264225 1.576172,-0.328125 0.433504,-0.1017024 0.605396,-0.079954 1.210938,-0.3847656 l -0.002,0.00195 c -0.302125,0.1516171 0.81296,-0.2411337 1.964843,-0.4785157 0.03807,-0.00784 0.09411,-0.015552 0.132813,-0.023437 z M 9.8378906,5.1289062 c 0.1275123,-0.070118 0.1937294,-0.00936 0.1503907,0.00195 l -0.1835938,0.048828 c 0.00874,-0.00567 0.024967,-0.046252 0.033203,-0.050781 z m 0.3125004,2.9824219 c 0.01733,0.00627 0.02537,0.023457 0.04297,0.029297 l -0.0059,-0.00195 c -0.0044,-0.00148 -0.03157,-0.025615 -0.03711,-0.027344 z m 10.820312,1.8164063 c -0.0037,-0.062207 5.29e-4,0.00981 -0.0098,0.1269536 -0.0025,0.02805 -0.01782,0.110849 -0.02148,0.144531 -0.0329,-0.16584 0.03311,-0.2402961 0.03125,-0.2714846 z"
         id="path42" />
      <path
         style="baseline-shift:baseline;display:inline;overflow:visible;vector-effect:none;fill:url(#n);stroke:none;enable-background:accumulate;stop-color:#000000;stop-opacity:1"
         d="M 7.196,39.68 C 4.278,38.635 0,35.57 0,34.525 c 0,-0.662 1.15,-0.389 1.944,0.461 1.403,1.502 3.456,2.493 5.112,2.468 4.383,-0.066 9.031,-4.89 12.017,-12.469 1.639,-4.16 4.32,-14.902 3.84,-15.383 -0.073,-0.073 -1.695,0.085 -3.603,0.35 -7.097,0.99 -6.946,0.99 -8.716,-0.028 -0.069,-0.04 0.06,-0.296 0.287,-0.57 0.346,-0.416 0.29,-0.627 -0.341,-1.3 L 9.785,7.251 10.493,7.066 c 0.766,-0.2 0.935,-0.62 0.33,-0.823 -0.211,-0.07 -0.286,-0.364 -0.17,-0.666 0.169,-0.442 0.65,-0.541 2.63,-0.541 1.333,0 3.462,-0.212 4.73,-0.47 1.27,-0.259 4.895,-0.847 8.057,-1.308 3.163,-0.461 6.115,-1.021 6.56,-1.245 1.361,-0.683 12.017,-2.357 12.423,-1.95 0.41,0.409 -1.152,1.113 -2.493,1.125 -1.72,0.014 -3.84,0.557 -3.84,0.983 0,0.168 0.288,0.305 0.64,0.305 0.352,0 0.64,0.07 0.64,0.157 0,0.364 -2.054,2.083 -2.49,2.083 -0.26,0 -0.923,0.274 -1.472,0.61 C 35.489,5.66 34.42,6.117 33.661,6.341 32.903,6.565 32.148,7 31.984,7.306 c -0.164,0.307 -0.722,0.65 -1.24,0.765 -0.517,0.113 -1.079,0.377 -1.249,0.586 -0.17,0.208 -0.776,2.323 -1.347,4.699 -2.725,11.345 -7.42,21.222 -11.6,24.405 -3.013,2.294 -6.377,2.984 -9.352,1.919 z"
         id="path43" />
    </g>
    <g
       id="path22"
       style="fill:url(#linearGradient65);stroke:#ffffff;stroke-width:4.00002;stroke-linecap:round;stroke-linejoin:round;stroke-dasharray:none;stroke-opacity:1;paint-order:markers stroke fill"
       transform="translate(0.53019237,-1.2371155)">
      <path
         style="baseline-shift:baseline;display:inline;overflow:visible;vector-effect:none;fill:#ffffff;stroke:none;enable-background:accumulate;stop-color:#000000;stop-opacity:1"
         d="m 110.10156,31.800781 c -0.78092,0.291974 -0.88372,0.622621 -1.00195,0.792969 -0.11823,0.170348 -0.17049,0.27888 -0.22266,0.382812 -0.10432,0.207865 -0.18268,0.39242 -0.28515,0.628907 a 2.00021,2.00021 0 0 0 -0.002,0.002 c -0.2107,0.487943 -0.54055,1.197637 -0.64257,1.396484 l 0.002,-0.0078 c -0.11099,0.21426 -0.20383,0.417756 -0.28516,0.623047 -0.0407,0.102645 -0.0769,0.203178 -0.11523,0.330078 -0.0383,0.1269 -0.10938,0.190923 -0.10938,0.6875 0,0.822504 0.48501,1.379819 0.78516,1.621093 0.30015,0.241275 0.5192,0.321822 0.70898,0.386719 0.37957,0.129796 0.66746,0.15625 0.98633,0.15625 1.53429,0 2.40674,-1.291102 2.44922,-2.492187 0.25383,-0.3834 0.4828,-0.763383 0.54688,-1.083985 0.0879,-0.439616 0.10592,-0.869165 0.0234,-1.359375 -0.0314,-0.189258 -0.0446,-0.335604 -0.12695,-0.625 -0.0415,-0.145655 -0.055,-0.327042 -0.35156,-0.730468 -0.14831,-0.201714 -0.40747,-0.493553 -0.875,-0.685547 -0.46753,-0.191994 -1.09392,-0.169424 -1.48438,-0.02344 z m -0.75976,2.078125 c -0.0186,0.01835 -0.0173,0.03076 -0.0352,0.04883 0.0227,-0.02436 -0.003,-0.01024 0.0234,-0.03711 z m 0.57812,0.921875 c 0.0549,0 0.10303,-0.0117 0.3086,0.05859 0.10278,0.03515 0.25055,0.07916 0.50195,0.28125 0.067,0.05385 0.10572,0.301031 0.18945,0.398437 -0.29756,0.0177 -0.58477,0.09669 -0.85351,-0.01367 -0.35621,-0.146277 -0.50661,-0.340642 -0.65235,-0.509766 0.17537,-0.06883 0.27675,-0.214844 0.50586,-0.214844 z"
         id="path44" />
      <path
         style="baseline-shift:baseline;display:inline;overflow:visible;vector-effect:none;fill:url(#p);stroke:none;enable-background:accumulate;stop-color:#000000;stop-opacity:1"
         d="m 109.44,36.636 c 0,-0.09 0.128,-0.415 0.286,-0.72 0.157,-0.306 0.472,-0.988 0.7,-1.516 0.403,-0.93 0.42,-0.936 0.542,-0.203 0.07,0.416 -0.03,0.913 -0.22,1.104 -0.192,0.19 -0.348,0.606 -0.348,0.923 0,0.317 -0.216,0.576 -0.48,0.576 -0.264,0 -0.48,-0.074 -0.48,-0.164 z"
         id="path45" />
    </g>
    <g
       id="path23"
       style="fill:url(#linearGradient66);stroke:#ffffff;stroke-width:4.00002;stroke-linecap:round;stroke-linejoin:round;stroke-dasharray:none;stroke-opacity:1;paint-order:markers stroke fill"
       transform="translate(0.53019237,-1.2371155)">
      <path
         style="baseline-shift:baseline;display:inline;overflow:visible;vector-effect:none;fill:#ffffff;stroke:none;enable-background:accumulate;stop-color:#000000;stop-opacity:1"
         d="m 148.01758,38.320312 c -0.29433,0 -0.70209,-0.0071 -1.26563,0.355469 -0.56354,0.362606 -1.00291,1.31842 -0.96679,1.914063 0.0722,1.191285 0.50664,1.350804 0.78515,1.65039 0.55703,0.599173 1.23709,1.095009 2.1543,1.6875 v -0.002 c 1.08117,0.699257 1.49623,1.021407 2.18359,1.324219 0.17184,0.0757 0.37044,0.175062 0.78907,0.212891 0.41862,0.03783 1.25408,-0.142978 1.73242,-0.660157 0.47834,-0.517179 0.51977,-0.965613 0.54883,-1.193359 0.029,-0.227746 0.0215,-0.329623 0.0215,-0.396484 0,-1.063335 -0.32677,-1.130099 -0.44727,-1.289063 -0.12049,-0.158964 -0.207,-0.246292 -0.29492,-0.333984 -0.17583,-0.175384 -0.34883,-0.323776 -0.54687,-0.488282 -0.39608,-0.32901 -0.87909,-0.697536 -1.37891,-1.060546 -0.49981,-0.363011 -1.00722,-0.714898 -1.45312,-0.998047 -0.22296,-0.141575 -0.42733,-0.265085 -0.64258,-0.378907 -0.10763,-0.05691 -0.21565,-0.111298 -0.36719,-0.171875 -0.15154,-0.06058 -0.27575,-0.171875 -0.85156,-0.171875 z"
         id="path46" />
      <path
         style="baseline-shift:baseline;display:inline;overflow:visible;vector-effect:none;fill:url(#q);stroke:none;enable-background:accumulate;stop-color:#000000;stop-opacity:1"
         d="m 149.81,42.247 c -1.675,-1.082 -2.46,-1.927 -1.792,-1.927 0.394,0 3.982,2.606 3.982,2.892 0,0.445 -0.03,0.432 -2.19,-0.965 z"
         id="path47" />
    </g>
    <path
       style="baseline-shift:baseline;display:inline;overflow:visible;vector-effect:none;fill:url(#r);stroke:none;stroke-width:4.00002;stroke-linecap:round;stroke-linejoin:round;stroke-dasharray:none;stroke-opacity:1;paint-order:markers stroke fill;enable-background:accumulate;stop-color:#000000"
       d="m 147.50219,42.189884 a 343.254,343.254 0 0 1 -5.406,-4.02 c -1.703,-1.294 -3.832,-2.83 -4.731,-3.412 -0.9,-0.582 -2.571,-2.024 -3.715,-3.203 -1.144,-1.18 -2.855,-2.668 -3.803,-3.308 l -2.721,-1.839 c -0.55,-0.371 -1.845,-1.638 -2.879,-2.816 -1.288,-1.468 -2.477,-2.443 -3.779,-3.1 -2.167,-1.094 -2.437,-1.977 -0.655,-2.15 1.224,-0.118 1.263,-0.257 0.346,-1.233 -0.533,-0.567 -0.623,-0.89 -0.393,-1.404 l 0.298,-0.669 0.847,0.666 c 0.466,0.367 1.264,0.75 1.774,0.852 0.869,0.174 1.032,0.025 2.595,-2.354 1.027,-1.565 1.592,-2.736 1.472,-3.049 -0.108,-0.28 -0.868,-0.86 -1.689,-1.2899995 -1.243,-0.65 -1.735,-0.74 -2.933,-0.542 -2.057,0.34 -2.392,0.54 -2.979,1.7709995 -0.352,0.738 -0.68,1.04 -1,0.917 -0.328,-0.126 -0.54,0.098 -0.687,0.727 -0.116,0.5 -0.652,1.61 -1.19,2.465001 -0.619,0.985999 -1.254,2.743999 -1.734,4.799999 -0.417,1.784 -0.896,3.82 -1.066,4.524 -0.17,0.704 -0.458,2.216 -0.64,3.36 -0.425,2.673 -0.88,3.82 -1.269,3.193 -0.361,-0.585 -0.321,-0.643 -1.878,2.705 -1.022,2.196 -1.417,2.770001 -1.707,2.48 -0.513,-0.513 -0.89,-0.476 -0.89,0.087 0,1.208 -1.317,2.805 -1.863,2.259 -0.42,-0.42 0.039,-3.576 0.717,-4.93 0.406,-0.81 0.841,-2.036 0.966,-2.723 0.125,-0.687999 0.649,-2.141999 1.164,-3.231 0.515,-1.09 0.934,-2.328 0.932,-2.751 -0.004,-0.802 1.349,-5.21 3.036,-9.888999 a 22.84,22.84 0 0 0 0.615,-2.013 l 0.212,-0.893 -0.954,0.493 c -1.07,0.553 -2.905,0.663 -2.905,0.173 0,-0.176 -0.206,-0.32 -0.458,-0.32 -0.747,0 -2.714,-1.4 -2.728,-1.941001 -0.007,-0.276 0.454,-0.9299995 1.026,-1.4539995 0.572,-0.524 1.184,-1.183 1.36,-1.464 0.49,-0.784 8.98,-4.018 11.2,-4.268 1.056,-0.119 2.296,-0.437 2.756,-0.708 0.723,-0.425 1.2,-0.438 3.514,-0.1 3.002,0.439 3.4,0.605 5.345,2.228 1.954,1.63 2.625,2.913 2.625,5.018 0,3.0029995 -1.661,5.3710005 -5.693,8.1169995 l -1.626,1.108 1.18,1.14 c 0.648,0.626 1.957,2.051 2.909,3.166 0.95,1.115 2.167,2.294 2.703,2.62 1.013,0.616 4.066,3.129 7.192,5.918 0.998,0.891 2.94,2.538 4.316,3.66 2.274,1.855 3.35,3.055 3.03,3.376 -0.19,0.19 -3.783,-2.227 -5.371,-3.613 a 36.112,36.112 0 0 0 -2.88,-2.233 c -0.792,-0.537 -1.728,-1.296 -2.08,-1.687 -0.352,-0.392 -1.302,-1.048 -2.11,-1.458 -0.809,-0.41 -1.718,-1.123 -2.02,-1.584 -0.302,-0.46 -1.08,-1.323 -1.73,-1.916 a 220.502,220.502 0 0 1 -2.716,-2.542 c -0.845,-0.804 -1.752,-1.463 -2.016,-1.463 -0.263,0 -1.372,-0.58 -2.464,-1.29 -1.899,-1.236 -1.935,-1.246 -0.846,-0.24 0.626,0.577001 2.482,2.202001 4.124,3.61 1.642,1.408 3.722,3.257001 4.622,4.11 0.9,0.852 2.284,1.983 3.076,2.513 0.792,0.530001 2.483,1.921 3.759,3.09 l 4.8,4.4 c 1.364,1.25 3.381,2.875 4.481,3.611 1.1,0.737 2,1.406 2,1.488 0,0.362 -0.632,0.012 -2.788,-1.545 z"
       id="path49" />
    <path
       style="baseline-shift:baseline;display:inline;overflow:visible;vector-effect:none;fill:url(#m);stroke:none;stroke-width:4.00002;stroke-linecap:round;stroke-linejoin:round;stroke-dasharray:none;stroke-opacity:1;paint-order:markers stroke fill;enable-background:accumulate;stop-color:#000000"
       d="m 76.415192,2.5924845 c -0.528,-0.0324 -1.132,0.2252 -1.6864,0.78 -0.978,0.9776 -2.896,4.624 -3.6352,6.9107995 -0.3128,0.968 -0.824,2.2636 -1.136,2.8796 -0.6872,1.3588 -2.6804,6.7108 -3.1576,8.48 -0.19,0.704001 -0.3416,2.576001 -0.3368,4.16 0.0104,3.399201 0.4096,4.118401 2.4812,4.4684 1.1448,0.1936 1.5724,0.086 3.02,-0.7648 0.928,-0.5448 1.9304,-1.3128 2.2292,-1.7068 a 67.988,67.988 0 0 1 1.3188,-1.66 l 0.7752,-0.944 0.0468,2.2968 c 0.026,1.2636 0.184,2.656 0.3508,3.0944 0.364,0.958001 1.66,1.3596 2.764,0.8564 0.4352,-0.1984 0.9268,-0.36 1.092,-0.36 0.3748,0 -1.0372,3.2512 -2.1372,4.9216 -0.6848,1.04 -0.7612,1.3672 -0.4672,2.012 0.2948,0.6472 0.4536,0.7148 0.9928,0.4264 0.3528,-0.1888 0.6416,-0.4972 0.6416,-0.686 0,-0.1884 0.2048,-0.264 0.456,-0.168 0.2512,0.0964 0.6308,-0.034 0.8432,-0.2896 0.212,-0.256 0.614,-0.428 0.8928,-0.3812 0.3024,0.05 0.9636,-0.5728 1.6376,-1.544 0.6216,-0.8956 1.7308,-2.408 2.4648,-3.359999 0.734,-0.9524 2.232,-3.460001 3.3288,-5.572 2.124,-4.0904 2.9796,-5.28 3.7976,-5.28 0.2804,0 1.0552,-0.370001 1.722,-0.8232 1.4092,-0.9572 3.7,-2.0388 4.34,-2.0492 0.3452,-0.0052 0.398,0.328 0.2348,1.512799 -0.2256,1.6424 0.4128,7.760001 0.810398,7.760001 0.1332,0 0.328,0.54 0.432,1.2 0.104,0.66 0.3948,1.8872 0.6452,2.7272 0.2504,0.84 0.3756,1.927999 0.2776,2.417999 -0.1192,0.596 -0.0108,1.030001 0.3288,1.312 0.2792,0.2316 0.508,0.6108 0.508,0.8428 0,0.232 0.168,0.5268 0.374,0.654 0.2504,0.1548 0.308,0.0572 0.1732,-0.293999 -0.1104,-0.288 -0.05,-1.715201 0.1344,-3.172 0.1848,-1.456 0.4528,-4.808 0.5956,-7.448 0.5584,-10.3328 1.3444,-17.9512005 1.9732,-19.1320005 0.5084,-0.9548 0.016,-1.786 -1.1912,-2.0128 -0.608,-0.114 -1.4596,-0.4864 -1.8932,-0.8272 -1.0532,-0.8284 -2.0856,-0.3328 -2.0856,1.0016 0,0.7024 -0.3296,1.1976 -1.359998,2.0428 -0.748,0.6136 -1.7928,1.716 -2.3208,2.45 -0.528,0.7340005 -1.794,2.2932005 -2.814,3.4656005 -1.02,1.1724 -2.3524,3.02 -2.9608,4.1056 -0.7868,1.4036 -1.6696,2.3968 -3.0572,3.44 -1.0728,0.8064 -2.1688,1.4664 -2.4344,1.4664 -0.352,0 -0.4292,0.2112 -0.2864,0.78 0.1076,0.4296 0.0508,0.87 -0.126,0.9792 -0.6456,0.3992 -0.3004,0.808 0.51,0.6048 0.7972,-0.2 0.7692,-0.116 -0.6968,2.088 -1.1784,1.7728 -1.6796,2.276 -2.1912,2.2024 -0.8496,-0.1212 -1.006,-1.1696 -0.508,-3.3968 0.4056,-1.8128 0.5712,-2.2248 3.684,-9.1772 1.1028,-2.464 2.1116,-4.8404 2.2412,-5.2804 0.1296,-0.44 0.4584,-1.0528005 0.7304,-1.3628005 0.3912,-0.4452 0.4192,-0.7132 0.1352,-1.28 -0.1976,-0.3948 -0.4012,-1.0776 -0.4524,-1.5176 -0.068,-0.5836 -0.3092,-0.8248 -0.8928,-0.8928 -0.44,-0.0516 -1.134,-0.2604 -1.5416,-0.4648 -1.0628,-0.5336 -1.5244,-0.1176 -2.9256,2.638 -2.0752,4.0812005 -2.6216,5.3855995 -3.0488,7.2852005 -0.8152,3.625599 -2.1896,6.2484 -4.472,8.5304 -2.5084,2.5092 -4.52,4.024 -5.34,4.024 -0.904,0 -0.7612,-1.798 0.368,-4.6396 0.528,-1.3292 0.96,-2.5668 0.96,-2.75 0,-0.1832 0.36,-0.804 0.8,-1.3812 0.44,-0.5768 0.8,-1.342 0.8,-1.7 0,-0.3576 0.2352,-0.846 0.5232,-1.0852 0.288,-0.2388 0.7804,-1.0328 1.0936,-1.764 0.3136,-0.7312 0.7252,-1.4252 0.916,-1.5428 0.1904,-0.118 0.3468,-0.5648 0.3468,-0.9932 0,-0.428 0.648,-1.8200005 1.44,-3.0928005 1.5272,-2.4544 1.7112,-3.1472 0.9944,-3.7424 -0.2452,-0.2032 -0.6228,-0.7964 -0.8392,-1.3184 -0.2504,-0.6048 -0.7024,-0.928 -1.2304,-0.96 z m 22.7136,7.9508005 c 0.232,-0.018 0.3116,0.2144 0.1468,0.78 -0.1152,0.396 -0.2964,1.1988 -0.4032,1.7848 -0.1344,0.74 -0.4352,1.1576 -0.9848,1.3664 -0.4356,0.1656 -1.1548,0.585999 -1.598,0.9344 -1.2376,0.9736 -1.4368,0.7636 -0.6864,-0.7256 1.0708,-2.126 2.8836,-4.09 3.5256,-4.14 z"
       id="path41" />
    <g
       id="path25"
       style="fill:url(#linearGradient68);stroke:#ffffff;stroke-width:4.00002;stroke-linecap:round;stroke-linejoin:round;stroke-dasharray:none;stroke-opacity:1;paint-order:markers stroke fill"
       transform="translate(0.53019237,-1.2371155)">
      <path
         style="baseline-shift:baseline;display:inline;overflow:visible;vector-effect:none;fill:#ffffff;stroke:none;enable-background:accumulate;stop-color:#000000;stop-opacity:1"
         d="m 152.76758,41.839844 c -0.3098,0 -1.02784,-0.129065 -1.74414,0.865234 -0.35815,0.49715 -0.42492,1.186972 -0.34766,1.589844 0.0773,0.402872 0.21104,0.614921 0.31445,0.773437 0.41365,0.634068 0.63031,0.691811 0.93164,0.91211 0.60268,0.440597 1.42185,0.932989 2.5254,1.546875 a 2.00021,2.00021 0 0 0 0.002,0 c 1.181,0.65639 1.78944,1.012828 2.48828,1.269531 0.34942,0.128352 0.83226,0.478811 1.89062,-0.0078 0.52919,-0.243311 0.96512,-0.807819 1.11133,-1.207031 0.14621,-0.399212 0.14063,-0.649731 0.14063,-0.826172 0,-0.729164 -0.24783,-0.994029 -0.3711,-1.171875 -0.12327,-0.177845 -0.20902,-0.263313 -0.2832,-0.335937 -0.14835,-0.145248 -0.25068,-0.221195 -0.35742,-0.300781 -0.21349,-0.159172 -0.43218,-0.301472 -0.6875,-0.460938 -0.51064,-0.318933 -1.14752,-0.684261 -1.80469,-1.044922 -0.65716,-0.36066 -1.32654,-0.711462 -1.89648,-0.986328 -0.28497,-0.137433 -0.5413,-0.25536 -0.78907,-0.355469 -0.24776,-0.100109 -0.19088,-0.259765 -1.12304,-0.259765 z"
         id="path50" />
      <path
         style="baseline-shift:baseline;display:inline;overflow:visible;vector-effect:none;fill:url(#s);stroke:none;enable-background:accumulate;stop-color:#000000;stop-opacity:1"
         d="m 155.42,45.78 c -2.132,-1.186 -3.164,-1.94 -2.653,-1.94 0.506,0 5.313,2.638 5.313,2.916 0,0.441 -0.321,0.323 -2.66,-0.977 z"
         id="path51" />
    </g>
    <g
       id="path26"
       style="fill:url(#linearGradient69);stroke:#ffffff;stroke-width:4.00002;stroke-linecap:round;stroke-linejoin:round;stroke-dasharray:none;stroke-opacity:1;paint-order:markers stroke fill"
       transform="translate(0.53019237,-1.2371155)">
      <path
         style="baseline-shift:baseline;display:inline;overflow:visible;vector-effect:none;fill:#ffffff;stroke:none;enable-background:accumulate;stop-color:#000000;stop-opacity:1"
         d="m 150.96484,43.845703 c -0.26842,0.0312 -0.73777,0.113978 -1.20703,0.583984 -0.36436,0.36651 -0.56383,0.917617 -0.58789,1.304688 -0.0241,0.388252 0.0521,0.637795 0.11524,0.816406 0.12627,0.357223 0.23918,0.488419 0.32812,0.607422 0.17788,0.238007 0.30782,0.356897 0.45313,0.492188 0.29061,0.27058 0.62307,0.531441 1.00976,0.80664 0.64271,0.457174 1.23172,0.803197 1.88086,1.03711 0.32457,0.116956 0.62913,0.253352 1.2832,0.199218 0.32704,-0.02707 0.81862,-0.125205 1.28907,-0.544922 0.47045,-0.419716 0.71093,-1.128777 0.71093,-1.597656 0,-1.106245 -0.39612,-1.22787 -0.53711,-1.386719 -0.14098,-0.158848 -0.23407,-0.232493 -0.32226,-0.304687 -0.17638,-0.144388 -0.329,-0.248668 -0.5,-0.361328 -0.34199,-0.225319 -0.73905,-0.460209 -1.14649,-0.6875 -0.40743,-0.227291 -0.81287,-0.440646 -1.18164,-0.611328 -0.18438,-0.08534 -0.34816,-0.157608 -0.57226,-0.232422 -0.11205,-0.03741 -0.22752,-0.08125 -0.4707,-0.115235 -0.1216,-0.01699 -0.27563,-0.03716 -0.54493,-0.0059 z m 2.16797,2.201172 c -0.0384,0.369179 -0.20678,0.866094 -0.54492,1.205078 -4.5e-4,4.56e-4 4.6e-4,0.0015 0,0.002 -0.10807,0.107866 -0.16876,0.06308 -0.27344,0.132813 0.044,-0.379716 0.18524,-0.896533 0.55078,-1.222657 0.1062,-0.09475 0.16523,-0.05772 0.26758,-0.117187 z"
         id="path52" />
      <path
         style="baseline-shift:baseline;display:inline;overflow:visible;vector-effect:none;fill:url(#t);stroke:none;enable-background:accumulate;stop-color:#000000;stop-opacity:1"
         d="m 152.235,46.828 c -0.659,-0.469 -1.136,-0.913 -1.061,-0.988 0.143,-0.144 3.066,1.487 3.066,1.71 0,0.373 -0.945,0.032 -2.005,-0.722 z"
         id="path53" />
    </g>
    <g
       id="path28"
       style="fill:url(#linearGradient71);stroke:#ffffff;stroke-width:4.00002;stroke-linecap:round;stroke-linejoin:round;stroke-dasharray:none;stroke-opacity:1;paint-order:markers stroke fill"
       transform="translate(0.53019237,-1.2371155)">
      <path
         style="baseline-shift:baseline;display:inline;overflow:visible;vector-effect:none;fill:#ffffff;stroke:none;enable-background:accumulate;stop-color:#000000;stop-opacity:1"
         d="m 152.60156,47.919922 c -0.63345,0 -1.69819,0.497517 -2.03515,1.380859 -0.33532,0.879015 -0.0523,1.56031 0.20898,1.984375 5.7e-4,9.3e-4 0.001,10e-4 0.002,0.002 0.52642,0.85725 0.95516,1.273438 2.22071,1.273438 0.63345,0 1.70014,-0.497517 2.03711,-1.38086 0.33648,-0.882075 0.0491,-1.566499 -0.21289,-1.990234 -0.526,-0.856235 -0.9559,-1.269531 -2.22071,-1.269531 z m 0.39649,0.640625 c 0.90892,0 0.87698,0.128068 1.18164,0.626953 0.15334,0.247594 0.41576,0.77172 0.12304,1.539062 -0.29271,0.767343 -1.24371,1.19336 -1.70117,1.19336 -0.91292,0 -0.87458,-0.128426 -1.18359,-0.632813 a 2.00021,2.00021 0 0 1 -0.002,-0.002 c -0.15375,-0.249727 -0.4098,-0.769311 -0.11915,-1.53125 0.29272,-0.767342 1.24372,-1.193359 1.70118,-1.193359 z"
         id="path56" />
      <path
         style="baseline-shift:baseline;display:inline;overflow:visible;vector-effect:none;fill:url(#v);stroke:none;enable-background:accumulate;stop-color:#000000;stop-opacity:1"
         d="m 152.48,50.24 c -0.109,-0.176 -0.054,-0.32 0.122,-0.32 0.176,0 0.41,0.144 0.518,0.32 0.109,0.176 0.054,0.32 -0.122,0.32 -0.176,0 -0.41,-0.144 -0.518,-0.32 z"
         id="path57" />
    </g>
    <path
       style="baseline-shift:baseline;display:inline;overflow:visible;vector-effect:none;fill:url(#w);stroke:none;stroke-width:4.00002;stroke-linecap:round;stroke-linejoin:round;stroke-dasharray:none;stroke-opacity:1;paint-order:markers stroke fill;enable-background:accumulate;stop-color:#000000"
       d="m 150.45019,50.564884 c -2.388,-1.772 -7.033,-4.912 -11.52,-7.79 -2.9,-1.86 -8.142,-5.94 -8.506,-6.619999 -0.177,-0.331001 -0.943,-0.894 -1.703,-1.25 -1.394,-0.656 -8.193,-7.280001 -8.603,-8.382 -0.114,-0.308 -0.413,-0.56 -0.664,-0.56 -0.251,0 -1.143,-0.648 -1.981,-1.44 -1.313,-1.24 -1.426,-1.44 -0.817,-1.44 0.389,0 1.24,0.276 1.89,0.613 0.651,0.338 1.587,0.77 2.08,0.960999 0.576,0.223 1.073,0.777001 1.388,1.547 0.542,1.326001 5.536,6.383001 7.716,7.813001 0.748,0.49 1.36,1.094 1.36,1.34 0,0.246 0.792,0.994 1.76,1.66 0.968,0.667 1.76,1.34 1.76,1.496 0,0.155 0.522,0.5 1.16,0.767 0.638,0.267 2.27,1.376 3.626,2.464 1.357,1.088 3.3,2.555 4.32,3.259 1.018,0.704 2.878,2.079 4.133,3.055 1.255,0.976 2.958,2.238 3.785,2.804 1.467,1.005 2.155,1.69 1.635,1.631 -0.143,-0.016 -1.411,-0.884 -2.819,-1.928001 z"
       id="path59" />
    <path
       style="baseline-shift:baseline;display:inline;overflow:visible;vector-effect:none;fill:url(#u);stroke:none;stroke-width:4.00002;stroke-linecap:round;stroke-linejoin:round;stroke-dasharray:none;stroke-opacity:1;paint-order:markers stroke fill;enable-background:accumulate;stop-color:#000000"
       d="m 149.00119,46.035885 c -1.315,-0.928 -3.097,-2.188001 -3.96,-2.8 a 60.465,60.465 0 0 1 -3.36,-2.63 c -0.985,-0.835001 -1.927,-1.519 -2.094,-1.520001 -0.166,-0.002 -0.67,-0.345 -1.12,-0.764 -0.45,-0.418 -2.462,-1.87 -4.473,-3.226 a 79.332,79.332 0 0 1 -12.216,-10.172 c -2.05,-2.086 -2.962,-2.801 -3.577,-2.801 -0.993,0 -1.831,-0.762 -1.831,-1.664 0,-0.593 0.131,-0.637 1.343,-0.443 1.717,0.275 3.82,1.873 6.549,4.979 1.164,1.324 2.349,2.552 2.633,2.728 0.671,0.417 3.43,2.945 4.488,4.113 0.455,0.503 1.475,1.244 2.267,1.648001 1.624,0.828 4.12,2.706 5.582,4.198 1.659,1.695 4.698,4.085999 7.378,5.802999 2.13,1.366 5.476,4.238 4.936,4.238 -0.084,0 -1.23,-0.76 -2.545,-1.686999 z"
       id="path55" />
  </g>
</svg>
