<?xml version="1.0" encoding="UTF-8" standalone="no"?>
<svg
   width="584.53625"
   height="136.90424"
   xml:space="preserve"
   version="1.1"
   id="svg2"
   sodipodi:docname="atari5200.svg"
   inkscape:version="1.4.3 (0d15f75042, 2025-12-25)"
   xmlns:inkscape="http://www.inkscape.org/namespaces/inkscape"
   xmlns:sodipodi="http://sodipodi.sourceforge.net/DTD/sodipodi-0.dtd"
   xmlns="http://www.w3.org/2000/svg"
   xmlns:svg="http://www.w3.org/2000/svg"><defs
   id="defs2">
        
        
    </defs><sodipodi:namedview
   id="namedview2"
   pagecolor="#acacac"
   bordercolor="#000000"
   borderopacity="0.25"
   inkscape:showpageshadow="2"
   inkscape:pageopacity="0.0"
   inkscape:pagecheckerboard="0"
   inkscape:deskcolor="#d1d1d1"
   inkscape:zoom="1.1069513"
   inkscape:cx="290.88904"
   inkscape:cy="53.751236"
   inkscape:window-width="1920"
   inkscape:window-height="1080"
   inkscape:window-x="0"
   inkscape:window-y="0"
   inkscape:window-maximized="0"
   inkscape:current-layer="svg2" />
    <g
   id="g2"
   transform="translate(7.4999995,7.6512494)"><g
     id="path1"
     style="opacity:1"><path
       style="baseline-shift:baseline;display:inline;overflow:visible;vector-effect:none;fill:#ffffff;stroke-linecap:round;stroke-linejoin:round;paint-order:markers stroke fill;enable-background:accumulate;stop-color:#000000;stop-opacity:1"
       d="m 220.29102,-7.5488281 c -6.94856,-0.680481 -14.07931,2.0681023 -18.8125,7.82031248 a 7.5,7.5 0 0 0 -0.0879,0.0429687 c -0.0504,0.0570852 -0.0698,0.11471824 -0.11914,0.171875 -0.0507,0.0634208 -0.11587,0.10773627 -0.16601,0.17187499 a 7.5,7.5 0 0 0 -0.0312,0.109375 c -4.248,5.09624548 -4.66945,10.40491888 -5.51563,12.96289088 a 7.50075,7.50075 0 0 0 -0.0801,0.259765 C 185.23407,49.203215 175.02651,84.423829 164.83203,119.64648 a 7.50075,7.50075 0 0 0 7.19727,9.58594 c 6.31567,0.006 12.60753,-0.009 18.87695,0.0117 a 7.50075,7.50075 0 0 0 7.23242,-5.42383 c 2.41761,-8.39194 4.86685,-16.7753 7.32227,-25.156248 8.4954,3.01e-4 16.98328,-6.56e-4 25.46679,0.0078 2.41861,8.381035 4.82456,16.771775 7.29102,25.177735 a 7.50075,7.50075 0 0 0 7.2168,5.38867 c 6.30356,-0.0179 12.63537,1.6e-4 18.98632,-0.006 a 7.50075,7.50075 0 0 0 5.5625,-2.78515 7.50075,7.50075 0 0 0 5.54688,2.78515 h 18.12305 a 7.50075,7.50075 0 0 0 6.1875,-4.33008 7.50075,7.50075 0 0 0 6.25195,4.33594 c 6.27394,-0.012 12.55794,1.6e-4 18.86523,-0.006 a 7.50075,7.50075 0 0 0 7.20313,-5.43554 c 2.38974,-8.34731 4.8501,-16.72888 7.28125,-25.128911 8.45581,-0.01062 16.92039,-0.0072 25.39453,-0.0059 2.42824,8.374601 4.84197,16.758131 7.27344,25.158201 a 7.50075,7.50075 0 0 0 7.23242,5.41406 c 6.28244,-0.0238 12.6296,0.0262 19.04883,-0.0234 a 7.50075,7.50075 0 0 0 4.38281,-2.22071 7.50075,7.50075 0 0 0 5.31641,2.2461 c 6.10541,0.007 12.18334,-0.005 18.25,0.008 a 7.50075,7.50075 0 0 0 7.51562,-7.49609 c 0.007,-10.27019 0.005,-20.53552 0.004,-30.804691 7.68855,11.642641 15.35935,23.311131 23.11328,34.958981 a 7.50075,7.50075 0 0 0 6.27344,3.34375 c 7.11911,-0.0298 14.27194,0.001 21.45898,-0.0117 a 7.50075,7.50075 0 0 0 4.95703,-1.9082 7.50075,7.50075 0 0 0 4.58985,1.9043 c 6.42152,0.006 12.81731,-0.013 19.18359,0.006 a 7.50075,7.50075 0 0 0 7.52344,-7.49414 c 0.026,-40.500682 0.006,-80.991588 0.0117,-121.4843775 a 7.50075,7.50075 0 0 0 -7.5,-7.5019531 h -19.21094 a 7.50075,7.50075 0 0 0 -7.5,7.49999998 V 111.3125 C 478.82509,99.479758 470.86201,87.708045 463.1543,75.873047 c 2.56782,-1.550102 5.70622,-3.272985 9.16211,-6.337891 8.02797,-6.945154 12.08203,-16.900537 12.86523,-26.71289 0.98759,-8.575271 0.6951,-18.265079 -3.86328,-27.201172 C 474.74909,2.065867 460.85461,-6.9622163 445.71875,-7.2421875 a 7.50075,7.50075 0 0 0 -0.13477,-0.00195 c -7.23692,-0.00401 -14.45394,0.015129 -21.64648,-0.00977 l 0.15039,0.00195 c -2.4904,-0.058263 -5.21346,0.2080343 -7.99023,1.15625 -9.11149,2.9595902 -15.44698,11.3267182 -15.50782,21.0566411 a 7.50075,7.50075 0 0 0 0,0.05273 c 0.0214,29.20533 0.009,58.419025 0.01,87.632808 -9.07093,-31.194806 -18.15893,-62.38251 -27.22266,-93.5722612 -2.0207,-7.4236361 -7.64815,-13.9814877 -15.92578,-15.9160157 -8.67764,-2.2137593 -17.77675,1.0630833 -23,8.390625 a 7.5,7.5 0 0 0 -0.0391,0.023437 c -0.026,0.034716 -0.0368,0.066872 -0.0625,0.1015625 -0.035,0.049938 -0.0786,0.090316 -0.11328,0.140625 a 7.5,7.5 0 0 0 -0.0156,0.072266 c -3.39751,4.7062498 -3.76817,9.1493553 -4.48242,11.2695313 a 7.50075,7.50075 0 0 0 -0.0957,0.304688 c -9.50753,32.760299 -19.03669,65.528623 -28.48828,98.324222 0.006,-28.497743 0.005,-56.99535 0.004,-85.492191 5.9285,-0.0013 11.85301,3.24e-4 17.80274,-0.0039 a 7.50075,7.50075 0 0 0 7.49414,-7.5 V 0.25585938 a 7.50075,7.50075 0 0 0 -7.5,-7.49999998 h -68.71875 a 7.50075,7.50075 0 0 0 -7.5,7.4941406 c -0.005,6.1900821 10e-4,12.363965 0,18.537109 a 7.50075,7.50075 0 0 0 7.49414,7.501953 c 5.94755,0.0042 11.87607,0.0027 17.80664,0.0039 -0.006,27.010442 -0.007,54.01879 -0.006,81.027341 -9.53296,-32.808036 -19.09916,-65.601657 -28.63086,-98.398435 -1.21658,-4.2487043 -3.58767,-8.2649385 -7.20312,-11.3320313 -3.4861,-3.0316379 -7.65464,-4.7223056 -11.90625,-5.1386718 z M 63.382812,-7.5 c -3.046737,0.00792 -6.12586,-0.00229 -9.234375,0.00781 a 7.50075,7.50075 0 0 0 -7.474609,7.4765625 c -0.01107,3.6112892 0.01701,7.1526845 -0.01563,10.623047 -0.24037,10.395754 -0.887457,20.679681 -2.404297,30.722656 -1.21044,7.897873 -2.96033,15.443967 -6.007812,22.132813 a 7.50075,7.50075 0 0 0 -0.02734,0.06055 c -2.666485,5.992812 -6.150478,11.56162 -10.425781,16.291016 -4.154177,4.595811 -9.084983,8.483062 -14.501953,11.347656 -0.0021,0.0011 -0.0038,0.0028 -0.0059,0.0039 -4.6649931,2.447058 -9.5408543,4.214267 -14.3984372,4.943359 A 7.50075,7.50075 0 0 0 -7.5,103.53125 c 0.005,6.06087 0.005,12.13053 0,18.19141 a 7.50075,7.50075 0 0 0 8.5449219,7.43359 c 5.4486812,-0.76707 10.7089761,-2.13554 15.7441401,-3.86719 a 7.50075,7.50075 0 0 0 0.0098,-0.004 c 9.001201,-3.10959 17.699047,-7.74201 25.126953,-14.27149 6.806947,-5.79023 13.046441,-12.744201 17.705078,-20.957029 -0.0023,10.556999 -0.03563,21.124639 0.02344,31.738279 a 7.50075,7.50075 0 0 0 7.5625,7.45703 c 5.573879,-0.0464 11.21218,-0.006 16.908203,-0.0195 a 7.50075,7.50075 0 0 0 7.482422,-7.5 c 5.17e-4,-10.49493 -2.5e-4,-20.98797 0,-31.48242 3.92777,6.90654 9.036608,12.85101 14.603518,17.98438 a 7.50075,7.50075 0 0 0 0.01,0.008 c 3.27036,3.0055 6.83449,6.04616 10.95118,8.69726 5.48798,3.56993 11.37008,6.29431 17.35742,8.37696 a 7.50075,7.50075 0 0 0 0.0488,0.0156 c 4.96684,1.68851 10.1881,3.07422 15.64649,3.81445 a 7.50075,7.50075 0 0 0 8.50781,-7.43945 c -0.006,-6.05457 -0.003,-12.11569 0,-18.17969 a 7.50075,7.50075 0 0 0 -6.41797,-7.425778 c -1.99536,-0.290939 -4.02493,-0.782492 -6.0664,-1.435546 l -0.004,-0.002 C 138.86272,92.297085 131.9844,88.147389 126.32031,82.746094 a 7.50075,7.50075 0 0 0 -0.004,-0.0039 C 120.40112,77.109955 115.74155,69.987528 112.49023,62.224609 a 7.50075,7.50075 0 0 0 -0.0215,-0.05078 c -3.35183,-7.841812 -4.99047,-16.751157 -6.16602,-26.048828 -8e-5,-6.51e-4 9e-5,-0.0013 0,-0.002 C 104.88318,24.271645 104.46726,12.21129 104.56445,0.06640625 A 7.50075,7.50075 0 0 0 97.087891,-7.4941406 c -3.084161,-0.010086 -6.151617,-0.00395 -9.205079,-0.00195 a 7.50075,7.50075 0 0 0 -1.888671,0.7832031 7.50075,7.50075 0 0 0 -1.898438,-0.7832031 c -5.627803,0.00994 -11.307228,-0.021768 -17.029297,0.015625 A 7.50075,7.50075 0 0 0 65.267578,-6.7246094 7.50075,7.50075 0 0 0 63.382812,-7.5 Z M 74.615234,7.5117187 c 0.663388,2.04e-4 1.327443,-5.758e-4 1.992188,0 0.0015,35.5748203 0.0015,71.1518043 0,106.7304713 -0.652211,-7e-4 -1.305151,0.002 -1.958985,0.002 -0.02281,-10.41566 -0.0073,-20.839653 -0.02344,-31.30664 v -0.0098 c -0.0064,-25.137037 0.0026,-50.275113 -0.0098,-75.4160153 z m 277.240236,0.046875 c 0.68041,-0.061169 1.34327,-0.022678 1.9414,0.1347657 A 7.50075,7.50075 0 0 0 354.02344,7.75 c 1.97095,0.4537446 4.18917,2.73168 4.8789,5.265625 a 7.50075,7.50075 0 0 0 0.0352,0.123047 c 9.7942,33.703712 19.61501,67.390287 29.4082,101.083988 -1.13198,-0.001 -2.25826,0.005 -3.39453,0.004 -2.41677,-8.37727 -4.82224,-16.763336 -7.27344,-25.166013 a 7.50075,7.50075 0 0 0 -7.20312,-5.400391 c -12.21251,0.006 -24.43878,-0.02129 -36.6875,0.0098 a 7.50075,7.50075 0 0 0 -7.18945,5.433594 c -2.39242,8.347272 -4.85147,16.729514 -7.28125,25.130864 -1.08335,-1.8e-4 -2.16966,2.8e-4 -3.25391,0 9.27075,-32.15647 18.61452,-64.301252 27.94727,-96.458989 1.34822,-4.042887 1.88777,-6.519804 2.40039,-7.203125 a 7.5,7.5 0 0 0 0.041,-0.15625 7.5,7.5 0 0 0 0.13477,-0.08789 c 1.03456,-1.5007472 3.22831,-2.5860252 5.26953,-2.7695313 z m 71.88086,0.1855469 a 7.50075,7.50075 0 0 0 0.15039,0.00195 c 7.21492,0.024972 14.40715,0.00604 21.57422,0.00977 9.14569,0.1774964 18.417,6.1938436 22.39648,14.4687496 a 7.50075,7.50075 0 0 0 0.0859,0.171875 c 2.6631,5.193961 3.14451,11.924641 2.32617,18.876953 a 7.50075,7.50075 0 0 0 -0.0273,0.296875 c -0.50334,6.471276 -3.28328,12.784398 -7.75586,16.642579 a 7.50075,7.50075 0 0 0 -0.0899,0.08008 c -2.12763,1.895798 -5.99149,3.630675 -10.46875,6.949218 a 7.50075,7.50075 0 0 0 -0.0762,0.05469 c -2.79068,2.122752 -4.19468,5.300936 -4.53125,8.054687 -0.33656,2.753752 0.14432,5.279065 1.29688,7.636719 a 7.50075,7.50075 0 0 0 0.44336,0.783203 c 7.10464,10.968987 14.39035,21.703686 21.6289,32.470706 -1.14893,1.1e-4 -2.2905,1.7e-4 -3.4414,0.002 -8.59898,-12.94651 -17.14681,-25.955854 -25.75196,-38.951171 a 7.50075,7.50075 0 0 0 -0.0625,-0.0918 c -1.35755,-1.985373 -1.74954,-4.955024 -0.98242,-7.115235 0.36942,-0.991332 1.6472,-2.276804 3.42578,-2.966796 l -0.0391,0.01563 c 7.42677,-2.834559 15.47375,-7.45 20.35352,-15.753907 4.15972,-7.014159 3.70924,-14.716899 2.21875,-20.888672 C 464.11446,18.223041 454.95,10.794551 444.23047,11.152344 l 0.20117,-0.0039 c -4.59444,0.03041 -9.27623,-0.02142 -14.05078,0.02148 l 0.24219,0.002 c -6.56799,-0.152022 -11.84007,4.686396 -11.75391,11.525391 -0.0211,30.52225 7.1e-4,61.036232 -0.0117,91.542964 -1.08568,1.1e-4 -2.17134,-2.9e-4 -3.25586,0 -0.007,-33.059031 0.0124,-66.124785 -0.0117,-99.195308 0.0227,-2.711087 2.51271,-6.0420534 5.16993,-6.8925782 a 7.50075,7.50075 0 0 0 0.16601,-0.054687 c 0.67646,-0.2340388 1.64804,-0.3807125 2.81055,-0.3535157 z m -206.23242,0.011719 c 1.84291,-0.1914941 3.73408,0.1672768 4.86914,1.1601562 a 7.50075,7.50075 0 0 0 0.10742,0.091797 c 1.09069,0.918577 2.0253,2.3851455 2.5,4.0429685 a 7.50075,7.50075 0 0 0 0.008,0.0293 c 9.8029,33.730019 19.63876,67.438053 29.43359,101.156252 -1.12408,-4.7e-4 -2.24556,-3.4e-4 -3.37109,0 -2.43591,-8.36726 -4.85101,-16.746701 -7.2832,-25.148439 a 7.50075,7.50075 0 0 0 -7.19141,-5.414063 c -12.26232,-0.02303 -24.50462,-0.0057 -36.74023,-0.01172 a 7.50075,7.50075 0 0 0 -7.19922,5.384766 c -2.4672,8.391138 -4.90265,16.791195 -7.33203,25.193355 -1.09664,-7.9e-4 -2.18987,-0.002 -3.28516,-0.002 9.26666,-32.00879 18.53946,-64.012878 27.84766,-96.007811 0.005,-0.01623 0.009,-0.0326 0.0137,-0.04883 1.48406,-4.527275 2.07661,-7.171626 2.75586,-7.941407 a 7.5,7.5 0 0 0 0.0781,-0.226562 7.5,7.5 0 0 0 0.20703,-0.1171876 c 0.94351,-1.2069488 2.73912,-1.949131 4.58204,-2.140625 z m 40.23242,0 h 53.71875 v 3.5351566 c -5.93271,-0.0016 -11.86355,-0.0074 -17.81055,0.0039 a 7.50075,7.50075 0 0 0 -7.48633,7.5 c 0,31.814378 0.003,63.627347 -0.004,95.437498 h -3.12305 c -5.8e-4,-31.813268 -0.003,-63.624655 0.006,-95.435545 a 7.50075,7.50075 0 0 0 -7.48633,-7.501953 c -5.95136,-0.01129 -11.88106,-0.0055 -17.81445,-0.0039 -2.4e-4,-1.178276 9e-5,-2.3572057 0,-3.5351566 z m 244.02539,0 h 4.21094 c -0.003,35.4979006 0.006,70.9882136 -0.0117,106.4785206 -1.40079,2.3e-4 -2.8005,-0.003 -4.19922,-0.002 z M 349.04687,21.013672 a 7.50075,7.50075 0 0 0 -4.08593,4.738281 c -4.42224,15.324978 -8.88919,30.652102 -13.30078,46.017578 a 7.50075,7.50075 0 0 0 7.19726,9.570313 c 8.87372,0.01301 17.73414,0.0078 26.59375,0.0078 a 7.50075,7.50075 0 0 0 7.20899,-9.572265 C 368.24362,56.405654 363.7621,41.084151 359.37695,25.767578 a 7.50075,7.50075 0 0 0 -10.33008,-4.753906 z m -133.96289,0.06445 a 7.50075,7.50075 0 0 0 -4.08789,4.710937 c -4.49843,15.323738 -8.8985,30.651442 -13.35742,45.933594 a 7.50075,7.50075 0 0 0 7.16406,9.601563 c 8.93932,0.04319 17.8477,0.01563 26.72852,0.01563 a 7.50075,7.50075 0 0 0 7.20117,-9.59375 C 234.28125,56.43937 229.85044,41.126205 225.39453,25.806641 a 7.50075,7.50075 0 0 0 -10.31055,-4.728516 z m 229.64649,5.066406 c 2.80056,-0.09348 6.423,2.792429 7.05078,5.638672 a 7.50075,7.50075 0 0 0 0.0391,0.162109 c 0.95959,3.934697 0.77528,7.592731 -0.53125,9.791016 a 7.50075,7.50075 0 0 0 -0.0215,0.03711 c -2.3474,4.001562 -7.16205,7.202526 -12.77735,9.345704 a 7.50075,7.50075 0 0 0 -0.0391,0.01563 c -1.586,0.615284 -3.11446,1.48648 -4.58594,2.482421 -3.5e-4,-9.150355 -0.001,-18.304192 0.004,-27.453125 3.51432,-0.0051 7.03224,0.0084 10.66211,-0.01563 a 7.50075,7.50075 0 0 0 0.19922,-0.0039 z M 218.1875,54.779297 c 1.11741,3.851706 2.23694,7.702127 3.35547,11.554687 -2.23977,0.0017 -4.47828,-0.0028 -6.71485,-0.0039 1.11895,-3.85452 2.24305,-7.698861 3.35938,-11.550781 z m 133.97461,0.07617 c 1.10895,3.82823 2.2126,7.662093 3.31836,11.488281 -2.21322,2.45e-4 -4.42633,-0.0014 -6.63867,-0.002 1.10455,-3.827022 2.2118,-7.658529 3.32031,-11.486328 z M 98.939453,68.623047 c 3.945677,9.216155 9.569757,17.874748 17.029297,24.978515 6.6e-4,6.34e-4 0.001,0.0013 0.002,0.002 6.7e-4,6.38e-4 0.001,0.0013 0.002,0.002 7.26608,6.927841 16.05601,12.253071 25.69726,15.343751 a 7.50075,7.50075 0 0 0 0.004,0.002 c 0.65745,0.21039 1.38688,0.29527 2.05859,0.48438 -3.3e-4,0.99212 1.4e-4,1.98428 0,2.97656 -1.43178,-0.4027 -2.86358,-0.7867 -4.29687,-1.27344 -5.02675,-1.75022 -9.79854,-3.98432 -14.09571,-6.78125 a 7.50075,7.50075 0 0 0 -0.0332,-0.0215 c -3.02408,-1.94586 -5.95652,-4.400676 -8.92578,-7.128909 l -0.008,-0.0078 c -7e-4,-6.39e-4 -0.001,-0.0013 -0.002,-0.002 -4.70177,-4.337143 -8.78245,-9.159787 -11.76757,-14.429688 a 7.50075,7.50075 0 0 0 -0.008,-0.01367 c -2.31829,-4.07327 -4.09324,-8.636723 -5.521481,-13.458984 -0.05695,-0.213121 -0.08052,-0.45657 -0.134766,-0.671875 z m -46.9375,0.792969 c -0.960093,3.46194 -2.158481,6.923285 -3.761719,10.345703 -3.554948,7.483514 -9.324059,14.133234 -16.095703,19.882812 a 7.50075,7.50075 0 0 0 -0.09961,0.08789 c -5.700332,5.016328 -12.668357,8.792258 -20.144531,11.374998 -1.460935,0.50223 -2.9312432,0.89606 -4.400391,1.3086 -1.84e-5,-0.96248 2.697e-4,-1.92432 0,-2.88672 4.504611,-1.25207 8.788615,-2.99758 12.777344,-5.0918 a 7.50075,7.50075 0 0 0 0.01953,-0.01 c 7.046588,-3.72509 13.33481,-8.704249 18.623047,-14.554683 5.472715,-6.053988 9.759897,-12.97001 12.992187,-20.228516 0.03429,-0.07538 0.05585,-0.153082 0.08984,-0.228515 z"
       id="path3" /><path
       style="baseline-shift:baseline;display:inline;overflow:visible;vector-effect:none;fill:#6187e5;stroke-linecap:round;stroke-linejoin:round;paint-order:markers stroke fill;enable-background:accumulate;stop-color:#000000;stop-opacity:1"
       d="m 207.014,5.277 c 4.724,-6.043 14.501,-7.076 20.297,-2.006 2.37,1.996 4.031,4.75 4.88,7.715 10.73,36.92 21.508,73.822 32.223,110.746 -6.332,0.006 -12.667,-0.012 -18.999,0.006 -2.987,-10.18 -5.903,-20.377 -8.852,-30.564 -12.246,-0.023 -24.485,-0.006 -36.73,-0.012 a 5818.517,5818.517 0 0 0 -8.901,30.582 c -6.298,-0.021 -12.596,-0.006 -18.895,-0.012 10.194,-35.221 20.4,-70.438 30.643,-105.646 1.218,-3.682 1.678,-7.799 4.334,-10.809 m 11.179,22.625 c -4.49,15.295 -8.889,30.619 -13.354,45.922 8.9,0.043 17.796,0.016 26.692,0.016 -4.453,-15.313 -8.884,-30.625 -13.338,-45.938 z M 340.411,6.072 c 3.3,-4.787 9.68,-7.109 15.295,-5.631 5.143,1.184 9.076,5.615 10.434,10.604 10.721,36.893 21.479,73.772 32.195,110.666 -6.342,0.049 -12.68,0 -19.02,0.024 -2.949,-10.188 -5.865,-20.387 -8.837,-30.575 -12.226,0.006 -24.446,-0.021 -36.671,0.01 -2.922,10.195 -5.936,20.367 -8.855,30.563 -6.293,0.006 -12.58,-0.006 -18.873,0.006 10.188,-35.414 20.496,-70.797 30.767,-106.188 1.076,-3.194 1.493,-6.717 3.565,-9.479 m -1.543,67.768 c 8.863,0.013 17.721,0.007 26.584,0.007 C 361.042,58.5 356.56,43.176 352.167,27.832 347.741,43.17 343.274,58.494 338.868,73.84 Z M 250.237,0.256 h 68.719 v 18.533 c -8.438,0.006 -16.866,-0.01 -25.297,0.006 0,34.313 0.006,68.627 -0.004,102.938 h -18.123 c 0,-34.313 -0.005,-68.625 0.005,-102.938 -8.436,-0.016 -16.866,0 -25.301,-0.006 0.001,-6.178 -0.004,-12.351 0.001,-18.533 z M 418.474,1.01 c 1.74,-0.602 3.6,-0.807 5.438,-0.764 7.223,0.025 14.447,0.006 21.668,0.01 12.164,0.225 23.772,7.771 29.037,18.719 3.645,7.109 4.02,15.377 3.102,23.176 -0.635,8.164 -4.059,16.328 -10.334,21.741 -3.313,2.952 -7.441,4.743 -10.992,7.375 -1.947,1.481 -2.047,4.364 -1.038,6.428 9.586,14.8 19.552,29.367 29.338,44.039 -7.157,0.013 -14.315,-0.017 -21.476,0.013 -9.369,-14.074 -18.643,-28.22 -27.975,-42.313 -2.744,-4.013 -3.49,-9.324 -1.848,-13.901 1.281,-3.513 4.352,-6.08 7.77,-7.406 6.524,-2.49 12.959,-6.4 16.572,-12.559 2.75,-4.627 2.605,-10.336 1.37,-15.4 -1.45,-6.574 -7.854,-11.746 -14.625,-11.52 -4.683,0.031 -9.358,-0.021 -14.032,0.021 -2.117,-0.049 -4.107,1.791 -4.08,3.934 -0.023,33.047 0.01,66.096 -0.011,99.141 -6.088,-0.013 -12.168,0 -18.257,-0.007 -0.012,-35.575 0.014,-71.153 -0.012,-106.729 0.039,-6.238 4.474,-12.106 10.385,-13.998 z m 75.787,-0.754 h 19.211 c -0.006,40.496 0.014,80.986 -0.012,121.481 -6.396,-0.019 -12.797,0 -19.199,-0.006 z M 54.173,0.008 c 3.076,-0.01 6.153,0 9.229,-0.008 0.013,7.234 0,14.469 0.005,21.701 0.032,6.039 -0.139,12.076 -0.389,18.107 -0.412,8.711 -0.957,17.439 -2.4,26.05 -0.991,5.937 -3.044,11.662 -5.592,17.099 -4.156,8.76 -10.686,16.172 -18.027,22.405 -6.567,5.779 -14.405,9.986 -22.649,12.834 -4.664,1.604 -9.463,2.845 -14.35,3.533 0.005,-6.065 0.005,-12.138 0,-18.203 5.883,-0.883 11.538,-2.971 16.791,-5.729 6.233,-3.295 11.844,-7.729 16.566,-12.953 4.877,-5.395 8.764,-11.641 11.714,-18.271 3.474,-7.625 5.333,-15.861 6.597,-24.109 C 53.252,31.982 53.912,21.376 54.157,10.78 54.192,7.188 54.162,3.596 54.173,0.008 Z M 67.116,0.02 c 5.662,-0.037 11.328,-0.006 16.992,-0.016 0.002,40.574 0.002,81.149 0,121.728 -5.65,0.013 -11.303,-0.026 -16.953,0.021 C 67.083,108.815 67.145,95.874 67.125,82.939 67.118,55.295 67.136,27.658 67.116,0.02 Z M 87.888,0.004 c 3.06,-0.002 6.118,-0.008 9.176,0.002 -0.099,12.371 0.322,24.766 1.797,37.057 1.207,9.547 2.909,19.164 6.711,28.059 3.604,8.605 8.801,16.604 15.572,23.051 6.466,6.166 14.302,10.906 22.815,13.635 2.375,0.76 4.805,1.355 7.274,1.715 -0.003,6.064 -0.006,12.129 0,18.191 -4.852,-0.658 -9.61,-1.908 -14.24,-3.482 -5.514,-1.918 -10.847,-4.4 -15.745,-7.588 -3.576,-2.301 -6.828,-5.053 -9.952,-7.924 -5.149,-4.748 -9.758,-10.146 -13.219,-16.256 -2.708,-4.758 -4.683,-9.9 -6.23,-15.145 C 90.429,66.048 89.824,60.602 89.274,55.184 88.21,43.475 87.812,31.707 87.888,19.954 c 0,-6.649 -0.002,-13.302 0,-19.95 z"
       id="path4" /></g><path
     d="m 54.173,0.008 c -0.01,3.588 0.02,7.18 -0.016,10.77 -0.245,10.596 -0.904,21.201 -2.489,31.684 -1.264,8.248 -3.124,16.484 -6.597,24.109 -2.95,6.635 -6.837,12.879 -11.714,18.271 -4.722,5.229 -10.333,9.658 -16.566,12.953 -5.253,2.764 -10.908,4.85 -16.791,5.73 0.005,6.065 0.005,12.138 0,18.203 4.887,-0.688 9.686,-1.929 14.35,-3.532 8.244,-2.849 16.082,-7.056 22.649,-12.835 7.341,-6.233 13.871,-13.646 18.027,-22.405 2.547,-5.437 4.601,-11.162 5.592,-17.099 1.443,-8.61 1.989,-17.339 2.4,-26.05 C 63.268,33.776 63.439,27.739 63.407,21.7 63.402,14.469 63.415,7.234 63.402,0 60.325,0.008 57.249,-0.002 54.173,0.008 M 67.116,0.02 c 0.02,27.641 0.002,55.275 0.01,82.917 0.02,12.938 -0.042,25.879 0.03,38.815 5.65,-0.051 11.302,-0.012 16.953,-0.021 0.002,-40.574 0.002,-81.15 0,-121.729 C 78.444,0.014 72.778,-0.018 67.116,0.02 M 87.888,0.004 c -0.002,6.648 0,13.301 0,19.949 -0.076,11.754 0.322,23.521 1.386,35.23 0.55,5.418 1.155,10.863 2.573,16.134 1.547,5.244 3.522,10.388 6.23,15.146 3.46,6.108 8.07,11.509 13.219,16.256 3.124,2.871 6.376,5.623 9.952,7.923 4.898,3.188 10.231,5.672 15.745,7.59 4.63,1.574 9.388,2.824 14.24,3.481 -0.006,-6.063 -0.003,-12.127 0,-18.19 -2.47,-0.358 -4.899,-0.955 -7.274,-1.715 -8.513,-2.729 -16.35,-7.47 -22.815,-13.636 C 114.373,81.726 109.177,73.728 105.572,65.121 101.77,56.226 100.068,46.609 98.861,37.06 97.386,24.771 96.965,12.376 97.064,0.005 94.007,-0.004 90.948,0.002 87.888,0.004"
     id="path2"
     style="fill:#6187e5"
     sodipodi:nodetypes="cccccccccccccccccccccccccccccccccccccc" /></g>
<g
   id="path1-3"
   style="opacity:1"><path
     style="baseline-shift:baseline;display:inline;overflow:visible;vector-effect:none;fill:#ffffff;stroke-linecap:round;stroke-linejoin:round;paint-order:markers stroke fill;enable-background:accumulate;stop-color:#000000;stop-opacity:1"
     d="m 561.44531,5.1914062 c -12.7761,0 -23.08984,10.4197388 -23.08984,23.2343748 0,7.871449 4.04375,14.837662 10.14844,18.992188 -6.12781,4.180815 -10.14844,11.244943 -10.14844,19.24414 0,6.478434 2.75775,12.324076 7.1289,16.515625 -4.34452,2.913794 -7.13085,7.968863 -7.13085,13.388672 0,3.202987 0.86176,6.255474 2.45507,8.781254 a 5.0005,5.0005 0 0 0 -1.7207,3.64062 v 13.89258 a 5.0005,5.0005 0 0 0 3.56445,4.78906 l 17.81055,5.33789 a 5.0005,5.0005 0 0 0 5.67578,-3.27734 5.0005,5.0005 0 0 0 0.63281,2.3789 l 3.03711,3.22461 a 5.0005,5.0005 0 0 0 5.97852,0.99024 c 5.68026,-3.00667 8.73437,-8.96787 8.73437,-15.00391 0,-3.57546 -1.06078,-6.98853 -2.9082,-9.85742 a 5.0005,5.0005 0 0 0 2.17383,-3.4375 V 85.617187 a 5.0005,5.0005 0 0 0 -4.34375,-4.728515 c 3.13513,-3.934658 5.09375,-8.841822 5.09375,-14.226563 0,-7.984679 -4.00815,-15.035075 -10.11719,-19.21875 6.08932,-4.15541 10.11719,-11.141228 10.11719,-19.017578 0,-12.814636 -10.3157,-23.2343748 -23.0918,-23.2343748 z m 0.0723,14.2597658 c 5.18681,0 8.97851,3.80476 8.97851,9.195312 0,4.665268 -3.89856,8.539063 -8.97851,8.539063 -5.18694,0 -9.12305,-3.903266 -9.12305,-8.539063 0,-5.593794 3.59671,-9.195312 9.12305,-9.195312 z m 0,38.236328 c 5.18681,0 8.97851,3.80476 8.97851,9.195312 0,4.665268 -3.8977,8.53711 -8.97851,8.53711 -5.18865,0 -9.12305,-3.898555 -9.12305,-8.53711 0,-5.589867 3.59796,-9.195312 9.12305,-9.195312 z m 8.30859,30.371094 v 0.990234 l -0.875,-0.716797 c 0.28816,-0.09988 0.59205,-0.162493 0.875,-0.273437 z m -15.88867,6.697265 c -0.098,0 1.40163,0.609772 3.04883,1.955078 a 5.0005,5.0005 0 0 0 0.004,0.0039 l 8.49805,6.925786 c -2.39994,0.23575 -4.72253,0.9357 -6.82422,2.07421 v -2.47461 a 5.0005,5.0005 0 0 0 -4.66992,-4.988277 c -0.93134,-0.06181 -1.68164,-0.824137 -1.68164,-1.685547 0,-0.811151 0.9428,-1.810547 1.625,-1.810547 z m 13.11328,22.867191 c 2.00829,0 3.51367,1.42881 3.51367,3.375 0,0.69286 -1.49266,2.85238 -1.84375,2.97851 a 5.0005,5.0005 0 0 0 -2.25781,2.51953 5.0005,5.0005 0 0 0 -1.48047,-3.04101 c -0.56232,-0.44079 -1.16797,-1.68902 -1.16797,-2.55469 0,-1.64651 1.61941,-3.27734 3.23633,-3.27734 z"
     id="path5" /><path
     style="baseline-shift:baseline;display:inline;overflow:visible;vector-effect:none;fill:#6187e5;stroke-linecap:round;stroke-linejoin:round;paint-order:markers stroke fill;enable-background:accumulate;stop-color:#000000;stop-opacity:1"
     d="m 548.04925,119.89436 7.135,2.162 -0.141,-2.439 c 0,-6.717 5.752,-11.135 12.146,-11.135 7.318,0 12.332,5.705 12.332,12.838 0,4.281 -2.254,8.562 -6.074,10.584 l -3.037,-3.223 c 2.945,-1.058 5.154,-4.601 5.154,-7.683 0,-4.692 -3.865,-8.375 -8.514,-8.375 -4.465,0 -8.236,3.815 -8.236,8.278 0,2.438 1.15,4.972 3.084,6.488 v 0.829 l -17.811,-5.338 v -13.892 h 3.957 v 10.906 z m 26.782,-34.277001 h 3.955 v 22.408001 l -18.637,-15.187001 c -1.746,-1.426 -3.91,-3.082 -6.211,-3.082 -3.636,0 -6.625,3.222 -6.625,6.81 0,3.545001 2.854,6.442001 6.35,6.674001 v 4.324 c -6.166,-0.688 -10.309,-4.692 -10.309,-10.998001 0,-5.89 4.371,-10.949 10.398,-10.949 2.576,0 5.152,0.968 7.134,2.574 l 13.94,11.412 v -13.986 z m -31.475,-18.955 c 0,9.936 8.146,18.018 18.162,18.018 9.936,0 18.018,-8.082 18.018,-18.018 0,-10.225 -7.944,-18.234 -18.09,-18.234 -10.146,0 -18.09,8.009 -18.09,18.234 z m 18.162,-13.975 c 7.838,0 13.977,6.234 13.977,14.195 0,7.465 -6.27,13.537 -13.977,13.537 -7.787,0 -14.123,-6.07 -14.123,-13.537 0,-8.091 6.071,-14.195 14.123,-14.195 z m -18.162,-24.262 c 0,9.936 8.146,18.018 18.162,18.018 9.936,0 18.018,-8.082 18.018,-18.018 0,-10.224 -7.946,-18.234 -18.09,-18.234 -10.144,0 -18.09,8.01 -18.09,18.234 z m 18.162,-13.974 c 7.838,0 13.977,6.234 13.977,14.195 0,7.465 -6.27,13.539 -13.977,13.539 -7.787,0 -14.123,-6.074 -14.123,-13.539 0,-8.094 6.071,-14.195 14.123,-14.195 z"
     id="path6" /></g></svg>
