<?xml version="1.0" encoding="UTF-8" standalone="no"?>
<!-- Generator: Adobe Illustrator 25.0.0, SVG Export Plug-In . SVG Version: 6.00 Build 0)  -->

<svg
   version="1.1"
   id="Layer_1"
   x="0px"
   y="0px"
   viewBox="0 0 3994 649.99997"
   xml:space="preserve"
   sodipodi:docname="atari800.svg"
   width="3994"
   height="650"
   inkscape:version="1.4.3 (0d15f75042, 2025-12-25)"
   xmlns:inkscape="http://www.inkscape.org/namespaces/inkscape"
   xmlns:sodipodi="http://sodipodi.sourceforge.net/DTD/sodipodi-0.dtd"
   xmlns="http://www.w3.org/2000/svg"
   xmlns:svg="http://www.w3.org/2000/svg"><defs
   id="defs18">
	
	
	

		
		
		
	
		
		
		
		
		
	
			
			
		
			
			
		
			
			
			
		</defs><sodipodi:namedview
   id="namedview18"
   pagecolor="#bbbbbb"
   bordercolor="#000000"
   borderopacity="0.25"
   inkscape:showpageshadow="2"
   inkscape:pageopacity="0.0"
   inkscape:pagecheckerboard="0"
   inkscape:deskcolor="#d1d1d1"
   inkscape:zoom="0.23111979"
   inkscape:cx="1557.6338"
   inkscape:cy="322.34366"
   inkscape:window-width="1920"
   inkscape:window-height="1080"
   inkscape:window-x="0"
   inkscape:window-y="0"
   inkscape:window-maximized="0"
   inkscape:current-layer="Layer_1" />
<style
   type="text/css"
   id="style1">
	.st0{fill:#FFC20B;}
	.st1{fill:#353535;}
	.st2{fill:#FFFFFF;}
	.st3{fill:#9F3A35;}
</style>
<g
   id="g60"><g
     id="g19"
     style="stroke-width:80;stroke-dasharray:none;paint-order:markers stroke fill"
     transform="translate(40,40)"><g
       id="g5"
       style="stroke:#ffffff;stroke-width:80;stroke-linecap:round;stroke-linejoin:round;stroke-dasharray:none;stroke-opacity:1;paint-order:markers stroke fill">
		<g
   id="path1"
   class="st1"
   style="opacity:1"><path
     style="baseline-shift:baseline;display:inline;overflow:visible;vector-effect:none;fill:#ffffff;stroke:none;enable-background:accumulate;stop-color:#000000;stop-opacity:1"
     d="M 59.800781,-25.199219 C 5.0973365,-25.199219 -40,19.896165 -40,74.599609 V 495.30078 c 0,54.70345 45.0973365,99.79883 99.800781,99.79883 H 480.5 c 54.70344,0 99.80078,-45.09538 99.80078,-99.79883 V 74.599609 a 40.004,40.004 0 0 0 0,-0.121093 C 580.13496,19.922697 535.20344,-25.199219 480.5,-25.199219 Z m 0,80 H 480.5 c 11.09656,0 19.7666,8.675741 19.80078,19.919922 V 495.30078 c 0,11.09656 -8.70422,19.79883 -19.80078,19.79883 H 59.800781 C 48.704226,515.09961 40,506.39734 40,495.30078 V 74.599609 C 40,63.503054 48.704226,54.800781 59.800781,54.800781 Z"
     id="path20" /><path
     style="baseline-shift:baseline;display:inline;overflow:visible;vector-effect:none;fill:#353535;stroke:none;enable-background:accumulate;stop-color:#000000;stop-opacity:1"
     d="M 480.5,14.8 H 59.8 C 26.9,14.8 0,41.7 0,74.6 v 420.7 c 0,32.9 26.9,59.8 59.8,59.8 h 420.7 c 32.9,0 59.8,-26.9 59.8,-59.8 V 74.6 C 540.2,41.7 513.4,14.8 480.5,14.8 Z"
     id="path21" /></g>
		<g
   id="g4"
   style="stroke:#ffffff;stroke-width:80;stroke-linecap:round;stroke-linejoin:round;stroke-dasharray:none;stroke-opacity:1;paint-order:markers stroke fill">
			<g
   id="path2"
   class="st2"
   style="opacity:1"><path
     style="baseline-shift:baseline;display:inline;overflow:visible;vector-effect:none;fill:#ffffff;stroke:none;enable-background:accumulate;stop-color:#000000;stop-opacity:1"
     d="m 208.2,117 c 8.9,0 17.8,0 26.7,0 0,20.9 0,41.8 0,62.7 0.1,17.5 -0.4,34.9 -1.1,52.3 -1.2,25.2 -2.8,50.4 -6.9,75.3 -2.9,17.2 -8.8,33.7 -16.2,49.4 -12,25.3 -30.9,46.7 -52.1,64.7 -19,16.7 -41.6,28.9 -65.5,37.1 -13.5,4.6 -27.3,8.2 -41.5,10.2 0,-17.5 0,-35.1 0,-52.6 17,-2.6 33.3,-8.6 48.5,-16.6 18,-9.5 34.2,-22.3 47.9,-37.4 14.1,-15.6 25.3,-33.6 33.9,-52.8 10,-22 15.4,-45.8 19.1,-69.7 4.6,-30.3 6.5,-60.9 7.2,-91.6 0,-10.2 -0.1,-20.6 0,-31 z"
     id="path23" /></g>
			<g
   id="path3"
   class="st2"
   style="opacity:1"><path
     style="baseline-shift:baseline;display:inline;overflow:visible;vector-effect:none;fill:#ffffff;stroke:none;enable-background:accumulate;stop-color:#000000;stop-opacity:1"
     d="m 245.6,117 c 16.4,-0.1 32.7,0 49.1,0 0,117.2 0,234.5 0,351.8 -16.3,0 -32.7,-0.1 -49,0.1 -0.2,-37.4 0,-74.8 -0.1,-112.2 0,-79.9 0,-159.8 0,-239.7 z"
     id="path25" /></g>
			<g
   id="path4"
   class="st2"
   style="opacity:1"><path
     style="baseline-shift:baseline;display:inline;overflow:visible;vector-effect:none;fill:#ffffff;stroke:none;enable-background:accumulate;stop-color:#000000;stop-opacity:1"
     d="m 305.6,117 c 8.8,0 17.7,0 26.5,0 -0.3,35.7 0.9,71.6 5.2,107.1 3.5,27.6 8.4,55.4 19.4,81.1 10.4,24.9 25.4,48 45,66.6 18.7,17.8 41.3,31.5 65.9,39.4 6.9,2.2 13.9,3.9 21,5 0,17.5 0,35 0,52.6 -14,-1.9 -27.8,-5.5 -41.2,-10.1 -15.9,-5.5 -31.3,-12.7 -45.5,-21.9 -10.3,-6.6 -19.7,-14.6 -28.8,-22.9 -14.9,-13.7 -28.2,-29.3 -38.2,-47 -7.8,-13.7 -13.5,-28.6 -18,-43.8 -4.1,-15.2 -5.8,-31 -7.4,-46.6 -3.1,-33.8 -4.2,-67.8 -4,-101.8 0.1,-19.3 0.1,-38.5 0.1,-57.7 z"
     id="path27" /></g>
		</g>
	</g></g></g><g
   id="g61"><g
     id="path5"
     class="st1"
     style="stroke:#ffffff;stroke-width:80;stroke-linecap:round;stroke-linejoin:round;stroke-dasharray:none;stroke-opacity:1;paint-order:markers stroke fill"
     transform="translate(40,40)"><path
       style="baseline-shift:baseline;display:inline;overflow:visible;vector-effect:none;fill:#ffffff;stroke:none;enable-background:accumulate;stop-color:#000000;stop-opacity:1"
       d="m 843.33594,-26.609375 c -29.69141,0.01159 -59.06609,13.030679 -79.35352,37.722656 a 40,40 0 0 0 -0.20117,0.152344 c -0.23161,0.263019 -0.39007,0.525913 -0.61719,0.789063 -0.28718,0.358146 -0.61117,0.668286 -0.89453,1.03125 a 40,40 0 0 0 -0.16016,0.316406 c -20.50191,24.586604 -22.04902,49.400061 -25.50195,59.886718 a 40.004,40.004 0 0 0 -0.41211,1.328125 C 690.58654,231.24733 645.18006,387.86818 599.87695,544.37891 A 40.004,40.004 0 0 0 638.15625,595.5 c 28.19047,0.10068 56.19047,2.9e-4 84,0.0996 a 40.004,40.004 0 0 0 38.57617,-28.91016 c 10.31194,-35.73756 20.73703,-71.40065 31.17578,-107.07226 34.43214,0.0253 68.84246,0.0392 103.23633,0.0645 10.2993,35.68192 20.56213,71.37652 31.07617,107.1875 a 40.004,40.004 0 0 0 38.52149,28.73047 c 28.01121,-0.0993 56.06281,0 84.35741,0 a 40.004,40.004 0 0 0 38.418,-51.13672 C 1039.8997,380.20116 991.89914,216.09408 944.21289,51.941406 l 0.0254,0.09375 C 938.463,31.973655 927.25551,13.064755 910.22852,-1.46875 c -19.4658,-16.955801 -43.256,-25.149849 -66.89258,-25.140625 z m 2.61914,81.898437 c 4.7695,0.143589 9.15908,1.295827 11.78906,3.59961 a 40.004,40.004 0 0 0 0.49219,0.423828 c 3.81731,3.235625 7.33155,8.62364 9.125,14.853516 a 40.004,40.004 0 0 0 0.0273,0.0918 C 910.148,221.45044 953.09068,368.51123 995.80269,515.59961 c -0.38444,-9e-5 -0.76784,6e-5 -1.15234,0 C 984.27734,479.97646 973.96408,444.34057 963.625,408.58789 a 40.004,40.004 0 0 0 -38.35156,-28.88867 c -2.53497,-0.005 -5.04791,-8e-5 -7.58203,-0.004 a 40.004,40.004 0 0 0 23.61718,-48.26367 C 921.51867,263.36631 901.81985,195.26748 882.00977,127.13281 a 40.004,40.004 0 0 0 -76.78516,-0.11914 c -20.05691,68.1935 -39.56058,136.41092 -59.41406,204.25195 a 40.004,40.004 0 0 0 23.55468,48.3379 c -2.45864,-0.004 -4.93434,6.1e-4 -7.39257,-0.004 a 40.004,40.004 0 0 0 -38.45313,28.73242 c -10.48505,35.71224 -20.861,71.46193 -31.22461,107.23242 -0.25244,-7e-5 -0.50345,-0.002 -0.75586,-0.002 40.36409,-139.39545 80.77667,-278.83826 121.38281,-418.289063 6.90755,-21.083193 9.58237,-31.644151 10.89844,-33.138671 a 40,40 0 0 0 0.60156,-1.03711 40,40 0 0 0 0.90821,-0.783203 c 3.67091,-4.702266 12.67583,-7.264705 20.625,-7.025391 z m -2.39649,226.361328 c 2.02156,6.96902 4.04381,13.93456 6.06641,20.9043 -4.0479,9.2e-4 -8.09945,-0.009 -12.14453,-0.01 2.02414,-6.9747 4.05775,-13.92186 6.07812,-20.89453 z"
       id="path51" /><path
       style="baseline-shift:baseline;display:inline;overflow:visible;vector-effect:none;fill:#353535;stroke:none;enable-background:accumulate;stop-color:#000000;stop-opacity:1"
       d="m 793.8,37.7 c 21,-26.9 64.5,-31.5 90.3,-8.9 10.5,8.9 17.9,21.1 21.7,34.3 47.7,164.2 95.7,328.3 143.3,492.5 -28.2,0 -56.3,-0.1 -84.5,0 -13.3,-45.3 -26.3,-90.6 -39.4,-135.9 -54.5,-0.1 -108.9,0 -163.3,-0.1 -13.3,45.3 -26.5,90.6 -39.6,136 -28,-0.1 -56,0 -84,-0.1 C 683.6,399 729,242.4 774.6,85.8 780,69.4 782,51.1 793.8,37.7 m 49.8,100.6 c -20,68 -39.5,136.2 -59.4,204.2 39.6,0.2 79.1,0.1 118.7,0.1 -19.8,-68.1 -39.5,-136.2 -59.3,-204.3 z"
       id="path52" /></g><g
     id="path6"
     class="st1"
     style="stroke:#ffffff;stroke-width:80;stroke-linecap:round;stroke-linejoin:round;stroke-dasharray:none;stroke-opacity:1;paint-order:markers stroke fill"
     transform="translate(40,40)"><path
       style="baseline-shift:baseline;display:inline;overflow:visible;vector-effect:none;fill:#ffffff;stroke:none;enable-background:accumulate;stop-color:#000000;stop-opacity:1"
       d="m 1441.543,-25.917969 c -33.6842,-0.962117 -66.0485,14.609351 -86.3575,43.054688 a 40,40 0 0 0 -0.1171,0.105468 c -0.1308,0.174843 -0.2207,0.342958 -0.3496,0.517579 -0.1736,0.246929 -0.3674,0.47186 -0.5391,0.720703 a 40,40 0 0 0 -0.096,0.21875 c -16.3739,22.681506 -17.8932,43.319092 -20.75,51.710937 a 40.004,40.004 0 0 0 -0.5547,1.759766 c -45.5867,157.354958 -91.4928,314.778558 -136.82,472.373048 a 40.004,40.004 0 0 0 38.4414,51.05664 h 83.9004 a 40.004,40.004 0 0 0 38.4472,-28.9668 c 10.182,-35.48033 20.6401,-71.19432 31.002,-106.93359 34.2961,-0.0231 68.616,-0.0168 102.9707,0 10.3278,35.66215 20.6143,71.36153 30.9531,107.11328 a 40.004,40.004 0 0 0 38.5684,28.88672 c 27.9163,-0.099 56.164,0.10307 84.7422,-0.0996 a 40.004,40.004 0 0 0 38.125,-51.16406 C 1635.404,380.31698 1587.6048,216.3158 1539.9102,52.234375 l 0.205,0.728516 c -9.5069,-35.17553 -35.9815,-66.190688 -75.3945,-75.56836 -7.7072,-1.987739 -15.4755,-3.092502 -23.1777,-3.3125 z m 0.2031,80.31836 c 1.1037,0.0599 2.1613,0.215026 3.1445,0.474609 a 40.004,40.004 0 0 0 1.1895,0.294922 c 6.0481,1.399772 14.3608,9.623756 16.8047,18.666015 a 40.004,40.004 0 0 0 0.205,0.728516 c 42.7526,147.079377 85.5716,294.066737 128.3321,441.099607 -0.4193,-3.8e-4 -0.8346,0.002 -1.2539,0.002 -10.2867,-35.67664 -20.543,-71.39026 -30.9649,-107.15625 a 40.004,40.004 0 0 0 -38.4023,-28.81055 c -2.5405,0 -5.0866,4.1e-4 -7.627,0 a 40.004,40.004 0 0 0 23.6739,-48.13281 c -19.6356,-68.42392 -39.5364,-136.52935 -59.1036,-204.61524 a 40.004,40.004 0 0 0 -76.8886,0 c -19.5701,68.09586 -39.4697,136.29547 -59.0996,204.59961 a 40.004,40.004 0 0 0 23.6406,48.14844 c -2.5942,0.004 -5.1746,-0.005 -7.7695,0 a 40.004,40.004 0 0 0 -38.375,28.9668 c -10.1819,35.47985 -20.6403,71.1948 -31.002,106.93359 h -0.6191 c 40.4588,-140.28064 81.25,-280.54468 121.9023,-420.865235 6.1958,-18.385886 8.6267,-28.277979 9.5977,-29.576172 a 40,40 0 0 0 0.3339,-0.697266 40,40 0 0 0 0.5567,-0.541015 c 3.9307,-5.695529 13.9989,-9.938844 21.7246,-9.519531 z m -2.4453,227.740229 c 1.9725,6.81566 3.9388,13.6435 5.9082,20.45899 -3.9404,0.003 -7.88,-0.002 -11.8184,0 1.9697,-6.8145 3.9375,-13.6424 5.9102,-20.45899 z"
       id="path53" /><path
       style="baseline-shift:baseline;display:inline;overflow:visible;vector-effect:none;fill:#353535;stroke:none;enable-background:accumulate;stop-color:#000000;stop-opacity:1"
       d="m 1387.1,41.2 c 14.7,-21.3 43,-31.6 68,-25 22.9,5.3 40.4,25 46.4,47.2 47.7,164.1 95.5,328.1 143.2,492.2 -28.2,0.2 -56.4,0 -84.6,0.1 -13.1,-45.3 -26.1,-90.7 -39.3,-136 -54.4,0 -108.7,-0.1 -163.1,0 -13,45.3 -26.4,90.6 -39.4,135.9 -28,0 -55.9,0 -83.9,0 45.3,-157.5 91.2,-314.9 136.8,-472.3 4.8,-14.1 6.7,-29.8 15.9,-42.1 m -6.9,301.4 c 39.4,0.1 78.8,0 118.2,0 -19.6,-68.3 -39.5,-136.4 -59.1,-204.6 -19.6,68.2 -39.5,136.4 -59.1,204.6 z"
       id="path54" /></g><g
     id="path7"
     class="st1"
     style="stroke:#ffffff;stroke-width:80;stroke-linecap:round;stroke-linejoin:round;stroke-dasharray:none;stroke-opacity:1;paint-order:markers stroke fill"
     transform="translate(40,40)"><path
       style="baseline-shift:baseline;display:inline;overflow:visible;vector-effect:none;fill:#ffffff;stroke:none;enable-background:accumulate;stop-color:#000000;stop-opacity:1"
       d="m 986.09961,-24.599609 a 40.004,40.004 0 0 0 -40,39.853515 c -0.1007,27.693583 0,55.143845 0,82.546875 a 40.004,40.004 0 0 0 40,39.999999 c 24.23519,0 48.35359,0.003 72.49999,0 v 417.79883 a 40.004,40.004 0 0 0 40,40 h 80.5996 a 40.004,40.004 0 0 0 40,-40 V 137.80078 h 72.5 a 40.004,40.004 0 0 0 40,-39.999999 v -82.40039 a 40.004,40.004 0 0 0 -40,-40 z m 39.99999,80 h 225.5996 v 2.40039 h -72.5 a 40.004,40.004 0 0 0 -40,40 V 515.59961 h -0.5996 V 97.800781 a 40.004,40.004 0 0 0 -39.8926,-40 c -24.2711,-0.06472 -48.425,-0.02144 -72.6074,0 -8e-4,-0.799746 7e-4,-1.600892 0,-2.40039 z"
       id="path55" /><path
       style="baseline-shift:baseline;display:inline;overflow:visible;vector-effect:none;fill:#353535;stroke:none;enable-background:accumulate;stop-color:#000000;stop-opacity:1"
       d="m 986.1,15.4 c 101.9,0 203.8,0 305.6,0 0,27.5 0,54.9 0,82.4 -37.5,0 -75,0 -112.5,0 0,152.6 0,305.2 0,457.8 -26.9,0 -53.7,0 -80.6,0 0,-152.6 0,-305.2 0,-457.8 -37.5,-0.1 -75,0 -112.5,0 0,-27.5 -0.1,-54.9 0,-82.4 z"
       id="path56" /></g><g
     id="path8"
     class="st1"
     style="stroke:#ffffff;stroke-width:80;stroke-linecap:round;stroke-linejoin:round;stroke-dasharray:none;stroke-opacity:1;paint-order:markers stroke fill"
     transform="translate(40,40)"><path
       style="baseline-shift:baseline;display:inline;overflow:visible;vector-effect:none;fill:#ffffff;stroke:none;enable-background:accumulate;stop-color:#000000;stop-opacity:1"
       d="m 1758.625,-24.699219 0.8496,0.01172 c -11.6614,-0.284424 -24.5956,0.890752 -37.998,5.521484 C 1678.1754,-5.0307813 1648.3008,34.541144 1648.3008,81 a 40.004,40.004 0 0 0 0,0.05078 c 0.1999,158.23264 -4e-4,316.42326 0.1,474.67383 a 40.004,40.004 0 0 0 40,39.97461 c 27.1984,0 54.1492,-0.0993 81.0527,0 a 40.004,40.004 0 0 0 40.1465,-40 c 0,-38.21641 0.01,-76.39884 0,-114.60156 30.0549,45.5751 60.0365,91.18038 90.4102,136.77734 a 40.004,40.004 0 0 0 33.541,17.82422 c 31.464,-0.19789 63.3231,10e-4 95.375,-0.0996 a 40.004,40.004 0 0 0 33.164,-62.17578 c -40.1906,-60.33213 -80.821,-119.89231 -119.9472,-179.80469 10.3222,-6.04608 22.7908,-13.49845 36.0449,-25.26758 37.268,-32.32331 55.9649,-78.30161 59.4805,-123.56836 4.4217,-38.79589 3.0789,-83.01316 -17.9239,-124.20117 -30.3578,-62.495069 -94.1367,-103.982069 -164.1054,-105.27539 a 40.004,40.004 0 0 0 -0.7383,-0.0059 c -32.1831,0 -64.3418,0.09948 -96.2754,0 z m -1.0996,79.988281 a 40.004,40.004 0 0 0 0.8496,0.01172 c 32.0634,0.09989 64.0997,0.0012 95.918,0 37.975,0.759424 77.1301,26.208977 93.666,60.552738 a 40.004,40.004 0 0 0 0.4453,0.89453 c 10.9669,21.39213 13.234,50.01047 9.6719,80.1582 a 40.004,40.004 0 0 0 -0.1582,1.61719 c -2.098,27.19861 -13.9277,53.66555 -32.2657,69.50586 a 40.004,40.004 0 0 0 -0.4648,0.4082 c -8.3613,7.45125 -25.364,15.16849 -46.0918,30.51758 a 40.004,40.004 0 0 0 -0.3711,0.27734 c -14.0345,10.64691 -21.1314,26.70385 -22.7851,40.39649 -1.4781,12.23814 0.4421,23.37123 4.8847,33.88671 -6.1937,-9.38123 -12.3597,-18.71353 -18.5683,-28.09375 a 40.004,40.004 0 0 0 -0.3614,-0.53515 c -4.7184,-6.88421 -6.1729,-18.17128 -3.5781,-25.5332 0.8214,-2.12276 4.9634,-6.74311 11.457,-9.26368 l -0.1738,0.0664 c 33.8186,-12.94435 71.016,-34.11455 93.8535,-72.94336 19.6603,-33.25196 17.5041,-69.22641 10.6309,-97.70898 -10.9007,-48.990656 -54.1498,-83.98101 -105.3125,-82.281253 l 1.1367,-0.02148 c -20.4154,0.09815 -41.281,-0.103368 -62.5937,0.101562 l 1.2363,0.0059 c -33.1835,-0.706031 -59.6772,23.38387 -58.9414,58.333981 l -0.01,-0.86914 c -0.091,133.69805 -0.014,267.28966 0,400.92773 -0.4021,3.6e-4 -0.805,-0.002 -1.207,-0.002 -0.05,-144.82515 0.091,-289.6843 -0.092,-434.699215 0,-8.903118 9.2309,-21.342219 18.1699,-24.197266 a 40.004,40.004 0 0 0 1.0645,-0.355468 c 1.8492,-0.648424 5.3722,-1.270838 9.9902,-1.158204 z m 93.9023,81.888668 c 8.9197,-0.29633 22.5761,10.55283 24.5996,19.78516 a 40.004,40.004 0 0 0 0.2168,0.93555 c 4.0106,16.40665 2.8987,30.91814 -1.6621,38.61914 a 40.004,40.004 0 0 0 -0.068,0.11719 c -9.3651,15.93811 -29.3454,29.55871 -53.5117,38.80859 a 40.004,40.004 0 0 0 -0.1758,0.0664 c -3.7823,1.46811 -7.5236,3.2442 -11.2266,5.16601 0,-34.46635 -0.019,-68.94145 0,-103.41211 13.4737,-0.004 26.8357,0.002 40.6934,-0.0644 a 40.004,40.004 0 0 0 1.1347,-0.0215 z"
       id="path57" /><path
       style="baseline-shift:baseline;display:inline;overflow:visible;vector-effect:none;fill:#353535;stroke:none;enable-background:accumulate;stop-color:#000000;stop-opacity:1"
       d="m 1734.3,18.7 c 7.7,-2.7 16,-3.6 24.2,-3.4 32.1,0.1 64.3,0 96.4,0 54.1,1 105.7,34.6 129.1,83.2 16.2,31.6 17.9,68.4 13.8,103.1 -2.8,36.3 -18.1,72.6 -46,96.7 -14.7,13.1 -33.1,21.1 -48.9,32.8 -8.7,6.6 -9.1,19.4 -4.6,28.6 42.6,65.8 87,130.6 130.5,195.9 -31.8,0.1 -63.7,-0.1 -95.5,0.1 -41.7,-62.6 -82.9,-125.5 -124.4,-188.2 -12.2,-17.8 -15.5,-41.5 -8.2,-61.8 5.7,-15.6 19.4,-27 34.6,-32.9 29,-11.1 57.6,-28.5 73.7,-55.9 12.2,-20.6 11.6,-46 6.1,-68.5 -6.4,-29.2 -34.9,-52.2 -65,-51.2 -20.8,0.1 -41.6,-0.1 -62.4,0.1 -9.4,-0.2 -18.3,8 -18.1,17.5 -0.1,147 0,293.9 0,440.9 -27.1,-0.1 -54.1,0 -81.2,0 -0.1,-158.2 0.1,-316.4 -0.1,-474.7 0,-27.8 19.7,-53.9 46,-62.3 z"
       id="path58" /></g><g
     id="path9"
     class="st1"
     style="stroke:#ffffff;stroke-width:80;stroke-linecap:round;stroke-linejoin:round;stroke-dasharray:none;stroke-opacity:1;paint-order:markers stroke fill"
     transform="translate(40,40)"><path
       style="baseline-shift:baseline;display:inline;overflow:visible;vector-effect:none;fill:#ffffff;stroke:none;enable-background:accumulate;stop-color:#000000;stop-opacity:1"
       d="m 2071.3008,-24.599609 a 40.004,40.004 0 0 0 -40,40 c 0,179.999999 0,360.092129 -0.1016,540.277339 a 40.004,40.004 0 0 0 40,40.02149 c 28.5936,0 57.0479,-0.0993 85.2598,0 a 40.004,40.004 0 0 0 40.1406,-39.95508 c 0.2001,-180.14442 0.1,-360.25856 0.1,-540.343749 a 40.004,40.004 0 0 0 -40,-40 z m 39.9922,80 h 5.3984 c 0.011,153.455009 0.05,306.888769 -0.084,460.300779 -1.801,10e-4 -3.6001,-0.004 -5.4004,-0.002 0.073,-153.51086 0.086,-306.94385 0.086,-460.298829 z"
       id="path59" /><path
       style="baseline-shift:baseline;display:inline;overflow:visible;vector-effect:none;fill:#353535;stroke:none;enable-background:accumulate;stop-color:#000000;stop-opacity:1"
       d="m 2071.3,15.4 c 28.5,0 56.9,0 85.4,0 0,180.1 0.1,360.2 -0.1,540.3 -28.4,-0.1 -56.9,0 -85.4,0 0.1,-180.2 0.1,-360.3 0.1,-540.3 z"
       id="path60" /></g></g><g
   id="path10"
   class="st3"
   style="stroke:#ffffff;stroke-width:80;stroke-linecap:round;stroke-linejoin:round;stroke-dasharray:none;stroke-opacity:1;paint-order:markers stroke fill"
   transform="translate(40,40)"><path
     style="baseline-shift:baseline;display:inline;overflow:visible;vector-effect:none;fill:#ffffff;stroke:none;enable-background:accumulate;stop-color:#000000;stop-opacity:1"
     d="m 2478.8008,53.300781 c -50.6092,0 -92.6016,41.873035 -92.6016,92.599609 0,50.63494 41.9666,92.59961 92.6016,92.59961 50.6092,0 92.5996,-41.87303 92.5996,-92.59961 0,-50.634936 -41.9647,-92.599609 -92.5996,-92.599609 z m 0,105.199219 C -40,-40 -40,-40 2478.8008,158.5 Z"
     id="path28"
     sodipodi:nodetypes="sssssss" /><path
     style="baseline-shift:baseline;display:inline;overflow:visible;vector-effect:none;fill:#9f3a35;stroke:none;enable-background:accumulate;stop-color:#000000;stop-opacity:1"
     d="m 2478.8,198.5 c 29,0 52.6,-23.5 52.6,-52.6 0,-29.1 -23.5,-52.6 -52.6,-52.6 -29,0 -52.6,23.5 -52.6,52.6 0,29.1 23.5,52.6 52.6,52.6 z m 0,-70.4 c 9.8,0 17.8,8 17.8,17.8 0,9.8 -8,17.8 -17.8,17.8 -9.8,0 -17.8,-8 -17.8,-17.8 0,-9.8 7.9,-17.8 17.8,-17.8 z"
     id="path29" /></g><g
   id="g62"><g
     id="path11"
     class="st3"
     style="stroke:#ffffff;stroke-width:80;stroke-linecap:round;stroke-linejoin:round;stroke-dasharray:none;stroke-opacity:1;paint-order:markers stroke fill"
     transform="translate(40,40)"><path
       style="baseline-shift:baseline;display:inline;overflow:visible;vector-effect:none;fill:#ffffff;stroke:none;enable-background:accumulate;stop-color:#000000;stop-opacity:1"
       d="M 2478.8008,-40 C 2375.3954,-40 2290.5,44.78929 2290.5,148.30078 c 0,16.32974 2.343,32.40322 6.4551,47.97852 -41.3919,44.91686 -65.0547,104.10881 -65.0547,166.82031 0,135.7076 111.0912,246.80078 246.7988,246.80078 135.6965,0 246.7826,-111.07514 246.8008,-246.76758 0.095,-62.72297 -23.5377,-121.98647 -64.9492,-166.87695 4.108,-15.56808 6.4492,-31.6335 6.4492,-47.95508 C 2667,44.82189 2582.2062,-40 2478.8008,-40 Z m 0,114.599609 c 41.0945,0 73.5,32.405531 73.5,73.500001 0,16.80775 -25.4236,42.57739 -34.9472,55.12225 -14.2662,18.79673 -10.7763,38.14542 30.7089,47.49884 37.6699,23.29386 62.8289,64.4951 62.8379,112.25391 -0.087,73.5231 -58.7196,132.125 -132.0996,132.125 -73.386,0 -132.1016,-58.61896 -132.1016,-132.09961 0,-47.76968 25.1253,-88.88183 62.8887,-112.31055 41.4466,-12.43031 43.3803,-37.86824 10.7715,-58.17578 -9.5236,-12.54486 -15.0586,-27.60631 -15.0586,-44.41406 0,-41.09447 32.4055,-73.500001 73.5,-73.500001 z"
       id="path30"
       sodipodi:nodetypes="sscssccsssscccssccss" /><path
       style="baseline-shift:baseline;display:inline;overflow:visible;vector-effect:none;fill:#9f3a35;stroke:none;enable-background:accumulate;stop-color:#000000;stop-opacity:1"
       d="m 2614.7,207.4 c 8.1,-18.5 12.3,-38.5 12.3,-59.1 C 2627,66.5 2560.5,0 2478.8,0 c -81.7,0 -148.3,66.5 -148.3,148.3 0,20.6 4.2,40.6 12.3,59.1 -44.9,39 -70.9,95.1 -70.9,155.7 0,114 92.8,206.8 206.8,206.8 114,0 206.8,-92.8 206.8,-206.8 0.1,-60.6 -25.9,-116.8 -70.8,-155.7 z m -135.9,327.7 c -95,0 -172.1,-77 -172.1,-172.1 0,-61.9 32.8,-115.9 81.8,-146.3 -14.5,-19.1 -23.2,-42.8 -23.2,-68.6 0,-62.7 50.8,-113.5 113.5,-113.5 62.7,0 113.5,50.8 113.5,113.5 0,25.8 -8.7,49.5 -23.2,68.6 49,30.3 81.8,84.4 81.8,146.3 -0.1,95.1 -77.1,172.1 -172.1,172.1 z"
       id="path31" /></g><g
     id="path12"
     class="st3"
     style="stroke:#ffffff;stroke-width:80;stroke-linecap:round;stroke-linejoin:round;stroke-dasharray:none;stroke-opacity:1;paint-order:markers stroke fill"
     transform="translate(40,40)"><path
       style="baseline-shift:baseline;display:inline;overflow:visible;vector-effect:none;fill:#ffffff;stroke:none;enable-background:accumulate;stop-color:#000000;stop-opacity:1"
       d="M 2478.8008,223.19922 C 2400.4045,223.19922 2336,287.60376 2336,366 c 0,78.39624 64.4045,142.80078 142.8008,142.80078 78.3962,0 142.7988,-64.40454 142.7988,-142.80078 0,-78.44319 -64.4645,-142.80078 -142.7988,-142.80078 z m 0,114.70117 c 15.8111,0 28,12.18889 28,28 0,15.81111 -12.1889,28 -28,28 -15.8111,0 -28,-12.18889 -28,-28 0,-15.81111 12.1889,-28 28,-28 z"
       id="path32"
       sodipodi:nodetypes="ssssssssss" /><path
       style="baseline-shift:baseline;display:inline;overflow:visible;vector-effect:none;fill:#9f3a35;stroke:none;enable-background:accumulate;stop-color:#000000;stop-opacity:1"
       d="m 2478.8,263.2 c -56.8,0 -102.8,46 -102.8,102.8 0,56.8 46,102.8 102.8,102.8 56.8,0 102.8,-46 102.8,-102.8 0,-56.8 -46.1,-102.8 -102.8,-102.8 z m 0,170.7 c -37.5,0 -68,-30.5 -68,-68 0,-37.5 30.5,-68 68,-68 37.5,0 68,30.5 68,68 0,37.5 -30.5,68 -68,68 z"
       id="path33" /></g><g
     id="path13"
     class="st3"
     style="stroke:#ffffff;stroke-width:80;stroke-linecap:round;stroke-linejoin:round;stroke-dasharray:none;stroke-opacity:1;paint-order:markers stroke fill"
     transform="translate(82,40)"><path
       style="baseline-shift:baseline;display:inline;overflow:visible;vector-effect:none;fill:#ffffff;stroke:none;enable-background:accumulate;stop-color:#000000;stop-opacity:1"
       d="m 2974.9004,-40 c -178.7932,0 -325,146.10365 -325,325 0,178.79319 146.1036,325 325,325 178.7847,0 324.8865,-146.10685 324.9004,-324.97461 v -0.0137 C 3299.9071,106.10785 3153.689,-40 2974.9004,-40 Z m 0,114.800781 c 116.2031,0 210.1992,93.899699 210.1992,210.199219 0,116.20312 -93.8997,210.19922 -210.1992,210.19922 -116.2995,0 -210.2012,-93.9961 -210.2012,-210.19922 0,-116.29952 93.9981,-210.199219 210.2012,-210.199219 z"
       id="path34" /><path
       style="baseline-shift:baseline;display:inline;overflow:visible;vector-effect:none;fill:#9f3a35;stroke:none;enable-background:accumulate;stop-color:#000000;stop-opacity:1"
       d="m 2974.9,0 c -157.1,0 -285,127.8 -285,285 0,157.1 127.8,285 285,285 157.1,0 284.9,-127.8 284.9,-285 C 3259.9,127.8 3132,0 2974.9,0 Z m 0,535.2 c -138,0 -250.2,-112.3 -250.2,-250.2 0,-138 112.3,-250.2 250.2,-250.2 137.9,0 250.2,112.2 250.2,250.2 0,137.9 -112.2,250.2 -250.2,250.2 z"
       id="path35" /></g><g
     id="path14"
     class="st3"
     style="stroke:#ffffff;stroke-width:80;stroke-linecap:round;stroke-linejoin:round;stroke-dasharray:none;stroke-opacity:1;paint-order:markers stroke fill"
     transform="translate(82,40)"><path
       style="baseline-shift:baseline;display:inline;overflow:visible;vector-effect:none;fill:#ffffff;stroke:none;enable-background:accumulate;stop-color:#000000;stop-opacity:1"
       d="m 2974.9004,61 c -123.0963,0 -224,100.79885 -224,224 0,123.09625 100.7988,224 224,224 123.0962,0 224,-100.79885 224,-224 0,-123.20115 -100.9038,-224 -224,-224 z m 0,114.80078 c 60.5908,0 109.1992,48.70238 109.1992,109.19922 0,60.62321 -48.576,109.19922 -109.1992,109.19922 -60.5908,0 -109.3008,-48.73482 -109.3008,-109.19922 0,-60.59081 48.6776,-109.19922 109.3008,-109.19922 z"
       id="path36" /><path
       style="baseline-shift:baseline;display:inline;overflow:visible;vector-effect:none;fill:#9f3a35;stroke:none;enable-background:accumulate;stop-color:#000000;stop-opacity:1"
       d="m 2974.9,101 c -101.4,0 -184,82.5 -184,184 0,101.4 82.5,184 184,184 101.4,0 184,-82.5 184,-184 0,-101.5 -82.6,-184 -184,-184 z m 0,333.2 c -82.3,0 -149.3,-67 -149.3,-149.2 0,-82.3 67,-149.2 149.3,-149.2 82.3,0 149.2,67 149.2,149.2 0,82.3 -66.9,149.2 -149.2,149.2 z"
       id="path37" /></g><g
     id="path15"
     class="st3"
     style="stroke:#ffffff;stroke-width:80;stroke-linecap:round;stroke-linejoin:round;stroke-dasharray:none;stroke-opacity:1;paint-order:markers stroke fill"
     transform="translate(114,40)"><path
       style="baseline-shift:baseline;display:inline;overflow:visible;vector-effect:none;fill:#ffffff;stroke:none;enable-background:accumulate;stop-color:#000000;stop-opacity:1"
       d="m 3555.0996,-40 c -178.7932,0 -325,146.10365 -325,325 0,178.79319 146.1037,325 325,325 C 3733.8928,610 3880,463.87939 3880,285 3880,106.12061 3733.8928,-40 3555.0996,-40 Z m 0,114.800781 c 116.2031,0 210.2012,93.899699 210.2012,210.199219 0,116.18378 -94.0174,210.19922 -210.2012,210.19922 -116.2995,0 -210.1992,-93.9961 -210.1992,-210.19922 0,-116.29952 93.9961,-210.199219 210.1992,-210.199219 z"
       id="path38" /><path
       style="baseline-shift:baseline;display:inline;overflow:visible;vector-effect:none;fill:#9f3a35;stroke:none;enable-background:accumulate;stop-color:#000000;stop-opacity:1"
       d="m 3555.1,0 c -157.1,0 -285,127.8 -285,285 0,157.1 127.8,285 285,285 C 3712.2,570 3840,442.2 3840,285 3840,127.8 3712.2,0 3555.1,0 Z m 0,535.2 c -138,0 -250.2,-112.3 -250.2,-250.2 0,-138 112.3,-250.2 250.2,-250.2 137.9,0 250.2,112.2 250.2,250.2 0,137.9 -112.3,250.2 -250.2,250.2 z"
       id="path39" /></g><g
     id="path16"
     class="st3"
     style="stroke:#ffffff;stroke-width:80;stroke-linecap:round;stroke-linejoin:round;stroke-dasharray:none;stroke-opacity:1;paint-order:markers stroke fill"
     transform="translate(114,40)"><path
       style="baseline-shift:baseline;display:inline;overflow:visible;vector-effect:none;fill:#ffffff;stroke:none;enable-background:accumulate;stop-color:#000000;stop-opacity:1"
       d="m 3555.0996,61 c -123.0962,0 -224,100.79885 -224,224 0,123.09625 100.7989,224 224,224 123.0963,0 224,-100.79885 224,-224 a 40.004,40.004 0 0 0 0,-0.0391 C 3778.9783,161.80745 3678.1959,61 3555.0996,61 Z m 0,114.80078 c 60.5908,0 109.2012,48.70238 109.2012,109.19922 0,60.59081 -48.7044,109.19922 -109.2012,109.19922 -60.5908,0 -109.2988,-48.73482 -109.2988,-109.19922 0,-60.59081 48.6756,-109.19922 109.2988,-109.19922 z"
       id="path40" /><path
       style="baseline-shift:baseline;display:inline;overflow:visible;vector-effect:none;fill:#9f3a35;stroke:none;enable-background:accumulate;stop-color:#000000;stop-opacity:1"
       d="m 3555.1,101 c -101.4,0 -184,82.5 -184,184 0,101.4 82.5,184 184,184 101.4,0 184,-82.5 184,-184 -0.1,-101.5 -82.6,-184 -184,-184 z m 0,333.2 c -82.3,0 -149.3,-67 -149.3,-149.2 0,-82.3 67,-149.2 149.3,-149.2 82.3,0 149.2,67 149.2,149.2 0,82.3 -67,149.2 -149.2,149.2 z"
       id="path41" /></g></g>
</svg>
