<?xml version="1.0" encoding="UTF-8" standalone="no"?>
<svg
   version="1.2"
   width="586.92902"
   height="112.934"
   xml:space="preserve"
   id="svg2"
   sodipodi:docname="atarist.svg"
   inkscape:version="1.4.3 (0d15f75042, 2025-12-25)"
   xmlns:inkscape="http://www.inkscape.org/namespaces/inkscape"
   xmlns:sodipodi="http://sodipodi.sourceforge.net/DTD/sodipodi-0.dtd"
   xmlns="http://www.w3.org/2000/svg"
   xmlns:svg="http://www.w3.org/2000/svg"><defs
   id="defs2">
        
        
    </defs><sodipodi:namedview
   id="namedview2"
   pagecolor="#8a8a8a"
   bordercolor="#000000"
   borderopacity="0.25"
   inkscape:showpageshadow="2"
   inkscape:pageopacity="0.0"
   inkscape:pagecheckerboard="0"
   inkscape:deskcolor="#d1d1d1"
   inkscape:zoom="1.1069415"
   inkscape:cx="200.5526"
   inkscape:cy="56.46188"
   inkscape:window-width="1920"
   inkscape:window-height="1080"
   inkscape:window-x="0"
   inkscape:window-y="0"
   inkscape:window-maximized="0"
   inkscape:current-layer="svg2" />
    <path
   style="opacity:1;baseline-shift:baseline;display:inline;overflow:visible;vector-effect:none;fill:#ffffff;stroke-linecap:round;stroke-linejoin:round;paint-order:markers stroke fill;enable-background:accumulate;stop-color:#000000;stop-opacity:1"
   d="M 179.10742,0.72265625 C 173.93159,1.2399143 168.99019,3.8031194 165.34766,8.15625 a 10,10 0 0 0 -0.10938,0.052734 c -0.0708,0.080047 -0.0973,0.1544378 -0.16601,0.234375 -0.0688,0.085375 -0.15488,0.1456895 -0.22266,0.2324219 A 10,10 0 0 0 164.8125,8.8125 c -4.12646,5.017 -4.41455,9.728767 -4.85352,11.056641 a 10.001,10.001 0 0 0 -0.10937,0.351562 l -23.17578,79.902347 a 10.001,10.001 0 0 0 9.59765,12.78515 c 4.78739,0.003 9.53654,-0.011 14.25196,0.01 a 10.001,10.001 0 0 0 9.65429,-7.23047 c 1.52769,-5.30265 3.0791,-10.597743 4.62696,-15.894531 4.25742,-0.0018 8.51031,6.43e-4 12.75781,0.0039 1.52913,5.30467 3.04999,10.606785 4.61328,15.933595 a 10.001,10.001 0 0 0 9.61914,7.18359 c 4.75837,-0.0109 9.54304,-8.9e-4 14.35352,-0.004 a 10.001,10.001 0 0 0 4.74023,-1.51563 10.001,10.001 0 0 0 3.66016,1.51563 h 13.70508 a 10.001,10.001 0 0 0 4.08789,-1.69336 10.001,10.001 0 0 0 5.3125,1.6914 c 4.74859,-0.003 9.50603,0.001 14.27343,-0.002 a 10.001,10.001 0 0 0 9.60743,-7.24219 c 1.50744,-5.25526 3.05611,-10.568883 4.59765,-15.873044 4.22768,-0.0023 8.46147,-0.0047 12.70117,-0.002 1.53009,5.293479 3.05769,10.582648 4.59571,15.898438 a 10.001,10.001 0 0 0 9.65039,7.2207 c 4.70602,-0.0206 9.5151,0.0226 14.42773,-0.0215 a 10.001,10.001 0 0 0 4.04492,-1.32422 10.001,10.001 0 0 0 3.24219,1.34766 c 4.62914,0.008 9.22674,-1.5e-4 13.8086,0.008 a 10.001,10.001 0 0 0 10.01757,-9.99414 c 0.002,-2.969633 -8.1e-4,-5.934988 0,-8.904299 3.18108,4.819031 6.34213,9.624049 9.55078,14.443359 a 10.001,10.001 0 0 0 8.37305,4.45703 c 5.34752,-0.0267 10.75018,-6.2e-4 16.20899,-0.0117 a 10.001,10.001 0 0 0 3.77148,-1.42578 10.001,10.001 0 0 0 3.43359,1.42383 c 4.86304,0.003 9.69777,-0.009 14.50196,0.004 a 10.001,10.001 0 0 0 10.02539,-9.9961 c 0.014,-30.630222 0.004,-61.252386 0.01,-91.878904 a 10.001,10.001 0 0 0 -10,-10.0019529 h -14.52734 a 10.001,10.001 0 0 0 -10,9.9999999 c 0,1.108169 0,2.216066 0,3.324219 C 373.59063,6.2917434 363.92164,1.2305122 353.33398,1.0371094 a 10.001,10.001 0 0 0 -0.17382,-0.00195 c -5.49139,-0.00402 -10.94355,0.013014 -16.35938,-0.00781 l 0.18555,0.00195 c -2.2472,-0.0501173 -4.80572,0.1818332 -7.50977,1.1015625 -8.73141,2.8553079 -14.6261,10.6325466 -14.67383,20.0097656 a 10.001,10.001 0 0 0 0,0.05859 c 0.009,11.964363 0.005,23.937179 0.004,35.90625 -4.04585,-13.89978 -8.09101,-27.800669 -12.12891,-41.701172 l 0.0449,0.160156 c -1.90661,-6.9976764 -7.1217,-13.1627227 -15.14844,-15.0781249 -7.9914,-2.04277209 -16.09374,0.6730211 -21.21485,7.0625 a 10.001,10.001 0 0 0 -8.9707,-7.515625 h -51.9707 a 10.001,10.001 0 0 0 -8.6836,6.8183594 C 196.07957,7.1092682 195.37289,6.3971548 194.5918,5.7324219 190.06131,1.8040881 184.47865,0.18587075 179.10742,0.72265625 Z M 73.583984,0.86523438 C 69.348763,0.87215306 65.051028,0.84646078 60.685547,0.875 A 10.001,10.001 0 0 0 50.75,10.882813 c 0.01599,20.893432 0.0018,41.791885 0.0078,62.697265 a 10.001,10.001 0 0 0 0,0.01172 c 0.01494,9.73909 -0.03087,19.541527 0.02148,29.388673 a 10.001,10.001 0 0 0 10.099609,9.94726 c 4.157563,-0.0409 8.405026,-0.0103 12.746094,-0.0215 a 10.001,10.001 0 0 0 9.974609,-10 V 91.914062 c 1.250011,1.342842 2.458456,2.756842 3.775391,3.972657 a 10.001,10.001 0 0 0 0.01367,0.01367 c 2.555251,2.349618 5.436815,4.820719 8.878906,7.027339 4.483292,2.91435 9.240362,5.11535 14.039062,6.78321 a 10.001,10.001 0 0 0 0.0605,0.0215 c 3.95368,1.34575 8.16809,2.46958 12.64258,3.07813 a 10.001,10.001 0 0 0 11.34765,-9.91797 c -0.004,-4.575827 -10e-4,-9.157188 0,-13.746096 a 10.001,10.001 0 0 0 -8.48633,-9.886718 c -1.33737,-0.204596 -2.65767,-0.516369 -3.94531,-0.931641 a 10.001,10.001 0 0 0 -0.0195,-0.0059 c -4.92695,-1.577269 -9.57493,-4.375193 -13.40234,-8.023438 a 10.001,10.001 0 0 0 -0.002,-0.002 c -3.9801,-3.791982 -7.19205,-8.673109 -9.447263,-14.056641 a 10.001,10.001 0 0 0 -0.0293,-0.06836 C 96.754492,50.860736 95.552338,44.537434 94.681641,37.662109 93.638465,28.945061 93.32287,20.005636 93.396484,10.945313 A 10.001,10.001 0 0 0 83.435547,0.86523438 c -2.346601,-0.009135 -4.68029,-0.006022 -7.003906,0 A 10.001,10.001 0 0 0 75.013672,1.4550781 10.001,10.001 0 0 0 73.583984,0.86523438 Z M 201.37305,16.359375 l 0.0117,0.03906 c -2.4e-4,-8.15e-4 -0.002,-0.0011 -0.002,-0.002 -0.004,-0.01228 -0.006,-0.02483 -0.01,-0.03711 z m 182.63867,4.271484 0.11328,0.226563 c -0.023,-0.04774 -0.055,-0.08911 -0.0781,-0.136719 -0.0151,-0.02971 -0.0199,-0.06014 -0.0351,-0.08984 z m -202.51367,0.208985 a 10.001,10.001 0 0 0 0.13476,0.115234 c 0.0891,0.07522 0.38146,0.449152 0.52344,0.945313 a 10.001,10.001 0 0 0 0.0117,0.03906 c 0.0884,0.304227 0.17721,0.607889 0.26562,0.912109 a 10.001,10.001 0 0 0 -2.39257,-0.002 c 0.39476,-1.209682 0.55221,-1.813827 0.17968,-1.392578 a 10,10 0 0 0 0.10547,-0.308594 10,10 0 0 0 0.28125,-0.158203 c -0.20655,0.264288 1.20786,0.126974 0.89063,-0.15039 z m 101.13672,0.0039 a 10.001,10.001 0 0 0 0.30078,0.07422 c -0.33928,-0.07815 0.3537,0.403192 0.49023,0.904297 a 10.001,10.001 0 0 0 0.0449,0.162109 c 0.0796,0.274146 0.15864,0.548124 0.23828,0.822266 a 10.001,10.001 0 0 0 -2.48046,-0.0039 c 0.0243,-0.184054 0.53867,-1.572885 0.38281,-1.365234 a 10,10 0 0 0 0.0547,-0.210938 10,10 0 0 0 0.18164,-0.117187 c -0.0647,0.09384 0.84042,-0.251591 0.78711,-0.265625 z m 90.46875,10.445312 0.0508,0.212891 c -0.007,-0.03317 -0.0218,-0.0626 -0.0293,-0.0957 -0.009,-0.03662 -0.0126,-0.08073 -0.0215,-0.117188 z m -20.43555,3.646485 c -0.18831,0.0064 0.95563,0.872555 0.95703,0.878906 a 10.001,10.001 0 0 0 0.0488,0.212891 c 0.56497,2.317349 0.24084,3.898537 0.0742,4.179687 a 10.001,10.001 0 0 0 -0.0215,0.03516 c -0.78666,1.339681 -2.7245,2.73278 -5.10156,3.980469 2.8e-4,-3.090806 6.9e-4,-6.185076 0.002,-9.27539 1.27161,0.0019 2.46002,0.003 3.76953,-0.0059 a 10.001,10.001 0 0 0 0.27149,-0.0059 z M 206.8125,35.052734 c 2.58763,0.0011 5.15983,0.0027 7.74023,0.002 -0.002,8.865618 -0.002,17.729033 -0.002,26.59375 -2.58166,-8.864678 -5.1582,-17.732346 -7.73828,-26.595703 z m 50.08594,0 c -2.88617,9.936559 -5.75971,19.882704 -8.64258,29.824219 -6e-5,-9.940552 0.002,-19.882067 0.002,-29.822266 2.8805,8.51e-4 5.75097,-7.4e-5 8.64063,-0.002 z m 130.52929,8.4375 -0.0391,0.40625 c 0.0112,-0.09512 0.0106,-0.201291 0.0215,-0.296875 0.003,-0.03649 0.0148,-0.07289 0.0176,-0.109375 z m -16.45507,6.878907 -0.0195,0.0332 c 0.003,-0.0059 0.004,-0.01173 0.008,-0.01758 0.003,-0.0059 0.008,-0.0097 0.0117,-0.01563 z m 8.99414,12.28125 c -1.3e-4,6.023205 2.2e-4,12.047077 0,18.070312 -2.51519,-3.750071 -5.04456,-7.526628 -7.50977,-11.273437 1.19691,-0.797687 2.37255,-1.529423 3.77149,-2.769532 1.42269,-1.232846 2.60266,-2.618907 3.73828,-4.027343 z"
   id="path4" /><g
   id="g3"
   style="stroke:#ffffff;stroke-width:20;stroke-linecap:round;stroke-linejoin:round;stroke-dasharray:none;stroke-opacity:1;paint-order:markers stroke fill"
   transform="translate(9.9999995,10)"><g
     id="path2"
     style="opacity:1"><g
       id="path5"
       style="opacity:1"
       transform="translate(-9.9999995,-10)"><path
         style="baseline-shift:baseline;display:inline;overflow:visible;vector-effect:none;fill:#ffffff;stroke:none;enable-background:accumulate;stop-color:#000000;stop-opacity:1"
         d="M 179.10742,0.72265625 C 173.93159,1.2399143 168.99019,3.8031194 165.34766,8.15625 a 10,10 0 0 0 -0.10938,0.052734 c -0.0708,0.080047 -0.0973,0.1544378 -0.16601,0.234375 -0.0688,0.085375 -0.15488,0.1456895 -0.22266,0.2324219 A 10,10 0 0 0 164.8125,8.8125 c -4.12646,5.017 -4.41455,9.728767 -4.85352,11.056641 a 10.001,10.001 0 0 0 -0.10937,0.351562 l -23.17578,79.902347 a 10.001,10.001 0 0 0 9.59765,12.78515 c 4.78739,0.003 9.53654,-0.011 14.25196,0.01 a 10.001,10.001 0 0 0 9.65429,-7.23047 c 1.52769,-5.30265 3.0791,-10.597743 4.62696,-15.894531 4.25742,-0.0018 8.51031,6.43e-4 12.75781,0.0039 1.52913,5.30467 3.04999,10.606785 4.61328,15.933595 a 10.001,10.001 0 0 0 9.61914,7.18359 c 4.75837,-0.0109 9.54304,-8.9e-4 14.35352,-0.004 a 10.001,10.001 0 0 0 4.74023,-1.51563 10.001,10.001 0 0 0 3.66016,1.51563 h 13.70508 a 10.001,10.001 0 0 0 4.08789,-1.69336 10.001,10.001 0 0 0 5.3125,1.6914 c 4.74859,-0.003 9.50603,0.001 14.27343,-0.002 a 10.001,10.001 0 0 0 9.60743,-7.24219 c 1.50744,-5.25526 3.05611,-10.568883 4.59765,-15.873044 4.22768,-0.0023 8.46147,-0.0047 12.70117,-0.002 1.53009,5.293479 3.05769,10.582648 4.59571,15.898438 a 10.001,10.001 0 0 0 9.65039,7.2207 c 4.70602,-0.0206 9.5151,0.0226 14.42773,-0.0215 a 10.001,10.001 0 0 0 4.04492,-1.32422 10.001,10.001 0 0 0 3.24219,1.34766 c 4.62914,0.008 9.22674,-1.5e-4 13.8086,0.008 a 10.001,10.001 0 0 0 10.01757,-9.99414 c 0.002,-2.969633 -8.1e-4,-5.934988 0,-8.904299 3.18108,4.819031 6.34213,9.624049 9.55078,14.443359 a 10.001,10.001 0 0 0 8.37305,4.45703 c 5.34752,-0.0267 10.75018,-6.2e-4 16.20899,-0.0117 a 10.001,10.001 0 0 0 3.77148,-1.42578 10.001,10.001 0 0 0 3.43359,1.42383 c 4.86304,0.003 9.69777,-0.009 14.50196,0.004 a 10.001,10.001 0 0 0 10.02539,-9.9961 c 0.014,-30.630222 0.004,-61.252386 0.01,-91.878904 a 10.001,10.001 0 0 0 -10,-10.0019529 h -14.52734 a 10.001,10.001 0 0 0 -10,9.9999999 c 0,1.108169 0,2.216066 0,3.324219 C 373.59063,6.2917434 363.92164,1.2305122 353.33398,1.0371094 a 10.001,10.001 0 0 0 -0.17382,-0.00195 c -5.49139,-0.00402 -10.94355,0.013014 -16.35938,-0.00781 l 0.18555,0.00195 c -2.2472,-0.0501173 -4.80572,0.1818332 -7.50977,1.1015625 -8.73141,2.8553079 -14.6261,10.6325466 -14.67383,20.0097656 a 10.001,10.001 0 0 0 0,0.05859 c 0.009,11.964363 0.005,23.937179 0.004,35.90625 -4.04585,-13.89978 -8.09101,-27.800669 -12.12891,-41.701172 l 0.0449,0.160156 c -1.90661,-6.9976764 -7.1217,-13.1627227 -15.14844,-15.0781249 -7.9914,-2.04277209 -16.09374,0.6730211 -21.21485,7.0625 a 10.001,10.001 0 0 0 -8.9707,-7.515625 h -51.9707 a 10.001,10.001 0 0 0 -8.6836,6.8183594 C 196.07957,7.1092682 195.37289,6.3971548 194.5918,5.7324219 190.06131,1.8040881 184.47865,0.18587075 179.10742,0.72265625 Z M 73.583984,0.86523438 C 69.348763,0.87215306 65.051028,0.84646078 60.685547,0.875 A 10.001,10.001 0 0 0 50.75,10.882813 c 0.01599,20.893432 0.0018,41.791885 0.0078,62.697265 a 10.001,10.001 0 0 0 0,0.01172 c 0.01494,9.73909 -0.03087,19.541527 0.02148,29.388673 a 10.001,10.001 0 0 0 10.099609,9.94726 c 4.157563,-0.0409 8.405026,-0.0103 12.746094,-0.0215 a 10.001,10.001 0 0 0 9.974609,-10 V 91.914062 c 1.250011,1.342842 2.458456,2.756842 3.775391,3.972657 a 10.001,10.001 0 0 0 0.01367,0.01367 c 2.555251,2.349618 5.436815,4.820719 8.878906,7.027339 4.483292,2.91435 9.240362,5.11535 14.039062,6.78321 a 10.001,10.001 0 0 0 0.0605,0.0215 c 3.95368,1.34575 8.16809,2.46958 12.64258,3.07813 a 10.001,10.001 0 0 0 11.34765,-9.91797 c -0.004,-4.575827 -10e-4,-9.157188 0,-13.746096 a 10.001,10.001 0 0 0 -8.48633,-9.886718 c -1.33737,-0.204596 -2.65767,-0.516369 -3.94531,-0.931641 a 10.001,10.001 0 0 0 -0.0195,-0.0059 c -4.92695,-1.577269 -9.57493,-4.375193 -13.40234,-8.023438 a 10.001,10.001 0 0 0 -0.002,-0.002 c -3.9801,-3.791982 -7.19205,-8.673109 -9.447263,-14.056641 a 10.001,10.001 0 0 0 -0.0293,-0.06836 C 96.754492,50.860736 95.552338,44.537434 94.681641,37.662109 93.638465,28.945061 93.32287,20.005636 93.396484,10.945313 A 10.001,10.001 0 0 0 83.435547,0.86523438 c -2.346601,-0.009135 -4.68029,-0.006022 -7.003906,0 A 10.001,10.001 0 0 0 75.013672,1.4550781 10.001,10.001 0 0 0 73.583984,0.86523438 Z M 201.37305,16.359375 l 0.0117,0.03906 c -2.4e-4,-8.15e-4 -0.002,-0.0011 -0.002,-0.002 -0.004,-0.01228 -0.006,-0.02483 -0.01,-0.03711 z m 182.63867,4.271484 0.11328,0.226563 c -0.023,-0.04774 -0.055,-0.08911 -0.0781,-0.136719 -0.0151,-0.02971 -0.0199,-0.06014 -0.0351,-0.08984 z m -202.51367,0.208985 a 10.001,10.001 0 0 0 0.13476,0.115234 c 0.0891,0.07522 0.38146,0.449152 0.52344,0.945313 a 10.001,10.001 0 0 0 0.0117,0.03906 c 0.0884,0.304227 0.17721,0.607889 0.26562,0.912109 a 10.001,10.001 0 0 0 -2.39257,-0.002 c 0.39476,-1.209682 0.55221,-1.813827 0.17968,-1.392578 a 10,10 0 0 0 0.10547,-0.308594 10,10 0 0 0 0.28125,-0.158203 c -0.20655,0.264288 1.20786,0.126974 0.89063,-0.15039 z m 101.13672,0.0039 a 10.001,10.001 0 0 0 0.30078,0.07422 c -0.33928,-0.07815 0.3537,0.403192 0.49023,0.904297 a 10.001,10.001 0 0 0 0.0449,0.162109 c 0.0796,0.274146 0.15864,0.548124 0.23828,0.822266 a 10.001,10.001 0 0 0 -2.48046,-0.0039 c 0.0243,-0.184054 0.53867,-1.572885 0.38281,-1.365234 a 10,10 0 0 0 0.0547,-0.210938 10,10 0 0 0 0.18164,-0.117187 c -0.0647,0.09384 0.84042,-0.251591 0.78711,-0.265625 z m 90.46875,10.445312 0.0508,0.212891 c -0.007,-0.03317 -0.0218,-0.0626 -0.0293,-0.0957 -0.009,-0.03662 -0.0126,-0.08073 -0.0215,-0.117188 z m -20.43555,3.646485 c -0.18831,0.0064 0.95563,0.872555 0.95703,0.878906 a 10.001,10.001 0 0 0 0.0488,0.212891 c 0.56497,2.317349 0.24084,3.898537 0.0742,4.179687 a 10.001,10.001 0 0 0 -0.0215,0.03516 c -0.78666,1.339681 -2.7245,2.73278 -5.10156,3.980469 2.8e-4,-3.090806 6.9e-4,-6.185076 0.002,-9.27539 1.27161,0.0019 2.46002,0.003 3.76953,-0.0059 a 10.001,10.001 0 0 0 0.27149,-0.0059 z M 206.8125,35.052734 c 2.58763,0.0011 5.15983,0.0027 7.74023,0.002 -0.002,8.865618 -0.002,17.729033 -0.002,26.59375 -2.58166,-8.864678 -5.1582,-17.732346 -7.73828,-26.595703 z m 50.08594,0 c -2.88617,9.936559 -5.75971,19.882704 -8.64258,29.824219 -6e-5,-9.940552 0.002,-19.882067 0.002,-29.822266 2.8805,8.51e-4 5.75097,-7.4e-5 8.64063,-0.002 z m 130.52929,8.4375 -0.0391,0.40625 c 0.0112,-0.09512 0.0106,-0.201291 0.0215,-0.296875 0.003,-0.03649 0.0148,-0.07289 0.0176,-0.109375 z m -16.45507,6.878907 -0.0195,0.0332 c 0.003,-0.0059 0.004,-0.01173 0.008,-0.01758 0.003,-0.0059 0.008,-0.0097 0.0117,-0.01563 z m 8.99414,12.28125 c -1.3e-4,6.023205 2.2e-4,12.047077 0,18.070312 -2.51519,-3.750071 -5.04456,-7.526628 -7.50977,-11.273437 1.19691,-0.797687 2.37255,-1.529423 3.77149,-2.769532 1.42269,-1.232846 2.60266,-2.618907 3.73828,-4.027343 z"
         id="path8" /><path
         style="baseline-shift:baseline;display:inline;overflow:visible;vector-effect:none;fill:#5479b6;stroke:none;enable-background:accumulate;stop-color:#000000;stop-opacity:1"
         d="m 172.729,14.833 c 3.574,-4.573 10.968,-5.354 15.352,-1.521 1.792,1.512 3.048,3.597 3.689,5.837 8.115,27.926 16.267,55.834 24.372,83.762 -4.791,0.003 -9.582,-0.008 -14.371,0.003 -2.258,-7.694 -4.463,-15.41 -6.693,-23.114 -9.26,-0.027 -18.519,-0.008 -27.777,-0.011 -2.26564,7.703781 -4.50998,15.41381 -6.733,23.13 -4.763,-0.021 -9.525,-0.008 -14.29,-0.011 l 23.175,-79.901 c 0.921,-2.786 1.265,-5.9 3.276,-8.174 m 8.454,17.11 c -3.396,11.568 -6.723,23.16 -10.098,34.734 6.73,0.03 13.458,0.011 20.186,0.011 -3.368,-11.581 -6.72,-23.163 -10.088,-34.745 z m 92.431,-16.509 c 2.495,-3.62 7.32,-5.379 11.567,-4.261 3.89,0.896 6.865,4.248 7.893,8.021 8.106,27.905 16.241,55.798 24.345,83.694 -4.793,0.043 -9.588,0 -14.383,0.021 -2.229,-7.704 -4.437,-15.423 -6.683,-23.122 -9.245,0.003 -18.489,-0.021 -27.733,0.006 -2.21,7.713 -4.487,15.405 -6.698,23.113 -4.759,0.003 -9.517,0 -14.274,0.003 7.704,-26.78 15.501,-53.539 23.268,-80.305 0.817,-2.417 1.13,-5.081 2.698,-7.17 m -1.166,51.254 c 6.702,0.01 13.401,0.003 20.102,0.003 -3.332,-11.604 -6.719,-23.191 -10.045,-34.8 -3.347,11.6 -6.728,23.192 -10.057,34.797 z m -67.03,-55.654 h 51.97 v 14.018 c -6.378,0.005 -12.755,-0.007 -19.131,0.005 0,25.952 0.004,51.902 -0.003,77.854 h -13.706 c 0,-25.951 -0.004,-51.901 0.004,-77.854 -6.379,-0.012 -12.755,0 -19.133,-0.005 -0.001,-4.673 -0.004,-9.344 -0.001,-14.018 z m 127.234,0.57 c 1.316,-0.455 2.721,-0.608 4.111,-0.577 5.461,0.021 10.922,0.005 16.389,0.009 9.197,0.168 17.979,5.88 21.961,14.157 2.756,5.377 3.041,11.633 2.344,17.53 -0.475,6.176 -3.068,12.35 -7.814,16.44 -2.508,2.236 -5.631,3.592 -8.313,5.578 -1.475,1.126 -1.545,3.302 -0.785,4.859 7.25,11.194 14.789,22.207 22.189,33.309 -5.412,0.011 -10.824,-0.016 -16.238,0.011 -7.088,-10.646 -14.104,-21.344 -21.16,-32 -2.074,-3.031 -2.637,-7.051 -1.396,-10.518 0.971,-2.652 3.293,-4.599 5.877,-5.599 4.936,-1.882 9.799,-4.842 12.533,-9.498 2.076,-3.503 1.973,-7.816 1.039,-11.647 -1.098,-4.974 -5.943,-8.89 -11.061,-8.716 -3.543,0.024 -7.08,-0.021 -10.615,0.018 -1.6,-0.037 -3.105,1.353 -3.086,2.979 -0.018,24.99 0.01,49.985 -0.006,74.979 -4.605,-0.008 -9.203,0 -13.809,-0.008 -0.01,-26.902 0.01,-53.814 -0.01,-80.719 0.024,-4.716 3.377,-9.154 7.85,-10.587 z m 57.316,-0.57 h 14.529 c -0.006,30.63 0.004,61.251 -0.01,91.876 -4.84,-0.013 -9.68,0 -14.521,-0.003 0.002,-30.625 0.002,-61.246 0.002,-91.873 z M 60.749999,10.875 c 4.283,-0.028 8.565,-0.003 12.85,-0.01 v 92.042 c -4.274,0.011 -8.547,-0.021 -12.82,0.021 -0.052,-9.781 -0.007,-19.571 -0.022,-29.351 -0.006,-20.899 0.008,-41.799 -0.008,-62.702 z m 15.708,-0.01 c 2.315,-0.006 4.627,-0.009 6.939,0 -0.076,9.354 0.244,18.729 1.358,28.021 0.913,7.22 2.201,14.494 5.076,21.218 2.725,6.505 6.654,12.555 11.774001,17.433 4.892,4.663 10.814,8.248 17.252,10.309 1.79603,0.579233 3.63558,1.013623 5.501,1.299 -0.001,4.586 -0.004,9.171 0,13.757 -3.669,-0.499 -7.267,-1.444 -10.769,-2.636 -4.169,-1.449 -8.202,-3.329 -11.907,-5.742 -2.704001,-1.731 -5.163001,-3.814 -7.524001,-5.985 -3.894,-3.595 -7.377,-7.67 -9.996,-12.294 -2.046,-3.6 -3.54,-7.486 -4.711,-11.448 -1.073,-3.983 -1.528,-8.107 -1.945,-12.201 -0.805,-8.855 -1.106,-17.753 -1.05,-26.64 0.002,-5.033 0,-10.061 0.002,-15.091 z"
         id="path9" /></g><path
       style="baseline-shift:baseline;display:inline;overflow:visible;vector-effect:none;fill:#ffffff;stroke:none;enable-background:accumulate;stop-color:#000000;stop-opacity:1"
       d="m 465.04492,-10 c -11.8271,0 -23.62027,3.4828089 -32.99609,10.734375 -9.37583,7.2515661 -16.06571,18.865705 -16.0625,32.591797 5e-4,8.45129 3.28907,15.970878 8.23242,21.505859 a 10.001,10.001 0 0 0 -0.60938,0.746094 l -10.03515,25.443359 a 10.001,10.001 0 0 0 4.78711,12.591797 c 11.8066,5.973641 25.98246,9.320309 39.15625,9.320309 11.55581,0 23.25075,-3.017286 32.72265,-9.923824 8.15504,-5.946331 14.3492,-15.321759 15.92188,-26.609375 V 91.5 a 10.001,10.001 0 0 0 10,10 h 32.73047 a 10.001,10.001 0 0 0 10,-10 V 36.722656 l 8.06445,-0.02344 a 10.001,10.001 0 0 0 9.97266,-10 V 1.4335937 a 10.001,10.001 0 0 0 -10,-10 h -68.80274 a 10.001,10.001 0 0 0 -7.41406,3.7519532 C 482.58391,-8.2977636 473.93137,-10 465.04492,-10 Z M 47.917969,-9.140625 c -2.287119,0.00589 -4.616562,-0.00334 -6.994141,0.00586 a 10.001,10.001 0 0 0 -9.960937,9.97460935 c -0.0071,2.76316765 0.01358,5.42192215 -0.01367,7.98046875 -0.179528,7.7250319 -0.66141,15.3069979 -1.767578,22.6347659 -0.884607,5.769378 -2.144895,11.080832 -4.203125,15.597656 a 10.001,10.001 0 0 0 -0.03711,0.08203 c -1.852597,4.163775 -4.252323,7.981494 -7.134765,11.167968 a 10.001,10.001 0 0 0 -0.0039,0.0039 c -2.811051,3.110886 -6.140409,5.730602 -9.7656246,7.65039 -3.1881661,1.67634 -6.4322549,2.831062 -9.5253906,3.296875 A 10.001,10.001 0 0 0 -10,79.150391 c 0.003,4.581632 0.003,9.17027 0,13.753906 a 10.001,10.001 0 0 0 11.4042969,9.906253 c 4.4192366,-0.62688 8.6692511,-1.725 12.7187501,-3.130863 7.243217,-2.495511 14.307169,-6.245853 20.410156,-11.605468 2.157946,-1.836676 4.23154,-3.880268 6.238281,-6.03125 6.65e-4,3.652361 -0.01243,7.271535 0.0078,10.939453 a 10.001,10.001 0 0 0 10.091797,9.943358 c 4.165853,-0.038 8.418491,-0.008 12.753906,-0.0195 a 10.001,10.001 0 0 0 9.974609,-10 V 81.904297 c 1.25081,1.343908 2.45939,2.759807 3.777344,3.976562 a 10.001,10.001 0 0 0 0.01172,0.01172 c 2.559583,2.35486 5.441289,4.824298 8.880859,7.029297 4.486431,2.916368 9.24286,5.112845 14.033201,6.78125 a 10.001,10.001 0 0 0 0.0723,0.02539 c 3.94926,1.341234 8.16012,2.462794 12.62891,3.074214 a 10.001,10.001 0 0 0 11.35547,-9.916011 c -0.004,-4.575826 -10e-4,-9.157186 0,-13.746094 a 10.001,10.001 0 0 0 -8.5586,-9.896484 c -1.21322,-0.176753 -2.52373,-0.49422 -3.90039,-0.931641 -4.92418,-1.577842 -9.5693,-4.37448 -13.39258,-8.019531 A 10.001,10.001 0 0 0 98.5,60.287109 C 94.526158,56.50575 91.312374,51.620818 89.056641,46.234375 a 10.001,10.001 0 0 0 -0.0293,-0.06836 C 86.756445,40.854876 85.554291,34.531575 84.683594,27.65625 83.639492,18.941122 83.324812,10.002185 83.398437,0.93945313 A 10.001,10.001 0 0 0 73.402344,-9.140625 c -2.319336,-10e-4 -4.630692,0.00187 -6.939453,0.00586 -0.0071,1.23e-5 -0.01434,-1.24e-5 -0.02148,0 a 10,10 0 0 0 -1.419922,0.5917968 10.001,10.001 0 0 0 -1.451172,-0.5976562 c -4.207471,0.012771 -8.483883,-0.011323 -12.828125,0.015625 -0.01852,1.149e-4 -0.03617,-1.167e-4 -0.05469,0 A 10,10 0 0 0 49.337891,-8.5566406 10.001,10.001 0 0 0 47.917969,-9.140625 Z M 465.04492,10 c 5.75426,0 10.93107,0.971315 15.92383,2.871094 l -1.50781,3.929687 c -4.14212,-1.61129 -8.70902,-2.669922 -13.69922,-2.669922 -2.68103,0 -5.66291,0.277057 -9.21875,2.128907 -3.55584,1.851849 -7.83008,7.030469 -7.83008,12.646484 0,2.86031 1.13046,6.098874 2.86914,8.269531 1.73869,2.170658 3.7117,3.326749 5.29297,4.054688 3.16253,1.455876 5.43754,1.66599 6.08398,1.820312 a 10.001,10.001 0 0 0 0.11524,0.02734 l 7.40625,1.675781 a 10.001,10.001 0 0 0 0.0195,0.0039 c 5.77431,1.293646 9.93964,3.375146 12.33398,5.71875 2.39435,2.343605 3.74414,4.867142 3.74414,10.324219 0,7.712791 -2.93024,12.263867 -8.12109,16.048828 -5.19085,3.784962 -13.02427,6.083985 -20.93945,6.083985 -6.69059,0 -14.6081,-1.467391 -21.69922,-3.798828 l 1.9082,-4.839844 c 5.08211,2.598526 10.79443,4.507812 17.28321,4.507812 2.96992,0 6.13451,-0.370834 9.83398,-2.205078 3.69947,-1.834244 8.52734,-6.930557 8.52734,-13.171875 0,-5.560829 -4.7859,-11.241636 -8.3164,-12.878906 -3.53051,-1.63727 -6.0436,-1.748958 -7.00391,-1.941406 a 10.001,10.001 0 0 0 -0.17773,-0.03516 l -6.57227,-1.193359 a 10.001,10.001 0 0 0 -0.0371,-0.0059 c -4.98981,-0.886506 -9.09609,-2.790601 -11.54687,-5.03711 -2.45079,-2.246508 -3.73047,-4.503858 -3.73047,-9.009765 a 10.001,10.001 0 0 0 0,-0.002 c -0.002,-7.652908 3.04215,-12.701895 8.29883,-16.767579 C 449.54183,12.489004 457.28303,10 465.04492,10 Z m 43.08203,1.433594 h 48.80274 v 5.294922 l -8.06641,0.02344 a 10.001,10.001 0 0 0 -9.9707,10 V 81.5 H 526.16211 V 26.75 a 10.001,10.001 0 0 0 -9.9707,-10 l -8.06446,-0.02148 z m -11.34375,24.71875 a 10.001,10.001 0 0 0 1.31446,0.546875 l 8.06445,0.02344 V 56.34375 c -0.93873,-7.998918 -4.20027,-15.129507 -9.33984,-20.160156 -0.0121,-0.01187 -0.0269,-0.0194 -0.0391,-0.03125 z M 65.462891,71.167969 c 0.0021,0.0037 0.0057,0.0061 0.0078,0.0098 0.001,0.0018 9.18e-4,0.004 0.002,0.0059 z"
       id="path6" /><path
       style="baseline-shift:baseline;display:inline;overflow:visible;vector-effect:none;fill:#949494;stroke:none;enable-background:accumulate;stop-color:#000000;stop-opacity:1"
       d="m 50.75,0.875 c 0.015,20.9 0.003,41.803 0.008,62.7 0.014,9.778 -0.032,19.565 0.022,29.352 4.272,-0.039 8.547,-0.01 12.82,-0.021 V 0.859 C 59.317,0.872 55.034,0.848 50.75,0.875 m 15.708,-0.01 c -0.002,5.026 0,10.058 0,15.085 -0.057,8.884 0.245,17.781 1.05,26.64 0.417,4.094 0.872,8.218 1.945,12.201 1.169,3.962 2.665,7.851 4.711,11.448 2.618,4.622 6.102,8.699 9.996,12.294 2.363,2.174 4.82,4.254 7.524,5.985 3.705,2.413 7.738,4.29 11.907,5.742 3.501,1.189 7.1,2.134 10.769,2.636 -0.004,-4.586 -0.001,-9.171 0,-13.757 -1.867,-0.272 -3.706,-0.728 -5.501,-1.299 C 102.421,75.779 96.498,72.194 91.607,67.531 86.487,62.659 82.558,56.605 79.833,50.098 76.958,43.374 75.67,36.1 74.757,28.88 73.642,19.589 73.323,10.214 73.399,0.859 71.084,0.858 68.771,0.861 66.458,0.865 m 366.454,58.383 1.672,1.313 c 5.854,4.538 12.9,8.242 20.426,8.242 3.229,0 8.361,-1.313 8.361,-5.377 0,-4.061 -4.301,-4.418 -7.285,-5.016 l -6.572,-1.193 C 436.737,54.947 425.987,47.42 425.987,33.324 425.982,11.945 445.455,0 465.044,0 c 10.27,0 19.707,2.508 28.547,7.884 l -8.84,23.054 c -5.613,-3.819 -11.943,-6.808 -18.99,-6.808 -2.867,0 -7.049,1.073 -7.049,4.776 0,3.346 4.063,3.821 6.568,4.419 L 472.687,35 c 13.855,3.104 23.891,10.511 23.891,25.801 0,21.5 -19.59,32.133 -39.061,32.133 -11.35,0 -24.486,-3.105 -34.641,-8.243 z M 498.126,1.433 h 68.803 V 26.7 l -18.037,0.051 V 91.5 H 516.163 V 26.75 L 498.126,26.7 Z M 40.963,0.865 c 2.326,-0.009 4.651,0 6.981,-0.006 0.008,5.472 0,10.942 0.003,16.41 0.021,4.567 -0.106,9.131 -0.295,13.694 -0.312,6.586 -0.725,13.188 -1.814,19.696 -0.75,4.486 -2.305,8.819 -4.229,12.932 -3.142,6.622 -8.081,12.226 -13.632,16.938 -4.964,4.37 -10.892,7.555 -17.126,9.701 C 7.324,91.455 3.694,92.386 0,92.91 0.003,88.322 0.003,83.729 0,79.143 c 4.449,-0.67 8.726,-2.249 12.696,-4.337 4.712,-2.492 8.954,-5.841 12.526,-9.794 3.688,-4.077 6.626,-8.801 8.856,-13.813 2.627,-5.765 4.033,-11.994 4.989,-18.229 1.198,-7.927 1.697,-15.951 1.882,-23.958 0.03,-2.713 0.007,-5.429 0.014,-8.147 z"
       id="path7" /></g></g>
</svg>
