<?xml version="1.0" encoding="UTF-8" standalone="no"?>
<svg
   height="217.21507"
   viewBox="0 0 378.93364 137.93162"
   width="596.74573"
   version="1.1"
   id="svg5"
   sodipodi:docname="atom.svg"
   xml:space="preserve"
   inkscape:version="1.4.3 (0d15f75042, 2025-12-25)"
   xmlns:inkscape="http://www.inkscape.org/namespaces/inkscape"
   xmlns:sodipodi="http://sodipodi.sourceforge.net/DTD/sodipodi-0.dtd"
   xmlns="http://www.w3.org/2000/svg"
   xmlns:svg="http://www.w3.org/2000/svg"><defs
     id="defs5" /><sodipodi:namedview
     id="namedview5"
     pagecolor="#838383"
     bordercolor="#000000"
     borderopacity="0.25"
     inkscape:showpageshadow="2"
     inkscape:pageopacity="0.0"
     inkscape:pagecheckerboard="0"
     inkscape:deskcolor="#d1d1d1"
     inkscape:zoom="0.73399884"
     inkscape:cx="110.3544"
     inkscape:cy="83.787598"
     inkscape:window-width="1920"
     inkscape:window-height="1080"
     inkscape:window-x="0"
     inkscape:window-y="0"
     inkscape:window-maximized="0"
     inkscape:current-layer="svg5" /><g
     id="g1"
     transform="translate(3.8099992)"><g
       id="path3"
       style="stroke:#ffffff;stroke-width:12.7;stroke-linecap:round;stroke-linejoin:round;stroke-dasharray:none;stroke-opacity:1;paint-order:markers stroke fill"
       transform="translate(-66.318932,-8.8239978)"><path
         style="baseline-shift:baseline;display:inline;overflow:visible;vector-effect:none;fill:#ffffff;stroke:none;enable-background:accumulate;stop-color:#000000;stop-opacity:1"
         d="M 114.88281,8.8242188 A 6.3506349,6.3506349 0 0 0 109.875,11.271484 L 62.580078,71.962891 a 6.3506349,6.3506349 0 0 0 5,10.253906 L 77.875,82.230469 A 6.3506349,6.3506349 0 0 0 82.869141,79.8125 l 11.158203,-14.148438 12.449216,0.0625 -0.041,10.382813 a 6.3506349,6.3506349 0 0 0 6.34961,6.375 h 10.48047 a 6.3506349,6.3506349 0 0 0 6.34765,-6.224609 l 1.19922,-60.960938 A 6.3506349,6.3506349 0 0 0 124.4629,8.8242188 Z m 3.10352,12.7011722 h 0.002 l -0.043,2.175781 a 6.3506349,6.3506349 0 0 0 -1.29492,-0.460938 z"
         id="path11" /><path
         style="baseline-shift:baseline;display:inline;overflow:visible;vector-effect:none;fill:#52ad67;stroke:none;enable-background:accumulate;stop-color:#000000;stop-opacity:1"
         d="m 67.588,75.866 10.295,0.014 13.077,-16.582 21.892,0.11 -0.067,16.726 h 10.48 l 1.199,-60.96 -9.58,0.001 z m 30.557,-25.549 16.07,-21.808 -1.108,22.224 z"
         id="path12" /></g></g><text
     fill="#ffffff"
     fill-opacity="0.5"
     font-family="TrasksHand"
     font-size="0.37px"
     stroke-width="0.185"
     x="-148.34094"
     y="50.405006"
     id="text1"><tspan
       x="-148.34094"
       y="50.405006"
       id="tspan1">John Loreth 2022</tspan></text><g
     id="g6"
     style="stroke:#ffffff;stroke-width:12.7;stroke-linecap:round;stroke-linejoin:round;stroke-dasharray:none;stroke-opacity:1;paint-order:markers stroke fill"
     transform="translate(305.41696,6.3133843)"><g
       id="path1"
       style="opacity:1"><path
         style="baseline-shift:baseline;display:inline;overflow:visible;vector-effect:none;fill:#ffffff;stroke:none;enable-background:accumulate;stop-color:#000000;stop-opacity:1"
         d="m 29.779297,-6.2871094 c -2.378307,0.1137122 -4.672708,0.5860685 -6.810547,1.2207032 a 6.3506349,6.3506349 0 0 0 -0.359375,0.1191406 c -4.226855,1.5346894 -8.001716,4.14064973 -11.363281,7.6210937 a 6.3506349,6.3506349 0 0 0 -0.002,0 C 8.3567661,5.6641277 6.3292184,8.4065188 4.1757812,12.208984 1.8631186,16.291225 0.25748414,19.89785 -1.2246094,24.339844 -2.712483,28.798993 -4.19623,34.560985 -4.7089844,38.480469 a 6.3506349,6.3506349 0 0 0 0,0.002 c -0.0616,0.472518 -0.2914639,2.06885 -0.4785156,3.287109 a 6.3506349,6.3506349 0 0 0 -0.00195,0 c -0.2712862,1.769038 -0.5037654,4.169154 -0.6855469,6.455078 -0.090891,1.142963 -0.1641548,2.229289 -0.2089844,3.158203 -0.044829,0.928915 -0.1749034,1.157695 0.019531,2.775391 l 0.087891,0.75 a 6.3506349,6.3506349 0 0 0 6.27929688,5.605469 l 30.09960942,0.126953 30.101562,0.126953 a 6.3506349,6.3506349 0 0 0 6.34961,-5.759766 l 0.08203,-0.884765 v -0.0059 c 0.107981,-1.153798 0.03139,-1.18944 0.0098,-1.669921 -0.0217,-0.482167 -0.055,-1.038007 -0.09961,-1.671875 -0.08919,-1.267186 -0.221155,-2.835424 -0.376953,-4.457032 v -0.002 C 65.721833,38.53369 64.260601,30.933225 62.248047,24.958984 59.087619,15.577504 54.897273,7.9856475 49.287109,2.4042969 45.461194,-1.4018176 41.701157,-3.8291153 37.121094,-5.3417969 a 6.3506349,6.3506349 0 0 0 -0.02734,-0.00977 c -2.473207,-0.8040059 -4.936147,-1.049259 -7.314453,-0.9355469 z M 30.289062,6.328125 c 1.003919,-0.061617 1.869847,0.072439 2.869141,0.3964844 3.246268,1.0734131 4.050069,1.5779444 7.171875,4.6835936 3.735836,3.716649 7.15324,9.502949 9.882813,17.605469 1.541276,4.575256 2.946141,11.56498 3.613281,18.517578 0.01794,0.186671 0.02574,0.322712 0.04297,0.507812 l -23.41211,-0.09961 -23.5253904,-0.09961 c 0.1486356,-1.603808 0.3148037,-3.367561 0.4335938,-4.142578 v -0.002 C 7.563991,42.400751 7.7823508,40.912348 7.8847656,40.126953 v -0.002 c 0.2516005,-1.921593 1.7635571,-8.247324 2.9375004,-11.765625 1.283906,-3.848006 2.398959,-6.350866 4.404297,-9.890625 1.842562,-3.253534 2.767671,-4.500956 5.154296,-6.972656 2.29778,-2.379039 4.168836,-3.5917174 6.416016,-4.4316409 1.421334,-0.412913 2.54334,-0.6780906 3.492187,-0.7363281 z"
         id="path7" /><path
         style="baseline-shift:baseline;display:inline;overflow:visible;vector-effect:none;fill:#52ad67;stroke:none;enable-background:accumulate;stop-color:#000000;stop-opacity:1"
         d="M 30.43,54.29 0.33,54.163 0.24,53.401 c -0.125,-1.04 0.418,-7.864 0.848,-10.668 0.193,-1.257 0.418,-2.8 0.5,-3.429 0.382,-2.92 1.88,-8.965 3.211,-12.954 1.383,-4.145 2.743,-7.2 4.902,-11.011 1.998,-3.528 3.475,-5.523 6.112,-8.254 2.856,-2.957 5.691,-4.875 8.963,-6.063 3.692,-1.096 6.878,-1.464 10.354,-0.334 3.924,1.296 6.2,2.758 9.678,6.218 4.673,4.649 8.478,11.338 11.423,20.08 1.777,5.275 3.21,12.57 3.917,19.938 0.302,3.143 0.511,6.115 0.465,6.604 l -0.083,0.89 z"
         id="path8" /></g><g
       id="path2"
       style="opacity:1"><path
         style="baseline-shift:baseline;display:inline;overflow:visible;vector-effect:none;fill:#ffffff;stroke:none;enable-background:accumulate;stop-color:#000000;stop-opacity:1"
         d="M 0.07617187,49.591797 A 6.3506349,6.3506349 0 0 0 -6.265625,55.640625 l -0.078125,1.628906 a 6.3506349,6.3506349 0 0 0 -0.00586,0.333985 c 0.036277,6.785381 2.3642696,12.929465 6.08789065,18.111328 A 6.3506349,6.3506349 0 0 0 -6.00586,80.503906 l -0.1738281,0.929688 a 6.3506349,6.3506349 0 0 0 -0.00391,0.01563 c -0.1308579,0.705255 -0.1927399,1.328261 -0.1582032,2.140625 0.017268,0.406182 0.04587,0.851936 0.2207032,1.544922 0.1748335,0.692985 0.2237902,1.803582 2.0859375,3.40625 a 6.3506349,6.3506349 0 0 0 0.025391,0.01953 c 2.3270714,1.98276 2.4054705,1.327539 2.8886719,1.457031 0.48320127,0.129492 0.91294033,0.219102 1.4648437,0.330078 1.1038067,0.221952 2.6518503,0.500706 4.9960937,0.908203 a 6.3506349,6.3506349 0 0 0 0.00195,0 C 6.8698943,91.52076 13.018766,92.881555 13.75,93.083984 a 6.3506349,6.3506349 0 0 0 0.002,0.002 c 4.737884,1.310375 10.331012,3.03037 11.566406,3.484375 a 6.3506349,6.3506349 0 0 0 0.0098,0.0039 c 1.068798,0.390649 2.139882,0.777694 3.210937,1.162109 0.883014,0.318284 2.349908,0.917736 2.472657,0.974609 a 6.3506349,6.3506349 0 0 0 0.0039,0.002 c 0.395165,0.182788 0.772754,0.346906 1.134766,0.49414 0.356262,0.144897 0.14559,0.202545 1.564453,0.511719 -0.560052,-0.125226 -0.554682,-0.152514 -0.41211,-0.0957 0.178339,0.07106 0.460229,0.188535 0.720703,0.304687 0.39006,0.173937 0.750855,0.329567 1.076172,0.462897 0.162659,0.0667 0.310394,0.12567 0.503907,0.19726 0.01828,0.007 0.05504,0.0183 0.07422,0.0254 0.09656,0.0455 0.280781,0.13628 0.435547,0.21094 0.01917,0.0306 0.07113,0.0486 0.167969,0.0801 0.07808,0.0379 0.111362,0.0538 0.197266,0.0957 0.735844,0.35909 1.745812,0.85981 2.787109,1.38086 2.082593,1.0421 4.637521,2.36554 4.685547,2.39258 0.825843,0.46521 3.344631,1.97533 5.695312,3.43164 a 6.3506349,6.3506349 0 0 0 0.002,0.002 c 0.40945,0.25352 2.115026,1.41834 3.146485,2.18164 0.692535,0.51249 1.350958,0.97028 1.964844,1.36328 0.306942,0.1965 0.589125,0.37271 0.964843,0.57618 0.187859,0.10173 0.388326,0.20934 0.744141,0.35937 0.355815,0.15003 0.493524,0.53125 2.578125,0.53125 2.518103,0 2.049293,-0.29825 2.482422,-0.4375 0.433129,-0.13925 0.842986,-0.28879 1.294922,-0.45898 0.903872,-0.34039 1.940433,-0.75956 2.96875,-1.19336 1.028317,-0.43381 2.029118,-0.87343 2.873047,-1.27149 0.421964,-0.19903 0.791396,-0.37879 1.208984,-0.60742 0.208794,-0.11432 0.416822,-0.22543 0.779297,-0.47266 0.181238,-0.12361 0.396743,-0.26766 0.767578,-0.60546 0.370835,-0.33781 1.081805,-0.57411 1.794922,-2.77344 a 6.3506349,6.3506349 0 0 0 0.002,-0.004 c 0.776689,-2.40009 -0.139866,-4.64104 -0.771484,-5.605469 -0.631618,-0.964432 -1.111155,-1.332971 -1.5,-1.654296 -0.777692,-0.64265 -1.324055,-0.95141 -2.013672,-1.34961 -1.379235,-0.7964 -3.227973,-1.740648 -6.082032,-3.162109 a 6.3506349,6.3506349 0 0 0 -0.002,0 C 57.936217,91.17742 56.505077,90.510817 51.746218,88.453204 50.844965,88.06348 49.369126,87.546762 48.181765,87.086016 c 1.112598,-0.602707 2.293031,-1.066267 3.345703,-1.759765 a 6.3506349,6.3506349 0 0 0 0.0039,-0.002 c 3.72272,-2.456995 6.967316,-5.4403 9.574219,-9.34961 3.737681,-5.603107 5.894546,-11.350248 5.986328,-17.267578 a 6.3506349,6.3506349 0 0 0 0,-0.0039 l 0.04102,-2.666016 a 6.3506349,6.3506349 0 0 0 -6.349732,-6.44535 z M 7.2539062,62.291016 H 53.695312 c -0.559871,1.974788 -1.442688,4.070869 -3.154296,6.636718 a 6.3506349,6.3506349 0 0 0 -0.002,0 c 0.112829,-0.169197 -5.516211,5.47112 -6,5.792969 -2.788322,1.836942 -8.090534,3.710768 -9.564453,3.855469 -1.118705,0.109202 -2.059221,-0.485742 -4.390625,0.945312 C 30.12477,79.305281 29.896869,79.35463 29.714844,79.294922 29.395829,79.190279 29.227959,79.153243 29.068359,79.115234 28.74916,79.039218 28.510316,78.994451 28.246094,78.947266 27.810173,78.869418 27.311735,78.799518 26.800781,78.730469 18.213171,77.184681 9.8600781,70.132629 7.2539062,62.291016 Z"
         id="path9" /><path
         style="baseline-shift:baseline;display:inline;overflow:visible;vector-effect:none;fill:#38894b;stroke:none;enable-background:accumulate;stop-color:#000000;stop-opacity:1"
         d="m 56.573,105.285 c -1.177,-0.871 -2.789,-1.986 -3.582,-2.477 -2.397,-1.485 -4.85,-2.962 -5.924,-3.567 -1.215,-0.684 -8.971,-4.565 -9.123,-4.565 -0.058,0 -0.659,-0.246 -1.334,-0.547 -0.675,-0.301 -1.364,-0.576 -1.532,-0.61 -0.167,-0.036 -0.796,-0.291 -1.397,-0.569 -0.6,-0.278 -1.95,-0.813 -2.997,-1.19 A 579.552,579.552 0 0 1 27.509,90.61 C 25.626,89.918 20.289,88.305 15.444,86.965 13.916,86.542 8.446,85.349 6.427,84.999 1.773,84.19 0.304,83.895 0.108,83.728 -0.014,83.623 -0.035,83.12 0.06,82.608 l 0.175,-0.93 1.318,0.17 c 2.035,0.26 6.975,1.114 8.81,1.522 0.909,0.201 3.08,0.663 4.827,1.025 5.018,1.041 5.667,1.186 6.477,1.442 0.419,0.133 1.39,0.346 2.159,0.473 0.769,0.127 1.968,0.39 2.667,0.582 l 1.27,0.35 0.08,-0.88 C 27.887,85.878 27.868,85.426 27.801,85.359 27.734,85.292 26.783,85.122 25.689,84.982 12.515,82.617 0.072,71.037 0,57.57 l 0.077,-1.629 h 60.706 l -0.04,2.667 c -0.07,4.513 -1.636,8.92 -4.92,13.843 -1.247,1.87 -5.69,6.187 -7.79,7.573 -3.728,2.456 -9.047,4.54 -12.442,4.872 -2.725,0.266 -2.621,0.186 -2.621,2.045 0,1.572 0.025,1.635 0.698,1.78 2.047,0.442 11.703,3.893 15.558,5.56 4.732,2.046 5.905,2.592 10.795,5.026 5.638,2.808 7.278,3.755 7.156,4.132 -0.107,0.33 -7.456,3.43 -8.13,3.43 -0.183,0 -1.297,-0.713 -2.474,-1.584 z"
         id="path10" /></g></g><path
     style="baseline-shift:baseline;display:inline;overflow:visible;vector-effect:none;fill:#ffffff;stroke:none;stroke-width:12.7;stroke-linecap:round;stroke-linejoin:round;stroke-dasharray:none;stroke-opacity:1;paint-order:markers stroke fill;enable-background:accumulate;stop-color:#000000"
     d="m 158.90412,0.44162721 c -5.21817,0 -10.24202,0.98513599 -14.86328,2.98632799 -4.50862,1.951622 -8.52878,4.696336 -11.89063,8.1582028 -1.14844,1.182895 -2.09125,2.521242 -3.06445,3.835938 -0.41043,-0.569708 -0.75837,-1.228872 -1.18946,-1.769532 -1.78265,-2.294773 -4.03402,-4.2916398 -6.70703,-6.1796868 -3.41798,-2.466239 -7.14867,-4.282168 -11.09179,-5.339844 -3.62743,-1.0248635 -7.157,-1.58593719 -10.591802,-1.58593719 -4.832682,0 -9.570852,0.94193719 -14.029302,2.78710919 -4.41303,1.795048 -8.38841,4.44032 -11.76953,7.8183588 -3.38701,3.330356 -6.07122,7.286261 -7.9668,11.707032 -1.94563,4.483035 -2.91015,9.348405 -2.91015,14.384765 0,4.884684 0.9372,9.672088 2.7793,14.185547 a 6.3506349,6.3506349 0 0 0 0.041,0.101563 c 1.88211,4.393955 4.50229,8.363876 7.78906,11.779297 a 6.3506349,6.3506349 0 0 0 0.043,0.04297 c 3.35136,3.417303 7.27415,6.153104 11.63867,8.115235 a 6.3506349,6.3506349 0 0 0 0.10157,0.04297 c 4.48971,1.925776 9.29226,2.904297 14.203122,2.904297 2.900332,0 5.813932,-0.355678 8.705082,-1.046875 3.01644,-0.707754 5.93854,-1.804105 8.72266,-3.259765 a 6.3506349,6.3506349 0 0 0 0.0488,-0.02539 c 2.92656,-1.562135 5.6498,-3.560205 8.15039,-5.9375 1.5417,-1.465656 2.90386,-3.124125 4.17188,-4.875 0.98099,1.317273 1.93412,2.657382 3.08594,3.84375 a 6.3506349,6.3506349 0 0 0 0.043,0.04297 c 3.40177,3.437009 7.42942,6.169237 11.92773,8.117187 a 6.3506349,6.3506349 0 0 0 0.0684,0.0293 c 4.57731,1.917803 9.49358,2.876953 14.55469,2.876953 5.06165,0 9.97921,-0.959099 14.55664,-2.876953 a 6.3506349,6.3506349 0 0 0 0.0703,-0.0293 c 4.498,-1.947814 8.50682,-4.68795 11.86328,-8.138672 0.63179,-0.639253 1.1118,-1.389071 1.69336,-2.066406 v 6.072266 a 6.3506349,6.3506349 0 0 0 6.34961,6.349609 h 8.79102 a 6.3506349,6.3506349 0 0 0 6.3496,-6.349609 v -8.0625 l 8.5293,11.785156 a 6.3506349,6.3506349 0 0 0 5.14453,2.626953 h 10.98633 a 6.3506349,6.3506349 0 0 0 2.39063,-1.484375 6.3506349,6.3506349 0 0 0 3.58203,1.484375 h 8.53906 a 6.3506349,6.3506349 0 0 0 6.34961,-6.349609 v -24.09375 l 17.38476,27.488281 a 6.3506349,6.3506349 0 0 0 5.36719,2.955078 h 8.85547 a 6.3506349,6.3506349 0 0 0 6.34961,-6.349609 V 7.9357682 a 6.3506349,6.3506349 0 0 0 -6.34961,-6.34961 h -8.53906 a 6.3506349,6.3506349 0 0 0 -6.35156,6.34961 V 31.295143 L 253.90808,4.5451432 a 6.3506349,6.3506349 0 0 0 -5.36718,-2.958985 h -9.33008 a 6.3506349,6.3506349 0 0 0 -6.35157,6.351563 v 0.814453 c -0.1606,-0.158419 -0.26979,-0.362271 -0.43554,-0.515625 a 6.3506349,6.3506349 0 0 0 -0.008,-0.0098 c -2.43245,-2.241885 -5.36688,-3.909129 -8.57813,-5.009765 -3.46004,-1.205467 -7.30279,-1.63086 -11.75977,-1.63086 h -18.64062 a 6.3506349,6.3506349 0 0 0 -6.34961,6.351563 V 13.47089 c -0.58725,-0.680235 -1.07139,-1.441516 -1.71094,-2.078125 -3.36326,-3.4523768 -7.38794,-6.1727588 -11.90039,-8.0664058 -4.54781,-1.930434 -9.47188,-2.88476599 -14.57226,-2.88476599 z m 60.90234,10.41796879 0.0625,0.02344 c -0.0101,-0.0038 -0.0212,-0.004 -0.0312,-0.0078 -0.0109,-0.004 -0.0203,-0.0116 -0.0312,-0.01563 z m -48.75391,0.115234 0.13086,0.0625 c -0.0205,-0.01016 -0.0439,-0.01334 -0.0645,-0.02344 -0.0235,-0.01107 -0.0429,-0.02806 -0.0664,-0.03906 z m -24.62304,0.121094 c -0.0151,0.0074 -0.0279,0.018 -0.043,0.02539 -0.0131,0.0066 -0.028,0.009 -0.041,0.01563 z m -32.76758,1.386719 0.23828,0.154296 c -0.0457,-0.03104 -0.0986,-0.05134 -0.14453,-0.08203 -0.0353,-0.02188 -0.0583,-0.05042 -0.0937,-0.07227 z m 112.55273,2.447265 0.21875,0.226563 c -0.0295,-0.03209 -0.0698,-0.05025 -0.0996,-0.08203 -0.0439,-0.04415 -0.0747,-0.100876 -0.11914,-0.144531 z m 19.34571,0.175781 0.41601,0.658204 a 6.3506349,6.3506349 0 0 0 -0.41601,0.171875 z m -127.62305,0.621094 0.14844,0.144531 c -0.01,-0.0097 -0.0235,-0.0157 -0.0332,-0.02539 -0.0398,-0.03765 -0.0753,-0.08167 -0.11523,-0.119141 z m 62.33984,2.31836 0.0469,0.05664 c -0.006,-0.0079 -0.015,-0.01364 -0.0215,-0.02148 -0.009,-0.01115 -0.016,-0.02401 -0.0254,-0.03516 z m -21.37304,2.96289 c 2.6996,0 4.817,0.503599 6.63672,1.40625 a 6.3506349,6.3506349 0 0 0 0.13085,0.06445 c 2.05213,0.95988 3.57842,2.149733 4.83399,3.679688 a 6.3506349,6.3506349 0 0 0 0.0488,0.05859 c 1.40043,1.666545 2.41499,3.437984 3.125,5.433593 a 6.3506349,6.3506349 0 0 0 0.0137,0.03906 c 0.72557,1.998209 1.0625,3.910125 1.0625,5.859375 0,1.573577 -0.30124,3.38686 -1.01563,5.474609 -0.6508,1.853678 -1.6399,3.61356 -3.07421,5.361328 a 6.3506349,6.3506349 0 0 0 -0.01,0.01172 c -1.2069,1.478395 -2.76178,2.730661 -4.87305,3.804688 -1.86349,0.89935 -4.06704,1.412109 -6.8789,1.412109 -2.81908,0 -5.02706,-0.514573 -6.89258,-1.417969 -2.02759,-1.008357 -3.58163,-2.244044 -4.86719,-3.810547 -1.42413,-1.735364 -2.4128,-3.509104 -3.06836,-5.421875 a 6.3506349,6.3506349 0 0 0 0,-0.002 c -0.71055,-2.071703 -1.01953,-3.931944 -1.01953,-5.65039 0,-1.648215 0.30474,-3.48624 1.01953,-5.570313 0.66252,-1.933078 1.643,-3.718503 3.01563,-5.449219 1.26676,-1.53464 2.82,-2.76768 4.89453,-3.777343 a 6.3506349,6.3506349 0 0 0 0.0859,-0.04102 c 1.85665,-0.937944 4.03297,-1.464844 6.83203,-1.464844 z m -59.240242,0.125 c 1.607092,0 2.922042,0.214469 4.015632,0.56836 1.32469,0.429775 2.33353,0.931877 3.08008,1.439453 a 6.3506349,6.3506349 0 0 0 0.23828,0.154297 c 1.08946,0.671371 1.80562,1.254594 2.10351,1.552734 a 6.3506349,6.3506349 0 0 0 0.14844,0.142578 c 0.69763,0.654339 1.37889,1.359692 2.04687,2.117188 a 6.3506349,6.3506349 0 0 0 0.27344,0.289062 l 0.16016,0.160156 a 6.3506349,6.3506349 0 0 0 4.49023,1.859375 h 6.41407 c -0.57168,2.586714 -0.9336,5.216626 -0.9336,7.894532 0,2.959117 0.48506,5.860233 1.19922,8.714843 h -7.31641 a 6.3506349,6.3506349 0 0 0 -4.8457,2.246094 c -1.53356,1.810231 -3.23948,3.139297 -5.27539,4.138672 a 6.3506349,6.3506349 0 0 0 -0.043,0.02148 c -1.9147,0.95758 -3.78593,1.398438 -5.914062,1.398438 -1.932822,0 -3.744372,-0.378158 -5.640632,-1.212891 -1.89704,-0.835079 -3.49853,-1.961418 -4.95703,-3.498047 -1.4861,-1.565195 -2.63885,-3.324615 -3.52148,-5.404297 -0.84792,-2.051287 -1.25977,-4.119696 -1.25977,-6.390625 0,-2.314884 0.40197,-4.342637 1.19336,-6.267578 a 6.3506349,6.3506349 0 0 0 0.0156,-0.03711 c 0.82333,-2.039612 1.91711,-3.716438 3.35742,-5.195313 1.45577,-1.495247 3.07351,-2.618417 4.99414,-3.466796 1.92217,-0.826918 3.84572,-1.22461 5.976562,-1.22461 z m 108.914062,1.074219 h 2.92969 c 1.8199,0 3.09698,0.260033 3.84571,0.544922 a 6.3506349,6.3506349 0 0 0 0.0625,0.02344 c 0.99164,0.365443 1.43928,0.727541 1.67578,0.984375 a 6.3506349,6.3506349 0 0 0 0.21875,0.22461 c 0.51919,0.510582 0.74092,0.891256 0.88086,1.257812 0.22663,0.593644 0.31445,1.098675 0.31445,1.65625 0,1.6336 -0.31649,2.20137 -0.5918,2.550781 a 6.3506349,6.3506349 0 0 0 -0.0195,0.02344 c -0.59805,0.766728 -1.15715,1.173353 -1.97656,1.511719 -1.37978,0.509598 -2.61487,0.820451 -3.68945,0.960937 -1.3298,0.122592 -2.53729,0.175971 -3.6504,0.185547 z m -15.2832,1.050781 0.0137,0.03125 c -0.003,-0.0063 -0.007,-0.01132 -0.01,-0.01758 -0.002,-0.0044 -0.002,-0.0093 -0.004,-0.01367 z m -68.87695,0.203125 c -0.002,0.005 -0.002,0.01063 -0.004,0.01563 -0.002,0.0049 -0.006,0.0088 -0.008,0.01367 z m -50.843754,2.765625 c -0.003,0.0069 -0.003,0.0146 -0.006,0.02148 -0.003,0.0063 -0.007,0.01131 -0.01,0.01758 z m 112.056644,1.126953 0.0137,0.03906 c -0.002,-0.0055 -0.006,-0.01012 -0.008,-0.01563 -0.003,-0.0076 -0.003,-0.0158 -0.006,-0.02344 z m 42.2793,9.931641 -0.0195,0.02344 c 0.003,-0.0037 0.005,-0.008 0.008,-0.01172 0.003,-0.0044 0.008,-0.0074 0.0117,-0.01172 z m 4.94921,7.392578 v 11.5 l -5.68945,-7.458984 c 1.06862,-0.53723 2.12276,-1.119239 3.14063,-1.802735 0.94935,-0.624304 1.72849,-1.456454 2.54882,-2.238281 z m 46.49805,13.744141 v 0.802734 l -0.40234,-0.636719 a 6.3506349,6.3506349 0 0 0 0.40234,-0.166015 z m -168.25586,5.36914 -0.043,0.01953 c 0.006,-0.0027 0.0101,-0.007 0.0156,-0.0098 0.009,-0.0044 0.0186,-0.0054 0.0273,-0.0098 z"
     id="path13" /><path
     style="baseline-shift:baseline;display:inline;overflow:visible;vector-effect:none;fill:#52ad67;stroke:none;stroke-width:12.7;stroke-linecap:round;stroke-linejoin:round;stroke-dasharray:none;stroke-opacity:1;paint-order:markers stroke fill;enable-background:accumulate;stop-color:#000000"
     d="m 126.56607,23.066002 -0.08,-0.159 q -1.67,-2.947 -3.58,-5.336 -1.911,-2.47 -5.413,-4.938 -4.298,-3.1059998 -9.074,-4.3799998 -4.775,-1.355 -8.914002,-1.355 -6.049002,0 -11.620002,2.31 -5.492,2.2299998 -9.71,6.4509998 -4.22,4.142 -6.607,9.717 -2.388,5.496 -2.388,11.868 0,6.132 2.308,11.787 2.388,5.575 6.527,9.876 4.218,4.301 9.71,6.77 5.572,2.39 11.700002,2.39 3.582002,0 7.243002,-0.877 3.741,-0.876 7.243,-2.707 3.582,-1.912 6.766,-4.939 3.183,-3.026 5.491,-7.168 h -10.585 q -3.104,3.664 -7.323,5.735 -4.139,2.07 -8.755002,2.07 -4.218002,0 -8.198002,-1.752 -3.98,-1.752 -7.004,-4.938 -3.025,-3.186 -4.776,-7.327 -1.75,-4.221 -1.75,-8.84 0,-4.62 1.67,-8.682 1.672,-4.142 4.697,-7.248 3.024,-3.106 7.004,-4.858 4.059,-1.753 8.516002,-1.753 3.263002,0 5.970002,0.876 2.706,0.877 4.696,2.23 2.069,1.275 3.263,2.47 1.273,1.194 2.467,2.548 l 0.16,0.16 z m 63.195,14.404 q 0,-6.2 -2.325,-11.763 -2.324,-5.643 -6.572,-9.856 -4.167,-4.291 -9.857,-6.6759998 -5.61,-2.384 -12.102,-2.384 -6.651,0 -12.341,2.464 -5.69,2.4629998 -9.858,6.7549998 -4.167,4.292 -6.411,9.856 -2.244,5.484 -2.244,11.445 0,5.962 2.324,11.525 2.324,5.564 6.491,9.856 4.248,4.292 9.938,6.756 5.69,2.384 12.101,2.384 6.412,0 12.102,-2.384 5.69,-2.464 9.857,-6.756 4.248,-4.292 6.572,-9.776 2.324,-5.485 2.324,-11.446 z m -8.656,0.08 q 0,3.577 -1.363,7.55 -1.362,3.895 -4.167,7.313 -2.725,3.338 -6.972,5.484 -4.248,2.067 -9.698,2.067 -5.45,0 -9.697,-2.067 -4.167,-2.066 -6.972,-5.484 -2.805,-3.418 -4.167,-7.392 -1.363,-3.974 -1.363,-7.71 0,-3.656 1.363,-7.63 1.362,-3.974 4.087,-7.392 2.805,-3.417 7.052,-5.484 4.248,-2.146 9.697,-2.146 5.29,0 9.457,2.067 4.248,1.987 7.053,5.405 2.805,3.338 4.247,7.391 1.443,3.974 1.443,8.028 z m 52.134,29.593 -16.848,-22.082 q 1.954,0 4.721,-0.72 2.85,-0.8 5.698,-2.72 2.93,-1.921 4.884,-5.601 1.953,-3.68 1.953,-9.121 0,-3.92 -1.383,-7.68 -1.384,-3.761 -4.152,-6.322 -2.604,-2.4 -6.348,-3.6799998 -3.663,-1.28 -9.687,-1.28 h -18.64 V 67.143002 h 8.791 v -27.443 h 0.163 l 19.86,27.443 z m -31.012,-51.285 h 9.28 q 3.581,0 6.104,0.96 2.605,0.96 4.152,2.64 1.627,1.6 2.36,3.52 0.733,1.92 0.733,3.92 0,4.001 -1.954,6.481 -1.872,2.4 -4.64,3.52 -2.767,1.04 -5.29,1.36 -2.524,0.24 -4.721,0.24 h -6.024 z m 83.48,51.285 V 7.9360022 h -8.54 V 52.980002 h -0.159 l -28.467,-45.0429998 h -9.331 V 67.143002 h 8.54 v -45.765 h 0.158 l 28.943,45.765 z"
     id="path14" /><g
     id="path5"
     style="opacity:1"
     transform="translate(1.2697282)"><path
       style="baseline-shift:baseline;display:inline;overflow:visible;vector-effect:none;fill:#ffffff;stroke-linecap:round;stroke-linejoin:round;paint-order:markers stroke fill;enable-background:accumulate;stop-color:#000000;stop-opacity:1"
       d="m 199.81641,78.201172 c -4.06094,0 -7.95861,0.754038 -11.60352,2.259765 -3.61507,1.448854 -6.84032,3.543934 -9.59375,6.240235 -0.002,0.0016 -0.004,0.0023 -0.006,0.0039 -2.77091,2.667715 -4.94977,5.877584 -6.49609,9.533203 a 3.1753175,3.1753175 0 0 0 -0.0137,0.0332 c -1.50953,3.690273 -2.26172,7.652125 -2.26172,11.794925 0,4.14279 0.75219,8.1066 2.26172,11.79687 a 3.1753175,3.1753175 0 0 0 0.0137,0.0352 c 1.54911,3.65972 3.72815,6.88974 6.49609,9.60156 a 3.1753175,3.1753175 0 0 0 0.0215,0.0195 c 2.75273,2.64557 5.96755,4.73019 9.57031,6.2207 a 3.1753175,3.1753175 0 0 0 0.0371,0.0156 c 3.63867,1.45249 7.52394,2.17578 11.57422,2.17578 4.04967,0 7.93756,-0.72332 11.57617,-2.17578 a 3.1753175,3.1753175 0 0 0 0.0371,-0.0137 c 3.61523,-1.49537 6.83736,-3.61392 9.59179,-6.3125 a 3.1753175,3.1753175 0 0 0 0.002,0 c 2.76568,-2.71034 4.9248,-5.92207 6.42968,-9.54688 1.56056,-3.69341 2.3379,-7.66625 2.3379,-11.8164 0,-4.14822 -0.7788,-8.116653 -2.3379,-11.808597 -1.5035,-3.670011 -3.66697,-6.892442 -6.44726,-9.566406 -2.75599,-2.695757 -5.98363,-4.789553 -9.60156,-6.236328 -3.63948,-1.50184 -7.53374,-2.253906 -11.58789,-2.253906 z m -79.09766,0.876953 a 3.1753175,3.1753175 0 0 0 -2.91992,1.929687 L 95.816406,132.60742 a 3.1753175,3.1753175 0 0 0 2.921875,4.41992 h 2.218749 a 3.1753175,3.1753175 0 0 0 2.91797,-1.92578 l 6.87305,-16.06445 h 22.64648 l 6.87305,16.06445 a 3.1753175,3.1753175 0 0 0 2.91797,1.92578 h 2.2207 a 3.1753175,3.1753175 0 0 0 2.91992,-4.41992 L 126.34375,81.007812 a 3.1753175,3.1753175 0 0 0 -2.91992,-1.929687 z m 21.36719,0.02734 a 3.1753175,3.1753175 0 0 0 -3.17578,3.175781 v 1.882812 a 3.1753175,3.1753175 0 0 0 3.17578,3.173829 h 10.60937 v 46.513673 a 3.1753175,3.1753175 0 0 0 3.17578,3.17578 h 2.05664 a 3.1753175,3.1753175 0 0 0 3.17383,-3.17578 V 87.337891 h 10.61133 a 3.1753175,3.1753175 0 0 0 3.17383,-3.173829 V 82.28125 a 3.1753175,3.1753175 0 0 0 -3.17383,-3.175781 z m 91.22851,0.002 a 3.1753175,3.1753175 0 0 0 -3.17383,3.175781 V 133.8516 a 3.1753175,3.1753175 0 0 0 3.17383,3.17578 h 2.09571 a 3.1753175,3.1753175 0 0 0 3.17382,-3.17578 V 97.724609 l 18.47266,37.529301 a 3.1753175,3.1753175 0 0 0 2.84961,1.77343 h 1.18555 a 3.1753175,3.1753175 0 0 0 2.84961,-1.77539 l 18.40234,-37.490231 v 36.089841 a 3.1753175,3.1753175 0 0 0 3.17383,3.17578 h 2.0957 a 3.1753175,3.1753175 0 0 0 3.17383,-3.17578 V 82.283203 a 3.1753175,3.1753175 0 0 0 -3.17383,-3.175781 h -3.28125 a 3.1753175,3.1753175 0 0 0 -2.84766,1.769531 L 260.5293,123.33984 239.51172,80.873047 a 3.1753175,3.1753175 0 0 0 -2.8457,-1.765625 z m -22.75781,3.083984 0.0547,0.02148 c -0.0107,-0.0045 -0.0225,-0.0053 -0.0332,-0.0098 -0.008,-0.0031 -0.0138,-0.0086 -0.0215,-0.01172 z m -10.74023,4.240235 c 3.00573,0 5.7501,0.545838 8.33007,1.632812 a 3.1753175,3.1753175 0 0 0 0.0547,0.02344 c 2.63595,1.052982 4.86862,2.536284 6.79688,4.501953 a 3.1753175,3.1753175 0 0 0 0.0469,0.04687 c 1.96835,1.925186 3.48305,4.184709 4.58594,6.876953 a 3.1753175,3.1753175 0 0 0 0.0215,0.05469 c 1.12677,2.612198 1.69532,5.409008 1.69532,8.498048 0,3.08829 -0.56767,5.9175 -1.70118,8.58593 a 3.1753175,3.1753175 0 0 0 -0.01,0.0215 c -1.10305,2.65224 -2.62567,4.93131 -4.61524,6.91797 -1.93586,1.93298 -4.19295,3.43242 -6.85546,4.53711 -0.001,5.7e-4 -0.003,0.001 -0.004,0.002 -2.58183,1.04383 -5.33506,1.57031 -8.3457,1.57031 -3.01152,0 -5.79282,-0.52815 -8.42969,-1.57812 -2.60029,-1.09953 -4.85729,-2.59793 -6.8418,-4.53321 -1.93862,-1.98202 -3.46722,-4.26648 -4.61719,-6.92187 -1.09055,-2.6704 -1.64062,-5.50707 -1.64062,-8.60156 0,-3.10029 0.55098,-5.91119 1.63867,-8.529298 1.15489,-2.713912 2.68416,-4.994256 4.61719,-6.923828 1.9896,-1.986689 4.24021,-3.478319 6.83594,-4.53125 a 3.1753175,3.1753175 0 0 0 0.0234,-0.0098 c 2.63542,-1.093443 5.40907,-1.640625 8.41407,-1.640625 z m 19.66796,1.664062 0.0469,0.04687 c -0.008,-0.008 -0.0176,-0.01352 -0.0254,-0.02148 -0.008,-0.0078 -0.0135,-0.0176 -0.0215,-0.02539 z m -97.43945,4.302734 7.75977,18.40625 h -15.47656 z m 103.43945,4.654297 0.0215,0.05469 c -0.003,-0.0071 -0.009,-0.0124 -0.0117,-0.01953 -0.005,-0.01119 -0.005,-0.02397 -0.01,-0.03516 z m 0.0156,22.060543 -0.01,0.0215 c 0.001,-0.002 9.1e-4,-0.005 0.002,-0.008 0.002,-0.005 0.006,-0.009 0.008,-0.0137 z"
       id="path15" /><path
       style="baseline-shift:baseline;display:inline;overflow:visible;vector-effect:none;fill:#38894b;stroke-linecap:round;stroke-linejoin:round;paint-order:markers stroke fill;enable-background:accumulate;stop-color:#000000;stop-opacity:1"
       d="m 108.65335,115.86231 h 26.836 l 7.697,17.99 h 2.219 l -21.982,-51.599996 h -2.704 L 98.737347,133.85231 h 2.219003 z m 13.383,-31.656996 12.551,29.773996 h -25.033 z m 20.049,-1.924 v 1.882 h 13.785 v 49.688996 h 2.057 V 84.163314 h 13.785 v -1.882 z m 30.932,25.785996 q 0,5.645 2.024,10.593 2.094,4.947 5.793,8.571 3.699,3.555 8.584,5.576 4.885,1.95 10.399,1.95 5.513,0 10.398,-1.95 4.886,-2.021 8.585,-5.645 3.698,-3.624 5.722,-8.502 2.094,-4.948 2.094,-10.593 0,-5.645 -2.094,-10.593 -2.024,-4.948 -5.722,-8.502 -3.7,-3.623996 -8.585,-5.574996 -4.885,-2.021 -10.398,-2.021 -5.514,0 -10.4,2.02 -4.884,1.952 -8.583,5.575996 -3.7,3.554 -5.793,8.502 -2.024,4.948 -2.024,10.593 z m 2.094,0 q 0,-5.227 1.884,-9.757 1.954,-4.6 5.304,-7.944 3.42,-3.415 7.887,-5.226996 4.536,-1.882 9.63,-1.882 5.095,0 9.562,1.882 4.536,1.811996 7.886,5.226996 3.42,3.345 5.304,7.944 1.954,4.53 1.954,9.757 0,5.226 -1.954,9.826 -1.884,4.53 -5.304,7.945 -3.35,3.345 -7.886,5.226 -4.467,1.812 -9.561,1.812 -5.095,0 -9.631,-1.812 -4.467,-1.881 -7.887,-5.226 -3.35,-3.415 -5.304,-7.945 -1.884,-4.6 -1.884,-9.826 z m 61.554,-25.784996 h -3.35 v 51.569996 h 2.094 V 84.372314 h 0.14 l 24.356,49.479996 h 1.186 l 24.287,-49.479996 h 0.14 -0.07 0.07 v 49.479996 h 2.094 V 82.282314 h -3.28 l -23.799,48.224996 z"
       id="path16" /></g></svg>
