<?xml version="1.0" encoding="UTF-8" standalone="no"?>
<svg
   height="158.6066"
   viewBox="0 0 744.85093 301.35286"
   width="392.02756"
   version="1.1"
   id="svg8"
   sodipodi:docname="cdi.svg"
   inkscape:version="1.4.3 (0d15f75042, 2025-12-25)"
   xmlns:inkscape="http://www.inkscape.org/namespaces/inkscape"
   xmlns:sodipodi="http://sodipodi.sourceforge.net/DTD/sodipodi-0.dtd"
   xmlns="http://www.w3.org/2000/svg"
   xmlns:svg="http://www.w3.org/2000/svg">
  <defs
     id="defs8" />
  <sodipodi:namedview
     id="namedview8"
     pagecolor="#c3c3c3"
     bordercolor="#000000"
     borderopacity="0.25"
     inkscape:showpageshadow="2"
     inkscape:pageopacity="0.0"
     inkscape:pagecheckerboard="0"
     inkscape:deskcolor="#d1d1d1"
     inkscape:zoom="1.655328"
     inkscape:cx="195.7316"
     inkscape:cy="78.534284"
     inkscape:window-width="1920"
     inkscape:window-height="1080"
     inkscape:window-x="0"
     inkscape:window-y="0"
     inkscape:window-maximized="0"
     inkscape:current-layer="svg8" />
  <g
     id="g20"
     transform="matrix(1,0,0,0.95553396,13.004326,7.7974251)"
     style="stroke:#ffffff;stroke-width:19;stroke-linecap:round;stroke-linejoin:round;stroke-dasharray:none;stroke-opacity:1;paint-order:markers stroke fill">
    <path
       style="baseline-shift:baseline;display:inline;overflow:visible;opacity:1;vector-effect:none;fill:#ffffff;stroke:none;stroke-width:19;stroke-linecap:round;stroke-linejoin:round;stroke-dasharray:none;stroke-opacity:1;paint-order:markers stroke fill;enable-background:accumulate;stop-color:#000000;stop-opacity:1"
       d="m 586.86133,-3.2910156 c -6.71122,0.032728 -13.3192,0.4161675 -37.38867,0.8359375 a 9.5074328,9.5074328 0 0 0 -9.33985,9.5039062 V 136.30469 a 9.5074328,9.5074328 0 0 0 9.50391,9.50586 l 29.05469,0.008 a 9.5074328,9.5074328 0 0 0 9.50781,-9.50781 V 118.1916 c 2.32546,-0.0194 4.5908,-0.07 6.59765,-0.26758 22.582,-1.4104 37.26258,-13.8263 44.74219,-26.794924 7.50258,-13.008431 8.96053,-25.961466 9.05664,-32.583984 a 9.5074328,9.5074328 0 0 0 0,-0.0039 C 648.87507,38.829787 642.63527,24.060489 634.30859,14.316406 625.71211,4.2558605 612.38419,-2.6522912 594.05273,-3.1894531 h -0.006 c -2.73401,-0.081142 -4.94526,-0.1131423 -7.18359,-0.1015625 z m 0.0957,19.0117186 a 9.5074328,9.5074328 0 0 0 0.002,0 c 2.00322,-0.01038 3.94714,0.01706 6.5293,0.09375 a 9.5074328,9.5074328 0 0 0 0.004,0 c 14.37743,0.420177 20.77471,4.313165 26.36328,10.853516 5.34933,6.259917 9.95115,15.894744 9.72851,31.603515 -0.0525,3.57823 -1.39346,14.476307 -6.51562,23.357422 -5.12343,8.883319 -12.83775,16.345613 -29.5957,17.339844 a 9.5074328,9.5074328 0 0 0 -0.41211,0.0332 c -1.83512,0.189222 -8.44544,0.178883 -14.31836,0.148438 a 9.5074328,9.5074328 0 0 0 -9.55664,9.505862 v 18.14648 l -10.04102,-0.002 V 16.345703 c 12.39262,-0.285911 23.30857,-0.603061 27.8125,-0.625 z m 0.28516,9.888672 c -3.48843,-0.134019 -6.98978,0.186509 -10.4375,0.892578 l 1.88281,-0.191406 a 9.5074328,9.5074328 0 0 0 -9.50195,9.503906 v 43.650391 a 9.5074328,9.5074328 0 0 0 8.63867,9.382812 l -0.0273,0.01953 c 9.19511,0.88522 18.39396,-0.13173 26.0918,-5.189453 7.69785,-5.057722 12.59677,-14.403501 13.01367,-25.207031 a 9.5074328,9.5074328 0 0 0 0,-0.0078 c 0.36942,-9.800831 -2.72125,-18.511187 -8.52734,-24.28125 -5.80609,-5.770063 -13.57062,-8.279819 -21.13086,-8.572266 a 9.5074328,9.5074328 0 0 0 -0.002,0 z m 0.95703,19.3125 c 2.96757,0.403515 5.33425,1.313888 6.77344,2.744141 1.7274,1.716687 3.14827,4.280908 2.92968,10.080078 -0.24432,6.292322 -1.87796,8.349057 -4.45312,10.041015 -1.24349,0.817008 -3.03233,1.479049 -5.25,1.888672 z"
       id="path15"
       transform="matrix(1.0006,0,0,0.99803999,-3.5230009,-2.6530004)" />
    <path
       style="baseline-shift:baseline;display:inline;overflow:visible;opacity:1;vector-effect:none;fill:#ffffff;stroke:none;stroke-width:19;stroke-linecap:round;stroke-linejoin:round;stroke-dasharray:none;stroke-opacity:1;paint-order:markers stroke fill;enable-background:accumulate;stop-color:#000000;stop-opacity:1"
       d="m 179.80859,-3.2910156 c -6.71217,0.032727 -13.3201,0.4161673 -37.39257,0.8359375 a 9.5074328,9.5074328 0 0 0 -9.33985,9.5039062 V 136.30469 a 9.5074328,9.5074328 0 0 0 9.50391,9.50586 l 29.09961,0.008 a 9.5074328,9.5074328 0 0 0 9.50976,-9.50977 l -0.006,-18.11914 c 2.30129,-0.0195 4.55122,-0.068 6.55469,-0.26562 22.58356,-1.40978 37.26373,-13.82619 44.74414,-26.794924 7.50316,-13.008158 8.96191,-25.96411 9.06055,-32.582031 a 9.5074328,9.5074328 0 0 0 0,-0.0059 C 241.8246,38.8268 235.57794,24.058752 227.26172,14.318359 a 9.5074328,9.5074328 0 0 0 -0.006,-0.0039 C 218.65517,4.2546631 205.32608,-2.652704 186.99805,-3.1894531 h -0.004 c -2.73673,-0.08118 -4.94469,-0.1131453 -7.18359,-0.1015625 z m 0.0937,19.0117186 a 9.5074328,9.5074328 0 0 0 0.004,0 c 2.00325,-0.01038 3.94483,0.01705 6.5293,0.09375 a 9.5074328,9.5074328 0 0 0 0.004,0 c 14.3719,0.420144 20.77256,4.313995 26.36524,10.855469 5.34596,6.263735 9.95282,15.898022 9.72851,31.599609 -0.0543,3.58419 -1.39734,14.479087 -6.51953,23.359375 -5.12409,8.883592 -12.84108,16.345604 -29.59961,17.339844 A 9.5074328,9.5074328 0 0 0 186,99.001953 c -1.8851,0.194873 -8.42876,0.176908 -14.27734,0.148438 a 9.5074328,9.5074328 0 0 0 -9.55274,9.507809 l 0.004,18.14453 -10.08594,-0.002 V 16.345703 c 12.39439,-0.285919 23.30965,-0.60306 27.81445,-0.625 z m 0.28125,9.888672 c -3.48756,-0.134036 -6.98915,0.186782 -10.43554,0.892578 a 9.5074328,9.5074328 0 0 0 -7.59766,9.316406 l 0.0117,43.589844 a 9.5074328,9.5074328 0 0 0 8.5957,9.458984 c 9.19655,0.885132 18.39734,-0.131546 26.09375,-5.191406 7.69642,-5.059859 12.58547,-14.407889 12.99414,-25.210937 a 9.5074328,9.5074328 0 0 0 0,-0.002 c 0.36882,-9.801566 -2.72253,-18.513811 -8.52929,-24.283204 -5.80677,-5.769392 -13.57137,-8.277843 -21.13086,-8.570312 a 9.5074328,9.5074328 0 0 0 -0.002,0 z m 0.98047,19.316406 c 2.95463,0.406078 5.31391,1.315338 6.75,2.742188 1.72848,1.717357 3.14983,4.281643 2.93164,10.080078 -0.23863,6.298162 -1.86817,8.35058 -4.43945,10.041015 -1.23877,0.814408 -3.02348,1.475021 -5.23438,1.884766 z"
       id="path19"
       transform="matrix(1.0006,0,0,0.99803999,-3.5230009,-2.6530004)" />
    <path
       style="baseline-shift:baseline;display:inline;overflow:visible;opacity:1;vector-effect:none;fill:#ffffff;stroke:none;stroke-width:19;stroke-linecap:round;stroke-linejoin:round;stroke-dasharray:none;stroke-opacity:1;paint-order:markers stroke fill;enable-background:accumulate;stop-color:#000000;stop-opacity:1"
       d="m 750.15234,-12.074219 0.006,0.002 C 734.25549,-12.655564 718.21005,-7.9689958 705.56445,2.2871094 692.91885,12.543215 684.11642,28.64793 683.14258,48.306641 a 12.124513,12.124513 0 0 0 0,0.002 c -1.01,20.495341 9.21031,44.7998 34.02929,53.736329 l 22.95704,8.32813 c -3.00371,0.34872 -6.98151,0.65278 -11.36524,0.5039 -8.32522,-0.28274 -18.23754,-1.64477 -26.91211,-4.27929 a 12.124513,12.124513 0 0 0 -15.64648,11.59961 v 37.90234 a 12.124513,12.124513 0 0 0 10.17969,11.9668 c 5.30823,0.86256 27.15736,5.55602 54.21093,3.25976 a 12.124513,12.124513 0 0 0 0.004,0 c 13.00598,-1.10668 27.66013,-5.32622 39.90234,-15.16015 12.24182,-9.83362 21.32858,-25.90576 21.61328,-46.52149 v -0.002 c 0.12253,-8.81717 -1.11687,-19.01174 -6.24609,-28.748052 -5.12959,-9.737006 -14.39026,-18.521655 -27.60547,-23.738281 A 12.124513,12.124513 0 0 0 777.879,57.011716 l -23.48243,-8.363282 c 6.74254,-0.609135 13.14905,-0.306668 27.63477,3.0625 a 12.124513,12.124513 0 0 0 14.86905,-11.80859 V 2.3515625 A 12.124513,12.124513 0 0 0 786.4375,-9.65625 c -16.79308,-2.322313 -28.72611,-2.14409 -36.28516,-2.417969 z M 142.03516,-9.1953125 A 12.124513,12.124513 0 0 0 129.91211,2.9277344 V 156.13672 a 12.124513,12.124513 0 0 0 12.12305,12.12305 h 39.88476 a 12.124513,12.124513 0 0 0 12.12305,-12.12305 l 0.006,-49.38477 h 18.65039 v 49.38477 a 12.124513,12.124513 0 0 0 12.12305,12.12305 h 39.83007 a 12.124513,12.124513 0 0 0 12.12305,-12.12305 V 2.9277344 A 12.124513,12.124513 0 0 0 264.65234,-9.1953125 h -39.84179 a 12.124513,12.124513 0 0 0 -12.12305,12.125 l 0.01,44.8691405 H 194.0471 L 194.0431,2.9257813 A 12.124513,12.124513 0 0 0 181.91992,-9.1953125 Z m 160.14257,0 A 12.124513,12.124513 0 0 0 290.05469,2.9277344 V 156.13672 a 12.124513,12.124513 0 0 0 12.12304,12.12305 h 39.86719 a 12.124513,12.124513 0 0 0 12.12305,-12.12305 V 2.9277344 A 12.124513,12.124513 0 0 0 342.04492,-9.1953125 Z m 77.38086,0 A 12.124513,12.124513 0 0 0 367.43555,2.9277344 V 156.13672 a 12.124513,12.124513 0 0 0 12.125,12.12305 l 80.98242,-0.0117 a 12.124513,12.124513 0 0 0 9.88086,-6.71289 12.124513,12.124513 0 0 0 9.88672,6.72461 h 39.87304 a 12.124513,12.124513 0 0 0 12.12305,-12.12305 V 2.9277344 A 12.124513,12.124513 0 0 0 520.18359,-9.1953125 H 480.31055 A 12.124513,12.124513 0 0 0 468.1875,2.9277344 V 112.39648 a 12.124513,12.124513 0 0 0 -7.64453,-3.16796 H 431.56055 V 2.9277344 A 12.124513,12.124513 0 0 0 419.4375,-9.1953125 Z M 749.26953,12.15625 a 12.124513,12.124513 0 0 0 0.006,0.002 c 6.53748,0.236865 13.7946,0.182484 23.37891,1.019531 v 12.164063 c -10.21472,-1.41628 -17.82703,-1.285134 -24.83985,-0.414063 -6.98118,0.862242 -13.20817,3.204187 -17.99218,7.5625 -4.78054,4.355145 -7.59831,10.954672 -7.36524,17.220703 C 722.84351,60.32565 729.39988,65.121049 736.63281,68 a 12.123301,12.123301 0 0 0 0.18164,-0.002 12.123301,12.123301 0 0 0 0.23242,0.208984 l 32.38086,11.533203 c 8.49836,3.370427 12.42567,7.587009 14.99024,12.455078 2.57216,4.882494 3.5394,10.912935 3.45312,17.111325 a 12.124513,12.124513 0 0 0 0,0.002 c -0.19586,14.21132 -5.24169,22.08226 -12.55273,27.95508 -7.31104,5.87282 -17.62837,9.12403 -26.77539,9.90235 -16.06897,1.36369 -28.92136,-0.004 -38.08985,-1.39258 v -12.41211 c 6.05324,0.98824 11.98353,1.56109 17.48829,1.74804 10.21753,0.34701 18.17193,0.10333 25.76171,-2.85546 3.94151,-1.53643 7.82662,-3.49761 11.38672,-6.91797 3.56011,-3.42036 6.86528,-9.33861 6.36719,-15.78321 a 12.124513,12.124513 0 0 0 0,-0.0137 c -0.0987,-1.25882 -0.5055,-5.94017 -3.28125,-10.042963 -2.77575,-4.102794 -6.93816,-6.913591 -11.97851,-9.06836 a 12.124513,12.124513 0 0 0 -0.63282,-0.248047 l -30.15234,-10.9375 a 12.124513,12.124513 0 0 0 -0.0273,-0.0098 c -13.90702,-5.007473 -18.6294,-17.47381 -18.0254,-29.730469 0.66604,-13.424942 5.90091,-22.237054 13.47852,-28.382812 7.5784,-6.146395 17.94335,-9.347593 28.43164,-8.962891 z m -595.10937,2.894531 h 15.63867 l 0.004,44.873047 a 12.124513,12.124513 0 0 0 12.12305,12.121094 h 42.89649 a 12.124513,12.124513 0 0 0 12.125,-12.125 l -0.0117,-44.869141 H 252.5293 V 144.01367 H 236.94727 V 94.628906 a 12.124513,12.124513 0 0 0 -12.125,-12.125 h -42.89649 a 12.124513,12.124513 0 0 0 -12.12305,12.123047 l -0.004,49.386717 h -15.63867 z m 160.14062,0 h 15.61914 V 144.01367 h -15.61914 z m 77.38086,0 h 15.63281 V 121.35156 a 12.124513,12.124513 0 0 0 12.12305,12.12305 h 28.98047 v 10.52734 l -56.73633,0.01 z m 100.75195,0 h 15.62696 V 144.01367 h -15.62696 z m 253.6875,30.298828 c 0.0252,0.02441 0.0354,0.333605 0.0606,0.373047 l -0.51367,-0.183594 a 12.123301,12.123301 0 0 0 -0.0684,-0.06641 c 0.0577,0.02295 0.28645,-0.35068 0.52148,-0.123047 z"
       id="path17"
       transform="matrix(0.72980001,0,0,0.84140001,139.144,2.0379906)" />
  </g>
  <path
     style="baseline-shift:baseline;display:inline;overflow:visible;vector-effect:none;fill:#ffffff;stroke:none;stroke-width:3.6986;stroke-linecap:round;stroke-linejoin:round;stroke-dasharray:none;stroke-opacity:1;paint-order:markers stroke fill;enable-background:accumulate;stop-color:#000000"
     d="m 30.369121,10.96004 c -2.57423,0 -5.30978,0.14507 -7.73258,0.44062 a 9.542782,9.4593217 0 0 0 -8.37643,9.38767 v 17.8044 a 9.542782,9.4593217 0 0 0 9.54191,9.45846 h 5.3894 a 9.542782,9.4593217 0 0 0 6.12833,-2.36093 9.542782,9.4593217 0 0 0 6.12833,2.36093 h 4.27624 c -10.71838,5.55 -19.61867,14.16163 -25.51613,24.66081 a 9.542782,9.4593217 0 0 0 -0.003,0.006 c -5.03998,8.98825 -7.91054,19.38827 -7.91054,30.37934 0,33.97348 27.55327,61.88028 61.50097,61.88028 33.947589,0 61.502119,-27.90653 61.502119,-61.88028 C 135.2979,78.86062 121.266,57.71617 100.89729,47.58478 a 9.542782,9.4593217 0 0 0 3.87565,-1.968 9.542782,9.4593217 0 0 0 2.28438,1.33358 c 3.28812,1.19968 6.05578,1.4725 8.90991,1.4725 3.31061,0 7.01695,-0.34495 10.88038,-2.76293 3.86333,-2.41792 6.85756,-7.83203 6.85771,-12.65026 v -3.9e-4 c 0,-2.03176 -0.55992,-4.15473 -1.43852,-6.04332 a 9.542782,9.4593217 0 0 0 0.19399,-3.23382 l -0.44908,-3.8762 a 9.542782,9.4593217 0 0 0 -7.47139,-8.16726 C 122.93515,11.3462 120.49587,10.96 117.59211,10.96 c -2.73743,0 -5.63879,0.36146 -8.50436,1.73218 C 105.88887,11.2265 102.69803,10.96 99.717681,10.96 c -2.57798,0 -5.31512,0.14564 -7.73831,0.44062 a 9.542782,9.4593217 0 0 0 -0.98601,0.30585 9.542782,9.4593217 0 0 0 -1.90975,-0.37664 h -5.38902 a 9.542782,9.4593217 0 0 0 -3.54609,0.69953 9.542782,9.4593217 0 0 0 -3.54648,-0.69953 h -5.39131 a 9.542782,9.4593217 0 0 0 -1.993,0.3933 9.542782,9.4593217 0 0 0 -1.99301,-0.3933 h -5.3936 a 9.542782,9.4593217 0 0 0 -1.99415,0.3933 9.542782,9.4593217 0 0 0 -1.99453,-0.3933 h -5.3917 a 9.542782,9.4593217 0 0 0 -2.80449,0.55342 9.542782,9.4593217 0 0 0 -2.80449,-0.55342 h -5.39322 a 9.542782,9.4593217 0 0 0 -3.42847,0.67644 C 35.402941,11.1367 32.815341,10.96 30.369561,10.96 Z m 51.66884,53.17283 c 13.2372,2.85147 23.950959,12.41497 28.575319,25.08704 -2.73184,-0.008 -5.20435,-0.72664 -7.39539,-2.01077 a 9.542782,9.4593217 0 0 0 -0.0424,-0.0246 C 98.163571,84.2815 92.279721,82.58118 86.060621,82.58117 c -3.73159,0 -7.33555,0.62517 -10.70549,1.74278 a 9.542782,9.4593217 0 0 0 1.87043,-5.40018 v -0.82294 a 9.542782,9.4593217 0 0 0 -0.58389,-3.14903 9.542782,9.4593217 0 0 0 5.70789,-8.53824 V 65.859 a 9.542782,9.4593217 0 0 0 -0.31161,-1.72612 z m -58.0725,8.25321 c -0.009,0.0146 -0.004,0.008 -0.013,0.0227 -0.003,0.006 -0.007,0.0107 -0.0107,0.0163 z m 34.17667,14.12655 2.02928,0.23658 a 9.542782,9.4593217 0 0 0 0.30321,-0.0201 9.542782,9.4593217 0 0 0 0.27572,0.0897 l -2.60821,-0.30245 z m 7.13763,2.21519 c -1.20104,0.31916 -2.46286,0.49474 -3.79241,0.49474 -0.0984,0 -0.19198,-0.0166 -0.28984,-0.0185 z m 20.78049,28.21374 c 0.23358,0 0.45766,0.0334 0.68814,0.0443 l -4.85631,0.56591 c 1.31581,-0.38962 2.70207,-0.6102 4.16817,-0.6102 z m -49.09958,0.004 c 2.72207,0.0111 5.19585,0.72849 7.38164,2.00737 a 9.542782,9.4593217 0 0 0 0.0157,0.006 c 5.0373,2.94153 10.93565,4.62229 17.12939,4.62229 3.76767,0 7.41061,-0.63281 10.81508,-1.77305 a 9.542782,9.4593217 0 0 0 -1.92961,5.49708 v 0.8377 a 9.542782,9.4593217 0 0 0 0.58465,3.15131 9.542782,9.4593217 0 0 0 -5.70445,8.53634 v 0.55834 a 9.542782,9.4593217 0 0 0 0.30359,1.68259 c -13.2578,-2.85092 -23.98222,-12.42791 -28.59595,-25.12641 z m 49.887,2.47789 2.60859,0.30207 v 0.003 l -2.02737,-0.23583 a 9.542782,9.4593217 0 0 0 -0.30474,0.0204 9.542782,9.4593217 0 0 0 -0.27648,-0.0901 z"
     id="path23" />
  <g
     id="path1-7"
     style="fill:#16bcf8;stroke:#ffffff;stroke-width:19;stroke-linecap:round;stroke-linejoin:round;stroke-dasharray:none;stroke-opacity:1;paint-order:markers stroke fill"
     transform="matrix(0.19552,0,0,0.19380999,-47.519129,12.72523)">
    <path
       style="baseline-shift:baseline;display:inline;overflow:visible;vector-effect:none;fill:#ffffff;stroke:none;enable-background:accumulate;stop-color:#000000;stop-opacity:1"
       d="m 299.39806,-54.715316 a 48.807191,48.807191 0 0 0 -48.80273,48.80273 V 489.98197 c 0,193.2195 155.18085,351.7324 346.39257,351.7324 191.19396,0 346.43556,-158.4996 346.43556,-351.7324 V -5.912586 a 48.807191,48.807191 0 0 0 -48.80274,-48.80273 z m 64.43555,113.57813 H 830.1715 V 489.98197 c 0,132.5852 -104.33161,238.1992 -233.1836,238.1992 -128.86488,0 -233.15429,-105.606 -233.15429,-238.1992 z"
       id="path21" />
  </g>
  <g
     fill="#16bcf8"
     stroke-width="1.952"
     id="g2"
     style="stroke:#000000"
     transform="translate(5.2933513,6.6743898)">
    <path
       d="m 0,0.01 v 495.894 c 0,167.314 133.222,302.93 297.59,302.93 164.347,0 297.633,-135.615 297.633,-302.93 V 0.01 Z M 579.575,495.904 C 579.575,654.41 453.292,782.906 297.59,782.906 141.877,782.906 15.633,654.41 15.633,495.904 V 15.982 h 563.942 z"
       transform="matrix(0.19552,0,0,0.19381,7.632,3.56)"
       id="path1" />
    <path
       d="m 297.59,225.422 c -99.223,0 -185.769,55.428 -231.435,137.444 -21.854,39.318 -34.313,84.716 -34.313,133.038 0,149.384 118.96,270.481 265.747,270.481 146.786,0 265.756,-121.098 265.756,-270.481 C 563.346,346.552 444.376,225.422 297.59,225.422 m -53.587,70.726 -7.109,-47.085 c 19.438,-4.953 39.764,-7.682 60.696,-7.682 125.451,0 229.04,94.182 247.034,216.744 -17.518,9.456 -37.333,14.993 -58.483,14.993 -22.927,0 -44.397,-6.241 -62.905,-17.184 -18.503,-10.812 -40.021,-17.085 -62.914,-17.085 -22.871,0 -44.302,6.273 -62.795,17.076 -18.507,10.951 -39.949,17.192 -62.886,17.192 -21.505,0 -41.668,-5.688 -59.395,-15.416 l 8.692,-76.828 82.395,-9.698 v -4.245 l -29.785,-3.488 7.455,-49.264 48.537,-7.552 v -2.86 z m -60.065,61.094 -5.701,-50.518 48.02,7.454 7.354,48.906 z m 49.274,-107.324 -6.955,46.229 -48.365,7.585 -3.316,-29.416 a 245.438,245.438 0 0 1 58.636,-24.398 z M 84.39,362.866 a 253.57,253.57 0 0 1 85.483,-85.698 l -9.145,80.074 -78.365,9.222 c 0.683,-1.204 1.313,-2.428 2.027,-3.598 z m -4.759,8.484 81.098,9.524 8.407,73.739 c -17.93,-9.956 -38.396,-15.764 -60.259,-15.764 -20.848,0 -40.404,5.438 -57.748,14.55 4.918,-29.338 14.626,-57.021 28.502,-82.049 z m -30.779,99.31 c 17.89,-9.97 38.214,-15.896 60.025,-15.896 22.903,0 44.378,6.231 62.882,17.128 h 0.02 c 18.507,10.956 39.992,17.119 62.862,17.119 22.937,0 44.378,-6.229 62.886,-17.119 18.494,-10.82 39.924,-17.128 62.795,-17.128 22.893,0 44.411,6.308 62.914,17.128 18.508,10.956 39.979,17.119 62.905,17.119 21.885,0 42.427,-5.871 60.402,-15.894 0.445,5.127 0.619,10.314 0.79,15.526 -18.158,10.348 -38.981,16.316 -61.192,16.316 -22.927,0 -44.397,-6.177 -62.905,-17.14 -18.503,-10.878 -40.021,-17.088 -62.914,-17.088 -22.871,0 -44.302,6.274 -62.795,17.088 -18.507,10.909 -39.949,17.14 -62.886,17.14 -22.87,0 -44.355,-6.23 -62.862,-17.14 h -0.02 c -18.503,-10.878 -39.979,-17.088 -62.882,-17.088 -22.233,0 -42.97,6.113 -61.108,16.438 0.194,-5.558 0.563,-11.072 1.083,-16.509 z m 1.669,62.794 c 17.474,-9.368 37.249,-14.92 58.355,-14.92 22.903,0 44.378,6.231 62.882,17.153 h 0.02 c 18.507,10.908 39.992,17.109 62.862,17.109 22.937,0 44.378,-6.254 62.886,-17.109 18.494,-10.922 39.924,-17.153 62.795,-17.153 21.648,0 41.92,5.756 59.709,15.526 l -8.755,77.067 -82.387,9.685 v 4.322 l 29.797,3.481 -7.389,49.176 -48.593,7.649 v 2.88 l 48.593,7.597 7.018,46.796 c -19.455,4.96 -39.76,7.756 -60.725,7.756 -125.559,0 -229.214,-94.268 -247.068,-217.015 z m 366.82,154.912 3.315,28.973 c -18.245,10.51 -37.854,18.829 -58.559,24.474 l 6.892,-45.895 z m -55.71,-59.395 49.645,5.827 5.744,50.536 -48.03,-7.543 z m 63.77,85.657 9.102,-79.83 77.859,-9.131 c -21.27,36.492 -51.163,67.219 -86.961,88.961 z m 89.864,-93.966 -80.762,-9.534 -8.406,-74.022 c 17.866,9.937 38.258,15.691 60.044,15.691 20.869,0 40.436,-5.409 57.793,-14.618 a 255.836,255.836 0 0 1 -28.669,82.483 z m 31.16,-99.646 c -17.965,10.013 -38.442,15.831 -60.284,15.831 -22.927,0 -44.397,-6.21 -62.905,-17.109 -18.503,-10.941 -40.021,-17.161 -62.914,-17.161 -22.871,0 -44.302,6.241 -62.795,17.161 -18.507,10.855 -39.949,17.109 -62.886,17.109 -22.87,0 -44.355,-6.254 -62.862,-17.109 h -0.02 c -18.503,-10.941 -39.979,-17.161 -62.882,-17.161 -21.908,0 -42.343,5.959 -60.254,15.981 -0.442,-5.137 -0.616,-10.325 -0.747,-15.481 18.118,-10.315 38.811,-16.405 61,-16.405 22.903,0 44.378,6.197 62.882,17.119 h 0.02 c 18.507,10.933 39.992,17.096 62.862,17.096 22.937,0 44.378,-6.241 62.886,-17.096 18.494,-10.898 39.924,-17.119 62.795,-17.119 22.893,0 44.411,6.221 62.914,17.129 18.508,10.923 39.979,17.086 62.905,17.086 22.189,0 42.96,-5.971 61.086,-16.228 -0.164,5.469 -0.305,10.962 -0.801,16.357 z M 215.996,71.215 H 188.42 v 36.511 H 159.733 V 71.215 h -27.585 v 91.865 h 27.585 v -36.112 h 28.687 v 36.112 h 27.576 z m 95.948,73.415 V 71.215 H 284.37 v 91.865 h 49.872 l 4.137,-18.45 z M 263.982,71.215 h -27.585 v 91.865 h 27.585 z m 111.8,0 h -27.564 v 91.865 h 27.564 z M 511.73,94.648 c 0,-4.973 4.943,-7.3 12.895,-7.3 8.688,0 18.113,1.918 24.529,4.625 l -2.297,-20 c -7.15,-1.539 -13.544,-2.666 -25.268,-2.666 -22.317,0 -37.42,8.94 -37.42,27.662 0,32.296 43.076,25.753 43.076,40.735 0,5.786 -4.182,8.844 -14.354,8.844 -9.047,0 -23.046,-3.058 -31.345,-7.304 l 3.021,21.16 c 8.3,3.055 19.624,4.594 28.712,4.594 23.023,0 41.92,-7.672 41.92,-30.727 0.001,-30.77 -43.469,-25.006 -43.469,-39.623 z m -77.767,46.525 c 25.678,0 41.917,-13.447 41.917,-36.904 0,-25.75 -17.387,-34.962 -45.71,-34.962 -10.966,0 -24.184,0.748 -33.63,1.908 v 91.865 h 27.575 v -21.907 z m 14.701,-36.502 c 0,11.898 -5.678,19.969 -20.01,19.969 h -4.539 V 86.687 c 1.593,-0.087 3.151,-0.087 4.539,-0.087 13.585,0 20.01,6.513 20.01,18.071 z M 79.253,141.173 c 25.701,0 41.93,-13.447 41.93,-36.904 0,-25.75 -17.357,-34.962 -45.699,-34.962 -10.942,0 -24.161,0.748 -33.587,1.908 V 163.08 H 69.46 v -21.907 z m 14.748,-36.502 c 0,11.898 -5.668,19.969 -20.013,19.969 H 69.46 V 86.687 C 71.064,86.6 72.58,86.6 73.988,86.6 c 13.608,0 20.013,6.513 20.013,18.071 z"
       transform="matrix(0.19552,0,0,0.19381,7.632,3.56)"
       id="path2" />
  </g>
  <g
     fill="#16bcf8"
     stroke-width="2.425"
     id="g5"
     style="stroke:#000000"
     transform="translate(12.536785,4.3787662)">
    <path
       d="m 586.91,6.215 c -6.364,0.031 -13.131,0.413 -37.271,0.834 v 129.256 l 29.054,0.006 v -27.655 c 5.787,0.03 12.064,0.141 15.342,-0.197 39.458,-2.341 44.907,-39.855 45.055,-50.053 0.251,-17.71 -5.17,-29.912 -12.008,-37.914 C 619.989,12.191 610.126,6.79 593.77,6.312 591.11,6.233 589.032,6.204 586.91,6.215 Z m -0.033,28.894 c 11.504,0.445 21.113,7.396 20.525,22.996 -0.66,17.103 -13.062,22.805 -28.695,21.3 l -0.014,0.06 v -43.65 h 0.018 c 2.754,-0.564 5.511,-0.808 8.166,-0.706 z"
       stroke-width="1.901"
       transform="matrix(1.0006,0,0,0.99804,-3.523,-2.653)"
       id="path3" />
    <path
       d="m 741.115,56.787 32.697,11.646 c 21.766,8.592 26.391,26.027 26.182,41.043 -0.48,34.828 -28.27,47.885 -50.423,49.77 -25.189,2.138 -44.688,-2.081 -51.242,-3.146 v -37.902 c 19.937,6.055 43.137,5.814 50.971,2.76 5.926,-2.31 10.428,-5.839 10.07,-10.471 -0.197,-2.513 -0.449,-5.709 -7.939,-8.911 L 721.278,90.638 C 701.915,83.666 694.444,65.282 695.251,48.906 696.89,15.82 723.323,-0.926 749.714,0.042 c 8.142,0.295 19.111,0.104 35.063,2.31 v 37.55 c -17.873,-4.157 -26.255,-4.089 -35.476,-2.943 -10.315,1.274 -14.947,6.608 -14.731,12.306 0.104,2.888 2.987,6.054 6.547,7.471 m -559.191,3.186 h 42.897 L 224.811,2.928 h 39.842 v 153.208 h -39.83 V 94.628 h -42.897 l -0.006,61.508 H 142.036 V 2.928 H 181.92 Z M 302.178,2.928 h 39.866 v 153.208 h -39.866 z m 178.133,0 h 39.873 v 153.208 h -39.873 z m -60.874,118.423 h 41.105 v 34.773 l -80.984,0.012 V 2.928 h 39.879 z"
       transform="matrix(0.7298,0,0,0.8414,139.144,2.038)"
       id="path4" />
    <path
       d="m 179.857,6.215 c -6.365,0.031 -13.132,0.413 -37.275,0.834 v 129.256 l 29.1,0.006 -0.006,-27.655 c 5.752,0.028 11.984,0.146 15.302,-0.197 39.459,-2.341 44.908,-39.855 45.06,-50.053 0.253,-17.71 -5.175,-29.912 -12.007,-37.914 -7.097,-8.301 -16.963,-13.702 -33.314,-14.18 -2.662,-0.079 -4.738,-0.108 -6.86,-0.097 z m -0.039,28.894 c 11.502,0.445 21.115,7.396 20.528,22.996 -0.647,17.103 -13.041,22.805 -28.678,21.3 l -0.012,-43.59 c 2.754,-0.564 5.508,-0.808 8.162,-0.706 z"
       stroke-width="1.901"
       transform="matrix(1.0006,0,0,0.99804,-3.523,-2.653)"
       id="path5" />
  </g>
  <g
     id="path6"
     style="stroke:#fefefe;stroke-width:19;stroke-linecap:round;stroke-linejoin:round;stroke-dasharray:none;stroke-opacity:1;paint-order:markers stroke fill;opacity:0.98;fill:#000000;fill-opacity:1"
     transform="matrix(1.9,0,0,1.9,7.5889709,3.2309563)">
    <g
       id="path7"
       style="stroke:#fefefe;stroke-width:19;stroke-linecap:round;stroke-linejoin:round;stroke-dasharray:none;stroke-opacity:1;paint-order:markers stroke fill;opacity:0.98;fill:#000000;fill-opacity:1">
      <path
         style="baseline-shift:baseline;display:inline;overflow:visible;vector-effect:none;fill:#fefefe;stroke:none;enable-background:accumulate;stop-color:#000000;stop-opacity:1"
         d="M 83.394531,90.132812 C 60.146951,90.015864 39.076054,93.15899 23.40625,98.515625 15.568421,101.19494 9.0639796,104.39994 4.2109375,108.35156 c -4.83301725,3.93532 -8.2595955,9.02075 -8.2050781,14.87696 -0.053211,5.88694 3.34980218,11.02593 8.1816406,15.00781 4.8522786,3.99872 11.359403,7.24114 19.197266,9.95898 15.675725,5.43569 36.75193,8.66094 60,8.71094 a 5.0005052,5.0005052 0 0 0 0.02344,0 c 20.556374,-0.0551 39.384124,-2.56716 54.296874,-6.8125 11.32961,-3.22529 20.53861,-7.1787 26.54687,-12.73438 v 12.20508 a 5.0005052,5.0005052 0 0 0 5,5 h 67.39453 c 19.51072,0.1002 37.12343,-2.25701 50.34766,-6.90039 6.61212,-2.32169 12.16246,-5.1974 16.33203,-8.9707 4.15504,-3.76015 6.95468,-8.7655 6.91016,-14.29883 0.0413,-5.5893 -2.77639,-10.63798 -6.96289,-14.41211 -4.20052,-3.78676 -9.78537,-6.64844 -16.41602,-8.94922 -13.25626,-4.599803 -30.84794,-6.88522 -50.18555,-6.802731 h -67.41992 a 5.0005052,5.0005052 0 0 0 -5,5 V 109.24805 C 158.18058,103.71472 148.92686,99.766103 137.51367,96.580078 122.62285,92.42326 103.86788,90.015926 83.394531,90.132812 Z m 282.927739,4.097657 a 5.0005052,5.0005052 0 0 0 -5,5 v 11.705081 a 5.0005052,5.0005052 0 0 0 1.09179,2.63476 5.0005052,5.0005052 0 0 0 -1.09179,2.63282 v 33.94726 a 5.0005052,5.0005052 0 0 0 5,5 h 16.71093 a 5.0005052,5.0005052 0 0 0 5,-5 v -33.94726 a 5.0005052,5.0005052 0 0 0 -1.09179,-2.63282 5.0005052,5.0005052 0 0 0 1.09179,-2.63476 V 99.230469 a 5.0005052,5.0005052 0 0 0 -5,-5 z M 97.058594,100.47461 c 0.773105,0.0413 1.514139,0.10548 2.279297,0.1543 -0.755906,-0.0547 -1.512936,-0.10831 -2.279297,-0.1543 z m -28.539063,0.11133 c -2.427925,0.1677 -4.805323,0.37471 -7.11914,0.63086 2.366969,-0.22359 4.665699,-0.48258 7.11914,-0.63086 z m 37.210939,0.60742 c 10.82526,1.0186 20.79225,2.69964 29.0957,5.01758 6.28918,1.75564 11.4998,3.93438 15.69922,6.16211 h -7.36914 c -5.33558,-4.00979 -12.89103,-6.76392 -22.44922,-8.83985 -4.57904,-0.99451 -9.64667,-1.7575 -14.97656,-2.33984 z m -47.029298,0.30273 c -7.248282,0.92491 -13.866761,2.26352 -19.539063,3.97461 -5.821051,1.75597 -10.682296,3.85172 -14.447265,6.55274 -3.758444,2.69633 -6.832174,6.44469 -6.820313,11.20312 -0.01154,4.76685 3.027719,8.58085 6.78711,11.32617 3.765888,2.75007 8.629904,4.88113 14.451171,6.67579 8.278343,2.55215 18.569287,4.30651 29.939454,5.14648 -16.545614,-1.0632 -31.345952,-3.79162 -42.41211,-7.62891 -7.093637,-2.45978 -12.654731,-5.378 -16.111328,-8.22656 -3.4565963,-2.84855 -4.5827477,-5.22038 -4.5546874,-7.22265 a 5.0005052,5.0005052 0 0 0 0,-0.14063 c -0.02716,-1.90711 1.0754172,-4.23684 4.5312504,-7.05078 3.455832,-2.81394 9.021563,-5.70202 16.115234,-8.12695 8.674318,-2.96527 19.773796,-5.1574 32.060547,-6.48243 z m 115.550778,2.73438 h 12.47852 a 5.0005052,5.0005052 0 0 0 -3.46289,4.36328 v 31.60547 a 5.0005052,5.0005052 0 0 0 3.46875,4.36523 h -12.48438 z m 197.07032,0 h 6.71093 v 1.70508 h -6.71093 z m -103.79883,2.42773 c 5.95381,1.01046 11.49339,2.23886 16.05664,3.82227 5.80122,2.01297 10.27127,4.47326 12.99609,6.92969 2.72483,2.45642 3.69179,4.54978 3.66602,6.93164 a 5.0005052,5.0005052 0 0 0 0,0.11328 c 0.0268,2.3011 -0.91814,4.37461 -3.625,6.82422 -2.70686,2.4496 -7.15291,4.91878 -12.93555,6.94922 -4.77949,1.6782 -10.61386,2.98333 -16.93555,4.02929 1.79705,-0.41351 3.62295,-0.81141 5.25586,-1.3164 4.72459,-1.46112 8.75898,-3.2787 11.94336,-5.8711 3.16853,-2.57948 5.57295,-6.38031 5.54492,-10.67383 0.031,-4.31558 -2.35152,-8.17075 -5.53125,-10.77343 -3.19554,-2.61564 -7.24033,-4.42352 -11.96875,-5.86524 -1.38858,-0.42338 -2.95956,-0.74347 -4.46679,-1.09961 z m -184.169924,3.42383 a 5.0005052,5.0005052 0 0 0 0.08984,0 c 13.248837,-0.12821 25.449454,1.11743 35.142584,3.22266 9.69312,2.10523 16.91816,5.33837 19.67968,7.80078 a 5.0005052,5.0005052 0 0 0 3.32813,1.26758 h 22.6582 v 1.70703 h -22.6582 a 5.0005052,5.0005052 0 0 0 -3.53711,1.46484 c -2.34077,2.3414 -9.41584,5.70457 -19.13281,7.87695 -9.715,2.17195 -22.083038,3.49947 -35.533208,3.53321 -16.274286,-0.0343 -31.037785,-2.11618 -41.310547,-5.28321 -5.137858,-1.58396 -9.143935,-3.47335 -11.501953,-5.19531 -2.358018,-1.72196 -2.689359,-2.82546 -2.6875,-3.22656 a 5.0005052,5.0005052 0 0 0 0,-0.0469 c -0.0014,-0.28779 0.295516,-1.36249 2.654297,-3.05469 2.358781,-1.69221 6.367911,-3.55361 11.505859,-5.10352 10.275897,-3.09981 25.036254,-5.09591 41.302735,-4.96289 z m 109.914064,3.51172 h 43.41211 a 5.0005052,5.0005052 0 0 0 0.01,0 c 12.84966,-0.0239 24.49436,1.32465 32.38477,3.73047 3.9452,1.20291 6.91504,2.69821 8.55078,4.03711 1.63574,1.33889 1.88462,2.06435 1.87305,2.9707 a 5.0005052,5.0005052 0 0 0 0,0.125 c 0.01,0.79653 -0.21811,1.51687 -1.86719,2.85938 -1.64908,1.34251 -4.63224,2.85076 -8.58203,4.07226 -7.89752,2.44238 -19.52681,3.85262 -32.35352,3.82031 a 5.0005052,5.0005052 0 0 0 -0.0234,-0.01 h -43.40429 z m 178.05469,7.60938 h 6.71093 v 23.94726 h -6.71093 z m -228.05274,12.87695 h 7.64258 c -4.20695,2.30214 -9.51838,4.56687 -15.94531,6.39648 -8.45178,2.40604 -18.64669,4.16754 -29.73242,5.25391 5.68164,-0.6318 11.04572,-1.47004 15.87109,-2.54883 9.5093,-2.12596 16.97964,-4.87336 22.16406,-9.10156 z m -42.61719,12.08398 c -1.368729,0.105 -2.702888,0.22916 -4.097653,0.31055 1.383759,-0.0895 2.74825,-0.19467 4.097653,-0.31055 z"
         id="path13" />
      <path
         style="baseline-shift:baseline;display:inline;overflow:visible;vector-effect:none;stroke:none;enable-background:accumulate;stop-color:#000000;stop-opacity:1"
         d="m 83.395,95.133 c -45.57,-0.234 -82.622,12.506 -82.4,28.094 -0.222,15.841 36.83,28.582 82.4,28.68 40.307,-0.108 73.785,-9.941 81.248,-22.827 h -23.05 c -7.49,7.492 -30.655,12.807 -58.198,12.875 -33.383,-0.068 -60.552,-8.369 -60.504,-18.728 -0.048,-10.116 27.12,-18.418 60.504,-18.145 27.178,-0.263 50.093,5.063 58.199,12.291 h 23.049 c -7.741,-12.72 -41.104,-22.474 -81.248,-22.24 z m 85.857,4.097 v 50.334 h 67.42 c 38.165,0.196 68.753,-9.453 68.57,-25.168 0.173,-15.987 -30.712,-25.331 -68.57,-25.166 z m 197.07,0 v 11.706 h 16.711 V 99.23 Z m -178.054,9.364 h 48.412 c 26.381,-0.049 47.952,5.306 47.818,15.802 0.125,10.233 -21.444,15.881 -47.826,15.813 v -0.01 h -48.404 z m 178.054,7.61 v 33.946 h 16.711 v -33.947 z"
         id="path14" />
    </g>
    <path
       style="baseline-shift:baseline;display:inline;overflow:visible;vector-effect:none;fill:#fefefe;fill-opacity:1;stroke:none;stroke-width:19;stroke-linecap:round;stroke-linejoin:round;stroke-dasharray:none;stroke-opacity:1;paint-order:markers stroke fill;enable-background:accumulate;stop-color:#000000;stop-opacity:1"
       d="m 83.396484,110.61719 c -6.0774,-0.0152 -11.605402,0.87644 -16.046875,2.55859 -2.222234,0.84165 -4.194573,1.86086 -5.890625,3.37305 -1.684331,1.50173 -3.245281,3.83257 -3.234375,6.67969 -0.0094,2.80621 1.480539,5.20101 3.173828,6.76171 1.705157,1.57165 3.707853,2.62321 5.953125,3.47266 4.459773,1.68726 9.986189,2.50109 16.046875,2.36523 6.187471,0.13496 11.78417,-0.67838 16.296875,-2.35351 2.272148,-0.84343 4.293658,-1.88828 6.019528,-3.41406 1.72588,-1.52579 3.27218,-3.78903 3.41797,-6.57227 a 5.0005052,5.0005052 0 0 0 -0.002,-0.53906 c -0.1561,-2.82001 -1.76345,-5.00463 -3.47852,-6.4707 -1.71506,-1.46608 -3.70574,-2.47692 -5.955074,-3.3125 -4.495195,-1.66988 -10.094382,-2.56322 -16.300782,-2.54883 z"
       id="path11"
       inkscape:label="path11" />
    <path
       style="baseline-shift:baseline;display:inline;overflow:visible;vector-effect:none;stroke:none;enable-background:accumulate;stop-color:#000000;stop-opacity:1"
       d="m 83.395,115.617 c -11.112,-0.03 -20.226,3.454 -20.178,7.61 -0.048,4.409 9.066,7.882 20.178,7.609 11.4,0.273 20.513,-3.2 20.744,-7.61 -0.23,-4.155 -9.345,-7.638 -20.744,-7.609 z m -0.008,3.574 c 4.723,-0.002 10.164,0.782 12.94,1.924 2.547,1.05 3.133,2.026 1.933,3.219 -1.308,1.3 -4.64,2.276 -9.463,2.773 -0.896,0.093 -8.078,0.187 -8.912,0.118 -0.22,-0.019 -0.924,-0.076 -1.56,-0.127 -4.2,-0.339 -7.781,-1.338 -9.124,-2.545 -0.556,-0.5 -0.724,-0.798 -0.724,-1.285 0,-0.47 0.174,-0.797 0.63,-1.188 1.678,-1.436 6.406,-2.525 12.309,-2.838 0.635,-0.033 1.296,-0.05 1.97,-0.05 z"
       id="path12" />
  </g>
  <g
     id="path8"
     style="opacity:0.98;stroke:#fefefe;stroke-width:28.5;stroke-linecap:round;stroke-linejoin:round;stroke-dasharray:none;stroke-opacity:1;paint-order:markers stroke fill"
     transform="translate(12.536785,-0.56904779)"
     inkscape:transform-center-x="-10.33029"
     inkscape:transform-center-y="1.14781">
    <path
       style="baseline-shift:baseline;display:inline;overflow:visible;opacity:0.98;vector-effect:none;fill:#fefefe;stroke:none;stroke-width:28.5;stroke-linecap:round;stroke-linejoin:round;stroke-dasharray:none;stroke-opacity:1;paint-order:markers stroke fill;enable-background:accumulate;stop-color:#000000;stop-opacity:1"
       d="m 601.11719,213.77344 a 14.251425,14.251425 0 0 0 -16.67969,14.04101 v 11.96094 c 0,4.74794 0.0192,7.75452 0.14258,10.17383 0.0617,1.20966 0.0458,2.093 0.48633,4.13281 0.22025,1.01991 0.21816,2.32299 2.23828,5.32422 1.01006,1.50061 2.81408,3.68779 6.16406,5.16016 3.34998,1.47237 7.84993,1.36444 10.62305,0.37109 l -0.0312,0.0117 c -2.08352,0.74095 -1.53623,0.44877 -1.6543,0.47461 -0.11807,0.0258 -0.12594,0.0263 -0.11133,0.0234 0.0292,-0.006 0.18305,-0.0349 0.39453,-0.0742 0.42298,-0.0786 1.10114,-0.20103 1.9668,-0.35547 1.73131,-0.3089 4.23623,-0.74876 7.30469,-1.28321 6.13691,-1.06888 14.53776,-2.51765 23.70508,-4.08398 9.21823,-1.57503 17.55816,-3.03854 23.61914,-4.13672 3.03049,-0.54909 5.48008,-1.00415 7.25781,-1.35156 0.88886,-0.17371 1.58429,-0.31374 2.2539,-0.46289 0.33481,-0.0746 0.60953,-0.13032 1.23047,-0.30469 0.31047,-0.0872 0.58298,-0.11819 1.75,-0.60547 0.58352,-0.24364 1.24085,-0.23037 3.58203,-2.15429 0.5853,-0.48098 1.30502,-1.11933 2.16211,-2.21094 0.8571,-1.09161 2.57012,-5.15549 2.57032,-5.15625 2e-4,-7.6e-4 -0.43334,-8.65362 -0.4336,-8.6543 -2.5e-4,-6.8e-4 -4.13405,-5.86853 -4.13476,-5.86914 -2.709,-2.2945 -3.29958,-2.11033 -3.88672,-2.34766 -0.58714,-0.23732 -0.88633,-0.32806 -1.13086,-0.40429 -0.48907,-0.15247 -0.70686,-0.20225 -0.90625,-0.25196 -0.39878,-0.0994 -0.63431,-0.14905 -0.89844,-0.20507 -0.52826,-0.11206 -1.08951,-0.22236 -1.78515,-0.35547 -1.39129,-0.26624 -3.26824,-0.6112 -5.56446,-1.02344 -4.59243,-0.82448 -10.82486,-1.91189 -17.64258,-3.07422 -13.55974,-2.31176 -28.72355,-4.90794 -33.61132,-5.75391 z"
       id="path16" />
    <path
       style="baseline-shift:baseline;display:inline;overflow:visible;opacity:0.98;vector-effect:none;fill:#ff0000;stroke:none;stroke-width:28.5;stroke-linecap:round;stroke-linejoin:round;stroke-dasharray:none;stroke-opacity:1;paint-order:markers stroke fill;enable-background:accumulate;stop-color:#000000;stop-opacity:1"
       d="m 598.687,239.775 v -11.96 l 8.98,1.554 c 4.94,0.855 20.08,3.447 33.647,5.76 13.567,2.313 24.817,4.333 25,4.488 0.183,0.155 -14.687,2.85 -33.047,5.987 -18.36,3.137 -33.652,5.801 -33.981,5.918 -0.469,0.168 -0.599,-2.383 -0.599,-11.747 z"
       id="path18" />
    <path
       style="baseline-shift:baseline;display:inline;overflow:visible;stroke:#fefefe;stroke-width:0;stroke-linecap:round;stroke-linejoin:round;stroke-dasharray:none;stroke-opacity:1;paint-order:markers stroke fill;enable-background:accumulate;stop-color:#000000"
       d="m 598.37137,226.31874 v 13.08984 c 0,4.6864 0.0317,7.66671 0.125,9.49609 0.0466,0.9147 0.10278,1.5302 0.20508,2.00391 0.0512,0.23685 0.0916,0.43783 0.27148,0.70508 0.0899,0.13362 0.23416,0.30104 0.48242,0.41015 0.24827,0.10912 0.57293,0.10142 0.78516,0.0254 l -0.002,0.002 c -0.12931,0.046 -0.0697,0.0199 -0.041,0.0137 0.0287,-0.006 0.0788,-0.0166 0.14258,-0.0293 0.12753,-0.0253 0.31598,-0.0608 0.55664,-0.10547 0.48132,-0.0894 1.17444,-0.21564 2.05664,-0.37304 1.7644,-0.3148 4.28055,-0.75672 7.35937,-1.29297 6.15765,-1.07249 14.57085,-2.52149 23.75,-4.08984 9.18255,-1.56894 17.49195,-3.02717 23.48633,-4.11329 2.99719,-0.54305 5.41476,-0.99329 7.07813,-1.31836 0.83168,-0.16253 1.4728,-0.29429 1.91406,-0.39257 0.22063,-0.0491 0.38754,-0.0883 0.52539,-0.12696 0.0689,-0.0194 0.12308,-0.0326 0.22266,-0.0742 0.0498,-0.0208 0.0995,-0.0246 0.25976,-0.15625 0.0401,-0.0329 0.0887,-0.0749 0.14649,-0.14843 0.0577,-0.0736 0.17362,-0.3469 0.17382,-0.34766 2.1e-4,-7.6e-4 -0.029,-0.57744 -0.0293,-0.57812 -2.6e-4,-6.9e-4 -0.27663,-0.39198 -0.27735,-0.39258 -0.18326,-0.15523 -0.22661,-0.14514 -0.27343,-0.16406 -0.0468,-0.0189 -0.0785,-0.0301 -0.10743,-0.0391 -0.0579,-0.018 -0.10608,-0.0305 -0.16406,-0.0449 -0.11596,-0.0289 -0.2597,-0.0611 -0.4414,-0.0996 -0.36341,-0.0771 -0.8759,-0.17845 -1.52539,-0.30273 -1.299,-0.24858 -3.14836,-0.58703 -5.41602,-0.99414 -4.53533,-0.81424 -10.73961,-1.8978 -17.52539,-3.05469 -13.56652,-2.31292 -28.70997,-4.90537 -33.64649,-5.75977 z m 1.90039,2.25781 7.86914,1.36133 c 4.94348,0.8556 20.08095,3.44863 33.64844,5.76172 6.78122,1.15611 12.98454,2.23801 17.51172,3.05078 1.19076,0.21378 1.89918,0.34873 2.83789,0.52148 -1.46179,0.27635 -2.83801,0.53898 -4.92969,0.91797 -5.98487,1.08439 -14.28935,2.54326 -23.4668,4.11133 -9.18084,1.56864 -17.59525,3.01879 -23.75586,4.0918 -3.0803,0.5365 -5.5961,0.97928 -7.36523,1.29492 -0.88457,0.15782 -1.58261,0.28406 -2.07227,0.375 -0.014,0.003 -0.0195,0.003 -0.0332,0.006 -0.0428,-0.30898 -0.0881,-0.61386 -0.12109,-1.26172 -0.089,-1.74511 -0.12305,-4.72084 -0.12305,-9.39844 z"
       id="path10" />
  </g>
</svg>
