<?xml version="1.0" encoding="UTF-8" standalone="no"?>
<svg
   id="svg864"
   width="1.3354529in"
   height="0.47588477in"
   version="1.1"
   viewBox="0 0 128.20184 45.68544"
   sodipodi:docname="coco.svg"
   inkscape:version="1.4.3 (0d15f75042, 2025-12-25)"
   xmlns:inkscape="http://www.inkscape.org/namespaces/inkscape"
   xmlns:sodipodi="http://sodipodi.sourceforge.net/DTD/sodipodi-0.dtd"
   xmlns:xlink="http://www.w3.org/1999/xlink"
   xmlns="http://www.w3.org/2000/svg"
   xmlns:svg="http://www.w3.org/2000/svg"
   xmlns:rdf="http://www.w3.org/1999/02/22-rdf-syntax-ns#"
   xmlns:cc="http://creativecommons.org/ns#"
   xmlns:dc="http://purl.org/dc/elements/1.1/">
  <defs
     id="defs1">
    <linearGradient
       id="linearGradient42"
       inkscape:collect="always">
      <stop
         style="stop-color:#000000;stop-opacity:1;"
         offset="0"
         id="stop42" />
      <stop
         style="stop-color:#000000;stop-opacity:0.62879747;"
         offset="1"
         id="stop43" />
    </linearGradient>
    <linearGradient
       id="linearGradient7779"
       inkscape:collect="always">
      <stop
         style="stop-color:#fefefe;stop-opacity:1;"
         offset="0"
         id="stop7780" />
      <stop
         style="stop-color:#7f7f7f;stop-opacity:1;"
         offset="1"
         id="stop7781" />
    </linearGradient>
    <linearGradient
       inkscape:collect="always"
       xlink:href="#linearGradient7779"
       id="linearGradient25-9"
       gradientUnits="userSpaceOnUse"
       gradientTransform="matrix(0.77816045,0,0,0.77816045,-37.511103,-132.87933)"
       x1="142.1855"
       y1="51.99831"
       x2="135.77133"
       y2="79.085022"
       spreadMethod="reflect" />
    <radialGradient
       inkscape:collect="always"
       xlink:href="#linearGradient42"
       id="radialGradient43"
       cx="71.348099"
       cy="-39.458328"
       fx="71.348099"
       fy="-39.458328"
       r="61.502075"
       gradientTransform="matrix(1,0,0,0.14236746,1.3670731,-38.853347)"
       gradientUnits="userSpaceOnUse" />
  </defs>
  <sodipodi:namedview
     id="namedview1"
     pagecolor="#b8b8b8"
     bordercolor="#000000"
     borderopacity="0.25"
     inkscape:showpageshadow="2"
     inkscape:pageopacity="0.0"
     inkscape:pagecheckerboard="0"
     inkscape:deskcolor="#d1d1d1"
     inkscape:document-units="in"
     inkscape:zoom="4.3889869"
     inkscape:cx="57.302518"
     inkscape:cy="-35.087824"
     inkscape:window-width="1920"
     inkscape:window-height="1080"
     inkscape:window-x="0"
     inkscape:window-y="0"
     inkscape:window-maximized="0"
     inkscape:current-layer="svg864" />
  <metadata
     id="metadata870">
    <rdf:RDF>
      <cc:Work
         rdf:about="">
        <dc:format>image/svg+xml</dc:format>
        <dc:type
           rdf:resource="http://purl.org/dc/dcmitype/StillImage" />
      </cc:Work>
    </rdf:RDF>
  </metadata>
  <path
     style="baseline-shift:baseline;display:inline;overflow:visible;vector-effect:none;fill:#ffffff;stroke-linecap:round;stroke-linejoin:round;paint-order:markers stroke fill;enable-background:accumulate;stop-color:#000000"
     d="m 57.773437,15.701172 c -3.575575,0 -5.880521,0.06077 -7.392578,0.289062 -1.501264,0.218194 -2.938871,0.788449 -3.972656,1.921875 -0.0075,0.0081 -0.0082,0.01923 -0.01563,0.02734 -0.338009,-0.353917 -0.686062,-0.703779 -1.097656,-0.953125 -0.818068,-0.501735 -1.753472,-0.827934 -2.714844,-0.912109 -0.968395,-0.09552 -2.546011,-0.10332 -5.488281,-0.111328 a 2.4002649,2.4002649 0 0 0 -0.0059,0 H 24.568359 A 2.4002649,2.4002649 0 0 0 23.96875,16.5625 2.4002649,2.4002649 0 0 0 23.371094,15.962891 H 2.7988281 a 2.4002649,2.4002649 0 0 0 -2.4003906,2.40039 v 4.333985 a 2.4002649,2.4002649 0 0 0 2.3984375,2.40039 h 5.1738281 v 10.265625 a 2.4002649,2.4002649 0 0 0 2.3984379,2.398438 H 15.8125 a 2.4002649,2.4002649 0 0 0 2.400391,-2.398438 V 25.097656 h 3.955078 v 10.265625 a 2.4002649,2.4002649 0 0 0 2.40039,2.398438 H 29.75 a 2.4002649,2.4002649 0 0 0 2.400391,-2.398438 v -1.923828 h 4.898437 c 0.579093,0 0.649774,0.01325 0.953125,0.0293 0.02007,0.277194 0.04492,0.432713 0.04492,0.986328 v 0.908203 a 2.4002649,2.4002649 0 0 0 2.400391,2.398438 h 5.107421 a 2.4002649,2.4002649 0 0 0 1.375,-1.373047 c 0.172443,0.125566 0.317243,0.294006 0.5,0.398437 a 2.4002649,2.4002649 0 0 0 0.02734,0.01563 c 1.09102,0.604501 2.260985,0.842268 3.65625,0.994141 1.397288,0.152116 3.325748,0.214844 5.925781,0.214844 3.082097,0 5.165668,-0.04172 6.476563,-0.158203 a 2.4002649,2.4002649 0 0 0 0.01563,-0.002 c 1.213312,-0.115544 2.26212,-0.319783 3.253906,-0.80664 0.996282,-0.485273 1.852391,-1.298648 2.394531,-2.257813 a 2.4002649,2.4002649 0 0 0 0.01172,-0.01758 c 0.538131,-0.972709 0.735251,-2.05786 0.835938,-3.216797 a 2.4002649,2.4002649 0 0 0 0.255859,0.25586 h 9.365234 a 2.4002649,2.4002649 0 0 0 0.01758,-0.01758 c 0.06114,1.038283 0.211569,2.017672 0.695312,2.935546 a 2.4002649,2.4002649 0 0 0 0.01172,0.02148 c 0.63009,1.165638 1.73867,2.014865 2.923828,2.46875 a 2.4002649,2.4002649 0 0 0 0.0059,0.002 c 0.944274,0.358634 1.966604,0.546477 3.085938,0.625 1.125524,0.08809 2.91357,0.117187 5.599609,0.117187 2.660419,0 4.364804,-0.02296 5.396485,-0.105468 a 2.4002649,2.4002649 0 0 0 0.002,-0.002 c 1.250178,-0.101115 2.287917,-0.259113 3.250001,-0.605469 a 2.4002649,2.4002649 0 0 0 0.0254,-0.0098 c 0.96368,-0.359764 1.87189,-0.970506 2.51562,-1.818359 a 2.4002649,2.4002649 0 0 0 0.008,-0.01172 c 0.12109,-0.161453 0.13771,-0.352306 0.23633,-0.519531 1.03832,1.474052 2.6768,2.479908 4.49414,2.748047 1.61689,0.240692 3.93285,0.326172 7.22656,0.326172 1.63225,0 3.13032,-0.0319 4.5,-0.0918 1.15597,-0.04381 2.07592,-0.11353 2.875,-0.257813 a 2.4002649,2.4002649 0 0 0 0.0254,-0.0039 c 0.79179,-0.151841 1.54261,-0.391639 2.23633,-0.757813 l 0.002,-0.002 c 1.66234,-0.877327 2.85222,-2.598158 3.18164,-4.449218 0.1112,-0.608717 0.17832,-1.227275 0.19922,-1.851563 0.031,-0.662068 0.0391,-1.81552 0.0391,-3.691406 0,-2.413415 -0.0176,-3.882695 -0.11133,-4.832031 -0.0947,-0.958921 -0.37098,-1.895804 -0.82812,-2.736329 -0.96554,-1.788333 -2.89628,-2.91107 -4.92969,-3.201171 -1.616,-0.239858 -3.92202,-0.324219 -7.20312,-0.324219 h -0.002 c -1.65899,0 -3.15438,0.03021 -4.49804,0.08984 -1.16361,0.04375 -2.09077,0.114321 -2.89649,0.257812 a 2.4002649,2.4002649 0 0 0 -0.006,0 c -0.79485,0.143516 -1.55301,0.392112 -2.2539,0.771484 -0.91538,0.480538 -1.63679,1.238747 -2.19922,2.113282 -0.61102,-1.05618 -1.5575,-1.927114 -2.66406,-2.378907 -2.058425,-0.847446 -4.483225,-0.853515 -8.621099,-0.853515 -2.178177,0 -4.002744,0.06609 -5.517578,0.208984 -1.153056,0.102291 -2.102387,0.254222 -3.003906,0.595703 -0.87934,0.333093 -1.711248,0.890841 -2.328125,1.646485 a 2.4002649,2.4002649 0 0 0 -0.01563,0.01758 c -0.901955,1.127571 -1.166952,2.476366 -1.244141,3.914062 a 2.4002649,2.4002649 0 0 0 -0.230469,-0.230468 h -9.365234 a 2.4002649,2.4002649 0 0 0 -0.779297,0.779296 c -0.02201,-1.754737 -0.29676,-3.372507 -1.457031,-4.669921 -1.202087,-1.352914 -2.830034,-1.836533 -4.675781,-2.091797 l 0.002,0.002 c -1.281232,-0.178513 -3.055821,-0.234375 -5.59961,-0.234375 z m 2.792969,3.964844 0.03516,0.002 c -0.0059,-4.31e-4 -0.02339,4.25e-4 -0.0293,0 -0.0019,-1.13e-4 -0.0039,-0.0018 -0.0059,-0.002 z m 35.744141,0.130859 0.0332,0.0059 c -0.0046,-8.69e-4 -0.01493,8.63e-4 -0.01953,0 -0.0044,-7.88e-4 -0.0093,-0.0051 -0.01367,-0.0059 z m -48.667969,0.05664 0.002,0.0078 c -2.92e-4,-8.36e-4 -0.0017,-0.0011 -0.002,-0.002 -6.03e-4,-0.0017 6.05e-4,-0.0041 0,-0.0059 z m 4.537109,0.04297 c -0.0029,7.97e-4 -0.0049,0.0051 -0.0078,0.0059 -0.01083,0.0031 -0.01835,6.97e-4 -0.0293,0.0039 z M 110.35547,20.6875 c -0.34266,0.0887 -0.65821,0.04629 -1.07813,0.296875 a 2.4002649,2.4002649 0 0 0 -0.006,0.0039 c -1.03417,0.620519 -1.57345,1.690736 -1.78906,2.625 -0.21279,0.922095 -0.25,1.874619 -0.25,3.169922 0,1.485071 0.0221,2.49091 0.29102,3.519531 a 2.4002649,2.4002649 0 0 0 0.0117,0.04297 c 0.28502,1.013437 1.08214,2.088564 2.14062,2.587891 -0.23303,-0.02294 -0.8838,-0.01946 -1.05469,-0.04492 a 2.4002649,2.4002649 0 0 0 -0.004,0 c -1.00808,-0.148737 -1.19282,-0.348424 -1.40235,-0.734375 -0.14014,-0.2623 -0.23328,-0.55062 -0.27148,-0.9375 l 0.002,0.002 c -0.0385,-0.394584 -0.0898,-2.074615 -0.0898,-4.585938 0,-1.70927 0.01,-2.833477 0.0234,-3.265625 0.0202,-0.409014 0.0665,-0.801018 0.13672,-1.177734 a 2.4002649,2.4002649 0 0 0 0.004,-0.02539 c 0.12242,-0.698194 0.21964,-0.796136 0.6836,-1.037109 a 2.4002649,2.4002649 0 0 0 0.0449,-0.02344 c 0.17215,-0.09419 0.44104,-0.196983 0.83203,-0.267579 0.32427,-0.05748 1.03381,-0.106838 1.77539,-0.148437 z m -99.521486,0.07422 h 4.513672 a 2.4002649,2.4002649 0 0 0 -1.933593,1.935547 V 32.962891 H 12.769531 V 22.697266 a 2.4002649,2.4002649 0 0 0 -1.935547,-1.935547 z m 16.134766,0 h 2.230469 a 2.4002649,2.4002649 0 0 0 -1.847657,1.847656 v 4.185547 a 2.4002649,2.4002649 0 0 0 2.123047,2.121094 2.4002649,2.4002649 0 0 0 -2.125,2.125 v 1.921875 H 26.96875 Z m 24.007812,0.01367 C 50.736406,20.979197 50.4159,21.044064 50.25,21.304687 c -0.440882,0.692611 -0.554688,1.419915 -0.554688,2.041016 10e-7,0.621539 0.124395,1.358205 0.576172,2.042969 0.20403,0.30925 0.564593,0.396801 0.861328,0.617187 -0.258829,-0.03789 -0.736248,-0.06112 -0.867187,-0.09766 -0.287293,-0.0902 -0.366381,-0.166974 -0.400391,-0.207031 a 2.4002649,2.4002649 0 0 0 -0.02344,-0.02734 c -0.02779,-0.03176 -0.365235,-0.668708 -0.365235,-2.080078 0,-1.613463 0.385867,-2.352858 0.457032,-2.429688 a 2.4002649,2.4002649 0 0 0 0.01758,-0.02148 c 0.0679,-0.075 0.387513,-0.249295 1.02539,-0.367187 z m 69.595708,0.01563 c 0.23623,0.02318 0.89153,0.01915 1.06445,0.04492 a 2.4002649,2.4002649 0 0 0 0.0176,0.002 c 1.00098,0.142215 1.17064,0.332364 1.38476,0.730468 a 2.4002649,2.4002649 0 0 0 0.008,0.01172 c 0.13834,0.253635 0.22971,0.532635 0.26757,0.916016 0.0391,0.395703 0.0879,1.992343 0.0879,4.361328 0,1.865997 -0.0168,3.098225 -0.0352,3.484375 a 2.4002649,2.4002649 0 0 0 -0.002,0.03711 c -0.0128,0.397266 -0.0534,0.784183 -0.12304,1.164063 a 2.4002649,2.4002649 0 0 0 -0.004,0.01563 c -0.12095,0.68535 -0.22126,0.795963 -0.69726,1.046875 a 2.4002649,2.4002649 0 0 0 -0.002,0 c -0.18248,0.09641 -0.47684,0.203138 -0.88476,0.283203 -0.27746,0.0497 -0.93815,0.09267 -1.55274,0.132812 0.89291,-0.311709 1.74401,-0.787213 2.25586,-1.761718 a 2.4002649,2.4002649 0 0 0 0.008,-0.01367 c 0.76759,-1.485632 0.65235,-2.574545 0.65235,-4.388672 0,-1.422398 -0.0226,-2.405588 -0.31055,-3.441406 -0.27395,-1.023377 -1.06212,-2.120424 -2.13476,-2.625 z m -79.500004,0.04102 c 0.185431,0.0068 1.0139,0.0135 1.054687,0.01758 a 2.4002649,2.4002649 0 0 0 0.0332,0.0039 c 0.19379,0.0166 0.372903,0.06703 0.628906,0.224609 a 2.4002649,2.4002649 0 0 0 0.01953,0.01172 c 0.224578,0.135321 0.237923,0.164412 0.304687,0.355468 a 2.4002649,2.4002649 0 0 0 0.0039,0.0078 c 0.05967,0.168721 0.222657,1.089382 0.222657,2.427734 0,1.135442 -0.107371,1.931943 -0.152344,2.097657 a 2.4002649,2.4002649 0 0 0 -0.0078,0.03125 c -0.04134,0.160766 -0.03419,0.117878 -0.05859,0.136718 0.01441,-0.01196 -0.277106,0.06463 -0.376953,0.105469 0.126213,-0.547226 0.203125,-1.054907 0.203125,-1.611328 0,-0.697187 -0.02987,-1.315989 -0.322266,-2.082031 -0.260835,-0.700687 -0.884594,-1.32553 -1.552734,-1.726563 z m 22.279296,0.04883 c 0.473332,0.156561 1.134864,0.360797 1.109375,0.332032 a 2.4002649,2.4002649 0 0 0 0.0098,0.0098 c -0.0026,-0.0029 0.01456,0.08409 0.01367,0.08398 H 63.701204 C 63.587808,21.149704 63.484349,21.012829 63.351594,20.8809 Z m 22.515625,0.05273 c -0.207175,0.206315 -0.507632,0.293422 -0.646484,0.537109 -0.39115,0.686473 -0.492187,1.38203 -0.492187,1.998047 0,0.223065 0.13237,0.48707 0.164062,0.724609 -0.01953,-0.004 -0.214588,-0.04646 -0.185547,-0.02734 0.175491,0.118189 -0.107422,0.0051 -0.107422,-1.269532 0,-1.142569 0.265165,-1.646346 0.269532,-1.654297 0.04563,-0.0552 0.0915,-0.107012 0.298828,-0.185546 0.07876,-0.02983 0.488806,-0.07807 0.699218,-0.123047 z m 12.550782,0.09375 c 0.02106,0.0047 0.358983,0.02477 0.365234,0.02734 a 2.4002649,2.4002649 0 0 0 0.01172,0.0039 c 0.329363,0.1338 0.317969,0.164241 0.373047,0.289062 0.08101,0.193569 0.210937,0.71665 0.210937,1.548828 0,1.067265 -0.281583,1.489289 -0.130859,1.306641 0.03007,-0.03573 -0.147688,0.02313 -0.138672,0.01172 0.03231,-0.248514 0.134766,-0.520911 0.134766,-0.757813 0,-0.693149 -0.102068,-1.50965 -0.69336,-2.3125 -0.03666,-0.05013 -0.09361,-0.07004 -0.132812,-0.117187 z m 3.878911,0.283203 c -9.5e-4,0.0051 -0.001,0.01055 -0.002,0.01563 -6.1e-4,0.0035 -0.003,0.0063 -0.004,0.0098 z m -38.082036,0.568359 0.0332,0.0957 c -0.0039,-0.01165 -0.01744,-0.01575 -0.02148,-0.02734 -0.01074,-0.02967 4.7e-5,-0.03746 -0.01172,-0.06836 z m 50.583986,3.105469 c 1.91069,0.03151 3.08544,0.07471 3.30859,0.08789 0.0335,0.254706 0.10938,0.748423 0.10938,1.785156 0,1.285199 -0.14111,1.739438 -0.0937,1.785156 0.0307,-0.0069 -1.32275,0.05524 -3.33008,0.0957 -1.47917,-0.03033 -2.37171,-0.06689 -2.65039,-0.08398 -0.0373,-0.297642 -0.10938,-0.79926 -0.10938,-1.871094 0,-0.913855 0.0619,-1.374291 0.10352,-1.691406 0.0859,-0.01756 -0.0165,0.0073 0.0879,-0.0039 0.57643,-0.06168 1.45708,-0.103043 2.57422,-0.103516 z m -12.78125,0.304687 0.0195,0.01367 c -0.003,-0.0017 -0.005,-2.43e-4 -0.008,-0.002 -0.005,-0.0031 -0.007,-0.0087 -0.0117,-0.01172 z m -32.435549,1.054688 0.0039,0.0098 c -8.55e-4,-0.0022 -0.003,-0.0037 -0.0039,-0.0059 -4.65e-4,-0.0012 4.66e-4,-0.0027 0,-0.0039 z m 3.101563,0.371094 H 77.25 v 0.294922 h -4.566406 z m -9.132813,0.40625 0.07422,0.04492 c -0.02119,-0.0139 -0.03379,-0.0081 -0.05469,-0.02148 -0.0095,-0.0059 -0.01,-0.01764 -0.01953,-0.02344 z m -15.722656,0.08398 -0.0078,0.03125 c 0.0014,-0.0052 5.47e-4,-0.01235 0.002,-0.01758 0.0012,-0.0047 0.0046,-0.0089 0.0059,-0.01367 z m 16.066406,0.320313 c 0.398655,0.08231 0.810959,0.174811 0.917969,0.234375 0.188813,0.116017 0.236537,0.16902 0.306641,0.347656 a 2.4002649,2.4002649 0 0 0 0.002,0.0098 c 0.06507,0.163715 0.216797,0.862505 0.216797,1.916016 0,1.382304 -0.250749,2.227462 -0.345704,2.402344 -0.09803,0.170625 -0.149818,0.217797 -0.308593,0.294922 a 2.4002649,2.4002649 0 0 0 -0.01172,0.0059 c -0.07838,0.03862 -0.539203,0.107274 -0.826172,0.173828 0.326512,-0.313225 0.761093,-0.549714 0.919922,-0.904297 0.294361,-0.657156 0.353516,-1.254932 0.353516,-1.824218 0,-0.81121 -0.387147,-1.891717 -1.22461,-2.65625 z m 40.042969,0.251953 0.0117,0.03125 c -0.002,-0.0062 -0.008,-0.01134 -0.01,-0.01758 -0.002,-0.0043 -4.1e-4,-0.0094 -0.002,-0.01367 z m -64.4375,0.97656 0.06641,0.0098 c -0.01589,-0.0028 -0.03694,7.04e-4 -0.05273,-0.002 -0.0047,-7.07e-4 -0.009,-0.0071 -0.01367,-0.0078 z m 0.712891,0.144531 a 2.4002649,2.4002649 0 0 0 0.388671,0.404297 c -0.222308,-0.105771 -0.418759,-0.259267 -0.642578,-0.320312 0.08498,-0.01704 0.168081,-0.06092 0.253907,-0.08398 z m 59.044921,0.361329 c -0.01229,-0.0094 0.117332,0.03739 0.09375,0.02148 a 2.4002649,2.4002649 0 0 0 0.01953,0.01367 c 0.0364,0.02405 -0.0032,-0.0451 0.03711,0.07227 a 2.4002649,2.4002649 0 0 0 0.01172,0.0293 c 0.04546,0.126921 0.158203,0.68496 0.158203,1.521485 0,1.12949 -0.268607,1.6529 -0.232422,1.605468 -0.03566,0.04685 -0.09887,0.11273 -0.347656,0.208985 -0.07092,0.02523 -0.372916,0.05431 -0.494141,0.08398 0.08258,-0.09018 0.187942,-0.117475 0.263672,-0.222656 a 2.4002649,2.4002649 0 0 0 0.02539,-0.03711 c 0.666562,-0.962757 0.65039,-1.721612 0.65039,-2.47461 0,-0.24563 -0.158408,-0.564347 -0.185547,-0.822265 z m -14.548828,0.0039 c -0.03751,0.296905 -0.177734,0.645586 -0.177734,0.93164 0,0.663172 -0.0414,1.302469 0.523437,2.230469 0.107834,0.17716 0.261933,0.248909 0.388672,0.388672 -0.118315,-0.03266 -0.337376,-0.04517 -0.429687,-0.08008 l -0.002,-0.002 c -0.359245,-0.138202 -0.372512,-0.198785 -0.404297,-0.259766 -0.03031,-0.06181 -0.207031,-0.603253 -0.207031,-1.554687 0,-0.884604 0.128555,-1.453214 0.169921,-1.564453 0.01677,-0.05384 -0.01279,-0.03172 0.0625,-0.07227 -0.01171,0.0063 0.08147,-0.02108 0.07617,-0.01758 z m -42.474609,1.734375 a 2.4002649,2.4002649 0 0 0 0.162109,0.169922 c 0.678008,0.05174 0.7374,0.180743 0.675782,0.115234 0.0063,0.03985 0.03258,0.941029 0.05469,1.679688 h -0.371094 c -0.0217,-0.289551 -0.0079,-0.649199 -0.05859,-0.927735 -0.05649,-0.340727 -0.319113,-0.685894 -0.462891,-1.037109 z m 7.255859,1.134765 h 0.699219 c 0.131401,0.238752 0.304551,0.462659 0.513672,0.679688 -0.307018,-0.0801 -0.834893,-0.166554 -0.90625,-0.205078 -0.226231,-0.132666 -0.252885,-0.186979 -0.285156,-0.265625 -0.0037,-0.01 -0.01494,-0.183319 -0.02148,-0.208985 z m 13.583985,1.544922 -0.01367,0.0039 c 8.87e-4,-3.67e-4 0.0011,-0.0016 0.002,-0.002 0.0041,-0.0017 0.0076,-2.44e-4 0.01172,-0.002 z m 24.109375,0.234375 c 0.0096,0.0025 0.01395,-4.8e-4 0.02344,0.002 0.0043,0.0011 0.0094,0.0048 0.01367,0.0059 z"
     id="path7781" />
  <g
     id="g43"
     transform="translate(-9.113821,71.543495)">
    <path
       style="baseline-shift:baseline;display:inline;overflow:visible;vector-effect:none;fill:url(#radialGradient43);stroke-linecap:round;stroke-linejoin:round;paint-order:markers stroke fill;enable-background:accumulate;stop-color:#000000"
       d="m 66.18941,-53.226723 c 2.4991,0 4.2546,0.0698 5.2676,0.21094 1.5609,0.21587 2.6336,0.65267 3.2148,1.3086 0.5812,0.64762 0.87109,1.7428 0.87109,3.2871 0,0.14115 -0.003,0.4086 -0.0117,0.79883 h -5.0195 c -0.0166,-0.47326 -0.0586,-0.7983 -0.125,-0.97266 -0.0581,-0.17436 -0.17868,-0.31589 -0.36133,-0.42382 -0.22417,-0.13285 -0.619,-0.21484 -1.1836,-0.24805 -0.56459,-0.0415 -1.7593,-0.0625 -3.5859,-0.0625 -2.2002,0 -3.5419,0.0698 -4.0234,0.21094 -0.48155,0.13284 -0.72265,0.51206 -0.72265,1.1348 0,0.59781 0.24109,0.96286 0.72265,1.0957 0.39854,0.10794 2.2292,0.21092 5.4922,0.31055 2.7482,0.083 4.5842,0.18259 5.5059,0.29883 0.92992,0.10794 1.6688,0.31926 2.2168,0.63477 0.62271,0.37362 1.0629,0.889 1.3203,1.5449 0.25739,0.64762 0.38477,1.5822 0.38477,2.8027 0,1.602398 -0.21475,2.793798 -0.64649,3.574198 -0.32381,0.57289 -0.77623,1.0009 -1.3574,1.2832 -0.57289,0.2823 -1.3835,0.47264 -2.4297,0.57227 -1.1209,0.0996 -3.2082,0.15039 -6.2637,0.15039 -2.5573,0 -4.4455,-0.0683 -5.666,-0.20117 -1.2205,-0.13285 -2.1395,-0.36857 -2.7539,-0.70899 -0.63932,-0.36532 -1.083,-0.84751 -1.332,-1.4453 -0.24078,-0.59781 -0.36133,-1.506 -0.36133,-2.7266 v -0.796878 h 5.0195 c -0.008,0.838578 0.16108,1.378398 0.50977,1.619098 0.24908,0.15776 0.56875,0.25195 0.95898,0.28516 0.39853,0.0249 1.644,0.0459 3.7363,0.0625 2.192,-0.008 3.5092,-0.0205 3.9492,-0.0371 0.44004,-0.0249 0.78753,-0.0913 1.0449,-0.19922 0.38193,-0.15775 0.57422,-0.58577 0.57422,-1.283198 0,-0.50647 -0.13812,-0.84176 -0.41211,-1.0078 -0.26569,-0.17436 -0.81425,-0.27051 -1.6445,-0.28711 -0.63932,0 -1.9912,-0.0488 -4.0586,-0.14844 -2.1172,-0.0996 -3.4954,-0.15917 -4.1348,-0.17578 -1.2454,-0.0415 -2.2044,-0.15671 -2.877,-0.34766 -0.66423,-0.19926 -1.183,-0.51894 -1.5566,-0.95898 -0.63933,-0.73065 -0.95899,-1.9517 -0.95899,-3.6621 0,-1.918 0.36506,-3.2718 1.0957,-4.0606 0.55629,-0.61441 1.4104,-1.0039 2.5645,-1.1699 1.1541,-0.17436 3.5001,-0.26172 7.0371,-0.26172 z m 34.215,0.0625 c 4.0518,0 6.6213,0.22352 7.709,0.67188 0.79707,0.3238 1.3525,0.83576 1.668,1.5332 0.274,0.63101 0.41211,1.4729 0.41211,2.5273 0,1.3451 -0.22547,2.2919 -0.67383,2.8398 -0.44834,0.53968 -1.2604,0.85056 -2.4394,0.93359 0.99633,0.17436 1.6723,0.38227 2.0293,0.62305 0.46496,0.3072 0.79341,0.73863 0.98437,1.2949 0.19927,0.55629 0.29883,1.3337 0.29883,2.330098 0,1.4032 -0.23768,2.4198 -0.71094,3.0508 -0.34041,0.44835 -0.82064,0.78901 -1.4434,1.0215 -0.62271,0.22418 -1.4997,0.38133 -2.6289,0.47266 -0.83028,0.0664 -2.5648,0.0996 -5.2051,0.0996 -2.6735,0 -4.4851,-0.0366 -5.4316,-0.11133 -0.94652,-0.0664 -1.7464,-0.2255 -2.4023,-0.47461 -0.78047,-0.2989 -1.3378,-0.75473 -1.6699,-1.3691 -0.32381,-0.61441 -0.48437,-1.5105 -0.48437,-2.6894 0,-1.062798 0.11176,-1.882198 0.33594,-2.455098 0.23248,-0.57289 0.61851,-1.0043 1.1582,-1.2949 0.34041,-0.18266 0.94657,-0.3486 1.8184,-0.49805 -0.87179,-0.0581 -1.5165,-0.22065 -1.9316,-0.48633 -0.78877,-0.52308 -1.1816,-1.6182 -1.1816,-3.2871 0,-1.4447 0.26549,-2.4998 0.79687,-3.1641 0.33212,-0.40683 0.77233,-0.71235 1.3203,-0.91992 0.54799,-0.20757 1.3357,-0.35789 2.3652,-0.44922 1.4032,-0.13285 3.1728,-0.19922 5.3066,-0.19922 z m 23.139,0 c 3.2381,0 5.5265,0.0996 6.8633,0.29883 1.51941,0.21587 2.5726,0.87278 3.1621,1.9688 0.2989,0.54799 0.48241,1.1576 0.54883,1.8301 0.0664,0.67252 0.0996,2.2045 0.0996,4.5957 0,1.8764 -0.0122,3.0765 -0.0371,3.5996 -0.0166,0.514768 -0.0708,1.021398 -0.16211,1.519498 -0.22418,1.2703 -0.8723,2.1874 -1.9434,2.752 -0.44004,0.23248 -0.96225,0.4072 -1.5684,0.52344 -0.5978,0.10794 -1.4485,0.18114 -2.5527,0.22266 -1.3285,0.0581 -2.794,0.0879 -4.3965,0.0879 -3.2464,0 -5.5382,-0.0996 -6.875,-0.29883 -1.5194,-0.22418 -2.5746,-0.87913 -3.1641,-1.9668 -0.2989,-0.55628 -0.48045,-1.1712 -0.54687,-1.8438 -0.0664,-0.68083 -0.0996,-2.287998 -0.0996,-4.820298 0,-1.727 0.007,-2.8485 0.0234,-3.3633 0.0249,-0.52308 0.0845,-1.0297 0.17579,-1.5195 0.22418,-1.2786 0.87034,-2.1957 1.9414,-2.752 0.44005,-0.24078 0.95884,-0.41551 1.5566,-0.52344 0.6061,-0.10794 1.4621,-0.18114 2.5664,-0.22266 1.3036,-0.0581 2.7726,-0.0879 4.4082,-0.0879 z m -112.330017,0.19922 h 20.573999 v 4.334 h -7.558599 v 12.665998 h -5.4434 v -12.665998 h -7.5723 z m 21.769999,0 H 45.50141 c 2.9392,0.008 4.6981,0.0415 5.2793,0.0996 0.5812,0.0498 1.142,0.24013 1.6816,0.57227 0.64762,0.39023 1.0912,0.93001 1.332,1.6191 0.24078,0.68083 0.36133,1.757 0.36133,3.2266 0,1.2371 -0.0786,2.1454 -0.23633,2.7266 -0.14946,0.58119 -0.43594,1.0458 -0.85938,1.3945 -0.45666,0.37363 -1.1448,0.63229 -2.0664,0.77344 1.0877,0.083 1.8685,0.39391 2.3418,0.93359 0.274,0.32381 0.44677,0.71864 0.52149,1.183598 0.0747,0.45665 0.11328,1.4191 0.11328,2.8887 v 1.582 h -5.1074 v -0.9082 c 0,-0.94652 -0.0366,-1.619 -0.11133,-2.0176 -0.0664,-0.40684 -0.19575,-0.71967 -0.38672,-0.93555 -0.19096,-0.19926 -0.45646,-0.32323 -0.79688,-0.37305 -0.33211,-0.0581 -1.0325,-0.0879 -2.1035,-0.0879 h -7.298818 v 4.3223 h -5.1816 z m 66.895018,3.6113 c -1.9346,0 -3.1434,0.0839 -3.625,0.25 -0.47326,0.16605 -0.70898,0.57991 -0.70898,1.2441 0,0.69743 0.22011,1.1167 0.66015,1.2578 0.44005,0.13285 1.7763,0.19922 4.0098,0.19922 1.9761,0 3.164,-0.007 3.5625,-0.0234 0.39853,-0.0249 0.72504,-0.0967 0.98242,-0.21289 0.33212,-0.14945 0.5,-0.55989 0.5,-1.2324 0,-0.39853 -0.0752,-0.69722 -0.22461,-0.89648 -0.14945,-0.20758 -0.39054,-0.34032 -0.72265,-0.39844 -0.61441,-0.11624 -2.0922,-0.1792 -4.4336,-0.1875 z m 23.352,0.61133 c -2.358,0 -3.7938,0.15373 -4.3086,0.46093 -0.33211,0.19927 -0.56101,0.56774 -0.68555,1.1074 -0.12454,0.53968 -0.1875,1.4167 -0.1875,2.6289 0,1.4032 0.0718,2.3744 0.2129,2.9141 0.14945,0.53138 0.43593,0.891068 0.85937,1.081998 0.2989,0.13284 0.63955,0.2202 1.0215,0.26171 0.39023,0.0332 1.4102,0.0664 3.0625,0.0996 2.1172,-0.0415 3.3383,-0.0781 3.6621,-0.11132 0.92992,-0.0996 1.5239,-0.3949 1.7812,-0.884768 0.25739,-0.49817 0.38477,-1.5933 0.38477,-3.2871 0,-1.345 -0.0732,-2.2831 -0.22266,-2.8144 -0.14114,-0.53968 -0.42421,-0.90474 -0.84765,-1.0957 -0.31551,-0.14114 -0.67715,-0.2285 -1.084,-0.26171 -0.39853,-0.0332 -1.6142,-0.0664 -3.6484,-0.0996 z m -85.064018,0.0234 v 4.1856 h 7.285218 c 1.2703,-0.0249 2.0268,-0.0459 2.2676,-0.0625 0.24908,-0.0249 0.46041,-0.0913 0.63477,-0.19922 0.22418,-0.14114 0.38132,-0.34906 0.47266,-0.62304 0.0913,-0.28231 0.13672,-0.70494 0.13672,-1.2695 0,-0.55628 -0.0542,-0.9721 -0.16211,-1.2461 -0.0996,-0.27399 -0.27777,-0.47312 -0.53516,-0.59766 -0.18266,-0.083 -0.40277,-0.13183 -0.66016,-0.14843 -0.24908,-0.0166 -0.97041,-0.0307 -2.166,-0.0391 z m 40.533018,1.707 h 9.3652 v 5.0938 h -9.3652 z m 21.703,4.2598 c -2.5324,0 -3.9945,0.0664 -4.3848,0.19922 -0.24908,0.083 -0.4238,0.23139 -0.52343,0.44727 -0.0996,0.20756 -0.14844,0.5326 -0.14844,0.97265 0,0.464958 0.0576,0.791458 0.17383,0.982418 0.11624,0.19097 0.34513,0.32909 0.68554,0.41211 0.38193,0.0996 1.6152,0.14844 3.6992,0.14844 2.2667,0 3.7689,-0.0488 4.5078,-0.14844 0.39853,-0.0581 0.67281,-0.19087 0.82226,-0.39844 0.14945,-0.21586 0.22461,-0.58629 0.22461,-1.109398 0,-0.42344 -0.0542,-0.73091 -0.16211,-0.92187 -0.10794,-0.19097 -0.30706,-0.32372 -0.59765,-0.39844 -0.27401,-0.083 -1.7064,-0.14403 -4.2969,-0.18555 z"
       id="path7782-5-9" />
    <path
       style="baseline-shift:baseline;display:inline;overflow:visible;vector-effect:none;fill:#808080;fill-opacity:1;stroke-linecap:round;stroke-linejoin:round;paint-order:markers stroke fill;enable-background:accumulate;stop-color:#000000"
       d="m 66.949614,-53.704353 c 2.4991,0 4.2546,0.0698 5.2676,0.21094 1.5609,0.21587 2.6336,0.65267 3.2148,1.3086 0.5812,0.64762 0.87109,1.7428 0.87109,3.2871 0,0.14115 -0.003,0.4086 -0.0117,0.79883 h -5.0195 c -0.0166,-0.47326 -0.0586,-0.7983 -0.125,-0.97266 -0.0581,-0.17436 -0.17868,-0.31589 -0.36133,-0.42382 -0.22417,-0.13285 -0.619,-0.21484 -1.1836,-0.24805 -0.56459,-0.0415 -1.7593,-0.0625 -3.5859,-0.0625 -2.2002,0 -3.5419,0.0698 -4.0234,0.21094 -0.48155,0.13284 -0.72265,0.51206 -0.72265,1.1348 0,0.59781 0.24109,0.96286 0.72265,1.0957 0.39854,0.10794 2.2292,0.21092 5.4922,0.31055 2.7482,0.083 4.5842,0.18259 5.5059,0.29883 0.92992,0.10794 1.6688,0.31926 2.2168,0.63477 0.62271,0.37362 1.0629,0.889 1.3203,1.5449 0.25739,0.64762 0.38477,1.5822 0.38477,2.8027 0,1.602398 -0.21475,2.793798 -0.64649,3.574198 -0.32381,0.57289 -0.77623,1.0009 -1.3574,1.2832 -0.57289,0.2823 -1.3835,0.47264 -2.4297,0.57227 -1.1209,0.0996 -3.2082,0.15039 -6.2637,0.15039 -2.5573,0 -4.4455,-0.0683 -5.666,-0.20117 -1.2205,-0.13285 -2.1395,-0.36857 -2.7539,-0.70899 -0.63932,-0.36532 -1.083,-0.84751 -1.332,-1.4453 -0.24078,-0.59781 -0.36133,-1.506 -0.36133,-2.7266 v -0.796878 h 5.0195 c -0.008,0.838578 0.16108,1.378398 0.50977,1.619098 0.24908,0.15776 0.56875,0.25195 0.95898,0.28516 0.39853,0.0249 1.644,0.0459 3.7363,0.0625 2.192,-0.008 3.5092,-0.0205 3.9492,-0.0371 0.44004,-0.0249 0.78753,-0.0913 1.0449,-0.19922 0.38193,-0.15775 0.57422,-0.58577 0.57422,-1.283198 0,-0.50647 -0.13812,-0.84176 -0.41211,-1.0078 -0.26569,-0.17436 -0.81425,-0.27051 -1.6445,-0.28711 -0.63932,0 -1.9912,-0.0488 -4.0586,-0.14844 -2.1172,-0.0996 -3.4954,-0.15917 -4.1348,-0.17578 -1.2454,-0.0415 -2.2044,-0.15671 -2.877,-0.34766 -0.66423,-0.19926 -1.183,-0.51894 -1.5566,-0.95898 -0.63933,-0.73065 -0.95899,-1.9517 -0.95899,-3.6621 0,-1.918 0.36506,-3.2718 1.0957,-4.0606 0.55629,-0.61441 1.4104,-1.0039 2.5645,-1.1699 1.1541,-0.17436 3.5001,-0.26172 7.0371,-0.26172 z m 34.214996,0.0625 c 4.0518,0 6.62131,0.22352 7.709,0.67188 0.79708,0.3238 1.35251,0.83576 1.66801,1.5332 0.274,0.63101 0.41211,1.4729 0.41211,2.5273 0,1.3451 -0.22547,2.2919 -0.67383,2.8398 -0.44834,0.53968 -1.2604,0.85056 -2.4394,0.93359 0.99632,0.17436 1.6723,0.38227 2.0293,0.62305 0.46496,0.3072 0.79341,0.73863 0.98437,1.2949 0.19927,0.55629 0.29883,1.3337 0.29883,2.330098 0,1.4032 -0.23768,2.4198 -0.71094,3.0508 -0.34041,0.44835 -0.82064,0.78901 -1.4434,1.0215 -0.62271,0.22418 -1.4997,0.38133 -2.62891,0.47266 -0.83028,0.0664 -2.5648,0.0996 -5.2051,0.0996 -2.673496,0 -4.485096,-0.0366 -5.431596,-0.11133 -0.94652,-0.0664 -1.7464,-0.2255 -2.4023,-0.47461 -0.78047,-0.2989 -1.3378,-0.75473 -1.6699,-1.3691 -0.32381,-0.61441 -0.48437,-1.5105 -0.48437,-2.6894 0,-1.062798 0.11176,-1.882198 0.33594,-2.455098 0.23248,-0.57289 0.61851,-1.0043 1.1582,-1.2949 0.34041,-0.18266 0.94657,-0.3486 1.8184,-0.49805 -0.87179,-0.0581 -1.5165,-0.22065 -1.9316,-0.48633 -0.78877,-0.52308 -1.1816,-1.6182 -1.1816,-3.2871 0,-1.4447 0.26549,-2.4998 0.79687,-3.1641 0.33212,-0.40683 0.77233,-0.71235 1.3203,-0.91992 0.54799,-0.20757 1.3357,-0.35789 2.3652,-0.44922 1.4032,-0.13285 3.1728,-0.19922 5.306596,-0.19922 z m 23.13901,0 c 3.2381,0 5.5265,0.0996 6.8633,0.29883 1.5194,0.21587 2.5726,0.87278 3.1621,1.9688 0.2989,0.54799 0.48241,1.1576 0.54883,1.8301 0.0664,0.67252 0.0996,2.2045 0.0996,4.5957 0,1.8764 -0.0122,3.0765 -0.0371,3.5996 -0.0166,0.514768 -0.0708,1.021398 -0.16211,1.519498 -0.22418,1.2703 -0.8723,2.1874 -1.9434,2.752 -0.44004,0.23248 -0.96225,0.4072 -1.5684,0.52344 -0.5978,0.10794 -1.4485,0.18114 -2.5527,0.22266 -1.3285,0.0581 -2.794,0.0879 -4.3965,0.0879 -3.2464,0 -5.5382,-0.0996 -6.875,-0.29883 -1.5194,-0.22418 -2.5746,-0.87913 -3.1641,-1.9668 -0.2989,-0.55628 -0.48045,-1.1712 -0.54687,-1.8438 -0.0664,-0.68083 -0.0996,-2.287998 -0.0996,-4.820298 0,-1.727 0.007,-2.8485 0.0234,-3.3633 0.0249,-0.52308 0.0845,-1.0297 0.17579,-1.5195 0.22418,-1.2786 0.87034,-2.1957 1.9414,-2.752 0.44005,-0.24078 0.95884,-0.41551 1.5566,-0.52344 0.6061,-0.10794 1.4621,-0.18114 2.5664,-0.22266 1.3036,-0.0581 2.7726,-0.0879 4.4082,-0.0879 z m -112.330024,0.19922 h 20.574 v 4.334 h -7.558599 v 12.665998 h -5.4434 v -12.665998 h -7.572301 z m 21.77,0 h 12.518018 c 2.9392,0.008 4.6981,0.0415 5.2793,0.0996 0.5812,0.0498 1.142,0.24013 1.6816,0.57227 0.64762,0.39023 1.0912,0.93001 1.332,1.6191 0.24078,0.68083 0.36133,1.757 0.36133,3.2266 0,1.2371 -0.0786,2.1454 -0.23633,2.7266 -0.14946,0.58119 -0.43594,1.0458 -0.85938,1.3945 -0.45666,0.37363 -1.1448,0.63229 -2.0664,0.77344 1.0877,0.083 1.8685,0.39391 2.3418,0.93359 0.274,0.32381 0.44677,0.71864 0.52149,1.183598 0.0747,0.45665 0.11328,1.4191 0.11328,2.8887 v 1.582 h -5.1074 v -0.9082 c 0,-0.94652 -0.0366,-1.619 -0.11133,-2.0176 -0.0664,-0.40684 -0.19575,-0.71967 -0.38672,-0.93555 -0.19096,-0.19926 -0.45646,-0.32323 -0.79688,-0.37305 -0.33211,-0.0581 -1.0325,-0.0879 -2.1035,-0.0879 h -7.298818 v 4.3223 h -5.1816 z m 66.895014,3.6113 c -1.934596,0 -3.143396,0.0839 -3.624996,0.25 -0.47326,0.16605 -0.70898,0.57991 -0.70898,1.2441 0,0.69743 0.22011,1.1167 0.66015,1.2578 0.44005,0.13285 1.7763,0.19922 4.009796,0.19922 1.9761,0 3.164,-0.007 3.5625,-0.0234 0.39853,-0.0249 0.72504,-0.0967 0.98242,-0.21289 0.33212,-0.14945 0.5,-0.55989 0.5,-1.2324 0,-0.39853 -0.0752,-0.69722 -0.22461,-0.89648 -0.14945,-0.20758 -0.39054,-0.34032 -0.72265,-0.39844 -0.61441,-0.11624 -2.0922,-0.1792 -4.4336,-0.1875 z m 23.35201,0.61133 c -2.358,0 -3.7938,0.15373 -4.3086,0.46093 -0.33211,0.19927 -0.56101,0.56774 -0.68555,1.1074 -0.12454,0.53968 -0.1875,1.4167 -0.1875,2.6289 0,1.4032 0.0718,2.3744 0.2129,2.9141 0.14945,0.53138 0.43593,0.891068 0.85937,1.081998 0.2989,0.13284 0.63955,0.2202 1.0215,0.26171 0.39023,0.0332 1.4102,0.0664 3.0625,0.0996 2.1172,-0.0415 3.3383,-0.0781 3.6621,-0.11132 0.92992,-0.0996 1.5239,-0.3949 1.7812,-0.884768 0.25739,-0.49817 0.38477,-1.5933 0.38477,-3.2871 0,-1.345 -0.0732,-2.2831 -0.22266,-2.8144 -0.14114,-0.53968 -0.42421,-0.90474 -0.84765,-1.0957 -0.31551,-0.14114 -0.67715,-0.2285 -1.084,-0.26171 -0.39853,-0.0332 -1.6142,-0.0664 -3.6484,-0.0996 z m -85.064024,0.0234 v 4.1856 h 7.285218 c 1.2703,-0.0249 2.0268,-0.0459 2.2676,-0.0625 0.24908,-0.0249 0.46041,-0.0913 0.63477,-0.19922 0.22418,-0.14114 0.38132,-0.34906 0.47266,-0.62304 0.0913,-0.28231 0.13672,-0.70494 0.13672,-1.2695 0,-0.55628 -0.0542,-0.9721 -0.16211,-1.2461 -0.0996,-0.27399 -0.27777,-0.47312 -0.53516,-0.59766 -0.18266,-0.083 -0.40277,-0.13183 -0.66016,-0.14843 -0.24908,-0.0166 -0.97041,-0.0307 -2.166,-0.0391 z m 40.533018,1.707 h 9.3652 v 5.0938 h -9.3652 z m 21.702996,4.2598 c -2.532396,0 -3.994496,0.0664 -4.384796,0.19922 -0.24908,0.083 -0.4238,0.23139 -0.52343,0.44727 -0.0996,0.20756 -0.14844,0.5326 -0.14844,0.97265 0,0.464958 0.0576,0.791458 0.17383,0.982418 0.11624,0.19097 0.34513,0.32909 0.68554,0.41211 0.38193,0.0996 1.6152,0.14844 3.699196,0.14844 2.2667,0 3.7689,-0.0488 4.5078,-0.14844 0.39853,-0.0581 0.67281,-0.19087 0.82226,-0.39844 0.14945,-0.21586 0.22461,-0.58629 0.22461,-1.109398 0,-0.42344 -0.0542,-0.73091 -0.16211,-0.92187 -0.10794,-0.19097 -0.30706,-0.32372 -0.59765,-0.39844 -0.27401,-0.083 -1.7064,-0.14403 -4.2969,-0.18555 z"
       id="path7782-5" />
  </g>
  <path
     style="baseline-shift:baseline;display:inline;overflow:visible;vector-effect:none;fill:#ffffff;fill-rule:evenodd;stroke-linecap:round;stroke-linejoin:round;paint-order:markers stroke fill;enable-background:accumulate;stop-color:#000000"
     d="m 1.8652344,0 a 1.8677917,1.8677917 0 0 0 -1.86914065,1.8671875 l 0.00195312,11.5976565 a 1.8677917,1.8677917 0 0 0 1.86718753,1.867187 h 3.1074218 a 1.8677917,1.8677917 0 0 0 0.75,-0.75 1.8677917,1.8677917 0 0 0 1.1640625,0.75 h 3.7050783 a 1.8677917,1.8677917 0 0 0 0.794922,-0.441406 c 0.577779,0.266613 1.205612,0.434722 1.876953,0.441406 a 1.8677917,1.8677917 0 0 0 0.01953,0 h 5.558594 a 1.8677917,1.8677917 0 0 0 1.34375,-1.34375 c 1.053928,0.774097 2.267087,1.343651 3.675781,1.34375 h 4.783203 a 1.8677917,1.8677917 0 0 0 0.478516,-0.478515 1.8677917,1.8677917 0 0 0 0.478515,0.478515 h 3.826172 A 1.8677917,1.8677917 0 0 0 34.6875,14.072266 c 1.125331,0.883391 2.471432,1.498047 4,1.498047 2.220234,0 4.095918,-1.186116 5.304687,-2.882813 v 0.777344 a 1.8677917,1.8677917 0 0 0 1.867188,1.867187 h 1.794922 c 2.041463,-1.63e-4 3.78741,-1.131391 4.826172,-2.753906 v 0.886719 a 1.8677917,1.8677917 0 0 0 1.867187,1.867187 h 3.587891 a 1.8677917,1.8677917 0 0 0 0.478515,-0.478515 1.8677917,1.8677917 0 0 0 0.478516,0.478515 h 3.585938 a 1.8677917,1.8677917 0 0 0 0.876953,-0.876953 c 0.735607,0.500421 1.5682,0.867539 2.513672,0.876953 a 1.8677917,1.8677917 0 0 0 0.01758,0 h 5.560547 a 1.8677917,1.8677917 0 0 0 1.259765,-1.259765 c 2.409997,1.894072 5.87476,1.843164 8.269531,0.03125 a 1.8677917,1.8677917 0 0 0 1.228516,1.228515 h 2.75 a 1.8677917,1.8677917 0 0 0 0.824219,-0.824218 1.8677917,1.8677917 0 0 0 1.207031,0.824218 h 3.82617 a 1.8677917,1.8677917 0 0 0 1.720703,-2.595703 L 90.630859,8.2382813 91.919922,6.2207031 A 1.8677917,1.8677917 0 0 0 90.347656,3.3476563 h -3.52539 V 1.8671875 A 1.8677917,1.8677917 0 0 0 84.955078,0 h -2.75 A 1.8677917,1.8677917 0 0 0 80.337891,1.8671875 V 3.2539063 C 79.329531,2.6207325 78.208806,2.1609024 76.925781,2.1523438 74.984723,2.1395765 73.4758,3.1035342 72.283203,4.359375 71.43467,3.2660957 70.171127,2.5097404 68.697266,2.5097656 h -4.664063 a 1.8677917,1.8677917 0 0 0 -1.234375,1.234375 c -0.80357,-0.729707 -1.843301,-1.1989934 -2.996094,-1.21875 V 1.8671875 A 1.8677917,1.8677917 0 0 0 57.935547,0 H 54.347656 A 1.8677917,1.8677917 0 0 0 54.167969,0.1796875 1.8677917,1.8677917 0 0 0 53.990234,0 h -1.914062 c -3.071834,2.4603495e-4 -5.640161,2.4383276 -5.802735,5.5058594 a 1.8677917,1.8677917 0 0 0 0,0.00195 c -0.01132,0.2193135 -0.03537,0.7577008 -0.06641,1.4589844 -0.02852,0.6442961 -0.0503,1.1819879 -0.05469,1.28125 H 45.859375 A 1.8677917,1.8677917 0 0 0 45.322266,8.7851563 C 45.278895,5.1506337 42.323903,2.1523438 38.6875,2.1523438 c -1.559426,0 -2.934171,0.6331246 -4.070313,1.5488281 A 1.8677917,1.8677917 0 0 0 33.427734,2.5097656 H 30.511719 V 1.8671875 A 1.8677917,1.8677917 0 0 0 28.644531,0 H 25.058594 A 1.8677917,1.8677917 0 0 0 23.189453,1.8671875 V 2.625 C 21.828538,2.7780177 20.634743,3.390046 19.636719,4.2949219 18.78669,3.2361478 17.538187,2.5097409 16.091797,2.5097656 H 11.429688 A 1.8677917,1.8677917 0 0 0 11.375,2.5644531 C 10.386126,1.0560996 8.7517766,0 6.8398437,0 Z m 1.8671875,3.734375 h 3.1074218 c 0.9865095,0 1.7644403,0.7612362 1.7656251,1.71875 5.49e-4,0.3747704 -0.1345198,0.712369 -0.34375,1 C 8.1438434,6.2461331 8.184837,6.0006565 8.0136719,5.8144531 7.4275167,5.1767995 6.4857595,4.7880358 5.5507812,4.7949219 l 0.015625,0.019531 a 1.8677917,1.8677917 0 0 0 -0.060547,-0.029297 c -0.0027,5.92e-5 -0.00511,-0.00202 -0.00781,-0.00195 C 4.851002,4.7974871 4.2481414,5.0237392 3.7324219,5.3730469 Z M 51.517578,3.9550781 C 51.324306,4.0764238 51.107014,4.157096 50.943359,4.3183594 50.35555,4.8975791 50.097934,5.6740659 49.96875,6.4453125 c 0.01386,-0.3081153 0.03708,-0.8169323 0.0332,-0.7421875 0.04787,-0.9033068 0.702,-1.5001957 1.515625,-1.7480469 z m 4.699219,0.5722656 A 1.8677917,1.8677917 0 0 0 57.611328,5.921875 C 57.351409,6.017144 57.075793,6.004675 56.84375,6.2109375 56.459919,6.5521237 56.306377,7.108565 56.216797,7.6289062 Z M 26.777344,4.8378906 V 8.5195313 C 26.689426,8.3750695 26.731631,8.200874 26.617187,8.0664063 26.056889,7.4080723 25.138757,6.9655096 24.205078,6.9355469 v 0.00586 a 1.8677917,1.8677917 0 0 0 -0.0059,-0.00586 c -0.01924,-5.663e-4 -0.03551,0.00999 -0.05469,0.00977 v -0.00977 a 1.8677917,1.8677917 0 0 0 -0.01172,0.011719 c -1.256663,-0.00983 -2.34516,0.7249002 -2.910156,1.7773438 0.0042,-0.055013 -0.01917,-0.1025834 -0.01172,-0.1582031 0.219332,-1.6371798 1.761872,-2.6612294 3.355469,-2.2265626 A 1.8677917,1.8677917 0 0 0 26.777344,4.8378906 Z M 38.6875,5.8867187 c 1.537132,0 2.706538,1.207795 2.828125,2.7617188 C 40.947682,7.6575046 39.917137,6.9733343 38.71875,6.9589844 A 1.8677917,1.8677917 0 0 0 38.550781,6.9375 c -0.931165,0.03649 -1.844684,0.4810714 -2.40039,1.140625 -0.231574,0.2748483 -0.195885,0.6142004 -0.320313,0.9238281 -0.0028,-0.054851 -0.05664,-0.084901 -0.05664,-0.140625 0,-1.6771265 1.294938,-2.9746093 2.914062,-2.9746094 z m 38.214844,0 c 1.341095,0.00895 2.380853,0.8584104 2.769531,2.0039063 H 78.861328 C 78.089527,7.2432246 77.165857,6.8260014 76.265625,6.9804687 75.223029,7.1593639 74.395924,8.0549802 73.949219,9.1464844 73.734832,7.4573553 74.949195,5.873872 76.902344,5.8867187 Z m -60.84375,0.359375 h 0.0332 c 0.509244,-8.7e-6 0.882821,0.3716133 0.882812,0.8808594 V 8.7636719 C 16.804182,8.447523 16.62665,8.1421751 16.369141,7.9003906 c 0.02648,-0.1421923 0.15625,-0.2736092 0.15625,-0.4140625 0,-0.4205614 -0.197276,-0.8440376 -0.466797,-1.2402344 z m 15.412109,0 h 0.08984 v 5.3496093 h -0.08984 z m 37.191406,0 h 0.03516 c 0.509233,-8.7e-6 0.880869,0.3716224 0.880859,0.8808594 v 1.6367188 c -0.169785,-0.3150447 -0.34917,-0.6181287 -0.605469,-0.859375 0.02699,-0.1435218 0.158203,-0.2761974 0.158203,-0.4179688 0,-0.4205999 -0.199176,-0.8440104 -0.46875,-1.2402344 z M 60.054687,6.375 c 0.314133,0.1309724 0.556646,0.3739503 0.556641,0.7519531 V 7.6308594 C 60.53239,7.1700258 60.370653,6.7129406 60.054687,6.375 Z m 7.394532,0.2441406 c -4e-5,-4.5e-5 0.0096,0.013079 0.01953,0.025391 -1.18e-4,-1.398e-4 0.03914,0.047498 0.05273,0.064453 -0.0057,-0.0072 -0.03141,-0.033307 -0.05078,-0.054687 -7.31e-4,-8.037e-4 -0.0012,-0.00113 -0.002,-0.00195 -0.0048,-0.00524 -0.0065,-0.00797 -0.01172,-0.013672 a 1.8677917,1.8677917 0 0 0 -0.0078,-0.019531 z m 0.05664,0.3359375 0.109375,0.2558594 c -0.02758,-0.00782 -0.05225,-0.020234 -0.08008,-0.027344 a 1.8677917,1.8677917 0 0 0 -0.0293,-0.2285156 z M 5.5761719,7.6542969 c 0.2316159,0.00481 0.4668808,0.2888504 0.4199218,0.515625 -0.00456,0.021038 -0.010264,0.04045 -0.017578,0.060547 v 0.00195 c -0.058445,0.1603346 -0.2240929,0.2731084 -0.3945312,0.2792969 2.505e-4,-9.25e-5 -0.011371,-0.00562 -0.011719,-0.00586 L 5.1816406,8.0097656 c 0.00907,-0.050028 0.00378,-0.093552 0.076172,-0.1757812 C 5.3606048,7.7172273 5.5832124,7.6566935 5.5761719,7.6542969 Z M 86.869141,8.0742188 a 1.8677917,1.8677917 0 0 0 -0.06055,0.7128906 l 0.02734,0.0625 C 86.728845,8.7576848 86.63947,8.672574 86.517578,8.6015625 Z m -22.222657,0.921875 h 0.0332 a 1.8677917,1.8677917 0 0 0 0.09766,0.2246093 c -0.0043,-0.00458 -0.0826,-0.088409 -0.146485,-0.1582031 -4.34e-4,-4.775e-4 4.32e-4,-0.00148 0,-0.00195 L 64.625,9.0429688 Z M 49.751953,9.0996094 c -0.0074,0.1669478 -0.02647,0.5899665 -0.02344,0.53125 -0.04505,0.8362196 -0.624524,1.3869816 -1.345704,1.6796876 0.119706,-0.08276 0.259414,-0.114286 0.369141,-0.216797 0.574549,-0.536761 0.852764,-1.2590744 1,-1.9941406 z M 14.179688,9.7949219 c 0.05693,0 0.138495,0.011148 0.253906,0.1132812 0.0078,0.00687 0.0044,0.01361 0.01172,0.021484 l -0.265625,0.7382819 a 1.8677917,1.8677917 0 0 0 0.171875,-0.121094 c -0.0451,0.02937 -0.04344,0.105907 -0.0957,0.115234 l -0.0059,0.002 c -0.02292,0.004 -0.04697,0.0058 -0.07031,0.0059 -0.183008,-1.7e-5 -0.361506,-0.133293 -0.414063,-0.308594 -0.01276,-0.04251 -0.01966,-0.08645 -0.01953,-0.130859 v -0.0059 c -5.4e-5,0.0095 0.06428,-0.214274 0.179687,-0.3164063 0.115409,-0.1021323 0.196978,-0.1132812 0.253907,-0.1132812 z m 9.923828,0.00781 c 0.02742,1.15e-5 0.02774,0.048212 0.05469,0.054687 l -0.01367,0.7578121 c -0.02709,0.0058 -0.02734,0.05549 -0.05469,0.05469 z m 42.679687,0 c 0.05636,0 0.137834,0.010106 0.253906,0.1132812 0.116072,0.1031749 0.179688,0.3316249 0.179688,0.3203129 -6.4e-5,0.183666 -0.155847,0.344735 -0.332031,0.396485 a 1.8677917,1.8677917 0 0 0 1.064453,-0.373047 l -1.064453,0.375 c -0.01228,0.0036 -0.01085,0.02509 -0.02344,0.02734 l -0.0078,0.002 c -0.02301,0.004 -0.04692,0.0058 -0.07031,0.0059 -0.182992,-1.7e-5 -0.361503,-0.133279 -0.414062,-0.308594 -0.01195,-0.04134 -0.01957,-0.08468 -0.01953,-0.126953 5.77e-4,0.0091 0.06415,-0.215663 0.179688,-0.3183599 0.116072,-0.1031753 0.197541,-0.1132812 0.253906,-0.1132812 z m -28.099609,0.00391 c 8.98e-4,0.00201 0.211342,0.059544 0.3125,0.1699219 0.102887,0.1122652 0.115983,0.1941832 0.117187,0.2519532 0.0012,0.05777 -0.0093,0.139402 -0.107422,0.255859 -0.09385,0.111389 -0.28503,0.172248 -0.296875,0.177734 l -0.01563,-0.002 c -0.216024,-0.0015 -0.437524,-0.207857 -0.4375,-0.423828 -5.1e-5,-0.214966 0.212834,-0.4257514 0.427735,-0.4296871 z M 23.666016,10.230469 a 1.8677917,1.8677917 0 0 0 0.417968,0.439453 c 0.0059,1.88e-4 -0.212188,-0.06803 -0.310547,-0.183594 -0.09836,-0.115568 -0.108283,-0.197805 -0.107421,-0.255859 z M 5.5683594,11.384766 c 0.00148,2e-6 0.00242,0.002 0.00391,0.002 H 5.5625 c 0.00206,10e-6 0.00379,-0.002 0.00586,-0.002 z m 33.1269526,2.152343 c 0.0021,-9e-6 0.0038,0.002 0.0059,0.002 h -0.01172 c 0.0021,-10e-7 0.0037,-0.0019 0.0059,-0.002 z"
     id="path7783" />
  <g
     id="g44"
     transform="translate(-15.037805,82.252234)">
    <path
       style="baseline-shift:baseline;display:inline;overflow:visible;mix-blend-mode:normal;vector-effect:none;fill:#3d3d3d;fill-opacity:0.849404;fill-rule:evenodd;stroke-linecap:round;stroke-linejoin:round;paint-order:markers stroke fill;enable-background:accumulate;stop-color:#000000"
       d="m 16.657095,-80.228325 h 4.974938 c 1.986589,0 3.630522,1.595691 3.63298,3.58228 0.0021,1.433412 -0.849329,2.73047 -2.165315,3.298674 l 2.284899,4.715639 h -3.706363 l -1.013774,-2.234153 c -0.07625,-0.168212 -0.243843,-0.276277 -0.428531,-0.276323 -0.259599,2.29e-4 -0.469988,0.210619 -0.470219,0.470218 v 2.040258 h -3.108444 z m 23.193187,0 h 3.586775 v 11.596593 h -4.782895 c -2.748792,-1.94e-4 -4.867795,-2.422192 -4.502804,-5.146639 0.364991,-2.724445 3.046776,-4.503287 5.698691,-3.779955 z m 27.019121,0 h 1.91252 v 3.347611 h -0.59704 c -0.92458,0 -1.55469,0.597364 -1.67427,1.673342 0,0 -0.12145,2.770009 -0.12503,2.839356 -0.11101,2.094607 -1.84168,3.736116 -3.93923,3.736284 h -1.79385 v -3.347612 h 0.47834 c 0.92453,0 1.5538,-0.477826 1.67334,-1.673342 0,0 0.12235,-2.770009 0.12593,-2.839356 0.11101,-2.094606 1.84168,-3.736115 3.93922,-3.736283 z m 2.27131,0 h 3.58679 v 2.510476 h 1.79385 c 1.5186,-2.5e-5 2.74967,1.231048 2.74965,2.749645 v 6.33638 h -3.58679 v -5.499106 c 0,-0.637812 -0.95671,-0.637812 -0.95671,0 v 5.499106 h -3.58679 z m 27.856407,0 h 2.74965 v 5.709698 l 1.58274,-2.361901 h 3.80967 l -1.8183,2.844783 2.28397,5.404013 h -3.82595 l -0.72659,-1.855454 -0.47746,-1.219452 c -0.0643,-0.164558 -0.22288,-0.272836 -0.39953,-0.272701 -0.23667,10e-6 -0.42852,0.191865 -0.42853,0.428531 v 2.919095 h -2.74964 z m -43.516907,2.151724 c 2.64096,0 4.78198,2.16847 4.78198,4.842273 0,2.673805 -2.14083,4.84181 -4.78198,4.84181 -2.64096,0 -4.78289,-2.167541 -4.78289,-4.84181 0,-2.674266 2.14174,-4.842273 4.78289,-4.842273 z m 38.226077,0 c 3.02067,0.02015 5.28651,2.7696 4.72909,5.738458 h -3.46539 c -0.53752,-1.520866 -2.787937,-1.134725 -2.787727,0.478337 -4.5e-4,1.541385 2.097997,1.99944 2.739677,0.597967 h 3.1782 c -1.56579,3.517579 -6.410927,3.891003 -8.497397,0.655154 -2.08647,-3.235849 0.25311,-7.495102 4.103367,-7.469777 z m -65.48363,0.358771 h 4.662294 c 1.518597,-2.6e-5 2.74967,1.231048 2.749645,2.749645 v 6.336379 h -5.558943 c -1.540676,-0.01534 -2.781566,-1.268639 -2.781566,-2.80939 0,-1.540753 1.24089,-2.794057 2.781566,-2.809392 0.0522,0 0.104421,0.0018 0.155831,0.0045 1.5e-5,-3.09e-4 1.5e-5,-6.03e-4 0,-9.34e-4 -2.88e-4,-3.31e-4 -6.04e-4,-6.49e-4 -9.34e-4,-9.33e-4 1.6e-5,-3.09e-4 1.6e-5,-6.04e-4 0,-9.34e-4 1.6e-5,-3.09e-4 1.6e-5,-6.03e-4 0,-9.34e-4 1.6e-5,-3.09e-4 1.6e-5,-6.03e-4 0,-9.34e-4 h 0.861581 c 0.478367,0 0.478367,-0.71755 0,-0.71755 h -2.86923 z m 18.17232,0 h 3.825073 v 9.086164 H 44.39498 Z m 34.431213,0 h 4.66322 c 1.51859,-2.6e-5 2.74967,1.231048 2.74964,2.749645 v 6.336379 h -5.55894 c -1.54067,-0.01534 -2.78156,-1.268639 -2.78156,-2.80939 0,-1.540753 1.24089,-2.794057 2.78156,-2.809392 0.0522,0 0.10442,0.0018 0.15583,0.0045 -2.8e-4,-3.31e-4 -4.6e-4,-6.49e-4 -7.7e-4,-9.34e-4 0,-3.09e-4 0,-6.03e-4 0,-9.33e-4 -2.9e-4,-3.32e-4 -4.7e-4,-6.5e-4 -7.8e-4,-9.34e-4 10e-6,-3.09e-4 10e-6,-6.03e-4 0,-9.34e-4 10e-6,-3.09e-4 10e-6,-6.03e-4 0,-9.34e-4 h 0.86158 c 0.47837,0 0.47837,-0.71755 0,-0.71755 h -2.86928 z m -58.49321,2.271309 c -0.59155,0.01271 -1.114641,0.387223 -1.31728,0.943127 -0.02364,0.06495 -0.04242,0.131577 -0.05617,0.199318 -0.18446,0.890795 0.495489,1.726384 1.405183,1.726825 1.943029,0.0093 1.911578,-2.920208 -0.03081,-2.869228 h -9.34e-4 z m 8.63946,2.152606 c -0.08443,-7.6e-5 -0.168699,0.0072 -0.251863,0.02174 -0.684405,0.12215 -1.182896,0.7172 -1.183224,1.41242 0.01081,1.901973 2.858414,1.901973 2.869229,0 4.08e-4,-0.139302 -0.01974,-0.2779 -0.05979,-0.411318 -0.181997,-0.607037 -0.740648,-1.022806 -1.374381,-1.022866 z m 24.46602,0 c -0.005,2.74e-4 -0.0114,6.03e-4 -0.0172,9.33e-4 -1.88399,0.06674 -1.82534,2.880179 0.0598,2.868349 0.7923,-3.33e-4 1.43436,-0.642805 1.43417,-1.435101 9e-5,-0.808892 -0.66821,-1.457923 -1.47675,-1.434175 z m 28.13705,0 c -0.0844,-7.6e-5 -0.1687,0.0072 -0.25186,0.02174 -0.68404,0.122547 -1.18206,0.717493 -1.1823,1.41242 0,1.912849 2.86927,1.912849 2.86927,0 1.2e-4,-0.139346 -0.0203,-0.277946 -0.0607,-0.411318 -0.18199,-0.607037 -0.74064,-1.022806 -1.37438,-1.022866 z m -42.638349,9.33e-4 c -0.808199,-0.02379 -1.476375,0.624697 -1.476757,1.433248 -1.8e-4,0.792296 0.641877,1.434768 1.434176,1.435101 1.880029,-0.0045 1.921653,-2.808047 0.04256,-2.868349 z"
       id="path7784-1-2-9" />
    <path
       style="baseline-shift:baseline;display:inline;overflow:visible;mix-blend-mode:normal;vector-effect:none;fill:url(#linearGradient25-9);fill-rule:evenodd;stroke-linecap:round;stroke-linejoin:round;paint-order:markers stroke fill;enable-background:accumulate;stop-color:#000000"
       d="m 17.261279,-80.398442 h 4.974938 c 1.986589,0 3.630522,1.595691 3.63298,3.58228 0.0021,1.433412 -0.849329,2.73047 -2.165315,3.298674 l 2.284899,4.715638 h -3.706363 l -1.013774,-2.234153 c -0.07625,-0.168212 -0.243843,-0.276277 -0.428531,-0.276323 -0.259599,2.29e-4 -0.469988,0.210619 -0.470219,0.470218 v 2.040258 H 17.26145 Z m 23.193187,0 h 3.586775 v 11.596592 h -4.782895 c -2.748792,-1.94e-4 -4.867795,-2.422192 -4.502804,-5.146638 0.364991,-2.724445 3.046776,-4.503287 5.698691,-3.779955 z m 27.019121,0 h 1.91252 v 3.347611 h -0.59704 c -0.92458,0 -1.55469,0.597364 -1.67427,1.673342 0,0 -0.12145,2.770009 -0.12503,2.839356 -0.11101,2.094606 -1.84168,3.736115 -3.93923,3.736283 h -1.79385 v -3.347611 h 0.47834 c 0.92453,0 1.5538,-0.477826 1.67334,-1.673342 0,0 0.12235,-2.770009 0.12593,-2.839356 0.11101,-2.094606 1.84168,-3.736115 3.93922,-3.736283 z m 2.27131,0 h 3.58679 v 2.510476 h 1.79385 c 1.5186,-2.5e-5 2.74967,1.231048 2.74965,2.749645 v 6.336379 h -3.58679 v -5.499105 c 0,-0.637812 -0.95671,-0.637812 -0.95671,0 v 5.499105 h -3.58679 z m 27.856405,0 h 2.749648 v 5.709698 l 1.58274,-2.361901 h 3.80967 l -1.8183,2.844783 2.28397,5.404012 h -3.82595 l -0.72659,-1.855454 -0.47746,-1.219452 c -0.0643,-0.164557 -0.22288,-0.272835 -0.39953,-0.2727 -0.23667,1e-5 -0.42852,0.191864 -0.42853,0.42853 v 2.919095 h -2.749638 z m -43.516905,2.151724 c 2.64096,0 4.78198,2.16847 4.78198,4.842273 0,2.673804 -2.14083,4.841809 -4.78198,4.841809 -2.64096,0 -4.78289,-2.167541 -4.78289,-4.841809 0,-2.674266 2.14174,-4.842273 4.78289,-4.842273 z m 38.226075,0 c 3.02067,0.02015 5.28651,2.7696 4.72909,5.738458 h -3.46539 c -0.53752,-1.520866 -2.787931,-1.134725 -2.787721,0.478337 -4.5e-4,1.541384 2.097991,1.999439 2.739671,0.597966 h 3.1782 c -1.56579,3.517579 -6.410921,3.891003 -8.497395,0.655154 -2.08647,-3.235848 0.25311,-7.495101 4.103365,-7.469776 z m -65.483628,0.358771 h 4.662294 c 1.518597,-2.6e-5 2.74967,1.231048 2.749645,2.749645 v 6.336378 H 28.67984 c -1.540676,-0.01534 -2.781566,-1.268639 -2.781566,-2.80939 0,-1.540752 1.24089,-2.794056 2.781566,-2.809391 0.0522,0 0.104421,0.0018 0.155831,0.0045 1.5e-5,-3.09e-4 1.5e-5,-6.03e-4 0,-9.34e-4 -2.88e-4,-3.31e-4 -6.04e-4,-6.49e-4 -9.34e-4,-9.33e-4 1.6e-5,-3.09e-4 1.6e-5,-6.04e-4 0,-9.34e-4 1.6e-5,-3.09e-4 1.6e-5,-6.03e-4 0,-9.34e-4 1.6e-5,-3.09e-4 1.6e-5,-6.03e-4 0,-9.34e-4 h 0.861581 c 0.478367,0 0.478367,-0.71755 0,-0.71755 h -2.86923 z m 18.17232,0 h 3.825073 v 9.086163 h -3.825073 z m 34.431213,0 h 4.66322 c 1.51859,-2.6e-5 2.74967,1.231048 2.74964,2.749645 v 6.336378 h -5.55894 c -1.54067,-0.01534 -2.78156,-1.268639 -2.78156,-2.80939 0,-1.540752 1.24089,-2.794056 2.78156,-2.809391 0.0522,0 0.10442,0.0018 0.15583,0.0045 -2.8e-4,-3.31e-4 -4.6e-4,-6.49e-4 -7.7e-4,-9.34e-4 0,-3.09e-4 0,-6.03e-4 0,-9.33e-4 -2.9e-4,-3.32e-4 -4.7e-4,-6.5e-4 -7.8e-4,-9.34e-4 1e-5,-3.09e-4 1e-5,-6.03e-4 0,-9.34e-4 1e-5,-3.09e-4 1e-5,-6.03e-4 0,-9.34e-4 h 0.86158 c 0.47837,0 0.47837,-0.71755 0,-0.71755 h -2.86928 z m -58.49321,2.271309 c -0.59155,0.01271 -1.114641,0.387223 -1.31728,0.943127 -0.02364,0.06495 -0.04242,0.131577 -0.05617,0.199318 -0.18446,0.890795 0.495489,1.726384 1.405183,1.726825 1.943029,0.0093 1.911578,-2.920208 -0.03081,-2.869228 h -9.34e-4 z m 8.63946,2.152606 c -0.08443,-7.6e-5 -0.168699,0.0072 -0.251863,0.02174 -0.684405,0.12215 -1.182896,0.7172 -1.183224,1.41242 0.01081,1.901972 2.858414,1.901972 2.869229,0 4.08e-4,-0.139302 -0.01974,-0.2779 -0.05979,-0.411318 -0.181997,-0.607037 -0.740648,-1.022806 -1.374381,-1.022866 z m 24.46602,0 c -0.005,2.74e-4 -0.0114,6.03e-4 -0.0172,9.33e-4 -1.88399,0.06674 -1.82534,2.880178 0.0598,2.868348 0.7923,-3.33e-4 1.43436,-0.642805 1.43417,-1.4351 9e-5,-0.808892 -0.66821,-1.457923 -1.47675,-1.434175 z m 28.13705,0 c -0.0844,-7.6e-5 -0.1687,0.0072 -0.25186,0.02174 -0.68404,0.122547 -1.18206,0.717493 -1.1823,1.41242 0,1.912848 2.86927,1.912848 2.86927,0 1.2e-4,-0.139346 -0.0203,-0.277946 -0.0607,-0.411318 -0.18199,-0.607037 -0.74064,-1.022806 -1.37438,-1.022866 z m -42.638349,9.33e-4 c -0.808199,-0.02379 -1.476375,0.624697 -1.476757,1.433248 -1.8e-4,0.792295 0.641877,1.434767 1.434176,1.4351 1.880029,-0.0045 1.921653,-2.808046 0.04256,-2.868348 z"
       id="path7784-1-2" />
  </g>
  <g
     id="g1"
     transform="matrix(0.67556062,0,0,0.67556062,-2.0708546,-49.531079)">
    <g
       id="path878"
       style="opacity:1">
      <path
         style="baseline-shift:baseline;display:inline;overflow:visible;vector-effect:none;fill:#ffffff;stroke-linecap:round;stroke-linejoin:round;paint-order:markers stroke fill;enable-background:accumulate;stop-color:#000000;stop-opacity:1"
         d="m 171.50977,128.0332 a 2.4002649,2.4002649 0 0 0 -2.39844,2.40039 v 8.11133 a 2.4002649,2.4002649 0 0 0 2.39844,2.40039 h 18.92578 a 2.4002649,2.4002649 0 0 0 2.40039,-2.40039 v -8.11133 a 2.4002649,2.4002649 0 0 0 -2.40039,-2.40039 z m 2.40039,4.80078 h 14.12695 v 3.31055 h -14.12695 z"
         id="path7785" />
      <path
         style="baseline-shift:baseline;display:inline;overflow:visible;vector-effect:none;fill:#3f43ad;stroke-linecap:round;stroke-linejoin:round;paint-order:markers stroke fill;enable-background:accumulate;stop-color:#000000;stop-opacity:1"
         d="m 171.51059,130.43331 h 18.92592 v 8.11111 h -18.92592 z"
         id="path7786" />
    </g>
    <g
       id="path876"
       style="opacity:1">
      <path
         style="baseline-shift:baseline;display:inline;overflow:visible;vector-effect:none;fill:#ffffff;stroke-linecap:round;stroke-linejoin:round;paint-order:markers stroke fill;enable-background:accumulate;stop-color:#000000;stop-opacity:1"
         d="m 147.94922,128.0332 a 2.4002649,2.4002649 0 0 0 -2.40039,2.40039 v 8.11133 a 2.4002649,2.4002649 0 0 0 2.40039,2.40039 H 166.875 a 2.4002649,2.4002649 0 0 0 2.40039,-2.40039 v -8.11133 A 2.4002649,2.4002649 0 0 0 166.875,128.0332 Z m 2.40039,4.80078 h 14.12695 v 3.31055 h -14.12695 z"
         id="path7787" />
      <path
         style="baseline-shift:baseline;display:inline;overflow:visible;vector-effect:none;fill:#00ab84;stroke-linecap:round;stroke-linejoin:round;paint-order:markers stroke fill;enable-background:accumulate;stop-color:#000000;stop-opacity:1"
         d="m 147.94974,130.43331 h 18.92592 v 8.11111 h -18.92592 z"
         id="path7788" />
    </g>
    <g
       id="path874"
       style="opacity:1">
      <path
         style="baseline-shift:baseline;display:inline;overflow:visible;vector-effect:none;fill:#ffffff;stroke-linecap:round;stroke-linejoin:round;paint-order:markers stroke fill;enable-background:accumulate;stop-color:#000000;stop-opacity:1"
         d="m 124.38867,128.0332 a 2.4002649,2.4002649 0 0 0 -2.40039,2.40039 v 8.11133 a 2.4002649,2.4002649 0 0 0 2.40039,2.40039 h 18.92578 a 2.4002649,2.4002649 0 0 0 2.40039,-2.40039 v -8.11133 a 2.4002649,2.4002649 0 0 0 -2.40039,-2.40039 z m 2.40039,4.80078 h 14.125 v 3.31055 h -14.125 z"
         id="path7789" />
      <path
         style="baseline-shift:baseline;display:inline;overflow:visible;vector-effect:none;fill:#ee3340;stroke-linecap:round;stroke-linejoin:round;paint-order:markers stroke fill;enable-background:accumulate;stop-color:#000000;stop-opacity:1"
         d="m 124.38889,130.43331 h 18.92593 v 8.11111 h -18.92593 z"
         id="path7790" />
    </g>
  </g>
</svg>
