<?xml version="1.0" encoding="UTF-8" standalone="no"?>
<svg
   width="749.18945"
   height="184.04802"
   viewBox="0 0 198.2233 48.695041"
   version="1.1"
   id="svg41"
   sodipodi:docname="cplus4.svg"
   inkscape:version="1.4.3 (0d15f75042, 2025-12-25)"
   xmlns:inkscape="http://www.inkscape.org/namespaces/inkscape"
   xmlns:sodipodi="http://sodipodi.sourceforge.net/DTD/sodipodi-0.dtd"
   xmlns="http://www.w3.org/2000/svg"
   xmlns:svg="http://www.w3.org/2000/svg">
  <defs
     id="defs41" />
  <sodipodi:namedview
     id="namedview41"
     pagecolor="#ffffff"
     bordercolor="#000000"
     borderopacity="0.25"
     inkscape:showpageshadow="2"
     inkscape:pageopacity="0.0"
     inkscape:pagecheckerboard="0"
     inkscape:deskcolor="#d1d1d1"
     inkscape:zoom="0.53767196"
     inkscape:cx="605.38771"
     inkscape:cy="59.515843"
     inkscape:window-width="1920"
     inkscape:window-height="1080"
     inkscape:window-x="0"
     inkscape:window-y="0"
     inkscape:window-maximized="0"
     inkscape:current-layer="svg41" />
  <g
     id="path1"
     style="opacity:1;paint-order:markers stroke fill">
    <path
       style="baseline-shift:baseline;display:inline;overflow:visible;vector-effect:none;fill:#ffffff;stroke-linecap:round;stroke-linejoin:round;paint-order:markers stroke fill;enable-background:accumulate;stop-color:#000000;stop-opacity:1"
       d="M 3.96875,0 A 3.9691519,3.9691519 0 0 0 0,3.96875 v 40.757812 a 3.9691519,3.9691519 0 0 0 3.96875,3.96875 h 190.28516 a 3.9691519,3.9691519 0 0 0 3.96875,-3.96875 V 3.96875 A 3.9691519,3.9691519 0 0 0 194.25391,0 Z M 7.9375,7.9375 H 190.28516 V 40.757812 H 7.9375 Z"
       id="path42" />
    <path
       style="baseline-shift:baseline;display:inline;overflow:visible;vector-effect:none;fill:#5b5652;stroke-linecap:round;stroke-linejoin:round;paint-order:markers stroke fill;enable-background:accumulate;stop-color:#000000;stop-opacity:1"
       d="M 3.968755,3.9683117 H 194.25454 V 44.726901 H 3.968755 Z"
       id="path43" />
  </g>
  <path
     d="m 117.0849,12.533731 h -2.26029 v 6.485102 h 2.35845 v -3.389168 c 0,-0.884732 0.54116,-1.327728 1.52406,-1.327728 0.98164,0 1.2283,0.29575 1.27738,1.130142 h 2.21247 c 0,-2.211202 -0.29575,-3.045594 -2.65546,-3.045594 -1.42463,0 -1.91545,0.294491 -2.45661,1.374293 z m 10.86094,5.208973 c -2.26028,0 -2.60512,-0.196328 -2.60512,-1.327728 h 6.19313 c -0.0982,-3.143758 -0.0982,-3.881245 -4.27516,-3.881245 -3.54019,0 -4.32675,0.638064 -4.32675,3.439508 0,2.605115 1.03323,3.24318 3.88376,3.29352 3.1941,0 4.71941,-0.148504 4.71941,-2.260284 h -2.31188 c -0.0982,0.490819 -0.29449,0.736229 -1.27865,0.736229 z m -2.65546,-2.702021 c 0.0994,-0.688405 0.29575,-0.935073 1.86889,-0.935073 1.72038,0 1.96579,0.09942 2.06396,0.935073 z m -87.872947,0.245409 h 2.358448 c -0.196328,-2.21246 -0.835651,-2.752361 -4.127913,-2.752361 -3.733999,0 -4.56965,0.588982 -4.56965,3.341344 0,2.752361 0.786569,3.390426 4.275159,3.390426 3.686176,0 4.423663,-0.490819 4.423663,-2.801444 h -2.359707 c 0,0.639323 -0.245409,0.935073 -2.063956,0.935073 -1.573138,0 -1.916711,-0.392655 -1.916711,-1.671301 0,-1.228306 0.343573,-1.228306 2.212461,-1.228306 1.375551,0 1.620961,0.147246 1.768206,0.786569 z m 54.798043,0.391397 c 0,-2.652939 -0.785311,-3.19284 -4.570909,-3.19284 -4.077572,0 -4.568391,0.687146 -4.568391,3.439508 0,2.752361 0.685888,3.341344 4.568391,3.341344 4.129172,0 4.570909,-0.687147 4.570909,-3.586754 z m -6.733029,0.149762 c 0,-1.327728 0.29575,-1.474973 2.016133,-1.474973 1.916711,0 2.260284,0.04908 2.260284,1.474973 0,1.32647 -0.246668,1.573138 -2.063956,1.573138 -1.967051,0 -2.212461,-0.197586 -2.212461,-1.573138 z m 27.913763,-0.149762 c 0,-2.652939 -0.73623,-3.19284 -4.51806,-3.19284 -4.031,0 -4.52308,0.638064 -4.52308,3.390426 0,2.801443 0.6884,3.390426 4.52183,3.390426 4.12791,0 4.52056,-0.687147 4.52056,-3.586754 z m -6.68269,0.149762 c 0,-1.327728 0.29575,-1.474973 2.01487,-1.474973 1.91797,0 2.26154,0.04908 2.26154,1.474973 0,1.32647 -0.24541,1.573138 -2.06395,1.573138 -1.9658,0 -2.2112,-0.197586 -2.2112,-1.573138 z M 50.244167,15.677489 c 0,-2.652939 -0.736228,-3.19284 -4.520568,-3.19284 -4.078831,0 -4.570908,0.638064 -4.570908,3.390426 0,2.801443 0.688405,3.390426 4.570908,3.390426 4.127913,0 4.520568,-0.687147 4.520568,-3.586754 z m -6.634865,0.149762 c 0,-1.327728 0.294492,-1.474973 1.967052,-1.474973 1.915452,0 2.260284,0.04908 2.260284,1.474973 0,1.32647 -0.246668,1.573138 -2.063957,1.573138 -1.917969,0 -2.164637,-0.197586 -2.164637,-1.573138 z M 100.42348,9.7801109 V 13.56445 c -0.541161,-0.736228 -1.03198,-1.128883 -2.997773,-1.128883 -3.145016,0 -3.735258,0.835651 -3.735258,3.390426 0,2.605116 0.835651,3.341344 3.882504,3.341344 1.916711,0 2.506957,-0.490819 2.948687,-1.32647 v 1.177966 h 2.35971 V 9.7801109 Z m -1.720385,4.5230851 c 1.326465,0 1.769465,0.196327 1.769465,1.227047 0,1.573138 -0.0994,1.721642 -1.965793,1.721642 -1.867629,0 -2.358448,-0.05034 -2.358448,-1.375552 0,-1.524055 0.588983,-1.573137 2.554776,-1.573137 z m -44.72367,-1.769465 h -2.211202 v 6.485102 h 2.359706 v -3.341344 c 0,-0.981638 0.490819,-1.325211 1.818547,-1.325211 1.228306,0 1.573138,0.440478 1.573138,1.670042 v 2.996513 h 2.407529 v -3.43825 c 0,-0.933814 0.736229,-1.228305 1.86637,-1.228305 1.082319,0 1.573138,0.294491 1.573138,1.228305 v 3.43825 h 2.358448 V 15.18667 c 0,-1.915452 -1.179224,-2.801443 -3.341344,-2.801443 -1.867629,0 -2.556034,0.688405 -2.801444,1.425891 -0.492077,-0.83565 -1.179223,-1.425891 -3.048111,-1.425891 -1.768206,0 -2.260284,0.590241 -2.554775,1.671301 z m 15.874845,0 h -2.211202 v 6.485102 h 2.358448 v -3.341344 c 0,-0.981638 0.588982,-1.325211 1.768206,-1.325211 1.229565,0 1.573138,0.392655 1.573138,1.670042 v 2.996513 h 2.408788 v -3.43825 c 0,-0.933814 0.688405,-1.228305 1.818547,-1.228305 1.082318,0 1.620961,0.343573 1.620961,1.228305 v 3.43825 h 2.359706 V 15.18667 c 0,-1.915452 -1.179224,-2.801443 -3.341344,-2.801443 -1.867629,0 -2.506952,0.639323 -2.801443,1.425891 -0.490819,-0.83565 -1.180483,-1.425891 -3.048112,-1.425891 -1.719124,0 -2.160861,0.590241 -2.504434,1.671301 v -1.522797 z m -44.767718,3.562842 h -3.795666 v 3.113553 h 6.823641 z m 3.026717,-3.75036 h -6.822383 v 3.112295 h 3.752877 z M 21.078198,12.132266 V 8.1239118 C 20.267718,7.909965 19.712715,7.8243864 18.903493,7.8243864 c -4.222301,0 -7.932388,3.5401886 -7.932388,7.9323886 0,4.520568 3.752876,7.889599 7.973919,7.889599 0.767691,0 1.194325,-0.08558 2.133174,-0.342315 v -4.093933 c -0.938848,0.469424 -1.407014,0.596534 -2.174705,0.596534 -2.345863,0 -4.137981,-1.960759 -4.137981,-4.135464 0,-2.260284 1.749329,-4.179512 4.093933,-4.179512 0.811739,0 1.493851,0.213947 2.218753,0.640582 z"
     style="fill:#ffffff;stroke-width:0.264583"
     id="path2" />
  <g
     style="stroke-width:0.502528"
     id="g39"
     transform="matrix(1.4585827,0,0,1,-180.66969,20.901486)">
    <path
       style="color:#000000;clip-rule:nonzero;display:inline;overflow:visible;visibility:visible;opacity:1;isolation:auto;mix-blend-mode:normal;color-interpolation:sRGB;color-interpolation-filters:linearRGB;solid-color:#000000;solid-opacity:1;fill:#2fabc5;fill-opacity:1;fill-rule:nonzero;stroke:none;stroke-width:0.398881;stroke-linecap:butt;stroke-linejoin:miter;stroke-miterlimit:4;stroke-dasharray:none;stroke-dashoffset:0;stroke-opacity:1;color-rendering:auto;image-rendering:auto;shape-rendering:auto;text-rendering:auto;enable-background:accumulate"
       d="m -728.972,161.39 h 1.276 v 5.06 h -1.276 z"
       transform="matrix(1.94431,0,0,2.03664,1548.801,-322.08)"
       id="path3" />
    <path
       style="color:#000000;clip-rule:nonzero;display:inline;overflow:visible;visibility:visible;opacity:1;isolation:auto;mix-blend-mode:normal;color-interpolation:sRGB;color-interpolation-filters:linearRGB;solid-color:#000000;solid-opacity:1;fill:#2ba7c1;fill-opacity:1;fill-rule:nonzero;stroke:none;stroke-width:0.398881;stroke-linecap:butt;stroke-linejoin:miter;stroke-miterlimit:4;stroke-dasharray:none;stroke-dashoffset:0;stroke-opacity:1;color-rendering:auto;image-rendering:auto;shape-rendering:auto;text-rendering:auto;enable-background:accumulate"
       d="m -727.275,161.39 h 1.276 v 5.06 h -1.276 z"
       transform="matrix(1.94431,0,0,2.03664,1548.801,-322.08)"
       id="path4" />
    <path
       style="color:#000000;clip-rule:nonzero;display:inline;overflow:visible;visibility:visible;opacity:1;isolation:auto;mix-blend-mode:normal;color-interpolation:sRGB;color-interpolation-filters:linearRGB;solid-color:#000000;solid-opacity:1;fill:#2c9fb9;fill-opacity:1;fill-rule:nonzero;stroke:none;stroke-width:0.398881;stroke-linecap:butt;stroke-linejoin:miter;stroke-miterlimit:4;stroke-dasharray:none;stroke-dashoffset:0;stroke-opacity:1;color-rendering:auto;image-rendering:auto;shape-rendering:auto;text-rendering:auto;enable-background:accumulate"
       d="m -725.578,161.39 h 1.276 v 5.06 h -1.276 z"
       transform="matrix(1.94431,0,0,2.03664,1548.801,-322.08)"
       id="path5" />
    <path
       style="color:#000000;clip-rule:nonzero;display:inline;overflow:visible;visibility:visible;opacity:1;isolation:auto;mix-blend-mode:normal;color-interpolation:sRGB;color-interpolation-filters:linearRGB;solid-color:#000000;solid-opacity:1;fill:#2da6c0;fill-opacity:1;fill-rule:nonzero;stroke:none;stroke-width:0.398881;stroke-linecap:butt;stroke-linejoin:miter;stroke-miterlimit:4;stroke-dasharray:none;stroke-dashoffset:0;stroke-opacity:1;color-rendering:auto;image-rendering:auto;shape-rendering:auto;text-rendering:auto;enable-background:accumulate"
       d="m -723.881,161.39 h 1.276 v 5.06 h -1.276 z"
       transform="matrix(1.94431,0,0,2.03664,1548.801,-322.08)"
       id="path6" />
    <path
       style="color:#000000;clip-rule:nonzero;display:inline;overflow:visible;visibility:visible;opacity:1;isolation:auto;mix-blend-mode:normal;color-interpolation:sRGB;color-interpolation-filters:linearRGB;solid-color:#000000;solid-opacity:1;fill:#28b2c3;fill-opacity:1;fill-rule:nonzero;stroke:none;stroke-width:0.398881;stroke-linecap:butt;stroke-linejoin:miter;stroke-miterlimit:4;stroke-dasharray:none;stroke-dashoffset:0;stroke-opacity:1;color-rendering:auto;image-rendering:auto;shape-rendering:auto;text-rendering:auto;enable-background:accumulate"
       d="m -722.184,161.39 h 1.276 v 5.06 h -1.276 z"
       transform="matrix(1.94431,0,0,2.03664,1548.801,-322.08)"
       id="path7" />
    <path
       style="color:#000000;clip-rule:nonzero;display:inline;overflow:visible;visibility:visible;opacity:1;isolation:auto;mix-blend-mode:normal;color-interpolation:sRGB;color-interpolation-filters:linearRGB;solid-color:#000000;solid-opacity:1;fill:#28a5a8;fill-opacity:1;fill-rule:nonzero;stroke:none;stroke-width:0.398881;stroke-linecap:butt;stroke-linejoin:miter;stroke-miterlimit:4;stroke-dasharray:none;stroke-dashoffset:0;stroke-opacity:1;color-rendering:auto;image-rendering:auto;shape-rendering:auto;text-rendering:auto;enable-background:accumulate"
       d="m -720.487,161.39 h 1.276 v 5.06 h -1.276 z"
       transform="matrix(1.94431,0,0,2.03664,1548.801,-322.08)"
       id="path8" />
    <path
       style="color:#000000;clip-rule:nonzero;display:inline;overflow:visible;visibility:visible;opacity:1;isolation:auto;mix-blend-mode:normal;color-interpolation:sRGB;color-interpolation-filters:linearRGB;solid-color:#000000;solid-opacity:1;fill:#269857;fill-opacity:1;fill-rule:nonzero;stroke:none;stroke-width:0.398881;stroke-linecap:butt;stroke-linejoin:miter;stroke-miterlimit:4;stroke-dasharray:none;stroke-dashoffset:0;stroke-opacity:1;color-rendering:auto;image-rendering:auto;shape-rendering:auto;text-rendering:auto;enable-background:accumulate"
       d="m -718.79,161.39 h 1.276 v 5.06 h -1.276 z"
       transform="matrix(1.94431,0,0,2.03664,1548.801,-322.08)"
       id="path9" />
    <path
       style="color:#000000;clip-rule:nonzero;display:inline;overflow:visible;visibility:visible;opacity:1;isolation:auto;mix-blend-mode:normal;color-interpolation:sRGB;color-interpolation-filters:linearRGB;solid-color:#000000;solid-opacity:1;fill:#319b58;fill-opacity:1;fill-rule:nonzero;stroke:none;stroke-width:0.398881;stroke-linecap:butt;stroke-linejoin:miter;stroke-miterlimit:4;stroke-dasharray:none;stroke-dashoffset:0;stroke-opacity:1;color-rendering:auto;image-rendering:auto;shape-rendering:auto;text-rendering:auto;enable-background:accumulate"
       d="m -717.094,161.39 h 1.276 v 5.06 h -1.276 z"
       transform="matrix(1.94431,0,0,2.03664,1548.801,-322.08)"
       id="path10" />
    <path
       style="color:#000000;clip-rule:nonzero;display:inline;overflow:visible;visibility:visible;opacity:1;isolation:auto;mix-blend-mode:normal;color-interpolation:sRGB;color-interpolation-filters:linearRGB;solid-color:#000000;solid-opacity:1;fill:#309a57;fill-opacity:1;fill-rule:nonzero;stroke:none;stroke-width:0.398881;stroke-linecap:butt;stroke-linejoin:miter;stroke-miterlimit:4;stroke-dasharray:none;stroke-dashoffset:0;stroke-opacity:1;color-rendering:auto;image-rendering:auto;shape-rendering:auto;text-rendering:auto;enable-background:accumulate"
       d="m -715.397,161.39 h 1.276 v 5.06 h -1.276 z"
       transform="matrix(1.94431,0,0,2.03664,1548.801,-322.08)"
       id="path11" />
    <path
       style="color:#000000;clip-rule:nonzero;display:inline;overflow:visible;visibility:visible;opacity:1;isolation:auto;mix-blend-mode:normal;color-interpolation:sRGB;color-interpolation-filters:linearRGB;solid-color:#000000;solid-opacity:1;fill:#2b9850;fill-opacity:1;fill-rule:nonzero;stroke:none;stroke-width:0.398881;stroke-linecap:butt;stroke-linejoin:miter;stroke-miterlimit:4;stroke-dasharray:none;stroke-dashoffset:0;stroke-opacity:1;color-rendering:auto;image-rendering:auto;shape-rendering:auto;text-rendering:auto;enable-background:accumulate"
       d="m -713.7,161.39 h 1.276 v 5.06 h -1.276 z"
       transform="matrix(1.94431,0,0,2.03664,1548.801,-322.08)"
       id="path12" />
    <path
       style="color:#000000;clip-rule:nonzero;display:inline;overflow:visible;visibility:visible;opacity:1;isolation:auto;mix-blend-mode:normal;color-interpolation:sRGB;color-interpolation-filters:linearRGB;solid-color:#000000;solid-opacity:1;fill:#34a35c;fill-opacity:1;fill-rule:nonzero;stroke:none;stroke-width:0.398881;stroke-linecap:butt;stroke-linejoin:miter;stroke-miterlimit:4;stroke-dasharray:none;stroke-dashoffset:0;stroke-opacity:1;color-rendering:auto;image-rendering:auto;shape-rendering:auto;text-rendering:auto;enable-background:accumulate"
       d="m -712.003,161.39 h 1.276 v 5.06 h -1.276 z"
       transform="matrix(1.94431,0,0,2.03664,1548.801,-322.08)"
       id="path13" />
    <path
       style="color:#000000;clip-rule:nonzero;display:inline;overflow:visible;visibility:visible;opacity:1;isolation:auto;mix-blend-mode:normal;color-interpolation:sRGB;color-interpolation-filters:linearRGB;solid-color:#000000;solid-opacity:1;fill:#2d974f;fill-opacity:1;fill-rule:nonzero;stroke:none;stroke-width:0.398881;stroke-linecap:butt;stroke-linejoin:miter;stroke-miterlimit:4;stroke-dasharray:none;stroke-dashoffset:0;stroke-opacity:1;color-rendering:auto;image-rendering:auto;shape-rendering:auto;text-rendering:auto;enable-background:accumulate"
       d="m -710.306,161.39 h 1.276 v 5.06 h -1.276 z"
       transform="matrix(1.94431,0,0,2.03664,1548.801,-322.08)"
       id="path14" />
    <path
       style="color:#000000;clip-rule:nonzero;display:inline;overflow:visible;visibility:visible;opacity:1;isolation:auto;mix-blend-mode:normal;color-interpolation:sRGB;color-interpolation-filters:linearRGB;solid-color:#000000;solid-opacity:1;fill:#68b057;fill-opacity:1;fill-rule:nonzero;stroke:none;stroke-width:0.398881;stroke-linecap:butt;stroke-linejoin:miter;stroke-miterlimit:4;stroke-dasharray:none;stroke-dashoffset:0;stroke-opacity:1;color-rendering:auto;image-rendering:auto;shape-rendering:auto;text-rendering:auto;enable-background:accumulate"
       d="m -708.609,161.39 h 1.276 v 5.06 h -1.276 z"
       transform="matrix(1.94431,0,0,2.03664,1548.801,-322.08)"
       id="path15" />
    <path
       style="color:#000000;clip-rule:nonzero;display:inline;overflow:visible;visibility:visible;opacity:1;isolation:auto;mix-blend-mode:normal;color-interpolation:sRGB;color-interpolation-filters:linearRGB;solid-color:#000000;solid-opacity:1;fill:#6faf55;fill-opacity:1;fill-rule:nonzero;stroke:none;stroke-width:0.398881;stroke-linecap:butt;stroke-linejoin:miter;stroke-miterlimit:4;stroke-dasharray:none;stroke-dashoffset:0;stroke-opacity:1;color-rendering:auto;image-rendering:auto;shape-rendering:auto;text-rendering:auto;enable-background:accumulate"
       d="m -706.912,161.39 h 1.276 v 5.06 h -1.276 z"
       transform="matrix(1.94431,0,0,2.03664,1548.801,-322.08)"
       id="path16" />
    <path
       style="color:#000000;clip-rule:nonzero;display:inline;overflow:visible;visibility:visible;opacity:1;isolation:auto;mix-blend-mode:normal;color-interpolation:sRGB;color-interpolation-filters:linearRGB;solid-color:#000000;solid-opacity:1;fill:#6cae55;fill-opacity:1;fill-rule:nonzero;stroke:none;stroke-width:0.398881;stroke-linecap:butt;stroke-linejoin:miter;stroke-miterlimit:4;stroke-dasharray:none;stroke-dashoffset:0;stroke-opacity:1;color-rendering:auto;image-rendering:auto;shape-rendering:auto;text-rendering:auto;enable-background:accumulate"
       d="m -705.215,161.39 h 1.276 v 5.06 h -1.276 z"
       transform="matrix(1.94431,0,0,2.03664,1548.801,-322.08)"
       id="path17" />
    <path
       style="color:#000000;clip-rule:nonzero;display:inline;overflow:visible;visibility:visible;opacity:1;isolation:auto;mix-blend-mode:normal;color-interpolation:sRGB;color-interpolation-filters:linearRGB;solid-color:#000000;solid-opacity:1;fill:#acc249;fill-opacity:1;fill-rule:nonzero;stroke:none;stroke-width:0.398881;stroke-linecap:butt;stroke-linejoin:miter;stroke-miterlimit:4;stroke-dasharray:none;stroke-dashoffset:0;stroke-opacity:1;color-rendering:auto;image-rendering:auto;shape-rendering:auto;text-rendering:auto;enable-background:accumulate"
       d="m -703.518,161.39 h 1.276 v 5.06 h -1.276 z"
       transform="matrix(1.94431,0,0,2.03664,1548.801,-322.08)"
       id="path18" />
    <path
       style="color:#000000;clip-rule:nonzero;display:inline;overflow:visible;visibility:visible;opacity:1;isolation:auto;mix-blend-mode:normal;color-interpolation:sRGB;color-interpolation-filters:linearRGB;solid-color:#000000;solid-opacity:1;fill:#bac441;fill-opacity:1;fill-rule:nonzero;stroke:none;stroke-width:0.398881;stroke-linecap:butt;stroke-linejoin:miter;stroke-miterlimit:4;stroke-dasharray:none;stroke-dashoffset:0;stroke-opacity:1;color-rendering:auto;image-rendering:auto;shape-rendering:auto;text-rendering:auto;enable-background:accumulate"
       d="m -701.821,161.39 h 1.276 v 5.06 h -1.276 z"
       transform="matrix(1.94431,0,0,2.03664,1548.801,-322.08)"
       id="path19" />
    <path
       style="color:#000000;clip-rule:nonzero;display:inline;overflow:visible;visibility:visible;opacity:1;isolation:auto;mix-blend-mode:normal;color-interpolation:sRGB;color-interpolation-filters:linearRGB;solid-color:#000000;solid-opacity:1;fill:#e0d640;fill-opacity:1;fill-rule:nonzero;stroke:none;stroke-width:0.398881;stroke-linecap:butt;stroke-linejoin:miter;stroke-miterlimit:4;stroke-dasharray:none;stroke-dashoffset:0;stroke-opacity:1;color-rendering:auto;image-rendering:auto;shape-rendering:auto;text-rendering:auto;enable-background:accumulate"
       d="m -700.125,161.39 h 1.276 v 5.06 h -1.276 z"
       transform="matrix(1.94431,0,0,2.03664,1548.801,-322.08)"
       id="path20" />
    <path
       style="color:#000000;clip-rule:nonzero;display:inline;overflow:visible;visibility:visible;opacity:1;isolation:auto;mix-blend-mode:normal;color-interpolation:sRGB;color-interpolation-filters:linearRGB;solid-color:#000000;solid-opacity:1;fill:#dccc3d;fill-opacity:1;fill-rule:nonzero;stroke:none;stroke-width:0.398881;stroke-linecap:butt;stroke-linejoin:miter;stroke-miterlimit:4;stroke-dasharray:none;stroke-dashoffset:0;stroke-opacity:1;color-rendering:auto;image-rendering:auto;shape-rendering:auto;text-rendering:auto;enable-background:accumulate"
       d="m -698.428,161.39 h 1.276 v 5.06 h -1.276 z"
       transform="matrix(1.94431,0,0,2.03664,1548.801,-322.08)"
       id="path21" />
    <path
       style="color:#000000;clip-rule:nonzero;display:inline;overflow:visible;visibility:visible;opacity:1;isolation:auto;mix-blend-mode:normal;color-interpolation:sRGB;color-interpolation-filters:linearRGB;solid-color:#000000;solid-opacity:1;fill:#ddce45;fill-opacity:1;fill-rule:nonzero;stroke:none;stroke-width:0.398881;stroke-linecap:butt;stroke-linejoin:miter;stroke-miterlimit:4;stroke-dasharray:none;stroke-dashoffset:0;stroke-opacity:1;color-rendering:auto;image-rendering:auto;shape-rendering:auto;text-rendering:auto;enable-background:accumulate"
       d="m -696.731,161.39 h 1.276 v 5.06 h -1.276 z"
       transform="matrix(1.94431,0,0,2.03664,1548.801,-322.08)"
       id="path22" />
    <path
       style="color:#000000;clip-rule:nonzero;display:inline;overflow:visible;visibility:visible;opacity:1;isolation:auto;mix-blend-mode:normal;color-interpolation:sRGB;color-interpolation-filters:linearRGB;solid-color:#000000;solid-opacity:1;fill:#e2c03e;fill-opacity:1;fill-rule:nonzero;stroke:none;stroke-width:0.398881;stroke-linecap:butt;stroke-linejoin:miter;stroke-miterlimit:4;stroke-dasharray:none;stroke-dashoffset:0;stroke-opacity:1;color-rendering:auto;image-rendering:auto;shape-rendering:auto;text-rendering:auto;enable-background:accumulate"
       d="m -695.034,161.39 h 1.276 v 5.06 h -1.276 z"
       transform="matrix(1.94431,0,0,2.03664,1548.801,-322.08)"
       id="path23" />
    <path
       style="color:#000000;clip-rule:nonzero;display:inline;overflow:visible;visibility:visible;opacity:1;isolation:auto;mix-blend-mode:normal;color-interpolation:sRGB;color-interpolation-filters:linearRGB;solid-color:#000000;solid-opacity:1;fill:#dc9f2d;fill-opacity:1;fill-rule:nonzero;stroke:none;stroke-width:0.398881;stroke-linecap:butt;stroke-linejoin:miter;stroke-miterlimit:4;stroke-dasharray:none;stroke-dashoffset:0;stroke-opacity:1;color-rendering:auto;image-rendering:auto;shape-rendering:auto;text-rendering:auto;enable-background:accumulate"
       d="m -693.337,161.39 h 1.276 v 5.06 h -1.276 z"
       transform="matrix(1.94431,0,0,2.03664,1548.801,-322.08)"
       id="path24" />
    <path
       style="color:#000000;clip-rule:nonzero;display:inline;overflow:visible;visibility:visible;opacity:1;isolation:auto;mix-blend-mode:normal;color-interpolation:sRGB;color-interpolation-filters:linearRGB;solid-color:#000000;solid-opacity:1;fill:#e69434;fill-opacity:1;fill-rule:nonzero;stroke:none;stroke-width:0.398881;stroke-linecap:butt;stroke-linejoin:miter;stroke-miterlimit:4;stroke-dasharray:none;stroke-dashoffset:0;stroke-opacity:1;color-rendering:auto;image-rendering:auto;shape-rendering:auto;text-rendering:auto;enable-background:accumulate"
       d="m -691.64,161.39 h 1.276 v 5.06 h -1.276 z"
       transform="matrix(1.94431,0,0,2.03664,1548.801,-322.08)"
       id="path25" />
    <path
       style="color:#000000;clip-rule:nonzero;display:inline;overflow:visible;visibility:visible;opacity:1;isolation:auto;mix-blend-mode:normal;color-interpolation:sRGB;color-interpolation-filters:linearRGB;solid-color:#000000;solid-opacity:1;fill:#e98f34;fill-opacity:1;fill-rule:nonzero;stroke:none;stroke-width:0.398881;stroke-linecap:butt;stroke-linejoin:miter;stroke-miterlimit:4;stroke-dasharray:none;stroke-dashoffset:0;stroke-opacity:1;color-rendering:auto;image-rendering:auto;shape-rendering:auto;text-rendering:auto;enable-background:accumulate"
       d="m -689.943,161.39 h 1.276 v 5.06 h -1.276 z"
       transform="matrix(1.94431,0,0,2.03664,1548.801,-322.08)"
       id="path26" />
    <path
       style="color:#000000;clip-rule:nonzero;display:inline;overflow:visible;visibility:visible;opacity:1;isolation:auto;mix-blend-mode:normal;color-interpolation:sRGB;color-interpolation-filters:linearRGB;solid-color:#000000;solid-opacity:1;fill:#e37c20;fill-opacity:1;fill-rule:nonzero;stroke:none;stroke-width:0.398881;stroke-linecap:butt;stroke-linejoin:miter;stroke-miterlimit:4;stroke-dasharray:none;stroke-dashoffset:0;stroke-opacity:1;color-rendering:auto;image-rendering:auto;shape-rendering:auto;text-rendering:auto;enable-background:accumulate"
       d="m -688.246,161.39 h 1.276 v 5.06 h -1.276 z"
       transform="matrix(1.94431,0,0,2.03664,1548.801,-322.08)"
       id="path27" />
    <path
       style="color:#000000;clip-rule:nonzero;display:inline;overflow:visible;visibility:visible;opacity:1;isolation:auto;mix-blend-mode:normal;color-interpolation:sRGB;color-interpolation-filters:linearRGB;solid-color:#000000;solid-opacity:1;fill:#ca6627;fill-opacity:1;fill-rule:nonzero;stroke:none;stroke-width:0.398881;stroke-linecap:butt;stroke-linejoin:miter;stroke-miterlimit:4;stroke-dasharray:none;stroke-dashoffset:0;stroke-opacity:1;color-rendering:auto;image-rendering:auto;shape-rendering:auto;text-rendering:auto;enable-background:accumulate"
       d="m -686.549,161.39 h 1.276 v 5.06 h -1.276 z"
       transform="matrix(1.94431,0,0,2.03664,1548.801,-322.08)"
       id="path28" />
    <path
       style="color:#000000;clip-rule:nonzero;display:inline;overflow:visible;visibility:visible;opacity:1;isolation:auto;mix-blend-mode:normal;color-interpolation:sRGB;color-interpolation-filters:linearRGB;solid-color:#000000;solid-opacity:1;fill:#dd561d;fill-opacity:1;fill-rule:nonzero;stroke:none;stroke-width:0.398881;stroke-linecap:butt;stroke-linejoin:miter;stroke-miterlimit:4;stroke-dasharray:none;stroke-dashoffset:0;stroke-opacity:1;color-rendering:auto;image-rendering:auto;shape-rendering:auto;text-rendering:auto;enable-background:accumulate"
       d="m -684.852,161.39 h 1.276 v 5.06 h -1.276 z"
       transform="matrix(1.94431,0,0,2.03664,1548.801,-322.08)"
       id="path29" />
    <path
       style="color:#000000;clip-rule:nonzero;display:inline;overflow:visible;visibility:visible;opacity:1;isolation:auto;mix-blend-mode:normal;color-interpolation:sRGB;color-interpolation-filters:linearRGB;solid-color:#000000;solid-opacity:1;fill:#d55522;fill-opacity:1;fill-rule:nonzero;stroke:none;stroke-width:0.398881;stroke-linecap:butt;stroke-linejoin:miter;stroke-miterlimit:4;stroke-dasharray:none;stroke-dashoffset:0;stroke-opacity:1;color-rendering:auto;image-rendering:auto;shape-rendering:auto;text-rendering:auto;enable-background:accumulate"
       d="m -683.156,161.39 h 1.276 v 5.06 h -1.276 z"
       transform="matrix(1.94431,0,0,2.03664,1548.801,-322.08)"
       id="path30" />
    <path
       style="color:#000000;clip-rule:nonzero;display:inline;overflow:visible;visibility:visible;opacity:1;isolation:auto;mix-blend-mode:normal;color-interpolation:sRGB;color-interpolation-filters:linearRGB;solid-color:#000000;solid-opacity:1;fill:#d65424;fill-opacity:1;fill-rule:nonzero;stroke:none;stroke-width:0.398881;stroke-linecap:butt;stroke-linejoin:miter;stroke-miterlimit:4;stroke-dasharray:none;stroke-dashoffset:0;stroke-opacity:1;color-rendering:auto;image-rendering:auto;shape-rendering:auto;text-rendering:auto;enable-background:accumulate"
       d="m -681.459,161.39 h 1.276 v 5.06 h -1.276 z"
       transform="matrix(1.94431,0,0,2.03664,1548.801,-322.08)"
       id="path31" />
    <path
       style="color:#000000;clip-rule:nonzero;display:inline;overflow:visible;visibility:visible;opacity:1;isolation:auto;mix-blend-mode:normal;color-interpolation:sRGB;color-interpolation-filters:linearRGB;solid-color:#000000;solid-opacity:1;fill:#d6481d;fill-opacity:1;fill-rule:nonzero;stroke:none;stroke-width:0.398881;stroke-linecap:butt;stroke-linejoin:miter;stroke-miterlimit:4;stroke-dasharray:none;stroke-dashoffset:0;stroke-opacity:1;color-rendering:auto;image-rendering:auto;shape-rendering:auto;text-rendering:auto;enable-background:accumulate"
       d="m -679.762,161.39 h 1.276 v 5.06 h -1.276 z"
       transform="matrix(1.94431,0,0,2.03664,1548.801,-322.08)"
       id="path32" />
    <path
       style="color:#000000;clip-rule:nonzero;display:inline;overflow:visible;visibility:visible;opacity:1;isolation:auto;mix-blend-mode:normal;color-interpolation:sRGB;color-interpolation-filters:linearRGB;solid-color:#000000;solid-opacity:1;fill:#e13e28;fill-opacity:1;fill-rule:nonzero;stroke:none;stroke-width:0.398881;stroke-linecap:butt;stroke-linejoin:miter;stroke-miterlimit:4;stroke-dasharray:none;stroke-dashoffset:0;stroke-opacity:1;color-rendering:auto;image-rendering:auto;shape-rendering:auto;text-rendering:auto;enable-background:accumulate"
       d="m -678.065,161.39 h 1.276 v 5.06 h -1.276 z"
       transform="matrix(1.94431,0,0,2.03664,1548.801,-322.08)"
       id="path33" />
    <path
       style="color:#000000;clip-rule:nonzero;display:inline;overflow:visible;visibility:visible;opacity:1;isolation:auto;mix-blend-mode:normal;color-interpolation:sRGB;color-interpolation-filters:linearRGB;solid-color:#000000;solid-opacity:1;fill:#dd261a;fill-opacity:1;fill-rule:nonzero;stroke:none;stroke-width:0.398881;stroke-linecap:butt;stroke-linejoin:miter;stroke-miterlimit:4;stroke-dasharray:none;stroke-dashoffset:0;stroke-opacity:1;color-rendering:auto;image-rendering:auto;shape-rendering:auto;text-rendering:auto;enable-background:accumulate"
       d="m -676.368,161.39 h 1.276 v 5.06 h -1.276 z"
       transform="matrix(1.94431,0,0,2.03664,1548.801,-322.08)"
       id="path34" />
    <path
       style="color:#000000;clip-rule:nonzero;display:inline;overflow:visible;visibility:visible;opacity:1;isolation:auto;mix-blend-mode:normal;color-interpolation:sRGB;color-interpolation-filters:linearRGB;solid-color:#000000;solid-opacity:1;fill:#e92a2a;fill-opacity:1;fill-rule:nonzero;stroke:none;stroke-width:0.398881;stroke-linecap:butt;stroke-linejoin:miter;stroke-miterlimit:4;stroke-dasharray:none;stroke-dashoffset:0;stroke-opacity:1;color-rendering:auto;image-rendering:auto;shape-rendering:auto;text-rendering:auto;enable-background:accumulate"
       d="m -674.671,161.39 h 1.276 v 5.06 h -1.276 z"
       transform="matrix(1.94431,0,0,2.03664,1548.801,-322.08)"
       id="path35" />
    <path
       style="color:#000000;clip-rule:nonzero;display:inline;overflow:visible;visibility:visible;opacity:1;isolation:auto;mix-blend-mode:normal;color-interpolation:sRGB;color-interpolation-filters:linearRGB;solid-color:#000000;solid-opacity:1;fill:#e22821;fill-opacity:1;fill-rule:nonzero;stroke:none;stroke-width:0.398881;stroke-linecap:butt;stroke-linejoin:miter;stroke-miterlimit:4;stroke-dasharray:none;stroke-dashoffset:0;stroke-opacity:1;color-rendering:auto;image-rendering:auto;shape-rendering:auto;text-rendering:auto;enable-background:accumulate"
       d="m -672.974,161.39 h 1.276 v 5.06 h -1.276 z"
       transform="matrix(1.94431,0,0,2.03664,1548.801,-322.08)"
       id="path36" />
    <path
       style="color:#000000;clip-rule:nonzero;display:inline;overflow:visible;visibility:visible;opacity:1;isolation:auto;mix-blend-mode:normal;color-interpolation:sRGB;color-interpolation-filters:linearRGB;solid-color:#000000;solid-opacity:1;fill:#e50e10;fill-opacity:1;fill-rule:nonzero;stroke:none;stroke-width:0.398881;stroke-linecap:butt;stroke-linejoin:miter;stroke-miterlimit:4;stroke-dasharray:none;stroke-dashoffset:0;stroke-opacity:1;color-rendering:auto;image-rendering:auto;shape-rendering:auto;text-rendering:auto;enable-background:accumulate"
       d="m -671.277,161.39 h 1.276 v 5.06 h -1.276 z"
       transform="matrix(1.94431,0,0,2.03664,1548.801,-322.08)"
       id="path37" />
    <path
       style="color:#000000;clip-rule:nonzero;display:inline;overflow:visible;visibility:visible;opacity:1;isolation:auto;mix-blend-mode:normal;color-interpolation:sRGB;color-interpolation-filters:linearRGB;solid-color:#000000;solid-opacity:1;fill:#e11613;fill-opacity:1;fill-rule:nonzero;stroke:none;stroke-width:0.398881;stroke-linecap:butt;stroke-linejoin:miter;stroke-miterlimit:4;stroke-dasharray:none;stroke-dashoffset:0;stroke-opacity:1;color-rendering:auto;image-rendering:auto;shape-rendering:auto;text-rendering:auto;enable-background:accumulate"
       d="m -669.58,161.39 h 1.276 v 5.06 h -1.276 z"
       transform="matrix(1.94431,0,0,2.03664,1548.801,-322.08)"
       id="path38" />
    <path
       style="color:#000000;clip-rule:nonzero;display:inline;overflow:visible;visibility:visible;opacity:1;isolation:auto;mix-blend-mode:normal;color-interpolation:sRGB;color-interpolation-filters:linearRGB;solid-color:#000000;solid-opacity:1;fill:#e11413;fill-opacity:1;fill-rule:nonzero;stroke:none;stroke-width:0.398881;stroke-linecap:butt;stroke-linejoin:miter;stroke-miterlimit:4;stroke-dasharray:none;stroke-dashoffset:0;stroke-opacity:1;color-rendering:auto;image-rendering:auto;shape-rendering:auto;text-rendering:auto;enable-background:accumulate"
       d="m -667.883,161.39 h 1.276 v 5.06 h -1.276 z"
       transform="matrix(1.94431,0,0,2.03664,1548.801,-322.08)"
       id="path39" />
  </g>
  <g
     id="g41"
     transform="translate(-121.44575,3.9681361)">
    <path
       style="fill:#ffffff;stroke-width:0.999998"
       d="M 256.29608,13.057217 V 8.5190298 l 1.10372,0.023912 1.10245,0.022653 0.0252,0.3536413 c 0.0151,0.195069 0.0541,0.3536413 0.0881,0.3536413 0.034,0 0.18877,-0.1296265 0.34231,-0.2894573 0.47698,-0.4908189 0.9011,-0.5839486 2.66553,-0.5826901 1.82861,0 2.35467,0.1132659 2.94491,0.6330305 0.55752,0.4908189 0.65694,0.8155145 0.69847,2.2917465 0.0428,1.519022 -0.0654,2.277903 -0.39643,2.800185 -0.43167,0.679595 -1.41834,0.972828 -3.27967,0.972828 -1.38437,0 -2.16464,-0.207654 -2.62274,-0.695956 -0.10949,-0.1183 -0.23031,-0.19381 -0.26932,-0.169899 -0.0403,0.02391 -0.0717,0.790345 -0.0717,1.702764 v 1.659975 h -2.33076 z m 5.7816,0.119558 c 0.20136,-0.05034 0.45055,-0.185001 0.55752,-0.298267 0.17997,-0.191293 0.19381,-0.276872 0.19381,-1.150278 0,-0.884732 -0.0126,-0.956467 -0.20136,-1.157829 -0.28694,-0.305818 -0.65191,-0.381328 -1.83743,-0.381328 -1.62096,0 -1.93684,0.158572 -2.08157,1.044563 -0.17242,1.062182 0.0919,1.764431 0.72993,1.93433 0.43041,0.113266 2.19736,0.119558 2.6391,0.0088 z m 9.87427,1.833649 c -0.96276,-0.172415 -1.68011,-0.680854 -2.01614,-1.430925 -0.18877,-0.424118 -0.19632,-0.504663 -0.19758,-2.724675 V 8.5655947 h 2.34964 v 1.9595003 c 0,2.133174 0.0881,2.231338 0.58017,2.554775 0.185,0.120817 0.41279,0.145987 1.30885,0.145987 0.94011,0 1.12511,-0.02265 1.37681,-0.16864 0.54368,-0.314628 0.68966,-0.585207 0.72994,-2.679368 V 8.5240639 h 1.10371 c 0.96779,0 1.14273,0.020136 1.18552,0.1321435 v 6.2170396 h -2.28923 v -0.377553 c -0.0138,-0.217722 0.0252,-0.395172 0,-0.395172 -0.29701,1.074767 -1.80974,0.933814 -2.60134,0.958984 -0.59528,0.01762 -1.28368,-0.0063 -1.53035,-0.04908 z m 9.64396,0.0302 c -1.42212,-0.151022 -2.12311,-0.664494 -2.29049,-1.678853 -0.0428,-0.268062 -0.0289,-0.382587 0.0554,-0.435444 0.0617,-0.04027 0.58898,-0.07299 1.17167,-0.07299 1.04456,-0.0013 1.06092,0 1.1981,0.210171 0.28442,0.435445 0.53235,0.495853 2.02872,0.495853 1.5895,0 1.85504,-0.07174 1.89783,-0.513472 0.0478,-0.487043 -0.11452,-0.527315 -2.14576,-0.528574 -2.69069,-0.0025 -3.44328,-0.16864 -3.90012,-0.858304 -0.20262,-0.308335 -0.2215,-0.403981 -0.2215,-1.179224 0,-0.7815343 0.0176,-0.86963 0.22905,-1.1892916 0.45558,-0.6884049 1.07603,-0.8482357 3.51628,-0.9073857 2.98392,-0.072993 4.01842,0.1547968 4.43373,0.9728283 0.11704,0.2303073 0.18122,0.4870433 0.16738,0.66701 l -0.0252,0.289458 -1.11504,0.02517 -1.1163,0.02265 -0.24163,-0.231566 -0.24164,-0.2315657 h -1.39191 c -1.19307,0 -1.42463,0.021395 -1.61718,0.1485037 -0.28317,0.185001 -0.30205,0.512214 -0.039,0.654426 0.1246,0.06544 0.95144,0.115783 2.48808,0.151021 l 2.30055,0.05034 0.48327,0.247927 c 0.66324,0.339797 0.88725,0.766432 0.88348,1.680111 -0.008,1.485041 -0.5764,1.980894 -2.51325,2.183514 -0.74378,0.07803 -3.35519,0.09691 -3.99577,0.02895 z M 266.27733,14.871988 V 5.9390843 h 2.31565 v 8.9329037 z m 37.17386,2.474231 v -2.029977 h -8.90018 v -4.35822 l 6.65752,-4.7697527 h 5.52234 v 6.5228577 h 2.21246 v 2.605115 h -2.21246 v 2.029977 z m 0,-8.5251468 h -0.36748 l -5.4871,3.6094068 0.004,0.280648 h 5.85081 z"
       id="path40" />
    <path
       d="m 287.65438,17.47207 c 0,-0.04153 1.48126,-2.642871 3.291,-5.780336 l 3.291,-5.7035678 h 1.56056 l -0.1397,0.2416339 -3.34008,5.7803369 -3.19914,5.537444 h -0.73119 c -0.44174,0 -0.73245,-0.03021 -0.73245,-0.07551 z"
       style="fill:#ffffff;stroke-width:0.999998"
       id="path41" />
  </g>
</svg>
