<?xml version="1.0" encoding="UTF-8" standalone="no"?>
<svg
   version="1.2"
   width="567.13696"
   height="109.79929"
   xml:space="preserve"
   id="svg2"
   sodipodi:docname="dreamcast.svg"
   inkscape:version="1.4.3 (0d15f75042, 2025-12-25)"
   xmlns:inkscape="http://www.inkscape.org/namespaces/inkscape"
   xmlns:sodipodi="http://sodipodi.sourceforge.net/DTD/sodipodi-0.dtd"
   xmlns="http://www.w3.org/2000/svg"
   xmlns:svg="http://www.w3.org/2000/svg"><defs
   id="defs2" /><sodipodi:namedview
   id="namedview2"
   pagecolor="#b6b6b6"
   bordercolor="#000000"
   borderopacity="0.25"
   inkscape:showpageshadow="2"
   inkscape:pageopacity="0.0"
   inkscape:pagecheckerboard="0"
   inkscape:deskcolor="#d1d1d1"
   inkscape:zoom="0.79286686"
   inkscape:cx="290.71716"
   inkscape:cy="55.494816"
   inkscape:window-width="1920"
   inkscape:window-height="1080"
   inkscape:window-x="0"
   inkscape:window-y="0"
   inkscape:window-maximized="0"
   inkscape:current-layer="svg2" />
    <g
   fill="#666"
   id="g1"
   style="fill:#000000;fill-opacity:1;stroke:#ffffff;stroke-width:15;stroke-linecap:round;stroke-linejoin:round;stroke-dasharray:none;stroke-opacity:1;paint-order:markers stroke fill"
   transform="translate(7.4999926,7.5095836)">
        <g
   id="path1"
   style="opacity:1"><path
     style="baseline-shift:baseline;display:inline;overflow:visible;vector-effect:none;fill:#ffffff;stroke:none;enable-background:accumulate;stop-color:#000000;stop-opacity:1"
     d="m 121.29102,5.0039062 a 7.50075,7.50075 0 0 0 -5.82618,12.2226558 c -0.96838,-1.1941 -0.49594,-0.88988 -0.36914,-0.251953 0.12681,0.637928 0.2168,1.639942 0.2168,2.369141 v 56.9375 c 0,1.107607 -0.62974,3.710848 -1.16406,4.697266 a 7.50075,7.50075 0 0 0 6.5957,11.072265 c 6.3285,0 24.27633,0.05859 29.04297,0.05859 16.33531,0 30.29704,-8.185348 38.11133,-20.617188 v 7.876954 c 0,-0.941538 -1.056,1.835661 0.0352,0.490234 a 7.50075,7.50075 0 0 0 5.82618,12.222656 h 11.08789 a 7.50075,7.50075 0 0 0 6.8125,-10.636719 c 0.22701,0.492751 -0.29688,-1.958983 -0.29688,-2.076171 V 53.976562 c 0,-4.234673 1.11089,-5.243556 2.1875,-5.828125 0.87982,-0.477716 2.77807,-0.747715 5.62109,0.185547 -1.05796,3.636353 -1.66992,7.471028 -1.66992,11.441407 0,17.161876 13.83103,33.060546 34.33203,33.060546 6.58733,0 12.09696,-1.664791 17.14844,-3.433593 a 7.50075,7.50075 0 0 0 3.2168,-3.710938 c 4.01811,4.114704 10.37676,7.064453 18.42383,7.064453 3.98974,0 7.7421,-0.831979 11.10937,-2.267578 a 7.50075,7.50075 0 0 0 3.90039,1.550781 h 9.17774 a 7.50075,7.50075 0 0 0 2.5332,-1.435546 7.50075,7.50075 0 0 0 3.63672,1.433593 h 11.78515 a 7.50075,7.50075 0 0 0 5.82813,-12.21875 c 0.71715,0.885855 0.32327,0.519738 0.20117,0.04102 -0.1221,-0.478722 -0.16601,-1.311886 -0.16601,-0.841797 V 52.371094 c 0,-3.32859 0.76693,-4.188804 1.33593,-4.710938 0.569,-0.522134 1.61682,-0.953125 3.19727,-0.953125 1.63492,0 1.80192,0.224691 1.86328,0.28711 0.0614,0.06242 0.98242,1.106265 0.98242,5.376953 v 26.646484 c 0,-0.470769 -0.0457,0.364664 -0.16797,0.84375 -0.12223,0.479086 -0.51702,0.846091 0.20313,-0.04297 a 7.50075,7.50075 0 0 0 5.82617,12.220703 h 11.42969 a 7.50075,7.50075 0 0 0 5.81836,-12.232421 c 0.7243,0.890702 0.33004,0.532369 0.20898,0.05664 -0.12105,-0.475729 -0.16601,-1.305445 -0.16601,-0.845703 V 52.371094 c 0,-3.86124 0.81205,-4.453036 1.29492,-4.851563 0.48287,-0.398526 1.68597,-0.8125 3.32812,-0.8125 1.14456,0 1.84736,0.292968 2.32422,0.763672 0.47687,0.470704 1.28711,1.480109 1.28711,4.900391 v 26.646484 c 0,-0.46043 -0.0451,0.370045 -0.16601,0.84375 -0.12087,0.473706 -0.5142,0.826087 0.21679,-0.06836 a 7.50075,7.50075 0 0 0 5.8086,12.246093 h 11.00781 a 7.50075,7.50075 0 0 0 7.33398,-7.455078 c 5.77809,4.905167 13.60843,8.019532 22.89453,8.019532 5.98728,0 11.0532,-0.849143 16.33204,-2.419922 a 7.50075,7.50075 0 0 0 3.54492,-2.451172 c 4.00232,3.017661 9.54442,5.023437 16.20508,5.023437 3.98814,0 7.73663,-0.833092 11.10156,-2.267578 a 7.50075,7.50075 0 0 0 3.90625,1.550781 h 9.17578 a 7.50075,7.50075 0 0 0 4.28125,-1.710937 c 4.63819,1.254782 9.88305,2.15625 15.28711,2.15625 6.21508,0 12.45805,-1.424617 17.65234,-5.162109 1.55265,-1.117185 2.90506,-2.549429 4.13281,-4.117188 1.11479,1.973893 2.43004,3.749995 4.04102,5.058594 4.07958,3.313835 8.69661,4.26462 12.5625,4.298828 3.64102,0.155306 6.81686,-0.492458 9.33984,-1.052734 A 7.50075,7.50075 0 0 0 557.76172,85.75 l 1.33789,-6.285156 a 7.50075,7.50075 0 0 0 -10.01563,-8.566407 c -0.64091,0.245242 -1.68169,0.289324 -2.6914,0.41211 -0.004,-2.741069 -0.017,-8.501881 -0.0254,-15.431641 -0.004,-3.148545 -0.003,-5.965589 -0.002,-8.59375 -0.0129,-5.61e-4 0.13181,6.51e-4 0.11329,0 2.04797,0.07205 2.88137,0.277614 2.85156,0.265625 a 7.50075,7.50075 0 0 0 10.29883,-6.947265 l 0.008,-5.919922 a 7.50075,7.50075 0 0 0 -7.49024,-7.509766 l -5.72265,-0.0078 0.0273,-7.664063 a 7.50075,7.50075 0 0 0 -9.49805,-7.255859 l -9.83789,2.720703 a 7.50075,7.50075 0 0 0 -3.19726,12.564453 7.50075,7.50075 0 0 0 -0.0391,0.01758 c -1.38376,-1.342458 -0.85016,-1.286999 -0.71289,-0.603516 0.0466,0.232111 0.0428,0.565271 0.0781,0.865235 a 7.50075,7.50075 0 0 0 -0.87891,0.365234 7.50075,7.50075 0 0 0 -0.36914,-0.292969 c -5.75443,-2.227234 -11.63669,-2.59375 -15.40429,-2.59375 -5.27579,0 -10.87947,1.035355 -15.82618,4.31836 -1.98754,1.319087 -3.69802,3.212801 -5.14843,5.353515 -0.77149,-1.040359 -1.54088,-2.084574 -2.49024,-2.964843 -5.09045,-4.720012 -11.92429,-6.509766 -18.88086,-6.509766 -5.37588,0 -12.5417,0.608553 -18.81445,3.123047 a 7.50075,7.50075 0 0 0 -1.70898,0.960937 l -0.004,0.002 a 7.50075,7.50075 0 0 0 -0.31836,0.634765 7.50075,7.50075 0 0 0 -2.88281,-1.976562 c -1.43636,-0.408342 -7.7956,-2.523438 -15.82617,-2.523438 -10.9825,0 -20.74233,4.849138 -27.09766,12.50586 -3.82389,-6.930072 -11.90839,-12.464844 -23.36328,-12.464844 -6.21994,0 -11.07847,2.051888 -14.81055,4.324219 -3.89448,-2.527515 -8.85748,-4.438625 -14.93555,-4.439454 h -0.004 c -3.3658,-8.59e-4 -6.17787,0.81555 -8.73438,1.863282 a 7.50075,7.50075 0 0 0 -5.76367,-1.642578 l -10.80859,1.669921 a 7.50075,7.50075 0 0 0 -5.47266,5.097657 c -0.19266,-0.193471 -0.32478,-0.440985 -0.52539,-0.626953 -5.09159,-4.720004 -11.92781,-6.507813 -18.88672,-6.507813 -5.37987,0 -12.54053,0.608264 -18.81054,3.121094 a 7.50075,7.50075 0 0 0 -4.70899,6.964844 v 0.257812 c -0.15629,-0.206456 -0.25274,-0.441623 -0.41601,-0.644531 -4.71785,-5.86307 -12.48289,-9.539063 -21.50196,-9.539063 -6.09985,0 -11.64503,1.790755 -16.34765,4.685547 a 7.50075,7.50075 0 0 0 -2.55469,-2.439453 c -7.69906,-2.996446 -15.04231,-2.583325 -20.9668,-0.08789 a 7.50075,7.50075 0 0 0 -6.27734,-2.240234 l -10.67578,1.667969 a 7.50075,7.50075 0 0 0 -1.89844,1.140625 C 187.23739,22.398999 183.15079,17.59949 178.46875,14.125 169.32254,7.3376987 158.60415,5.0488281 149.78711,5.0488281 c -6.42239,0 -21.49011,-0.044922 -28.49609,-0.044922 z m 21.18164,21.3378908 c 2.56292,-0.123352 5.14634,-0.09512 7.82031,0.0625 a 7.50075,7.50075 0 0 0 0.002,0 c 4.56971,0.268444 9.24983,1.519738 12.53711,4.365234 3.28729,2.845497 6.08744,7.452853 6.13477,17.626953 0.0491,10.47707 -3.32097,14.884148 -7.03907,17.806641 -3.71809,2.922493 -8.39081,3.949577 -10.57226,4.261719 -3.03158,0.43277 -6.58407,0.400523 -10.35547,0.177734 l -0.002,-44.138672 c 0.49004,-0.03492 0.9835,-0.138472 1.47461,-0.162109 z m 388.25,5.896484 h 0.68359 v 0.283203 a 7.50075,7.50075 0 0 0 -0.68359,-0.283203 z m -22.50391,13.326172 c 2.37264,0.216899 5.26572,0.932343 6.16797,1.703125 a 7.50075,7.50075 0 0 0 8.83203,0.146484 v 6.425782 c -3.20304,-2.723665 -6.65482,-4.590251 -9.78906,-5.986328 -2.19979,-0.979847 -3.56104,-1.577499 -5.21094,-2.289063 z m -214.43359,0.486328 c 0.66078,0 0.93553,0.121466 1.42578,0.185547 -0.14051,0.02223 -0.19054,0.05621 -0.33203,0.07617 a 7.50075,7.50075 0 0 0 -0.0117,0.002 c -1.69004,0.241327 -5.06618,0.477256 -8.94532,1.361328 2.3516,-0.936326 4.84881,-1.625 7.86329,-1.625 z m 169.94726,0 c 0.66183,0 0.9369,0.121291 1.42774,0.185547 -0.14054,0.02222 -0.19053,0.05621 -0.33204,0.07617 a 7.50075,7.50075 0 0 0 -0.0137,0.002 c -1.68969,0.241385 -5.06738,0.47774 -8.94922,1.363281 2.35297,-0.937295 4.85279,-1.626953 7.86719,-1.626953 z m -37.95117,0.152344 c 1.68997,0 6.92194,1.433051 8.88477,2.580078 a 7.50075,7.50075 0 0 0 8.08398,-0.818359 7.50075,7.50075 0 0 0 6.16406,2.042968 c -5.83931,2.788496 -11.47695,9.261479 -12.55664,18.144532 -3.58563,2.113195 -8.84882,3.652343 -11.00586,3.652343 -4.79118,0 -6.97901,-1.300084 -8.64062,-3.269531 -1.66161,-1.969446 -2.8418,-5.292224 -2.8418,-9.855469 0,-4.60214 1.15341,-7.588913 2.77148,-9.375 1.61808,-1.786086 4.02178,-3.101562 9.14063,-3.101562 z m -127.94336,0.917969 c -0.007,0.0297 -0.007,-0.0015 -0.0137,0.0332 l 0.002,-0.0098 c 0.002,-0.0107 0.009,-0.01283 0.0117,-0.02344 z m -18.87891,2.888672 c -0.81116,0.387556 -1.57806,1.02833 -2.37109,1.554687 -0.0506,-0.510273 -0.0622,-1.022086 -0.13281,-1.529297 a 7.50075,7.50075 0 0 0 2.5039,-0.02539 z m 211.78907,11.580078 c 2.99659,2.073074 6.0671,3.561834 8.82226,4.732422 3.36765,1.430817 6.29865,2.697244 7.66992,3.626953 1.37128,0.929709 0.77344,0.316602 0.77344,0.320312 0,1.136955 -0.0224,0.867645 -0.36133,1.13086 -0.33895,0.263214 -1.56687,0.83789 -3.72656,0.83789 -2.11171,0 -8.45573,-2.22069 -11.37305,-4.304687 a 7.50075,7.50075 0 0 0 -1.80468,-0.400391 z m -249.03907,1.664062 h 25.80274 c -0.40897,1.195945 -0.74067,2.442486 -0.96289,3.75586 a 7.50075,7.50075 0 0 0 -3.11133,0.894531 c -2.1948,1.806792 -7.71946,3.707031 -12.08203,3.707031 -3.61047,0 -5.70209,-1.071159 -7.33594,-2.90625 -1.07157,-1.203557 -1.81649,-3.1404 -2.31055,-5.451172 z m 56.11524,3.767578 c -0.24785,1.26804 -0.60889,2.426343 -1.13281,3.121094 -0.83209,1.103384 -1.65331,2.013672 -5.63868,2.013672 0.0937,0 -1.08098,-0.292383 -1.74218,-0.851563 -0.66121,-0.559179 -0.64844,-0.889469 -0.64844,-0.695312 0,-2.04278 -0.37538,-1.040363 0.88086,-1.701172 1.18171,-0.621606 4.37708,-1.33906 8.28125,-1.886719 z m 169.94922,0 c -0.24792,1.267898 -0.60865,2.426104 -1.13282,3.121094 -0.83246,1.103765 -1.65461,2.013672 -5.63867,2.013672 0.0937,0 -1.07818,-0.291081 -1.73828,-0.849609 -0.66009,-0.558529 -0.64844,-0.889448 -0.64844,-0.697266 0,-2.043366 -0.37446,-1.04068 0.88086,-1.701172 1.18083,-0.621294 4.37429,-1.339073 8.27735,-1.886719 z"
     id="path3" /><path
     style="baseline-shift:baseline;display:inline;overflow:visible;vector-effect:none;stroke:none;enable-background:accumulate;stop-color:#000000;stop-opacity:1"
     d="m 122.813,19.344 c 0,-2.409 -0.458,-5.529 -1.522,-6.841 6.973,0 22.039,0.046 28.497,0.046 14.859,0 37.277,8.247 37.277,36.052 0,20.635 -15.826,36.008 -37.277,36.008 -4.705,0 -22.67,-0.058 -29.044,-0.058 1.306,-2.411 2.069,-5.685 2.069,-8.269 z M 133.5,77.543 c 6.858,0.892 13.189,1.165 18.917,0.347 5.542,-0.793 24.165,-4.805 24.049,-29.529 -0.109,-23.431 -14.581,-28.788 -25.731,-29.443 -5.819,-0.343 -11.436,-0.123 -17.236,0.881 z m 59.687,-42.901 10.676,-1.667 v 9.4 c 2.738,-6.767 11.259,-12.205 23.366,-7.493 l -2.838,7.433 c -11.082,-5.26 -20.528,-0.646 -20.528,11.661 V 79.37 c 0,1.209 0.264,3.648 0.985,5.213 h -11.089 c 1.12,-1.381 1.64,-4.004 1.64,-5.213 V 42.74 c -0.003,-2.657 -0.545,-6.77 -2.212,-8.098 z m 337.532,5.096 v 32.434 c 0,10.183 7.019,12.905 12.219,12.905 2.197,0.107 5.313,-0.406 7.488,-0.889 l 1.338,-6.285 c -2.535,0.97 -5.481,1.197 -7.25,1.197 -3.26,0 -5.617,-2.164 -5.617,-5.549 0,-3.037 -0.077,-32.809 0,-33.761 h -0.034 c 0.432,0 7.196,-0.024 7.879,0 2.217,0.078 3.92,0.213 5.387,0.803 l 0.008,-5.919 -13.239,-0.017 0.053,-15.181 -9.838,2.719 c 1.356,1.269 1.797,4.982 1.797,7.431 l -0.008,5.083 c -0.441,0 -5.438,0.025 -6.265,0.025 v 5.001 z m -42.526,34.298 c 4.229,3.021 10.866,5.703 15.733,5.703 6.752,0 11.588,-3.285 11.588,-9.469 0,-11.414 -26.022,-9.522 -26.022,-24.004 0,-9.792 8.756,-13.476 17.1,-13.476 2.683,0 8.806,0.582 12.697,2.088 l -0.031,6.688 c -3.459,-2.955 -8.735,-3.669 -12.213,-3.669 -5.521,0 -9.668,2.74 -9.668,8.112 0,7.887 26.002,7.43 26.002,23.621 0,10.471 -9.07,15.354 -19.055,15.354 -4.865,0 -9.939,-0.862 -14.16,-2.071 z M 331.107,39.839 c 0,-0.592 0.021,-5.895 0.021,-6.574 l -10.809,1.671 c 1.303,1.365 2.303,5.623 2.303,8.667 v 35.414 c 0,1.209 -0.519,4.143 -1.641,5.521 h 11.784 c -1.118,-1.381 -1.637,-4.313 -1.637,-5.521 V 52.372 c 0,-9.75 6.031,-13.164 12.035,-13.164 5.434,0 10.344,2.352 10.344,13.164 v 26.646 c 0,1.209 -0.52,4.142 -1.637,5.521 h 11.428 c -1.123,-1.381 -1.637,-4.313 -1.637,-5.521 V 52.372 c 0,-10.811 6.678,-13.164 12.123,-13.164 5.43,0 11.111,3.411 11.111,13.164 v 26.646 c 0,1.209 -0.515,4.142 -1.642,5.521 h 11.008 c -1.127,-1.381 -1.639,-4.313 -1.639,-5.521 V 47.312 c 0,-5.404 -5.516,-14.063 -18.391,-14.063 -7.492,0 -11.818,3.333 -15.103,6.2 -2.793,-3.26 -7.34,-6.317 -14.647,-6.317 -7.116,-0.003 -11.319,4.17 -13.374,6.707 z m -25.486,16.614 c -1.543,1.453 -4.773,2.579 -8.107,3.019 -8.762,1.147 -16.352,2.604 -16.352,11.137 0,5.063 5.52,9.048 9.891,9.048 11.578,0 14.57,-8.353 14.57,-14.935 V 56.453 Z M 278.269,35.57 c 4.419,-1.771 11.549,-2.583 16.021,-2.583 11.42,0 19.008,5.705 19.008,18.95 v 21.972 c 0,4.069 0.062,7.924 1.512,10.631 h -9.178 L 305.3,78.76 c -3.473,4.487 -7.627,6.495 -14.676,6.495 -13.91,0 -16.946,-9.503 -16.946,-14.069 0,-16.297 15.512,-16.485 22.249,-17.447 3.728,-0.526 8.521,-1.58 9.244,-5.074 1.188,-5.78 -2.942,-10.114 -11.385,-10.114 -6.197,0 -11.273,1.885 -15.514,4.422 z m 197.303,20.883 c -1.541,1.453 -4.773,2.579 -8.109,3.019 -8.76,1.147 -16.348,2.604 -16.348,11.137 0,5.063 5.516,9.048 9.887,9.048 11.576,0 14.57,-8.353 14.57,-14.935 z M 448.223,35.57 c 4.418,-1.771 11.556,-2.583 16.023,-2.583 11.414,0 19.002,5.705 19.002,18.95 v 21.972 c 0,4.069 -0.887,7.841 1.508,10.631 h -9.176 l -0.334,-5.78 c -3.478,4.487 -7.625,6.495 -14.674,6.495 -13.902,0 -16.943,-9.503 -16.943,-14.069 0,-16.297 15.512,-16.485 22.246,-17.447 3.729,-0.526 8.527,-1.58 9.242,-5.074 1.19,-5.78 -2.941,-10.114 -11.385,-10.114 -6.195,0 -11.271,1.885 -15.513,4.422 v -7.4 z m -9.772,6.738 c -3.443,-2.012 -8.879,-3.605 -12.67,-3.605 -13.312,0 -19.412,8.185 -19.412,19.976 0,11.68 5.965,20.625 18.983,20.625 4.462,0 10.535,-2.006 15.25,-4.902 l -1.918,8.593 c -4.799,1.428 -8.842,2.108 -14.194,2.108 -18.295,0 -26.871,-12.977 -26.871,-26.479 0,-14.921 11.504,-25.417 27.072,-25.417 6.805,0 11.771,1.668 13.776,2.238 z M 233.646,59.304 c 0.008,-1.234 0.172,-2.41 0.31,-3.55 h 35.401 c 0,-12.169 -6.087,-22.608 -20.505,-22.608 -14.965,0 -23.85,11.703 -23.85,26.63 0,13.498 9.891,25.56 26.832,25.56 5.356,0 9.834,-1.319 14.669,-3.012 l 1.701,-8.63 c -4.135,3.404 -10.817,5.418 -16.849,5.418 -10.841,0 -17.756,-7.849 -17.709,-19.808 z m 1.431,-8.948 c 1.149,-5.92 6.628,-11.952 13.184,-11.952 10.018,0 12.917,7.817 12.917,11.952 -0.002,0 -26.101,0.019 -26.101,0 z"
     id="path4" /></g>
    </g>
    <g
   id="path2"
   style="opacity:1"><path
     style="baseline-shift:baseline;display:inline;overflow:visible;vector-effect:none;fill:#ffffff;stroke-linecap:round;stroke-linejoin:round;paint-order:markers stroke fill;enable-background:accumulate;stop-color:#000000;stop-opacity:1"
     d="m 57.826172,0.04882812 c -4.028328,-0.21534697 -6.632824,0.63985033 -7.558594,0.69726563 a 7.50075,7.50075 0 0 0 -2.25,0.49414065 c 0.807604,-0.31329464 -0.518291,0.1049857 -1.814453,0.390625 -1.296162,0.2856392 -2.902395,0.6315642 -4.685547,1.2675781 a 7.50075,7.50075 0 0 0 -0.363281,0.1386719 c -4.065847,1.692409 -5.882268,2.5307187 -9.958985,4.5625 a 7.50075,7.50075 0 0 0 -1.111328,0.6796875 c -0.953789,0.7043145 -2.803714,1.4721074 -5.451172,3.4003911 -1.198371,0.632886 -2.097952,1.284404 -2.693359,1.798828 -0.40528,0.350155 -0.722646,0.653871 -0.90625,0.830078 -0.04664,0.04476 -0.03909,0.03816 -0.0625,0.06055 a 7.50075,7.50075 0 0 0 -0.03125,0.02344 c -1.173874,1.03757 -2.372623,1.442936 -4.755859,3.826172 a 7.50075,7.50075 0 0 0 -0.353516,0.378906 c -0.587464,0.674686 -2.314396,2.559456 -3.636719,4.294922 -3.2073869,3.971511 -5.0258631,8.022193 -6.4707028,10.865234 l 0.1152344,-0.21875 c -1.6346722,2.96882 -1.9692046,4.818628 -2.3203125,5.5625 a 7.50075,7.50075 0 0 0 -0.4785156,1.330079 c 0.085639,-0.332244 -0.2261748,0.646811 -0.5429687,1.509765 -0.316794,0.862955 -0.6607396,1.083728 -1.0253907,3.476563 a 7.50075,7.50075 0 0 0 -0.068359,0.630859 c -0.04234,0.633741 -0.3680401,1.001198 -0.91210932,3.865234 a 7.50075,7.50075 0 0 0 -0.009766,0.05469 c -0.7022307,3.849616 -0.3220687,6.307338 -0.43164063,7.271484 a 7.50075,7.50075 0 0 0 0.06445313,2.146485 c 0.0735822,0.418499 0.16597864,3.012674 0.22851563,1.86914 a 7.50075,7.50075 0 0 0 0.0371094,1.263672 c 0.4980026,4.344873 1.54927365,6.666127 1.96484375,9.046875 a 7.50075,7.50075 0 0 0 0.3886719,1.40625 c 0.1541649,0.400197 1.2672826,4.338145 3.0214843,7.941406 L 5.3359375,79.855469 c 0.734749,2.36604 1.5040478,3.446757 2.2792969,4.822265 0.7752491,1.375508 1.6064603,2.806909 1.6347656,2.861328 a 7.50075,7.50075 0 0 0 0.6152344,0.988282 c 3.4142566,4.634982 6.9620786,8.295941 10.9570316,10.894531 0.843437,0.710535 1.473428,1.184925 2.230468,1.701175 0.985156,0.6718 1.627198,1.16529 3.03125,1.88476 2.317778,1.24583 5.053029,2.32722 7.025391,3.06641 a 7.50075,7.50075 0 0 0 0.433594,0.14844 c 3.175966,0.97395 8.558006,2.5182 14.398437,3.21484 a 7.50075,7.50075 0 0 0 0.0039,0 c 5.963814,0.70795 11.206949,0.22663 15.730469,-0.18359 a 7.50075,7.50075 0 0 0 0.837891,-0.12305 c 2.882817,-0.59469 5.332035,-1.43023 6.966797,-1.95508 a 7.50075,7.50075 0 0 0 0.4375,-0.15625 c 4.441416,-1.73596 7.361415,-3.19108 10.585937,-5.11523 l 0.0039,-0.002 c 2.15422,-1.28388 3.87106,-2.26209 5.808594,-3.874996 0.0028,-0.0023 0.007,-0.0036 0.0098,-0.0059 1.930088,-1.570348 3.941716,-3.296257 5.880859,-5.585937 4.413916,-5.043693 6.695819,-10.359824 7.935549,-14.507813 a 7.50075,7.50075 0 0 0 0.0898,-0.328125 c 0.89412,-3.574552 1.81109,-7.919672 0.90625,-13.658203 -0.0506,-0.555829 -0.1441,-0.851861 -0.20703,-1.396484 2.88313,2.65466 6.94042,3.911294 11.16406,2.902344 2.51565,-0.60045 4.63207,-2.385239 5.71875,-3.994141 1.08732,-1.609836 1.48238,-3.031403 1.72852,-4.222656 0.49228,-2.382506 0.37588,-3.888733 0.21289,-5.232422 a 7.50075,7.50075 0 0 0 -0.125,-0.732422 l -1.3125,-5.863281 0.0625,0.302734 c -0.58217,-3.220832 -1.20876,-6.095313 -3.38867,-10.466797 l -0.002,-0.002 c -1.85629,-3.723992 -3.97831,-7.716531 -6.17382,-10.917969 a 7.50075,7.50075 0 0 0 -0.0664,-0.0957 c -1.04306,-1.472064 -2.68184,-3.904 -3.98242,-5.576172 a 7.50075,7.50075 0 0 0 -0.004,-0.0059 c -1.818,-2.332753 -3.63006,-4.090056 -5.78125,-5.796875 C 97.122132,9.7795264 91.138425,6.1649502 84.890625,4.2558594 a 7.50075,7.50075 0 0 0 0,-0.00195 C 83.108667,3.7096298 78.698339,2.1729499 73.861328,1.421875 70.268242,0.6700033 67.376265,0.5329665 65.791016,0.44140625 l 0.246093,0.0195313 C 63.440622,0.22516335 60.68756,0.04268432 57.826172,0.04882812 Z M 34.113281,13.626953 c -0.02767,0.01517 -0.05822,0.04136 -0.08594,0.05664 -0.03913,0.02288 -0.06827,0.02973 -0.107422,0.05273 z m -1.785156,13.751953 c -0.04876,0.03498 -0.06733,0.07043 -0.115234,0.105469 -0.08342,0.06695 -0.160444,0.09994 -0.244141,0.167969 z m 55.548828,0.34961 0.65625,0.541015 c -0.140854,-0.130256 -0.311421,-0.219707 -0.455078,-0.347656 -0.08194,-0.06165 -0.117689,-0.132152 -0.201172,-0.193359 z m -47.785156,2.667968 c -0.0052,0.003 -0.01434,0.01066 -0.01953,0.01367 -0.04655,0.02844 -0.08193,0.04546 -0.128907,0.07422 z m -5.03125,3.626953 c -0.0059,0.0054 -0.0059,0.0082 -0.01172,0.01367 -0.0071,0.0066 -0.01242,0.007 -0.01953,0.01367 z m 11.730469,2.097657 c -0.05591,0.02532 -0.07958,0.06033 -0.134766,0.08594 -0.09501,0.04827 -0.179577,0.06458 -0.275391,0.115235 z m 48.912109,0.505859 0.164062,0.244141 c -0.03784,-0.05843 -0.09649,-0.134238 -0.134765,-0.19336 -0.02833,-0.04049 0.001,-0.0078 -0.0293,-0.05078 z m -22.136719,2.654297 0.05469,0.03516 c -0.01214,-0.0077 -0.02109,-0.01 -0.0332,-0.01758 -0.0086,-0.0053 -0.01291,-0.01227 -0.02148,-0.01758 z m -46.541015,7.292969 c -0.01083,0.02605 -0.0088,0.0482 -0.01953,0.07422 -0.01849,0.04773 -0.0442,0.08288 -0.0625,0.13086 z m 64.623046,1.152343 0.09766,0.337891 c -0.0063,-0.02412 -0.01706,-0.04236 -0.02344,-0.06641 -0.0294,-0.09479 -0.04429,-0.175723 -0.07422,-0.271485 z m -66.339843,9.521485 c 0,0.111507 0.02183,0.186051 0.02344,0.294922 0.0047,0.07394 -0.01105,0.156769 -0.0059,0.230468 z m -17.1093752,3.49414 c 3.825e-4,0.103684 0.027598,0.150138 0.029297,0.251954 0.013732,0.17331 -0.013197,0.220401 0.00391,0.40625 z m 60.8027342,6.369141 -0.486328,1.75 c 0.113742,-0.275025 0.09053,-0.538518 0.181641,-0.8125 0.08931,-0.314999 0.256996,-0.620932 0.304687,-0.9375 z m 16.001953,2.09375 -0.05273,0.519531 c 0.0163,-0.119904 0.0043,-0.226305 0.01953,-0.345703 0.0047,-0.06021 0.02924,-0.113376 0.0332,-0.173828 z m -41.923828,4.029297 c 0.1149,0.08615 0.161834,0.0834 0.269531,0.160156 0.166741,0.105375 0.218674,0.180121 0.402344,0.289063 z m -9.550781,5.173828 c 0.03708,0.04047 0.0762,0.05188 0.113281,0.0918 0.07662,0.07601 0.114965,0.148558 0.193359,0.224609 z m -6.408203,3.804688 c 0.003,0.0031 0.0068,0.0047 0.0098,0.0078 0.0049,0.0052 0.0049,0.0085 0.0098,0.01367 z m 50.421875,0.818359 -0.652344,0.539062 c 0.120088,-0.08837 0.174641,-0.195435 0.291016,-0.285156 0.109317,-0.09808 0.251462,-0.152054 0.361328,-0.253906 z m -11.876953,6.615234 a 7.50075,7.50075 0 0 0 -0.05859,0.234375 c -0.0088,-0.08914 -0.01121,-0.118655 -0.01953,-0.203125 0.02769,-0.0107 0.05065,-0.02055 0.07813,-0.03125 z m -27.615235,0.181641 c 0.02277,0.01005 0.04559,0.01152 0.06836,0.02148 0.01667,0.0071 0.03215,0.02032 0.04883,0.02734 z m 25.857422,0.53125 -0.75,0.251953 c 0.181128,-0.05029 0.240569,-0.107858 0.416016,-0.160156 0.122088,-0.04569 0.209667,-0.04263 0.333984,-0.0918 z m 2.011719,2.701172 a 7.50075,7.50075 0 0 0 0.07422,0.0918 c -0.02085,0.0067 -0.04164,0.01092 -0.0625,0.01758 -0.0032,-0.03292 -0.0083,-0.07426 -0.01172,-0.109375 z m -33.806641,4.740234 c 0.04381,0.02233 0.06995,0.01927 0.113281,0.04102 0.07075,0.03228 0.144234,0.08345 0.214844,0.115234 z"
     id="path5" /><path
     style="baseline-shift:baseline;display:inline;overflow:visible;vector-effect:none;fill:#cf3210;stroke-linecap:round;stroke-linejoin:round;paint-order:markers stroke fill;enable-background:accumulate;stop-color:#000000;stop-opacity:1"
     d="m 72.557993,8.7975836 c 3.969,0.596 8.026,1.9840004 10.141,2.6300004 4.261,1.302 11.177,5.351 13.621,7.291 1.157,0.918 3.585,3.323 4.527997,4.533 0.917,1.179 2.667,3.733 3.783,5.308 1.781,2.597 3.874,6.466 5.648,10.025 1.984,3.978 2.12,5.13 2.721,8.455 l 1.311,5.862 c 0.123,1.014 0.227,4.731 -1.957,5.251 -2.181,0.521 -4.199,-0.483 -5.15,-1.955 -1.316,-2.036 -1.133,-4.926 -2.623,-8.234 -1.161,-2.674 -1.666,-6.561 -3.521,-9.355 l -1.452997,-2.458 c -2.573,-3.96 -5.253,-7.103 -6.851,-9.153 -1.411,-1.723 -4.04,-4.064 -6.531,-5.729 -2.306,-1.398 -6.032,-2.993 -8.719,-3.813 -0.856,-0.279 -4.524,-1.357 -6.8,-1.66 -3.093,-0.347 -5.126,-0.836 -8.063,-1.043 -3.63,-0.256 -5.367,-0.578 -10.074,-0.028 -1.783,0.484 -4.605,0.676 -7.147,1.647 -2.053,0.837 -4.906,2.189 -7.703,3.832 -3.012,1.651 -7.578,5.026 -10.609,7.907 -3.054,3.263 -4.582,5.014 -6.687,9.15 -0.931,2.046 -2.736,5.213 -3.464,7.447 -0.497,2.269 -1.443,6.5 -1.286,8.556 0.073,3.681 -0.25,4.44 0.027,7.45 0.01,2.71 0.899,4.588 1.27,6.806 0.315,1.53 1.787,6.828 2.694,8.062 4.129,8.9 9.675,12.755 15.856,15.537 1.742,0.888 7.191,2.346 8.767,2.763 2.69,0.485 6.227,0.81 9.633,0.875 3.583,0.069 8.522,-0.414 11.517,-1.519 3.244,-1.193 6.997,-2.891 6.953,-2.84 1.504,-0.832 3.802,-2.187 4.516,-2.781 1.383,-0.885 2.217,-1.228 3.034,-2.08 1.184,-1.033 1.898,-1.629 2.794,-2.91 a 61.17,61.17 0 0 1 2.059,-2.805 c 0.83,-1.36 1.307,-2.793 2.116,-4.564 0.968,-2.623 0.818,-2.496 1.003,-5.277 0.175,-0.807 -0.02,-3.519 -0.164,-3.979 -0.437,-2.502 -0.283,-4.709 -0.856,-7.139 -0.771,-3.287 -1.417,-5.747 -2.402,-8.899 -0.929,-3.549 -3.656,-6.838 -5.702,-9.188 -1.268,-1.457 -5.201,-4.895 -10.658,-7.043 -1.538,-0.517 -4.05,-1.103 -5.647,-1.395 -3.41,-0.356 -3.965,-0.127 -7.229,0.111 -1.124,0.196 -3.731,0.729 -4.692,1.066 -2.804,0.985 -3.835,1.611 -6.702,3.366 -1.334,0.775 -2.34,1.368 -3.705,2.646 -1.089,1.008 -1.868,2.72 -2.748,3.725 -1.209,1.644 -2.554,3.836 -3.456,6.201 -0.978,2.353 -1.293,5.664 -1.143,7.795 0,1.621 0.441,4.598 0.616,5.246 0.176,0.65 0.616,2.67 0.71,3.076 0.097,0.405 1.145,2.541 1.292,2.853 0.593,1.261 1.726,3.069 3.633,4.919 1.411,1.54 4.133,3.05 6.174,3.635 1.828,1.006 4.912,1.174 6.62,1.178 0.839,-0.053 2.984,-0.184 4.103,-0.451 2.271,-0.545 2.688,-0.56 5.028,-1.575 2.1,-0.974 3.523,-1.325 4.986,-2.403 0,0 2.007,-1.572 2.919,-2.724 0.481,-0.604 1.306,-3.5 1.161,-5.293 -0.069,-2.453 0.289,-3.845 -0.214,-5.863 -0.5,-2.019 -1.354,-4.358 -2.281,-5.8 -0.939,-1.46 -2.956,-2.882 -5.251,-4.017 -1.288,-0.636 -4.333,-1.224 -5.627,-1.376 -2.453,-0.292 -4.506,0.823 -5.753,2.097 -1.082,1.236 -3.22,3.803 -2.369,6.457 0.771,2.4 1.703,4.959 5.304,4.77 2.473,0.516 5.33,-0.229 6.283,0.207 1.413,0.803 1.955,2.573 1.443,3.811 -0.359,2.383 -2.643,2.668 -5.076,2.852 -2.18,0.365 -7.715,-0.702 -8.93,-1.613 -0.816,-0.484 -2.067,-1.647 -2.946,-2.435 -0.633,-0.568 -1.346,-1.828 -1.837,-2.734 -0.598,-1.114 -0.903,-1.933 -1.057,-2.657 -0.185,-0.86 -0.562,-2.506 -0.419,-4.149 0.099,-1.108 0.394,-1.582 0.688,-3.203 0.589,-1.84 1.32,-3.239 2.498,-4.834 1.532,-1.556 3.479,-3.408 5.38,-4.269 1.676,-0.886 4.613,-1.211 7.268,-1.056 2.156,0.206 4.702,0.469 6.389,1.033 2.884,1.03 3.708,1.236 6.077,2.73 1.999,1.237 4.012,3.516 5.136,5.402 2.39,4.89 3.76,10.328 2.764,17.653 -0.081,1.236 -0.466,2.443 -1.237,4.084 -0.714,1.511 -1.96,3.35 -3.838,4.732 -0.754,0.699 -1.946,1.561 -2.915,2.063 -1.375,0.834 -2.299,1.269 -3.733,1.989 -1.26,0.594 -2.73,1.27 -4.646,1.802 -2.076,0.821 -3.67,0.854 -6.281,1.243 -2.568,0.646 -9.602,0.187 -13.792,-1.662 -2.857,-1.203 -6.064,-3.321 -8.505,-5.904 -1.354,-1.422 -2.681,-3.996 -3.069,-4.523 -1.94,-3.729 -2.319,-7.233 -2.631,-7.973 -0.422,-1 -0.631,-3.244 -0.916,-4.779 -0.319,-1.724 -0.122,-8.941 1.617,-13.573 0.981,-1.845 1.555,-3.49 2.217,-4.353 1.193,-1.696 1.769,-2.755 2.782,-3.957 1.528,-1.852 2.64,-3.364 4.127,-4.431 3.793,-3.083 6.959,-4.711 11.245,-6.746 5.324,-2.168 6.923,-1.72 11.964,-1.639 2.267,0.02 5.566,0.733 7.189,1.027 3.012,0.401 4.738,1.127 6.773,1.695 2.178,0.608 3.436,1.58 5.226,2.659 1.47,0.949 3.202,2.251 4.345,3.308 2.927,2.146 4.337,4.401 6.131,7.171 0.327,0.464 2.455,5.002 2.794,6.266 0.158,0.633 0.638,2.449 0.949,3.511 0.396,1.685 0.591,3.176 1.036,5.078 0.396,1.957 1.072,5.652 1.364,9.107 0.495,2.965 -0.296,9.016 -0.76,10.871 -1.035,3.463 -2.85,7.69 -6.428,11.762 -1.519,1.804 -3.135,3.199 -5.003,4.717 -1.427,1.189 -2.653,1.886 -4.861,3.202 -2.996,1.788 -5.276,2.931 -9.477,4.572996 -1.71,0.549 -3.866,1.271 -6.188,1.75 -4.499,0.408 -9.123,0.805 -14.169,0.206 -5.047,-0.602 -10.102,-2.022996 -13.089,-2.938996 -1.649,-0.618 -4.841,-1.955 -6.178,-2.68 -0.872,-0.44 -3.793,-2.438 -4.288,-2.918 -2,-1.237 -6.479,-5.449 -9.371,-9.375 -0.633,-1.217 -2.911,-4.854 -3.406,-6.448 -1.313,-2.697 -2.229,-5.96 -2.7660004,-7.354 -0.568,-3.254 -1.528,-5.348 -1.902,-8.611 0.042,-0.768 -0.154,-2.577 -0.33,-3.578 0.254,-2.235 -0.086,-4.339 0.358,-6.773 0.39,-2.053 0.904,-2.91 1.028,-4.766 0.121,-0.794 1.1410004,-3.182 1.4150004,-4.245 0.826,-1.75 1.03,-3.191 2.107,-5.147 1.549,-3.048 3.172,-6.554 5.662,-9.617 0.712,-0.95 2.729,-3.228 3.416,-4.017 1.625,-1.625 2.578,-1.881 4.421,-3.51 0.19,-0.12 1.409,-1.508 2.685,-1.985 2.111,-1.632 3.937,-2.23 5.948,-3.715 4.029,-2.008 5.497,-2.686 9.497,-4.3510004 2.313,-0.825 5.534,-1.28 6.694,-1.73 2.209,-0.137 4.451,-0.841 6.773,-0.702 2.607,-0.024 5.234,0.162 7.855,0.4 1.766,0.102 4.072,0.188 7.199,0.868 z"
     id="path6" /></g>
</svg>
