<?xml version="1.0" encoding="UTF-8" standalone="no"?>
<!-- Created with Inkscape (http://www.inkscape.org/) -->

<svg
   id="svg2"
   xml:space="preserve"
   height="108.43524"
   viewBox="0 0 605.62415 108.43526"
   width="605.62421"
   version="1.1"
   sodipodi:docname="dxx-rebirth.svg"
   inkscape:version="1.4.3 (0d15f75042, 2025-12-25)"
   xmlns:inkscape="http://www.inkscape.org/namespaces/inkscape"
   xmlns:sodipodi="http://sodipodi.sourceforge.net/DTD/sodipodi-0.dtd"
   xmlns:xlink="http://www.w3.org/1999/xlink"
   xmlns="http://www.w3.org/2000/svg"
   xmlns:svg="http://www.w3.org/2000/svg"
   xmlns:rdf="http://www.w3.org/1999/02/22-rdf-syntax-ns#"
   xmlns:cc="http://creativecommons.org/ns#"
   xmlns:dc="http://purl.org/dc/elements/1.1/"><sodipodi:namedview
     id="namedview15"
     pagecolor="#8e8e8e"
     bordercolor="#666666"
     borderopacity="1.0"
     inkscape:pageshadow="2"
     inkscape:pageopacity="0.0"
     inkscape:pagecheckerboard="0"
     showgrid="false"
     inkscape:zoom="1.398259"
     inkscape:cx="316.46498"
     inkscape:cy="2.1455253"
     inkscape:window-width="1920"
     inkscape:window-height="1080"
     inkscape:window-x="0"
     inkscape:window-y="0"
     inkscape:window-maximized="0"
     inkscape:current-layer="svg2"
     inkscape:showpageshadow="2"
     inkscape:deskcolor="#d1d1d1" /><metadata
     id="metadata8"><rdf:RDF><cc:Work
         rdf:about=""><dc:format>image/svg+xml</dc:format><dc:type
           rdf:resource="http://purl.org/dc/dcmitype/StillImage" /></cc:Work></rdf:RDF></metadata><defs
     id="defs6"><linearGradient
       id="linearGradient4453"><stop
         id="stop4425"
         stop-color="#570000"
         offset="0" /><stop
         id="stop4427"
         stop-color="#f40c00"
         offset="1" /></linearGradient><linearGradient
       id="linearGradient4501"
       y2="234.2975"
       xlink:href="#linearGradient4453"
       gradientUnits="userSpaceOnUse"
       x2="878.95581"
       gradientTransform="translate(588.6664,297.8687)"
       y1="305.00821"
       x1="877.98511" /><linearGradient
       id="linearGradient4503"
       y2="245.7854"
       xlink:href="#linearGradient4453"
       gradientUnits="userSpaceOnUse"
       x2="1098.501"
       gradientTransform="matrix(0.8,0,0,-0.8,551.5433,700.0761)"
       y1="146.6666"
       x1="1098.233" /></defs><path
     style="baseline-shift:baseline;display:inline;overflow:visible;vector-effect:none;fill:#ffffff;stroke:none;stroke-width:10;stroke-linecap:round;stroke-linejoin:round;stroke-dasharray:none;stroke-opacity:1;paint-order:markers stroke fill;enable-background:accumulate;stop-color:#000000"
     d="m 564.58993,101.44326 a 5.0005,5.0005 0 0 1 -5.6835,-0.44677 l -23.606,-19.291992 a 5.0005,5.0005 0 0 1 -1.77738,-3.1128 l -6.88475,-44.81445 a 5.0005,5.0005 0 0 1 4.94138,-5.759288 h 19.44825 a 5.0005,5.0005 0 0 1 4.92675,4.152838 l 11.0425,64.104012 a 5.0005,5.0005 0 0 1 -2.40725,5.16845 z m -9.71925,-16.66015 -8.05663,-46.76515 h -9.40912 l 5.7105,37.158213 z M 6.4674255,74.709873 a 5.0005,5.0005 0 0 1 -4.9145,-5.922863 L 13.300926,6.2235354 a 5.0005,5.0005 0 0 1 5.554125,-3.4375 l -0.639625,-0.63965 h 15.278375 a 5.0005,5.0005 0 0 1 4.934125,5.81055 L 32.026551,46.955948 a 5.0005,5.0005 0 0 1 1.982375,2.10695 l 14.765625,0.15135 -9.838875,-10.529788 a 5.0005,5.0005 0 0 1 -1.25975,-4.340812 l 5.3125,-28.1250001 a 5.0005,5.0005 0 0 1 4.9145,-4.0722625 h 6.57225 a 5.0005,5.0005 0 0 1 3.671875,1.60645 L 96.323426,45.066298 a 5.0005,5.0005 0 0 1 0.63225,1.726087 L 102.6393,6.4481479 a 5.0005,5.0005 0 0 1 4.95113,-4.3017625 h 19.939 a 5.0005,5.0005 0 0 1 4.48487,4.108875 5.0005,5.0005 0 0 1 4.79488,-4.108875 h 7.03125 a 5.0005,5.0005 0 0 1 3.5035,1.4331125 L 161.71405,17.70546 a 5.0005,5.0005 0 0 1 -3.50587,8.56445 h -22.981 a 5.0005,5.0005 0 0 1 -4.64113,-4.53125 l -1.34275,9.84375 a 5.0005,5.0005 0 0 1 4.51413,-3.56445 h 7.03125 a 5.0005,5.0005 0 0 1 3.50587,1.435563 l 14.36775,14.125975 a 5.0005,5.0005 0 0 1 -2.10937,7.629387 h 2.2875 a 5.0005,5.0005 0 0 1 3.63037,1.5625 l 12.77838,13.500988 a 5.0005,5.0005 0 0 1 -3.63288,8.43505 H 98.776926 a 5.0005,5.0005 0 0 1 -4.951125,-5.6958 l 2.453625,-17.421875 a 5.0005,5.0005 0 0 1 -0.2685,0.573737 l -23.4375,21.25 a 5.0005,5.0005 0 0 1 -3.359375,1.296388 z m 426.2475045,0 a 5.0005,5.0005 0 0 1 -4.98288,-4.580088 l -5.105,-60.4174871 a 5.0005,5.0005 0 0 1 8.22275,-4.2285 l 20.60538,17.5439371 a 5.0005,5.0005 0 0 1 1.731,3.276363 l 2.09225,19.594737 -1.04975,-11.303712 a 5.0005,5.0005 0 0 1 8.04925,-4.406738 L 483.5328,46.733798 479.08705,9.8807479 a 5.0005,5.0005 0 0 1 8.05663,-4.5288 l 22.29,17.5537121 a 5.0005,5.0005 0 0 1 1.84825,3.168938 l 6.57462,42.875987 a 5.0005,5.0005 0 0 1 -4.94137,5.756838 h -29.88775 a 5.0005,5.0005 0 0 1 -3.14688,-1.113275 l -22.1875,-17.96875 a 5.0005,5.0005 0 0 1 -1.72125,-3.217775 l 1.7895,16.770012 a 5.0005,5.0005 0 0 1 -4.97312,5.532238 z m -239.812,-0.0025 a 5.0005,5.0005 0 0 1 -3.684,-1.61865 L 175.3908,58.027685 a 5.0005,5.0005 0 0 1 3.684,-8.38135 h 22.34375 L 189.1578,36.418798 a 5.0005,5.0005 0 0 1 3.667,-8.400875 h 36.84813 a 5.0005,5.0005 0 0 1 3.47662,1.40625 l 17.96875,17.375475 a 5.0005,5.0005 0 0 1 -0.1175,7.297375 l -21.30362,19.316412 a 5.0005,5.0005 0 0 1 -3.357,1.293938 z m 155,0 a 5.0005,5.0005 0 0 1 -4.9975,-4.8584 L 341.14268,7.2854979 a 5.0005,5.0005 0 0 1 4.99762,-5.1391625 h 20.51263 a 5.0005,5.0005 0 0 1 4.35062,3.3740125 5.0005,5.0005 0 0 1 4.16988,-3.239725 l 7.32425,-0.1342875 -0.63963,0.6518625 a 5.0005,5.0005 0 0 1 3.94775,0.52 l 18.70113,15.7080751 a 5.0005,5.0005 0 0 1 -3.19338,8.828125 l -15.54437,0.07075 a 5.0005,5.0005 0 0 1 0.57862,0.207525 l 19.6265,16.059562 a 5.0005,5.0005 0 0 1 -2.70025,8.5962 l 2.40725,-0.01713 a 5.0005,5.0005 0 0 1 3.21038,1.1377 l 14.51175,11.938475 a 5.0005,5.0005 0 0 1 -3.17625,8.859863 z M 277.29018,74.49741 a 5.0005,5.0005 0 0 1 -3.13475,-1.10595 L 255.52018,58.391448 a 5.0005,5.0005 0 0 1 -1.86525,-3.89405 V 33.017923 a 5.0005,5.0005 0 0 1 5,-5 h 22.373 a 5.0005,5.0005 0 0 1 3.50587,1.43555 l 16.9775,16.68945 h 35.12463 a 5.0005,5.0005 0 0 1 3.4985,8.571775 l -18.71825,18.35205 a 5.0005,5.0005 0 0 1 -3.501,1.430662 z M 12.495301,64.709823 h 54.79 l 18.269,-16.56495 -33.266625,-35.998538 h -0.241625 l -4.07225,21.5625 16.0815,17.211913 a 5.0005,5.0005 0 0 1 -3.703625,8.413087 l -30.625,-0.3125 a 5.0005,5.0005 0 0 1 -1.438,-0.69335 5.0005,5.0005 0 0 1 -7.44625,-4.97315 l 6.762625,-41.2085 h -5.241625 z m 424.814379,0 h 9.917 l -3.772,-35.361338 -9.84125,-8.3789 z m -332.77825,-0.0025 h 55.46625 l -3.3105,-3.498538 h -33.47175 a 5.0005,5.0005 0 0 1 -1.7675,-0.800787 5.0005,5.0005 0 0 1 -5.57863,-4.77295 l 5.93263,-43.488763 h -9.86575 z m 90.56875,0 h 29.31162 l 15.9155,-14.43115 -12.67575,-12.2583 h -23.37412 l 12.17537,13.134762 a 5.0005,5.0005 0 0 1 -5.02937,8.21045 l -1.03025,-0.290537 a 5.0005,5.0005 0 0 1 -0.92775,0.573737 H 190.4518 Z m 157.66362,0 h 53.51313 l -2.33875,-1.923825 -35.38088,0.2417 a 5.0005,5.0005 0 0 1 -5.02937,-4.8169 l -1.69425,-46.062013 h -10.55175 z m 132.03375,0 h 22.29 l -5.39062,-35.166025 -11.23288,-8.84765 4.15525,34.453125 a 5.0005,5.0005 0 0 1 -5.09762,4.709475 5.0005,5.0005 0 0 1 -5.6275,-0.1709 l -18.64013,-14.509275 0.37113,4.003912 z M 279.05293,64.49736 h 36.82125 l 8.5205,-8.354487 h -24.92925 a 5.0005,5.0005 0 0 1 -3.50588,-1.4331 l -16.9775,-16.6919 h -15.32712 v 14.084475 z m 94.2895,-11.506337 3.09812,-0.022 c -0.0125,-0.0025 -0.015,-2.25e-4 -0.0262,-0.0025 -0.23925,-0.04575 -0.498,-0.07425 -1.11575,-0.329588 -0.30875,-0.127687 -0.72812,-0.284062 -1.38425,-0.847162 -0.1885,-0.1618 -0.41937,-0.524775 -0.6445,-0.812988 z m -246.709,-1.782238 h 3.45212 a 5.0005,5.0005 0 0 1 -2.87837,-4.621587 l 0.0463,-0.42235 -0.67388,4.9414 a 5.0005,5.0005 0 0 1 0.0538,0.1025 z m 260.11962,-7.956537 c 0.74563,-0.0025 1.46813,-0.02137 2.2485,-0.02688 l -7.28512,-5.961938 c 0.0888,2.01425 0.20125,4.560238 0.26125,5.959488 1.449,0.01725 2.87962,0.036 4.77537,0.02925 z m -248.98675,-1.1084 h 5.17325 l -4.19675,-4.125975 h -0.51512 z M 372.48055,29.592585 a 5.0005,5.0005 0 0 1 2.54888,-1.987312 5.0005,5.0005 0 0 1 -2.6685,-1.274425 z M 517.52693,27.832323 A 5.0005,5.0005 0 0 1 512.7613,24.345998 L 507.78093,8.6599479 a 5.0005,5.0005 0 0 1 4.76562,-6.5136625 h 63.79388 a 5.0005,5.0005 0 0 1 3.09325,1.0717875 l 19.9195,15.6860251 a 5.0005,5.0005 0 0 1 -3.09325,8.928225 z m -335.48088,-1.5625 a 5.0005,5.0005 0 0 1 -3.21287,-8.830575 L 193.44005,5.1907229 a 5.0005,5.0005 0 0 1 3.21288,-1.1694375 h 34.375 a 5.0005,5.0005 0 0 1 3.274,1.2207125 l 14.13575,12.2509751 a 5.0005,5.0005 0 0 1 -3.27638,8.77685 z m 80.791,-0.209975 a 5.0005,5.0005 0 0 1 -3.21287,-8.83055 l 14.353,-12.0385751 a 5.0005,5.0005 0 0 1 3.21537,-1.1694375 h 34.375 a 5.0005,5.0005 0 0 1 3.27388,1.2207125 l 13.88912,12.0385751 a 5.0005,5.0005 0 0 1 -3.27387,8.779275 z m 117.88575,-8.11035 6.91888,-0.03175 -6.831,-5.7373 -0.332,0.0075 z m 140.46388,-0.117125 h 60.64212 l -7.22175,-5.686038 h -55.227 z m -380.36863,-1.5625 h 5.17088 l -4.19438,-4.123538 h -0.51512 z m 54.97313,0 h 35.96675 l -2.59525,-2.248538 H 198.4718 Z m 80.7885,-0.209963 h 35.47362 l -2.351,-2.038575 h -30.691 z"
     id="path3" /><path
     style="baseline-shift:baseline;display:inline;overflow:visible;vector-effect:none;fill:#ffffff;stroke:none;stroke-width:10;stroke-linecap:round;stroke-linejoin:round;stroke-dasharray:none;stroke-opacity:1;paint-order:markers stroke fill;enable-background:accumulate;stop-color:#000000"
     d="M 565.32993,107.75477 A 5.0005,5.0005 0 0 1 559.6488,107.308 L 530.5863,83.558003 a 5.0005,5.0005 0 0 1 -1.77975,-3.11035 l -7.5,-48.815931 a 5.0005,5.0005 0 0 1 0.55663,-1.94335 h -9.05038 a 5.0005,5.0005 0 0 1 -1.53562,-1.12305 l 6.47712,42.238761 a 5.0005,5.0005 0 0 1 -4.9415,5.75928 h -32.5 a 5.0005,5.0005 0 0 1 -3.14687,-1.11571 l -21.0425,-17.04103 1.34762,12.62451 a 5.0005,5.0005 0 0 1 -4.97075,5.53223 h -22.5 a 5.0005,5.0005 0 0 1 -3.479,-1.51366 5.0005,5.0005 0 0 1 -2.146,1.51366 h -77.1875 a 5.0005,5.0005 0 0 1 -5,-4.86084 l -0.50537,-17.9663 -21.81875,21.39648 a 5.0005,5.0005 0 0 1 -3.501,1.43066 h -40.625 a 5.0005,5.0005 0 0 1 -3.13475,-1.10595 l -18.63775,-14.99999 a 5.0005,5.0005 0 0 1 -1.86525,-3.89405 v -2.25585 l -23.11763,20.95945 a 5.0005,5.0005 0 0 1 -3.357,1.29639 h -33.4375 a 5.0005,5.0005 0 0 1 -3.684,-1.61865 l -17.5,-19.06249 a 5.0005,5.0005 0 0 1 3.684,-8.38135 h 22.46588 L 184.69755,34.305072 a 5.0005,5.0005 0 0 1 0.21,-6.1792 h -8.34475 a 5.0005,5.0005 0 0 1 -3.21287,-8.833 l 19.375,-16.2500001 a 5.0005,5.0005 0 0 1 3.21287,-1.167 h 34.375 a 5.0005,5.0005 0 0 1 3.274,1.2207 l 18.75,16.2500001 a 5.0005,5.0005 0 0 1 0.7495,2.93703 5.0005,5.0005 0 0 1 0.80075,-2.99073 l 19.375,-16.2500001 a 5.0005,5.0005 0 0 1 3.21288,-1.167 h 34.375 a 5.0005,5.0005 0 0 1 3.27637,1.2207 l 18.75,16.2500001 a 5.0005,5.0005 0 0 1 -3.27637,8.7793 H 284.6488 l 16.14738,15.871581 h 38.57912 a 5.0005,5.0005 0 0 1 2.07038,1.3916 L 340.3128,5.1400219 a 5.0005,5.0005 0 0 1 5,-5.13915004907 h 20.625 A 5.0005,5.0005 0 0 1 370.19568,3.1673719 5.0005,5.0005 0 0 1 374.28743,0.14002185 L 381.78255,8.7185093e-4 A 5.0005,5.0005 0 0 1 385.09068,1.1703119 l 23.4375,19.6875001 a 5.0005,5.0005 0 0 1 -3.19338,8.83056 l -15.09275,0.0684 19.79975,16.201161 a 5.0005,5.0005 0 0 1 -0.454,6.96779 l 14.851,12.21435 -5.04637,-59.7192511 a 5.0005,5.0005 0 0 1 8.22262,-4.2285 l 23.125,19.6875001 a 5.0005,5.0005 0 0 1 1.731,3.27635 l 0.30763,2.88087 a 5.0005,5.0005 0 0 1 6.2305,-0.98389 l 20.90087,16.26953 -4.253,-36.7480401 a 5.0005,5.0005 0 0 1 8.0615,-4.50195 L 505.5203,18.243092 501.79718,6.5121419 A 5.0005,5.0005 0 0 1 506.5628,8.9185093e-4 h 69.0625 A 5.0005,5.0005 0 0 1 578.71855,1.0726819 l 25,19.6875001 a 5.0005,5.0005 0 0 1 -3.09325,8.92821 h -45.78362 a 5.0005,5.0005 0 0 1 0.39787,0.33448 l 12.5,72.565918 a 5.0005,5.0005 0 0 1 -2.40962,5.166 z m -9.71925,-16.657707 -9.51175,-55.224601 h -14.02338 l 6.32325,41.157211 z M 5.0003005,76.563363 A 5.0005,5.0005 0 0 1 0.08580055,70.640513 L 12.585801,4.0780219 a 5.0005,5.0005 0 0 1 4.9145,-4.07715004907 h 20 A 5.0005,5.0005 0 0 1 42.134176,4.8080119 l 0.139125,-0.73731 a 5.0005,5.0005 0 0 1 4.9145,-4.06983004907 h 6.875 A 5.0005,5.0005 0 0 1 57.734676,1.6073219 L 96.409051,43.457903 101.92418,4.3026219 A 5.0005,5.0005 0 0 1 106.8753,8.7185093e-4 h 22.5 A 5.0005,5.0005 0 0 1 132.6468,1.4901219 5.0005,5.0005 0 0 1 136.09405,8.7185093e-4 h 7.03125 A 5.0005,5.0005 0 0 1 146.6288,1.4339719 l 18.4375,18.1250001 a 5.0005,5.0005 0 0 1 -3.5035,8.5669 h -17.15087 l 17.605,17.307131 a 5.0005,5.0005 0 0 1 0.42975,5.92285 l 15.8715,16.77002 a 5.0005,5.0005 0 0 1 -3.63038,8.43749 H 97.500301 a 5.0005,5.0005 0 0 1 -4.95112,-5.69824 l 1.73337,-12.30225 -18.42525,16.7041 a 5.0005,5.0005 0 0 1 -3.357,1.29639 z m 6.0253755,-9.99999 h 59.5435 L 88.838181,49.998423 51.875301,10.000872 h -0.544375 l -4.07225,21.5625 16.0815,17.209461 a 5.0005,5.0005 0 0 1 -3.703625,8.41309 l -30.625,-0.3125 a 5.0005,5.0005 0 0 1 -4.870625,-5.88379 l 7.378,-40.988761 h -9.873125 z m 92.229004,0 h 59.817 l -7.09963,-7.5 H 122.5003 a 5.0005,5.0005 0 0 1 -4.95362,-5.6958 l 6.07675,-43.366701 h -12.40238 z m 91.13037,0 h 29.30913 l 18.05175,-16.36964 -14.8095,-14.321271 h -27.00688 l 12.456,13.195791 a 5.0005,5.0005 0 0 1 -3.63525,8.43262 h -22.6855 z m 83.11525,0 h 36.81888 l 12.815,-12.56592 H 298.7503 a 5.0005,5.0005 0 0 1 -3.50587,-1.4331 l -16.9775,-16.691891 h -16.167 v 18.295891 z m 74.54838,0 h 58.37887 l -7.2045,-5.9253 -35.38087,0.23926 a 5.0005,5.0005 0 0 1 -5.03175,-4.81446 l -1.69188,-46.062001 h -10.66412 z m 82.54637,0 h 12.34138 L 442.73955,27.200572 430.3788,16.678122 Z m 47.48775,0 h 24.90488 l -6.00588,-39.167471 -14.00875,-11.03273 4.24313,36.655281 a 5.0005,5.0005 0 0 1 -8.03713,4.52147 l -21.19625,-16.499001 0.92525,9.992661 z M 48.059426,47.068733 38.220551,36.538962 a 5.0005,5.0005 0 0 1 -0.813,-2.80519 L 35.029676,46.936903 Z M 252.09993,46.294823 V 30.872462 a 5.0005,5.0005 0 0 1 2.9785,-4.1626 5.0005,5.0005 0 0 1 -1.98,-1.38916 5.0005,5.0005 0 0 1 -4.03563,2.80517 h -15.75187 z m 129.14312,-1.19874 c 0,4e-5 0,-3e-5 0.0125,0 2.78363,0.029 6.56988,0.01 10.3565,-0.0292 0.76213,-0.007 0.77113,-0.0151 1.52588,-0.0244 L 380.82105,34.964372 c 0.23075,5.29858 0.403,9.352781 0.42725,10.131831 z m -244.64112,-1.09863 h 9.68987 l -8.26412,-8.124991 h -0.51513 z m 243.40325,-24.194331 11.65287,-0.0538 -11.56737,-9.7168 -0.498,0.01 z m 136.46487,-0.11475 h 69.72413 l -12.30225,-9.6875 H 513.3963 Z m -376.81637,-1.5625 h 9.68987 l -8.26412,-8.125 h -0.51513 z m 50.65187,0 h 45.354 l -7.212,-6.25 h -30.69087 z m 80.53713,0 h 45.354 l -7.212,-6.25 H 278.2938 Z"
     id="path1" /><g
     id="g10"
     transform="matrix(1.25,0,0,-1.25,-1513.5064,778.20727)"><g
       id="g4505"
       transform="translate(-4.845821,31.91384)"><path
         id="path4497"
         d="m 1230.048,586.5673 -10,-53.25 h 54 l 18.75,17 -33.5,36.25 h -5.5 l -4.25,-22.5 14.25,-15.25 -24.5,0.25 6.75,37.5 z m 71.5,0 -7.5,-53.25 h 61.75 l -13.25,14 h -28.5 l 5.5,39.25 z m 23.375,0 -1.625,-14.5 h 22 l -14.75,14.5 z m 167.375,0 1.5,-53.25 h 61.75 l -15.5,12.75 -29.7531,-0.20313 -1.4969,40.70313 z m 29.25,0 -5.9954,-0.11093 0.6672,-15.75 24.0782,0.11093 z m 34,0 4.5,-53.25 h 18 l -4,37.5 z m 45,0 4.5,-38.875 -24.25,18.875 1.75,-18.875 17.75,-14.375 h 26 l -5.75,37.5 z m 20.75,0 5,-15.75 h 70.25 l -20,15.75 z m -248.5,-1.5 -15.5,-13 h 58 l -15,13 z m 64.4312,0 -15.5,-13 h 58 l -15,13 z m 79.2969,-18.38437 c 0.676,-15.453 0.6765,-15.35612 0.6765,-15.97812 0,-0.50701 24.3454,0 24.3454,0 l -19.5266,15.97812 z m -194.0438,-0.81407 -1.625,-14.5 h 22 l -14.75,14.5 z m 44.2328,0 16.3329,-17.30156 h -27.25 l 14,-15.25 h 26.75 l 18.75,17 -16.0829,15.55156 z m 55.0141,0 V 545.3173 l 14.9094,-12 h 32.5 l 18.4094,18.05156 h -32.5 l -14.75,14.5 z m 215.3188,0 6,-39.05156 23.25,-19 -10,58.05156 z"
         fill="url(#linearGradient4501)"
         style="fill:url(#linearGradient4501)" /><path
         id="path4499"
         d="m 1625.514,586.5667 3.9844,-12.55 h 62.9859 l -15.9359,12.55 z m 15.2266,-20.69844 5.5078,-35.85156 18.8843,-15.43281 -8.8343,51.28437 z m -203.511,19.19844 -11.4828,-9.63125 h 50.0953 l -11.1125,9.63125 z m -14.8297,-19.19844 v -17.18281 l 14.9094,-12 h 32.5 l 14.975,14.68281 h -29.7359 l -14.75,14.5 z m -49.6015,19.19844 -11.6844,-9.8 h 50.4922 l -11.3078,9.8 z m -3.0626,-19.19844 15.9689,-17.22656 -3.4501,0.97656 0.7938,-1.05156 h -24.3126 l 11.0626,-12.05 h 26.75 l 17.0422,15.45156 -14.3751,13.9 z m -68.1874,20.69844 -7.05,-50.05 h 58.2718 l -10.2218,10.8 h -28.5 l 0.214,1.6375 -2.1265,-1.71875 5.364,39.33125 z m 23.375,0 -1.2656,-11.3 h 18.3859 l -11.4953,11.3 z m -2.4406,-20.69844 -1.2657,-11.3 h 18.386 l -11.4953,11.3 z m 169.9062,20.69844 1.4094,-50.05 h 57.8594 l -11.6094,9.55 -29.7531,-0.20312 -1.4969,40.70312 z m 29.1594,0 -5.8594,-0.10781 0.5312,-12.55313 20.2891,0.0938 -14.9609,12.56718 z m -4.886,-19.88438 c 0.3459,-7.89891 0.5406,-12.28069 0.5406,-12.77812 0,-0.37995 13.6677,-0.18916 20.5204,-0.0703 l -15.7016,12.84844 h -5.3594 z m 86.0547,18.17657 4.4837,-37.17127 -2.3866,2.29361 0.2342,-2.28953 -22.2063,17.28438 1.3063,-14.08438 17.75,-14.375 h 23.9094 l -5.2594,34.3 z m -45.1531,-0.008 4.0844,-48.33437 h 16.0594 l -3.6594,34.3 z m -327.5156,1.71563 -9.3985,-50.05 h 50.1985 l 18.75,17 -30.5422,33.05 h -5.2578 l -4.25,-22.5 14.25,-15.25 -24.5,0.25 0.4638,2.32836 -3.6638,-2.44299 6.1734,37.61456 h -12.2234 z"
         fill="url(#linearGradient4503)"
         style="fill:url(#linearGradient4503)" /></g></g></svg>
