<?xml version="1.0" encoding="UTF-8" standalone="no"?>
<svg
   viewBox="0 0 2164.2527 609.86354"
   version="1.1"
   id="svg17"
   sodipodi:docname="easyrpg.svg"
   width="2164.2527"
   height="609.86353"
   inkscape:version="1.4.3 (0d15f75042, 2025-12-25)"
   xmlns:inkscape="http://www.inkscape.org/namespaces/inkscape"
   xmlns:sodipodi="http://sodipodi.sourceforge.net/DTD/sodipodi-0.dtd"
   xmlns="http://www.w3.org/2000/svg"
   xmlns:svg="http://www.w3.org/2000/svg">
  <defs
     id="defs17">
    <radialGradient
       id="a-3"
       cx="-0.60399997"
       cy="-94.244003"
       gradientTransform="matrix(0.6042,0,0,-0.6042,441.85301,-471.06962)"
       gradientUnits="userSpaceOnUse"
       r="226.5">
      <stop
         offset="0"
         stop-color="#d8edca"
         id="stop1-6" />
      <stop
         offset="1"
         stop-color="#9ebf88"
         id="stop2-7" />
    </radialGradient>
    <radialGradient
       id="b-5"
       cx="4.1230001"
       cy="-57.742001"
       gradientTransform="matrix(0.6042,0,0,-0.6042,439.76725,-471.06962)"
       gradientUnits="userSpaceOnUse"
       r="270.065">
      <stop
         offset="0"
         stop-color="#688c51"
         id="stop3-3" />
      <stop
         offset=".475"
         stop-color="#587b42"
         id="stop4-5" />
      <stop
         offset="1"
         stop-color="#42632d"
         id="stop5-6" />
    </radialGradient>
  </defs>
  <sodipodi:namedview
     id="namedview17"
     pagecolor="#a5a5a5"
     bordercolor="#000000"
     borderopacity="0.25"
     inkscape:showpageshadow="2"
     inkscape:pageopacity="0.0"
     inkscape:pagecheckerboard="0"
     inkscape:deskcolor="#d1d1d1"
     inkscape:zoom="0.23972055"
     inkscape:cx="848.9051"
     inkscape:cy="83.430477"
     inkscape:window-width="1920"
     inkscape:window-height="1080"
     inkscape:window-x="0"
     inkscape:window-y="0"
     inkscape:window-maximized="0"
     inkscape:current-layer="svg17" />
  <radialGradient
     id="a"
     cx="-0.60399997"
     cy="-94.244003"
     gradientTransform="matrix(0.6042,0,0,-0.6042,49.728098,119.62314)"
     gradientUnits="userSpaceOnUse"
     r="226.5">
    <stop
       offset="0"
       stop-color="#d8edca"
       id="stop1" />
    <stop
       offset="1"
       stop-color="#9ebf88"
       id="stop2" />
  </radialGradient>
  <radialGradient
     id="b"
     cx="4.1230001"
     cy="-57.742001"
     gradientTransform="matrix(0.6042,0,0,-0.6042,49.728098,119.62314)"
     gradientUnits="userSpaceOnUse"
     r="270.065">
    <stop
       offset="0"
       stop-color="#688c51"
       id="stop3" />
    <stop
       offset=".475"
       stop-color="#587b42"
       id="stop4" />
    <stop
       offset="1"
       stop-color="#42632d"
       id="stop5" />
  </radialGradient>
  <g
     id="g44"
     transform="matrix(1.5197677,0,0,1.5197677,78.317283,992.1372)">
    <path
       style="baseline-shift:baseline;display:inline;overflow:visible;vector-effect:none;fill:#ffffff;enable-background:accumulate;stop-color:#000000"
       d="m 157.07715,-652.82161 c -34.61831,0 -68.074117,13.39391 -92.326167,37.67383 -0.003,0.003 -0.007,0.005 -0.01,0.008 -1.8149,1.81497 -3.56423,3.6905 -5.27148,5.60547 -59.94226983,31.78701 -100.79155,94.76628 -101.18555,166.88672 -1.95343,3.81494 -3.61169,7.70436 -4.7539,11.56836 l -0.0606,0.20508 -0.0586,0.20703 c -9.62302,33.9773 -5.07457,70.64715 12.58203,101.23047 v 0.002 c 17.31138,29.98227 45.64229,52.25886 78.79687,61.12109 11.9904,3.20581 24.32397,4.6688 36.60156,4.37891 20.873387,7.86618 43.417767,12.40039 66.923827,12.40039 25.90403,0 50.75618,-5.24806 73.37305,-14.71289 12.37231,4.76531 26.42815,5.32273 38.0293,2.53125 l 0.20898,-0.0508 0.20703,-0.0527 c 34.23624,-8.65451 63.72144,-30.92688 81.37891,-61.51172 17.31029,-29.98134 22.4381,-65.65375 13.53516,-98.79882 -3.76571,-14.02477 -9.81843,-27.29235 -17.89844,-39.16993 -5.94988,-52.17728 -33.14409,-98.04694 -72.67374,-128.6446 -3.17718,-7.96888 -7.79361,-15.22063 -13.13867,-20.84765 l -0.14844,-0.15625 -0.15039,-0.1543 c -24.61361,-25.32095 -58.64534,-39.71875 -93.96094,-39.71875 z m 0,75 c 15.67249,0 25.90825,3.73817 36.67188,13.62891 l -0.33594,14.64257 17.52344,11.39649 c 30.01946,19.52348 50.3671,52.48209 52.29883,90.59961 l 0.64453,12.7168 8.25586,9.69531 c 4.83204,5.67549 8.20056,11.97707 10.47851,20.46094 v 0.002 0.002 c 4.13968,15.40988 2.74033,26.61617 -6.05273,41.8457 -7.08404,12.27039 -14.62071,19.14282 -26.29297,23.58985 l -13.63086,-20.5918 -30.58984,17.78906 c -16.97714,9.87298 -36.53693,15.50977 -57.73243,15.50977 -16.49051,0 -31.96933,-3.42567 -46.0664,-9.59375 l -9.060547,-3.96289 -9.83789,1.01953 c -6.04746,0.62659 -12.16737,0.18019 -19.18945,-1.69727 l -0.002,-0.002 c -15.41378,-4.11986 -24.41907,-10.93469 -33.21289,-26.16406 l -0.002,-0.002 c -8.2127,-14.22627 -9.86729,-25.34715 -6.01563,-40.67579 l 9.64649,-9.35742 -1.08594,-17.24218 c -0.15956,-2.53401 -0.24414,-4.99222 -0.24414,-7.39063 0,-46.34952 27.10561,-85.78283 66.09765,-104.1582 l 8.089847,-3.8125 5.49804,-7.05274 c 1.50393,-1.929 3.12551,-3.76301 4.85547,-5.49218 l 0.0117,-0.0117 0.0117,-0.0117 c 11.27333,-11.28847 21.6802,-15.67969 39.26767,-15.67969 z"
       id="path36" />
    <g
       id="g34"
       transform="translate(100.11657,-611.12825)">
      <g
         id="path8"
         style="opacity:1">
        <path
           style="baseline-shift:baseline;display:inline;overflow:visible;vector-effect:none;fill:#ffffff;enable-background:accumulate;stop-color:#000000;stop-opacity:1"
           d="m 216.6271,197.14514 c -3.595,-13.389 -9.647,-25.068 -18.143,-35.047 -2.552,-50.357 -29.526,-94.265997 -69.307,-120.137997 0.005,-0.219 0.018,-0.434 0.018,-0.654 0,-6.056 -2.417,-11.632 -7.251,-16.721 C 103.5711,5.6841426 81.214098,-3.7718574 54.873098,-3.7718574 c -26.105,0 -48.0379996,8.894 -65.801,26.6810004 a 96.934,96.934 0 0 0 -7.919,8.958 c -51.773995,24.399 -87.611998,77.049997 -87.611998,138.079997 0,3.276 0.115,6.524 0.318,9.748 -2.986,2.897 -5.179,6.697 -6.571,11.406 -7.183,25.362 -4.193,49.451 8.977,72.263 13.053003,22.607 31.721003,37.153 56.006003,43.644 11.086,2.964 21.998995,3.883 32.740995,2.77 18.7090004,8.186 39.371,12.738 61.099,12.738 27.915,0 54.075002,-7.503 76.584002,-20.593 1.983,2.996 4.624,5.458 7.939,7.372 5.246,3.028 11.282,3.722 18.106,2.08 25.555,-6.46 44.923,-21.094 58.093,-43.906 13.052,-22.606 16.316,-46.046 9.794,-70.324 z"
           id="path37" />
        <path
           style="baseline-shift:baseline;display:inline;overflow:visible;vector-effect:none;fill:#2e3d25;enable-background:accumulate;stop-color:#000000;stop-opacity:1"
           d="m 54.873047,-18.771484 c -29.507252,0 -56.0466807,10.6922645 -76.404297,31.072265 -0.0013,0.0013 -0.0026,0.0026 -0.0039,0.0039 -0.002,0.002 -0.0039,0.0039 -0.0059,0.0059 -2.35987,2.359382 -4.484069,4.934444 -6.623046,7.49414 -55.283819,27.402104 -93.294914,84.409109 -93.294914,150.142579 0,1.60679 0.10731,3.15445 0.15429,4.73632 -2.54344,3.7236 -4.51109,7.83615 -5.79101,12.16602 l -0.0254,0.082 -0.0234,0.082 c -8.15901,28.80812 -4.54472,57.92909 10.41992,83.84961 v 0.002 c 14.75616,25.55677 37.288784,43.19513 65.12109,50.63477 11.416642,3.0524 22.921397,4.14757 34.291016,3.41406 19.5912187,8.0272 40.990103,12.60156 63.423828,12.60156 26.513323,0 51.662929,-6.21082 73.990236,-17.21484 0.98806,0.69764 1.98789,1.38083 3.03321,1.98438 v 0.002 c 8.70101,5.02224 19.40053,6.00944 29.11523,3.67187 l 0.082,-0.0195 0.084,-0.0215 c 29.02749,-7.33781 52.44321,-25.02809 67.4082,-50.94922 14.75525,-25.55601 18.76331,-53.88824 11.28906,-81.71289 -3.65077,-13.59673 -9.79007,-25.90411 -18.03711,-36.69141 C 209.05484,105.84294 182.44677,61.422161 143.2617,33.476646 141.6257,26.301749 137.88987,19.59099 132.82029,14.25399 l -0.0605,-0.0625 -0.0606,-0.0625 C 111.82997,-7.3400755 84.803888,-18.771484 54.873047,-18.771484 Z m 0,30 c 22.709594,0 40.372199,7.457623 56.226563,23.728515 2.74048,2.897142 3.0957,4.296846 3.0957,6.34961 0,-0.370909 -2.4e-4,-0.277632 -0.0137,0.310546 L 113.99023,49.976562 121,54.535156 c 35.87639,23.332593 60.20002,62.861054 62.50391,108.322264 l 0.25781,5.08594 3.30078,3.87891 c 7.03042,8.25759 12.00994,17.78594 15.07812,29.21289 v 0.002 c 5.56908,20.73075 3.05155,39.27622 -8.29687,58.93164 h -0.002 c -11.35378,19.66608 -26.64212,31.234 -48.65821,36.82812 -3.88349,0.92662 -5.26832,0.53528 -7.04882,-0.49218 h -0.002 c -1.4778,-0.85349 -2.24263,-1.62213 -2.92969,-2.66016 l -7.81249,-11.80469 -12.23633,7.11719 c -20.296256,11.80319 -43.815774,18.55859 -69.042972,18.55859 -19.633007,0 -38.2217068,-4.10163 -55.0859374,-11.48046 l -3.6249996,-1.58399 -3.933594,0.40625 c -8.864186,0.91844 -17.86183,0.18954 -27.322266,-2.33984 -20.736341,-5.5425 -35.539259,-16.99657 -46.888672,-36.65235 v -0.002 c -11.356049,-19.6708 -13.729339,-38.69809 -7.560546,-60.56836 0.794466,-2.6544 1.702589,-3.95422 2.609375,-4.83398 l 4.958984,-4.8125 -0.433594,-6.89649 c -0.185622,-2.948 -0.289062,-5.87972 -0.289062,-8.80468 0,-55.15781 32.344648,-102.522173 79.005859,-124.511723 l 3.2363281,-1.525391 2.1992188,-2.820312 c 2.0732605,-2.659265 4.3084848,-5.188473 6.69335935,-7.572266 l 0.005859,-0.0039 0.003906,-0.0059 C 14.852643,18.320224 32.175057,11.228516 54.873047,11.228516 Z"
           id="path38" />
      </g>
      <g
         id="circle8"
         style="opacity:1">
        <path
           style="baseline-shift:baseline;display:inline;overflow:visible;vector-effect:none;fill:#559338;enable-background:accumulate;stop-color:#000000;stop-opacity:1"
           d="M 199.21411,170.22415 A 152.57001,152.57001 0 0 1 46.644104,322.79416 152.57001,152.57001 0 0 1 -105.9259,170.22415 152.57001,152.57001 0 0 1 46.644104,17.654144 152.57001,152.57001 0 0 1 199.21411,170.22415 Z"
           id="path39" />
        <path
           style="baseline-shift:baseline;display:inline;overflow:visible;vector-effect:none;fill:#88ba68;enable-background:accumulate;stop-color:#000000;stop-opacity:1"
           d="m 46.644531,15.154297 c -85.613188,0 -155.070311,69.457124 -155.070311,155.070313 0,85.61319 69.457123,155.07031 155.070311,155.07031 85.613189,0 155.070309,-69.45712 155.070309,-155.07031 0,-85.613189 -69.45712,-155.070313 -155.070309,-155.070313 z m 0,5 c 82.910989,0 150.070309,67.159324 150.070309,150.070313 0,82.91099 -67.15932,150.07031 -150.070309,150.07031 -82.910988,0 -150.070311,-67.15932 -150.070311,-150.07031 0,-82.910989 67.159323,-150.070313 150.070311,-150.070313 z"
           id="path40" />
      </g>
      <g
         id="circle9"
         style="opacity:1">
        <path
           style="baseline-shift:baseline;display:inline;overflow:visible;vector-effect:none;fill:url(#a);enable-background:accumulate;stop-color:#000000;stop-opacity:1"
           d="m 186.22311,176.56915 a 136.86,136.86 0 0 1 -136.859997,136.86 136.86,136.86 0 0 1 -136.86,-136.86 136.86,136.86 0 0 1 136.86,-136.859998 136.86,136.86 0 0 1 136.859997,136.859998 z"
           id="path41" />
        <path
           style="baseline-shift:baseline;display:inline;overflow:visible;vector-effect:none;fill:#b0d19b;enable-background:accumulate;stop-color:#000000;stop-opacity:1"
           d="m 49.363281,37.208984 c -76.936791,0 -139.359375,62.422584 -139.359375,139.359376 0,76.93679 62.422584,139.36133 139.359375,139.36133 76.936789,0 139.359379,-62.42454 139.359379,-139.36133 0,-76.936792 -62.42259,-139.359376 -139.359379,-139.359376 z m 0,5 c 74.234589,0 134.359379,60.124786 134.359379,134.359376 0,74.23459 -60.12479,134.36133 -134.359379,134.36133 -74.234591,0 -134.359375,-60.12674 -134.359375,-134.36133 0,-74.23459 60.124784,-134.359376 134.359375,-134.359376 z"
           id="path42" />
      </g>
      <g
         id="path9"
         style="opacity:1">
        <path
           style="baseline-shift:baseline;display:inline;overflow:visible;vector-effect:none;fill:url(#b);enable-background:accumulate;stop-color:#000000;stop-opacity:1"
           d="m 217.1611,197.42214 c -6.52,-24.282 -21.104,-42.954 -43.739,-56.023 -22.637,-13.069 -46.148,-16.39 -70.543,-9.957 a 98.69,98.69 0 0 0 -7.998002,2.477 c -2.228,-0.567 -4.629,-0.856 -7.21,-0.856 h -32.265 c -12.085,0 -22.357,-4.3 -30.816,-12.906 -8.459,-8.601 -12.689,-18.963 -12.689,-31.084997 0,-12.113 4.225,-22.414 12.679,-30.897 8.45,-8.483 18.718,-12.727 30.797,-12.727 3.135,0 6.274,0.331 9.418,0.987 l -26.02,25.831 c -5.349,5.277 -8.02,10.91 -8.02,16.9 0,6.712 2.474,12.584997 7.43,17.616997 4.957,5.032 10.815,7.548 17.585,7.548 6.042,0 11.721,-2.436 17.041,-7.313 L 119.2151,61.577143 c 7.006,-5.329 10.513,-11.995 10.513,-19.997 0,-6.056 -2.417,-11.632 -7.251,-16.721 C 104.1051,5.9581426 81.748098,-3.4978574 55.406098,-3.4978574 c -26.106,0 -48.0369996,8.894 -65.801,26.6810004 -17.768,17.788 -26.647995,39.752 -26.647995,65.89 0,26.137997 8.878995,48.159997 26.647995,66.069997 a 98.197,98.197 0 0 0 6.5980004,6.076 c 0.623,2.056 1.527,4.122 2.725,6.197 l 16.1329996,27.943 c 6.042,10.465 7.454,21.512 4.231,33.14 -3.219,11.627 -10.0779996,20.471 -20.5759996,26.532 -10.4900004,6.056 -21.5240004,7.547 -33.0969954,4.467 -11.571,-3.077 -20.38,-9.846 -26.42,-20.308 a 45.935,45.935 0 0 1 -3.854,-8.649 l 35.380995,9.62 c 7.245,1.992 13.458,1.491 18.646,-1.505 5.8130004,-3.357 9.66200044,-8.435 11.54200044,-15.243 1.87999996,-6.81 1.12899996,-13.141 -2.25500004,-19.003 -3.021,-5.233 -7.97,-8.934 -14.8530004,-11.103 l -62.554995,-17.466 c -8.119,-3.402 -15.644,-3.106 -22.574003,0.894 -5.245,3.028 -8.865,7.909 -10.855,14.64 -7.183,25.362 -4.193,49.451 8.977,72.263 13.053003,22.607 31.721003,37.153 56.007003,43.644 24.288995,6.494 47.75099544,3.202 70.386995,-9.867 22.635,-13.069 37.268,-31.77 43.894,-56.113 a 98.448,98.448 0 0 0 1.909,-8.467 c 1.458,-1.561 2.785,-3.367 3.975,-5.428 l 16.133,-27.942 c 6.042,-10.465 14.903002,-17.211 26.585002,-20.234 11.679,-3.025 22.767,-1.508 33.265,4.554 10.49,6.056 17.299,14.865 20.418,26.429 3.122,11.558 1.663,22.573 -4.377,33.034 a 46.042,46.042 0 0 1 -5.563,7.663 l -9.361,-35.449 c -1.896,-7.271 -5.437,-12.4 -10.625,-15.395 -5.813,-3.357 -12.136,-4.151 -18.972,-2.375 -6.836,1.777 -11.945,5.592 -15.329,11.455 -3.021,5.233 -3.752,11.368 -2.188,18.414 l 16.151,62.908 c 1.113,8.731 5.131,15.101 12.061,19.102 5.246,3.028 11.282,3.722 18.106,2.08 25.555,-6.46 44.923,-21.094 58.093,-43.906 13.051,-22.605 16.314,-46.045 9.793,-70.323 z"
           id="path43" />
        <path
           style="baseline-shift:baseline;display:inline;overflow:visible;vector-effect:none;fill:#5b7749;enable-background:accumulate;stop-color:#000000;stop-opacity:1"
           d="m 55.40625,-5.9980469 c -26.673813,0 -49.3737564,9.1939463 -67.570313,27.4140629 -18.200853,18.22134 -27.378906,40.952025 -27.378906,67.65625 0,26.703654 9.176352,49.488474 27.373047,67.830074 2.01841,2.03676 4.139553,3.9672 6.3242189,5.82422 0.6654138,1.98874 1.474069,3.97304 2.609375,5.93946 l 16.1328121,27.94335 c 5.745415,9.95131 7.050264,20.16854 3.986328,31.22266 -3.062321,11.06108 -9.4216413,19.26297 -19.4160151,25.0332 -9.9864729,5.76531 -20.2075059,7.14366 -31.2050779,4.2168 -10.994094,-2.92359 -19.149393,-9.18607 -24.896485,-19.13867 l -0.002,-0.004 c -0.658734,-1.14428 -1.056266,-2.41147 -1.607422,-3.60937 l 30.306641,8.24219 c 6.42e-4,1.7e-4 0.0013,-1.8e-4 0.002,0 l 0.0059,0.002 c 7.697432,2.11469 14.722768,1.61282 20.5527339,-1.75391 6.3446117,-3.664 10.6730291,-9.39772 12.7011719,-16.74219 C 5.3554724,216.72034 4.5178429,209.5584 0.82425875,203.16012 -2.5326333,197.34528 -8.1104328,193.23261 -15.443319,190.92183 l -0.03906,-0.0117 -62.59375,-17.47657 0.292969,0.10157 c -8.674491,-3.63476 -17.226689,-3.32985 -24.78907,1.03515 -5.82109,3.36059 -9.87336,8.88934 -12.0039,16.09571 l -0.004,0.0137 -0.004,0.0137 c -7.34567,25.93635 -4.25036,50.86522 9.21875,74.19531 13.336915,23.09872 32.648039,38.15954 57.525389,44.8086 24.880749,6.65221 49.1568299,3.23493 72.283203,-10.11719 23.125298,-13.35209 38.270883,-32.69117 45.056641,-57.6211 0.728243,-2.67444 1.322398,-5.3823 1.828125,-8.10742 1.377781,-1.56257 2.681955,-3.24405 3.808594,-5.19531 l 16.132812,-27.94141 c 5.745405,-9.95128 13.939366,-16.18867 25.044916,-19.0625 l 0.002,-0.002 c 11.1108,-2.87783 21.39246,-1.47229 31.38671,4.29883 l 0.002,0.002 c 9.98657,5.76537 16.29,13.92511 19.2539,24.91406 2.9666,10.98267 1.61829,21.17895 -4.1289,31.13282 -0.66195,1.14288 -1.56028,2.12061 -2.32227,3.19726 l -8.01758,-30.36328 -0.002,-0.008 c -2.01582,-7.72402 -5.96208,-13.55631 -11.79101,-16.92188 h -0.002 c -6.34465,-3.66349 -13.47557,-4.54468 -20.84961,-2.6289 -7.38568,1.91989 -13.17136,6.22317 -16.86523,12.62304 -3.356688,5.81449 -4.131076,12.70046 -2.46484,20.20704 l 0.01,0.0391 16.16211,62.94922 -0.0586,-0.30664 c 1.18915,9.32837 5.72832,16.58489 13.29101,20.95117 5.82184,3.36037 12.63367,4.10363 19.93945,2.3457 l 0.0137,-0.004 0.0156,-0.004 c 26.13321,-6.60617 46.17537,-21.74876 59.64453,-45.07813 v -0.002 c 13.33423,-23.09637 16.72259,-47.35215 10.04297,-72.2207 -6.67889,-24.87375 -21.77903,-44.187 -44.9043,-57.53907 -23.1273,-13.35206 -47.44661,-16.79705 -72.42968,-10.20898 -2.577608,0.67991 -5.120969,1.48207 -7.636718,2.36328 -2.201245,-0.48865 -4.481661,-0.82617 -6.933594,-0.82617 H 55.40625 c -11.491978,0 -20.991625,-3.97688 -29.033203,-12.1582 -8.047288,-8.18238 -11.972656,-17.79162 -11.972656,-29.332034 0,-11.531669 3.917499,-21.071582 11.951171,-29.132813 8.029594,-8.060952 17.53198,-11.992187 29.025391,-11.992187 1.305301,0 2.620944,0.290843 3.929688,0.412109 L 37.013672,70.492187 c -5.682076,5.607966 -8.757813,11.943067 -8.757813,18.673829 0,7.326322 2.801904,13.942574 8.148438,19.371094 5.35566,5.43669 11.975835,8.29492 19.365234,8.29492 6.713963,0 13.062879,-2.77506 18.730469,-7.9707 l 0.03125,-0.0273 46.43359,-45.470699 -0.23632,0.203125 c 7.48559,-5.693799 11.5,-13.253885 11.5,-21.986328 0,-6.72118 -2.76402,-12.994915 -7.93946,-18.443359 l -0.01,-0.0098 -0.01,-0.0098 C 105.48146,3.78814 82.346534,-5.9980469 55.40625,-5.9980469 Z m 0,5.00000002 c 25.739966,0 47.31516,9.12425738 65.26953,27.59179688 4.48348,4.725242 6.55274,9.600757 6.55274,14.986328 0,7.271558 -3.00095,13.043612 -9.52735,18.007813 l -0.12304,0.09375 -46.460943,45.498049 c -4.971001,4.55563 -9.979163,6.65234 -15.347656,6.65234 -6.1506,0 -11.244394,-2.17543 -15.802734,-6.80273 -4.565466,-4.63548 -6.710938,-9.765607 -6.710938,-15.863284 0,-5.246817 2.263387,-10.176554 7.275391,-15.121094 l 0.002,-0.002 L 69.853516,44.9375 65.306641,43.988281 c -3.305099,-0.689613 -6.618718,-1.041015 -9.929688,-1.041015 -12.664589,0 -23.697953,4.557842 -32.568359,13.46289 -8.874327,8.904769 -13.4082034,19.967778 -13.4082034,32.66211 0,12.703584 4.5374914,23.818264 13.4082034,32.837894 8.876238,9.02995 19.920148,13.65234 32.597656,13.65234 h 32.265625 c 2.39438,0 4.58305,0.26809 6.591797,0.7793 l 0.740234,0.1875 0.716797,-0.25586 c 2.562558,-0.91446 5.164087,-1.72006 7.794927,-2.41407 23.80692,-6.27792 46.50955,-3.08085 68.65624,9.70508 22.14474,12.78593 36.21312,30.81561 42.57422,54.50586 6.36223,23.6869 3.22408,46.31261 -9.54297,68.42578 -12.86905,22.29073 -31.56018,36.41158 -56.53125,42.72657 -6.33337,1.52029 -11.58664,0.87588 -16.25195,-1.81641 h -0.002 c -6.29641,-3.63573 -9.79331,-9.12089 -10.83008,-17.25391 l -0.0195,-0.15429 -16.16992,-62.97852 -0.002,-0.01 c -1.45876,-6.58075 -0.76984,-11.96419 1.91407,-16.61329 3.07412,-5.32612 7.50665,-8.65104 13.79297,-10.28515 6.29735,-1.63606 11.81084,-0.92865 17.09179,2.12109 4.54428,2.62338 7.68037,7.04797 9.45703,13.86133 v 0.004 l 10.54688,39.93359 3.09375,-3.45117 c 2.22749,-2.4843 4.19308,-5.19068 5.86523,-8.07813 l 0.002,-0.002 v -0.002 c 6.33281,-10.96814 7.9024,-22.80222 4.625,-34.93555 -3.27386,-12.13815 -10.58801,-21.59478 -21.58008,-27.94141 l -0.002,-0.002 c -11.00109,-6.35178 -22.89428,-7.98054 -35.14062,-4.80859 -12.25845,3.17217 -21.784452,10.42558 -28.123047,21.40429 l -16.132812,27.94141 c -1.103805,1.91171 -2.318778,3.56161 -3.636719,4.97266 l -0.503906,0.53906 -0.13086,0.72461 c -0.498559,2.77667 -1.118189,5.52998 -1.859375,8.25195 v 0.002 c -6.466241,23.75607 -20.58772,41.81761 -42.732422,54.60352 -22.14562526,12.78588 -44.794946,15.95297 -68.492187,9.61719 -23.69465,-6.33295 -41.717239,-20.36324 -54.486332,-42.47852 -12.86783,-22.28862 -15.75614,-45.53342 -8.74218,-70.31445 1.84993,-6.24978 5.03883,-10.47995 9.70507,-13.17383 6.297637,-3.635 12.793917,-3.92315 20.357426,-0.75391 l 0.142578,0.0606 62.640625,17.49024 c 6.424815,2.02761 10.7427653,5.31534 13.4257816,9.96289 3.0744159,5.32571 3.73855188,10.82563 2.0097657,17.08789 -1.7318573,6.27153 -5.1014235,10.69414 -10.3828123,13.74414 v -0.002 c -4.543995,2.6241 -9.94302,3.1265 -16.732422,1.25977 h -0.0039 l -39.855469,-10.83789 1.439453,4.40625 c 1.036815,3.17177 2.399334,6.22734 4.064453,9.11914 v 0.002 c 6.332787,10.96915 15.796886,18.24458 27.94336,21.47461 12.148417,3.23314 23.996706,1.62794 34.99023388,-4.71875 11.00168012,-6.35158 18.35875012,-15.83618 21.73442912,-28.0291 3.382064,-12.20188 1.863976,-24.07795 -4.47461,-35.05665 L 1.09375,166.16602 c -1.11101092,-1.92433 -1.93489666,-3.81339 -2.4980469,-5.67188 l -0.2148437,-0.71094 -0.5703125,-0.47851 c -2.2324125,-1.8748 -4.3776565,-3.8512 -6.4296875,-5.92188 h -0.00195 C -25.961711,135.90459 -34.542969,114.6441 -34.542969,89.072266 c 0,-25.571775 8.580869,-46.768388 25.9160159,-64.123047 C 8.7044916,7.5953341 29.868063,-0.99804687 55.40625,-0.99804688 Z"
           id="path44" />
      </g>
    </g>
  </g>
  <g
     id="g33"
     transform="translate(269.15304,133.4669)">
    <path
       style="baseline-shift:baseline;display:inline;overflow:visible;vector-effect:none;fill:#ffffff;fill-opacity:1;stroke:none;stroke-width:40;stroke-linejoin:round;stroke-dasharray:none;stroke-opacity:1;paint-order:markers stroke fill;enable-background:accumulate;stop-color:#000000"
       d="m 514.72656,8.34375 c -41.62735,0 -77.94403,14.286245 -103.77148,42.371094 -25.84123,28.104518 -38.29688,66.230946 -38.29688,110.591796 0,43.35121 13.4528,80.85644 40.67969,107.99414 27.2409,27.15457 64.8987,40.51953 108.50586,40.51953 17.15554,0.009 34.26443,-1.77496 51.04883,-5.32422 16.68602,-3.52703 32.9788,-8.66887 48.8125,-15.38476 a 20.002,20.002 0 0 0 12.18945,-18.41211 v -38.68945 a 20.002,20.002 0 0 0 -29.375,-17.66797 c -13.27262,7.04328 -26.4482,12.2258 -39.59375,15.66015 a 20.002,20.002 0 0 0 -0.002,0.002 c -13.06768,3.41531 -26.5594,5.13086 -40.63477,5.13086 -23.50177,0 -38.62714,-5.86726 -49.54687,-16.47071 a 20.002,20.002 0 0 0 -0.004,-0.004 c -7.38906,-7.17122 -12.90461,-16.85934 -16.21875,-30.01758 h 164.93555 a 20.002,20.002 0 0 0 20,-20 v -20.00977 c 0,-40.56203 -11.09023,-75.551484 -34.40235,-101.347654 a 20.002,20.002 0 0 0 0,-0.002 C 585.73703,21.488102 552.51609,8.34375 514.72656,8.34375 Z m 0.44531,74.685547 c 15.74685,0 25.31104,4.219094 33.83985,13.523437 4.98302,5.436016 8.63877,11.933436 10.90039,20.107426 l -98.70117,0.15234 c 3.02989,-8.22324 7.32184,-14.66482 12.85547,-19.869141 a 20.002,20.002 0 0 0 0.004,-0.002 c 9.67091,-9.09946 22.04087,-13.912109 41.10156,-13.912109 z m -90.75,18.560543 c -4.00583,10.32205 -6.60069,21.5526 -7.6582,33.49414 a 20.002,20.002 0 0 0 7.75195,16.95899 20.002,20.002 0 0 0 -9.12304,17.86133 c 1.63836,25.93928 8.81528,48.75372 22.12695,66.58789 -16.42249,-18.52451 -24.86133,-42.34383 -24.86133,-75.18555 0,-23.99638 4.04413,-43.52765 11.76367,-59.7168 z m 177.41602,23.36719 c 0.0541,0.3712 0.0931,0.76056 0.14453,1.13477 -0.0356,-0.38329 -0.10549,-0.75286 -0.14453,-1.13477 z m 0.24023,2.06445 c 0.87981,6.72539 1.37696,13.87719 1.37696,21.61133 v 0.01 h -5.64649 a 20.002,20.002 0 0 0 4.73438,-12.28321 c -0.042,-3.1528 -0.20299,-6.26495 -0.46485,-9.33789 z"
       id="path18" />
    <path
       style="baseline-shift:baseline;display:inline;overflow:visible;vector-effect:none;fill:#ffffff;stroke-linejoin:round;paint-order:markers stroke fill;enable-background:accumulate;stop-color:#000000"
       d="m 1775.6738,10.666016 c -46.3601,0 -85.8868,12.90232 -114.7207,39.785156 -4.7249,4.406122 -8.9184,9.215263 -12.8692,14.197265 -5.1049,-9.046165 -11.726,-17.109982 -19.8515,-23.853515 a 20.002,20.002 0 0 0 -0.01,-0.0039 C 1606.6086,22.864 1577.2656,15.154297 1542.7188,15.154297 h -106.2344 a 20.002,20.002 0 0 0 -20,20 V 73.6875 c -4.87,-15.559435 -13.7972,-28.946724 -26.7813,-38.300781 a 20.002,20.002 0 0 0 -0.01,-0.0059 c -20.7456,-14.931808 -48.6585,-20.226562 -83.5879,-20.226562 h -97.3691 a 20.002,20.002 0 0 0 -18.5606,12.548828 l -0.3906,0.974609 a 20.002,20.002 0 0 0 -1.4394,7.451172 V 159.09961 a 20.002,20.002 0 0 0 18.0605,19.90625 c 47.8356,4.65827 99.3632,8.0231 152.2695,10.26172 a 20.002,20.002 0 0 0 17.9063,-9.98828 c 11.3143,-5.79387 21.0409,-13.45079 28.3789,-23.20118 5.1374,-6.82635 8.9126,-14.51064 11.5215,-22.75195 V 171.75 a 20.002,20.002 0 0 0 19.5566,19.99414 c 62.4277,1.38072 125.1766,1.34749 184.5547,0.13477 a 20.002,20.002 0 0 0 8.8477,-2.55274 20.002,20.002 0 0 0 9.1543,2.14453 c 22.7811,-0.56274 44.9891,-1.30134 66.4199,-2.19726 a 20.002,20.002 0 0 0 19.1191,-21.34961 c -0.1915,-2.79478 -0.2872,-5.59515 -0.2851,-8.39649 a 20.002,20.002 0 0 0 0,-0.0156 c 0,-23.01052 5.5748,-37.38383 15.0605,-47.17774 v -0.002 c 6e-4,-6.5e-4 0,-10e-4 0,-0.002 9.5187,-9.81925 22.8071,-15.279299 44.5723,-15.279299 11.8576,0 23.6975,1.662435 35.7012,5.062499 11.9764,3.3966 24.2638,8.60409 36.8867,15.77149 a 20.002,20.002 0 0 0 29.875,-17.39258 V 49.119141 a 20.002,20.002 0 0 0 -11.7266,-18.208985 c -14.8239,-6.734425 -30.5467,-11.792415 -47.0605,-15.18164 -16.5322,-3.390811 -33.7203,-5.0625 -51.4883,-5.0625 z m 0,40 c 15.262,0 29.7254,1.432857 43.4512,4.248046 v -0.002 c 9.3742,1.923911 18.2827,4.512335 26.8282,7.66211 v 6.429687 c -5.2693,-2.014495 -10.5492,-3.87081 -15.8535,-5.375 a 20.002,20.002 0 0 0 -0.01,-0.002 c -15.3783,-4.355934 -30.9791,-6.576172 -46.6035,-6.576172 -29.2199,0 -55.2178,8.787103 -73.2988,27.44336 a 20.002,20.002 0 0 0 0,0.0039 c -16.1509,16.671743 -24.3938,39.461193 -25.998,65.443363 -8.6173,0.31631 -17.3475,0.60297 -26.1816,0.86718 1.5656,-31.2357 11.5696,-53.704603 30.2246,-71.101559 20.378,-18.999164 48.2334,-29.041015 87.4433,-29.041015 z m -547.3261,4.488281 h 77.7597 c 30.4527,0 50.4783,5.679214 60.2207,12.691406 9.6871,6.981171 14.5391,16.380502 14.5391,35.802737 0,13.18843 -2.9415,21.83453 -7.8652,28.37695 -4.956,6.58517 -12.7785,12.13677 -25.8145,16.21094 a 20.002,20.002 0 0 0 -0.5156,0.32617 c -0.3937,-0.0182 -0.7726,-0.0441 -1.166,-0.0625 8.2355,-9.67311 11.3535,-22.61258 11.3535,-35.37109 0,-14.733575 -4.2296,-29.831438 -15.8711,-39.595707 a 20.002,20.002 0 0 0 -0.01,-0.0059 c -11.6181,-9.733946 -25.859,-11.984375 -41.6914,-11.984375 h -26.9356 a 20.002,20.002 0 0 0 -20,20 v 61.304692 c -8.1234,-0.63919 -16.0697,-1.3389 -24.0058,-2.04493 z m 228.1367,0 h 86.2344 c 28.6271,0 47.7786,6.312797 59.9726,16.425781 12.2331,10.15489 18.1144,22.954202 18.1152,44.541012 0,15.92801 -3.3956,27.03288 -9.873,35.85352 -9.3789,0.17228 -19.1153,0.17311 -28.6406,0.28516 8.3737,-9.86066 12.5136,-23.06295 12.5136,-36.13672 0,-15.15524 -5.5422,-30.52742 -16.8808,-40.572269 a 20.002,20.002 0 0 0 -0.01,-0.0059 C 1566.609,65.531999 1551.5276,61.542969 1535.9004,61.542969 h -35.4141 a 20.002,20.002 0 0 0 -20,20 v 69.326171 a 20.002,20.002 0 0 0 0.4317,1.61328 c -8.1384,-0.0943 -16.2864,-0.26279 -24.4336,-0.4043 z m -164.1309,46.388673 h 6.9356 c 10.9778,0 15.9689,2.61979 15.998,2.64258 -10e-4,-0.002 1.5723,1.08304 1.5723,8.94336 0,8.01308 -1.6458,9.3405 -1.7364,9.41797 -0.062,0.0528 -4.9092,2.67187 -15.8339,2.67187 h -6.9356 z m 228.1328,0 h 15.4141 c 9.1904,0 13.2859,1.99146 15.5,3.94922 2.1754,1.92715 3.4062,3.6241 3.4062,10.63086 0,7.00676 -1.2435,8.78075 -3.4746,10.77539 -2.2263,1.98665 -6.2691,3.9707 -15.4316,3.9707 h -15.4141 z m 254.8594,24.00586 a 20.002,20.002 0 0 0 -20,20 v 19.99023 a 20.002,20.002 0 0 0 21.2949,19.95899 c 38.1886,-2.47558 72.336,-5.51044 100.9102,-9.03711 a 20.002,20.002 0 0 0 17.5488,-19.84961 v -11.0625 a 20.002,20.002 0 0 0 -20,-20 z"
       id="path32" />
    <path
       style="baseline-shift:baseline;display:inline;overflow:visible;opacity:1;vector-effect:none;fill:#ffffff;stroke-linejoin:round;paint-order:markers stroke fill;enable-background:accumulate;stop-color:#000000;stop-opacity:1"
       d="m 702.85156,8.34375 c -14.78517,0 -29.85699,1.6025719 -45.15625,4.744141 -15.28835,3.138333 -30.87195,7.806759 -46.76172,13.943359 A 20.002,20.002 0 0 0 600.31641,38.658203 C 577.76328,18.581314 548.03221,8.3476562 514.73047,8.3476563 c -41.62735,0 -77.94403,14.2862457 -103.77149,42.3710937 -25.84122,28.104519 -38.29687,66.23095 -38.29687,110.5918 0,17.00142 1.99064,32.98412 6.07812,47.85742 a 20.002,20.002 0 0 0 22.74414,14.40039 c 11.31814,-1.98721 25.37004,-4.39063 41.74024,-7.08399 a 20.002,20.002 0 0 0 15.97851,-25.24023 c -0.2304,-0.80446 -0.36315,-1.76309 -0.57617,-2.5957 h 138.66602 a 20.002,20.002 0 0 0 12.99414,3.51562 c 20.90294,-2.65751 41.82585,-5.16193 62.76562,-7.51172 a 20.002,20.002 0 0 0 3.98633,-0.86718 c 9.88585,-3.23377 27.60387,-5.58789 51.60742,-5.58789 h 5.33399 a 20.002,20.002 0 0 0 1.91015,-0.0899 c 24.87843,-2.38689 50.24573,-4.56284 75.82813,-6.44922 a 20.002,20.002 0 0 0 9.84961,-3.65625 20.002,20.002 0 0 0 9.92187,2.25977 c 34.83358,-2.34158 69.92577,-4.09803 104.60157,-5.05469 a 20.002,20.002 0 0 0 4.95312,-39.21875 c -6.22291,-1.78155 -12.50526,-3.34972 -18.83594,-4.69922 l -13.82421,-3.07422 -0.0117,-0.002 C 887.51066,113.56072 874.01243,107.61332 872.18359,106.25 a 20.002,20.002 0 0 0 -0.008,-0.006 c -2.77278,-2.0648 -2.8418,-1.91927 -2.8418,-6.304687 0,-7.016134 0.59408,-7.846707 5.6836,-10.96875 l 0.002,-0.002 c 5.0838,-3.116467 16.97276,-6.386719 35.23633,-6.386719 11.85818,0 23.16717,1.312493 34.05078,3.904297 8.89979,2.120768 17.50656,5.142779 25.91211,9.005859 l 23.26953,56.60351 a 20.002,20.002 0 0 0 18.28906,12.39453 c 14.1735,0.14832 28.1741,0.46558 41.959,0.96875 a 20.002,20.002 0 0 0 19.3028,-27.40625 L 1028.6387,26.921875 A 20.002,20.002 0 0 0 1010.0664,14.34375 h -43.35937 a 20.002,20.002 0 0 0 -1.53711,0.412109 c -4.52346,-1.051284 -9.10799,-2.018133 -13.82422,-2.802734 l -0.01,-0.002 C 936.78534,9.5239514 921.46053,8.34375 905.36523,8.34375 c -33.32094,0 -61.58997,6.905488 -82.88671,23.259766 -7.01735,5.388217 -12.84997,11.860065 -17.66797,19.019531 -2.13158,-2.785576 -4.33762,-5.509582 -6.76172,-8.054688 a 20.002,20.002 0 0 0 -0.002,-0.002 C 775.60736,19.010722 742.32927,8.34375 702.85156,8.34375 Z m 462.85544,6.003906 a 20.002,20.002 0 0 0 -18.5722,12.578125 l -45.9825,115.091799 a 20.002,20.002 0 0 0 16.8243,27.34375 c 12.5548,1.10091 24.8247,2.39531 36.7539,3.90039 a 20.002,20.002 0 0 0 0.014,0.002 c 1.295,0.16239 2.5692,0.31773 3.7969,0.4707 a 20.002,20.002 0 0 0 21.0293,-12.38671 l 47.334,-117.763676 a 20.002,20.002 0 0 0 0.1172,-0.605468 20.002,20.002 0 0 0 0.2598,-0.333985 l 0.3261,-0.80664 a 20.002,20.002 0 0 0 0.9434,-6.720704 l 0.1875,0.03711 v -0.002 a 20.002,20.002 0 0 0 -0.125,-0.470703 20.002,20.002 0 0 0 -19.5488,-20.333985 z m -179.45309,17.707031 0.45312,2.289063 -0.17578,0.175781 a 20.002,20.002 0 0 0 -0.27734,-2.464844 z M 975.48437,54.34375 h 21.03516 L 1003,70.5625 A 20.002,20.002 0 0 0 986.31836,58.876953 c -3.57308,-1.625702 -7.18013,-3.148803 -10.83399,-4.533203 z m 203.76953,0.0039 h 0.2149 l -31.3497,77.99609 c -0.01,-0.001 -0.018,-0.003 -0.027,-0.004 z m 28.9863,0.306641 a 20.002,20.002 0 0 0 0.5078,0.09766 l -0.205,0.205078 z m -693.06637,28.375 c 15.74486,0 25.31005,4.22206 33.83984,13.52539 4.98097,5.435299 8.63462,11.931969 10.89649,20.105469 l -98.69922,0.15234 c 3.02968,-8.22311 7.3236,-14.66307 12.85742,-19.867184 a 20.002,20.002 0 0 0 0.002,-0.0039 c 9.67091,-9.09946 22.04282,-13.912109 41.10352,-13.912109 z m 183.45508,0.002 c 19.30999,0 31.52213,4.317109 39.34375,10.826172 4.18075,3.483077 7.0586,7.348567 8.91015,12.322267 H 711.9668 c -27.24378,0 -50.9579,3.55454 -70.91407,11.54101 -1.15618,-7.26613 -2.80801,-14.24287 -4.83398,-20.988277 8.34879,-3.908785 16.90623,-6.964396 25.73242,-9.195313 a 20.002,20.002 0 0 0 0.002,-0.002 c 11.86407,-2.999885 24.04446,-4.503906 36.67579,-4.503906 z M 424.4043,101.63281 c -3.99596,10.31043 -6.58462,21.52656 -7.64063,33.45117 a 20.002,20.002 0 0 0 7.75586,16.96094 20.002,20.002 0 0 0 -9.12695,17.86524 c 0.22862,3.62061 0.74275,7.04604 1.17773,10.52539 -0.91953,0.15611 -1.83214,0.31169 -2.73047,0.46484 -0.77418,-6.16955 -1.17773,-12.68937 -1.17773,-19.58984 0,-23.97631 4.03534,-43.49646 11.74219,-59.67774 z m 405.8125,6.85938 c 1.43157,7.65489 4.68748,15.04365 9.45117,21.22656 -0.52798,0.0336 -1.05807,0.0599 -1.58594,0.0937 -4.33528,-5.29793 -7.00888,-11.96295 -7.86523,-21.32031 z m -40.88672,14.60742 c 0.31561,3.28475 0.54533,6.70011 0.68164,10.26172 -0.89611,0.0712 -1.77261,0.1547 -2.66797,0.22656 a 20.002,20.002 0 0 0 1.98633,-7.4082 z m -187.49414,1.84375 c 0.0568,0.38907 0.0966,0.79708 0.15039,1.18945 -0.0372,-0.40186 -0.10941,-0.78911 -0.15039,-1.18945 z m 0.24218,2.05859 c 0.88168,6.73209 1.37696,13.89132 1.37696,21.63477 v 0.0117 h -5.65235 a 20.002,20.002 0 0 0 4.74024,-12.29102 c -0.0423,-3.15824 -0.20196,-6.27748 -0.46485,-9.35547 z"
       id="path26" />
    <path
       style="baseline-shift:baseline;display:inline;overflow:visible;vector-effect:none;fill:#ffffff;fill-opacity:1;stroke:none;stroke-width:40;stroke-linejoin:round;stroke-dasharray:none;stroke-opacity:1;paint-order:markers stroke fill;enable-background:accumulate;stop-color:#000000"
       d="m 905.36328,8.3476563 c -33.32007,0 -61.58604,6.9024027 -82.88476,23.2578127 -21.29358,16.351456 -32.72071,41.969928 -32.72071,70.115231 0,23.16423 7.47568,44.6361 22.89649,59.75 6.5e-4,6.4e-4 10e-4,0.001 0.002,0.002 6.6e-4,6.4e-4 10e-4,0.001 0.002,0.002 15.46845,15.16553 37.31255,24.07193 64.79688,29.85742 l -0.44141,-0.0996 14.23242,3.33399 a 20.002,20.002 0 0 0 0.33203,0.0742 c 24.28708,5.25468 39.8335,12.27947 41.06446,13.25391 2.71304,2.14991 3.64258,3.26638 3.64258,9.88672 0,6.24202 -0.55755,7.37942 -6.29102,11.02539 -5.64675,3.58874 -16.7575,6.77344 -33.74219,6.77344 -12.55895,0 -25.31131,-1.70617 -38.4082,-5.21289 a 20.002,20.002 0 0 0 -0.004,0 c -13.11479,-3.50836 -26.65784,-8.83672 -40.63672,-16.10352 a 20.002,20.002 0 0 0 -29.2246,17.7461 v 42.24609 a 20.002,20.002 0 0 0 13.83203,19.02539 c 16.75974,5.43304 32.85573,9.5581 48.32812,12.33398 a 20.002,20.002 0 0 0 0.004,0 c 15.50094,2.77887 30.5785,4.20508 45.21875,4.20508 34.82533,0 64.55896,-7.33915 87.34961,-24.13281 22.70096,-16.72497 35.59766,-42.61633 35.59766,-71.01758 0,-24.32284 -8.1514,-46.7508 -24.74415,-62.13867 a 20.002,20.002 0 0 0 -0.004,-0.002 c -16.6812,-15.46308 -40.40652,-24.60748 -71.32813,-31.23438 l 0.14844,0.0312 -13.99805,-3.11133 -0.01,-0.002 c -20.8616,-4.6499 -34.35867,-10.59812 -36.18946,-11.96289 a 20.002,20.002 0 0 0 -0.006,-0.006 c -2.7753,-2.06687 -2.84179,-1.91954 -2.84179,-6.304687 0,-7.020306 0.59355,-7.849256 5.68164,-10.96875 a 20.002,20.002 0 0 0 0.002,0 c 5.08282,-3.116793 16.97064,-6.388672 35.23633,-6.388672 11.85452,0 23.1677,1.314569 34.05469,3.90625 10.89025,2.596923 21.35894,6.467917 31.53125,11.681641 A 20.002,20.002 0 0 0 1004.9645,80.370894 V 41.685547 A 20.002,20.002 0 0 0 992.30859,23.082031 C 979.5914,18.061521 965.91278,14.381272 951.3418,11.955078 h -0.004 C 936.78943,9.5300246 921.4625,8.3476563 905.36328,8.3476563 Z M 830.2168,108.48242 c 2.18003,11.66955 8.60373,22.7916 18.06054,29.83789 10e-4,0.001 0.002,0.003 0.004,0.004 10e-4,8.4e-4 0.003,0.001 0.004,0.002 0.65571,0.48865 1.35688,0.90891 2.02929,1.3711 -3.94441,-2.25684 -7.36456,-4.53999 -9.65625,-6.78711 a 20.002,20.002 0 0 0 -0.004,-0.004 c -5.95241,-5.83301 -9.41543,-13.2316 -10.4375,-24.42383 z m 123.1582,65.13477 c 5.49533,2.78871 10.1308,5.59417 12.99023,8.24414 7.86526,7.29413 11.94336,16.51543 11.94336,32.80859 0,12.95286 -2.90746,22.13567 -9.79297,30.12695 4.89968,-8.1584 7.76954,-17.52219 7.76954,-27.01562 0,-15.60862 -6.55842,-31.53927 -18.8086,-41.24414 a 20.002,20.002 0 0 0 -0.006,-0.006 c -1.32,-1.04493 -2.70532,-1.98185 -4.0957,-2.91406 z"
       id="path22" />
    <g
       id="path11"
       style="fill:#424241;fill-opacity:0.941;stroke:#ffffff;stroke-width:40;stroke-linejoin:round;stroke-dasharray:none;stroke-opacity:1;paint-order:markers stroke fill">
      <path
         style="baseline-shift:baseline;display:inline;overflow:visible;vector-effect:none;fill:#ffffff;fill-opacity:1;stroke:none;enable-background:accumulate;stop-color:#000000;stop-opacity:1"
         d="m 702.85156,8.34375 c -14.78338,0 -29.85298,1.6028193 -45.15429,4.744141 -15.28783,3.138331 -30.87257,7.806655 -46.76368,13.943359 A 20.002,20.002 0 0 0 598.13867,45.6875 v 37.794922 a 20.002,20.002 0 0 0 29.60352,17.542968 c 11.01645,-6.030608 22.36761,-10.499513 34.20703,-13.49414 11.86823,-2.999179 24.0469,-4.505859 36.67969,-4.505859 19.30237,0 31.51544,4.316447 39.33984,10.824218 4.18232,3.484599 7.06198,7.350261 8.91406,12.324221 H 711.9668 c -39.75634,0 -72.19984,7.33243 -96.02539,25.41601 -23.78774,18.05036 -36.03711,46.82147 -36.03711,79.29688 0,28.18963 9.69008,53.81809 28.78711,71.97461 19.13368,18.19514 45.35962,26.96094 74.59375,26.96094 22.53455,0 42.88112,-4.01811 60.31054,-13.01172 v 0.002 c 2.7769,-1.4327 5.44833,-3.04249 8.07227,-4.72852 a 20.002,20.002 0 0 0 17.66601,11.28907 h 40.91016 a 20.002,20.002 0 0 0 20,-20 V 141.29492 c 0,-41.06817 -9.74733,-75.152457 -32.19922,-98.726561 C 775.60896,19.010498 742.32959,8.34375 702.85156,8.34375 Z m 86.47852,114.79297 c 0.54483,5.6828 0.91406,11.63771 0.91406,18.1582 v 122.07813 h -0.91016 v -17.79883 a 20.002,20.002 0 0 0 -13.71484,-18.30664 c 9.26323,-17.3116 13.71484,-37.71312 13.71484,-59.95508 v -9.11523 a 20.002,20.002 0 0 0 -8.69336,-16.01368 20.002,20.002 0 0 0 8.68946,-16.00976 z m -161.33789,53.27344 c -4.71049,9.59597 -7.17578,20.57039 -7.17578,31.81445 0,18.91655 7.26141,37.22433 21.03125,49.50195 a 20.002,20.002 0 0 0 0,0.002 c 1.54908,1.38092 3.17909,2.64712 4.84375,3.85937 -3.80726,-2.17336 -7.28333,-4.71706 -10.43555,-7.71484 a 20.002,20.002 0 0 0 -0.002,-0.002 c -10.99498,-10.45348 -16.34961,-23.148 -16.34961,-42.98437 0,-14.97071 2.65216,-25.84942 8.08789,-34.47656 z m 100.64648,1.78515 a 20.002,20.002 0 0 0 0.006,0.002 h 20.17774 c -1.52657,17.47781 -6.78827,30.32965 -15.2754,40.28515 a 20.002,20.002 0 0 0 -0.002,0.002 c -10.18133,11.94393 -21.41069,17.09766 -39.36523,17.09766 -12.99912,0 -20.4057,-2.98077 -25.71289,-7.71094 l -0.002,-0.002 c -5.34859,-4.76971 -7.64843,-9.50447 -7.64843,-19.64453 0,-13.57279 2.63992,-17.52415 9.32421,-21.48828 6.22394,-3.69101 26.96873,-8.54058 58.49805,-8.54102 z"
         id="path20" />
      <path
         style="baseline-shift:baseline;display:inline;overflow:visible;vector-effect:none;stroke:none;enable-background:accumulate;stop-color:#000000;stop-opacity:1"
         d="m 810.245,141.294 v 142.08 h -40.911 v -37.799 c -9.338,15.122 -20.977,26.275 -34.909,33.463 -13.936,7.191 -30.982,10.784 -51.14,10.784 -25.496,0 -45.769,-7.15 -60.812,-21.456 -15.046,-14.305 -22.568,-33.466 -22.568,-57.479 0,-28.015 9.374,-49.138 28.127,-63.367 18.751,-14.232 46.728,-21.346 83.935,-21.346 h 57.364 v -4.003 c 0,-18.822 -6.191,-33.385 -18.565,-43.692 -12.379,-10.3 -29.761,-15.453 -52.138,-15.453 -14.232,0 -28.092,1.707 -41.578,5.115 -13.491,3.412 -26.458,8.524 -38.911,15.341 V 45.688 c 14.97,-5.781 29.497,-10.117 43.58,-13.008 14.082,-2.891 27.794,-4.336 41.133,-4.336 36.021,0 62.924,9.341 80.711,28.018 17.786,18.675 26.682,46.99 26.682,84.932 z m -81.602,16.901 c -33.056,0 -55.957,3.779 -68.705,11.339 -12.751,7.562 -19.122,20.458 -19.122,38.69 0,14.529 4.781,26.051 14.341,34.575 9.562,8.524 22.57,12.784 39.023,12.784 22.68,0 40.873,-8.038 54.586,-24.125 13.71,-16.082 20.568,-37.464 20.568,-64.146 v -9.115 h -40.69 v -0.002 z"
         id="path21" />
    </g>
    <path
       style="baseline-shift:baseline;display:inline;overflow:visible;vector-effect:none;fill:#424241;fill-opacity:0.941;stroke:none;stroke-width:40;stroke-linejoin:round;stroke-dasharray:none;stroke-opacity:1;paint-order:markers stroke fill;enable-background:accumulate;stop-color:#000000"
       d="M 984.964,41.685 V 80.372 C 973.402,74.446 961.396,70 948.943,67.031 c -12.451,-2.964 -25.349,-4.448 -38.687,-4.448 -20.31,0 -35.542,3.114 -45.692,9.338 -10.155,6.226 -15.229,15.565 -15.229,28.018 0,9.486 3.629,16.934 10.896,22.346 7.26,5.412 21.863,10.562 43.802,15.451 l 14.008,3.114 c 29.051,6.226 49.695,15.01 61.924,26.346 12.229,11.341 18.344,27.165 18.344,47.473 0,23.122 -9.155,41.43 -27.461,54.917 -18.308,13.491 -43.469,20.234 -75.487,20.234 -13.341,0 -27.237,-1.3 -41.69,-3.891 -14.453,-2.593 -29.682,-6.484 -45.692,-11.674 V 232.01 c 15.12,7.86 30.016,13.751 44.692,17.677 14.674,3.929 29.201,5.893 43.581,5.893 19.267,0 34.092,-3.298 44.469,-9.893 10.374,-6.596 15.565,-15.898 15.565,-27.906 0,-11.117 -3.745,-19.639 -11.229,-25.568 -7.486,-5.926 -23.903,-11.636 -49.25,-17.12 l -14.232,-3.333 c -25.349,-5.336 -43.657,-13.527 -54.919,-24.57 -11.267,-11.041 -16.898,-26.199 -16.898,-45.469 0,-23.42 8.3,-41.504 24.901,-54.252 16.601,-12.748 40.168,-19.122 70.705,-19.122 15.12,0 29.349,1.112 42.69,3.336 13.34,2.221 25.643,5.554 36.91,10.002 z"
       id="path23" />
    <path
       style="baseline-shift:baseline;display:inline;overflow:visible;vector-effect:none;fill:#424241;fill-opacity:0.941;stroke:none;stroke-width:40;stroke-linejoin:round;stroke-dasharray:none;stroke-opacity:1;paint-order:markers stroke fill;enable-background:accumulate;stop-color:#000000"
       d="m 623.456,148.633 v 20.01 H 435.352 c 1.779,28.166 10.262,49.621 25.458,64.369 15.191,14.751 36.354,22.122 63.479,22.122 15.71,0 30.942,-1.926 45.692,-5.781 14.748,-3.853 29.385,-9.634 43.914,-17.344 v 38.69 c -14.674,6.224 -29.72,10.97 -45.138,14.229 a 226.145,226.145 0 0 1 -46.914,4.893 c -39.728,0 -71.189,-11.56 -94.387,-34.685 -23.201,-23.125 -34.797,-54.4 -34.797,-93.83 0,-40.761 11.005,-73.113 33.018,-97.054 22.013,-23.937 51.695,-35.909 89.049,-35.909 33.497,0 59.995,10.784 79.489,32.351 19.492,21.569 29.241,50.885 29.241,87.939 z m -40.912,-12.008 c -0.298,-22.38 -6.557,-40.242 -18.789,-53.586 -12.229,-13.341 -28.425,-20.01 -48.583,-20.01 -22.827,0 -41.099,6.448 -54.807,19.346 -13.712,12.896 -21.606,31.054 -23.68,54.474 z"
       id="path19" />
    <g
       id="path13"
       style="fill:#424241;fill-opacity:0.941;stroke:#ffffff;stroke-width:40;stroke-linejoin:round;stroke-dasharray:none;stroke-opacity:1;paint-order:markers stroke fill">
      <path
         style="baseline-shift:baseline;display:inline;overflow:visible;vector-effect:none;fill:#ffffff;fill-opacity:1;stroke:none;enable-background:accumulate;stop-color:#000000;stop-opacity:1"
         d="m 966.71094,14.347656 a 20.002,20.002 0 0 0 -18.49805,27.603516 l 97.66601,237.589848 -4.3984,11.19531 a 20.002,20.002 0 0 0 -0.078,0.19922 c -7.1212,18.71274 -15.0489,29.76687 -15.0019,29.72656 -1.6999,1.45617 -5.1179,3.18945 -13.2207,3.18945 h -24.01368 a 20.002,20.002 0 0 0 -20,20 v 34.24219 a 20.002,20.002 0 0 0 20,20 h 32.68558 c 21.6579,0 41.542,-5.60245 56.7422,-18.13086 a 20.002,20.002 0 0 0 0,-0.002 c 16.5792,-13.67069 27.6184,-35.19582 39.707,-66.19532 l -0.076,0.19336 109.3945,-272.152339 a 20.002,20.002 0 0 0 -18.5566,-27.458985 h -43.3535 a 20.002,20.002 0 0 0 -18.5742,12.578125 l -59.2481,148.291019 -59.25,-148.291019 a 20.002,20.002 0 0 0 -18.5722,-12.578125 z m 212.54686,40 h 0.2149 l -35.4786,88.261714 z m -73.25,182.759764 -21.3496,53.11133 1.3887,-3.5332 a 20.002,20.002 0 0 0 -0.1153,-14.91797 l -12.2558,-29.8125 a 20.002,20.002 0 0 0 32.332,-4.84766 z"
         id="path24" />
      <path
         style="baseline-shift:baseline;display:inline;overflow:visible;vector-effect:none;stroke:none;enable-background:accumulate;stop-color:#000000;stop-opacity:1"
         d="m 1099.671,306.499 c -11.56,29.644 -22.83,48.988 -33.797,58.031 -10.969,9.041 -25.646,13.563 -44.023,13.563 h -32.685 v -34.242 h 24.013 c 11.262,0 20.01,-2.667 26.237,-8.003 6.226,-5.336 13.12,-17.936 20.679,-37.799 l 7.338,-18.677 L 966.711,34.347 h 43.357 l 77.822,194.775 77.822,-194.775 h 43.354 z"
         id="path25" />
    </g>
    <g
       id="path15"
       style="opacity:1">
      <path
         style="baseline-shift:baseline;display:inline;overflow:visible;vector-effect:none;fill:#ffffff;stroke-linejoin:round;paint-order:markers stroke fill;enable-background:accumulate;stop-color:#000000;stop-opacity:1"
         d="m 1208.3477,15.154297 a 20.002,20.002 0 0 0 -20,20 V 283.37305 a 20.002,20.002 0 0 0 20,20 h 64.0039 a 20.002,20.002 0 0 0 20,-20 v -73.83399 c 6.1609,0.25267 9.5782,1.58865 11.3925,2.90039 1.7613,1.28088 7.0115,7.23067 12.3399,18.07617 l 30.2539,61.66407 a 20.002,20.002 0 0 0 17.957,11.18945 h 68.166 a 20.002,20.002 0 0 0 2.0371,-0.52734 20.002,20.002 0 0 0 1.9864,0.53125 h 64.0039 a 20.002,20.002 0 0 0 20,-20 v -66.11914 h 22.2305 c 34.5451,0 63.8896,-7.70579 85.5078,-25.63868 21.586,-17.90471 32.58,-45.12246 32.58,-75.49414 0,-30.279827 -11.0154,-57.434047 -32.5781,-75.326168 a 20.002,20.002 0 0 0 0,-0.0039 c -21.6163,-17.926234 -50.959,-25.636719 -85.5058,-25.636719 h -106.2344 v 0 39.998047 l -19.998,-19.998047 v 38.53125 c -4.8706,-15.560475 -13.7993,-28.947938 -26.7852,-38.300781 a 20.002,20.002 0 0 0 0,-0.0039 C 1368.96,20.44843 1341.0455,15.15431 1306.1153,15.15431 Z m 20,40 h 77.7578 c 30.4537,0 50.4798,5.679849 60.2207,12.691406 9.6855,6.977284 14.5429,16.380875 14.5429,35.804687 0,13.18843 -2.9434,21.83258 -7.8671,28.375 a 20.002,20.002 0 0 0 0,0.002 c -4.9564,6.58704 -12.7752,12.13692 -25.8106,16.20899 a 20.002,20.002 0 0 0 -3.6328,2.30078 c 9.6588,-9.84414 13.2988,-23.71327 13.2988,-37.4082 0,-14.733575 -4.2264,-29.833737 -15.8769,-39.599613 a 20.002,20.002 0 0 0 -0.01,-0.0059 C 1329.358,63.79438 1315.1197,61.541016 1299.2871,61.541016 h -26.9375 a 20.002,20.002 0 0 0 -20,20 v 63.677734 a 20.002,20.002 0 0 0 20,20 h 26.9375 c 14.236,0 27.2499,-1.94992 38.1387,-9.48633 a 20.002,20.002 0 0 0 11.2851,31.09375 c 4.9002,1.11684 9.0846,3.37429 13.7207,8.08203 4.5745,4.655 10.8439,13.72494 17.3653,26.86328 l 20.5058,41.59766 h -23.5429 l -24.7696,-50.48242 a 20.002,20.002 0 0 0 0,-0.01 c -6.8662,-13.97567 -13.9723,-24.98161 -24.7304,-32.79883 a 20.002,20.002 0 0 0 -0.016,-0.0117 c -10.5285,-7.63469 -23.438,-10.62696 -36.7656,-10.62696 h -18.123 l 20,20 h -40 v 73.9336 h -24.0039 z m 228.1367,0 h 86.2344 c 28.6271,0 47.7769,6.312015 59.9726,16.425781 12.2371,10.15544 18.1152,22.948791 18.1152,44.541012 0,21.72032 -5.9052,34.57775 -18.1171,44.70703 -12.1939,10.11511 -31.3419,16.42579 -59.9707,16.42579 h -42.2305 a 20.002,20.002 0 0 0 -20,20 v 66.11914 h -24.0039 z m 44.0019,6.384765 a 20.002,20.002 0 0 0 -20,20 v 0.0039 69.326168 a 20.002,20.002 0 0 0 20,20 h 35.4121 c 15.6551,0 30.7892,-4.05057 42.0879,-14.14453 a 20.002,20.002 0 0 0 0.01,-0.006 c 11.2821,-10.08663 16.8125,-25.44052 16.8125,-40.59766 0,-15.15524 -5.54,-30.529046 -16.8809,-40.574212 a 20.002,20.002 0 0 0 -0.01,-0.0039 c -11.311,-10.012923 -26.3924,-14.003906 -42.0196,-14.003907 z m 20,39.999998 h 15.4121 c 9.1969,0 13.2929,1.996 15.5059,3.95508 2.1704,1.92326 3.4004,3.62485 3.4004,10.62695 0,7.01087 -1.2408,8.78197 -3.4727,10.77735 -2.2263,1.98665 -6.271,3.9707 -15.4336,3.9707 h -15.4121 z m -228.1367,0.002 h 6.9375 c 10.9756,0 15.9674,2.62082 16,2.64648 -0.012,-0.011 1.5703,1.07508 1.5703,8.94141 0,8.02206 -1.651,9.34201 -1.7441,9.42187 -0.063,0.0526 -4.9051,2.66797 -15.8262,2.66797 h -6.9375 z m 124.1348,31.78906 v 72.39648 l -0.834,-1.6914 a 20.002,20.002 0 0 0 -0.023,-0.0488 c -7.1767,-14.45848 -14.4718,-26.02259 -22.9747,-35.18946 4.5854,-3.78383 8.7494,-7.98632 12.3106,-12.71875 v -0.002 c 5.1362,-6.82516 8.911,-14.50654 11.5196,-22.74609 z"
         id="path28" />
      <path
         style="baseline-shift:baseline;display:inline;overflow:visible;vector-effect:none;fill:#4d603d;fill-opacity:0.941;stroke-linejoin:round;paint-order:markers stroke fill;enable-background:accumulate;stop-color:#000000;stop-opacity:1"
         d="m 1272.352,189.439 v 93.935 h -64.005 V 35.154 h 97.759 c 32.692,0 56.662,5.488 71.905,16.46 15.234,10.972 22.858,28.323 22.858,52.036 0,16.408 -3.962,29.873 -11.886,40.402 -7.924,10.531 -19.867,18.289 -35.828,23.275 8.753,1.995 16.598,6.512 23.527,13.548 6.924,7.041 13.934,17.708 21.03,32.004 l 34.749,70.491 h -68.167 l -30.259,-61.674 c -6.098,-12.412 -12.277,-20.891 -18.536,-25.439 -6.265,-4.543 -14.608,-6.817 -25.025,-6.817 h -18.122 z m 26.935,-44.221 c 13.408,0 23.025,-2.495 28.846,-7.484 5.817,-4.988 8.724,-13.189 8.724,-24.606 0,-11.305 -2.907,-19.396 -8.724,-24.272 -5.822,-4.876 -15.439,-7.315 -28.846,-7.315 h -26.937 v 63.677 z M 1436.483,35.154 h 106.236 c 31.587,0 55.833,7.012 72.739,21.032 16.901,14.024 25.349,33.999 25.349,59.936 0,26.046 -8.45,46.083 -25.349,60.1 -16.906,14.024 -41.152,21.032 -72.739,21.032 h -42.23 v 86.12 h -64.005 V 35.154 Z m 64.003,46.388 v 69.327 h 35.413 c 12.412,0 22.001,-3.019 28.763,-9.06 6.757,-6.041 10.143,-14.603 10.143,-25.687 0,-11.081 -3.386,-19.618 -10.143,-25.603 -6.762,-5.986 -16.351,-8.979 -28.763,-8.979 h -35.413 z"
         id="path29" />
    </g>
    <path
       style="baseline-shift:baseline;display:inline;overflow:visible;vector-effect:none;fill:#838382;stroke-linejoin:round;paint-order:markers stroke fill;enable-background:accumulate;stop-color:#000000"
       d="m 702.852,28.344 c -13.341,0 -27.054,1.445 -41.133,4.336 -14.084,2.891 -28.611,7.227 -43.58,13.008 v 37.799 c 12.451,-6.817 25.42,-11.931 38.911,-15.341 13.486,-3.41 27.349,-5.115 41.578,-5.115 22.38,0 39.761,5.153 52.138,15.453 12.374,10.305 18.565,24.868 18.565,43.692 v 4.003 h -57.364 c -37.206,0 -65.184,7.115 -83.935,21.346 a 71.05,71.05 0 0 0 -4.576,3.819 v -2.707 c 0,-37.056 -9.748,-66.37 -29.237,-87.939 -19.494,-21.568 -45.99,-32.351 -79.489,-32.351 -37.354,0 -67.036,11.972 -89.049,35.909 -22.013,23.941 -33.018,56.293 -33.018,97.054 0,15.443 1.805,29.616 5.362,42.559 11.391,-2 25.511,-4.414 41.952,-7.119 -2.429,-8.481 -3.976,-17.839 -4.624,-28.101 h 174.3 a 68.286,68.286 0 0 0 -1.888,3.674 4317.788,4317.788 0 0 1 63.057,-7.546 c 13.393,-4.381 32.656,-6.579 57.824,-6.579 h 5.334 c 25.015,-2.4 50.528,-4.588 76.268,-6.486 v -10.415 c 0,-37.944 -8.893,-66.258 -26.682,-84.935 C 765.774,37.685 738.872,28.344 702.852,28.344 Z M 436.686,136.849 c 2.074,-23.42 9.967,-41.578 23.68,-54.474 13.708,-12.898 31.98,-19.346 54.807,-19.346 20.158,0 36.354,6.672 48.583,20.01 12.229,13.343 18.489,31.204 18.789,53.586 z m 772.052,-101.695 0.326,-0.807 h -43.357 l -45.983,115.091 c 12.784,1.121 25.303,2.441 37.509,3.981 1.252,0.157 2.521,0.312 3.781,0.469 l 47.333,-117.762 v -0.974 h 0.391 z m -242.03,-0.807 0.624,1.514 c -6.165,-1.674 -12.591,-3.069 -19.277,-4.181 -13.341,-2.226 -27.57,-3.336 -42.69,-3.336 -30.537,0 -54.107,6.376 -70.705,19.122 -16.603,12.748 -24.901,30.832 -24.901,54.252 0,19.27 5.631,34.428 16.898,45.469 a 57.064,57.064 0 0 0 3.491,3.119 c 35.063,-2.357 70.415,-4.126 105.393,-5.091 A 262.197,262.197 0 0 0 918.04,140.85 l -14.008,-3.114 c -21.939,-4.891 -36.542,-10.039 -43.802,-15.451 -7.265,-5.41 -10.896,-12.858 -10.896,-22.346 0,-12.451 5.074,-21.789 15.229,-28.018 10.15,-6.224 25.382,-9.338 45.692,-9.338 13.341,0 26.237,1.483 38.687,4.448 12.451,2.967 24.458,7.412 36.021,13.341 v -1.617 l 27.023,65.736 c 14.334,0.15 28.508,0.471 42.48,0.981 L 1010.067,34.343 h -43.359 z"
       id="path27" />
    <g
       id="path16"
       style="opacity:1">
      <path
         style="baseline-shift:baseline;display:inline;overflow:visible;vector-effect:none;fill:#ffffff;stroke-linejoin:round;paint-order:markers stroke fill;enable-background:accumulate;stop-color:#000000;stop-opacity:1"
         d="m 1775.6719,10.666016 c -46.3601,0 -85.8888,12.90232 -114.7227,39.785156 a 20.002,20.002 0 0 0 0,0.002 c -28.8451,26.901317 -43.2657,64.950188 -43.2657,109.058598 0,43.64009 14.1349,81.41898 42.418,108.4707 a 20.002,20.002 0 0 0 0,0.002 c 28.2815,27.04336 67.0104,40.21094 112.08,40.21094 19.7052,0 38.9398,-2.09389 57.6055,-6.30859 18.6733,-4.21641 36.7323,-10.5561 54.0547,-18.97852 l -0.3691,-0.23047 a 20.002,20.002 0 0 0 11.6269,-17.75586 V 145.55078 a 20.002,20.002 0 0 0 -20,-20 h -99.7539 a 20.002,20.002 0 0 0 -20,20 v 42.89649 a 20.002,20.002 0 0 0 20,20 h 19.0664 v 12.51171 c -4.202,0.52697 -8.7896,0.85547 -13.9141,0.85547 -20.61,0 -32.9199,-5.25438 -42.0527,-15.07031 -9.141,-9.8301 -14.5937,-24.33611 -14.5937,-47.22852 0,-23.01277 5.5767,-37.38931 15.0625,-47.18164 9.5163,-9.82184 22.8041,-15.281246 44.5722,-15.281246 11.8574,0 23.6946,1.660775 35.6953,5.060546 11.98,3.3972 24.2702,8.60175 36.8887,15.76953 a 20.002,20.002 0 0 0 29.8789,-17.39062 V 49.119141 a 20.002,20.002 0 0 0 -11.7285,-18.208985 c -14.8242,-6.734034 -30.5465,-11.79238 -47.0605,-15.18164 -16.5328,-3.390704 -33.7183,-5.0625 -51.4863,-5.0625 z m 0,40 c 15.262,0 29.722,1.43275 43.4492,4.248046 v -0.002 c 9.3748,1.924029 18.2838,4.511928 26.8301,7.66211 v 6.429687 c -5.2701,-2.014525 -10.5513,-3.870867 -15.8554,-5.375 -15.3799,-4.357522 -30.98,-6.576172 -46.6035,-6.576172 -29.2198,0 -55.2211,8.787115 -73.3008,27.447266 a 20.002,20.002 0 0 0 0,0.002 c -18.1096,18.693657 -26.3339,45.053267 -26.3339,75.013667 0,29.64521 7.8474,55.70081 25.3066,74.47266 a 20.002,20.002 0 0 0 0,0.004 c 17.4692,18.77607 42.9458,27.82226 71.3378,27.82226 7.4861,0 14.6133,-0.4679 21.4063,-1.45312 a 20.002,20.002 0 0 0 0.02,-0.002 c 6.9539,-1.01535 13.5546,-2.6447 19.7676,-5.07226 a 20.002,20.002 0 0 0 12.7207,-18.62891 v -48.21093 a 20.002,20.002 0 0 0 -20,-20 h -19.0664 v -2.89649 h 59.7539 V 252 c -11.0726,4.60819 -22.4305,8.22746 -34.1211,10.86719 -15.6923,3.5433 -31.92,5.32812 -48.7969,5.32812 -37.6131,0 -64.3833,-9.94774 -84.4336,-29.11914 v -0.002 c -20.0416,-19.17002 -30.0645,-44.06378 -30.0645,-79.5625 0,-35.90959 10.1819,-60.813959 30.5469,-79.806642 20.3779,-18.997948 48.2348,-29.039062 87.4434,-29.039062 z m 99.4258,194.255854 0.2031,0.20313 a 20.002,20.002 0 0 0 -0.5078,0.10352 z"
         id="path30" />
      <path
         style="baseline-shift:baseline;display:inline;overflow:visible;vector-effect:none;fill:#4d603d;fill-opacity:0.941;stroke-linejoin:round;paint-order:markers stroke fill;enable-background:accumulate;stop-color:#000000;stop-opacity:1"
         d="m 1875.097,264.921 c -15.96,7.76 -32.535,13.577 -49.714,17.456 -17.179,3.879 -34.911,5.819 -53.202,5.819 -41.342,0 -74.091,-11.558 -98.257,-34.666 -24.163,-23.111 -36.242,-54.448 -36.242,-94.018 0,-40.009 12.301,-71.486 36.906,-94.433 24.606,-22.941 58.298,-34.413 101.083,-34.413 16.515,0 32.339,1.552 47.469,4.655 15.129,3.105 29.396,7.705 42.809,13.798 v 51.374 c -13.853,-7.869 -27.625,-13.741 -41.311,-17.622 -13.691,-3.879 -27.411,-5.819 -41.152,-5.819 -25.494,0 -45.138,7.124 -58.936,21.365 -13.798,14.243 -20.698,34.611 -20.698,61.098 0,26.27 6.65,46.552 19.951,60.853 13.301,14.296 32.194,21.446 56.695,21.446 6.65,0 12.827,-0.417 18.536,-1.245 5.705,-0.833 10.831,-2.133 15.379,-3.91 v -48.212 h -39.068 V 145.55 h 99.754 v 119.372 0 z"
         id="path31" />
    </g>
    <path
       style="baseline-shift:baseline;display:inline;overflow:visible;vector-effect:none;fill:#5f7057;stroke-linejoin:round;paint-order:markers stroke fill;enable-background:accumulate;stop-color:#000000"
       d="m 1378.012,51.614 c -15.244,-10.972 -39.214,-16.46 -71.905,-16.46 h -97.369 l -0.391,0.974 V 159.1 c 47.381,4.614 98.568,7.96 151.176,10.186 a 44.801,44.801 0 0 0 -6.369,-1.96 c 15.96,-4.988 27.904,-12.746 35.828,-23.275 7.924,-10.529 11.886,-23.994 11.886,-40.402 0,-23.712 -7.622,-41.06 -22.856,-52.035 z m -49.876,86.121 c -5.822,4.988 -15.439,7.484 -28.846,7.484 h -26.937 V 81.542 h 26.937 c 13.408,0 23.025,2.438 28.846,7.315 5.817,4.879 8.724,12.967 8.724,24.272 0,11.417 -2.907,19.62 -8.724,24.606 z m 287.322,-81.549 c -16.905,-14.02 -41.152,-21.032 -72.739,-21.032 H 1436.484 V 171.75 c 62.124,1.374 124.605,1.34 183.703,0.133 13.732,-13.708 20.62,-32.282 20.62,-55.762 -10e-4,-25.934 -8.451,-45.911 -25.349,-59.935 z m -50.795,85.623 c -6.762,6.041 -16.351,9.06 -28.763,9.06 h -35.413 V 81.542 h 35.413 c 12.412,0 22.001,2.993 28.763,8.979 6.757,5.986 10.143,14.522 10.143,25.603 0,11.081 -3.386,19.644 -10.143,25.685 z m 210.683,3.74 v 19.991 c 37.902,-2.457 71.72,-5.469 99.754,-8.929 v -11.062 z m 8.143,-68.498 c 13.741,0 27.461,1.941 41.152,5.819 13.686,3.881 27.456,9.755 41.311,17.622 V 49.119 c -13.412,-6.093 -27.68,-10.693 -42.809,-13.798 -15.129,-3.103 -30.954,-4.655 -47.469,-4.655 -42.785,0 -76.477,11.472 -101.083,34.413 -24.606,22.946 -36.906,54.424 -36.906,94.433 0,4.083 0.16,8.057 0.419,11.965 22.67,-0.56 44.766,-1.295 66.079,-2.186 a 141.487,141.487 0 0 1 -0.331,-9.779 c 0,-26.487 6.9,-46.854 20.699,-61.098 13.8,-14.239 33.444,-21.363 58.938,-21.363 z"
       id="path33" />
  </g>
</svg>
