<?xml version="1.0" encoding="UTF-8" standalone="no"?>
<svg
   height="188.26636"
   viewBox="0 0 139.13599 29.88756"
   width="876.44562"
   version="1.1"
   id="svg12"
   sodipodi:docname="electron.svg"
   inkscape:version="1.4.3 (0d15f75042, 2025-12-25)"
   xmlns:inkscape="http://www.inkscape.org/namespaces/inkscape"
   xmlns:sodipodi="http://sodipodi.sourceforge.net/DTD/sodipodi-0.dtd"
   xmlns="http://www.w3.org/2000/svg"
   xmlns:svg="http://www.w3.org/2000/svg">
  <defs
     id="defs16" />
  <sodipodi:namedview
     id="namedview14"
     pagecolor="#acacac"
     bordercolor="#666666"
     borderopacity="1.0"
     inkscape:pageshadow="2"
     inkscape:pageopacity="0.0"
     inkscape:pagecheckerboard="0"
     showgrid="false"
     inkscape:zoom="0.74843655"
     inkscape:cx="437.57884"
     inkscape:cy="93.528302"
     inkscape:window-width="1920"
     inkscape:window-height="1080"
     inkscape:window-x="0"
     inkscape:window-y="0"
     inkscape:window-maximized="0"
     inkscape:current-layer="svg12"
     inkscape:showpageshadow="2"
     inkscape:deskcolor="#d1d1d1" />
  <g
     fill="#ffffff"
     fill-opacity="0.5"
     stroke-width="0.238"
     id="g4"
     transform="translate(1.587007,1.5780003)">
    <path
       d="m 71.721,12.797 q 0,0.057 -0.014,0.096 -0.02,0.059 -0.065,0.059 -0.03,0 -0.063,-0.014 -0.04,-0.017 -0.044,-0.041 0.014,0 0.032,0.005 0.042,0.01 0.052,0.01 0.04,0 0.061,-0.04 0.016,-0.032 0.016,-0.077 0,-0.032 -0.02,-0.091 -0.021,-0.06 -0.021,-0.083 0,-0.007 0.004,-0.012 0.004,-0.005 0.011,-0.005 0.019,0 0.037,0.086 0.014,0.072 0.014,0.107 z m 0.183,0.049 q 0,0.048 -0.028,0.076 -0.028,0.028 -0.077,0.028 -0.027,0 -0.042,-0.013 -0.015,-0.013 -0.015,-0.04 0,-0.037 0.05,-0.076 0.046,-0.036 0.085,-0.036 0.018,0 0.024,0.023 0.003,0.013 0.003,0.038 z m -0.029,0.013 v -0.01 L 71.87,12.835 q -0.008,0.005 -0.025,0.026 -0.009,0.01 -0.016,0.015 0,-0.009 0.002,-0.015 l 0.006,-0.013 q -0.02,0 -0.043,0.017 -0.023,0.018 -0.023,0.038 0,0.014 0.015,0.014 0.03,0 0.057,-0.014 0.033,-0.017 0.033,-0.044 z m 0.225,0.006 q 0,0.024 -0.017,0.053 -0.02,0.033 -0.041,0.033 -0.006,0 -0.01,-0.007 -0.005,-0.007 -0.005,-0.014 0,-0.01 0.018,-0.027 0.019,-0.018 0.019,-0.025 l -10e-4,-0.01 -0.002,-0.005 q -0.036,0.008 -0.073,0.04 -0.037,0.034 -0.056,0.038 -0.004,-0.01 -0.004,-0.021 0,-0.014 0.006,-0.028 0.004,-0.011 0.015,-0.026 l 0.035,-0.057 0.033,-0.057 0.034,-0.058 q 0.006,-0.01 0.01,-0.013 0.006,-0.006 0.015,-0.008 0.006,0.002 0.008,0.007 0.003,0.005 0.003,0.012 0,0.016 -0.02,0.044 l -0.04,0.051 q -0.021,0.033 -0.021,0.059 v 0.005 l 0.032,-0.015 q 0.02,-0.008 0.033,-0.008 0.015,0 0.022,0.01 0.007,0.01 0.007,0.026 z m 0.222,-0.028 q 0,0.033 -0.016,0.07 -0.017,0.04 -0.042,0.055 l -0.01,-0.014 -0.002,-0.015 q 0,-0.008 0.023,-0.048 0.01,-0.018 0.01,-0.031 v -0.006 q -0.018,0.005 -0.061,0.032 l -0.087,0.053 q -0.007,0 -0.012,-0.005 -0.005,-0.005 -0.005,-0.011 0,-0.01 0.032,-0.067 l 0.034,-0.06 q 0.008,0.01 0.01,0.022 0.002,0.012 0.002,0.029 v 0.011 l 0.069,-0.04 q 0.027,-0.014 0.037,-0.014 0.007,0 0.012,0.015 0.006,0.015 0.006,0.024 z m 0.414,0.093 q 0,0.009 -0.008,0.013 -0.007,0.004 -0.017,0.004 l -0.02,-0.002 -0.036,-0.004 -0.057,0.003 -0.034,0.002 q -0.029,0 -0.029,-0.03 0,-0.027 0.018,-0.078 0.01,-0.03 0.038,-0.095 0.025,-0.06 0.031,-0.084 0.002,-0.008 0.004,-0.01 0.004,-0.006 0.01,-0.006 0.01,0 0.015,0.013 0.006,0.013 0.006,0.023 0,0.017 -0.02,0.057 L 72.6,12.812 q -0.02,0.045 -0.02,0.068 0,0.012 0.01,0.017 0.006,0.003 0.02,0.003 l 0.037,-0.002 0.034,-0.003 q 0.021,0 0.035,0.006 0.02,0.009 0.02,0.028 z m 0.177,-0.084 q 0,0.048 -0.028,0.076 -0.029,0.028 -0.078,0.028 -0.027,0 -0.042,-0.013 -0.015,-0.013 -0.015,-0.04 0,-0.037 0.05,-0.076 0.046,-0.036 0.086,-0.036 0.018,0 0.023,0.023 0.003,0.013 0.003,0.038 z m -0.03,0.013 v -0.01 l -0.004,-0.014 q -0.008,0.005 -0.026,0.026 l -0.015,0.015 q 0,-0.009 0.002,-0.015 l 0.006,-0.013 q -0.021,0 -0.044,0.017 -0.022,0.018 -0.022,0.038 0,0.014 0.015,0.014 0.029,0 0.056,-0.014 0.033,-0.017 0.033,-0.044 z m 0.23,-0.023 q 0,0.015 -0.008,0.032 -0.008,0.017 -0.02,0.029 V 12.89 l 0.001,-0.018 0.001,-0.017 q 0,-0.008 -0.002,-0.012 -0.002,-0.004 -0.01,-0.004 -0.022,0 -0.055,0.034 l -0.072,0.076 h -0.006 l -0.01,-0.002 q 0,-0.017 0.012,-0.038 l 0.029,-0.06 0.006,-0.023 0.005,-0.015 0.009,-0.014 q 0.005,-0.007 0.013,-0.01 l 0.005,0.057 0.031,-0.026 q 0.021,-0.017 0.036,-0.017 0.016,0 0.025,0.01 0.01,0.01 0.01,0.025 z m 0.234,-0.056 q 0,0.02 -0.053,0.053 -0.052,0.032 -0.075,0.032 -0.011,0 -0.015,-0.008 -0.003,-0.008 -0.003,-0.022 v -0.012 q 0.032,0 0.058,-0.01 0.026,-0.01 0.046,-0.032 -0.014,-0.005 -0.03,-0.005 -0.034,0 -0.073,0.027 -0.043,0.029 -0.043,0.062 0,0.031 0.043,0.044 l 0.08,0.013 q 0.044,0.007 0.044,0.023 0,0.007 -0.016,0.012 -0.015,0.005 -0.04,0.005 -0.06,0 -0.096,-0.02 -0.047,-0.024 -0.047,-0.079 0,-0.057 0.058,-0.09 0.048,-0.03 0.11,-0.03 0.019,0 0.034,0.01 0.018,0.01 0.018,0.027 z m 0.19,-0.085 q 0,0.01 -0.026,0.044 -0.025,0.033 -0.025,0.051 0,0.01 0.01,0.018 0.024,0.021 0.024,0.026 0,0.006 -0.004,0.012 -0.004,0.006 -0.01,0.006 -0.005,0 -0.014,-0.006 l -0.026,-0.019 -0.01,0.021 q -0.014,0.025 -0.019,0.037 l -0.014,0.044 q -0.013,0.03 -0.031,0.03 v -0.012 q 0,-0.034 0.021,-0.08 l 0.024,-0.044 q -0.038,-0.02 -0.083,-0.02 0,-0.018 0.007,-0.026 0.008,-0.01 0.025,-0.01 0.016,0 0.04,0.007 l 0.024,0.006 q 0.01,-0.003 0.025,-0.031 0.039,-0.068 0.053,-0.078 l 0.006,0.012 q 0.003,0.006 0.003,0.012 z m 0.175,0.17 q 0,0.024 -0.017,0.053 -0.02,0.033 -0.042,0.033 -0.006,0 -0.01,-0.007 -0.004,-0.007 -0.004,-0.014 0,-0.01 0.018,-0.027 0.019,-0.018 0.019,-0.025 l -0.001,-0.01 -0.002,-0.005 q -0.036,0.008 -0.073,0.04 -0.037,0.034 -0.056,0.038 -0.004,-0.01 -0.004,-0.021 0,-0.014 0.006,-0.028 0.004,-0.011 0.014,-0.026 0.017,-0.025 0.035,-0.057 l 0.033,-0.057 0.035,-0.058 q 0.006,-0.01 0.01,-0.013 0.006,-0.006 0.015,-0.008 0.006,0.002 0.008,0.007 0.003,0.005 0.003,0.012 0,0.016 -0.021,0.044 l -0.04,0.051 q -0.02,0.033 -0.02,0.059 v 0.005 l 0.031,-0.015 q 0.02,-0.008 0.034,-0.008 0.015,0 0.022,0.01 0.007,0.01 0.007,0.026 z m 0.391,-0.155 q 0,0.022 -0.023,0.06 -0.016,0.024 -0.05,0.069 -0.035,0.044 -0.044,0.058 l 0.036,0.011 q 0.035,0.01 0.035,0.038 l -0.028,0.004 h -0.005 v -0.004 l -0.013,-0.002 -0.028,0.003 -0.03,0.003 q -0.013,0 -0.02,-0.005 -0.009,-0.005 -0.009,-0.017 0,-0.01 0.037,-0.057 l 0.069,-0.088 q 0.037,-0.05 0.037,-0.068 0,-0.007 -0.005,-0.01 -0.004,-0.003 -0.018,-0.003 -0.009,0 -0.037,0.018 -0.014,0.009 -0.023,0.009 L 73.976,12.728 73.97,12.721 q -0.003,-0.006 -0.003,-0.01 0,-0.02 0.039,-0.036 0.033,-0.014 0.057,-0.014 0.02,0 0.031,0.015 0.01,0.013 0.01,0.035 z m 0.287,0.086 q 0,0.057 -0.063,0.102 -0.057,0.04 -0.117,0.04 -0.03,0 -0.048,-0.015 -0.018,-0.015 -0.018,-0.044 0,-0.065 0.057,-0.113 0.054,-0.045 0.12,-0.045 0.034,0 0.052,0.02 0.017,0.02 0.017,0.055 z m -0.03,0.01 q 0,-0.021 -0.024,-0.032 -0.019,-0.008 -0.045,-0.008 -0.037,0 -0.078,0.037 -0.041,0.036 -0.041,0.073 0,0.016 0.008,0.022 0.008,0.006 0.024,0.006 0.047,0 0.097,-0.025 0.06,-0.03 0.06,-0.072 z m 0.248,-0.096 q 0,0.022 -0.024,0.06 -0.015,0.024 -0.05,0.069 -0.035,0.044 -0.043,0.058 l 0.035,0.011 q 0.035,0.01 0.035,0.038 l -0.028,0.004 h -0.005 v -0.004 l -0.012,-0.002 q -0.01,0 -0.029,0.003 l -0.03,0.003 q -0.012,0 -0.02,-0.005 -0.009,-0.005 -0.009,-0.017 0,-0.01 0.037,-0.057 l 0.07,-0.088 q 0.036,-0.05 0.036,-0.068 0,-0.007 -0.005,-0.01 -0.004,-0.003 -0.017,-0.003 -0.01,0 -0.038,0.018 -0.014,0.009 -0.022,0.009 l -0.008,-10e-4 -0.006,-0.007 q -0.003,-0.006 -0.003,-0.01 0,-0.02 0.038,-0.036 0.033,-0.014 0.057,-0.014 0.021,0 0.032,0.015 0.01,0.013 0.01,0.035 z m 0.219,0 q 0,0.022 -0.024,0.06 -0.015,0.024 -0.05,0.069 -0.035,0.044 -0.043,0.058 l 0.035,0.011 q 0.035,0.01 0.035,0.038 l -0.028,0.004 h -0.005 v -0.004 l -0.012,-0.002 q -0.01,0 -0.029,0.003 l -0.03,0.003 q -0.012,0 -0.02,-0.005 -0.008,-0.005 -0.008,-0.017 0,-0.01 0.036,-0.057 l 0.07,-0.088 q 0.037,-0.05 0.037,-0.068 0,-0.007 -0.005,-0.01 -0.004,-0.003 -0.018,-0.003 -0.01,0 -0.038,0.018 -0.013,0.009 -0.022,0.009 L 74.7,12.728 74.694,12.721 q -0.003,-0.006 -0.003,-0.01 0,-0.02 0.039,-0.036 0.032,-0.014 0.057,-0.014 0.02,0 0.031,0.015 0.01,0.013 0.01,0.035 z"
       id="path2" />
  </g>
  <g
     id="path6"
     style="opacity:1">
    <path
       style="baseline-shift:baseline;display:inline;overflow:visible;vector-effect:none;fill:#ffffff;stroke-linecap:round;stroke-linejoin:round;paint-order:markers stroke fill;enable-background:accumulate;stop-color:#000000;stop-opacity:1"
       d="M 59.636719,0.02148438 C 58.926882,-0.03667374 58.202481,0.02036663 57.484375,0.20507813 55.392361,0.74432609 53.73129,2.3295585 52.544922,4.4589844 c -1.186368,2.1294259 -1.97048,4.8587514 -2.371094,8.0898436 -0.03919,0.31361 -0.07354,0.610644 -0.09961,0.84375 -0.01307,0.116819 -0.0231,0.21797 -0.03125,0.300781 -0.0082,0.08281 -0.01953,0.02943 -0.01953,0.291016 10e-7,0.328796 0.174238,0.536849 0.314454,0.763672 a 1.5876737,1.5876737 0 0 0 -1.207032,1.861328 l 0.06055,0.210937 c 0.154084,0.541086 0.360386,0.923813 0.621094,1.4375 0.260441,0.513163 0.539655,1.023616 0.820312,1.441407 0.490993,0.732167 1.273374,1.280728 1.984375,1.890625 -0.323459,-0.06554 -0.573542,-0.145088 -1.070312,-0.113282 h -0.0039 c -0.06696,0.0041 -0.134865,0.0074 -0.240235,0.02148 -0.107069,0.01434 -0.177804,-0.08552 -0.708984,0.251953 -0.26559,0.168738 -0.807998,0.793026 -0.736328,1.509766 0.07167,0.716739 0.430099,0.961327 0.58789,1.089843 0.315583,0.257034 0.399713,0.246313 0.501954,0.28711 0.408962,0.163186 0.773794,0.250852 1.599609,0.482422 4.082804,1.145384 4.823553,1.362577 6.322266,1.849609 0.78008,0.253168 2.624605,0.938918 3.941406,1.470703 1.363077,0.550474 2.528475,1.01791 3.072265,1.197266 a 1.5876737,1.5876737 0 0 0 0.002,0.002 c 0.406948,0.13401 0.753091,0.237591 1.230468,0.248047 0.238689,0.0052 0.529019,-0.0069 0.894532,-0.167969 0.364409,-0.160626 0.784559,-0.558128 0.953125,-0.996094 v -0.002 c 0.278346,-0.727188 -0.03427,-1.411451 -0.257813,-1.714844 -0.223755,-0.303683 -0.427603,-0.456726 -0.636719,-0.607422 -0.418232,-0.30139 -0.885381,-0.543795 -1.46289,-0.808593 -1.15502,-0.529596 -2.721924,-1.100535 -4.572266,-1.664063 -0.340555,-0.103666 -0.496132,-0.152631 -0.806641,-0.248047 0.80715,-0.182412 1.630875,-0.316536 2.373047,-0.689453 2.005715,-1.006061 3.661009,-2.884937 4.566407,-5.044922 v -0.002 c 0.09218,-0.218781 0.179814,-0.437363 0.251953,-0.626953 0.07233,-0.190099 0.112316,-0.262837 0.18164,-0.533203 a 1.5876737,1.5876737 0 0 0 0,-0.002 l 0.05469,-0.210938 a 1.5876737,1.5876737 0 0 0 -0.970703,-1.703125 1.5876737,1.5876737 0 0 0 0.308593,-0.875 l -0.06445,-0.871093 C 67.647003,9.3054371 66.678332,5.7327501 65.058594,3.3300781 63.763914,1.4090583 61.76623,0.19595871 59.636719,0.02148438 Z M 58.275391,3.2792969 v 0.00195 c 1.559574,-0.401154 3.04063,0.1756254 4.15039,1.8222656 0.991512,1.4707797 1.845109,4.3551971 2.1875,7.4140624 h -5.603515 c -2.822346,0 -4.492801,-0.006 -5.59375,-0.02148 0.381192,-2.7134728 1.0465,-4.9560254 1.902343,-6.4921878 0.906632,-1.627324 1.926046,-2.4588573 2.957032,-2.7246093 z M 53.173828,17.761719 h 11.380859 c -0.680405,1.022107 -1.544314,1.970042 -2.378906,2.388672 -0.770016,0.387086 -1.605291,0.6295 -2.46289,0.714843 l -0.63086,0.05859 a 1.5876737,1.5876737 0 0 0 -0.160156,0.175781 1.5876737,1.5876737 0 0 0 -0.132813,-0.152343 l -0.871093,-0.119141 a 1.5876737,1.5876737 0 0 0 -0.0039,-0.002 C 57.045074,20.70887 56.076854,20.372198 55.417969,19.980469 a 1.5876737,1.5876737 0 0 0 -0.002,0 c -0.498658,-0.296262 -1.79276,-1.521356 -2.146485,-2.048828 a 1.5876737,1.5876737 0 0 0 0,-0.002 c -0.02018,-0.03003 -0.06978,-0.126215 -0.0957,-0.167968 z m 7.644531,6.033203 v 0.15625 l -0.679687,0.0625 c 1.7e-5,-0.0065 0.002,-0.01495 0.002,-0.02148 0.235672,-0.02623 0.445011,-0.154808 0.677734,-0.197265 z"
       id="path1" />
    <path
       style="baseline-shift:baseline;display:inline;overflow:visible;vector-effect:none;fill:#32cb32;stroke-linecap:round;stroke-linejoin:round;paint-order:markers stroke fill;enable-background:accumulate;stop-color:#000000;stop-opacity:1"
       d="m 66.381007,28.13 c -0.285,-0.094 -1.624,-0.617 -2.976,-1.163 -1.352,-0.546 -3.173,-1.225 -4.045,-1.508 -1.514,-0.492 -2.3,-0.722 -6.385,-1.868 -1.644,-0.461 -1.75,-0.504 -1.33,-0.53 0.616,-0.04 4.903,0.879 6.763,1.449 0.15,0.045 0.164,-0.042 0.164,-0.97 v -1.02 l -0.87,-0.12 c -1.089,-0.147 -2.218,-0.532 -3.096,-1.054 -0.85,-0.505 -2.087,-1.684 -2.655,-2.531 -0.414,-0.616 -1.104,-1.976 -1.233,-2.429 l -0.06,-0.211 h 16.458 l -0.054,0.211 c -0.03,0.117 -0.19,0.54 -0.359,0.941 -0.749,1.789 -2.25,3.457 -3.815,4.242 a 8.62,8.62 0 0 1 -3.018,0.876 l -0.64,0.06 v 2.215 l 0.448,0.142 c 0.246,0.078 1.097,0.34 1.892,0.582 3.602,1.097 6.092,2.239 5.911,2.71 -0.077,0.202 -0.438,0.194 -1.1,-0.024 z m -14.77,-14.146 c 0,-0.067 0.062,-0.624 0.139,-1.24 0.765,-6.1699997 3.007,-10.1959997 6.13,-11.0009997 2.216,-0.57 4.444,0.37 5.862,2.474 1.353,2.007 2.337,5.419 2.602,9.0189997 l 0.064,0.87 h -7.399 c -5.972,0 -7.398,-0.023 -7.398,-0.121 z"
       id="path3" />
  </g>
  <g
     fill="#fff"
     stroke-width=".265"
     id="g10"
     style="fill:#666666;stroke:#ffffff;stroke-width:3.17503;stroke-linecap:round;stroke-linejoin:round;stroke-dasharray:none;stroke-opacity:1;paint-order:markers stroke fill"
     transform="translate(1.587007,1.5780003)">
    <g
       id="path8"
       style="opacity:1">
      <path
         style="baseline-shift:baseline;display:inline;overflow:visible;vector-effect:none;fill:#ffffff;stroke:none;enable-background:accumulate;stop-color:#000000;stop-opacity:1"
         d="m 78.583984,3.6835938 a 1.5876737,1.5876737 0 0 0 -1.58789,1.5878906 V 6.8203125 A 1.5876737,1.5876737 0 0 0 78.3125,8.1367188 V 10.572266 C 78.110176,10.171464 77.976519,9.727278 77.689453,9.3828125 76.609597,8.074411 74.941185,7.3886719 73.171875,7.3886719 c -1.715507,0 -3.337947,0.6389923 -4.476563,1.8496094 -6.22e-4,6.583e-4 -0.0013,0.00129 -0.002,0.00195 -6.31e-4,6.717e-4 -0.0013,0.00128 -0.002,0.00195 -1.142752,1.2116495 -1.699219,2.8660245 -1.699219,4.6425785 0,1.795185 0.55984,3.462928 1.716797,4.677734 a 1.5876737,1.5876737 0 0 0 0.0039,0.0039 c 1.160647,1.211466 2.816109,1.824219 4.580078,1.824219 1.210627,0 2.375398,-0.289478 3.378906,-0.886719 0.262469,-0.156349 0.39314,-0.472329 0.628906,-0.666015 a 1.5876737,1.5876737 0 0 0 1.283203,1.283203 h 4.316407 a 1.5876737,1.5876737 0 0 0 1.359375,-1.359375 c 1.14134,1.044715 2.645812,1.628906 4.283203,1.628906 1.210627,0 2.377351,-0.289478 3.380859,-0.886719 0.746512,-0.444687 1.267799,-1.174863 1.789063,-1.892578 0.199785,0.308564 0.321028,0.667399 0.578125,0.935547 1.159323,1.210273 2.797047,1.84375 4.533203,1.84375 1.265021,0 2.490951,-0.344519 3.529301,-1.023438 a 1.5876737,1.5876737 0 0 0 0.008,-0.0059 c 0.52027,-0.344921 0.97909,-0.767869 1.36719,-1.25 0.11248,0.404112 0.24295,0.799961 0.5625,1.1875 a 1.5876737,1.5876737 0 0 0 0.01,0.01367 c 0.70263,0.834065 1.7486,1.078125 2.71485,1.078125 0.35891,0 0.71656,-0.04286 1.0664,-0.123047 0.30993,-0.06469 0.61239,-0.164393 0.90625,-0.283203 a 1.5876737,1.5876737 0 0 0 0.13477,0.134766 h 4.60156 a 1.5876737,1.5876737 0 0 0 1.58789,-1.587891 v -1.576172 c 0.26494,0.560338 0.52861,1.125742 0.95508,1.580078 1.13867,1.213988 2.7628,1.855469 4.48047,1.855469 1.59843,0 3.07783,-0.605382 4.20312,-1.654297 a 1.5876737,1.5876737 0 0 0 1.38281,1.382813 h 4.31641 a 1.5876737,1.5876737 0 0 0 1.15039,-1.150391 1.5876737,1.5876737 0 0 0 1.15039,1.150391 h 3.01172 a 1.5876737,1.5876737 0 0 0 1.58594,-1.587891 v -1.642578 a 1.5876737,1.5876737 0 0 0 -1.35156,-1.353516 V 12.53125 c 0,-1.442634 -0.0495,-2.5458485 -0.81446,-3.5839844 -0.68819,-0.9481528 -1.87886,-1.34375 -2.98242,-1.34375 -0.74206,0 -1.47809,0.1765656 -2.16406,0.4863282 a 1.5876737,1.5876737 0 0 0 -0.006,0.00195 c -0.11095,0.050697 -0.22017,0.1571463 -0.33008,0.2148437 a 1.5876737,1.5876737 0 0 0 -0.68555,-0.6855469 h -2.88086 A 1.5876737,1.5876737 0 0 0 124.92383,9.03125 c -1.12186,-1.0372618 -2.58889,-1.6425781 -4.17578,-1.6425781 -1.4282,0 -2.72508,0.5416856 -3.79883,1.3886719 a 1.5876737,1.5876737 0 0 0 -1.24219,-1.3105469 c -0.12229,-0.00665 -0.24299,-0.010466 -0.36328,-0.011719 l -0.082,-0.00195 c -0.11167,-0.00471 -0.22233,-0.00781 -0.33008,-0.00781 -0.86253,0 -1.68576,0.2534447 -2.41601,0.6875 a 1.5876737,1.5876737 0 0 0 -0.51172,-0.5117188 h -2.88086 a 1.5876737,1.5876737 0 0 0 -0.33203,0.3320313 1.5876737,1.5876737 0 0 0 -0.33008,-0.3300781 h -0.125 V 6.5703125 a 1.5876737,1.5876737 0 0 0 -2.60938,-1.2167969 l -1.65429,1.390625 a 1.5876737,1.5876737 0 0 0 -0.56836,1.2167969 v 0.044922 a 1.5876737,1.5876737 0 0 0 -0.17578,0.1738281 1.5876737,1.5876737 0 0 0 -0.55665,-0.5566406 h -1.47265 a 1.5876737,1.5876737 0 0 0 -0.34961,0.3496093 c -0.12108,-0.057681 -0.21853,-0.1629379 -0.34375,-0.2109375 -0.637121,-0.252562 -1.323783,-0.3730468 -2.021486,-0.3730468 -1.666724,0 -3.252797,0.679171 -4.365234,1.8984375 a 1.5876737,1.5876737 0 0 0 -0.0039,0.00391 C 93.902563,9.6354723 93.735995,10.072389 93.511719,10.474609 93.319456,10.109995 93.201663,9.6975423 92.9375,9.3808594 91.85756,8.0746581 90.191614,7.3886719 88.423828,7.3886719 c -1.717409,0 -3.341666,0.6402871 -4.480469,1.8535156 -0.35671,0.3780803 -0.555322,0.8618435 -0.798828,1.3164065 V 5.2714844 A 1.5876737,1.5876737 0 0 0 81.556641,3.6835938 Z M 4.078125,7.3886719 c -1.1890578,0 -2.313152,0.2442132 -3.28125,0.796875 a 1.5876737,1.5876737 0 0 0 -0.003906,0.00195 c -0.96042159,0.5525713 -1.72399643,1.4206397 -2.14257815,2.445313 a 1.5876737,1.5876737 0 0 0 0.9902344,2.076171 c -0.775291,0.843633 -1.2285156,1.967352 -1.2285156,3.126954 0,1.214832 0.4439471,2.425905 1.30078122,3.273437 a 1.5876737,1.5876737 0 0 0 0.003906,0.0039 c 0.86332693,0.847855 2.07881283,1.277344 3.30273443,1.277344 0.7146507,0 1.423477,-0.130143 2.0839843,-0.390625 0.1600387,-0.0632 0.2960475,-0.19603 0.4511719,-0.273438 a 1.5876737,1.5876737 0 0 0 0.3925781,0.392579 h 2.9921875 a 1.5876737,1.5876737 0 0 0 1.3222659,-1.322266 c 1.131434,1.005845 2.586118,1.59375 4.166015,1.59375 1.265023,0 2.490951,-0.344519 3.529297,-1.023438 a 1.5876737,1.5876737 0 0 0 0.0078,-0.0059 c 0.616864,-0.408956 1.114874,-0.951651 1.542968,-1.548828 0.161161,0.231948 0.242372,0.514776 0.4375,0.722656 1.139248,1.213644 2.762802,1.855469 4.480469,1.855469 1.598891,0 3.079167,-0.605567 4.205078,-1.654297 a 1.5876737,1.5876737 0 0 0 1.382813,1.382813 h 4.603515 a 1.5876737,1.5876737 0 0 0 1.091797,-1.091797 1.5876737,1.5876737 0 0 0 1.091797,1.091797 h 4.316406 a 1.5876737,1.5876737 0 0 0 1.152344,-1.150391 1.5876737,1.5876737 0 0 0 1.150391,1.150391 h 3.009765 A 1.5876737,1.5876737 0 0 0 48.017578,18.53125 V 16.888672 A 1.5876737,1.5876737 0 0 0 46.664062,15.535156 V 12.53125 c 0,-1.442632 -0.04756,-2.5458501 -0.8125,-3.5839844 -0.688572,-0.9488101 -1.879916,-1.34375 -2.984375,-1.34375 -0.741719,0 -1.476056,0.1749786 -2.162109,0.484375 a 1.5876737,1.5876737 0 0 0 -0.0078,0.00391 C 40.58632,8.1424938 40.477093,8.2489432 40.367187,8.3066406 A 1.5876737,1.5876737 0 0 0 39.681641,7.6210937 h -2.88086 a 1.5876737,1.5876737 0 0 0 -0.03125,0.03125 1.5876737,1.5876737 0 0 0 -0.177734,-0.1875 c -0.119927,-0.00583 -0.238017,-0.00865 -0.355469,-0.00977 l -0.08203,-0.00195 c -0.111618,-0.00472 -0.221949,-0.00781 -0.330078,-0.00781 -0.862528,0 -1.685756,0.2534447 -2.416016,0.6875 A 1.5876737,1.5876737 0 0 0 32.896484,7.6210937 H 30.013672 A 1.5876737,1.5876737 0 0 0 28.603516,9.03125 c -1.12256,-1.0376049 -2.589975,-1.6425781 -4.177735,-1.6425781 -1.709547,0 -3.32284,0.6379156 -4.460937,1.8398437 V 9.2109375 A 1.5876737,1.5876737 0 0 0 18.376953,7.6230469 h -1.474609 a 1.5876737,1.5876737 0 0 0 -0.34961,0.3515625 C 16.431362,7.9167573 16.33453,7.8098407 16.208984,7.7617187 15.571865,7.5091567 14.885202,7.3886719 14.1875,7.3886719 c -1.667196,0 -3.254021,0.6793395 -4.3671875,1.8984375 a 1.5876737,1.5876737 0 0 0 -0.00391,0.00391 C 9.4109721,9.7382238 9.1614154,10.286879 8.9042969,10.828125 8.7218294,10.069452 8.4246645,9.3761008 7.9003906,8.8027344 c -2.448e-4,-2.696e-4 2.449e-4,-0.00168 0,-0.00195 C 6.9592085,7.7652746 5.5594464,7.3886719 4.078125,7.3886719 Z m 29.082031,0.8085937 c -0.0027,0.00186 -0.0031,0.00594 -0.0059,0.00781 -0.0023,0.00157 -0.0056,3.813e-4 -0.0078,0.00195 z m 79.105474,0.00195 c -0.002,0.00134 -0.002,0.00451 -0.004,0.00586 -0.002,0.00157 -0.006,3.813e-4 -0.008,0.00195 z m -6.34571,1.7714843 a 1.5876737,1.5876737 0 0 0 0.01,0.00977 1.5876737,1.5876737 0 0 0 -0.01,0.00977 1.5876737,1.5876737 0 0 0 -0.01,-0.00977 1.5876737,1.5876737 0 0 0 0.01,-0.00977 z m -61.398436,0.3437499 0.02148,0.03516 c -0.0035,-0.0061 -0.01208,-0.0076 -0.01563,-0.01367 -0.0049,-0.0082 -8.56e-4,-0.01316 -0.0059,-0.02149 z m 89.533206,0 0.0215,0.03711 c -0.003,-0.0057 -0.0104,-0.008 -0.0137,-0.01367 -0.005,-0.0091 -0.002,-0.0142 -0.008,-0.02344 z m -25.26172,1.691406 a 1.5876737,1.5876737 0 0 0 0.0391,0.03906 v 3.376953 a 1.5876737,1.5876737 0 0 0 -0.16211,0.06641 1.5876737,1.5876737 0 0 0 -0.33398,-0.02539 v -3.125 h 0.125 a 1.5876737,1.5876737 0 0 0 0.33203,-0.332032 z M 14.455078,12.1875 c 0.326193,0 0.418238,0.05327 0.53711,0.154297 0.119342,0.101422 0.260164,0.283987 0.373046,0.728516 a 1.5876737,1.5876737 0 0 0 1.44336,1.123046 1.5876737,1.5876737 0 0 0 -0.882813,0.291016 C 15.72836,14.868084 15.51958,15.086305 15.261719,15.25 a 1.5876737,1.5876737 0 0 0 -0.0078,0.0059 c -0.253947,0.163132 -0.482137,0.232422 -0.826172,0.232422 -0.520527,0 -0.672644,-0.09144 -0.880859,-0.324218 -0.200922,-0.23012 -0.357422,-0.574411 -0.357422,-1.298829 0,-0.748196 0.161703,-1.106387 0.367188,-1.339843 a 1.5876737,1.5876737 0 0 0 0.0059,-0.0059 c 0.21054,-0.24168 0.358566,-0.332031 0.892578,-0.332031 z m 84.396484,0 c 0.326193,0 0.418239,0.05327 0.53711,0.154297 0.119342,0.101422 0.260165,0.283987 0.373047,0.728516 a 1.5876737,1.5876737 0 0 0 1.443361,1.123046 1.5876737,1.5876737 0 0 0 -0.88477,0.291016 c -0.19673,0.383193 -0.406463,0.602098 -0.66406,0.765625 a 1.5876737,1.5876737 0 0 0 -0.0059,0.0059 c -0.253948,0.163132 -0.484091,0.232422 -0.828125,0.232422 -0.520606,0 -0.669848,-0.09018 -0.878907,-0.324218 -0.200922,-0.23012 -0.357422,-0.574411 -0.357422,-1.298829 0,-0.748196 0.161703,-1.106387 0.367188,-1.339843 a 1.5876737,1.5876737 0 0 0 0.0059,-0.0059 C 98.16975,12.277592 98.318481,12.1875 98.851562,12.1875 Z m -74.425781,0.05469 c 0.52719,0 0.650071,0.08475 0.830078,0.294921 a 1.5876737,1.5876737 0 0 0 0.0059,0.0078 c 0.185133,0.213557 0.347656,0.569899 0.347656,1.320312 0,0.750414 -0.16314,1.107718 -0.347656,1.320313 -0.189145,0.218146 -0.317134,0.302734 -0.835938,0.302734 -0.497205,0 -0.62482,-0.07935 -0.826172,-0.310547 v -0.002 c -0.197806,-0.228544 -0.357421,-0.579438 -0.357422,-1.310547 0,-0.742032 0.161116,-1.095619 0.347657,-1.310546 a 1.5876737,1.5876737 0 0 0 0.002,0 c 0.199756,-0.230592 0.326765,-0.3125 0.833984,-0.3125 z m 96.322269,0 c 0.52719,0 0.64889,0.08537 0.82812,0.294921 a 1.5876737,1.5876737 0 0 0 0.006,0.0078 c 0.18513,0.213557 0.34766,0.569899 0.34766,1.320312 0,0.750414 -0.16119,1.107718 -0.34571,1.320313 a 1.5876737,1.5876737 0 0 0 -0.002,0 c -0.18938,0.218414 -0.31611,0.302734 -0.83398,0.302734 -0.49863,0 -0.62461,-0.0784 -0.82617,-0.310547 -0.19858,-0.228651 -0.35743,-0.580731 -0.35743,-1.3125 0,-0.741679 0.16074,-1.093528 0.34766,-1.308593 a 1.5876737,1.5876737 0 0 0 0.002,-0.002 c 0.19999,-0.230858 0.32771,-0.3125 0.83399,-0.3125 z m -84.593753,0.158203 c 0.05111,0.01 -0.09921,0.03818 0.355469,0.03906 v 2.982422 a 1.5876737,1.5876737 0 0 0 -1.00586,0.765625 1.5876737,1.5876737 0 0 0 -0.886719,-0.886719 h -0.06055 v -0.875 c 0,-1.069512 0.235165,-1.630973 0.335937,-1.759765 0.113003,-0.140022 0.253366,-0.263672 0.931641,-0.263672 0.07144,0 0.264737,0.0059 0.529297,0.02344 z m 78.654293,0.03711 c -0.0916,0.480164 -0.24023,0.939651 -0.24023,1.447266 0,1.042441 0.25173,2.005804 0.64062,2.90039 a 1.5876737,1.5876737 0 0 0 -1.48437,-1.484375 h -0.0605 v -0.875 c 0,-1.069233 0.23494,-1.630874 0.33594,-1.759765 0.0974,-0.120883 0.33525,-0.201617 0.80859,-0.228516 z m 16.52149,0.0098 c 0.0157,0.229798 0.0351,0.43224 0.0351,0.77539 v 2.794922 a 1.5876737,1.5876737 0 0 0 -0.48828,-0.488281 v -2.6875 c 0.15819,-0.136904 0.34853,-0.330867 0.45313,-0.394531 z m -89.533205,0.002 c 0.01561,0.229534 0.03516,0.431149 0.03516,0.773437 v 2.794922 A 1.5876737,1.5876737 0 0 0 41.341797,15.527344 V 12.84375 c 0.158471,-0.137155 0.350143,-0.330525 0.455078,-0.394531 z M 1.3378906,13.529297 c -0.00322,0.0025 -0.00461,0.0073 -0.00781,0.0098 -0.00222,0.0017 -0.00559,2.11e-4 -0.00781,0.002 z m 102.1660194,0.0059 v 0.779297 l -0.52149,-0.257812 a 1.5876737,1.5876737 0 0 0 0.52149,-0.521485 z"
         id="path4" />
      <path
         style="baseline-shift:baseline;display:inline;overflow:visible;vector-effect:none;stroke:none;enable-background:accumulate;stop-color:#000000;stop-opacity:1"
         d="M 5.948,15.928 V 15.247 Q 5.174,14.78 4.64,14.594 4.106,14.407 3.59,14.407 q -0.8,0 -1.288,0.383 -0.488,0.373 -0.488,0.989 0,0.56 0.423,0.933 0.424,0.364 1.087,0.364 0.552,0 1.187,-0.28 0.645,-0.28 1.437,-0.868 z m 0,2.604 v -0.877 q -0.718,0.588 -1.427,0.868 -0.71,0.28 -1.501,0.28 -1.354,0 -2.191,-0.822 Q 0,17.161 0,15.835 q 0,-1.372 0.893,-2.212 0.902,-0.84 2.375,-0.84 0.507,0 1.151,0.168 0.654,0.159 1.464,0.495 v -0.55 q 0,-1.27 -0.47,-1.858 -0.469,-0.588 -1.472,-0.588 -0.71,0 -1.243,0.29 -0.534,0.289 -0.976,0.914 L 0.12,11.234 q 0.442,-1.082 1.464,-1.67 1.03,-0.588 2.495,-0.588 1.841,0 2.651,0.896 0.82,0.896 0.82,2.986 v 4.031 h 1.39 v 1.643 z M 16.904,12.68 Q 16.646,11.664 16.02,11.132 15.394,10.6 14.455,10.6 q -1.326,0 -2.09,0.877 -0.764,0.868 -0.764,2.389 0,1.493 0.755,2.352 0.764,0.858 2.071,0.858 0.93,0 1.685,-0.485 0.764,-0.485 1.225,-1.381 l 1.454,0.718 q -0.534,1.335 -1.703,2.11 -1.17,0.765 -2.66,0.765 -2.09,0 -3.389,-1.354 -1.298,-1.353 -1.298,-3.564 0,-2.147 1.252,-3.528 1.261,-1.381 3.195,-1.381 0.792,0 1.445,0.261 0.663,0.252 1.27,0.793 V 9.21 h 1.474 v 3.47 z m 7.522,4.396 q 1.298,0 2.035,-0.85 0.736,-0.848 0.736,-2.36 0,-1.512 -0.736,-2.361 -0.728,-0.85 -2.035,-0.85 -1.29,0 -2.035,0.86 -0.736,0.848 -0.736,2.35 0,1.494 0.745,2.353 0.746,0.858 2.026,0.858 z m 4.622,-3.191 q 0,2.202 -1.28,3.564 -1.28,1.354 -3.342,1.354 -2.053,0 -3.324,-1.354 -1.27,-1.353 -1.27,-3.564 0,-2.212 1.27,-3.556 1.27,-1.353 3.324,-1.353 2.062,0 3.342,1.362 1.28,1.354 1.28,3.547 z m 2.265,3.005 v -6.141 h -1.299 v -1.54 h 2.882 v 1.83 q 0.479,-1.065 1.16,-1.531 0.682,-0.476 1.768,-0.476 0.157,0 0.331,0.009 0.175,0 0.36,0.009 v 1.801 q -0.01,0 -0.056,-0.009 -0.423,-0.028 -0.635,-0.028 -1.482,0 -2.173,0.859 -0.681,0.858 -0.681,2.753 v 2.463 h 1.648 v 1.643 h -4.604 v -1.643 z m 6.785,0 V 10.749 H 36.8 v -1.54 h 2.882 v 1.428 q 0.92,-0.756 1.675,-1.101 0.765,-0.345 1.51,-0.345 1.206,0 1.704,0.69 0.506,0.681 0.506,2.65 v 4.358 h 1.353 v 1.643 h -3.01 v -5.31 q 0,-1.661 -0.258,-2.09 -0.249,-0.439 -0.912,-0.439 -0.598,0 -1.206,0.345 -0.598,0.346 -1.289,1.092 v 4.76 h 1.363 v 1.642 H 36.8 V 16.889 Z M 70.42,14.37 q 0.037,1.222 0.82,1.969 0.79,0.737 2.07,0.737 0.893,0 1.666,-0.43 0.773,-0.428 1.252,-1.212 l 1.454,0.765 q -0.709,1.278 -1.822,1.941 -1.114,0.663 -2.568,0.663 -2.154,0 -3.433,-1.335 -1.28,-1.344 -1.28,-3.583 0,-2.212 1.27,-3.556 1.27,-1.353 3.323,-1.353 2.126,0 3.295,1.418 1.178,1.41 1.178,3.976 z m 0.157,-1.381 h 5.218 q -0.138,-1.195 -0.81,-1.83 -0.672,-0.634 -1.813,-0.634 -1.132,0 -1.822,0.653 -0.681,0.644 -0.773,1.81 z M 79.9,6.82 H 78.584 V 5.271 h 2.973 V 16.89 h 1.344 v 1.643 H 78.584 V 16.89 H 79.9 Z m 5.771,7.55 q 0.037,1.222 0.82,1.969 0.79,0.737 2.07,0.737 0.893,0 1.666,-0.43 0.773,-0.428 1.252,-1.212 l 1.454,0.765 q -0.709,1.278 -1.822,1.941 -1.114,0.663 -2.568,0.663 -2.154,0 -3.433,-1.335 -1.28,-1.344 -1.28,-3.583 0,-2.212 1.27,-3.556 1.27,-1.353 3.323,-1.353 2.126,0 3.295,1.418 1.178,1.41 1.178,3.976 z m 0.157,-1.381 h 5.218 q -0.138,-1.195 -0.81,-1.83 -0.672,-0.634 -1.813,-0.634 -1.132,0 -1.822,0.653 -0.681,0.644 -0.773,1.81 z M 101.3,12.68 Q 101.042,11.664 100.416,11.132 99.79,10.6 98.851,10.6 q -1.325,0 -2.089,0.877 -0.764,0.868 -0.764,2.389 0,1.493 0.755,2.352 0.764,0.858 2.07,0.858 0.93,0 1.685,-0.485 0.764,-0.485 1.224,-1.381 l 1.454,0.718 q -0.533,1.335 -1.702,2.11 -1.17,0.765 -2.66,0.765 -2.09,0 -3.387,-1.354 -1.298,-1.353 -1.298,-3.564 0,-2.147 1.252,-3.528 1.26,-1.381 3.193,-1.381 0.792,0 1.445,0.261 0.663,0.252 1.27,0.793 V 9.21 h 1.473 v 3.47 z m 5.448,3.276 q 0,0.682 0.157,0.933 0.165,0.243 0.58,0.243 0.211,0 0.432,-0.056 0.23,-0.065 0.543,-0.205 v 1.624 q -0.35,0.149 -0.718,0.224 -0.359,0.084 -0.727,0.084 -1.067,0 -1.5,-0.514 -0.423,-0.513 -0.423,-2.053 V 10.75 h -1.206 V 9.21 h 1.206 V 7.96 l 1.656,-1.39 v 2.64 h 1.712 v 1.54 h -1.712 z m 3.672,0.934 v -6.141 h -1.297 v -1.54 h 2.88 v 1.83 q 0.48,-1.065 1.16,-1.531 0.682,-0.476 1.768,-0.476 0.156,0 0.331,0.009 0.175,0 0.359,0.01 v 1.8 q -0.009,0 -0.055,-0.009 -0.424,-0.028 -0.635,-0.028 -1.482,0 -2.172,0.859 -0.682,0.858 -0.682,2.753 v 2.463 h 1.648 v 1.643 h -4.602 v -1.643 z m 10.328,0.186 q 1.297,0 2.034,-0.85 0.736,-0.848 0.736,-2.36 0,-1.512 -0.736,-2.361 -0.727,-0.85 -2.034,-0.85 -1.289,0 -2.034,0.86 -0.737,0.848 -0.737,2.35 0,1.494 0.746,2.353 0.745,0.858 2.025,0.858 z m 4.62,-3.191 q 0,2.202 -1.28,3.564 -1.279,1.354 -3.34,1.354 -2.053,0 -3.323,-1.354 -1.27,-1.353 -1.27,-3.564 0,-2.212 1.27,-3.556 1.27,-1.353 3.323,-1.353 2.061,0 3.34,1.362 1.28,1.354 1.28,3.547 z m 2.264,3.005 v -6.141 h -1.298 v -1.54 h 2.881 v 1.428 q 0.92,-0.756 1.675,-1.101 0.764,-0.345 1.51,-0.345 1.206,0 1.703,0.69 0.506,0.681 0.506,2.65 v 4.358 h 1.353 v 1.643 h -3.01 v -5.31 q 0,-1.661 -0.258,-2.09 -0.248,-0.439 -0.91,-0.439 -0.6,0 -1.207,0.345 -0.598,0.346 -1.288,1.092 v 4.76 h 1.362 v 1.642 h -4.317 v -1.643 z"
         id="path5" />
    </g>
  </g>
</svg>
