<?xml version="1.0" encoding="UTF-8" standalone="no"?>
<svg
   height="173.53972"
   viewBox="0 0 316.90167 86.769863"
   width="633.80334"
   version="1.1"
   id="svg6"
   sodipodi:docname="flatpak.svg"
   inkscape:version="1.4.3 (0d15f75042, 2025-12-25)"
   xmlns:inkscape="http://www.inkscape.org/namespaces/inkscape"
   xmlns:sodipodi="http://sodipodi.sourceforge.net/DTD/sodipodi-0.dtd"
   xmlns="http://www.w3.org/2000/svg"
   xmlns:svg="http://www.w3.org/2000/svg">
  <defs
     id="defs10" />
  <sodipodi:namedview
     id="namedview8"
     pagecolor="#999999"
     bordercolor="#666666"
     borderopacity="1.0"
     inkscape:pageshadow="2"
     inkscape:pageopacity="0.0"
     inkscape:pagecheckerboard="0"
     showgrid="false"
     inkscape:zoom="1.4713602"
     inkscape:cx="326.22876"
     inkscape:cy="134.90918"
     inkscape:window-width="1920"
     inkscape:window-height="1080"
     inkscape:window-x="0"
     inkscape:window-y="0"
     inkscape:window-maximized="0"
     inkscape:current-layer="svg6"
     inkscape:showpageshadow="2"
     inkscape:deskcolor="#d1d1d1" />
  <g
     fill="#fff"
     id="g4"
     style="fill:#666666;stroke:#ffffff;stroke-width:9;stroke-linecap:round;stroke-linejoin:round;stroke-dasharray:none;stroke-opacity:1;paint-order:markers stroke fill"
     transform="translate(4.3499991,4.4999304)">
    <g
       id="path2"
       style="opacity:1">
      <path
         style="baseline-shift:baseline;display:inline;overflow:visible;vector-effect:none;fill:#ffffff;stroke:none;enable-background:accumulate;stop-color:#000000;stop-opacity:1"
         d="m 36.099609,-3.9023438 a 4.50045,4.50045 0 0 0 -4.5,0.00977 L -1.9746094,15.578125 a 4.50045,4.50045 0 0 0 -2.2421875,3.876953 l -0.1328125,38.830078 a 4.50045,4.50045 0 0 0 2.2578125,3.916016 L 31.777344,81.671875 a 4.50045,4.50045 0 0 0 4.482422,0.002 l 33.86914,-19.4375 a 4.50045,4.50045 0 0 0 2.261719,-3.919922 L 72.242187,19.451172 A 4.50045,4.50045 0 0 0 69.984375,15.566406 Z M 38.357422,7.7753906 59.009766,19.640625 40.417969,30.238281 a 4.50045,4.50045 0 0 0 -0.296875,-0.529297 l -1.763672,-1.058593 z m -9,3.0722654 v 17.189453 l -14.910156,-8.65625 z m 55.136719,4.804688 a 4.50045,4.50045 0 0 0 -4.5,4.5 v 37.789062 a 4.50045,4.50045 0 0 0 4.501953,4.5 h 5.613281 a 4.50045,4.50045 0 0 0 4.5,-4.5 V 45.601562 h 7.019535 a 4.50045,4.50045 0 0 0 4.5,-4.5 v -5.296875 a 4.50045,4.50045 0 0 0 -4.5,-4.5 h -7.019535 v -1.355468 h 13.320315 a 4.50045,4.50045 0 0 0 2.2207,-0.917969 v 28.910156 a 4.50045,4.50045 0 0 0 4.5,4.5 h 24.0918 a 4.50045,4.50045 0 0 0 2.64062,-1.09375 4.50045,4.50045 0 0 0 2.10547,1.09375 h 5.82422 a 4.50045,4.50045 0 0 0 4.24219,-2.996094 l 2.02148,-5.699218 h 8.9043 l 1.95703,5.666015 a 4.50045,4.50045 0 0 0 4.25391,3.029297 h 5.82617 a 4.50045,4.50045 0 0 0 4.23437,-6.023437 L 167.14844,18.628906 a 4.50045,4.50045 0 0 0 -4.23438,-2.976562 h -5.77148 a 4.50045,4.50045 0 0 0 -4.23242,2.970703 l -11.08985,30.691406 a 4.50045,4.50045 0 0 0 -3.07812,-1.275391 H 124.76563 V 20.152344 a 4.50045,4.50045 0 0 0 -4.5,-4.5 h -5.61524 a 4.50045,4.50045 0 0 0 -3.36133,1.75 4.50045,4.50045 0 0 0 -3.35937,-1.75 z m 92.365229,0 a 4.50045,4.50045 0 0 0 -4.5,4.5 v 5.402343 a 4.50045,4.50045 0 0 0 4.5,4.5 h 6.20118 v 27.886719 a 4.50045,4.50045 0 0 0 4.5,4.5 h 5.61523 a 4.50045,4.50045 0 0 0 4.5,-4.5 V 30.054687 h 6.17578 a 4.50045,4.50045 0 0 0 2.77539,-1.15039 v 29.037109 a 4.50045,4.50045 0 0 0 4.5,4.5 h 5.61524 a 4.50045,4.50045 0 0 0 4.5,-4.5 V 47.763672 h 5.06836 c 1.81194,0 3.5418,-0.189299 5.18554,-0.625 a 4.50045,4.50045 0 0 0 0.0566,-0.01563 c 1.53443,-0.427893 2.97936,-1.03055 4.29688,-1.839844 1.23659,-0.748865 2.35059,-1.675823 3.3125,-2.740234 l -5.01172,13.86914 a 4.50045,4.50045 0 0 0 4.23242,6.029297 h 5.82422 a 4.50045,4.50045 0 0 0 4.24219,-2.99414 l 2.02148,-5.701172 h 8.9043 l 1.95703,5.666015 a 4.50045,4.50045 0 0 0 4.25391,3.029297 h 5.82617 a 4.50045,4.50045 0 0 0 3.66601,-1.904297 4.50045,4.50045 0 0 0 3.42383,1.904297 h 5.61524 a 4.50045,4.50045 0 0 0 4.5,-4.5 v -10.03125 l 1.4082,-1.707031 7.47461,13.873047 a 4.50045,4.50045 0 0 0 3.96094,2.365234 h 6.59179 a 4.50045,4.50045 0 0 0 3.94532,-6.664062 l -12.00391,-21.882813 8.70508,-10.939453 a 4.50045,4.50045 0 0 0 -3.51953,-7.302734 h -6.48633 a 4.50045,4.50045 0 0 0 -3.51953,1.699218 l -6.55664,8.236329 v -5.435547 a 4.50045,4.50045 0 0 0 -4.5,-4.5 h -5.61524 a 4.50045,4.50045 0 0 0 -4.5,4.5 V 51.849609 L 262.04492,18.628906 a 4.50045,4.50045 0 0 0 -4.23437,-2.976562 h -5.77344 a 4.50045,4.50045 0 0 0 -4.23242,2.970703 l -4.58789,12.699219 c -0.0393,-1.739788 -0.27725,-3.473063 -0.8086,-5.136719 -0.6087,-1.983306 -1.65537,-3.823716 -3.04492,-5.367188 -1.47103,-1.652982 -3.34923,-2.896311 -5.43359,-3.771484 -2.3127,-0.998132 -4.86411,-1.394531 -7.61914,-1.394531 h -15.1836 a 4.50045,4.50045 0 0 0 -3.63867,2.419922 4.50045,4.50045 0 0 0 -3.63672,-2.419922 z m 54.75977,6.433593 0.10352,0.04883 c -0.0166,-0.0083 -0.0342,-0.0094 -0.0508,-0.01758 -0.0182,-0.0086 -0.0345,-0.02272 -0.0527,-0.03125 z m -226.853515,2.082032 26.269531,15.25 V 70.863281 L 4.6582031,55.701172 Z m 230.419925,0.697265 0.0391,0.04883 c -0.009,-0.01113 -0.0207,-0.01822 -0.0293,-0.0293 -0.005,-0.0057 -0.005,-0.01384 -0.01,-0.01953 z M 60.935547,28.904297 61.009766,54.34375 40.035156,66.160156 V 40.814453 Z m 160.306643,1.15039 h 5.38476 c 0.7615,10e-7 1.0911,0.14222 1.07227,0.132813 a 4.50045,4.50045 0 0 0 0.10351,0.04883 c 0.29612,0.138618 0.31418,0.198797 0.29493,0.173828 a 4.50045,4.50045 0 0 0 0.0391,0.05078 c 0.11287,0.142197 0.14464,0.215174 0.17969,0.345704 0.10294,0.383368 0.13671,0.682147 0.13671,0.916015 0,0.243611 -0.0344,0.512649 -0.14062,0.855469 a 4.50045,4.50045 0 0 0 -0.0215,0.06641 c -0.03,0.102576 -0.0547,0.167347 -0.1836,0.31836 a 4.50045,4.50045 0 0 0 -0.01,0.01172 c -0.0101,0.01197 -0.0757,0.09832 -0.38672,0.240235 a 4.50045,4.50045 0 0 0 -0.0371,0.01563 c -0.0147,0.0069 -0.3401,0.130859 -1.04688,0.130859 h -5.38476 z m 15.6875,5.117188 -0.0215,0.06836 c 0.004,-0.01319 0.002,-0.02781 0.006,-0.04102 0.003,-0.01017 0.0127,-0.01717 0.0156,-0.02734 z m 5.93554,0.169922 -0.0195,0.08203 c 0.003,-0.01287 9.6e-4,-0.02619 0.004,-0.03906 0.003,-0.01492 0.0125,-0.02804 0.0156,-0.04297 z m -11.38086,6.042969 -0.0371,0.01758 c 0.008,-0.0035 0.0139,-0.01017 0.0215,-0.01367 0.005,-0.0023 0.0106,-0.0016 0.0156,-0.0039 z"
         id="path3" />
      <path
         style="baseline-shift:baseline;display:inline;overflow:visible;vector-effect:none;stroke:none;enable-background:accumulate;stop-color:#000000;stop-opacity:1"
         d="M 33.857,0 0.283,19.47 0.15,58.3 34.02,77.77 67.89,58.333 67.742,19.469 Z m 0,3.087 v 28.111 l 3.949,2.37 -3.949,2.284 L 5.436,19.355 Z M 65.412,21.172 65.517,56.97 35.536,73.858 V 38.199 Z m 19.083,36.77 V 20.153 h 23.434 v 5.297 h -17.82 v 10.355 h 11.52 v 5.297 h -11.52 v 16.839 z m 30.156,0 V 20.153 h 5.614 V 52.54 h 18.478 v 5.402 z m 56.04,0 -3.005,-8.696 h -15.289 l -3.084,8.696 h -5.825 l 13.654,-37.789 h 5.773 l 13.602,37.789 z m -9.331,-26.51 q -0.317,-0.896 -0.712,-2.082 -0.369,-1.186 -0.58,-2.161 -0.263,0.975 -0.632,2.16 -0.343,1.16 -0.66,2.083 l -4.665,12.86 h 11.835 z m 31.816,-5.877 v 32.387 h -5.615 V 25.555 h -10.702 v -5.402 h 26.993 v 5.402 z m 17.951,32.387 V 20.153 h 15.183 q 3.48,0 5.852,1.028 2.399,1.001 3.849,2.635 1.476,1.634 2.108,3.716 0.66,2.055 0.66,4.19 0,1.317 -0.317,2.687 -0.29,1.37 -0.923,2.662 -0.632,1.265 -1.634,2.398 -1.002,1.133 -2.399,1.976 -1.37,0.844 -3.163,1.344 -1.792,0.475 -4.033,0.475 h -9.568 v 14.678 z m 15.5,-20.08 q 1.766,0 2.952,-0.554 1.212,-0.553 1.95,-1.423 0.765,-0.896 1.081,-1.976 0.343,-1.107 0.343,-2.187 0,-1.002 -0.29,-2.082 -0.29,-1.08 -1.002,-1.977 -0.711,-0.922 -1.95,-1.502 -1.213,-0.606 -3.084,-0.606 h -9.885 v 12.307 z m 38.959,20.08 -3.005,-8.696 h -15.288 l -3.085,8.696 h -5.825 l 13.654,-37.789 h 5.773 l 13.602,37.789 z m -9.331,-26.51 q -0.316,-0.896 -0.712,-2.082 -0.369,-1.186 -0.58,-2.161 -0.263,0.975 -0.632,2.16 -0.343,1.16 -0.66,2.083 l -4.665,12.86 h 11.835 z m 45.206,26.51 -10.649,-19.764 -6.695,8.116 v 11.648 h -5.615 V 20.153 h 5.615 v 18.315 l 14.577,-18.315 h 6.485 l -10.57,13.281 13.443,24.508 z"
         id="path4" />
    </g>
  </g>
</svg>
