<?xml version="1.0" encoding="UTF-8" standalone="no"?>
<svg
   height="201.36115"
   width="406.17331"
   version="1.1"
   id="svg4"
   sodipodi:docname="fm7.svg"
   inkscape:version="1.4.3 (0d15f75042, 2025-12-25)"
   xmlns:inkscape="http://www.inkscape.org/namespaces/inkscape"
   xmlns:sodipodi="http://sodipodi.sourceforge.net/DTD/sodipodi-0.dtd"
   xmlns="http://www.w3.org/2000/svg"
   xmlns:svg="http://www.w3.org/2000/svg">
  <defs
     id="defs4" />
  <sodipodi:namedview
     id="namedview4"
     pagecolor="#8c8c8c"
     bordercolor="#000000"
     borderopacity="0.25"
     inkscape:showpageshadow="2"
     inkscape:pageopacity="0.0"
     inkscape:pagecheckerboard="0"
     inkscape:deskcolor="#d1d1d1"
     inkscape:zoom="1.5892225"
     inkscape:cx="253.2685"
     inkscape:cy="100.67816"
     inkscape:window-width="1920"
     inkscape:window-height="1080"
     inkscape:window-x="0"
     inkscape:window-y="0"
     inkscape:window-maximized="0"
     inkscape:current-layer="svg4" />
  <g
     id="g11"
     transform="translate(4.0585938,7.6103144)">
    <path
       style="baseline-shift:baseline;display:inline;overflow:visible;opacity:0.98;vector-effect:none;fill:#ffffff;stroke-linecap:round;stroke-linejoin:round;paint-order:markers stroke fill;enable-background:accumulate;stop-color:#000000;stop-opacity:1"
       d="m 283.56785,94.084809 a 6.0006,6.0006 0 0 0 -6,6.000001 v 87.66602 a 6.0006,6.0006 0 0 0 6,6 h 112.54688 a 6.0006,6.0006 0 0 0 6,-6 v -87.66602 a 6.0006,6.0006 0 0 0 -6,-6.000001 z m 6,12.000001 h 100.54688 v 75.66602 H 289.56785 Z"
       id="path10" />
    <path
       style="baseline-shift:baseline;display:inline;overflow:visible;vector-effect:none;fill:#ffffff;stroke-linecap:round;stroke-linejoin:round;paint-order:markers stroke fill;enable-background:accumulate;stop-color:#000000"
       d="m 181.47852,96.16602 a 6.50065,6.50065 0 0 0 -5.81446,3.59375 L 159.00977,133.05859 143.0957,99.85937 a 6.50065,6.50065 0 0 0 -5.86133,-3.6914 h -34.00976 a 6.50065,6.50065 0 0 0 -3.82813,1.58594 6.50065,6.50065 0 0 0 -3.82617,-1.58399 H 3.71875 a 6.50065,6.50065 0 0 0 -6.5,6.5 v 15.5293 a 6.50065,6.50065 0 0 0 6.5,6.5 h 2.429688 v 37.47656 H 2.4414063 a 6.50065,6.50065 0 0 0 -6.5000001,6.5 v 12.93945 a 6.50065,6.50065 0 0 0 6.5000001,6.5 H 47.09375 a 6.50065,6.50065 0 0 0 6.5,-6.5 v -12.9414 a 6.50065,6.50065 0 0 0 -6.501953,-6.5 h -3.705078 v -2.5293 h 21.566406 a 6.50065,6.50065 0 0 0 6.5,-6.5 v -14.45117 a 6.50065,6.50065 0 0 0 4.980469,2.83203 H 95.57031 a 6.50065,6.50065 0 0 0 6.5,-6.5 v -12.09961 a 6.50065,6.50065 0 0 0 1.1543,0.47852 h 2.42969 v 37.47656 h -2.42774 a 6.50065,6.50065 0 0 0 -6.5,6.5 v 14.23437 a 6.50065,6.50065 0 0 0 6.5,6.5 h 31.89063 a 6.50065,6.50065 0 0 0 6.5,-6.5 v -3.80859 l 3.45508,6.76563 a 6.50065,6.50065 0 0 0 5.78906,3.54296 h 10.61328 A 6.50065,6.50065 0 0 0 167.30078,184.5 l 2.14063,-4.32422 v 1.43945 a 6.50065,6.50065 0 0 0 6.5,6.5 h 40.82421 a 6.50065,6.50065 0 0 0 6.5,-6.5 v -14.22265 a 6.50065,6.50065 0 0 0 -6.47851,-6.5 l -1.1875,-0.004 0.01,-37.48437 h 2.43165 a 6.50065,6.50065 0 0 0 6.5,-6.5 v -14.23828 a 6.50065,6.50065 0 0 0 -6.5,-6.5 z m 114.38085,1.29687 a 6.50065,6.50065 0 0 0 -6.5,6.5 v 28.47266 a 6.50065,6.50065 0 0 0 6.49415,6.5 l 15.11914,0.0117 a 6.50065,6.50065 0 0 0 6.49218,-6.92188 c -0.0695,-1.06722 0.23742,-2.313 0.57227,-2.89062 0.29279,-0.50507 0.30928,-0.45786 0.55664,-0.49024 l 20.88281,0.0137 c -5.34027,5.35113 -9.75377,11.52885 -12.74219,17.14844 a 6.50065,6.50065 0 0 0 -0.20312,0.41602 c -4.94726,11.15261 -7.49671,22.91216 -9.22461,34.38671 a 6.50065,6.50065 0 0 0 6.37695,7.46875 c 9.89243,0.0774 19.75843,0.0254 29.58399,0.0254 a 6.50065,6.50065 0 0 0 6.5,-6.59571 c -0.21364,-14.32012 2.89088,-28.82989 10.18945,-40.63672 4.55185,-6.73206 9.28268,-11.08209 15.75781,-12.98047 a 6.50065,6.50065 0 0 0 4.67188,-6.23632 V 103.9629 a 6.50065,6.50065 0 0 0 -6.5,-6.5 z m -110.36523,11.70313 h 26.04688 v 1.23828 h -2.42969 a 6.50065,6.50065 0 0 0 -6.5,6.49804 l -0.0137,50.46289 a 6.50065,6.50065 0 0 0 6.47851,6.50196 l 1.18945,0.004 v 1.24414 h -27.82421 v -1.24609 l 1.16601,-0.002 a 6.50065,6.50065 0 0 0 6.48828,-6.51172 l -0.0508,-30.33594 a 6.50065,6.50065 0 0 0 -12.32617,-2.87305 l -20.2793,40.96875 h -2.59961 l -21.52343,-42.14257 a 6.50065,6.50065 0 0 0 -12.28711,2.85742 c -0.156,10.17328 -0.0287,21.54147 -0.0664,31.51172 a 6.50065,6.50065 0 0 0 6.46875,6.52539 c 0.39864,0.002 0.78793,0.002 1.18555,0.004 v 1.24414 h -18.89063 v -1.23437 h 2.42774 a 6.50065,6.50065 0 0 0 6.5,-6.5 V 116.9043 a 6.50065,6.50065 0 0 0 -6.5,-6.5 h -2.42969 v -1.23633 h 23.41797 l 19.88086,41.47851 a 6.50065,6.50065 0 0 0 11.67383,0.0977 z m -175.27539,0.004 h 78.851562 v 19.35547 h -6.136718 v -10.32617 a 6.50065,6.50065 0 0 0 -6.5,-6.5 H 36.886719 a 6.50065,6.50065 0 0 0 -6.5,6.5 v 19.41406 a 6.50065,6.50065 0 0 0 6.5,6.5 h 21.566406 v 2.53125 H 36.886719 a 6.50065,6.50065 0 0 0 -6.5,6.5 v 15.53125 a 6.50065,6.50065 0 0 0 6.353515,6.43945 H 12.794922 a 6.50065,6.50065 0 0 0 6.353515,-6.43945 v -50.47656 a 6.50065,6.50065 0 0 0 -6.5,-6.5 H 10.21875 Z m 292.14062,1.29297 h 75.02735 v 6.90234 c -7.72848,3.55849 -13.67846,9.49666 -18.29688,16.35938 a 6.50065,6.50065 0 0 0 -0.13086,0.20117 c -7.76644,12.51473 -11.22499,26.91753 -11.90234,41.17188 -5.15628,0.007 -10.29612,-0.002 -15.42773,-0.0137 1.5518,-8.13933 3.50161,-16.09358 6.69921,-23.36328 3.13371,-5.82045 9.09267,-13.45688 15.03711,-18.05078 a 6.50065,6.50065 0 0 0 0.0332,-0.0254 c 3.08769,-2.41889 5.15249,-4.10322 8.30468,-5.60547 a 6.50065,6.50065 0 0 0 -2.79296,-12.36719 l -41.19141,-0.0273 a 6.50065,6.50065 0 0 0 -0.96484,0.0723 c -4.47257,0.66812 -8.0732,3.63531 -9.96485,6.89843 -0.62248,1.0738 -0.91345,2.20711 -1.27734,3.32813 l -3.15235,-0.002 z M 43.386719,124.69922 h 26.546875 v 9.24609 a 6.50065,6.50065 0 0 0 -4.980469,-2.83203 H 43.386719 Z m 183.583981,3.82422 a 6.50065,6.50065 0 0 0 -6.5,6.5 v 14.23633 a 6.50065,6.50065 0 0 0 6.5,6.5 h 39.54883 a 6.50065,6.50065 0 0 0 6.5,-6.5 v -14.23633 a 6.50065,6.50065 0 0 0 -6.5,-6.5 z m 6.5,13 h 26.54883 v 1.23633 H 233.4707 Z"
       id="path9" />
    <path
       d="m 47.487,169.509 v 12.942 H 2.836 V 169.51 h 10.206 v -50.476 h -8.93 v -15.53 H 95.964 V 135.86 H 76.828 V 119.034 H 37.281 v 19.414 h 28.066 v 15.531 H 37.28 v 15.531 z m 65.062,-1.294 v -50.476 h -8.93 v -14.236 h 34.01 l 21.65,45.169 22.593,-45.17 h 36.563 v 14.237 h -8.93 l -0.013,50.463 7.667,0.026 v 14.223 h -40.823 v -14.236 l 7.654,-0.013 -0.051,-30.337 -22.07,44.586 h -10.614 l -23.333,-45.686 c -0.154,10.043 -0.026,21.393 -0.064,31.437 2.551,0.013 5.103,0.013 7.654,0.026 v 14.223 H 103.62 v -14.236 z m 114.816,-32.356 h 39.548 v 14.236 h -39.548 z m 90.743,-12.879 c -4.86,0.726 -7.03,5.786 -6.736,10.303 l -15.118,-0.013 v -28.473 h 88.026 v 17.692 c -8.343,2.446 -14.352,8.193 -19.404,15.7 -8.152,13.136 -11.443,28.9 -11.214,44.25 -9.848,0 -19.697,0.051 -29.533,-0.026 1.684,-11.183 4.146,-22.365 8.739,-32.719 3.572,-6.717 9.9,-14.91 16.916,-20.332 3.024,-2.369 5.633,-4.504 9.517,-6.355 z"
       id="path3"
       style="fill:#545454;stroke:#000000;stroke-width:0.778;stroke-opacity:1" />
    <path
       d="m 284.198,99.567 h 112.546 v 87.666 H 284.198 Z"
       fill="none"
       opacity="0.98"
       stroke="#545454"
       stroke-width="3"
       id="path4"
       style="stroke:#000000;stroke-opacity:1" />
  </g>
  <g
     id="g8"
     style="fill:#e60012;stroke:#ffffff;stroke-width:10;stroke-linecap:round;stroke-linejoin:round;stroke-dasharray:none;stroke-opacity:1;paint-order:markers stroke fill"
     transform="translate(9.4120209,4.3496094)">
    <path
       style="baseline-shift:baseline;display:inline;overflow:visible;vector-effect:none;fill:#ffffff;stroke:none;stroke-width:10;stroke-linecap:round;stroke-linejoin:round;stroke-dasharray:none;stroke-opacity:1;paint-order:markers stroke fill;enable-background:accumulate;stop-color:#000000;stop-opacity:1"
       d="m 195.30469,34.361328 a 5.0005,5.0005 0 0 0 -4.79102,3.570313 l -2.71484,9.101562 a 5.0005,5.0005 0 0 0 4.79101,6.429688 h 0.0957 a 5.0005,5.0005 0 0 0 4.36328,-2.556641 c 0.57057,-1.018238 1.01149,-1.213811 1.30664,-1.345703 0.29514,-0.131892 0.002,-0.07813 0.002,-0.07813 h 3.75391 l 0.004,35.595703 c -0.002,-0.127541 -0.0457,0.05435 -0.043,0.05078 0.003,-0.0036 0.29738,-0.323074 0.93164,-0.361328 a 5.0005,5.0005 0 0 0 -4.69922,4.990234 v 0.09375 a 5.0005,5.0005 0 0 0 5,5 h 16.30859 a 5.0005,5.0005 0 0 0 5,-5 v -0.09375 a 5.0005,5.0005 0 0 0 -4.70117,-4.990234 c 0.62497,0.0374 0.91108,0.350802 0.91016,0.349609 -9.3e-4,-0.0012 -0.043,-0.207472 -0.043,-0.03906 l 0.01,-35.609375 1.82422,-0.0039 a 5.0005,5.0005 0 0 0 4.62109,3.998047 h 0.0898 a 5.0005,5.0005 0 0 0 4.79297,-3.576172 l 2.70703,-9.09961 a 5.0005,5.0005 0 0 0 -4.79297,-6.425781 z m 65.97265,0.002 a 5.0005,5.0005 0 0 0 -5,5 v 0.111328 A 5.0005,5.0005 0 0 0 261,44.466797 c -0.64248,-0.03573 -0.94721,-0.364029 -0.95117,-0.369141 -0.004,-0.0051 0.0449,0.20156 0.0449,0.06445 l -0.0117,31.154297 a 5.0005,5.0005 0 0 0 0,0.002 c 0,6.376685 2.81276,11.973338 7.18359,15.560547 4.37084,3.587209 10.07562,5.310547 16.07227,5.310547 6.00352,0 11.70067,-1.724171 16.05469,-5.318359 4.35401,-3.594189 7.13281,-9.190177 7.13281,-15.552735 v -31.15625 c 0,0.141642 0.0502,-0.06823 0.0488,-0.06641 -10e-4,0.0018 -0.30049,0.333987 -0.96289,0.371094 a 5.0005,5.0005 0 0 0 4.7207,-4.992188 v -0.111328 a 5.0005,5.0005 0 0 0 -5.00586,-5 l -16.28711,0.01758 a 5.0005,5.0005 0 0 0 -4.99609,5 v 0.09375 a 5.0005,5.0005 0 0 0 4.7207,4.992188 c -0.65011,-0.03625 -0.95524,-0.368207 -0.95898,-0.373047 -0.004,-0.0048 0.0469,0.203955 0.0469,0.06836 v 32.064453 c 0,2.529228 -2.20702,4.851563 -4.54883,4.851563 -2.40148,0 -4.54296,-2.252762 -4.54296,-4.791016 l -0.0117,-32.126953 c 0.002,0.134618 0.0475,-0.05157 0.0469,-0.05078 -6.2e-4,8.02e-4 -0.29194,0.317192 -0.91992,0.355469 a 5.0005,5.0005 0 0 0 4.69531,-4.990235 v -0.111328 a 5.0005,5.0005 0 0 0 -5,-5 z"
       id="path7" />
    <path
       style="baseline-shift:baseline;display:inline;overflow:visible;vector-effect:none;fill:#ffffff;stroke:none;stroke-width:10;stroke-linecap:round;stroke-linejoin:round;stroke-dasharray:none;stroke-opacity:1;paint-order:markers stroke fill;enable-background:accumulate;stop-color:#000000;stop-opacity:1"
       d="m 184.66406,-4.3496094 c -6.37374,0 -11.76077,3.36201483 -15.15039,7.7832032 a 5.0005,5.0005 0 0 0 -1.03125,3.0332031 l -0.004,2.0488281 c -1.2447,-0.3005494 -2.52177,-0.5039062 -3.84571,-0.5039062 -9.01433,-1e-7 -16.46094,7.3851652 -16.46094,16.4003902 0,3.751459 1.33687,7.17972 3.48829,9.955078 l -12.56446,0.01367 a 5.0005,5.0005 0 0 0 -4.99609,5 v 0.09375 a 5.0005,5.0005 0 0 0 4.72266,4.992188 c -0.63764,-0.03539 -0.94615,-0.364592 -0.95118,-0.371094 -0.005,-0.0065 0.0449,0.20049 0.0449,0.06641 v 32.064453 c 0,2.531767 -2.19965,4.851563 -4.55079,4.851563 -2.3984,0 -4.53906,-2.252127 -4.53906,-4.791016 l -0.008,-32.126953 c 0.002,0.134085 0.0466,-0.05623 0.0469,-0.05664 3.3e-4,-4.19e-4 -0.28864,0.321918 -0.93164,0.361328 a 5.0005,5.0005 0 0 0 4.69336,-4.990235 v -0.111328 a 5.0005,5.0005 0 0 0 -5,-5 h -16.27734 a 5.0005,5.0005 0 0 0 -0.52344,0.216797 5.0005,5.0005 0 0 0 -0.52539,-0.216797 l -32.285155,0.01563 a 5.0005,5.0005 0 0 0 -4.998047,5 v 0.09766 a 5.0005,5.0005 0 0 0 4.722656,4.992188 c -0.644657,-0.03588 -0.959086,-0.369488 -0.964843,-0.376953 -0.0058,-0.0075 0.04687,0.199861 0.04687,0.07031 v 40.914063 c 0,-0.138035 -0.05089,0.07689 -0.04883,0.07422 0.0021,-0.0027 0.307573,-0.335705 0.957032,-0.373047 a 5.0005,5.0005 0 0 0 -4.712891,4.992187 v 0.0957 a 5.0005,5.0005 0 0 0 5,5 h 16.289063 a 5.0005,5.0005 0 0 0 5,-5 v -0.0957 A 5.0005,5.0005 0 0 0 94.59375,84.777344 c 0.646332,0.03713 0.941594,0.363523 0.941406,0.363281 -1.84e-4,-2.38e-4 -0.04704,-0.194891 -0.04883,-0.0625 v -0.002 l 0.0059,-14.878906 h 6.285154 a 5.0005,5.0005 0 0 0 4.5586,3.798828 h 0.10351 a 5.0005,5.0005 0 0 0 3.69922,-1.859375 l -0.002,3.179687 a 5.0005,5.0005 0 0 0 0,0.002 c 0,6.376352 2.81207,11.975163 7.18555,15.5625 4.37347,3.587338 10.08161,5.308594 16.08593,5.308594 5.99706,0 11.69054,-1.725764 16.04102,-5.320312 3.7901,-3.131539 6.26328,-7.823583 6.86914,-13.175782 l 0.004,17.626953 c 0,0 -0.33247,6.724448 -5.25,10.326168 a 5.0005,5.0005 0 0 0 -1.96485,4.92969 l 0.0176,0.0977 a 5.0005,5.0005 0 0 0 5.74609,4.03711 c 1.06095,-0.17771 5.66089,-0.98927 10.43164,-4.14063 4.42396,-2.92227 8.80657,-8.52718 9.44532,-16.396482 a 5.0005,5.0005 0 0 0 1.63867,0.677734 h 16.26367 a 5.0005,5.0005 0 0 0 5,-5 v -0.09375 a 5.0005,5.0005 0 0 0 -4.69727,-4.990234 c 0.66256,0.0402 0.94679,0.36772 0.94336,0.363281 -0.003,-0.0044 -0.0508,-0.219235 -0.0508,-0.07227 V 44.054687 c 0,0.30676 0.26178,0.345233 -0.91211,0.41211 a 5.0005,5.0005 0 0 0 4.7168,-4.992188 v -0.0957 a 5.0005,5.0005 0 0 0 -5,-5 h -15.14062 a 5.0005,5.0005 0 0 0 0.63281,-1.761719 c 2.05102,0.745989 4.23198,1.216797 6.52148,1.216797 10.51434,0 19.14453,-8.611196 19.14453,-19.097656 0,-10.4936276 -8.63999,-19.0859374 -19.14453,-19.0859374 z m 0,4.0996094 0.47071,0.0214844 c 0,0 -0.18786,0.006902 -0.20313,0.005859 C 184.84055,-0.2243174 184.75552,-0.25 184.66406,-0.25 Z m -0.4707,9.9785156 A 5.0005,5.0005 0 0 0 184.66406,9.75 c 2.84714,0 5.02735,2.193167 5.02735,4.986328 0,2.817025 -2.17539,4.994141 -5.02735,4.994141 a 5.0005,5.0005 0 0 0 -0.008,0 c -1.31533,0.0024 -2.57061,-0.517854 -3.50586,-1.441407 l -2.77344,-3.105468 c 1.30122,-3.387601 2.8313,-4.468331 4.02149,-4.996094 1.2459,-0.5524691 1.79492,-0.4589844 1.79492,-0.4589844 z m -19.5625,12.3867184 a 5.0005,5.0005 0 0 0 0.008,0 c 0.61016,-9.82e-4 1.18778,0.243244 1.62305,0.669922 l 1.80664,2.025391 c -0.78342,1.002491 -1.50485,1.5617 -2.02734,1.753906 -0.73205,0.269293 -0.74805,0.210938 -0.74805,0.210938 a 5.0005,5.0005 0 0 0 -0.66211,-0.04297 c -1.35866,0 -2.33399,-0.976529 -2.33399,-2.320313 0,-1.316226 0.97041,-2.296875 2.33399,-2.296875 z m 83.01562,11.222657 c -10.39298,0 -17.00496,4.557414 -20.03906,9.388671 -2.79041,4.443223 -2.86138,8.597593 -2.86328,9.300782 -0.0523,0.501838 -0.31564,3.383392 0.99414,6.810547 1.42793,3.736296 4.74136,8.176848 10.93555,11.560546 l 10.12695,5.529297 c 1.32302,0.735328 1.37689,1.148535 1.42383,1.275391 0.0471,0.127392 0.0508,-0.435547 0.0508,-0.435547 a 5.0005,5.0005 0 0 0 -0.0566,0.693359 c 0,0 0.0309,0.396402 -0.56836,1.244141 -0.58191,0.823208 -1.67218,2.059716 -5.96875,2.322266 -0.21697,-0.01868 -1.70156,-0.133869 -3.70703,-0.69336 -2.14602,-0.598702 -4.13665,-1.825973 -4.50391,-2.367187 a 5.0005,5.0005 0 0 0 -4.13672,-2.19336 h -0.10156 a 5.0005,5.0005 0 0 0 -4.77148,6.490235 l 2.89453,9.279297 a 5.0005,5.0005 0 0 0 2.98437,3.179687 c 2.68594,1.029145 5.28533,1.233694 7.43946,1.363281 2.09106,0.125794 3.65944,0.07711 3.75586,0.07422 11.42115,-0.01215 18.48434,-4.412655 21.86132,-9.328125 3.17398,-4.619978 3.18846,-9.170781 3.1836,-9.753906 0.0636,-0.665438 0.26,-3.24685 -0.90039,-6.453125 -1.31954,-3.646009 -4.45403,-8.021321 -10.32227,-11.240234 a 5.0005,5.0005 0 0 0 -0.0176,-0.0098 l -10.19336,-5.535156 a 5.0005,5.0005 0 0 0 -0.041,-0.02148 c -1.58355,-0.841242 -1.6701,-1.362471 -1.75391,-1.603515 -0.0838,-0.241044 -0.0879,0.173828 -0.0879,0.173828 a 5.0005,5.0005 0 0 0 0.0664,-1.167969 c 0,0 0.0159,-0.557042 0.36719,-1.162109 0.35128,-0.605068 0.55762,-1.486328 4.35546,-1.486328 a 5.0005,5.0005 0 0 0 0.4336,-0.01758 c 0,0 3.35938,0.09935 4.25195,1.574219 a 5.0005,5.0005 0 0 0 4.32422,2.41211 l 0.10547,-0.002 a 5.0005,5.0005 0 0 0 4.95312,-5 v -7.68164 a 5.0005,5.0005 0 0 0 -1.46093,-3.533203 c -2.12477,-2.128033 -3.25492,-1.873374 -4.51954,-2.144532 -1.26461,-0.271157 -2.54349,-0.42774 -3.75585,-0.546875 -2.42473,-0.238268 -4.60547,-0.292968 -4.60547,-0.292968 a 5.0005,5.0005 0 0 0 -0.13282,-0.002 z m -72.55273,10.654296 a 5.0005,5.0005 0 0 0 1.0332,0.476563 c -1.15362,-0.06002 -0.93164,-0.145163 -0.93164,-0.412109 v 41.001953 c 0,-0.140909 -0.05,0.07121 -0.0508,0.07227 -8.1e-4,0.0011 0.29484,-0.324285 0.94141,-0.363281 a 5.0005,5.0005 0 0 0 -1.09375,0.511719 l -0.01,-41.117188 c 0,0.132572 0.0517,-0.07459 0.0469,-0.06836 -0.005,0.0062 -0.31569,0.339087 -0.96094,0.375 a 5.0005,5.0005 0 0 0 1.02539,-0.476563 z m -18.64453,0.117188 a 5.0005,5.0005 0 0 0 0.0723,0.0332 c -0.005,0.0046 -0.0587,0.01849 -0.0664,0.02539 -0.01,-0.0086 -0.0659,-0.02324 -0.0723,-0.0293 a 5.0005,5.0005 0 0 0 0.0664,-0.0293 z m 0.12695,0.05859 a 5.0005,5.0005 0 0 0 0.64844,0.300781 c -0.42967,-0.02385 -0.5067,-0.149997 -0.64844,-0.253906 z m -0.26758,0.0059 v 0.05078 c -0.13682,0.09991 -0.20237,0.218361 -0.63086,0.242188 a 5.0005,5.0005 0 0 0 0.63086,-0.292968 z m -51.08398,4.359375 a 5.0005,5.0005 0 0 0 0.39258,0.851563 c -0.19099,-0.08577 -0.36147,-0.267417 -0.39258,-0.851563 z m -9.736329,0.947266 h 10.173829 a 5.0005,5.0005 0 0 0 4.48828,3.759765 l -0.002,3.744141 A 5.0005,5.0005 0 0 0 106.4394,55.099646 H 95.492187 Z M 101.3418,69.25 a 5.0005,5.0005 0 0 0 0.38867,0.845703 C 101.53635,70.005024 101.37075,69.819805 101.3418,69.25 Z m 156.87695,8.310547 -0.0547,0.693359 c 0,0 0.002,-0.297403 0.008,-0.36914 0.002,-0.03701 0.0469,-0.324219 0.0469,-0.324219 z"
       id="path5" />
    <path
       style="baseline-shift:baseline;display:inline;overflow:visible;vector-effect:none;fill:#e60012;stroke:none;stroke-width:10;stroke-linecap:round;stroke-linejoin:round;stroke-dasharray:none;stroke-opacity:1;paint-order:markers stroke fill;enable-background:accumulate;stop-color:#000000;stop-opacity:1"
       d="m 192.59,48.462 h 0.096 c 2.205,-3.935 5.606,-3.98 5.606,-3.98 h 8.818 l 0.006,40.595 c 0,2.197 -1.64,4.55 -3.812,4.681 v 0.094 h 16.31 v -0.094 c -2.189,-0.131 -3.835,-2.5 -3.835,-4.68 l 0.012,-40.597 7.37,-0.018 c 2.238,0 4.01,1.78 4.074,3.999 h 0.09 l 2.707,-9.1 h -34.727 z m 81.17,27.826 c 0,5.25 4.271,9.79 9.543,9.79 5.258,0 9.548,-4.6 9.548,-9.852 V 44.162 c 0,-2.205 -1.638,-4.566 -3.808,-4.687 V 39.38 l 16.289,-0.016 v 0.111 c -2.16,0.121 -3.806,2.482 -3.806,4.687 v 31.157 c 0,10.028 -8.114,15.87 -18.188,15.87 -10.057,0 -18.256,-5.842 -18.256,-15.87 l 0.012,-31.157 c 0,-2.205 -1.64,-4.566 -3.816,-4.687 v -0.111 h 16.293 v 0.111 c -2.182,0.133 -3.822,2.496 -3.822,4.687 z"
       id="path8" />
    <path
       style="baseline-shift:baseline;display:inline;overflow:visible;vector-effect:none;fill:#e60012;stroke:none;stroke-width:10;stroke-linecap:round;stroke-linejoin:round;stroke-dasharray:none;stroke-opacity:1;paint-order:markers stroke fill;enable-background:accumulate;stop-color:#000000;stop-opacity:1"
       d="m 90.495,65.198 h 11.51 c 2.182,0 4.22,1.634 4.33,3.799 h 0.105 V 60.099 H 90.495 L 90.487,44.481 h 15.385 c 2.191,0 4.231,1.628 4.346,3.787 h 0.1 l -0.015,-8.904 -32.285,0.014 v 0.098 c 2.174,0.121 3.804,2.481 3.804,4.686 v 40.915 c 0,2.197 -1.63,4.567 -3.804,4.692 v 0.096 h 16.289 v -0.096 c -2.176,-0.125 -3.82,-2.495 -3.82,-4.692 z m 33.331,11.09 c 0,5.25 4.27,9.79 9.54,9.79 5.264,0 9.55,-4.6 9.55,-9.852 V 44.162 c 0,-2.205 -1.636,-4.566 -3.816,-4.687 V 39.38 l 16.301,-0.016 v 0.111 c -2.176,0.121 -3.824,2.482 -3.824,4.687 v 31.157 c 0,10.028 -8.11,15.87 -18.168,15.87 -10.076,0 -18.273,-5.842 -18.273,-15.87 l 0.021,-31.157 c 0,-2.205 -1.644,-4.566 -3.808,-4.687 v -0.111 h 16.278 v 0.111 c -2.17,0.133 -3.809,2.496 -3.809,4.687 z M 257.015,47.541 c -2.73,-4.511 -8.963,-3.968 -8.963,-3.968 -10.195,0 -9.713,7.95 -9.713,7.95 0,0 -0.701,3.989 4.421,6.71 l 10.193,5.536 c 9.839,5.397 8.672,13.067 8.672,13.067 0,0 0.445,14.328 -20.132,14.328 0,0 -5.979,0.187 -9.364,-1.11 l -2.896,-9.28 h 0.101 c 3.135,4.62 12.242,5.288 12.242,5.288 11.563,-0.52 11.643,-8.552 11.643,-8.552 0,0 0.52,-3.459 -4.007,-5.964 L 239.07,66.01 c -10.59,-5.785 -9.378,-13.576 -9.378,-13.576 0,0 -0.25,-14.096 17.955,-14.096 0,0 8.172,0.215 9.474,1.519 V 47.54 Z M 177.59,21.807 a 9.98,9.98 0 0 0 7.075,2.923 c 5.541,0 10.027,-4.47 10.027,-9.994 0,-5.508 -4.486,-9.986 -10.027,-9.986 0,0 -7.72,-0.73 -11.194,9.117 l 0.011,-7.392 c 2.586,-3.373 6.588,-5.825 11.183,-5.825 7.818,0 14.144,6.301 14.144,14.086 0,7.774 -6.326,14.098 -14.144,14.098 -3.906,0 -7.438,-1.57 -9.99,-4.131 l -4.865,-5.451 a 7.318,7.318 0 0 0 -5.179,-2.136 c -4.05,0 -7.335,3.264 -7.335,7.296 0,4.048 3.284,7.32 7.335,7.32 0,0 5.418,0.724 8.84,-5.969 l 0.011,5.919 a 11.476,11.476 0 0 1 -8.85,4.153 c -6.325,0 -11.46,-5.114 -11.46,-11.423 0,-6.297 5.135,-11.4 11.46,-11.4 3.15,0 6.01,1.263 8.088,3.344 z m 2.606,22.249 c 0,-2.207 -1.638,-4.468 -3.81,-4.581 v -0.096 h 16.264 v 0.096 c -2.159,0.123 -3.805,2.386 -3.805,4.58 v 41.003 c 0,2.2 1.646,4.569 3.805,4.7 v 0.094 h -16.264 v -0.094 c 2.172,-0.131 3.81,-2.5 3.81,-4.7 z m -10.213,0.107 c 0,-2.205 1.634,-4.566 3.808,-4.687 v -0.098 h -16.29 v 0.098 c 2.18,0.121 3.807,2.482 3.807,4.687 l 0.014,51.258 c 0,0 -0.183,9.051 -7.295,14.26 l 0.018,0.099 c 1.403,-0.235 15.95,-2.987 15.95,-17.393 z"
       id="path6" />
  </g>
</svg>
