<?xml version="1.0" encoding="UTF-8" standalone="no"?>
<svg
   version="1.2"
   width="575.65387"
   height="75.918991"
   xml:space="preserve"
   id="svg5"
   sodipodi:docname="gameandwatch.svg"
   inkscape:version="1.4.3 (0d15f75042, 2025-12-25)"
   xmlns:inkscape="http://www.inkscape.org/namespaces/inkscape"
   xmlns:sodipodi="http://sodipodi.sourceforge.net/DTD/sodipodi-0.dtd"
   xmlns="http://www.w3.org/2000/svg"
   xmlns:svg="http://www.w3.org/2000/svg"><defs
   id="defs5">
        
        
        
    
            
            
        </defs><sodipodi:namedview
   id="namedview5"
   pagecolor="#9d9d9d"
   bordercolor="#000000"
   borderopacity="0.25"
   inkscape:showpageshadow="2"
   inkscape:pageopacity="0.0"
   inkscape:pagecheckerboard="0"
   inkscape:deskcolor="#d1d1d1"
   inkscape:zoom="1.1338368"
   inkscape:cx="288.84229"
   inkscape:cy="37.924331"
   inkscape:window-width="1920"
   inkscape:window-height="1080"
   inkscape:window-x="0"
   inkscape:window-y="0"
   inkscape:window-maximized="0"
   inkscape:current-layer="svg5" />
    <g
   style="fill:#000000;fill-opacity:1;stroke:#ffffff;stroke-width:15;stroke-linecap:round;stroke-linejoin:round;stroke-dasharray:none;stroke-opacity:1;paint-order:markers stroke fill"
   id="g1"
   transform="translate(7.502537,7.5012917)">
            <g
   id="path1"
   style="opacity:1"
   transform="matrix(1.91339,0,0,1.91339,-925.855,-687.547)"><path
     style="baseline-shift:baseline;display:inline;overflow:visible;vector-effect:none;fill:#ffffff;stroke:none;enable-background:accumulate;stop-color:#000000;stop-opacity:1"
     d="m 499.80078,355.41406 c -10.9097,0 -19.83984,8.92655 -19.83984,19.83789 0,10.90907 8.92836,19.83985 19.83984,19.83985 3.64275,0 6.94578,-1.18191 9.88867,-2.90821 a 3.9201365,3.9201365 0 0 0 2.79688,1.67383 h 6.22656 a 3.9201365,3.9201365 0 0 0 3.26563,-1.75195 l 3.13281,-4.7168 h 3.56836 v 2.56055 a 3.9201365,3.9201365 0 0 0 3.91992,3.91992 h 5.18555 a 3.9201365,3.9201365 0 0 0 0.86914,-0.35937 3.9201365,3.9201365 0 0 0 0.58203,0.34765 h 6.23242 a 3.9201365,3.9201365 0 0 0 3.26562,-1.75195 l 6.69532,-10.08594 v 7.92969 a 3.9201365,3.9201365 0 0 0 3.91992,3.91992 h 5.1875 a 3.9201365,3.9201365 0 0 0 3.91992,-3.91992 v 1.14844 l 6.03125,-9.08204 v 7.9336 a 3.9201365,3.9201365 0 0 0 3.91992,3.91992 h 5.18555 a 3.9201365,3.9201365 0 0 0 2.08594,-0.86523 3.9201365,3.9201365 0 0 0 2.125,0.87304 l 5.17968,-0.0195 h 10.56446 a 3.9201365,3.9201365 0 0 0 3.91797,-3.91992 v -5.18945 a 3.9201365,3.9201365 0 0 0 -2.97852,-3.5293 3.9201365,3.9201365 0 0 0 2.97852,-3.53125 V 372.5 a 3.9201365,3.9201365 0 0 0 -3.70313,-3.83203 3.9201365,3.9201365 0 0 0 3.70313,-3.83008 v -5.18945 a 3.9201365,3.9201365 0 0 0 -3.91797,-3.91992 h -15.75977 a 3.9201365,3.9201365 0 0 0 -2.09765,0.86914 3.9201365,3.9201365 0 0 0 -2.09766,-0.86914 h -5.18555 a 3.9201365,3.9201365 0 0 0 -3.91797,3.91406 l 0.65235,-2.16211 -6.68555,10.06445 v -7.89648 a 3.9201365,3.9201365 0 0 0 -3.91992,-3.91992 h -5.1875 a 3.9201365,3.9201365 0 0 0 -3.26563,1.75195 l -14.3789,21.65234 v -19.48242 a 3.9201365,3.9201365 0 0 0 -3.91992,-3.91992 h -5.18555 a 3.9201365,3.9201365 0 0 0 -3.26563,1.75195 l -10.41992,15.68945 a 3.9201365,3.9201365 0 0 0 -2.06445,-1.73242 3.9201365,3.9201365 0 0 0 1.11523,-4.1582 c -3.07305,-6.99169 -10.07715,-11.86719 -18.16406,-11.86719 z m 60.81836,9.41016 v 0.63476 a 3.9201365,3.9201365 0 0 0 -0.35156,-0.10742 z m -26.75195,0.002 v 0.63281 a 3.9201365,3.9201365 0 0 0 -0.34961,-0.10351 z m 45.80664,0.002 v 0.62696 a 3.9201365,3.9201365 0 0 0 -0.34766,-0.10156 z m -79.87305,3.24805 a 3.9201365,3.9201365 0 0 0 0.002,0 c 2.26281,-0.002 4.34881,1.09779 5.69922,2.90235 h -5.43945 a 3.9201365,3.9201365 0 0 0 -3.91992,3.91992 v 5.04687 a 3.9201365,3.9201365 0 0 0 0.77929,1.87891 c -2.54418,-1.09463 -4.29882,-3.59393 -4.29882,-6.57227 0,-4.01077 3.16377,-7.17578 7.17773,-7.17578 z m 63.46875,16.02149 a 3.9201365,3.9201365 0 0 0 0.35742,0.10351 l -0.35742,0.53906 z"
     id="path6" /><path
     style="baseline-shift:baseline;display:inline;overflow:visible;vector-effect:none;stroke:none;enable-background:accumulate;stop-color:#000000;stop-opacity:1"
     d="m 508.865,368.86 a 11.07,11.07 0 0 0 -9.065,-4.703 c -6.131,0 -11.096,4.967 -11.096,11.095 0,6.126 4.965,11.093 11.096,11.093 4.448,0 8.285,-2.62 10.056,-6.4 h -9.793 v -5.046 h 15.641 c 0.005,0.119 0.009,0.235 0.009,0.353 0,1.63 -0.244,3.208 -0.701,4.692 -2.001,6.499 -8.054,11.229 -15.211,11.229 -8.792,0 -15.92,-7.131 -15.92,-15.921 0,-8.793 7.128,-15.918 15.92,-15.918 6.515,0 12.112,3.919 14.576,9.525 h -5.511 z m 23.734,-9.21 -20.113,30.288 h 6.227 l 4.296,-6.47 h 9.59 v 6.482 h 5.187 v -30.3 H 532.6 Z m -6.146,18.63 6.146,-9.252 v 9.252 z m 51.955,-18.63 -13.87,20.879 v -20.88 h -5.188 l -20.114,30.288 h 6.233 l 13.881,-20.91 v 20.923 h 5.188 v -0.036 l 13.87,-20.887 v 20.923 h 5.186 v -30.301 h -5.186 z m 25.14,5.188 v -5.189 H 587.79 v 30.309 l 5.186,-0.02 h 10.572 v -5.189 h -10.572 v -7.062 h 10.572 V 372.5 h -10.572 v -7.662 z"
     id="path7" /></g>
        </g><g
   id="path2"
   style="fill:#000000;fill-opacity:1;stroke:#ffffff;stroke-width:15;stroke-linecap:round;stroke-linejoin:round;stroke-dasharray:none;stroke-opacity:1;paint-order:markers stroke fill"
   transform="matrix(1.91339,0,0,1.91339,-12.855463,-11.440708)"><path
     style="baseline-shift:baseline;display:inline;overflow:visible;vector-effect:none;fill:#ffffff;stroke:none;enable-background:accumulate;stop-color:#000000;stop-opacity:1"
     d="m 152.08789,6.6445312 c -2.64668,0 -5.23629,0.8993297 -7.31641,2.6796876 -2.08011,1.7803582 -3.57031,4.6097962 -3.57031,7.7890622 0,2.198147 0.68052,4.05032 1.59375,5.580078 -0.51155,0.512135 -1.03667,0.987592 -1.5,1.625 -1.42125,1.955246 -2.36914,4.604229 -2.36914,7.583985 0,3.496491 1.29999,6.872254 3.74609,9.318359 2.47017,2.472473 5.88274,3.771484 9.41602,3.771484 3.0913,0 5.89515,-0.830353 8.05469,-2.392578 0.69027,-0.499349 1.19599,-1.123655 1.74804,-1.716797 l 2.79493,2.583985 a 3.9201365,3.9201365 0 0 0 5.53906,-0.214844 l 3.16016,-3.416016 a 3.9201365,3.9201365 0 0 0 -0.21875,-5.541015 l -5.11133,-4.720703 c 1.35853,-3.059695 3.02148,-6.806641 3.02148,-6.806641 a 3.9201365,3.9201365 0 0 0 -3.58398,-5.509766 h -4.42774 c 7.2e-4,-0.05144 0.0215,-0.09277 0.0215,-0.144531 a 3.9201365,3.9201365 0 0 0 0,-0.0039 c -0.002,-2.69862 -1.0797,-5.287747 -2.99219,-7.1914062 -2.12584,-2.1211324 -5.00448,-3.2734376 -8.00586,-3.2734376 z m 1.51758,10.6699218 h 0.002 c -0.0706,0.453538 -0.29818,1.10182 -0.57031,1.376953 -0.47794,0.480124 -0.60671,0.445313 -0.94922,0.445313 -0.021,0 -0.0355,-0.0255 -0.0547,-0.02539 a 3.9197445,3.9197445 0 0 0 1.00391,-0.419922 3.9197445,3.9197445 0 0 0 0.56836,-1.376953 z m -4.1582,5.945313 c -0.0416,0.02874 -0.0681,0.06139 -0.10938,0.08984 a 3.9201365,3.9201365 0 0 0 -0.0117,0 c 0.0381,-0.03299 0.0817,-0.05851 0.1211,-0.08984 z m 2.21093,8.171875 1.1211,1.035156 c 0.0219,0.0069 0.19699,0.03125 -0.69141,0.03125 -0.54228,0 -0.57436,-0.09812 -0.58594,-0.111328 -0.0103,-0.0079 -0.0859,-0.007 -0.0859,-0.484375 0,-0.551307 -0.12912,-0.10797 0.0684,-0.337891 0.0132,-0.01535 0.15463,-0.113196 0.17383,-0.132812 z"
     id="path8" /><path
     style="baseline-shift:baseline;display:inline;overflow:visible;vector-effect:none;stroke:none;enable-background:accumulate;stop-color:#000000;stop-opacity:1"
     d="m 163.333,30.547 c 1.663,-3.743 4.16,-9.37 4.16,-9.37 h -5.088 l -2.68,6.04 -3.988,-3.684 c 1.826,-1.468 3.43,-3.324 3.43,-6.42 a 6.24,6.24 0 0 0 -1.841,-4.421 c -1.355,-1.352 -3.261,-2.127 -5.238,-2.127 -3.423,0 -6.968,2.45 -6.968,6.548 0,2.855 1.572,4.7 3.133,6.066 -2.89,2.048 -5.408,4.228 -5.408,8.724 0,2.551 0.923,4.872 2.598,6.547 1.69,1.692 4.048,2.623 6.645,2.623 4.918,0 7.358,-2.38 9.227,-6.06 l 6.032,5.576 3.16,-3.415 z M 150.26,15.927 c 0.438,-0.44 1.142,-0.71 1.828,-0.71 0.732,0 1.475,0.293 1.947,0.763 0.326,0.325 0.485,0.694 0.485,1.133 0,1.306 -0.627,2.017 -2.338,3.282 -1.496,-1.197 -2.411,-2.032 -2.411,-3.282 0,-0.465 0.16,-0.855 0.489,-1.185 m 7.378,15.987 c -1.605,3.577 -2.745,4.503 -5.55,4.503 -1.377,0 -2.535,-0.436 -3.357,-1.253 -0.809,-0.81 -1.234,-1.938 -1.234,-3.262 0,-2.445 1.256,-3.414 4.35,-5.558 a 0.344,0.344 0 0 0 0.045,-0.033 l 5.839,5.393 z"
     id="path9" /></g><path
   style="baseline-shift:baseline;display:inline;overflow:visible;vector-effect:none;fill:#ffffff;fill-opacity:1;stroke:none;stroke-width:28.7008;stroke-linecap:round;stroke-linejoin:round;stroke-dasharray:none;stroke-opacity:1;paint-order:markers stroke fill;enable-background:accumulate;stop-color:#000000"
   d="m 426.71213,2.0304114 a 7.50075,7.50075 0 0 0 -3.72962,1.547148 7.50075,7.50075 0 0 0 -2.53375,-1.5172417 h -11.92132 a 7.50075,7.50075 0 0 0 -6.2484,3.3484325 L 389.46082,24.714549 V 9.5344974 a 7.50075,7.50075 0 0 0 -7.49661,-7.5003549 h -9.92944 a 7.50075,7.50075 0 0 0 -7.50033,7.5003549 V 7.3482963 L 353.00925,24.707068 V 9.5344974 a 7.50075,7.50075 0 0 0 -7.50034,-7.5003549 h -9.92946 a 7.50075,7.50075 0 0 0 -7.50034,7.5003549 V 67.515438 a 7.50075,7.50075 0 0 0 7.50034,7.500336 h 9.92946 a 7.50075,7.50075 0 0 0 7.50034,-7.500336 v 2.260938 l 11.52519,-17.362521 v 15.101583 a 7.50075,7.50075 0 0 0 7.50033,7.500336 h 9.92944 a 7.50075,7.50075 0 0 0 3.72962,-1.547148 7.50075,7.50075 0 0 0 2.53375,1.517261 h 11.91384 a 7.50075,7.50075 0 0 0 6.24842,-3.348433 l 5.99429,-9.025078 h 6.82766 v 4.903062 a 7.50075,7.50075 0 0 0 7.50034,7.500336 h 9.92944 a 7.50075,7.50075 0 0 0 7.50034,-7.500336 V 26.953063 h 0.11595 v 40.551163 a 7.50075,7.50075 0 0 0 7.50033,7.500336 h 9.92946 a 7.50075,7.50075 0 0 0 7.50034,-7.500336 V 26.953063 h 3.72962 a 7.50075,7.50075 0 0 0 7.50033,-7.496605 V 9.5307472 a 7.50075,7.50075 0 0 0 -7.50033,-7.5003358 h -32.39683 a 7.50075,7.50075 0 0 0 -1.93957,0.8034708 7.50075,7.50075 0 0 0 -1.93954,-0.8034708 z m 103.67061,0 A 7.50075,7.50075 0 0 0 522.8824,9.5307472 V 67.504226 a 7.50075,7.50075 0 0 0 7.50034,7.500336 h 9.92198 a 7.50075,7.50075 0 0 0 7.50033,-7.500336 V 50.306141 h 2.9224 v 17.198085 a 7.50075,7.50075 0 0 0 7.4966,7.500336 h 9.92945 a 7.50075,7.50075 0 0 0 7.50035,-7.500336 V 9.5307472 A 7.50075,7.50075 0 0 0 568.1535,2.0304114 h -9.92945 a 7.50075,7.50075 0 0 0 -7.4966,7.5003358 V 25.376008 h -2.9224 V 9.5307472 A 7.50075,7.50075 0 0 0 540.30472,2.0304114 Z M 429.14124,19.426571 v 1.240699 a 7.50075,7.50075 0 0 0 -0.68762,-0.205536 z m -54.67736,0.08228 v 1.214543 a 7.50075,7.50075 0 0 0 -0.66894,-0.205536 z m -31.3841,36.873857 a 7.50075,7.50075 0 0 0 0.67643,0.209286 l -0.67643,1.02022 z m 36.45533,0.0077 a 7.50075,7.50075 0 0 0 0.6764,0.201806 l -0.6764,1.020219 z"
   id="path10" /><g
   id="path4"
   style="fill:#000000;fill-opacity:1;stroke:#ffffff;stroke-width:15;stroke-linecap:round;stroke-linejoin:round;stroke-dasharray:none;stroke-opacity:1;paint-order:markers stroke fill"
   transform="matrix(1.91339,0,0,1.91339,-918.35246,-674.64071)"><path
     style="baseline-shift:baseline;display:inline;overflow:visible;vector-effect:none;fill:#ffffff;stroke:none;enable-background:accumulate;stop-color:#000000;stop-opacity:1"
     d="m 741.73828,352.60742 c -10.8991,0 -19.8164,8.9221 -19.81641,19.82031 10e-6,10.8967 8.91671,19.82032 19.81641,19.82032 7.64445,0 14.31933,-4.3682 17.61328,-10.74414 a 3.9201365,3.9201365 0 0 0 -3.48242,-5.71875 h -6.04492 a 3.9201365,3.9201365 0 0 0 -2.91797,1.30078 c -1.31649,1.46773 -3.19046,2.30378 -5.16211,2.30078 a 3.9201365,3.9201365 0 0 0 -0.006,0 c -3.89478,0 -6.96484,-3.07048 -6.96484,-6.95899 0,-3.8912 3.07006,-6.96289 6.96484,-6.96289 1.98628,0 3.79514,0.89347 5.09375,2.32227 a 3.9201365,3.9201365 0 0 0 2.90039,1.2832 h 6.07813 a 3.9201365,3.9201365 0 0 0 3.4707,-5.74414 c -3.30351,-6.28251 -9.90613,-10.71875 -17.54297,-10.71875 z"
     id="path12" /><path
     style="baseline-shift:baseline;display:inline;overflow:visible;vector-effect:none;stroke:none;enable-background:accumulate;stop-color:#000000;stop-opacity:1"
     d="m 749.824,379.704 a 10.84,10.84 0 0 1 -8.086,3.602 c -6.012,0 -10.885,-4.871 -10.885,-10.879 0,-6.01 4.873,-10.881 10.885,-10.881 3.161,0 6.01,1.421 7.995,3.605 h 6.078 c -2.657,-5.053 -7.963,-8.623 -14.073,-8.623 -8.78,0 -15.897,7.12 -15.897,15.9 0,8.778 7.117,15.9 15.897,15.9 6.154,0 11.489,-3.51 14.131,-8.624 z"
     id="path13" /></g><path
   style="baseline-shift:baseline;display:inline;overflow:visible;vector-effect:none;fill:#000000;fill-opacity:1;stroke:none;stroke-width:28.7008;stroke-linecap:round;stroke-linejoin:round;stroke-dasharray:none;stroke-opacity:1;paint-order:markers stroke fill;enable-background:accumulate;stop-color:#000000"
   d="M 426.70905,9.5320674 388.22886,67.486737 h 11.91277 l 8.21992,-12.375806 h 18.34941 v 12.404507 h 9.9305 V 9.530154 h -9.9305 z M 414.94935,45.18809 426.70905,27.487319 V 45.18809 Z m -69.43883,22.327348 v -0.0019 l 26.52532,-39.96115 v 39.963063 h 9.92667 v -0.0019 L 420.44844,9.5588549 H 408.52802 L 381.96251,49.5621 V 9.5339808 h -9.92667 v 0.076536 L 345.51052,49.5621 V 9.5339808 h -9.9305 V 67.515438 Z M 558.22591,9.5320674 V 32.875426 H 540.3051 V 9.5320674 h -9.92284 V 67.505871 h 9.92284 V 42.807833 h 17.92081 v 24.698038 h 9.92858 V 9.530154 h -9.92858 z m -85.30849,0 H 440.5199 v 9.9228406 h 11.23734 v 48.050963 h 9.93049 V 19.454908 h 11.2316 V 9.5320674 Z"
   id="path11" />
</svg>
