<?xml version="1.0" encoding="UTF-8" standalone="no"?>
<svg
   width="581.78094"
   height="80.893288"
   xml:space="preserve"
   version="1.1"
   id="svg4"
   sodipodi:docname="gba.svg"
   inkscape:version="1.4.3 (0d15f75042, 2025-12-25)"
   xmlns:inkscape="http://www.inkscape.org/namespaces/inkscape"
   xmlns:sodipodi="http://sodipodi.sourceforge.net/DTD/sodipodi-0.dtd"
   xmlns="http://www.w3.org/2000/svg"
   xmlns:svg="http://www.w3.org/2000/svg"><defs
   id="defs4" /><sodipodi:namedview
   id="namedview4"
   pagecolor="#9e9e9e"
   bordercolor="#000000"
   borderopacity="0.25"
   inkscape:showpageshadow="2"
   inkscape:pageopacity="0.0"
   inkscape:pagecheckerboard="0"
   inkscape:deskcolor="#d1d1d1"
   inkscape:zoom="1.121285"
   inkscape:cx="289.40011"
   inkscape:cy="41.024361"
   inkscape:window-width="1920"
   inkscape:window-height="1080"
   inkscape:window-x="0"
   inkscape:window-y="0"
   inkscape:window-maximized="0"
   inkscape:current-layer="svg4" />
    <path
   style="baseline-shift:baseline;display:inline;overflow:visible;vector-effect:none;fill:#ffffff;stroke-linecap:round;stroke-linejoin:round;paint-order:markers stroke fill;enable-background:accumulate;stop-color:#000000"
   d="M 46.933249,7.4358859e-5 C 37.657933,-0.01602564 28.529562,2.5823444 20.148093,7.7754643 a 7.50075,7.50075 0 0 0 -0.08594,0.0547 C 13.151291,12.243354 7.5360209,18.096794 4.0914519,25.345794 c -3.50297603,7.21459 -4.61725703,15.25738 -3.87109303,23.66992 a 7.50075,7.50075 0 0 0 0.0098,0.11328 c 0.589532,5.66514 2.64268603,11.14148 6.07812503,15.90039 3.335632,4.62337 7.7460791,8.4888 13.0625001,11.17969 7.281832,3.78494 15.399104,4.96874 23.449219,3.91016 h 21.796874 a 7.50075,7.50075 0 0 0 4.101563,-1.23828 7.50075,7.50075 0 0 0 3.380859,1.23828 l 131.257811,-0.1543 c 4.06869,0 7.97696,-1.00171 11.60742,-2.59766 a 7.50075,7.50075 0 0 0 0.0371,-0.0156 c 1.56553,-0.69817 2.9766,-1.58446 4.35742,-2.5 3.45084,2.44138 7.31806,4.29432 11.58203,5.18945 6.3338,1.49975 12.83389,0.98148 18.87305,-1.25195 a 7.50075,7.50075 0 0 0 2.80664,1.29297 h 26.73047 a 7.50075,7.50075 0 0 0 7.42578,-6.44727 l 0.0801,-0.56445 h 69.79882 c 8.5306,0 16.13945,-1.69317 22.36329,-5.19922 l 1.06054,1.6875 a 7.50075,7.50075 0 0 0 6.35157,3.51172 h 77.76757 a 7.50075,7.50075 0 0 0 6.10547,-4.13672 l 3.25196,2.54492 a 7.50075,7.50075 0 0 0 4.62304,1.5918 h 96.10156 a 7.50075,7.50075 0 0 0 7.5,-7.5 v -49.8418 a 7.50075,7.50075 0 0 0 -7.5,-7.4999997 H 470.16567 a 7.50075,7.50075 0 0 0 -6.06055,4.0234397 L 460.9977,9.8223744 a 7.50075,7.50075 0 0 0 -4.62109,-1.5937501 h -55.38672 a 7.50075,7.50075 0 0 0 -6.63477,4.0058597 l -0.49609,0.94336 -0.74805,-1.28906 A 7.50075,7.50075 0 0 0 386.6227,8.1505043 h -71.51562 a 7.50075,7.50075 0 0 0 -7.29102,-6.9687499 h -66.25 a 7.50075,7.50075 0 0 0 -0.11133,0 c -6.41636,0.0959 -12.64564,1.97426 -18.07617,5.46289 a 7.50075,7.50075 0 0 0 -0.36328,0.2499999 c -1.12932,-0.9196699 -2.26274,-1.8220799 -3.45117,-2.5214899 a 7.50075,7.50075 0 0 0 -0.1543,-0.0879 c -3.95651,-2.20507 -8.39543,-3.10351 -12.77734,-3.10351 H 94.431296 a 7.50075,7.50075 0 0 0 -2.908204,0.9414 7.50075,7.50075 0 0 0 -2.560546,-0.9414 h -24.53711 a 7.50075,7.50075 0 0 0 -2.984375,0.89843 l 2.208985,0.77344 c -0.816643,-0.27938 -1.639432,-0.4609 -2.458985,-0.69922 a 7.50075,7.50075 0 0 0 -3.666015,3.58985 l 1.757812,-4.13086 C 55.171057,0.57957436 51.03945,0.00721436 46.933249,1.0435886e-4 Z M 70.441061,13.699284 l -1.05664,2.48243 h 13.195312 l 0.789063,4.86718 a 7.50075,7.50075 0 0 0 14.529296,1.13672 l 1.96875,-6.0039 H 206.63247 c 2.4352,0 3.98702,0.40541 5.40234,1.17968 1.2606,0.75518 2.7804,1.99523 4.53711,4.11524 a 7.50075,7.50075 0 0 0 10.2168,1.25781 l 4.75976,-3.49805 c 3.17546,-2.02587 6.39566,-2.99669 10.11719,-3.05468 h 54.54297 a 7.50075,7.50075 0 0 0 7.57422,6.65039 l -0.31836,0.31836 h 78.83789 l 5.38086,9.2832 a 7.50075,7.50075 0 0 0 13.125,-0.26758 l 4.70898,-8.9375 h 48.27539 l 11.75391,9.19336 a 7.50075,7.50075 0 0 0 12.11914,-5.9082 v -3.28516 h 89.11523 v 34.8418 h -86.01757 l -11.94336,-9.34375 a 7.50075,7.50075 0 0 0 -12.1211,5.90625 v 3.4375 h -66.12109 l -3.18945,-5.07813 a 7.50075,7.50075 0 0 0 -12.00196,-0.9414 c -3.14916,3.60884 -8.8362,6.01953 -18.73047,6.01953 h -72.68164 a 7.50075,7.50075 0 0 0 -5.77734,2.71875 c -0.27239,0.3292 0.39193,-0.2029 0.72852,-0.25195 a 7.50075,7.50075 0 0 0 -6.34375,6.36914 l 0.25976,-1.82422 h -13.3457 a 7.50075,7.50075 0 0 0 -10.79883,-2.4375 l -0.42969,0.32812 c -4.75923,2.96534 -8.94694,3.66602 -13.92383,2.47071 a 7.50075,7.50075 0 0 0 -0.24804,-0.0566 c -3.48522,-0.71294 -6.35888,-2.38668 -9.13672,-5.33984 a 7.50075,7.50075 0 0 0 -10.76563,-0.16601 c -1.71159,1.71082 -3.38916,2.91182 -5.27734,3.75781 -2.14192,0.94002 -3.92649,1.32617 -5.55859,1.32617 a 7.50075,7.50075 0 0 0 -0.01,0 l -124.89453,0.14648 -0.966797,-5.84765 a 7.50075,7.50075 0 0 0 -14.236328,-1.86133 l -3.478516,7.7168 h -16.99414 a 7.50075,7.50075 0 0 0 -1.173828,0.0918 c -5.660954,0.89705 -10.579461,0.16229 -15.345703,-2.32422 a 7.50075,7.50075 0 0 0 -0.0918,-0.0449 c -3.214334,-1.62183 -5.647775,-3.75411 -7.69336,-6.58984 a 7.50075,7.50075 0 0 0 -0.002,-0.002 c -1.950061,-2.70131 -2.973495,-5.45748 -3.310547,-8.63477 -0.55076,-6.32767 0.25689,-11.27246 2.431641,-15.74023 a 7.50075,7.50075 0 0 0 0.03516,-0.0703 c 2.094989,-4.42191 5.46811,-8.09863 10.455078,-11.29492 10.073442,-6.23074 19.622295,-7.25892 30.71875,-3.46094 l 2.261719,0.79102 a 7.50075,7.50075 0 0 0 9.378906,-4.14063 z"
   id="path5" /><path
   fill="#1f00cc"
   d="m 301.88643,16.111116 4.352,-6.9709995 h -66.25 c -5.084,0.076 -9.82,1.5019995 -14.135,4.2739995 l -5.084,3.736 c -2.234,-2.696 -4.43,-4.584 -6.588,-5.854 -2.695,-1.5019995 -5.699,-2.1559995 -9.127,-2.1559995 H 92.853432 l -3.66,11.1689995 -1.808,-11.1679995 h -24.538 l -0.885,2.0789995 -2.311,-0.809 c -12.943,-4.4299995 -25.383,-3.0809995 -37.131,4.198 -5.971,3.813 -10.477,8.59 -13.2500003,14.443 -2.85,5.855 -3.814,12.364 -3.158,19.76 0.461,4.43 2.002,8.551 4.6990003,12.287 2.695,3.736 6.123,6.74 10.398,8.897 6.201,3.235 12.941,4.198 19.99,3.081 h 21.84 l 5.469,-12.133 2.004,12.133 131.265998,-0.153 c 2.852,0 5.701,-0.694 8.59,-1.964 2.85,-1.271 5.314,-3.082 7.549,-5.316 3.66,3.891 8.012,6.51 13.096,7.55 6.895,1.656 13.559,0.462 19.836,-3.505 l 0.811,-0.617 -0.617,3.968 h 26.73 l 0.656,-4.622 c 1.578,-0.23 2.85,-1.039 3.967,-2.389 h 72.682 c 11.17,0 19.373,-2.85 24.381,-8.589 l 5.393,8.589 h 77.768 v -10.937 l 13.98,10.938 h 96.102 v -49.842 h -104.114 v 10.784 l -13.789,-10.784 h -55.387 l -6.818,12.942 -7.549,-13.02 h -83.159 z"
   id="path1" />
    <path
   fill="#ffffff"
   d="m 318.87143,24.432116 h -8.318 l -19.605,33.009 h 23.342 v -7.318 h -9.514 l 9.514,-17.063 13.789,24.42 h 10.631 v -0.076 h 16.6 c 14.367,0 21.57,-5.547 21.57,-16.523 0,-1.888 -0.23,-3.66 -0.732,-5.316 l 13.25,21.84 h 6.355 l 19.066,-32.932 h -10.092 l -11.903,21.566 -12.557,-21.568 h -10.861 l 3.004,4.93 c -3.504,-3.313 -8.551,-4.93 -15.137,-4.93 h -21.84 v 27.384 z m 25.961,7.471 h 12.52 c 6.508,0 9.82,2.851 9.82,8.551 0,3.429 -1.039,5.932 -3.004,7.241 -1.887,1.348 -5.469,2.003 -10.477,2.003 h -8.82 v -17.795 z m 84.045,-7.471 h -8.358 l -19.529,33.008 h 9.861 v -0.077 h 13.481 v -7.357 h -9.436 l 9.36,-16.985 13.789,24.419 h 10.746 v -0.077 h 5.469 v -19.913 l 24.921,19.913 h 6.471 v -32.931 h -8.629 v 19.681 l -25.152,-19.681 h -6.432 v 27.384 z m 61.705,1.847 c -1.348,1.195 -2.041,3.352 -2.041,6.434 v 16.33 c 0,3.159 0.693,5.316 2.002,6.51 1.271,1.195 3.582,1.811 6.973,1.811 h 19.373 c 3.352,0 5.777,-0.616 7.049,-1.811 1.271,-1.193 2.004,-3.351 2.004,-6.51 v -4.583 l -9.514,-0.154 v 5.085 h -18.412 v -17.295 h 18.412 v 4.507 h 9.514 v -3.89 c 0,-3.236 -0.732,-5.393 -2.004,-6.434 -1.271,-1.271 -3.504,-1.887 -7.049,-1.887 h -19.373 c -3.352,0.04 -5.663,0.618 -6.934,1.887 z m 48.031,10.362 v -4.738 h 25.689 v -7.471 h -35.203 v 32.931 h 35.627 v -7.626 h -26.113 v -5.854 h 15.061 v -7.242 z m -481.927998,-18.412 c -10.322,-3.735 -20.299,-2.541 -29.851,3.352 -9.436,5.777 -13.557,14.598 -12.44,26.114 0.307,3.352 1.578,6.433 3.736,9.129 2.156,2.696 4.93,4.621 8.242,6.123 3.35,1.503 6.895,2.08 10.631,1.888 4.121,-0.231 7.857,-1.425 11.516,-3.429 l 0.385,-0.23 -1.424,3.158 h 10.014 l 6.434,-13.981 h 11.092 l 2.465,13.981 h 16.41 l 8.395998,-26.191 5.393,26.191 h 6.508 l 12.557,-29.041 1.271,29.041 h 9.592 l -1.965,-46.914 h -11.673 l -10.938,25.652 -4.699,-25.652 h -9.591998 l -12.362,37.939 -6.356,-37.939 h -11.824 l -18.104,40.944 2.619,-17.141 h -17.873 l -1.348,8.821 h 7.473 l -0.732,4.698 -7.857,0.54 c -3.158,-0.809 -5.393,-2.465 -6.895,-5.085 -1.271,-2.465 -1.887,-5.007 -1.578,-7.856 0.385,-3.968 2.311,-7.55 5.969,-10.785 3.313,-2.928 7.551,-4.584 12.635,-5.238 4.854,-0.732 9.129,-0.231 12.711,1.348 z m 16.91,22.957 h -5.931 l 4.121,-9.051 z m 99.027998,-23.803 h -26.694 l -7.509,46.952 h 26.884 l 1.733,-9.976 h -16.947 l 1.347,-8.397 h 14.676 l 1.578,-10.091 h -14.828 l 1.272,-8.396 h 16.908 z m 118.17,0 h -11.209 l -9.59,15.367 -5.971,-15.367 h -11.092 l 11.477,24.765 -3.619,22.187 h 9.744 l 2.928,-19.566 z"
   id="path2" />
    <path
   fill="#ffffff"
   d="m 243.72443,17.845116 c -5.469,-1.271 -10.477,0 -15.33,3.736 -4.852,3.582 -8.012,8.743 -9.668,15.253 -1.424,6.432 -0.73,12.518 1.889,17.871 2.773,5.547 6.74,8.898 12.209,10.092 5.393,1.271 10.4,0 15.254,-3.659 4.854,-3.736 8.088,-8.897 9.59,-15.407 1.502,-6.432 0.811,-12.44 -1.887,-17.871 -2.697,-5.47 -6.74,-8.821 -12.057,-10.015 z m -0.808,9.359 c 2.619,1.04 4.275,3.429 5.162,6.972 0.885,3.582 0.693,7.318 -0.617,11.285 -1.271,3.891 -3.35,6.818 -6.047,8.667 -2.773,2.003 -5.393,2.388 -7.857,1.271 -2.619,-1.04 -4.352,-3.429 -5.238,-6.972 -0.963,-3.659 -0.617,-7.396 0.654,-11.285 1.271,-3.813 3.352,-6.818 6.047,-8.821 2.657,-1.887 5.355,-2.311 7.896,-1.117 z m -32.047,-7.703 c -1.887,-1.194 -3.736,-1.81 -5.545,-1.81 h -17.949 l -7.396,46.644 h 21.57 c 2.311,0 4.699,-0.731 7.203,-2.233 2.465,-1.503 4.352,-3.352 5.854,-5.624 1.58,-2.618 2.156,-5.161 1.889,-7.856 -0.309,-2.928 -1.889,-5.701 -4.623,-8.32 5.469,-5.623 6.74,-10.939 3.891,-16.023 -1.234,-1.889 -2.775,-3.508 -4.894,-4.778 z m -16.678,16.755 1.502,-8.666 h 6.279 c 1.58,0 2.773,0.461 3.582,1.348 0.693,0.809 0.963,1.811 0.809,3.004 -0.154,1.195 -0.73,2.157 -1.656,3.005 -1.039,0.886 -2.311,1.349 -3.813,1.349 h -6.703 l 10.861,11.092 c 0.887,0.887 1.35,2.042 1.271,3.313 -0.076,1.271 -0.693,2.312 -1.811,3.236 -1.115,0.885 -2.695,1.425 -4.852,1.425 h -8.475 l 1.502,-9.437 h 8.088 c 1.811,0 3.236,0.539 4.275,1.502 z m 88.09,23.881 c 0,-1.349 -0.539,-2.389 -1.35,-3.275 -0.885,-0.885 -2.002,-1.424 -3.311,-1.424 -1.271,0 -2.389,0.539 -3.275,1.424 -0.885,0.887 -1.348,1.965 -1.348,3.275 0,1.271 0.463,2.311 1.348,3.234 0.887,0.887 2.004,1.426 3.275,1.426 1.27,0 2.387,-0.539 3.311,-1.426 0.811,-0.924 1.35,-1.963 1.35,-3.234 z m -1.889,-2.774 c 0.693,0.693 1.117,1.656 1.117,2.773 0,1.04 -0.461,1.965 -1.117,2.773 -0.654,0.654 -1.656,1.04 -2.771,1.04 -1.117,0 -2.08,-0.386 -2.773,-1.04 -0.811,-0.809 -1.195,-1.732 -1.195,-2.773 0,-1.117 0.387,-2.08 1.195,-2.773 0.654,-0.809 1.656,-1.194 2.773,-1.194 1.154,0 2.117,0.347 2.771,1.194 z"
   id="path3" />
    <path
   fill="#ffffff"
   d="m 279.27743,57.748116 -1.271,-0.308 h -2.234 v 5.238 h 0.732 v -2.388 h 1.039 l 1.426,2.388 h 0.809 l -1.58,-2.388 c 1.041,0 1.656,-0.462 1.656,-1.502 0.038,-0.462 -0.116,-0.886 -0.577,-1.04 z m -0.154,1.041 c 0,0.616 -0.617,0.885 -1.734,0.885 h -0.885 v -1.656 h 1.424 c 0.847,0 1.195,0.308 1.195,0.771 z"
   id="path4" />
</svg>
