<?xml version="1.0" encoding="UTF-8" standalone="no"?>
<svg
   width="437.09827"
   height="145.12889"
   version="1.1"
   id="svg6"
   sodipodi:docname="gx4000.svg"
   xml:space="preserve"
   inkscape:version="1.4.3 (0d15f75042, 2025-12-25)"
   xmlns:inkscape="http://www.inkscape.org/namespaces/inkscape"
   xmlns:sodipodi="http://sodipodi.sourceforge.net/DTD/sodipodi-0.dtd"
   xmlns="http://www.w3.org/2000/svg"
   xmlns:svg="http://www.w3.org/2000/svg"><sodipodi:namedview
     id="namedview6"
     pagecolor="#919191"
     bordercolor="#000000"
     borderopacity="0.25"
     inkscape:showpageshadow="2"
     inkscape:pageopacity="0.0"
     inkscape:pagecheckerboard="0"
     inkscape:deskcolor="#d1d1d1"
     inkscape:zoom="0.97928028"
     inkscape:cx="366.08518"
     inkscape:cy="247.12026"
     inkscape:window-width="1920"
     inkscape:window-height="1080"
     inkscape:window-x="0"
     inkscape:window-y="0"
     inkscape:window-maximized="0"
     inkscape:current-layer="svg6" /><defs
     id="defs1"><filter
       style="color-interpolation-filters:sRGB"
       id="a"
       x="0"
       y="0"
       width="1"
       height="1"><feConvolveMatrix
         order="3 3"
         kernelMatrix="0 -0.15 0 -0.15 1.6 -0.15 0 -0.15 0"
         divisor="1"
         in="SourceGraphic"
         targetX="1"
         targetY="1"
         id="feConvolveMatrix1" /></filter></defs><g
     id="g9"
     transform="matrix(1.0445122,0,0,1.0445122,-627.32179,-389.02126)"><g
       id="g7"
       transform="matrix(0.25927636,0,0,0.25927636,538.0485,342.30557)"
       style="stroke:#ffffff;stroke-width:38.5689;stroke-linecap:round;stroke-linejoin:round;stroke-dasharray:none;stroke-opacity:1;paint-order:markers stroke fill"><g
         id="path1"
         style="opacity:1"><path
           style="baseline-shift:baseline;display:inline;overflow:visible;vector-effect:none;fill:#ffffff;stroke:none;enable-background:accumulate;stop-color:#000000;stop-opacity:1"
           d="m 260.49414,121.24219 a 19.286379,19.286379 0 0 0 -19.28516,19.28515 v 492.31641 a 19.286379,19.286379 0 0 0 19.28516,19.28516 h 193.98633 a 19.286379,19.286379 0 0 0 19.28515,-19.28516 V 140.52734 a 19.286379,19.286379 0 0 0 -19.28515,-19.28515 z m 19.2832,38.56836 h 155.41993 v 453.75 H 279.77734 Z"
           id="path8" /><path
           style="baseline-shift:baseline;display:inline;overflow:visible;vector-effect:none;fill:#1a1a1a;stroke:none;enable-background:accumulate;stop-color:#000000;stop-opacity:1"
           d="m 260.49329,632.84408 v -492.3171 h 193.988 v 492.3171 z"
           id="path9" /></g></g><path
       d="m 78.226148,82.221277 -6.059,-4.608 q -2.048,2.218 -5.376,3.669 -3.242,1.45 -7.765,1.45 -9.643,0 -14.848,-6.57 -5.12,-6.57 -5.12,-18.176 0,-13.141 6.4,-19.37 6.485,-6.315 18.176,-6.315 4.267,0 8.363,0.853 4.181,0.768 7.338,2.048 0.256,3.072 0,6.315 -0.17,3.242 -0.597,6.485 h -7.168 l -1.707,-7.083 q -0.256,-0.938 -0.597,-1.45 -0.341,-0.512 -0.939,-0.939 -0.853,-0.597 -2.133,-1.024 -1.195,-0.512 -2.901,-0.512 -5.291,0 -7.936,5.035 -2.646,5.034 -2.646,16.213 0,8.875 2.048,13.653 2.134,4.779 7.936,4.779 1.963,0 3.584,-0.512 1.707,-0.512 2.987,-1.365 v -12.715 l -5.888,-0.683 v -4.777 h 20.224 v 4.778 l -3.157,0.512 v 19.03 z m 26.033002,-4.949 v 4.437 H 86.083148 v -4.438 l 4.608,-0.938 q 0.598,-0.086 0.939,-0.342 0.427,-0.256 0.768,-0.853 l 11.605002,-16.47 -11.946002,-18.516 q -0.342,-0.512 -0.768,-0.768 -0.342,-0.341 -0.939,-0.512 l -3.499,-0.938 v -4.694 h 22.784002 v 4.694 l -4.778,1.109 7.338,12.117 8.022,-12.117 -5.291,-1.11 v -4.693 h 17.152 v 4.694 l -4.181,0.938 q -0.598,0.086 -1.024,0.427 -0.427,0.256 -0.768,0.768 l -10.838,15.19 12.972,19.88 q 0.341,0.512 0.768,0.853 0.427,0.256 1.024,0.342 l 3.499,0.938 v 4.438 h -23.041 v -4.438 l 4.778,-1.024 -8.106,-13.312 -8.704002,13.312 z"
       style="font-style:normal;font-variant:normal;font-weight:700;font-stretch:normal;font-size:85.3333px;line-height:1.25;font-family:Yrsa;-inkscape-font-specification:'Yrsa Bold';letter-spacing:0;word-spacing:0;fill:#ffd42a;fill-opacity:1;stroke:#000000;stroke-width:0;stroke-dasharray:none;stroke-opacity:1;filter:url(#a)"
       id="path2"
       transform="matrix(0,-0.4161956,0.74064366,0,587.86384,516.91294)" /><path
       d="m 147.088,68.296 h -6.571 v 8.32 h -10.24 v -8.32 H 111.674 L 109.456,63 q 4.522,-7.847 8.533,-16.26 4.096,-8.51 7.85,-17.68 h 9.729 l 1.536,2.174 q -5.462,11.818 -9.643,19.381 -4.096,7.47 -9.13,11.818 l 12.031,-0.662 1.11,-10.494 9.045,-0.567 v 10.494 l 6.57,-0.378 z m 22.518,9.359 q -4.864,0 -8.277,-1.796 -3.413,-1.89 -5.461,-5.105 -2.048,-3.215 -2.987,-7.658 -0.939,-4.444 -0.939,-9.738 0,-13.047 5.291,-19.097 5.376,-6.145 13.568,-6.145 4.864,0 8.192,1.796 3.413,1.796 5.461,5.01 2.048,3.12 2.987,7.564 0.939,4.443 0.939,9.738 0,13.14 -5.291,19.286 -5.29,6.145 -13.483,6.145 z m 0.427,-44.245 q -2.901,0 -4.352,3.97 -1.365,3.971 -1.365,13.804 0,11.44 1.365,16.355 1.45,4.822 4.608,4.822 2.901,0 4.352,-4.065 1.45,-4.066 1.45,-13.898 0,-11.44 -1.45,-16.166 -1.365,-4.822 -4.608,-4.822 z m 42.907,44.245 q -4.864,0 -8.278,-1.796 -3.413,-1.89 -5.461,-5.105 -2.048,-3.215 -2.987,-7.658 -0.938,-4.444 -0.938,-9.738 0,-13.047 5.29,-19.097 5.376,-6.145 13.568,-6.145 4.864,0 8.192,1.796 3.414,1.796 5.462,5.01 2.048,3.12 2.986,7.564 0.939,4.443 0.939,9.738 0,13.14 -5.29,19.286 -5.291,6.145 -13.483,6.145 z m 0.426,-44.245 q -2.901,0 -4.352,3.97 -1.365,3.971 -1.365,13.804 0,11.44 1.365,16.355 1.451,4.822 4.608,4.822 2.902,0 4.352,-4.065 1.451,-4.066 1.451,-13.898 0,-11.44 -1.45,-16.166 -1.366,-4.822 -4.609,-4.822 z m 42.907,44.245 q -4.864,0 -8.277,-1.796 -3.414,-1.89 -5.462,-5.105 -2.048,-3.215 -2.986,-7.658 -0.939,-4.444 -0.939,-9.738 0,-13.047 5.29,-19.097 5.377,-6.145 13.569,-6.145 4.864,0 8.192,1.796 3.413,1.796 5.461,5.01 2.048,3.12 2.987,7.564 0.938,4.443 0.938,9.738 0,13.14 -5.29,19.286 -5.291,6.145 -13.483,6.145 z M 256.7,33.41 q -2.902,0 -4.352,3.97 -1.366,3.971 -1.366,13.804 0,11.44 1.366,16.355 1.45,4.822 4.608,4.822 2.901,0 4.352,-4.065 1.45,-4.066 1.45,-13.898 0,-11.44 -1.45,-16.166 -1.366,-4.822 -4.608,-4.822 z"
       style="font-style:normal;font-variant:normal;font-weight:700;font-stretch:normal;font-size:85.3333px;line-height:1.25;font-family:Yrsa;-inkscape-font-specification:'Yrsa Bold';letter-spacing:0;word-spacing:0;fill:#ffd42a;fill-opacity:1;stroke:none;stroke-width:0;stroke-dasharray:none;paint-order:markers stroke fill;filter:url(#a)"
       id="path3"
       transform="matrix(0,-0.4161956,0.74064366,0,591.62429,499.54897)" /></g><g
     id="path2-3"
     style="stroke:#ffffff;stroke-width:0.958018;stroke-linecap:round;stroke-linejoin:miter;stroke-dasharray:none;stroke-opacity:1;paint-order:markers stroke fill"
     transform="matrix(9.2169532,0,0,9.5752514,112.12511,-0.54234818)"><g
       id="path11"
       style="opacity:1"><path
         style="baseline-shift:baseline;display:inline;overflow:visible;vector-effect:none;fill:#ffffff;stroke:none;enable-background:accumulate;stop-color:#000000;stop-opacity:1"
         d="M 16.755859,0.05664062 9.71875,14.757813 h 8.123047 L 24.878906,0.05664062 Z M 17.359375,1.015625 h 5.998047 l -6.119141,12.783203 h -5.998047 z"
         id="path12" /><path
         style="baseline-shift:baseline;display:inline;overflow:visible;vector-effect:none;fill:#9c2249;stroke:none;enable-background:accumulate;stop-color:#000000;stop-opacity:1"
         d="m 17.05784,0.53571304 h 7.060862 L 17.539636,14.278753 h -7.059951 z"
         id="path15" /></g></g><g
     id="g10"
     transform="matrix(9.9990733,0,0,9.9990733,61.2099,12.751192)"><g
       id="path3-6"
       style="opacity:1"><path
         style="baseline-shift:baseline;display:inline;overflow:visible;vector-effect:none;fill:#ffffff;stroke-linecap:round;stroke-linejoin:round;paint-order:markers stroke fill;enable-background:accumulate;stop-color:#000000;stop-opacity:1"
         d="M 2.5429688,1.8671875 A 0.50009501,0.50009501 0 0 0 2.0488281,2.2851563 L 0.93554688,9.0371094 A 0.50009501,0.50009501 0 0 0 1.4277344,9.6191406 h 1.7324219 a 0.50009501,0.50009501 0 0 0 0.4960937,-0.4375 l 0.082031,-0.6425781 0.0625,0.6289063 A 0.50009501,0.50009501 0 0 0 4.2988281,9.6191406 H 6.1816406 A 0.50009501,0.50009501 0 0 0 6.4296875,9.5019531 0.50009501,0.50009501 0 0 0 6.5527344,9.625 H 8.3632813 A 0.50009501,0.50009501 0 0 0 8.7714844,9.3476563 0.50009501,0.50009501 0 0 0 9.1054688,9.625 H 10.257813 A 0.50009501,0.50009501 0 0 0 10.578125,9.3574219 0.50009501,0.50009501 0 0 0 10.982422,9.625 h 1.833984 a 0.50009501,0.50009501 0 0 0 0.363282,-0.3632812 c 0.517663,0.3883327 1.160526,0.3818897 2.332031,0.3789062 1.124178,-0.002 1.455864,-0.00115 1.789062,-0.140625 a 0.50009501,0.50009501 0 0 0 0.002,0 C 17.6,9.3747237 17.783773,9.2009318 17.955078,8.9492188 a 0.50009501,0.50009501 0 0 0 0.002,-0.00195 c 0.09992,-0.1480486 0.202622,-0.3823093 0.228516,-0.6386718 0.02554,-0.2528144 0.01807,-0.5672889 0.0059,-1.1132813 v -0.015625 l 0.0078,-1.0996094 C 18.202798,5.7377002 18.025778,5.594555 17.890625,5.4667969 17.77653,5.358945 17.643631,5.2709381 17.507812,5.1835937 h 0.228516 a 0.50009501,0.50009501 0 0 0 0.5,-0.5 c 0,-0.2919461 -0.0213,-0.4690936 -0.0293,-0.6992187 h 0.236328 v 5.1171875 a 0.50009501,0.50009501 0 0 0 0.5,0.5 h 1.996094 a 0.50009501,0.50009501 0 0 0 0.5,-0.5 V 3.984375 h 0.455078 l 0.04883,5.1347656 a 0.50009501,0.50009501 0 0 0 0.5,0.4960938 h 1.914063 A 0.50009501,0.50009501 0 0 0 24.566406,9.40625 0.50009501,0.50009501 0 0 0 24.957031,9.640625 l 2.021485,0.00781 a 0.50009501,0.50009501 0 0 0 0.220703,-0.09375 0.50009501,0.50009501 0 0 0 0.210937,0.097656 h 1.732422 a 0.50009501,0.50009501 0 0 0 0.496094,-0.4375 l 0.08203,-0.6425782 0.0625,0.6308594 a 0.50009501,0.50009501 0 0 0 0.498047,0.4492188 h 1.882812 a 0.50009501,0.50009501 0 0 0 0.240235,-0.1132813 0.50009501,0.50009501 0 0 0 0.109375,0.109375 l 3.46875,0.019531 c 0.359224,0.00197 0.67804,-0.030447 0.96875,-0.2070313 0.29071,-0.1765844 0.46572,-0.4939989 0.539062,-0.8085937 0.146686,-0.6291898 0.08138,-1.4085011 0.09375,-2.7011719 C 37.599013,4.4483151 37.611253,3.570479 37.455077,2.9335907 37.376991,2.6151496 37.230953,2.3193866 36.970703,2.1328125 36.710453,1.9462384 36.412872,1.9082031 36.130859,1.9082031 h -3.546875 a 0.50009501,0.50009501 0 0 0 -0.5,0.4902344 c 0,0 -0.03187,1.6576179 -0.05664,3.3300781 -2.2e-4,0.014805 2.18e-4,0.02621 0,0.041016 L 31.365234,2.3105469 A 0.50009501,0.50009501 0 0 0 30.875,1.9042969 l -2.349609,-0.00391 A 0.50009501,0.50009501 0 0 0 28.03125,2.3183594 l -0.693359,4.203125 c -0.05917,-0.246069 -0.152077,-0.4860028 -0.3125,-0.6679688 -0.03477,-0.039434 -0.08582,-0.058934 -0.123047,-0.09375 C 27.025965,5.6365277 27.236301,5.5674154 27.294922,5.4042969 27.436493,5.0103605 27.397439,4.660501 27.40625,4.1210937 27.41485,3.5851652 27.42049,3.2573854 27.31836,2.9316406 27.216229,2.6058959 26.959686,2.3698856 26.720704,2.2109375 a 0.50009501,0.50009501 0 0 0 0,-0.00195 C 26.457779,2.0350604 26.10838,1.946916 25.527344,1.9296875 24.946308,1.912459 24.033551,1.9336479 22.375,1.953125 A 0.50009501,0.50009501 0 0 0 22.183594,2.1484375 0.50009501,0.50009501 0 0 0 21.970703,1.9355469 H 17.976562 A 0.50009501,0.50009501 0 0 0 17.552734,2.2539063 C 17.300812,2.0963144 17.028593,1.9954994 16.716797,1.96875 16.344382,1.9368 15.9092,1.942897 15.345703,1.9414062 a 0.50009501,0.50009501 0 0 0 -0.002,0 c -0.5552,-9.723e-4 -0.933781,-0.030594 -1.277344,-0.015625 -0.309982,0.013506 -0.624588,0.1268947 -0.882812,0.3261719 A 0.50009501,0.50009501 0 0 0 12.816406,1.8847656 H 10.257813 A 0.50009501,0.50009501 0 0 0 9.7675781,2.2890625 L 9.7207031,2.5273438 9.6855469,2.3046875 A 0.50009501,0.50009501 0 0 0 9.1914063,1.8847656 l -2.6542969,-0.00195 a 0.50009501,0.50009501 0 0 0 -0.5,0.5 l 0.00781,3.361325 L 5.3828125,2.2773438 A 0.50009501,0.50009501 0 0 0 4.8925781,1.8710937 Z m 0.4238281,1 1.5117187,0.00391 1.0996094,5.7480468 H 4.75 l -0.09375,-0.9375 A 0.50009501,0.50009501 0 0 0 4.1621094,7.2324219 l -0.8222656,-0.00586 a 0.50009501,0.50009501 0 0 0 -0.5,0.4375 L 2.71875,8.6191406 H 2.0175781 Z m 4.0722656,0.015625 1.7265625,0.00195 0.4121094,2.5820313 a 0.50009501,0.50009501 0 0 0 0.9843746,0.017578 l 0.507813,-2.5996094 h 1.646484 V 8.625 h -0.833984 l 0.0039,-3.4394531 A 0.50009501,0.50009501 0 0 0 10.494141,5.09375 L 9.8417969,8.625 H 9.5195313 L 8.8496094,5.0917969 A 0.50009501,0.50009501 0 0 0 7.859375,5.1855469 L 7.8632812,8.625 h -0.8125 z m 21.9101565,0.017578 1.511718,0.00195 1.09961,5.75 h -0.826172 l -0.0957,-0.9375001 A 0.50009501,0.50009501 0 0 0 30.144531,7.2636719 l -0.820312,-0.00586 a 0.50009501,0.50009501 0 0 0 -0.5,0.4375 L 28.701172,8.6523438 H 28 Z m 4.126953,0.00781 h 3.054687 c 0.186487,0 0.244891,0.029246 0.25586,0.037109 0.01097,0.00786 0.05087,0.035757 0.09766,0.2265625 0.09358,0.3816116 0.114581,1.272385 0.09961,2.7695312 -0.01263,1.3193293 0.01066,2.1538148 -0.06641,2.4843751 -0.03853,0.1652801 -0.05505,0.1628812 -0.08594,0.1816406 -0.03088,0.018759 -0.164584,0.062076 -0.44336,0.060547 l -2.970703,-0.017578 v 0.4941407 a 0.50009501,0.50009501 0 0 0 -0.06836,-0.25 c -2.42e-4,-4.18e-4 0.02655,0.052971 0.0332,0.070312 0.0067,0.017341 0.01073,0.030629 0.01367,0.041016 0.0059,0.020774 0.0082,0.032629 0.0098,0.041016 0.0031,0.016773 0.0039,0.019247 0.0039,0.019531 5.7e-5,5.691e-4 -0.0029,-0.015004 -0.0039,-0.037109 -0.002,-0.04421 -0.0028,-0.1180597 -0.0039,-0.2109375 -0.0023,-0.1857557 -0.0017,-0.4508096 0,-0.7675781 0.0035,-0.6335372 0.01303,-1.4719958 0.02539,-2.3066407 0.02108,-1.4232628 0.04141,-2.450021 0.04883,-2.8359375 z m -18.966797,0.017578 c 0.241687,-0.010531 0.645622,0.014597 1.232422,0.015625 0.570503,0.00151 1.000353,-0.00133 1.289062,0.023437 0.28871,0.024769 0.402531,0.077294 0.435547,0.1054687 0.03302,0.028174 0.08042,0.091051 0.119141,0.3535156 0.02335,0.1582977 0.02447,0.48695 0.03125,0.7597656 H 16.207031 C 16.209763,3.9966336 16.22067,3.757387 16.197266,3.5976563 16.175772,3.450971 16.085083,3.210311 15.884766,3.0859375 15.685231,2.96205 15.533667,2.9755167 15.412109,2.9765625 h -0.002 c -0.112886,6.346e-4 -0.230127,0.00243 -0.382812,0.0625 -0.153444,0.060367 -0.319454,0.2267452 -0.38086,0.3769531 -0.122811,0.3004158 -0.07237,0.4721728 -0.06641,0.7617188 0.0092,0.5006906 0.326389,0.91895 0.654297,1.09375 0.32834,0.17503 0.636092,0.2259205 0.871094,0.3125 0.20781,0.077091 0.549237,0.2375675 0.80664,0.3964843 0.126202,0.077915 0.232715,0.158394 0.28711,0.2089844 L 17.191406,7.1875 a 0.50009501,0.50009501 0 0 0 0,0.015625 c 0.01245,0.5564693 0.0124,0.8617688 -0.002,1.0039063 -0.01436,0.1421374 0.0016,0.086689 -0.0625,0.1816406 -0.02789,0.03829 -0.229991,0.1966597 -0.212891,0.1894531 -0.09644,0.04037 -0.285375,0.060506 -1.406249,0.0625 C 14.344767,8.643585 13.819464,8.5188456 13.755812,8.46875 13.723982,8.443702 13.713232,8.444714 13.691362,8.2949219 13.669492,8.14513 13.670882,7.8806421 13.681562,7.5253906 a 0.50009501,0.50009501 0 0 0 0,-0.027344 l -0.01563,-0.6210938 h 0.914062 v 0.9433594 c -0.0017,0.1633631 0.07516,0.3126264 0.152344,0.4003906 0.07719,0.087764 0.152607,0.1349987 0.222656,0.1699219 0.140099,0.069846 0.2657,0.093738 0.396485,0.1054688 0.130784,0.01173 0.260861,0.012642 0.421875,-0.041016 0.08051,-0.026829 0.175607,-0.067735 0.269531,-0.1621093 0.09392,-0.094375 0.171125,-0.261554 0.171875,-0.4160157 a 0.50009501,0.50009501 0 0 0 0,-0.00195 V 6.5585937 a 0.50009501,0.50009501 0 0 0 0,-0.013672 C 16.206646,6.2656129 16.045463,6.1003965 15.921875,5.9980469 15.798287,5.8956973 15.67083,5.825628 15.533203,5.7578125 15.257949,5.6221814 14.937897,5.5020416 14.628906,5.375 14.319916,5.2479584 14.023205,5.1139545 13.841797,4.9941406 13.660389,4.8743267 13.669746,4.8115698 13.669922,4.8808594 c -1.29e-4,-0.5183909 -0.04408,-0.9781203 -0.03516,-1.3125 0.0089,-0.3348769 0.06707,-0.4855859 0.136718,-0.5507813 0.0767,-0.071583 0.0962,-0.081266 0.337891,-0.091797 z m 11.388672,0.00195 c 0.523464,0.015521 0.545846,0.033158 0.669922,0.1152344 0.188018,0.1250518 0.171397,0.1049947 0.197265,0.1875 0.02587,0.082505 0.04938,0.3539754 0.04102,0.8730468 -0.0092,0.5625928 -0.02181,0.876827 -0.05273,0.9628906 -0.03093,0.086064 -0.04687,0.1190835 -0.416016,0.2851563 a 0.50009501,0.50009501 0 0 0 -0.04883,0.8867187 c 0.215418,0.1267163 0.331807,0.2150589 0.386719,0.2773438 0.05491,0.062285 0.08148,0.1080521 0.113281,0.2695312 0.04979,0.2528445 0.05489,1.016135 0.07227,1.8593751 l -1.007812,-0.00195 C 25.473415,7.7285845 25.507362,6.9898872 25.425781,6.6035156 25.400326,6.4829601 25.361848,6.3587082 25.273437,6.2363281 25.185027,6.113948 25.039057,6.0142495 24.914062,5.9726562 24.664073,5.8894697 24.526046,5.9255896 24.375,5.9238281 A 0.50009501,0.50009501 0 0 0 23.869141,6.421875 l -0.0098,2.1933594 h -0.919922 l -0.05469,-5.6660156 c 1.205293,-0.015708 2.17361,-0.034521 2.613281,-0.021484 z m -7.019531,0.00781 h 2.992187 v 0.048828 h -0.53125 a 0.50009501,0.50009501 0 0 0 -0.5,0.5 v 5.117196 H 19.443359 V 3.484375 a 0.50009501,0.50009501 0 0 0 -0.5,-0.5 h -0.464843 z m 5.884765,0.056641 a 0.50009501,0.50009501 0 0 0 -0.509765,0.4980469 l -0.0059,1.7089843 a 0.50009501,0.50009501 0 0 0 0.503906,0.5019532 c 0.201402,-0.00109 0.361106,-0.00638 0.539063,-0.056641 0.177957,-0.050265 0.400688,-0.2052501 0.492187,-0.3984375 0.183,-0.3863746 0.07617,-0.5882192 0.07617,-0.9179687 0,-0.3093554 0.117288,-0.4949409 -0.07031,-0.8867187 C 25.294832,3.245509 25.069988,3.0965651 24.896444,3.0488198 24.7229,3.0010748 24.565829,2.9962308 24.363241,2.9921788 Z M 3.7363281,3.0332031 A 0.50009501,0.50009501 0 0 0 3.2382813,3.4882813 L 2.9609375,6.5683594 A 0.50009501,0.50009501 0 0 0 3.4589844,7.1132812 H 4.0019531 A 0.50009501,0.50009501 0 0 0 4.5,6.5683594 L 4.234375,3.4902344 A 0.50009501,0.50009501 0 0 0 3.7363281,3.0332031 Z m 30.8085939,0.00195 a 0.50009501,0.50009501 0 0 0 -0.5,0.5039062 l 0.04102,4.5273438 A 0.50009501,0.50009501 0 0 0 34.599609,8.5625 C 34.752262,8.55828 34.924237,8.57195 35.150391,8.4511719 35.376545,8.3303928 35.517203,8.0657289 35.5625,7.8496094 35.6531,7.4173703 35.61939,6.8892567 35.60742,5.796875 35.597,4.8465868 35.62456,4.3021558 35.54297,3.859375 35.50217,3.6379846 35.41362,3.393678 35.201173,3.2265625 34.988725,3.059447 34.747373,3.0351563 34.544923,3.0351563 Z m -4.826172,0.03125 a 0.50009501,0.50009501 0 0 0 -0.5,0.4550781 l -0.277344,3.0800781 a 0.50009501,0.50009501 0 0 0 0.498047,0.5449219 h 0.546875 A 0.50009501,0.50009501 0 0 0 30.484375,6.6035156 L 30.214844,3.5234375 A 0.50009501,0.50009501 0 0 0 29.71875,3.0664063 Z M 13.316406,5.8398437 c 0.02303,0.014895 0.0507,0.02278 0.07422,0.037109 h -0.07422 z"
         id="path13" /><path
         style="baseline-shift:baseline;display:inline;overflow:visible;vector-effect:none;stroke-linecap:round;stroke-linejoin:round;paint-order:markers stroke fill;enable-background:accumulate;stop-color:#000000;stop-opacity:1"
         d="m 2.5426191,2.3674699 -1.114,6.751 h 1.731 l 0.177,-1.392 0.822,0.006 0.14,1.386 h 1.883 l -1.29,-6.747 z m 1.193,1.165 0.267,3.08 h -0.544 z m 2.801,-1.15 0.016,6.742 h 1.811 l -0.005,-3.94 0.746,3.94 h 1.1529999 l 0.728,-3.94 -0.003,3.94 h 1.834 v -6.74 h -2.558 l -0.5869999,3.003 -0.48,-3.003 z m 11.4399999,0.053 0.003,1.048 h 0.964 v 5.619 h 1.996 v -5.619 h 1.032 v -1.048 z m -2.633,0.006 c -1.142,-0.002 -1.569,-0.111 -1.914,0.211 -0.438,0.41 -0.26,1.252 -0.26,2.23 0.002,0.79 2.532,1.2 2.546,1.677 v 1.315 c -10e-4,0.206 -0.637,0.141 -0.635,-0.049 v -1.448 h -1.926 l 0.027,1.132 c -0.043,1.426 -0.028,1.638 2.328,1.632 1.124,-0.002 1.383,-0.013 1.598,-0.103 0.14,-0.059 0.336,-0.226 0.434,-0.37 0.164,-0.243 0.175,-0.36 0.15,-1.477 l 0.007,-1.117 c 0.003,-0.287 -0.924,-0.776 -1.42,-0.96 -0.57,-0.21 -1.186,-0.23 -1.198,-0.947 -0.012,-0.583 -0.021,-0.688 0.334,-0.69 0.386,-0.003 0.279,0.115 0.301,1.206 h 2.02 c 0,-2.331 -0.124,-2.236 -2.392,-2.242 z m 7.038,0.011 0.062,6.662 h 1.913 l 0.012,-2.69 c 0.686,0.008 0.634,-0.161 0.59,2.717 l 2.022,0.006 c -0.07,-2.646 0.08,-2.8 -0.838,-3.34 0.818,-0.368 0.745,-0.593 0.763,-1.695 0.017,-1.055 -0.034,-1.202 -0.461,-1.486 -0.387,-0.256 -0.742,-0.213 -4.063,-0.174 z m 1.971,1.039 c 0.75,0.015 0.607,0.148 0.607,0.836 0,0.718 0.126,0.869 -0.611,0.873 z m 8.232,-1.083 c 0,0 -0.13,6.63 -0.068,6.737 v 0.002 l 3.469,0.02 c 1.276,0.007 1.073,-0.61 1.098,-3.222 0.03,-3 -0.016,-3.537 -0.953,-3.537 z m 2.522,3.394 c 0.024,2.19 0.059,2.244 -0.52,2.26 l -0.042,-4.528 c 0.62,0 0.541,0.353 0.562,2.268 z m -6.582,-3.403 -1.114,6.753 h 1.732 l 0.177,-1.394 0.822,0.006 0.14,1.388 h 1.883 l -1.29,-6.749 z m 1.193,1.167 0.268,3.08 h -0.546 z"
         id="path14" /></g></g></svg>
