<?xml version="1.0" encoding="UTF-8" standalone="no"?>
<svg
   version="1.1"
   viewBox="0 0 1323.2782 478.5"
   id="svg46"
   sodipodi:docname="laser310.svg"
   inkscape:version="1.4.3 (0d15f75042, 2025-12-25)"
   width="1323.2782"
   height="478.5"
   xmlns:inkscape="http://www.inkscape.org/namespaces/inkscape"
   xmlns:sodipodi="http://sodipodi.sourceforge.net/DTD/sodipodi-0.dtd"
   xmlns="http://www.w3.org/2000/svg"
   xmlns:svg="http://www.w3.org/2000/svg">
  <defs
     id="defs50" />
  <sodipodi:namedview
     id="namedview48"
     pagecolor="#ababab"
     bordercolor="#666666"
     borderopacity="1.0"
     inkscape:pageshadow="2"
     inkscape:pageopacity="0.0"
     inkscape:pagecheckerboard="0"
     showgrid="false"
     inkscape:zoom="0.27454029"
     inkscape:cx="675.67497"
     inkscape:cy="473.51885"
     inkscape:window-width="1920"
     inkscape:window-height="1080"
     inkscape:window-x="0"
     inkscape:window-y="0"
     inkscape:window-maximized="0"
     inkscape:current-layer="svg46"
     inkscape:showpageshadow="2"
     inkscape:deskcolor="#d1d1d1" />
  <path
     style="baseline-shift:baseline;display:inline;overflow:visible;vector-effect:none;fill:#ffffff;fill-opacity:1;stroke:none;stroke-width:50;stroke-linecap:round;stroke-linejoin:round;stroke-dasharray:none;stroke-opacity:1;paint-order:markers stroke fill;enable-background:accumulate;stop-color:#000000"
     d="M 117.21121,0 C 105.75894,0.03924 95.505194,7.971751 92.590121,19.046875 L 13.871371,308.99023 a 25.0025,25.0025 0 0 0 -0.05078,0.18555 c -4.098497,15.5705 8.52032,31.99958 24.621094,32.05469 a 25.0025,25.0025 0 0 0 0.08398,0 l 227.878905,0.0195 -0.25,-0.002 c 11.74459,0.1191 22.30845,-8.09724 25.08398,-19.50977 l 17.70508,-69.92187 a 25.0025,25.0025 0 0 0 0.0547,-0.22657 c 3.79569,-15.60004 -9.03159,-31.75111 -25.08594,-31.58789 l 0.25586,-0.002 H 177.9163 L 230.74052,32.517578 c 5.4e-4,-0.0019 -5.4e-4,-0.004 0,-0.0059 C 235.18485,16.818666 222.4305,-0.025206 206.11941,0 h -88.82226 a 25.0025,25.0025 0 0 0 -0.0859,0 z m 18.78516,50 h 37.87109 l -52.83398,187.51953 0.0117,-0.0371 c -4.44904,15.69467 8.30802,32.54278 24.62109,32.51757 h 107.0957 l -5.38086,21.24805 -176.880853,-0.0156 z"
     id="path1" />
  <path
     style="baseline-shift:baseline;display:inline;overflow:visible;vector-effect:none;fill:#ffffff;fill-opacity:1;stroke:none;stroke-width:50;stroke-linecap:round;stroke-linejoin:round;stroke-dasharray:none;stroke-opacity:1;paint-order:markers stroke fill;enable-background:accumulate;stop-color:#000000"
     d="m 836.32841,45 0.30664,0.002 c -11.73132,-0.144411 -22.30765,8.02073 -25.13867,19.40625 a 25.0025,25.0025 0 0 0 -0.0449,0.185547 l -56.79101,236.089843 0.0469,-0.18945 c -3.89724,15.66304 8.99929,31.95319 25.13868,31.75391 l -0.30665,0.002 210.79493,-0.01 c 12.10837,0.011 22.84227,-8.83988 25.13867,-20.72851 a 25.0025,25.0025 0 0 0 0.029,-0.1543 l 10.8419,-58.08008 -0.031,0.1543 c 2.5254,-13.07408 -6.3125,-25.98538 -18.6563,-29.45508 1.1492,-2.0507 2.0924,-4.23518 2.6348,-6.59375 l 11.7949,-51.04492 a 25.0025,25.0025 0 0 0 0.01,-0.0234 c 1.1138,-4.84235 0.4959,-9.66488 -1.166,-14.08203 l 9.4258,-0.002 a 25.0025,25.0025 0 0 0 0.053,0 c 12.2386,-0.0277 23.0286,-9.11457 25.1387,-21.16992 l 9.8476,-56.054694 a 25.0025,25.0025 0 0 0 0,-0.01563 C 1068.0441,59.843785 1055.6309,45.034837 1040.2542,45 a 25.0025,25.0025 0 0 0 -0.057,0 z m 179.81639,21.353516 -0,0.02539 c 6e-4,-0.0033 -6e-4,-0.0065 0,-0.0098 z M 855.56277,95 h 155.55083 l -1.2715,7.23242 -119.44533,0.0176 c -11.98047,-0.0526 -22.66005,8.56573 -25.13868,20.28711 a 25.0025,25.0025 0 0 0 -0.004,0.0234 l -6.64443,31.56445 c -3.2285,15.26043 9.10035,30.67295 24.69726,30.87305 a 25.0025,25.0025 0 0 0 0.32032,0.002 h 82.82812 l -0.51562,2.23633 -94.65821,0.0234 0.21094,0.002 c -11.85479,-0.0971 -22.48187,8.29205 -25.13867,19.8457 a 25.0025,25.0025 0 0 0 -0.0469,0.20313 l -7.60351,34.375 c -3.1e-4,0.001 2.8e-4,0.003 0,0.004 -3.53688,15.3872 8.91087,31.16601 24.69921,31.3086 a 25.0025,25.0025 0 0 0 0.22461,0.002 h 108.17187 l -1.72461,9.24023 -159.55273,0.008 z"
     id="path5" />
  <path
     style="baseline-shift:baseline;display:inline;overflow:visible;vector-effect:none;fill:#ffffff;fill-opacity:1;stroke:none;stroke-width:50;stroke-linecap:round;stroke-linejoin:round;stroke-dasharray:none;stroke-opacity:1;paint-order:markers stroke fill;enable-background:accumulate;stop-color:#000000"
     d="m 1148.346,45.474609 c -25.1529,0.0076 -50.1793,0.311707 -74.9551,0.566407 a 25.0025,25.0025 0 0 0 -0.078,0.002 c -11.8237,0.15787 -22.2868,8.571614 -24.9785,20.085937 a 25.0025,25.0025 0 0 0 -0.045,0.191406 L 995.6995,299.53125 c -3.55019,15.74712 9.338,31.79143 25.4805,31.71875 l 82.8359,-0.0293 a 25.0025,25.0025 0 0 0 0.084,0 c 12.3582,-0.0453 23.2541,-9.16387 25.4785,-21.32031 l 14.2325,-76.57812 32.58,83.39453 a 25.0025,25.0025 0 0 0 0.022,0.0566 c 3.8401,9.76054 13.4403,16.4517 24.1133,16.48633 a 25.0025,25.0025 0 0 0 0.092,0 l 71.8398,-0.0293 a 25.0025,25.0025 0 0 0 0.01,0 c 17.7137,-0.0144 30.8283,-19.82957 23.9199,-36.14063 a 25.0025,25.0025 0 0 0 -0.016,-0.0371 l -29.8027,-70.04882 c 3.4875,-1.61049 6.9896,-3.19204 10.4375,-4.88672 l -0.01,0.002 c 20.1965,-9.91946 33.6344,-27.19314 40.791,-46.23437 a 25.0025,25.0025 0 0 0 0,-0.006 c 9.0178,-24.01341 6.2621,-49.4464 -3.4804,-70.9043 a 25.0025,25.0025 0 0 0 0,-0.0117 c -16.404,-36.083011 -53.0692,-56.898541 -90.2442,-58.275392 a 25.0025,25.0025 0 0 0 -0.01,0 c -25.2795,-0.930625 -50.5581,-1.220471 -75.711,-1.212891 z m 0.018,50.00586 c 24.7601,-0.0074 49.419,0.272669 73.8477,1.171875 16.822,0.623037 40.2332,15.061416 46.5742,28.996096 4.6759,10.30161 5.519,23.80685 2.1972,32.65234 -2.8651,7.61718 -10.2434,16.09969 -16.0254,18.93945 a 25.0025,25.0025 0 0 0 -0.01,0.004 c -6.9298,3.4061 -13.9806,6.55387 -21.0898,9.58008 5.1492,-5.41213 9.3233,-11.89979 11.5351,-19.72266 a 25.0025,25.0025 0 0 0 0,-0.006 c 4.9075,-17.37647 -0.4696,-35.69239 -10.7715,-47.47461 -10.3019,-11.78221 -24.7951,-18.64439 -40.6777,-19.31836 -17.844,-0.755474 -35.6193,-1.450732 -53.3242,-2.085933 h -0.01 c -12.762,-0.457634 -24.1195,8.797523 -26.4727,21.111333 a 25.0025,25.0025 0 0 0 -0.023,0.12304 l -30.0664,161.77735 -32.9707,0.0117 41.7949,-185.343746 c 18.5116,-0.189806 37.0351,-0.410486 55.4883,-0.416015 z m 11.1191,53.511721 c 10.7723,0.41373 21.521,0.80733 32.3457,1.26562 2.0274,0.086 4.3932,1.40261 5.1563,2.27539 0.7621,0.87166 0.6543,-0.30484 0.293,0.97071 -5e-4,0.002 4e-4,3e-4 0,0.002 -0.6141,2.18765 0.9069,1.22708 -5.1973,1.29492 v 0 c -11.3625,0.12581 -22.5517,0.15259 -33.7012,0.15625 z m 54.0235,51.42383 c -4.5196,7.08617 -5.7058,16.24434 -2.2305,24.33789 l 24.8848,58.49218 -19.1621,0.008 -30.6387,-78.42579 c 2.1077,-0.0192 4.1607,-0.006 6.2754,-0.0293 6.7334,-0.0757 13.9376,-1.63583 20.8672,-4.38281 z m 30.791,36.27148 c -0.013,0.005 -0.024,0.0141 -0.037,0.0195 l -0.1719,0.0684 c 0.07,-0.0281 0.1388,-0.0597 0.209,-0.0879 z"
     id="path9" />
  <g
     id="path8"
     style="fill:#e58d6c;fill-opacity:0.969;stroke:#ffffff;stroke-width:50;stroke-linecap:round;stroke-linejoin:round;stroke-dasharray:none;stroke-opacity:1;paint-order:markers stroke fill"
     transform="translate(24.367465,24.5)">
    <path
       style="baseline-shift:baseline;display:inline;overflow:visible;vector-effect:none;fill:#ffffff;fill-opacity:1;stroke:none;enable-background:accumulate;stop-color:#000000;stop-opacity:1"
       d="m 762.37891,25.519531 c -46.07746,-0.05336 -92.15497,-0.03903 -138.23243,0.04102 a 25.0025,25.0025 0 0 0 -0.0117,0 c -17.39258,0.03848 -33.71847,5.239866 -47.94141,13.742187 a 25.0025,25.0025 0 0 0 -0.008,0.0039 c -6.58119,3.937339 -10.68392,6.322442 -15.47266,10.339843 a 25.0025,25.0025 0 0 0 -0.002,0.002 c -26.0652,21.869199 -33.16134,55.200309 -29.14453,84.222649 3.5e-4,0.003 -3.6e-4,0.005 0,0.008 1.97338,14.34378 6.36319,31.01492 22.03515,44.56445 11.15035,9.65887 22.64941,14.49923 29.4043,18.08203 a 25.0025,25.0025 0 0 0 0.0137,0.008 c 9.85091,5.21724 19.21653,9.51671 28.19141,13.65235 -26.10685,-0.14035 -52.21347,-0.32176 -78.32032,-0.57813 l -17.4414,-156.966791 -0.002,-0.0059 C 513.99849,39.573949 502.56911,29.535913 489.66992,29.5 a 25.0025,25.0025 0 0 0 -0.0703,0 h -78.53906 a 25.0025,25.0025 0 0 0 -0.0684,0 c -8.84917,0.02388 -16.97612,4.578528 -21.67969,11.751953 a 25.0025,25.0025 0 0 0 -0.0957,0.148438 L 237.39258,276.58398 c -1.12022,1.72514 -2.5395,3.97122 -3.60156,8.20118 -1.06207,4.22995 -1.41251,11.67602 2.33203,18.54101 3.74454,6.86499 10.16215,10.58234 14.27148,11.98242 4.10712,1.39933 6.75092,1.43161 8.80078,1.43164 l 66.63086,0.01 a 25.0025,25.0025 0 0 0 0.0547,0 c 8.68909,-0.0176 16.9529,-4.43803 21.76172,-11.83789 a 25.0025,25.0025 0 0 0 0.14453,-0.22656 l 18.36719,-28.9375 53.58007,-0.0117 -0.27343,9.20898 c -4e-5,10e-4 4e-5,0.003 0,0.004 v 0.008 c -0.43264,14.56115 11.96343,26.91553 26.26172,26.77149 a 25.0025,25.0025 0 0 0 0.041,0 c 64.57882,-0.75874 129.04316,-1.09745 193.39453,-1.01758 a 25.0025,25.0025 0 0 0 0.004,0 c 13.33153,0.0147 28.17118,-0.93105 44.7168,-2.76172 a 25.0025,25.0025 0 0 0 0.0195,-0.004 c 8.3254,-0.92766 15.46996,-2.17093 22.78515,-5.03906 l 0.002,-0.002 c 23.51767,-9.2191 39.23427,-28.1169 48.23437,-48.04688 3.76707,-8.3332 6.14655,-17.28294 7.25977,-26.51562 a 25.0025,25.0025 0 0 0 0.002,-0.0137 c 1.38643,-11.55355 1.75255,-25.02926 -1.69922,-39.21093 -3.45176,-14.18167 -11.71731,-29.95578 -27.19531,-39.82032 a 25.0025,25.0025 0 0 0 -0.01,-0.004 c -10.88995,-6.93453 -23.13439,-13.37952 -36.25781,-19.5586 19.52996,-0.005 39.05989,0.002 58.58984,-0.0137 a 25.0025,25.0025 0 0 0 0.0176,0 c 12.80336,-0.0187 24.18738,-9.88821 25.76953,-22.83789 l 6.73047,-51.982419 c 1.98256,-15.12091 -10.48797,-29.357773 -25.73828,-29.38086 a 25.0025,25.0025 0 0 0 -0.01,0 z m -27.33985,50.007813 -0.54297,4.199218 c -34.9288,0.02124 -69.8583,0.03453 -104.78711,0.02344 -9.72096,-0.007 -20.43674,4.728188 -26.66992,11.921875 -6.23318,7.193687 -8.52193,15.385763 -8.82812,22.847653 -0.6124,14.92378 6.9887,32.64787 26.20508,38.27344 16.31704,4.79461 31.98754,11.48343 49.33007,19.24609 14.06101,6.30275 26.2916,12.81691 36.66797,19.42383 2.472,1.57547 4.1006,3.78519 5.48633,9.47852 1.3855,5.69235 1.52978,13.98032 0.63672,21.42578 -1.5e-4,0.001 1.5e-4,0.003 0,0.004 -0.5673,4.69396 -1.66639,8.54735 -3.17774,11.89063 a 25.0025,25.0025 0 0 0 -0.006,0.0117 c -4.58035,10.14556 -13.05909,19.0004 -20.91602,22.08008 a 25.0025,25.0025 0 0 0 -0.004,0.002 c -0.47052,0.1845 -4.2773,1.25281 -10.06836,1.89844 -0.002,1.7e-4 -0.002,-1.8e-4 -0.004,0 -15.13886,1.67441 -28.25443,2.46901 -39.14453,2.45703 -56.25389,-0.0698 -112.60981,0.23974 -169.03516,0.80859 l 0.26758,-9.00976 v -0.002 c 0.35518,-11.86561 -7.90821,-22.32108 -18.88281,-25.60937 8.24383,-4.89782 13.74365,-14.22644 12.73828,-24.22852 l 0.0332,0.36133 -6.83984,-79.63867 c -6e-5,-6.4e-4 5e-5,-10e-4 0,-0.002 -0.86774,-10.65177 -9.67097,-20.09615 -18.97657,-22.46485 -9.30616,-2.368838 -21.55179,1.71848 -27.40625,10.66016 a 25.0025,25.0025 0 0 0 -0.006,0.008 l -52.17968,79.75977 a 25.0025,25.0025 0 0 0 -0.22657,0.35156 c -7.17222,11.37333 -2.47266,26.49246 7.69141,34.04297 l -13.44922,0.002 a 25.0025,25.0025 0 0 0 -0.0566,0 c -8.95559,0.0221 -17.3488,4.71712 -22.05273,12.33789 l -18.18946,28.66016 -9.38867,-0.002 L 424.13672,79.5 h 43.99023 l 17.42383,156.80664 c 1.4e-4,0.001 -1.4e-4,0.003 0,0.004 l 0.002,0.01 c 1.42618,12.8327 12.56689,22.94692 25.47852,23.12696 a 25.0025,25.0025 0 0 0 0.0723,0.002 c 42.99414,0.474 85.98827,0.79094 128.98242,0.95117 a 25.0025,25.0025 0 0 0 0.002,0 c 5.41376,0.0199 10.84709,-0.48427 16.49414,-2.13672 a 25.0025,25.0025 0 0 0 0.0234,-0.008 c 7.7504,-2.27634 17.20281,-4.75573 27.61133,-15.51172 5.20425,-5.37799 11.37361,-15.70428 9.79101,-27.85352 -1.58236,-12.14742 -9.34706,-20.37241 -16.76367,-25.67578 l -0.004,-0.002 c -25.02768,-17.89971 -50.6326,-26.17701 -70.80664,-36.85937 -8.70197,-4.61554 -16.8548,-8.89292 -20.09961,-11.70508 a 25.0025,25.0025 0 0 0 -0.0293,-0.0254 c -0.0468,-0.0404 -4.43944,-7.99009 -5.20703,-13.57617 a 25.0025,25.0025 0 0 0 -0.004,-0.0254 c -2.48073,-17.91471 0.30324,-29.45984 11.75391,-39.068355 l 0.002,-0.002 c -0.812,0.681427 3.24239,-2.287978 8.99805,-5.732422 l 0.008,-0.0059 c 9.28536,-5.550037 12.66529,-6.629859 22.3789,-6.652344 36.93535,-0.06416 73.86935,-0.05485 110.80469,-0.0332 z M 445.21875,261.73047 c 0.005,-5e-5 0.0103,0.002 0.0156,0.002 -0.0195,2.3e-4 -0.039,-2.3e-4 -0.0586,0 z"
       id="path13" />
    <path
       style="baseline-shift:baseline;display:inline;overflow:visible;vector-effect:none;fill:#ff0000;fill-opacity:1;stroke:none;enable-background:accumulate;stop-color:#000000;stop-opacity:1"
       d="m 511.38,234.45 q 64.4,0.71 128.8,0.95 5.45,0.02 9.38,-1.13 c 10.01,-2.94 30.12,-12.58 13.14,-24.72 -21.07,-15.07 -45.36,-23.13 -67.98,-35.11 -7.73,-4.1 -17.56,-8.66 -24.76,-14.9 -7.87,-6.8 -12.26,-19.12 -13.63,-29.09 -3.25,-23.47 1.69,-45.91 20.45,-61.65 q 2.98,-2.5 12.24,-8.04 c 11.76,-7.03 21.61,-10.17 35.17,-10.2 q 69.08,-0.12 138.16,-0.04 a 1,1 0 0 1 0.99,1.13 l -6.76,52.2 a 1,0.99 3.6 0 1 -0.99,0.87 q -62.95,0.05 -125.9,0.03 c -13.83,-0.01 -13.42,20.78 -2.25,24.05 18.18,5.34 34.96,12.56 52.52,20.42 q 22.49,10.08 39.89,21.16 c 17.95,11.44 19.79,35.97 17.51,54.97 q -1.26,10.45 -5.22,19.21 c -6.79,15.04 -18.89,28.92 -34.58,35.07 q -5.84,2.29 -16.43,3.47 -23.77,2.63 -41.94,2.61 -96.69,-0.12 -193.72,1.02 a 1.01,1 0.5 0 1 -1.02,-1.03 l 1.01,-33.94 a 1,1 0 0 0 -1,-1.03 l -91.51,0.02 a 0.99,0.99 0 0 0 -0.84,0.47 l -25.43,40.07 a 1.02,1.01 16.5 0 1 -0.85,0.46 l -66.63,-0.01 q -1.84,0 -0.84,-1.54 L 410.22,54.96 a 1.02,1 -73.1 0 1 0.84,-0.46 h 78.54 a 1.01,1 -3.2 0 1 1,0.89 l 19.8,178.17 a 1,1 0 0 0 0.98,0.89 z m -78.8,-109.03 a 0.3,0.3 0 0 0 -0.55,-0.14 l -52.18,79.76 a 0.3,0.3 0 0 0 0.25,0.46 h 59.03 a 0.3,0.3 0 0 0 0.3,-0.33 z"
       id="path15" />
  </g>
  <path
     style="baseline-shift:baseline;display:inline;overflow:visible;vector-effect:none;fill:#ff0000;fill-opacity:1;stroke:none;stroke-width:50;stroke-linecap:round;stroke-linejoin:round;stroke-dasharray:none;stroke-opacity:1;paint-order:markers stroke fill;enable-background:accumulate;stop-color:#000000"
     d="m 284.70746,245.68 -17.76,70.15 a 0.55,0.55 0 0 1 -0.54,0.42 L 38.527465,316.23 a 0.55,0.55 0 0 1 -0.53,-0.69 L 116.76747,25.41 a 0.55,0.55 0 0 1 0.53,-0.41 h 88.86 a 0.55,0.55 0 0 1 0.53,0.7 l -61.59,218.6 a 0.55,0.55 0 0 0 0.53,0.7 h 138.53999 a 0.55,0.55 0 0 1 0.54,0.68 z"
     id="path3" />
  <g
     id="path10"
     style="fill:#e58d6c;fill-opacity:0.969;stroke:#ffffff;stroke-width:50;stroke-linecap:round;stroke-linejoin:round;stroke-dasharray:none;stroke-opacity:1;paint-order:markers stroke fill"
     transform="translate(24.367465,24.5)">
    <path
       style="baseline-shift:baseline;display:inline;overflow:visible;vector-effect:none;fill:#ffffff;fill-opacity:1;stroke:none;enable-background:accumulate;stop-color:#000000;stop-opacity:1"
       d="m 1217.5566,267.70508 c -4.0698,0.10158 -8.3858,0.63032 -12.9648,1.74414 a 25.0025,25.0025 0 0 0 -0.021,0.004 c -20.8881,5.10038 -39.7572,16.81285 -48.6855,41.82032 a 25.0025,25.0025 0 0 0 0,0.008 c -7.2229,20.24936 -11.1132,40.77848 -15.8808,58.1543 -1.7352,6.31608 -2.9929,11.99444 -2.9317,18.95507 a 25.0025,25.0025 0 0 0 0,0.0371 c 0.1655,16.04021 3.1904,32.02171 20.3027,45.99219 18.7579,15.33379 41.1212,15.64883 58.1172,12.7168 l 0.01,-0.002 c 13.1905,-2.27402 22.5068,-8.53679 30.8398,-15.86915 8.3352,-7.33427 15.5451,-15.77455 19.7383,-27.9121 a 25.0025,25.0025 0 0 0 0,-0.004 c 7.9904,-23.14117 13.4527,-40.17496 16.6133,-52.30664 a 25.0025,25.0025 0 0 0 0,-0.004 c 3.5255,-13.54148 3.7271,-28.139 -1.2793,-42.41211 -5.0065,-14.27311 -16.7248,-28.3193 -33.3946,-34.58789 a 25.0025,25.0025 0 0 0 -0.01,-0.002 c -8.2519,-3.10057 -18.2476,-6.63677 -30.4571,-6.33203 z m -7.3339,15.71875 c -0.013,0.002 -0.026,0.007 -0.039,0.01 -0.01,10e-4 -0.01,9.4e-4 -0.016,0.002 z m 8.8066,49.43554 c 0.2862,0.0319 0.3632,0.012 0.8867,0.13086 a 25.0025,25.0025 0 0 0 0.012,0.002 c 0.3651,0.0827 0.1472,0.0437 0.4727,0.125 -0.3495,1.96201 -1.6067,6.22482 -3.7578,13.4414 a 25.0025,25.0025 0 0 0 0,0.006 c -3.3608,11.28644 -7.003,22.47884 -10.9238,33.57813 a 25.0025,25.0025 0 0 0 -0.01,0.0254 c 0.2558,-0.72665 -1.0116,1.71603 -2.2676,2.92773 -0.1453,0.14023 -0.1487,0.0879 -0.2832,0.1875 4.2564,-16.44161 8.1427,-33.35172 12.8027,-48.04687 a 25.0025,25.0025 0 0 0 0,-0.0137 c -0.042,0.13144 2.1307,-1.82425 3.0645,-2.36329 z"
       id="path16" />
    <path
       style="baseline-shift:baseline;display:inline;overflow:visible;vector-effect:none;fill:#ff0000;fill-opacity:1;stroke:none;enable-background:accumulate;stop-color:#000000;stop-opacity:1"
       d="m 1173.19,415.06 c -7.07,-5.77 -11.03,-18.17 -11.12,-26.89 q -0.04,-4.55 2.04,-12.12 c 5.12,-18.66 9.01,-38.68 15.32,-56.37 4.42,-12.38 19.48,-23.11 31.07,-25.94 8.88,-2.16 20.31,0.54 28.72,3.7 19.12,7.19 24.06,28.94 19.28,47.3 q -4.21,16.16 -16.05,50.45 c -4.08,11.81 -19.18,25.24 -31.2,27.31 -12.63,2.18 -27.41,1.27 -38.06,-7.44 z m 3.52,-24.55 c 2.08,17.95 16.19,19.61 30.89,17.78 9.23,-1.16 18.74,-11.44 21.69,-19.82 q 6.09,-17.24 11.31,-34.77 c 4.2,-14.09 7.15,-21.09 3.18,-32.87 -2.79,-8.26 -10.56,-10.46 -18.33,-12.22 q -6.3,-1.43 -10.64,-0.61 c -10.18,1.9 -19.55,9.79 -22.68,19.68 -5.67,17.88 -9.89,37.33 -14.5,54.56 q -1.31,4.9 -0.92,8.27 z"
       id="path17" />
  </g>
  <g
     id="path12"
     style="fill:#e58d6c;fill-opacity:0.969;stroke:#ffffff;stroke-width:50;stroke-linecap:round;stroke-linejoin:round;stroke-dasharray:none;stroke-opacity:1;paint-order:markers stroke fill"
     transform="translate(24.367465,24.5)">
    <path
       style="baseline-shift:baseline;display:inline;overflow:visible;vector-effect:none;fill:#ffffff;fill-opacity:1;stroke:none;enable-background:accumulate;stop-color:#000000;stop-opacity:1"
       d="m 1011.252,270.18555 c -22.33453,0.58161 -45.72501,7.99922 -63.39067,26.30468 a 25.0025,25.0025 0 0 0 -0.10156,0.10547 c -9.76223,10.23549 -9.28518,27.24437 1.03515,36.91602 l 0.002,0.002 c 6.9e-4,6.4e-4 10e-4,0.001 0.002,0.002 l 8.98437,8.41797 c 3.31358,3.12978 7.35179,5.08875 11.5918,6.10352 -1.93949,4.3113 -2.95889,8.90274 -2.99219,13.49023 -0.0715,9.84779 5.49486,22.22172 16.66797,28.1543 -3.66292,-0.45114 -6.88848,-2.38986 -10.76562,-6.03516 a 25.0025,25.0025 0 0 0 -0.0352,-0.0332 c -1.29871,-1.2164 -2.63283,-2.39661 -4.00195,-3.53906 a 25.0025,25.0025 0 0 0 -0.0859,-0.0703 c -9.92448,-8.20654 -24.91095,-7.75335 -34.32031,1.03906 l -8.96875,8.3789 0.17773,-0.16406 c -10.372,9.50295 -11.09722,26.37469 -1.58594,36.73633 14.54094,15.89733 34.6463,25.86688 56.125,27.89453 A 25.0025,25.0025 0 0 0 981.93945,454 h 7 a 25.0025,25.0025 0 0 0 1.95899,-0.0762 c 15.84466,-1.24517 31.42066,-6.17715 44.05666,-16.47852 12.6345,-10.30015 21.2211,-25.87419 24.0273,-43.06445 1.1518,-7.0513 2.3309,-15.49672 -1.7793,-24.94922 4.1321,-4.39484 7.845,-9.31528 10.7871,-14.98633 6.5371,-12.60025 8.8911,-29.15745 3.7676,-44.78711 v -0.006 c -6.9687,-21.26425 -28.6773,-37.99277 -51.0157,-39.30859 -3.1278,-0.18408 -6.2957,-0.24129 -9.4863,-0.1582 z m 27.6953,97.41406 0.074,0.084 c -0.019,-0.0213 -0.038,-0.0374 -0.057,-0.0586 -0.01,-0.008 -0.011,-0.0176 -0.017,-0.0254 z"
       id="path19" />
    <path
       style="baseline-shift:baseline;display:inline;overflow:visible;vector-effect:none;fill:#ff0000;fill-opacity:1;stroke:none;enable-background:accumulate;stop-color:#000000;stop-opacity:1"
       d="m 988.94,429 h -7 Q 958,426.74 941.88,409.09 a 0.99,0.99 0 0 1 0.06,-1.4 l 8.97,-8.38 a 1,1 0 0 1 1.32,-0.04 q 1.51,1.26 2.93,2.59 c 13.88,13.05 31.6,15.81 49.41,8.5 9.79,-4.02 14.97,-15.66 15.82,-25.55 a 1.02,1.01 26.7 0 0 -0.25,-0.74 c -6.5,-7.49 -16.57,-11.99 -25.32,-16.39 -4.74,-2.37 -4.34,-9.5 -0.26,-12.16 q 1.61,-1.04 6.15,-1.68 c 8.06,-1.12 17.71,-2.85 23.83,-7.82 5.09,-4.12 11.05,-11.51 10.61,-18.51 -1.11,-17.49 -13.15,-18.3 -27.89,-17.53 q -18.25,0.95 -30.92,13.75 a 0.99,0.99 0 0 1 -1.39,0.03 l -9.06,-8.49 a 1,1 0 0 1 -0.04,-1.42 c 14.91,-15.45 32.69,-19.77 53.42,-18.55 q 21.9,1.29 28.73,22.14 c 6.01,18.32 -5.1,35.02 -20.34,43.92 q -3.07,1.79 -6.45,2.77 -1.63,0.47 -0.23,1.43 6.01,4.12 10.69,9.78 c 3.09,3.73 3.46,9.99 2.64,15.01 -3.96,24.27 -21.32,36.76 -45.37,38.65 z"
       id="path21" />
  </g>
  <g
     id="path14"
     style="fill:#e58d6c;fill-opacity:0.969;stroke:#ffffff;stroke-width:50;stroke-linecap:round;stroke-linejoin:round;stroke-dasharray:none;stroke-opacity:1;paint-order:markers stroke fill"
     transform="translate(24.367465,24.5)">
    <path
       style="baseline-shift:baseline;display:inline;overflow:visible;vector-effect:none;fill:#ffffff;fill-opacity:1;stroke:none;enable-background:accumulate;stop-color:#000000;stop-opacity:1"
       d="m 1126.6387,275.49023 c -5.135,0.42488 -10.1701,2.03831 -14.6231,4.76172 a 25.0025,25.0025 0 0 0 -0.027,0.0176 c -13.0608,8.01067 -25.1963,15.1589 -36.3848,21.43945 l 0.074,-0.041 c -11.0055,6.1279 -15.9694,19.63586 -11.8828,31.30469 a 25.0025,25.0025 0 0 0 0.024,0.0644 l 4.25,12.03125 -0.098,-0.28125 c 1.9836,5.83395 6.0551,10.41791 11.0664,13.4375 l -17.0254,52.42383 0.086,-0.25782 c -4.5425,13.48749 3.2299,28.79105 16.8007,33.07813 l 11.8536,3.79297 a 25.0025,25.0025 0 0 0 0.1875,0.0586 c 13.303,4.14072 28.1126,-3.49778 32.4492,-16.73828 a 25.0025,25.0025 0 0 0 0.01,-0.0254 c 12.0341,-36.87617 24.014,-73.77016 35.9414,-110.67969 1.3783,-4.24947 3.0131,-8.63537 1.8711,-16.79297 a 25.0025,25.0025 0 0 0 -0.01,-0.0703 c -1.5672,-10.97072 -9.6208,-21.08128 -19.334,-25.15039 -4.8566,-2.03456 -10.0915,-2.79792 -15.2265,-2.37305 z"
       id="path23" />
    <path
       style="baseline-shift:baseline;display:inline;overflow:visible;vector-effect:none;fill:#ff0000;fill-opacity:1;stroke:none;enable-background:accumulate;stop-color:#000000;stop-opacity:1"
       d="m 1115.78,326.03 q 0.63,-1.96 -1.16,-0.95 l -21.55,12.2 a 0.99,0.99 0 0 1 -1.43,-0.54 l -4.25,-12.03 a 1,0.99 65.6 0 1 0.45,-1.2 q 17.28,-9.7 37.22,-21.93 c 4.66,-2.85 10.6,-0.56 11.39,4.97 q 0.28,2 -0.9,5.64 -17.88,55.33 -35.92,110.61 a 1.01,1.01 0 0 1 -1.26,0.65 l -11.94,-3.82 a 0.99,0.99 0 0 1 -0.64,-1.26 z"
       id="path25" />
  </g>
  <path
     style="baseline-shift:baseline;display:inline;overflow:visible;vector-effect:none;fill:#ff0000;fill-opacity:1;stroke:none;stroke-width:50;stroke-linecap:round;stroke-linejoin:round;stroke-dasharray:none;stroke-opacity:1;paint-order:markers stroke fill;enable-background:accumulate;stop-color:#000000"
     d="m 1234.7875,213.57 a 1,1 0 0 0 -0.54,1.32 l 39.12,91.95 a 1,1 0 0 1 -0.92,1.39 l -71.84,0.03 a 1.01,1 79.2 0 1 -0.93,-0.64 l -49.33,-126.27 a 0.99,1 79.2 0 1 0.93,-1.36 q 20.31,0.04 41.08,-0.19 c 13.34,-0.15 25.18,-6.06 28.98,-19.5 5.27,-18.66 -10.54,-34.26 -28.45,-35.02 q -26.69,-1.13 -53.17,-2.08 a 1,1.01 6.4 0 0 -1.02,0.82 l -33.71,181.38 a 1,1 0 0 1 -0.98,0.82 l -82.94,0.03 a 1,1 0 0 1 -0.98,-1.22 l 52.59,-233.21 a 1.01,1.01 0 0 1 0.97,-0.78 c 49.61,-0.51 99.78,-1.2 149.49,0.63 27,1 57.04,18.63 68.41,43.64 7.21,15.88 9.01,35.35 2.84,51.78 -5.01,13.33 -15.42,26.21 -28.41,32.59 q -15.32,7.53 -31.19,13.89 z"
     id="path11" />
  <path
     style="baseline-shift:baseline;display:inline;overflow:visible;vector-effect:none;fill:#ff0000;fill-opacity:1;stroke:none;stroke-width:50;stroke-linecap:round;stroke-linejoin:round;stroke-dasharray:none;stroke-opacity:1;paint-order:markers stroke fill;enable-background:accumulate;stop-color:#000000"
     d="m 863.62747,248 h 137.57003 a 0.58,0.58 0 0 1 0.57,0.69 l -10.84004,58.08 a 0.58,0.58 0 0 1 -0.57,0.47 l -210.82,0.01 a 0.58,0.58 0 0 1 -0.57,-0.72 L 835.75747,70.44 a 0.58,0.58 0 0 1 0.57,-0.44 h 203.87003 a 0.58,0.58 0 0 1 0.57,0.68 l -9.85,56.07 a 0.58,0.58 0 0 1 -0.57,0.48 l -140.06003,0.02 a 0.58,0.58 0 0 0 -0.57,0.46 l -6.65,31.59 a 0.58,0.58 0 0 0 0.56,0.7 h 113.52999 a 0.58,0.58 0 0 1 0.57001,0.71 l -11.8,51.07 a 0.58,0.58 0 0 1 -0.56,0.45 l -114.08,0.03 a 0.58,0.58 0 0 0 -0.57,0.45 l -7.65,34.58 a 0.58,0.58 0 0 0 0.56,0.71 z"
     id="path7" />
  <path
     style="baseline-shift:baseline;display:inline;overflow:visible;vector-effect:none;fill:#ffffff;fill-opacity:1;stroke:none;stroke-width:50;stroke-linecap:round;stroke-linejoin:round;stroke-dasharray:none;stroke-opacity:1;paint-order:markers stroke fill;enable-background:accumulate;stop-color:#000000"
     d="m 52.801059,332.26758 c -5.565151,0.0203 -11.131255,0.22028 -16.695313,0.59961 -9.579942,0.64991 -20.03248,5.88929 -25.951172,12.95898 -5.918691,7.0697 -7.99173,14.35404 -9.060546,20.37695 -2.135278,12.03255 -0.573556,21.60977 -0.07227,26.55665 0.698727,6.97942 3.560371,15.42368 9.792969,21.85546 6.232598,6.43179 14.641836,9.57635 21.630859,10.46485 a 25.0025,25.0025 0 0 0 0.01172,0.002 c 12.467447,1.57863 23.47334,1.21875 33.15039,1.21875 8.344364,0 16.930579,-1.6863 24.716797,-5.42773 a 25.0025,25.0025 0 0 0 0.06055,-0.0293 c 5.24887,-2.53954 9.493718,-6.78338 12.044918,-12.02539 3.70876,-7.58788 5.55922,-16.37306 5.13672,-24.86133 a 25.0025,25.0025 0 0 0 0,-0.008 c -0.12705,-2.53786 -0.74791,-4.94096 -1.58398,-7.25 0.35621,-1.93696 0.54197,-3.91879 0.41992,-5.94922 a 25.0025,25.0025 0 0 0 -0.002,-0.0273 c -0.10952,-1.78877 -0.28045,-3.44781 -0.51367,-5.49414 a 25.0025,25.0025 0 0 0 -0.006,-0.043 c -0.95389,-8.23996 -5.79023,-19.61297 -14.527346,-25.69336 -8.730527,-6.07581 -16.362775,-6.41416 -21.853516,-6.7461 h -0.01367 c -5.558258,-0.3388 -11.121701,-0.49879 -16.685547,-0.47851 z m -16.810547,12.94726 c -0.01374,0.004 -0.02534,0.01 -0.03906,0.0137 -0.02513,0.007 -0.01764,0.003 -0.04297,0.01 z m 55.208984,15.62696 c 0.09075,0.1625 0.215692,0.30202 0.302735,0.46679 -0.03523,-0.015 -0.06626,-0.0379 -0.101563,-0.0527 -0.06446,-0.13903 -0.13456,-0.27515 -0.201172,-0.41406 z"
     id="path27" />
  <path
     style="baseline-shift:baseline;display:inline;overflow:visible;vector-effect:none;fill:#ffffff;fill-opacity:1;stroke:none;stroke-width:50;stroke-linecap:round;stroke-linejoin:round;stroke-dasharray:none;stroke-opacity:1;paint-order:markers stroke fill;enable-background:accumulate;stop-color:#000000"
     d="m 137.77371,331.70703 c -2.59016,0.0808 -5.08699,0.25567 -7.57421,0.21484 -9.93145,-0.16303 -19.37375,0.62011 -22.71875,0.78711 -0.002,8e-5 -0.004,-7e-5 -0.006,0 -0.005,2.4e-4 -0.0206,0.002 -0.0254,0.002 -6.49742,0.31375 -21.294698,0.87555 -31.617191,15.38281 -7.402502,10.3926 -6.965941,17.39895 -7.414063,23.52148 -0.448356,6.12574 -0.20015,11.36975 -0.03906,14.58594 0.140684,2.90111 -0.117915,7.12849 2.078125,13.96289 2.200725,6.84899 8.341107,14.62664 14.3125,18.60352 a 25.0025,25.0025 0 0 0 0.0039,0.002 c 11.702547,7.7911 20.825269,7.45761 28.992189,7.74414 8.1581,0.28622 15.58957,-0.25165 20.48633,-0.4668 2.42241,-0.10427 7.74799,5.7e-4 14.74023,-1.46679 6.99224,-1.46736 19.17673,-5.29825 25.6504,-18.77735 5.40014,-11.23592 5.37126,-18.73348 5.19531,-28.7207 -0.17597,-9.98891 1.70971,-22.17945 -13.94922,-35.21875 -11.73892,-9.7928 -20.34967,-10.39844 -28.11523,-10.15625 z m -9.23242,43.25195 c 0.0449,-0.0755 0.40068,0.34525 0.74219,1 -0.39679,-0.47658 -0.77227,-0.94935 -0.74219,-1 z"
     id="path31" />
  <path
     style="baseline-shift:baseline;display:inline;overflow:visible;vector-effect:none;fill:#ffffff;fill-opacity:1;stroke:none;stroke-width:50;stroke-linecap:round;stroke-linejoin:round;stroke-dasharray:none;stroke-opacity:1;paint-order:markers stroke fill;enable-background:accumulate;stop-color:#000000"
     d="m 167.11746,332.25 c -14.06328,0 -26,11.93671 -26,26 v 42.01172 c -0.0103,13.72611 11.22444,25.28498 24.67384,25.97265 3.56881,0.19393 7.14523,0.26966 10.72461,0.22266 a 25.0025,25.0025 0 0 0 0.0371,0 c 10.83984,-0.15815 21.68856,-0.23315 32.54882,-0.22656 a 25.0025,25.0025 0 0 0 0.0156,0 c 14.06329,0 26,-11.93671 26,-26 V 391.25 c 0,-14.06329 -11.93671,-26 -26,-26 h -4.74997 v -7 c 0,-14.06329 -11.93671,-26 -26,-26 z"
     id="path35" />
  <path
     style="baseline-shift:baseline;display:inline;overflow:visible;vector-effect:none;fill:#000000;fill-opacity:1;stroke:none;stroke-width:50;stroke-linecap:round;stroke-linejoin:round;stroke-dasharray:none;stroke-opacity:1;paint-order:markers stroke fill;enable-background:accumulate;stop-color:#000000"
     d="m 98.627465,397.96 c -4.91,-3.27 -4.98,-6.91 -5.28,-13.01 -0.29,-5.79 -0.65,-17.45 2.85,-22.36 2.78,-3.91 7.939995,-4.69 12.489995,-4.91 8.67,-0.43 33.87,-2.73 41.2,3.39 6.86,5.71 5.61,26.86 2.22,33.91 -2.8,5.83 -12.89,5.83 -18.93,6.09 -10.71999,0.47 -27.18999,1.79 -34.549995,-3.11 z m 32.839995,-7.9 c 5.14001,-0.1 8.45001,-0.49 8.59,-6.58 0.14001,-6.03 1.91,-14.59 -5.25,-14.97 q -9.31999,-0.49 -18.60999,0.06 c -3.97,0.24 -7.78,0.15 -8.24,4.21 q -0.72,6.4 0.1,13.01 0.41,3.29 3.69,3.78 c 6.31,0.95 12.97,0.62 19.71999,0.49 z"
     id="path33" />
  <path
     style="baseline-shift:baseline;display:inline;overflow:visible;vector-effect:none;fill:#ffffff;fill-opacity:1;stroke:none;stroke-width:50;stroke-linecap:round;stroke-linejoin:round;stroke-dasharray:none;stroke-opacity:1;paint-order:markers stroke fill;enable-background:accumulate;stop-color:#000000"
     d="m 247.22293,332.19727 c -6.18095,0.0587 -12.35811,0.32782 -18.52734,0.80859 a 25.0025,25.0025 0 0 0 -0.0156,0 c -12.32014,0.96801 -27.21095,10.75559 -31.97266,21.46484 -4.7617,10.70926 -3.86787,17.97461 -4.02539,22.69532 a 25.0025,25.0025 0 0 0 0,0.008 c -0.13915,4.2044 -1.06071,11.70218 2.08399,22.05859 3.14469,10.35641 16.6084,24.58062 31.40234,26.18164 12.28103,1.33404 25.23251,1.35809 38.89844,0.22071 5.17313,-0.42954 12.16763,-0.64782 20.93358,-5.88282 8.76068,-5.23183 15.36217,-16.67263 16.87305,-25.83008 3.2e-4,-0.002 -3.2e-4,-0.004 0,-0.006 1.37834,-8.35318 1.6643,-16.8025 0.74219,-25.1211 -0.87717,-7.97249 -3.80798,-17.87338 -11.625,-25.43555 -7.82313,-7.56807 -18.06331,-10.21915 -26.19141,-10.70507 a 25.0025,25.0025 0 0 0 -0.0254,-0.002 c -6.18477,-0.36316 -12.36984,-0.51382 -18.55079,-0.45507 z m -29.05468,18.27539 c -0.014,0.0108 -0.025,0.0243 -0.0391,0.0351 -0.0134,0.0103 -0.0218,0.0131 -0.0352,0.0234 z m -9.16797,13.50976 c -0.003,0.01 -0.003,0.0194 -0.006,0.0293 -0.002,0.007 -0.006,0.0128 -0.008,0.0195 z m 11.625,45.82813 c 0.0674,0.0417 0.12048,0.0643 0.1875,0.10547 0.0269,0.0163 0.0492,0.0385 0.0762,0.0547 z"
     id="path39" />
  <path
     style="baseline-shift:baseline;display:inline;overflow:visible;vector-effect:none;fill:#000000;fill-opacity:1;stroke:none;stroke-width:50;stroke-linecap:round;stroke-linejoin:round;stroke-dasharray:none;stroke-opacity:1;paint-order:markers stroke fill;enable-background:accumulate;stop-color:#000000"
     d="m 45.347465,389.8 c 6.79,0.39 13.17,0.57 20.2,0.04 q 2.94,-0.22 3.35,-2.55 l 0.39,-2.21 a 1.01,1.01 0 0 1 0.99,-0.83 h 11.32 a 1,1 0 0 1 1,0.95 q 0.33,6.63 -2.64,12.68 a 0.99,0.99 0 0 1 -0.46,0.46 q -6.16,2.96 -13.89,2.96 c -10.09,0 -19.98,0.25 -30.01,-1.02 q -8.81,-1.12 -9.7,-10.01 c -1.04,-10.29 -3.43,-31.42 11.9,-32.46 q 15.1,-1.03 30.18,-0.11 c 7.77,0.47 12.13,2.24 13.07,10.36 q 0.31,2.72 0.4,4.19 a 1,1 0 0 1 -1,1.06 l -10.22,-0.02 a 0.99,1 87.1 0 1 -0.99,-0.89 q -0.24,-2.22 -1.92,-3.22 c -3.45,-2.03 -22.52,-0.47 -24.66,0.13 -3.47,0.96 -3.14,9.39 -2.92,12.38 0.34,4.46 0.5,7.82 5.61,8.11 z"
     id="path29" />
  <path
     style="baseline-shift:baseline;display:inline;overflow:visible;vector-effect:none;fill:#000000;fill-opacity:1;stroke:none;stroke-width:50;stroke-linecap:round;stroke-linejoin:round;stroke-dasharray:none;stroke-opacity:1;paint-order:markers stroke fill;enable-background:accumulate;stop-color:#000000"
     d="m 180.36746,390.25 h 28.75 a 1,1 0 0 1 1,1 v 8.98 a 1,1 0 0 1 -1,1 q -16.47999,-0.01 -32.93,0.23 -4.57,0.06 -9.12,-0.19 a 1,0.99 1.5 0 1 -0.95,-0.99 v -42.03 a 1,1 0 0 1 1,-1 h 11.25 a 1,1 0 0 1 1,1 v 31 a 1,1 0 0 0 1,1 z"
     id="path37" />
  <g
     id="path26"
     style="fill:#000000;fill-opacity:1;stroke:#ffffff;stroke-width:50;stroke-linecap:round;stroke-linejoin:round;stroke-dasharray:none;stroke-opacity:1;paint-order:markers stroke fill"
     transform="translate(24.367465,24.5)">
    <path
       style="baseline-shift:baseline;display:inline;overflow:visible;vector-effect:none;fill:#ffffff;stroke:none;enable-background:accumulate;stop-color:#000000;stop-opacity:1"
       d="m 309.48242,307.83203 c -14.1979,-0.16183 -28.46045,-0.14429 -42.78711,0.0508 -13.96372,0.14864 -25.72531,12.03194 -25.72461,25.99805 a 25.0025,25.0025 0 0 0 0,0.0703 l 0.11914,41.79883 c 0,14.06329 11.93672,26 26,26 H 278.5 c 5.72592,0 11.04168,-2.0483 15.40039,-5.34375 4.38249,3.30267 9.72375,5.35409 15.46484,5.34375 h 12.08399 c 13.55802,0.0164 25.42604,-11.10341 26.0039,-24.9043 0.16187,-3.68888 0.0989,-7.38869 -0.1914,-11.07422 -0.13001,-1.6718 -0.43536,-3.53668 -0.88281,-5.47851 0.72901,-2.00037 1.4392,-4.01643 1.71679,-5.73047 1.44761,-8.93834 0.32741,-15.44243 -1.66211,-21.82617 -2.94961,-9.49998 -11.36679,-17.89661 -18.81445,-21.25391 -7.45133,-3.35895 -13.48364,-3.60167 -18.13672,-3.65039 z m 16.67969,73.99219 c -0.25301,0.10491 -0.57639,0.24973 -0.73047,0.31445 l -0.0449,0.0195 c -0.0461,0.0193 -0.0362,0.0133 -0.0762,0.0293 0.29945,-0.0985 0.55804,-0.25587 0.85156,-0.36328 z m -13.73438,3.54492 c 0.0281,0.004 0.0677,0.0118 0.0957,0.0156 l -0.084,-0.0117 c -0.003,-4.8e-4 -0.008,-0.003 -0.0117,-0.004 z"
       id="path43" />
    <path
       style="baseline-shift:baseline;display:inline;overflow:visible;vector-effect:none;stroke:none;enable-background:accumulate;stop-color:#000000;stop-opacity:1"
       d="m 315.75,359.09 q -2.69,1.13 0.2,1.53 2.68,0.38 4.48,2.12 1.65,1.61 1.91,4.98 0.32,4.05 0.14,8.08 a 1,0.99 1.2 0 1 -1,0.95 h -12.16 a 1,1 0 0 1 -1,-0.94 l -0.39,-6.89 q -0.16,-2.77 -3.17,-2.81 l -24.25,-0.28 a 1,1 0 0 0 -1.01,1 v 8.92 a 1,1 0 0 1 -1,1 h -11.41 a 1,1 0 0 1 -1,-1 l -0.12,-41.87 a 1,1 0 0 1 0.99,-1 q 21.23,-0.29 42.26,-0.05 c 5.73,0.06 11.49,1.35 13.34,7.32 1.77,5.67 2.21,16 -5.08,18.32 q -0.94,0.29 -1.73,0.62 z m -6.98,-13.37 q -0.39,-1.66 -3.52,-1.67 l -24.74,-0.14 a 1.01,1 0 0 0 -1.01,1 v 8.87 a 1.01,1 0 0 0 1.01,1 L 305,354.69 q 3.04,-0.01 3.63,-2.09 0.96,-3.41 0.14,-6.88 z"
       id="path44" />
  </g>
  <path
     style="baseline-shift:baseline;display:inline;overflow:visible;vector-effect:none;fill:#000000;fill-opacity:1;stroke:none;stroke-width:50;stroke-linecap:round;stroke-linejoin:round;stroke-dasharray:none;stroke-opacity:1;paint-order:markers stroke fill;enable-background:accumulate;stop-color:#000000"
     d="m 228.85747,400.56 c -11.92,-1.29 -11.47,-14.1 -11.19,-22.56 0.33,-9.89 0.37,-19.08 12.97,-20.07 q 16.81,-1.31 33.66999,-0.32 c 9.2,0.55 13.45,4.72 14.46001,13.93 q 0.99,8.92 -0.56,18.31 c -1.43001,8.7 -6.90001,10.18 -15.21001,10.87 q -18.5,1.54 -34.13999,-0.16 z m 4.19,-29.74 c -1.47,5.17 -1.52001,12.1 0.31,17.22 a 0.99,0.99 0 0 0 0.41999,0.51 c 5.06,3.13 21.35,1.68 27.09,0.89 q 3.02001,-0.41 3.45,-3.43 c 0.59,-4.12 2.12,-16.65 -3.94,-17.35 -3.28,-0.37 -22.73,-1.65 -26.98,1.64 a 1.01,0.98 79.6 0 0 -0.34999,0.52 z"
     id="path41" />
  <path
     style="baseline-shift:baseline;display:inline;overflow:visible;vector-effect:none;fill:#ffffff;fill-opacity:1;stroke:none;stroke-width:50;stroke-linecap:round;stroke-linejoin:round;stroke-dasharray:none;stroke-opacity:1;paint-order:markers stroke fill;enable-background:accumulate;stop-color:#000000"
     d="m 404.84012,332.28711 c -5.15058,-0.009 -10.30221,0.14449 -15.45118,0.45898 -5.86565,0.35463 -11.31113,0.45249 -19.40234,4.9375 a 25.0025,25.0025 0 0 0 -0.0703,0.041 c -16.6742,9.31441 -18.34312,24.27142 -19.20899,33.75 -0.86528,9.47203 0.0435,17.41035 0.81836,22.85547 1.8e-4,10e-4 -1.8e-4,0.003 0,0.004 1.88029,13.24202 14.22353,25.47934 23.63477,28.86914 9.41213,3.39013 16.24145,2.95735 20.68359,3.00586 a 25.0025,25.0025 0 0 0 0.0293,0 c 1.46952,0.0143 10.96047,0.64764 20.54101,0.13086 4.79028,-0.25839 9.83208,-0.67243 15.91211,-2.46484 6.08004,-1.79241 15.98596,-5.02415 21.63868,-17.85547 a 25.0025,25.0025 0 0 0 0.004,-0.01 c 3.19754,-7.2657 4.14851,-14.94427 3.77344,-22.08399 -0.12333,-2.4168 -0.69993,-4.70861 -1.46875,-6.91992 0.3563,-1.80411 0.54855,-3.65484 0.49219,-5.54883 a 25.0025,25.0025 0 0 0 -0.004,-0.11328 c -0.14885,-4.34158 -0.83371,-8.69876 -2.03711,-12.88672 -2.14329,-7.45962 -8.61824,-16.85798 -16.49414,-21.09961 -7.86171,-4.23398 -13.82682,-4.29464 -17.92773,-4.55469 -0.004,-2.5e-4 -0.008,2.6e-4 -0.0117,0 -5.14797,-0.33331 -10.29864,-0.50635 -15.45117,-0.51562 z m 36.45507,28.51367 c 0.0871,0.1544 0.19558,0.29478 0.2793,0.45117 -0.0313,-0.0131 -0.0585,-0.0338 -0.0898,-0.0469 -0.0632,-0.13551 -0.12427,-0.26898 -0.18946,-0.4043 z m -22.55859,53.78711 c 0.005,-4.7e-4 0.009,4.7e-4 0.0137,0 l -0.0195,0.002 c 0.002,-1.7e-4 0.004,-0.002 0.006,-0.002 z m -26.5,0.041 c 0.005,5.3e-4 0.0105,-5.3e-4 0.0156,0 0.002,2e-4 0.004,0.002 0.006,0.002 z"
     id="path45" />
  <path
     style="baseline-shift:baseline;display:inline;overflow:visible;vector-effect:none;fill:#ffffff;fill-opacity:1;stroke:none;stroke-width:50;stroke-linecap:round;stroke-linejoin:round;stroke-dasharray:none;stroke-opacity:1;paint-order:markers stroke fill;enable-background:accumulate;stop-color:#000000"
     d="m 473.31473,332.17578 c -5.61205,0.0298 -11.22315,0.25935 -16.83008,0.6875 l 0.008,-0.002 c -5.19008,0.39444 -12.16642,0.81174 -20.56445,5.94531 -8.3963,5.13251 -15.01867,16.36376 -16.35352,25.61133 -1.19845,8.30171 -1.4381,16.91899 -0.89062,25.87695 0.64454,10.54582 6.46254,20.95422 13.95703,26.89649 7.49449,5.94226 15.84559,8.31637 23.85156,8.69921 9.47567,0.45774 18.9608,0.54404 28.44922,0.25782 a 25.0025,25.0025 0 0 0 0.0195,0 c 3.92964,-0.12154 10.43591,0.20273 19.41797,-2.93946 8.98206,-3.14218 21.15814,-14.0864 23.78321,-26.94921 a 25.0025,25.0025 0 0 0 0.008,-0.0332 c 1.25507,-6.19229 1.84905,-12.50413 1.76563,-18.8164 a 25.0025,25.0025 0 0 0 0,-0.0254 c -0.11493,-8.08121 0.15042,-18.00777 -7.81054,-29.01563 -7.96097,-11.00786 -21.63558,-15.00212 -31.96876,-15.68555 a 25.0025,25.0025 0 0 0 -0.01,0 c -5.60826,-0.36867 -11.21999,-0.53762 -16.83203,-0.50781 z"
     id="path47" />
  <path
     style="baseline-shift:baseline;display:inline;overflow:visible;vector-effect:none;fill:#000000;fill-opacity:1;stroke:none;stroke-width:50;stroke-linecap:round;stroke-linejoin:round;stroke-dasharray:none;stroke-opacity:1;paint-order:markers stroke fill;enable-background:accumulate;stop-color:#000000"
     d="m 419.09746,387.52 0.33,-2.41 a 1,1 0 0 1 0.99,-0.86 h 11.36 a 1,1 0 0 1 1,0.95 q 0.33,6.15 -1.69,10.74 c -3.25999,7.4 -27.8,5.34 -34.97,5.27 -8.24,-0.09 -18.44,-0.52 -19.84,-10.39 -1.20999,-8.5 -2.52999,-26.6 5.83,-31.27 q 2.67,-1.48 8.79,-1.85 13.9,-0.85 27.79001,0.05 c 6.27999,0.4 10.22,1.38 12.01,7.61 q 0.95999,3.34 1.07999,6.84 a 1.01,1.01 0 0 1 -1,1.04 l -10.37,0.04 a 0.99,0.99 0 0 1 -1,-0.92 q -0.16,-2.2 -1.87,-3.19 c -2.6,-1.5 -21.11,-0.96 -24.36,0.07 q -2.35,0.75 -2.75,3.19 c -0.7,4.26 -2.23,16.66 4.36,17.33 q 10.53,1.08 21.4,-0.04 2.64,-0.27 2.91,-2.2 z"
     id="path46" />
  <path
     style="baseline-shift:baseline;display:inline;overflow:visible;vector-effect:none;fill:#ffffff;fill-opacity:1;stroke:none;stroke-width:50;stroke-linecap:round;stroke-linejoin:round;stroke-dasharray:none;stroke-opacity:1;paint-order:markers stroke fill;enable-background:accumulate;stop-color:#000000"
     d="m 517.36747,332.25 c -14.0633,0 -26.00001,11.93671 -26.00001,26 v 42.06055 c 4.2e-4,14.15385 12.10289,26.13732 26.25587,25.99804 9.9e-4,-10e-6 0.003,2e-5 0.004,0 l 11,-0.0879 c 10e-4,0 0.003,0 0.004,0 3.67592,-5.8e-4 7.1744,-0.84085 10.36524,-2.2832 3.16421,1.36098 6.5266,2.3048 10.08789,2.3125 a 25.0025,25.0025 0 0 0 0.0527,0 h 10.18945 c 3.56252,2.1e-4 6.93808,-0.94835 10.12305,-2.31641 3.21574,1.46185 6.73406,2.31641 10.41797,2.31641 h 11.25 c 14.0633,0 26,-11.93671 26,-26 v -42 c 0,-14.06329 -11.9367,-26 -26,-26 h -19.75977 a 25.0025,25.0025 0 0 0 -0.0547,0 c -6.43043,0.0139 -12.40952,2.56301 -17.06446,6.66992 -4.72579,-4.16121 -10.75065,-6.6633 -17.07422,-6.66992 a 25.0025,25.0025 0 0 0 -0.0273,0 z"
     id="path49" />
  <path
     style="baseline-shift:baseline;display:inline;overflow:visible;vector-effect:none;fill:#000000;fill-opacity:1;stroke:none;stroke-width:50;stroke-linecap:round;stroke-linejoin:round;stroke-dasharray:none;stroke-opacity:1;paint-order:markers stroke fill;enable-background:accumulate;stop-color:#000000"
     d="m 457.68746,400.92 c -7.11,-0.34 -13.58,-4.46 -14.05,-12.15 q -0.69,-11.29 0.68,-20.78 c 1.14,-7.91 6.57,-9.63 14.07,-10.2 q 15.06,-1.15 30.12,-0.16 c 13.91,0.92 16.24,6.75 16.43,20.11 q 0.09,6.81 -1.27,13.52 c -1.89999,9.31 -11.72,9.66 -19.48,9.9 q -13.26,0.4 -26.5,-0.24 z m 2.34,-12.02 c 6.43,2.23 16.46,1.34 22.28,0.99 3.7,-0.21 7.43,-0.3 7.91,-4.29 q 0.84,-7.07 -0.15,-13.31 -0.54,-3.36 -3.94,-3.6 -9.83,-0.7 -19.66,-0.11 c -4.15,0.24 -7.63,0.03 -8.31,4.39 -0.6,3.82 -0.96,11.25 1.31,15.46 a 1.03,1.04 85.3 0 0 0.56,0.47 z"
     id="path48" />
  <path
     style="baseline-shift:baseline;display:inline;overflow:visible;vector-effect:none;fill:#ffffff;fill-opacity:1;stroke:none;stroke-width:50;stroke-linecap:round;stroke-linejoin:round;stroke-dasharray:none;stroke-opacity:1;paint-order:markers stroke fill;enable-background:accumulate;stop-color:#000000"
     d="m 605.86747,332.25977 c -14.0633,0 -26,11.93671 -26,26 V 400.25 c 0,14.06329 11.9367,26 26,26 h 11.25 c 8.44847,0 16.07276,-4.35483 20.85937,-10.84375 4.13311,-0.0828 8.25758,-0.17818 12.26172,-0.43945 8.26372,-0.53689 17.22121,-4.6048 22.83789,-10.34961 5.61668,-5.74482 8.18618,-12.07612 9.57032,-17.43164 2.76827,-10.71104 1.80021,-18.8006 0.14648,-26.18164 a 25.0025,25.0025 0 0 0 -0.008,-0.0332 c -2.81358,-12.47757 -14.97709,-23.33999 -24.03711,-26.29883 -9.04475,-2.95384 -15.40873,-2.38953 -19.07227,-2.39257 h -0.0254 c -11.32415,-0.0267 -22.58464,-0.0328 -33.7832,-0.0195 z m 61.48242,28.91015 0.0215,0.0527 c -0.004,-0.0103 -0.0116,-0.019 -0.0156,-0.0293 -0.003,-0.007 -0.003,-0.0161 -0.006,-0.0234 z m 0.98242,22.54492 -0.008,0.0254 c 10e-4,-0.004 8.8e-4,-0.008 0.002,-0.0117 10e-4,-0.005 0.005,-0.009 0.006,-0.0137 z"
     id="path51" />
  <path
     style="baseline-shift:baseline;display:inline;overflow:visible;vector-effect:none;fill:#000000;fill-opacity:1;stroke:none;stroke-width:50;stroke-linecap:round;stroke-linejoin:round;stroke-dasharray:none;stroke-opacity:1;paint-order:markers stroke fill;enable-background:accumulate;stop-color:#000000"
     d="m 578.86747,370.77 q 0,-3.04 -1.5,-0.4 l -17.18,30.37 a 0.98,0.98 0 0 1 -0.86,0.51 h -10.19 a 1.01,1 75 0 1 -0.87,-0.51 l -17.15,-30.34 q -1.5,-2.64 -1.5,0.4 v 29.42 a 0.99,1 0 0 1 -0.99,1 l -11.25,0.09 a 1,1 0 0 1 -1.01,-1 v -42.06 a 1,1 0 0 1 1,-1 h 19.77 a 0.98,1 75.8 0 1 0.87,0.51 l 15.33,27.13 q 0.87,1.54 1.74,0 l 15.41,-27.13 a 1,1.01 15 0 1 0.87,-0.51 h 19.76 a 1,1 0 0 1 1,1 v 42 a 1,1 0 0 1 -1,1 h -11.25 a 1,1 0 0 1 -1,-1 z"
     id="path50" />
  <path
     style="baseline-shift:baseline;display:inline;overflow:visible;vector-effect:none;fill:#ffffff;fill-opacity:1;stroke:none;stroke-width:50;stroke-linecap:round;stroke-linejoin:round;stroke-dasharray:none;stroke-opacity:1;paint-order:markers stroke fill;enable-background:accumulate;stop-color:#000000"
     d="m 670.13895,332.25 c -13.60964,-0.017 -25.31211,11.09806 -25.99804,24.68945 -0.53297,10.43117 -0.48646,20.86125 0.14258,31.26953 0.45953,7.61868 2.79876,17.01306 9.53319,24.6543 6.7366,7.6437 16.29445,11.34156 24.19531,12.51563 a 25.0025,25.0025 0 0 0 0.0332,0.004 c 9.76615,1.43796 17.69179,0.93298 27.97266,0.83594 7.22437,-0.0635 16.37442,0.0444 27.05859,-6.47656 10.68418,-6.52098 17.60107,-21.11343 18.05274,-32.99219 a 25.0025,25.0025 0 0 0 0,-0.006 c 0.36811,-9.73373 0.40423,-19.49256 0.10742,-29.27344 -0.41371,-13.78424 -12.20955,-25.22691 -26,-25.2207 h -11.05859 c -6.19355,-3.1e-4 -11.90263,2.40112 -16.43555,6.19336 -4.52709,-3.78812 -10.22469,-6.19318 -16.41406,-6.19336 z"
     id="path53" />
  <path
     style="baseline-shift:baseline;display:inline;overflow:visible;vector-effect:none;fill:#000000;fill-opacity:1;stroke:none;stroke-width:50;stroke-linecap:round;stroke-linejoin:round;stroke-dasharray:none;stroke-opacity:1;paint-order:markers stroke fill;enable-background:accumulate;stop-color:#000000"
     d="m 619.15746,390.25 a 0.99,1 1.4 0 0 -1.03999,1 v 9 a 1,1 0 0 1 -1,1 h -11.25 a 1,1 0 0 1 -1,-1 v -41.99 a 1,1 0 0 1 1,-1 q 16.77999,-0.02 33.75,0.02 c 7.35,0.01 16.71,0.01 18.77999,9.19 1.77,7.9 1.61001,22.81 -9.77999,23.55 q -13.94001,0.91 -29.46001,0.23 z m 24.45001,-20.48 c -1.39,-0.71 -2.66,-1.3 -4.25,-1.28 q -10.13,0.15 -20.20001,-0.24 a 1,1 0 0 0 -1.03999,1 v 9.03 a 1.01,1 0 0 0 1.01,1 l 20.99,-0.1 q 3.5,-0.01 4.21,-2.45 0.97,-3.32 -0.25,-6.43 a 0.97,1.03 1.7 0 0 -0.47,-0.53 z"
     id="path52" />
  <path
     style="baseline-shift:baseline;display:inline;overflow:visible;vector-effect:none;fill:#ffffff;fill-opacity:1;stroke:none;stroke-width:50;stroke-linecap:round;stroke-linejoin:round;stroke-dasharray:none;stroke-opacity:1;paint-order:markers stroke fill;enable-background:accumulate;stop-color:#000000"
     d="m 736.53739,332.25 c -14.06329,0 -26,11.93671 -26,26 l -0.01,8.89258 a 25.0025,25.0025 0 0 0 0,0.0644 c 0.0175,11.96111 8.67336,22.57378 20.36523,25.22266 l 0.0156,7.8164 c 0.009,13.96366 11.77353,25.84277 25.73828,25.98243 a 25.0025,25.0025 0 0 0 0.0762,0 l 11.42969,0.0801 a 25.0025,25.0025 0 0 0 0.17578,0.002 c 13.93504,0 26.00976,-11.80161 26.00976,-26 a 25.0025,25.0025 0 0 0 0,-0.0645 l -0.0195,-7.4414 c 11.75278,-2.61934 20.84177,-13.5059 20.59375,-25.9043 a 25.0025,25.0025 0 0 0 -0.002,-0.0723 l -0.20899,-9.16992 a 25.0025,25.0025 0 0 0 -0.006,-0.17187 C 814.28958,343.82907 802.62831,332.25029 788.70731,332.25 Z m -3.41211,60.69531 c 0.0628,0.008 0.10744,0.008 0.16992,0.0156 0.0249,0.003 0.0474,0.0126 0.0723,0.0156 z"
     id="path55" />
  <path
     style="baseline-shift:baseline;display:inline;overflow:visible;vector-effect:none;fill:#000000;fill-opacity:1;stroke:none;stroke-width:50;stroke-linecap:round;stroke-linejoin:round;stroke-dasharray:none;stroke-opacity:1;paint-order:markers stroke fill;enable-background:accumulate;stop-color:#000000"
     d="m 688.07747,389.74 c 7.04,0.62 13.76,0.59 20.79,-0.05 q 2.78999,-0.25 3.48,-2.98 c 2.02,-8.12 0.76,-19.91 0.83,-28.47 a 1,1 0 0 1 1,-0.99 h 11.07 a 1,1 0 0 1 1,0.97 q 0.42,13.83 -0.1,27.58 c -0.5,13.15 -8.97,15.32 -20.35,15.42 -10.64,0.1 -17.59,0.39 -24.11,-0.57 -8.21,-1.22 -11.95,-5.64 -12.45,-13.95 q -0.86,-14.23 -0.13,-28.5 a 1,1 0 0 1 1,-0.95 h 11.22 a 1,1 0 0 1 1,1.01 q -0.12,16.04 0.29,26.41 c 0.13,3.34 2.2,4.78 5.46,5.07 z"
     id="path54" />
  <path
     style="baseline-shift:baseline;display:inline;overflow:visible;vector-effect:none;fill:#ffffff;fill-opacity:1;stroke:none;stroke-width:50;stroke-linecap:round;stroke-linejoin:round;stroke-dasharray:none;stroke-opacity:1;paint-order:markers stroke fill;enable-background:accumulate;stop-color:#000000"
     d="m 798.19754,332.25 c -14.06329,0 -26,11.93671 -26,26 l -0.0996,41.81055 a 25.0025,25.0025 0 0 0 0,0.0391 c -0.011,13.68856 11.24875,25.42581 24.92187,25.99414 7.82524,0.36464 14.25835,0.51662 19.72658,0.37891 a 25.0025,25.0025 0 0 0 0.0137,0 c 9.52496,-0.24456 19.29139,-0.29983 29.29883,-0.16407 a 25.0025,25.0025 0 0 0 0.0879,0 c 14.24607,0.14319 26.39953,-12.00841 26.25976,-26.2539 l -0.0586,-8.81446 v -0.008 c -10e-4,-3.63758 -0.8157,-7.10545 -2.23047,-10.26953 v -3.30273 c 1.47211,-3.26704 2.32593,-6.83753 2.28905,-10.57618 l -0.0586,-8.84375 v -0.008 c -0.004,-14.1907 -12.07442,-25.98242 -26,-25.98242 z"
     id="path57" />
  <path
     style="baseline-shift:baseline;display:inline;overflow:visible;vector-effect:none;fill:#000000;fill-opacity:1;stroke:none;stroke-width:50;stroke-linecap:round;stroke-linejoin:round;stroke-dasharray:none;stroke-opacity:1;paint-order:markers stroke fill;enable-background:accumulate;stop-color:#000000"
     d="m 754.87747,368.53 q -2.52,-0.08 -5.05,-0.2 c -4.34,-0.2 -8.81,0.44 -13.43,-0.17 a 0.99,1 3.6 0 1 -0.87,-0.99 l 0.01,-8.92 a 1,1 0 0 1 1,-1 h 52.17 a 1.01,1 89.1 0 1 1,0.98 l 0.21,9.17 a 1,1 0 0 1 -1,1.02 h -18.66 a 1,1 0 0 0 -1,1 l 0.08,30.89 a 1.01,1 0 0 1 -1.01,1 l -11.43,-0.08 a 1,1 0 0 1 -0.99,-1 l -0.06,-30.7 a 1,1 0 0 0 -0.97,-1 z"
     id="path56" />
  <g
     id="path42"
     style="fill:#000000;fill-opacity:1;stroke:#ffffff;stroke-width:50;stroke-linecap:round;stroke-linejoin:round;stroke-dasharray:none;stroke-opacity:1;paint-order:markers stroke fill"
     transform="translate(24.367465,24.5)">
    <path
       style="baseline-shift:baseline;display:inline;overflow:visible;vector-effect:none;fill:#ffffff;stroke:none;enable-background:accumulate;stop-color:#000000;stop-opacity:1"
       d="m 834.25,307.75 c -14.06329,0 -26,11.93671 -26,26 v 42.06055 c 4.2e-4,14.15385 12.10289,26.13732 26.25586,25.99804 10e-4,-10e-6 0.003,2e-5 0.004,0 l 11,-0.0879 c 10e-4,0 0.003,0 0.004,0 5.72369,-9e-4 11.0049,-2.02836 15.33203,-5.28515 4.42919,3.36624 9.86278,5.42435 15.70508,5.35156 l -0.18945,0.002 12.19726,-0.0586 c 13.78234,0.006 25.57259,-11.42712 25.99024,-25.20313 l -0.004,0.12891 c 0.0736,-2.07417 1.18723,-7.21733 -1.00586,-15.99414 2.82101,-8.76387 1.92483,-14.53397 1.74805,-18.00391 a 25.0025,25.0025 0 0 0 0,-0.002 c -0.34558,-6.77807 -2.60123,-14.92323 -8.01758,-21.5293 -5.41435,-6.60362 -13.16811,-10.51238 -19.89844,-12.08789 -3.62825,-0.85133 -7.385,-1.28906 -11.12109,-1.28906 z m 54.63086,16.26758 0.0606,0.043 c -0.0111,-0.008 -0.024,-0.0134 -0.0352,-0.0215 -0.01,-0.007 -0.0158,-0.0145 -0.0254,-0.0215 z m 2.98242,58.10742 c -0.80743,0.37259 -1.47976,0.64904 -2.1875,0.87305 0.72843,-0.23275 1.4572,-0.57922 2.1875,-0.87305 z m -3.69726,1.22656 c -0.90925,0.20061 -2.00444,0.53087 -2.65625,0.62305 l -0.0742,0.01 c 0.8942,-0.12368 1.81536,-0.39631 2.73047,-0.63281 z"
       id="path59" />
    <path
       style="baseline-shift:baseline;display:inline;overflow:visible;vector-effect:none;stroke:none;enable-background:accumulate;stop-color:#000000;stop-opacity:1"
       d="m 873.83,366.68 q -2.33,-0.79 -4.85,-0.75 -10.64,0.16 -21.46,-0.05 a 1,1 0 0 0 -1.02,1 v 8.84 a 1,0.99 -90 0 1 -0.99,1 l -11.25,0.09 a 1,1 0 0 1 -1.01,-1 v -42.06 a 1,1 0 0 1 1,-1 h 42 q 2.74,0 5.42,0.63 8.21,1.92 8.65,10.55 c 0.35,6.87 0.51,14.07 -8.31,15.29 q -0.99,0.14 -0.94,0.8 a 0.51,0.51 0 0 0 0.49,0.48 c 9.32,0.35 8.23,8.79 8,15.27 a 0.99,0.99 0 0 1 -0.99,0.96 l -12.33,0.06 a 1,1 0 0 1 -1.01,-1.07 q 0.31,-4.24 -0.76,-8.34 a 1.01,1 2.9 0 0 -0.64,-0.7 z m 0.34,-22.45 a 1.04,1.03 63.7 0 0 -0.58,-0.2 l -26.09,-0.07 a 1,0.99 -89.7 0 0 -1,1 v 8.76 a 1,1 0 0 0 0.99,1 q 12.11,0.1 24.19,-0.03 c 5.65,-0.06 5.76,-8.08 2.49,-10.46 z"
       id="path60" />
  </g>
  <path
     style="baseline-shift:baseline;display:inline;overflow:visible;vector-effect:none;fill:#000000;fill-opacity:1;stroke:none;stroke-width:50;stroke-linecap:round;stroke-linejoin:round;stroke-dasharray:none;stroke-opacity:1;paint-order:markers stroke fill;enable-background:accumulate;stop-color:#000000"
     d="m 811.61747,390.25 h 34.73 a 1,0.99 0 0 1 1,0.99 l 0.06,9.06 a 1,1 0 0 1 -1.01,1.01 q -15.48,-0.21 -30.27999,0.17 -6.75,0.17 -18.06,-0.36 a 1,1 0 0 1 -0.96,-1 l 0.1,-41.87 a 1,1 0 0 1 1,-1 h 48.15 a 1,0.99 0 0 1 1,0.99 l 0.06,9.09 a 0.99,0.99 0 0 1 -0.99,1 l -34.79999,0.15 a 1,1 0 0 0 -1,1 v 3.77 a 1,1 0 0 0 1,1 h 32.5 a 1,1 0 0 1 1,1 v 7.14 a 1,1 0 0 1 -1,1 l -32.5,0.05 a 1,1 0 0 0 -1,1 v 4.81 a 1,1 0 0 0 1,1 z"
     id="path58" />
</svg>
