<?xml version="1.0" encoding="UTF-8" standalone="no"?>
<svg
   height="195.22629"
   viewBox="0 0 593.195 390.4515"
   width="296.59698"
   version="1.1"
   id="svg2"
   sodipodi:docname="megaduck.svg"
   inkscape:version="1.4.3 (0d15f75042, 2025-12-25)"
   xmlns:inkscape="http://www.inkscape.org/namespaces/inkscape"
   xmlns:sodipodi="http://sodipodi.sourceforge.net/DTD/sodipodi-0.dtd"
   xmlns="http://www.w3.org/2000/svg"
   xmlns:svg="http://www.w3.org/2000/svg">
  <defs
     id="defs2" />
  <sodipodi:namedview
     id="namedview2"
     pagecolor="#aaaaaa"
     bordercolor="#000000"
     borderopacity="0.25"
     inkscape:showpageshadow="2"
     inkscape:pageopacity="0.0"
     inkscape:pagecheckerboard="0"
     inkscape:deskcolor="#d1d1d1"
     inkscape:zoom="1.7550332"
     inkscape:cx="147.86045"
     inkscape:cy="97.434053"
     inkscape:window-width="1920"
     inkscape:window-height="1080"
     inkscape:window-x="0"
     inkscape:window-y="0"
     inkscape:window-maximized="0"
     inkscape:current-layer="svg2" />
  <path
     style="baseline-shift:baseline;display:inline;overflow:visible;vector-effect:none;fill:#ffffff;stroke:none;stroke-width:28;stroke-linecap:round;stroke-linejoin:round;stroke-dasharray:none;stroke-opacity:1;paint-order:markers stroke fill;enable-background:accumulate;stop-color:#000000"
     d="m 224.60564,51.827488 c -5.61765,-0.13798 -10.44852,0.44482 -14.16407,0.941406 -0.006,5.72e-4 -0.0176,0.0014 -0.0234,0.002 -0.70924,0.06883 -1.36691,0.153085 -2.28711,0.279297 a 14.0014,14.0014 0 0 0 -1.92774,0.404297 c -6.5e-4,1.85e-4 -0.001,-1.85e-4 -0.002,0 -0.74023,0.210713 -0.093,-0.542288 -3.76172,1.486328 -0.49973,0.276329 -1.32891,0.249589 -2.45898,1.166016 -5.40485,3.167155 -7.64685,7.191012 -8.3125,7.824219 a 14.0014,14.0014 0 0 0 -0.64454,0.654296 c -0.46643,0.505977 -2.53183,1.849219 -6.35156,3.957032 a 14.0014,14.0014 0 0 0 -0.004,0.002 c -12.05679,6.658285 -19.06739,20.284053 -19.43555,33.031251 a 14.0014,14.0014 0 0 0 0,0.002 c -0.28329,9.87628 -1.76341,22.05106 0.16406,35.12695 0.86215,5.85308 -0.15707,16.73239 6.31055,28.42969 a 14.0014,14.0014 0 0 0 0,0.002 c 8.61224,15.57103 24.24051,17.8235 30.51562,20.46875 10.28451,4.33788 21.28536,8.43208 33.20118,10.85937 8.07382,1.64492 14.13889,0.9818 17.8125,1.35352 a 14.0014,14.0014 0 0 0 0.002,0 c 5.17247,0.52285 12.14001,1.71375 20.55078,0.22851 a 14.0014,14.0014 0 0 0 0.67187,-0.13476 c 7.45454,-1.69661 13.14349,-5.50413 16.67774,-13.21875 1.76712,-3.85731 2.58198,-9.48127 0.56641,-14.70117 -2.0152,-5.21893 -6.28008,-8.86644 -10.41602,-10.89258 l -0.002,-0.002 c -11.73632,-5.74931 -22.98776,-5.29378 -28.9336,-6.39649 a 14.0014,14.0014 0 0 0 -0.002,0 c -9.38408,-1.73822 -17.65934,-3.84146 -24.08789,-7.48437 a 14.0014,14.0014 0 0 0 -1.76563,-0.84375 c -4.51891,-1.78258 -9.34661,-3.43253 -12.52148,-5.15625 -1.54474,-0.83869 -2.16687,-1.44063 -2.4082,-1.61719 -0.0675,-0.80795 -0.16722,-1.77107 -0.15235,-2.11328 0.26692,-0.14117 0.60808,-0.33583 1.83985,-0.80274 a 14.0014,14.0014 0 0 0 0.002,0 c 5.93234,-2.24951 18.03507,-2.80923 29.94922,-11.57812 10.31962,-7.59411 15.10269,-18.93859 16.55469,-29.552732 1.85417,-13.553825 -4.7549,-25.70897 -12.56629,-33.59975 l -0.002,-0.002 c -7.45696,-7.532686 -15.88298,-7.958362 -22.58789,-8.123047 z m -18.54688,2.341797 a 14.0014,14.0014 0 0 0 -0.2168,0.115234 c 0.0194,-0.0096 0.0787,-0.05683 0.0977,-0.06641 0.0766,-0.03873 0.0492,-0.0143 0.11914,-0.04883 z M 151.09978,182.14389 c -2.16615,-0.0948 -4.66383,0.1401 -7.74414,1.11719 -3.08032,0.97708 -7.02713,3.32767 -9.49413,7.17187 -1.35889,2.11747 -2.04754,4.36625 -2.41212,6.55274 -0.27406,1.12504 -0.30712,1.5891 -0.3418,1.91992 -0.0751,0.71687 -0.073,0.95707 -0.082,1.22266 -0.0362,1.06236 -0.0186,1.72247 -0.002,2.48828 0.008,0.3829 0.0149,0.705 0.041,1.18359 0.013,0.2393 -0.0204,0.29543 0.12891,1.36328 0.0373,0.26697 0.074,0.58891 0.25194,1.33399 0.089,0.37254 0.20116,0.84298 0.51564,1.67968 0.002,0.006 0.009,0.0173 0.0117,0.0234 1.51357,7.06627 5.06385,13.35044 9.67774,17.87305 -2.83688,4.11803 -2.89389,8.28011 -3.3125,11.33789 -0.62418,4.55934 -0.53108,8.53986 -0.50977,10.66797 0.10196,10.28527 4.24859,15.47041 4.56836,16.7207 0.6254,2.47314 -2.22004,10.21749 -4.48828,22.2832 a 14.0014,14.0014 0 0 0 0,0.002 c -4.34749,23.14829 -7.10698,46.05715 -11.02148,68.14648 l 0.13086,-0.64844 c -0.93206,4.11574 -2.45238,10.3294 -1.2168,18.50586 0.61779,4.08823 2.00419,10.04566 8.39844,14.40235 6.35705,4.33135 14.59563,3.26209 19.88281,0.87695 10.24439,-4.31725 19.02618,-9.28653 27.53906,-13.42578 10.1265,-4.92393 20.89088,-9.58838 31.27149,-13.2832 3.14842,-1.12081 7.85132,-1.83833 13.85546,-3.27344 l -0.002,0.002 c 7.85116,-1.87563 13.41557,-5.50692 17.58008,-7.8457 a 14.0014,14.0014 0 0 0 0.002,-0.002 c 5.86266,-3.29391 17.07943,-6.90401 25.53711,-17.03711 0.92346,2.25507 1.80341,4.51057 2.9961,6.76367 a 14.0014,14.0014 0 0 0 0.32617,0.58203 c 7.92226,13.38181 20.97321,20.66491 33.42773,24.32812 14.09033,4.14695 27.25894,0.62709 37.81055,-3.79687 l 0.006,-0.002 c 2.43034,-1.01804 2.50694,-0.94721 4.09179,-1.60352 0.0437,0.081 0.0219,0.0364 0.0664,0.11914 a 14.0014,14.0014 0 0 0 0.002,0.004 c 0.88473,1.64177 2.09848,4.60999 5.72657,8.11718 3.6274,3.50653 11.92023,6.50487 18.35547,4.79297 9.07198,-2.41374 13.95646,-9.06652 16.41796,-15.27539 a 14.0014,14.0014 0 0 0 0,-0.002 c 0.51916,-1.30998 0.89616,-2.58214 1.19336,-3.82617 19.86431,17.74824 49.19544,18.16565 71.29688,6.36719 3.22687,-1.72264 4.38409,-2.78058 7.05078,-4.83399 0.75961,-0.58491 1.63136,-1.44215 2.4375,-2.0957 1.27695,3.71919 3.11491,7.25826 5.39258,10.14648 a 14.0014,14.0014 0 0 0 16.42383,4.23242 c 0.57969,-0.24401 8.49423,-0.56291 15.05859,-9.27539 v -0.002 c 5.2589,-6.9807 4.55498,-12.70625 4.47266,-16.86523 -10e-4,-0.0547 -0.005,-0.0491 -0.006,-0.10352 4.99709,1.95302 10.15766,4.15096 15.48242,6.46094 -1.24124,-0.53837 0.38943,0.22716 1.91211,1.11133 1.52267,0.88417 3.57746,2.09693 5.9375,3.45312 4.72008,2.71238 10.64483,6.00933 16.81836,8.80664 6.17353,2.79731 12.08132,5.4658 20.12109,5.62305 4.01989,0.0786 9.54408,-0.68861 14.26367,-4.93555 4.7196,-4.24694 6.38575,-10.77776 6.23828,-15.65234 a 14.0014,14.0014 0 0 0 0,-0.002 c -0.26525,-8.74273 -5.12029,-12.87369 -7.8789,-15.43164 -2.75862,-2.55794 -5.11479,-4.4082 -4.78711,-4.07421 l 0.002,0.004 c -1.09472,-1.11638 -2.4864,-2.4549 -3.84961,-3.75976 0.75589,-0.99767 1.52264,-1.96121 2.22266,-3.19922 v -0.002 c 4.91954,-8.70207 3.10463,-18.69968 0.0977,-24.95703 -3.00716,-6.25772 -6.9939,-10.63586 -10.05468,-13.83203 -10.66875,-11.14184 -24.21357,-12.57098 -35.06641,-12.17383 a 14.0014,14.0014 0 0 0 -3.64453,0.6211 c -7.32233,2.27586 -12.0134,5.26026 -15.08398,6.36718 -0.95209,0.34319 -3.59319,0.49703 -7.56835,1.48633 -0.19226,-1.0396 -0.1977,-1.72159 -0.48048,-2.89258 -2.36239,-9.78486 -2.5034,-18.72544 -1.7793,-30.05664 0.0963,-1.50715 1.19406,-4.36547 -0.30272,-10.62304 -0.74841,-3.12879 -3.13624,-8.05031 -7.82813,-10.81446 -4.69189,-2.76414 -9.53031,-2.60899 -12.95703,-1.93945 a 14.0014,14.0014 0 0 0 -0.002,0 c -4.76509,0.93161 -10.64625,3.39551 -14.88672,8.3418 -2.87656,2.03742 -2.11746,2.50897 -2.44923,3.00976 -1.43989,2.17348 -1.49041,2.60867 -1.86523,3.48828 -15.7288,-13.44535 -37.2496,-19.13292 -57.76367,-14.01562 -1.27072,0.1329 -1.89695,0.28004 -2.17969,0.35352 -0.69974,0.18183 -0.90147,0.25794 -1.21289,0.35937 -0.62286,0.20287 -1.30481,0.43947 -2.31836,0.79883 a 14.0014,14.0014 0 0 0 -0.89648,0.35351 c -0.78668,0.34145 -1.08785,0.44434 -2.14258,0.99219 -0.22028,0.11443 -0.59075,0.32021 -1.16798,0.6875 -11.45112,6.15048 -19.01278,16.54845 -24.15429,27.25781 -0.46238,0.96309 -0.79474,1.95365 -1.22071,2.92579 -3.34501,-2.4634 -7.3983,-4.21348 -11.41014,-4.72071 -7.06127,-0.89309 -15.79654,4.2447 -18.75977,9.28516 -2.96324,5.04046 -3.3545,9.17588 -3.68946,12.93164 -0.66991,7.51151 -0.13855,15.52643 -0.11327,15.17773 a 14.0014,14.0014 0 0 0 0,0.004 c -0.28542,3.95394 -1.78369,8.87714 -3.09961,15.84961 -1.04906,5.5442 -1.53936,9.05943 -2.1875,10.66406 -2.06656,4.11374 -3.46416,4.69341 -9.16406,4.6875 a 14.0014,14.0014 0 0 0 -0.002,0 c -4.71965,-0.004 -7.9301,-0.47146 -9.42773,-1.04492 -1.49764,-0.57346 -1.86084,-0.60866 -3.24415,-3.18164 a 14.0014,14.0014 0 0 0 0,-0.002 c -2.17336,-4.04107 -4.65555,-15.73767 -4.89844,-22.7461 v -0.002 c -0.30851,-8.93363 1.31021,-19.57738 0.65625,-32.13281 -0.45585,-8.75984 -6.95569,-18.40763 -14.12304,-21.35547 -4.74984,-1.95356 -8.42984,-2.2446 -11.68359,-2.29297 -1.93136,-0.44097 -3.39966,-0.0455 -4.71094,-0.0703 -5.5e-4,-1e-5 -10e-4,1e-5 -0.002,0 a 14.0014,14.0014 0 0 0 -3.39453,0.85351 c -1.1e-4,-2.6e-4 -0.002,2.6e-4 -0.002,0 -2.25737,-5.38197 -5.29679,-10.77406 -9.73242,-15.66797 l -0.004,-0.004 c -5.13243,-5.66625 -13.29233,-18.92163 -30.85352,-20.89258 l 0.0898,0.01 c -8.18037,-0.9707 -17.83264,-4.08803 -28.53125,-6.67187 a 14.0014,14.0014 0 0 0 -0.002,-0.002 c -10.72202,-2.58778 -21.99529,-5.977 -34.76367,-7.70118 2.05456,0.27506 -0.66286,-0.2488 -3.05664,-0.99218 -2.41068,-0.74863 -5.48564,-1.7036 -9,-2.39063 -1.75718,-0.34351 -3.59167,-0.76845 -5.75781,-0.86328 z m -19.97656,18.54102 c -0.002,0.34296 0.0541,0.67439 0.0625,1.01562 -0.002,-0.0206 0.0191,-0.13515 0.0215,-0.17773 0.006,0.0844 -0.0223,0.19215 -0.0156,0.27539 0.006,0.21185 0.0294,0.41974 0.0391,0.63086 -0.0408,-0.28616 -0.0523,-0.41677 -0.0508,-0.40039 v -0.002 l -0.008,-0.19726 v -0.002 z m 334.6875,34.35156 c -0.16344,0.32287 -0.24016,0.64551 -0.39063,0.96875 -0.0123,-0.0107 -0.0267,-0.0186 -0.0391,-0.0293 0.11382,-0.31173 0.26037,-0.58644 0.38476,-0.88672 l 0.002,-0.002 c 0.006,-0.009 0.0366,-0.0418 0.043,-0.0508 z m -226.08985,3.0293 c 0.87235,0.86997 1.66332,1.45466 2.50781,2.38671 a 14.0014,14.0014 0 0 0 0.002,0.002 c 1.59777,1.76245 3.20281,4.67317 4.63476,8.1289 -0.94199,-1.33648 -1.8771,-2.622 -2.56445,-3.67578 h 0.002 c -1.29839,-1.99111 -2.85228,-4.37288 -4.58203,-6.84179 z m -73.26953,2.40625 c 0.20702,-0.10193 0.12218,0.31215 -0.38086,0.96875 0.008,-0.0626 0.002,-0.17052 0.01,-0.23047 0.0586,-0.42836 0.23392,-0.67075 0.37109,-0.73828 z m 22.3418,0.008 c 1.04338,0.27694 2.13525,0.46701 3.1582,0.7793 a 14.0014,14.0014 0 0 0 0.002,0 c 7.83221,2.39016 15.82193,4.60412 18.51367,6.28515 1.77136,1.1071 6.75764,7.10194 10.38086,12.6582 a 14.0014,14.0014 0 0 0 0.002,0.002 c 4.87671,7.47645 6.42139,9.12501 6.40625,11.45508 -0.0582,8.93698 0.009,17.15512 -0.92774,24.56445 l 0.0449,-0.32422 c -0.11243,0.74758 -0.0961,0.74704 -0.10156,0.88086 0.0851,-0.12689 -0.92372,0.6817 -4.12889,2.41211 -9.77426,5.27582 -15.35878,10.83489 -19.82618,12.78516 -6.1212,2.67236 -11.74865,5.20349 -17.35938,7.59179 0.52422,-2.38289 1.07447,-4.58066 1.50782,-7.2832 a 14.0014,14.0014 0 0 0 0.002,-0.002 c 2.71632,-16.96358 5.93979,-35.07404 6.35157,-53.79883 a 14.0014,14.0014 0 0 0 -0.0195,-1.10742 c -0.34394,-6.01016 -1.84826,-11.64422 -4.00586,-16.89844 z m 237.11914,22.41992 c 0.72357,-0.0552 1.87697,-0.0499 3.44923,0.28516 3.14447,0.67012 7.17588,2.55465 9.3457,4.0664 a 14.0014,14.0014 0 0 0 0.004,0.004 c 1.00917,0.70243 3.17321,2.50139 6.64063,4.28516 3.46742,1.78376 9.29771,3.78394 15.82617,2.00585 a 14.0014,14.0014 0 0 0 0.002,-0.002 c 1.16823,-0.31833 2.27801,-0.70356 3.33594,-1.16601 0.0414,0.44143 0.18422,1.13884 0.19336,1.51367 0.28341,11.70165 1.2497,22.65066 2.83398,34.14453 0.30453,2.20924 0.34738,4.62012 0.53906,6.91016 -6.73068,-0.0861 -12.90451,1.18179 -18.34766,2.87304 l 0.002,-0.002 c -2.93712,0.91193 -8.14242,1.34971 -15.07031,3.97461 v -0.002 c -6.83718,2.59016 -9.31897,1.34767 -13.79492,-2.61719 -4.47595,-3.96487 -8.99687,-11.90033 -11.31642,-19.58399 -3.26434,-10.81175 5.13419,-29.729 15.48438,-36.61523 -0.14495,0.0964 0.14947,-0.019 0.87305,-0.0742 z m 76.32423,45.19141 c -5e-5,0.30292 -0.003,0.60224 0.0117,0.90625 -0.46269,-0.0134 -0.73135,-0.0666 -1.27343,-0.0625 -1.43023,0.0109 -3.25095,0.47037 -5.07227,1.15625 -0.0657,-0.66346 -0.13669,-1.32804 -0.21094,-1.99414 2.63218,0.49821 4.78829,0.28104 6.54493,-0.006 z m -251.64845,2.35742 c -0.31614,1.60886 -0.65334,2.86033 -0.99805,3.43555 -0.65255,1.0871 -2.54335,2.49903 -4.99023,4.08984 0.73292,-0.63039 1.46469,-1.2577 2.20507,-2.03516 1.50364,-1.57891 2.71913,-3.48371 3.78321,-5.49023 z m 107.08203,16.76367 c 0.24271,0.87975 0.46952,1.8358 0.70509,2.73242 a 14.0014,14.0014 0 0 0 -2.11328,-0.34961 c 0.48628,-0.78004 0.98001,-1.55331 1.40819,-2.38281 z m 154.94141,1.62109 c -2e-4,8.1e-4 -0.002,0.009 -0.002,0.01 4.7e-4,-0.002 -4.9e-4,-0.006 0,-0.008 a 14.0014,14.0014 0 0 0 0.002,-0.002 z m -330.55274,5.29883 c 0.23388,1.03513 -0.15237,1.09617 -0.0937,0.48047 v -0.002 c 1e-4,-0.001 -1e-4,-9.2e-4 0,-0.002 0.0138,-0.13712 0.0777,-0.33734 0.0937,-0.47656 z m -25.28711,11.46289 c 1.7032,2.64903 4.84221,5.11407 8.08203,6.44922 -3.37012,1.69807 -6.74609,3.38055 -9.90234,4.97461 0.6614,-3.83597 1.21386,-7.60836 1.82031,-11.42383 z m 409.3086,5.48438 c 0.0313,0.0278 0.15835,0.13508 0.1875,0.16211 0.4638,0.43006 0.19627,0.49287 -0.1875,-0.16211 z m -388.89648,1.19336 -0.17383,0.0508 c 0.0368,-0.0106 0.0687,-0.0265 0.10546,-0.0371 0.0206,-0.006 0.0478,-0.007 0.0684,-0.0137 z"
     id="path5" />
  <g
     id="path1"
     style="fill:#279eb4;stroke:#ffffff;stroke-width:28;stroke-linecap:round;stroke-linejoin:round;stroke-dasharray:none;stroke-opacity:1;paint-order:markers stroke fill"
     transform="translate(14.195485,13.999363)">
    <path
       style="baseline-shift:baseline;display:inline;overflow:visible;vector-effect:none;fill:#ffffff;stroke:none;enable-background:accumulate;stop-color:#000000;stop-opacity:1"
       d="m 36.099609,-14 c -4.378977,0.0121 -8.264733,0.576608 -9.24414,0.658203 a 14.0014,14.0014 0 0 0 -0.0039,0 c -4.623126,0.386267 -9.878607,1.37834 -15.050781,3.8691407 -0.0045,-0.00548 -0.197263,-0.2421887 -0.197265,-0.2421875 -4.51e-4,2.237e-4 -1.275022,0.7173982 -1.388672,0.7910157 -0.11365,0.073617 -0.160064,0.1045788 -0.199219,0.1308593 -0.2384496,0.1600451 -0.419895,0.2969156 -0.5800781,0.40625 -0.6815212,0.4651788 -0.8814411,0.6098722 -2.4707032,1.7246094 a 14.0014,14.0014 0 0 0 -0.078125,0.054687 c -5.237e-4,3.728e-4 -0.00143,0.00158 -0.00195,0.00195 C 4.1344886,-4.6486482 -4.3801257,-0.55847013 -7.330068,10.560543 a 14.0014,14.0014 0 0 0 -0.3808594,2.025391 c -0.6129952,5.452536 -1.2473721,11.218842 -1.578125,17.158203 -0.6930187,12.403 -0.3253536,24.27977 -2.2675786,32.5625 a 14.0014,14.0014 0 0 0 -0.314453,1.949218 c -1.164071,13.021562 -0.899157,25.495768 -0.982422,37.294925 -0.06972,9.79126 -3.267141,24.90436 0.460938,40.75391 2.067229,8.78725 6.9907902,14.35027 13.9863281,18.73242 3.497769,2.19107 7.7827105,3.99019 13.0273439,4.15625 5.244633,0.16606 11.373833,-1.89582 15.693359,-5.79688 a 14.0014,14.0014 0 0 0 4.615234,-10.17382 c 0.09896,-6.44196 0.442054,-13.07314 0.820313,-19.82032 0.1212,0.75972 0.32446,1.54834 0.433594,2.30469 a 14.0014,14.0014 0 0 0 0.002,0.002 c 0.459423,3.1828 0.372038,7.26661 1.226562,12.82032 0.854525,5.5537 3.390329,12.89242 8.916016,18.63476 4.458776,4.63317 12.78069,6.46782 17.935547,5.27149 5.154857,-1.19634 8.18678,-3.49353 10.765625,-5.53125 5.157689,-4.07545 9.434054,-8.87367 9.232422,-8.70313 12.622459,-10.67696 12.944359,-24.696 14.923828,-30.06445 6.531066,-17.71445 14.895526,-35.556226 22.373046,-54.466802 0.33988,13.125236 0.76847,26.254912 0.95313,39.392582 0.17389,12.46134 0.8808,24.43336 1.0293,36.04687 0.045,3.51528 -0.68122,9.55521 1.77148,17.25 1.22635,3.8474 3.73897,8.65842 8.60156,11.98633 4.86259,3.32791 11.10248,4.18538 16.40625,3.45899 8.27748,-1.1342 13.33804,-8.01369 15.20703,-12.5625 1.869,-4.54882 2.35001,-8.51238 2.68555,-12.32422 0.67108,-7.62368 0.26665,-15.67924 0.29297,-16.42969 0.3966,-11.27965 0.81538,-22.68626 0.73047,-34.40039 -0.17077,-23.744183 -1.56684,-45.761336 0.34961,-67.636722 0.14867,-1.697437 1.84931,-9.847308 1.70312,-18.359375 -0.0731,-4.256034 -0.38732,-9.0474323 -3.30859,-14.4824217 -2.92128,-5.4349894 -10.37398,-10.6631128 -17.45117,-11.0722656 -8.735,-0.5044578 -13.58441,1.0743295 -15.08008,0.9394531 -2.74074,-0.2506844 -10.61062,-3.2859438 -20.86914,0.515625 a 14.0014,14.0014 0 0 0 -0.002,0 c -7.78993,2.8874569 -12.2571,7.84964092 -16.136727,12.5625 -3.879619,4.7128591 -6.830236,9.5034182 -8.917969,13.4062492 a 14.0014,14.0014 0 0 0 0,0.002 c -1.306035,2.443024 -4.893263,6.716138 -7.300781,14.095703 a 14.0014,14.0014 0 0 0 0,0.002 c -2.291234,7.025156 -2.451275,12.220452 -3.160163,14.81822 a 14.0014,14.0014 0 0 0 0,0.002 C 77.169811,53.819077 74.604162,60.699241 71.796875,67.554687 68.155905,55.276904 64.213713,45.287219 63.412109,36.095703 62.776829,28.815636 61.576045,22.435999 60.917969,16.712891 60.403201,12.23687 60.953609,3.5452257 54.707031,-5.7753906 a 14.0014,14.0014 0 0 0 -0.0039,-0.00391 C 51.309388,-10.839022 46.795656,-12.40976 43.746094,-13.173828 40.696531,-13.937896 38.289098,-14.006048 36.099609,-14 Z m -21.802734,7.6015625 c 0.797892,0.1063369 0.83128,0.10998 1.662109,0.2207031 l 0.94336,2.9863281 C 15.792514,-4.5578041 14.984333,-5.55208 14.296875,-6.3984375 Z M 32.185547,14.320313 c 0.354989,1.795086 0.528874,2.225518 0.916015,5.591796 0.412265,3.585351 0.78458,6.368422 1.236329,9.523438 a 14.0014,14.0014 0 0 0 -15.695313,2.792969 c 0.01333,-0.27713 0.01014,-0.65099 0.02539,-0.923829 a 14.0014,14.0014 0 0 0 0,-0.0039 c 0.220819,-3.965279 0.695373,-8.230433 1.160156,-12.503906 0.418451,-0.332208 1.348474,-1.171006 3.107422,-2.445313 0.04869,-0.03406 0.119661,-0.08257 0.171875,-0.11914 1.028716,-0.703161 3.004647,-1.415246 6.076172,-1.671875 l -0.0039,0.002 c 1.17761,-0.09811 1.947792,-0.140734 3.00586,-0.242187 z M 433.83789,29.152344 c -1.33623,-0.01048 -1.82742,0.138561 -1.34961,0.216797 a 14.0014,14.0014 0 0 0 -9.64258,2.345703 14.0014,14.0014 0 0 0 -2.2832,1.339843 c -7e-4,6.67e-4 -10e-4,0.0013 -0.002,0.002 -0.002,0.0022 -0.005,0.0056 -0.008,0.0078 -2.94622,2.812722 -5.13062,5.806427 -6.91015,8.746094 -4.2643,-2.172208 -8.25786,-3.390382 -11.93164,-4.13086 a 14.0014,14.0014 0 0 0 -0.004,0 c -12.66729,-2.549641 -27.19296,-1.045603 -38.71289,9.351563 -1.38141,1.246928 -3.06422,2.917627 -4.60742,4.330078 -0.017,-0.111361 -6.8e-4,-0.18145 -0.0195,-0.294922 -0.59986,-3.609945 -3.02886,-9.273604 -8.16407,-12.382812 h -0.002 c -4.25537,-2.576322 -9.97187,-4.221668 -15.51953,-3.189453 -5.54828,1.032331 -9.66391,4.320429 -12.17383,7.242187 -3.00427,3.49722 -4.53123,6.636473 -5.63281,9.4375 -5.28765,-3.621841 -12.61579,-4.920456 -16.81055,-4.064453 -4.99313,1.018925 -7.31848,2.299304 -7.81445,2.421875 -5.54104,1.368896 -12.92859,2.737451 -20.66602,7.445312 a 14.0014,14.0014 0 0 0 -0.002,0 c -8.74292,5.322123 -18.59668,12.502807 -26.20508,21.339844 -8.4531,9.818264 -12.69158,22.37118 -13.21679,35.17578 -0.52521,12.80459 2.88274,26.59131 13.03515,36.7207 a 14.0014,14.0014 0 0 0 0.002,0.002 c 10.11852,10.09185 22.48897,13.01081 32.54296,14.88868 3.69254,0.6894 9.63826,2.78937 17.90235,2.27539 l -1.97266,-0.0156 c 0.96428,0.0762 1.71464,-0.003 2.5957,0.008 -2.26289,1.21926 -5.84121,2.4338 -10.60937,3.19336 a 14.0014,14.0014 0 0 0 -0.002,0 c -6.78394,1.08097 -15.38603,-1.22001 -28.11133,-1.66406 -4.36312,-0.15219 -10.0828,-0.38759 -17.39844,2.48633 -3.65782,1.43696 -8.95838,4.16772 -11.62109,11.01758 -2.66271,6.84985 -0.088,14.21234 3.02343,18.58593 3.56889,5.01676 10.35488,8.5279 14.74805,9.23243 4.39318,0.70452 6.28685,0.44674 7.01563,0.55273 a 14.0014,14.0014 0 0 0 0.0996,0.0137 c 5.70803,0.78868 11.59747,1.56262 17.68554,2.08203 12.82182,1.09462 24.38165,-0.0956 36.27539,-2.56836 a 14.0014,14.0014 0 0 0 0.002,0 c 11.54106,-2.40079 24.98278,-7.09026 34.82422,-18.50195 10.26105,-11.89848 9.47517,-25.83583 9.60156,-34.80469 0.0104,-0.74193 0.0968,-1.55613 0.11719,-2.30468 4.14107,5.276 9.19989,9.98126 15.52734,13.63671 13.68132,7.904 28.83128,6.19288 41.06836,-0.27539 2.10746,-1.11394 3.8249,-2.30582 5.27734,-3.51757 0.0707,0.11873 0.14452,0.25934 0.21485,0.37695 1.55292,2.59716 3.88038,6.551 8.20312,10.46094 4.32245,3.90967 13.4979,8.37879 22.46094,5.02539 4.42537,-1.65598 9.13044,-5.19471 11.54492,-9.93555 2.41449,-4.74084 2.38175,-9.40327 1.91406,-12.71289 -0.93538,-6.61923 -3.15963,-10.60052 -3.47851,-11.66016 -1.79739,-5.97447 -1.19824,-11.3104 -1.01367,-21.19336 v -0.002 c 0.32881,-17.58686 0.48067,-35.594194 0.16015,-53.347651 -0.11981,-6.630176 1.01781,-13.979393 1.47461,-23.029297 0.20147,-3.991852 -0.74449,-9.300313 -4.16016,-13.404297 -3.41566,-4.103984 -7.94608,-5.656313 -10.8496,-6.21875 -2.90352,-0.562436 -5.08565,-0.731702 -6.42188,-0.742187 z m -41.02344,53.279297 c 2.06791,0.579142 5.67579,1.380518 9.67383,2.226562 0.19456,0.04117 0.46763,0.05231 0.66797,0.09375 -1.37048,3.623728 -2.9253,7.507511 -4.54297,12.113281 -3.08091,8.773536 -6.70137,16.857206 -11.39648,23.617186 -0.83923,1.20789 -1.03896,1.47082 -1.80078,2.60156 -1.67804,-2.98035 -2.79522,-5.63625 -2.89649,-7.8125 -0.40004,-8.58716 0.30079,-16.50431 2.81445,-22.765621 0.3538,-0.881329 2.88693,-5.381722 5.32618,-8.236328 0.76356,-0.893585 1.51292,-1.430672 2.15429,-1.83789 z m -85.93359,6.867187 c -0.003,3.07873 0.0817,6.025725 0.0957,8.576172 0.0268,4.97213 0.1074,10.48563 -0.5039,14.4668 -0.61139,3.98167 -1.80949,4.85032 -0.97266,4.30468 -1.52798,0.99633 -6.4276,2.77555 -11.15625,3.23047 -4.72865,0.45492 -9.35401,-0.51854 -10.27539,-0.98437 -4.00676,-2.02597 -1.14279,1.36806 -2.56836,-3.29883 a 14.0014,14.0014 0 0 0 0,-0.002 c -0.9823,-3.21453 -1.19158,-4.45036 -1.17383,-4.10547 0.0177,0.34435 -0.33319,0.9976 0.53516,-0.9375 v -0.002 c 3.06786,-6.83205 8.06265,-9.92233 17.85156,-16.216802 a 14.0014,14.0014 0 0 0 0.002,-0.002 c 2.27276,-1.461894 5.12314,-3.137679 8.16602,-5.029297 z m 119.01953,14.705082 c -0.0542,7.13573 -0.12723,14.28063 -0.25977,21.36914 -0.0134,0.71936 -0.0255,1.60792 -0.0508,2.34765 a 14.0014,14.0014 0 0 0 -6.80468,-1.60742 c -0.92054,0.0256 -1.73122,0.22928 -2.58008,0.37305 3.59803,-6.72972 6.46233,-13.60667 8.82812,-20.34375 h -0.002 c 0.20747,-0.59071 0.62097,-1.51103 0.86914,-2.13867 z M 62.71875,121.38672 a 14.0014,14.0014 0 0 0 7.244141,1.5332 c -1.811635,5.33602 -3.155563,9.36979 -3.785157,9.90235 -0.683787,0.57837 -1.058102,1.01045 -1.65039,1.55468 -0.148434,-2.19001 -0.183576,-3.57123 -0.63086,-6.66992 l 0.002,0.002 c -0.312731,-2.16738 -0.801797,-4.19967 -1.179687,-6.32226 z m 262.11328,15.42383 c -0.17947,2.52741 -0.23784,5.19534 -0.39648,7.79492 a 14.0014,14.0014 0 0 0 -0.90625,-0.9668 c -0.28754,-0.1805 -1.752,-1.52801 -4.0625,-2.80859 0.43612,-0.26242 0.89584,-0.44987 1.32617,-0.73047 1.53524,-1.00103 2.83592,-2.12218 4.03906,-3.28906 z m -17.24805,1.69726 c -0.21806,0.0184 -0.27478,0.0489 -0.48632,0.0684 -0.0897,0.0114 -0.1655,0.003 -0.25586,0.0156 z"
       id="path3" />
    <path
       style="baseline-shift:baseline;display:inline;overflow:visible;vector-effect:none;stroke:none;enable-background:accumulate;stop-color:#000000;stop-opacity:1"
       d="M 15.004,4.799 C 18.83,2.115 23.421,0.994 28.017,0.61 c 3.721,-0.31 12.917,-1.786 15.06,1.409 3.044,4.542 3.326,11.016 3.933,16.294 0.732,6.366 1.898,12.617 2.455,19 1.042,11.948 5.548,22.88 8.922,34.266 3.688,12.443 6.574,25.102 9.928,37.636 6.041,-7.493 8.065,-17.296 12.02,-25.885 4.876,-10.598 9.16,-21.5 12.233,-32.765 1.27,-4.654 1.484,-9.623 2.965,-14.164 1.38,-4.23 4.25,-7.935 6.336,-11.837 3.4,-6.356 10.423,-16.793 17.575,-19.444 5.03,-1.864 9.668,-0.165 14.73,0.298 5.26,0.48 10.336,-1.206 15.548,-0.905 11.641,0.673 6.57,21.273 5.918,28.717 -2.036,23.24 -0.57,45.739 -0.403,68.959 0.082,11.312 -0.325,22.518 -0.722,33.809 -0.198,5.645 1.568,26.887 -6.095,27.937 -11.646,1.595 -10.775,-10.802 -10.88,-19.004 -0.154,-12.044 -0.862,-24.023 -1.03,-36.066 -0.323,-22.98 -0.908,-45.881 -1.664,-68.847 -0.173,-5.291 -0.664,-10.632 -2.446,-15.654 -3.854,0.565 -7.533,2.788 -9.569,6.149 -5.607,9.256 -7.673,20.368 -12.616,29.973 -7.587,19.793 -16.83,38.912 -24.165,58.807 -2.959,8.025 -4.05,18.484 -10.83,24.219 -4.079,3.45 -13.307,15.656 -18.804,9.944 -6.58,-6.838 -5.073,-14.728 -6.375,-23.748 -1.583,-10.971 -4.266,-21.74 -6.907,-32.492 -2.562,-10.433 -3.98,-21.488 -7.739,-31.548 -2.688,-7.193 -0.807,-18.952 -6.96,-24.373 -1.33,4.915 -1.335,10.036 -1.738,15.076 -0.51,6.378 -1.933,12.562 -2.19,18.992 -0.499,12.468 -1.4,24.95 -1.906,37.366 -0.492,12.096 -1.484,24.17 -1.67,36.278 C 13.757,155.486 2.923,146.27 1.236,139.099 -1.449,127.684 1.063,113.361 1.146,101.649 1.231,89.604 0.999,77.517 2.073,65.503 4.666,54.445 4.057,41.85 4.69,30.523 4.993,25.082 5.592,19.567 6.201,14.15 c 1.17,-4.41 5.338,-6.884 8.804,-9.351 7.827,-5.49 -3.473,2.473 0,0 z m 415.222,38.386 c 4.55,0.745 11.417,-1.408 11.062,5.626 -0.408,8.083 -1.638,15.798 -1.49,23.988 0.316,17.503 0.167,35.346 -0.16,52.835 -0.17,9.107 -1.069,16.605 1.604,25.49 1.74,5.782 6.815,14.059 -1.48,17.163 -6.052,2.265 -11.138,-5.205 -13.742,-9.56 -3.782,-6.325 -6.555,-11.191 -6.845,-18.62 -6.536,0.182 -10.748,13.156 -17.205,16.569 -8.053,4.257 -19.575,5.122 -27.524,0.529 -16.683,-9.638 -23.654,-32.227 -23.864,-50.523 -0.107,-9.26 -1.01,-21.303 3.824,-29.554 4.262,-7.276 11.733,-14.076 17.968,-19.704 6.7,-6.047 17.961,-7.753 26.571,-6.02 5.78,1.165 19.513,6.673 17.287,14.83 -2.989,10.95 -17.63,1.192 -24.912,1.388 -7.36,0.198 -16.458,13.388 -18.979,19.668 -3.63,9.042 -4.255,18.995 -3.806,28.633 0.413,8.875 5.531,16.32 10.753,23.272 7.883,10.496 15.147,-4.567 19.427,-10.727 5.73,-8.25 9.792,-17.521 13.108,-26.964 3.206,-9.128 8.34,-18.445 8.67,-28.23 0.18,-5.323 -0.889,-11.382 1.236,-16.357 2.117,-4.956 4.541,-9.958 8.497,-13.732 3.726,0.61 -4.525,4.318 0,0 z M 328.268,61.806 c 2.214,-6.314 5.851,-16.494 14.683,-11.146 3.717,2.25 0.236,10.847 0.212,14.499 -0.2,6.835 -1.142,13.538 -1.56,20.338 -0.719,11.666 -1.368,23.337 -1.76,35.019 -0.418,12.452 -1.867,24.83 -2.042,37.283 -0.138,9.793 0.612,17.953 -6.206,25.859 -6.656,7.718 -17.3,11.905 -27.073,13.938 -11.058,2.299 -20.909,3.292 -32.236,2.325 -5.673,-0.484 -11.322,-1.221 -16.96,-2 -5.047,-0.734 -9,0.694 -12.372,-4.046 -6.422,-9.027 7.88,-10.201 14.101,-9.984 10.546,0.368 20.291,3.175 30.803,1.5 7.985,-1.272 17.163,-3.558 22.177,-10.635 2.308,-3.257 3.006,-8.617 4.462,-12.386 0.851,-2.202 1.55,-4.492 1.588,-6.875 -2.219,-1.393 -4.478,-3.43 -7.322,-3.036 -4.7,0.397 -9.217,2.324 -13.99,1.947 -4.92,0.306 -9.68,-1.171 -14.463,-2.064 -9.605,-1.794 -18.019,-3.852 -25.226,-11.04 -13.23,-13.2 -10.9,-39.144 0.902,-52.852 5.982,-6.948 15.091,-13.775 22.876,-18.514 5.205,-3.167 10.905,-4.37 16.746,-5.813 5.058,-1.25 9.657,-4.795 13.9,-0.23 4.078,4.388 -1.53,7.695 -5.44,10.538 -4.123,2.997 -8.647,5.37 -12.927,8.123 -9.614,6.182 -18.166,11.377 -23.052,22.26 -2.763,6.156 -1.894,8.6 0.022,14.87 1.878,6.148 3.786,8.743 9.64,11.703 9.413,4.759 26.613,2.713 35.396,-3.014 8.61,-5.614 7.88,-21.278 7.83,-30.575 -0.035,-6.388 -0.417,-12.84 0.735,-19.161 1.482,-5.872 4.84,-11.04 6.556,-16.831 1.535,-4.376 -1.718,5.794 0,0 z"
       id="path4" />
  </g>
  <path
     style="baseline-shift:baseline;display:inline;overflow:visible;vector-effect:none;fill:#279eb4;stroke:none;stroke-width:28;stroke-linecap:round;stroke-linejoin:round;stroke-dasharray:none;stroke-opacity:1;paint-order:markers stroke fill;enable-background:accumulate;stop-color:#000000"
     d="m 210.03348,66.919363 c 7.36,-1.01 21.513,-2.876 27.212,2.882 6.168,6.23 9.848,13.067 8.646,21.854 -1.058,7.734 -4.568,15.453997 -10.982,20.173997 -7.557,5.562 -18.003,6.497 -26.616,9.763 -9.703,3.678 -12.007,9.273 -10.476,19.336 1.408,9.252 16.02,13.5 23.544,16.468 8.751,4.959 18.636,7.254 28.44,9.07 7.867,1.459 18.07,1.648 25.328,5.204 7.704,3.773 2.306,11.206 -3.775,12.59 -5.544,0.979 -11.168,0.189 -16.708,-0.371 -5.475,-0.554 -11.019,-0.042 -16.428,-1.144 -10.53,-2.145 -20.678,-5.874 -30.555,-10.04 -7.938,-3.347 -19.262,-6.313 -23.705,-14.346 -3.887,-7.03 -3.57,-15.943 -4.712,-23.696 -1.56,-10.583 -0.326,-22.016 -0.02,-32.684 0.29,-10.040997 3.386,-16.306997 12.21,-21.179997 3.483,-1.922 7.144,-3.755 9.881,-6.724 2.708,-2.576 4.92,-6.075 8.716,-7.155 6.591,-0.904 -3.794,1.08 0,0 z m 5.555,17.848 c -7.27,1.639 -12.414,2.545 -15.66,9.922 -1.36,3.087 -4.254,7.095997 -3.383,10.581997 0.824,3.296 6.88,0.9 9.81,0.409 6.57,-1.104 16.735,-2.756 19.31,-9.883997 1.154,-3.2 1.161,-6.743 0.562,-10.057 -0.654,-3.605 -7.653,-1.802 -10.639,-0.972 -4.676,1.054 3.33,-0.925 0,0 z m -70.466,115.987997 c -0.863,-9.464 17.696,-1.061 21.898,-0.494 11.38301,1.535 22.185,4.74 33.372,7.44 9.896,2.39 20.03,5.764 30.168,6.967 8.812,0.989 16.507,10.273 22.043,16.383 6.20001,6.839 9.52001,17.049 11.54301,26 1.18399,5.24 0.616,10.736 0.87,16.06 0.298,6.28 1.246,12.523 1.185,18.819 -0.087,8.924 0.104,21.297 -4.602,29.15 -5.065,8.45 -15.915,12.64 -24.129,17.255 -4.432,2.489 -9,5.246 -13.977,6.435 -5.1,1.219 -10.338,1.934 -15.296,3.699 -11.002,3.916 -22.195,8.776 -32.698,13.883 -9.117,4.433 -17.738,9.314 -27.13301,13.248 -11.566,5.286 -9.12999,-11.584 -7.69399,-17.925 4.005,-22.6 6.761,-45.461 10.99499,-68.005 1.7,-9.043 6.66,-19.004 4.3,-28.312 -1.21799,-4.796 -4.089,-8.216 -4.13999,-13.42 -0.042,-4.194 -0.108,-13.577 3.501,-15.708 8.011,-4.731 11.64,-1.591 16.387,5.592 4.002,6.057 6.69,13.069 7.107,20.356 -0.38,17.28 -3.442,34.793 -6.18,51.892 -1.239,7.727 -3.82401,15.365 -4.607,23.139 -0.39,3.88 0.051,7.179 5.12,5.656 4.295,-1.23 8.506,-2.738 12.654,-4.395 7.471,-2.984 14.737,-6.444 22.108,-9.662 7.676,-3.351 13.55,-9.343 20.876,-13.297 6.946,-3.75 10.243,-5.678 11.424,-13.53 1.1,-8.698 0.981,-17.482 1.038,-26.231 0.051,-7.847 -4.555,-12.871 -8.68,-19.195 -3.73,-5.72 -8.768,-13.184 -14.688,-16.884 -6.1,-3.811 -14.983,-5.708 -21.848,-7.803 -7.272,-2.22 -14.789,-3.598 -22.347,-4.396 -14.592,-1.543 -28.659,-5.183 -28.57,-22.717 -0.238,-2.608 -0.034,6.758 -1e-5,0 z m 261.10501,35.639 c 19.691,-6.981 42.656,0.208 55.958,16.168 1.601,3.413 -1.585,6.63 -4.686,7.475 -3.947,1.075 -7.773,-2.172 -10.79,-4.272 -7.56401,-5.27 -21.11,-9.977 -29.42201,-4.45 -15.75599,10.48 -26.78199,33.62 -21.136,52.32 5.784,19.16 20.89,39.804 43.475,31.248 4.661,-1.766 9.52101,-2.223 14.262,-3.695 4.892,-1.52 10.005,-2.513 15.147,-2.271 11.18401,0.526 -10.884,17.116 -14.046,18.804 -18.02999,9.625 -43.20999,8.4 -57.642,-6.58 -6.529,-6.777 -11.064,-12.55 -13.93299,-21.726 -3.11701,-9.972 -5.388,-20.595 -5.099,-31.061 0.493,-17.9 10.184,-44.264 27.91199,-51.96 7.663,-2.717 -5.495,2.385 10e-6,0 z m 72.202,4.561 c 1.247,-3.678 4.875,-5.648 8.481,-6.353 5.768,-1.127 4.718,4.268 4.432,8.744 -0.763,11.94 -0.662,22.622 2.142,34.236 1.135,4.7 0.895,9.562 2.115,14.202 1.294,4.92 7.662,1.595 11.294,0.239 4.248,-1.587 8.74399,-1.617 12.99699,-3.15 4.94601,-1.783 9.46001,-4.604 14.492,-6.168 7.87,-0.288 18.67,1.837 24.443,7.866 5.2,5.43 12.303,14.399 7.883,22.216 -1.78599,3.159 -4.96,5.257 -7.78999,7.383 -3.533,2.653 -2.53701,5.62 1.52599,7.736 3.856,2.205 6.997,5.388 10.081,8.533 2.598,2.648 8.544,6.072 8.66701,10.126 0.552,18.247 -40.91201,-9.586 -45.726,-11.674 -9.232,-4.005 -18.93,-8.464 -28.69,-10.992 -3.155,-0.817 -4.786,-2.25 -5.735,1.489 -0.626,2.464 -0.888,5.004 -0.99,7.539 -0.187,4.587 1.603,13.056 -1.288,16.893 -2.187,2.903 -6.165,3.475 -9.308,4.798 -3.156,-4.002 -4.309,-7.328 -4.352,-12.404 -0.1,-12.012 -0.05,-24.178 -1.692,-36.09 -1.526,-11.071 -2.436,-21.422 -2.706,-32.573 -0.259,-10.622 -5.729,-22.44 -0.276,-32.596 1.673,-4.934 -4.096,7.628 0,0 z m 46.30299,59.284 c -6.725,2.099 -13.58599,8.113 -4.33399,12.21 5.92499,2.625 15.227,2.558 21.53699,1.424 4.382,-2.046 12.674,-5.282 6.603,-10.91 -5.522,-5.117 -16.863,-3.443 -23.806,-2.724 -3.212,1.003 6.47,-0.67 0,0 z m -248.887,-49.775 c 8.37,0.157 16.25,-0.14 16.801,10.448 0.557,10.694 -1.036,21.243 -0.668,31.89 0.303,8.755 2.372,21.108 6.56,28.895 5.494,10.219 14.358,11.586 24.99,11.596 9.645,0.01 17.572,-3.868 21.964,-12.9 1.913,-4.386 2.28,-9.204 3.16001,-13.854 1.112,-5.892 2.87,-11.398 3.30599,-17.438 0.43401,-5.99 -2.464,-25.695 6.842,-24.518 11.785,1.49 8.82,16.563 6.954,24.78 -1.769,10.235 1.774,21.37 4.63,31.115 1.63,5.559 2.978,11.195 4.347,16.823 1.22,5.015 3.357,9.995 1.345,15.072 -1.229,3.1 -3.672,6.02 -7.002,6.906 -4.318,1.15 -6.363,-2.691 -8.158,-6.022 -1.869,-3.471 -3.39,-7.278 -6.336,-10.02 -5.59,0.178 -10.54,3.126 -15.563,5.23 -9.372,3.93 -18.447,6.224 -28.45,3.28 -9.293,-2.733 -20.304,-9.537 -25.332,-18.03 -10.947,-20.68 -6.764,-44.178 -8.432,-66.52 -0.419,-5.622 -0.96,-11.085 -0.958,-16.733 4.443,0.084 0,2.734 0,0 z"
     id="path6" />
</svg>
