<?xml version="1.0" encoding="UTF-8" standalone="no"?>
<svg
   width="662.578"
   height="163.98401"
   version="1.1"
   id="svg48"
   sodipodi:docname="model3.svg"
   inkscape:version="1.4.3 (0d15f75042, 2025-12-25)"
   xmlns:inkscape="http://www.inkscape.org/namespaces/inkscape"
   xmlns:sodipodi="http://sodipodi.sourceforge.net/DTD/sodipodi-0.dtd"
   xmlns:xlink="http://www.w3.org/1999/xlink"
   xmlns="http://www.w3.org/2000/svg"
   xmlns:svg="http://www.w3.org/2000/svg">
  <sodipodi:namedview
     id="namedview48"
     pagecolor="#a2a2a2"
     bordercolor="#000000"
     borderopacity="0.25"
     inkscape:showpageshadow="2"
     inkscape:pageopacity="0.0"
     inkscape:pagecheckerboard="0"
     inkscape:deskcolor="#d1d1d1"
     inkscape:zoom="0.69987232"
     inkscape:cx="102.16149"
     inkscape:cy="81.443427"
     inkscape:window-width="1920"
     inkscape:window-height="1080"
     inkscape:window-x="0"
     inkscape:window-y="0"
     inkscape:window-maximized="0"
     inkscape:current-layer="svg48" />
  <defs
     id="defs37">
    <linearGradient
       id="j">
      <stop
         style="stop-color:#18007b;stop-opacity:1"
         offset="0"
         id="stop1" />
      <stop
         style="stop-color:#18007b;stop-opacity:1"
         offset=".226"
         id="stop2" />
      <stop
         style="stop-color:#41abca;stop-opacity:1"
         offset=".681"
         id="stop3" />
      <stop
         style="stop-color:#41abca;stop-opacity:.97254902"
         offset="1"
         id="stop4" />
    </linearGradient>
    <linearGradient
       id="i">
      <stop
         style="stop-color:#000;stop-opacity:0"
         offset="0"
         id="stop5" />
      <stop
         style="stop-color:#000;stop-opacity:0"
         offset=".792"
         id="stop6" />
      <stop
         style="stop-color:#000;stop-opacity:1"
         offset=".892"
         id="stop7" />
      <stop
         style="stop-color:#000;stop-opacity:1"
         offset="1"
         id="stop8" />
    </linearGradient>
    <linearGradient
       id="h">
      <stop
         style="stop-color:#000;stop-opacity:0"
         offset="0"
         id="stop9" />
      <stop
         style="stop-color:#000;stop-opacity:1"
         offset=".945"
         id="stop10" />
      <stop
         style="stop-color:#000;stop-opacity:1"
         offset="1"
         id="stop11" />
    </linearGradient>
    <linearGradient
       id="g">
      <stop
         style="stop-color:#000;stop-opacity:0"
         offset="0"
         id="stop12" />
      <stop
         style="stop-color:#000;stop-opacity:1"
         offset=".393"
         id="stop13" />
      <stop
         style="stop-color:#000;stop-opacity:1"
         offset="1"
         id="stop14" />
    </linearGradient>
    <linearGradient
       id="f">
      <stop
         style="stop-color:#000;stop-opacity:1"
         offset="0"
         id="stop15" />
      <stop
         style="stop-color:#18007b;stop-opacity:0"
         offset="1"
         id="stop16" />
    </linearGradient>
    <linearGradient
       id="e">
      <stop
         style="stop-color:#000;stop-opacity:1"
         offset="0"
         id="stop17" />
      <stop
         style="stop-color:#000;stop-opacity:1"
         offset=".051"
         id="stop18" />
      <stop
         style="stop-color:#000;stop-opacity:0"
         offset=".114"
         id="stop19" />
      <stop
         style="stop-color:#000;stop-opacity:0"
         offset="1"
         id="stop20" />
    </linearGradient>
    <linearGradient
       id="d">
      <stop
         style="stop-color:#000;stop-opacity:1"
         offset="0"
         id="stop21" />
      <stop
         style="stop-color:#000;stop-opacity:1"
         offset=".051"
         id="stop22" />
      <stop
         style="stop-color:#000;stop-opacity:0"
         offset="1"
         id="stop23" />
    </linearGradient>
    <linearGradient
       id="c">
      <stop
         style="stop-color:#f0f;stop-opacity:0"
         offset="0"
         id="stop24" />
      <stop
         style="stop-color:#000;stop-opacity:1"
         offset=".964"
         id="stop25" />
      <stop
         style="stop-color:#000;stop-opacity:1"
         offset="1"
         id="stop26" />
    </linearGradient>
    <linearGradient
       id="b">
      <stop
         style="stop-color:#f0f;stop-opacity:0"
         offset="0"
         id="stop27" />
      <stop
         style="stop-color:#000;stop-opacity:1"
         offset="1"
         id="stop28" />
    </linearGradient>
    <linearGradient
       id="a">
      <stop
         style="stop-color:#fff;stop-opacity:1"
         offset="0"
         id="stop29" />
      <stop
         style="stop-color:#000;stop-opacity:1"
         offset="1"
         id="stop30" />
    </linearGradient>
    <linearGradient
       xlink:href="#h"
       id="k"
       gradientUnits="userSpaceOnUse"
       gradientTransform="matrix(1.1846,0,0,1,-100.273,0)"
       x1="497.75601"
       y1="139.91"
       x2="543.15997"
       y2="139.91" />
    <linearGradient
       xlink:href="#i"
       id="l"
       gradientUnits="userSpaceOnUse"
       gradientTransform="matrix(1.1846,0,0,1,-1140.869,0)"
       x1="497.75601"
       y1="139.91"
       x2="543.15997"
       y2="139.91" />
    <linearGradient
       xlink:href="#j"
       id="s"
       x1="324.91699"
       y1="158.96899"
       x2="324.91699"
       y2="33.803001"
       gradientUnits="userSpaceOnUse" />
    <linearGradient
       xlink:href="#a"
       id="n"
       gradientUnits="userSpaceOnUse"
       x1="573.58002"
       y1="47.141998"
       x2="573.58002"
       y2="157.19701" />
    <linearGradient
       xlink:href="#a"
       id="p"
       gradientUnits="userSpaceOnUse"
       x1="574.42401"
       y1="54.683998"
       x2="574.42401"
       y2="146.435" />
    <linearGradient
       xlink:href="#a"
       id="q"
       gradientUnits="userSpaceOnUse"
       x1="574.42401"
       y1="54.683998"
       x2="574.42401"
       y2="146.435" />
    <linearGradient
       xlink:href="#a"
       id="r"
       gradientUnits="userSpaceOnUse"
       x1="574.42401"
       y1="54.683998"
       x2="574.42401"
       y2="146.435" />
    <linearGradient
       xlink:href="#j"
       id="u"
       gradientUnits="userSpaceOnUse"
       x1="324.91699"
       y1="158.96899"
       x2="324.91699"
       y2="33.803001" />
    <linearGradient
       xlink:href="#j"
       id="v"
       gradientUnits="userSpaceOnUse"
       x1="324.91699"
       y1="158.96899"
       x2="324.91699"
       y2="33.803001" />
    <linearGradient
       xlink:href="#j"
       id="w"
       gradientUnits="userSpaceOnUse"
       x1="324.91699"
       y1="158.96899"
       x2="324.91699"
       y2="33.803001" />
    <linearGradient
       xlink:href="#j"
       id="x"
       gradientUnits="userSpaceOnUse"
       x1="324.91699"
       y1="158.96899"
       x2="324.91699"
       y2="33.803001" />
    <linearGradient
       xlink:href="#j"
       id="y"
       gradientUnits="userSpaceOnUse"
       x1="324.91699"
       y1="158.96899"
       x2="324.91699"
       y2="33.803001" />
    <linearGradient
       xlink:href="#j"
       id="z"
       gradientUnits="userSpaceOnUse"
       x1="324.91699"
       y1="158.96899"
       x2="324.91699"
       y2="33.803001" />
    <mask
       maskUnits="userSpaceOnUse"
       id="A">
      <path
         style="fill:#ffffff;fill-opacity:1"
         d="m 455.293,32.494 h 88.494 v 126.53 h -88.494 z"
         id="path30" />
      <path
         style="display:inline;opacity:0.97;fill:url(#k);fill-opacity:1;stroke:none;stroke-width:2;stroke-linecap:square;stroke-linejoin:round;stroke-opacity:0.565493"
         d="m 497.378,119.503 h 45.839 v 38.67 h -45.839 z"
         id="path31" />
    </mask>
    <mask
       maskUnits="userSpaceOnUse"
       id="o">
      <path
         style="fill:#ffffff;fill-opacity:1"
         d="M 502.817,31.99 H 634.092 V 159.731 H 502.817 Z"
         id="path32" />
      <path
         style="display:inline;opacity:0.97;fill:url(#l);fill-opacity:1;stroke:none;stroke-width:2;stroke-linecap:square;stroke-linejoin:round;stroke-opacity:0.565493"
         transform="scale(-1,1)"
         d="m -543.217,119.503 h 45.839 v 38.67 h -45.839 z"
         id="path33" />
    </mask>
    <mask
       maskUnits="userSpaceOnUse"
       id="t">
      <path
         style="fill:#ffffff;fill-opacity:1"
         d="m 1.932,25.294 h 552.055 v 143.93 H 1.932 Z"
         id="path34" />
      <path
         style="fill:#ffffff;fill-opacity:1"
         d="m 455.293,32.494 h 88.494 v 126.53 h -88.494 z"
         id="path35" />
      <path
         style="display:inline;opacity:0.97;fill:url(#k);fill-opacity:1;stroke:none;stroke-width:2;stroke-linecap:square;stroke-linejoin:round;stroke-opacity:0.565493"
         d="m 497.378,119.503 h 45.839 v 38.67 h -45.839 z"
         id="path36" />
    </mask>
    <filter
       style="color-interpolation-filters:sRGB"
       id="m"
       x="-0.0054161062"
       y="-0.024091532"
       width="1.0108322"
       height="1.0481831">
      <feGaussianBlur
         in="SourceGraphic"
         stdDeviation="1.408"
         result="blur"
         id="feGaussianBlur36" />
      <feDiffuseLighting
         surfaceScale="10"
         lighting-color="#ffffff"
         result="diffuse"
         id="feDiffuseLighting36">
        <feDistantLight
           elevation="35"
           azimuth="236"
           id="feDistantLight36" />
      </feDiffuseLighting>
      <feComposite
         in="diffuse"
         in2="diffuse"
         operator="arithmetic"
         k1="1"
         result="composite1"
         id="feComposite36"
         k2="0"
         k3="0"
         k4="0" />
      <feComposite
         in="composite1"
         in2="SourceGraphic"
         k1="1"
         operator="arithmetic"
         k3="1"
         result="composite2"
         id="feComposite37"
         k2="0"
         k4="0" />
    </filter>
    <filter
       style="color-interpolation-filters:sRGB"
       id="m-0"
       x="-0.0052482842"
       y="-0.021088601"
       width="1.0104966"
       height="1.0421772">
      <feGaussianBlur
         in="SourceGraphic"
         stdDeviation="1.408"
         result="blur"
         id="feGaussianBlur36-6" />
      <feDiffuseLighting
         surfaceScale="10"
         lighting-color="#ffffff"
         result="diffuse"
         id="feDiffuseLighting36-2">
        <feDistantLight
           elevation="35"
           azimuth="236"
           id="feDistantLight36-6" />
      </feDiffuseLighting>
      <feComposite
         in="diffuse"
         in2="diffuse"
         operator="arithmetic"
         k1="1"
         result="composite1"
         id="feComposite36-1"
         k2="0"
         k3="0"
         k4="0" />
      <feComposite
         in="composite1"
         in2="SourceGraphic"
         k1="1"
         operator="arithmetic"
         k3="1"
         result="composite2"
         id="feComposite37-8"
         k2="0"
         k4="0" />
    </filter>
  </defs>
  <path
     style="font-size:129.275px;line-height:1.25;font-family:'SEGA LOGO FONT';-inkscape-font-specification:'SEGA LOGO FONT';baseline-shift:baseline;display:inline;overflow:visible;vector-effect:none;fill:#ffffff;stroke:none;stroke-width:20;stroke-linecap:round;stroke-linejoin:round;stroke-dasharray:none;stroke-opacity:1;paint-order:markers stroke fill;filter:url(#m-0);enable-background:accumulate;stop-color:#000000"
     d="m 498.39062,17.501953 c -0.38684,0 -3.6364,0.101897 -7.26171,1.203125 -0.97126,-0.244458 -1.90931,-0.612286 -2.91993,-0.671875 a 10.001,10.001 0 0 0 -0.58789,-0.01758 h -17.71093 a 10.001,10.001 0 0 0 -1.83008,0.169922 c -0.16978,0.03162 -0.32572,0.109477 -0.49414,0.146484 -0.16776,-0.03696 -0.32308,-0.114869 -0.49219,-0.146484 a 10.001,10.001 0 0 0 -1.83789,-0.169922 H 448.0625 a 10.001,10.001 0 0 0 -1.42773,0.103516 c -0.46601,0.06727 -0.89525,0.263793 -1.35157,0.371093 -0.45631,-0.1073 -0.88556,-0.303823 -1.35156,-0.371093 a 10.001,10.001 0 0 0 -1.42773,-0.103516 h -48.9961 c -7.04434,0 -13.96644,1.614068 -20.3457,4.601562 -5.88988,2.716895 -11.16785,6.552382 -15.72852,11.195313 -0.53798,-0.652715 -1.02071,-1.339599 -1.60742,-1.960938 a 10.001,10.001 0 0 0 -0.002,-0.002 c -4.99879,-5.290614 -11.35088,-8.969085 -18.23242,-11.05664 -6.47812,-1.991138 -13.42856,-2.777344 -20.87305,-2.777344 h -49.77148 c -5.04974,0 -9.5683,2.472696 -12.53711,6.207031 -2.58297,-1.38881 -5.27443,-2.575643 -8.08985,-3.429687 -6.47682,-1.990869 -13.42534,-2.777344 -20.86914,-2.777344 H 208.9043 c -7.38317,0 -14.30528,0.793294 -20.76368,2.78125 -6.8019,2.092422 -13.05541,5.744967 -18.05273,10.884766 a 10.001,10.001 0 0 0 -0.16016,0.167968 c -0.002,0.0024 -0.004,0.0054 -0.006,0.0078 a 10.001,10.001 0 0 0 -0.0117,0.01172 c -4.96898,5.267324 -8.29095,11.73051 -10.32032,18.654296 l -0.0176,0.05859 a 10.001,10.001 0 0 0 -0.0352,0.119141 c -0.27978,0.996782 -0.36639,2.102632 -0.59766,3.125 l -3.86133,-10.894531 0.0605,0.177734 c -1.12248,-3.367444 -2.77615,-6.433807 -4.74609,-9.1875 -2.04496,-3.045424 -4.57244,-5.735043 -7.48047,-7.970703 -3.25668,-2.667835 -6.93728,-4.612486 -10.77734,-5.904297 -4.1988,-1.442665 -8.53314,-2.03125 -12.81836,-2.03125 -4.32963,0 -8.75757,0.559451 -13.07618,2.113281 a 10.001,10.001 0 0 0 -0.002,0.002 c -3.8044,1.369309 -7.406223,3.376155 -10.578124,6.041016 -0.0021,0.0018 -0.0037,0.0041 -0.0059,0.0059 -0.0018,0.0015 -0.004,0.0024 -0.0059,0.0039 -0.275846,0.23135 -0.508184,0.507441 -0.777343,0.746093 -0.3223,-0.278823 -0.600133,-0.603968 -0.933213,-0.871109 -3.116517,-2.587255 -6.647639,-4.572572 -10.40625,-5.925782 -4.323377,-1.556473 -8.754327,-2.115234 -13.082031,-2.115234 -4.337322,0 -8.740621,0.567045 -13.021485,2.048828 -3.82698,1.323863 -7.461578,3.264746 -10.691406,5.839844 -2.920534,2.31193 -5.447499,5.0789 -7.496094,8.189453 -1.810563,2.661901 -3.30576,5.525226 -4.443359,8.537109 a 10.001,10.001 0 0 0 -0.07227,0.19336 L -5.2226562,155.55273 a 10.001,10.001 0 0 0 0,0.002 c -3.607585,10.1834 4.36756488,21.46679 15.1699218,21.46679 H 27.142578 a 10.001,10.001 0 0 0 0.582031,-0.0176 c 0.617683,-0.036 1.20437,-0.22983 1.810547,-0.33594 a 10.001,10.001 0 0 0 2.261719,0.35351 h 17.193359 a 10.001,10.001 0 0 0 0.002,0 c 6.908174,-0.001 13.121424,-4.49737 15.283204,-11.05859 l 7.158203,-21.73437 8.380859,22.3496 a 10.001,10.001 0 0 0 0.002,0.002 c 2.440972,6.5035 8.983426,10.4375 15.066406,10.4375 6.082974,0 12.624464,-3.93277 15.066404,-10.43555 a 10.001,10.001 0 0 0 0.002,-0.004 l 8.60742,-22.95117 7.62305,22.47071 c 2.20325,6.4937 8.38099,10.92283 15.23828,10.92382 a 10.001,10.001 0 0 0 0.002,0 h 16.54688 a 10.001,10.001 0 0 0 0.125,-0.002 c 0.84137,-0.0104 1.66344,-0.17198 2.48828,-0.3125 0.2429,0.0443 0.45607,0.19149 0.70117,0.22461 a 10.001,10.001 0 0 0 1.33985,0.0898 h 17.19336 a 10.001,10.001 0 0 0 0.13281,-0.002 c 3.15345,-0.0419 6.02873,-1.18891 8.53906,-2.85547 6.37796,2.00118 13.18413,2.85742 20.41602,2.85742 h 16.54687 c 7.51365,0 14.56166,-0.84605 21.12305,-2.98632 2.68302,-0.86389 5.24681,-2.03177 7.7168,-3.36914 2.96435,3.81887 7.53793,6.35462 12.65429,6.35546 a 10.001,10.001 0 0 0 0.002,0 h 49.77148 c 7.51365,0 14.56283,-0.8462 21.125,-2.98632 6.78081,-2.18331 13.03217,-5.86681 17.98047,-11.10547 a 10.001,10.001 0 0 0 0.0976,-0.10352 l 0.0527,-0.0566 0.002,-0.004 c 0.45819,-0.49866 0.8316,-1.04888 1.25977,-1.5664 4.60979,4.66387 9.97136,8.52067 15.89453,11.33984 a 10.001,10.001 0 0 0 0.18555,0.0859 c 6.36314,2.87024 13.22649,4.39648 20.1914,4.39648 h 48.9961 c 6.07145,0 11.38604,-3.54896 14.12109,-8.61914 2.25393,1.50374 4.54036,2.96738 6.99609,4.13672 a 10.001,10.001 0 0 0 0.1875,0.0859 c 6.36315,2.87024 13.2265,4.39648 20.19141,4.39648 h 48.99609 a 10.001,10.001 0 0 0 3.66602,-0.69726 l -1.80274,0.71094 49.84766,0.70312 a 10.001,10.001 0 0 0 0.14258,0.002 h 0.1543 a 10.001,10.001 0 0 0 0.11328,0 c 16.81998,-0.18946 30.44829,-8.15581 39.1875,-18.02539 8.53454,-9.63828 13.46094,-21.08857 13.46093,-32.48828 V 71.28125 c 0,-12.002361 -4.70456,-24.209326 -12.98632,-34.470703 -8.44191,-10.457673 -21.83783,-19.193465 -38.42188,-19.197266 a 10.001,10.001 0 0 0 -0.002,0 h -0.002 l -87.94336,-0.109375 a 10.001,10.001 0 0 0 -0.0117,0 10.001,10.001 0 0 0 -0.004,0 10.001,10.001 0 0 0 -0.004,-0.002 z m -397.41601,16.164063 0.26172,0.378906 c -0.0416,-0.06287 -0.0967,-0.115152 -0.13867,-0.177735 -0.0655,-0.09215 -0.0542,-0.106823 -0.12305,-0.201171 z m 383.69336,3.353515 a 10.001,10.001 0 0 0 2.5918,0.984375 l -0.22657,-0.0059 c -0.87378,-0.05152 -1.71078,-0.397278 -2.36523,-0.978516 z m -45.375,0.15625 a 10.001,10.001 0 0 0 2.33984,0.777344 l -0.55859,-0.03906 c -0.64595,-0.09325 -1.25868,-0.347309 -1.78125,-0.738281 z m 11.98047,0 c -0.52257,0.390972 -1.13531,0.645035 -1.78125,0.738281 l -0.5586,0.03906 a 10.001,10.001 0 0 0 2.33985,-0.777344 z m 10.65429,0.05273 a 10.001,10.001 0 0 0 2.20508,0.683593 l -0.71484,-0.06641 c -0.53439,-0.0999 -1.04184,-0.309781 -1.49024,-0.617187 z m 11.30664,0 c -0.44896,0.307652 -0.95712,0.519493 -1.49218,0.61914 l -0.71875,0.06641 a 10.001,10.001 0 0 0 2.21093,-0.685546 z m 23.73633,0.166015 c 0.18637,0.06236 0.59571,0.107064 1.41407,0.107422 a 10.001,10.001 0 0 0 0.006,0.002 h 0.002 l 87.9414,0.109375 a 10.001,10.001 0 0 0 0.0137,0 h 0.008 c 9.59502,0.0029 17.39962,4.993913 22.86133,11.759766 5.62424,6.968622 8.54882,15.402564 8.54882,21.908203 V 127.2266 c 0,5.32229 -2.69413,12.74875 -8.43359,19.23047 -5.53208,6.24763 -13.73948,11.16147 -24.4375,11.2832 l -51.72461,-0.73046 a 10.001,10.001 0 0 0 -3.80664,0.69335 l 1.73438,-0.68164 H 484 c -4.04022,0 -8.00601,-0.86635 -11.87305,-2.5957 -3.87831,-1.86071 -7.39593,-4.39053 -10.39453,-7.47461 -1.57544,-1.71202 -3.06396,-3.81511 -4.51758,-6.2832 a 10.001,10.001 0 0 0 -18.61718,5.07422 v 11.27929 h -45.08985 c -4.04022,0 -8.00601,-0.86635 -11.87304,-2.5957 -3.86341,-1.85273 -7.37322,-4.36424 -10.36524,-7.43164 -2.30296,-2.49131 -4.30622,-5.61386 -6.07617,-9.28516 a 10.001,10.001 0 0 0 -18.58984,1.47852 c -1.26204,4.22041 -3.07177,7.55068 -5.33985,10.02539 -2.4062,2.5402 -5.58597,4.51079 -9.5625,5.78906 a 10.001,10.001 0 0 0 -0.0449,0.0156 c -3.99338,1.30441 -8.93983,2.0039 -14.9375,2.0039 h -45.86523 v -5.76367 a 10.001,10.001 0 0 0 -18.4961,-5.27539 c -0.83713,1.34836 -1.62305,2.42293 -2.35937,3.22852 -2.40658,2.54126 -5.58746,4.51196 -9.56641,5.79101 a 10.001,10.001 0 0 0 -0.0449,0.0156 c -3.99216,1.30425 -8.93788,2.0039 -14.93555,2.0039 H 208.9043 c -5.91002,0 -10.82087,-0.69927 -14.81641,-2.00586 -0.76528,-0.25019 -1.95837,-0.84514 -3.7793,-1.7871 a 10.001,10.001 0 0 0 -12.66797,3.79296 h -14.38085 a 10.001,10.001 0 0 0 -5.33008,0 10.001,10.001 0 0 0 -1.7793,0.41016 c 0.52656,-0.26258 1.10696,-0.40286 1.69531,-0.41016 h -13.62304 l -15.72461,-46.34375 a 10.001,10.001 0 0 0 -18.83203,-0.29882 L 94.882812,149.79883 80.185547,110.60742 a 10.001,10.001 0 0 0 -18.861328,0.38281 L 46.164062,157.02148 H 32.988281 a 10.001,10.001 0 0 0 -5.990234,0 H 15.474609 L 51.576172,55.146484 a 10.001,10.001 0 0 0 -0.132813,0.808594 c 7.02e-4,-0.0039 0.09468,-0.535384 0.152344,-0.861328 l 0.175781,-0.498047 c -0.138235,0.571118 -0.326144,1.350973 -0.328125,1.359375 a 10.001,10.001 0 0 0 -0.002,0.0078 c -4e-6,1.6e-5 -0.002,0.0059 -0.002,0.0059 a 10.001,10.001 0 0 0 18.667969,4.267578 c 0.101813,-0.05989 0.11585,-0.06667 0.246094,-0.142578 0.03513,0.0227 0.04131,0.02752 0.07422,0.04883 -0.0041,0.01676 -0.02234,0.09284 -0.02539,0.105469 0.02242,-0.04423 0.02542,-0.04946 0.04687,-0.0918 0.901064,0.583648 0.934144,0.598346 0.01953,-0.03906 0.0018,-0.0035 0.0021,-0.0043 0.0039,-0.0078 l 0.185547,0.111328 a 10.001,10.001 0 0 0 1.335938,0.208984 L 70.49599,60.066448 c 0.0171,-0.03373 0.02313,-0.0467 0.03906,-0.07813 2.408457,-1.290022 2.503101,-1.310022 0.01953,-0.04102 7.62e-4,-0.0015 0.0012,-0.0024 0.002,-0.0039 l 0.09961,-0.05469 a 10.001,10.001 0 0 0 4.484375,-7.898438 l 4.146484,-6.375 -4.234375,15.291016 a 10.001,10.001 0 0 0 6.507813,-17.4375 c -1.633996,-1.150701 -1.063578,-0.693259 -0.634766,-0.371094 l 0.01953,-0.0293 -0.816406,-0.490234 -0.0098,0.03711 c 1.811533,0.984398 2.19836,1.065112 -0.558594,-0.353515 a 10.001,10.001 0 0 0 -4.574219,-1.107422 h -0.002 a 10.001,10.001 0 0 0 -4.369141,2.02539 10.001,10.001 0 0 0 -9.367187,-0.935546 c -2.81971,1.436455 -2.246975,1.214814 -0.316406,0.197265 l -0.01172,-0.02148 -0.50586,0.28125 0.01172,0.01953 c 0.354311,-0.237207 0.953607,-0.64587 -0.474609,0.253906 a 10.001,10.001 0 0 0 -3.007813,4.212891 10.001,10.001 0 0 0 -4.15625,4.542969 l 0.521485,-1.46875 c -0.205105,0.307477 -0.292004,0.425869 -0.439453,0.65039 0.08988,-0.177349 0.251986,-0.49419 0.251953,-0.49414 -9.6e-5,1.43e-4 0.118226,-0.160027 0.246093,-0.326172 L 53.511719,49.6875 c 0.586995,-1.551548 1.356158,-3.027419 2.292968,-4.396484 a 10.001,10.001 0 0 0 0.111329,-0.169922 c 0.882318,-1.347177 1.977062,-2.542134 3.240234,-3.541016 a 10.001,10.001 0 0 0 0.03711,-0.03125 c 1.344933,-1.074302 2.94355,-1.951207 4.773438,-2.583984 a 10.001,10.001 0 0 0 0.0039,0 c 1.757137,-0.608217 3.883837,-0.949219 6.478516,-0.949219 2.604296,0 4.658018,0.338114 6.30664,0.931641 1.699097,0.611724 3.193595,1.469653 4.449219,2.519531 a 10.001,10.001 0 0 0 0.185547,0.15039 c 1.229177,0.978734 2.295648,2.146292 3.162109,3.457032 a 10.001,10.001 0 0 0 0.263672,0.376953 c 0.104608,0.143423 0.550728,0.957284 1.425781,2.453125 a 10.001,10.001 0 0 0 17.244138,0.03125 c 0.78276,-1.326821 1.28994,-2.235602 1.58398,-2.669922 0.97452,-1.400803 2.12954,-2.669514 3.4375,-3.765625 a 10.001,10.001 0 0 0 0.0117,-0.0098 c 1.25061,-1.051679 2.76046,-1.918087 4.49024,-2.541015 1.6514,-0.59417 3.70427,-0.933594 6.30664,-0.933594 2.47764,0 4.56696,0.338154 6.33398,0.947266 a 10.001,10.001 0 0 0 0.084,0.02734 c 1.84722,0.618518 3.36301,1.460528 4.57226,2.464844 a 10.001,10.001 0 0 0 0.35156,0.277344 c 1.24518,0.943318 2.32192,2.090867 3.18555,3.392578 a 10.001,10.001 0 0 0 0.23438,0.337891 c 0.95758,1.321875 1.65125,2.660774 2.08789,3.970703 a 10.001,10.001 0 0 0 0.0605,0.177734 l 0.6875,1.943359 a 10.001,10.001 0 0 0 -4.04492,-4.302734 10.001,10.001 0 0 0 -3.07616,-4.291016 c -1.34924,-0.844975 -0.70484,-0.420042 -0.43555,-0.234375 l 0.01,-0.01758 -0.5039,-0.28125 -0.01,0.01758 c 0.84916,0.424177 1.94868,0.938211 -0.4004,-0.236328 a 10.001,10.001 0 0 0 -9.51171,1.126953 10.001,10.001 0 0 0 -9.73047,-0.599609 c -0.0208,0.01249 -0.0107,0.0072 -0.0312,0.01953 -0.1068,0.06409 -0.0658,0.04062 -0.16406,0.09961 l -0.041,0.02344 c -1.97355,1.185552 -1.97031,1.19382 -0.32422,0.208985 a 10.001,10.001 0 0 0 10.61133,16.914062 c 0.44017,0.254896 0.54531,0.318665 0.73242,0.429688 a 10.001,10.001 0 0 0 17.90039,-6.111329 l 19.55078,55.169923 a 10.001,10.001 0 0 0 19.42578,-3.33984 V 73.150391 c 0,-6.902406 0.66834,-12.549615 1.91602,-17.009766 1.32127,-4.503733 3.24795,-7.971269 5.66601,-10.537109 2.50481,-2.568255 5.69861,-4.501214 9.56836,-5.691407 a 10.001,10.001 0 0 0 0.002,0 c 4.01561,-1.236043 8.95202,-1.896484 14.88086,-1.896484 h 16.54687 c 6.01922,0 10.99048,0.660349 15.00195,1.894531 a 10.001,10.001 0 0 0 0.0449,0.01367 c 3.95495,1.19677 7.12739,3.125157 9.51953,5.658203 a 10.001,10.001 0 0 0 0,0.002 c 0.72182,0.763995 1.50952,1.82222 2.35156,3.171875 a 10.001,10.001 0 0 0 18.48438,-5.292968 V 38.01567 h 45.86523 c 6.01838,0 10.9915,0.660539 15.00391,1.894531 5.5e-4,1.71e-4 10e-4,-1.71e-4 0.002,0 a 10.001,10.001 0 0 0 0.0488,0.01563 c 3.95041,1.195837 7.11878,3.123502 9.51367,5.658203 2.28577,2.421396 4.11479,5.770294 5.37305,10.126953 a 10.001,10.001 0 0 0 18.61914,1.560547 c 1.76521,-3.670523 3.74116,-6.736519 5.97265,-9.08789 a 10.001,10.001 0 0 0 0.008,-0.0059 c 3.01836,-3.173234 6.45213,-5.637234 10.29101,-7.40625 a 10.001,10.001 0 0 0 0.0645,-0.03125 c 3.886,-1.824654 7.85991,-2.724609 11.89258,-2.724609 h 48.31055 a 10.001,10.001 0 0 0 6.92969,0 h 15.71875 a 10.001,10.001 0 0 0 6.22656,0 h 16.59375 a 10.001,10.001 0 0 0 9.68359,-0.621094 z M 238.72461,42.279297 A 10.001,10.001 0 0 0 231.10547,60.75 l 3.73828,-8.388672 -3.48828,8.511719 c -0.34056,-0.134938 0.25775,0.103668 0.0234,0.01172 l 0.0625,0.02734 a 10.001,10.001 0 0 0 8.13867,-18.265625 c -2.32664,-1.089067 -2.06652,-0.901149 -0.34961,-0.136718 l 0.008,-0.01563 -0.30078,-0.126954 -0.008,0.01758 a 10.001,10.001 0 0 0 -0.0566,-0.02344 c 2.22782,0.882721 2.18538,0.842689 -0.14844,-0.08203 z m 91.26953,0 a 10.001,10.001 0 0 0 -7.61719,18.46875 l 3.75977,-8.441406 -3.50977,8.566406 c -0.40124,-0.158983 0.2811,0.113014 0.0273,0.01367 l 0.0566,0.02539 a 10.001,10.001 0 0 0 8.13867,-18.265625 c -2.32565,-1.088601 -2.06209,-0.900113 -0.34766,-0.136718 l 0.006,-0.01563 -0.29883,-0.126954 -0.008,0.01758 a 10.001,10.001 0 0 0 -0.0566,-0.02344 c 2.22782,0.882721 2.18343,0.842689 -0.15039,-0.08203 z m -127.32812,0.02344 a 10.001,10.001 0 0 0 -7.52344,0.134766 l 0.18164,-0.07813 c 1.76998,-0.707994 1.39469,-0.587874 -0.20508,0.07813 a 10.001,10.001 0 0 0 -0.004,0 c -0.14514,0.06054 0.15467,-0.06471 -0.0176,0.0078 l -0.10352,0.04492 a 10.001,10.001 0 0 0 -0.0176,0.01758 l 0.125,-0.05273 5.59375,13.078125 -5.85937,-12.876953 a 10.001,10.001 0 0 0 8.02343,18.222656 c -2.13509,0.898988 -2.10176,0.84852 -0.10742,0.05078 a 10.001,10.001 0 0 0 0.42383,-0.18164 c 1.70556,-0.775252 1.82603,-0.874838 0.22266,-0.111328 A 10.001,10.001 0 0 0 202.66602,42.302734 Z M 52.474609,51.693359 c -0.01522,0.0628 -0.08864,0.363501 -0.125,0.513672 a 10.001,10.001 0 0 0 -0.300781,0.330078 c 2e-6,-8e-6 0,-0.0039 0,-0.0039 -3.2e-5,8.9e-5 0.221901,-0.437568 0.425781,-0.839844 z m -0.4375,0.902344 0.210938,0.03711 c -0.01329,0.0549 -0.02099,0.08015 -0.03516,0.138672 l -0.19336,-0.06836 c 0.0018,-0.01008 0.0169,-0.103586 0.01758,-0.107422 z m 0.417969,0.07227 3.771484,0.65625 a 10.001,10.001 0 0 0 0.136719,0.896484 l -3.966797,-1.386719 z m 84.572262,0.490234 -3.66015,1.287109 a 10.001,10.001 0 0 0 0.0371,-0.24414 z m -65.96484,5.099609 -0.140625,0.847657 a 10.001,10.001 0 0 0 -0.0098,-0.140625 c 0.02536,-0.143344 0.06522,-0.371569 0.115235,-0.654297 z m 47.71289,0.152344 0.0449,0.07227 a 10.001,10.001 0 0 0 -0.0195,0.24414 l -0.15625,-0.261718 c -0.001,-0.0054 -0.004,-0.01024 -0.006,-0.01563 z m 0.62891,1.316406 a 10.001,10.001 0 0 0 0.12109,0.144532 10.001,10.001 0 0 0 0,0.002 10.001,10.001 0 0 0 0.006,0.0078 c 0.1327,-0.08238 -0.16781,0.105068 -0.01,0.0078 0.007,-0.0042 0.005,-0.0017 0.0117,-0.0059 a 10.001,10.001 0 0 0 0.0566,0.06445 l -0.0801,0.15039 c -0.13292,-0.06646 -0.0761,-0.04058 -0.19727,-0.101562 -0.001,-7.24e-4 -5.2e-4,-0.0012 -0.002,-0.002 a 10.001,10.001 0 0 0 0.0156,-0.002 L 119.5,59.886719 Z m -48.882816,0.01367 0.0039,0.0059 c -0.01684,0.06957 -0.04614,0.190714 -0.05859,0.242187 -0.03351,0.02101 -0.02472,0.01322 -0.05664,0.0332 -0.0143,0.0073 -0.007,0.0044 -0.02148,0.01172 -0.05354,-0.02756 -0.02685,-0.01264 -0.07813,-0.03906 a 10.001,10.001 0 0 0 0.210937,-0.253907 z m 49.097656,0.0078 0.0273,0.04297 c -0.75397,0.496037 0.17656,-0.103226 -0.0449,0.03516 -0.0437,0.0262 -0.0231,0.01384 -0.0684,0.04102 a 10.001,10.001 0 0 0 0.0859,-0.11914 z m -49.023437,0.11914 0.01758,0.0293 c -0.03173,0.01999 -0.01627,0.01004 -0.04687,0.0293 0.01113,-0.02196 0.01903,-0.03833 0.0293,-0.05859 z m -0.140625,0.166016 c -0.001,0.0043 -0.0049,0.01737 -0.0059,0.02148 l -0.02148,-0.0059 c 0.01538,-0.0089 0.01162,-0.0065 0.02734,-0.01563 z m 48.951172,0.01953 0.19531,0.109375 a 10.001,10.001 0 0 0 0.18555,0.02344 10.001,10.001 0 0 0 0.17773,0.21289 c -0.14946,-0.09143 -0.24523,-0.150752 -0.55859,-0.345703 z m -49.007813,0.01367 c 8.03e-4,-4.67e-4 0.0011,4.68e-4 0.002,0 l 0.04102,0.02344 c -2.57e-4,0.0011 -0.0017,0.0048 -0.002,0.0059 -0.0203,-0.01416 -0.01983,-0.01451 -0.04102,-0.0293 z m -0.07422,0.0078 c -0.0899,0.0561 -0.09462,0.05875 -0.169922,0.105468 a 10.001,10.001 0 0 0 0.01758,-0.01953 z m 160.802733,0.697265 a 10.001,10.001 0 0 0 0.0137,0.01367 l 0.19727,0.08398 c -0.1218,-0.05668 -0.0735,-0.03337 -0.21094,-0.09766 z m 91.27344,0.002 a 10.001,10.001 0 0 0 0.0117,0.01172 l 0.19141,0.08203 c -0.11743,-0.05465 -0.0713,-0.03207 -0.20313,-0.09375 z m -91.21875,0.04687 c 2.21507,0.969091 2.12308,0.961839 0.21289,0.07422 -0.77244,-0.299636 -1.61514,-0.623527 0.11133,0.06055 z m 91.26953,0 c 2.21011,0.966924 2.11743,0.959315 0.2207,0.07813 -0.58706,-0.225963 -1.52025,-0.586739 0.10352,0.05664 z M 70.015625,61.011719 c -0.326434,0.497096 -0.866889,1.326149 -0.982422,1.460937 -0.152752,0.178211 0.728234,-0.960515 0.728516,-0.960937 3.3e-5,-5e-5 0.162456,-0.319569 0.253906,-0.5 z m 366.792965,8.232422 a 10.001,10.001 0 0 0 -10,10 v 36.548829 a 10.001,10.001 0 0 0 10,10 h 7.125 a 10.001,10.001 0 0 0 10,-10 V 79.244141 a 10.001,10.001 0 0 0 -10,-10 z m 54.04883,0.611328 A 10.001,10.001 0 0 0 483.7168,79.4375 v 28.52734 a 10.001,10.001 0 0 0 2.71289,16.98047 10.001,10.001 0 0 0 2.64843,0.56641 l 0.13282,-1.58594 a 10.001,10.001 0 0 0 1.10351,0.45703 l -0.23828,1.28125 c -0.52452,0 0.0606,0.0328 -0.30859,-0.004 a 10.001,10.001 0 0 0 0.61914,0.13281 h 0.34961 a 10.001,10.001 0 0 0 1.5332,-0.59961 10.001,10.001 0 0 0 1.44727,0.59961 h 36.41601 a 10.001,10.001 0 0 0 0.13672,-0.0273 h 11.73242 a 10.001,10.001 0 0 0 9.99219,-10.39063 c -0.0763,-1.95376 -0.11719,-2.50876 -0.11719,-0.85156 v -11.50586 c 0,-2.88491 -0.22588,-0.55228 -0.0586,-0.70899 a 10.001,10.001 0 0 0 0.10351,-8.517574 c 0.006,0.04763 -0.0154,-0.102254 -0.0195,-0.216797 V 81.560547 c 0,0.03902 0.0266,-0.478722 0.0566,-1.265625 a 10.001,10.001 0 0 0 -9.99218,-10.38086 h -42.6543 c -1.6863,0 -2.07133,0.107035 -2.13477,0.148438 -0.0373,-0.01415 0.0223,0.0013 -0.0293,-0.01758 a 10.001,10.001 0 0 0 -6.29102,-0.189453 z m 12.85938,20.058593 h 28.18554 V 93.75 c 0,0.476296 0.0224,0.952962 0.0645,1.425781 a 10.001,10.001 0 0 0 0,0.002 c -0.0109,-0.122833 0.2421,1.43763 0.42968,2.632813 -0.66571,3.274276 -0.51953,6.200916 -0.51953,5.207036 v 2.74805 h -1.67968 a 10.001,10.001 0 0 0 -0.14063,0.0273 H 503.7168 Z m 48.16992,3.488282 0.002,0.002 c 10e-4,0.01148 10e-4,0.02361 0.002,0.03516 -0.005,-0.06005 0.003,0.03721 -0.004,-0.03711 z m 0.0547,0.611328 c 0.0527,0.187415 -0.0557,-0.191713 0.0117,0.0625 a 10.001,10.001 0 0 0 -0.008,-0.0293 c -0.004,-0.01623 -6.9e-4,-0.02327 -0.004,-0.0332 z m -19.32032,5.1875 c 0.002,0.0089 0.004,0.0068 0.006,0.01563 0.002,0.0069 10e-5,0.0068 0.002,0.01367 z m -39.45507,7.187498 0.46875,0.0996 -0.0312,0.16406 a 10.001,10.001 0 0 0 -0.4375,-0.26367 z m 40.79492,18.64258 c -0.007,0.003 -0.013,0.005 -0.0195,0.008 l -0.79688,0.1543 a 10.001,10.001 0 0 0 0.81641,-0.16211 z m -292.0625,4.1543 c -1.9e-4,0 -3.96654,0.98424 -3.9668,0.98437 -2.6e-4,1.3e-4 -1.2024,0.67305 -1.53711,0.91602 -0.33471,0.24296 -0.55659,0.4314 -0.73437,0.58789 -0.35556,0.31297 -0.53544,0.50672 -0.67969,0.66015 -0.28851,0.30687 -0.40217,0.45185 -0.49805,0.57032 -0.3835,0.47388 -0.39361,0.51502 -0.49219,0.65429 a 10.001,10.001 0 0 0 -1.61132,6.79297 c -0.009,-0.49876 -0.0429,-2.31082 -0.043,-2.31054 -8e-5,6.3e-4 0.30439,-1.57564 0.41797,-1.92774 0.0776,-0.24065 0.12671,-0.35309 0.17968,-0.48828 -0.0593,0.14466 -0.0668,0.11595 -0.16601,0.40625 -0.0642,0.18792 -0.23039,0.77505 -0.23047,0.77539 -9e-5,3.4e-4 -0.27342,1.64234 -0.27344,1.64258 -1e-5,1.2e-4 -1e-5,1.64639 0,1.64648 0,2e-5 0.068,0.28791 0.0879,0.37305 a 10.001,10.001 0 0 0 0.17774,0.76367 c 0.19099,0.81831 0.39842,1.70504 0.39843,1.70508 1e-5,1e-5 0.3796,0.52735 0.54883,0.76172 -0.13221,-0.19787 -0.41407,-0.62111 -0.41406,-0.6211 3e-5,7e-5 -0.31927,-1.13052 -0.50977,-1.80468 a 10.001,10.001 0 0 0 3.04688,5.21093 c -0.0433,-0.0276 -0.1799,-0.11482 -0.20508,-0.13085 0.10698,0.14814 0.42578,0.58983 0.42578,0.58984 0,0 0.0629,0.0267 0.0645,0.0273 a 10.001,10.001 0 0 0 1.37304,0.59766 c 0.055,0.0239 0.0786,0.0353 0.13672,0.0605 -0.0275,-0.0175 -0.0288,-0.0194 -0.0566,-0.0371 a 10.001,10.001 0 0 0 3.39648,0.97656 l -6.36718,-15.47852 c 2.0504,-2.60959 2.22928,-2.65349 0.17187,-0.23828 l 15.68555,12.19141 a 10.001,10.001 0 0 0 1.95898,-6.0332 c -0.002,-0.11517 -0.004,-0.11856 -0.006,-0.23047 a 10.001,10.001 0 0 0 -2.1875,-5.31641 c 0.7677,1.06312 1.54299,2.1348 1.54297,2.13477 -2e-5,-7e-5 0.59028,2.53546 0.63672,2.73437 -0.004,-0.24143 -0.0117,-0.65034 -0.0117,-0.65039 -1e-5,-1.1e-4 -0.6777,-2.40031 -0.67773,-2.40039 -4e-5,-8e-5 -2.08393,-3.11909 -2.08399,-3.11914 0,-10e-6 -0.46016,-0.29326 -0.64062,-0.4082 0.0286,0.0396 0.26457,0.36765 0.36719,0.50976 a 10.001,10.001 0 0 0 -5.43164,-2.80469 c -0.89527,-0.137 -1.79293,-0.27343 -1.79297,-0.27343 z m 91.27148,0 c -1.8e-4,0 -3.95286,0.97643 -3.95312,0.97656 -2.7e-4,1.3e-4 -1.20587,0.67381 -1.54297,0.91797 -0.3371,0.24415 -0.56089,0.43404 -0.74024,0.59179 -0.35869,0.31551 -0.54184,0.51093 -0.6875,0.66602 -0.0794,0.0846 -0.0803,0.0951 -0.13672,0.1582 1.22658,-1.54879 1.28167,-1.59819 -0.2207,0.25196 -0.035,0.0428 -0.11835,0.13311 -0.14648,0.16797 -0.38716,0.47973 -0.39535,0.51993 -0.49414,0.66015 a 10.001,10.001 0 0 0 -1.58789,6.84961 c -0.0148,-0.53544 -0.0625,-2.30106 -0.0625,-2.30078 -7e-5,6.4e-4 0.29526,-1.59756 0.4082,-1.95508 0.0759,-0.24015 0.12142,-0.35207 0.17383,-0.48828 -0.0572,0.14287 -0.0617,0.1104 -0.1543,0.38477 -0.0636,0.18849 -0.22843,0.777 -0.22852,0.77734 -8e-5,3.4e-4 -0.26755,1.6443 -0.26757,1.64453 -1e-5,1.2e-4 0.008,1.64444 0.008,1.64453 0,2e-5 0.0721,0.30657 0.0957,0.40625 a 10.001,10.001 0 0 0 0.17774,0.74414 c 0.19245,0.81165 0.39842,1.68356 0.39843,1.6836 10e-6,0 0.27197,0.37372 0.34375,0.47265 -0.0267,-0.0391 -0.17578,-0.25586 -0.17578,-0.25586 3e-5,7e-5 -0.36387,-1.23408 -0.55273,-1.875 a 10.001,10.001 0 0 0 3.14453,5.25782 c -0.0612,-0.0384 -0.24218,-0.15154 -0.27148,-0.16993 0.0971,0.13383 0.40429,0.55664 0.40429,0.55664 0,10e-6 0.12439,0.0538 0.13086,0.0566 a 10.001,10.001 0 0 0 1.41211,0.61328 c 0.009,0.004 0.0126,0.004 0.0215,0.008 -0.005,-0.003 -0.005,-0.003 -0.01,-0.006 a 10.001,10.001 0 0 0 3.33203,0.90625 l -6.35156,-15.44141 c 0.0309,-0.0393 0.0168,-0.0223 0.0469,-0.0605 L 341.5,145.02148 a 10.001,10.001 0 0 0 1.95312,-6.01171 c -0.003,-0.1174 -0.005,-0.11933 -0.008,-0.23633 a 10.001,10.001 0 0 0 -2.18359,-5.3125 c 0.76218,1.05043 1.52931,2.10745 1.5293,2.10742 -3e-5,-6e-5 0.58342,2.45804 0.64062,2.69922 -0.007,-0.26716 -0.0195,-0.6933 -0.0195,-0.69336 -2e-5,-1.1e-4 -0.707,-2.40031 -0.70703,-2.40039 -4e-5,-8e-5 -2.10542,-3.07807 -2.10547,-3.07813 -10e-6,-1e-5 -0.4418,-0.27619 -0.60547,-0.3789 0.0253,0.0349 0.28351,0.38995 0.39453,0.54297 a 10.001,10.001 0 0 0 -5.43555,-2.80469 c -0.89077,-0.13466 -1.78315,-0.26953 -1.7832,-0.26953 z m 1.84375,0.27929 c 0.45335,0.1967 3.91046,1.69535 4.51367,1.95703 -1.09395,-0.68646 -2.67963,-1.67966 -2.67968,-1.67968 -4e-5,-2e-5 -0.917,-0.13872 -1.83399,-0.27735 z m -91.25781,0.004 c 0.46366,0.20154 3.76967,1.63935 4.45117,1.93555 -1.11765,-0.71188 -2.58979,-1.65038 -2.58984,-1.65039 -4e-5,-2e-5 -0.93065,-0.14273 -1.86133,-0.28516 z m -10.35742,5.10547 c -0.0197,0.0374 -0.0523,0.0857 -0.20313,0.4043 -0.0189,0.0399 -0.0838,0.21601 -0.10742,0.26367 0.25252,-0.58452 0.34246,-0.72854 0.31055,-0.66797 z m 91.2539,0.0293 c -0.0193,0.037 -0.0511,0.0866 -0.20117,0.40625 -0.0175,0.0372 -0.0781,0.2027 -0.0996,0.24609 0.21757,-0.50285 0.3308,-0.7098 0.30078,-0.65234 z m 18.8125,4.21484 c 2.6e-4,0.0577 -3e-4,0.0834 0,0.15234 a 10.001,10.001 0 0 0 0,-0.15234 z m -91.26953,0.002 c 3e-5,0.0535 -3e-5,0.0847 0,0.15039 a 10.001,10.001 0 0 0 0,-0.15039 z m 91.27149,0.71875 c 9.4e-4,0.21644 0.002,0.50785 0.002,0.50781 10e-6,-1.7e-4 -0.12381,0.76514 -0.19922,1.22852 0.0952,-0.47686 0.21676,-1.04068 0.2168,-1.04102 1e-5,-8e-5 -0.0121,-0.4269 -0.0195,-0.69531 z m -91.27149,0.14844 c 8e-5,0.14612 0,0.39847 0,0.39844 2e-5,-1.8e-4 -0.13381,0.80493 -0.20898,1.25586 0.097,-0.46837 0.22066,-1.02115 0.2207,-1.02149 1e-5,-7e-5 -0.008,-0.40221 -0.0117,-0.63281 z m -19.8125,0.92187 c 0.0252,0.10817 0.0495,0.20917 0.0859,0.36524 -0.0184,-0.065 -0.084,-0.29884 -0.084,-0.29883 0,1e-5 -0.002,-0.0631 -0.002,-0.0664 z m 91.28516,0.0723 c 0.035,0.14755 0.0597,0.2549 0.11133,0.47266 -0.0286,-0.097 -0.10938,-0.37111 -0.10938,-0.3711 0,1e-5 -0.002,-0.0941 -0.002,-0.10156 z m 19.46484,1.23828 c -0.0521,0.18419 -0.1137,0.41313 -0.1582,0.54492 -0.21075,0.62414 -0.28036,0.72881 -0.34961,0.86719 0.0562,-0.10809 -0.0426,0.16585 0.1875,-0.4043 0.0666,-0.16518 0.1501,-0.37288 0.26367,-0.73242 0.0159,-0.0505 0.0349,-0.18392 0.0566,-0.27539 z m -91.2832,0.0488 c -0.0533,0.18578 -0.11236,0.40282 -0.15625,0.53125 -0.20674,0.60495 -0.27242,0.7022 -0.3418,0.83984 0.0605,-0.12088 -0.0393,0.15067 0.17188,-0.36523 0.0666,-0.16262 0.15139,-0.36854 0.26562,-0.72266 0.0167,-0.0519 0.0372,-0.18755 0.0606,-0.2832 z m -1.73047,3.40039 c -0.0441,0.0574 0.0201,-0.0187 -0.0898,0.11719 -0.0575,0.071 -0.1956,0.22467 -0.31446,0.35937 a 10.001,10.001 0 0 0 0.0488,-0.0254 c -2.0114,2.36122 -1.76432,2.2906 0.33008,-0.375 a 10.001,10.001 0 0 0 0.0254,-0.0762 z m 91.26953,0 c -0.0451,0.0583 0.0168,-0.017 -0.082,0.10547 -0.032,0.0396 -0.12922,0.14729 -0.17383,0.20117 a 10.001,10.001 0 0 0 0.041,-0.0234 c -2.17211,2.66577 -1.9959,2.57433 0.18945,-0.20703 a 10.001,10.001 0 0 0 0.0254,-0.0762 z m -101.36523,3.40234 c 0.29382,0.12771 0.96678,0.41992 0.96679,0.41993 l -0.11914,-0.29102 c -0.42282,-0.0647 -0.49503,-0.0749 -0.84765,-0.12891 z m 91.2832,0.006 c 0.28726,0.12463 0.95311,0.41406 0.95313,0.41407 l -0.11719,-0.28711 c -0.41735,-0.0631 -0.49025,-0.0747 -0.83594,-0.12696 z m 4.12891,0.0176 c -0.61599,0.15204 -1.15857,0.28764 -1.29883,0.32227 a 10.001,10.001 0 0 0 1.29883,-0.32227 z m -91.42774,0.0391 c -0.56843,0.14095 -1.19579,0.29663 -1.25976,0.3125 a 10.001,10.001 0 0 0 1.25976,-0.3125 z m -217.027341,8.19141 a 10.001,10.001 0 0 0 -2.263672,0.59961 c 0.554978,-0.34687 1.190399,-0.54978 1.84375,-0.58789 z m 136.511721,0.0547 0.4707,0.0312 c 0.44996,0.0608 0.88484,0.1996 1.28711,0.41015 a 10.001,10.001 0 0 0 -1.75781,-0.4414 z m -129.566409,0.27344 0.919922,0.14453 c 0.414051,0.13259 0.803901,0.33178 1.152344,0.59179 a 10.001,10.001 0 0 0 -2.072266,-0.73632 z m -20.294922,4.87304 c -6.56e-4,0.002 6.61e-4,0.004 0,0.006 h -0.002 z"
     id="path51"
     transform="matrix(1.01837,0,0,0.98196,9.6551284,-13.867933)" />
  <path
     style="font-size:129.275px;line-height:1.25;font-family:'SEGA LOGO FONT';-inkscape-font-specification:'SEGA LOGO FONT';display:inline;fill:#18007b;stroke:none;stroke-width:2;filter:url(#m);stop-color:#000000"
     d="m 498.39,27.502 c -2.01,0 -4.307,-0.419 -7.081,2.041 a 6.094,6.094 0 0 0 -3.688,-1.527 h -17.71 a 6.094,6.094 0 0 0 -2.329,0.964 6.094,6.094 0 0 0 -2.326,-0.964 h -17.193 a 6.094,6.094 0 0 0 -2.78,1.152 6.094,6.094 0 0 0 -2.78,-1.152 h -48.995 c -5.547,0 -11.004,1.26 -16.143,3.673 -5.002,2.305 -9.492,5.539 -13.351,9.596 l -0.004,0.002 c -3.172,3.339 -5.664,7.327 -7.743,11.65 -1.598,-5.533 -4.103,-10.398 -7.712,-14.22 -3.7,-3.916 -8.464,-6.722 -13.885,-8.363 l -0.006,-0.002 c -5.247,-1.614 -11.211,-2.336 -17.945,-2.336 h -49.772 a 6.094,6.094 0 0 0 -6.094,6.093 v 9.354 c -1.06,-1.699 -2.214,-3.315 -3.566,-4.746 -3.701,-3.919 -8.47,-6.724 -13.893,-8.365 -5.246,-1.614 -11.209,-2.336 -17.943,-2.336 h -16.547 c -6.656,0 -12.585,0.726 -17.822,2.338 -5.342,1.643 -10.071,4.438 -13.824,8.298 l -0.06,0.065 c -3.703,3.92 -6.334,8.894 -8.012,14.619 l -0.02,0.068 c -1.587,5.654 -2.295,12.202 -2.295,19.746 v 33 L 145.652,46.271 c -0.792,-2.376 -1.983,-4.614 -3.476,-6.675 a 23.886,23.886 0 0 0 -5.48,-5.834 c -2.26,-1.877 -4.901,-3.288 -7.786,-4.254 -2.988,-1.03 -6.207,-1.492 -9.594,-1.492 -3.466,0 -6.706,0.449 -9.691,1.523 -2.77,0.997 -5.328,2.436 -7.541,4.297 a 29.256,29.256 0 0 0 -5.25,5.752 c -0.711,1.04 -1.315,2.172 -1.961,3.267 -0.647,-1.106 -1.218,-2.254 -1.978,-3.296 a 24.969,24.969 0 0 0 -5.276,-5.764 c -2.197,-1.837 -4.729,-3.267 -7.476,-4.256 -2.986,-1.075 -6.228,-1.523 -9.694,-1.523 -3.466,0 -6.731,0.453 -9.75,1.498 -2.834,0.98 -5.455,2.392 -7.746,4.222 a 24.977,24.977 0 0 0 -5.402,5.907 30.85,30.85 0 0 0 -3.4,6.521 L 4.204,158.893 c -1.405,3.966 1.537,8.128 5.744,8.128 h 17.194 a 6.094,6.094 0 0 0 2.875,-0.916 6.07,6.07 0 0 0 1.779,0.916 H 48.99 a 6.094,6.094 0 0 0 5.787,-4.187 l 16.045,-48.715 18.356,48.947 c 1.978,5.27 9.431,5.27 11.41,0 l 18.441,-49.175 16.623,48.994 a 6.094,6.094 0 0 0 5.77,4.136 h 16.547 a 6.094,6.094 0 0 0 2.644,-0.64 6.094,6.094 0 0 0 2.01,0.64 h 17.193 a 6.094,6.094 0 0 0 5.897,-4.91 c 1.705,0.882 3.392,1.797 5.267,2.41 5.272,1.724 11.24,2.5 17.924,2.5 h 16.547 c 6.76,0 12.761,-0.773 18.041,-2.498 5.388,-1.732 10.113,-4.562 13.795,-8.46 l 0.057,-0.061 c 1.325,-1.443 2.462,-3.056 3.51,-4.744 v 9.67 a 6.094,6.094 0 0 0 6.093,6.093 h 49.772 c 6.76,0 12.762,-0.773 18.043,-2.498 5.388,-1.732 10.112,-4.563 13.793,-8.46 l 0.056,-0.061 c 3.507,-3.816 5.97,-8.586 7.574,-13.95 2.088,4.331 4.598,8.346 7.774,11.772 l 0.105,0.111 a 46.562,46.562 0 0 0 13.364,9.575 c 5.13,2.314 10.561,3.511 16.08,3.511 h 48.996 a 6.094,6.094 0 0 0 6.094,-6.093 v -15.186 c 1.708,2.9 3.601,5.65 5.855,8.082 a 46.554,46.554 0 0 0 13.467,9.686 c 5.13,2.314 10.561,3.511 16.08,3.511 h 48.996 l 0.033,-0.013 51.82,0.732 h 0.155 c 13.76,-0.155 24.678,-6.595 31.814,-14.654 7.137,-8.06 10.948,-17.499 10.948,-25.86 V 71.282 c 0,-9.254 -3.815,-19.575 -10.768,-28.19 -6.952,-8.612 -17.553,-15.475 -30.643,-15.478 h -0.008 L 498.398,27.503 H 498.39 Z M 65.788,51.154 c -0.053,0.027 -0.11,0.091 -0.164,0.12 -0.104,0.06 -0.242,0.099 -0.342,0.162 z m 9.197,0 0.817,0.49 c -0.142,-0.1 -0.344,-0.16 -0.496,-0.257 -0.106,-0.059 -0.217,-0.18 -0.32,-0.233 z m 48.996,0 0.504,0.282 c -0.099,-0.062 -0.234,-0.1 -0.338,-0.16 -0.054,-0.03 -0.112,-0.095 -0.166,-0.122 z m -9.626,0.158 c -0.025,0.015 -0.05,0.046 -0.075,0.061 -0.039,0.024 -0.092,0.038 -0.13,0.063 z m 120.685,0.264 0.3,0.127 c -0.047,-0.022 -0.102,-0.024 -0.15,-0.045 -0.053,-0.021 -0.097,-0.061 -0.15,-0.082 z m 91.27,0 0.3,0.127 c -0.047,-0.022 -0.102,-0.024 -0.15,-0.045 -0.053,-0.021 -0.097,-0.061 -0.15,-0.082 z M 199.1,51.609 c -0.021,0.01 -0.04,0.026 -0.062,0.036 -0.02,0.008 -0.041,0.009 -0.06,0.017 z m -137.642,4.307 -0.016,0.047 c 0,0.002 -0.003,0.003 -0.003,0.006 z m 66.852,0 a 0.428,0.428 0 0 1 0.015,0.047 z m 308.499,23.328 h 7.125 v 36.549 h -7.125 z m 56.907,0.193 c 3.045,1.113 3.713,0.477 5.596,0.477 h 42.654 c -0.021,0.55 -0.063,1.137 -0.063,1.647 V 93.75 c 0,0.18 0.008,0.36 0.024,0.54 0.049,0.55 0.042,1.164 0.36,2.349 0.092,0.347 0.386,0.836 0.61,1.285 -0.108,0.206 -0.293,0.427 -0.37,0.62 -0.952,2.385 -0.651,3.564 -0.651,4.474 v 11.505 c 0,0.363 0.11,0.859 0.125,1.243 h -11.803 a 7.704,7.704 0 0 0 -0.066,0.027 h -36.416 z m -3.639,36.227 c 0.295,0 0.424,0.089 0.66,0.129 h -0.35 a 6.115,6.115 0 0 0 -0.31,-0.129 z M 242.23,139.268 c -0.008,-0.001 0.14,-0.24 -0.078,0.068 0.023,-0.027 0.056,-0.04 0.078,-0.068 z m 91.27,0 c -0.008,-0.001 0.139,-0.24 -0.078,0.068 0.022,-0.027 0.056,-0.04 0.078,-0.068 z"
     transform="matrix(1.01837,0,0,0.98196,9.5688824,-13.652096)"
     aria-label="MODEL"
     stroke="none"
     id="path37" />
  <g
     style="display:inline;fill:url(#n);fill-opacity:1;stroke:none"
     mask="url(#o)"
     transform="translate(9.5688824,-13.652096)"
     id="g40">
    <path
       style="display:inline;fill:url(#p);fill-opacity:1;stroke:none;stroke-width:2;stroke-miterlimit:4;stroke-dasharray:none;stroke-opacity:1"
       d="m 507.546,32.99 c -3.653,0 -3.729,0.509 -3.729,2.996 v 12.096 c 0,2.793 -0.098,2.495 4.354,2.514 h 84.962 c 16.641,0 22.24,13.223 22.24,18.926 v 51.946 c 0,11.087 -8.442,20.465 -22.486,20.165 l -88.598,-0.6 0.206,16.958 91.186,0.74 c 24.31,-0.263 37.41,-21.465 37.41,-33.8 V 69.997 C 633.091,55.4 619.514,33.1 597.118,33.1 Z"
       id="path38" />
    <path
       style="display:inline;fill:url(#q);fill-opacity:1;stroke:none;stroke-width:2;stroke-miterlimit:4;stroke-dasharray:none;stroke-opacity:1"
       d="M 504.1,57.007 V 70.47 c 0,2.332 -0.017,2.02 4.382,2.02 h 83.498 l -0.05,3.774 h -30.042 c -3.804,0 -3.825,0.555 -3.825,3.826 v 11.97 c 0.2,2.181 0.21,2.382 4.125,2.382 h 44.915 c 4.112,0 4.195,-1.044 4.195,-4.194 V 73.21 c 0,-10.436 -9.209,-19.074 -17.907,-19.074 h -85.359 c -4.48,0 -3.932,-0.164 -3.932,2.87 z"
       id="path39" />
    <path
       style="display:inline;fill:url(#r);fill-opacity:1;stroke:none;stroke-width:2;stroke-miterlimit:4;stroke-dasharray:none;stroke-opacity:1"
       d="m 558.035,101.159 v 11.3 c 0,3.183 0.593,3.427 4.885,3.445 h 29.726 v 3.757 h -87.668 v 16.857 h 91.29 c 9.89,0 15.017,-10.968 15.017,-18.68 v -16.576 c 0,-3.685 -0.103,-2.981 -6.276,-3.11 h -45.224 c -1.75,0 -1.75,1.222 -1.75,3.007 z"
       id="path40" />
  </g>
  <g
     style="display:inline;fill:url(#s);fill-opacity:1"
     transform="translate(9.5688824,-13.652096)"
     id="g46">
    <path
       mask="url(#t)"
       style="font-size:129.275px;line-height:1.25;font-family:'SEGA LOGO FONT';-inkscape-font-specification:'SEGA LOGO FONT';display:inline;fill:url(#u);fill-opacity:1;stroke:none;stroke-width:2;stroke-opacity:1"
       d="m 542.787,158.025 h -49.895 q -7.11,0 -13.823,-2.92 -6.583,-3.047 -11.717,-8.124 -5.003,-5.205 -8.03,-12.187 -3.029,-7.109 -3.029,-15.106 V 33.494 h 17.51 v 86.194 q 0,3.808 1.448,7.743 1.448,3.809 4.081,6.855 2.765,3.047 6.714,4.951 3.95,1.904 8.952,1.904 h 47.79 z m -43.708,-38.337 h 43.708 v 16.883 H 496.71 q -4.608,0 -8.03,-1.777 -3.424,-1.777 -5.662,-4.57 -2.238,-2.793 -3.423,-6.22 -1.053,-3.554 -1.053,-6.855 V 33.494 h 18.036 v 82.893 q 0,1.524 0.79,2.412 0.922,0.762 1.711,0.762 z M 96.626,102.297 77.8,53.677 q -0.527,-1.269 -2.238,-2.284 -1.711,-1.016 -3.818,-1.016 -1.843,0 -3.818,1.016 -1.974,1.015 -2.37,2.285 L 27.642,158.025 H 10.132 L 50.812,47.33 q 1.053,-2.665 2.764,-5.077 1.712,-2.54 4.213,-4.443 2.633,-2.031 6.056,-3.174 3.423,-1.142 7.9,-1.142 4.475,0 7.767,1.142 3.29,1.143 5.792,3.174 2.501,1.904 4.213,4.443 1.843,2.412 3.16,5.077 l 3.949,7.617 3.95,-7.617 q 1.448,-2.665 3.16,-5.077 1.842,-2.54 4.212,-4.443 2.501,-2.031 5.792,-3.174 3.292,-1.142 7.768,-1.142 4.344,0 7.767,1.142 3.555,1.143 6.056,3.174 2.633,1.904 4.344,4.443 1.844,2.412 2.765,5.077 l 40.68,110.695 H 165.61 L 127.695,53.678 q -0.395,-1.27 -2.37,-2.285 -1.974,-1.016 -3.817,-1.016 -2.107,0 -3.818,1.016 -1.711,1.015 -2.238,2.285 z m 0,55.728 -24.882,-63.98 -21.854,63.98 H 32.38 L 68.454,56.85 q 0.263,-0.762 1.316,-1.27 1.054,-0.634 1.975,-0.634 0.922,0 1.843,0.635 1.053,0.507 1.317,1.27 l 21.722,57.758 21.722,-57.759 q 0.263,-0.762 1.185,-1.27 1.053,-0.634 1.975,-0.634 0.921,0 1.975,0.635 1.053,0.507 1.316,1.27 l 36.072,101.173 H 144.02 l -22.512,-63.98 z m 116.115,0 q -9.479,0 -16.325,-2.158 -6.845,-2.158 -11.453,-6.728 -4.476,-4.697 -6.714,-11.933 -2.107,-7.363 -2.107,-17.518 V 71.83 q 0,-10.536 2.107,-17.772 2.238,-7.362 6.714,-11.932 4.608,-4.57 11.453,-6.601 6.846,-2.031 16.325,-2.031 h 16.851 q 9.61,0 16.456,2.03 6.978,2.032 11.454,6.602 4.476,4.57 6.582,11.932 2.107,7.236 2.107,17.772 v 47.858 q 0,10.155 -2.107,17.518 -2.106,7.236 -6.582,11.933 -4.476,4.57 -11.454,6.728 -6.845,2.158 -16.456,2.158 z m 18.694,-16.884 q 5.003,0 8.426,-1.27 3.423,-1.396 5.53,-3.807 2.237,-2.412 3.159,-5.713 1.053,-3.3 1.053,-7.109 V 68.276 q 0,-3.808 -1.053,-7.109 -0.922,-3.3 -3.16,-5.712 -2.106,-2.412 -5.66,-3.682 -3.424,-1.396 -8.426,-1.396 H 211.03 q -5.003,0 -8.558,1.396 -3.423,1.27 -5.66,3.682 -2.107,2.412 -3.16,5.712 -0.922,3.3 -0.922,7.109 v 54.966 q 0,3.809 0.922,7.11 1.053,3.3 3.16,5.712 2.237,2.412 5.66,3.808 3.423,1.27 8.426,1.27 h 10.269 z m -18.826,-4.57 q -4.607,0 -7.635,-0.761 -2.897,-0.889 -4.608,-2.793 -1.58,-1.904 -2.238,-4.824 -0.658,-3.047 -0.658,-7.49 V 70.815 q 0,-3.3 0.658,-6.22 0.658,-2.92 2.37,-5.078 1.711,-2.158 4.607,-3.3 3.028,-1.27 7.636,-1.27 h 16.851 q 4.608,0 7.504,1.27 3.028,1.142 4.74,3.3 1.711,2.158 2.37,5.078 0.658,2.92 0.658,6.22 v 49.888 q 0,4.443 -0.659,7.49 -0.658,2.92 -2.37,4.824 -1.58,1.904 -4.607,2.793 -2.896,0.761 -7.504,0.761 z m 12.77,-16.883 q 1.58,0 1.975,-0.889 0.527,-0.888 0.527,-2.412 V 75.131 q 0,-1.523 -0.527,-2.412 -0.395,-0.889 -1.975,-0.889 h -8.425 q -1.58,0 -2.107,0.889 -0.394,0.889 -0.394,2.412 v 41.256 q 0,1.524 0.394,2.412 0.527,0.889 2.107,0.889 z m 99.001,21.453 q 5.003,0 8.426,-1.27 3.423,-1.396 5.529,-3.807 2.238,-2.412 3.16,-5.713 1.053,-3.3 1.053,-7.109 V 68.276 q 0,-3.808 -1.054,-7.109 -0.921,-3.3 -3.16,-5.712 -2.105,-2.412 -5.66,-3.682 -3.423,-1.396 -8.426,-1.396 H 271.852 V 33.494 h 50.685 q 9.61,0 16.456,2.03 6.978,2.032 11.454,6.602 4.476,4.57 6.582,11.932 2.107,7.236 2.107,17.772 v 47.858 q 0,10.155 -2.107,17.518 -2.106,7.236 -6.582,11.933 -4.476,4.57 -11.454,6.728 -6.846,2.158 -16.456,2.158 H 271.852 V 75.893 h 16.588 v 65.248 z M 271.852,71.831 V 54.946 h 50.685 q 4.608,0 7.504,1.27 3.028,1.142 4.74,3.3 1.71,2.158 2.369,5.078 0.658,2.92 0.658,6.22 v 49.888 q 0,4.443 -0.658,7.49 -0.658,2.92 -2.37,4.824 -1.58,1.904 -4.607,2.793 -2.897,0.761 -7.504,0.761 h -29.49 V 75.893 h 18.431 v 40.494 q 0,3.3 3.291,3.3 h 2.897 q 1.58,0 2.5,-0.888 1.054,-0.888 1.054,-2.412 V 75.131 q 0,-1.523 -1.053,-2.412 -0.922,-0.889 -2.501,-0.889 z m 92.286,0 q 0,-7.998 3.028,-14.98 3.028,-7.109 8.03,-12.186 5.135,-5.205 11.718,-8.125 6.714,-3.046 13.823,-3.046 h 49.895 v 16.883 h -47.789 q -5.002,0 -8.952,1.904 -3.95,1.904 -6.714,4.951 -2.633,3.047 -4.081,6.982 -1.448,3.808 -1.448,7.616 v 47.858 q 0,3.808 1.448,7.743 1.448,3.809 4.081,6.855 2.765,3.047 6.714,4.951 3.95,1.904 8.952,1.904 h 47.79 v 16.884 h -49.896 q -7.11,0 -13.823,-2.92 -6.583,-3.047 -11.717,-8.124 -5.003,-5.205 -8.03,-12.187 -3.029,-7.109 -3.029,-15.106 z m 22.25,21.834 V 74.369 q 0,-3.3 1.052,-6.728 1.185,-3.554 3.423,-6.347 2.238,-2.793 5.661,-4.57 3.423,-1.777 8.03,-1.777 h 46.078 V 71.83 H 404.95 q -0.79,0 -1.712,0.889 -0.79,0.889 -0.79,2.412 v 1.777 h 38.179 v 16.757 z m 0,4.189 h 54.239 v 16.883 h -38.179 v 1.65 q 0,1.524 0.79,2.412 0.922,0.889 1.712,0.889 h 45.682 v 16.883 h -46.077 q -4.608,0 -8.03,-1.777 -3.424,-1.777 -5.662,-4.57 -2.238,-2.793 -3.423,-6.22 -1.053,-3.554 -1.053,-6.855 z"
       id="path41" />
    <path
       d="m 364.138,71.83 q 0,-7.997 3.028,-14.979 3.028,-7.109 8.03,-12.186 5.135,-5.205 11.718,-8.125 6.714,-3.046 13.823,-3.046 h 49.895 v 16.883 h -47.789 q -5.002,0 -8.952,1.904 -3.95,1.904 -6.714,4.951 -2.633,3.047 -4.081,6.982 -1.448,3.808 -1.448,7.616 v 47.858 q 0,3.808 1.448,7.743 1.448,3.809 4.081,6.855 2.765,3.047 6.714,4.951 3.95,1.904 8.952,1.904 h 47.79 v 16.884 h -49.896 q -7.11,0 -13.823,-2.92 -6.583,-3.047 -11.717,-8.124 -5.003,-5.205 -8.03,-12.187 -3.029,-7.109 -3.029,-15.106 z m 22.25,21.835 V 74.369 q 0,-3.3 1.052,-6.728 1.185,-3.554 3.423,-6.347 2.238,-2.793 5.661,-4.57 3.423,-1.777 8.03,-1.777 h 46.078 V 71.83 H 404.95 q -0.79,0 -1.712,0.889 -0.79,0.889 -0.79,2.412 v 1.777 h 38.179 v 16.757 z m 0,4.189 h 54.239 v 16.883 h -38.179 v 1.65 q 0,1.524 0.79,2.412 0.922,0.889 1.712,0.889 h 45.682 v 16.883 h -46.077 q -4.608,0 -8.03,-1.777 -3.424,-1.777 -5.662,-4.57 -2.238,-2.793 -3.423,-6.22 -1.053,-3.554 -1.053,-6.855 z"
       style="font-size:129.275px;line-height:1.25;font-family:'SEGA LOGO FONT';-inkscape-font-specification:'SEGA LOGO FONT';display:inline;fill:url(#v);fill-opacity:1;stroke:#e1e1e1;stroke-width:1.25;stroke-miterlimit:4;stroke-dasharray:none;stroke-opacity:1"
       id="path42" />
    <path
       d="m 324.38,141.141 q 5.003,0 8.426,-1.27 3.423,-1.396 5.529,-3.807 2.238,-2.412 3.16,-5.713 1.053,-3.3 1.053,-7.109 V 68.276 q 0,-3.808 -1.054,-7.109 -0.921,-3.3 -3.16,-5.712 -2.105,-2.412 -5.66,-3.682 -3.423,-1.396 -8.426,-1.396 H 271.852 V 33.494 h 50.685 q 9.61,0 16.456,2.03 6.978,2.032 11.454,6.602 4.476,4.57 6.582,11.932 2.107,7.236 2.107,17.772 v 47.858 q 0,10.155 -2.107,17.518 -2.106,7.236 -6.582,11.933 -4.476,4.57 -11.454,6.728 -6.846,2.158 -16.456,2.158 H 271.852 V 75.893 h 16.588 v 65.248 z M 271.852,71.831 V 54.946 h 50.685 q 4.608,0 7.504,1.27 3.028,1.142 4.74,3.3 1.71,2.158 2.369,5.078 0.658,2.92 0.658,6.22 v 49.888 q 0,4.443 -0.658,7.49 -0.658,2.92 -2.37,4.824 -1.58,1.904 -4.607,2.793 -2.897,0.761 -7.504,0.761 h -29.49 V 75.893 h 18.431 v 40.494 q 0,3.3 3.291,3.3 h 2.897 q 1.58,0 2.5,-0.888 1.054,-0.888 1.054,-2.412 V 75.131 q 0,-1.523 -1.053,-2.412 -0.922,-0.889 -2.501,-0.889 z"
       style="font-size:129.275px;line-height:1.25;font-family:'SEGA LOGO FONT';-inkscape-font-specification:'SEGA LOGO FONT';display:inline;fill:url(#w);fill-opacity:1;stroke:#e1e1e1;stroke-width:1.25;stroke-miterlimit:4;stroke-dasharray:none;stroke-opacity:1"
       id="path43" />
    <path
       d="m 212.741,158.025 q -9.479,0 -16.325,-2.158 -6.845,-2.158 -11.453,-6.728 -4.476,-4.697 -6.714,-11.933 -2.107,-7.363 -2.107,-17.518 V 71.83 q 0,-10.536 2.107,-17.772 2.238,-7.362 6.714,-11.932 4.608,-4.57 11.453,-6.601 6.846,-2.031 16.325,-2.031 h 16.851 q 9.61,0 16.456,2.03 6.978,2.032 11.454,6.602 4.476,4.57 6.582,11.932 2.107,7.236 2.107,17.772 v 47.858 q 0,10.155 -2.107,17.518 -2.106,7.236 -6.582,11.933 -4.476,4.57 -11.454,6.728 -6.845,2.158 -16.456,2.158 z m 18.694,-16.884 q 5.003,0 8.426,-1.27 3.423,-1.396 5.53,-3.807 2.237,-2.412 3.159,-5.713 1.053,-3.3 1.053,-7.109 V 68.276 q 0,-3.808 -1.053,-7.109 -0.922,-3.3 -3.16,-5.712 -2.106,-2.412 -5.66,-3.682 -3.424,-1.396 -8.426,-1.396 H 211.03 q -5.003,0 -8.558,1.396 -3.423,1.27 -5.66,3.682 -2.107,2.412 -3.16,5.712 -0.922,3.3 -0.922,7.109 v 54.966 q 0,3.809 0.922,7.11 1.053,3.3 3.16,5.712 2.237,2.412 5.66,3.808 3.423,1.27 8.426,1.27 h 10.269 z m -18.826,-4.57 q -4.607,0 -7.635,-0.761 -2.897,-0.889 -4.608,-2.793 -1.58,-1.904 -2.238,-4.824 -0.658,-3.047 -0.658,-7.49 V 70.815 q 0,-3.3 0.658,-6.22 0.658,-2.92 2.37,-5.078 1.711,-2.158 4.607,-3.3 3.028,-1.27 7.636,-1.27 h 16.851 q 4.608,0 7.504,1.27 3.028,1.142 4.74,3.3 1.711,2.158 2.37,5.078 0.658,2.92 0.658,6.22 v 49.888 q 0,4.443 -0.659,7.49 -0.658,2.92 -2.37,4.824 -1.58,1.904 -4.607,2.793 -2.896,0.761 -7.504,0.761 z m 12.77,-16.883 q 1.58,0 1.975,-0.889 0.527,-0.888 0.527,-2.412 V 75.131 q 0,-1.523 -0.527,-2.412 -0.395,-0.889 -1.975,-0.889 h -8.425 q -1.58,0 -2.107,0.889 -0.394,0.889 -0.394,2.412 v 41.256 q 0,1.524 0.394,2.412 0.527,0.889 2.107,0.889 z"
       style="font-size:129.275px;line-height:1.25;font-family:'SEGA LOGO FONT';-inkscape-font-specification:'SEGA LOGO FONT';display:inline;fill:url(#x);fill-opacity:1;stroke:#e1e1e1;stroke-width:1.25;stroke-miterlimit:4;stroke-dasharray:none;stroke-opacity:1"
       id="path44" />
    <path
       d="M 96.626,102.297 77.8,53.677 q -0.527,-1.269 -2.238,-2.284 -1.711,-1.016 -3.818,-1.016 -1.843,0 -3.818,1.016 -1.974,1.015 -2.37,2.285 L 27.642,158.025 H 10.132 L 50.812,47.33 q 1.053,-2.665 2.764,-5.077 1.712,-2.54 4.213,-4.443 2.633,-2.031 6.056,-3.174 3.423,-1.142 7.9,-1.142 4.475,0 7.767,1.142 3.29,1.143 5.792,3.174 2.501,1.904 4.213,4.443 1.843,2.412 3.16,5.077 l 3.949,7.617 3.95,-7.617 q 1.448,-2.665 3.16,-5.077 1.842,-2.54 4.212,-4.443 2.501,-2.031 5.792,-3.174 3.292,-1.142 7.768,-1.142 4.344,0 7.767,1.142 3.555,1.143 6.056,3.174 2.633,1.904 4.344,4.443 1.844,2.412 2.765,5.077 l 40.68,110.695 H 165.61 L 127.695,53.678 q -0.395,-1.27 -2.37,-2.285 -1.974,-1.016 -3.817,-1.016 -2.107,0 -3.818,1.016 -1.711,1.015 -2.238,2.285 z m 0,55.728 -24.882,-63.98 -21.854,63.98 H 32.38 L 68.454,56.85 q 0.263,-0.762 1.316,-1.27 1.054,-0.634 1.975,-0.634 0.922,0 1.843,0.635 1.053,0.507 1.317,1.27 l 21.722,57.758 21.722,-57.759 q 0.263,-0.762 1.185,-1.27 1.053,-0.634 1.975,-0.634 0.921,0 1.975,0.635 1.053,0.507 1.316,1.27 l 36.072,101.173 H 144.02 l -22.512,-63.98 z"
       style="font-size:129.275px;line-height:1.25;font-family:'SEGA LOGO FONT';-inkscape-font-specification:'SEGA LOGO FONT';display:inline;fill:url(#y);fill-opacity:1;stroke:#e1e1e1;stroke-width:1.25;stroke-miterlimit:4;stroke-dasharray:none;stroke-opacity:1"
       id="path45" />
    <path
       d="m 542.787,158.025 h -49.895 q -7.11,0 -13.823,-2.92 -6.583,-3.047 -11.717,-8.124 -5.003,-5.205 -8.03,-12.187 -3.029,-7.109 -3.029,-15.106 V 33.494 h 17.51 v 86.194 q 0,3.808 1.448,7.743 1.448,3.809 4.081,6.855 2.765,3.047 6.714,4.951 3.95,1.904 8.952,1.904 h 47.79 z m -43.708,-38.337 h 43.708 v 16.883 H 496.71 q -4.608,0 -8.03,-1.777 -3.424,-1.777 -5.662,-4.57 -2.238,-2.793 -3.423,-6.22 -1.053,-3.554 -1.053,-6.855 V 33.494 h 18.036 v 82.893 q 0,1.524 0.79,2.412 0.922,0.762 1.711,0.762 z"
       style="font-size:129.275px;line-height:1.25;font-family:'SEGA LOGO FONT';-inkscape-font-specification:'SEGA LOGO FONT';display:inline;fill:url(#z);fill-opacity:1;stroke:none;stroke-width:1.25;stroke-miterlimit:4;stroke-dasharray:none;stroke-opacity:1"
       mask="url(#A)"
       id="path46" />
  </g>
  <path
     style="display:inline;fill:none;fill-opacity:1;stroke:#fff7ff;stroke-width:1.25;stroke-miterlimit:4;stroke-dasharray:none;stroke-opacity:1"
     d="m 517.11588,19.337903 c -3.654,0 -3.729,0.509 -3.729,2.996 v 12.096 c 0,2.793 -0.099,2.495 4.354,2.514 h 84.96 c 16.642,0 22.241,13.223 22.241,18.925 V 107.8169 c 0,11.086 -8.442,20.465 -22.486,20.164 l -53.323,-0.6 0.012,0.108 h -44.578 c -3.335,0 -6.318,-0.635 -8.951,-1.905 -2.633,-1.27 -4.872,-2.918 -6.715,-4.949 a 22.787,22.787 0 0 1 -4.082,-6.855 c -0.965,-2.624 -1.447,-5.206 -1.447,-7.745 V 19.841903 h -17.51 V 106.0359 c 0,5.331 1.009,10.368 3.027,15.107 2.019,4.655 4.696,8.716 8.032,12.185 a 41.065,41.065 0 0 0 11.716,8.125 c 4.476,1.947 9.085,2.92 13.825,2.92 h 49.894 v -0.015 l 52.895,0.72 c 24.31,-0.263 37.41,-21.464 37.41,-33.798 V 56.343903 c 0,-14.597 -13.578,-36.896 -35.973,-36.896 z m -29.004,0.504 V 103.4959 c 0,2.2 0.35,4.486 1.053,6.856 a 20.665,20.665 0 0 0 3.422,6.22 c 1.492,1.862 3.38,3.386 5.662,4.57 2.282,1.186 4.957,1.778 8.029,1.778 h 46.078 v -0.054 h 53.48 c 9.89,0 15.018,-10.968 15.018,-18.68 V 87.609903 c 0,-3.685 -0.104,-2.98 -6.277,-3.11 h -45.223 c -1.75,0 -1.75,1.222 -1.75,3.006 V 98.8069 c 0,3.184 0.593,3.427 4.885,3.445 h 29.726 v 3.756 h -52.71 v 0.027 h -40.856 v -0.126 c -0.527,0 -1.098,-0.254 -1.713,-0.762 -0.526,-0.593 -0.789,-1.397 -0.789,-2.412 V 19.841903 Z m 29.49,20.643 c -4.48,0 -3.933,-0.163 -3.933,2.87 v 13.463 c 0,2.332 -0.017,2.021 4.382,2.021 h 83.498 l -0.048,3.774 h -30.043 c -3.805,0 -3.826,0.554 -3.826,3.826 v 11.969 c 0.2,2.18 0.209,2.382 4.125,2.382 h 44.916 c 4.11,0 4.193,-1.045 4.193,-4.195 v -17.036 c 0,-10.436 -9.208,-19.074 -17.906,-19.074 z"
     id="path47" />
  <g
     style="font-size:129.275px;line-height:1.25;font-family:'SEGA LOGO FONT';-inkscape-font-specification:'SEGA LOGO FONT';display:inline;opacity:1;fill:#f4f4f4;fill-opacity:0.500111;stroke:none;stroke-width:2;stroke-opacity:1;stop-color:#000000"
     id="g48"
     transform="translate(10.048882,10.007903)">
    <path
       style="display:inline;opacity:1;fill:#f4f4f4;fill-opacity:0.164775;stroke:none;stroke-width:2;stroke-miterlimit:4;stroke-dasharray:none;stroke-opacity:1"
       d="m 505.197,3.4 c -1.6,0.019 -3.312,0.215 -5.342,1.95 A 6.33,6.33 0 0 0 496.1,3.85 h -18.038 a 6.325,6.325 0 0 0 -2.369,0.947 6.334,6.334 0 0 0 -2.369,-0.947 h -17.51 a 6.33,6.33 0 0 0 -2.83,1.13 6.33,6.33 0 0 0 -2.83,-1.13 h -49.896 c -5.649,0 -11.206,1.236 -16.44,3.607 a 44.3,44.3 0 0 0 -13.597,9.422 l -0.004,0.002 c -3.23,3.278 -5.768,7.195 -7.885,11.441 -1.628,-5.433 -4.177,-10.211 -7.854,-13.965 -3.766,-3.845 -8.62,-6.6 -14.14,-8.212 L 340.332,6.143 C 334.989,4.558 328.914,3.85 322.057,3.85 H 271.37 c -3.427,0 -6.205,2.68 -6.205,5.984 v 9.184 c -1.08,-1.668 -2.256,-3.255 -3.633,-4.66 C 257.763,10.509 252.908,7.754 247.386,6.143 242.043,4.558 235.97,3.85 229.112,3.85 h -16.851 c -6.78,0 -12.815,0.712 -18.149,2.295 -5.44,1.614 -10.256,4.36 -14.078,8.15 l -0.062,0.062 c -3.771,3.85 -6.45,8.734 -8.159,14.356 l -0.019,0.066 c -1.616,5.552 -2.338,11.982 -2.338,19.39 V 80.574 L 147.85,21.775 c -0.807,-2.333 -2.02,-4.53 -3.541,-6.554 -1.498,-2.19 -3.392,-4.118 -5.582,-5.729 -2.302,-1.842 -4.99,-3.229 -7.928,-4.178 -3.043,-1.012 -6.321,-1.464 -9.77,-1.464 -3.53,0 -6.83,0.44 -9.869,1.496 -2.821,0.98 -5.426,2.39 -7.68,4.218 a 29.15,29.15 0 0 0 -5.308,5.598 l -0.04,0.05 c -0.724,1.022 -1.337,2.134 -1.995,3.21 -0.66,-1.087 -1.241,-2.215 -2.016,-3.238 A 24.862,24.862 0 0 0 88.75,9.525 C 86.512,7.722 83.933,6.317 81.135,5.345 78.094,4.29 74.793,3.85 71.264,3.85 67.734,3.85 64.41,4.294 61.336,5.32 58.45,6.284 55.78,7.67 53.447,9.467 a 24.887,24.887 0 0 0 -5.502,5.8 c -1.085,1.536 -1.974,3.17 -2.748,4.854 l -3.584,9.354 -22.408,60.978 50.272,4.295 2.168,-6.348 2.628,6.758 10.854,0.928 32.812,-0.717 2.797,-7.193 2.49,7.078 45.506,-0.994 C 206.746,92.452 241.873,81.246 277.566,71.879 311.622,59.425 340.662,53.47 371.912,44.65 l 133.35,-15.148 z m 47.504,86.762 C 487.192,90.945 322.328,89.93 270.627,124.66 a 33.186,33.186 0 0 0 -5.461,4.611 v 5.092 c 0,3.305 2.778,5.985 6.205,5.985 h 50.688 c 6.884,0 12.995,-0.76 18.373,-2.453 5.487,-1.701 10.298,-4.482 14.047,-8.31 l 0.056,-0.058 c 3.571,-3.747 6.082,-8.43 7.715,-13.697 2.125,4.253 4.682,8.194 7.916,11.559 l 0.107,0.109 a 47.407,47.407 0 0 0 13.61,9.402 c 5.225,2.272 10.755,3.448 16.375,3.448 h 49.896 c 3.428,0 6.205,-2.68 6.205,-5.985 v -14.91 c 1.74,2.847 3.668,5.548 5.963,7.936 l 0.108,0.109 a 47.399,47.399 0 0 0 13.607,9.402 c 5.225,2.272 10.755,3.448 16.375,3.448 h 49.897 l 0.033,-0.014 52.771,0.719 h 0.158 c 14.014,-0.152 25.131,-6.475 32.399,-14.39 0.772,-0.84 1.348,-1.744 2.043,-2.612 -21.562,-11.33 -50.52,-22.435 -77.012,-33.889 z"
       aria-label="MODEL"
       id="path48" />
  </g>
</svg>
