<?xml version="1.0" encoding="UTF-8" standalone="no"?>
<svg
   height="259.67313"
   width="1267"
   version="1.1"
   id="svg2"
   sodipodi:docname="naomi2.svg"
   inkscape:version="1.4.3 (0d15f75042, 2025-12-25)"
   xmlns:inkscape="http://www.inkscape.org/namespaces/inkscape"
   xmlns:sodipodi="http://sodipodi.sourceforge.net/DTD/sodipodi-0.dtd"
   xmlns="http://www.w3.org/2000/svg"
   xmlns:svg="http://www.w3.org/2000/svg">
  <defs
     id="defs2" />
  <sodipodi:namedview
     id="namedview2"
     pagecolor="#adadad"
     bordercolor="#000000"
     borderopacity="0.25"
     inkscape:showpageshadow="2"
     inkscape:pageopacity="0.0"
     inkscape:pagecheckerboard="0"
     inkscape:deskcolor="#d1d1d1"
     inkscape:zoom="0.49278217"
     inkscape:cx="530.66043"
     inkscape:cy="68.996003"
     inkscape:window-width="1920"
     inkscape:window-height="1080"
     inkscape:window-x="0"
     inkscape:window-y="0"
     inkscape:window-maximized="0"
     inkscape:current-layer="svg2" />
  <g
     id="path1"
     style="opacity:1">
    <path
       style="baseline-shift:baseline;display:inline;overflow:visible;vector-effect:none;fill:#ffffff;stroke-linecap:round;stroke-linejoin:round;paint-order:markers stroke fill;enable-background:accumulate;stop-color:#000000;stop-opacity:1"
       d="m 1175.5898,0 c -15.262,0.05952271 -30.9352,3.3399532 -45.9394,9.4765625 -5.9864,2.4483885 -11.1356,5.5799225 -16.4766,8.9003905 -2.6704,1.660234 -5.1207,3.26023 -7.3633,4.892578 -1.1212,0.816174 -2.1479,1.572881 -3.5351,2.828125 -0.6936,0.627622 -1.4704,1.31214 -2.7012,2.847656 -1.2307,1.535517 -4.5742,2.962757 -4.5742,12.857422 0,4.191667 0.4996,4.531436 0.6973,5.273438 0.1976,0.742002 0.3341,1.13933 0.4531,1.490234 0.2379,0.70181 0.4083,1.140334 0.5898,1.601563 0.3632,0.922458 0.7469,1.829421 1.2012,2.882812 0.9087,2.106783 2.0737,4.700492 3.3633,7.478516 l 4.4433,9.574219 a 20.002,20.002 0 0 0 29.5508,8.005859 l 6.3047,-4.380859 c 10.1246,-7.032966 16.1474,-9.139746 25.707,-9.767579 a 20.002,20.002 0 0 0 0,0 c 14.5105,-0.954512 19.6972,2.61167 22.8086,8.751954 a 20.002,20.002 0 0 0 0,0.002 c 4.3677,8.618663 4.5535,19.460099 -2.9512,34.554686 -8.0302,16.1524 -14.2107,23.41038 -54.9121,63.93359 l -37.3691,37.20508 A 20.002,20.002 0 0 0 1089,222.58203 v 8.54492 8.54688 a 20.002,20.002 0 0 0 20,20 h 138 a 20.002,20.002 0 0 0 20,-20 v -24 a 20.002,20.002 0 0 0 -20,-20 h -48.2383 c 23.8417,-23.942 41.1257,-45.20382 50.9649,-64.72461 15.9981,-31.741511 16.2434,-68.272895 -2.3301,-96.04297 -7.1193,-10.643595 -16.895,-19.288133 -28.334,-25.0605469 l -0,-0.00195 C 1205.7004,3.1008455 1190.851,-0.0595193 1175.5898,0 Z M 561.37305,1.0976562 c -20.44217,-0.6696616 -40.6625,3.7981721 -59.63672,13.0488278 -46.59265,22.713582 -74.55671,69.580875 -72.40039,121.359376 2.50663,60.17339 46.45665,110.53573 105.76367,121.25195 21.33921,3.85458 44.4612,1.9446 65.11523,-5.26953 75.446,-26.35047 109.22289,-116.21812 69.44727,-185.294921 C 648.60891,29.633044 612.25177,6.1074404 570.14453,1.6992187 567.2182,1.392837 564.29336,1.1933222 561.37305,1.0976562 Z m -5.96289,72.8613278 c 13.09849,-0.597333 20.54482,1.24706 32.25195,8.111328 0.36376,0.213331 18.56571,18.334218 19.0332,19.126958 5.66619,9.60761 8.79993,25.18178 7.47656,34.93554 a 20.002,20.002 0 0 0 0,0.002 c -2.02202,14.91101 -6.43505,23.7454 -16.63671,33.78125 a 20.002,20.002 0 0 0 -0.002,0 c -9.44087,9.28847 -16.82105,13.26679 -28.49414,15.74023 a 20.002,20.002 0 0 0 -0.002,0 c -2.26169,0.47957 -19.69839,0.58114 -21.11133,0.30469 h -0.002 c -11.50519,-2.25788 -20.36214,-6.95731 -28.93946,-15.46289 -11.07994,-10.98816 -15.2263,-19.41419 -17.10742,-34.55274 -1.33618,-10.75277 1.46556,-24.29344 7.41602,-34.4082 a 20.002,20.002 0 0 0 0,-0.002 c 3.4533,-5.870512 16.71653,-18.362687 21.36914,-20.761723 10.43172,-5.37679 13.94588,-6.321642 24.74805,-6.814453 z"
       id="path5" />
    <path
       style="baseline-shift:baseline;display:inline;overflow:visible;vector-effect:none;fill:#f26317;stroke-linecap:round;stroke-linejoin:round;paint-order:markers stroke fill;enable-background:accumulate;stop-color:#000000;stop-opacity:1"
       d="m 1109,231.12713 v -8.546 l 37.368,-37.204 c 40.889,-40.71 49.718,-51.117 58.71,-69.204 9.516,-19.139996 10.521,-37.429996 2.884,-52.499996 -7.058,-13.929 -22.093,-20.977 -41.962,-19.67 -12.912,0.848 -23.594,4.817 -35.806,13.3 l -6.305,4.38 -4.444,-9.575 c -2.445,-5.267 -4.445,-9.905 -4.445,-10.305 0,-1.349 15.881,-11.222 22.221,-13.815 25.443,-10.406 52.57,-10.514 72.83,-0.288 8.734,4.407 15.292,10.207 20.722,18.325 13.996,20.926 14.408,49.506 1.094,75.921996 -10.365,20.564 -33.505,47.688 -67.867,79.55 -7.425,6.885 -13.65,12.891 -13.833,13.347 -0.184,0.456 21.529,0.829 48.25,0.829 H 1247 v 24 h -138 z m -570.345,5.95 c -50.307,-9.09 -87.211,-51.392 -89.336,-102.404 -1.848,-44.374996 21.244,-83.080996 61.181,-102.549996 18.657,-9.096 37.81,-12.6 57.562,-10.532 36.202,3.79 66.215,23.23 84.269,54.582 33.607,58.363996 5.176,134.120996 -58.71,156.433996 -17.034,5.95 -37.544,7.617 -54.966,4.47 z m 34.53,-31.856 c 14.984,-3.175 26.791,-9.651 38.375,-21.048 12.92,-12.71 19.924,-26.871 22.43,-45.351 2.068,-15.242 -1.854,-33.859 -10.067,-47.784996 -4.414,-7.485 -18.8,-21.912 -26.144,-26.219 -14.282,-8.374 -27.074,-11.578 -43.279,-10.839 -12.76,0.582 -21.008,2.836 -33,9.017 -10.117,5.215 -23.27,17.9 -29.446,28.399 -8.272,14.060996 -11.966,31.387996 -10.024,47.015996 2.33,18.751 9.274,32.805 22.871,46.289 11.121,11.028 24.043,17.917 39.174,20.886 6.985,1.37 21.8,1.185 29.11,-0.365 z"
       id="path6" />
  </g>
  <g
     id="path2"
     style="opacity:1">
    <path
       style="baseline-shift:baseline;display:inline;overflow:visible;vector-effect:none;fill:#ffffff;stroke-linecap:round;stroke-linejoin:round;paint-order:markers stroke fill;enable-background:accumulate;stop-color:#000000;stop-opacity:1"
       d="m 1019.6738,2.6269531 -16.75,0.2753907 -16.74997,0.2734375 C 975.27667,3.3545567 966.52836,12.224456 966.5,23.123047 l -0.25586,102.250003 -0.25391,102.25 c -0.027,11.06506 8.9349,20.04971 20,20.05078 H 1020 c 11.0452,-0.001 19.9989,-8.95476 20,-20 V 22.625 c -7e-4,-11.173107 -9.1546,-20.1791449 -20.3262,-19.9980469 z M 173.01562,5.671875 c -11.01404,0.00101 -19.9548,8.90597 -20,19.919922 l -0.25781,63.841797 -0.0879,21.564456 -40.42187,-33.437503 C 92.166896,60.949959 73.545587,45.567936 59.714844,34.160156 52.799472,28.456266 47.082139,23.746463 42.970703,20.367187 38.861601,16.98983 37.601395,15.893573 35.474609,14.251953 l -0.0039,-0.0039 -3.246094,-2.505859 C 19.077565,1.5931302 0.00415295,10.961627 0,27.570312 v 99.552738 99.55078 c 0.00110436,11.04524 8.9547625,19.9989 20,20 h 29 c 11.045238,-0.001 19.998896,-8.95476 20,-20 v -64 c 0,-8.9467 0.07198,-15.2037 0.111328,-22.94141 13.135468,10.59858 27.995054,22.61024 45.740232,37.03711 21.17157,17.21212 40.50611,32.91316 54.60742,44.34961 7.05066,5.71823 12.79151,10.36769 16.8086,13.61523 2.00854,1.62378 3.58292,2.89607 4.6914,3.78711 0.55425,0.44552 0.98869,0.7929 1.33008,1.06446 0.1707,0.13577 0.31259,0.24783 0.48047,0.3789 0.16788,0.13108 -2.09786,-1.13869 1.92774,1.35157 3.33944,2.0658 14.35769,2.62142 14.35937,2.62109 9.2e-4,-1.8e-4 2.51768,-1.09864 5.12305,-2.39648 1.34369,1.23101 2.61931,2.20732 3.44336,2.70898 2.60819,1.58781 3.83576,1.83951 4.78515,2.12109 1.89879,0.56317 2.56144,0.59716 3.19336,0.68555 1.26385,0.17678 1.9001,0.20594 2.63281,0.25 1.46543,0.0881 2.95988,0.12753 4.76954,0.1582 3.61931,0.0614 8.30849,0.0561 13.48437,-0.0215 l 18.1875,-0.27344 c 7.21338,-0.10864 13.80935,-4.09324 17.26172,-10.42773 l 11.5625,-21.22071 5.84961,-10.73828 38.0625,0.16992 37.95898,0.16602 5.41211,10.33398 11,21 c 3.40669,6.50341 10.1024,10.61785 17.44336,10.71875 l 19.79688,0.26954 19.79492,0.27343 c 15.17516,0.20639 25.04294,-15.90021 17.9668,-29.32617 l -1.19922,-2.27344 -0.004,-0.008 c -1.88852,-3.5778 -8.51651,-15.47086 -18.95508,-34.25586 -10.43856,-18.785 -23.98397,-43.11968 -37.42187,-67.23828 -13.43791,-24.118599 -26.76685,-48.017865 -36.77539,-65.931639 -5.00427,-8.956888 -9.17907,-16.416449 -12.12696,-21.669922 -1.47394,-2.626737 -2.63935,-4.698571 -3.46289,-6.154297 -0.41176,-0.727863 -0.73435,-1.295362 -0.99218,-1.744141 -0.12892,-0.224389 -0.2354,-0.409652 -0.37305,-0.642578 -0.0688,-0.116463 -0.13548,-0.231933 -0.28711,-0.476562 -0.0758,-0.122315 -0.16399,-0.266969 -0.37109,-0.578125 -0.2071,-0.311156 0.32212,-0.09693 -2.16211,-2.710938 l -0.0156,-0.01563 c -4.2677,-4.480497 -12.16449,-6.5896101 -16.68945,-6.0898436 -4.52496,0.4997664 -6.66322,1.8649846 -8.13672,2.7519536 -2.947,1.773936 -3.55078,2.687363 -4.19141,3.357421 -1.28126,1.340117 -1.54726,1.802406 -1.875,2.251953 -0.65546,0.899095 -0.95476,1.384308 -1.32422,1.966797 -0.7389,1.164978 -1.52047,2.467471 -2.50195,4.13086 -1.96295,3.326777 -4.62822,7.964762 -7.88476,13.707031 -6.5131,11.484538 -15.34742,27.315047 -24.98633,44.820312 L 255.81836,134.67383 H 229 c -1.0308,0.19093 -2.04499,0.4626 -3.0332,0.8125 0.004,-3.87694 0.0332,-6.25715 0.0332,-10.25586 V 25.671875 c -0.001,-11.045238 -8.95476,-19.9988956 -20,-20 z m 745.1875,0.5820312 c -3.9412,0.9730313 -7.49303,3.1222525 -10.18359,6.1621098 l -3.32031,3.751953 h 0.002 c -2.09665,2.369931 -7.76615,9.062059 -17.67969,20.716797 -9.91353,11.654737 -23.12454,27.20675 -37.24609,43.849609 -14.11399,16.634542 -27.07162,31.897565 -36.57617,43.083985 -0.6722,0.79115 -0.97253,1.14316 -1.60938,1.89258 C 803.28827,116.38446 791.89347,103.3261 773.1231,81.53125 758.42389,64.463235 744.8659,48.703937 734.86919,37.068359 729.87084,31.25057 725.76137,26.463614 722.85161,23.066406 c -2.90976,-3.397208 -6.08983,-7.262114 -4.44922,-5.207031 l -0.002,-0.002 c -0.72836,-0.912227 -1.52342,-2.539203 -5.77539,-5.041016 -2.12598,-1.250906 -5.5407,-2.762181 -10.0957,-2.802734 -4.55501,-0.040554 -9.57831,1.921694 -12.57813,4.253906 -5.99963,4.664424 -6.37705,8.158597 -7.0039,10.125 -0.62686,1.966404 -0.78042,3.104199 -0.93165,4.150391 -0.60491,4.184767 -0.60381,7.32613 -0.72265,13.953125 -0.23769,13.25399 -0.26098,38.075188 -0.27149,85.421873 l -0.0215,99.75 c -0.002,11.04753 8.95247,20.00476 20,20.00586 h 31.98242 c 11.00798,-9.7e-4 19.94623,-8.89645 20,-19.9043 l 0.25586,-53.37305 3.44727,4.10352 c 10.63527,12.66038 20.37904,24.11628 27.57422,32.44922 3.59758,4.16647 6.54407,7.53718 8.73632,9.98437 1.09613,1.2236 1.97532,2.18927 2.83789,3.08985 0.43129,0.45028 0.79797,0.84146 1.57032,1.55078 0.38617,0.35466 0.76195,0.74946 2.05273,1.67578 0.64539,0.46316 1.39081,1.08804 3.63086,2.07812 2.24005,0.99009 7.96827,5.17294 18.46484,-1.17382 l 0.0312,-0.0195 c 3.42654,-2.08072 3.06825,-2.28142 3.45118,-2.64649 0.38292,-0.36506 0.55774,-0.55082 0.70898,-0.70898 0.30249,-0.31633 0.45308,-0.48441 0.60742,-0.65625 0.30869,-0.34369 0.57173,-0.64507 0.89063,-1.01368 0.6378,-0.73721 1.45126,-1.69213 2.47656,-2.90234 2.05061,-2.42041 4.9165,-5.83072 8.41992,-10.01562 7.00685,-8.36981 16.54917,-19.82253 26.95899,-32.3711 l 3.18554,-3.83984 c 0.2486,17.46144 0.51894,36.56201 0.57813,41.67383 l 0.14062,12.24804 c 0.12625,10.95517 9.04222,19.77011 19.99812,19.77151 h 34 c 11.04524,-0.001 19.9989,-8.95476 20,-20 V 25.667969 C 942.99694,12.681131 930.81129,3.1407007 918.20312,6.2539062 Z M 687.14258,42.816406 c 0.58781,0.736299 1.0816,1.262866 1.48242,1.742188 -0.81628,-0.802479 -1.20657,-1.396698 -1.48242,-1.742188 z M 337.91016,68.908203 c 0.14561,0.260631 0.38427,0.690027 0.53125,0.953125 -0.33128,-0.02725 -0.71399,0.0071 -1.06055,-0.0039 0.16432,-0.293 0.36674,-0.659561 0.5293,-0.949219 z M 40,69.757812 c 3.113817,2.569405 7.554835,6.242368 11.029297,9.111329 -0.332751,-0.04247 -1.230144,-0.195312 -1.230469,-0.195313 -0.0016,-4e-6 -7.119548,1.081219 -9.587891,2.419922 C 40.126887,81.13933 40.082035,81.18848 40,81.234375 Z m 863,10.101563 v 27.404295 c -4.29066,-5.0476 -10.8022,-7.643292 -17.38867,-6.93164 C 892.06079,92.733375 897.34194,86.518681 903,79.859375 Z m -181.83594,2.611328 c 5.14467,5.980779 9.76425,11.354809 15.57617,18.105467 -5.64754,-0.732035 -11.33936,0.97793 -15.64843,4.70117 0.009,-9.714664 0.0501,-15.763327 0.0723,-22.806637 z M 321.50781,158.75 c -0.14404,0.41729 -0.22853,0.58332 -0.36133,0.68555 0.0196,-0.0379 0.0209,-0.0413 0.041,-0.0801 0.0731,-0.14108 0.24055,-0.45226 0.32031,-0.60547 z m 69.05078,4.61523 c 0.60404,1.08516 1.15196,2.06809 1.75,3.14258 -1.16243,-0.44898 -2.36426,-0.78834 -3.58984,-1.01367 0.6625,-0.66557 1.2773,-1.37696 1.83984,-2.12891 z m -105.17578,0.54493 c 0.24297,0.36554 0.44916,0.9113 0.69141,1.23046 -0.78737,0.16334 -1.56417,0.37401 -2.32617,0.63086 0.49357,-0.45967 0.96357,-0.94401 1.4082,-1.45117 z m -99.51953,3.27343 c -0.0208,5.09055 -0.0236,11.16279 -0.0508,15.68555 -3.60835,-2.92799 -8.48587,-6.89057 -12.54883,-10.18945 4.71728,-0.28603 9.18091,-2.23312 12.59961,-5.4961 z m 85.54102,6.45899 c -0.51535,0.48033 -1.00497,0.98754 -1.4668,1.51953 l -0.36719,0.67578 c -0.28786,-0.53639 -0.60275,-0.96807 -0.91015,-1.44336 0.9314,-0.18519 1.84844,-0.43648 2.74414,-0.75195 z m 534.13476,0.57617 c 1.53055,0.59779 3.51979,1.26345 7.00781,1.24609 0.80109,-0.004 1.76328,-0.15578 2.72852,-0.32422 -1.37005,1.642 -3.18215,3.82738 -4.43164,5.32227 -1.50114,-1.74747 -3.63371,-4.28708 -5.30469,-6.24414 z"
       id="path3"
       sodipodi:nodetypes="ccccccccccccccccsscccccccccsccssssssscssssscccccccccccccccsssssssssccsssssssccccscccscccscsccssccssssssccccccsssssssccssssssscccccccscccsccssccssccccccsccssscssscccccccccsccssccccccsccc" />
    <path
       style="baseline-shift:baseline;display:inline;overflow:visible;vector-effect:none;fill:#010101;stroke-linecap:round;stroke-linejoin:round;paint-order:markers stroke fill;enable-background:accumulate;stop-color:#000000;stop-opacity:1"
       d="m 228,227.13813 c 0,-0.319 5.4,-9.753 12,-20.965 6.6,-11.212 12,-20.636 12,-20.943 0,-0.306 -5.175,-0.557 -11.5,-0.557 H 229 v -30 h 38.637 l 34.932,-63.439996 c 19.212,-34.891 35.226,-63.129 35.587,-62.75 0.536,0.564 105.758,189.418996 109.739,196.960996 l 1.198,2.272 -19.796,-0.272 -19.797,-0.271 -11,-21 -11,-21 -50,-0.22 -50,-0.222 -11.562,21.221 -11.562,21.221 -18.188,0.273 c -10.003,0.15 -18.188,0.011 -18.188,-0.308 z m 142.254,-78.715 c -1.615,-2.888 -9.618,-17.523 -17.785,-32.524 C 340.902,94.655134 337.363,88.907134 336.461,89.899134 335.178,91.309134 302,152.14213 302,153.08313 c 0,0.324 16.018,0.59 35.595,0.59 h 35.596 z m 330.768,-20.5 c 0.021,-94.680996 0.11,-99.639996 1.75,-97.585996 0.95,1.19 25.789,30.1 55.196,64.246 41.184,47.819996 53.727,61.795996 54.596,60.835996 0.62,-0.685 24.229,-28.471 52.462,-61.745996 28.234,-33.275 52.828,-62.189 54.654,-64.253 l 3.32,-3.753 V 227.67313 h -34 l -0.14,-12.25 c -0.078,-6.737 -0.415,-31.08 -0.75,-54.093 l -0.61,-41.842 -37.796,45.562 c -20.788,25.059 -38.113,45.754 -38.5,45.989 -0.387,0.234 -18.029,-20.197 -39.204,-45.404 l -38.5,-45.83 -0.259,53.934 -0.258,53.934 H 701 Z m 285.223,-2.5 0.255,-102.249996 16.75,-0.274 16.75,-0.274 V 227.67313 H 985.991 Z M 20,127.12313 V 27.570134 l 3.25,2.51 c 1.788,1.38 36.1,29.681 76.25,62.892 l 73,60.384996 0.257,-63.842996 0.258,-63.842 H 206 v 99.558996 c 0,54.757 -0.352,99.342 -0.782,99.076 -0.43,-0.266 -35.417,-28.641 -77.75,-63.057 C 85.136,126.83413 50.163,98.675134 49.75,98.674134 49.337,98.673134 49,127.47313 49,162.67313 v 64 H 20 Z"
       id="path4" />
  </g>
</svg>
