<?xml version="1.0" encoding="UTF-8" standalone="no"?>
<svg
   version="1.2"
   width="1123.1541"
   height="186.556"
   viewBox="0 0 561.577 93.278"
   xml:space="preserve"
   id="svg2"
   sodipodi:docname="nds.svg"
   inkscape:version="1.4.3 (0d15f75042, 2025-12-25)"
   xmlns:inkscape="http://www.inkscape.org/namespaces/inkscape"
   xmlns:sodipodi="http://sodipodi.sourceforge.net/DTD/sodipodi-0.dtd"
   xmlns="http://www.w3.org/2000/svg"
   xmlns:svg="http://www.w3.org/2000/svg"><defs
   id="defs2" /><sodipodi:namedview
   id="namedview2"
   pagecolor="#adadad"
   bordercolor="#000000"
   borderopacity="0.25"
   inkscape:showpageshadow="2"
   inkscape:pageopacity="0.0"
   inkscape:pagecheckerboard="0"
   inkscape:deskcolor="#d1d1d1"
   inkscape:zoom="0.81112892"
   inkscape:cx="561.56301"
   inkscape:cy="93.080148"
   inkscape:window-width="1920"
   inkscape:window-height="1080"
   inkscape:window-x="0"
   inkscape:window-y="0"
   inkscape:window-maximized="0"
   inkscape:current-layer="svg2" />
    
    <path
   style="opacity:1;baseline-shift:baseline;display:inline;overflow:visible;vector-effect:none;fill:#ffffff;stroke-linecap:round;stroke-linejoin:round;paint-order:markers stroke fill;enable-background:accumulate;stop-color:#000000;stop-opacity:1"
   d="m 170.96875,0.4140625 a 7.50075,7.50075 0 0 0 -3.89453,1.5957031 7.50075,7.50075 0 0 0 -3.8457,-1.59374997 h -1.2461 -38.58984 a 7.50075,7.50075 0 0 0 -3.85156,1.59570317 7.50075,7.50075 0 0 0 -3.85157,-1.59570317 h -6.71484 a 7.50075,7.50075 0 0 0 -7.5,7.49999997 V 16.921875 L 86.673828,2.5371094 A 7.50075,7.50075 0 0 0 81.445312,0.41601563 H 75.646484 A 7.50075,7.50075 0 0 0 70.316406,2.6816406 7.50075,7.50075 0 0 0 64.984375,0.41601563 H 63.730469 58.1875 A 7.50075,7.50075 0 0 0 52.865234,2.6601563 7.50075,7.50075 0 0 0 47.542969,0.41601563 h -6.705078 a 7.50075,7.50075 0 0 0 -7.5,7.49999997 V 16.923828 L 18.535156,2.5371094 A 7.50075,7.50075 0 0 0 13.308594,0.41601563 H 7.5 A 7.50075,7.50075 0 0 0 0,7.9160156 V 44.644531 a 7.50075,7.50075 0 0 0 7.5,7.5 h 6.796875 a 7.50075,7.50075 0 0 0 7.5,-7.5 v -9.414062 l 15.205078,14.791015 a 7.50075,7.50075 0 0 0 5.230469,2.123047 h 5.310547 a 7.50075,7.50075 0 0 0 5.322265,-2.24414 7.50075,7.50075 0 0 0 5.322266,2.24414 h 6.796875 a 7.50075,7.50075 0 0 0 5.332031,-2.265625 7.50075,7.50075 0 0 0 5.330078,2.265625 h 6.796875 a 7.50075,7.50075 0 0 0 7.5,-7.5 v -9.414062 l 15.207031,14.791015 a 7.50075,7.50075 0 0 0 5.22852,2.123047 h 5.31054 a 7.50075,7.50075 0 0 0 7.5,-7.5 V 21.646484 a 7.50075,7.50075 0 0 0 0.20313,0.08398 h 8.88672 v 22.914062 a 7.50075,7.50075 0 0 0 7.5,7.5 h 7.0625 a 7.50075,7.50075 0 0 0 7.5,-7.5 V 21.730469 h 8.88672 a 7.50075,7.50075 0 0 0 0.20312,-0.08398 v 22.996094 a 7.50075,7.50075 0 0 0 7.5,7.5 h 35.86328 a 7.50075,7.50075 0 0 0 5.04102,-2.087891 7.50075,7.50075 0 0 0 5.04687,2.089844 h 6.79688 a 7.50075,7.50075 0 0 0 7.5,-7.5 v -9.417969 l 15.21484,14.794922 a 7.50075,7.50075 0 0 0 5.22852,2.123047 h 5.30273 a 7.50075,7.50075 0 0 0 5.17774,-2.146484 7.50075,7.50075 0 0 0 5.18359,2.148437 h 27.23828 c 6.49799,0 12.7208,-2.898934 16.76758,-7.800781 2.65161,4.615268 7.57546,7.800781 13.20703,7.800781 h 29.62109 c 8.35798,0 15.28711,-6.954904 15.28711,-15.314453 V 15.728516 c 0,-8.3605096 -6.92686,-15.31250037 -15.28711,-15.31250037 H 324.5 c -5.63247,-1e-8 -10.55968,3.18805527 -13.21094,7.80664067 -4.07688,-4.9974451 -10.3737,-7.80468755 -16.76367,-7.80468755 h -27.23828 a 7.50075,7.50075 0 0 0 -5.17774,2.14648435 7.50075,7.50075 0 0 0 -5.18359,-2.14843747 h -6.71484 a 7.50075,7.50075 0 0 0 -7.5,7.49999997 V 16.923828 L 227.91016,2.5371094 a 7.50075,7.50075 0 0 0 -5.22852,-2.12109377 h -5.79883 a 7.50075,7.50075 0 0 0 -5.04492,2.08984377 7.50075,7.50075 0 0 0 -5.04297,-2.08984377 h -1.27148 c 0,0 -8.55129,2.4999e-4 -17.15039,0 -4.29956,-1.25e-4 -8.6101,2.8122e-4 -11.8711,0 -3.261,-2.8123e-4 -5.99784,-0.004336 -5.5332,-0.001953 z m 38.41406,20.2441405 v 11.242188 a 7.50075,7.50075 0 0 0 -2.54492,-1.054688 7.50075,7.50075 0 0 0 0.85742,-2.072266 v -6.316406 a 7.50075,7.50075 0 0 0 -0.38867,-0.939453 7.50075,7.50075 0 0 0 2.07617,-0.859375 z m 85.70899,0.988281 c -0.0333,-0.0028 -0.1168,0.07454 0.0762,0.394532 0.38593,0.63998 0.90039,2.496975 0.90039,4.240234 -0.001,1.685403 -0.51052,3.557944 -0.9082,4.220703 -0.39784,0.663015 0.31178,0.326172 -0.44336,0.326172 h -13.375 v -9.095703 h 13.375 c 0.3927,0 0.40828,-0.08314 0.375,-0.08594 z m 35.64257,0.08594 h 17.1504 v 9.095703 h -17.1504 z m -18.89843,22.058594 -0.0215,0.02734 c 0.004,-0.0049 0.006,-0.01071 0.01,-0.01563 0.003,-0.0044 0.008,-0.0073 0.0117,-0.01172 z"
   id="path3" /><path
   style="opacity:1;baseline-shift:baseline;display:inline;overflow:visible;vector-effect:none;fill:#ffffff;stroke-linecap:round;stroke-linejoin:round;paint-order:fill markers stroke;enable-background:accumulate;stop-color:#000000;stop-opacity:1"
   d="m 323.61523,40.841797 c -8.35744,0 -15.28711,6.941385 -15.28711,15.3125 v 21.105469 c 0,8.367256 6.8282,15.3125 15.28711,15.3125 h 29.6211 c 8.45571,0 15.28711,-6.956963 15.28711,-15.3125 V 56.154297 c 0,-8.36064 -6.92919,-15.3125 -15.28711,-15.3125 z m 6.23243,21.316406 h 17.15039 v 9.095703 h -17.15039 z"
   id="path7" /><path
   style="opacity:1;baseline-shift:baseline;display:inline;overflow:visible;vector-effect:none;fill:#999999;stroke-linecap:round;stroke-linejoin:round;paint-order:markers stroke fill;enable-background:accumulate;stop-color:#000000;stop-opacity:1"
   d="m 354.49851,77.176023 c 0,0.83 -0.682,1.578 -1.521,1.578 h -29.102 c -0.848,0 -1.527,-0.748 -1.527,-1.578 v -21.022 c 0,-0.832 0.682,-1.496 1.527,-1.496 h 29.102 c 0.84,0 1.521,0.664 1.521,1.496 z m -1.263,-28.834 h -29.621 c -4.287,0 -7.787,3.49 -7.787,7.813 v 21.104 c 0,4.236 3.5,7.813 7.787,7.813 h 29.621 c 4.297,0 7.787,-3.574 7.787,-7.813 v -21.105 c 0,-4.322 -3.491,-7.812 -7.787,-7.812"
   id="path8" /><path
   style="opacity:1;baseline-shift:baseline;display:inline;overflow:visible;vector-effect:none;stroke-linecap:round;stroke-linejoin:round;paint-order:markers stroke fill;enable-background:accumulate;stop-color:#000000;stop-opacity:1"
   d="M 14.297,17.471 V 44.645 H 7.5 V 7.916 h 5.808 L 40.837,34.672 V 7.916 h 6.706 V 44.645 H 42.232 L 14.297,17.471 m 68.146,0 V 44.645 H 75.646 V 7.916 h 5.8 l 27.529,26.756 V 7.916 h 6.714 v 36.729 h -5.31 L 82.443,17.471 m 141.236,0 v 27.174 h -6.797 V 7.916 h 5.8 l 27.529,26.756 V 7.916 h 6.714 v 36.729 h -5.301 L 223.679,17.471 M 63.73,7.916 h 1.255 V 44.645 H 58.188 V 7.916 h 5.542 m 98.252,0 h 1.246 v 6.315 h -16.386 v 30.413 h -7.063 V 14.231 H 123.393 V 7.916 h 38.589 m 43.541,0 h 1.271 v 6.315 H 177.66 v 8.226 h 22.536 v 6.316 H 177.66 v 9.555 h 29.134 v 6.315 H 170.931 V 7.914 c 0.39,0.002 34.592,0.002 34.592,0.002 m 89.193,30.413 H 273.842 V 14.233 h 20.874 c 6.531,0 8.852,6.479 8.852,12.049 -0.002,5.482 -2.318,12.047 -8.852,12.047 z m 11.153,-25.01 c -2.658,-3.573 -6.59,-5.401 -11.344,-5.401 h -27.238 v 36.729 h 27.238 c 4.754,0 8.686,-1.911 11.344,-5.401 2.492,-3.24 3.813,-7.728 3.813,-12.962 -0.001,-5.239 -1.321,-9.725 -3.813,-12.965 m 49.51499,23.513999 c 0,0.748 -0.682,1.496 -1.521,1.496 h -29.102 c -0.848,0 -1.527,-0.748 -1.527,-1.496 V 15.728 c 0,-0.831 0.682,-1.496 1.527,-1.496 h 29.102 c 0.84,0 1.521,0.665 1.521,1.496 z m -1.263,-28.9169992 h -29.621 c -4.287,0 -7.787,3.4900002 -7.787,7.8130002 v 21.103999 c 0,4.321 3.5,7.813 7.787,7.813 h 29.621 c 4.297,0 7.787,-3.49 7.787,-7.813 V 15.728 c 0,-4.32 -3.491,-7.8120002 -7.787,-7.8120002"
   id="path4"
   sodipodi:nodetypes="cccccccccccccccccccccccccccccccccccccccccccccccccccccccccccccccsccscscsccsccc" /><g
   id="path2"
   style="opacity:1" />
<g
   id="path1-3"
   style="opacity:1"><path
     style="baseline-shift:baseline;display:inline;overflow:visible;vector-effect:none;fill:#ffffff;stroke-linecap:round;stroke-linejoin:round;paint-order:markers stroke fill;enable-background:accumulate;stop-color:#000000;stop-opacity:1"
     d="M 518.89648,0 C 505.52193,0 494.14692,1.8771374 485.28906,6.0996094 479.14445,9.0286972 474.02354,13.724814 471.42578,19.519531 467.01935,14.386147 461.09499,9.8072936 453.375,6.3164062 a 7.50075,7.50075 0 0 0 -0.0215,-0.00781 C 443.83213,2.0386162 429.76151,0.16796875 416.64844,0.16796875 h -46.74805 a 7.50075,7.50075 0 0 0 -7.5,7.49999995 V 85.609375 a 7.50075,7.50075 0 0 0 7.5,7.5 h 46.74805 c 13.11307,0 27.1807,-1.866406 36.69531,-6.142578 a 7.5,7.5 0 0 0 0.002,-0.002 7.5,7.5 0 0 0 0.004,0 c 6.72044,-3.028141 11.98276,-6.918567 16.16797,-11.238282 v 7.558594 a 7.50075,7.50075 0 0 0 6.25781,7.396485 c 10.21461,1.713791 19.71503,2.595703 32.94141,2.595703 16.42554,0 28.7767,-2.200746 37.88672,-6.873047 9.11001,-4.672301 14.97265,-13.037078 14.97265,-22.064453 0,-8.333815 -4.69952,-15.641171 -11.20508,-20.285157 -6.50364,-4.642622 -14.73739,-7.827184 -24.89062,-11.455078 l -0.008,-0.0039 c -7.1975,-2.579666 -12.71601,-4.611119 -15.61524,-6.185547 -0.0556,-0.03021 -0.0325,-0.02879 -0.0859,-0.05859 1.74486,-0.565854 4.29259,-1.130859 8.41407,-1.130859 10.46504,0 17.00861,2.474508 26.22265,4.193359 A 7.50075,7.50075 0 0 0 553.2832,22 L 553.21875,9.8691406 A 7.50075,7.50075 0 0 0 547.07227,2.5332031 C 538.45266,0.95189095 532.76388,0 518.89648,0 Z M 377.40039,15.167969 h 11.53516 a 7.50075,7.50075 0 0 0 -1.26563,3.052734 v 56.671875 a 7.50075,7.50075 0 0 0 1.33203,3.216797 h -11.60156 z m 61.28516,2.435547 c 3.51559,0.744683 6.65447,1.551453 8.52343,2.388671 0.002,8.39e-4 0.006,0.0011 0.008,0.002 15.8055,7.154771 19.4414,16.735124 19.4414,26.642578 0,9.935965 -3.58382,19.490689 -19.46289,26.648437 -1.90132,0.854517 -5.13308,1.680413 -8.7539,2.4375 1.15531,-0.671205 2.38699,-1.242773 3.45507,-2.027344 8.26638,-6.072143 13.17188,-15.901952 13.17188,-27.054687 0,-11.154049 -4.88872,-21.004709 -13.14649,-27.123047 -0.99949,-0.740548 -2.15948,-1.272962 -3.23632,-1.914062 z m 57.03906,0.537109 c -1.70278,2.193843 -2.83789,4.793738 -2.83789,7.642578 0,3.210382 1.36695,6.512023 3.27539,8.771484 1.90844,2.259462 4.1431,3.737039 6.53711,5.03711 4.78802,2.600142 10.55077,4.55721 17.7207,7.126953 a 7.50075,7.50075 0 0 0 0.006,0.0039 c 9.84266,3.516782 17.17252,6.644251 21.23047,9.541016 4.05795,2.896764 4.91992,4.358986 4.91992,8.076172 0,3.435623 -1.10362,5.787801 -6.81836,8.71875 -2.01078,1.031279 -4.80327,1.926158 -7.95898,2.726562 2.59658,-2.899908 4.23633,-6.63548 4.23633,-10.287109 0,-4.943353 -3.46583,-9.957495 -7.55274,-12.667969 -4.08654,-2.710227 -9.11373,-4.702514 -16.28125,-7.333984 h -0.002 c -9.33783,-3.430516 -17.12887,-6.516346 -21.79297,-9.5625 -4.66442,-3.046359 -5.83203,-4.749403 -5.83203,-8.160157 0,-3.098024 1.42783,-5.396534 7.16797,-8.132812 1.14434,-0.545497 2.54791,-1.029182 3.98242,-1.5 z m -93.05469,7.580078 h 7.45508 c 10.38527,0 18.14345,2.349697 22.86719,5.849609 4.72374,3.499913 7.07617,7.859363 7.07617,15.070313 0,7.209265 -2.33591,11.503441 -7.05078,14.966797 -4.71488,3.463356 -12.48891,5.785156 -22.89258,5.785156 h -7.45508 z m 78.89453,22.263672 c 0.22358,0.153586 0.41433,0.360013 0.64063,0.507812 6.91333,4.515141 15.39188,7.618777 24.82422,11.083985 6.86444,2.520173 11.29727,4.51713 13.16211,5.753906 0.56037,0.371644 0.52873,0.277541 0.67382,0.320313 0.0865,0.03001 0.37276,-0.09701 -0.44531,0.40039 -1.12983,0.686955 -4.35044,1.753906 -9.85742,1.753906 -10.65203,0 -25.82442,-2.550567 -30.75586,-4.527343 a 7.5,7.5 0 0 0 -1.44727,0.01758 7.5,7.5 0 0 0 -0.23046,-0.0957 c 2.21413,-5.017693 3.26888,-10.200104 3.43554,-15.214844 z"
     id="path5" /><path
     style="baseline-shift:baseline;display:inline;overflow:visible;vector-effect:none;fill:#c91818;stroke-linecap:round;stroke-linejoin:round;paint-order:markers stroke fill;enable-background:accumulate;stop-color:#000000;stop-opacity:1"
     d="m 477.01699,70.238999 c 7.045,2.823999 21.928,5.065999 33.545,5.065999 12.713,0 17.973,-4.319999 17.973,-9.805999 0,-4.985 -4.887,-7.811 -18.92,-12.963 -18.771,-6.896 -32.541,-12.38 -32.541,-24.761999 0,-12.713 16.57,-20.274 41.822,-20.274 13.561,0 18.215,0.831 26.822,2.4099999 l 0.066,12.1310001 c -8.459,-1.578 -15.955,-4.321 -27.598,-4.321 -12.479,0 -17.799,3.988 -17.799,8.063 0,5.899999 8.191,8.724999 22.563,13.875999 20,7.146 31.127,12.629 31.127,24.68 0,12.462999 -13.938,21.437999 -45.361,21.437999 -12.904,0 -21.805,-0.832 -31.699,-2.492 V 70.238999 M 410.12499,18.221 H 395.17 v 56.670998 h 14.95499 c 22.961,0 37.443,-9.889999 37.443,-28.251999 0,-18.364999 -14.483,-28.418999 -37.443,-28.418999 z m 40.144,61.904998 c -7.396,3.324 -21.391,5.484 -33.621,5.484 H 369.9 V 7.667 h 46.74799 c 12.23,0 26.225,2.1599999 33.637,5.484 18.008,8.143 23.873,21.187999 23.873,33.484999 0,12.302 -5.817,25.346999 -23.889,33.489999"
     id="path6" /></g><g
   id="path1"
   style="opacity:1" /></svg>
