<?xml version="1.0" encoding="UTF-8" standalone="no"?>
<svg
   width="341.155"
   height="127.229"
   viewBox="-0.501 0 341.155 127.229"
   xml:space="preserve"
   version="1.1"
   id="svg11"
   sodipodi:docname="nes.svg"
   inkscape:version="1.4.3 (0d15f75042, 2025-12-25)"
   xmlns:inkscape="http://www.inkscape.org/namespaces/inkscape"
   xmlns:sodipodi="http://sodipodi.sourceforge.net/DTD/sodipodi-0.dtd"
   xmlns="http://www.w3.org/2000/svg"
   xmlns:svg="http://www.w3.org/2000/svg"
   xmlns:osb="http://www.openswatchbook.org/uri/2009/osb"><sodipodi:namedview
   id="namedview11"
   pagecolor="#767676"
   bordercolor="#000000"
   borderopacity="0.25"
   inkscape:showpageshadow="2"
   inkscape:pageopacity="0.0"
   inkscape:pagecheckerboard="0"
   inkscape:deskcolor="#d1d1d1"
   inkscape:zoom="1.8633436"
   inkscape:cx="152.41419"
   inkscape:cy="52.593628"
   inkscape:window-width="1920"
   inkscape:window-height="1080"
   inkscape:window-x="0"
   inkscape:window-y="0"
   inkscape:window-maximized="0"
   inkscape:current-layer="svg11" />
    <defs
   id="defs3">
        <linearGradient
   id="b">
            <stop
   style="stop-color:#000;stop-opacity:1"
   offset="0"
   id="stop1" />
            <stop
   style="stop-color:#000;stop-opacity:0"
   offset="1"
   id="stop2" />
        </linearGradient>
        <linearGradient
   id="a"
   osb:paint="solid">
            <stop
   style="stop-color:#000;stop-opacity:1"
   offset="0"
   id="stop3" />
        </linearGradient>
    </defs>
    
    
    <g
   id="path5"
   style="opacity:1"
   transform="matrix(.91123 0 0 .86383 17.44 14.217)"><path
     style="baseline-shift:baseline;display:inline;overflow:visible;vector-effect:none;fill:#ffffff;stroke-linecap:round;stroke-linejoin:round;paint-order:markers stroke fill;enable-background:accumulate;stop-color:#000000;stop-opacity:1"
     d="m 62.576172,-4.5078125 c -21.866355,0 -39.736328,17.8635645 -39.736328,39.7343745 0,21.86963 17.867696,39.734375 39.736328,39.734375 H 277.72461 c 6.6e-4,0 0.001,10e-7 0.002,0 21.87061,-0.0011 39.73438,-17.867098 39.73438,-39.734375 0,-21.870301 -17.86691,-39.7343745 -39.73633,-39.7343745 z m 0,17.3496095 H 277.72266 c 3.03496,0 5.91977,0.617746 8.55664,1.707031 -4.93182,0.416212 -8.81836,4.679898 -8.81836,9.632813 a 4.5089486,4.5089486 0 0 0 0,0.0059 c 6.4e-4,0.405016 0.18521,0.753863 0.23633,1.146484 -2.0165,-0.629182 -4.1436,-1.015625 -6.33204,-1.015625 -5.34924,0 -10.3097,2.011034 -13.83007,5.283203 V 19.046875 a 4.5089486,4.5089486 0 0 0 -4.50782,-4.507812 l -9.77929,-0.002 a 4.5089486,4.5089486 0 0 0 -4.50782,4.509766 v 5.566406 c -0.76587,-0.121075 -1.48983,-0.294922 -2.33984,-0.294922 -5.21378,0 -9.76455,2.604459 -12.625,6.480469 -0.76083,-0.753973 -1.50332,-1.545084 -2.31445,-2.175781 -2.46833,-1.919249 -4.94117,-3.546875 -8.60938,-3.546875 h -2.93164 c -2.23695,0 -3.81585,0.756163 -5.13476,1.441406 a 4.5089486,4.5089486 0 0 0 -1.71289,-0.708984 h -9.77735 a 4.5089486,4.5089486 0 0 0 -4.27539,3.947265 c -3.52784,-3.360447 -8.54971,-5.4375 -13.98047,-5.4375 -3.28303,0 -6.43598,0.816809 -9.23242,2.181641 a 4.5089486,4.5089486 0 0 0 -4.45703,-4.380859 h -0.625 v -0.138672 a 4.5089486,4.5089486 0 0 0 -4.50781,-4.507813 h -10.02149 a 4.5089486,4.5089486 0 0 0 -4.50976,4.507813 v 0.138672 h -0.625 a 4.5089486,4.5089486 0 0 0 -4.25977,3.90625 c -1.66059,-0.961314 -3.44873,-1.708985 -5.76562,-1.708985 h -2.9336 c -2.23838,0 -3.8174,0.757369 -5.13672,1.44336 a 4.5089486,4.5089486 0 0 0 -1.70898,-0.708985 h -9.77734 a 4.5089486,4.5089486 0 0 0 -1.11719,0.462891 4.5089486,4.5089486 0 0 0 0.24805,-0.59961 v -5.867187 a 4.5089486,4.5089486 0 0 0 -4.50977,-4.509766 h -9.777344 a 4.5089486,4.5089486 0 0 0 -3.056641,1.267579 4.5089486,4.5089486 0 0 0 -3.056641,-1.265625 h -9.777343 a 4.5089486,4.5089486 0 0 0 -4.509766,4.507812 v 7.212891 L 69.8125,16.630859 a 4.5089486,4.5089486 0 0 0 -3.806641,-2.09375 H 55.496094 a 4.5089486,4.5089486 0 0 0 -4.507813,4.509766 V 51.5625 a 4.5089486,4.5089486 0 0 0 4.507813,4.507812 h 9.777343 A 4.5089486,4.5089486 0 0 0 69.783203,51.5625 v -8.175781 l 6.859375,10.621093 a 4.5089486,4.5089486 0 0 0 3.787109,2.0625 h 9.779297 a 4.5089486,4.5089486 0 0 0 3.056641,-1.265625 4.5089486,4.5089486 0 0 0 3.056641,1.265625 h 9.777344 a 4.5089486,4.5089486 0 0 0 2.68945,-1.113281 4.5089486,4.5089486 0 0 0 2.68946,1.113281 h 9.77734 A 4.5089486,4.5089486 0 0 0 125.76367,51.5625 V 38.037109 c 0.0105,-0.0037 0.0187,-0.0061 0.0293,-0.0098 v 13.533203 a 4.5089486,4.5089486 0 0 0 4.50781,4.509765 h 10.02344 a 4.5089486,4.5089486 0 0 0 2.93555,-1.216796 4.5089486,4.5089486 0 0 0 2.93554,1.216796 H 156.2168 A 4.5089486,4.5089486 0 0 0 160.69922,51.625 c 3.56787,3.655246 8.78907,5.912109 14.33984,5.912109 5.41107,0 10.24997,-2.093496 13.74805,-5.402343 v 0.185546 a 4.5089486,4.5089486 0 0 0 4.50781,4.507813 h 9.77735 a 4.5089486,4.5089486 0 0 0 4.50976,-4.507813 v -13.52539 c 0.01,-0.0035 0.0174,-0.0064 0.0273,-0.0098 v 13.533203 a 4.5089486,4.5089486 0 0 0 4.50782,4.509766 h 10.02929 a 4.5089486,4.5089486 0 0 0 4.27344,-3.945313 c 2.66912,2.380334 6.07264,3.923829 9.98047,3.923829 2.50781,0 4.71048,-0.483185 6.29492,-0.966797 a 4.5089486,4.5089486 0 0 0 0.55274,0.230468 h 9.77929 a 4.5089486,4.5089486 0 0 0 4.33008,-4.080078 c 3.52849,3.426721 8.56279,5.546875 14.00781,5.546875 9.88485,0 18.92969,-6.986743 18.92969,-16.732422 a 4.5089486,4.5089486 0 0 0 0,-0.002 c -0.002,-2.701503 -0.77452,-5.151979 -2.02344,-7.330078 4.67922,-0.634809 8.2793,-4.425569 8.2793,-9.291015 0,-0.536766 -0.21619,-1.0106 -0.29883,-1.527344 2.43352,3.582531 3.85938,7.907423 3.85938,12.574219 0,12.382808 -10.00845,22.384765 -22.38867,22.384765 H 62.576172 c -12.385342,0 -22.386719,-10.000845 -22.386719,-22.384765 0,-12.386396 10.002186,-22.386719 22.386719,-22.386719 z m -2.570313,10.71289 h 3.521485 l 0.291015,0.458985 a 4.5089486,4.5089486 0 0 0 -3.052734,4.080078 v 18.960937 h -0.759766 z m 24.933594,0.002 h 0.761719 v 23.498046 h -2.816406 l -0.88086,-1.365234 a 4.5089486,4.5089486 0 0 0 2.935547,-3.90625 z m 162.816407,0 h 0.76367 v 23.496093 h -1.13672 c 0.12305,-0.543061 0.37305,-1.089281 0.37305,-1.603515 V 36.40625 c 0,-1.290497 -0.4294,-2.535012 -1.03516,-3.705078 a 4.5089486,4.5089486 0 0 0 1.03516,-1.675781 z m 38.93359,0.308593 c 4.2e-4,-9.1e-5 0.0636,0.0625 0.31641,0.0625 h 0.008 c 0.0351,5.8e-5 0.0583,0.06411 0.10352,0.103516 -0.0658,0.05671 -0.12684,0.160156 -0.11133,0.160156 -0.5119,0 -0.25391,0.07891 -0.25391,-0.0078 0,-0.254132 -0.0629,-0.318268 -0.0625,-0.31836 z m -135.98633,2.625 h 1.00391 v 0.136719 a 4.5089486,4.5089486 0 0 0 0.60938,1.466797 4.5089486,4.5089486 0 0 0 -0.60938,1.466797 v 17.49414 h -1.00195 v -17.49414 a 4.5089486,4.5089486 0 0 0 -0.60938,-1.46875 4.5089486,4.5089486 0 0 0 0.60742,-1.464844 z m -49.87304,7.578125 h 0.76172 v 12.986328 h -0.76172 z m 15.15625,0 h 1.30078 c -0.29561,0.644295 -0.53906,1.376756 -0.53906,2.333985 v 10.652343 h -0.76172 z m 81.8164,0.757813 h 1.30079 c -0.29586,0.644253 -0.53907,1.377633 -0.53907,2.335937 V 47.8125 h -0.76172 z m -63.09961,0.851562 c 0.7499,0.905758 1.11329,1.742769 1.11329,0.72461 v 10.65039 h -1.00782 v -10.65039 c 0,-0.282906 -0.0809,-0.469662 -0.10547,-0.72461 z m 96.47852,0.605469 c -5.7e-4,0.04135 -0.0215,0.08175 -0.0215,0.123047 v 7.759766 c -0.85232,-1.282993 -1.4961,-2.700757 -1.4961,-4.09375 0,-1.322515 0.6362,-2.635618 1.51758,-3.789063 z m -14.66211,0.148438 c 0.75392,0.907662 1.11719,1.748881 1.11719,0.730468 v 10.648438 h -1.00977 V 37.162109 c 0,-0.28535 -0.0825,-0.47358 -0.10742,-0.730468 z m -49.6543,0.523437 v 0.183594 a 4.5089486,4.5089486 0 0 0 0.75977,1.835937 4.5089486,4.5089486 0 0 0 -0.75781,1.830078 v 4.072266 c -1.01741,-1.233099 -1.74219,-2.604467 -1.74219,-4.072266 0,-1.335762 0.72381,-2.64971 1.74023,-3.849609 z m 112.67579,0.0059 c 1.01441,1.19924 1.73747,2.513618 1.73828,3.847657 -9.9e-4,1.463444 -0.7241,2.831706 -1.73828,4.0625 z m -16.59766,0.150391 v 7.601563 c -0.8757,-1.183599 -1.49609,-2.486039 -1.49609,-3.908204 0,-1.298947 0.6202,-2.544628 1.49609,-3.693359 z m -136.83203,0.806641 c 0.0126,0.0073 0.03,0.0058 0.041,0.01367 0.13487,0.09636 0.0375,0.184052 -0.0918,0.0039 0.0179,-0.005 0.0333,-0.01276 0.0508,-0.01758 z m 81.8164,0.757812 c 0.0128,0.0073 0.0299,0.0077 0.041,0.01563 0.13545,0.09684 0.0377,0.183377 -0.0918,0.002 0.018,-0.0051 0.0333,-0.01275 0.0508,-0.01758 z"
     id="path1" /><path
     style="baseline-shift:baseline;display:inline;overflow:visible;vector-effect:none;fill:#ff0000;stroke-linecap:round;stroke-linejoin:round;paint-order:markers stroke fill;enable-background:accumulate;stop-color:#000000;stop-opacity:1"
     d="m 287.006,29.216 a 5.043,5.043 0 0 1 -5.036,-5.035 c 0,-2.959 2.213,-5.28 5.036,-5.28 2.729,0 5.036,2.417 5.036,5.28 0,2.681 -2.35,5.035 -5.036,5.035 z m 0,-9.533 c -2.427,0 -4.253,1.934 -4.253,4.5 a 4.26,4.26 0 0 0 4.253,4.254 c 2.229,0 4.254,-2.028 4.254,-4.254 0,-2.399 -1.984,-4.5 -4.254,-4.5 z m 0.884,6.647 -0.863,-1.515 h -1.096 v 1.321 h -0.779 V 21.59 h 2.104 c 0.979,0 1.488,0.813 1.488,1.613 0,0.615 -0.303,1.238 -0.885,1.492 l 0.711,1.248 z m -1.959,-2.294 h 1.321 c 0.22,0 0.396,-0.079 0.521,-0.235 a 0.973,0.973 0 0 0 0.188,-0.597 c 0,-0.311 -0.151,-0.832 -0.709,-0.832 h -1.321 z M 90.208839,51.562229 v -32.5145 H 80.430846 V 41.782527 L 66.00529,19.046572 H 55.496417 v 32.515657 h 9.777992 V 28.093491 l 15.15534,23.468738 z m 15.891711,0 V 29.560214 h -9.777997 v 22.002015 z m 0,-26.647605 v -5.868052 h -9.777997 v 5.866895 z m 34.22407,26.647605 V 36.402996 c 0,-3.177709 -6.11152,-7.57788 -9.28855,-7.57788 h -2.93449 c -2.19923,0 -4.64537,1.956404 -6.8457,2.934605 v -2.199507 h -9.77799 v 22.002015 h 9.77799 V 36.402996 c 0,-1.466724 3.42175,-3.177709 4.8901,-3.177709 1.46725,0 4.15482,1.710985 4.15482,3.177709 v 15.158075 z m 81.82127,0.757093 V 37.162405 c 0,-3.178867 -6.10932,-7.57788 -9.29403,-7.57788 h -2.9312 c -2.20142,0 -4.64647,1.956403 -6.84789,2.93229 v -2.199507 h -9.77799 V 52.32048 h 9.77799 V 37.162405 c 0,-1.465567 3.42394,-3.178867 4.89009,-3.178867 1.46725,0 4.15483,1.7133 4.15483,3.178867 V 52.319322 Z M 156.21632,51.562229 V 29.560214 h 5.13372 v -2.933447 h -5.13372 v -4.64559 H 146.1947 v 4.64559 h -5.13481 v 2.933447 h 5.13591 v 22.002015 z m 18.82291,-22.735955 c -7.82239,0 -14.42226,5.378373 -14.42226,11.979209 0,6.846254 6.59987,12.222312 14.42226,12.222312 6.84569,0 12.46886,-3.910492 13.93611,-9.044604 h -10.02052 v 2.934605 c 0,2.444926 -1.70978,3.180024 -3.9101,3.180024 -2.20032,0 -3.66867,-0.735098 -3.66867,-3.180024 v -6.112313 h 18.09313 c -0.004,-6.599679 -6.35954,-11.979209 -14.42995,-11.979209 z m 0,2.199507 c 2.20142,0 3.9123,1.467881 3.9123,3.912806 v 2.199507 h -7.57877 v -2.199507 c 0,-2.444925 1.46725,-3.912806 3.66647,-3.912806 z m 96.32585,-2.199507 c -8.06822,0 -14.42556,5.378373 -14.42556,11.979209 0,6.846254 6.35405,12.222312 14.42556,12.222312 7.818,0 14.42226,-5.376058 14.42226,-12.222312 -0.004,-6.599679 -6.60316,-11.979209 -14.42226,-11.979209 z m 0,2.199507 c 2.19483,0 3.66647,1.467881 3.66647,3.912806 v 11.978052 c 0,2.44261 -1.47054,3.178866 -3.66537,3.178866 -2.44505,0 -3.91449,-0.733941 -3.91449,-3.178866 V 34.938587 c -0.002,-2.444925 1.46724,-3.912806 3.91339,-3.912806 z M 243.24814,19.046572 v 11.979209 c 0,0 -2.9356,-2.199507 -6.84789,-2.199507 -6.11042,0 -11.24414,5.378373 -11.24414,11.246425 0,6.112314 5.13591,12.224628 11.24414,12.224628 3.91229,0 6.84789,-1.467881 6.84789,-1.467881 v 0.731625 h 9.77909 V 19.047729 Z m -3.66757,13.44709 c 2.19922,0 3.66757,1.712142 3.66757,3.911649 v 9.044604 c 0,2.201822 -1.46835,2.934605 -3.66757,2.934605 -2.44286,0 -3.9123,-0.732783 -3.9123,-2.934605 v -9.044604 c 0,-2.199507 1.46944,-3.912807 3.9123,-3.912807 z M 277.72571,70.45252 H 62.576956 C 43.153759,70.45252 27.348748,54.649642 27.348748,35.225681 27.348748,15.800563 43.154857,0 62.575859,0 H 277.72461 c 19.4243,0 35.22711,15.80172 35.22711,35.226839 0,19.422803 -15.80062,35.225681 -35.22711,35.225681 z M 62.576956,8.3338157 c -14.829406,0 -26.895514,12.0625583 -26.895514,26.8941803 0,14.829307 12.065011,26.894181 26.895514,26.894181 H 277.72352 c 14.82611,0 26.89661,-12.064874 26.89661,-26.894181 0,-14.829306 -12.06721,-26.8941803 -26.89661,-26.8941803 z"
     id="path2" /></g>
    
    
    <g
   id="path9"
   style="opacity:1"><path
     style="baseline-shift:baseline;display:inline;overflow:visible;vector-effect:none;fill:#ffffff;stroke-linecap:round;stroke-linejoin:round;paint-order:markers stroke fill;enable-background:accumulate;stop-color:#000000;stop-opacity:1"
     d="m 28.324219,78.761719 a 4.0004,4.0004 0 0 0 -4,4 v 11.324218 c 0,2.543046 1.607843,4.636218 3.261718,5.710938 1.653876,1.074715 3.466331,1.523435 5.345704,1.523435 h 13.820312 a 4.0004,4.0004 0 0 0 1.882813,-0.78125 4.0004,4.0004 0 0 0 1.884765,0.78125 h 5.445313 a 4.0004,4.0004 0 0 0 4,-3.999998 v -7.146484 h 3.515625 v 7.146484 a 4.0004,4.0004 0 0 0 4,3.999998 h 5.234375 a 4.0004,4.0004 0 0 0 4,-3.999998 v -7.146484 h 1.21289 v 7.146484 a 4.0004,4.0004 0 0 0 4,3.999998 h 5.234375 a 4.0004,4.0004 0 0 0 4,-3.999998 v -7.146484 h 1.22461 v 4.09375 c 0,2.543468 1.606224,4.636435 3.259765,5.710938 1.653542,1.074504 3.465905,1.523434 5.345706,1.523434 h 13.82226 a 4.0004,4.0004 0 0 0 2.09571,-0.86718 4.0004,4.0004 0 0 0 1.66015,0.6875 h 5.44532 a 4.0004,4.0004 0 0 0 3.98046,-3.955083 h 1.87891 a 4.0004,4.0004 0 0 0 3.98047,3.955083 h 4.60742 a 4.0004,4.0004 0 0 0 4,-4.000004 v -3.955079 c 0,-0.77392 -0.12456,-1.217038 -0.25,-1.599609 0.23046,-0.369676 0.43298,-0.780589 0.64063,-1.337891 h 1.10156 v 7.146485 a 4.0004,4.0004 0 0 0 4,3.999998 h 5.23437 a 4.0004,4.0004 0 0 0 4,-3.999998 v -7.146485 h 1.77344 v 6.892579 a 4.0004,4.0004 0 0 0 4,4.000004 h 5.44141 a 4.0004,4.0004 0 0 0 3.98047,-3.955083 h 1.8789 a 4.0004,4.0004 0 0 0 3.98047,3.955083 h 5.44336 a 4.0004,4.0004 0 0 0 1.88867,-0.78321 4.0004,4.0004 0 0 0 1.88477,0.78125 h 5.23242 a 4.0004,4.0004 0 0 0 1.56445,-0.64843 4.0004,4.0004 0 0 0 1.5625,0.64843 h 5.44141 a 4.0004,4.0004 0 0 0 4,-3.999998 v -7.146484 h 3.51562 v 7.146484 a 4.0004,4.0004 0 0 0 4,3.999998 h 5.23633 a 4.0004,4.0004 0 0 0 1.89258,-0.78515 4.0004,4.0004 0 0 0 1.89258,0.78515 h 5.44336 a 4.0004,4.0004 0 0 0 3.03515,-1.673826 4.0004,4.0004 0 0 0 3.03711,1.673826 h 5.44532 a 4.0004,4.0004 0 0 0 3.03515,-1.671873 4.0004,4.0004 0 0 0 3.03711,1.671873 h 5.23438 a 4.0004,4.0004 0 0 0 3.01562,-1.623044 c 0.0357,0.0242 0.0619,0.07635 0.0977,0.09961 1.65386,1.074355 3.46786,1.523435 5.34765,1.523435 h 13.81446 a 4.0004,4.0004 0 0 0 0.004,0.002 h 0.002 a 4.0004,4.0004 0 0 0 1.43945,-0.65039 4.0004,4.0004 0 0 0 1.56445,0.64843 h 5.44141 a 4.0004,4.0004 0 0 0 4,-3.999998 v -7.146484 h 3.51562 v 7.146484 a 4.0004,4.0004 0 0 0 4,3.999998 h 5.23828 a 4.0004,4.0004 0 0 0 4,-3.999998 v -7.146484 h 1.97657 v 7.146484 a 4.0004,4.0004 0 0 0 4,3.999998 h 5.23242 a 4.0004,4.0004 0 0 0 4,-3.999998 v -7.146484 h 2.91016 a 4.0004,4.0004 0 0 0 4,-4 v -3.234375 a 4.0004,4.0004 0 0 0 -4,-4 h -19.05274 a 4.0004,4.0004 0 0 0 -2.98047,1.537109 c -1.34718,-0.885105 -2.8734,-1.539062 -4.69336,-1.539062 h -17.58789 a 4.0004,4.0004 0 0 0 -1.29101,0.535156 4.0004,4.0004 0 0 0 -1.71485,-0.710937 h -18.42773 a 4.0004,4.0004 0 0 0 -3.19727,2.0625 C 249.26779,79.719132 247.52991,78.9375 245.45898,78.9375 h -23.66015 a 4.0004,4.0004 0 0 0 -3.125,1.888672 C 217.22092,79.719561 215.48076,78.9375 213.4082,78.9375 h -17.58789 a 4.0004,4.0004 0 0 0 -1.5625,0.648437 4.0004,4.0004 0 0 0 -1.56445,-0.648437 h -5.23242 a 4.0004,4.0004 0 0 0 -3.14844,1.943359 c -1.04227,-1.001666 -2.2783,-1.941406 -4.60352,-1.941406 h -12.97851 c -1.97109,0 -3.05305,0.627444 -3.91992,1.378906 a 4.0004,4.0004 0 0 0 -2.71094,-1.123047 h -19.05274 a 4.0004,4.0004 0 0 0 -1.93164,0.798829 c -0.82372,-0.600563 -1.88756,-1.052735 -3.58203,-1.052735 l -16.96093,-0.002 a 4.0004,4.0004 0 0 0 -1.88086,0.779297 4.0004,4.0004 0 0 0 -1.87696,-0.777344 H 96.386719 a 4.0004,4.0004 0 0 0 -1.15625,0.478516 4.0004,4.0004 0 0 0 -1.158203,-0.480469 H 75.019531 a 4.0004,4.0004 0 0 0 -2.818359,1.167969 C 70.988519,79.437417 69.6637,78.9375 68.109375,78.9375 H 50.519531 A 4.0004,4.0004 0 0 0 48.847656,79.630859 4.0004,4.0004 0 0 0 46.75,78.761719 Z M 141.64844,92.697266 c -0.1133,0.273303 -0.22623,0.337639 -0.20899,0.310546 0.0136,-0.02143 0.14139,-0.212057 0.20899,-0.310546 z"
     id="path3" /><path
     style="baseline-shift:baseline;display:inline;overflow:visible;vector-effect:none;stroke-linecap:round;stroke-linejoin:round;paint-order:markers stroke fill;enable-background:accumulate;stop-color:#000000;stop-opacity:1"
     d="m 300.61406,82.939011 v 3.23554 h 5.4422 c 1.46718,0 1.46718,0 1.46718,1.43908 v 9.705885 h 5.23322 v -9.705885 c 0,-1.43908 0,-1.43908 1.67446,-1.43908 h 5.23407 v -3.23554 z m -182.04308,0 v 14.382711 h 5.44391 v -2.514897 c 0,-0.719908 0.62782,-1.440551 1.46547,-1.440551 h 6.91025 c 0.83851,0 1.46547,0.719908 1.46547,1.440551 v 2.514897 h 4.60711 v -3.955448 c 0,-0.536805 -0.62696,-1.256713 -0.62696,-1.976621 0,-0.536805 1.46547,-1.794989 1.46547,-3.232598 V 86.8974 c 0,-1.26039 -2.30312,-3.956918 -3.7686,-3.956918 z m 6.90938,3.23554 h 6.91025 c 0.83851,0 1.46461,0.719908 1.46461,1.43908 v 1.257449 c 0,0.719907 -0.62696,1.259654 -1.46461,1.259654 h -6.91025 c -0.83765,0 -1.46547,-0.539011 -1.46547,-1.259654 v -1.257449 c 8.6e-4,-0.717701 0.62782,-1.43908 1.46547,-1.43908 z m 41.2499,-3.23554 c -1.46633,0 -3.76774,2.696529 -3.76774,3.956919 v 10.425792 h 5.4422 v -3.955448 h 9.84033 v 3.955448 h 5.44305 V 86.89593 c 0,-1.26039 -2.30227,-3.956919 -3.97929,-3.956919 z m 3.14079,3.23554 h 6.90853 c 0.62524,0 1.46547,0.719908 1.46547,1.43908 v 2.516368 h -9.84033 v -2.516368 c 0,-0.717701 0.62867,-1.43908 1.46633,-1.43908 z m 22.8223,11.144965 V 82.937541 h -5.23322 v 14.38271 h 5.23322 z m -119.978524,0 V 86.892253 c 0,-1.976621 -2.303129,-3.955448 -4.606257,-3.955448 H 50.520341 v 14.383446 h 5.444771 v -9.70662 c 0,-0.719907 0.626957,-1.43908 1.465471,-1.43908 h 8.374001 c 0.838513,0 1.67617,0.719908 1.67617,1.43908 v 9.705885 z m 145.298374,0 V 86.892253 c 0,-1.976621 -2.30227,-3.955448 -4.60455,-3.955448 h -17.58822 v 14.383446 h 5.4422 v -9.70662 c 0,-0.719907 0.63038,-1.43908 1.46718,-1.43908 h 8.37572 c 0.83851,0 1.67274,0.719908 1.67274,1.43908 v 9.705885 z m 79.53288,0 V 86.892253 c 0,-1.976621 -2.30228,-3.955448 -4.60712,-3.955448 h -17.58823 v 14.383446 h 5.44221 v -9.70662 c 0,-0.719907 0.62695,-1.43908 1.46889,-1.43908 h 8.37229 c 0.83851,0 1.67446,0.719908 1.67446,1.43908 v 9.705885 z m -47.48008,0 V 86.892253 c 0,-1.976621 -2.30227,-3.955448 -4.60712,-3.955448 h -23.66081 v 14.383446 h 5.44477 v -9.70662 c 0,-0.719907 0.62525,-1.43908 1.46376,-1.43908 h 3.14164 c 0.62867,0 1.46633,0.719908 1.46633,1.43908 v 9.705885 h 5.44563 v -9.705885 c 0,-0.719907 0.62524,-1.43908 1.46376,-1.43908 h 3.14164 c 0.62696,0 1.46547,0.719908 1.46547,1.43908 v 9.705885 z m -203.314259,0 H 32.932113 c -2.302272,0 -4.607113,-1.257449 -4.607113,-3.234069 v -11.32439 h 18.425884 v 3.416436 H 34.396729 c -0.626959,0 -1.465472,0.539011 -1.465472,1.258919 0,0.719907 0.838513,1.258919 1.465472,1.258919 h 11.516499 v 2.875954 H 34.396729 c -0.626959,0 -1.465472,0.719908 -1.465472,1.258919 0,0.719908 0.838513,1.437609 1.465472,1.437609 h 12.354155 z m 68.061769,0.181631 h -13.82048 c -2.302272,0 -4.607114,-1.258184 -4.607114,-3.233334 V 82.940482 h 18.427594 v 3.415701 h -12.35587 c -0.6261,0 -1.46461,0.539747 -1.46461,1.261125 0,0.721378 0.83851,1.258184 1.46461,1.258184 h 11.5165 v 2.875218 h -11.5165 c -0.6261,0 -1.46461,0.719908 -1.46461,1.26039 0,0.719908 0.83851,1.436874 1.46461,1.436874 h 12.35587 z M 272.34785,97.319516 H 258.5265 c -2.30227,0 -4.60882,-1.258184 -4.60882,-3.234069 v -11.32439 h 18.42845 v 3.416436 h -12.35415 c -0.62696,0 -1.4689,0.539011 -1.4689,1.258919 0,0.719907 0.83851,1.258919 1.4689,1.258919 h 11.51307 v 2.875954 h -11.51307 c -0.62696,0 -1.4689,0.719908 -1.4689,1.258919 0,0.719908 0.83851,1.437609 1.4689,1.437609 h 12.35415 v 3.053909 h 0.002 z M 141.04604,83.194996 v 3.23554 h 5.44306 c 1.46632,0 1.46632,0 1.46632,1.43908 v 9.705885 h 5.23408 v -9.705885 c 0,-1.43908 0,-1.43908 1.67531,-1.43908 h 5.23407 v -3.23554 z M 75.01881,82.939011 v 3.23554 h 5.443058 c 1.466328,0 1.466328,0 1.466328,1.43908 v 9.705885 h 5.234072 v -9.705885 c 0,-1.43908 0,-1.43908 1.675314,-1.43908 h 5.234071 v -3.23554 z"
     id="path4" /></g>
    <g
   style="fill:#000;fill-opacity:1;stroke:#ffffff;stroke-opacity:1;stroke-width:0;stroke-dasharray:none;stroke-linecap:round;stroke-linejoin:round;paint-order:markers stroke fill"
   id="g10">
        
    </g>
    <g
   id="path11"
   style="opacity:1"
   transform="matrix(.8565 0 0 .73535 28.325 24.35)"><path
     style="baseline-shift:baseline;display:inline;overflow:visible;vector-effect:none;fill:#ffffff;stroke-linecap:round;stroke-linejoin:round;paint-order:markers stroke fill;enable-background:accumulate;stop-color:#000000;stop-opacity:1"
     d="m 191.96484,101.17969 a 5.0407214,5.0407214 0 0 0 -1.64453,0.68164 5.0407214,5.0407214 0 0 0 -1.05859,-0.43945 h -22.24414 a 5.0407214,5.0407214 0 0 0 -1.50586,0.62304 5.0407214,5.0407214 0 0 0 -1.26953,-0.52539 h -17.84571 a 5.0407214,5.0407214 0 0 0 -0.0195,0.008 c -2.2766,0.004 -3.55367,0.62351 -4.66992,1.38086 a 5.0407214,5.0407214 0 0 0 -3.33984,-1.38281 h -6.11133 a 5.0407214,5.0407214 0 0 0 -5.04102,5.03906 v 3.76368 h -1.65429 v -3.76368 a 5.0407214,5.0407214 0 0 0 -5.03907,-5.03906 h -6.10937 a 5.0407214,5.0407214 0 0 0 -0.9707,0.40234 5.0407214,5.0407214 0 0 0 -0.98633,-0.4082 H 94.611328 a 5.0407214,5.0407214 0 0 0 -0.01953,0.008 c -3.477563,0.006 -4.740285,1.31125 -6.419922,2.62696 -0.84165,0.65929 -1.634123,1.3952 -2.367188,2.36914 -0.733064,0.97393 -1.613281,2.20893 -1.613281,4.43945 v 2.68945 c 0,2.22651 0.878019,3.46417 1.611328,4.43946 0.0012,0.002 0.0027,0.002 0.0039,0.004 a 5.0407214,5.0407214 0 0 0 -1.615235,3.6211 v 4.39843 a 5.0407214,5.0407214 0 0 0 5.041016,5.04102 h 18.089848 c 3.49387,0 4.79304,-1.36601 6.42382,-2.7168 1.16859,-0.96794 2.56077,-1.87828 3.27149,-3.84375 0.35101,0.0706 0.74445,0.10954 1.15234,0.13672 v 1.38867 a 5.0407214,5.0407214 0 0 0 5.04102,5.04102 h 6.35547 a 5.0407214,5.0407214 0 0 0 5.04101,-5.04102 v -1.38867 c 0.48494,-0.0322 0.96359,-0.0696 1.36914,-0.16211 v 1.54492 a 5.0407214,5.0407214 0 0 0 5.04102,5.04102 h 18.08984 c 3.49387,0 4.79305,-1.36601 6.42383,-2.7168 1.63078,-1.35078 3.75,-2.50701 3.75,-6.72265 v -2.6875 c 0,-1.29749 -0.26914,-2.27014 -0.62695,-3.12891 h 1.38867 v 10.11524 a 5.0407214,5.0407214 0 0 0 5.03906,5.04101 h 6.11133 a 5.0407214,5.0407214 0 0 0 5.04101,-5.04101 v -10.11524 h 0.68946 v 5.72266 c 0,3.0252 1.67355,5.70448 3.67773,7.22265 2.00418,1.51817 4.32557,2.21485 6.74024,2.21485 h 16.13672 a 5.0407214,5.0407214 0 0 0 2.18554,-0.90625 5.0407214,5.0407214 0 0 0 2.19141,0.9082 h 6.35351 a 5.0407214,5.0407214 0 0 0 3.54688,-1.46875 5.0407214,5.0407214 0 0 0 3.54297,1.4668 h 6.35351 a 5.0407214,5.0407214 0 0 0 3.54688,-1.46875 5.0407214,5.0407214 0 0 0 3.54687,1.46875 h 3.80469 l -1.50391,-1.74024 a 5.0407214,5.0407214 0 0 0 8.85157,-3.29687 V 111.8418 c 0,-3.02468 -1.35568,-5.46078 -3.15625,-7.26172 -1.80058,-1.80095 -4.23796,-3.15821 -7.26367,-3.1582 h -27.62305 a 5.0407214,5.0407214 0 0 0 -1.89649,0.78515 5.0407214,5.0407214 0 0 0 -2.48242,-1.02734 z"
     id="path6" /><path
     style="baseline-shift:baseline;display:inline;overflow:visible;vector-effect:none;stroke-linecap:round;stroke-linejoin:round;paint-order:markers stroke fill;enable-background:accumulate;stop-color:#000000;stop-opacity:1"
     d="m 213.479,126.021 h -16.137 c -2.688,0 -5.377,-1.713 -5.377,-4.397 V 106.22 h 21.512 v 4.646 h -14.422 c -0.732,0 -1.713,0.732 -1.713,1.711 0,0.979 0.979,1.712 1.713,1.712 h 13.443 v 3.911 h -13.443 c -0.732,0 -1.713,0.979 -1.713,1.713 0,0.979 0.979,1.954 1.713,1.954 h 14.422 z m -46.462,-19.559 v 4.398 h 6.355 c 1.711,0 1.711,0 1.711,1.957 v 13.199 h 6.111 v -13.199 c 0,-1.957 0,-1.957 1.959,-1.957 h 6.109 v -4.398 z m -72.406,0.103 c -1.712,0 -5.379,2.689 -5.379,4.397 v 2.69 c 0,1.713 3.667,4.4 5.379,4.4 h 10.756 c 0.978,0 1.956,0.979 1.956,1.711 0,0.978 -0.979,1.954 -1.956,1.954 H 89.232 v 4.399 h 18.09 c 1.712,0 5.134,-2.688 5.134,-4.399 v -2.688 c 0,-1.957 -3.422,-4.646 -5.134,-4.646 H 96.566 c -0.979,0 -1.955,-0.733 -1.955,-1.713 0,-0.978 0.977,-1.713 1.955,-1.713 h 15.89 V 106.56 H 94.611 Z m 51.786,0 c -1.713,0 -5.38,2.689 -5.38,4.397 v 2.69 c 0,1.713 3.667,4.4 5.38,4.4 h 10.756 c 0.978,0 1.956,0.979 1.956,1.711 0,0.978 -0.979,1.954 -1.956,1.954 h -16.136 v 4.399 h 18.091 c 1.712,0 5.134,-2.688 5.134,-4.399 v -2.688 c 0,-1.957 -3.422,-4.646 -5.134,-4.646 h -10.757 c -0.978,0 -1.955,-0.733 -1.955,-1.713 0,-0.978 0.978,-1.713 1.955,-1.713 h 15.891 v -4.397 h -17.845 z m -31.985,0 v 8.804 c 0,1.71 2.688,4.399 4.4,4.399 h 4.398 v 6.354 h 6.357 v -6.354 h 4.4 c 1.71,0 4.4,-2.689 4.4,-4.399 v -8.804 h -6.112 v 7.092 c 0,0.732 -0.978,1.712 -1.956,1.712 h -7.822 c -0.979,0 -1.956,-0.979 -1.956,-1.712 v -7.092 z m 136.44608,19.4579 v -14.18029 c 0,-2.68863 -2.68909,-5.37993 -5.38049,-5.37993 h -27.62271 v 19.55888 h 6.35393 v -13.20054 c 0,-0.97841 0.73181,-1.95682 1.70987,-1.95682 h 3.66715 c 0.73297,0 1.71334,0.97841 1.71334,1.95682 v 13.19921 h 6.35393 v -13.19921 c 0,-0.97841 0.73066,-1.95682 1.70872,-1.95682 h 3.6683 c 0.73182,0 1.71566,0.97841 1.71566,1.95682 v 13.19921 h 6.10999 z"
     id="path7" /></g>
<g
   id="path19"
   style="opacity:1"
   transform="translate(-0.501)"><path
     style="baseline-shift:baseline;display:inline;overflow:visible;vector-effect:none;fill:#ffffff;fill-rule:evenodd;stroke-linecap:round;stroke-linejoin:round;paint-order:markers stroke fill;enable-background:accumulate;stop-color:#000000;stop-opacity:1"
     d="m 174.63281,23.941406 c -25.26721,-0.02596 -50.60649,-0.009 -69.87304,0.06055 -9.63328,0.03477 -17.747036,0.08346 -23.580083,0.144531 -2.916523,0.03054 -5.262117,0.06396 -6.947265,0.101563 -0.842574,0.0188 -1.519028,0.03941 -2.027344,0.06055 -0.508316,0.02114 -0.729253,0.01177 -1.134766,0.08594 l -2.65625,0.486328 a 1.5180818,1.5180818 0 0 0 0.220704,3.009766 l 5.501953,0.189453 c 1.577056,0.05438 3.008908,0.149107 4.074218,0.257813 0.532656,0.05435 0.975528,0.112519 1.277344,0.166015 0.301817,0.0535 0.564139,0.206941 0.234375,0.01758 -0.345469,-0.198381 -0.05916,-0.03287 0.142578,0.197266 0.201743,0.230136 0.478085,0.571084 0.791016,0.980469 0.625863,0.81877 1.403454,1.913489 2.160156,3.058593 l 2.81836,4.265625 a 1.5180818,1.5180818 0 0 0 2.783203,-0.792968 l 0.109375,-3.632813 c 0.04913,-1.650961 0.117934,-2.545956 0.205078,-2.916015 0.08714,-0.37006 0.04965,-0.280118 0.4375,-0.667969 0.52027,-0.52027 0.614115,-0.617904 1.611328,-0.759766 0.997213,-0.141862 2.812226,-0.141879 5.933594,-0.03125 6.698836,0.237455 5.906216,0.236995 12.878906,0.0039 2.46962,-0.08256 3.98706,-0.103353 4.91406,-0.05078 0.927,0.05257 1.15945,0.136319 1.44727,0.285156 0.61374,0.317379 0.85032,0.562463 1.0918,1.15625 0.24147,0.593788 0.40234,1.618557 0.40234,3.189454 v 2.865234 a 1.5180818,1.5180818 0 0 0 1.5,1.517578 l 5.4082,0.06836 c 6.44035,0.08057 6.24007,0.07708 9.4082,-0.523437 2.17296,-0.411885 4.55113,-0.247036 7.35352,0.576172 0.54406,0.159819 1.41078,0.120005 1.99609,-0.265625 0.58531,-0.385631 0.86806,-0.856267 1.15821,-1.373047 0.3004,-0.535056 0.35617,-0.596464 1.4414,-0.886719 0.70237,-0.187854 1.25191,-0.355679 1.79883,-0.726562 0.54692,-0.370884 1.05469,-1.205048 1.05469,-1.910157 0,0.452171 -0.0282,0.178876 0.10351,-0.03711 0.13174,-0.215984 0.34912,-0.497552 0.56055,-0.708984 l 0.66406,-0.664063 h 5.49219 c 3.46631,0 5.43676,0.115484 6.30469,0.357422 0.43397,0.120969 0.55579,0.218677 0.6582,0.326172 0.10242,0.107495 0.22965,0.313093 0.39258,0.763672 0.22021,0.608976 0.50161,1.191266 1.00391,1.669922 0.50229,0.478655 1.15179,0.733642 1.75,0.859375 0.26761,0.05625 0.97067,0.420831 1.45312,0.847656 0.24123,0.213412 0.43709,0.439569 0.53711,0.587891 0.10003,0.148321 0.0527,0.222034 0.0527,-0.04492 0,0.201119 -0.0485,0.441265 0.1582,0.9375 0.20667,0.496235 1.01869,1.027063 1.49414,1.060547 0.95089,0.06697 1.20627,-0.190195 1.95703,-0.455079 5.30109,-1.870332 12.01173,-1.100019 16.41211,1.822266 l 1.31641,0.873047 a 1.5180818,1.5180818 0 0 0 1.99804,-0.283203 l 0.76953,-0.908203 c 0.60883,-0.718696 0.62235,-0.794582 1.55469,-0.976563 0.93235,-0.181981 2.77861,-0.232959 6.11133,-0.210937 1.8889,0.01248 3.60932,-0.01924 4.96094,-0.08594 0.67581,-0.03335 1.25917,-0.07624 1.74023,-0.128906 0.48106,-0.05267 0.78289,-0.06367 1.27539,-0.251953 0.30705,-0.117384 1.77235,-0.319326 3.23047,-0.289063 1.45812,0.03026 3.04209,0.229392 3.93359,0.494141 0.71415,0.212078 2.73725,1.2181 3.90625,2.027344 0.66387,0.459551 1.28262,0.882942 1.75196,1.197265 0.23467,0.157162 0.43107,0.286446 0.58398,0.384766 0.0765,0.04916 0.14118,0.09041 0.20508,0.128906 0.032,0.01925 0.0625,0.03606 0.10742,0.06055 0.0449,0.02448 0.0185,0.04619 0.32617,0.136719 0.58295,0.171609 0.78356,0.03037 0.92383,-0.01563 0.14028,-0.046 0.21054,-0.08511 0.27149,-0.117188 0.12188,-0.06415 0.19088,-0.110902 0.26562,-0.162109 0.14948,-0.102413 0.29496,-0.213338 0.46289,-0.347656 0.33586,-0.268637 0.74686,-0.621061 1.1836,-1.015625 1.11467,-1.007041 3.04292,-2.050186 4.94336,-2.701172 1.90043,-0.650986 3.84121,-0.86632 4.64648,-0.689453 l 1.11133,0.24414 a 1.5180818,1.5180818 0 0 0 1.84375,-1.482422 v -3.183593 c 0,-1.331934 0.0442,-2.108278 0.11523,-2.46875 0.071,-0.360472 0.0479,-0.293085 0.27344,-0.535157 0.51226,-0.549847 0.63043,-0.659817 1.52734,-0.835937 0.89691,-0.17612 2.53615,-0.246094 5.33789,-0.246094 1.99989,0 3.50704,0.04168 4.54493,0.191406 1.03789,0.14973 1.52585,0.386038 1.78711,0.63086 0.26125,0.244821 0.47789,0.639016 0.63281,1.582031 0.15492,0.943015 0.20312,2.344372 0.20312,4.214844 v 4.36914 a 1.5180818,1.5180818 0 0 0 2.33203,1.28125 l 1.80274,-1.146484 c 3.17208,-2.016467 9.41245,-3.118871 13.44531,-2.306641 l 1.375,0.277344 a 1.5180818,1.5180818 0 0 0 1.81055,-1.34375 l 0.18554,-1.93164 c 0.20717,-2.156089 1.35633,-3.791878 3.59961,-4.929688 l 2.03907,-1.035156 a 1.5180818,1.5180818 0 0 0 -0.0723,-2.740235 l -1.09375,-0.484375 c -0.34154,-0.151165 -0.37548,-0.115985 -0.46094,-0.128906 -0.0854,-0.01292 -0.15602,-0.02022 -0.23437,-0.02734 -0.15671,-0.01425 -0.33868,-0.02585 -0.5625,-0.03711 -0.44764,-0.02252 -1.06029,-0.04395 -1.8418,-0.06445 -1.56302,-0.04101 -3.793,-0.07881 -6.60351,-0.115234 -5.62103,-0.07285 -13.55913,-0.136985 -23.05079,-0.191407 -18.9833,-0.108844 -44.17809,-0.179112 -69.44531,-0.205078 z m -0.004,3.035156 c 22.0116,0.02262 42.65536,0.09161 60.49414,0.177735 -0.43592,0.483918 -0.84705,1.182524 -1,1.958984 -0.15757,0.7999 -0.17188,1.678334 -0.17188,3.054688 v 1.445312 c -1.71973,-0.190249 -3.60346,0.125922 -5.55078,0.792969 -2.21609,0.759112 -4.40498,1.884602 -5.99414,3.320312 -0.26946,0.243443 -0.48374,0.419947 -0.70703,0.607422 -0.44127,-0.296342 -0.99733,-0.674572 -1.61133,-1.099609 -1.46445,-1.013762 -3.34528,-2.01845 -4.76953,-2.441406 -1.36468,-0.405266 -3.0761,-0.584683 -4.73633,-0.619141 -1.66022,-0.03446 -3.13784,0.01457 -4.37695,0.488281 0.17898,-0.06842 -0.13456,0.02795 -0.52149,0.07031 -0.38692,0.04236 -0.92291,0.08191 -1.55859,0.113281 -1.27136,0.06274 -2.9506,0.09421 -4.79297,0.08203 -3.35637,-0.02218 -5.241,-0.01933 -6.71094,0.267578 -1.46993,0.286912 -2.52986,1.095626 -3.29101,1.994141 l 0.10351,-0.121094 -0.1914,-0.126953 c -5.34186,-3.547515 -12.83219,-4.368213 -19.10157,-2.15625 -0.0176,0.0062 -2e-4,0.0019 -0.0176,0.0078 -0.0567,-0.09504 -0.0572,-0.250833 -0.11719,-0.339844 -0.29199,-0.432977 -0.64563,-0.812535 -1.04297,-1.164063 -0.79468,-0.703055 -1.71696,-1.30891 -2.83984,-1.544921 -0.28641,-0.0602 -0.27599,-0.08287 -0.28125,-0.08789 -0.005,-0.005 -0.0999,-0.110368 -0.24219,-0.503906 -0.22796,-0.63042 -0.52271,-1.271898 -1.05078,-1.826172 -0.52808,-0.554274 -1.24664,-0.933407 -2.03906,-1.154297 -1.58485,-0.44178 -3.61323,-0.46875 -7.1211,-0.46875 h -6.12109 a 1.5180818,1.5180818 0 0 0 -1.07227,0.443359 l -1.10937,1.109375 c -0.39867,0.39866 -0.73549,0.832094 -1.00586,1.275391 -0.17435,0.285858 -0.24957,0.683087 -0.35352,1.042969 -0.0532,0.02533 -0.2837,0.142045 -0.79687,0.279297 -1.45575,0.389353 -2.65558,1.179351 -3.30274,2.332031 -0.0789,0.140506 -0.03,0.07291 -0.0742,0.130859 -2.98089,-0.820875 -5.75567,-1.056506 -8.35156,-0.564453 -3.21108,0.608661 -2.35521,0.549463 -8.80664,0.46875 l -3.9082,-0.04883 v -1.365234 c 0,-1.754361 -0.1389,-3.133851 -0.62695,-4.333985 -0.22195,-0.545759 -0.55639,-1.017661 -0.9336,-1.445312 17.11879,-0.03919 35.55833,-0.07148 55.70313,-0.05078 z m -87.769535,0.171875 c -0.440268,0.490534 -0.902112,1.073857 -1.082031,1.837891 -0.1442,0.612349 -0.159163,1.543064 -0.197266,2.447266 l -0.230469,-0.347657 c -0.7931,-1.200185 -1.600269,-2.339591 -2.28125,-3.230468 -0.20384,-0.266669 -0.371103,-0.462004 -0.550781,-0.681641 1.11892,-0.01095 3.075021,-0.01534 4.341797,-0.02539 z m 166.183595,0.107422 c 4.97602,0.03766 10.62683,0.07286 14.04687,0.117188 2.4172,0.03133 4.17166,0.06526 5.65821,0.09961 -1.9314,1.550926 -3.17459,3.685082 -3.41016,6.136719 l -0.0273,0.287109 c -4.80279,-0.888771 -10.78304,0.110235 -14.86719,2.492188 v -1.6875 c 0,-1.911477 -0.0299,-3.414993 -0.24219,-4.707031 -0.17177,-1.045626 -0.56444,-1.960917 -1.1582,-2.738282 z m -82.54492,8.615235 c 5.8e-4,0.0014 0.003,0.0026 0.004,0.0039 0.13974,0.335511 0.0762,0.34137 0.0762,0.230469 0,-0.104235 -0.0696,-0.139691 -0.0801,-0.234375 z"
     id="path8" /><path
     style="baseline-shift:baseline;display:inline;overflow:visible;vector-effect:none;fill:#ffffff;fill-rule:evenodd;stroke-linecap:round;stroke-linejoin:round;paint-order:markers stroke fill;enable-background:accumulate;stop-color:#000000;stop-opacity:1"
     d="m 219.22386,38.483263 c -1.31673,-0.911503 -3.26886,-1.917064 -4.33806,-2.234581 -2.25618,-0.670015 -6.5917,-0.759998 -8.13786,-0.1689 -0.62705,0.23972 -3.69385,0.391054 -7.42512,0.366399 -6.68909,-0.0442 -7.46413,0.107079 -8.8341,1.72429 l -0.7706,0.909664 -1.31656,-0.874327 c -4.87112,-3.2349 -11.97108,-4.030257 -17.75631,-1.989109 -1.47441,0.520204 -1.58568,0.512368 -1.58568,-0.111673 0,-0.937921 -1.85901,-2.582591 -3.24951,-2.87485 -0.88462,-0.185931 -1.27617,-0.559054 -1.63868,-1.561568 -0.78179,-2.161998 -1.80936,-2.448436 -8.78354,-2.448436 h -6.11976 l -1.10925,1.109258 c -0.6101,0.610091 -1.10926,1.428509 -1.10926,1.818707 0,0.521385 -0.45795,0.831931 -1.72754,1.171495 -1.27049,0.339804 -1.89798,0.76562 -2.37176,1.609488 -0.48503,0.863875 -0.8318,1.092345 -1.4032,0.924495 -2.97544,-0.874042 -5.61644,-1.073761 -8.06401,-0.609822 -3.18961,0.604591 -2.6617,0.575885 -9.10759,0.495241 l -5.40763,-0.06765 v -2.864966 c 0,-3.325257 -0.60286,-4.807721 -2.31523,-5.69322 -0.97126,-0.502262 -2.14803,-0.568999 -7.10888,-0.403164 -6.97711,0.233236 -6.072,0.233525 -12.775627,-0.0041 -6.274156,-0.222373 -7.372455,-0.06613 -8.672295,1.233709 -0.895107,0.895107 -0.987122,1.285854 -1.086108,4.612199 L 86.901551,36.186081 84.083726,31.92187 C 82.533923,29.57658 80.911634,27.454251 80.47864,27.20561 80.019399,26.941896 77.39871,26.674477 74.188879,26.563793 l -5.5025,-0.189741 2.656379,-0.485836 c 3.885028,-0.710549 203.256862,-0.505667 204.875022,0.210537 l 1.09278,0.483668 -2.03914,1.034264 c -2.61758,1.327653 -4.16733,3.478551 -4.42292,6.13859 l -0.18565,1.932092 -1.37401,-0.27673 c -4.53355,-0.91307 -10.89932,0.185781 -14.56104,2.513509 l -1.80254,1.145863 v -4.367883 c 0,-7.563897 -0.61299,-8.138333 -8.68456,-8.138333 -5.64125,0 -6.71316,0.210484 -7.97624,1.566239 -0.67653,0.726164 -0.79541,1.329682 -0.79541,4.037969 V 35.3522 l -1.11145,-0.244116 c -2.69764,-0.592501 -8.22996,1.30257 -10.93379,3.745321 -0.83511,0.754472 -1.58307,1.352725 -1.66213,1.329451 -0.0791,-0.02327 -1.22108,-0.788091 -2.53782,-1.699593 z"
     id="path10" /></g><g
   id="path20"
   style="opacity:1"
   transform="translate(-0.501)"><path
     style="baseline-shift:baseline;display:inline;overflow:visible;vector-effect:none;fill:#ffffff;fill-rule:evenodd;stroke-linecap:round;stroke-linejoin:round;paint-order:markers stroke fill;enable-background:accumulate;stop-color:#000000;stop-opacity:1"
     d="m 81.564453,51.195312 a 1.5180818,1.5180818 0 0 0 -1.111328,1.378907 l -0.207031,3.746093 c -0.115415,2.099585 -0.246353,3.240018 -0.394532,3.705079 -0.148178,0.46506 -0.12816,0.404335 -0.753906,0.824218 -0.314091,0.21076 -1.274852,0.461525 -4.77539,0.591797 -1.484528,0.05525 -2.52614,0.116368 -3.21875,0.205078 -0.173153,0.02218 -0.324279,0.04578 -0.486329,0.08203 -0.162049,0.03625 -0.28224,-0.0096 -0.722656,0.304687 -0.220208,0.157131 -0.69809,0.621872 -0.654297,1.357422 0.04379,0.73555 0.491298,1.064298 0.691407,1.199219 0.400217,0.269842 0.521565,0.245064 0.683593,0.283203 0.267916,0.06306 0.275085,0.04439 0.363282,0.05078 0.0882,0.0064 0.182445,0.0107 0.296875,0.01563 0.228859,0.0098 0.530192,0.0183 0.910156,0.02734 0.759928,0.01809 1.830964,0.03586 3.183594,0.05273 2.705258,0.03374 6.535775,0.06459 11.214843,0.0918 9.358138,0.05442 22.106506,0.09273 35.988286,0.101563 l 50.4707,0.0332 a 1.5180818,1.5180818 0 0 0 0.49414,-2.953125 l -2.23438,-0.769532 c -1.04998,-0.361122 -2.95351,-1.279038 -3.85156,-1.853515 l -1.93945,-1.240235 a 1.5180818,1.5180818 0 0 0 -2.08789,0.447266 l -0.76563,1.167969 c -0.44265,0.675736 -0.65294,0.871274 -1.73047,1.103515 -1.07752,0.232242 -2.98508,0.289629 -6.04101,0.171875 -6.86871,-0.264632 -6.48455,-0.264009 -12.62305,0.0039 -2.87366,0.125422 -4.69087,0.10121 -5.78906,-0.08398 -1.09819,-0.185195 -1.41929,-0.396281 -1.92774,-0.9375 l -0.85156,-0.90625 a 1.5180818,1.5180818 0 0 0 -2.17969,-0.0332 l -1.05664,1.056641 c -0.47134,0.471327 -0.85022,0.694794 -2.03515,0.86914 -1.18494,0.174347 -3.09334,0.187052 -6.04492,0.04492 -5.49671,-0.264689 -4.64665,-0.264424 -11.25,-0.002 -3.97795,0.158118 -5.50133,0.036 -6.28907,-0.236328 -0.6806,-0.235288 -1.26337,-0.405675 -1.91992,-0.417969 -0.65655,-0.01229 -1.27599,0.170762 -1.82812,0.40625 0.0818,-0.03488 -0.68107,0.159871 -1.662113,0.240235 -0.981037,0.08036 -2.286746,0.129678 -3.804687,0.134765 -3.292501,0.01103 -4.713462,-0.06976 -5.599609,-0.554687 C 89.139243,60.41937 88.200086,59.185438 86.263672,56.3125 l -3.03711,-4.503906 a 1.5180818,1.5180818 0 0 0 -1.662109,-0.613282 z m 1.628906,5.994141 0.552735,0.820313 c 1.242922,1.844047 2.170034,3.071049 3.121093,4.066406 -0.06941,-4e-4 -0.196581,4.01e-4 -0.265625,0 -1.871052,-0.01088 -2.8994,-0.02504 -4.480468,-0.03711 0.243382,-0.33437 0.489402,-0.672353 0.623047,-1.091796 0.293154,-0.920068 0.356587,-2.183788 0.449218,-3.757813 z m 82.003911,4.519531 -0.0566,0.08789 0.63672,0.408203 -1.07031,-0.002 c 0.15042,-0.174873 0.36595,-0.304412 0.49024,-0.494141 z"
     id="path12" /><path
     style="baseline-shift:baseline;display:inline;overflow:visible;vector-effect:none;fill:#ffffff;fill-rule:evenodd;stroke-linecap:round;stroke-linejoin:round;paint-order:markers stroke fill;enable-background:accumulate;stop-color:#000000;stop-opacity:1"
     d="m 70.963276,63.395333 c -0.732738,-0.172476 0.484394,-0.328368 3.415344,-0.437443 3.5412,-0.131785 4.778761,-0.320425 5.565507,-0.848342 1.419186,-0.952293 1.585646,-1.474729 1.818277,-5.706686 l 0.205872,-3.745155 3.035862,4.504121 c 3.879174,5.755291 4.027951,5.836706 10.625517,5.814604 3.093922,-0.01037 5.352655,-0.195395 6.058075,-0.496264 0.92088,-0.392764 1.40247,-0.383746 2.65638,0.04974 1.15724,0.400067 2.8301,0.477867 6.84434,0.318307 6.60944,-0.262713 5.61177,-0.262911 11.11724,0.0022 5.96574,0.287273 7.86081,0.0084 9.22681,-1.357555 l 1.05679,-1.056786 0.85108,0.905931 c 1.37683,1.465569 3.07988,1.752767 8.89,1.499183 6.14217,-0.268076 5.62695,-0.267946 12.49859,-0.0032 6.18313,0.238254 7.90086,-0.13197 9.0991,-1.961143 l 0.76549,-1.168547 1.9396,1.240748 c 1.06678,0.682412 2.94566,1.586764 4.17529,2.009673 l 2.2357,0.768924 -50.47121,-0.03219 C 94.813767,63.677791 71.589422,63.542718 70.963276,63.395333 Z"
     id="path13" /></g><g
   id="path21"
   style="opacity:1"
   transform="translate(-0.501)"><path
     style="baseline-shift:baseline;display:inline;overflow:visible;vector-effect:none;fill:#ffffff;fill-rule:evenodd;stroke-linecap:round;stroke-linejoin:round;paint-order:markers stroke fill;enable-background:accumulate;stop-color:#000000;stop-opacity:1"
     d="m 287.93555,33.769531 c -0.8738,0.250087 -1.02356,0.868054 -1.09571,1.105469 -0.1443,0.474829 -0.10736,0.648446 -0.11718,0.933594 -0.0335,0.97061 -0.57211,2.275638 -1.45118,3.371093 -0.87906,1.095456 -2.0738,1.96103 -3.12304,2.275391 l -1.47071,0.439453 a 1.5180818,1.5180818 0 0 0 -0.98242,1.994141 l 0.70508,1.857422 c 1.41067,3.712581 0.47845,8.246732 -2.46094,11.46289 -2.10449,2.302654 -3.27081,3.079945 -6.34961,4.22461 l -2.30664,0.857422 a 1.5180818,1.5180818 0 0 0 0.51367,2.939453 l 1.91211,0.02148 c 5.21209,0.05388 10.91884,-2.483827 14.92774,-6.507812 6.17303,-6.19625 7.77714,-14.78462 4.11133,-22.394532 -0.25089,-0.520819 -0.44851,-0.923981 -0.61914,-1.246093 -0.17064,-0.322112 -0.22211,-0.516725 -0.60157,-0.898438 -0.0949,-0.09543 -0.21816,-0.215784 -0.46484,-0.335937 -0.24668,-0.120154 -0.69006,-0.224653 -1.12695,-0.09961 z m 0.65039,5.753906 c 2.09817,5.97483 0.78651,12.173625 -4.09961,17.078125 -1.60959,1.615648 -3.61872,2.930367 -5.71485,3.900391 0.4617,-0.426776 0.93258,-0.723544 1.41016,-1.246094 3.677,-4.023221 4.90973,-9.71097 3.05664,-14.58789 l -0.13281,-0.347657 c 1.79238,-0.562068 3.34964,-1.765337 4.5332,-3.240234 0.38374,-0.478199 0.64958,-1.026421 0.94727,-1.556641 z"
     id="path14" /><path
     style="baseline-shift:baseline;display:inline;overflow:visible;vector-effect:none;fill:#ffffff;fill-rule:evenodd;stroke-linecap:round;stroke-linejoin:round;paint-order:markers stroke fill;enable-background:accumulate;stop-color:#000000;stop-opacity:1"
     d="m 272.11828,62.856197 c 3.19741,-1.188765 4.74392,-2.218857 6.942,-4.623906 3.30819,-3.61969 4.39077,-8.7309 2.75889,-13.025651 l -0.70574,-1.857363 1.471,-0.440722 c 2.88072,-0.863087 5.55703,-4.198177 5.65534,-7.047434 0.0354,-1.027466 0.14661,-0.915644 1.14024,1.147063 3.40374,7.065873 1.96324,14.85969 -3.81924,20.663916 -3.71438,3.728354 -9.15022,6.109673 -13.83597,6.061231 l -1.91256,-0.01977 z"
     id="path15" /></g><g
   id="path22"
   style="opacity:1"
   transform="translate(-0.501)"><path
     style="baseline-shift:baseline;display:inline;overflow:visible;vector-effect:none;fill:#ffffff;fill-rule:evenodd;stroke-linecap:round;stroke-linejoin:round;paint-order:markers stroke fill;enable-background:accumulate;stop-color:#000000;stop-opacity:1"
     d="m 252.5293,59.066406 a 0.5367237,0.5367237 0 0 0 -0.35743,0.294922 l -0.32031,0.697266 c -0.39182,0.84894 -0.84522,1.303864 -1.72656,1.726562 l -0.69531,0.333985 h -5.29102 c -5.06194,9.9e-5 -5.59469,0.02625 -6.88867,0.304687 -1.90411,0.40973 -5.49819,0.397921 -7.01953,0.0059 -1.2484,-0.321722 -3.79977,-1.522504 -4.5957,-2.132812 -0.18384,-0.140963 -0.3629,-0.267012 -0.51563,-0.365234 -0.0764,-0.04911 -0.14434,-0.09076 -0.21289,-0.126954 -0.0343,-0.01809 -0.069,-0.03517 -0.11328,-0.05273 -0.0443,-0.01756 -0.08,-0.04687 -0.23438,-0.04687 -0.32955,0 -0.40611,0.154846 -0.46875,0.228516 -0.0626,0.07367 -0.10007,0.138343 -0.13672,0.207031 -0.0733,0.137376 -0.13392,0.292448 -0.18554,0.464844 -0.0653,0.216727 -0.30446,0.609452 -0.625,0.960937 -0.321,0.351987 -0.72147,0.6766 -1.06055,0.855469 l -0.57226,0.302734 -5.48633,0.03711 c -3.20643,0.02234 -4.82213,0.02744 -5.69336,-0.08789 -0.87123,-0.11533 -0.96326,-0.25633 -1.54492,-0.779297 -0.30084,-0.270477 -0.5738,-0.595557 -0.76172,-0.886719 -0.18793,-0.291161 -0.27216,-0.571743 -0.27344,-0.611328 -0.002,-0.06813 0.0154,-0.167107 -0.11523,-0.339843 -0.0653,-0.08637 -0.19407,-0.179294 -0.32813,-0.207032 -0.13406,-0.02774 -0.24515,-6.97e-4 -0.31641,0.02734 -0.28502,0.112165 -0.2627,0.191614 -0.3125,0.261719 -0.0996,0.140209 -0.18178,0.299548 -0.27734,0.509765 -0.37514,0.825262 -1.19298,1.601103 -1.9668,1.890625 -0.34945,0.130747 -0.47645,0.174995 -1.23632,0.210938 -0.75988,0.03594 -2.09033,0.04102 -4.61915,0.04102 -3.12027,0 -4.69288,-0.0095 -5.5371,-0.146485 -0.84423,-0.136958 -0.9539,-0.307843 -1.5625,-0.912109 -0.58046,-0.57632 -0.69264,-0.747722 -0.875,-1.341797 l -0.24805,-0.8125 a 0.5367237,0.5367237 0 0 0 -0.82813,-0.277344 l -0.99804,0.722656 c -2.08159,1.505567 -4.7123,2.601948 -7.48438,3.109375 -0.0418,0.0077 -0.0678,0.0026 -0.17773,0.05273 -0.0275,0.01254 -0.0617,0.02793 -0.11328,0.06836 -0.0258,0.02022 -0.0894,0.08736 -0.0898,0.08789 -4.2e-4,5.3e-4 -0.0936,0.175255 -0.0937,0.175781 -1.6e-4,5.27e-4 -0.0157,0.25729 -0.0156,0.257813 9e-5,5.23e-4 0.0856,0.210417 0.0859,0.210937 3.6e-4,5.2e-4 0.0715,0.08632 0.10157,0.111328 0.0301,0.02501 0.0546,0.04025 0.0762,0.05273 0.17294,0.09991 0.18614,0.07089 0.23242,0.07813 0.0463,0.0072 0.0912,0.01132 0.14258,0.01563 0.20544,0.01723 0.53624,0.02932 1.06836,0.04102 1.06423,0.02339 2.90381,0.03996 5.83789,0.05273 5.86815,0.02555 16.10826,0.0332 33.20898,0.0332 17.09457,0 27.33534,-0.0077 33.20508,-0.0332 2.93487,-0.01277 4.77653,-0.02936 5.8418,-0.05273 0.53263,-0.01169 0.86462,-0.02381 1.07031,-0.04102 0.0514,-0.0043 0.0944,-0.0084 0.14063,-0.01563 0.0462,-0.0072 0.0611,0.02179 0.23242,-0.07617 0.0214,-0.01225 0.0464,-0.02826 0.0762,-0.05273 0.0298,-0.02448 0.0992,-0.108855 0.0996,-0.109375 3.6e-4,-5.19e-4 0.0878,-0.206508 0.0879,-0.207031 10e-5,-5.23e-4 -0.0135,-0.259239 -0.0137,-0.259766 -1.6e-4,-5.26e-4 -0.0914,-0.177204 -0.0918,-0.177734 -4.2e-4,-5.29e-4 -0.0638,-0.06927 -0.0898,-0.08984 -0.052,-0.04115 -0.0876,-0.05763 -0.11524,-0.07031 -0.11072,-0.05072 -0.13786,-0.04508 -0.17968,-0.05273 -2.85125,-0.521945 -5.51331,-1.661885 -7.62696,-3.251953 l -0.96289,-0.722656 a 0.5367237,0.5367237 0 0 0 -0.45312,-0.0918 z m 0.33984,1.347656 0.42969,0.324219 c 1.42698,1.0735 3.11562,1.858137 4.89062,2.494141 -1.05689,0.01201 -1.82627,0.02514 -3.67968,0.0332 -2.18648,0.0095 -8.84603,0.0067 -12.37696,0.01172 0.82256,-0.0088 0.48262,-0.08395 2.00586,-0.08398 h 5.41211 a 0.5367237,0.5367237 0 0 0 0.23242,-0.05273 l 0.80469,-0.386719 c 1.04756,-0.502423 1.76373,-1.217918 2.23828,-2.246094 z m -46.19141,0.01758 c 0.003,0.100532 0.0844,0.181251 0.10547,0.27539 -0.001,-0.0015 -0.005,-0.0024 -0.006,-0.0039 -0.12117,-0.160199 -0.0985,-0.236372 -0.0996,-0.271484 z m -17.1289,0.179687 0.0293,0.09375 c 0.21436,0.698269 0.51348,1.164443 1.14258,1.789063 0.30902,0.306817 0.59598,0.568478 0.9336,0.77539 -0.72975,-0.0023 -2.92211,-0.0012 -3.54883,-0.0039 -1.82598,-0.008 -2.57382,-0.02142 -3.625,-0.0332 1.69237,-0.606217 3.30527,-1.34717 4.67773,-2.339844 z m 35.20312,0.373047 c 0.0785,0.05544 0.14586,0.101139 0.23047,0.166016 0.99826,0.765448 3.10274,1.688893 4.59766,2.140625 -2.87745,9.03e-4 -3.46681,0.0057 -6.90625,0.0059 0.45581,-0.258507 0.89501,-0.605704 1.26172,-1.007813 0.37289,-0.408896 0.66074,-0.844989 0.8164,-1.304687 z M 207.08594,61.5 c 0.0183,0.02935 0.016,0.06023 0.0352,0.08984 0.24573,0.380713 0.5725,0.764615 0.94727,1.101562 0.26007,0.233822 0.51094,0.427213 0.79297,0.595703 -1.35077,-7.72e-4 -2.43335,-0.0028 -3.64453,-0.0039 0.76981,-0.39745 1.41526,-1.016998 1.86914,-1.783203 z"
     id="path16" /><path
     style="baseline-shift:baseline;display:inline;overflow:visible;vector-effect:none;fill:#ffffff;fill-rule:evenodd;stroke-linecap:round;stroke-linejoin:round;paint-order:markers stroke fill;enable-background:accumulate;stop-color:#000000;stop-opacity:1"
     d="m 181.14243,63.659739 c 2.84723,-0.521184 5.54725,-1.643797 7.70217,-3.202402 l 0.99709,-0.721168 0.24917,0.81168 c 0.19836,0.646172 0.40408,0.965481 1.00886,1.565951 1.21885,1.210162 1.2377,1.21322 7.47843,1.21322 5.05848,0 5.31111,-0.01195 6.04317,-0.285848 0.93687,-0.350527 1.82876,-1.203904 2.26791,-2.169979 0.17429,-0.383409 0.32036,-0.589045 0.32461,-0.456969 0.0149,0.462366 0.53695,1.271221 1.21255,1.878645 1.16551,1.047893 1.18802,1.050873 7.60105,1.006198 l 5.61713,-0.03913 0.68739,-0.362609 c 0.83183,-0.438808 1.73933,-1.433921 1.95053,-2.138849 0.0852,-0.284519 0.20943,-0.517308 0.27597,-0.517308 0.0665,0 0.40414,0.217125 0.75022,0.4825 0.93863,0.719729 3.41834,1.871998 4.78844,2.225083 1.69605,0.437085 5.23647,0.437411 7.26611,6.69e-4 1.2741,-0.274163 1.71487,-0.293246 6.77546,-0.293345 l 5.4127,-1.06e-4 0.80501,-0.386086 c 0.96445,-0.462561 1.549,-1.048558 1.98219,-1.987116 l 0.32139,-0.696322 0.96181,0.723556 c 2.18808,1.646064 4.92597,2.813708 7.8547,3.349838 0.79396,0.145343 -5.97852,0.174818 -40.16734,0.174818 -34.20113,0 -40.96148,-0.02944 -40.16672,-0.174921 z"
     id="path17" /></g><g
   id="path23"
   style="opacity:1"
   transform="translate(-0.501)"><path
     style="baseline-shift:baseline;display:inline;overflow:visible;vector-effect:none;fill:#ffffff;fill-rule:evenodd;stroke-linecap:round;stroke-linejoin:round;paint-order:markers stroke fill;enable-background:accumulate;stop-color:#000000;stop-opacity:1"
     d="m 67.511719,62.349609 a 0.26836185,0.26836185 0 0 0 -0.0957,0.521485 l 0.730468,0.25 c 0.203295,0.06942 0.400385,0.132386 0.556641,0.179687 0.07813,0.02365 0.145876,0.04204 0.201172,0.05664 0.0553,0.0146 0.07049,0.02717 0.15625,0.03125 0.148656,0.0071 0.248401,-0.07278 0.3125,-0.144531 0.0641,-0.07176 0.107191,-0.151887 0.138672,-0.242188 0.02261,-0.06484 0.03958,-0.125155 0.05273,-0.177734 0.0066,-0.02629 0.01352,-0.04832 0.01758,-0.07813 0.002,-0.0149 0.0029,-0.03104 0.002,-0.06055 -4.64e-4,-0.01475 4.9e-5,-0.03404 -0.0078,-0.06445 -0.0039,-0.01521 -0.02126,-0.0562 -0.02148,-0.05664 -2.22e-4,-4.34e-4 -0.06041,-0.07555 -0.0625,-0.07813 -7.3e-5,-6.5e-5 -0.05066,-0.03509 -0.05078,-0.03516 -1.22e-4,-6.7e-5 -0.02913,-0.01556 -0.0293,-0.01563 -3.41e-4,-1.36e-4 -0.02385,-0.0078 -0.03125,-0.0098 -0.0148,-0.0039 -0.02258,-0.0048 -0.0293,-0.0059 -0.01343,-0.0022 -0.02172,-0.0029 -0.03125,-0.0039 -0.01906,-0.002 -0.03896,-0.0042 -0.06445,-0.0059 -0.05099,-0.0034 -0.121186,-0.0059 -0.205078,-0.0098 -0.167783,-0.0077 -0.394739,-0.01598 -0.642578,-0.02344 z"
     id="path18" /><path
     style="baseline-shift:baseline;display:inline;overflow:visible;vector-effect:none;fill:#ffffff;fill-rule:evenodd;stroke-linecap:round;stroke-linejoin:round;paint-order:markers stroke fill;enable-background:accumulate;stop-color:#000000;stop-opacity:1"
     d="m 68.232874,62.866211 -0.729177,-0.249007 0.896886,0.02699 c 0.493288,0.01484 0.90457,0.03381 0.913961,0.04215 0.0094,0.0083 -0.0162,0.110623 -0.05688,0.227294 -0.04441,0.127389 -0.118224,0.210022 -0.184782,0.206854 -0.06096,-0.0029 -0.438964,-0.117329 -0.840012,-0.254283 z"
     id="path34" /></g><g
   id="path24"
   style="opacity:1"
   transform="translate(-0.501)"><path
     style="baseline-shift:baseline;display:inline;overflow:visible;vector-effect:none;fill:#ffffff;fill-rule:evenodd;stroke-linecap:round;stroke-linejoin:round;paint-order:markers stroke fill;enable-background:accumulate;stop-color:#000000;stop-opacity:1"
     d="m 65.888672,61.642578 c -0.03863,-0.01258 -0.104973,-0.01367 -0.148438,0.01172 -0.04346,0.02539 -0.05724,0.05251 -0.07031,0.07031 -0.01469,0.02 -0.04391,0.04956 -0.04492,0.115235 -0.001,0.06568 0.0421,0.119129 0.07422,0.144531 0.06423,0.0508 0.138249,0.0815 0.283203,0.148437 0.168645,0.07788 0.368825,0.170631 0.439453,0.205079 0.06336,0.0309 0.110485,0.05293 0.150391,0.06641 0.01995,0.0067 0.03706,0.01089 0.06445,0.01367 0.0068,6.95e-4 0.01328,0.0024 0.02344,0.002 0.01016,-4.78e-4 0.04008,-0.0075 0.04102,-0.0078 4.7e-4,-1.59e-4 0.02894,-0.01345 0.0293,-0.01367 3.53e-4,-2.21e-4 0.03297,-0.02901 0.0332,-0.0293 2.35e-4,-2.84e-4 0.02332,-0.04263 0.02344,-0.04297 1.18e-4,-3.44e-4 0.0078,-0.04452 0.0078,-0.04492 0,-4.04e-4 -0.0038,-0.03469 -0.0039,-0.03516 -1.18e-4,-4.64e-4 -0.0049,-0.017 -0.0078,-0.02344 -0.0058,-0.01288 -0.01259,-0.02056 -0.01758,-0.02734 -0.01,-0.01357 -0.0176,-0.02019 -0.02539,-0.02734 -0.01559,-0.01431 -0.03052,-0.02658 -0.04883,-0.03906 -0.0366,-0.02497 -0.08525,-0.05231 -0.148437,-0.08594 -0.12143,-0.06462 -0.323565,-0.189653 -0.431641,-0.265625 -0.10146,-0.07132 -0.145401,-0.109614 -0.222656,-0.134766 z"
     id="path35" /><path
     style="baseline-shift:baseline;display:inline;overflow:visible;vector-effect:none;fill:#ffffff;fill-rule:evenodd;stroke-linecap:round;stroke-linejoin:round;paint-order:markers stroke fill;enable-background:accumulate;stop-color:#000000;stop-opacity:1"
     d="m 66.479954,62.217623 c -0.07379,-0.03599 -0.272656,-0.129391 -0.441921,-0.207556 -0.288674,-0.133306 -0.304837,-0.146091 -0.260699,-0.206201 0.04518,-0.06152 0.05546,-0.05817 0.257441,0.08381 0.115713,0.08134 0.316043,0.204118 0.445179,0.272838 0.240909,0.1282 0.240909,0.174611 0,0.05711 z"
     id="path36" /></g><g
   id="path25"
   style="opacity:1"
   transform="translate(-0.501)"><path
     style="baseline-shift:baseline;display:inline;overflow:visible;vector-effect:none;fill:#ffffff;fill-rule:evenodd;stroke-linecap:round;stroke-linejoin:round;paint-order:markers stroke fill;enable-background:accumulate;stop-color:#000000;stop-opacity:1"
     d="m 66.800781,62.273437 c 0,0 -0.002,0.0332 -0.002,0.0332 a 0.0335452,0.0335452 0 0 0 -0.03125,-0.01563 c -0.01055,0.02231 -0.01677,0.03503 -0.01758,0.05664 -4.03e-4,0.0108 0.0054,0.0253 0.01367,0.0332 0.0083,0.0079 0.01371,0.0094 0.01953,0.01172 0.0103,0.0042 0.111616,0.04575 0.224609,0.0918 0.0566,0.02307 0.109507,0.04519 0.148438,0.06055 0.01947,0.0077 0.03517,0.01315 0.04687,0.01758 0.0059,0.0022 0.0099,0.0045 0.01367,0.0059 0.0019,6.58e-4 0.0042,0.0014 0.0059,0.002 0,0 0.002,0 0.002,0 0.0012,3.01e-4 0.0077,0.0019 0.0078,0.002 2.88e-4,2e-5 0.01139,-0.0019 0.01172,-0.002 3.25e-4,-8.6e-5 0.0075,-0.0037 0.0078,-0.0039 7.16e-4,-3.77e-4 0.0075,-0.0038 0.0098,-0.0059 0.0046,-0.0042 0.0069,-0.0076 0.0098,-0.01172 0.0057,-0.0082 0.01129,-0.01872 0.01563,-0.0293 l 0.01172,-0.0293 a 0.0335452,0.0335452 0 0 0 -0.01953,-0.04492 l -0.13086,-0.04492 c -0.07076,-0.02389 -0.176251,-0.06128 -0.232421,-0.08398 -0.02885,-0.01166 -0.05486,-0.02385 -0.07422,-0.03125 -0.0097,-0.0037 -0.01755,-0.0057 -0.02344,-0.0078 -0.0029,-0.001 -0.0054,-0.0012 -0.0078,-0.002 -0.0012,-3.65e-4 -0.0035,-0.0019 -0.0039,-0.002 -1.94e-4,-4.1e-5 -0.0058,6e-6 -0.0059,0 z m 0.378906,0.208985 0.04297,0.01367 c -2.82e-4,6.29e-4 2.89e-4,0.0013 0,0.002 -0.01094,-0.0042 -0.02535,-0.0087 -0.04297,-0.01563 z"
     id="path37" /><path
     style="baseline-shift:baseline;display:inline;overflow:visible;vector-effect:none;fill:#ffffff;fill-rule:evenodd;stroke-linecap:round;stroke-linejoin:round;paint-order:markers stroke fill;enable-background:accumulate;stop-color:#000000;stop-opacity:1"
     d="m 67.020817,62.453796 c -0.112994,-0.04605 -0.213902,-0.08717 -0.224239,-0.09138 -0.0188,-0.0076 -0.01863,-0.01228 0.0021,-0.05613 4.93e-4,-10e-4 0.04784,0.01708 0.105216,0.04026 0.05738,0.02319 0.162896,0.06194 0.23449,0.08611 l 0.130169,0.04396 -0.01277,0.03104 c -0.007,0.01707 -0.01655,0.03077 -0.02116,0.03045 -0.0046,-3.23e-4 -0.100835,-0.03827 -0.213829,-0.08432 z"
     id="path38" /></g><g
   id="path26"
   style="opacity:1"
   transform="translate(-0.501)"><path
     style="baseline-shift:baseline;display:inline;overflow:visible;vector-effect:none;fill:#ffffff;fill-rule:evenodd;stroke-linecap:round;stroke-linejoin:round;paint-order:markers stroke fill;enable-background:accumulate;stop-color:#000000;stop-opacity:1"
     d="m 65.351562,60.890625 c -0.169411,-0.0562 -0.340521,-0.01987 -0.46289,0.02539 -0.05612,0.02076 -0.101308,0.03096 -0.1875,0.08594 -0.0431,0.02749 -0.111293,0.07093 -0.164063,0.185547 -0.05277,0.114614 -0.03084,0.286431 0.01563,0.369141 0.09293,0.165418 0.156805,0.170449 0.220703,0.208984 0.0639,0.03854 0.136792,0.0747 0.228516,0.123047 0.105437,0.05557 0.201934,0.106346 0.277344,0.144531 0.03771,0.01909 0.06973,0.03631 0.0957,0.04883 0.01299,0.0063 0.02435,0.0099 0.03711,0.01563 0.0064,0.0028 0.01289,0.0056 0.02344,0.0098 0.0053,0.0021 0.01138,0.0044 0.02148,0.0078 0.01011,0.0034 0.05623,0.01555 0.05664,0.01563 0.07573,0.01339 0.219869,0.0081 0.333984,-0.08984 0.114116,-0.09795 0.136715,-0.226033 0.138672,-0.296875 0.0039,-0.141685 -0.03007,-0.18796 -0.05664,-0.246094 -0.05314,-0.116268 -0.124186,-0.222583 -0.21875,-0.335938 -0.08752,-0.104915 -0.189963,-0.215288 -0.359375,-0.271484 z"
     id="path39" /><path
     style="baseline-shift:baseline;display:inline;overflow:visible;vector-effect:none;fill:#ffffff;fill-rule:evenodd;stroke-linecap:round;stroke-linejoin:round;paint-order:markers stroke fill;enable-background:accumulate;stop-color:#000000;stop-opacity:1"
     d="m 65.177958,61.553371 c -0.363259,-0.191458 -0.369279,-0.202173 -0.15757,-0.28049 0.173447,-0.06416 0.257887,-0.03615 0.39825,0.132103 0.153821,0.184387 0.236381,0.365017 0.160726,0.351642 -0.01305,-0.0023 -0.193677,-0.09377 -0.401406,-0.203255 z"
     id="path40" /></g><g
   id="path27"
   style="opacity:1"
   transform="translate(-0.501)"><path
     style="baseline-shift:baseline;display:inline;overflow:visible;vector-effect:none;fill:#ffffff;fill-rule:evenodd;stroke-linecap:round;stroke-linejoin:round;paint-order:markers stroke fill;enable-background:accumulate;stop-color:#000000;stop-opacity:1"
     d="m 67.185547,26.720703 c -0.0054,6.05e-4 -0.0081,0.0011 -0.01172,0.002 -0.0073,0.0017 -0.01542,0.0033 -0.02344,0.0059 -0.01604,0.005 -0.03591,0.01239 -0.06055,0.02148 -0.04927,0.01819 -0.116181,0.04497 -0.19336,0.07617 -0.154357,0.06241 -0.349757,0.14521 -0.529297,0.224609 -0.114849,0.05079 -0.326412,0.147712 -0.511718,0.234375 -0.09265,0.04333 -0.178561,0.08475 -0.242188,0.115235 -0.03181,0.01524 -0.05912,0.02766 -0.07813,0.03711 -0.0095,0.0047 -0.01733,0.0085 -0.02344,0.01172 -0.0031,0.0016 -0.005,0.0023 -0.0078,0.0039 -0.0014,8.24e-4 -0.0038,0.0025 -0.0059,0.0039 -0.001,6.85e-4 -0.0037,0.0018 -0.0039,0.002 -1.59e-4,1.19e-4 -0.0077,0.0077 -0.0078,0.0078 -1.09e-4,1.09e-4 -0.01557,0.02716 -0.01563,0.02734 -5.7e-5,1.85e-4 -0.0039,0.01927 -0.0039,0.01953 -1.3e-5,5.18e-4 9.95e-4,0.01343 0.002,0.01758 0.0019,0.0083 0.0039,0.01299 0.0059,0.01758 0.0039,0.0092 0.0083,0.01754 0.01367,0.02734 0.01075,0.01961 0.02604,0.04269 0.04297,0.06836 0.03089,0.04685 0.06964,0.114426 0.08203,0.138672 0.007,0.01375 0.01206,0.02532 0.01953,0.03711 0.0075,0.01178 0.01871,0.02842 0.04687,0.03906 0.02817,0.01064 0.05683,-1.74e-4 0.07031,-0.0078 0.01348,-0.0076 0.02165,-0.01394 0.03125,-0.02148 0.329981,-0.259522 0.563205,-0.413842 0.820312,-0.542969 0.169804,-0.08528 0.462745,-0.206734 0.595704,-0.248047 l 0.09375,-0.0293 a 0.06709021,0.06709021 0 0 0 0.04297,-0.08789 l -0.0293,-0.07617 c -0.0091,-0.02404 -0.01874,-0.04569 -0.0293,-0.06445 -0.0053,-0.0094 -0.01093,-0.01874 -0.01758,-0.02734 -0.0033,-0.0043 -0.0063,-0.0086 -0.01172,-0.01367 -0.0027,-0.0025 -0.0054,-0.0049 -0.0098,-0.0078 -0.0044,-0.0029 -0.01894,-0.0096 -0.01953,-0.0098 -2.87e-4,-9.5e-5 -0.021,-0.0019 -0.02148,-0.002 -4.84e-4,-9e-6 -0.0071,-3.03e-4 -0.0098,0 z m -0.01758,0.144531 c 0.0042,0.0089 0.0077,0.01687 0.01172,0.02734 l 0.0039,0.01172 -0.02539,0.0078 c -0.149872,0.04657 -0.438265,0.166 -0.617187,0.25586 -0.25846,0.129806 -0.497522,0.291964 -0.816407,0.541015 -0.02004,-0.03734 -0.05155,-0.09051 -0.08203,-0.136718 -0.0073,-0.01113 -0.01152,-0.01939 -0.01758,-0.0293 0.01444,-0.007 0.02583,-0.01234 0.04492,-0.02148 0.06299,-0.03018 0.149794,-0.07202 0.242187,-0.115234 0.184787,-0.08642 0.397294,-0.184635 0.509766,-0.234375 0.177994,-0.07872 0.372605,-0.160878 0.525391,-0.222656 0.07639,-0.03089 0.142451,-0.05687 0.189453,-0.07422 0.01339,-0.0049 0.02123,-0.0063 0.03125,-0.0098 z"
     id="path41" /><path
     style="baseline-shift:baseline;display:inline;overflow:visible;vector-effect:none;fill:#ffffff;fill-rule:evenodd;stroke-linecap:round;stroke-linejoin:round;paint-order:markers stroke fill;enable-background:accumulate;stop-color:#000000;stop-opacity:1"
     d="m 65.673523,27.75248 c -0.01554,-0.03041 -0.0546,-0.09523 -0.08679,-0.144041 -0.03219,-0.04881 -0.05566,-0.09161 -0.05216,-0.09511 0.01086,-0.01086 0.631956,-0.30133 0.859277,-0.401861 0.357533,-0.158115 0.783868,-0.330501 0.802236,-0.324379 0.0095,0.0032 0.03037,0.04029 0.04639,0.08249 l 0.02913,0.07674 -0.09395,0.02919 c -0.141415,0.04394 -0.431806,0.164875 -0.606169,0.252445 -0.261715,0.131441 -0.499454,0.288625 -0.831384,0.54968 -0.03786,0.02978 -0.03866,0.02948 -0.06658,-0.02516 z"
     id="path42" /></g><path
   style="fill:#ffffff;fill-rule:evenodd;stroke:#ffffff;stroke-width:1.51793;stroke-linecap:round;stroke-linejoin:round;stroke-dasharray:none;stroke-opacity:1;paint-order:markers stroke fill"
   d=""
   id="path28"
   transform="translate(-0.501)" /><g
   id="path29"
   style="opacity:1"
   transform="translate(-0.501)"><path
     style="baseline-shift:baseline;display:inline;overflow:visible;vector-effect:none;fill:#ffffff;fill-rule:evenodd;stroke-linecap:round;stroke-linejoin:round;paint-order:markers stroke fill;enable-background:accumulate;stop-color:#000000;stop-opacity:1"
     d="m 180.50977,63.576172 -0.30469,0.04297 c -1.11776,0.152001 -2.83536,0.216936 -3.91797,0.148437 -0.30397,-0.01923 -0.66266,-0.04862 -0.9668,-0.07813 -0.30413,-0.02951 -0.56308,-0.06181 -0.63086,-0.07617 -0.0234,-0.005 -0.0443,-0.01097 -0.0762,-0.01172 -0.0318,-7.44e-4 -0.0926,0.01096 -0.13086,0.05273 -0.0382,0.04177 -0.0418,0.08163 -0.0449,0.109375 -0.003,0.02775 -0.004,0.05075 -0.004,0.08008 v 0.121094 a 0.13418092,0.13418092 0 0 0 0.13477,0.132812 h 3.01367 3.01563 a 0.13418092,0.13418092 0 0 0 0.1289,-0.167969 l -0.0332,-0.126953 -0.0352,-0.126953 a 0.13418092,0.13418092 0 0 0 -0.14843,-0.09961 z"
     id="path43" /><path
     style="baseline-shift:baseline;display:inline;overflow:visible;vector-effect:none;fill:#ffffff;fill-rule:evenodd;stroke-linecap:round;stroke-linejoin:round;paint-order:markers stroke fill;enable-background:accumulate;stop-color:#000000;stop-opacity:1"
     d="m 174.56858,63.844254 c 0,-0.113354 0.005,-0.11897 0.0922,-0.100514 0.17979,0.0381 1.0064,0.118304 1.61839,0.157024 1.0967,0.06939 2.81375,0.0043 3.94447,-0.149464 l 0.30518,-0.04151 0.034,0.127261 0.034,0.127261 h -3.0141 -3.01411 z"
     id="path44" /></g><g
   id="path30"
   style="opacity:1"
   transform="translate(-0.501)"><path
     style="baseline-shift:baseline;display:inline;overflow:visible;vector-effect:none;fill:#ffffff;fill-rule:evenodd;stroke-linecap:round;stroke-linejoin:round;paint-order:markers stroke fill;enable-background:accumulate;stop-color:#000000;stop-opacity:1"
     d="m 207.16602,48.189453 c 0,0 -0.12499,0.02336 -0.125,0.02344 -5e-5,3.16e-4 6e-5,0.0076 0,0.0098 -4e-5,0.0011 2e-5,0.0027 0,0.0039 -3e-5,-4.76e-4 -5e-5,0.0019 0,0.0039 8e-5,7.75e-4 0,0.002 0,0.002 -1e-4,0.0059 9e-5,0.01343 0,0.02344 -4.1e-4,0.04335 -0.002,0.125804 -0.002,0.244141 -8.3e-4,0.236673 -0.001,0.616159 -0.002,1.109375 -0.002,0.986432 -0.003,2.426304 -0.004,4.082031 -0.001,1.65568 -0.003,3.168881 -0.006,4.271485 -0.001,0.551302 -0.004,0.999338 -0.006,1.3125 -7.3e-4,0.15658 -0.001,0.280779 -0.002,0.365234 -3.7e-4,0.04223 3.7e-4,0.07327 0,0.0957 -1.8e-4,0.01122 -0.002,0.01964 -0.002,0.02539 -9e-5,0.0029 5e-5,0.0068 0,0.0078 -4e-5,7.41e-4 0.002,-0.0024 0.002,-0.0039 -0.004,0.02628 -0.008,0.04377 -0.002,0.07227 0.003,0.01425 0.01,0.03424 0.0273,0.04883 0.0174,0.01459 0.0403,0.01953 0.0547,0.01953 8e-5,0 0.0214,-0.0039 0.0215,-0.0039 8e-5,-2.6e-5 0.0155,-0.0078 0.0156,-0.0078 1.5e-4,-1.03e-4 0.0174,-0.01737 0.0176,-0.01758 1.5e-4,-2.09e-4 0.006,-0.0114 0.006,-0.01172 1.4e-4,-3.17e-4 0.003,-0.0056 0.004,-0.0078 0.003,-0.0088 0.003,-0.01392 0.004,-0.01953 0.002,-0.01123 0.003,-0.02215 0.004,-0.03906 0.002,-0.03383 0.004,-0.08618 0.006,-0.162109 0.003,-0.151856 0.004,-0.402625 0.006,-0.798828 0.003,-0.792407 0.004,-2.16733 0.002,-4.503907 -0.003,-3.0278 -0.008,-5.7639 -0.01,-6.083984 -7e-5,-0.0075 8e-5,-0.01287 0,-0.01758 -2e-5,-0.0016 3e-5,-0.0046 0,-0.0059 -5e-5,-0.0026 1.2e-4,-0.0034 0,-0.0059 -6e-5,-0.0012 -0.002,-0.0076 -0.002,-0.0078 -1e-5,-8.3e-5 -0.008,-0.02344 -0.008,-0.02344 z"
     id="path45" /><path
     style="baseline-shift:baseline;display:inline;overflow:visible;vector-effect:none;fill:#ffffff;fill-rule:evenodd;stroke-linecap:round;stroke-linejoin:round;paint-order:markers stroke fill;enable-background:accumulate;stop-color:#000000;stop-opacity:1"
     d="m 207.08503,59.775776 c 0.006,-0.03459 0.0123,-2.772234 0.0146,-6.083653 0.002,-3.31142 0.006,-5.760394 0.009,-5.442166 0.002,0.318228 0.006,3.055873 0.009,6.083654 0.004,4.673115 7.4e-4,5.505057 -0.0189,5.505057 -0.0174,0 -0.0206,-0.01556 -0.0128,-0.06289 z"
     id="path46" /></g><g
   id="path31"
   style="opacity:1"
   transform="translate(-0.501)"><path
     style="baseline-shift:baseline;display:inline;overflow:visible;vector-effect:none;fill:#ffffff;fill-rule:evenodd;stroke-linecap:round;stroke-linejoin:round;paint-order:markers stroke fill;enable-background:accumulate;stop-color:#000000;stop-opacity:1"
     d="m 207.11133,47.683594 c 0,0 -0.0195,0.002 -0.0195,0.002 0,0 -0.01,0 -0.01,0 -3e-5,1.4e-5 -0.039,0.02146 -0.0391,0.02148 -3e-5,2.7e-5 -0.0136,0.01363 -0.0137,0.01367 -7e-5,8e-5 -0.0117,0.01745 -0.0117,0.01758 -1.2e-4,2.64e-4 -0.005,0.01563 -0.006,0.01953 -0.004,0.01561 -0.003,0.01831 -0.004,0.02539 -0.002,0.02833 -0.004,0.0725 -0.004,0.138672 0,0.06618 0.002,0.111439 0.004,0.140625 5.2e-4,0.0073 8e-5,0.01329 0.002,0.02344 4.6e-4,0.0025 7.9e-4,0.0056 0.002,0.0098 0.001,0.0042 0.008,0.01928 0.008,0.01953 7e-5,1.24e-4 0.0136,0.01946 0.0137,0.01953 4e-5,3.6e-5 0.0156,0.01365 0.0156,0.01367 3e-5,2.4e-5 0.0273,0.01366 0.0273,0.01367 0,0 0.0117,0.0039 0.0117,0.0039 0,0 0.0137,0 0.0137,0 0,0 0.01,0 0.01,0 0,0 -0.006,-0.09375 -0.006,-0.09375 7e-5,-3.1e-5 0.0722,0.05868 0.0723,0.05859 7e-5,-8.2e-5 0.0117,-0.01744 0.0117,-0.01758 7e-5,-1.35e-4 0.006,-0.0096 0.006,-0.0098 1.4e-4,-3.76e-4 0.001,-0.0087 0.002,-0.01172 0.001,-0.006 0.003,-0.0099 0.004,-0.01367 0.001,-0.0076 0.001,-0.01465 0.002,-0.02344 0.006,-0.07054 0.006,-0.175983 0,-0.251953 -6.8e-4,-0.0095 -0.001,-0.01807 -0.002,-0.02539 -4.3e-4,-0.0037 -0.001,-0.0055 -0.002,-0.0098 -7.5e-4,-0.0043 -0.006,-0.0188 -0.006,-0.01953 -7e-5,-1.84e-4 -0.004,-0.01159 -0.004,-0.01172 -6e-5,-1.3e-4 -0.0117,-0.01945 -0.0117,-0.01953 -3e-5,-3.9e-5 -0.0156,-0.01169 -0.0156,-0.01172 -3e-5,-2.5e-5 -0.0234,-0.01561 -0.0234,-0.01563 0,0 -0.0137,-0.0039 -0.0137,-0.0039 0,0 -0.0137,-0.002 -0.0137,-0.002 z"
     id="path47" /><path
     style="baseline-shift:baseline;display:inline;overflow:visible;vector-effect:none;fill:#ffffff;fill-rule:evenodd;stroke-linecap:round;stroke-linejoin:round;paint-order:markers stroke fill;enable-background:accumulate;stop-color:#000000;stop-opacity:1"
     d="m 207.09952,47.921557 c 6e-5,-0.130447 0.004,-0.180786 0.009,-0.111864 0.005,0.06892 0.005,0.175652 -1.1e-4,0.237177 -0.005,0.06153 -0.009,0.0051 -0.009,-0.125313 z"
     id="path48" /></g><g
   id="path32"
   style="opacity:1"
   transform="translate(-0.501)"><path
     style="baseline-shift:baseline;display:inline;overflow:visible;vector-effect:none;fill:#ffffff;fill-rule:evenodd;stroke-linecap:round;stroke-linejoin:round;paint-order:markers stroke fill;enable-background:accumulate;stop-color:#000000;stop-opacity:1"
     d="m 64.203125,34.984375 -0.466797,1.849609 c -1.808452,7.172053 -3.722473,13.438478 -5.458984,17.876953 -0.115151,0.294339 -0.185145,0.483007 -0.22461,0.621094 -0.03946,0.138088 -0.06012,0.247993 -0.0078,0.359375 0.04838,0.103016 0.129841,0.20804 0.251953,0.365235 0.122112,0.157195 0.278063,0.348002 0.453125,0.554687 0.350124,0.41337 0.770891,0.882626 1.109375,1.230469 1.245206,1.279638 2.538879,2.314946 4.046875,3.234375 0.126238,0.07697 0.242594,0.146028 0.330078,0.197265 0.04374,0.02562 0.07977,0.04713 0.107422,0.0625 0.01382,0.0077 0.02594,0.01385 0.03711,0.01953 0.0056,0.0028 0.01125,0.0042 0.01953,0.0078 0.0041,0.0018 0.0088,0.0048 0.01758,0.0078 0.0044,0.0015 0.01732,0.0058 0.01758,0.0059 2.59e-4,6.1e-5 0.04476,0.0039 0.04492,0.0039 3.21e-4,0 0.04648,-0.0058 0.04687,-0.0059 3.96e-4,-1e-4 0.02183,-0.0066 0.0293,-0.0098 0.01493,-0.0063 0.02388,-0.01095 0.03125,-0.01563 0.01474,-0.0094 0.02165,-0.0169 0.0293,-0.02344 0.01529,-0.01308 0.02634,-0.0237 0.03906,-0.03711 0.02546,-0.02682 0.05391,-0.05995 0.08203,-0.0957 0.0097,-0.01229 0.119128,-0.09062 0.158203,-0.103515 l 0.158203,-0.05273 a 0.18976048,0.18976048 0 0 0 0.111329,-0.263672 l -0.205079,-0.414062 c -0.111872,-0.225931 -0.172846,-0.27514 -0.21875,-0.445313 -0.0459,-0.170172 -0.0819,-0.496596 -0.103515,-1.230468 -0.04323,-1.467745 -0.03831,-4.560397 -0.04687,-11.4375 L 64.576172,35.03125 a 0.18976048,0.18976048 0 0 0 -0.373047,-0.04687 z m -0.0039,1.564453 0.01367,10.697266 c 0.0086,6.876743 0.0012,9.964873 0.04492,11.449218 0.02186,0.742173 0.05422,1.084923 0.117188,1.31836 0.06297,0.233436 0.151727,0.323094 0.246094,0.513672 l 0.113281,0.230468 c -0.110633,0.04411 -0.211386,0.100663 -0.289063,0.197266 -0.0068,-0.004 -0.01032,-0.0055 -0.01758,-0.0098 -0.08464,-0.04957 -0.199592,-0.117374 -0.324218,-0.193359 -1.482507,-0.903887 -2.747811,-1.915113 -3.972657,-3.173828 -0.328613,-0.3377 -0.744733,-0.803487 -1.089843,-1.210938 -0.172556,-0.203725 -0.32823,-0.3942 -0.445313,-0.544921 -0.117083,-0.150722 -0.201614,-0.279483 -0.207031,-0.291016 0.01391,0.02962 -0.0022,0.01636 0.0293,-0.09375 0.03147,-0.11011 0.09891,-0.296541 0.21289,-0.587891 1.746183,-4.463193 3.661499,-10.739093 5.472657,-17.921875 z"
     id="path49" /><path
     style="baseline-shift:baseline;display:inline;overflow:visible;vector-effect:none;fill:#ffffff;fill-rule:evenodd;stroke-linecap:round;stroke-linejoin:round;paint-order:markers stroke fill;enable-background:accumulate;stop-color:#000000;stop-opacity:1"
     d="m 64.004882,60.913499 c -1.495251,-0.911658 -2.77546,-1.934237 -4.010486,-3.203414 -0.667097,-0.685543 -1.670216,-1.869863 -1.777819,-2.09896 -0.0384,-0.08176 0.0081,-0.244431 0.237231,-0.830119 1.741347,-4.450834 3.656683,-10.722608 5.466488,-17.900025 l 0.466478,-1.849979 0.01521,12.214601 c 0.01713,13.753847 -0.02379,12.364595 0.388687,13.197612 l 0.204889,0.413786 -0.157993,0.05214 c -0.0869,0.02868 -0.198754,0.103962 -0.248573,0.167297 -0.04982,0.06334 -0.099,0.115155 -0.109289,0.115155 -0.01029,0 -0.223961,-0.125143 -0.474825,-0.278096 z"
     id="path50" /></g><g
   id="path33"
   style="opacity:1"
   transform="translate(-0.501)"><path
     style="baseline-shift:baseline;display:inline;overflow:visible;vector-effect:none;fill:#ffffff;fill-rule:evenodd;stroke-linecap:round;stroke-linejoin:round;paint-order:markers stroke fill;enable-background:accumulate;stop-color:#000000;stop-opacity:1"
     d="m 65.535156,27.146484 c -0.07434,-0.0069 -0.116387,2.45e-4 -0.152344,0.0059 -0.07191,0.01123 -0.115781,0.02575 -0.160156,0.04102 -0.08875,0.03053 -0.173541,0.06793 -0.273437,0.115235 -0.199792,0.09461 -0.445653,0.2264 -0.708985,0.380859 -4.426136,2.596189 -7.706976,6.542382 -9.189453,11.085938 -0.590897,1.811003 -0.794708,3.034387 -0.873047,5.230468 -0.136723,3.83271 0.666129,6.998678 2.619141,10.316407 0.190066,0.322879 0.375515,0.601578 0.535156,0.810546 0.07982,0.104485 0.147393,0.188847 0.236328,0.271485 0.04447,0.04132 0.08846,0.08587 0.195313,0.136719 0.05342,0.02542 0.127708,0.05632 0.25,0.05664 0.122291,3.23e-4 0.298522,-0.06321 0.402344,-0.171875 0.14361,-0.150306 0.11368,-0.15896 0.140625,-0.214844 0.02694,-0.05588 0.05433,-0.118215 0.08594,-0.193359 0.06322,-0.150289 0.141308,-0.349545 0.232422,-0.587891 0.182228,-0.476691 0.415187,-1.11319 0.664062,-1.810546 0.497752,-1.394713 1.05696,-3.026552 1.388672,-4.091797 0.90841,-2.917224 1.748631,-5.837865 2.81836,-9.800782 l 1.017578,-3.769531 a 0.5367237,0.5367237 0 0 0 0.01758,-0.125 l 0.08008,-2.615234 c 0.04216,-1.395744 0.0779,-2.118641 0.175781,-2.548828 0.09789,-0.430188 0.235764,-0.624095 0.626953,-1.146485 0.10713,-0.143062 0.195863,-0.279239 0.263672,-0.412109 0.03391,-0.06643 0.06279,-0.129412 0.08789,-0.220703 0.01255,-0.04565 0.02628,-0.09681 0.02539,-0.185547 -8.9e-4,-0.08874 -0.01597,-0.250345 -0.164063,-0.398438 -6.04e-4,-6.03e-4 -0.06932,-0.05944 -0.103516,-0.08008 -0.0342,-0.02064 -0.06647,-0.03619 -0.0957,-0.04687 -0.05846,-0.02136 -0.105407,-0.02779 -0.142578,-0.03125 z m -1.333984,1.878907 c -0.05432,0.136864 -0.175002,0.246366 -0.210938,0.404296 -0.138035,0.606643 -0.158896,1.354455 -0.201172,2.753907 l -0.07813,2.554687 -1.001953,3.708985 c -1.067483,3.954595 -1.900916,6.857437 -2.804687,9.759765 -0.322414,1.035385 -0.880916,2.668299 -1.375,4.052735 -0.243513,0.682327 -0.470078,1.299517 -0.646485,1.761718 -0.05722,-0.08995 -0.100293,-0.142446 -0.160156,-0.24414 C 55.853794,50.602568 55.119239,47.71049 55.25,44.044922 c 0.0766,-2.147357 0.249792,-3.186996 0.820312,-4.935547 1.32553,-4.062536 4.2288,-7.615134 8.13086,-10.083984 z"
     id="path51" /><path
     style="baseline-shift:baseline;display:inline;overflow:visible;vector-effect:none;fill:#ffffff;fill-rule:evenodd;stroke-linecap:round;stroke-linejoin:round;paint-order:markers stroke fill;enable-background:accumulate;stop-color:#000000;stop-opacity:1"
     d="m 57.260109,54.049533 c -1.910937,-3.246252 -2.680307,-6.274643 -2.546565,-10.023782 0.07747,-2.171719 0.266009,-3.303645 0.846718,-5.083422 1.438426,-4.408546 4.629929,-8.255886 8.951104,-10.790509 0.503805,-0.295511 0.947624,-0.50568 0.986262,-0.467041 0.03864,0.03864 -0.07966,0.270437 -0.262876,0.515108 -0.792332,1.058071 -0.825786,1.205097 -0.910224,4.000293 l -0.07903,2.616264 -1.01763,3.769909 c -1.068606,3.958756 -1.905938,6.871224 -2.812028,9.781 -0.654126,2.10063 -2.234469,6.528791 -2.387001,6.688435 -0.06003,0.06283 -0.405956,-0.389987 -0.768728,-1.006255 z"
     id="path52" /></g></svg>
