<?xml version="1.0" encoding="UTF-8" standalone="no"?>
<!-- Created with Inkscape (http://www.inkscape.org/) -->

<svg
   version="1.1"
   id="svg1"
   width="497.44461"
   height="443.3681"
   viewBox="0 0 497.44461 443.3681"
   sodipodi:docname="pc.svg"
   xml:space="preserve"
   inkscape:version="1.4.3 (0d15f75042, 2025-12-25)"
   xmlns:inkscape="http://www.inkscape.org/namespaces/inkscape"
   xmlns:sodipodi="http://sodipodi.sourceforge.net/DTD/sodipodi-0.dtd"
   xmlns="http://www.w3.org/2000/svg"
   xmlns:svg="http://www.w3.org/2000/svg"><defs
     id="defs1" /><sodipodi:namedview
     id="namedview1"
     pagecolor="#ababab"
     bordercolor="#000000"
     borderopacity="0.25"
     inkscape:showpageshadow="2"
     inkscape:pageopacity="0.0"
     inkscape:pagecheckerboard="0"
     inkscape:deskcolor="#d1d1d1"
     inkscape:zoom="1.1023028"
     inkscape:cx="296.19812"
     inkscape:cy="254.92089"
     inkscape:window-width="1920"
     inkscape:window-height="1080"
     inkscape:window-x="0"
     inkscape:window-y="0"
     inkscape:window-maximized="0"
     inkscape:current-layer="g1" /><path
     style="baseline-shift:baseline;display:inline;overflow:visible;vector-effect:none;fill:#ffffff;stroke-width:1.0038;stroke-linecap:round;stroke-linejoin:round;paint-order:markers stroke fill;enable-background:accumulate;stop-color:#000000"
     d="m 458.54144,346.13919 a 2.5097527,2.5097527 0 0 0 -2.5095,2.5095 v 2.78789 a 2.5097527,2.5097527 0 0 0 2.5095,2.50951 h 3.48978 v 13.58856 a 2.5097527,2.5097527 0 0 0 2.5095,2.5095 h 3.24863 a 2.5097527,2.5097527 0 0 0 2.5095,-2.5095 v -13.58856 h 3.29372 v 13.58856 a 2.5097527,2.5097527 0 0 0 2.5095,2.5095 h 2.97807 a 2.5097527,2.5097527 0 0 0 2.21738,-2.21739 l 0.13332,0.43917 a 2.5097527,2.5097527 0 0 0 2.39971,1.77822 h 3.17609 a 2.5097527,2.5097527 0 0 0 2.39775,-1.76646 l 0.1588,-0.51367 a 2.5097527,2.5097527 0 0 0 2.28012,2.28013 h 3.09179 a 2.5097527,2.5097527 0 0 0 2.5095,-2.5095 v -18.88596 a 2.5097527,2.5097527 0 0 0 -2.5095,-2.5095 h -4.7112 a 2.5097527,2.5097527 0 0 0 -2.39383,1.75468 l -2.3507,7.45793 -2.30953,-7.44617 a 2.5097527,2.5097527 0 0 0 -2.39579,-1.76644 h -4.67198 a 2.5097527,2.5097527 0 0 0 -1.16457,1.16456 2.5097527,2.5097527 0 0 0 -1.16456,-1.16456 z"
     id="path4" /><g
     inkscape:groupmode="layer"
     inkscape:label="Image"
     id="g1"
     transform="translate(-54.076796,-49.089812)"><g
       id="g55"><path
         style="baseline-shift:baseline;display:inline;overflow:visible;vector-effect:none;fill:#ffffff;stroke-linecap:round;stroke-linejoin:round;paint-order:markers stroke fill;enable-background:accumulate;stop-color:#000000"
         d="m 453.95898,297.60742 c -0.6489,-0.0854 -1.28185,-0.0888 -1.85351,0.0137 -2.28666,0.40982 -3.27425,1.38547 -3.89063,1.9668 -1.23274,1.16266 -1.36665,1.6678 -1.61132,2.11523 -0.48936,0.89487 -0.68703,1.44991 -0.94727,2.14258 -0.52048,1.38535 -1.0619,3.07705 -1.69336,5.19141 -1.26292,4.22872 -2.82437,10.0236 -4.43359,16.5293 -1.56115,6.31135 -3.15496,12.16999 -4.42578,16.4082 -0.38492,1.28369 -0.65027,2.03871 -0.95899,2.97461 -1.42631,0.17174 -2.92437,0.3492 -5.04492,0.55664 -5.49063,0.5371 -12.94553,1.15264 -20.95117,1.70703 l -29.33399,2.03125 a 7.50075,7.50075 0 0 0 -3.57812,13.76563 l 1.82812,1.1914 c -2.87783,0.23677 -5.55226,1.31231 -8.16992,2.60742 -1.78572,0.88351 -3.52282,2.02284 -5.24609,3.3086 0.53051,-0.82428 1.14644,-1.6267 1.60351,-2.45899 1.03831,-1.89064 2.24805,-3.03094 2.24805,-7.125 0,-4.94479 -2.18308,-6.77882 -4.07031,-8.78515 -1.88723,-2.00633 -4.14157,-3.73314 -6.77149,-5.14063 -1.78212,-0.95376 -4.41949,-1.8012 -7.28515,-1.25976 -2.86567,0.54144 -5.10282,2.33685 -6.48828,4.01953 -2.77093,3.36536 -3.93469,6.92651 -5.61915,12.13086 -1.12866,3.48715 -2.10448,5.16181 -2.00781,8.91992 0.0134,0.51946 0.22445,1.12989 0.35742,1.71484 -0.88088,0.33733 -1.73587,0.71674 -2.38281,1.14844 -1.56862,1.04674 -2.63875,2.1495 -3.71289,3.32422 -2.12458,2.32354 -3.80686,5.01641 -5.37109,8.16797 -0.54584,-1.96942 -1.4458,-3.91649 -3.20703,-5.67774 -1.34517,-1.34516 -5.03233,-3.58925 -8.17579,-3.54492 -3.14345,0.0443 -5.00585,0.85058 -8.01953,1.85156 -7.41005,2.46123 -15.28518,7.57452 -22.34375,13.17578 -1.24257,0.98604 -2.39204,1.99631 -3.55078,3.00391 -0.49842,-1.71661 -1.29436,-3.40283 -2.66797,-4.85742 -2.53543,-2.68493 -6.14784,-3.68798 -9.14453,-3.73633 -5.99337,-0.0967 -11.51378,2.19548 -18.77929,5.84766 -8.76441,4.40561 -15.19848,9.8996 -22.67774,19.43164 -1.8974,-2.23142 -4.30694,-3.58066 -6.72851,-4.4336 -1.5282,-0.53826 -3.20289,-0.89781 -4.94727,-0.98632 -0.61471,-1.35545 -1.28026,-2.68397 -2.16602,-3.8418 -2.21836,-2.89976 -5.33797,-5.83984 -10.60546,-5.83984 -2.99641,0 -4.25244,0.89727 -5.55469,1.62304 -1.30226,0.72578 -2.45952,1.55157 -3.66016,2.49024 -2.40128,1.87733 -4.92287,4.21975 -7.45703,6.81836 -0.0451,0.0462 -0.0839,0.0982 -0.12891,0.14453 0.94631,-2.26788 1.98848,-4.63393 2.81446,-6.75586 1.60304,-4.11819 2.94728,-7.87116 3.93164,-11.05664 0.98436,-3.18548 1.7539,-5.23628 1.7539,-8.57813 0,-2.16593 -0.49887,-4.60941 -2.08203,-6.7832 -1.58316,-2.17379 -4.29654,-3.67477 -6.75195,-4.00781 -3.56979,-0.4842 -6.37068,0.58054 -8.76367,2.23632 -0.45666,-1.10799 -1.00222,-2.12433 -1.6211,-2.9707 -0.50262,-0.68738 -1.47275,-2.33489 -3.93359,-3.6289 -2.46084,-1.29402 -5.13689,-1.23915 -7.04297,-0.93165 -3.81215,0.61501 -7.53734,2.05449 -15.5332,4.80079 -9.99505,3.43295 -20.8479,11.37761 -31.44336,21.02734 -10.59546,9.64973 -20.527742,20.92748 -26.804688,31.65039 -8.995196,15.36651 -12.982346,27.89214 -12.996094,42.08203 -0.0062,6.38457 0.444109,11.51379 2.105469,16.13867 1.661359,4.62489 5.065366,8.67015 9.21289,10.84766 6.368886,3.34376 13.688883,2.43257 20.773443,-0.36133 7.08455,-2.7939 14.54926,-7.64359 22.65429,-14.37109 2.91211,-2.41718 5.86896,-5.27146 8.71875,-8.20508 -0.0161,0.49648 -0.14546,1.13196 -0.14648,1.60937 -0.005,2.24901 0.0682,4.16919 0.82031,6.47266 0.37606,1.15174 0.93428,2.48698 2.23828,3.87109 1.304,1.38412 3.6474,2.61218 5.83789,2.73243 4.38098,0.2405 6.34206,-1.86638 7.875,-3.35743 1.53295,-1.49104 2.76744,-3.14896 4.10742,-5.17382 0.81891,-1.23746 5.82524,-6.5012 9.15039,-9.01172 l 2.34961,-1.77344 -1.39257,-1.30664 c 3.31752,3.11665 9.27296,5.15339 14.15429,3.73828 4.45399,-1.29122 7.87094,-4.04936 11.81446,-7.66797 0.30811,0.37554 0.5147,0.77309 0.8457,1.14258 l 3.90039,4.35352 a 7.50075,7.50075 0 0 0 10.73437,0.45117 l 4.23829,-4 c 0.97225,-0.91749 2.0112,-2.37666 2.96875,-3.52735 0.40303,0.48002 0.80698,0.97495 1.20703,1.375 4.23029,4.2303 9.23549,4.82094 14.21875,4.83204 4.98325,0.0111 10.23225,-1.02189 15.16211,-3.25977 3.99323,-1.8127 7.58307,-4.4237 10.85937,-7.37891 2.83841,3.02885 5.5612,3.2583 8.05078,3.59571 2.65894,0.36036 5.4186,0.3363 8.35742,0.0957 5.87765,-0.48121 12.32418,-1.83916 18.00196,-4.29102 3.08536,-1.33236 5.88749,-3.10286 8.52148,-5.06836 0.75146,0.40315 1.40179,0.64367 1.85742,0.75196 1.34552,0.31979 1.88433,0.23716 2.39649,0.21679 1.02432,-0.0407 1.67331,-0.16182 2.43554,-0.30664 1.52447,-0.28963 3.23974,-0.73084 5.14649,-1.30468 2.29801,-0.6916 2.66425,-0.68199 2.51367,-0.73633 0.11069,0.0889 -0.004,0.0183 0.20117,0.17969 1.35152,1.0631 2.72611,1.92657 4.15625,2.64453 1.43014,0.71795 2.30487,1.56054 5.65821,1.56054 4.98964,0 5.13849,-1.69983 6.09375,-2.5332 0.95526,-0.83337 1.73222,-1.67878 2.55664,-2.64453 1.04994,-1.22994 2.1449,-2.88295 3.23047,-4.42969 0.21251,0.26312 0.40085,0.5504 0.62109,0.80469 2.70819,3.12687 6.11156,6.13477 11.78516,6.13477 7.32724,0 13.00667,-3.80403 19.55859,-8.90821 6.55192,-5.10418 13.48882,-12.05382 20.15039,-20.26367 6.72455,-8.28748 11.07788,-13.37238 14.24219,-16.51367 3.1643,-3.1413 4.9052,-4.30964 7.6289,-5.66992 3.91906,-1.95727 6.84564,-2.81278 9,-3.27344 -0.3606,1.64881 -0.77266,3.49056 -1.34765,5.9082 -1.38835,5.83751 -3.31756,13.54785 -5.4375,21.65821 -2.14137,8.1923 -4.02526,15.63721 -5.34766,21.07812 -0.6612,2.72046 -1.18055,4.92887 -1.5332,6.54492 -0.17633,0.80803 -0.30827,1.4468 -0.41406,2.06055 -0.0529,0.30688 -0.10349,0.56462 -0.14844,1.11133 -0.0225,0.27335 -0.0808,0.54473 0.008,1.45508 0.0443,0.45517 0.0274,1.0587 0.64648,2.41601 0.30953,0.67866 0.81448,1.62319 1.96485,2.60352 1.15036,0.98033 3.12612,1.79297 4.87109,1.79297 2.31514,0 2.68903,-0.48062 3.11914,-0.67579 0.43012,-0.19516 0.6345,-0.32069 0.80274,-0.42187 0.33647,-0.20237 0.48236,-0.31103 0.62304,-0.41211 0.28136,-0.20215 0.46846,-0.35057 0.68555,-0.52344 0.43419,-0.34573 0.93203,-0.76015 1.55274,-1.2832 1.24141,-1.04611 2.93857,-2.5056 5.0039,-4.30274 4.13067,-3.59426 9.72014,-8.5242 15.80469,-13.94921 6.0107,-5.35917 11.61585,-10.19592 15.73242,-13.61329 1.21219,-1.00629 1.94715,-1.57038 2.86133,-2.29882 1.08136,0.69083 2.03433,1.29382 3.48437,2.23632 4.52091,2.93853 10.62469,6.96459 17.1875,11.34961 6.64421,4.43941 12.6794,8.33702 17.13672,11.0918 2.22867,1.37739 4.0407,2.45827 5.47266,3.24609 0.71598,0.39392 1.28078,0.70173 2.08398,1.04297 0.40161,0.17062 0.72437,0.38162 1.97852,0.60547 0.62707,0.11193 1.49294,0.44979 3.64648,-0.22265 1.07677,-0.33623 2.59274,-1.1277 3.72071,-2.58594 1.12796,-1.45824 1.57422,-3.32778 1.57422,-4.61328 0,-2.45056 -0.2616,-2.03265 -0.35743,-2.36133 -0.0958,-0.32868 -0.18305,-0.58549 -0.28125,-0.87109 -0.19639,-0.57121 -0.43603,-1.22456 -0.73828,-2.02344 -0.60449,-1.59777 -1.44706,-3.74223 -2.48242,-6.33008 -2.07073,-5.1757 -4.90832,-12.10194 -8.03125,-19.57617 -5.41137,-12.95125 -8.21195,-19.87219 -9.13086,-22.89453 0.37172,-0.36266 0.31673,-0.31356 0.83399,-0.79688 1.26989,-1.18658 2.99731,-2.77274 5.03515,-4.62695 4.07568,-3.70842 9.40608,-8.49524 14.98047,-13.43945 5.62494,-4.98905 10.69375,-9.56214 14.36914,-12.94727 1.8377,-1.69256 3.31978,-3.07955 4.39649,-4.12305 0.53835,-0.52175 0.96146,-0.94094 1.36914,-1.375 0.20383,-0.21702 0.3859,-0.40212 0.72265,-0.83398 0.16838,-0.21593 0.37086,-0.42712 0.77539,-1.19141 0.20227,-0.38214 0.50279,-0.86301 0.74414,-2.10937 0.12068,-0.62318 0.23821,-1.48091 0.0312,-2.69532 -0.10347,-0.6072 -0.30125,-1.30142 -0.64648,-2.01367 -0.34523,-0.71225 -1.44649,-2.03438 -1.44727,-2.03515 -3.07613,-3.07613 -3.56424,-2.01506 -4.05859,-2.10157 -0.49435,-0.0865 -0.71975,-0.0946 -0.92188,-0.10742 -0.40425,-0.0257 -0.63559,-0.0246 -0.89062,-0.0234 -0.51005,0.002 -1.03368,0.021 -1.68164,0.0488 -1.29593,0.0557 -3.02911,0.15508 -5.14649,0.29297 -4.23474,0.27579 -9.96912,0.70245 -16.23437,1.2168 -12.35775,1.01451 -26.40608,1.85814 -29.58203,1.875 l -2.45899,0.0137 -7.04492,-17.00977 c -2.48306,-5.99553 -4.839,-11.55283 -6.65625,-15.71875 -0.90862,-2.08295 -1.6796,-3.81187 -2.28515,-5.11914 -0.30278,-0.65363 -0.56089,-1.19403 -0.8086,-1.68359 -0.12385,-0.24478 -0.23947,-0.47232 -0.40234,-0.75781 -0.16288,-0.28549 -0.0575,-0.4088 -1.14844,-1.58789 -0.99324,-1.07343 -3.08258,-2.06614 -5.0293,-2.32227 z m 0.81446,29.01367 c 0.32466,0.77497 0.56612,1.32683 0.89843,2.125 -0.53011,0.0233 -1.02691,0.0903 -1.52539,0.21289 0.23068,-0.93053 0.39919,-1.44097 0.62696,-2.33789 z m 57.66406,28.10938 c -0.91446,0.819 -1.55597,1.41311 -2.51758,2.26953 -0.16948,-0.77685 -0.38519,-1.47009 -0.70898,-2.04297 0.57072,-0.046 0.82323,-0.0411 1.39258,-0.0879 0.71104,-0.0584 1.1382,-0.0827 1.83398,-0.13867 z m -55.65039,3.41211 1.87109,4.65625 a 7.50075,7.50075 0 0 0 7.06446,4.70117 l 7.52539,-0.10742 c 2.54452,-0.0358 6.78607,-0.35879 10.64453,-0.58399 l -13.15039,12.40235 a 7.50075,7.50075 0 0 0 -1.75391,8.39453 l 4.53711,10.65039 -9.24414,-6.15625 a 7.50075,7.50075 0 0 0 -9.02734,0.53906 l -5.26563,4.49414 c -0.89738,0.76599 -2.6187,2.26556 -3.91211,3.37891 1.1912,-4.69105 2.2673,-9.11815 2.86524,-12.44336 0.71798,-3.99281 1.6039,-5.97121 0.47656,-10.46289 -0.78875,-3.14264 -2.82,-5.93669 -5.29883,-7.84766 0.6177,-0.0863 1.33529,-0.0686 1.92383,-0.18554 1.0886,-0.21641 2.11964,-0.47258 3.25,-0.91211 1.13036,-0.43954 2.46376,-0.75865 4.23633,-2.97461 1.36663,-1.70847 1.39607,-2.27969 1.77343,-3.19336 0.37737,-0.91368 0.73075,-1.8962 1.09571,-2.99414 0.13149,-0.39557 0.25615,-0.93426 0.38867,-1.35547 z m -67.55664,13.99023 0.67383,0.43946 a 7.50075,7.50075 0 0 0 4.78515,1.18554 l 14.97266,-1.38086 c -8.1284,3.99525 -14.14752,8.40603 -21.46875,16.07617 1.40314,-3.25135 1.97266,-6.70824 1.97266,-10.49218 0,-1.92733 -0.26802,-3.85057 -0.93555,-5.82813 z m -14.30078,8.62891 c -0.1594,0.98565 -0.3507,1.71735 -0.48633,1.99023 -1.32343,0.36676 -2.52706,0.84216 -3.63867,1.40235 1.7446,-1.77722 3.03514,-2.74151 4.125,-3.39258 z m -216.94532,0.0684 c -0.44107,0.4565 -0.62217,0.73319 -1.1582,1.24414 -1.49291,1.42307 -2.59002,2.803 -3.80273,4.19726 -1.00732,-1.10831 -2.32682,-1.83945 -3.67969,-2.30078 0.88269,-0.4089 1.8882,-0.96037 2.63477,-1.21679 3.67734,-1.26304 3.87293,-1.24334 6.00585,-1.92383 z m -2.5371,11.94922 c 0.009,0.003 0.0461,0.004 0.0547,0.008 0.002,0.14751 -0.002,0.0452 -0.002,0.45117 0,-0.13272 -0.0503,-0.31952 -0.0527,-0.45898 z m 0.26757,0.0371 c 0.36781,0.19262 0.23423,0.34955 0.043,0.11132 -0.0287,-0.0357 -0.02,-0.0692 -0.043,-0.11132 z m 225.69532,3.21289 c -1.70771,1.99781 -3.23469,3.68455 -5.1836,6.07226 -5.04409,6.1798 -9.98916,11.45053 -14.23633,15.50977 1.07891,-2.66242 2.31318,-5.37913 3.7461,-7.82422 1.44284,-2.46202 4.29363,-5.87176 7.10547,-8.46875 2.81183,-2.59699 6.29094,-4.32428 5.71484,-4.17969 0.99166,-0.24889 1.9459,-0.63144 2.85352,-1.10937 z m -238.27344,4.88672 c 0.32536,0.44787 0.57931,0.97321 0.92383,1.40234 1.84259,2.29516 3.5391,5.18164 9.36718,5.18164 0.61953,0 1.11528,-0.23924 1.67579,-0.37109 -1.28964,3.38315 -2.58634,6.77416 -3.8086,10.31445 -2.38657,6.91273 -4.49656,13.78012 -6.38281,20.4668 -2.76821,-0.25192 -4.86451,0.56814 -6.51758,1.45507 -3.4029,1.82578 -5.97237,4.38537 -9.24023,7.96094 -5.87564,6.42888 -12.78926,12.00624 -18.45117,15.3711 -2.31558,1.37613 -4.13214,2.09239 -5.70508,2.65625 0.003,-1.32328 -0.0573,-1.55549 0.082,-4.21094 0.46325,-8.82602 0.81122,-10.16214 4.81445,-18.5918 7.44635,-15.67988 21.28532,-32.78083 33.24219,-41.63476 z m 174.71289,1.96875 c -0.10357,0.38452 -0.19578,0.64741 -0.30078,1.04296 -0.0762,0.28688 -0.1669,0.49864 -0.24414,0.78125 -0.35489,-0.31645 -0.68581,-0.64936 -1.07422,-0.92578 0.56144,-0.28409 1.12794,-0.56239 1.61914,-0.89843 z m 175.82617,17.59375 c 0.65884,1.58578 1.12739,2.75447 1.74609,4.25585 -1.43087,-0.93989 -2.38629,-1.51416 -3.90039,-2.52343 0.91319,-0.50496 1.62803,-1.08588 2.1543,-1.73242 z m -191.23633,0.0996 c -0.018,0.006 -0.0362,0.0892 -0.44531,0.16211 0.027,-0.01 0.0922,-0.0377 0.11719,-0.0469 0.20897,-0.0764 0.35716,-0.12425 0.32812,-0.11524 z m -90.53515,0.23633 c -0.32767,0.83683 -0.8718,1.97167 -1.28516,2.94141 0.0495,-0.20275 0.17182,-0.48881 0.2168,-0.6875 0.16521,-0.72988 0.32115,-1.42444 0.49414,-2.11524 0.15789,-0.0561 0.44675,-0.088 0.57422,-0.13867 z m 217.55468,4.85547 c 0.73227,0.57661 1.45768,0.98479 2.15821,1.22266 -1.20388,1.07104 -2.03532,1.79102 -3.18164,2.80664 0.37213,-1.45131 0.62673,-2.49986 1.02343,-4.0293 z m -188.45507,8.85547 c -0.19296,0.22448 -0.31906,0.48773 -0.51563,0.70508 -0.10671,-0.16808 -0.20748,-0.33442 -0.32422,-0.50195 0.27874,-0.0678 0.56357,-0.12454 0.83985,-0.20313 z m -40.07422,18.91211 c 0.01,-0.006 -0.0243,0.19768 -0.44336,0.37695 0.0479,-0.0359 0.43866,-0.3741 0.44336,-0.37695 z"
         id="path54" /><path
         style="baseline-shift:baseline;display:inline;overflow:visible;vector-effect:none;fill:#50bd7c;stroke-linecap:round;stroke-linejoin:round;paint-order:markers stroke fill;enable-background:accumulate;stop-color:#000000"
         d="m 90.666663,483.67199 c -5.289582,-2.77711 -7.317649,-8.42283 -7.3061,-20.33867 0.0125,-12.90212 3.345844,-23.56818 11.969381,-38.29978 11.330976,-19.35671 38.282086,-43.90223 54.212766,-49.37387 15.98552,-5.49047 16.11414,-5.51122 18.01848,-2.90688 3.16953,4.33458 1.93742,7.60258 -5.5612,14.75037 -4.26457,4.06506 -7.33333,8.14241 -7.33333,9.74354 0,1.51431 -0.55714,2.75329 -1.23809,2.75329 -2.1486,0 -5.42858,-4.08559 -5.42858,-6.76191 0,-3.58217 -2.7185,-3.21095 -8.79994,1.20164 -13.52476,9.81334 -27.9373,27.74639 -36.08067,44.89401 -4.153232,8.74553 -5.046507,12.20488 -5.529949,21.41565 -0.523804,9.97978 -0.329951,11.11726 2.117913,12.42731 5.642596,3.01983 22.234076,-6.84043 34.983966,-20.79084 6.03112,-6.59902 9.58611,-8.50639 11.14702,-5.98078 1.11651,1.80655 -10.84089,15.78505 -20.02057,23.40457 -15.40883,12.78995 -27.849157,17.69598 -35.151097,13.86235 z m 56.012077,-14.67201 c 0.0435,-20.39391 20.79695,-80.50648 31.13016,-90.16868 3.78681,-3.5409 7.52443,-3.03394 7.52443,1.0206 0,4.82713 -8.24497,26.00836 -16.66366,42.80874 -7.37223,14.71207 -15.07729,35.37618 -13.70315,36.75031 0.26887,0.26887 3.89298,-2.18293 8.05358,-5.44844 6.58776,-5.1705 7.85035,-6.92906 9.77629,-13.61658 1.21635,-4.2236 3.71233,-10.6624 5.54661,-14.30843 4.04772,-8.04573 18.99279,-23.37085 22.79126,-23.37085 3.2458,0 6.86573,4.73185 6.86573,8.97464 0,2.6751 0.31413,2.85178 2.56788,1.44429 3.02923,-1.89178 8.98864,0.20726 10.30146,3.62843 0.44118,1.14969 -2.25992,8.35271 -6.07391,16.19727 -3.77762,7.76976 -6.62844,14.3668 -6.33516,14.66008 0.29328,0.29328 5.91438,-7.7403 12.49134,-17.8524 13.07513,-20.10306 18.98785,-26.30597 30.67562,-32.18107 13.6121,-6.84243 20.37277,-6.73335 20.37277,0.32868 0,3.61615 -3.54954,8.80008 -6.02559,8.80008 -4.33725,0 -16.62603,5.71143 -21.4448,9.96686 -6.02975,5.32484 -5.18495,5.7077 4.48469,2.03247 7.87506,-2.99315 16.31145,-3.47358 18.71903,-1.06599 6.19061,6.1906 -7.43321,28.09563 -21.4241,34.44669 -7.643,3.46949 -17.48161,3.44759 -20.97589,-0.0467 -3.52131,-3.5213 -3.36436,-5.6329 0.78519,-10.56436 3.99028,-4.74219 6.54129,-5.18547 8.52378,-1.48115 1.15954,2.16662 0.82085,3.00246 -1.95309,4.82001 -4.16823,2.73113 -4.30136,4.55884 -0.33206,4.55884 7.21552,0 21.15153,-15.21013 23.16639,-25.28439 0.795,-3.975 0.70544,-4.07001 -2.63822,-2.79874 -1.90364,0.72376 -5.85769,2.53854 -8.78679,4.03286 -5.86345,2.99131 -9.52321,3.42559 -11.57523,1.37357 -0.90226,-0.90225 -4.00868,2.70967 -9.46051,11 -4.46443,6.78885 -10.02459,14.14336 -12.35591,16.34336 l -4.23878,4 -3.90072,-4.35436 c -2.1454,-2.39491 -3.90072,-5.32701 -3.90072,-6.51579 0,-1.45481 -2.14181,-0.15801 -6.55148,3.96672 -8.28598,7.75056 -12.46243,8.96132 -16.81305,4.87413 l -3.21689,-3.02211 -7.39527,5.58348 c -4.0674,3.07092 -8.96632,7.95749 -10.88648,10.85905 -4.65909,7.04036 -7.1403,6.90415 -7.12475,-0.39112 z m 54.55173,-40.36449 c 4.46931,-11.9453 3.23268,-14.74004 -3.16037,-7.14233 -5.87081,6.97706 -14.46203,24.79398 -13.05405,27.07215 1.44018,2.33026 13.37399,-12.33809 16.21442,-19.92982 z m 221.67458,-7.6355 c 4.26497,-16.31667 7.75609,-30.99556 7.75805,-32.61976 0.008,-6.3468 -8.20775,-6.45795 -20.58098,-0.27846 -6.58021,3.28632 -10.80082,7.47623 -24.34336,24.16634 -12.70815,15.66178 -26.49026,26.39854 -33.88618,26.39854 -4.06066,0 -9.18593,-5.91763 -9.18593,-10.60606 0,-2.23333 -0.48982,-4.0606 -1.0885,-4.0606 -0.59868,0 -3.57487,3.89999 -6.61376,8.66666 -3.03889,4.76667 -6.36815,8.66667 -7.39835,8.66667 -1.0302,0 -3.35997,-1.16958 -5.17727,-2.59907 -3.05714,-2.40474 -3.76839,-2.45936 -9.51315,-0.73044 -3.41493,1.02774 -6.20896,1.55859 -6.20896,1.17965 0,-0.37893 1.67763,-2.1006 3.72806,-3.82593 5.57165,-4.68823 10.48995,-14.76345 14.4033,-29.50539 3.79937,-14.31255 6.0224,-19.55431 10.25702,-24.18549 3.51756,-3.84696 5.08392,-3.77654 9.01245,0.40519 2.94694,3.13688 3.04405,3.65513 1.23242,6.57726 -7.88772,12.72275 -10.97331,18.75791 -14.55022,28.45902 -3.95337,10.72212 -5.28979,18.46173 -2.93672,17.00745 0.63047,-0.38965 4.20905,-6.01527 7.9524,-12.50138 16.87458,-29.23857 27.98477,-43.89255 36.45538,-48.08348 7.08502,-3.50538 10.4459,-2.08026 10.4459,4.42939 0,6.81466 -2.05207,10.92988 -5.93638,11.90478 -4.65504,1.16834 -13.46463,9.30482 -17.46452,16.13012 -5.23637,8.93519 -8.78203,20.50515 -7.19349,23.47335 0.74518,1.3924 1.86597,2.53163 2.49062,2.53163 3.96908,0 15.73454,-10.77241 27.47411,-25.1552 14.66008,-17.96086 19.80105,-22.51157 31.99361,-28.32027 14.29993,-6.81267 26.27248,-6.4269 28.11288,0.90583 0.56853,2.26521 -0.8238,10.00814 -3.8965,21.66898 -2.62963,9.97936 -4.52558,18.39986 -4.21323,18.71221 0.31235,0.31235 3.9405,-2.36747 8.06256,-5.95515 4.12206,-3.58768 9.86458,-8.54599 12.76115,-11.01847 l 5.26651,-4.49541 13.37517,8.90525 c 7.35634,4.89788 13.84302,8.72081 14.41485,8.4954 0.57183,-0.22541 -1.89994,-7.30983 -5.49282,-15.74316 l -6.53251,-15.33334 13.42869,-12.66666 c 7.38577,-6.96667 13.41082,-12.97607 13.38899,-13.35423 -0.0218,-0.37815 -4.98969,-0.27586 -11.03969,0.22731 -6.05,0.50318 -14.3862,0.96258 -18.52488,1.02089 l -7.52488,0.10603 -3.61901,-9 c -1.99045,-4.95 -4.21605,-10.5 -4.94576,-12.33334 -1.30505,-3.27879 -1.34464,-3.28689 -2.41999,-0.49506 -0.60127,1.56105 -2.11301,6.96105 -3.35942,12 -1.24641,5.03895 -2.86613,9.91173 -3.59939,10.8284 -0.76403,0.95515 -4.53647,1.70506 -8.8366,1.75661 -4.12687,0.0495 -15.9034,0.86483 -26.17007,1.81189 l -18.66666,1.72194 -7.33334,-4.78192 -7.33333,-4.78192 29.33333,-2.03132 c 16.13334,-1.11723 30.01742,-2.47538 30.85352,-3.01812 0.83609,-0.54275 4.11623,-11.48201 7.28918,-24.30947 3.17295,-12.82746 6.17601,-22.88279 6.67346,-22.34518 0.49745,0.53762 4.94245,10.72749 9.87777,22.64416 l 8.97331,21.66666 7.49971,-0.0398 c 4.12485,-0.0219 17.69483,-0.87679 30.15552,-1.89975 12.46069,-1.02296 22.81823,-1.6975 23.01675,-1.49898 0.19852,0.19853 -8.79659,8.48324 -19.98914,18.41049 -11.19254,9.92724 -21.38997,19.20578 -22.66095,20.61896 -2.21484,2.46267 -1.84087,3.6943 9,29.6402 6.22098,14.88892 11.31087,27.61091 11.31087,28.2711 0,0.66019 -10.7759,-5.99969 -23.94643,-14.79973 -13.17054,-8.80005 -24.4909,-16.15812 -25.15636,-16.35127 -0.66546,-0.19316 -11.13585,8.49881 -23.26753,19.31547 -12.13168,10.81667 -22.30244,19.66667 -22.60169,19.66667 -0.29925,0 2.94544,-13.35 7.21041,-29.66666 z m -157.43952,25.15929 c -2.73724,-3.29817 0.21278,-8.85761 7.7503,-14.60579 7.77111,-5.92633 9.45083,-6.08713 9.45083,-0.90473 0,3.29069 -0.81028,4.32066 -4.66667,5.93196 -5.13337,2.14486 -6.20727,4.7526 -1.95717,4.7526 7.67441,0 17.04189,-7.72516 22.61565,-18.65062 2.60486,-5.10595 3.46646,-9.34938 1.89834,-9.34938 -0.42709,0 -4.87765,1.8 -9.89015,4 -5.0125,2.2 -9.65024,4 -10.30608,4 -2.26316,0 -7.18797,-8.05981 -6.41429,-10.49746 2.24777,-7.08211 21.67957,-22.50204 33.16305,-26.31624 5.8218,-1.93369 6.70227,-1.94611 8.5281,-0.12028 3.24673,3.24674 1.1539,11.36589 -3.37605,13.09741 -9.69492,3.70576 -20.21654,9.65576 -23.70937,13.4077 -3.06077,3.28783 -3.31941,3.9531 -1.2187,3.13465 9.88495,-3.85121 19.01218,-6.02868 22.27046,-5.31304 11.95005,2.62467 -0.89132,27.94088 -17.89788,35.2849 -9.22748,3.98474 -23.73082,5.17214 -26.24037,2.14832 z m 79.16811,-73.35189 c -2.46104,-1.79955 -2.46847,-2.08861 -0.23151,-9 3.18725,-9.84741 5.3023,-12.41619 8.71795,-10.58819 3.74879,2.00629 6.87991,5.33501 6.87991,7.3141 0,3.09818 -8.22755,14.13335 -10.53748,14.13335 -1.2574,0 -3.43039,-0.83667 -4.82887,-1.85926 z"
         id="path55" /></g><path
       style="baseline-shift:baseline;display:inline;overflow:visible;vector-effect:none;fill:#50bd7c;fill-opacity:1;stroke-width:1.0038;stroke-linecap:round;stroke-linejoin:round;paint-order:markers stroke fill;enable-background:accumulate;stop-color:#000000"
       d="m 512.61895,397.73839 h 15.22999 v 2.7873 h -5.98184 v 16.0988 h -3.24932 v -16.0988 h -5.99883 z m 20.53853,18.8861 h -2.97929 v -18.8861 h 4.67191 l 4.68711,15.11095 4.764,-15.11095 h 4.71037 v 18.8861 h -3.09107 v -15.60575 l -4.83643,15.60575 h -3.176 l -4.7506,-15.60575 z"
       id="path5" /><g
       id="path53"><path
         style="baseline-shift:baseline;display:inline;overflow:visible;vector-effect:none;fill:#ffffff;stroke-linecap:round;stroke-linejoin:round;paint-order:markers stroke fill;enable-background:accumulate;stop-color:#000000;stop-opacity:1"
         d="m 357.7168,129.67969 c -9.86541,0.0884 -21.86429,0.72655 -28.21289,1.62695 -5.88403,0.8345 -12.19105,2.62893 -17.78711,4.78516 -5.59607,2.15622 -10.08602,3.83056 -13.95118,8.09765 -0.5269,0.5817 -1.62409,1.16987 -2.22656,4.26367 -0.30123,1.54691 -0.02,3.97044 1.05078,5.67774 1.0708,1.7073 2.41843,2.52887 3.36328,2.98437 3.77942,1.82201 4.74222,1.11871 7.35743,1.11524 5.23042,-0.007 14.31408,-0.53464 31.39648,-1.56641 20.23943,-1.22245 42.2837,-2.29085 47.88477,-2.36328 5.23119,-0.0677 7.30745,0.22109 10.84765,-0.6543 0.88505,-0.21884 2.11478,-0.33678 3.98438,-2.1289 1.8696,-1.79213 2.67688,-6.47539 1.84961,-8.55078 -1.65455,-4.15078 -2.77226,-3.69175 -3.57032,-4.29493 -2.19882,-1.66185 -3.72901,-2.19008 -6.01171,-3.16015 -2.28271,-0.97007 -4.91099,-1.95933 -7.53125,-2.8086 -7.77619,-2.52037 -13.92314,-3.15356 -28.44336,-3.02343 z m 32.69336,20.84179 c -0.0284,-0.0249 0.31304,0.16437 0.24804,0.11524 0.25021,0.18911 0.11482,0.30943 -0.24804,-0.11524 z"
         id="path58" /><path
         style="baseline-shift:baseline;display:inline;overflow:visible;vector-effect:none;fill:#705e31;stroke-linecap:round;stroke-linejoin:round;paint-order:markers stroke fill;enable-background:accumulate;stop-color:#000000;stop-opacity:1"
         d="m 303.32494,149.22394 c 3.45344,-3.81257 17.03806,-9.04687 27.23141,-10.49254 5.41802,-0.76842 17.67058,-1.4672 27.2279,-1.55285 14.34425,-0.12855 18.89282,0.33559 26.0626,2.65942 4.7771,1.54833 9.8771,3.71565 11.33333,4.81626 2.42496,1.83278 1.6943,2.01345 -8.68564,2.1477 -6.23333,0.0806 -27.94138,1.14971 -48.2401,2.37574 -34.1423,2.06218 -36.75866,2.06565 -34.9295,0.0463 z"
         id="path59" /></g><g
       id="path52"><path
         style="baseline-shift:baseline;display:inline;overflow:visible;vector-effect:none;fill:#ffffff;stroke-linecap:round;stroke-linejoin:round;paint-order:markers stroke fill;enable-background:accumulate;stop-color:#000000;stop-opacity:1"
         d="m 226.95508,137.57812 c -2.12168,-0.022 -4.57625,0.0422 -7.70313,0.084 -6.25376,0.0835 -14.22837,0.31756 -22.9375,0.66016 -17.41824,0.68518 -37.72748,1.80211 -52.76953,3.04101 l -9.66601,0.79688 a 7.50075,7.50075 0 0 0 -6.88477,7.47461 v 5.21875 c 0,2.48111 -0.51983,4.45567 1.51172,8.02148 1.01578,1.78291 3.16511,3.48383 4.91406,4.10547 1.74895,0.62164 2.96906,0.62343 3.95899,0.63867 7.91106,0.1216 35.38845,-1.46093 62.27148,-3.1543 13.44152,-0.84668 26.46263,-1.72892 36.12891,-2.46289 4.83314,-0.36698 8.81742,-0.69497 11.6582,-0.9707 1.42039,-0.13786 2.53502,-0.25822 3.45703,-0.38672 0.46101,-0.0643 0.82872,-0.11262 1.44336,-0.25391 0.30732,-0.0706 0.598,-0.0874 1.54102,-0.5039 0.47151,-0.20825 1.15046,-0.35176 2.45312,-1.72461 0.65133,-0.68643 1.54665,-1.84985 1.91797,-3.69531 0.37132,-1.84547 -0.15584,-4.1088 -0.97461,-5.4336 -2.20768,-3.5721 -3.6619,-3.62192 -5.39648,-4.55859 -1.73459,-0.93667 -3.67391,-1.79246 -5.78907,-2.61524 -4.23031,-1.64555 -9.01851,-3.11786 -13.42773,-3.85156 -1.79646,-0.29893 -3.58535,-0.40771 -5.70703,-0.42969 z"
         id="path60" /><path
         style="baseline-shift:baseline;display:inline;overflow:visible;vector-effect:none;fill:#705e31;stroke-linecap:round;stroke-linejoin:round;paint-order:markers stroke fill;enable-background:accumulate;stop-color:#000000;stop-opacity:1"
         d="m 134.49455,154.85392 v -5.21957 l 9.66666,-0.79617 c 29.71619,-2.4475 81.05578,-4.46706 87.27017,-3.43298 7.18712,1.19594 18.16221,5.46516 19.46386,7.57128 0.5919,0.95772 -100.7031,7.33831 -113.40069,7.14313 -2.59236,-0.0399 -3,-0.75535 -3,-5.26569 z"
         id="path61" /></g><g
       id="path51"><path
         style="baseline-shift:baseline;display:inline;overflow:visible;vector-effect:none;fill:#ffffff;stroke-linecap:round;stroke-linejoin:round;paint-order:markers stroke fill;enable-background:accumulate;stop-color:#000000;stop-opacity:1"
         d="m 408.17187,151.17578 c -2.89145,-0.004 -6.83946,0.0834 -11.78906,0.25 -9.8992,0.33329 -23.7532,0.99229 -40.3125,1.93164 -15.02381,0.85225 -29.3171,1.63413 -40.23242,2.20703 -10.91532,0.5729 -19.08057,0.93794 -19.73047,0.94532 -3.82691,0.0434 -8.22921,0.95941 -11.51953,3.89843 -3.29032,2.93903 -4.73591,6.63299 -5.96094,10.72071 l -0.96289,3.20898 a 7.50075,7.50075 0 0 0 7.70703,9.63477 l 11.15625,-0.7793 c 5.82125,-0.40683 35.65157,-2.10341 65.70508,-3.72852 15.04834,-0.81372 28.78589,-1.60129 38.81445,-2.21679 5.01429,-0.30776 9.09634,-0.57258 11.97852,-0.77735 1.44109,-0.10238 2.57487,-0.18889 3.42188,-0.26367 0.4235,-0.0374 0.76414,-0.069 1.11718,-0.11133 0.17652,-0.0212 0.34246,-0.0406 0.64453,-0.0937 0.15104,-0.0266 0.32283,-0.0537 0.6875,-0.15039 0.36468,-0.0966 0.52479,0.50511 2.9336,-1.51758 3.78992,-3.18241 2.85439,-5.70681 2.76953,-6.84961 -0.0849,-1.14279 -0.27644,-1.83511 -0.47461,-2.53515 -0.39635,-1.40009 -0.90599,-2.67235 -1.49805,-3.99219 -0.59205,-1.31984 -1.25334,-2.62571 -2,-3.87305 -0.74665,-1.24733 -1.12607,-2.29649 -3.27929,-4.00586 -3.05717,-2.427 -3.3204,-1.56286 -3.9375,-1.6582 -0.61711,-0.0953 -1.08256,-0.12716 -1.59766,-0.1582 -1.03019,-0.0621 -2.1949,-0.0842 -3.64063,-0.0859 z m 2.13868,15.04492 c 0.1513,0.006 0.49284,0.007 0.59961,0.0137 0.24534,0.0148 0.38321,0.0367 0.20898,0.01 -0.0971,-0.015 -0.28481,0.12439 -0.80859,-0.0234 z"
         id="path62" /><path
         style="baseline-shift:baseline;display:inline;overflow:visible;vector-effect:none;fill:#705e31;stroke-linecap:round;stroke-linejoin:round;paint-order:markers stroke fill;enable-background:accumulate;stop-color:#000000;stop-opacity:1"
         d="m 285.8105,173.28256 c 2.13362,-7.11954 4.46939,-9.20593 10.38145,-9.27305 3.09976,-0.0352 30.23592,-1.45946 60.30259,-3.16503 33.0414,-1.87432 55.26923,-2.62269 56.18988,-1.89181 1.70477,1.35336 5.12026,8.9674 4.32292,9.63693 -0.28204,0.23683 -25.1128,1.76082 -55.17947,3.38665 -30.06666,1.62582 -59.68695,3.30689 -65.82287,3.73571 l -11.1562,0.77967 z"
         id="path63" /></g><g
       id="path50"><path
         style="baseline-shift:baseline;display:inline;overflow:visible;vector-effect:none;fill:#ffffff;stroke-linecap:round;stroke-linejoin:round;paint-order:markers stroke fill;enable-background:accumulate;stop-color:#000000;stop-opacity:1"
         d="m 262.38867,159.22461 c -1.60789,-0.10228 -3.22553,0.0156 -5.20312,0.0156 -5.96811,0 -30.18336,1.24061 -55.75586,2.61914 -25.5725,1.37854 -51.04702,2.85254 -57.97266,3.50586 l -8.33398,0.78711 a 7.50075,7.50075 0 0 0 -6.79493,7.4668 v 5.22656 c 0,2.55696 -0.85666,4.74311 1.91993,8.7168 1.38829,1.98685 3.91912,3.30404 5.54492,3.68359 1.6258,0.37955 2.66177,0.34212 3.66015,0.34766 3.17521,0.0176 11.37071,-0.42971 23.85547,-1.0918 12.48476,-0.66209 28.39885,-1.55386 44.08985,-2.46289 15.69099,-0.90902 31.1567,-1.83551 42.75,-2.56836 5.79665,-0.36642 10.62067,-0.68495 14.04492,-0.92968 1.71212,-0.12237 3.06717,-0.22398 4.0625,-0.31055 0.49766,-0.0433 0.89529,-0.0804 1.2793,-0.125 0.192,-0.0223 0.36408,-0.0424 0.66796,-0.0937 0.15195,-0.0257 0.32157,-0.0504 0.69532,-0.14649 0.18687,-0.048 0.41949,-0.10601 0.84961,-0.27148 0.43012,-0.16547 1.02264,-0.17118 2.50195,-1.58594 2.32286,-2.22147 2.28954,-4.0642 2.36523,-5.05078 0.0757,-0.98658 -0.008,-1.54548 -0.0801,-2.03711 -0.14411,-0.98325 -0.34075,-1.6409 -0.56446,-2.34765 -0.44742,-1.41352 -1.04097,-2.86187 -1.77929,-4.41016 -0.55905,-1.17234 -1.04897,-2.28854 -2.00977,-3.67969 -0.9608,-1.39115 -2.70862,-3.07002 -4.64844,-3.95117 -1.93982,-0.88115 -3.53664,-1.20436 -5.14453,-1.30664 z"
         id="path64" /><path
         style="baseline-shift:baseline;display:inline;overflow:visible;vector-effect:none;fill:#705e31;stroke-linecap:round;stroke-linejoin:round;paint-order:markers stroke fill;enable-background:accumulate;stop-color:#000000;stop-opacity:1"
         d="m 135.82788,178.84629 v -5.22721 l 8.33333,-0.78613 c 12.37915,-1.16778 103.7402,-6.09279 113.02392,-6.09279 7.84656,0 8.06697,0.10012 10.23662,4.64992 1.21956,2.55746 1.95986,4.89622 1.64509,5.19725 -0.54402,0.52028 -121.87255,7.54919 -129.57229,7.50649 -3.37303,-0.0187 -3.66667,-0.43894 -3.66667,-5.24753 z"
         id="path65" /></g><g
       id="path49"><path
         style="baseline-shift:baseline;display:inline;overflow:visible;vector-effect:none;fill:#ffffff;stroke-linecap:round;stroke-linejoin:round;paint-order:markers stroke fill;enable-background:accumulate;stop-color:#000000;stop-opacity:1"
         d="m 421.91211,173.58594 -16.24219,0.86523 c -9.01798,0.48091 -19.9266,1.20903 -24.78515,1.66797 -3.93501,0.3717 -5.59679,-0.16072 -9.57227,1.87109 -1.98774,1.01591 -4.69277,4.75537 -4.75977,7.44336 -0.067,2.688 0.61563,3.68743 0.95508,4.54493 0.53365,1.34804 1.42084,3.82164 1.76953,4.9121 0.33847,1.05849 1.21663,3.298 3.25977,4.93555 2.04313,1.63756 4.19322,2.06509 5.89062,2.25391 3.39481,0.37764 6.81513,0.0846 13.4336,-0.32031 7.66965,-0.46928 17.54713,-0.86309 21.19531,-0.87305 5.22223,-0.0143 8.90262,0.64569 13.61719,-2.74024 2.35728,-1.69296 3.9868,-4.92213 4.30273,-7.34375 0.31594,-2.42161 -0.007,-4.25372 -0.35937,-6.13281 l -0.9336,-4.97851 a 7.50075,7.50075 0 0 0 -7.77148,-6.10547 z"
         id="path66" /><path
         style="baseline-shift:baseline;display:inline;overflow:visible;vector-effect:none;fill:#705e31;stroke-linecap:round;stroke-linejoin:round;paint-order:markers stroke fill;enable-background:accumulate;stop-color:#000000;stop-opacity:1"
         d="m 376.42115,192.6073 c -0.44562,-1.39359 -1.31878,-3.81847 -1.94035,-5.38862 -1.06458,-2.68926 -0.65235,-2.89995 7.10847,-3.63304 4.53123,-0.42802 15.54741,-1.16799 24.4804,-1.64437 l 16.2418,-0.86615 0.93398,4.97852 c 1.17274,6.25123 -0.2954,7.30563 -10.21016,7.33277 -4.10259,0.0112 -13.8368,0.41063 -21.63158,0.88756 -13.16779,0.80568 -14.22977,0.68754 -14.98256,-1.66667 z"
         id="path67" /></g><g
       id="path48"><path
         style="baseline-shift:baseline;display:inline;overflow:visible;vector-effect:none;fill:#ffffff;stroke-linecap:round;stroke-linejoin:round;paint-order:markers stroke fill;enable-background:accumulate;stop-color:#000000;stop-opacity:1"
         d="m 329.97266,178.93359 -20.89844,0.88672 c -14.35062,0.60922 -20.93247,0.55828 -26.5332,2.08008 -2.80037,0.7609 -6.48552,3.0478 -7.89258,6.30469 -1.40707,3.25689 -0.98633,5.22605 -0.98633,6.77929 v 5.36719 a 7.50075,7.50075 0 0 0 7.83398,7.49219 l 19.66797,-0.88086 c 13.39947,-0.5997 19.67127,-0.59199 25.10742,-2.06836 2.71808,-0.73818 5.87736,-2.56798 7.57422,-5.12305 1.69687,-2.55506 1.94117,-4.51329 2.33985,-6.08398 l 1.375,-5.41602 a 7.50075,7.50075 0 0 0 -7.58789,-9.33789 z"
         id="path68" /><path
         style="baseline-shift:baseline;display:inline;overflow:visible;vector-effect:none;fill:#705e31;stroke-linecap:round;stroke-linejoin:round;paint-order:markers stroke fill;enable-background:accumulate;stop-color:#000000;stop-opacity:1"
         d="m 281.16121,194.98471 c 0,-6.58458 -0.48937,-6.45161 28.23135,-7.67088 l 20.89801,-0.88717 -1.37463,5.41561 c -1.65819,6.53278 -1.27287,6.42813 -28.08806,7.62826 l -19.66667,0.88019 z"
         id="path69" /></g><g
       id="path47"><path
         style="baseline-shift:baseline;display:inline;overflow:visible;vector-effect:none;fill:#ffffff;stroke-linecap:round;stroke-linejoin:round;paint-order:markers stroke fill;enable-background:accumulate;stop-color:#000000;stop-opacity:1"
         d="m 267.6543,182.38867 c -3.30579,0.0241 -7.55717,0.16026 -12.09571,0.4043 l -16.13281,0.86719 a 7.50075,7.50075 0 0 0 -7.09766,7.49023 v 5.89063 5.89257 a 7.50075,7.50075 0 0 0 7.91211,7.48828 l 15.66797,-0.86328 c 4.36451,-0.24062 8.51195,-0.51902 11.73828,-0.77734 1.61317,-0.12916 2.98983,-0.2527 4.09571,-0.37109 1.10588,-0.1184 0.94264,0.17833 3.33593,-0.57422 2.71624,-0.85413 3.99968,-2.56642 4.73633,-3.73633 0.73666,-1.16991 1.06653,-2.12106 1.33399,-3.02149 0.53491,-1.80084 0.72571,-3.43787 0.80078,-5.1289 0.0751,-1.69103 0.0226,-3.35604 -0.32422,-5.16797 -0.34683,-1.81193 -0.11444,-4.36545 -4.38672,-7.00586 v 0.002 c -2.92681,-1.80888 -2.96854,-1.11828 -3.58789,-1.19531 -0.61935,-0.077 -1.15123,-0.1091 -1.74805,-0.13672 -1.19362,-0.0552 -2.59515,-0.0687 -4.24804,-0.0566 z m -0.76172,11.21289 c 0.004,0.0192 0.003,0.15247 0.008,0.18555 -0.009,7e-4 -0.0129,10e-4 -0.0215,0.002 0.0255,-0.0279 0.009,-0.21366 0.0137,-0.1875 z m 4.27734,3.82813 c 0.008,3.8e-4 0.0308,-3.9e-4 0.0391,0 0.36586,0.0169 0.6217,0.0411 0.58985,0.0371 -0.019,-0.002 -0.1419,0.10022 -0.62891,-0.0371 z"
         id="path70" /><path
         style="baseline-shift:baseline;display:inline;overflow:visible;vector-effect:none;fill:#705e31;stroke-linecap:round;stroke-linejoin:round;paint-order:markers stroke fill;enable-background:accumulate;stop-color:#000000;stop-opacity:1"
         d="m 239.82788,197.04138 v -5.89142 l 16.13388,-0.86751 c 8.87364,-0.47713 16.67364,-0.53393 17.33334,-0.12621 1.82299,1.12667 1.4323,9.92772 -0.46722,10.52503 -0.91667,0.28824 -8.71667,0.91276 -17.33334,1.38781 l -15.66666,0.86372 z"
         id="path71" /></g><g
       id="path46"><path
         style="baseline-shift:baseline;display:inline;overflow:visible;vector-effect:none;fill:#ffffff;stroke-linecap:round;stroke-linejoin:round;paint-order:markers stroke fill;enable-background:accumulate;stop-color:#000000;stop-opacity:1"
         d="m 195.29492,186.32617 -10.25195,0.50586 c -5.78706,0.28475 -13.48259,0.82581 -17.64844,1.25391 l -7,0.71875 a 7.50075,7.50075 0 0 0 -6.73242,7.46093 v 5.42579 5.42382 a 7.50075,7.50075 0 0 0 7.90625,7.49024 l 17.66016,-0.96094 c 4.90816,-0.26681 9.41843,-0.56156 12.79492,-0.82812 1.68824,-0.13328 3.08203,-0.25831 4.17578,-0.37891 0.54687,-0.0603 1.00395,-0.11359 1.50586,-0.19531 0.25095,-0.0409 0.49598,-0.0796 0.92773,-0.1875 0.21588,-0.054 0.47238,-0.11708 0.93164,-0.29102 0.45927,-0.17393 1.08408,-0.12704 2.69336,-1.73633 2.37151,-2.3715 2.01351,-3.42393 2.14453,-4.12304 0.13103,-0.69911 0.14609,-1.11371 0.16016,-1.50391 0.0281,-0.78039 -0.004,-1.39733 -0.0527,-2.08008 -0.0984,-1.3655 -0.29291,-2.89125 -0.57032,-4.5332 l -0.88086,-5.21875 a 7.50075,7.50075 0 0 0 -7.76367,-6.24219 z"
         id="path72" /><path
         style="baseline-shift:baseline;display:inline;overflow:visible;vector-effect:none;fill:#705e31;stroke-linecap:round;stroke-linejoin:round;paint-order:markers stroke fill;enable-background:accumulate;stop-color:#000000;stop-opacity:1"
         d="m 161.16121,201.69077 v -5.42539 l 7,-0.71936 c 3.85,-0.39564 11.61289,-0.94632 17.25087,-1.22373 l 10.25086,-0.50438 0.88151,5.21764 c 0.48483,2.8697 0.66937,5.42978 0.41009,5.68906 -0.25929,0.25929 -8.41886,0.90346 -18.13238,1.43149 l -17.66095,0.96006 z"
         id="path73" /></g><g
       id="path45"><path
         style="baseline-shift:baseline;display:inline;overflow:visible;vector-effect:none;fill:#ffffff;stroke-linecap:round;stroke-linejoin:round;paint-order:markers stroke fill;enable-background:accumulate;stop-color:#000000;stop-opacity:1"
         d="m 328.83789,202.9668 -21,0.90625 c -5.82895,0.25185 -11.38544,0.55494 -15.69531,0.84375 -2.15494,0.1444 -3.99297,0.28568 -5.44336,0.41992 -1.45039,0.13424 -1.62709,-0.0656 -3.90235,0.57422 -2.66439,0.74929 -5.77633,3.62607 -6.77929,6.2207 -1.00297,2.59463 -1.02344,4.66308 -1.02344,7.03516 v 5.38086 a 7.50075,7.50075 0 0 0 7.85352,7.49023 l 18.33398,-0.86328 c 10.19185,-0.48012 19.88381,-1.05304 24.05273,-1.65625 1.25325,-0.18134 2.35863,-0.31465 3.80665,-0.72852 1.44801,-0.41387 3.61805,-1.34178 5.22265,-3.29297 1.6046,-1.95118 2.06444,-4.09182 2.24024,-5.54687 0.17579,-1.45505 0.1582,-2.59896 0.1582,-3.93359 v -5.35743 a 7.50075,7.50075 0 0 0 -7.82422,-7.49218 z"
         id="path74" /><path
         style="baseline-shift:baseline;display:inline;overflow:visible;vector-effect:none;fill:#705e31;stroke-linecap:round;stroke-linejoin:round;paint-order:markers stroke fill;enable-background:accumulate;stop-color:#000000;stop-opacity:1"
         d="m 282.49454,218.9666 c 0,-3.98501 0.60504,-5.55023 2.33334,-6.03627 1.28333,-0.3609 11.78333,-1.06451 23.33333,-1.56356 l 21,-0.90737 v 5.35651 c 0,5.17225 -0.17201,5.38141 -5,6.07998 -2.75,0.3979 -13.25,1.11211 -23.33333,1.58712 l -18.33334,0.86367 z"
         id="path75" /></g><g
       id="path44"><path
         style="baseline-shift:baseline;display:inline;overflow:visible;vector-effect:none;fill:#ffffff;stroke-linecap:round;stroke-linejoin:round;paint-order:markers stroke fill;enable-background:accumulate;stop-color:#000000;stop-opacity:1"
         d="m 270.32422,206.50391 c -0.86824,0.006 -1.98758,0.0344 -3.39258,0.0781 -2.80999,0.0875 -6.72739,0.2442 -11.42773,0.45117 -9.40069,0.41395 -21.9107,1.02957 -34.59766,1.69336 -12.68696,0.6638 -25.54487,1.3745 -35.63867,1.98047 -5.0469,0.30299 -9.4,0.58007 -12.71485,0.8125 -3.31484,0.23243 -5.1236,0.33221 -6.85937,0.59766 -1.11574,0.17062 -2.18395,0.31066 -3.64453,0.80273 -1.46059,0.49208 -3.58164,1.65099 -4.96289,3.54297 -2.76251,3.78396 -2.0918,6.39632 -2.0918,9.00391 0,2.58326 -0.90547,4.77383 1.94922,8.80468 1.42735,2.01543 4.00937,3.29953 5.63281,3.65625 1.62344,0.35673 2.64761,0.3125 3.65235,0.3125 2.69973,0 9.19004,-0.34472 18.89062,-0.85742 9.70058,-0.5127 21.98242,-1.20153 34.09375,-1.90429 12.11133,-0.70277 24.04883,-1.41919 33.05859,-1.99219 4.50489,-0.2865 8.27336,-0.53666 10.99024,-0.73242 1.35844,-0.0979 2.44877,-0.18212 3.27344,-0.25391 0.41233,-0.0359 0.75177,-0.0685 1.08007,-0.10547 0.16416,-0.0185 0.32092,-0.0367 0.54297,-0.0703 0.22206,-0.0336 0.16322,0.10648 1.51172,-0.3711 3.20999,-1.1368 3.46676,-2.29114 4.06055,-3.06054 0.59378,-0.76941 0.98803,-1.43025 1.375,-2.11914 0.77394,-1.37779 1.44537,-2.83788 2.05859,-4.3418 0.61322,-1.50392 1.14605,-2.98403 1.54297,-4.50781 0.19846,-0.76189 0.37839,-1.50025 0.46484,-2.5918 0.0865,-1.09154 1.28934,-3.0095 -2.28515,-6.58398 -2.41795,-2.41799 -3.08896,-1.88537 -3.59375,-2.00586 -0.50479,-0.1205 -0.74552,-0.14252 -0.94922,-0.16602 -0.4074,-0.047 -0.609,-0.0508 -0.81641,-0.0586 -0.41481,-0.0155 -0.769,-0.0168 -1.20312,-0.0137 z"
         id="path76" /><path
         style="baseline-shift:baseline;display:inline;overflow:visible;vector-effect:none;fill:#705e31;stroke-linecap:round;stroke-linejoin:round;paint-order:markers stroke fill;enable-background:accumulate;stop-color:#000000;stop-opacity:1"
         d="m 162.49455,225.46724 c 0,-4.92411 0.28665,-5.31675 4.33333,-5.93559 6.17258,-0.94395 104.16491,-6.07103 104.75502,-5.48091 0.85083,0.85083 -3.01703,10.33673 -4.41693,10.8325 -1.35296,0.47915 -94.03251,5.85692 -100.93708,5.85692 -3.46071,0 -3.73434,-0.38637 -3.73434,-5.27292 z"
         id="path77" /></g><g
       id="path43"><path
         style="baseline-shift:baseline;display:inline;overflow:visible;vector-effect:none;fill:#ffffff;stroke-linecap:round;stroke-linejoin:round;paint-order:markers stroke fill;enable-background:accumulate;stop-color:#000000;stop-opacity:1"
         d="m 330.16797,226.92383 -21,0.91797 c -5.82991,0.2547 -11.38791,0.56071 -15.69922,0.85351 -2.15565,0.14641 -3.99308,0.2894 -5.44531,0.42578 -1.45223,0.13639 -1.62096,-0.0707 -3.92383,0.58789 -2.66437,0.76193 -5.75751,3.64769 -6.75391,6.24024 -0.99639,2.59254 -1.01757,4.66169 -1.01758,7.04101 v 5.4043 a 7.50075,7.50075 0 0 0 7.88086,7.49024 l 17,-0.86524 c 9.45344,-0.48103 19.62202,-1.16034 23.83789,-1.66211 l 6.33399,-0.7539 a 7.50075,7.50075 0 0 0 6.61328,-7.44727 v -5.36914 -5.36914 a 7.50075,7.50075 0 0 0 -7.82617,-7.49414 z"
         id="path78" /><path
         style="baseline-shift:baseline;display:inline;overflow:visible;vector-effect:none;fill:#705e31;stroke-linecap:round;stroke-linejoin:round;paint-order:markers stroke fill;enable-background:accumulate;stop-color:#000000;stop-opacity:1"
         d="m 283.82788,242.99038 c 0,-4.00344 0.60468,-5.57678 2.33333,-6.07112 1.28333,-0.36699 11.78333,-1.08011 23.33333,-1.58471 l 21,-0.91745 v 5.36975 5.36974 l -6.33333,0.75378 c -3.48333,0.41458 -13.98333,1.14305 -23.33333,1.61882 l -17,0.86505 z"
         id="path79" /></g><g
       id="path42"><path
         style="baseline-shift:baseline;display:inline;overflow:visible;vector-effect:none;fill:#ffffff;stroke-linecap:round;stroke-linejoin:round;paint-order:markers stroke fill;enable-background:accumulate;stop-color:#000000;stop-opacity:1"
         d="m 254.41797,231.54297 c -0.78649,-0.0117 -1.72559,-0.001 -2.89453,0.0215 -2.33789,0.0458 -5.54401,0.14921 -9.38867,0.29688 -7.68932,0.29534 -17.90183,0.76597 -28.32227,1.29297 -10.42044,0.52699 -21.0405,1.11169 -29.53711,1.63476 -8.49661,0.52307 -14.08409,0.84303 -17.25,1.32813 -1.11576,0.17096 -2.18415,0.31023 -3.64453,0.80273 -1.46038,0.4925 -3.58025,1.65135 -4.96094,3.54297 -2.76138,3.78323 -2.0918,6.39633 -2.0918,9.00391 0,0.92688 -1.04503,2.38875 0.77735,6.5664 0.91119,2.08883 3.09618,4.04772 4.91211,4.84571 1.81593,0.79798 3.30073,0.9806 4.86133,1.11328 6.24237,0.53072 15.49006,-0.34881 36.80078,-1.69141 22.44916,-1.41431 31.7389,-2.38173 38.98828,-4.92969 4.44046,-1.5607 8.81208,-3.68764 12.30273,-5.80273 1.74533,-1.05754 3.22172,-2.03259 4.67188,-3.375 0.72508,-0.6712 1.49717,-1.32447 2.36523,-3.01758 0.43403,-0.84655 0.94986,-2.05841 0.92774,-3.87109 -0.0221,-1.81268 -0.96694,-4.14272 -2.31055,-5.48633 -1.62982,-1.62982 -2.44736,-1.65637 -2.98633,-1.83399 -0.53897,-0.17761 -0.83757,-0.2298 -1.08008,-0.27343 -0.48502,-0.0873 -0.72392,-0.10152 -0.95312,-0.11914 -0.4584,-0.0353 -0.79426,-0.043 -1.1875,-0.0488 z"
         id="path80" /><path
         style="baseline-shift:baseline;display:inline;overflow:visible;vector-effect:none;fill:#705e31;stroke-linecap:round;stroke-linejoin:round;paint-order:markers stroke fill;enable-background:accumulate;stop-color:#000000;stop-opacity:1"
         d="m 163.82788,249.46724 c 0,-4.92384 0.28687,-5.31687 4.33333,-5.93689 7.24149,-1.10957 86.45244,-5.11553 87.16,-4.40797 1.21555,1.21555 -7.46881,6.47765 -15.14037,9.17399 -5.76976,2.02791 -14.63969,3.11207 -36.97193,4.51901 -42.67828,2.68877 -39.38103,2.9691 -39.38103,-3.34814 z"
         id="path81" /></g><g
       id="path41"><path
         style="baseline-shift:baseline;display:inline;overflow:visible;vector-effect:none;fill:#ffffff;stroke-linecap:round;stroke-linejoin:round;paint-order:markers stroke fill;enable-background:accumulate;stop-color:#000000;stop-opacity:1"
         d="m 427.69727,245.59961 -23.08985,0.95703 c -6.42318,0.26615 -12.3494,0.60524 -16.8125,0.94531 -2.23154,0.17004 -4.0844,0.3386 -5.54883,0.51367 -0.73221,0.0875 -1.34923,0.16983 -2.01757,0.29688 -0.33418,0.0635 -0.66766,0.12759 -1.19727,0.28711 -0.52961,0.15952 -1.05389,-0.39914 -3.43164,2.05859 -1.78912,1.8493 -1.66488,2.4121 -1.95313,3.1211 -0.28824,0.70899 -0.49956,1.35855 -0.70507,2.05664 -0.41103,1.39617 -0.77059,2.94963 -1.0625,4.59179 l -0.88868,5 a 7.50075,7.50075 0 0 0 7.44532,8.8125 l 5.72656,-0.0469 c 4.48735,-0.0369 14.53332,-0.64602 24.01953,-1.30469 4.74311,-0.32933 9.25626,-0.67057 12.66406,-0.9668 1.7039,-0.14811 3.12157,-0.28409 4.22461,-0.41015 0.55152,-0.063 1.00784,-0.11809 1.50391,-0.19922 0.24803,-0.0406 0.48708,-0.0791 0.92187,-0.1875 0.2174,-0.0542 0.47362,-0.11333 0.9668,-0.30273 0.49319,-0.1894 1.22182,0.0543 3.12109,-2.23047 a 7.50075,7.50075 0 0 0 0,-0.002 c 1.68528,-2.02748 1.25265,-2.09871 1.38282,-2.46484 0.13017,-0.36613 0.20208,-0.61357 0.27343,-0.86914 0.14272,-0.51115 0.26365,-1.01443 0.39454,-1.5918 0.26177,-1.15473 0.54631,-2.56428 0.82031,-4.07812 l 0.93164,-5.15625 a 7.50075,7.50075 0 0 0 -7.68945,-8.83008 z m -8.85743,15.38086 h 0.0117 c -0.004,0.016 -0.012,0.0485 -0.0156,0.0625 -5.4e-4,-0.0129 0.008,-0.0491 0.004,-0.0625 z"
         id="path82" /><path
         style="baseline-shift:baseline;display:inline;overflow:visible;vector-effect:none;fill:#705e31;stroke-linecap:round;stroke-linejoin:round;paint-order:markers stroke fill;enable-background:accumulate;stop-color:#000000;stop-opacity:1"
         d="m 379.26251,261.74016 c 0.48884,-2.75 1.26603,-5.38992 1.72708,-5.86648 0.46106,-0.47657 11.22869,-1.29702 23.92807,-1.82323 l 23.08979,-0.95675 -0.93334,5.15656 c -0.51333,2.83611 -1.07912,5.33194 -1.2573,5.5463 -0.41164,0.4952 -34.09376,2.83391 -41.71602,2.89654 l -5.72709,0.0471 z"
         id="path83" /></g><g
       id="path40"><path
         style="baseline-shift:baseline;display:inline;overflow:visible;vector-effect:none;fill:#ffffff;stroke-linecap:round;stroke-linejoin:round;paint-order:markers stroke fill;enable-background:accumulate;stop-color:#000000;stop-opacity:1"
         d="m 330.96289,250.94727 -22.06445,0.96093 c -6.11903,0.2665 -11.78926,0.57624 -16.05664,0.86524 -2.1337,0.1445 -3.90712,0.2827 -5.27735,0.41601 -0.68511,0.0667 -1.25877,0.12975 -1.82226,0.21094 -0.28175,0.0406 -0.55221,0.081 -0.93946,0.16406 -0.38724,0.0831 -0.4913,-0.24012 -2.50586,0.97071 -2.76309,1.66072 -3.11672,3.25219 -3.51953,4.26953 -0.4028,1.01733 -0.56619,1.79191 -0.70507,2.55468 -0.27777,1.52556 -0.37055,2.96725 -0.38672,4.45508 -0.0162,1.48784 0.05,2.95633 0.27734,4.47461 0.22739,1.51828 -0.55378,2.86227 2.7832,6.19922 1.9805,1.9805 3.20019,2.15396 4.44336,2.51953 1.24318,0.36558 2.44394,0.56641 3.88282,0.56641 1.8927,0 4.78553,-0.19003 9.20703,-0.46289 4.42149,-0.27287 9.90293,-0.63816 15.26757,-1.01367 5.36465,-0.37552 10.60588,-0.76108 14.55469,-1.07422 1.97441,-0.15657 3.62056,-0.29422 4.83594,-0.40821 0.60769,-0.057 1.0977,-0.10697 1.53906,-0.16015 0.22068,-0.0266 0.41284,-0.0498 0.71875,-0.10156 0.15296,-0.0259 0.31831,-0.0492 0.68164,-0.14063 0.18167,-0.0457 0.4042,-0.0995 0.83594,-0.26172 0.43174,-0.16223 1.01292,-0.0578 2.67969,-1.72461 1.90008,-1.90008 1.94829,-3.21218 2.09179,-3.97265 0.14351,-0.76048 0.13956,-1.17616 0.13868,-1.51758 -0.002,-0.68284 -0.056,-1.03179 -0.10352,-1.37305 -0.095,-0.68252 -0.21174,-1.22339 -0.35351,-1.83984 -0.28356,-1.2329 -0.67468,-2.65753 -1.14844,-4.20117 l -1.5586,-5.08204 a 7.50075,7.50075 0 0 0 -7.49609,-5.29296 z m -38.09766,16.87109 c 0.16217,0.4294 -0.0344,0.47669 -0.0684,0.25 -0.007,-0.0463 -0.007,-0.18573 -0.0137,-0.24414 0.0318,-0.002 0.05,-0.004 0.082,-0.006 z m -4.4414,0.36719 c -0.25091,0.0684 -0.34374,0.0549 -0.41016,0.0469 0.0782,-0.0104 0.27272,-0.031 0.41016,-0.0469 z"
         id="path84" /><path
         style="baseline-shift:baseline;display:inline;overflow:visible;vector-effect:none;fill:#705e31;stroke-linecap:round;stroke-linejoin:round;paint-order:markers stroke fill;enable-background:accumulate;stop-color:#000000;stop-opacity:1"
         d="m 286.0501,271.1846 c -1.21683,-1.21682 -1.12703,-9.47727 0.11111,-10.22144 0.55,-0.33057 10.92862,-1.03344 23.06361,-1.56195 l 22.06361,-0.96091 1.55975,5.08213 c 0.85786,2.79516 1.41673,5.22514 1.24193,5.39994 -0.31291,0.31291 -40.85995,3.15112 -45.01726,3.15112 -1.17362,0 -2.53386,-0.4 -3.02275,-0.88889 z"
         id="path85" /></g><g
       id="path39"><path
         style="baseline-shift:baseline;display:inline;overflow:visible;vector-effect:none;fill:#ffffff;stroke-linecap:round;stroke-linejoin:round;paint-order:markers stroke fill;enable-background:accumulate;stop-color:#000000;stop-opacity:1"
         d="m 209.125,257.99805 c -1.31888,9.8e-4 -3.04905,0.036 -5.1582,0.0977 -4.2183,0.12322 -9.9052,0.35628 -16.11328,0.67383 l -22.40821,1.14649 a 7.50075,7.50075 0 0 0 -7.09765,6.95507 l -0.41797,5.83203 -0.41797,5.83204 a 7.50075,7.50075 0 0 0 7.89453,8.02343 l 15.75195,-0.87304 c 8.74606,-0.48486 19.50909,-1.21931 24.40039,-1.67774 l 8.36328,-0.78515 a 7.50075,7.50075 0 0 0 6.68165,-8.79883 l -0.875,-4.8418 c -0.2642,-1.46313 -0.54946,-2.83291 -0.83008,-3.99219 -0.14031,-0.57964 -0.27269,-1.09517 -0.44336,-1.64648 -0.0853,-0.27565 -0.17509,-0.55311 -0.33594,-0.95313 -0.16085,-0.40002 -0.0335,-0.73337 -1.38086,-2.29492 a 7.50075,7.50075 0 0 0 0,-0.002 c -2.3428,-2.71511 -3.21604,-2.21282 -3.77344,-2.36328 -0.55739,-0.15046 -0.83163,-0.18122 -1.06836,-0.21289 -0.47345,-0.0633 -0.73447,-0.0744 -1.01367,-0.0879 -0.55838,-0.027 -1.09837,-0.0317 -1.75781,-0.0312 z"
         id="path86" /><path
         style="baseline-shift:baseline;display:inline;overflow:visible;vector-effect:none;fill:#705e31;stroke-linecap:round;stroke-linejoin:round;paint-order:markers stroke fill;enable-background:accumulate;stop-color:#000000;stop-opacity:1"
         d="m 165.40981,273.23865 0.41807,-5.83183 22.40931,-1.14624 c 12.32512,-0.63044 22.59552,-0.93044 22.82312,-0.66667 0.22759,0.26377 0.8072,2.6582 1.28802,5.32097 l 0.87421,4.84138 -8.364,0.7839 c -4.6002,0.43114 -15.45212,1.17684 -24.11539,1.65711 l -15.7514,0.8732 z"
         id="path87" /></g><g
       id="path38"><path
         style="baseline-shift:baseline;display:inline;overflow:visible;vector-effect:none;fill:#ffffff;stroke-linecap:round;stroke-linejoin:round;paint-order:markers stroke fill;enable-background:accumulate;stop-color:#000000;stop-opacity:1"
         d="m 423.04883,269.87305 c -0.63971,-0.0603 -1.06632,0.0137 -1.44922,0.01 -1.65126,-0.017 -3.60189,0.10492 -7.54883,0.29492 -3.94693,0.19001 -9.27613,0.4639 -15.52148,0.79493 -12.49071,0.66206 -28.64317,1.55255 -44.64649,2.45703 -16.00331,0.90447 -31.8552,1.82333 -43.74219,2.53906 -5.94349,0.35786 -10.89351,0.66558 -14.39257,0.89648 -1.74953,0.11546 -3.13149,0.2107 -4.125,0.28711 -0.49676,0.0382 -0.88715,0.0694 -1.23633,0.10352 -0.17459,0.0171 -0.32657,0.0329 -0.57227,0.0664 -0.12284,0.0168 -0.25293,0.031 -0.56054,0.0937 -0.15381,0.0313 -0.34121,0.0655 -0.73633,0.1875 -0.39513,0.12197 -2.85387,1.6333 -2.85547,1.63476 -3.48379,3.18269 -2.59634,5.80797 -2.44922,6.9375 0.14712,1.12953 0.37457,1.75312 0.5957,2.37109 0.44227,1.23596 0.95545,2.28051 1.55664,3.4043 1.20239,2.24759 2.62842,4.54707 4.46289,6.65235 3.18492,3.65506 8.0364,4.87476 12.33399,4.1875 -1.20388,0.19251 1.83818,-0.15497 5.03516,-0.36329 3.19697,-0.20831 7.62743,-0.47528 12.94921,-0.78125 10.64356,-0.61193 24.85995,-1.37922 40.0625,-2.15429 15.23164,-0.77656 29.25897,-1.53733 39.60547,-2.13867 5.17326,-0.30068 9.42395,-0.56126 12.4668,-0.76563 1.52142,-0.10219 2.73481,-0.1905 3.64844,-0.26562 0.45681,-0.0376 0.83256,-0.0719 1.18359,-0.10938 0.35103,-0.0375 -0.17068,0.26423 1.83594,-0.3457 2.76429,-0.8402 3.24754,-1.77158 3.9668,-2.49219 0.71925,-0.72061 1.27296,-1.40884 1.82226,-2.15039 1.0986,-1.4831 2.12751,-3.16367 3.07031,-5.01172 1.31019,-2.56816 2.45414,-2.9693 2.7793,-7.44922 0.0813,-1.11998 -0.0195,-2.82323 -0.95703,-4.55273 -0.93755,-1.7295 -2.62542,-2.9957 -3.85742,-3.53907 -1.232,-0.54336 -2.08491,-0.73855 -2.72461,-0.79882 z"
         id="path88" /><path
         style="baseline-shift:baseline;display:inline;overflow:visible;vector-effect:none;fill:#705e31;stroke-linecap:round;stroke-linejoin:round;paint-order:markers stroke fill;enable-background:accumulate;stop-color:#000000;stop-opacity:1"
         d="m 295.48198,293.67694 c -2.37766,-2.72865 -5.37871,-8.33843 -4.76213,-8.90172 0.40923,-0.37387 125.55135,-7.44666 130.80179,-7.39267 2.19455,0.0226 2.16689,0.40365 -0.39358,5.42257 -1.5147,2.96906 -3.47689,5.61802 -4.36043,5.88657 -0.88353,0.26856 -26.50642,1.75777 -56.93976,3.30935 -30.43333,1.55159 -56.91608,3.07419 -58.85056,3.38354 -2.21418,0.35409 -4.25007,-0.27856 -5.49533,-1.70764 z"
         id="path89" /></g><g
       id="path37"><path
         style="baseline-shift:baseline;display:inline;overflow:visible;vector-effect:none;fill:#ffffff;stroke-linecap:round;stroke-linejoin:round;paint-order:markers stroke fill;enable-background:accumulate;stop-color:#000000;stop-opacity:1"
         d="m 236.77539,280.57422 -8.85352,0.10937 c -5.67889,0.0705 -26.2555,1.12028 -47.19921,2.34571 l -38,2.22461 a 7.50075,7.50075 0 0 0 -7.04102,6.94531 l -0.41016,5.66601 c -0.16749,2.31505 -0.30162,4.12857 0.27735,6.58789 0.28948,1.22967 0.78169,2.80129 2.29101,4.41602 1.50932,1.61473 4.24037,2.70446 6.25782,2.70117 1.29862,-0.002 2.77738,-0.0957 5.6582,-0.24609 2.88082,-0.15039 6.73352,-0.36429 11.23242,-0.6211 8.99781,-0.5136 20.5733,-1.19806 32.01953,-1.89257 11.44624,-0.69451 22.76099,-1.39859 31.23828,-1.94532 4.23865,-0.27336 7.76532,-0.50761 10.26172,-0.68359 1.2482,-0.088 2.23375,-0.15967 2.95508,-0.21875 0.36066,-0.0295 0.64634,-0.0547 0.92773,-0.084 0.1407,-0.0146 0.26417,-0.0273 0.50586,-0.0625 0.12085,-0.0176 0.25145,-0.0316 0.59375,-0.10743 0.17116,-0.0379 0.37896,-0.0773 0.85352,-0.24218 0.47456,-0.16486 3.56171,-2.61027 3.5625,-2.61133 1.40369,-1.8867 1.25575,-2.55427 1.35742,-3.0625 0.10171,-0.50842 0.11919,-0.78663 0.13672,-1.02344 0.0351,-0.47363 0.0316,-0.74445 0.0273,-1.01953 -0.008,-0.55015 -0.0395,-1.04382 -0.082,-1.61328 -0.085,-1.13892 -0.22551,-2.50915 -0.41015,-3.99024 l -0.62305,-5 a 7.50075,7.50075 0 0 0 -7.53711,-6.57226 z"
         id="path90" /><path
         style="baseline-shift:baseline;display:inline;overflow:visible;vector-effect:none;fill:#705e31;stroke-linecap:round;stroke-linejoin:round;paint-order:markers stroke fill;enable-background:accumulate;stop-color:#000000;stop-opacity:1"
         d="m 142.75122,298.40682 0.40999,-5.66666 38,-2.2234 c 20.9,-1.22287 41.98436,-2.27287 46.85413,-2.33333 l 8.85412,-0.10994 0.62331,5 c 0.34283,2.75 0.52104,5.13743 0.39603,5.3054 -0.20138,0.27061 -89.42457,5.68431 -93.80425,5.69167 -1.22673,0.002 -1.62183,-1.67628 -1.33333,-5.66374 z"
         id="path91" /></g><g
       id="path36"><path
         style="baseline-shift:baseline;display:inline;overflow:visible;vector-effect:none;fill:#ffffff;stroke-linecap:round;stroke-linejoin:round;paint-order:markers stroke fill;enable-background:accumulate;stop-color:#000000;stop-opacity:1"
         d="m 405.5918,294.74805 c -1.74986,-0.17864 -3.49796,-0.14312 -5.44727,0.0352 -3.6944,0.33787 -23.47619,1.50759 -42.44336,2.52735 -9.48358,0.50988 -18.88523,0.99498 -26.28906,1.35156 -7.40384,0.35658 -13.24617,0.57812 -14.05078,0.57812 -1.94755,0 -3.69349,0.13294 -5.4375,0.4961 -0.87201,0.18158 -1.71438,0.36361 -2.96094,0.97461 -0.62328,0.3055 -1.3845,0.69634 -2.35352,1.67578 -0.96901,0.97944 -2.28124,2.97091 -2.28125,5.50586 10e-6,4.19644 1.94656,5.30619 2.80665,6.08594 0.86008,0.77974 1.52212,1.18309 2.20507,1.58593 1.3659,0.80569 2.79443,1.46066 4.4668,2.15625 3.34474,1.39118 7.55408,2.82364 12.0293,4.05664 2.92224,0.80514 5.83343,1.01157 9.7539,1.25196 3.92047,0.24038 8.54151,0.36427 13.39649,0.38086 9.70996,0.0332 20.22504,-0.34192 27.77344,-1.25196 8.84372,-1.06621 15.69849,-3.04695 23.35351,-6.77734 2.82691,-1.37759 5.38116,-2.74745 7.4043,-3.96289 1.01157,-0.60772 1.86987,-1.15353 2.73047,-1.80274 0.43029,-0.3246 0.85374,-0.64353 1.45117,-1.26367 0.59743,-0.62014 2.29492,-0.93692 2.29492,-5.51953 0,-2.71764 -1.62703,-4.9678 -2.76367,-5.93164 -1.13664,-0.96384 -1.95911,-1.26234 -2.61719,-1.50195 -1.31616,-0.47922 -2.14655,-0.56107 -3.02148,-0.65039 z"
         id="path92" /><path
         style="baseline-shift:baseline;display:inline;overflow:visible;vector-effect:none;fill:#705e31;stroke-linecap:round;stroke-linejoin:round;paint-order:markers stroke fill;enable-background:accumulate;stop-color:#000000;stop-opacity:1"
         d="m 327.82787,314.54723 c -8.37813,-2.30833 -15.99999,-5.4785 -15.99999,-6.65489 0,-0.6337 2.48992,-1.15218 5.53316,-1.15218 6.1906,0 74.63565,-3.6799 83.46683,-4.48754 3.11667,-0.28503 5.66667,-0.0247 5.66667,0.57848 0,0.6032 -4.35,3.21653 -9.66667,5.80742 -7.08884,3.45448 -12.67961,5.07393 -20.96502,6.07283 -13.88055,1.67345 -41.7106,1.57837 -48.03498,-0.16412 z"
         id="path93" /></g><g
       id="path35"><path
         style="baseline-shift:baseline;display:inline;overflow:visible;vector-effect:none;fill:#ffffff;stroke-linecap:round;stroke-linejoin:round;paint-order:markers stroke fill;enable-background:accumulate;stop-color:#000000;stop-opacity:1"
         d="m 234.04687,304.79102 c -7.06957,-0.34447 -19.44996,0.52279 -47.61523,2.00976 l -43,2.27149 a 7.50075,7.50075 0 0 0 -7.10352,7.48828 v 5.75586 c 0,1.93831 0.11312,3.67589 0.4043,5.34961 0.14559,0.83685 0.28432,1.61691 0.76758,2.79492 0.24163,0.589 0.52574,1.30198 1.4082,2.34179 0.88247,1.03981 2.96338,2.78362 5.97461,2.76172 a 7.50075,7.50075 0 0 0 0.006,0 c 2.6349,-0.0211 8.90157,-0.37243 17.97461,-0.89258 9.07305,-0.52014 20.4699,-1.21005 31.66211,-1.91406 11.19221,-0.704 22.17419,-1.42072 30.42383,-1.99023 4.12482,-0.28476 7.56289,-0.53301 10.02734,-0.72656 1.23223,-0.0968 2.21477,-0.17802 2.96485,-0.25 0.37504,-0.036 0.6824,-0.0677 1.00976,-0.10938 0.16368,-0.0209 0.32137,-0.0401 0.59766,-0.0898 0.13814,-0.0249 0.29817,-0.0542 0.60351,-0.13282 0.30535,-0.0787 0.53146,0.0783 2.10547,-0.89453 3.35011,-2.07047 3.29543,-3.8433 3.60352,-4.9082 0.30809,-1.0649 0.40124,-1.86625 0.46875,-2.68359 0.13502,-1.63468 0.0821,-3.26447 -0.12305,-5.02149 -0.0208,-0.17793 -0.0162,-0.52438 -0.0781,-1.49219 -0.0619,-0.9678 -0.18636,-2.92762 -1.61133,-5.05468 -1.42498,-2.12706 -3.76844,-3.38014 -5.49414,-3.89063 -1.7257,-0.51048 -3.20917,-0.63654 -4.97657,-0.72265 z"
         id="path94" /><path
         style="baseline-shift:baseline;display:inline;overflow:visible;vector-effect:none;fill:#705e31;stroke-linecap:round;stroke-linejoin:round;paint-order:markers stroke fill;enable-background:accumulate;stop-color:#000000;stop-opacity:1"
         d="m 143.82788,322.31722 v -5.75626 l 43,-2.27015 c 56.37644,-2.97636 51.25718,-3.2258 51.92917,2.53028 0.30484,2.61119 0.10546,5.02498 -0.44307,5.36399 -0.72691,0.44926 -86.13684,5.82167 -93.4861,5.88041 -0.55,0.004 -1,-2.58232 -1,-5.74827 z"
         id="path95" /></g><g
       id="path33"><path
         style="baseline-shift:baseline;display:inline;overflow:visible;vector-effect:none;fill:#ffffff;stroke-linecap:round;stroke-linejoin:round;paint-order:markers stroke fill;enable-background:accumulate;stop-color:#000000;stop-opacity:1"
         d="M 281.18164,49.089844 C 175.36313,49.145172 81.812536,121.08302 59.121094,231.36523 c -1.509955,7.33854 -3.326387,20.62101 -4.240235,30.625 -3.374764,36.94363 4.005238,79.47502 19.664063,113.44727 1.876506,4.07113 2.671364,6.28028 4.898437,8.94141 1.113537,1.33056 3.59681,3.5185 7.138672,3.41796 3.541863,-0.10053 5.313624,-1.94643 6.222656,-2.85546 1.420099,-1.42011 3.591603,-5.49585 3.214844,-8.6875 -0.376758,-3.19166 -1.435791,-4.82615 -2.697265,-7.29883 -7.355759,-14.41849 -15.238478,-40.22058 -18.128907,-59.96485 -1.768159,-12.07827 -1.754202,-45.85443 0.01563,-57.82226 3.599692,-24.34158 9.956505,-44.06351 21.5,-66.63086 10.137411,-19.81851 20.570951,-33.97526 37.755851,-51.16016 17.58972,-17.58972 31.39811,-27.67059 52.86914,-38.617184 79.41681,-40.489118 176.01263,-25.409575 239.11524,37.314454 34.20748,34.00225 54.75705,75.61926 60.65625,122.74023 0.68196,5.4473 1.01905,18.54249 0.84961,30.69141 -0.0847,6.07446 -0.27941,12.00245 -0.56446,16.82617 -0.28504,4.82373 -0.78646,8.87487 -0.97851,9.69141 -0.21855,0.92922 -0.53932,1.77039 -0.57813,3.66797 -0.0388,1.89757 1.49963,6.02605 4.01172,7.59961 2.5121,1.57355 4.04478,1.44939 5.39453,1.5371 1.34976,0.0877 2.65739,0.0781 4.32618,0.0781 h 6.71679 a 7.50075,7.50075 0 0 0 7.44337,-6.58398 l 1.10547,-9 c 0.77192,-6.28071 1.10586,-20.25323 1.03516,-33.28907 -0.10766,-19.85811 -0.77518,-27.18145 -3.79102,-41.62695 C 500.02776,176.69577 468.38766,128.48748 419.54687,93.277344 403.80572,81.929279 374.06574,66.872119 355.67969,60.949219 330.67351,52.893706 305.6013,49.077076 281.18164,49.089844 Z"
         id="path56" /><path
         style="baseline-shift:baseline;display:inline;overflow:visible;vector-effect:none;fill:#705e31;stroke-linecap:round;stroke-linejoin:round;paint-order:markers stroke fill;enable-background:accumulate;stop-color:#000000;stop-opacity:1"
         d="m 81.357164,372.29734 c -15.02503,-32.59721 -22.24132,-74.21816 -19.00693,-109.6251 0.88462,-9.68403 2.73687,-23.09173 4.11609,-29.79488 C 93.549994,101.24857 223.90582,26.37826 353.38036,68.08731 c 16.97089,5.46702 47.23147,20.78526 61.78083,31.27414 47.46583,34.21891 77.88691,80.60376 89.57256,136.57664 2.96524,14.20314 3.52739,20.41125 3.63431,40.1354 0.0696,12.83333 -0.37128,27.38333 -0.97965,32.33333 l -1.10613,9 h -6.71597 c -6.6467,0 -6.70708,-0.0378 -5.85358,-3.66666 1.91294,-8.13321 2.45396,-46.92515 0.83483,-59.85831 C 488.4479,205.15962 467.05594,161.86394 431.73579,126.7557 366.34442,61.75664 266.20931,46.12733 183.92733,88.0772 c -21.99516,11.21381 -36.78429,22.01447 -54.76611,39.99629 -17.58222,17.58222 -28.6901,32.64183 -39.128606,53.049 -11.84877,23.16416 -18.54054,43.90649 -22.24383,68.94861 -2.02161,13.67042 -2.03023,46.24491 -0.0159,60.00478 3.02965,20.69528 10.8931,46.65238 18.86915,62.28674 2.37113,4.64778 2.48894,5.64585 0.85889,7.27591 -1.63006,1.63006 -2.47283,0.62303 -6.14378,-7.34119 z"
         id="path57" /></g></g></svg>
