<?xml version="1.0" encoding="UTF-8" standalone="no"?>
<svg
   version="1.2"
   width="566.929"
   height="185.059"
   xml:space="preserve"
   id="svg1"
   sodipodi:docname="psp.svg"
   inkscape:version="1.4.3 (0d15f75042, 2025-12-25)"
   xmlns:inkscape="http://www.inkscape.org/namespaces/inkscape"
   xmlns:sodipodi="http://sodipodi.sourceforge.net/DTD/sodipodi-0.dtd"
   xmlns="http://www.w3.org/2000/svg"
   xmlns:svg="http://www.w3.org/2000/svg"><defs
   id="defs1" /><sodipodi:namedview
   id="namedview1"
   pagecolor="#aaaaaa"
   bordercolor="#000000"
   borderopacity="0.25"
   inkscape:showpageshadow="2"
   inkscape:pageopacity="0.0"
   inkscape:pagecheckerboard="0"
   inkscape:deskcolor="#d1d1d1"
   inkscape:zoom="1.5654517"
   inkscape:cx="264.77981"
   inkscape:cy="158.10133"
   inkscape:window-width="1920"
   inkscape:window-height="1080"
   inkscape:window-x="0"
   inkscape:window-y="0"
   inkscape:window-maximized="0"
   inkscape:current-layer="svg1" />
    
<g
   fill="#0895ff"
   id="g1"
   transform="matrix(0.9705139,0,0,0.96158167,8.3569902,17.399867)"
   style="stroke-width:15.3531;stroke-dasharray:none">
        <g
   id="path1"
   style="opacity:1"><path
     style="baseline-shift:baseline;display:inline;overflow:visible;vector-effect:none;fill:#ffffff;stroke-linecap:square;paint-order:markers stroke fill;enable-background:accumulate;stop-color:#000000;stop-opacity:1"
     d="M -7.6757812,-7.6757812 V 0 7.6757812 14.654297 H 161.97461 V 37.720703 H -7.6757812 V 105.45508 H 14.65625 V 60.056641 H 184.30859 V -7.6757812 H 7.6757812 0 Z m 266.6914012,0 V 0 7.6757812 83.121094 h -90.05859 v 22.333986 h 112.7793 V 14.654297 h 90.0625 V -7.6757812 h -97.42969 z m 123.60547,0 V 14.654297 H 552.27148 V 37.720703 H 382.62109 v 67.734377 h 22.33399 V 60.056641 H 574.60742 V -7.6757812 Z"
     id="path5" /><path
     style="baseline-shift:baseline;display:inline;overflow:visible;vector-effect:none;stroke-linecap:square;paint-order:markers stroke fill;enable-background:accumulate;stop-color:#000000;stop-opacity:1"
     d="M 0,0 H 176.632 V 52.38 H 6.98 V 97.778 H 0 V 45.398 H 169.652 V 6.978 H 0 V 0 m 397.278,52.38 v 45.398 h -6.98 v -52.38 h 169.65 V 6.978 H 390.298 V 0 H 566.93 V 52.38 H 397.28 M 266.693,0 v 90.798 h -90.06 v 6.98 h 97.427 v -90.8 h 90.062 V 0 h -97.429"
     id="path6" /></g>
    </g><g
   id="path8"
   style="opacity:1"><path
     style="baseline-shift:baseline;display:inline;overflow:visible;vector-effect:none;fill:#ffffff;stroke-linecap:round;stroke-linejoin:round;paint-order:markers stroke fill;enable-background:accumulate;stop-color:#000000;stop-opacity:1"
     d="m 188.10742,134.6543 c -3.764,0 -6.87264,1.08131 -9.04883,2.97265 -1.99765,1.73619 -3.01845,4.14965 -3.1914,6.61133 -0.37502,-0.39165 -0.86721,-0.65077 -1.40235,-0.73828 h -2.63476 c -1.04145,3.1e-4 -1.97364,0.64614 -2.33985,1.62109 l -4.35546,11.6211 -4.41993,-11.63086 c -0.36914,-0.97043 -1.29962,-1.61174 -2.33789,-1.61133 h -2.72851 c -1.75999,4.7e-4 -2.96864,1.77086 -2.32813,3.41016 l 7.83789,20.01367 c -0.33706,0.90232 -0.68227,1.87898 -0.95312,2.45898 -0.20053,0.4294 -0.4001,0.67885 -0.46485,0.73633 -0.0647,0.0575 0.0809,0.0137 -0.0449,0.0137 -0.32964,0 -0.84058,-0.0852 -1.52539,-0.21094 -0.11416,0.0163 -0.22706,0.0404 -0.33789,0.0723 -0.0365,-0.039 -0.0743,-0.0767 -0.11328,-0.11328 -0.24279,0.06 -0.47519,0.15616 -0.68945,0.28516 -0.30617,0.0637 -0.59767,0.18427 -0.85938,0.35546 -0.21513,0.22604 -0.38604,0.49036 -0.5039,0.7793 -0.16605,0.18746 -0.303,0.3988 -0.40625,0.62695 0.0126,0.0782 0.0289,0.15577 0.0488,0.23243 -0.0334,0.0715 -0.0633,0.14446 -0.0898,0.21875 l -0.002,2.24804 c -2e-5,1.15056 0.78516,2.1526 1.90234,2.42774 0.93212,0.23008 1.88815,0.34778 2.84766,0.35156 0.003,1e-5 0.007,1e-5 0.01,0 2.49201,0 4.65979,-1.50178 5.93164,-3.36133 1.27185,-1.85955 2.09143,-4.08443 3.08399,-6.69531 v 0.004 l 7.32422,-19.19532 c 0.65232,1.92415 1.7932,3.50537 3.22851,4.52344 2.18664,1.55099 4.68813,2.15826 6.95117,2.69531 2.26305,0.53706 4.32939,1.01614 5.48828,1.62891 1.1589,0.61276 1.43165,0.79589 1.43165,2.20312 0,1.01695 -0.2876,1.74932 -0.92188,2.33399 -0.63428,0.58467 -1.77863,1.13086 -3.91602,1.13086 -1.9099,0 -3.31072,-0.40953 -4.1914,-1.07813 -0.88068,-0.66859 -1.50474,-1.62613 -1.69336,-3.69531 -0.16599,-1.19669 -1.16401,-2.10346 -2.37109,-2.1543 -0.0378,-0.0403 -0.0768,-0.0794 -0.11719,-0.11718 h -2.73047 c -1.38065,1.4e-4 -2.49986,1.11935 -2.5,2.5 0,3.72915 1.46891,6.928 3.93359,8.95898 2.46469,2.03098 5.7169,2.91016 9.19922,2.91016 3.72844,0 6.96436,-0.85612 9.3711,-2.75782 2.40673,-1.9017 3.75976,-4.88234 3.75976,-8.15234 0,-3.40979 -1.50099,-6.14973 -3.60156,-7.73242 -2.10058,-1.58269 -4.53499,-2.21307 -6.77149,-2.72656 -2.23649,-0.5135 -4.33539,-0.90789 -5.65429,-1.45704 -1.31524,-0.54761 -1.63323,-0.81558 -1.78516,-1.73046 -0.1247,-0.79804 0.0525,-1.56025 0.63867,-2.1875 0.58813,-0.62937 1.72227,-1.27735 4.04297,-1.27735 1.4074,0 2.66362,0.3851 3.42774,0.97266 0.76411,0.58756 1.22265,1.27202 1.22265,2.82031 1.4e-4,1.38065 1.11935,2.49986 2.5,2.5 h 2.53906 c 0.71902,-0.2441 1.28815,-0.80173 1.54688,-1.51562 v 1.24218 c 1.4e-4,1.38065 1.11935,2.49986 2.5,2.5 h 0.51172 v 12.67578 c 0,1.8979 0.41203,3.66976 1.65234,4.95704 1.24031,1.28727 2.9714,1.67187 4.51758,1.67187 1.72014,0 3.17722,-0.50362 3.34375,-0.53906 1.07269,-0.54402 1.57983,-1.3539 1.97852,-2.44531 v -0.86329 c 0.46852,0.6682 0.90264,1.37896 1.52734,1.85352 1.85211,1.40699 4.13485,1.99414 6.41602,1.99414 2.40504,0 4.68662,-0.71376 6.70117,-1.92969 0.68297,0.73196 1.55197,1.35812 2.58593,1.52149 0.52124,0.10479 1.03976,0.16406 1.53321,0.16406 1.3644,0 2.29766,-0.40735 2.63867,-0.51562 1.03842,-0.32946 1.74398,-1.29339 1.74414,-2.38282 v -1.88476 c -0.13034,-1.29884 -1.23793,-2.27883 -2.54297,-2.25 v -10.64258 c 0,-2.98795 -1.23798,-5.56562 -3.24023,-7.03906 -2.00225,-1.47344 -4.43854,-1.91016 -6.88086,-1.91016 -2.62096,0 -5.19381,0.55125 -7.29492,2.06641 -2.10112,1.51516 -3.52623,4.05641 -3.75977,7.09375 -0.10869,1.44705 1.03327,2.68237 2.48438,2.6875 -0.25575,0.1764 -0.58079,0.26911 -0.81641,0.4707 -1.74758,1.49515 -2.70898,3.7593 -2.70899,6.08398 0,0.54323 0.25356,0.98557 0.35157,1.4961 -0.53169,-0.36327 -1.18304,-0.5074 -1.81836,-0.40235 -0.40642,0.097 -0.68563,0.11855 -0.98047,0.14844 -0.0226,-0.20833 0.0156,-0.004 0.0156,-0.36328 v -11.7168 h 1.35743 c 1.38065,-1.4e-4 2.49986,-1.11935 2.5,-2.5 v -1.99414 c -1.4e-4,-1.38065 -1.11935,-2.49986 -2.5,-2.5 h -1.35743 v -3.26953 c -1.4e-4,-1.38065 -1.11935,-2.49986 -2.5,-2.5 h -2.44726 c -1.38065,1.4e-4 -2.49986,1.11935 -2.5,2.5 v 3.26953 h -0.51172 c -0.79496,0.243 -1.41716,0.8652 -1.66016,1.66016 -0.10215,-2.70994 -1.03896,-5.34448 -3.02539,-7.26172 -2.15157,-2.07664 -5.30279,-3.24609 -9.05078,-3.24609 z m -84.67578,0.7539 c -1.38065,1.4e-4 -2.49986,1.11935 -2.5,2.5 v 28.83203 l 0.002,0.002 c 0.002,1.37766 1.11844,2.49394 2.4961,2.49609 l 0.004,0.002 h 2.72657 c 1.38065,-1.4e-4 2.49986,-1.11935 2.5,-2.5 v -10.23437 h 3.71093 c 2.9309,0 6.10186,-0.37958 8.8418,-1.93164 1.41434,-0.80117 2.64519,-2.0228 3.52149,-3.55274 v 15.71875 c 1.4e-4,1.38065 1.11935,2.49986 2.5,2.5 h 2.35351 c 1.38065,-1.4e-4 2.49986,-1.11935 2.5,-2.5 v -5.33789 c 0.0227,2.65505 1.24542,4.9889 3.06055,6.39258 1.83202,1.41675 4.10554,2.00586 6.38672,2.00586 2.40118,0 4.71525,-0.69978 6.74023,-1.92383 0.70664,0.73675 1.60426,1.35916 2.6582,1.51758 0.44795,0.0905 0.93654,0.16211 1.42188,0.16211 1.37007,0 2.19986,-0.31632 2.86328,-0.59961 0.92042,-0.39341 1.51749,-1.29786 1.51758,-2.29883 v -1.88476 c -0.13401,-1.2942 -1.23822,-2.26931 -2.53906,-2.24219 v -10.65039 c 0,-2.97195 -1.19536,-5.54145 -3.17774,-7.02539 -1.98238,-1.48394 -4.4081,-1.92383 -6.84961,-1.92383 -2.66103,0 -5.25493,0.54607 -7.37109,2.06055 -2.11617,1.51447 -3.54382,4.06244 -3.77735,7.09961 -0.11137,1.45239 1.03748,2.6921 2.49414,2.6914 h 0.0762 c -0.25323,0.17499 -0.57513,0.2671 -0.8086,0.4668 -1.72843,1.47848 -2.67427,3.71198 -2.69531,6.00977 V 137.9082 c -1.4e-4,-1.38065 -1.11935,-2.49986 -2.5,-2.5 h -2.35351 c -1.38065,1.4e-4 -2.49986,1.11935 -2.5,2.5 v 2.41992 c -0.35089,-0.62166 -0.77617,-1.21533 -1.30665,-1.75976 -2.02952,-2.08292 -5.18722,-3.16016 -9.36328,-3.16016 z m 215.17578,0 c -1.38065,1.4e-4 -2.49986,1.11935 -2.5,2.5 v 28.83203 0.002 c 0.001,1.37995 1.12005,2.49804 2.5,2.49804 h 2.72656 c 1.38065,-1.4e-4 2.49986,-1.11935 2.5,-2.5 V 156.5059 h 3.71094 c 2.97235,0 6.14723,-0.37659 8.88086,-1.93359 0.48153,-0.27427 0.91052,-0.65179 1.34375,-1.01758 -0.14853,0.93456 -0.40039,1.83651 -0.40039,2.80859 0,4.1238 1.27666,7.55075 3.53516,9.89258 2.2585,2.34183 5.38539,3.49315 8.61523,3.54297 0.013,1e-4 0.0261,1e-4 0.0391,0 3.5398,0 6.7387,-1.399 8.9043,-3.84375 0.77158,-0.87104 1.3623,-1.89415 1.86523,-2.97656 v 3.76171 c 1.4e-4,1.38065 1.11935,2.49986 2.5,2.5 h 2.44532 0.002 c 1.37995,-0.001 2.49805,-1.12005 2.49805,-2.5 h 0.002 V 156.5625 c 0,-2.06848 0.37805,-3.7666 0.97266,-4.66602 0.5946,-0.89941 1.22493,-1.40045 3.33984,-1.35351 1.11411,-0.0542 2.05753,-0.83989 2.3125,-1.92578 0.21412,0.93482 0.94409,1.66478 1.87891,1.8789 h 0.41601 v 12.67578 c 0,1.89868 0.41703,3.68766 1.68164,4.97461 1.26462,1.28696 3.00532,1.6543 4.58399,1.6543 1.66787,0 3.08347,-0.50362 3.25,-0.53906 1.01579,-0.29772 1.73398,-1.20289 1.79297,-2.25977 0.0565,-0.0515 0.11058,-0.10562 0.16211,-0.16211 0.28696,0.30315 0.47109,0.71936 0.79687,0.9668 1.8522,1.4068 4.13363,1.99414 6.41406,1.99414 2.40694,0 4.69126,-0.71496 6.70703,-1.93164 0.68297,0.73253 1.55127,1.36027 2.58594,1.52344 0.52124,0.10496 1.03849,0.16406 1.53125,0.16406 1.36448,0 2.29609,-0.40852 2.63867,-0.51758 0.90094,-0.35322 1.51716,-1.19462 1.58203,-2.16015 0.0691,1.27443 1.0869,2.29228 2.36133,2.36132 h 2.44727 l 0.002,-0.002 0.002,0.002 c 0.58644,-0.25269 1.05396,-0.7202 1.30665,-1.30664 1.84143,1.19608 3.95496,1.86524 6.03125,1.86524 3.97336,0 7.25152,-1.56104 9.2246,-4.12696 1.97309,-2.56591 2.68165,-5.84289 2.68165,-9.25976 0,-3.32284 -0.80906,-6.59618 -2.76563,-9.17969 -1.95656,-2.58351 -5.17692,-4.30273 -9.04883,-4.30273 -1.68433,0 -3.37688,0.39471 -4.93359,1.0957 v -6.11719 c -1.4e-4,-1.38065 -1.11935,-2.49986 -2.5,-2.5 h -2.44727 c -1.38065,1.4e-4 -2.49986,1.11935 -2.5,2.5 v 26.28516 c -0.33701,-0.9609 -1.2231,-1.62141 -2.24023,-1.66992 v -10.64258 c 0,-2.98829 -1.23969,-5.56583 -3.24219,-7.03906 -2.0025,-1.47324 -4.43894,-1.91016 -6.88086,-1.91016 -2.62055,0 -5.19354,0.55142 -7.29492,2.06641 -1.03074,0.74311 -1.88692,1.74349 -2.53125,2.91797 v -1.91407 c -1.4e-4,-1.38065 -1.11935,-2.49986 -2.5,-2.5 h -1.45117 v -3.26953 c -1.4e-4,-1.38065 -1.11935,-2.49986 -2.5,-2.5 h -2.44727 c -1.38065,1.4e-4 -2.49986,1.11935 -2.5,2.5 v 3.26953 h -0.41601 c -0.87259,0.22915 -1.55406,0.91062 -1.78321,1.78321 -0.0725,-1.26857 -1.08494,-2.28102 -2.35351,-2.35352 -2.01039,0 -3.91312,0.33207 -5.54492,1.37305 -0.1039,0.0663 -0.1676,0.18079 -0.26758,0.25195 -0.23633,-0.45173 -0.6051,-0.82042 -1.05688,-1.05664 h -2.44532 c -1.38065,1.4e-4 -2.49986,1.11935 -2.5,2.5 v 3.95312 c -0.43702,-1.00983 -0.81586,-2.05402 -1.51171,-2.9121 -2.06199,-2.54273 -5.35125,-4.10938 -9.25782,-4.10938 -3.39927,0 -6.28563,1.26861 -8.35156,3.2832 0.002,-0.089 0.0332,-0.16401 0.0332,-0.2539 0,-2.54253 -0.60772,-5.30932 -2.63671,-7.39258 -2.029,-2.08326 -5.1868,-3.16016 -9.36329,-3.16016 z m 118.73633,0 c -1.38065,1.4e-4 -2.49986,1.11935 -2.5,2.5 v 28.83203 c 1.4e-4,1.38065 1.11935,2.49986 2.5,2.5 h 2.44531 c 1.38065,-1.4e-4 2.49986,-1.11935 2.5,-2.5 v -9.45898 c 0.12563,3.14221 0.86657,6.13253 2.73438,8.45703 2.03688,2.53492 5.32349,4.0625 9.2539,4.0625 3.14965,0 5.80022,-0.95565 7.70508,-2.60547 1.90486,-1.64981 3.01254,-3.83902 3.71094,-6.07422 0.20722,-1.05738 -0.28627,-2.12857 -1.22461,-2.6582 0.71528,-0.25151 1.27779,-0.81402 1.5293,-1.5293 0,-4.11272 -0.95345,-7.5899 -3.02149,-10.12304 -2.06803,-2.53314 -5.24066,-3.87696 -8.69922,-3.87696 -3.69855,0 -6.90484,1.62441 -8.98632,4.15039 -1.93476,2.34793 -2.86687,5.41425 -3.00196,8.65625 V 137.9082 c -1.4e-4,-1.38065 -1.11935,-2.49986 -2.5,-2.5 z m -186.38672,0.002 c -1.38065,1.4e-4 -2.49986,1.11935 -2.5,2.5 v 3.55664 c 0.0688,1.27377 1.08566,2.29143 2.35938,2.36132 -1.13571,0.14153 -2.03033,1.03613 -2.17188,2.17184 v 18.63281 c -0.14619,-1.46814 -1.52525,-2.49111 -2.97266,-2.20508 -0.4024,0.0963 -0.68315,0.11844 -0.97851,0.14844 -0.0226,-0.20833 0.0156,-0.004 0.0156,-0.36328 v -11.7168 h 1.35743 c 1.38065,-1.4e-4 2.49986,-1.11935 2.5,-2.5 v -1.99414 c -1.4e-4,-1.38065 -1.11935,-2.49986 -2.5,-2.5 h -1.35743 v -3.26953 c -1.4e-4,-1.38065 -1.11935,-2.49986 -2.5,-2.5 h -2.44726 c -1.38065,1.4e-4 -2.49986,1.11935 -2.5,2.5 v 3.26953 h -0.41797 c -1.38065,1.4e-4 -2.49986,1.11935 -2.5,2.5 v 1.99414 c 1.4e-4,1.38065 1.11935,2.49986 2.5,2.5 h 0.41992 v 12.67578 c 0,1.89816 0.41201,3.66999 1.65235,4.95704 1.24033,1.28704 2.96978,1.67187 4.51562,1.67187 1.71898,0 3.17653,-0.50335 3.34375,-0.53906 0.42339,-0.33773 0.72566,-0.80381 0.86133,-1.32813 0.47514,-0.24049 0.86107,-0.62642 1.10156,-1.10156 0.0473,1.30915 1.09713,2.3598 2.40625,2.4082 h 2.35352 c 1.55565,-0.50584 1.8688,-1.10093 2.50002,-2.49804 v -0.002 -6.84179 c 0.53108,2.55524 1.60717,4.7377 3.18554,6.36328 2.26695,2.33474 5.38365,3.487 8.57618,3.53711 0.013,1e-4 0.0261,1e-4 0.0391,0 3.57659,0 6.79888,-1.39192 8.98047,-3.83789 0.68027,-0.76272 1.22097,-1.641 1.69336,-2.56836 v 3.34765 c 1.4e-4,1.38065 1.11935,2.49986 2.5,2.5 h 2.4414 0.004 c 1.38071,0 2.5,-1.11929 2.5,-2.5 l -0.004,-0.004 v -11.16406 c 0,-1.4443 0.0122,-2.20882 0.32813,-3.09571 v -0.002 c 0.42721,-1.20159 1.52728,-2.37109 3.47656,-2.37109 1.52258,0 2.07071,0.31701 2.35742,0.62109 0.28671,0.30407 0.60156,0.98026 0.60156,2.48047 v 13.53515 c 1.4e-4,1.38065 1.11935,2.49986 2.5,2.5 h 2.44532 c 1.38065,-1.4e-4 2.49986,-1.11935 2.5,-2.5 v -0.90429 c 0.26828,0.41302 0.45977,0.87518 0.80859,1.22656 1.40257,1.41949 3.32594,2.17773 5.25586,2.17773 1.92855,0 3.85312,-0.75796 5.25781,-2.17773 3.9e-4,-3.9e-4 0.002,3.9e-4 0.002,0 0.001,-0.003 0.003,-0.005 0.004,-0.008 1.35301,-1.37067 2.12891,-3.27546 2.12891,-5.20899 0,-1.91862 -0.77193,-3.82234 -2.14063,-5.1875 -1.41597,-1.4382 -3.35283,-2.16797 -5.25195,-2.16797 -1.90302,0 -3.84359,0.72915 -5.25781,2.16993 -0.34854,0.34978 -0.53894,0.80835 -0.80664,1.21875 v -4.72071 c 0,-1.80695 -0.1179,-4.08366 -1.57227,-6.18554 -10e-4,-0.002 -0.003,-0.004 -0.004,-0.006 -2.00984,-2.88882 -5.30919,-4.03516 -8.44921,-4.03516 -2.13492,0 -3.89275,0.76417 -5.4668,1.78125 -0.24875,-0.53449 -0.67836,-0.96389 -1.21298,-1.21237 h -2.44531 c -1.38065,1.4e-4 -2.49986,1.11935 -2.5,2.5 v 3.64062 c -0.42318,-0.8954 -0.7483,-1.84649 -1.38086,-2.61523 -2.087,-2.53625 -5.38719,-4.09375 -9.29297,-4.09375 -3.83636,0 -7.10164,1.58436 -9.17774,4.11523 -1.51945,1.8523 -2.24461,4.1826 -2.62304,6.62891 V 146 c -0.14172,-1.13636 -1.03734,-2.03118 -2.17383,-2.17188 1.27443,-0.069 2.29228,-1.08689 2.36133,-2.36132 v -3.55664 c -1.4e-4,-1.38065 -1.11935,-2.49986 -2.5,-2.5 z m -142.29687,7.32031 h 4.65039 c 2.27592,0 3.5686,0.46309 4.13086,0.89648 0.56226,0.4334 0.80078,0.85833 0.80078,2.14063 0,1.90574 -0.31147,2.23073 -1.00391,2.65429 -0.69244,0.42357 -2.35632,0.76563 -4.77539,0.76563 h -3.80273 z m 215.17187,0 h 4.65234 c 2.27646,0 3.60483,0.46355 4.19532,0.91015 0.59049,0.44661 0.83008,0.86596 0.83008,2.12696 0,1.88981 -0.31253,2.21156 -1.03516,2.64648 -0.72263,0.43492 -2.41883,0.77344 -4.83789,0.77344 h -3.80469 z m 64.18359,5.34375 c -0.6207,1.18387 -1.03649,2.53621 -1.15039,4.01758 -0.10863,1.44628 1.03209,2.68124 2.48243,2.6875 -0.25573,0.1764 -0.58081,0.26911 -0.81641,0.4707 -1.74741,1.49516 -2.70898,3.7593 -2.70898,6.08398 0,0.48375 0.23425,0.87381 0.3125,1.33204 -0.35094,-0.15651 -0.73323,-0.23003 -1.11719,-0.21485 -0.2257,0.063 -0.56931,0.0927 -0.88672,0.12695 -0.0239,-0.19844 0.0117,-0.003 0.0117,-0.36523 v -11.7168 h 1.45117 c 1.3203,-0.0408 2.38109,-1.10157 2.42187,-2.42187 z m -243.93945,2.0293 c 1.49119,0 2.14619,0.34382 2.39453,0.5625 0.24707,0.21754 0.37175,0.43613 0.37305,1.13476 -0.42177,0.0966 -1.2591,0.30519 -1.86133,0.35938 -0.017,0.009 -0.034,0.018 -0.0508,0.0273 -0.0188,-0.005 -0.0377,-0.0106 -0.0566,-0.0156 l -3.29492,0.43946 c -0.57009,0.0751 -1.03699,0.25696 -1.56836,0.37109 0.15638,-0.10832 0.29988,-0.23414 0.42773,-0.375 0.17048,-1.30083 0.48319,-1.64483 0.92774,-1.94726 0.44454,-0.30244 1.33601,-0.55664 2.70898,-0.55664 z m 80.25391,0 c 1.49178,0 2.09993,0.33943 2.32031,0.53906 0.21859,0.198 0.35135,0.42885 0.35352,1.15429 -0.57388,0.13799 -1.30469,0.31643 -1.79297,0.36524 -0.006,0.007 -0.0118,0.0143 -0.0176,0.0215 -0.0182,-0.005 -0.0364,-0.009 -0.0547,-0.0137 l -3.38672,0.43945 h -0.004 c -0.52523,0.0691 -0.95287,0.23983 -1.44532,0.3418 0.14249,-0.10058 0.27407,-0.21579 0.39258,-0.34375 0.17249,-1.32163 0.4797,-1.66427 0.90235,-1.95508 0.42264,-0.2908 1.30536,-0.54882 2.73242,-0.54882 z m 43.46875,0 c 1.96302,0 2.78899,0.54331 3.48828,1.51171 0.69929,0.96841 1.16211,2.64468 1.16211,4.75 0,1.83502 -0.46427,3.54733 -1.21485,4.61329 -0.75057,1.06595 -1.60527,1.6582 -3.43554,1.6582 -1.65296,0 -2.5281,-0.49966 -3.27344,-1.4707 -0.74534,-0.97105 -1.28125,-2.61308 -1.28125,-4.80079 0,-1.87431 0.45142,-3.5898 1.17773,-4.63867 0.72632,-1.04886 1.53849,-1.62304 3.37696,-1.62304 z m 81.75976,0 c 1.96303,0 2.75286,0.5306 3.44727,1.50195 0.69059,0.96601 1.15712,2.65955 1.20312,4.77734 -0.003,1.82798 -0.46474,3.53342 -1.21289,4.59571 -0.75068,1.06589 -1.60599,1.6582 -3.4375,1.6582 -1.65296,0 -2.56848,-0.51192 -3.33398,-1.49024 -0.7655,-0.97831 -1.31445,-2.60842 -1.31445,-4.78125 0,-1.85699 0.46465,-3.56312 1.21093,-4.61914 0.74629,-1.05602 1.59964,-1.64257 3.4375,-1.64257 z m 48.36133,0 c 1.49119,0 2.0997,0.33925 2.32031,0.53906 0.21916,0.19848 0.34981,0.42846 0.35157,1.15625 -0.57504,0.13816 -1.30624,0.31451 -1.79297,0.36328 -0.0111,0.006 -0.0222,0.0117 -0.0332,0.0176 -0.013,-0.003 -0.026,-0.007 -0.0391,-0.01 l -3.38867,0.43945 h -0.004 c -0.52338,0.0688 -0.94861,0.24028 -1.43945,0.3418 0.14181,-0.10069 0.27273,-0.21589 0.39063,-0.34375 0.17245,-1.32141 0.47752,-1.66415 0.90039,-1.95508 0.42287,-0.29092 1.30787,-0.54882 2.73437,-0.54882 z m 24.36914,0 c 1.79193,0 2.69407,0.57669 3.4668,1.68359 0.77272,1.10689 1.26554,2.93108 1.1875,5.13281 -7.9e-4,0.0143 -10e-4,0.0287 -0.002,0.043 -0.0397,2.12724 -0.64796,3.51257 -1.43555,4.36914 -0.78759,0.85657 -1.79705,1.30469 -3.2168,1.30469 -1.61072,0 -2.48961,-0.52157 -3.25586,-1.54492 -0.76624,-1.02336 -1.3005,-2.70748 -1.29883,-4.80664 v -0.002 c 0,-1.87174 0.54755,-3.52097 1.35547,-4.57812 0.80792,-1.05716 1.74128,-1.60156 3.19922,-1.60156 z m 31.99024,0 c 1.53196,0 2.34592,0.46913 2.99414,1.24609 0.2321,0.2782 0.3962,0.68001 0.56445,1.07031 h -7.22461 c 0.18595,-0.34452 0.35252,-0.7267 0.57813,-0.98633 0.74245,-0.85442 1.57925,-1.33007 3.08789,-1.33007 z m -22.33789,6.95312 -0.002,0.041 c 2.4e-4,-0.007 -0.002,-0.0128 -0.002,-0.0195 1.6e-4,-0.008 0.004,-0.0137 0.004,-0.0215 z m -285.09375,2.02734 v 0.006 c -5.2e-4,1.33543 -0.42889,1.92503 -1.32032,2.53321 -0.89197,0.60854 -2.36502,1.01367 -3.89453,1.01367 -0.68885,0 -1.33384,-0.2155 -1.63672,-0.43555 -0.30287,-0.22004 -0.38086,-0.26734 -0.38086,-0.79297 0,-0.72641 0.0666,-0.77899 0.51954,-1.0957 0.45291,-0.31671 1.52163,-0.69081 3.09765,-0.81055 h 0.002 c 1.10742,-0.0854 2.33395,-0.20045 3.61329,-0.41797 z m 80.15625,0.0117 c -0.002,1.34889 -0.42529,1.94117 -1.28711,2.53907 -0.86401,0.59941 -2.30058,1.00195 -3.83008,1.00195 -0.68953,0 -1.33379,-0.21549 -1.63672,-0.43555 -0.30293,-0.22005 -0.38281,-0.26734 -0.38281,-0.79297 0,-0.72582 0.0681,-0.77874 0.52148,-1.0957 0.45338,-0.31696 1.52075,-0.69083 3.0957,-0.81055 h 0.002 c 1.09548,-0.0844 2.28133,-0.19455 3.51758,-0.40625 z m 173.58984,0 c -0.002,1.3489 -0.42503,1.94114 -1.28711,2.53907 -0.86427,0.59944 -2.30273,1.00195 -3.83398,1.00195 -0.68683,0 -1.32982,-0.21538 -1.63282,-0.43555 -0.30299,-0.22017 -0.38086,-0.26766 -0.38086,-0.79297 0,-0.72583 0.0662,-0.77874 0.51954,-1.0957 0.45337,-0.31696 1.52073,-0.69083 3.0957,-0.81055 h 0.004 c 1.09436,-0.0844 2.27932,-0.19458 3.51563,-0.40625 z m 49.50977,0.33789 h 8.54492 c -0.18796,0.11426 -0.36002,0.25283 -0.51172,0.41211 -0.41777,1.92861 -1.67951,2.79102 -3.85938,2.79102 -1.63087,0 -2.54805,-0.53528 -3.30078,-1.48047 -0.36085,-0.45313 -0.655,-1.04559 -0.87304,-1.72266 z m -148.67774,7.20118 c 0.003,0.003 0.007,0.003 0.01,0.006 10e-4,10e-4 8.9e-4,0.003 0.002,0.004 z"
     id="path11"
     sodipodi:nodetypes="csccccccccccscscccccccccccscscccssssssscccccssssssscssscccccccssscccssccsccccssssccsscccscccccccccccccscccccccccccssccccccssccsccccsssscsccccccccssccccsscccsscssccsccccsccssccccssscccssccscccccccssssscccccccssssccccccccccccscccccsscsssccccccccssscccsssccccccccccccscccccccccccsccscsssccccccccsccsccccsccsccsssccccccssccscsccsscscccccsssccccccccssssscccsssssccsccsscccsccsssscccccccsssssccccccccsssssssssssssscsssssscsccccccccsccssccssssssssssccsscccccssssssccccsssssscccscssssscccccccssccscc" /><path
     style="baseline-shift:baseline;display:inline;overflow:visible;vector-effect:none;fill:#0895ff;stroke-linecap:round;stroke-linejoin:round;paint-order:markers stroke fill;enable-background:accumulate;stop-color:#000000;stop-opacity:1"
     d="m 112.46333,151.68691 c 5.17478,0 8.27946,-1.04524 8.27946,-5.91853 0,-3.60786 -2.25838,-5.5387 -7.43221,-5.5387 h -7.15073 v 11.45723 z m -9.03159,15.05357 v -28.83207 h 10.63197 c 7.52634,0 9.50328,3.72902 9.50328,8.05324 0,6.4426 -5.83279,8.04459 -11.19682,8.04459 h -6.21032 v 12.73327 l -2.72714,9.7e-4 m 23.80184,0 h 2.35253 v -28.83207 h -2.35253 z m 22.11026,-10.89761 c -2.06913,0.8385 -4.23338,1.00678 -6.30252,1.1664 -3.6705,0.27886 -5.92693,1.60199 -5.92693,4.39924 0,2.53567 2.25839,3.72901 4.51677,3.72901 3.85684,0 7.71559,-1.84624 7.71559,-6.05029 z m -4.13924,-1.19236 c 0.9414,-0.0847 2.44667,-0.32694 3.19881,-0.69139 0.84726,-0.35482 0.9414,-1.43467 0.9414,-2.15201 0,-2.44241 -1.50623,-4.20404 -5.26891,-4.20404 -3.29297,0 -5.64452,1.08082 -6.11619,4.68002 h -2.4457 c 0.37559,-4.88484 4.04413,-6.85223 8.65505,-6.85223 4.23338,0 7.5273,1.65008 7.5273,6.4503 v 11.28991 c 0,1.88182 0.56388,2.32126 2.53985,1.60201 v 1.88471 c -0.28145,0.12018 -1.12872,0.39904 -1.88088,0.39904 -0.37752,0 -0.65897,-0.0365 -1.03455,-0.12019 -1.69355,-0.23271 -1.97694,-1.64046 -1.97694,-3.08668 -1.97693,2.24817 -4.79821,3.45014 -7.80876,3.45014 -3.66855,0 -6.96344,-1.96738 -6.96344,-5.96564 0,-3.47708 2.44666,-5.60218 7.33903,-6.24546 l 3.29393,-0.43946 m 12.51284,17.7306 c 0.65995,0.12116 1.31601,0.25195 1.97596,0.25195 2.8242,0 3.19881,-3.93287 4.13925,-5.73296 l -8.18532,-20.89997 h 2.72908 l 6.77419,17.82387 6.67908,-17.82387 h 2.63494 l -7.80972,20.46245 c -1.97694,5.20024 -3.29295,8.44558 -6.68005,8.44558 -0.76138,-0.003 -1.51963,-0.0965 -2.25839,-0.27885 l 9.8e-4,-2.2482 m 22.48583,-14.25256 c 0.47071,5.1637 3.85876,7.04648 8.37361,7.04648 5.17476,0 7.33901,-2.79436 7.33901,-5.96566 0,-8.93021 -17.68858,-3.00013 -17.68858,-14.32564 0,-4.00979 3.29295,-7.7292 9.87983,-7.7292 6.4908,0 9.78375,3.9146 9.68961,8.61577 h -2.53983 c 0,-4.41173 -3.48124,-6.29354 -7.15075,-6.29354 -5.64548,0 -7.62146,3.40111 -7.15075,6.36567 1.22286,7.43879 17.78273,2.07798 17.78273,13.24577 0,5.2964 -3.95194,8.41 -10.63198,8.41 -6.11618,0 -10.63198,-3.1136 -10.63198,-9.36868 h 2.72908 m 31.14379,8.68788 c -0.56483,0.12021 -1.5994,0.48465 -2.82322,0.48465 -2.35253,0 -3.66854,-1.04428 -3.66854,-4.12903 V 147.9954 h -3.01248 v -1.99432 h 3.01151 v -5.7695 h 2.44666 v 5.7695 h 3.85778 v 1.99432 h -3.85778 v 14.21698 c 0,2.05106 0,2.92609 2.06913,2.92609 0.65996,0 1.31602,-0.12116 1.97694,-0.27885 v 1.95681 m 18.15638,-10.97356 c -2.06913,0.8385 -4.13828,1.00678 -6.20935,1.1664 -3.66854,0.27886 -5.92693,1.60199 -5.92693,4.39924 0,2.53567 2.25839,3.72901 4.51775,3.72901 3.85682,0 7.61951,-1.84624 7.61951,-6.05029 v -3.24436 z m -4.0451,-1.19236 c 0.84725,-0.0847 2.3535,-0.32694 3.19979,-0.69139 0.75311,-0.35482 0.84629,-1.43467 0.84629,-2.15201 0,-2.44241 -1.41113,-4.20404 -5.1748,-4.20404 -3.38611,0 -5.6445,1.08082 -6.11423,4.68002 h -2.44763 c 0.37559,-4.88484 4.04509,-6.85223 8.5609,-6.85223 4.23532,0 7.62145,1.65008 7.62145,6.4503 v 11.28991 c 0,1.88182 0.47167,2.32126 2.54274,1.60201 v 1.88471 c -0.37849,0.12018 -1.22576,0.39904 -1.88279,0.39904 -0.37656,0 -0.75215,-0.0365 -1.12968,-0.12019 -1.59942,-0.23271 -1.88183,-1.64046 -1.88183,-3.08668 -2.07108,2.24817 -4.79725,3.45014 -7.80876,3.45014 -3.66853,0 -7.05563,-1.96738 -7.05563,-5.96564 0,-3.47708 2.44569,-5.60218 7.33805,-6.24546 l 3.38709,-0.43946 m 20.79326,12.16689 c -0.5629,0.12021 -1.60037,0.48465 -2.82225,0.48465 -2.35155,0 -3.66854,-1.04428 -3.66854,-4.12903 V 147.9954 h -2.91834 v -1.99432 h 2.91737 v -5.7695 h 2.44668 v 5.7695 h 3.85778 v 1.99432 h -3.85778 v 14.21698 c 0,2.05106 0,2.92609 2.06912,2.92609 0.65801,0 1.31796,-0.12116 1.97694,-0.27885 v 1.95681 m 7.24392,-0.076 h -2.3535 v -20.74037 h 2.3535 v 20.74132 z m -2.54178,-25.27326 v -3.55784 h 2.72909 v 3.55784 h -2.72909 m 16.8423,6.13585 c -5.08064,0 -7.05564,4.27904 -7.05564,8.76194 0,5.16465 2.44569,8.77155 7.05564,8.77155 5.07966,0 7.15075,-4.3252 7.15075,-8.77155 0,-4.88484 -1.97598,-8.76194 -7.15075,-8.76194 z m -9.69059,8.76097 c 0,-6.03873 3.29295,-10.93318 9.69059,-10.93318 6.58494,0 9.78472,4.84638 9.78472,10.93318 0,6.57434 -3.85779,10.9351 -9.78472,10.9351 -5.26892,-0.0827 -9.69059,-3.68189 -9.69059,-10.9351 m 25.30907,10.37643 h -2.44569 V 146.0001 h 2.44569 v 2.87994 c 1.88085,-2.04143 3.85779,-3.44919 6.68004,-3.44919 2.63301,0 4.89236,0.80099 6.39763,2.96456 1.03263,1.49238 1.12773,3.0482 1.12773,4.76271 v 13.58138 h -2.44569 v -13.53522 c 0,-3.71748 -1.59939,-5.60122 -5.45816,-5.60122 -3.0115,0 -5.08065,1.91933 -5.83279,4.03481 -0.47168,1.32409 -0.47168,2.49049 -0.47168,3.93479 v 11.16781 m 23.71063,-6.73878 c -0.28146,-0.13077 -0.658,-0.19615 -1.2209,-0.19615 h -0.75409 v 1.92027 h 0.8492 c 0.37461,0 0.75019,-0.0365 0.93945,-0.10962 0.37559,-0.14905 0.56484,-0.4279 0.56484,-0.83946 0,-0.38367 -0.18925,-0.64426 -0.3785,-0.77504 z m -1.03359,-0.84907 c 0.66091,0 1.12967,0.0577 1.50526,0.18558 0.56484,0.23367 0.75215,0.68081 0.75215,1.3616 0,0.47503 -0.0961,0.8212 -0.46974,1.04429 -0.18827,0.12115 -0.46875,0.20673 -0.75117,0.26058 0.37559,0.0645 0.65802,0.25194 0.84531,0.53176 0.18829,0.28943 0.28243,0.57021 0.28243,0.83945 v 0.39137 c 0,0.12982 0,0.2702 0.0951,0.40195 v 0.35289 h -0.84726 v -0.12211 l -0.0932,-0.16636 v -0.42982 c 0,-0.63274 -0.18925,-1.04428 -0.47167,-1.23948 -0.18731,-0.12117 -0.56289,-0.17791 -1.03456,-0.17791 h -0.75022 v 2.13568 h -0.94139 v -5.36947 z m -2.91543,-0.27886 c -0.84726,0.82023 -1.22576,1.81739 -1.22576,2.97225 0,1.1837 0.3785,2.18279 1.22576,3.00302 0.84628,0.82985 1.78671,1.24044 3.01151,1.24044 1.22478,0 2.16424,-0.41059 3.0115,-1.24044 0.84628,-0.82119 1.22576,-1.81739 1.22576,-3.00302 0,-1.15389 -0.37851,-2.15202 -1.22576,-2.97129 -0.84628,-0.82215 -1.78575,-1.23275 -3.0115,-1.23275 -1.2248,0 -2.16425,0.40964 -3.01151,1.23179 z m 6.49274,6.43011 c -0.9414,0.95195 -2.16425,1.43563 -3.48123,1.43563 -1.31894,0 -2.54177,-0.48464 -3.48026,-1.43563 -0.94335,-0.94909 -1.41211,-2.10491 -1.41211,-3.45882 0,-1.33274 0.46876,-2.48857 1.41211,-3.42997 0.93849,-0.95964 2.16132,-1.42505 3.48026,-1.42505 1.31601,0 2.53886,0.46444 3.48025,1.42505 0.9414,0.93275 1.41211,2.08857 1.41211,3.42997 0,1.35582 -0.47264,2.50973 -1.41211,3.45882 m 17.96908,-13.61697 c 5.17477,0 8.37263,-1.04524 8.37263,-5.91853 0,-3.60786 -2.3506,-5.5387 -7.52538,-5.5387 h -7.15172 v 11.45723 z m -9.02967,15.05357 V 137.9084 h 10.63198 c 7.5273,0 9.50133,3.72902 9.50133,8.05324 0,6.4426 -5.74059,8.04459 -11.19585,8.04459 h -6.21129 v 12.73327 l -2.72617,9.7e-4 m 30.95164,-19.13741 c -5.07969,0 -7.14784,4.27904 -7.14784,8.76194 0,5.16465 2.53789,8.77155 7.14784,8.77155 5.0816,0 7.15268,-4.3252 7.15268,-8.77155 -0.0951,-4.88484 -1.97791,-8.76194 -7.15268,-8.76194 z m -9.68962,8.76097 c 0,-6.03873 3.19978,-10.93318 9.68962,-10.93318 6.58686,0 9.69153,4.84638 9.69153,10.93318 0,6.57434 -3.85778,10.9351 -9.69153,10.9351 -5.3621,-0.0827 -9.68962,-3.68189 -9.68962,-10.9351 m 25.40418,10.37644 h -2.44571 V 146.0001 h 2.44571 v 3.88864 h 0.0951 c 1.31407,-3.32996 3.29295,-4.45692 6.77418,-4.45692 v 2.61164 c -5.45912,-0.12115 -6.86736,3.8771 -6.86736,8.51962 v 10.17739 m 20.41477,0.076 c -0.56484,0.12021 -1.5994,0.48465 -2.73007,0.48465 -2.44569,0 -3.7646,-1.04428 -3.7646,-4.12903 V 147.9954 h -2.91544 v -1.99432 h 2.91544 v -5.7695 h 2.44665 v 5.7695 h 3.95195 v 1.99432 h -3.95195 v 14.21698 c 0,2.05106 0.0951,2.92609 2.07011,2.92609 0.66189,0 1.4121,-0.12116 1.97695,-0.27885 v 1.95681 m 17.40519,-10.97356 c -2.0701,0.8385 -4.14022,1.00678 -6.20934,1.1664 -3.66856,0.27886 -5.92693,1.60199 -5.92693,4.39924 0,2.53567 2.25936,3.72901 4.51483,3.72901 3.85973,0 7.62241,-1.84624 7.62241,-6.05029 v -3.24436 z m -4.04704,-1.19236 c 0.84531,-0.0847 2.35252,-0.32694 3.19978,-0.69139 0.75409,-0.35482 0.84726,-1.43467 0.84726,-2.15201 0,-2.44241 -1.41211,-4.20404 -5.17479,-4.20404 -3.38515,0 -5.64451,1.08082 -6.11423,4.68002 h -2.44761 c 0.37558,-4.88484 4.04703,-6.85223 8.56186,-6.85223 4.23436,0 7.62242,1.65008 7.62242,6.4503 v 11.28991 c 0,1.88182 0.46779,2.32126 2.53984,1.60201 v 1.88471 c -0.37753,0.12018 -1.22479,0.39904 -1.88086,0.39904 -0.37752,0 -0.75409,-0.0365 -1.12967,-0.12019 -1.59747,-0.23271 -1.88086,-1.64046 -1.88086,-3.08668 -2.07205,2.24817 -4.7992,3.45014 -7.81265,3.45014 -3.66659,0 -7.05562,-1.96738 -7.05562,-5.96564 0,-3.47708 2.44569,-5.60218 7.33708,-6.24546 l 3.38807,-0.43946 m 23.24186,10.48702 c 4.04511,0 7.05564,-2.9261 7.15269,-8.12729 0.1844,-5.20216 -2.16425,-9.4062 -7.15269,-9.4062 -4.42263,0 -7.05564,3.99826 -7.05564,8.67924 -0.004,5.01368 2.44569,8.85425 7.05564,8.85425 z m -7.05953,1.60392 h -2.44569 v -28.83207 h 2.44569 v 11.40916 c 1.50916,-2.51741 4.51678,-3.88767 7.43414,-3.88767 6.39569,0 9.315,5.17331 9.315,10.98126 0,6.11566 -2.63494,10.88798 -9.40719,10.88798 -2.73006,0 -5.83279,-1.48083 -7.33708,-4.20402 v 3.64536 m 22.1083,0 h 2.4457 v -28.83207 h -2.4457 z m 23.5204,-11.81978 c 0,-4.0367 -2.25741,-7.31763 -6.58493,-7.31763 -4.32752,0 -6.58687,3.40209 -7.05563,7.31763 z m -13.6425,2.01259 c 0,4.47522 2.44666,8.20423 7.05659,8.20423 3.10565,0 5.64452,-1.72509 6.30252,-4.76271 h 2.72812 c -1.22284,3.91363 -3.66757,6.92627 -9.03064,6.92627 -6.68198,0 -9.59838,-4.72619 -9.59838,-10.84857 0,-6.05124 3.57636,-11.01973 9.59838,-11.01973 5.73962,0 9.2199,4.05499 9.2199,11.50148 h -16.27554"
     id="path12" /></g></svg>
