<?xml version="1.0" encoding="UTF-8" standalone="no"?>
<svg
   version="1.1"
   viewBox="0 0 1081.3466 249.73714"
   id="svg20"
   sodipodi:docname="quake3.svg"
   width="1081.3466"
   height="249.73714"
   inkscape:version="1.4.3 (0d15f75042, 2025-12-25)"
   xmlns:inkscape="http://www.inkscape.org/namespaces/inkscape"
   xmlns:sodipodi="http://sodipodi.sourceforge.net/DTD/sodipodi-0.dtd"
   xmlns="http://www.w3.org/2000/svg"
   xmlns:svg="http://www.w3.org/2000/svg">
  <defs
     id="defs20" />
  <sodipodi:namedview
     id="namedview20"
     pagecolor="#a6a6a6"
     bordercolor="#000000"
     borderopacity="0.25"
     inkscape:showpageshadow="2"
     inkscape:pageopacity="0.0"
     inkscape:pagecheckerboard="0"
     inkscape:deskcolor="#d1d1d1"
     inkscape:zoom="0.84571966"
     inkscape:cx="540.36819"
     inkscape:cy="125.33704"
     inkscape:window-width="1920"
     inkscape:window-height="1080"
     inkscape:window-x="0"
     inkscape:window-y="0"
     inkscape:window-maximized="0"
     inkscape:current-layer="svg20" />
  <g
     id="path1"
     style="fill:#565656;fill-opacity:1;stroke:#ffffff;stroke-width:20;stroke-linecap:round;stroke-linejoin:round;stroke-dasharray:none;stroke-opacity:1;paint-order:markers stroke fill"
     transform="translate(9.234426,10)">
    <path
       style="baseline-shift:baseline;display:inline;overflow:visible;vector-effect:none;fill:#ffffff;stroke:none;enable-background:accumulate;stop-color:#000000;stop-opacity:1"
       d="m 606.56055,-10 a 10.001,10.001 0 0 0 -6.78321,2.6523438 l -68.42187,63.1699222 0.0664,-0.05859 c -1.22986,1.115461 -4.32525,4.087146 -3.30078,9.582031 1.02447,5.494885 5.0783,7.20659 6.65625,7.791016 a 10.001,10.001 0 0 0 0.11328,0.04297 c 26.88513,9.588597 52.31033,29.020017 56.15821,56.316407 l -0.0195,-0.13476 c 0.66647,5.23876 6.40704,9.56461 11.04101,9.41797 4.63398,-0.14665 9.95722,-4.61344 10.41992,-9.84961 a 10.001,10.001 0 0 0 0.004,-0.0449 c 2.50337,-29.855338 -8.19213,-57.555801 -32.3418,-74.480477 12.11204,-15.935654 24.27833,-31.830089 36.6211,-47.5878908 a 10.001,10.001 0 0 0 0.0703,-0.091797 c 2.61992,-3.4260483 2.12576,-4.9574032 2.19727,-6.10156253 A 10.001,10.001 0 0 0 609.06055,-10 Z m -64.95118,64.341797 0.11329,0.04102 c 0.005,0.002 0.0219,0.01362 0.0273,0.01563 -0.0467,-0.01673 -0.0939,-0.03997 -0.14063,-0.05664 z m 14.54102,5.810547 c 0.0571,0.177699 0.1285,0.338308 0.19336,0.507812 -0.16011,-0.07807 -0.3163,-0.168703 -0.47656,-0.246094 z"
       id="path21" />
    <path
       style="baseline-shift:baseline;display:inline;overflow:visible;vector-effect:none;stroke:none;enable-background:accumulate;stop-color:#000000;stop-opacity:1"
       d="m 606.56,0 h 2.5 q -0.03,0.48 -0.16,0.65 -21.83,27.87 -43.18,56.11 -0.32,0.42 0.15,0.66 c 27.62,14.1 39.23,39.98 36.66,70.63 a 0.8,0.79 -46.7 0 1 -1.58,0.05 C 596.37,95.61 567.27,74.11 538.25,63.76 q -0.54,-0.2 -0.11,-0.59 z"
       id="path22" />
  </g>
  <g
     id="path2"
     style="fill:#565656;fill-opacity:1;stroke:#ffffff;stroke-width:20;stroke-linecap:round;stroke-linejoin:round;stroke-dasharray:none;stroke-opacity:1;paint-order:markers stroke fill"
     transform="translate(9.234426,10)">
    <path
       style="baseline-shift:baseline;display:inline;overflow:visible;vector-effect:none;fill:#ffffff;stroke:none;enable-background:accumulate;stop-color:#000000;stop-opacity:1"
       d="m 383.82422,-9.1152344 c -3.86329,0.047113 -8.13684,2.7488026 -9.64649,6.7714844 -11.30495,29.864693 -23.91571,59.131574 -37.83398,87.806641 a 10.001,10.001 0 0 0 0,0.002 c -5.7313,11.809671 -13.75517,24.113299 -23.65234,31.992189 a 10.001,10.001 0 0 0 -0.34766,0.28906 c -3.13315,2.73455 -4.20615,7.42361 -2.9707,11.05274 1.23544,3.62912 5.39622,6.97266 9.75586,6.95117 h 26.38086 c 0.61821,0 1.30059,0.0395 2.77148,-0.31445 0.73545,-0.177 1.71407,-0.42368 3.125,-1.31641 1.41093,-0.89273 3.46203,-2.83288 4.30273,-5.70117 0.84071,-2.86829 0.1486,-5.67616 -0.58984,-7.2168 -0.73844,-1.54063 -1.45874,-2.28177 -2.00195,-2.82812 -1.0463,-1.05235 -1.62687,-1.36067 -2.14453,-1.67383 0.24158,-0.90439 0.53097,-4.11944 1.75586,-7.24609 1.67793,-4.28309 4.15729,-8.9344 5.56054,-11.238289 3.4e-4,-5.49e-4 0.002,-0.0014 0.002,-0.002 0.5506,-0.902511 0.51235,-0.889536 2.40039,-1.330079 1.89645,-0.442506 5.2466,-0.543354 9.33789,-0.90039 a 10.001,10.001 0 0 0 0.32812,-0.03516 c 2.74482,-0.330793 5.13925,-2.044456 6.83789,-4.201172 1.36747,1.83898 3.16436,2.995878 4.44336,3.511718 1.61778,0.652474 2.68195,0.723533 3.50781,0.767579 l -0.0918,-0.0059 c 5.48285,0.343473 10.1792,1.120813 9.36718,0.652344 0.63375,0.368553 3.3827,3.328549 5.55274,7.427739 2.17191,4.10274 4.0624,8.99645 5.49805,12.80664 0.0908,0.24124 0.0709,0.26878 0.125,0.45313 -0.31661,0.20501 -0.47281,0.23027 -0.99024,0.68359 -0.53676,0.47026 -1.26916,1.09804 -2.12695,2.58789 -0.85779,1.48985 -1.8598,4.47957 -0.99024,7.66797 0.86957,3.1884 3.15678,5.16405 4.58008,6.00781 1.42331,0.84376 2.33314,1.03569 3.00977,1.18555 1.35325,0.29971 1.92016,0.25781 2.42969,0.25781 h 37.5 a 10.001,10.001 0 0 0 0.38476,-0.008 c 4.52883,-0.17411 8.67478,-3.94618 9.625,-7.88281 0.95022,-3.93664 -1.01803,-9.18536 -4.96875,-11.40625 a 10.001,10.001 0 0 0 -0.48242,-0.25391 c -8.07481,-3.97702 -10.12994,-7.15987 -14.94922,-17.277349 l -0.002,-0.002 C 422.68463,65.450167 407.69158,31.617297 393.63477,-2.5800781 c -1.6073,-3.9846702 -5.94726,-6.5822696 -9.81055,-6.5351563 z m 0.51367,35.6835934 c 0.47013,1.107731 0.94588,2.213347 1.41797,3.320313 -0.19569,-0.190338 -0.3267,-0.432585 -0.5293,-0.617188 -0.47653,-0.434541 -1.01412,-0.752508 -1.54101,-1.089843 0.21788,-0.537573 0.43531,-1.075325 0.65234,-1.613282 z m -6.74219,29.316407 c 2.58575,6.062977 5.17227,12.125909 7.79688,18.177734 -0.52024,0.200662 -0.78123,0.350036 -1.42578,0.550781 a 10.001,10.001 0 0 0 -0.0898,0.02734 c -2.97507,0.957496 -5.19467,2.969975 -6.55664,4.818359 a 10.001,10.001 0 0 0 -0.0117,0.01367 c -1.21694,-1.696577 -2.80415,-3.147725 -4.76953,-3.830078 a 10.001,10.001 0 0 0 -0.15625,-0.05273 c -1.47028,-0.483381 -2.19678,-0.627812 -3.1914,-0.890625 0.30541,-1.141604 0.51423,-2.190439 1.16015,-3.619141 a 10.001,10.001 0 0 0 0.004,-0.0078 c 2.28,-5.053433 4.82186,-10.124749 7.24023,-15.1875 z m 28.83789,20.890625 c 0.95193,2.086929 1.914,4.169752 2.87305,6.253906 -0.9641,-0.901607 -2.09965,-1.703515 -3.25586,-2.496094 0.22661,-0.832041 0.40063,-1.676695 0.46875,-2.519531 0.0352,-0.435111 -0.0884,-0.814642 -0.0859,-1.238281 z m 0.22852,39.849609 c -0.008,0.004 -0.0289,0.021 -0.0371,0.0254 -0.0148,0.008 -0.005,-0.003 -0.0215,0.006 z m -81.13281,16.14844 c -0.0133,0.0118 -0.0198,0.0293 -0.0332,0.041 l -0.34765,0.28907 c 0.13231,-0.10533 0.24938,-0.224 0.38086,-0.33008 z m 118.66992,1.07031 c 0.18507,0.0941 0.34557,0.20446 0.5332,0.29687 l -0.48242,-0.2539 c -0.0194,-0.0109 -0.0315,-0.0319 -0.0508,-0.043 z"
       id="path23" />
    <path
       style="baseline-shift:baseline;display:inline;overflow:visible;vector-effect:none;stroke:none;enable-background:accumulate;stop-color:#000000;stop-opacity:1"
       d="m 349.75,93.01 c -3.46,5.68 -10.52,19.68 -8.72,26.28 q 1,3.64 4.65,5.88 0.95,0.58 -0.17,0.58 h -26.43 a 0.27,0.26 -64.2 0 1 -0.16,-0.47 c 11.72,-9.33 20.31,-22.86 26.42,-35.45 Q 366.42,46.4 383.54,1.17 a 0.44,0.44 0 0 1 0.82,-0.01 q 21.2,51.58 45.23,102.06 c 5.13,10.77 9.53,17.01 19.56,21.95 a 0.31,0.31 0 0 1 -0.14,0.58 h -37.5 q -0.7,0 -0.09,-0.33 c 4.95,-2.72 5.35,-6.89 3.41,-12.04 -2.89,-7.67 -8.02,-21.1 -15.41,-25.37 -3.64,-2.1 -9.43,-1.7 -13.74,-1.97 q -0.75,-0.04 -0.31,-0.65 0.7,-0.95 1.57,-1.23 c 6.55,-2.04 12.13,-3.69 8.47,-12.11 q -6.1,-14.04 -12.06,-28.12 -1.95,-4.62 -4.86,-7.27 a 1.96,1.96 0 0 0 -3.07,0.56 q -7.48,14.89 -14.18,29.74 c -2.36,5.22 -5.11,13.34 1.36,16.67 1.76,0.9 4.47,0.74 6.66,1.46 a 0.48,0.48 0 0 1 -0.1,0.93 c -6.99,0.61 -15.18,0.06 -19.41,6.99 z"
       id="path24" />
  </g>
  <g
     id="path3"
     style="fill:#565656;fill-opacity:1;stroke:#ffffff;stroke-width:20;stroke-linecap:round;stroke-linejoin:round;stroke-dasharray:none;stroke-opacity:1;paint-order:markers stroke fill"
     transform="translate(9.234426,10)">
    <path
       style="baseline-shift:baseline;display:inline;overflow:visible;vector-effect:none;fill:#ffffff;stroke:none;enable-background:accumulate;stop-color:#000000;stop-opacity:1"
       d="m 650,-8.5 0.62305,0.019531 c -4.83289,-0.3017616 -9.74308,3.8321285 -10.67578,8.02929692 -0.93271,4.19716838 1.76369,10.02336518 6.26953,11.79687508 l -0.67578,-0.294922 c 3.5192,1.694434 6.43778,5.613955 6.43945,6.783203 0.02,21.775637 0.0293,43.550535 0.0293,65.326172 a 10.001,10.001 0 0 0 0,0.01367 c 0.0111,8.186598 1.37355,16.069347 5.79492,23.505864 9.33783,15.70699 24.68381,25.56711 43.14843,28.09375 2.53927,0.52362 5.87466,-0.0841 8.13868,-1.70508 2.27568,-1.62936 3.52915,-3.82259 4.05664,-6.05664 0.52748,-2.23405 0.38859,-4.75726 -0.91797,-7.23242 -1.30656,-2.47517 -4.03866,-4.52895 -6.55469,-5.18555 l 0.7207,0.2168 c -7.82978,-2.68666 -10.66255,-6.34215 -12.83789,-12.24414 -2.17533,-5.902001 -2.68191,-14.317294 -2.48047,-23.353521 0.0833,-3.682206 0.28221,-3.071273 1.11719,-3.617188 0.83526,-0.546092 3.92757,-1.484433 8.45117,-1.896484 l -0.0254,0.002 c 0.44622,-0.03946 0.84757,-0.06095 1.72852,-0.246094 0.44047,-0.09257 0.95376,-0.151657 2.19336,-0.710937 0.6198,-0.279641 1.46722,-0.645947 2.70703,-1.791016 1.23981,-1.145069 3.13022,-3.69185 3.22461,-7.089844 0.0944,-3.397994 -1.62934,-6.008439 -2.78125,-7.21289 -1.15191,-1.204452 -1.96429,-1.62081 -2.55859,-1.9375 -1.18862,-0.633382 -1.69379,-0.728098 -2.125,-0.84961 -0.85163,-0.239977 -1.24594,-0.289101 -1.68165,-0.357422 l -0.0117,-0.002 -10.24805,-1.638672 c -7.4e-4,-0.05738 -0.02,-0.08485 -0.0215,-0.152343 v -0.0078 c -0.11353,-5.214814 -0.12403,-16.693359 -0.0176,-34.033203 a 10.001,10.001 0 0 0 0,-0.0078 c 0.0137,-2.561598 0.33059,-3.234707 0.72265,-3.890624 0.39206,-0.655918 1.34185,-1.742013 3.86524,-3.482422 a 10.001,10.001 0 0 0 0.01,-0.0059 c 0.5269,-0.3642738 1.1547,-0.746562 2.19727,-1.9628906 1.04257,-1.2163286 3.6455,-4.6106977 1.99609,-9.7421875 -1.6494,-5.1314897 -5.6409,-6.3287037 -7.16797,-6.7246094 C 691.12528,-8.5404369 690.39615,-8.5 689.75977,-8.5 Z m 21.06445,20 h 0.67188 c -0.10747,0.55 -0.11848,1.11345 -0.19531,1.669922 C 671.429,12.583811 671.21613,12.061732 671.06445,11.5 Z m 0.9336,46.095703 c 0.7688,2.613822 1.96804,5.090436 3.55859,7.277344 -1.52234,2.285581 -2.80363,4.800821 -3.55078,7.607422 -7.5e-4,-4.961557 -0.006,-9.92321 -0.008,-14.884766 z m 5.9414,10.134766 c 9.8e-4,9.73e-4 0.003,9.8e-4 0.004,0.002 0.005,0.0052 0.008,0.01239 0.0137,0.01758 z"
       id="path25" />
    <path
       style="baseline-shift:baseline;display:inline;overflow:visible;vector-effect:none;stroke:none;enable-background:accumulate;stop-color:#000000;stop-opacity:1"
       d="m 689.94,2.06 c -6.22,4.29 -8.87,8.08 -8.91,15.55 q -0.16,26.06 0.02,34.32 0.11,4.9 3.96,8.73 0.43,0.43 1.03,0.53 l 13.71,2.19 q 1.46,0.23 -0.01,0.36 c -10.1,0.92 -18.39,3.29 -18.66,15.25 -0.42,18.84 1.32,38.16 22.07,45.28 a 0.37,0.37 0 0 1 -0.17,0.72 q -24.47,-3.05 -36.58,-23.42 c -3.49,-5.87 -4.38,-11.02 -4.39,-18.41 q 0,-32.67 -0.03,-65.34 C 661.97,10.81 655.82,4.9 649.88,2.04 A 0.28,0.28 0 0 1 650,1.5 h 39.76 q 0.99,0 0.18,0.56 z"
       id="path26" />
  </g>
  <g
     id="path4"
     style="fill:#565656;fill-opacity:1;stroke:#ffffff;stroke-width:20;stroke-linecap:round;stroke-linejoin:round;stroke-dasharray:none;stroke-opacity:1;paint-order:markers stroke fill"
     transform="translate(9.234426,10)">
    <path
       style="baseline-shift:baseline;display:inline;overflow:visible;vector-effect:none;fill:#ffffff;stroke:none;enable-background:accumulate;stop-color:#000000;stop-opacity:1"
       d="m 714.99023,-8.5 a 10.001,10.001 0 0 0 -0.4707,0.011719 c -4.69048,0.220479 -8.96891,4.4541021 -9.65625,8.57812505 -0.68734,4.12402295 1.98808,9.51629625 6.35352,11.24609395 a 10.001,10.001 0 0 0 0.54297,0.199218 c 16.86845,5.578194 28.61209,14.862186 34.11718,30.96875 l -0.42578,-1.75 c 0.37585,2.505678 2.13858,5.442436 4.4707,6.962891 2.33213,1.520455 4.793,1.860739 7.01563,1.527344 2.22263,-0.333395 4.47833,-1.381755 6.26172,-3.519532 1.78339,-2.137776 2.60632,-5.463071 2.23047,-7.96875 l 0.10937,1.46875 -0.0586,-37.2343743 C 765.48047,-3.6847863 760.66526,-8.5 754.99023,-8.5 Z m 3.04883,1.0449219 0.54492,0.1992187 c 0.0114,0.00454 0.0198,0.01494 0.0312,0.019531 -0.19513,-0.065939 -0.38054,-0.1540588 -0.57617,-0.21875 z"
       id="path27" />
    <path
       style="baseline-shift:baseline;display:inline;overflow:visible;vector-effect:none;stroke:none;enable-background:accumulate;stop-color:#000000;stop-opacity:1"
       d="M 755.34,39.27 C 748.74,19.96 733.8,8.29 714.9,2.04 a 0.28,0.28 0 0 1 0.09,-0.54 h 40 a 0.49,0.49 0 0 1 0.49,0.49 l 0.06,37.25 a 0.10111874,0.10111874 0 0 1 -0.2,0.03 z"
       id="path28" />
  </g>
  <g
     id="path5"
     style="fill:#565656;fill-opacity:1;stroke:#ffffff;stroke-width:20;stroke-linecap:round;stroke-linejoin:round;stroke-dasharray:none;stroke-opacity:1;paint-order:markers stroke fill"
     transform="translate(9.234426,10)">
    <path
       style="baseline-shift:baseline;display:inline;overflow:visible;vector-effect:none;fill:#ffffff;stroke:none;enable-background:accumulate;stop-color:#000000;stop-opacity:1"
       d="m 860.49023,-8.5 c -0.57397,0 -1.19622,-0.041489 -2.60546,0.2773437 -0.70463,0.1594165 -1.64679,0.3685558 -3.0918,1.2460938 -1.44501,0.877538 -3.71069,2.9224309 -4.5332,6.0859375 -0.82252,3.1635066 0.16679,6.0736462 1.01171,7.5507812 0.84493,1.4771351 1.57422,2.1176783 2.11719,2.5996094 1.08595,0.9638624 1.65232,1.2270184 2.15625,1.5039064 l -0.0625,-0.03516 c 2.23842,1.250883 2.99803,1.947508 2.97266,1.894531 -0.012,0.08494 -0.0263,0.09605 -0.0254,0.642578 a 10.001,10.001 0 0 0 0,0.0039 c 0.06,32.164354 0.0774,64.327834 0.0508,96.492189 a 10.001,10.001 0 0 0 0,0.008 c 0,3.30517 -0.39527,5.16754 -0.61914,5.67969 -0.22387,0.51214 0.1122,0.4489 -1.66797,1.26953 l 0.23633,-0.10547 c -4.39255,1.88874 -6.90263,7.65506 -5.91407,11.78906 0.98857,4.13401 5.83562,8.14063 10.60743,7.83789 l -0.45899,0.0176 33.24219,-0.58008 c 0.58216,-0.008 1.26502,0.0259 2.74609,-0.3789 1.48743,-0.40656 5.44396,-1.62256 7.03125,-6.78125 1.58729,-5.15869 -1.08135,-8.51645 -2.12695,-9.69531 -1.0456,-1.17887 -1.64786,-1.52631 -2.13867,-1.85352 l 0.0606,0.041 c -2.44887,-1.65869 -2.79883,-2.24987 -2.79883,-5.5 0.0333,-31.417509 0.0601,-62.828251 0.0801,-94.232426 a 10.001,10.001 0 0 0 0,-0.0078 c 0,-2.894471 1.75271,-5.88506 2.25,-6.117187 a 10.001,10.001 0 0 0 0.0605,-0.0293 c 4.2199,-2.0045081 6.54004,-7.4670467 5.64453,-11.53125013 C 903.81934,-4.4724066 899.41962,-8.4546298 894.74805,-8.5 a 10.001,10.001 0 0 0 -0.0977,0 z m 30.06055,1.5292969 c -0.0392,0.0183 -0.0684,0.044045 -0.10742,0.0625 0.0176,-0.00853 0.0292,-0.026758 0.0469,-0.035156 z"
       id="path29" />
    <path
       style="baseline-shift:baseline;display:inline;overflow:visible;vector-effect:none;stroke:none;enable-background:accumulate;stop-color:#000000;stop-opacity:1"
       d="m 894.78,2.09 c -5.57,2.6 -8.02,9.44 -8.02,15.18 q -0.03,47.11 -0.08,94.24 0,8.91 7.19,13.78 0.57,0.38 -0.12,0.39 l -33.26,0.58 a 0.24,0.24 0 0 1 -0.11,-0.46 c 6.92,-3.19 8.1,-8.39 8.1,-16.03 q 0.04,-48.26 -0.05,-96.52 C 868.42,7 865.46,4.85 860.36,2 q -0.91,-0.5 0.13,-0.5 h 34.16 a 0.31,0.31 0 0 1 0.13,0.59 z"
       id="path30" />
  </g>
  <g
     id="path6"
     style="fill:#565656;fill-opacity:1;stroke:#ffffff;stroke-width:20;stroke-linecap:round;stroke-linejoin:round;stroke-dasharray:none;stroke-opacity:1;paint-order:markers stroke fill"
     transform="translate(9.234426,10)">
    <path
       style="baseline-shift:baseline;display:inline;overflow:visible;vector-effect:none;fill:#ffffff;stroke:none;enable-background:accumulate;stop-color:#000000;stop-opacity:1"
       d="m 943.81055,-8.5 c -4.72449,0 -9.23603,4.125432 -10.06055,8.24804687 -0.82452,4.12261493 1.75221,9.66531013 6.11328,11.48242213 a 10.001,10.001 0 0 0 0.0879,0.03711 c 3.00483,1.218908 2.60938,0.596252 2.60938,3.982422 -0.007,30.720953 -0.0365,61.441156 -0.0899,92.162109 a 10.001,10.001 0 0 0 0,0.006 c -0.005,3.96168 -0.3794,6.33054 -0.7539,7.27344 -0.3745,0.94289 -0.36426,1.20821 -2.60743,2.43554 a 10.001,10.001 0 0 0 -0.0898,0.0508 c -0.45028,0.25243 -0.96724,0.49086 -2.01367,1.42579 -0.52321,0.46746 -1.23584,1.0868 -2.08008,2.56836 -0.84424,1.48155 -1.86582,4.49209 -0.93555,7.74804 0.93027,3.25595 3.33558,5.22227 4.79688,6.0332 1.4613,0.81094 2.37395,0.97363 3.05273,1.10352 1.35758,0.25978 1.92067,0.20295 2.4336,0.18945 l 33.125,-0.55664 a 10.001,10.001 0 0 0 0.0449,-0.002 c 0.62384,-0.0133 1.4061,0.0156 2.99414,-0.48828 1.58804,-0.5039 5.16634,-2.16916 6.57031,-6.52149 1.40398,-4.35232 -0.44183,-7.605 -1.36523,-8.91796 -0.9234,-1.31297 -1.53921,-1.76179 -2.01367,-2.14649 a 10.001,10.001 0 0 0 -0.0762,-0.0606 c -2.39948,-1.90744 -2.15643,-1.86308 -2.4707,-3.45898 -0.3141,-1.59507 -0.25597,-5.39767 -0.29297,-11.16211 v -0.006 C 980.62239,74.657931 980.44334,46.382741 980.25,18.101562 a 10.001,10.001 0 0 0 0,-0.0059 c -0.0337,-4.571245 0.37298,-5.657048 3.58789,-7.875 l -0.0508,0.03711 c 0.5072,-0.345177 1.11648,-0.7085437 2.15039,-1.8867192 1.03391,-1.1781756 3.70388,-4.46069 2.10742,-9.6757813 -1.59645,-5.2150913 -5.66742,-6.4491481 -7.18945,-6.84375 C 979.33343,-8.5430394 978.62411,-8.5 978.00977,-8.5 Z m 3.6582,1.2324219 0.0879,0.037109 c 0.0152,0.00633 0.0259,0.020916 0.041,0.027344 -0.0444,-0.018377 -0.0843,-0.046378 -0.12891,-0.064453 z M 970.92383,133.0332 c 0.0661,0.0536 0.11694,0.12085 0.18359,0.17383 l -0.0762,-0.0586 c -0.0215,-0.0174 -0.0845,-0.097 -0.10742,-0.11524 z m -21.94141,1.45899 c -0.0316,0.0166 -0.15434,0.11555 -0.18164,0.13086 l -0.0918,0.0488 c 0.0961,-0.0526 0.17797,-0.12595 0.27344,-0.17968 z"
       id="path31" />
    <path
       style="baseline-shift:baseline;display:inline;overflow:visible;vector-effect:none;stroke:none;enable-background:accumulate;stop-color:#000000;stop-opacity:1"
       d="m 978.16,1.99 c -5.74,3.96 -7.96,9.39 -7.91,16.18 q 0.29,42.42 0.54,84.82 c 0.07,10.88 -0.97,16.42 6.54,22.39 q 0.37,0.3 -0.1,0.31 l -33.22,0.56 q -0.76,0.02 -0.1,-0.35 c 7.53,-4.12 8.55,-9.77 8.56,-18.47 q 0.08,-46.09 0.09,-92.18 0,-9.66 -8.85,-13.25 a 0.26,0.26 0 0 1 0.1,-0.5 h 34.2 q 0.87,0 0.15,0.49 z"
       id="path32" />
  </g>
  <g
     id="path7"
     style="fill:#565656;fill-opacity:1;stroke:#ffffff;stroke-width:20;stroke-linecap:round;stroke-linejoin:round;stroke-dasharray:none;stroke-opacity:1;paint-order:markers stroke fill"
     transform="translate(9.234426,10)">
    <path
       style="baseline-shift:baseline;display:inline;overflow:visible;vector-effect:none;fill:#ffffff;stroke:none;enable-background:accumulate;stop-color:#000000;stop-opacity:1"
       d="m 1028.0098,-8.5 c -0.5366,0 -1.0953,-0.039201 -2.418,0.2324219 -0.6613,0.1358112 -1.5402,0.2922481 -3.0195,1.1289062 -1.4793,0.8366582 -4.104,2.9923644 -4.8946,6.62890628 -0.7905,3.63654182 0.6784,6.63287052 1.6504,7.99609372 0.9721,1.3632233 1.6901,1.8705605 2.2246,2.2714844 1.0692,0.8018475 1.5891,1.0091195 2.0723,1.2382815 a 10.001,10.001 0 0 0 0.027,0.01172 c 2.4967,1.174721 2.2412,0.673925 2.2481,3.824218 a 10.001,10.001 0 0 0 0,0.0078 c 0.1,32.604327 0.1236,65.216311 0.07,97.833988 -0.01,2.99847 0.093,2.86259 -2.6758,4.29492 a 10.001,10.001 0 0 0 -0.094,0.0488 c -0.4671,0.24794 -0.9876,0.47787 -2.045,1.36719 -0.5286,0.44465 -1.2462,1.02364 -2.1406,2.47265 -0.8943,1.44902 -2.076,4.4941 -1.1621,7.90039 0.9139,3.40629 3.4197,5.41602 4.8906,6.22266 1.471,0.80664 2.3677,0.95854 3.0391,1.08594 1.3386,0.25398 1.9006,0.20307 2.4258,0.1914 0,-3e-5 0.01,4e-5 0.01,0 l 32.2422,-0.58008 a 10.001,10.001 0 0 0 0.029,0 c 0.6855,-0.0143 1.4995,0.007 3.0957,-0.48242 1.5962,-0.4894 5.2462,-2.04144 6.7285,-6.5625 1.4823,-4.52105 -0.5263,-7.90196 -1.5117,-9.23828 -0.9855,-1.33632 -1.6492,-1.80521 -2.1895,-2.22461 l 0.043,0.0332 c -2.8558,-2.24173 -2.3848,-1.33272 -2.3848,-6.30274 a 10.001,10.001 0 0 0 0,-0.01 c -0.027,-31.641758 -0.03,-63.282084 -0.01,-94.923835 a 10.001,10.001 0 0 0 0,-0.0059 c 0,-1.383482 1.6975,-4.717921 2.7539,-5.384766 0.5385,-0.338684 1.1572,-0.6787726 2.2363,-1.8007814 0.5395,-0.5610044 1.2495,-1.3239255 1.957,-2.8652344 0.7075,-1.5413088 1.3392,-4.2902489 0.5137,-7.0878906 -0.8255,-2.7976416 -2.8233,-4.7358239 -4.2305,-5.6425781 -1.4072,-0.9067542 -2.4005,-1.1675984 -3.1484,-1.3515625 C 1062.846,-8.5398031 1062.1435,-8.5 1061.5098,-8.5 Z m 4.1582,1.4121094 0.027,0.011719 c 0.011,0.00501 0.078,0.04954 0.09,0.054687 -0.041,-0.019389 -0.077,-0.047278 -0.1172,-0.066406 z m 2.0058,140.6093706 c -0.036,0.03 -0.1109,0.13973 -0.1445,0.16797 -0.9315,0.78348 -1.2541,0.88758 -1.4512,0.99219 l -0.094,0.0508 c 0.6159,-0.31867 1.1045,-0.83732 1.6894,-1.21094 z"
       id="path33" />
    <path
       style="baseline-shift:baseline;display:inline;overflow:visible;vector-effect:none;stroke:none;enable-background:accumulate;stop-color:#000000;stop-opacity:1"
       d="m 1061.69,2.11 c -4.64,2.92 -7.43,8.79 -7.43,13.85 q -0.03,47.47 0.01,94.94 c 0,6.44 1.42,10.41 6.21,14.17 q 0.76,0.59 -0.2,0.61 l -32.28,0.58 q -0.92,0.02 -0.11,-0.41 8.06,-4.17 8.08,-13.16 0.08,-48.95 -0.07,-97.88 -0.02,-9.1 -7.99,-12.85 -0.97,-0.46 0.1,-0.46 h 33.5 q 1.15,0 0.18,0.61 z"
       id="path34" />
  </g>
  <g
     id="path8"
     style="fill:#565656;fill-opacity:1;stroke:#ffffff;stroke-width:20;stroke-linecap:round;stroke-linejoin:round;stroke-dasharray:none;stroke-opacity:1;paint-order:markers stroke fill"
     transform="translate(9.234426,10)">
    <path
       style="baseline-shift:baseline;display:inline;overflow:visible;vector-effect:none;fill:#ffffff;stroke:none;enable-background:accumulate;stop-color:#000000;stop-opacity:1"
       d="m 490.99023,-7.75 c -0.66575,0 -1.45042,-0.037895 -3.02734,0.3984375 -1.57692,0.4363326 -5.30389,1.8167839 -6.92383,6.43359375 -1.61993,4.61680985 0.45765,8.08747665 1.43946,9.41992185 0.9818,1.3324453 1.62868,1.7872819 2.15625,2.1992189 l -0.0508,-0.04102 c 2.08932,1.653895 2.16344,2.050117 2.16602,3.84375 0.0133,32.498625 0.004,64.991273 -0.0293,97.476568 -0.003,2.81832 0.33739,2.4187 -2.71679,3.82226 l 0.0293,-0.0117 c -0.44678,0.20359 -0.93381,0.3814 -1.98828,1.14062 -0.52723,0.37961 -1.24172,0.85787 -2.24609,2.20703 -1.00438,1.34916 -2.59182,4.42957 -1.75586,8.19141 0.83596,3.76183 3.54773,5.85096 5.00976,6.64844 1.46204,0.79747 2.30254,0.93338 2.93555,1.05859 1.26602,0.25042 1.78166,0.21289 2.27149,0.21289 h 33.5 c 0.61157,0 1.3872,0.0372 2.93945,-0.41406 1.55225,-0.45124 4.93005,-1.85735 6.56055,-5.9336 1.6305,-4.07625 0.0973,-7.59538 -0.77735,-9.02148 -0.87467,-1.4261 -1.49711,-1.92397 -1.96289,-2.33984 a 10.001,10.001 0 0 0 -0.10547,-0.0937 c -2.25383,-1.95571 -2.50737,-2.52575 -2.6875,-2.98047 -0.18012,-0.45473 -0.47656,-1.85164 -0.47656,-5.41602 V 85.140625 a 10.001,10.001 0 0 0 0,-0.0098 c -0.004,-4.030211 0.79254,-6.58578 1.75,-8.033203 0.95746,-1.447422 2.08031,-2.505949 5.69922,-3.373047 l -0.18164,0.04297 c 4.65643,-1.023933 8.19465,-5.855185 8.27539,-10.09375 0.0807,-4.238565 -3.2707,-9.20183 -7.88477,-10.402344 l 0.28125,0.07813 c -3.92413,-1.144538 -7.33764,-4.156026 -7.21484,-3.822265 a 10.001,10.001 0 0 0 -0.006,-0.01758 c 0.4768,1.288155 -0.21861,-1.330132 -0.21861,-5.048799 a 10.001,10.001 0 0 0 0,-0.0078 c -0.007,-8.991949 -0.004,-17.967215 0.01,-26.925781 v -0.002 c 0.007,-3.444561 1.34154,-5.84174 1.73632,-6.064453 2.6e-4,-1.42e-4 0.002,-0.0018 0.002,-0.002 0.49545,-0.276338 1.0564,-0.542368 2.12695,-1.505859 0.53639,-0.4827524 1.25516,-1.1267546 2.08203,-2.5859375 0.82687,-1.4591829 1.79542,-4.2948827 1.01367,-7.421875 -0.78174,-3.1269923 -3.0171,-5.2227629 -4.4707,-6.125 -1.4536,-0.9022371 -2.41304,-1.1204074 -3.12695,-1.2851562 C 523.69522,-7.7943414 523.0715,-7.75 522.5,-7.75 Z m 15.74805,62.105469 c 0.1842,0.701563 0.18814,1.321349 0.4707,2.085937 1.16426,3.160847 2.83505,5.620735 4.74024,7.650391 -0.54312,0.659115 -1.16228,1.264289 -1.63086,1.972656 -1.68049,2.540439 -2.78904,5.26754 -3.58594,8.064453 0.003,-6.59089 0.005,-13.181999 0.006,-19.773437 z m 8.36524,77.990231 c 0.0728,0.0639 0.13003,0.14361 0.20312,0.20703 l -0.10742,-0.0937 c -0.02,-0.0179 -0.0746,-0.0947 -0.0957,-0.11328 z"
       id="path35" />
    <path
       style="baseline-shift:baseline;display:inline;overflow:visible;vector-effect:none;stroke:none;enable-background:accumulate;stop-color:#000000;stop-opacity:1"
       d="m 522.62,2.73 c -5.1,2.85 -6.85,9.24 -6.86,14.78 q -0.02,13.45 -0.01,26.95 0,6.25 0.84,8.52 c 1.95,5.3 8.52,8.43 13.8,9.97 A 0.54,0.54 0 0 1 530.37,64 c -11.06,2.65 -15.13,10.52 -15.12,21.14 q 0,11.96 0,23.91 c 0,7.92 0.94,11.03 6.61,15.95 q 0.28,0.25 -0.1,0.25 h -33.5 q -0.87,0 -0.08,-0.36 8.53,-3.92 8.54,-12.9 0.05,-48.74 0.03,-97.5 -0.01,-6.96 -5.96,-11.67 -0.73,-0.57 0.2,-0.57 h 31.51 q 0.98,0 0.12,0.48 z"
       id="path36" />
  </g>
  <g
     id="path9"
     style="fill:#565656;fill-opacity:1;stroke:#ffffff;stroke-width:20;stroke-linecap:round;stroke-linejoin:round;stroke-dasharray:none;stroke-opacity:1;paint-order:markers stroke fill"
     transform="translate(9.234426,10)">
    <path
       style="baseline-shift:baseline;display:inline;overflow:visible;vector-effect:none;fill:#ffffff;stroke:none;enable-background:accumulate;stop-color:#000000;stop-opacity:1"
       d="m 174,-7.25 c -0.67108,0 -1.47635,-0.039682 -3.07813,0.4179688 -1.60177,0.457651 -5.26265,1.949202 -6.82812,6.39843745 -1.56547,4.44923545 0.33475,7.85485815 1.2793,9.20898435 0.94454,1.3541264 1.58837,1.8308294 2.10547,2.2539064 a 10.001,10.001 0 0 0 0.0391,0.0332 c 0.72805,0.589379 0.49219,-0.0012 0.49219,1.1875 a 10.001,10.001 0 0 0 0,0.0059 c 0.0133,23.240931 0.007,46.484822 -0.0195,69.732422 -0.0156,13.389206 4.12016,25.844481 12.20508,35.906251 a 10.001,10.001 0 0 0 0.002,0.002 c 10.1758,12.65361 24.23833,17.86038 39.07812,18.61133 a 10.001,10.001 0 0 0 1.62695,-0.0508 c 4.35949,-0.49269 8.12146,-4.40182 8.80469,-8.27344 0.68323,-3.87161 -1.51389,-8.83005 -5.44141,-10.78515 a 10.001,10.001 0 0 0 -1.5371,-0.61328 c -5.60916,-1.71127 -9.1879,-4.35252 -12.05079,-8.54493 a 10.001,10.001 0 0 0 -0.008,-0.0117 c -1.97414,-2.88146 -3.16015,-8.962423 -3.16015,-14.978522 a 10.001,10.001 0 0 0 0,-0.002 C 207.5031,67.008894 207.5,40.759154 207.5,14.5 c 0,-3.502957 -1.12578,-1.286202 1.24023,-2.869141 a 10.001,10.001 0 0 0 0.01,-0.0059 c 0.52585,-0.352632 1.14589,-0.718202 2.19141,-1.8867187 1.04551,-1.168517 3.78283,-4.40644 2.20312,-9.70312505 C 211.56482,-5.2615288 207.43351,-6.5030179 205.90039,-6.8984375 204.36727,-7.2938571 203.64545,-7.25 203.00977,-7.25 Z m 23.61133,2.2636719 c -0.59988,0.401817 -1.07688,1.0042984 -1.63477,1.4824218 0.0146,-0.016403 0.0448,-0.078297 0.0586,-0.09375 0.91801,-1.0260169 1.33365,-1.2260398 1.57617,-1.3886718 z m -17.50977,0.5039062 0.041,0.033203 c 0.0294,0.024054 0.12883,0.149422 0.16211,0.1757812 -0.0741,-0.061935 -0.12814,-0.1482796 -0.20313,-0.2089844 z"
       id="path37" />
    <path
       style="baseline-shift:baseline;display:inline;overflow:visible;vector-effect:none;stroke:none;enable-background:accumulate;stop-color:#000000;stop-opacity:1"
       d="m 219.81,126.35 a 0.09,0.09 0 0 1 -0.03,0.17 c -13.24,-0.67 -23.33,-4.37 -31.79,-14.89 q -10.02,-12.47 -10,-29.63 0.04,-34.88 0.02,-69.75 0,-5.56 -4.2,-8.96 -0.66,-0.54 0.19,-0.54 h 29.01 q 1.02,0 0.17,0.57 c -4.23,2.83 -5.68,5.86 -5.68,11.18 q 0,39.39 0.01,78.75 c 0,6.93 0.95,14.85 4.91,20.63 q 6.18,9.05 17.39,12.47 z"
       id="path38" />
  </g>
  <g
     id="path10"
     style="fill:#565656;fill-opacity:1;stroke:#ffffff;stroke-width:20;stroke-linecap:round;stroke-linejoin:round;stroke-dasharray:none;stroke-opacity:1;paint-order:markers stroke fill"
     transform="translate(9.234426,10)">
    <path
       style="baseline-shift:baseline;display:inline;overflow:visible;vector-effect:none;fill:#ffffff;stroke:none;enable-background:accumulate;stop-color:#000000;stop-opacity:1"
       d="m 257.5,-7.25 c -0.66659,0 -1.46269,-0.039936 -3.05469,0.4101563 -1.59199,0.4500924 -5.27176,1.9052 -6.85547,6.40624995 -1.5837,4.50104995 0.37014,7.92862195 1.32618,9.27539065 0.95604,1.3467691 1.60056,1.8164181 2.11914,2.2343751 0.98652,0.798847 0.97668,0.896709 1.24609,1.908203 0.27104,1.017624 0.42487,3.075919 0.42969,6.03125 a 10.001,10.001 0 0 0 0,0.0039 c 0.0533,26.043653 0.0152,52.081032 -0.11133,78.111328 a 10.001,10.001 0 0 0 0,0.002 c -0.0513,10.918247 -5.3054,17.383877 -15.86133,20.193357 a 10.001,10.001 0 0 0 -0.0879,0.0234 c -0.23563,0.065 -0.47709,0.11216 -1.19141,0.40039 -0.35715,0.14412 -0.79701,0.27162 -1.86523,0.99023 -0.53411,0.35931 -1.27203,0.8302 -2.29102,2.12891 -0.25474,0.32468 -0.79273,1.17147 -0.79296,1.17188 -2.4e-4,4e-4 -0.76549,1.65585 -0.76563,1.65625 -2.8e-4,7.8e-4 -0.47667,4.76294 -0.47656,4.76367 1e-4,7.3e-4 1.81592,4.47394 1.8164,4.47461 2.5e-4,3.3e-4 1.22623,1.39225 1.22657,1.39257 3.4e-4,3.3e-4 0.77289,0.66864 1.11718,0.91016 1.37718,0.96608 2.23795,1.20203 2.86329,1.39063 1.25067,0.37718 1.71264,0.36476 2.0996,0.39648 0.7308,0.0599 0.95855,0.0367 1.19141,0.0273 14.56297,-0.33855 26.49725,-4.82069 37.30859,-14.95703 a 10.001,10.001 0 0 0 0.002,-0.004 c 13.45515,-12.62414 15.24464,-28.516241 15.33789,-43.275393 v -0.0039 c 0.12652,-18.956445 0.31534,-37.909607 0.56836,-56.859375 a 10.001,10.001 0 0 0 0,-0.0039 c 0.0596,-4.625066 -0.37884,-7.946698 -0.25391,-9.302735 0.12366,-1.342142 -0.52344,-0.368104 0.57617,-1.123046 0.52094,-0.359565 1.13728,-0.736439 2.16211,-1.9238286 1.03121,-1.1947759 3.63403,-4.4577545 2.06836,-9.6152344 -1.56566,-5.1574799 -5.6339,-6.4641759 -7.18164,-6.8710937 C 288.62218,-7.2936366 287.88952,-7.25 287.25,-7.25 Z m 14.9082,20 h 0.19922 c -0.0175,0.494409 -0.0177,0.934394 -0.0176,1.396484 -0.028,-0.44579 -0.13606,-0.934915 -0.18164,-1.396484 z m 0.30078,7.285156 c 0.0304,0.521431 0.0974,1.219076 0.0918,1.65625 -0.0485,3.636002 -0.0655,7.273911 -0.10937,10.910156 -0.004,-4.189553 0.0258,-8.376509 0.0176,-12.566406 z M 243.05664,136.23828 c -0.0217,0.008 -0.0924,0.0521 -0.11328,0.0606 -0.66681,0.26906 -0.83565,0.2937 -0.97461,0.33203 l -0.0859,0.0234 c 0.40707,-0.10835 0.77223,-0.29644 1.17383,-0.41602 z"
       id="path39" />
    <path
       style="baseline-shift:baseline;display:inline;overflow:visible;vector-effect:none;stroke:none;enable-background:accumulate;stop-color:#000000;stop-opacity:1"
       d="m 282.8,21.82 q -0.38,28.46 -0.57,56.93 c -0.09,14.29 -1.17,25.72 -12.18,36.05 -9.61,9.01 -17.55,11.96 -30.73,12.26 q -0.3,0.01 -0.01,-0.07 c 14.24,-3.79 23.22,-14.9 23.29,-29.81 Q 262.79,58.1 262.71,19 C 262.7,12.86 262.48,7.47 257.31,3.29 q -0.67,-0.54 0.19,-0.54 h 29.75 q 0.98,0 0.17,0.56 c -6.82,4.75 -4.53,11.53 -4.62,18.51 z"
       id="path40" />
  </g>
  <g
     id="path11"
     style="fill:#565656;fill-opacity:1;stroke:#ffffff;stroke-width:20;stroke-linecap:round;stroke-linejoin:round;stroke-dasharray:none;stroke-opacity:1;paint-order:markers stroke fill"
     transform="translate(9.234426,10)">
    <path
       style="baseline-shift:baseline;display:inline;overflow:visible;vector-effect:none;fill:#ffffff;stroke:none;enable-background:accumulate;stop-color:#000000;stop-opacity:1"
       d="m 89.402344,-5.6484375 c -1.462412,-0.1559219 -2.97842,-0.040645 -4.304688,0.40625 -2.652535,0.8937896 -4.457547,2.6254154 -5.580078,4.58984375 -1.12253,1.96442835 -1.699684,4.39964085 -1.123047,7.13867185 0.576638,2.739031 2.687022,5.4595479 4.904297,6.7265629 l -0.748047,-0.472657 c 17.723139,12.325719 28.301899,31.255051 23.673829,51.757813 a 10.001,10.001 0 0 0 0,0.002 c -3.11648,13.813413 -12.407203,23.991525 -25.146485,29.378906 0.0053,-0.08024 -0.0038,-0.17239 0.002,-0.251953 0.13846,-1.913793 0.471972,-3.332494 0.679688,-4 2.914786,-2.133956 4.746347,-5.780418 4.552734,-9.023437 -0.240536,-4.028983 -3.592572,-8.443265 -7.990234,-9.464844 a 10.001,10.001 0 0 0 -0.298829,-0.06445 C 68.287816,69.124047 58.407272,69.055334 48.652344,70.869141 a 10.001,10.001 0 0 0 -0.369141,0.07617 c -4.557946,1.02663 -8.024532,5.795354 -8.083984,9.957032 -0.0427,2.988744 1.703123,6.296125 4.34375,8.376953 0.0069,1.338833 -0.0252,2.720035 -0.02734,4.068359 C 28.501861,86.125466 18.748216,72.943214 19.019531,53.927734 v -0.002 c 10e-6,-6.79e-4 -9e-6,-0.0013 0,-0.002 0.237503,-15.94664 9.197201,-30.349879 22.886719,-40.113281 l -0.06445,0.04687 c 0.31543,-0.221164 0.616711,-0.411849 1.271484,-1.001953 0.327387,-0.295052 0.74197,-0.607654 1.525391,-1.708985 C 45.030382,10.595819 45.5708,9.8525969 46.056641,8.2871094 46.542482,6.7216219 46.911374,3.7563422 45.449219,0.83203125 43.987063,-2.0922797 41.274468,-3.6526514 39.652344,-4.1933594 38.03022,-4.7340673 37.073795,-4.714957 36.375,-4.7089844 c -1.39759,0.011945 -1.895819,0.1832493 -2.332031,0.2871094 -0.872425,0.2077203 -1.202382,0.3490554 -1.564453,0.484375 a 10.001,10.001 0 0 0 -0.05859,0.023437 C 6.9889963,5.7739092 -5.4388756,29.701443 -8.5957031,53.726562 h 0.00195 C -13.429371,90.488008 9.6300191,124.6489 44.425778,135.17773 c -0.01454,3.89375 0.147504,8.09007 1.300781,12.88868 2.875617,11.9929 5.622826,24.03895 8.240235,36.13867 a 10.001,10.001 0 0 0 0.0098,0.0449 c 0.114258,0.51627 0.196012,1.03969 0.6875,2.19922 0.245745,0.57976 0.5294,1.34337 1.591797,2.61719 1.062398,1.27382 3.759097,3.71434 7.945313,3.6289 4.186216,-0.0854 6.781474,-2.63507 7.791015,-3.95117 1.009542,-1.3161 1.260537,-2.08842 1.482422,-2.67773 0.442948,-1.17644 0.504847,-1.7031 0.597657,-2.22266 2.43e-4,-0.001 0.0017,-0.003 0.002,-0.004 1.977638,-10.92676 3.108976,-22.76483 5.59375,-32.4707 a 10.001,10.001 0 0 0 0.002,-0.006 c 1.507684,-5.90439 1.673502,-11.18418 1.636719,-16.16406 C 129.89254,121.60018 150.7172,63.563771 123.29102,20.029297 a 10.001,10.001 0 0 0 0,-0.002 C 115.68776,7.9628717 104.48848,-0.03260767 92.173828,-5.0195312 l 1.207031,0.5878906 c -1.108637,-0.6335073 -2.516103,-1.060875 -3.978515,-1.2167969 z m -36.716797,77.2968745 0.259765,0.0625 c 0.201168,0.05139 0.364362,0.200313 0.560547,0.267579 -0.27203,-0.07787 -0.553656,-0.269505 -0.820312,-0.330079 z m 20.316406,0.394532 c -0.29823,0.09718 -0.509687,0.279601 -0.792969,0.392578 0.17266,-0.0768 0.308294,-0.222623 0.486328,-0.28711 z M 62.912109,112.03711 c 0.590051,1.01129 1.326507,2.01849 2.445313,2.88867 2.319525,1.80408 4.694996,2.053 6.585937,1.99024 -0.615669,0.12451 -1.185762,0.31903 -1.8125,0.42578 a 10.001,10.001 0 0 0 -0.01953,0.004 c -1.793094,0.30916 -4.46809,1.34752 -6.398437,3.65039 -0.419027,0.4999 -0.556585,1.06485 -0.855469,1.60352 -0.280957,-0.49913 -0.409528,-1.02136 -0.794922,-1.48828 -1.839375,-2.22848 -4.43285,-3.31942 -6.214844,-3.66211 -0.647923,-0.12536 -1.264094,-0.31686 -1.902344,-0.46289 1.919676,0.0525 4.194935,-0.21008 6.507813,-2.02735 1.137669,-0.89388 1.872557,-1.90495 2.458984,-2.92187 z m 10.751953,4.86719 c 0.0066,-0.001 0.02076,10e-4 0.02734,0 l -0.07227,0.0117 c 0.01534,-0.003 0.02958,-0.009 0.04492,-0.0117 z"
       id="path41" />
    <path
       style="baseline-shift:baseline;display:inline;overflow:visible;vector-effect:none;stroke:none;enable-background:accumulate;stop-color:#000000;stop-opacity:1"
       d="M 71.82,107.08 C 93.57,103.1 111.1,88.33 115.98,66.7 121.63,41.67 108.52,18.62 88.26,4.53 a 0.16124515,0.16124515 0 0 1 0.16,-0.28 c 10.89,4.41 20.07,11.05 26.41,21.11 25.42,40.35 4.42,93.76 -43.02,101.84 q -0.58,0.1 -0.57,0.68 c 0.08,7.11 0.53,14 -1.26,21.01 -2.77,10.82 -3.89,22.92 -5.75,33.19 q -0.22,1.23 -0.49,0.01 -3.95,-18.26 -8.29,-36.36 c -1.43,-5.95 -0.91,-11.77 -0.97,-17.83 q 0,-0.53 -0.52,-0.63 C 19.97,120.7 -3.18,89.24 1.32,55.03 4.17,33.34 14.56,13.59 35.98,5.43 Q 36.97,5.06 36.1,5.67 C 20.27,16.96 9.31,34.19 9.02,53.78 c -0.4,27.89 18.49,47.07 44.84,53.36 q 0.55,0.13 0.56,-0.44 0.23,-10.12 0.14,-19.92 -0.04,-4.46 -4.09,-5.38 a 0.36,0.36 0 0 1 0.01,-0.7 q 12.8,-2.38 25.58,0.18 a 0.35,0.35 0 0 1 0.04,0.67 c -6.69,2.18 -5.05,19.71 -4.73,25.18 q 0.03,0.43 0.45,0.35 z"
       id="path42" />
  </g>
  <g
     id="path12"
     style="fill:#565656;fill-opacity:1;stroke:#ffffff;stroke-width:20;stroke-linecap:round;stroke-linejoin:round;stroke-dasharray:none;stroke-opacity:1;paint-order:markers stroke fill"
     transform="translate(9.234426,10)">
    <path
       style="baseline-shift:baseline;display:inline;overflow:visible;vector-effect:none;fill:#ffffff;stroke:none;enable-background:accumulate;stop-color:#000000;stop-opacity:1"
       d="m 760.50586,72.591797 c -3.28848,0.413215 -6.63613,2.390696 -8.2207,5.458984 a 10.001,10.001 0 0 0 -0.12891,0.257813 c -7.64133,15.903753 -19.8598,32.874356 -33.5625,37.193356 l 0.58008,-0.16406 c -0.20356,0.0509 -0.42449,0.0886 -1.11524,0.34766 -0.34537,0.12951 -0.77888,0.25047 -1.79687,0.88672 -0.2545,0.15906 -0.90789,0.64037 -0.9082,0.64062 -3.2e-4,2.5e-4 -1.26737,1.19703 -1.26758,1.19727 -2.1e-4,2.3e-4 -1.57412,2.38649 -1.57422,2.38672 -1.1e-4,2.2e-4 -0.95117,4.2576 -0.95117,4.25781 0,2.1e-4 1.17567,4.70683 1.17578,4.70703 1e-4,1.9e-4 2.23807,2.82013 2.23828,2.82031 2.1e-4,1.8e-4 1.82391,1.26741 1.82422,1.26758 3.1e-4,1.7e-4 0.9095,0.44189 1.25195,0.57031 1.36982,0.51368 1.86888,0.5112 2.2793,0.5625 0.80693,0.10087 1.02976,0.0769 1.24804,0.0762 7.73989,0.0506 15.73832,-0.19727 24.28125,-2.36523 a 10.001,10.001 0 0 0 0.006,-0.002 c 3.85618,-0.981 5.97751,-0.58362 9.45704,2.01757 l -0.0117,-0.01 c 0.60666,0.455 1.39315,1.05228 3.02929,1.59765 1.63614,0.54538 4.7534,0.96608 7.77149,-0.54296 3.01809,-1.50905 4.55227,-4.25644 5.09765,-5.89258 0.54538,-1.63614 0.54102,-2.62253 0.54102,-3.38086 V 82.769531 l -0.004,0.265625 c 0.12562,-4.728938 -3.97624,-9.407727 -8.03906,-10.318359 -1.0157,-0.227658 -2.10501,-0.262738 -3.20117,-0.125 z m 9.67773,14.378906 -0.1289,0.257813 c -0.007,0.01328 -0.0204,0.02191 -0.0274,0.03516 0.0454,-0.09415 0.11113,-0.199056 0.15625,-0.292969 z m -44.73437,47.259767 c -0.0818,0.0301 -0.29736,0.15545 -0.36719,0.18164 -0.19543,0.0733 -0.17763,0.0538 -0.30469,0.0957 0.23566,-0.0752 0.43822,-0.19912 0.67188,-0.27734 z"
       id="path43" />
    <path
       style="baseline-shift:baseline;display:inline;overflow:visible;vector-effect:none;stroke:none;enable-background:accumulate;stop-color:#000000;stop-opacity:1"
       d="m 761.17,82.64 a 0.31,0.3 -32.2 0 1 0.58,0.13 v 43.71 q 0,0.55 -0.44,0.22 -8.24,-6.16 -17.91,-3.7 c -7.29,1.85 -14.32,2.11 -21.8,2.06 q -0.08,0 0,-0.02 c 18.56,-5.85 31.45,-25.5 39.57,-42.4 z"
       id="path44" />
  </g>
  <path
     style="baseline-shift:baseline;display:inline;overflow:visible;vector-effect:none;fill:#ffffff;fill-opacity:1;stroke:none;stroke-width:20;stroke-linecap:round;stroke-linejoin:round;stroke-dasharray:none;stroke-opacity:1;paint-order:markers stroke fill;enable-background:accumulate;stop-color:#000000"
     d="m 347.78912,176.76172 c -3.87435,0.10615 -8.13485,2.92379 -9.53907,7.00195 l 0.0274,-0.0801 c -4.12374,11.65293 -9.10316,23.01173 -14.94727,34.08985 -2.46073,4.66368 -5.11917,8.46363 -7.89843,11.47851 l 0.1289,-0.13672 c -0.49083,0.51265 -1.12858,1.1428 -1.88867,2.67383 -0.76009,1.53103 -1.80864,4.87909 -0.26367,8.50977 1.54497,3.63067 4.69447,5.20235 6.33008,5.71484 1.6356,0.51249 2.53519,0.48633 3.24609,0.48633 a 10.001,10.001 0 0 0 0.01,0 l 9.66992,-0.01 c 4.38757,0 8.5275,-3.31102 9.77148,-7.04296 0.82134,-2.46401 0.42328,-5.49221 -0.88476,-8.05469 0.16823,-0.36827 0.38665,-0.76369 0.64648,-1.25586 0.27127,-0.003 0.56265,-0.0263 0.9375,-0.0742 0.0507,0.0212 0.12322,0.0662 0.17188,0.0859 1.74804,0.70975 2.52043,0.68475 3.13671,0.73242 1.23258,0.0953 1.72004,0.0175 2.25586,-0.0312 0.26212,-0.0239 0.51764,-0.0813 0.76563,-0.11133 0.15984,0.19632 0.20133,0.19084 0.35547,0.45313 0.30163,0.51326 0.39655,0.89643 0.5,1.23242 -0.11498,0.2864 -0.22443,0.31595 -0.33399,0.67383 -0.50425,1.64723 -0.83447,4.69934 0.65821,7.625 1.49268,2.92565 4.18242,4.46339 5.82812,5.01953 1.6457,0.55613 2.66085,0.55859 3.44141,0.55859 a 10.001,10.001 0 0 0 0.0156,0 l 13.84961,-0.0215 a 10.001,10.001 0 0 0 0.2207,-0.002 c 4.40416,-0.10393 8.44924,-3.47663 9.59766,-7.33203 1.14842,-3.8554 -0.68282,-9.44671 -4.63672,-11.76367 l 0.125,0.0762 c -1.93861,-1.17452 -2.67916,-2.16098 -3.8789,-4.51953 -1.19884,-2.35677 -2.43306,-6.06242 -4.61914,-10.55078 l -0.004,-0.008 c -4.73494,-9.74071 -8.58762,-19.16014 -12.99219,-29.19727 l 0.10547,0.25 c -1.6254,-3.99516 -6.03386,-6.57685 -9.9082,-6.4707 z m 2.63476,14.82422 0.0234,0.0117 c -0.004,-0.002 -0.008,-0.002 -0.0117,-0.004 -0.006,-0.003 -0.006,-0.005 -0.0117,-0.008 z m -14.78125,4.86914 c -0.0104,0.0214 -0.0189,0.043 -0.0293,0.0644 -0.001,0.003 -0.004,0.005 -0.006,0.008 z m 32.24805,44.98437 c -0.0245,0.0343 -0.0669,0.15144 -0.0898,0.1836 l -0.0586,0.082 c 0.0645,-0.0884 0.0867,-0.17716 0.14844,-0.26563 z m -41.15039,2.39844 c 0.0723,0.0554 0.12981,0.13195 0.20312,0.18555 l -0.0996,-0.0742 c -0.0408,-0.0306 -0.0633,-0.08 -0.10351,-0.11133 z"
     id="path45" />
  <path
     style="baseline-shift:baseline;display:inline;overflow:visible;vector-effect:none;fill:#565656;fill-opacity:1;stroke:none;stroke-width:20;stroke-linecap:round;stroke-linejoin:round;stroke-dasharray:none;stroke-opacity:1;paint-order:markers stroke fill;enable-background:accumulate;stop-color:#000000"
     d="m 345.79443,200.45 a 0.85,0.82 26.7 0 0 -1.15,0.36 q -3.42,7.07 -6.46,14.15 -1.33,3.11 1.55,4.42 0.43,0.19 0.9,0.14 0.62,-0.07 1.04,0.29 0.54,0.48 -0.18,0.44 c -2.94,-0.15 -5.3,0.35 -6.98,3.04 -2.01,3.22 -5.76,9.67 -1.67,12.66 a 0.3,0.3 0 0 1 -0.18,0.54 l -9.68,0.01 q -0.65,0 -0.2,-0.47 5.19,-5.63 9.39,-13.59 9.1,-17.25 15.53,-35.42 a 0.39,0.39 0 0 1 0.73,-0.02 c 4.34,9.89 8.25,19.46 13.16,29.56 3.63,7.45 4.8,14.7 12.31,19.25 a 0.25,0.26 61.1 0 1 -0.14,0.47 l -13.85,0.02 q -0.6,0 -0.25,-0.49 c 3.19,-4.37 -3.26,-16.37 -9.57,-15.26 q -6.13,1.08 -0.05,-1.04 c 3.03,-1.06 3.43,-2.09 2.37,-5.16 -0.78,-2.26 -4.82,-12.96 -6.62,-13.9 z"
     id="path46" />
  <path
     style="baseline-shift:baseline;display:inline;overflow:visible;vector-effect:none;fill:#ffffff;fill-opacity:1;stroke:none;stroke-width:20;stroke-linecap:round;stroke-linejoin:round;stroke-dasharray:none;stroke-opacity:1;paint-order:markers stroke fill;enable-background:accumulate;stop-color:#000000"
     d="m 435.8692,176.88086 -15.31055,0.12891 a 10.001,10.001 0 0 0 -0.0547,0.002 c -4.12452,0.0579 -7.9612,2.93394 -9.37891,6.37695 -1.31437,3.19204 -0.72566,7.44573 1.65625,10.4043 0.009,10.6181 -0.0207,21.23337 -0.0918,31.8457 -0.0475,0.0261 -0.0518,0.017 -0.10156,0.0449 -0.52416,0.29397 -1.19375,0.61953 -2.33399,1.75977 -1.14024,1.14024 -3.64375,4.17405 -2.82226,8.87891 0.82148,4.70485 4.21161,6.71659 5.67382,7.40234 1.46222,0.68575 2.20346,0.7632 2.79688,0.86133 1.18683,0.19625 1.73991,0.17383 2.33203,0.17383 a 10.001,10.001 0 0 0 0.0215,0 l 14.08008,-0.0293 -0.18359,-0.002 c 4.75089,0.0765 9.28594,-3.75393 10.375,-7.8379 0.83627,-3.13601 -0.19214,-7.12219 -2.58399,-9.85937 -0.11936,-2.74917 -0.32545,-5.62883 -0.17382,-7.1543 0.0489,-0.49225 0.015,-0.31361 0.0664,-0.50781 3.46875,-2.03349 5.78341,-6.10424 5.57031,-9.69141 -0.19079,-3.21167 -2.4022,-6.66312 -5.50585,-8.50976 -0.087,-1.94481 -0.1636,-4.03837 -0.13477,-4.83985 2.32327,-1.21006 4.96267,-3.72436 5.73242,-6.30859 0.55452,-1.71668 1.10302,-6.02638 -1.81445,-9.52734 -2.94689,-3.53626 -6.27661,-3.61133 -7.72852,-3.61133 a 10.001,10.001 0 0 0 -0.0859,0 z m -2.34766,0.68555 c -0.30551,0.072 -0.58039,0.27822 -0.88477,0.36718 0.24763,-0.0996 0.52486,-0.27916 0.75196,-0.33593 z m 11.9707,12.51757 -0.0195,0.0664 a 10.001,10.001 0 0 0 0.0176,-0.0488 c 10e-4,-0.004 7.5e-4,-0.0139 0.002,-0.0176 z m -32.26953,4.33594 c 0.0288,0.0302 0.0411,0.0718 0.0703,0.10156 l -0.0625,-0.0644 c 0.007,0.007 -0.0138,-0.0432 -0.008,-0.0371 z m 22.72461,2.45899 h 0.0918 l -0.084,0.002 c -0.002,0 -0.006,-0.002 -0.008,-0.002 z m -2.77344,22.72461 c 0.0482,0.008 0.10845,0.0388 0.15625,0.0469 l -0.0684,-0.0117 c -0.0311,-0.005 -0.0568,-0.0293 -0.0879,-0.0351 z m 4.25977,5.32421 0.0859,0.0488 c -2.4e-4,-1.3e-4 0.0363,0.0514 0.0371,0.0527 -0.0465,-0.0268 -0.076,-0.0756 -0.12305,-0.10157 z m -14.83203,18.02344 c -0.049,0.0267 -0.18674,0.15126 -0.23047,0.17578 -0.76748,0.43043 -0.86512,0.4147 -0.8418,0.40625 l -0.0176,0.006 c 0.35424,-0.12756 0.72565,-0.42927 1.08985,-0.58789 z"
     id="path47" />
  <path
     style="baseline-shift:baseline;display:inline;overflow:visible;vector-effect:none;fill:#ffffff;fill-opacity:1;stroke:none;stroke-width:20;stroke-linecap:round;stroke-linejoin:round;stroke-dasharray:none;stroke-opacity:1;paint-order:markers stroke fill;enable-background:accumulate;stop-color:#000000"
     d="m 512.92388,176.96094 c -0.59519,0 -1.27296,-0.0455 -2.75976,0.32617 -1.4868,0.3717 -5.66341,1.46486 -7.29297,6.93555 -0.81478,2.73534 -0.23371,5.43442 0.44531,6.96875 0.67902,1.53432 1.37544,2.30436 1.90234,2.86718 0.73239,0.78233 1.08384,0.95766 1.4961,1.23633 0.0291,8.05886 0.0351,16.10446 0.01,24.13281 -0.0477,14.19381 11.65553,23.861 23.36329,26.1543 1.86958,0.36724 4.37718,0.32513 6.70507,-0.625 0.61078,-0.24733 1.36292,-0.51299 2.66211,-1.53516 1.3077,-1.02884 4.0735,-3.76733 3.89258,-8.38085 -0.18092,-4.61353 -3.12659,-7.10352 -4.49805,-8.02735 -1.37145,-0.92383 -2.14627,-1.13472 -2.77343,-1.33789 a 10.001,10.001 0 0 0 -0.0371,-0.0117 c -1.25108,-0.39976 -0.71695,-0.0463 -1.08008,-0.95898 -0.21217,-0.53324 -0.38544,-1.67339 -0.49609,-3.05469 0.23895,-0.0518 0.24329,-0.004 0.56445,-0.0957 0.66439,-0.19008 1.56754,-0.43578 2.95703,-1.39063 1.38949,-0.95484 3.57729,-3.16814 4.18555,-6.4375 0.60825,-3.26935 -0.62785,-6.09677 -1.56836,-7.48047 -0.94051,-1.3837 -1.68669,-1.94019 -2.23242,-2.35742 -1.09147,-0.83444 -1.59679,-1.01617 -2.02149,-1.21289 -0.8466,-0.39214 -1.26784,-0.5153 -1.74023,-0.66797 -0.10706,-0.0349 -0.13428,-0.0332 -0.23828,-0.0664 -0.0972,-1.79245 -0.22876,-3.80881 -0.16993,-5.22266 0.10897,-2.61885 1.23458,-2.7128 -0.90429,-1.16602 l -0.0137,0.01 c 0.50475,-0.36371 1.11804,-0.75449 2.11915,-1.9707 1.0011,-1.21622 3.42206,-4.45836 1.89843,-9.43555 -1.52363,-4.97719 -5.51605,-6.39495 -7.08008,-6.81836 -1.56402,-0.42341 -2.30329,-0.37695 -2.93359,-0.37695 z m 8.58985,2.44726 c -0.50122,0.36618 -0.7525,0.7979 -1.18555,1.1836 -0.0125,-0.01 -0.0246,-0.0158 -0.0371,-0.0254 0.54682,-0.58741 1.00169,-1.00321 1.22266,-1.15821 z m -1.44141,1.36524 c 0.009,0.01 0.0206,0.0352 0.0293,0.0449 -0.0888,0.0821 -0.16409,0.16714 -0.25,0.25 0.0294,-0.0363 0.0805,-0.1548 0.10742,-0.1875 0.0626,-0.0761 0.0549,-0.0392 0.11328,-0.10742 z m 11.83008,21.19922 c 0.001,0.001 0.003,0.003 0.004,0.004 -0.22329,-0.0118 -0.4846,0.0676 -0.71289,0.0625 0.061,-0.002 0.27392,-0.0536 0.32618,-0.0566 0.4424,-0.0259 0.36989,-0.0147 0.38281,-0.01 z m -1.08594,19.95703 c 0.0155,9.7e-4 0.0431,-9.9e-4 0.0586,0 0.009,4.2e-4 -0.0195,0.003 -0.01,0.004 z m -1.10937,22.67187 c 0.0862,0.0289 0.15735,0.0855 0.24414,0.11328 l -0.0391,-0.0117 c -0.0358,-0.0116 -0.16542,-0.0893 -0.20507,-0.10156 z"
     id="path49" />
  <path
     style="baseline-shift:baseline;display:inline;overflow:visible;vector-effect:none;fill:#ffffff;fill-opacity:1;stroke:none;stroke-width:20;stroke-linecap:round;stroke-linejoin:round;stroke-dasharray:none;stroke-opacity:1;paint-order:markers stroke fill;enable-background:accumulate;stop-color:#000000"
     d="m 539.29302,176.91016 c -0.50038,-0.005 -1.00227,-0.0423 -2.22265,0.16992 -0.61073,0.10621 -1.40751,0.20355 -2.89844,0.95508 -1.49093,0.75152 -4.56521,2.90337 -5.36523,7.10351 -0.80003,4.20014 1.19977,7.21288 2.25781,8.44531 1.05803,1.23244 1.7384,1.62631 2.25,1.95704 1.02117,0.66015 1.49404,0.8241 1.95312,1.01562 9.1e-4,3.8e-4 0.003,0.002 0.004,0.002 5.64959,2.3828 7.74103,3.82619 9.70898,8.15821 l -0.0176,-0.0371 c 0.20731,0.46128 0.38821,0.95519 1.14257,2.01758 0.37718,0.53119 0.84802,1.24889 2.19727,2.26757 1.34925,1.01869 4.4689,2.64987 8.27734,1.79297 3.80845,-0.8569 5.86938,-3.59799 6.6543,-5.05664 0.78492,-1.45864 0.91601,-2.29316 1.03906,-2.92383 0.24612,-1.26133 0.21094,-1.78364 0.21094,-2.28711 V 187.6192 c 0,-1.90021 -0.66133,-5.1125 -3.08594,-7.53711 -2.42461,-2.42461 -5.53517,-3.06048 -7.38476,-3.08984 a 10.001,10.001 0 0 0 -0.10547,-0.002 l -14.61328,-0.0801 z m 23.05469,18.14257 c 0.0105,0.0149 0.0542,0.052 0.0644,0.0664 0.51147,0.72032 0.5423,0.87789 0.61914,1.06445 -0.19325,-0.41443 -0.47596,-0.73127 -0.68359,-1.13086 z"
     id="path51" />
  <path
     style="baseline-shift:baseline;display:inline;overflow:visible;vector-effect:none;fill:#565656;fill-opacity:1;stroke:none;stroke-width:20;stroke-linecap:round;stroke-linejoin:round;stroke-dasharray:none;stroke-opacity:1;paint-order:markers stroke fill;enable-background:accumulate;stop-color:#000000"
     d="m 539.20443,186.91 14.65,0.08 q 0.63,0.01 0.63,0.63 v 12.87 q 0,0.98 -0.4,0.09 c -3.13,-6.89 -8.22,-10.41 -14.96,-13.25 q -1.03,-0.43 0.08,-0.42 z"
     id="path52" />
  <path
     style="baseline-shift:baseline;display:inline;overflow:visible;vector-effect:none;fill:#ffffff;fill-opacity:1;stroke:none;stroke-width:20;stroke-linecap:round;stroke-linejoin:round;stroke-dasharray:none;stroke-opacity:1;paint-order:markers stroke fill;enable-background:accumulate;stop-color:#000000"
     d="m 636.42388,176.90039 c -1.69407,0 -5.43849,0.41491 -8.1875,4.00977 -0.008,0.0109 -0.009,0.0223 -0.0176,0.0332 -1.71918,-2.24169 -3.98808,-3.19139 -5.18164,-3.54102 -1.57547,-0.4615 -2.35984,-0.42187 -2.98242,-0.42187 l -14,-0.0703 a 10.001,10.001 0 0 0 -0.24219,0.002 c -4.44601,0.0852 -8.58127,3.59714 -9.69335,7.41992 -0.90168,3.09951 0.0598,7.02074 2.40234,9.73047 -9.9e-4,11.52573 -0.0124,23.04809 -0.0352,34.56836 -2.46813,2.5575 -3.67396,6.41573 -2.99804,9.51367 0.87734,4.02116 5.15083,7.96105 9.76367,8.0918 a 10.001,10.001 0 0 0 0.27148,0.004 l 9.21094,0.01 -0.14258,-0.002 c 4.95089,0.076 9.71551,-4.31223 10.5,-8.62696 0.56586,-3.1122 -0.83983,-6.94889 -3.39062,-9.49609 -6.6e-4,-0.52584 0.004,-1.04664 0.004,-1.57227 l 15.83008,19.4668 a 10.001,10.001 0 0 0 0.14649,0.17578 c 2.71823,3.19033 7.53754,4.27303 11.11132,3.05469 3.57379,-1.21834 6.72624,-5.01872 6.92969,-9.20508 a 10.001,10.001 0 0 0 0.0117,-0.49414 c -0.0133,-15.11117 -0.007,-30.24136 0.0195,-45.39258 a 10.001,10.001 0 0 0 0,-0.0176 c 0,-0.0768 -0.0147,-0.051 -0.0176,-0.10742 2.43737,-2.90272 3.18205,-7.12783 1.96875,-10.3457 -1.34948,-3.57907 -5.30838,-6.64531 -9.55859,-6.69727 a 10.001,10.001 0 0 0 -0.0449,0 l -11.59961,-0.0898 a 10.001,10.001 0 0 0 -0.0781,0 z m 2.67969,1.06641 0.0254,0.006 c 0.008,0.002 0.0198,0.0156 0.0273,0.0176 -0.0183,-0.005 -0.0344,-0.0188 -0.0527,-0.0234 z m -27.94727,1.01953 0.2129,0.13867 c 0.16881,0.11189 0.27401,0.29604 0.43359,0.41992 -0.22729,-0.16556 -0.41131,-0.41117 -0.64649,-0.55859 z m 30.5293,1.07422 c -0.19183,0.16711 -0.30519,0.39236 -0.48633,0.56836 0.13585,-0.14098 0.21539,-0.3275 0.36133,-0.45899 z m -15.14844,9.88672 c 0.006,0.0196 0.0216,0.037 0.0273,0.0566 0.004,0.013 0.002,0.0459 0.006,0.0586 z M 610.2481,244.3457 c -0.14997,0.0867 -0.2565,0.23775 -0.41211,0.31446 l -0.0918,0.043 c 0.17838,-0.0857 0.32812,-0.2608 0.5039,-0.35742 z"
     id="path53" />
  <path
     style="baseline-shift:baseline;display:inline;overflow:visible;vector-effect:none;fill:#565656;fill-opacity:1;stroke:none;stroke-width:20;stroke-linecap:round;stroke-linejoin:round;stroke-dasharray:none;stroke-opacity:1;paint-order:markers stroke fill;enable-background:accumulate;stop-color:#000000"
     d="m 611.77443,199.52 q -0.11,15.43 -0.08,30.98 0,3.58 3.23,4.76 a 0.51,0.51 0 0 1 -0.18,0.99 l -9.21,-0.01 a 0.29,0.29 0 0 1 -0.12,-0.55 q 3.06,-1.47 3.07,-4.94 0.04,-19.12 0.04,-38.25 0,-3.36 -2.68,-5.04 a 0.3,0.3 0 0 1 0.16,-0.55 l 14.05,0.07 q 0.44,0 0.11,0.29 l -2.34,2.02 q -0.62,0.54 -0.11,1.18 l 24.12,30.18 a 0.24,0.24 0 0 0 0.42,-0.15 l -0.03,-28.73 q 0,-0.45 -0.28,-0.8 -1.99,-2.47 -5.3,-3.31 -0.39,-0.1 -0.48,-0.42 -0.1,-0.34 0.26,-0.34 l 11.6,0.09 a 0.35,0.35 0 0 1 0.23,0.61 c -1.94,1.69 -2.5,3.82 -2.5,6.54 q -0.04,22.74 -0.02,45.42 a 0.25,0.25 0 0 1 -0.44,0.15 l -32.87,-40.42 a 0.37,0.37 0 0 0 -0.65,0.23 z"
     id="path54" />
  <path
     style="baseline-shift:baseline;display:inline;overflow:visible;vector-effect:none;fill:#ffffff;fill-opacity:1;stroke:none;stroke-width:20;stroke-linecap:round;stroke-linejoin:round;stroke-dasharray:none;stroke-opacity:1;paint-order:markers stroke fill;enable-background:accumulate;stop-color:#000000"
     d="m 722.57427,177.14648 c -3.73353,0 -7.46675,1.76793 -9.17968,5.30469 a 10.001,10.001 0 0 0 -0.2168,0.48047 c -4.38441,10.41794 -8.87778,20.76788 -13.48047,31.05273 -2.16784,4.84225 -4.99138,9.17484 -8.47852,13.14649 -0.73927,0.55912 -2.32136,1.60172 -3.71875,4.39648 a 10.001,10.001 0 0 0 -0.0703,0.14453 c -0.72478,1.50997 -2.37027,5.38729 0.47266,9.97266 2.84293,4.58537 7.15308,4.85547 8.85156,4.85547 h 9.75 c 0.76304,0 1.70287,0.0235 3.37695,-0.50195 1.67409,-0.5255 4.88684,-2.14516 6.41993,-5.84571 1.53308,-3.70054 0.42511,-7.04628 -0.35938,-8.58593 -0.0296,-0.0581 -0.0449,-0.0479 -0.0742,-0.10352 0.16693,-0.36073 0.45722,-0.87926 0.75,-1.42383 0.97607,-0.0524 1.9978,-0.15902 3.33789,-0.72851 0.24579,0.0814 0.69715,0.32686 0.89453,0.38476 l -0.0488,-0.0137 c 1.44326,0.43149 1.99149,0.6362 2.59765,0.83984 0.19726,0.38694 0.55099,1.18922 0.86719,1.82032 -0.79489,1.72648 -1.43813,3.97082 -0.37109,7.08984 1.56137,4.56403 5.2847,6.01935 6.85351,6.46094 1.56881,0.44159 2.32648,0.39648 2.94727,0.39648 h 14.04883 a 10.001,10.001 0 0 0 0.25195,-0.002 c 4.34269,-0.10943 8.32855,-3.36363 9.53906,-7.14649 1.21051,-3.78285 -0.38026,-9.25466 -4.16406,-11.7246 l 0.0859,0.0566 c -2.54796,-1.70085 -2.467,-1.68092 -4.17969,-5.40625 -5.9503,-12.99393 -11.72526,-26.0536 -17.32422,-39.17969 a 10.001,10.001 0 0 0 -0.19922,-0.43555 c -1.71293,-3.53676 -5.44615,-5.30469 -9.17969,-5.30469 z m -2.80664,13.29688 h 0.0547 c -0.005,1.2e-4 -0.0122,0.004 -0.0176,0.004 -0.0142,3.5e-4 -0.0229,-0.004 -0.0371,-0.004 z m -28.82617,37.05078 c -0.0134,0.0151 -0.0236,0.0318 -0.0371,0.0469 a 10.001,10.001 0 0 0 -0.0234,0.0254 c 0.17622,-0.19825 -0.0624,0.0585 0.0606,-0.0723 z m 24.57031,2.03516 c 0.0213,4e-5 0.0471,0.01 0.0684,0.01 h -0.0254 c -0.0129,0 -0.0299,-0.01 -0.043,-0.01 z m -17.45312,10.90625 c 0.44855,0.71933 0.8078,1.47215 1.41406,2.12304 -0.30711,-0.31034 -0.72484,-0.6821 -1.35156,-1.91211 -0.0226,-0.0444 -0.0392,-0.16273 -0.0625,-0.21093 z m 43.43945,1.48437 c -0.006,0.008 -0.0157,0.035 -0.0215,0.043 -0.32344,0.44425 -0.39588,0.41065 -0.62696,0.65625 -0.004,-0.004 -0.008,-0.008 -0.0117,-0.0117 0.22496,-0.21589 0.43726,-0.4455 0.66015,-0.6875 z m -37.39453,0.45313 c -0.39658,0.41927 -0.66659,0.58799 -0.65625,0.58007 0.005,-0.004 0.54167,-0.51529 0.65625,-0.58007 z m 36.57422,0.40234 c 0.005,0.004 0.009,0.008 0.0137,0.0117 -0.3093,0.3053 -0.74519,0.82456 -0.91992,0.96289 l -0.10742,0.084 c 0.33239,-0.25583 0.66813,-0.73667 1.01367,-1.05859 z"
     id="path55" />
  <path
     style="baseline-shift:baseline;display:inline;overflow:visible;vector-effect:none;fill:#565656;fill-opacity:1;stroke:none;stroke-width:20;stroke-linecap:round;stroke-linejoin:round;stroke-dasharray:none;stroke-opacity:1;paint-order:markers stroke fill;enable-background:accumulate;stop-color:#000000"
     d="m 698.35443,234.21 q 6.49,-7.25 10.47,-16.14 6.95,-15.53 13.57,-31.26 a 0.2,0.2 0 0 1 0.36,0 q 8.45,19.81 17.43,39.42 c 2.06,4.48 3.87,6.99 7.72,9.56 a 0.27,0.28 62.3 0 1 -0.16,0.5 h -14.05 q -0.61,0 -0.13,-0.38 c 1.78,-1.37 2.02,-2.77 1.13,-4.9 -1.28,-3.08 -2.56,-7.01 -5.23,-9.1 -1.54,-1.21 -3.86,-1.23 -5.8,-1.81 q -0.75,-0.22 0,-0.45 l 2.35,-0.74 a 2.1,2.1 0 0 0 1.37,-2.69 c -0.69,-2.01 -5.9,-15.82 -7.34,-15.78 a 1.32,0.56 2.7 0 0 -1.11,0.41 q -2.78,6.35 -5.86,12.47 c -1.24,2.48 -1.47,6.23 2.48,6.22 q 0.25,0 0.35,0.24 0.05,0.14 0.1,0.28 0.06,0.19 -0.13,0.18 c -2.84,-0.11 -5.3,0.25 -6.92,2.93 -2.12,3.51 -5.56,9.1 -2.16,12.63 q 0.68,0.7 -0.29,0.7 h -9.75 q -0.55,0 -0.31,-0.5 c 0.39,-0.78 1.43,-1.25 1.91,-1.79 z"
     id="path56" />
  <path
     style="baseline-shift:baseline;display:inline;overflow:visible;vector-effect:none;fill:#ffffff;fill-opacity:1;stroke:none;stroke-width:20;stroke-linecap:round;stroke-linejoin:round;stroke-dasharray:none;stroke-opacity:1;paint-order:markers stroke fill;enable-background:accumulate;stop-color:#000000"
     d="m 443.00201,176.98633 c -1.62653,-0.0278 -3.24111,0.18149 -4.8418,0.42969 -2.51054,0.21363 -5.47265,1.61807 -7.16797,3.74023 -1.7519,2.19299 -2.33411,4.63225 -2.21484,6.89844 0.11927,2.26619 0.95451,4.63237 2.92578,6.6289 1.97127,1.99654 5.22474,3.14595 7.78516,3.01172 l -1.61329,-0.0449 c 0.46768,0.0512 0.9983,0.33169 1.41797,0.60938 -1.10209,0.93456 -2.39632,1.70564 -4.35547,2.26953 a 10.001,10.001 0 0 0 -0.008,0.004 c -0.51835,0.14975 -1.15163,0.27905 -2.46875,1.05469 -1.31711,0.77564 -4.98242,3.10749 -4.98242,8.68555 0,5.57805 3.56177,7.81737 4.8418,8.59961 1.28003,0.78224 1.90376,0.92718 2.41406,1.08593 a 10.001,10.001 0 0 0 0.0137,0.004 c 10.95038,3.38787 16.38771,9.01275 19.4082,20.08789 a 10.001,10.001 0 0 0 0.20899,0.67188 c 1.58304,4.5228 7.06253,7.4418 11.27539,6.82226 4.21286,-0.61954 8.62004,-4.99223 8.83398,-9.7793 a 10.001,10.001 0 0 0 0.008,-0.65625 c -0.20568,-9.7698 -2.61863,-20.76158 -9.78125,-29.16406 1.11969,-2.23005 1.96979,-4.5832 2.18359,-7.08008 0.56737,-6.62603 -2.41368,-13.18476 -7.36523,-17.69726 a 10.001,10.001 0 0 0 -0.008,-0.008 c -4.45226,-4.04752 -10.46679,-6.0705 -16.50976,-6.17383 z m -2.3418,23.87109 0.0156,0.004 c 0.004,10e-4 0.0209,0.0103 0.0254,0.0117 -0.0142,-0.004 -0.0268,-0.0112 -0.041,-0.0156 z m -0.0684,18.8418 c -0.0202,0.006 -0.092,0.0433 -0.11133,0.0488 l -0.01,0.002 c 0.0423,-0.0122 0.0788,-0.0384 0.12109,-0.0508 z m 32.60742,14.34765 c 0.009,0.0258 0.0339,0.0444 0.043,0.0703 l 0.20899,0.67187 c -0.0697,-0.25564 -0.17866,-0.48853 -0.25196,-0.74219 z"
     id="path57" />
  <path
     style="baseline-shift:baseline;display:inline;overflow:visible;vector-effect:none;fill:#565656;fill-opacity:1;stroke:none;stroke-width:20;stroke-linecap:round;stroke-linejoin:round;stroke-dasharray:none;stroke-opacity:1;paint-order:markers stroke fill;enable-background:accumulate;stop-color:#000000"
     d="m 422.68443,226.89 q 0.12,-17.19 0.1,-34.39 -0.01,-2.55 -2.35,-4.98 a 0.3,0.3 0 0 1 0.21,-0.51 l 15.31,-0.13 q 0.07,0 0.05,0.06 -0.05,0.14 -0.09,0.27 -0.02,0.07 -0.1,0.09 c -8.15,1.92 -5.85,10.75 -5.83,16.87 0.02,3.55 1.75,5.07 5.01,5.62 a 0.52,0.52 0 0 1 0.06,1.01 c -7.18,2.13 -5.1,13.15 -5.05,18.86 0.01,1.99 1,3.12 2.59,4.02 a 0.56,0.56 0 0 1 -0.28,1.05 l -14.08,0.03 q -1.85,0 -0.11,-0.63 c 3.61,-1.3 4.54,-3.37 4.56,-7.24 z"
     id="path48" />
  <path
     style="baseline-shift:baseline;display:inline;overflow:visible;vector-effect:none;fill:#565656;fill-opacity:1;stroke:none;stroke-width:20;stroke-linecap:round;stroke-linejoin:round;stroke-dasharray:none;stroke-opacity:1;paint-order:markers stroke fill;enable-background:accumulate;stop-color:#000000"
     d="m 451.14443,209.36 c 10.34,6.27 13.1,16.56 13.34,27.96 a 0.35,0.35 0 0 1 -0.68,0.1 q -5.64,-20.68 -26.1,-27.01 -0.45,-0.14 0,-0.27 5.42,-1.56 9.08,-5.09 c 7.38,-7.1 0.67,-16.41 -7.82,-17.34 a 0.19026298,0.19026298 0 0 1 -0.02,-0.38 q 8.45,-1.67 13.84,3.23 c 6.09,5.55 5.49,13.63 -1.64,18.08 q -0.59,0.36 0,0.72 z"
     id="path58" />
  <path
     style="baseline-shift:baseline;display:inline;overflow:visible;vector-effect:none;fill:#ffffff;fill-opacity:1;stroke:none;stroke-width:20;stroke-linecap:round;stroke-linejoin:round;stroke-dasharray:none;stroke-opacity:1;paint-order:markers stroke fill;enable-background:accumulate;stop-color:#000000"
     d="m 556.43755,209.35352 c -2.16542,0.0175 -4.03668,0.7317 -5.13867,1.3789 -1.46931,0.86293 -2.11806,1.61583 -2.60156,2.17774 -0.96699,1.1238 -1.22617,1.71327 -1.49805,2.23437 l 0.0156,-0.0332 c -3.09891,5.88701 -7.04351,10.44048 -9.39258,11.02929 a 10.001,10.001 0 0 0 -0.16602,0.043 c -4.75979,1.28091 -8.12497,7.03949 -7.51757,11.36719 0.60739,4.3277 5.42696,8.93628 10.35547,8.85742 a 10.001,10.001 0 0 0 0.18554,-0.004 c 4.09663,-0.14157 6.9758,-0.97177 9.04688,-1.22852 1.96097,-0.24309 2.09367,0.31839 0.61523,-0.69336 0.66085,0.46543 1.50571,1.0491 3.14063,1.53516 1.65534,0.49213 4.61582,0.78183 7.45898,-0.61719 2.84316,-1.39901 4.45578,-3.97016 5.07227,-5.61719 0.61648,-1.64702 0.6555,-2.71061 0.67773,-3.5332 a 10.001,10.001 0 0 0 0,-0.0293 c 0.13174,-5.46379 0.0938,-11.02832 -0.11328,-16.69531 a 10.001,10.001 0 0 0 -0.002,-0.0195 c -0.0225,-0.58539 -0.006,-1.22693 -0.39258,-2.64453 -0.19331,-0.7088 -0.45104,-1.65678 -1.39063,-3.05469 -0.93958,-1.39791 -3.03133,-3.50062 -6.10937,-4.21094 -0.76951,-0.17758 -1.52429,-0.24804 -2.2461,-0.24218 z m -13.50195,36.0996 c -0.0296,0.008 -0.0523,0.035 -0.082,0.043 l -0.16797,0.043 c 0.0893,-0.0224 0.16138,-0.0628 0.25,-0.0859 z"
     id="path59" />
  <path
     style="baseline-shift:baseline;display:inline;overflow:visible;vector-effect:none;fill:#565656;fill-opacity:1;stroke:none;stroke-width:20;stroke-linecap:round;stroke-linejoin:round;stroke-dasharray:none;stroke-opacity:1;paint-order:markers stroke fill;enable-background:accumulate;stop-color:#000000"
     d="m 524.38443,217.91 c -0.33,7.41 0.88,14.81 8.61,17.28 q 0.71,0.23 0.02,0.51 -0.44,0.18 -1,0.07 c -8.18,-1.6 -15.32,-7.58 -15.29,-16.31 q 0.04,-12.66 -0.01,-25.37 c -0.02,-3.55 -1.21,-4.88 -3.93,-6.66 q -0.73,-0.47 0.14,-0.47 h 14.36 q 0.83,0 0.15,0.49 c -4.66,3.37 -2.97,13.89 -2.92,19.04 0.04,4.8 3.77,3.97 7.01,5.03 q 1.67,0.54 -0.08,0.43 c -4.14,-0.24 -6.86,1.6 -7.06,5.96 z"
     id="path50" />
  <path
     style="baseline-shift:baseline;display:inline;overflow:visible;vector-effect:none;fill:#565656;fill-opacity:1;stroke:none;stroke-width:20;stroke-linecap:round;stroke-linejoin:round;stroke-dasharray:none;stroke-opacity:1;paint-order:markers stroke fill;enable-background:accumulate;stop-color:#000000"
     d="m 556.58443,219.89 q 0.3,8.21 0.11,16.09 -0.02,0.74 -0.63,0.31 c -3.84,-2.77 -11.1,-0.04 -15.73,0.12 a 0.29,0.29 0 0 1 -0.08,-0.57 c 7.58,-1.9 12.42,-9.63 15.81,-16.07 q 0.48,-0.92 0.52,0.12 z"
     id="path60" />
</svg>
