<?xml version="1.0" encoding="UTF-8" standalone="no"?>
<svg
   version="1.1"
   viewBox="0 0 1733 390"
   id="svg19"
   sodipodi:docname="windows_installers.svg"
   xml:space="preserve"
   width="1733"
   height="390"
   inkscape:version="1.4.3 (0d15f75042, 2025-12-25)"
   xmlns:inkscape="http://www.inkscape.org/namespaces/inkscape"
   xmlns:sodipodi="http://sodipodi.sourceforge.net/DTD/sodipodi-0.dtd"
   xmlns="http://www.w3.org/2000/svg"
   xmlns:svg="http://www.w3.org/2000/svg"><defs
     id="defs19" /><sodipodi:namedview
     id="namedview19"
     pagecolor="#b4b4b4"
     bordercolor="#000000"
     borderopacity="0.25"
     inkscape:showpageshadow="2"
     inkscape:pageopacity="0.0"
     inkscape:pagecheckerboard="0"
     inkscape:deskcolor="#d1d1d1"
     inkscape:zoom="0.37327598"
     inkscape:cx="579.99981"
     inkscape:cy="195.56576"
     inkscape:window-width="1920"
     inkscape:window-height="1080"
     inkscape:window-x="0"
     inkscape:window-y="0"
     inkscape:window-maximized="0"
     inkscape:current-layer="svg19" /><g
     id="path1"
     style="fill:#0078d6;fill-opacity:1;stroke:#ffffff;stroke-width:30;stroke-linecap:round;stroke-linejoin:round;stroke-dasharray:none;stroke-opacity:1;paint-order:markers stroke fill"
     transform="translate(15,15)"><path
       style="baseline-shift:baseline;display:inline;overflow:visible;vector-effect:none;fill:#ffffff;stroke:none;enable-background:accumulate;stop-color:#000000;stop-opacity:1"
       d="M 0,-15 A 15.0015,15.0015 0 0 0 -15,0 v 170.33008 a 15.0015,15.0015 0 0 0 14.98828125,15 L 169.72852,185.4707 a 15.0015,15.0015 0 0 0 0.0117,0 c 8.38077,0 15.49665,-7.11397 15.5,-15.49414 v -0.006 L 185.31055,0.00585938 A 15.0015,15.0015 0 0 0 170.31055,-15 Z M 15,15 H 155.30469 L 155.24609,155.45898 15,155.3418 Z"
       id="path20" /><path
       style="baseline-shift:baseline;display:inline;overflow:visible;vector-effect:none;stroke:none;enable-background:accumulate;stop-color:#000000;stop-opacity:1"
       d="m 0,0 h 170.31 l -0.07,169.97 a 0.5,0.5 0 0 1 -0.5,0.5 L 0,170.33 Z"
       id="path21" /></g><g
     id="path2"
     style="fill:#0078d6;fill-opacity:1;stroke:#ffffff;stroke-width:30;stroke-linecap:round;stroke-linejoin:round;stroke-dasharray:none;stroke-opacity:1;paint-order:markers stroke fill"
     transform="translate(15,15)"><path
       style="baseline-shift:baseline;display:inline;overflow:visible;vector-effect:none;fill:#ffffff;stroke:none;enable-background:accumulate;stop-color:#000000;stop-opacity:1"
       d="m 189.41992,-15 a 15.0015,15.0015 0 0 0 -15,14.984375 L 174.25,170.03516 a 15.0015,15.0015 0 0 0 0,0.0156 c 0,8.35513 7.09409,15.44922 15.44922,15.44922 h 169.70117 c 8.52867,0 15.36693,-7.27539 15.36914,-15.37695 v -0.004 l 0.041,-170.11523375 A 15.0015,15.0015 0 0 0 359.81055,-15 Z m 14.98438,30 h 140.40234 l -0.0332,140.5 H 204.26367 Z"
       id="path22" /><path
       style="baseline-shift:baseline;display:inline;overflow:visible;vector-effect:none;stroke:none;enable-background:accumulate;stop-color:#000000;stop-opacity:1"
       d="m 189.42,0 h 170.39 l -0.04,170.12 a 0.38,0.37 -90 0 1 -0.37,0.38 H 189.7 a 0.45,0.45 0 0 1 -0.45,-0.45 z"
       id="path23" /></g><g
     id="path3"
     style="fill:#0078d6;fill-opacity:1;stroke:#ffffff;stroke-width:30;stroke-linecap:round;stroke-linejoin:round;stroke-dasharray:none;stroke-opacity:1;paint-order:markers stroke fill"
     transform="translate(15,15)"><path
       style="baseline-shift:baseline;display:inline;overflow:visible;vector-effect:none;fill:#ffffff;stroke:none;enable-background:accumulate;stop-color:#000000;stop-opacity:1"
       d="m 1132.1094,44.240234 0.2441,0.002 c -8.663,-0.146744 -15.8522,7.201315 -15.8535,15.595704 a 15.0015,15.0015 0 0 0 0,0.002 v 59.804682 c -7.091,-2.6701 -14.4831,-4.13782 -21.5566,-4.58398 a 15.0015,15.0015 0 0 0 0,-0.002 c -35.1972,-2.21196 -62.5813,13.32637 -77.3516,36.67188 -14.7702,23.34551 -18.45977,52.82799 -14.873,81.3789 4.3377,34.55783 27.104,66.47284 65.6582,71.2754 16.859,2.099 35.8054,0.36234 51.83,-8.07618 2.8729,3.42372 7.1088,5.69141 11.793,5.69141 h 35.5 c 8.3827,0 15.5,-7.11726 15.5,-15.5 V 59.75 c 0,-8.539934 -7.2748,-15.4858 -15.4922,-15.490234 h -0.01 z m 14.3906,30.007813 6.5,0.0039 V 272 h -6.5 v -3.90039 a 15.0015,15.0015 0 0 0 0,-0.082 c -0.01,-1.01201 0.047,-2.14554 -0.5723,-4.47852 -0.6091,-2.29284 -2.5488,-8.2218 -10.0742,-10.65039 7.2922,-11.39091 10.6851,-24.50008 10.8164,-37.22656 v -0.01 c 0.1728,-16.00445 1.6536,-35.43773 -12.2695,-52.55664 0.4118,-0.0825 0.8725,-0.0309 1.2656,-0.15234 5.7591,-1.77855 10.9785,-8.2845 10.8301,-15.02344 v 0.33008 z m -62.7734,70.628903 c 0.3218,-0.0134 0.6993,0.0232 1.0254,0.0137 -11.8475,2.0708 -23.0685,8.21113 -31.1426,18.85352 a 15.0015,15.0015 0 0 0 0,0.002 c -5.4676,7.21011 -9.2512,15.65587 -11.414,24.80274 -3.2147,13.57604 -4.4306,29.89414 -0.6114,45.90234 3.8197,16.01033 14.1999,32.66051 32.7989,39.5625 1.1902,0.44205 2.4202,0.75046 3.6386,1.09961 -1.9586,-0.10932 -3.9292,-0.24825 -5.9355,-0.49805 -24.8651,-3.09735 -36.4187,-19.88074 -39.6016,-45.24218 a 15.0015,15.0015 0 0 0 0,-0.002 c -2.9232,-23.26908 0.7967,-46.32761 10.459,-61.59961 8.4545,-13.36299 20.2852,-22.04383 40.7852,-22.89453 z m 10.6132,29.34571 c 6.3657,0.13578 12.7102,2.82382 16.7032,7.6582 6.6403,8.04236 5.8136,16.12044 5.6269,33.45703 a 15.0015,15.0015 0 0 0 0,0.01 c -0.077,7.57284 -2.4455,16.00658 -6.3008,21.83007 -3.8552,5.8235 -8.2476,9.07322 -15.0019,9.84961 a 15.0015,15.0015 0 0 0 -0.01,0.002 c -4.0662,0.46934 -7.3262,0.0515 -10.5352,-1.14063 a 15.0015,15.0015 0 0 0 -0.01,-0.002 c -7.9711,-2.95801 -11.7394,-8.69377 -14.0547,-18.39844 -2.3153,-9.70467 -1.6513,-22.42836 0.623,-32.03125 a 15.0015,15.0015 0 0 0 0,-0.006 c 1.3301,-5.62472 3.3919,-9.97164 6.1231,-13.57422 v -0.004 c 4.0765,-5.37061 10.4633,-7.78616 16.8281,-7.65039 z"
       id="path24" /><path
       style="baseline-shift:baseline;display:inline;overflow:visible;vector-effect:none;stroke:none;enable-background:accumulate;stop-color:#000000;stop-opacity:1"
       d="m 1131.5,268.1 q -0.01,-1.84 -1.04,-0.31 c -13.32,19.77 -37.58,24.53 -60.23,21.71 -31.71,-3.95 -48.87,-28.3 -52.63,-58.26 -6.51,-51.82 14.82,-105.08 76.4,-101.21 14.11,0.89 28.45,6.25 36.82,18.43 a 0.37,0.37 0 0 0 0.68,-0.21 V 59.84 a 0.6,0.59 -89.5 0 1 0.6,-0.6 l 35.4,0.02 a 0.5,0.49 0 0 1 0.5,0.49 V 286.5 a 0.5,0.5 0 0 1 -0.5,0.5 H 1132 a 0.5,0.5 0 0 1 -0.5,-0.5 z m -51.9,-8.15 q 8.21,3.05 17.48,1.98 c 22.88,-2.63 34.38,-25.82 34.59,-46.43 0.18,-16.72 1.36,-30.55 -9.06,-43.17 -14.13,-17.11 -42.84,-18.25 -57.05,0.48 q -6.15,8.11 -8.77,19.19 c -5.49,23.18 -3.76,58.09 22.81,67.95 z"
       id="path25" /></g><g
     id="ellipse3"
     style="fill:#0078d6;fill-opacity:1;stroke:#ffffff;stroke-width:30;stroke-linecap:round;stroke-linejoin:round;stroke-dasharray:none;stroke-opacity:1;paint-order:markers stroke fill"
     transform="rotate(-0.2,29980.021,-233047.43)"><path
       style="baseline-shift:baseline;display:inline;overflow:visible;vector-effect:none;fill:#ffffff;stroke:none;enable-background:accumulate;stop-color:#000000;stop-opacity:1"
       d="m 0,-35.539062 c -19.638129,0 -36.599609,15.670177 -36.599609,35.539062 0,19.868885 16.96148,35.539062 36.599609,35.539062 C 19.638129,35.539062 36.599609,19.868885 36.599609,0 36.599609,-19.868885 19.638129,-35.539062 0,-35.539062 Z m 0,29.9999995 c 4.2205728,0 6.5996094,2.7200891 6.5996094,5.5390625 0,2.8189734 -2.3790366,5.5390625 -6.5996094,5.5390625 -4.2205728,0 -6.5996094,-2.7200891 -6.5996094,-5.5390625 0,-2.8189734 2.3790366,-5.5390625 6.5996094,-5.5390625 z"
       id="path26" /><path
       style="baseline-shift:baseline;display:inline;overflow:visible;vector-effect:none;stroke:none;enable-background:accumulate;stop-color:#000000;stop-opacity:1"
       d="M 21.6,0 A 21.6,20.540001 0 0 1 0,20.540001 21.6,20.540001 0 0 1 -21.6,0 21.6,20.540001 0 0 1 0,-20.540001 21.6,20.540001 0 0 1 21.6,0 Z"
       id="path27" /></g><g
     id="path4"
     style="fill:#0078d6;fill-opacity:1;stroke:#ffffff;stroke-width:30;stroke-linecap:round;stroke-linejoin:round;stroke-dasharray:none;stroke-opacity:1;paint-order:markers stroke fill"
     transform="translate(15,15)"><path
       style="baseline-shift:baseline;display:inline;overflow:visible;vector-effect:none;fill:#ffffff;stroke:none;enable-background:accumulate;stop-color:#000000;stop-opacity:1"
       d="m 469.44336,57.75 c -9.74945,0.0493 -17.66654,10.21741 -14.7793,19.912109 l -0.0762,-0.267578 c 19.11063,68.803599 38.20705,137.612759 57.29102,206.429689 0.69072,2.50761 1.46987,5.01268 2.33007,7.51758 2.15083,6.37947 8.22482,10.63179 14.78125,10.6582 a 15.0015,15.0015 0 0 0 0.0606,0 h 44.14844 a 15.0015,15.0015 0 0 0 0.0488,0 c 7.08537,-0.0229 13.42766,-4.9204 15.24218,-11.76953 l 28.99414,-109.19141 28.71875,109.3125 a 15.0015,15.0015 0 0 0 0.0156,0.0586 c 1.80915,6.77302 8.10476,11.60115 15.11523,11.58984 h 43.40625 a 15.0015,15.0015 0 0 0 0.0762,0 c 6.90031,-0.0348 13.22627,-4.75977 15.07421,-11.5957 L 777.5918,77.386719 c 2.72675,-9.529693 -5.10442,-19.769394 -15.01563,-19.634766 l 0.20313,-0.002 h -37.66602 c -7.34171,-0.01153 -13.76988,5.178989 -15.44141,12.171875 a 15.0015,15.0015 0 0 0 -0.006,0.02148 L 683.0957,181.78125 c -9.62221,-37.4553 -19.2442,-74.90688 -28.87695,-112.421875 a 15.0015,15.0015 0 0 0 -0.0469,-0.175781 C 652.39654,62.603106 646.22901,57.693748 639.13086,57.75 h -39.77149 a 15.0015,15.0015 0 0 0 -0.0273,0 c -7.06682,0.0133 -13.23022,4.901301 -15.02734,11.519531 -10.52908,38.367139 -21.0851,76.722609 -31.63672,115.080079 L 523.75586,69.507812 a 15.0015,15.0015 0 0 0 -0.0215,-0.08789 C 521.9848,62.643606 515.727,57.777729 508.72852,57.75 a 15.0015,15.0015 0 0 0 -0.0586,0 h -39.15039 a 15.0015,15.0015 0 0 0 -0.0762,0 z m 19.15039,30 h 8.81836 l 39.77148,157.97266 a 15.0015,15.0015 0 0 0 0.0215,0.0859 c 0.22489,0.87146 0.44331,1.9769 1.66992,4.07032 1.22661,2.09341 4.67063,6.78803 11.65234,7.4375 6.98172,0.64946 11.25142,-3.34307 12.84375,-5.18164 1.59234,-1.83857 2.00636,-2.888 2.38672,-3.70508 a 15.0015,15.0015 0 0 0 0.0527,-0.11328 c 1.01317,-2.22458 1.3835,-3.64781 1.91211,-5.55079 a 15.0015,15.0015 0 0 0 0.01,-0.0332 C 581.95594,191.08088 596.15527,139.41906 610.33789,87.75 h 17.63086 c 12.33574,48.03952 24.66396,96.04081 36.98242,143.98242 1.94586,7.58064 3.30825,12.64135 4.41211,16.08985 a 15.0015,15.0015 0 0 0 0.0254,0.0781 c 0.22547,0.69143 0.42344,1.53819 1.5586,3.38281 0.56757,0.92231 1.34956,2.17562 3.26953,3.75782 1.91997,1.58219 5.67092,3.59806 10.15039,3.42578 4.47946,-0.17229 8.09659,-2.49049 9.89843,-4.23828 1.80185,-1.74779 2.48256,-3.07302 2.97461,-4.04688 0.98412,-1.94772 1.10901,-2.81252 1.27539,-3.52344 L 736.26953,87.75 h 7.43359 L 693.79492,272 H 672.39844 L 632.19727,118.97852 a 15.0015,15.0015 0 0 0 -0.0293,-0.10938 c -0.18657,-0.68888 -0.33453,-1.52309 -1.35352,-3.4043 -0.50949,-0.9406 -1.2049,-2.22159 -3.04687,-3.92187 -1.84197,-1.70028 -5.58082,-3.99219 -10.20703,-3.99219 -4.62622,0 -8.36506,2.29191 -10.20703,3.99219 -1.84198,1.70028 -2.53934,2.98127 -3.04883,3.92187 -1.01899,1.88121 -1.16695,2.71542 -1.35352,3.4043 a 15.0015,15.0015 0 0 0 -0.0195,0.0723 L 562.29102,272 H 539.73047 C 522.69669,210.57786 505.64877,149.16152 488.59375,87.75 Z"
       id="path28" /><path
       style="baseline-shift:baseline;display:inline;overflow:visible;vector-effect:none;stroke:none;enable-background:accumulate;stop-color:#000000;stop-opacity:1"
       d="m 617.43,122.79 -43.44,163.6 A 0.82,0.82 0 0 1 573.2,287 h -44.15 a 0.67,0.66 -9.1 0 1 -0.63,-0.45 q -1.16,-3.37 -2.08,-6.71 Q 497.71,176.6 469.04,73.38 a 0.5,0.49 -7.9 0 1 0.48,-0.63 h 39.15 a 0.56,0.56 0 0 1 0.54,0.42 l 42.52,168.89 q 0.16,0.62 0.43,0.04 0.46,-1.01 1.11,-3.35 22.79,-82.76 45.51,-165.55 a 0.61,0.6 -82.4 0 1 0.58,-0.45 h 39.89 a 0.46,0.45 82.5 0 1 0.44,0.34 q 19.91,77.54 39.79,154.91 2.88,11.22 4.17,15.25 0.15,0.46 0.26,-0.01 L 724.26,73.41 a 0.86,0.85 -83.1 0 1 0.83,-0.66 h 37.69 a 0.4,0.4 0 0 1 0.39,0.51 l -57.76,213.23 a 0.7,0.69 7.7 0 1 -0.67,0.51 h -43.43 a 0.62,0.62 0 0 1 -0.6,-0.46 L 617.69,122.79 q -0.13,-0.48 -0.26,0 z"
       id="path29" /></g><g
     id="path5"
     style="fill:#0078d6;fill-opacity:1;stroke:#ffffff;stroke-width:30;stroke-linecap:round;stroke-linejoin:round;stroke-dasharray:none;stroke-opacity:1;paint-order:markers stroke fill"
     transform="translate(15,15)"><path
       style="baseline-shift:baseline;display:inline;overflow:visible;vector-effect:none;fill:#ffffff;stroke:none;enable-background:accumulate;stop-color:#000000;stop-opacity:1"
       d="m 1277.2695,114.58594 c -21.8212,-0.38606 -42.6832,4.34059 -59.9336,15.59375 -19.7147,12.86075 -33.7362,34.58426 -37.5566,62.46484 -3.015,22.02115 -1.4098,45.23892 7.9355,65.67774 9.3454,20.43881 27.4623,37.69843 53.3633,44.39062 25.2853,6.54128 51.9106,5.62699 74.8008,-4.76172 22.892,-10.38952 41.5223,-31.12221 48.2422,-60.0918 a 15.0015,15.0015 0 0 0 0,-0.002 c 6.2853,-27.11031 4.2341,-55.56093 -8.332,-79.03906 -12.5661,-23.47813 -36.8012,-41.09091 -69.1172,-43.75781 -3.1487,-0.25973 -6.2869,-0.41946 -9.4043,-0.47461 z m -7.666,30.125 c 4.6858,-0.24557 9.5659,-0.1675 14.6035,0.24804 23.4241,1.9331 36.8084,12.46071 45.1348,28.01758 8.3264,15.55687 10.4414,37.03578 5.5566,58.10547 -4.7903,20.64924 -16.0654,32.58302 -31.4179,39.55078 -6.1025,2.76961 -12.9487,4.57514 -20.1934,5.47852 8.1668,-1.39478 16.1329,-4.38898 23.1914,-9.4961 v -0.002 c 12.1352,-8.77521 18.1873,-21.90174 20.9785,-34.35937 2.7903,-12.45394 2.6413,-24.83269 1.4336,-35.32813 v -0.01 c -1.4408,-12.59266 -5.7526,-24.72691 -14.0644,-34.38868 -8.3129,-9.66298 -20.8729,-16.21091 -35.1895,-17.27539 h -0.01 c -17.3656,-1.29582 -33.1786,3.645 -44.1465,13.90821 -10.9692,10.26437 -16.6322,24.5994 -18.5313,39.9707 -2.3454,18.98748 -0.9165,43.79102 16.4824,61.33789 7e-4,6.6e-4 0,0.001 0,0.002 7e-4,6.7e-4 0,10e-4 0,0.002 9.0452,9.12528 20.7778,14.46427 32.9785,16.03906 -5.8891,-0.40357 -11.8701,-1.30161 -17.8301,-2.84375 a 15.0015,15.0015 0 0 0 -0.01,-0.002 c -17.6789,-4.56781 -27.3718,-14.23218 -33.584,-27.81836 -6.2118,-13.58569 -7.9107,-31.49264 -5.496,-49.13086 v -0.002 c 2.8298,-20.64823 11.5372,-33.13172 24.2246,-41.4082 9.5158,-6.20756 21.8194,-9.85901 35.8769,-10.5957 z m 0.4356,30.44336 c 2.1744,-0.18687 4.6102,-0.19198 7.3632,0.0137 a 15.0015,15.0015 0 0 0 0.01,0 c 7.231,0.53687 11.2278,2.91813 14.6738,6.92383 3.446,4.00569 6.0936,10.27839 7.0039,18.24218 a 15.0015,15.0015 0 0 0 0,0.0117 c 0.9111,7.91215 0.8613,17.47803 -0.9024,25.34961 -1.7636,7.87159 -4.9218,13.45459 -9.2851,16.60938 a 15.0015,15.0015 0 0 0 0,0.004 c -8.3987,6.07839 -26.8937,4.36735 -34.1524,-2.95703 a 15.0015,15.0015 0 0 0 0,-0.004 c -6.6973,-6.7529 -9.648,-23.308 -8.0136,-36.53907 1.2909,-10.4487 4.7775,-17.55351 9.2558,-21.74414 3.3588,-3.14297 7.5333,-5.34954 14.0567,-5.91015 z"
       id="path30" /><path
       style="baseline-shift:baseline;display:inline;overflow:visible;vector-effect:none;stroke:none;enable-background:accumulate;stop-color:#000000;stop-opacity:1"
       d="m 1244.83,288.19 c -43.58,-11.26 -55.62,-53.85 -50.19,-93.51 6.65,-48.53 45.46,-68.41 90.8,-64.67 55.74,4.6 75.24,56.28 64.07,104.46 -11.51,49.62 -59.81,65.33 -104.68,53.72 z m -0.74,-38.28 c 13.26,13.38 38.18,15.71 53.6,4.55 16.5,-11.93 18.42,-37.42 16.3,-55.83 -2.35,-20.56 -13.92,-36.82 -35.47,-38.42 -28.38,-2.12 -43.49,14.94 -46.68,40.76 -1.99,16.11 0.2,36.79 12.25,48.94 z"
       id="path31" /></g><path
     style="baseline-shift:baseline;display:inline;overflow:visible;vector-effect:none;fill:#ffffff;fill-opacity:1;stroke:none;stroke-width:30;stroke-linecap:round;stroke-linejoin:round;stroke-dasharray:none;stroke-opacity:1;paint-order:markers stroke fill;enable-background:accumulate;stop-color:#000000"
     d="m 1675.709,129.43359 c -4.1196,0.0128 -8.196,0.20485 -12.207,0.52344 -17.6687,1.40719 -34.7391,8.10263 -47.2715,20.50781 -12.5323,12.40519 -19.613,31.4053 -15.8633,51.9043 2.8675,15.68192 11.4664,27.75939 21.4942,35.51758 10.0281,7.7585 20.9359,12.06893 30.8886,16.37109 a 15.0015,15.0015 0 0 0 0.01,0.006 c 5.9329,2.55937 11.237,5.21842 13.043,6.80469 1.3612,1.19557 1.2699,0.52093 0.8808,1.03516 -0.027,-0.11085 -0.2349,-0.1515 -1.457,0.15429 -2.7129,0.67884 -7.7897,0.78393 -11.668,0.47852 a 15.0015,15.0015 0 0 0 -0.012,0 c -10.0798,-0.78574 -20.4956,-5.16398 -29.2011,-11.85742 a 15.0015,15.0015 0 0 0 -0.035,-0.0273 c -9.255,-7.07241 -24.4555,0.35838 -24.5586,12.00586 a 15.0015,15.0015 0 0 0 0,0.13281 v 34.78321 c -0.01,7.13542 4.6304,13.60534 11.3906,15.88867 a 15.0015,15.0015 0 0 0 0.01,0.002 c 23.229,7.83318 48.6739,11.52271 74.3574,4.08399 24.6585,-7.14637 45.0807,-26.61618 47.4433,-55.20313 a 15.0015,15.0015 0 0 0 0.051,-1.23437 v -4.75 a 15.0015,15.0015 0 0 0 -0.1309,-1.97461 c -1.5387,-11.59269 -4.6721,-25.12487 -15.9296,-35.95508 -6.6465,-6.40068 -14.8142,-11.53307 -24.254,-15.74805 a 15.0015,15.0015 0 0 0 -0.01,-0.004 c -6.7494,-3.00909 -14.3158,-5.67088 -19.8047,-8.72657 -4.8414,-2.69524 -6.1545,-4.60434 -6.4414,-4.98632 1.7248,-0.83176 6.366,-1.59572 8.8965,-1.26954 v 0 c 9.2518,1.205 17.4889,4.26593 25.3398,9.42774 a 15.0015,15.0015 0 0 0 0.1895,0.12305 c 9.5243,6.05799 23.5159,-1.4928 23.6797,-12.7793 a 15.0015,15.0015 0 0 0 0,-0.2461 l -0.059,-32.99609 c 0,-6.98037 -4.4226,-13.42526 -11.0899,-15.85742 -12.5789,-4.59958 -25.3274,-6.17304 -37.6816,-6.13477 z m 16.25,31.4375 c 0.8393,0.15184 1.7103,0.22207 2.539,0.40235 v 0.38086 c -0.8453,-0.26496 -1.6854,-0.54324 -2.539,-0.78321 z m -40.6113,2.3711 c -8.8632,5.17069 -16.9251,17.54868 -14.8321,30.4082 a 15.0015,15.0015 0 0 0 0,0.01 c 2.3039,14.09597 13.0145,21.83326 21.7657,26.70507 8.7477,4.86992 17.6616,7.90119 22.1738,9.91211 7.0103,3.13022 12.1521,6.56865 15.6777,9.96485 a 15.0015,15.0015 0 0 0 0.01,0.008 c 5.3998,5.19485 5.5821,7.58538 6.8594,17.32617 v 2.87305 c -1.403,15.83279 -7.6994,22.3789 -21.7578,27.1543 6.0398,-3.44735 11.7832,-8.84243 14.0019,-16.84571 v -0.002 c 3.4389,-12.40603 -2.2659,-25.74566 -9.6445,-32.22656 -7.3748,-6.47755 -15.221,-9.33893 -20.9473,-11.8086 l -0.012,-0.004 c -10.1919,-4.4056 -18.8242,-8.22438 -24.4238,-12.55664 -5.6019,-4.334 -8.7189,-8.31035 -10.3418,-17.1875 a 15.0015,15.0015 0 0 0 0,-0.002 c -2.1203,-11.59099 1.0194,-18.81128 7.457,-25.18359 3.5555,-3.51938 8.4635,-6.41868 14.0157,-8.54492 z m 65.5195,8.84961 c 0.03,0.0186 0.064,0.0221 0.094,0.041 l 0.1895,0.12305 c -0.092,-0.0603 -0.1913,-0.1041 -0.2832,-0.16406 z m -110.8106,102.57031 c 0.016,0.0119 0.033,0.0213 0.049,0.0332 0,-0.003 -0.01,-0.005 -0.014,-0.008 z m 23.6934,13.03906 c 0.6149,0.22848 1.254,0.39702 1.875,0.61133 -0.6209,-0.15776 -1.2521,-0.36142 -1.875,-0.5293 z"
     id="path32" /><g
     id="path7"
     style="fill:#0078d6;fill-opacity:1;stroke:#ffffff;stroke-width:30;stroke-linecap:round;stroke-linejoin:round;stroke-dasharray:none;stroke-opacity:1;paint-order:markers stroke fill"
     transform="translate(15,15)"><path
       style="baseline-shift:baseline;display:inline;overflow:visible;vector-effect:none;fill:#ffffff;stroke:none;enable-background:accumulate;stop-color:#000000;stop-opacity:1"
       d="m 939.58398,114.77148 c -5.28953,-0.0262 -10.62788,0.40836 -15.98242,1.28711 a 15.0015,15.0015 0 0 0 -0.004,0 c -8.39155,1.37951 -16.38931,4.13315 -23.69532,8.14258 -2.98232,-4.00618 -7.70303,-6.6914 -12.9414,-6.6914 a 15.0015,15.0015 0 0 0 -0.0137,0 l -33.5879,0.0293 c -8.3106,0 -15.60937,7.02848 -15.60937,15.60156 V 286.4004 c 0,8.42981 7.15302,15.58537 15.58203,15.58984 l 34.09961,0.0195 a 15.0015,15.0015 0 0 0 0.008,0 c 8.57639,0 15.61133,-7.30088 15.61133,-15.61915 a 15.0015,15.0015 0 0 0 0,-0.0469 c -0.0866,-28.65783 -0.0741,-57.31482 0.0391,-85.97266 v -0.002 c 0.0309,-7.57535 3.00203,-15.07496 7.32227,-19.81836 4.32061,-4.74381 9.12661,-7.07226 16.23437,-6.29883 a 15.0015,15.0015 0 0 0 0.002,0 c 5.66261,0.616 7.06874,2.11295 9.19922,5.83203 2.13047,3.71909 3.58383,10.29934 3.59179,17.1836 a 15.0015,15.0015 0 0 0 0,0.002 c 0.04,29.73327 0.0606,59.471 0.0606,89.21094 0,8.39379 7.12574,15.51953 15.51953,15.51953 h 35.24024 c 8.4214,0 15.57034,-7.14891 15.57034,-15.57031 a 15.0015,15.0015 0 0 0 0,-0.0488 c -0.1093,-32.81668 0.5343,-62.38886 -0.3633,-101.90234 -0.3305,-14.50612 -3.0993,-29.25362 -11.00197,-42.06446 -7.9008,-12.80785 -21.64232,-22.91277 -39.19922,-26.16992 -5.15274,-0.95959 -10.3921,-1.44648 -15.68164,-1.47266 z m -0.15429,29.99219 c 3.54046,0.0172 6.9765,0.34558 10.34375,0.97266 a 15.0015,15.0015 0 0 0 0.0137,0.002 c 10.22722,1.89529 15.16468,5.97412 19.14453,12.42578 3.97985,6.45166 6.29343,16.04417 6.54297,26.99805 0.75081,33.05429 0.44126,59.30362 0.38867,86.83789 h -6.37305 c -0.005,-24.92446 -0.0173,-49.84779 -0.0508,-74.76758 v -0.002 c -0.0122,-10.40522 -1.62138,-21.69082 -7.56054,-32.0586 -5.32368,-9.29334 -15.27086,-17.29012 -27.625,-19.98437 1.72063,-0.13232 3.50545,-0.43192 5.17578,-0.42383 z m -66.22461,2.75781 0.0254,6.50782 0.0117,-0.65821 c -0.24636,6.16782 4.14616,12.04461 9.29883,14.47657 -6.12122,9.52347 -9.4045,20.77493 -9.45118,32.40234 -0.0945,23.91704 -0.0775,47.83491 -0.0332,71.75195 l -5.30664,-0.004 V 147.52734 Z"
       id="path34" /><path
       style="baseline-shift:baseline;display:inline;overflow:visible;vector-effect:none;stroke:none;enable-background:accumulate;stop-color:#000000;stop-opacity:1"
       d="m 888.23,153.97 a 0.37,0.37 0 0 0 0.69,0.2 c 8.76,-13.66 20.99,-20.66 37.11,-23.31 q 13.71,-2.25 26.49,0.13 c 27.79,5.15 37.37,28.37 37.95,53.83 0.89,39.18 0.25,68.57 0.36,101.61 a 0.57,0.57 0 0 1 -0.57,0.57 h -35.24 a 0.52,0.52 0 0 1 -0.52,-0.52 q 0,-44.62 -0.06,-89.23 c -0.02,-17.29 -6.13,-35.73 -26.17,-37.91 -23.71,-2.58 -40.09,18.55 -40.18,40.97 q -0.17,43.04 -0.04,86.08 a 0.62,0.61 -90 0 1 -0.61,0.62 l -34.1,-0.02 a 0.59,0.59 0 0 1 -0.59,-0.59 V 133.14 a 0.61,0.6 0 0 1 0.61,-0.6 l 33.6,-0.03 a 1.19,1.19 0 0 1 1.19,1.19 z"
       id="path35" /></g><g
     id="rect7"
     style="fill:#0078d6;fill-opacity:1;stroke:#ffffff;stroke-width:30;stroke-linecap:round;stroke-linejoin:round;stroke-dasharray:none;stroke-opacity:1;paint-order:markers stroke fill"
     transform="translate(15,15)"><path
       style="baseline-shift:baseline;display:inline;overflow:visible;vector-effect:none;fill:#ffffff;stroke:none;enable-background:accumulate;stop-color:#000000;stop-opacity:1"
       d="m 780.91992,117.53906 c -8.42172,0 -15.66992,7.25016 -15.66992,15.67188 V 286.33008 C 765.25,294.7518 772.4982,302 780.91992,302 h 34.66016 C 824.0018,302 831.25,294.7518 831.25,286.33008 V 133.21094 c 0,-8.42172 -7.2482,-15.67188 -15.66992,-15.67188 z m 14.33008,30 h 6 V 272 h -6 z"
       id="path36" /><path
       style="baseline-shift:baseline;display:inline;overflow:visible;vector-effect:none;stroke:none;enable-background:accumulate;stop-color:#000000;stop-opacity:1"
       d="m 780.92,132.53999 h 34.66 c 0.37118,0 0.67,0.29882 0.67,0.67 V 286.33 c 0,0.37118 -0.29882,0.67 -0.67,0.67 h -34.66 c -0.37118,0 -0.67,-0.29882 -0.67,-0.67 V 133.20999 c 0,-0.37118 0.29882,-0.67 0.67,-0.67 z"
       id="path37" /></g><g
     id="path8"
     style="fill:#0078d6;fill-opacity:1;stroke:#ffffff;stroke-width:30;stroke-linecap:round;stroke-linejoin:round;stroke-dasharray:none;stroke-opacity:1;paint-order:markers stroke fill"
     transform="translate(15,15)"><path
       style="baseline-shift:baseline;display:inline;overflow:visible;vector-effect:none;fill:#ffffff;stroke:none;enable-background:accumulate;stop-color:#000000;stop-opacity:1"
       d="m 1359.877,118 c -9.0911,0.0867 -16.7476,8.92455 -15.0098,18.25 0.8788,4.95031 2.3658,8.8002 2.7441,10.0957 14.0155,48.13483 28.0676,96.27571 42.1563,144.42383 1.8532,6.53823 7.9427,11.17913 14.7383,11.23047 a 15.0015,15.0015 0 0 0 0.1132,0 h 37.5704 c 6.8542,0.032 13.0638,-4.51614 15.1015,-11.06055 a 15.0015,15.0015 0 0 0 0.082,-0.26758 l 17.5,-60.11914 16.1641,59.47461 c 2e-4,5.9e-4 -10e-5,0.001 0,0.002 1.8894,6.99917 8.3967,11.97732 15.6465,11.9707 H 1545 a 15.0015,15.0015 0 0 0 0.064,0 c 6.8817,-0.0295 13.0654,-4.69105 14.9882,-11.29883 a 15.0015,15.0015 0 0 0 0.014,-0.0469 c 14.1937,-49.38119 28.374,-98.73969 42.541,-148.07422 a 15.0015,15.0015 0 0 0 0,-0.002 c 0.3253,-1.13361 0.7175,-2.3232 1.1817,-3.56445 l -0.039,0.10547 c 3.744,-9.78938 -4.2465,-21.24724 -14.7266,-21.11719 l 0.1875,-0.002 h -33.4511 a 15.0015,15.0015 0 0 0 -0.018,0 c -7.163,0.008 -13.4144,5.01123 -15.1563,11.76367 a 15.0015,15.0015 0 0 0 -0.061,0.24414 l -14.4336,60.11719 -15.4102,-60.22266 a 15.0015,15.0015 0 0 0 -0.019,-0.0781 C 1508.8643,122.94964 1502.51,118.02565 1495.4043,118 a 15.0015,15.0015 0 0 0 -0.055,0 h -33.9414 c -7.0537,-0.0269 -13.4123,4.75943 -15.3379,11.54492 -4e-4,0.001 0,0.002 0,0.004 l -18.586,64.80273 c -5.2623,-21.50598 -10.5417,-43.01406 -15.7754,-64.51562 -1.7052,-7.11785 -8.17,-11.78217 -14.8965,-11.83594 a 15.0015,15.0015 0 0 0 -0.121,0 h -36.67 a 15.0015,15.0015 0 0 0 -0.1425,0 z m 19.4687,30 h 5.9199 c 8.2146,33.71768 16.4534,67.43948 24.7383,101.16797 0.5048,2.06406 0.8774,3.69701 1.0977,4.76172 a 15.0015,15.0015 0 0 0 0.01,0.043 c 0.1959,0.93293 0.3468,1.90979 1.2422,3.89843 0.4476,0.99433 1.0253,2.30998 2.7539,4.19336 1.7285,1.88339 5.5105,4.72887 10.6211,4.91992 3.2744,0.12241 5.8185,-0.92083 7.916,-2.12695 L 1431.5625,272 h -16.0215 c -12.0919,-41.33872 -24.1574,-82.67111 -36.1953,-124 z m 92.6406,0 h 12.3614 l 13.2109,51.63477 -7.0332,-25.87891 a 15.0015,15.0015 0 0 0 -0.012,-0.041 c -0.2877,-1.0466 -0.5414,-2.16538 -1.6934,-4.24218 -0.576,-1.03841 -1.3543,-2.39767 -3.2558,-4.10938 -1.9016,-1.71171 -5.6054,-3.89777 -10.1055,-3.92969 -3.3349,-0.0237 -5.9645,1.18409 -8.0371,2.47852 z m 95.0703,0 h 2.7813 c -5.636,19.62469 -11.2817,39.26441 -16.9219,58.89648 z m -54.4336,98.22656 -0.01,0.0312 v -0.0215 c 2e-4,-5.7e-4 0,-0.009 0,-0.01 z m -1.2929,7.23242 c 1e-4,5.9e-4 0,0.001 0,0.002 l 0.01,0.0273 z m 2.4062,5.69922 c 0.4611,0.71191 1.078,1.52103 2.0528,2.49219 1.8301,1.82331 5.765,4.49539 10.8672,4.45703 4.9421,-0.0372 8.6491,-2.57757 10.5175,-4.41015 -0.9873,3.4355 -1.9734,6.867 -2.9609,10.30273 h -16.9863 z"
       id="path38" /><path
       style="baseline-shift:baseline;display:inline;overflow:visible;vector-effect:none;stroke:none;enable-background:accumulate;stop-color:#000000;stop-opacity:1"
       d="m 1425.79,250.89 q 0.46,2.19 1.07,0.04 l 33.64,-117.29 a 0.88,0.88 0 0 1 0.85,-0.64 h 34 a 0.83,0.83 0 0 1 0.8,0.62 l 29.72,116.15 q 0.68,2.68 1.33,-0.01 l 27.91,-116.25 a 0.68,0.67 -82.8 0 1 0.65,-0.51 h 33.45 a 0.56,0.56 0 0 1 0.53,0.76 q -0.89,2.38 -1.55,4.68 -21.25,74 -42.54,148.07 A 0.68,0.68 0 0 1 1545,287 h -38.33 a 1.19,1.19 0 0 1 -1.15,-0.88 l -29.47,-108.43 q -0.69,-2.51 -1.41,-0.01 l -31.67,108.8 a 0.74,0.74 0 0 1 -0.71,0.52 h -37.64 a 0.44,0.44 0 0 1 -0.42,-0.32 q -21.15,-72.28 -42.19,-144.54 c -0.66,-2.26 -1.9,-5.68 -2.41,-8.64 a 0.43,0.42 -5.1 0 1 0.42,-0.5 h 36.67 a 0.45,0.43 -6.6 0 1 0.43,0.33 q 13.66,56.12 27.45,112.26 0.8,3.27 1.22,5.3 z"
       id="path39" /></g><g
     id="path9"
     style="fill:#0078d6;fill-opacity:1;stroke:#ffffff;stroke-width:30;stroke-linecap:round;stroke-linejoin:round;stroke-dasharray:none;stroke-opacity:1;paint-order:markers stroke fill"
     transform="translate(15,15)"><path
       style="baseline-shift:baseline;display:inline;overflow:visible;vector-effect:none;fill:#ffffff;stroke:none;enable-background:accumulate;stop-color:#000000;stop-opacity:1"
       d="M 0.00390625,174.43945 A 15.0015,15.0015 0 0 0 -15,189.43945 V 360 a 15.0015,15.0015 0 0 0 15,15 h 170.18945 a 15.0015,15.0015 0 0 0 15,-14.97852 c 0.08,-55.67356 0.0614,-111.34792 -0.0586,-167.02148 0,-0.0849 0.026,0.19701 -0.1582,0.93555 2.38154,-9.53083 -5.36168,-19.45043 -15.18555,-19.45508 a 15.0015,15.0015 0 0 0 -0.004,0 z M 155.86133,186.71094 c -0.2928,1.18247 -0.27134,2.19437 -0.38086,3.27929 -0.009,-1.08743 0.11179,-2.18554 0.38086,-3.27929 z M 15,204.44336 l 140.13477,0.0332 c 0.0894,46.84137 0.10104,93.68207 0.0488,140.52344 H 15 Z"
       id="path40" /><path
       style="baseline-shift:baseline;display:inline;overflow:visible;vector-effect:none;stroke:none;enable-background:accumulate;stop-color:#000000;stop-opacity:1"
       d="M 170.19,360 H 0 V 189.44 l 169.78,0.04 a 0.66,0.66 0 0 1 0.64,0.82 q -0.29,1.16 -0.29,2.7 0.18,83.5 0.06,167 z"
       id="path41" /></g><g
     id="path10"
     style="fill:#0078d6;fill-opacity:1;stroke:#ffffff;stroke-width:30;stroke-linecap:round;stroke-linejoin:round;stroke-dasharray:none;stroke-opacity:1;paint-order:markers stroke fill"
     transform="translate(15,15)"><path
       style="baseline-shift:baseline;display:inline;overflow:visible;vector-effect:none;fill:#ffffff;stroke:none;enable-background:accumulate;stop-color:#000000;stop-opacity:1"
       d="m 353.42578,174.35156 c -1.98215,0.0472 -3.39813,0.15821 -3.82617,0.15821 -53.26641,-0.0267 -106.52621,-0.0205 -159.7793,0.0195 -8.38826,0 -15.50976,7.1215 -15.50976,15.50976 a 15.0015,15.0015 0 0 0 0,0.0117 l 0.1289,169.96094 a 15.0015,15.0015 0 0 0 15,14.98828 h 170.25 a 15.0015,15.0015 0 0 0 15,-14.99609 l 0.041,-169.88477 c 0.0314,-7.84273 -6.19154,-14.87996 -14.26953,-15.54687 -2.61505,-0.2373 -5.10499,-0.26666 -7.03516,-0.22071 z M 344.72656,204.50977 344.69336,345 H 204.42773 l -0.10546,-140.47266 c 46.79706,-0.0298 93.59693,-0.0392 140.40429,-0.0176 z"
       id="path42" /><path
       style="baseline-shift:baseline;display:inline;overflow:visible;vector-effect:none;stroke:none;enable-background:accumulate;stop-color:#000000;stop-opacity:1"
       d="M 359.69,360 H 189.44 l -0.13,-169.96 a 0.51,0.51 0 0 1 0.51,-0.51 q 79.88,-0.06 159.78,-0.02 c 2.24,0 6.37,-0.31 9.63,0 a 0.55,0.54 -87.8 0 1 0.5,0.55 z"
       id="path43" /></g><path
     style="baseline-shift:baseline;display:inline;overflow:visible;vector-effect:none;fill:#ffffff;fill-opacity:1;stroke:none;stroke-width:30;stroke-linecap:round;stroke-linejoin:round;stroke-dasharray:none;stroke-opacity:1;paint-order:markers stroke fill;enable-background:accumulate;stop-color:#000000"
     d="m 1179.7695,305.75977 c -16.9833,-0.0334 -33.7433,-0.0272 -50.2812,0.0195 -10.1095,0.0252 -21.2526,5.65749 -25.5449,14.05273 -4.2934,8.39735 -3.574,15.51612 -3.2735,21.48242 0.2382,4.73226 1.8153,9.15912 4.2813,12.98828 -2.5224,2.7743 -4.1889,6.3362 -4.3653,10.26368 a 15.0015,15.0015 0 0 0 0,0.0351 c 0.03,-0.71574 -0.5061,2.74081 -0.2207,7.07813 0.1427,2.16865 0.258,4.95394 2.5215,8.97461 2.2634,4.02066 9.0667,8.70696 14.7871,8.75586 a 15.0015,15.0015 0 0 0 0.01,0 c 20.589,0.16766 38.3812,0.0618 53.4278,-0.32422 10.7801,-0.27809 21.6773,-7.55351 25.3672,-16.24219 3.6899,-8.68868 2.8104,-16.474 1.5254,-23.15625 a 15.0015,15.0015 0 0 0 0,-0.0176 c -0.7357,-3.80122 -2.4353,-7.18072 -4.6582,-10.14648 1.9438,-2.64452 3.1426,-5.85603 3.1426,-9.32422 l 0.029,-7.56445 c 0.051,-9.08972 -7.5959,-16.82408 -16.6856,-16.875 a 15.0015,15.0015 0 0 0 -0.055,0 z"
     id="path44" /><path
     style="baseline-shift:baseline;display:inline;overflow:visible;vector-effect:none;fill:#ffffff;fill-opacity:1;stroke:none;stroke-width:30;stroke-linecap:round;stroke-linejoin:round;stroke-dasharray:none;stroke-opacity:1;paint-order:markers stroke fill;enable-background:accumulate;stop-color:#000000"
     d="m 1003.4492,305.75 c -8.98124,0 -16.67967,7.69843 -16.67967,16.67969 v 50.33984 c 0,8.98126 7.69843,16.67969 16.67967,16.67969 h 10.3809 c 8.9812,0 16.6797,-7.69843 16.6797,-16.67969 v -50.33984 c 0,-8.98126 -7.6985,-16.67969 -16.6797,-16.67969 z"
     id="path46" /><path
     style="baseline-shift:baseline;display:inline;overflow:visible;vector-effect:none;fill:#ffffff;fill-opacity:1;stroke:none;stroke-width:30;stroke-linecap:round;stroke-linejoin:round;stroke-dasharray:none;stroke-opacity:1;paint-order:markers stroke fill;enable-background:accumulate;stop-color:#000000"
     d="m 1043.8906,305.54687 c -5.4104,-0.23251 -10.1193,0.39141 -11.4492,0.50391 0,1e-4 0,-10e-5 0,0 -5.583,0.46382 -13.2302,4.2553 -16.543,9.9082 -3.3134,5.65409 -3.1015,10.05514 -3.1152,13.23633 a 15.0015,15.0015 0 0 0 0,0.0176 c -0.047,14.72123 -0.05,29.27954 -0.01,43.67578 0.01,8.19006 6.4035,15.38846 14.6504,16.25586 5.0748,0.54814 10.1965,0.49198 15.2676,-0.16797 7.5386,-0.97149 13.6109,-7.64161 13.5625,-15.50976 v -5.15625 c 3.2144,3.58312 6.4277,7.15871 9.6426,10.74414 2.1913,2.44415 4.8394,5.30228 9.1172,7.51562 4.2789,2.21391 9.0779,2.8423 12.9629,2.84961 h -0.031 c 0.913,0.004 5.9988,0.75455 12.502,-0.30078 3.2515,-0.52767 7.4385,-1.52472 11.6777,-5.11719 4.2392,-3.59246 7.1191,-10.26185 7.1191,-15.75195 0.013,-15.63254 0.013,-31.14597 0,-46.53906 0,-8.63127 -7.3199,-15.95117 -15.9511,-15.95117 l -10.7207,-0.0195 a 15.0015,15.0015 0 0 0 -0.029,0 c -9.0897,0 -16.7793,7.68963 -16.7793,16.7793 v 4.13477 c -3.8883,-4.2891 -7.8622,-8.70249 -11.7168,-12.94336 a 15.0015,15.0015 0 0 0 0,-0.004 c -7.0123,-7.71018 -14.7259,-7.9272 -20.1465,-8.16016 z"
     id="path48" /><path
     style="baseline-shift:baseline;display:inline;overflow:visible;vector-effect:none;fill:#0078d6;fill-opacity:1;stroke:none;stroke-width:30;stroke-linecap:round;stroke-linejoin:round;stroke-dasharray:none;stroke-opacity:1;paint-order:markers stroke fill;enable-background:accumulate;stop-color:#000000"
     d="m 1003.45,320.75 h 10.38 c 0.9307,0 1.68,0.74928 1.68,1.68 v 50.34 c 0,0.93072 -0.7493,1.68 -1.68,1.68 h -10.38 c -0.9307,0 -1.68,-0.74928 -1.68,-1.68 v -50.34 c 0,-0.93072 0.7493,-1.68 1.68,-1.68 z"
     id="path47" /><path
     style="baseline-shift:baseline;display:inline;overflow:visible;vector-effect:none;fill:#0078d6;fill-opacity:1;stroke:none;stroke-width:30;stroke-linecap:round;stroke-linejoin:round;stroke-dasharray:none;stroke-opacity:1;paint-order:markers stroke fill;enable-background:accumulate;stop-color:#000000"
     d="m 1041.55,330.07 a 0.57,0.57 0 0 0 -0.3,0.5 v 40.99 a 0.54,0.55 86.4 0 1 -0.48,0.54 q -5.9,0.77 -11.78,0.13 a 1.36,1.37 3 0 1 -1.22,-1.36 q -0.06,-21.56 0.01,-43.61 c 0.02,-4.65 0.83,-7.84 5.9,-8.26 4.05,-0.34 15.04,-1.84 19.26,2.8 q 17.56,19.32 35.59,39.31 a 1.27,1.27 0 0 0 2.22,-0.85 l 0.01,-39.74 a 1.78,1.78 0 0 1 1.78,-1.78 l 10.75,0.02 a 0.95,0.95 0 0 1 0.95,0.95 q 0.02,23.09 0,46.54 c 0,7.92 -11.12,6.19 -16.24,6.17 -5.31,-0.01 -7.3,-1.32 -10.94,-5.38 q -16.4,-18.29 -32.79,-36.54 -1.14,-1.27 -2.72,-0.43 z"
     id="path49" /><path
     style="baseline-shift:baseline;display:inline;overflow:visible;vector-effect:none;fill:#ffffff;fill-opacity:1;stroke:none;stroke-width:30;stroke-linecap:round;stroke-linejoin:round;stroke-dasharray:none;stroke-opacity:1;paint-order:markers stroke fill;enable-background:accumulate;stop-color:#000000"
     d="m 1191.1641,305.75 c -7.5535,0.0233 -14.017,5.63791 -15.3164,12.85156 a 15.0015,15.0015 0 0 0 -0.014,0.0742 c -0.8629,4.93366 -0.8472,10.02646 0.045,14.95508 10e-5,6.3e-4 -10e-5,0.001 0,0.002 1.324,7.33872 7.9099,12.84569 15.3672,12.84766 l 14.5039,0.0351 v 26.88477 c 0,8.66993 7.3496,16.01953 16.0195,16.01953 a 15.0015,15.0015 0 0 0 0.025,0 l 11.9551,-0.0195 c 8.6037,0 15.9004,-7.29673 15.9004,-15.90039 l 0.053,-27.00391 14.5176,-0.006 c 8.6699,0 16.0195,-7.34959 16.0195,-16.01953 l 0.02,-8.18359 a 15.0015,15.0015 0 0 0 0,-0.0371 c 0,-8.93503 -7.565,-16.5 -16.5,-16.5 h -72.5489 a 15.0015,15.0015 0 0 0 -0.047,0 z"
     id="path50" /><path
     style="baseline-shift:baseline;display:inline;overflow:visible;vector-effect:none;fill:#0078d6;fill-opacity:1;stroke:none;stroke-width:30;stroke-linecap:round;stroke-linejoin:round;stroke-dasharray:none;stroke-opacity:1;paint-order:markers stroke fill;enable-background:accumulate;stop-color:#000000"
     d="m 1127,351.7 c -6.24,-0.18 -11.05,-5.18 -11.35,-11.14 -0.54,-10.72 0.31,-19.75 13.88,-19.78 q 24.77,-0.07 50.21,-0.02 a 1.78,1.78 0 0 1 1.77,1.79 l -0.03,7.65 a 1.05,1.04 0 0 1 -1.05,1.04 q -23.47,0.01 -46.93,0.02 c -6.07,0 -5.84,11.36 -0.36,11.29 q 21.92,-0.29 37.85,0.21 c 6.07,0.19 11.08,3.56 12.28,9.76 1.95,10.14 0.63,21.23 -12.55,21.57 q -22.22,0.57 -52.92,0.32 c -3.51,-0.03 -2.33,-6.82 -2.23,-9.17 a 1.56,1.56 0 0 1 1.56,-1.49 q 24.87,0 49.12,0 c 4.76,0 5.9,-11.8 -1,-11.72 q -19.13,0.22 -38.25,-0.33 z"
     id="path45" /><path
     style="baseline-shift:baseline;display:inline;overflow:visible;vector-effect:none;fill:#ffffff;fill-opacity:1;stroke:none;stroke-width:30;stroke-linecap:round;stroke-linejoin:round;stroke-dasharray:none;stroke-opacity:1;paint-order:markers stroke fill;enable-background:accumulate;stop-color:#000000"
     d="m 1297.7285,305.63867 c -2.0049,0.0212 -4.2892,0.20031 -6.9082,0.76172 -5.2381,1.12282 -11.9591,5.00018 -15.6601,10.73047 -10.4372,16.12956 -20.7981,32.22268 -31.0821,48.2793 a 15.0015,15.0015 0 0 0 -0.066,0.10351 c -5.6942,9.05333 0.5501,22.18504 11.166,23.48438 a 15.0015,15.0015 0 0 0 0.125,0.0156 c 5.8122,0.66214 11.6634,0.68677 17.4786,0.0742 4.9735,-0.52039 9.3819,-3.31967 11.9941,-7.44727 l 1.9434,-3.04687 26.3593,0.15234 2.0801,3.23243 c 2.9374,4.5878 8.0582,7.38614 13.5059,7.38085 l 13.1699,0.0508 a 15.0015,15.0015 0 0 0 0.2129,0 c 9.6066,-0.10014 17.4284,-9.97944 14.7871,-19.59375 a 15.0015,15.0015 0 0 0 -0.018,-0.0645 c -0.7056,-2.52454 -1.8154,-4.96728 -3.2285,-7.14843 -9.4967,-14.67542 -19.0389,-29.33147 -28.6289,-43.9668 v -0.002 c -1.9843,-3.0379 -4.6923,-6.61113 -9.0703,-9.24219 -4.3762,-2.63 -9.1576,-3.38719 -12.9394,-3.56446 0,-1.1e-4 -0.01,-0.002 -0.01,-0.002 -1.5022,-0.0736 -3.2173,-0.2086 -5.211,-0.1875 z m -8.4101,14.7168 c -0.013,0.0116 -0.022,0.0236 -0.035,0.0351 -0.01,0.009 -0.021,0.0145 -0.031,0.0234 z m -10.3555,58.19336 h 0.088 c 0,0 -0.01,0.002 -0.012,0.002 z"
     id="path52" /><path
     style="baseline-shift:baseline;display:inline;overflow:visible;vector-effect:none;fill:#0078d6;fill-opacity:1;stroke:none;stroke-width:30;stroke-linecap:round;stroke-linejoin:round;stroke-dasharray:none;stroke-opacity:1;paint-order:markers stroke fill;enable-background:accumulate;stop-color:#000000"
     d="m 1220.15,331.55 -28.9,-0.07 a 0.62,0.62 0 0 1 -0.61,-0.51 q -0.88,-4.85 -0.03,-9.71 a 0.61,0.62 5.1 0 1 0.6,-0.51 h 72.55 a 1.5,1.5 0 0 1 1.5,1.5 l -0.02,8.22 a 1.02,1.02 0 0 1 -1.02,1.02 l -28.98,0.01 a 0.52,0.52 0 0 0 -0.51,0.51 l -0.08,41.49 a 0.9,0.9 0 0 1 -0.9,0.9 l -11.98,0.02 a 1.02,1.02 0 0 1 -1.02,-1.02 v -41.25 a 0.6,0.6 0 0 0 -0.6,-0.6 z"
     id="path51" /><path
     style="baseline-shift:baseline;display:inline;overflow:visible;vector-effect:none;fill:#ffffff;fill-opacity:1;stroke:none;stroke-width:30;stroke-linecap:round;stroke-linejoin:round;stroke-dasharray:none;stroke-opacity:1;paint-order:markers stroke fill;enable-background:accumulate;stop-color:#000000"
     d="m 1347.2891,305.75 c -8.5132,8.8e-4 -15.8999,7.14531 -15.9883,15.81641 -0.1145,10.07433 -0.1086,20.13066 0.02,30.16601 a 15.0015,15.0015 0 0 0 0,0.004 c 0.083,6.35775 0.1156,13.70135 4.4257,21.67773 4.3102,7.97639 14.1226,13.96921 24.1211,15.11719 a 15.0015,15.0015 0 0 0 0,0.002 c 17.3808,1.99397 34.8624,1.11691 50.4687,0.73242 a 15.0015,15.0015 0 0 0 0.025,0 c 8.2712,-0.21787 15.3456,-7.26648 15.3457,-15.74609 a 15.0015,15.0015 0 0 0 0,-0.0312 l -0.021,-9.1543 c 0,-8.29106 -6.9301,-15.56602 -15.4493,-15.6914 a 15.0015,15.0015 0 0 0 -0.039,-0.002 c -11.7013,-0.14069 -23.3994,-0.1565 -35.0957,-0.12304 -0.096,-8.60168 -0.1548,-17.23463 -0.057,-25.9961 0.1166,-9.09557 -7.5709,-16.77141 -16.5683,-16.77148 h -11.1875 z"
     id="path54" /><path
     style="baseline-shift:baseline;display:inline;overflow:visible;vector-effect:none;fill:#0078d6;fill-opacity:1;stroke:none;stroke-width:30;stroke-linecap:round;stroke-linejoin:round;stroke-dasharray:none;stroke-opacity:1;paint-order:markers stroke fill;enable-background:accumulate;stop-color:#000000"
     d="m 1257,374.11 a 0.4,0.4 0 0 1 -0.29,-0.61 q 15.41,-24.06 31.05,-48.23 c 3.21,-4.97 8.51,-4.75 14.48,-4.46 5.14,0.24 7.26,1.59 10.16,6.03 q 14.37,21.93 28.6,43.92 0.92,1.42 1.37,3.03 a 0.49,0.5 82.4 0 1 -0.48,0.62 l -13.24,-0.05 a 1.02,1.02 0 0 1 -0.86,-0.47 l -6.22,-9.67 a 0.96,0.98 73.9 0 0 -0.79,-0.43 l -41.73,-0.24 a 0.97,0.98 16.6 0 0 -0.82,0.45 l -6.13,9.62 a 1.18,1.2 13.4 0 1 -0.88,0.55 q -7.11,0.75 -14.22,-0.06 z m 27.96,-19.37 29.67,0.01 a 0.46,0.46 0 0 0 0.39,-0.71 l -14.29,-22.28 a 0.96,0.95 52.6 0 0 -1.44,-0.2 q -1,0.89 -1.89,2.31 -6.42,10.1 -12.85,20.13 a 0.48,0.48 0 0 0 0.41,0.74 z"
     id="path53" /><path
     style="baseline-shift:baseline;display:inline;overflow:visible;vector-effect:none;fill:#ffffff;fill-opacity:1;stroke:none;stroke-width:30;stroke-linecap:round;stroke-linejoin:round;stroke-dasharray:none;stroke-opacity:1;paint-order:markers stroke fill;enable-background:accumulate;stop-color:#000000"
     d="m 1429.6699,305.74023 -10.8886,0.0293 c -8.7509,-2.8e-4 -16.18,7.37057 -16.25,16.12109 a 15.0015,15.0015 0 0 0 0,0.004 c -0.087,11.38142 -0.067,22.79843 0.06,34.25195 0.1416,12.95178 8.4746,25.02622 17.9687,29.32422 9.4952,4.29844 18.1593,3.98817 25.1211,4.01953 10.8454,0.0469 21.693,0.0297 32.545,-0.0508 a 15.0015,15.0015 0 0 0 0.02,0 c 0.3168,-0.003 1.6829,0.94915 7.3164,-0.88476 2.8167,-0.91696 6.7031,-3.51376 8.7949,-6.75391 2.0913,-3.23933 2.5714,-6.19863 2.7422,-8.35742 v -0.002 c 0.3206,-4.05366 0.2258,-8.04351 -0.5156,-12.02149 -1.3246,-7.17937 -7.7665,-12.75732 -15.2949,-12.7793 -11.6396,-0.13373 -23.2728,-0.1548 -34.9024,-0.13085 -0.1262,-8.42768 -0.1977,-16.99893 -0.092,-26.03125 0.1195,-9.06166 -7.5649,-16.79756 -16.6269,-16.73829 z"
     id="path56" /><path
     style="baseline-shift:baseline;display:inline;overflow:visible;vector-effect:none;fill:#0078d6;fill-opacity:1;stroke:none;stroke-width:30;stroke-linecap:round;stroke-linejoin:round;stroke-dasharray:none;stroke-opacity:1;paint-order:markers stroke fill;enable-background:accumulate;stop-color:#000000"
     d="m 1361.58,373.63 c -13.5,-1.55 -15.11,-10.68 -15.26,-22.09 q -0.19,-14.88 -0.02,-29.82 a 0.99,0.98 0.3 0 1 0.99,-0.97 h 11.19 a 1.57,1.56 0.4 0 1 1.57,1.58 q -0.18,16.05 0.07,31.76 c 0.11,6.95 3.49,9.45 9.99,9.41 q 19.95,-0.1 39.91,0.14 a 0.68,0.69 0.4 0 1 0.67,0.69 l 0.02,9.19 a 0.75,0.76 89.2 0 1 -0.74,0.75 c -15.83,0.39 -32.7,1.16 -48.39,-0.64 z"
     id="path55" /><path
     style="baseline-shift:baseline;display:inline;overflow:visible;vector-effect:none;fill:#ffffff;fill-opacity:1;stroke:none;stroke-width:30;stroke-linecap:round;stroke-linejoin:round;stroke-dasharray:none;stroke-opacity:1;paint-order:markers stroke fill;enable-background:accumulate;stop-color:#000000"
     d="m 1555.8906,305.75977 c -14.2209,-0.0267 -28.4161,-0.0205 -42.584,0.0195 -6.5596,0.0181 -14.0669,0.47121 -21.832,4.46875 -7.7658,3.99791 -14.6539,12.99555 -16.2676,23.10742 a 15.0015,15.0015 0 0 0 0,0.0176 c -1.3165,8.30878 -1.1705,17.44956 -0.016,27.92968 1.4141,12.90752 12.2858,22.79485 21.4023,25.70508 9.1165,2.91024 17.2328,2.47273 22.6035,2.49219 11.8252,0.0402 23.9501,0.0198 36.377,-0.0605 8.94,-0.059 16.4607,-7.67743 16.4024,-16.61718 l -0.021,-7.66016 a 15.0015,15.0015 0 0 0 0,-0.0644 c -0.019,-2.72208 -0.8072,-5.28315 -2.0625,-7.57618 1.0183,-2.12707 1.6324,-4.46324 1.6133,-6.92773 l -0.029,-7.34375 c 0,-2.15372 -0.4772,-4.21978 -1.3125,-6.10938 1.1182,-2.18656 1.8125,-4.61026 1.8125,-7.1914 l 0.01,-8.06055 a 15.0015,15.0015 0 0 0 0,-0.0195 c 0,-8.6466 -7.3118,-16.10937 -16.0996,-16.10937 z m -67.2226,38.97851 c 0,0.0139 0.011,0.0251 0.014,0.0391 0,0.0245 0,0.0517 0.01,0.0762 z m 0.029,5.14258 c -0.01,0.0371 0,0.0781 -0.01,0.11523 -0.01,0.0396 -0.023,0.0756 -0.029,0.11524 z"
     id="path58" /><path
     style="baseline-shift:baseline;display:inline;overflow:visible;vector-effect:none;fill:#0078d6;fill-opacity:1;stroke:none;stroke-width:30;stroke-linecap:round;stroke-linejoin:round;stroke-dasharray:none;stroke-opacity:1;paint-order:markers stroke fill;enable-background:accumulate;stop-color:#000000"
     d="m 1445.75,374.49 c -13.32,-0.06 -27.97,-0.93 -28.16,-18.51 q -0.19,-17.04 -0.06,-33.97 a 1.25,1.25 0 0 1 1.25,-1.24 l 10.99,-0.03 a 1.52,1.52 0 0 1 1.53,1.54 q -0.19,16.17 0.11,31.12 c 0.14,7.24 2.96,10.11 10,10.09 q 19.91,-0.08 39.84,0.15 a 0.61,0.6 84.8 0 1 0.59,0.5 q 0.67,3.57 0.31,8.12 c -0.2,2.53 -1.73,2.16 -4.03,2.18 q -16.19,0.12 -32.37,0.05 z"
     id="path57" /><path
     style="baseline-shift:baseline;display:inline;overflow:visible;vector-effect:none;fill:#ffffff;fill-opacity:1;stroke:none;stroke-width:30;stroke-linecap:round;stroke-linejoin:round;stroke-dasharray:none;stroke-opacity:1;paint-order:markers stroke fill;enable-background:accumulate;stop-color:#000000"
     d="m 1568.2507,307.08949 c -2.1205,0 -5.094,-0.13309 -9.541,2.22266 -4.4471,2.35574 -9.1387,9.70851 -9.1387,15.27734 0,16.36365 0.065,32.72815 0.1914,49.0918 0.023,3.62728 1.7355,9.13234 5.543,12.57031 3.8103,3.44053 7.9879,4.26352 10.8691,4.44726 4.2867,0.27397 8.5287,0.22135 12.7051,-0.17578 8.2367,-0.77111 14.6643,-7.92932 14.6914,-16.08398 a 15.0015,15.0015 0 0 0 0,-0.0488 v -0.54492 l 7.7363,0.008 c 3.2387,3.64368 6.4671,7.2968 9.7813,10.88086 a 15.0015,15.0015 0 0 0 0,0.004 c 5.0494,5.45624 8.7277,5.30917 11.4199,5.75781 2.6922,0.44864 4.907,0.49902 7.0078,0.49414 4.2017,-0.01 8.1018,-0.40735 9.2481,-0.49609 12.117,-0.93793 18.547,-17.51296 10.2324,-26.37696 a 15.0015,15.0015 0 0 0 -0.047,-0.0508 l -3.6191,-3.82226 c 2.6994,-4.02818 4.2924,-8.67159 4.8593,-13.20118 a 15.0015,15.0015 0 0 0 0,-0.006 c 1.1525,-9.2323 1.1005,-19.09421 -5.2852,-27.85547 -6.3856,-8.76126 -17.4924,-12.0918 -28.0097,-12.0918 z m 28.7832,62.00781 c 0.036,0.0416 0.075,0.0814 0.1113,0.12305 0,-0.004 -0.01,-0.006 -0.012,-0.01 z"
     id="path60" /><path
     style="baseline-shift:baseline;display:inline;overflow:visible;vector-effect:none;fill:#0078d6;fill-opacity:1;stroke:none;stroke-width:30;stroke-linecap:round;stroke-linejoin:round;stroke-dasharray:none;stroke-opacity:1;paint-order:markers stroke fill;enable-background:accumulate;stop-color:#000000"
     d="m 1519.25,374.5 c -11.04,-0.04 -27.5,0.23 -29.15,-14.83 q -1.59,-14.42 -0.08,-23.95 c 1.99,-12.47 12.42,-14.91 23.33,-14.94 q 21.23,-0.06 42.54,-0.02 a 1.1,1.11 0 0 1 1.1,1.11 l -0.01,8.08 a 1.3,1.29 0 0 1 -1.3,1.29 c -14.58,0.02 -29.56,-0.53 -44.31,0.34 -5.93,0.35 -9.04,4.54 -7.93,10.55 a 0.46,0.46 0 0 0 0.45,0.38 l 51.99,0.14 a 0.6,0.6 0 0 1 0.6,0.6 l 0.03,7.46 a 1.27,1.27 0 0 1 -1.27,1.28 l -51.21,0.01 a 0.57,0.57 0 0 0 -0.56,0.48 c -1.76,10 4.72,11.27 12.9,11.27 q 19.69,0 39.14,0 a 1.46,1.45 89.8 0 1 1.45,1.45 l 0.02,7.72 a 1.51,1.51 0 0 1 -1.5,1.52 q -18.57,0.12 -36.23,0.06 z"
     id="path59" /><g
     id="path19"
     style="fill:#0078d6;fill-opacity:1;stroke:#ffffff;stroke-width:30;stroke-linecap:round;stroke-linejoin:round;stroke-dasharray:none;stroke-opacity:1;paint-order:markers stroke fill"
     transform="translate(15,15)"><path
       style="baseline-shift:baseline;display:inline;overflow:visible;vector-effect:none;fill:#ffffff;stroke:none;enable-background:accumulate;stop-color:#000000;stop-opacity:1"
       d="m 1697.4199,290.79102 c -17.3157,-0.1 -34.5979,-0.0768 -51.8476,0.0703 -6.943,0.0571 -14.0511,2.37612 -19.4961,7.38086 -5.4476,5.00706 -8.6449,12.69533 -8.6055,20.25586 a 15.0015,15.0015 0 0 0 0,0.008 c 0.011,1.87079 -0.3317,5.40578 0.4063,10.28516 0.4584,3.03111 1.7925,6.84521 4.0273,10.42968 -2.6949,2.94441 -4.4043,6.79909 -4.4043,10.99024 v 7.56836 c -7e-4,8.92847 7.4863,16.50891 16.4141,16.61914 18.3015,0.23541 36.3552,0.15512 54.1601,-0.24219 a 15.0015,15.0015 0 0 0 0.012,0 c 9.7053,-0.22388 20.703,-6.37798 25.1739,-15.46484 a 15.0015,15.0015 0 0 0 0,-0.006 c 3.6442,-7.4171 2.7653,-10.89185 2.6914,-15.57618 -0.074,-4.68432 0.6256,-7.93798 -2.9199,-15.05078 a 15.0015,15.0015 0 0 0 0,-0.008 c -0.684,-1.3701 -1.54,-2.68498 -2.4864,-3.93945 1.8353,-2.63347 2.9356,-5.79604 2.9356,-9.16211 l 0.01,-8.05078 a 15.0015,15.0015 0 0 0 0,-0.0176 c 0,-8.70193 -7.3704,-16.07857 -16.0703,-16.08984 z"
       id="path62" /><path
       style="baseline-shift:baseline;display:inline;overflow:visible;vector-effect:none;stroke:none;enable-background:accumulate;stop-color:#000000;stop-opacity:1"
       d="m 1636.44,333.56 c -4.69,-3.75 -3.94,-9.9 -3.97,-15.14 -0.04,-7.67 5.65,-12.5 13.23,-12.56 q 25.8,-0.22 51.7,-0.07 a 1.09,1.09 0 0 1 1.09,1.09 l -0.01,8.07 a 1.3,1.3 0 0 1 -1.3,1.3 q -22.85,0 -46.18,0.01 c -6.5,0 -6.47,11.23 -0.25,11.29 q 16.96,0.16 33.91,0.23 c 6.77,0.03 11.95,0.96 14.95,6.97 1.64,3.29 1.89,13.86 0.19,17.32 q -3.39,6.89 -12.06,7.09 -26.44,0.59 -53.64,0.24 a 1.62,1.62 0 0 1 -1.6,-1.62 v -7.57 a 1.46,1.46 0 0 1 1.46,-1.46 q 25.15,0.01 50.23,-0.01 c 3.44,-0.01 4.76,-11.73 -1.25,-11.73 q -15.47,0.02 -30.94,-0.05 c -6.7,-0.03 -11.13,0.15 -15.56,-3.4 z"
       id="path63" /></g><path
     style="baseline-shift:baseline;display:inline;overflow:visible;vector-effect:none;fill:#0078d6;fill-opacity:1;stroke:none;stroke-width:30;stroke-linecap:round;stroke-linejoin:round;stroke-dasharray:none;stroke-opacity:1;paint-order:markers stroke fill;enable-background:accumulate;stop-color:#000000"
     d="m 1718,256.56 v 4.75 c -1.91,23.11 -15.76,35.97 -36.67,42.03 -21.89,6.34 -43.92,3.35 -65.39,-3.89 a 1.75,1.75 0 0 1 -1.19,-1.66 v -34.8 a 0.28,0.28 0 0 1 0.45,-0.22 c 10.73,8.25 23.71,13.87 37.18,14.92 9.27,0.73 25.22,0.57 28.41,-10.94 4.22,-15.22 -10.43,-21.23 -22.09,-26.26 -20.15,-8.71 -39.09,-16.26 -43.58,-40.82 -5.87,-32.09 20.44,-52.44 49.57,-54.76 14.73,-1.17 29.51,-0.39 43.56,4.75 a 1.87,1.89 10 0 1 1.23,1.77 l 0.06,33.02 a 0.41,0.41 0 0 1 -0.63,0.34 q -14.51,-9.54 -31.66,-11.77 c -11.23,-1.45 -28.36,3.29 -25.93,18.22 2.28,13.95 23.99,20.32 35.25,25.34 q 12.34,5.51 19.97,12.86 c 8.43,8.11 9.98,15.97 11.46,27.12 z"
     id="path33" /><path
     style="baseline-shift:baseline;display:inline;overflow:visible;vector-effect:none;fill:#0078d6;fill-opacity:1;stroke:none;stroke-width:30;stroke-linecap:round;stroke-linejoin:round;stroke-dasharray:none;stroke-opacity:1;paint-order:markers stroke fill;enable-background:accumulate;stop-color:#000000"
     d="m 1581.25,358 v 15.05 a 1.21,1.2 87.4 0 1 -1.09,1.2 q -5.03,0.48 -10.35,0.14 -2.36,-0.15 -2.37,-2.14 -0.19,-24.5 -0.19,-49 c 0,-2.06 1.87,-2.5 3.68,-2.5 q 24.32,0 48.65,0 c 15.95,0 20.28,8.11 18.41,23.09 -0.9,7.19 -5.28,11.45 -12.43,12.06 a 0.47,0.47 0 0 0 -0.3,0.79 l 15.48,16.35 a 0.69,0.69 0 0 1 -0.45,1.16 c -3.1,0.24 -13.4,1.29 -15.51,-0.99 q -7,-7.57 -13.77,-15.32 a 1.1,1.14 69.9 0 0 -0.84,-0.37 l -28.41,-0.03 a 0.51,0.51 0 0 0 -0.51,0.51 z m 42.25,-13.08 c 2.04,-3.6 1.55,-13.62 -4.81,-13.64 q -18.46,-0.06 -36.93,-0.01 a 0.51,0.51 0 0 0 -0.51,0.51 v 15.94 a 0.51,0.5 0.6 0 0 0.5,0.5 q 17.76,0.1 35.48,-0.07 4.46,-0.04 6.27,-3.23 z"
     id="path61" /></svg>
