<?xml version="1.0" encoding="UTF-8" standalone="no"?>
<svg
   height="186.4767"
   viewBox="0 0 877.23671 291.7579"
   width="560.68512"
   version="1.1"
   id="svg5"
   sodipodi:docname="xash3d_fwgs.svg"
   inkscape:version="1.4.3 (0d15f75042, 2025-12-25)"
   xmlns:inkscape="http://www.inkscape.org/namespaces/inkscape"
   xmlns:sodipodi="http://sodipodi.sourceforge.net/DTD/sodipodi-0.dtd"
   xmlns="http://www.w3.org/2000/svg"
   xmlns:svg="http://www.w3.org/2000/svg">
  <defs
     id="defs5" />
  <sodipodi:namedview
     id="namedview5"
     pagecolor="#7e7e7e"
     bordercolor="#000000"
     borderopacity="0.25"
     inkscape:showpageshadow="2"
     inkscape:pageopacity="0.0"
     inkscape:pagecheckerboard="0"
     inkscape:deskcolor="#d1d1d1"
     inkscape:zoom="0.79456554"
     inkscape:cx="363.09151"
     inkscape:cy="-59.151823"
     inkscape:window-width="1920"
     inkscape:window-height="1080"
     inkscape:window-x="0"
     inkscape:window-y="0"
     inkscape:window-maximized="0"
     inkscape:current-layer="svg5" />
  <path
     style="baseline-shift:baseline;display:inline;overflow:visible;opacity:0.98;vector-effect:none;fill:#ffffff;stroke-linecap:round;stroke-linejoin:round;paint-order:markers stroke fill;enable-background:accumulate;stop-color:#000000;stop-opacity:1"
     d="M 145.87891,0 C 65.497588,0 0,65.497588 0,145.87891 c 0,80.38131 65.497588,145.8789 145.87891,145.8789 80.38131,0 145.8789,-65.49759 145.8789,-145.8789 C 291.75781,65.497588 226.26022,0 145.87891,0 Z m 0,31.291016 c 63.47008,0 114.58789,51.117807 114.58789,114.587894 0,63.47008 -51.11781,114.58789 -114.58789,114.58789 -63.470087,0 -114.587894,-51.11781 -114.587894,-114.58789 0,-63.470087 51.117807,-114.587894 114.587894,-114.587894 z"
     id="circle2-7" />
  <g
     fill="#ffffff"
     fill-opacity="0.4"
     stroke-width="3.911"
     id="g1"
     transform="translate(8.1909809,5.9609265)">
    <path
       d="m 224.463,110.537 q 0,0.376 -0.09,0.632 -0.135,0.382 -0.432,0.382 -0.198,0 -0.413,-0.09 -0.26,-0.11 -0.285,-0.27 0.088,0 0.206,0.032 0.276,0.072 0.344,0.072 0.266,0 0.401,-0.266 0.106,-0.213 0.106,-0.51 0,-0.21 -0.137,-0.598 -0.135,-0.391 -0.135,-0.545 0,-0.046 0.025,-0.075 0.028,-0.03 0.075,-0.03 0.122,0 0.238,0.562 0.097,0.476 0.097,0.704 z m 1.205,0.32 q 0,0.319 -0.185,0.5 -0.184,0.182 -0.51,0.182 -0.178,0 -0.275,-0.085 -0.097,-0.084 -0.097,-0.26 0,-0.247 0.322,-0.497 0.307,-0.238 0.567,-0.238 0.119,0 0.156,0.147 0.022,0.085 0.022,0.25 z m -0.19,0.087 q 0,-0.037 -0.01,-0.072 -0.01,-0.037 -0.026,-0.084 -0.05,0.034 -0.166,0.169 -0.06,0.069 -0.103,0.1 0,-0.06 0.012,-0.097 l 0.041,-0.09 q -0.138,0 -0.288,0.115 -0.147,0.116 -0.147,0.25 0,0.09 0.1,0.09 0.191,0 0.37,-0.093 0.215,-0.113 0.215,-0.288 z m 1.479,0.041 q 0,0.153 -0.116,0.344 -0.13,0.216 -0.272,0.216 -0.04,0 -0.069,-0.044 -0.025,-0.047 -0.025,-0.09 0,-0.057 0.12,-0.176 0.121,-0.122 0.121,-0.166 0,-0.028 -0.01,-0.056 -0.01,-0.028 -0.012,-0.038 -0.234,0.054 -0.479,0.27 -0.24,0.215 -0.366,0.244 -0.025,-0.07 -0.025,-0.141 0,-0.088 0.041,-0.185 0.028,-0.069 0.094,-0.166 0.11,-0.165 0.232,-0.375 l 0.216,-0.379 q 0.156,-0.269 0.228,-0.382 0.038,-0.056 0.066,-0.084 0.041,-0.038 0.097,-0.05 0.038,0.012 0.053,0.047 0.02,0.034 0.02,0.081 0,0.107 -0.138,0.288 -0.25,0.326 -0.257,0.338 -0.14,0.213 -0.14,0.385 l 0.01,0.031 q 0.171,-0.084 0.203,-0.097 0.128,-0.053 0.219,-0.053 0.1,0 0.147,0.069 0.047,0.066 0.047,0.169 z m 1.453,-0.185 q 0,0.213 -0.104,0.454 -0.113,0.266 -0.279,0.366 -0.034,-0.04 -0.06,-0.09 -0.022,-0.05 -0.022,-0.1 0,-0.054 0.157,-0.317 0.069,-0.116 0.063,-0.203 v -0.04 q -0.116,0.034 -0.4,0.209 l -0.57,0.35 q -0.044,0 -0.081,-0.031 -0.034,-0.035 -0.034,-0.075 0,-0.066 0.21,-0.441 0.063,-0.113 0.225,-0.392 0.05,0.066 0.066,0.148 0.016,0.078 0.016,0.187 v 0.072 q 0.288,-0.172 0.45,-0.26 0.179,-0.096 0.245,-0.096 0.044,0 0.08,0.1 0.042,0.1 0.042,0.16 z m 2.718,0.607 q 0,0.057 -0.05,0.088 -0.047,0.028 -0.106,0.028 -0.053,0 -0.134,-0.012 -0.185,-0.029 -0.238,-0.029 -0.094,0 -0.37,0.022 -0.156,0.013 -0.225,0.013 -0.19,0 -0.19,-0.191 0,-0.182 0.118,-0.52 0.066,-0.19 0.247,-0.625 0.163,-0.391 0.207,-0.551 0.016,-0.05 0.025,-0.066 0.025,-0.037 0.063,-0.037 0.059,0 0.1,0.087 0.041,0.085 0.041,0.154 0,0.11 -0.128,0.369 -0.129,0.256 -0.25,0.504 -0.135,0.294 -0.135,0.447 0,0.078 0.066,0.11 0.047,0.022 0.138,0.022 0.069,0 0.237,-0.016 0.17,-0.019 0.226,-0.019 0.14,0 0.231,0.04 0.129,0.057 0.129,0.182 z m 1.164,-0.55 q 0,0.319 -0.184,0.5 -0.185,0.182 -0.51,0.182 -0.179,0 -0.276,-0.085 -0.097,-0.084 -0.097,-0.26 0,-0.247 0.323,-0.497 0.306,-0.238 0.566,-0.238 0.12,0 0.157,0.147 0.022,0.085 0.022,0.25 z m -0.19,0.087 q 0,-0.037 -0.01,-0.072 l -0.025,-0.084 q -0.05,0.034 -0.166,0.169 -0.06,0.069 -0.103,0.1 0,-0.06 0.013,-0.097 0.025,-0.053 0.04,-0.09 -0.137,0 -0.287,0.115 -0.147,0.116 -0.147,0.25 0,0.09 0.1,0.09 0.19,0 0.369,-0.093 0.216,-0.113 0.216,-0.288 z m 1.508,-0.154 q 0,0.101 -0.053,0.214 -0.05,0.112 -0.128,0.187 v -0.043 q 0,-0.038 0.01,-0.116 0.01,-0.078 0.01,-0.116 0,-0.053 -0.016,-0.078 -0.016,-0.028 -0.066,-0.028 -0.148,0 -0.367,0.228 l -0.472,0.498 q -0.019,0 -0.038,-0.004 l -0.062,-0.015 q 0.01,-0.113 0.078,-0.25 0.185,-0.373 0.19,-0.398 l 0.039,-0.147 q 0.013,-0.047 0.034,-0.097 0.025,-0.053 0.056,-0.094 0.034,-0.044 0.088,-0.066 l 0.03,0.376 0.207,-0.169 q 0.138,-0.11 0.238,-0.11 0.1,0 0.163,0.066 0.063,0.066 0.063,0.163 z m 1.536,-0.362 q 0,0.131 -0.35,0.347 -0.338,0.207 -0.491,0.207 -0.072,0 -0.097,-0.05 -0.022,-0.05 -0.022,-0.141 v -0.085 q 0.21,0 0.381,-0.062 0.172,-0.063 0.3,-0.207 -0.093,-0.034 -0.19,-0.034 -0.229,0 -0.485,0.175 -0.282,0.19 -0.282,0.407 0,0.206 0.282,0.288 0.044,0.012 0.529,0.087 0.284,0.044 0.284,0.154 0,0.047 -0.103,0.075 -0.103,0.031 -0.263,0.031 -0.4,0 -0.632,-0.122 -0.306,-0.163 -0.306,-0.523 0,-0.375 0.375,-0.597 0.32,-0.188 0.726,-0.188 0.122,0 0.222,0.056 0.122,0.07 0.122,0.182 z m 1.246,-0.56 q 0,0.069 -0.166,0.288 -0.166,0.219 -0.166,0.334 0,0.06 0.069,0.12 0.156,0.137 0.156,0.168 0,0.041 -0.028,0.079 -0.025,0.037 -0.066,0.037 -0.034,0 -0.097,-0.037 -0.044,-0.025 -0.169,-0.122 l -0.072,0.137 q -0.088,0.166 -0.119,0.241 l -0.094,0.288 q -0.08,0.194 -0.203,0.194 v -0.072 q 0,-0.222 0.144,-0.526 0.028,-0.056 0.156,-0.29 -0.247,-0.135 -0.544,-0.135 0,-0.116 0.047,-0.17 0.05,-0.055 0.166,-0.055 0.106,0 0.266,0.037 l 0.156,0.038 q 0.06,-0.02 0.163,-0.204 0.253,-0.444 0.344,-0.51 0.025,0.04 0.041,0.082 0.02,0.04 0.02,0.078 z m 1.154,1.117 q 0,0.153 -0.115,0.344 -0.132,0.216 -0.273,0.216 -0.04,0 -0.069,-0.044 -0.025,-0.047 -0.025,-0.09 0,-0.057 0.12,-0.176 0.121,-0.122 0.121,-0.166 0,-0.028 -0.01,-0.056 l -0.013,-0.038 q -0.234,0.054 -0.478,0.27 -0.241,0.215 -0.366,0.244 -0.025,-0.07 -0.025,-0.141 0,-0.088 0.04,-0.185 0.029,-0.069 0.095,-0.166 0.11,-0.165 0.231,-0.375 l 0.216,-0.379 q 0.156,-0.269 0.228,-0.382 0.038,-0.056 0.066,-0.084 0.041,-0.038 0.097,-0.05 0.038,0.012 0.053,0.047 0.02,0.034 0.02,0.081 0,0.107 -0.138,0.288 -0.25,0.326 -0.257,0.338 -0.14,0.213 -0.14,0.385 l 0.01,0.031 q 0.171,-0.084 0.203,-0.097 0.128,-0.053 0.219,-0.053 0.1,0 0.147,0.069 0.047,0.066 0.047,0.169 z m 2.569,-1.02 q 0,0.147 -0.156,0.394 -0.1,0.156 -0.329,0.45 -0.228,0.292 -0.284,0.382 l 0.234,0.075 q 0.229,0.07 0.229,0.25 -0.094,0.016 -0.185,0.029 l -0.034,-0.003 v -0.025 q -0.05,-0.013 -0.08,-0.013 -0.06,0 -0.189,0.02 -0.128,0.018 -0.194,0.018 -0.085,0 -0.137,-0.031 -0.053,-0.032 -0.053,-0.113 0,-0.066 0.24,-0.372 0.451,-0.573 0.454,-0.58 0.244,-0.331 0.244,-0.444 0,-0.043 -0.03,-0.065 -0.029,-0.022 -0.116,-0.022 -0.06,0 -0.248,0.116 -0.09,0.056 -0.147,0.056 l -0.053,-0.01 q -0.019,-0.012 -0.04,-0.047 -0.023,-0.037 -0.023,-0.059 0,-0.131 0.254,-0.24 0.216,-0.095 0.375,-0.095 0.135,0 0.207,0.1 0.062,0.088 0.062,0.229 z m 1.881,0.563 q 0,0.379 -0.41,0.67 -0.375,0.266 -0.773,0.266 -0.197,0 -0.313,-0.1 -0.116,-0.1 -0.116,-0.292 0,-0.425 0.373,-0.738 0.353,-0.297 0.792,-0.297 0.222,0 0.334,0.131 0.113,0.132 0.113,0.36 z m -0.19,0.072 q 0,-0.144 -0.164,-0.216 -0.122,-0.053 -0.29,-0.053 -0.248,0 -0.517,0.24 -0.269,0.242 -0.269,0.486 0,0.1 0.05,0.144 0.053,0.04 0.16,0.04 0.306,0 0.638,-0.169 0.391,-0.2 0.391,-0.472 z m 1.624,-0.635 q 0,0.147 -0.157,0.394 -0.1,0.156 -0.329,0.45 -0.228,0.292 -0.285,0.382 l 0.235,0.075 q 0.229,0.07 0.229,0.25 -0.094,0.016 -0.185,0.029 l -0.034,-0.003 v -0.025 q -0.05,-0.013 -0.081,-0.013 -0.06,0 -0.188,0.02 -0.128,0.018 -0.194,0.018 -0.084,0 -0.138,-0.031 -0.053,-0.032 -0.053,-0.113 0,-0.066 0.241,-0.372 0.451,-0.573 0.454,-0.58 0.244,-0.331 0.244,-0.444 0,-0.043 -0.03,-0.065 -0.029,-0.022 -0.117,-0.022 -0.059,0 -0.247,0.116 -0.09,0.056 -0.147,0.056 l -0.053,-0.01 q -0.019,-0.012 -0.04,-0.047 -0.023,-0.037 -0.023,-0.059 0,-0.131 0.253,-0.24 0.216,-0.095 0.376,-0.095 0.135,0 0.206,0.1 0.063,0.088 0.063,0.229 z m 1.439,0 q 0,0.147 -0.157,0.394 -0.1,0.156 -0.328,0.45 -0.229,0.292 -0.285,0.382 l 0.234,0.075 q 0.229,0.07 0.229,0.25 -0.094,0.016 -0.185,0.029 l -0.034,-0.003 v -0.025 q -0.05,-0.013 -0.08,-0.013 -0.06,0 -0.188,0.02 -0.129,0.018 -0.194,0.018 -0.084,0 -0.138,-0.031 -0.053,-0.032 -0.053,-0.113 0,-0.066 0.24,-0.372 0.451,-0.573 0.455,-0.58 0.244,-0.331 0.244,-0.444 0,-0.043 -0.031,-0.065 -0.028,-0.022 -0.116,-0.022 -0.06,0 -0.247,0.116 -0.091,0.056 -0.147,0.056 l -0.053,-0.01 q -0.02,-0.012 -0.041,-0.047 -0.022,-0.037 -0.022,-0.059 0,-0.131 0.253,-0.24 0.216,-0.095 0.375,-0.095 0.135,0 0.207,0.1 0.063,0.088 0.063,0.229 z"
       id="path1" />
  </g>
  <g
     id="g25"
     transform="translate(-580.44272,349.47892)">
    <path
       style="baseline-shift:baseline;display:inline;overflow:visible;vector-effect:none;fill:#ffffff;stroke:none;stroke-width:20.7991;stroke-linecap:round;stroke-linejoin:round;stroke-dasharray:none;stroke-opacity:1;paint-order:markers stroke fill;enable-background:accumulate;stop-color:#000000"
       d="m 1375.8482,-188.01996 a 10.400569,10.400569 0 0 0 -10.4013,10.39869 v 76.02854 a 10.400569,10.400569 0 0 0 10.4013,10.398674 h 47.9041 a 10.400569,10.400569 0 0 0 10.3986,-10.398674 v -12.29668 a 10.400569,10.400569 0 0 0 -10.3986,-10.40128 h -24.139 v -0.3713 h 18.3619 a 10.400569,10.400569 0 0 0 10.4013,-10.39867 v -12.51738 a 10.400569,10.400569 0 0 0 -4.3932,-7.91131 10.400569,10.400569 0 0 0 8.7785,-9.72881 v -12.40313 a 10.400569,10.400569 0 0 0 -10.3987,-10.39867 z"
       id="path24" />
    <path
       style="baseline-shift:baseline;display:inline;overflow:visible;vector-effect:none;fill:#ffffff;stroke:none;stroke-width:20.7991;stroke-linecap:round;stroke-linejoin:round;stroke-dasharray:none;stroke-opacity:1;paint-order:markers stroke fill;enable-background:accumulate;stop-color:#000000"
       d="m 1232.2969,-188.01996 a 10.400569,10.400569 0 0 0 -10.3986,10.39869 v 76.02854 a 10.400569,10.400569 0 0 0 10.3986,10.398674 h 13.5819 a 10.400569,10.400569 0 0 0 10.3988,-10.398674 v -23.06665 h 11.7306 a 10.400569,10.400569 0 0 0 10.3987,-10.40128 v -12.29928 a 10.400569,10.400569 0 0 0 -4.0919,-7.78668 10.400569,10.400569 0 0 0 9.3367,-9.95988 v -12.51218 a 10.400569,10.400569 0 0 0 -10.3987,-10.40129 h -1.0723 z"
       id="path23" />
    <path
       style="baseline-shift:baseline;display:inline;overflow:visible;vector-effect:none;fill:#ffffff;stroke:none;stroke-width:20.7991;stroke-linecap:round;stroke-linejoin:round;stroke-dasharray:none;stroke-opacity:1;paint-order:markers stroke fill;enable-background:accumulate;stop-color:#000000"
       d="m 1109.5042,-188.01996 -12.089,0.003 a 10.400569,10.400569 0 0 0 -10.3986,10.39869 v 76.13499 a 10.400569,10.400569 0 0 0 10.3986,10.398692 h 13.2652 a 10.400569,10.400569 0 0 0 10.3987,-10.398692 v -76.13499 a 10.400569,10.400569 0 0 0 -10.3987,-10.40129 z"
       id="path22" />
    <path
       style="baseline-shift:baseline;display:inline;overflow:visible;vector-effect:none;fill:#ffffff;stroke:none;stroke-width:20.7991;stroke-linecap:round;stroke-linejoin:round;stroke-dasharray:none;stroke-opacity:1;paint-order:markers stroke fill;enable-background:accumulate;stop-color:#000000"
       d="m 939.81997,-188.01996 a 10.400569,10.400569 0 0 0 -10.39869,10.40129 v 75.91689 a 10.400569,10.400569 0 0 0 10.39869,10.398676 h 51.00679 a 10.400569,10.400569 0 0 0 10.40124,-10.398676 v -12.29408 a 10.400569,10.400569 0 0 0 -10.40124,-10.40129 h -27.2417 v -53.22153 a 10.400569,10.400569 0 0 0 -10.40129,-10.40128 z"
       id="path21" />
    <path
       style="baseline-shift:baseline;display:inline;overflow:visible;vector-effect:none;fill:#fb7e14;stroke:none;stroke-width:20.7991;stroke-linecap:round;stroke-linejoin:round;stroke-dasharray:none;stroke-opacity:1;paint-order:markers stroke fill;enable-background:accumulate;stop-color:#000000"
       d="m 1423.7512,-113.89055 v 12.29667 h -47.9038 v -76.02667 h 46.5146 v 12.40302 h -33.1478 v 17.64074 h 28.7622 v 12.51602 h -28.7622 v 21.17022 z"
       id="path17" />
    <path
       style="baseline-shift:baseline;display:inline;overflow:visible;vector-effect:none;fill:#fb7e14;stroke:none;stroke-width:20.7991;stroke-linecap:round;stroke-linejoin:round;stroke-dasharray:none;stroke-opacity:1;paint-order:markers stroke fill;enable-background:accumulate;stop-color:#000000"
       d="m 1272.1804,-177.61922 h 1.0715 v 12.51336 h -27.3731 v 17.74576 h 22.1287 v 12.30066 h -22.1287 v 33.46556 h -13.5821 v -76.02667 z"
       id="path16" />
    <path
       style="baseline-shift:baseline;display:inline;overflow:visible;vector-effect:none;fill:#fb7e14;stroke:none;stroke-width:20.7991;stroke-linecap:round;stroke-linejoin:round;stroke-dasharray:none;stroke-opacity:1;paint-order:markers stroke fill;enable-background:accumulate;stop-color:#000000"
       d="m 1109.5041,-177.61922 h 1.1765 v 76.13435 h -13.2645 v -76.13303 z"
       id="path15" />
    <path
       style="baseline-shift:baseline;display:inline;overflow:visible;vector-effect:none;fill:#fb7e14;stroke:none;stroke-width:20.7991;stroke-linecap:round;stroke-linejoin:round;stroke-dasharray:none;stroke-opacity:1;paint-order:markers stroke fill;enable-background:accumulate;stop-color:#000000"
       d="m 953.18477,-113.9969 h 37.64244 v 12.29534 h -51.0066 v -75.91766 h 13.36416 z"
       id="path14" />
  </g>
  <g
     id="g26"
     transform="translate(-7.0143,-1.0212136)">
    <path
       style="baseline-shift:baseline;display:inline;overflow:visible;vector-effect:none;fill:#ffffff;stroke:none;stroke-width:20.7991;stroke-linecap:round;stroke-linejoin:round;stroke-dasharray:none;stroke-opacity:1;paint-order:markers stroke fill;enable-background:accumulate;stop-color:#000000"
       d="m 832.89921,34.488551 a 10.400569,10.400569 0 0 0 -10.40128,10.39869 v 76.028539 a 10.400569,10.400569 0 0 0 10.40128,10.39868 h 13.57671 a 10.400569,10.400569 0 0 0 10.40129,-10.39868 V 97.849131 h 11.73065 a 10.400569,10.400569 0 0 0 10.39868,-10.40128 v -12.29928 a 10.400569,10.400569 0 0 0 -4.09196,-7.78668 10.400569,10.400569 0 0 0 9.33675,-9.95988 v -12.51218 a 10.400569,10.400569 0 0 0 -10.39869,-10.40129 h -1.06973 z"
       id="path20" />
    <path
       style="baseline-shift:baseline;display:inline;overflow:visible;vector-effect:none;fill:#ffffff;stroke:none;stroke-width:20.7991;stroke-linecap:round;stroke-linejoin:round;stroke-dasharray:none;stroke-opacity:1;paint-order:markers stroke fill;enable-background:accumulate;stop-color:#000000"
       d="m 670.31101,34.488551 a 10.400569,10.400569 0 0 0 -10.39867,10.40129 v 75.916889 a 10.400569,10.400569 0 0 0 10.39867,10.39868 h 51.0042 A 10.400569,10.400569 0 0 0 731.7139,120.80673 V 108.51265 A 10.400569,10.400569 0 0 0 721.31521,98.111361 h -27.2391 v -53.22153 a 10.400569,10.400569 0 0 0 -10.40128,-10.40129 z"
       id="path19" />
    <path
       style="baseline-shift:baseline;display:inline;overflow:visible;vector-effect:none;fill:#ffffff;stroke:none;stroke-width:20.7991;stroke-linecap:round;stroke-linejoin:round;stroke-dasharray:none;stroke-opacity:1;paint-order:markers stroke fill;enable-background:accumulate;stop-color:#000000"
       d="m 501.18503,34.384691 a 10.400569,10.400569 0 0 0 -10.39869,10.39868 v 12.61864 a 10.400569,10.400569 0 0 0 10.39869,10.40127 h 4.2088 L 476.1425,116.1747 a 10.400569,10.400569 0 0 0 8.89794,15.78108 h 14.53998 a 10.400569,10.400569 0 0 0 8.83824,-4.92023 l 12.17984,-19.64715 8.30338,21.54514 a 10.400569,10.400569 0 0 0 12.64978,6.23401 l 23.52622,-6.94803 a 10.400569,10.400569 0 0 0 7.0415,-12.87827 l -3.6376,-12.51477 a 10.400569,10.400569 0 0 0 -13.27812,-6.961019 l -1.46958,0.48813 -21.24396,-55.29869 a 10.400569,10.400569 0 0 0 -9.70803,-6.67021 z"
       id="path18" />
    <path
       style="baseline-shift:baseline;display:inline;overflow:visible;vector-effect:none;fill:#ffffff;stroke:none;stroke-width:20.7991;stroke-linecap:round;stroke-linejoin:round;stroke-dasharray:none;stroke-opacity:1;paint-order:markers stroke fill;enable-background:accumulate;stop-color:#000000"
       d="m 342.86275,34.384691 a 10.400569,10.400569 0 0 0 -10.39868,10.39868 v 76.132409 a 10.400569,10.400569 0 0 0 10.39868,10.39868 h 13.57932 a 10.400569,10.400569 0 0 0 10.40128,-10.39868 V 97.737481 h 2.72364 v 23.178299 a 10.400569,10.400569 0 0 0 10.39869,10.39868 h 13.25736 a 10.400569,10.400569 0 0 0 10.40127,-10.39868 V 44.783371 a 10.400569,10.400569 0 0 0 -10.40127,-10.39868 h -13.25476 a 10.400569,10.400569 0 0 0 -10.40129,10.39868 v 19.64716 h -2.72364 v -19.64716 a 10.400569,10.400569 0 0 0 -10.40128,-10.39868 z"
       id="path5" />
    <path
       style="baseline-shift:baseline;display:inline;overflow:visible;vector-effect:none;fill:#fb7e14;stroke:none;stroke-width:20.7991;stroke-linecap:round;stroke-linejoin:round;stroke-dasharray:none;stroke-opacity:1;paint-order:markers stroke fill;enable-background:accumulate;stop-color:#000000"
       d="m 872.78231,44.889291 h 1.07014 v 12.51336 h -27.37572 v 17.74576 h 22.13136 v 12.30066 H 846.47673 V 120.91463 H 832.89855 V 44.887961 Z"
       id="path12" />
    <path
       style="baseline-shift:baseline;display:inline;overflow:visible;vector-effect:none;fill:#fb7e14;stroke:none;stroke-width:20.7991;stroke-linecap:round;stroke-linejoin:round;stroke-dasharray:none;stroke-opacity:1;paint-order:markers stroke fill;enable-background:accumulate;stop-color:#000000"
       d="m 683.67542,108.51161 h 37.63979 v 12.29534 H 670.31127 V 44.889291 h 13.36415 z"
       id="path11" />
    <path
       style="baseline-shift:baseline;display:inline;overflow:visible;vector-effect:none;fill:#fb7e14;stroke:none;stroke-width:20.7991;stroke-linecap:round;stroke-linejoin:round;stroke-dasharray:none;stroke-opacity:1;paint-order:markers stroke fill;enable-background:accumulate;stop-color:#000000"
       d="M 538.60658,125.19255 522.78309,84.133621 499.58026,121.55539 h -14.53932 l 32.39675,-53.570959 -3.63317,-10.58178 h -12.61838 v -12.61838 h 21.59695 l 24.81003,64.582119 10.90217,-3.63715 3.63848,12.51602 z"
       id="path2" />
    <path
       style="baseline-shift:baseline;display:inline;overflow:visible;vector-effect:none;fill:#fb7e14;stroke:none;stroke-width:20.7991;stroke-linecap:round;stroke-linejoin:round;stroke-dasharray:none;stroke-opacity:1;paint-order:markers stroke fill;enable-background:accumulate;stop-color:#000000"
       d="M 393.22401,44.784271 V 120.91463 H 379.9662 V 87.337401 H 356.443 V 120.91463 H 342.86348 V 44.784271 H 356.443 v 30.04642 h 23.52453 v -30.04642 z"
       id="path6" />
  </g>
  <path
     style="baseline-shift:baseline;display:inline;overflow:visible;opacity:0.98;vector-effect:none;fill:#fb7e14;stroke-linecap:round;stroke-linejoin:round;enable-background:accumulate;stop-color:#000000;stop-opacity:1"
     d="m 146.24609,5.9610467 c -76.153506,0 -138.0546837,61.9031313 -138.0546837,138.0566433 0,76.15351 61.9011777,138.05469 138.0546837,138.05469 76.15351,0 138.05664,-61.90118 138.05664,-138.05469 0,-76.153512 -61.90313,-138.0566433 -138.05664,-138.0566433 z m 0,15.6464843 c 67.6979,0 122.41016,54.712264 122.41016,122.410159 0,67.69789 -54.71226,122.41015 -122.41016,122.41015 -67.697888,0 -122.410152,-54.71226 -122.410153,-122.41015 10e-7,-67.697895 54.712265,-122.410159 122.410153,-122.410159 z"
     id="circle2" />
  <g
     id="path3"
     style="opacity:1"
     transform="translate(0,1.091501e-4)">
    <path
       style="baseline-shift:baseline;display:inline;overflow:visible;vector-effect:none;fill:#ffffff;stroke-linecap:round;stroke-linejoin:round;paint-order:markers stroke fill;enable-background:accumulate;stop-color:#000000;stop-opacity:1"
       d="m 99.283203,76.964844 a 7.8236821,7.8236821 0 0 0 -7.822266,7.822265 v 18.693361 a 7.8236821,7.8236821 0 0 0 7.822266,7.82422 h 8.671877 l 2.60351,7.38086 -43.300778,84.30859 a 7.8236821,7.8236821 0 0 0 6.958985,11.39648 h 23.117187 a 7.8236821,7.8236821 0 0 0 6.871096,-4.08398 l 22.54687,-41.45117 14.67774,44.66211 a 7.8236821,7.8236821 0 0 0 9.95898,4.96094 l 33.97461,-11.59961 a 7.8236821,7.8236821 0 0 0 4.96875,-9.63477 l -5.8457,-19.64844 a 7.8236821,7.8236821 0 0 0 -10.13281,-5.13672 l -7.82618,2.79883 -31.42382,-92.97656 a 7.8236821,7.8236821 0 0 0 -7.41016,-5.316406 z m 7.822267,15.644531 h 14.97461 l 32.17578,95.201175 a 7.8236821,7.8236821 0 0 0 10.04492,4.86132 l 7.54492,-2.69921 1.34766,4.52929 -19.37109,6.61328 -17.85938,-54.34179 a 7.8236821,7.8236821 0 0 0 -14.30469,-1.29492 l -28.974606,53.26562 h -5.65625 l 38.988286,-75.9082 a 7.8236821,7.8236821 0 0 0 0.41796,-6.17383 l -5.5625,-15.78125 a 7.8236821,7.8236821 0 0 0 -7.3789,-5.222657 h -6.38672 z"
       id="path7" />
    <path
       style="baseline-shift:baseline;display:inline;overflow:visible;vector-effect:none;fill:#fb7e14;stroke-linecap:round;stroke-linejoin:round;paint-order:markers stroke fill;enable-background:accumulate;stop-color:#000000;stop-opacity:1"
       d="m 176.98798,179.82582 5.847,19.65 -33.974,11.6 -20.33,-61.86 -31.196999,57.352 h -23.118 l 44.839999,-87.305 -5.563,-15.782 H 99.282981 V 84.786817 h 28.409999 l 33.973,100.519003 z"
       id="path8" />
  </g>
  <g
     id="path4"
     style="opacity:1"
     transform="translate(0,1.091501e-4)">
    <path
       style="baseline-shift:baseline;display:inline;overflow:visible;vector-effect:none;fill:#ffffff;stroke-linecap:round;stroke-linejoin:round;paint-order:markers stroke fill;enable-background:accumulate;stop-color:#000000;stop-opacity:1"
       d="m 186.74414,109.91602 v 0.004 c -0.0305,3.3e-4 -0.0652,-0.002 -0.0957,-0.002 a 7.8236821,7.8236821 0 0 0 -0.0254,0.0117 v -0.0117 c -5.94544,0.0927 -12.94123,1.78119 -18.00977,7.45703 -4.20552,4.6393 -5.36346,10.52611 -4.82812,15.77734 0.34308,4.59793 2.24267,9.8899 7.26757,13.24219 1.31271,0.90975 2.62555,1.59668 3.91211,2.13672 a 7.8236821,7.8236821 0 0 0 -6.09179,1.86133 l -3.8711,3.80469 a 7.8236821,7.8236821 0 0 0 0.88086,11.90429 c 6.00676,4.37187 12.71559,5.05199 18.04492,5.24805 5.85528,0.22074 12.74641,-0.64558 18.70313,-5.04297 a 7.8236821,7.8236821 0 0 0 0.006,-0.006 c 0.90349,-0.66844 1.70454,-1.45977 2.48437,-2.26953 a 7.8236821,7.8236821 0 0 0 7.44922,6.92383 h 6.58985 a 7.8236821,7.8236821 0 0 0 7.82226,-7.82422 v -12.48633 h 4.24414 v 12.48633 a 7.8236821,7.8236821 0 0 0 7.82422,7.82422 h 6.55274 a 7.8236821,7.8236821 0 0 0 7.82226,-7.82422 V 118.1543 a 7.8236821,7.8236821 0 0 0 -7.82226,-7.82422 h -6.55274 a 7.8236821,7.8236821 0 0 0 -7.82422,7.82422 v 11.89257 h -4.24414 v -11.89453 a 7.8236821,7.8236821 0 0 0 -7.82226,-7.82226 h -6.58985 a 7.8236821,7.8236821 0 0 0 -6.94531,5.70312 7.8236821,7.8236821 0 0 0 -0.98828,-1.64257 c -5.95682,-3.92875 -12.48094,-4.52617 -17.87891,-4.46875 a 7.8236821,7.8236821 0 0 0 -0.0117,-0.006 z m -138.472656,0.41406 a 7.8236821,7.8236821 0 0 0 -6.675781,11.90234 l 10.832031,17.72852 -11.800781,19.05078 a 7.8236821,7.8236821 0 0 0 6.650391,11.94336 h 7.1875 a 7.8236821,7.8236821 0 0 0 6.876953,-4.09571 l 3.546875,-6.54101 c 1.188866,2.18428 2.377939,4.36859 3.566406,6.55273 a 7.8236821,7.8236821 0 0 0 6.871094,4.08399 h 7.164062 a 7.8236821,7.8236821 0 0 0 6.65625,-11.93555 c -3.925993,-6.35257 -7.852299,-12.70453 -11.777343,-19.05664 3.610247,-5.91009 7.220848,-11.81986 10.832031,-17.73047 a 7.8236821,7.8236821 0 0 0 -6.675781,-11.90234 h -7.134766 a 7.8236821,7.8236821 0 0 0 -6.919922,4.17187 l -2.589844,4.90821 -2.589843,-4.90625 a 7.8236821,7.8236821 0 0 0 -6.919922,-4.17383 z m 156.476566,17.21484 v 8.2168 c -2.05436,-1.88063 -4.25976,-3.11566 -6.45313,-3.86914 a 7.8236821,7.8236821 0 0 0 3.89453,-1.83399 z m -34.79297,4.94922 c 0.003,0.0225 0.0162,0.0381 0.0195,0.0606 0.007,0.0439 0.002,0.0849 0.01,0.1289 z M 52.785156,138.3457 a 7.8236821,7.8236821 0 0 0 1.150391,4.08008 l -1.150391,-1.88086 z m 146.892574,1.54102 0.0117,0.0137 c -10e-4,-0.001 -0.003,-8.5e-4 -0.004,-0.002 -0.004,-0.003 -0.004,-0.008 -0.008,-0.0117 z m -18.63281,10.24805 c 1.36901,0.20315 2.69818,0.40435 3.75781,0.5332 -1.28947,-0.0462 -2.53006,-0.23366 -3.75781,-0.5332 z"
       id="path9" />
    <path
       style="baseline-shift:baseline;display:inline;overflow:visible;vector-effect:none;fill:#666666;stroke-linecap:round;stroke-linejoin:round;paint-order:markers stroke fill;enable-background:accumulate;stop-color:#000000;stop-opacity:1"
       d="m 60.608981,138.34582 1.004,1.642 -14.336,23.144 h 7.187 l 10.41,-19.203 c 3.485,6.4 6.97,12.802 10.453,19.203 h 7.164 c -4.768,-7.715 -9.537,-15.43 -14.304,-23.146 4.445,-7.278 8.892,-14.555 13.338,-21.832 h -7.135 l -9.51,18.02 -9.508,-18.02 h -7.1 l 12.337,20.191 z m 126.136999,-20.606 c -4.488,0.07 -9.25,1.41 -12.32,4.864 -2.409,2.642 -3.24,6.378 -2.86,9.868 0.194,2.87 1.388,5.832 3.868,7.459 3.332,2.342 7.525,2.549 11.418,3.126 2.57,0.35 5.427,0.554 7.393,2.46 2.228,2.15 2.636,5.772 1.397,8.535 -1.21,2.64 -4.1,3.983 -6.85,4.342 -3.93,0.486 -7.996,0.107 -11.75,-1.166 a 14.842,14.842 0 0 1 -2.685,-1.256 l -3.871,3.805 c 3.946,2.872 8.972,3.58 13.729,3.755 4.775,0.181 9.842,-0.62 13.769,-3.519 2.683,-1.985 4.526,-5.129 4.646,-8.496 0.097,-3.059 -0.148,-6.384 -2.002,-8.94 -2.148,-2.794 -5.76,-3.802 -9.088,-4.338 -2.688,-0.422 -5.414,-0.625 -8.08,-1.175 -2.758,-0.645 -5.342,-2.78 -5.763,-5.69 -0.614,-3.614 1.99,-7.2 5.384,-8.288 2.699,-0.915 5.617,-0.632 8.399,-0.336 1.832,0.23 3.66,0.727 5.228,1.728 l 3.621,-3.557 c -3.974,-2.621 -8.924,-3.238 -13.584,-3.181 z m 25.824,45.392 h 6.59 v -20.31 h 19.89 v 20.31 h 6.553 v -44.978 h -6.553 v 19.715 h -19.89 v -19.716 h -6.59 z"
       id="path10" />
  </g>
</svg>
